M48
;Layer_Color=9474304
;FILE_FORMAT=2:5
INCH,LZ
;TYPE=PLATED
T1F00S00C0.00787
T2F00S00C0.01181
T3F00S00C0.01968
T4F00S00C0.03543
T5F00S00C0.03937
T6F00S00C0.05512
T7F00S00C0.11614
%
T01
X0098819Y0103937
X0097638Y015315
X0097244Y0168504
X0120866Y0174803
X0127559Y0193701
X0107874Y0202362
X0064173
X0060236Y0201575
X0055118Y020315
X0051575Y0181102
X0053937Y0163386
X0072441Y0151969
Y0148819
X0084646Y014685
X0081102Y0154724
X0080709Y0130315
X0084646Y0129921
X0088976Y012874
X0083071Y0125197
Y0122441
X0080315
Y0114567
X0083071
Y0111811
X0087662Y011495
X0071653Y0114567
X0068898
X0074803Y010748
X006138Y0107443
X0053937Y0109449
X0051181Y0118504
X0046457
X0061811Y0127165
X0029528Y0197244
X002049Y0194134
X0020472Y0207087
Y0212205
X0017323
Y0217323
X0020472
Y0227559
X0017323
X0044412Y021981
X0048778Y0221805
X0133465Y0227559
X0136614Y0217323
X0133465Y0212598
T02
X0097638Y0157087
Y0161024
X0085827Y0159055
X0079921Y0162992
X0084252Y0185039
X0087402Y0188189
X0087469Y0191629
X0088583Y0194882
T03
X0068624Y0122764
X006971Y0130085
T04
X0124409Y0109134
Y0119134
Y0129134
X009189Y0228346
X008189
X007189Y0228346
X006189Y0228346
Y0238583
X007189
X008189
X009189
T05
X0079921Y0175984
X0092126
T06
X0076732Y0007087
X0076732Y0026772
X0096417
X0116102
X0116102Y0007087
X0096417Y0007087
T07
X0123976Y0092913
X0051142
M30
