M48
;Layer_Color=9474304
;FILE_FORMAT=2:5
INCH,LZ
;TYPE=PLATED
T1F00S00C0.00787
T2F00S00C0.01299
T3F00S00C0.01575
T4F00S00C0.02800
T5F00S00C0.03543
T6F00S00C0.03940
T7F00S00C0.11811
%
T01
X0500984Y0136614
Y0148425
X0481299Y0148031
X0487205Y0136614
X0458858Y0138976
X044311Y0127165
X0434449
X0423819
X0424213Y0131496
X0413976Y0126772
X0410039Y0127165
X0400984
X0391929
X0381693
X037185Y0126772
X0367913Y0127165
X0358858
X0350197
X035374Y0112992
X0344291
X0363189
X0372638
X0382087
X0391535
X0400984
X0410433
X0419882
X0429331
X0438779
X0448228
X0454528
X0459252Y0103543
X044311Y0098819
X0434449
X0423819
X0424213Y0094488
X0424213Y0079528
X0423819Y0075197
X0413976Y0074803
X0410039Y0075197
X0400984
X0391929
X0381693
X037185Y0074803
X0367913Y0075197
X0358858
X0350197
X035374Y0061024
X0344291
X0363189
X0372638
X0382087
X0391535
X0400984
X0410433
X0419882
X0429331
X0438779
X0448228
X0454528
X044311Y0075197
X0434449
Y004685
X044311
X0423819
X0424213Y004252
X0413976Y0047244
X0410039Y004685
X0400984
X0391929
X0381693
X037185Y0047244
X0367913Y004685
X0358858
X0350197
Y0023228
X0358858
X0367913
X037185Y0022835
X0381693Y0023228
X0391929
X0400984
X0410039
X0413976Y0022835
X0423819Y0023228
X0424213Y0027559
X0434449Y0023228
X044311
X0438779Y0009449
X0448228
X0454528
X0429331
X0419882
X0410433
X0400984
X0391535
X0382087
X0372638
X0363189
X035374
X0344291
X0350197Y0098819
X0358858
X0367913
X037185Y0099213
X0381693Y0098819
X0391929
X0400984
X0410039
X0413976Y0099213
X0424213Y0146457
X0459252Y0035039
X0339567Y004685
X0329724Y0047244
X0325787Y004685
X0316732
X0308071
X0297441
X0287598Y0047244
X0283661Y004685
X0274606
X0265945
X0255315
X0245472Y0047244
X0241535Y004685
X023248
X0223819
X0213189
X0203346Y0047244
X0199409Y004685
X0190354
X019311Y0061024
X0183661
X0202559
X0212008
X0221457
X0230906
X0240354
X0249803
X0259252
X0268701
X027815
X0287598
X0297047
X0306496
X0315945
X0325394
X0334842
X0329724Y0074803
X0325787Y0075197
X0316732
X0308071
X0297441
X0287598Y0074803
X0283661Y0075197
X0274606
X0265945
X0255315
X0245472Y0074803
X0241535Y0075197
X023248
X0223819
X0213189
X0203346Y0074803
X0199409Y0075197
X0190354
Y0098819
X0199409
X0203346Y0099213
X0213189Y0098819
X0223819
X023248
X0241535
X0245472Y0099213
X0255315Y0098819
X0265945
X0274606
X0283661
X0287598Y0099213
X0297441Y0098819
X0308071
X0316732
X0325787
X0329724Y0099213
X0339567Y0098819
X0334842Y0112992
X0325394
X0315945
X0306496
X0297047
X0287598
X027815
X0268701
X0259252
X0249803
X0240354
X0230906
X0221457
X0212008
X0202559
X019311
X0183661
X0190354Y0127165
X0199409
X0203346Y0126772
X0213189Y0127165
X0223819
X023248
X0241535
X0245472Y0126772
X0255315Y0127165
X0265945
X0274606
X0283661
X0287598Y0126772
X0297441Y0127165
X0308071
X0316732
X0325787
X0329724Y0126772
X0339567Y0127165
Y0075197
Y0023228
X0329724Y0022835
X0325787Y0023228
X0316732
X0308071
X0297441
X0287598Y0022835
X0283661Y0023228
X0274606
X0265945
X0255315
X0245472Y0022835
X0241535Y0023228
X023248
X0223819
X0213189
X0203346Y0022835
X0199409Y0023228
X0190354
X019311Y0009449
X0183661
X0202559
X0212008
X0221457
X0230906
X0240354
X0249803
X0259252
X0268701
X027815
X0287598
X0297047
X0306496
X0315945
X0325394
X0334842
X0174213
X0164764
X0155315
X0145866
X0136417
X0126969
X0122638Y0017717
X0113913Y0022001
X0111945Y002397
Y0020033
X0114012Y0026037
X0112043Y0028005
X0108894Y0031155
X0108858Y0033858
X0107283Y0039764
X0108465Y0043701
X0112008Y004685
Y0050787
Y0054724
X0113976Y0052756
Y0048819
X0103937Y0048524
Y0052854
X0099606
Y0048524
X010121Y0036872
X0099606Y0026181
Y002185
X0103937Y002185
X0103937Y0026181
X0107677Y0012992
X0101257Y0010331
X0085236Y0035039
Y0037402
Y0040157
Y0042913
X0078422Y0049531
X007606
X0073304
X0070548
X0067913Y0052756
X0061614Y005
X0054134Y004252
X0056299Y0040157
X0051772Y0034843
Y0030118
X0045866Y0035039
X0066339Y0035039
Y0030709
X0070669
Y0035039
Y003937
X0066339Y003937
X0075
X0075Y0035039
X0075Y0030709
X0065354Y0019685
Y0016535
X0065158Y0068504
Y0071653
X0066339Y0082677
Y0087008
Y0091339
X0070669Y0091339
Y0087008
X0075
X0075Y0082677
X0070669
X0075Y0091339
X0056299Y0092126
X0054134Y0094488
X0051575Y0087008
X0047638Y0076968
X0040551
X0035039
X0030512
X0032874Y0057087
X002815
X0037992
X0042913
X0041535Y0091339
X0036417Y0094685
X0036024Y0101969
X0044882Y0108858
X0049213Y0111614
Y0116929
X0051772Y0133858
Y0138976
X0056299Y0144095
X0054134Y0146457
X0045276
Y0143504
X0028346Y0139567
X003189Y0129134
X0065354Y0123819
Y0120669
X0066339Y0134646
X0070669Y0134646
Y0138976
Y0143307
X0066339Y0143307
X0066339Y0138976
X0075Y0138976
X0075Y0134646
Y0143307
X0085236Y0144095
Y014685
Y0141339
Y0138976
X0100799Y0140305
X010689Y0142913
X0108465Y0147638
X0108894Y0137848
Y0135092
X0112043Y0131942
X0114012Y0129974
X0113913Y0125938
X0111945Y0127907
Y012397
X0103972Y0125741
Y0130072
X0099642Y0130072
Y0125741
X0101085Y0114489
X0107283Y0116929
X0108465Y0109843
X0112008Y0106693
Y0102756
X0113976Y0104724
Y0100787
X0112008Y0098819
X0108465Y0095669
X0107283Y0091732
X0108894Y0085879
Y0083123
X0112043Y0079974
X0114012Y0078005
X0113913Y007397
X0111945Y0075938
Y0072001
X0103972Y0073773
Y0078104
X0099642
Y0073773
X0091535Y0074016
Y0077953
X0089567Y0075984
Y0079921
X0094685Y0083071
X0099803Y0086221
X0100984Y0088976
X0099606Y0100501
Y0104832
X0103937
Y0100501
X0126181Y0098819
X0131693Y0098819
X0139567Y0098819
X0148228
X0149016Y0103937
X0145866Y0112992
X0155315
X0164764
X0174213
X0171063Y0098819
X0161221Y0099213
X0157283Y0098819
X0164764Y0083858
X0161221Y0074803
X0157283Y0075197
X0148228
X0149409Y0070079
X0145866Y0061024
X0155315
X0164764
X0174213
X0171063Y0075197
X0181693
Y0098819
Y0127165
X0171063
X0161221Y0126772
X0157283Y0127165
X0148228
X0149409Y0122047
X0139567Y0127165
X0131299
X0122638Y0121653
X0126969Y0112992
X0136417
X0139567Y0075197
X0131299
X0122638Y0069291
X0126969Y0061024
X0136417
X0139567Y004685
X0131693
X0126181
X0148228
X0149016Y0051968
X0157283Y004685
X0161221Y0047244
X0171063Y004685
X0181693
Y0023228
X0171063
X0161221Y0022835
X0157283Y0023228
X0148228
X0149409Y001811
X0139567Y0023228
X0131299
X0164764Y003189
X0108465Y0057874
X0107283Y0064961
X0101221Y0062362
X0097835Y0065354
X0094685Y0069685
X0068307Y0104331
X0062349Y0102017
X0164764Y0135827
X0024213Y0131496
X0023303Y0121395
X0015157Y0122638
X0012756Y0116929
X001063Y0112795
X0026181Y0094488
Y0091535
X0025591Y0076968
X0021063
X0016339
X0019094Y0064173
X0023228
X0015157Y0035039
X0022047Y0142323
X0020472Y0146457
X0024213Y016752
X0025394Y0214567
X001437
Y0227953
X0017913Y023563
X0022835Y0236024
X0027953
X0032874
X0037992Y0236221
X0042913
X0051575Y0237795
Y0240354
Y0242913
X0056299Y0248031
X0054134Y0250394
X0061588Y0257819
X0067913Y026063
X0066339Y0247244
X0066339Y0242913
X0070669
Y0238583
X0066339Y0238583
X0075
X0075Y0242913
X0075Y0247244
X0070669Y0247244
X0065354Y0227953
Y0224803
X0067913Y0208661
X0061614Y0205906
X0048819Y0204134
X0040354
X0040945Y0214567
X0049016
X0046457Y0227953
X0054134Y0198425
X0056299Y0196063
X0051772Y0190945
Y018563
X0066339Y0186614
Y0190945
Y0195276
X0070669Y0195276
Y0190945
Y0186614
X0075
Y0190945
Y0195276
X0089567Y0183858
Y0179921
X0091535Y018189
Y0177953
X0094685Y0173622
X0097835Y0169291
X0101181Y0166339
X0107283Y0168898
X0108465Y0161811
X0112008Y0158661
Y0154724
X0113976Y0156693
Y0152756
X0112008Y0150787
X0103937Y0152434
Y0156765
X0099606
Y0152434
X0078422Y0153468
X007606
X0073304
X0070548
X0067913Y0156693
X0062008Y0153937
X0065083Y017268
Y0175829
X0099642Y017771
Y0182041
X0103972
Y017771
X0111945Y0175938
Y0179875
X0113913Y0177907
X0114012Y0181942
X0112043Y0183911
X0108894Y018706
Y0189816
X0107677Y0195669
X0108465Y0199606
X0112008Y0202756
Y0206693
Y021063
X0113976Y0208661
Y0204724
X0103937Y0204409
Y020874
X0099606
Y0204409
X0101378Y0192913
X0099803Y0190157
X0094685Y0187008
X0098622Y0220866
X0107677
X0108465Y0213779
X0111945Y0227907
Y0231844
X0113913Y0229875
X0114012Y0233911
X0112043Y0235879
X0108894Y0239029
Y0241785
X0107677Y0247638
X0108465Y0251575
X0112008Y0254724
Y0258661
Y0262598
X0113976Y026063
Y0256693
X0103937Y0256336
Y0260667
X0099606
Y0256336
X0101378Y0244882
X0099642Y0234009
X0103972
Y0229678
X0099642
X0122638Y0225197
X0126969Y0216929
X0136417
X0145866
X0155315
X0164764
X0174213
X0171063Y0202756
X0161221Y020315
X0157283Y0202756
X0148228
X0149016Y0207874
X0139567Y0202756
X0131693Y0202756
X0126181Y0202756
X0131299Y0179134
X0139567
X0148228
X0149409Y0174016
X0145866Y0164961
X0155315
X0164764
X0174213
X0171063Y0179134
X0161221Y017874
X0157283Y0179134
X0164764Y0187795
X0181693Y0179134
Y0202756
X0181693Y0231102
X0171063
X0161221Y0230709
X0157283Y0231102
X0148228
X0149409Y0225984
X0139567Y0231102
X0131299
X0131693Y0254724
X0126181
X0139567
X0148228
X0149016Y0259842
X0145866Y0268504
X0155315
X0164764
X0174213
X0171063Y0254724
X0161221Y0255118
X0157283Y0254724
X0164764Y0239764
X0181693Y0254724
X0136417Y0268504
X0126969
X0108465Y0265748
X0122638Y0173228
X0126969Y0164961
X0136417
X0139567Y0150787
X0131693
X0126181
X0148228
X0149016Y0155905
X0157283Y0150787
X0161221Y0151181
X0171063Y0150787
X0181693
X0190354
X0199409
X0203346Y0151181
X0213189Y0150787
X0223819
X023248
X0241535
X0245472Y0151181
X0255315Y0150787
X0265945
X0274606
X0283661
X0287598Y0151181
X0297441Y0150787
X0308071
X0316732
X0325787
X0329724Y0151181
X0339567Y0150787
X0334842Y0164961
X0325394
X0315945
X0306496
X0297047
X0287598
X027815
X0268701
X0259252
X0249803
X0240354
X0230906
X0221457
X0212008
X0202559
X019311
X0183661
X0190354Y0179134
X0199409
X0203346Y017874
X0213189Y0179134
X0223819
X023248
X0241535
X0245472Y017874
X0255315Y0179134
X0265945
X0274606
X0283661
X0287598Y017874
X0297441Y0179134
X0308071
X0316732
X0325787
X0329724Y017874
X0339567Y0179134
Y0202756
X0329724Y020315
X0325787Y0202756
X0316732
X0308071
X0297441
X0287598Y020315
X0283661Y0202756
X0274606
X0265945
X0255315
X0245472Y020315
X0241535Y0202756
X023248
X0223819
X0213189
X0203346Y020315
X0199409Y0202756
X0190354
X019311Y0216929
X0183661
X0202559
X0212008
X0221457
X0230906
X0240354
X0249803
X0259252
X0268701
X027815
X0287598
X0297047
X0306496
X0315945
X0325394
X0334842
X0329724Y0230709
X0325787Y0231102
X0316732
X0308071
X0297441
X0287598Y0230709
X0283661Y0231102
X0274606
X0265945
X0255315
X0245472Y0230709
X0241535Y0231102
X023248
X0223819
X0213189
X0203346Y0230709
X0199409Y0231102
X0190354
Y0254724
X0199409
X0203346Y0255118
X0213189Y0254724
X0223819
X023248
X0241535
X0245472Y0255118
X0255315Y0254724
X0265945
X0274606
X0283661
X0287598Y0255118
X0297441Y0254724
X0308071
X0316732
X0325787
X0329724Y0255118
X0339567Y0254724
X0334842Y0268504
X0325394
X0315945
X0306496
X0297047
X0287598
X027815
X0268701
X0259252
X0249803
X0240354
X0230906
X0221457
X0212008
X0202559
X019311
X0183661
X0339567Y0231102
X0350197
X0358858
X0367913
X037185Y0230709
X0381693Y0231102
X0391929
X0400984
X0410039
X0413976Y0230709
X0423819Y0231102
X0425Y0236221
X0424803Y0249803
X0423819Y0254724
X0413976Y0255118
X0410039Y0254724
X0400984
X0391929
X0381693
X037185Y0255118
X0367913Y0254724
X0358858
X0350197
X035374Y0268504
X0344291
X0363189
X0372638
X0382087
X0391535
X0400984
X0410433
X0419882
X0429331
X0438779
X0448228
X0454528
X044311Y0254724
X0434449
Y0231102
X044311
X0438779Y0216929
X0448228
X0454528
X0459646Y0227165
X0459252Y0242913
Y0206299
X044311Y0202756
X0434449
X0423819
X0424606Y0198031
X0424606Y0183858
X0423819Y0179134
X0413976Y017874
X0410039Y0179134
X0400984
X0391929
X0381693
X037185Y017874
X0367913Y0179134
X0358858
X0350197
X035374Y0164961
X0344291
X0363189
X0372638
X0382087
X0391535
X0400984
X0410433
X0419882
X0429331
X0438779
X0454528
X044311Y0179134
X0434449
X0434449Y0150787
X044311
X0423819
X0413976Y0151181
X0410039Y0150787
X0400984
X0391929
X0381693
X037185Y0151181
X0367913Y0150787
X0358858
X0350197
X0350197Y0202756
X0358858
X0367913
X037185Y020315
X0381693Y0202756
X0391929
X0400984
X0410039
X0413976Y020315
X0410433Y0216929
X0419882
X0429331
X0400984
X0391535
X0382087
X0372638
X0363189
X035374
X0344291
T02
X0028543Y0111024
X0033268
Y0115748
X0028543
T03
X0126181Y0023228
X0132874Y0030315
X0126181Y0075197
X0132874Y0082284
X0126181Y0127165
X0132874Y0134252
X0126181Y0179134
X0132874Y0186221
X0126181Y0231102
X0132874Y0238189
T04
X0028543Y0173622
Y0181496
Y0202362
Y0210236
T05
X0497992Y0028898
Y0038898
Y0048898
Y0058898
X0497992Y0068898
X0497992Y0078898
Y0088898
X0497992Y0098898
X0497992Y0108898
Y0118898
X0487992Y0118898
Y0108898
X0487992Y0098898
Y0088898
Y0078898
X0487992Y0068898
X0487992Y0058898
Y0048898
X0487992Y0038898
X0487992Y0028898
X0006102Y0139213
Y0149213
Y0159213
Y0169213
Y0180709
Y0190709
Y0200709
Y0210709
X0487992Y0209055
Y0199055
Y0189055
Y0179055
Y0169055
Y0159055
Y0219055
Y0229055
Y0239055
Y0249055
X0497992
Y0239055
Y0229055
Y0219055
Y0209055
Y0199055
Y0189055
Y0179055
Y0169055
Y0159055
T06
X0459252Y0027559
Y004252
Y0079528
Y0094488
Y0131496
Y0146457
Y0183465
Y0198425
Y0235433
Y0250394
T07
X0471063Y0011024
X0018307
Y0266929
X0471063
M30
