G04*
G04 #@! TF.GenerationSoftware,Altium Limited,Altium Designer,20.0.9 (164)*
G04*
G04 Layer_Color=8388736*
%FSLAX25Y25*%
%MOIN*%
G70*
G01*
G75*
%ADD34R,0.16063X0.16063*%
%ADD35O,0.03543X0.01378*%
%ADD36O,0.01378X0.03543*%
%ADD37R,0.10433X0.10433*%
%ADD38R,0.03937X0.03347*%
%ADD39O,0.03937X0.01575*%
%ADD40O,0.01575X0.03937*%
%ADD41R,0.09646X0.09646*%
G04:AMPARAMS|DCode=42|XSize=26.38mil|YSize=27.95mil|CornerRadius=8.07mil|HoleSize=0mil|Usage=FLASHONLY|Rotation=0.000|XOffset=0mil|YOffset=0mil|HoleType=Round|Shape=RoundedRectangle|*
%AMROUNDEDRECTD42*
21,1,0.02638,0.01181,0,0,0.0*
21,1,0.01024,0.02795,0,0,0.0*
1,1,0.01614,0.00512,-0.00591*
1,1,0.01614,-0.00512,-0.00591*
1,1,0.01614,-0.00512,0.00591*
1,1,0.01614,0.00512,0.00591*
%
%ADD42ROUNDEDRECTD42*%
%ADD43R,0.03347X0.07284*%
%ADD44O,0.04528X0.01772*%
%ADD45O,0.01772X0.04528*%
%ADD46R,0.03347X0.03937*%
%ADD47R,0.07284X0.03347*%
G04:AMPARAMS|DCode=48|XSize=26.38mil|YSize=27.95mil|CornerRadius=8.07mil|HoleSize=0mil|Usage=FLASHONLY|Rotation=90.000|XOffset=0mil|YOffset=0mil|HoleType=Round|Shape=RoundedRectangle|*
%AMROUNDEDRECTD48*
21,1,0.02638,0.01181,0,0,90.0*
21,1,0.01024,0.02795,0,0,90.0*
1,1,0.01614,0.00591,0.00512*
1,1,0.01614,0.00591,-0.00512*
1,1,0.01614,-0.00591,-0.00512*
1,1,0.01614,-0.00591,0.00512*
%
%ADD48ROUNDEDRECTD48*%
%ADD49R,0.03583X0.10039*%
%ADD50R,0.03091X0.03091*%
%ADD51R,0.02756X0.03740*%
%ADD52R,0.03425X0.04134*%
%ADD53R,0.06496X0.06496*%
%ADD54C,0.06496*%
%ADD55R,0.06496X0.06496*%
%ADD56C,0.05591*%
%ADD57C,0.02362*%
%ADD58C,0.02953*%
%ADD59C,0.03398*%
%ADD60C,0.02559*%
%ADD61C,0.22244*%
G36*
X39343Y61850D02*
X39354D01*
X39366Y61849D01*
X39377Y61848D01*
X39389Y61845D01*
X39400Y61843D01*
X39411Y61839D01*
X39423Y61837D01*
X39433Y61832D01*
X39444Y61829D01*
X40363Y61448D01*
X40374Y61443D01*
X40384Y61438D01*
X40394Y61432D01*
X40405Y61427D01*
X40414Y61420D01*
X40424Y61414D01*
X40433Y61406D01*
X40442Y61400D01*
X40450Y61392D01*
X40459Y61384D01*
X41162Y60681D01*
X41170Y60672D01*
X41178Y60664D01*
X41185Y60654D01*
X41193Y60645D01*
X41199Y60635D01*
X41206Y60626D01*
X41211Y60616D01*
X41217Y60606D01*
X41221Y60595D01*
X41227Y60585D01*
X41607Y59666D01*
X41611Y59655D01*
X41615Y59644D01*
X41618Y59633D01*
X41622Y59622D01*
X41623Y59610D01*
X41626Y59599D01*
X41627Y59587D01*
X41629Y59576D01*
Y59564D01*
X41630Y59552D01*
Y59055D01*
Y58558D01*
X41629Y58546D01*
Y58535D01*
X41627Y58523D01*
X41626Y58512D01*
X41623Y58500D01*
X41622Y58489D01*
X41618Y58478D01*
X41615Y58466D01*
X41611Y58455D01*
X41607Y58444D01*
X41227Y57526D01*
X41221Y57515D01*
X41217Y57504D01*
X41211Y57495D01*
X41206Y57484D01*
X41199Y57475D01*
X41193Y57465D01*
X41185Y57456D01*
X41178Y57447D01*
X41170Y57438D01*
X41162Y57429D01*
X40459Y56726D01*
X40450Y56719D01*
X40442Y56710D01*
X40433Y56704D01*
X40424Y56696D01*
X40414Y56690D01*
X40405Y56683D01*
X40394Y56678D01*
X40384Y56672D01*
X40374Y56667D01*
X40363Y56662D01*
X39444Y56282D01*
X39433Y56278D01*
X39423Y56273D01*
X39411Y56271D01*
X39400Y56267D01*
X39389Y56265D01*
X39377Y56263D01*
X39366Y56262D01*
X39354Y56260D01*
X39342D01*
X39331Y56259D01*
X38834D01*
X38787Y56263D01*
X38742Y56273D01*
X38699Y56291D01*
X38660Y56315D01*
X38624Y56346D01*
X38594Y56381D01*
X38583Y56400D01*
X38571Y56381D01*
X38541Y56346D01*
X38506Y56315D01*
X38466Y56291D01*
X38423Y56273D01*
X38378Y56263D01*
X38332Y56259D01*
X37834D01*
X37823Y56260D01*
X37811D01*
X37800Y56262D01*
X37788Y56263D01*
X37777Y56265D01*
X37765Y56267D01*
X37754Y56271D01*
X37743Y56273D01*
X37732Y56278D01*
X37721Y56282D01*
X36802Y56662D01*
X36792Y56667D01*
X36781Y56672D01*
X36771Y56678D01*
X36761Y56683D01*
X36751Y56690D01*
X36741Y56696D01*
X36733Y56704D01*
X36723Y56710D01*
X36715Y56719D01*
X36706Y56726D01*
X36003Y57429D01*
X35995Y57438D01*
X35987Y57447D01*
X35980Y57456D01*
X35973Y57465D01*
X35967Y57475D01*
X35960Y57484D01*
X35954Y57495D01*
X35948Y57504D01*
X35944Y57515D01*
X35939Y57526D01*
X35558Y58444D01*
X35554Y58455D01*
X35550Y58466D01*
X35547Y58478D01*
X35544Y58489D01*
X35542Y58500D01*
X35539Y58512D01*
X35538Y58523D01*
X35536Y58535D01*
Y58546D01*
X35535Y58558D01*
Y59055D01*
Y59552D01*
X35536Y59564D01*
Y59576D01*
X35538Y59587D01*
X35539Y59599D01*
X35542Y59610D01*
X35544Y59622D01*
X35547Y59633D01*
X35550Y59644D01*
X35554Y59655D01*
X35558Y59666D01*
X35939Y60585D01*
X35944Y60595D01*
X35948Y60606D01*
X35954Y60616D01*
X35960Y60626D01*
X35967Y60635D01*
X35973Y60645D01*
X35980Y60654D01*
X35987Y60664D01*
X35995Y60672D01*
X36003Y60681D01*
X36706Y61384D01*
X36715Y61392D01*
X36723Y61400D01*
X36733Y61406D01*
X36741Y61414D01*
X36751Y61420D01*
X36761Y61427D01*
X36771Y61432D01*
X36781Y61438D01*
X36792Y61443D01*
X36802Y61448D01*
X37721Y61829D01*
X37732Y61832D01*
X37743Y61837D01*
X37754Y61839D01*
X37765Y61843D01*
X37777Y61845D01*
X37788Y61848D01*
X37800Y61849D01*
X37811Y61850D01*
X37823D01*
X37834Y61851D01*
X38332D01*
X38378Y61848D01*
X38423Y61837D01*
X38466Y61819D01*
X38506Y61795D01*
X38541Y61765D01*
X38571Y61729D01*
X38583Y61711D01*
X38594Y61729D01*
X38624Y61765D01*
X38660Y61795D01*
X38699Y61819D01*
X38742Y61837D01*
X38787Y61848D01*
X38834Y61851D01*
X39331D01*
X39343Y61850D01*
D02*
G37*
D34*
X82677Y89370D02*
D03*
Y189764D02*
D03*
D35*
X73327Y131299D02*
D03*
Y133071D02*
D03*
Y134843D02*
D03*
X73327Y136614D02*
D03*
X73327Y138386D02*
D03*
Y140157D02*
D03*
Y141929D02*
D03*
X57382D02*
D03*
Y140157D02*
D03*
Y138386D02*
D03*
X57382Y136614D02*
D03*
X57382Y134843D02*
D03*
Y133071D02*
D03*
Y131299D02*
D03*
D36*
X70669Y144587D02*
D03*
X68898D02*
D03*
X67126D02*
D03*
X65354Y144587D02*
D03*
X63583Y144587D02*
D03*
X61811D02*
D03*
X60039D02*
D03*
Y128642D02*
D03*
X61811D02*
D03*
X63583D02*
D03*
X65354Y128642D02*
D03*
X67126Y128642D02*
D03*
X68898D02*
D03*
X70669D02*
D03*
D37*
X65354Y136614D02*
D03*
D38*
X424803Y73228D02*
D03*
X424803Y77953D02*
D03*
X430709Y73228D02*
D03*
X430709Y77953D02*
D03*
X424803Y187402D02*
D03*
Y192126D02*
D03*
X430709Y187402D02*
D03*
Y192126D02*
D03*
D39*
X101083Y108268D02*
D03*
Y106299D02*
D03*
Y104331D02*
D03*
Y102362D02*
D03*
Y100394D02*
D03*
X115453D02*
D03*
Y102362D02*
D03*
Y104331D02*
D03*
Y106299D02*
D03*
Y108268D02*
D03*
X101083Y208661D02*
D03*
Y206693D02*
D03*
Y204724D02*
D03*
Y202756D02*
D03*
Y200787D02*
D03*
X115453D02*
D03*
Y202756D02*
D03*
Y204724D02*
D03*
Y206693D02*
D03*
Y208661D02*
D03*
X101083Y178740D02*
D03*
Y176772D02*
D03*
Y174803D02*
D03*
Y172835D02*
D03*
Y170866D02*
D03*
X115453D02*
D03*
Y172835D02*
D03*
Y174803D02*
D03*
Y176772D02*
D03*
Y178740D02*
D03*
X101083Y78347D02*
D03*
Y76378D02*
D03*
Y74409D02*
D03*
Y72441D02*
D03*
Y70472D02*
D03*
X115453D02*
D03*
Y72441D02*
D03*
Y74409D02*
D03*
Y76378D02*
D03*
Y78347D02*
D03*
D40*
X104331Y97146D02*
D03*
X106299D02*
D03*
X108268D02*
D03*
X110236D02*
D03*
X112205D02*
D03*
Y111516D02*
D03*
X110236D02*
D03*
X108268D02*
D03*
X106299D02*
D03*
X104331D02*
D03*
Y197539D02*
D03*
X106299D02*
D03*
X108268D02*
D03*
X110236D02*
D03*
X112205D02*
D03*
Y211910D02*
D03*
X110236D02*
D03*
X108268D02*
D03*
X106299D02*
D03*
X104331D02*
D03*
Y167618D02*
D03*
X106299D02*
D03*
X108268D02*
D03*
X110236D02*
D03*
X112205D02*
D03*
Y181988D02*
D03*
X110236D02*
D03*
X108268D02*
D03*
X106299D02*
D03*
X104331D02*
D03*
Y67224D02*
D03*
X106299D02*
D03*
X108268D02*
D03*
X110236D02*
D03*
X112205D02*
D03*
Y81595D02*
D03*
X110236D02*
D03*
X108268D02*
D03*
X106299D02*
D03*
X104331D02*
D03*
D41*
X108268Y104331D02*
D03*
Y204724D02*
D03*
Y174803D02*
D03*
Y74409D02*
D03*
D42*
X111181Y93307D02*
D03*
X107717D02*
D03*
X76614Y204724D02*
D03*
X80079D02*
D03*
X75354Y174803D02*
D03*
X71890D02*
D03*
X75354Y171653D02*
D03*
X71890D02*
D03*
X111181Y193701D02*
D03*
X107717D02*
D03*
X111181Y163779D02*
D03*
X107717D02*
D03*
X76614Y104331D02*
D03*
X80079D02*
D03*
X75354Y71260D02*
D03*
X71890D02*
D03*
X75354Y74410D02*
D03*
X71890D02*
D03*
X111181Y63386D02*
D03*
X107717D02*
D03*
X49055Y143307D02*
D03*
X52520D02*
D03*
X81260Y140551D02*
D03*
X77795D02*
D03*
X63465Y97244D02*
D03*
X66929D02*
D03*
X63465Y94095D02*
D03*
X66929D02*
D03*
X61890Y116142D02*
D03*
X65354D02*
D03*
X61890Y119291D02*
D03*
X65354D02*
D03*
X28346Y111811D02*
D03*
X24882D02*
D03*
X20709Y134252D02*
D03*
X24173Y134252D02*
D03*
X52520Y140157D02*
D03*
X49055D02*
D03*
X77795Y134252D02*
D03*
X81260D02*
D03*
D43*
X446063Y33071D02*
D03*
X458661D02*
D03*
X467323D02*
D03*
X475984D02*
D03*
Y57480D02*
D03*
X467323D02*
D03*
X458661D02*
D03*
X446063D02*
D03*
Y71260D02*
D03*
X458661D02*
D03*
X467323D02*
D03*
X475984D02*
D03*
Y95669D02*
D03*
X467323D02*
D03*
X458661D02*
D03*
X446063D02*
D03*
Y109449D02*
D03*
X458661D02*
D03*
X467323D02*
D03*
X475984D02*
D03*
Y133858D02*
D03*
X467323D02*
D03*
X458661D02*
D03*
X446063D02*
D03*
Y147638D02*
D03*
X458661D02*
D03*
X467323D02*
D03*
X475984D02*
D03*
Y172047D02*
D03*
X467323D02*
D03*
X458661D02*
D03*
X446063D02*
D03*
Y185827D02*
D03*
X458661D02*
D03*
X467323D02*
D03*
X475984D02*
D03*
Y210236D02*
D03*
X467323D02*
D03*
X458661D02*
D03*
X446063D02*
D03*
X446063Y223622D02*
D03*
X458661D02*
D03*
X467323D02*
D03*
X475984D02*
D03*
Y248031D02*
D03*
X467323D02*
D03*
X458661D02*
D03*
X446063D02*
D03*
D44*
X93405Y197441D02*
D03*
Y194882D02*
D03*
Y192323D02*
D03*
Y189764D02*
D03*
Y187205D02*
D03*
Y184646D02*
D03*
Y182087D02*
D03*
X71949D02*
D03*
Y184646D02*
D03*
Y187205D02*
D03*
Y189764D02*
D03*
Y192323D02*
D03*
Y194882D02*
D03*
Y197441D02*
D03*
X93405Y97047D02*
D03*
Y94488D02*
D03*
Y91929D02*
D03*
Y89370D02*
D03*
Y86811D02*
D03*
Y84252D02*
D03*
Y81693D02*
D03*
X71949D02*
D03*
Y84252D02*
D03*
Y86811D02*
D03*
Y89370D02*
D03*
Y91929D02*
D03*
Y94488D02*
D03*
Y97047D02*
D03*
D45*
X90354Y179035D02*
D03*
X87795D02*
D03*
X85236D02*
D03*
X82677D02*
D03*
X80118D02*
D03*
X77559D02*
D03*
X75000D02*
D03*
Y200492D02*
D03*
X77559D02*
D03*
X80118D02*
D03*
X82677D02*
D03*
X85236D02*
D03*
X87795D02*
D03*
X90354D02*
D03*
Y78642D02*
D03*
X87795D02*
D03*
X85236D02*
D03*
X82677D02*
D03*
X80118D02*
D03*
X77559D02*
D03*
X75000D02*
D03*
Y100098D02*
D03*
X77559D02*
D03*
X80118D02*
D03*
X82677D02*
D03*
X85236D02*
D03*
X87795D02*
D03*
X90354D02*
D03*
D46*
X135433Y235827D02*
D03*
X130709D02*
D03*
X135433Y241732D02*
D03*
X130709D02*
D03*
X286614Y247638D02*
D03*
X281890D02*
D03*
X297244Y247638D02*
D03*
X292520Y247638D02*
D03*
X326772D02*
D03*
X322047D02*
D03*
X337008D02*
D03*
X332283D02*
D03*
X366929D02*
D03*
X362205D02*
D03*
X377165D02*
D03*
X372441D02*
D03*
X406693D02*
D03*
X401968D02*
D03*
X416929D02*
D03*
X412205D02*
D03*
X171653Y241732D02*
D03*
X166929D02*
D03*
X207874D02*
D03*
X203150D02*
D03*
X244094D02*
D03*
X239370D02*
D03*
X280315D02*
D03*
X275591D02*
D03*
X316535D02*
D03*
X311811D02*
D03*
X352756D02*
D03*
X348031D02*
D03*
X388976D02*
D03*
X384252D02*
D03*
X171653Y235827D02*
D03*
X166929D02*
D03*
X207874D02*
D03*
X203150D02*
D03*
X244094D02*
D03*
X239370D02*
D03*
X280315D02*
D03*
X275591D02*
D03*
X316535D02*
D03*
X311811D02*
D03*
X352756D02*
D03*
X348031D02*
D03*
X388976D02*
D03*
X384252D02*
D03*
X420472Y143701D02*
D03*
X425197D02*
D03*
X420472Y137795D02*
D03*
X425197D02*
D03*
X268110Y131890D02*
D03*
X272835D02*
D03*
X257480D02*
D03*
X262205D02*
D03*
X228346D02*
D03*
X233071D02*
D03*
X217717D02*
D03*
X222441D02*
D03*
X188189D02*
D03*
X192913D02*
D03*
X177559D02*
D03*
X182283D02*
D03*
X148425D02*
D03*
X153150D02*
D03*
X137795D02*
D03*
X142520D02*
D03*
X384252Y137795D02*
D03*
X388976Y137795D02*
D03*
X348031Y137795D02*
D03*
X352756D02*
D03*
X311811D02*
D03*
X316535D02*
D03*
X275591Y137795D02*
D03*
X280315Y137795D02*
D03*
X239370Y137795D02*
D03*
X244094D02*
D03*
X203150Y137795D02*
D03*
X207874D02*
D03*
X166929Y137795D02*
D03*
X171653D02*
D03*
X384252Y143701D02*
D03*
X388976D02*
D03*
X348031D02*
D03*
X352756D02*
D03*
X311811D02*
D03*
X316535D02*
D03*
X275591D02*
D03*
X280315D02*
D03*
X239370D02*
D03*
X244094D02*
D03*
X203150Y143701D02*
D03*
X207874Y143701D02*
D03*
X166929Y143701D02*
D03*
X171653D02*
D03*
X420472Y43701D02*
D03*
X425197D02*
D03*
X420472Y38189D02*
D03*
X425197D02*
D03*
X268110Y33071D02*
D03*
X272835D02*
D03*
X257480D02*
D03*
X262205D02*
D03*
X228346D02*
D03*
X233071D02*
D03*
X217717D02*
D03*
X222441D02*
D03*
X188189D02*
D03*
X192913D02*
D03*
X177559D02*
D03*
X182283Y33071D02*
D03*
X148425Y33071D02*
D03*
X153150Y33071D02*
D03*
X137795Y33071D02*
D03*
X142520D02*
D03*
X384252Y38189D02*
D03*
X388976D02*
D03*
X348031D02*
D03*
X352756D02*
D03*
X311811D02*
D03*
X316535D02*
D03*
X275591D02*
D03*
X280315D02*
D03*
X239370D02*
D03*
X244094D02*
D03*
X203150D02*
D03*
X207874D02*
D03*
X166929D02*
D03*
X171653D02*
D03*
X384252Y43701D02*
D03*
X388976D02*
D03*
X348031D02*
D03*
X352756D02*
D03*
X311811D02*
D03*
X316535D02*
D03*
X275591D02*
D03*
X280315D02*
D03*
X239370D02*
D03*
X244094D02*
D03*
X203150D02*
D03*
X207874D02*
D03*
X166929D02*
D03*
X171653D02*
D03*
X47638Y135827D02*
D03*
X52362D02*
D03*
D47*
X163386Y196850D02*
D03*
X163386Y209449D02*
D03*
Y218110D02*
D03*
Y226772D02*
D03*
X138976D02*
D03*
X138976Y218110D02*
D03*
X138976Y209449D02*
D03*
X138976Y196850D02*
D03*
X199606Y196850D02*
D03*
Y209449D02*
D03*
X199606Y218110D02*
D03*
X199606Y226772D02*
D03*
X175197D02*
D03*
X175197Y218110D02*
D03*
X175197Y209449D02*
D03*
Y196850D02*
D03*
X235827Y196850D02*
D03*
X235827Y209449D02*
D03*
Y218110D02*
D03*
X235827Y226772D02*
D03*
X211417D02*
D03*
Y218110D02*
D03*
X211417Y209449D02*
D03*
X211417Y196850D02*
D03*
X272047Y196850D02*
D03*
X272047Y209449D02*
D03*
X272047Y218110D02*
D03*
Y226772D02*
D03*
X247638D02*
D03*
Y218110D02*
D03*
X247638Y209449D02*
D03*
Y196850D02*
D03*
X308268D02*
D03*
Y209449D02*
D03*
Y218110D02*
D03*
Y226772D02*
D03*
X283858Y226772D02*
D03*
X283858Y218110D02*
D03*
X283858Y209449D02*
D03*
Y196850D02*
D03*
X344488D02*
D03*
Y209449D02*
D03*
X344488Y218110D02*
D03*
X344488Y226772D02*
D03*
X320079Y226772D02*
D03*
X320079Y218110D02*
D03*
X320079Y209449D02*
D03*
Y196850D02*
D03*
X380709Y196850D02*
D03*
Y209449D02*
D03*
Y218110D02*
D03*
Y226772D02*
D03*
X356299Y226772D02*
D03*
X356299Y218110D02*
D03*
X356299Y209449D02*
D03*
X356299Y196850D02*
D03*
X416929Y196850D02*
D03*
Y209449D02*
D03*
X416929Y218110D02*
D03*
X416929Y226772D02*
D03*
X392520Y226772D02*
D03*
X392520Y218110D02*
D03*
X392520Y209449D02*
D03*
X392520Y196850D02*
D03*
X392520Y182677D02*
D03*
Y170079D02*
D03*
Y161417D02*
D03*
Y152756D02*
D03*
X416929D02*
D03*
Y161417D02*
D03*
X416929Y170079D02*
D03*
Y182677D02*
D03*
X356299Y182677D02*
D03*
Y170079D02*
D03*
Y161417D02*
D03*
Y152756D02*
D03*
X380709D02*
D03*
Y161417D02*
D03*
X380709Y170079D02*
D03*
Y182677D02*
D03*
X320079D02*
D03*
Y170079D02*
D03*
X320079Y161417D02*
D03*
X320079Y152756D02*
D03*
X344488Y152756D02*
D03*
X344488Y161417D02*
D03*
X344488Y170079D02*
D03*
Y182677D02*
D03*
X283858D02*
D03*
Y170079D02*
D03*
Y161417D02*
D03*
Y152756D02*
D03*
X308268D02*
D03*
Y161417D02*
D03*
X308268Y170079D02*
D03*
X308268Y182677D02*
D03*
X247638Y182677D02*
D03*
Y170079D02*
D03*
Y161417D02*
D03*
Y152756D02*
D03*
X272047D02*
D03*
Y161417D02*
D03*
X272047Y170079D02*
D03*
Y182677D02*
D03*
X211417Y182677D02*
D03*
Y170079D02*
D03*
Y161417D02*
D03*
Y152756D02*
D03*
X235827Y152756D02*
D03*
X235827Y161417D02*
D03*
X235827Y170079D02*
D03*
Y182677D02*
D03*
X175197Y182677D02*
D03*
Y170079D02*
D03*
Y161417D02*
D03*
Y152756D02*
D03*
X199606D02*
D03*
Y161417D02*
D03*
X199606Y170079D02*
D03*
Y182677D02*
D03*
X138976Y182677D02*
D03*
Y170079D02*
D03*
X138976Y161417D02*
D03*
X138976Y152756D02*
D03*
X163386Y152756D02*
D03*
X163386Y161417D02*
D03*
X163386Y170079D02*
D03*
Y182677D02*
D03*
X392520Y82284D02*
D03*
Y69685D02*
D03*
X392520Y61024D02*
D03*
X392520Y52362D02*
D03*
X416929D02*
D03*
Y61024D02*
D03*
Y69685D02*
D03*
Y82284D02*
D03*
X356299Y82284D02*
D03*
Y69685D02*
D03*
Y61024D02*
D03*
Y52362D02*
D03*
X380709D02*
D03*
Y61024D02*
D03*
X380709Y69685D02*
D03*
Y82284D02*
D03*
X320079D02*
D03*
Y69685D02*
D03*
Y61024D02*
D03*
Y52362D02*
D03*
X344488Y52362D02*
D03*
X344488Y61024D02*
D03*
X344488Y69685D02*
D03*
Y82284D02*
D03*
X283858Y82284D02*
D03*
Y69685D02*
D03*
Y61024D02*
D03*
Y52362D02*
D03*
X308268D02*
D03*
X308268Y61024D02*
D03*
X308268Y69685D02*
D03*
Y82284D02*
D03*
X247638Y82284D02*
D03*
X247638Y69685D02*
D03*
X247638Y61024D02*
D03*
X247638Y52362D02*
D03*
X272047D02*
D03*
Y61024D02*
D03*
X272047Y69685D02*
D03*
Y82284D02*
D03*
X211417Y82284D02*
D03*
X211417Y69685D02*
D03*
X211417Y61024D02*
D03*
X211417Y52362D02*
D03*
X235827D02*
D03*
Y61024D02*
D03*
X235827Y69685D02*
D03*
Y82284D02*
D03*
X175197Y82284D02*
D03*
Y69685D02*
D03*
Y61024D02*
D03*
Y52362D02*
D03*
X199606Y52362D02*
D03*
Y61024D02*
D03*
X199606Y69685D02*
D03*
Y82284D02*
D03*
X138976Y82284D02*
D03*
X138976Y69685D02*
D03*
Y61024D02*
D03*
X138976Y52362D02*
D03*
X163386Y52362D02*
D03*
Y61024D02*
D03*
X163386Y69685D02*
D03*
X163386Y82284D02*
D03*
D48*
X64961Y152520D02*
D03*
Y149055D02*
D03*
X61811Y152520D02*
D03*
Y149055D02*
D03*
D49*
X61221Y244094D02*
D03*
Y229095D02*
D03*
X56221Y244094D02*
D03*
Y229095D02*
D03*
X51221Y244094D02*
D03*
Y229095D02*
D03*
X46220Y244094D02*
D03*
Y229095D02*
D03*
X41221Y244094D02*
D03*
Y229095D02*
D03*
X36220Y244094D02*
D03*
Y229095D02*
D03*
X61221Y50433D02*
D03*
Y35433D02*
D03*
X56221Y50433D02*
D03*
Y35433D02*
D03*
X51221Y50433D02*
D03*
Y35433D02*
D03*
X46220Y50433D02*
D03*
Y35433D02*
D03*
X41221Y50433D02*
D03*
Y35433D02*
D03*
X36220Y50433D02*
D03*
Y35433D02*
D03*
D50*
X36583Y59055D02*
D03*
X40583D02*
D03*
D51*
X20669Y120669D02*
D03*
X28150Y120669D02*
D03*
X20669Y130512D02*
D03*
X24409D02*
D03*
X28150Y130512D02*
D03*
D52*
X28346Y116142D02*
D03*
X23622D02*
D03*
D53*
X137795Y7874D02*
D03*
X327165D02*
D03*
X227559Y271654D02*
D03*
X417087D02*
D03*
X327323Y107717D02*
D03*
X137795D02*
D03*
D54*
X137795Y17874D02*
D03*
X147795Y7874D02*
D03*
Y17874D02*
D03*
X157795Y7874D02*
D03*
Y17874D02*
D03*
X167795Y7874D02*
D03*
X167795Y17874D02*
D03*
X177795Y7874D02*
D03*
X177795Y17874D02*
D03*
X187795Y7874D02*
D03*
X187795Y17874D02*
D03*
X197795Y7874D02*
D03*
X197795Y17874D02*
D03*
X207795Y7874D02*
D03*
X207795Y17874D02*
D03*
X217795Y7874D02*
D03*
X217795Y17874D02*
D03*
X227795Y7874D02*
D03*
X227795Y17874D02*
D03*
X237795Y7874D02*
D03*
X237795Y17874D02*
D03*
X247795Y7874D02*
D03*
X247795Y17874D02*
D03*
X257795Y7874D02*
D03*
X257795Y17874D02*
D03*
X267795Y7874D02*
D03*
X267795Y17874D02*
D03*
X277795Y7874D02*
D03*
X277795Y17874D02*
D03*
X287795Y7874D02*
D03*
X287795Y17874D02*
D03*
X417165D02*
D03*
X417165Y7874D02*
D03*
X407165Y17874D02*
D03*
X407165Y7874D02*
D03*
X397165Y17874D02*
D03*
Y7874D02*
D03*
X387165Y17874D02*
D03*
Y7874D02*
D03*
X377165Y17874D02*
D03*
X377165Y7874D02*
D03*
X367165Y17874D02*
D03*
X367165Y7874D02*
D03*
X357165Y17874D02*
D03*
X357165Y7874D02*
D03*
X347165Y17874D02*
D03*
X347165Y7874D02*
D03*
X337165Y17874D02*
D03*
X337165Y7874D02*
D03*
X327165Y17874D02*
D03*
X493937Y24803D02*
D03*
X503937Y34803D02*
D03*
X493937D02*
D03*
X503937Y44803D02*
D03*
X493937Y44803D02*
D03*
X503937Y54803D02*
D03*
X493937Y54803D02*
D03*
X503937Y64803D02*
D03*
X493937D02*
D03*
X503937Y74803D02*
D03*
X493937D02*
D03*
X503937Y84803D02*
D03*
X493937Y84803D02*
D03*
X503937Y94803D02*
D03*
X493937Y94803D02*
D03*
X503937Y104803D02*
D03*
X493937Y104803D02*
D03*
X503937Y114803D02*
D03*
X493937Y114803D02*
D03*
X503937Y124803D02*
D03*
X493937D02*
D03*
X503937Y134803D02*
D03*
X493937Y134803D02*
D03*
X503937Y144803D02*
D03*
X493937Y144803D02*
D03*
X503937Y154803D02*
D03*
X493937Y154803D02*
D03*
X503937Y164803D02*
D03*
X493937D02*
D03*
X503937Y174803D02*
D03*
X493937Y174803D02*
D03*
X503937Y184803D02*
D03*
X493937Y184803D02*
D03*
X503937Y194803D02*
D03*
X493937Y194803D02*
D03*
X503937Y204803D02*
D03*
X493937Y204803D02*
D03*
X503937Y214803D02*
D03*
X493937D02*
D03*
X503937Y224803D02*
D03*
X493937Y224803D02*
D03*
X503937Y234803D02*
D03*
X493937Y234803D02*
D03*
X503937Y244803D02*
D03*
X493937Y244803D02*
D03*
X503937Y254803D02*
D03*
X493937Y254803D02*
D03*
X227559Y261653D02*
D03*
X217559Y271654D02*
D03*
Y261653D02*
D03*
X207559Y271654D02*
D03*
Y261653D02*
D03*
X197559Y271654D02*
D03*
X197559Y261653D02*
D03*
X187559Y271654D02*
D03*
X187559Y261653D02*
D03*
X177559Y271654D02*
D03*
Y261653D02*
D03*
X167559Y271654D02*
D03*
X167559Y261653D02*
D03*
X157559Y271654D02*
D03*
X157559Y261653D02*
D03*
X147559Y271654D02*
D03*
X147559Y261653D02*
D03*
X137559Y271654D02*
D03*
X137559Y261653D02*
D03*
X267087Y261653D02*
D03*
Y271654D02*
D03*
X277087Y261653D02*
D03*
Y271654D02*
D03*
X287087Y261653D02*
D03*
Y271654D02*
D03*
X297087Y261653D02*
D03*
X297087Y271654D02*
D03*
X307087Y261653D02*
D03*
X307087Y271654D02*
D03*
X317087Y261653D02*
D03*
Y271654D02*
D03*
X327087Y261653D02*
D03*
Y271654D02*
D03*
X337087Y261653D02*
D03*
Y271654D02*
D03*
X347087Y261653D02*
D03*
X347087Y271654D02*
D03*
X357087Y261653D02*
D03*
Y271654D02*
D03*
X367087Y261653D02*
D03*
Y271654D02*
D03*
X377087Y261653D02*
D03*
Y271654D02*
D03*
X387087Y261653D02*
D03*
Y271654D02*
D03*
X397087Y261653D02*
D03*
X397087Y271654D02*
D03*
X407087Y261653D02*
D03*
Y271654D02*
D03*
X417087Y261653D02*
D03*
X327323Y117717D02*
D03*
X337323Y107717D02*
D03*
Y117717D02*
D03*
X347323Y107717D02*
D03*
Y117717D02*
D03*
X357323Y107717D02*
D03*
Y117717D02*
D03*
X367323Y107717D02*
D03*
X367323Y117717D02*
D03*
X377323Y107717D02*
D03*
Y117717D02*
D03*
X387323Y107717D02*
D03*
X387323Y117717D02*
D03*
X397323Y107717D02*
D03*
X397323Y117717D02*
D03*
X407323Y107717D02*
D03*
X407323Y117717D02*
D03*
X417323Y107717D02*
D03*
X417323Y117717D02*
D03*
X287795D02*
D03*
X287795Y107717D02*
D03*
X277795Y117717D02*
D03*
Y107717D02*
D03*
X267795Y117717D02*
D03*
Y107717D02*
D03*
X257795Y117717D02*
D03*
X257795Y107717D02*
D03*
X247795Y117717D02*
D03*
Y107717D02*
D03*
X237795Y117717D02*
D03*
Y107717D02*
D03*
X227795Y117717D02*
D03*
Y107717D02*
D03*
X217795Y117717D02*
D03*
Y107717D02*
D03*
X207795Y117717D02*
D03*
Y107717D02*
D03*
X197795Y117717D02*
D03*
X197795Y107717D02*
D03*
X187795Y117717D02*
D03*
X187795Y107717D02*
D03*
X177795Y117717D02*
D03*
Y107717D02*
D03*
X167795Y117717D02*
D03*
X167795Y107717D02*
D03*
X157795Y117717D02*
D03*
Y107717D02*
D03*
X147795Y117717D02*
D03*
X147795Y107717D02*
D03*
X137795Y117717D02*
D03*
X8268Y211496D02*
D03*
Y201496D02*
D03*
Y191496D02*
D03*
Y170079D02*
D03*
Y160079D02*
D03*
Y150079D02*
D03*
D55*
X503937Y24803D02*
D03*
X8268Y181496D02*
D03*
Y140079D02*
D03*
D56*
X31102Y157874D02*
D03*
Y150000D02*
D03*
Y193701D02*
D03*
Y201575D02*
D03*
D57*
X66929Y91339D02*
D03*
X417323Y73228D02*
D03*
X411024D02*
D03*
X404724D02*
D03*
X398425D02*
D03*
X392126D02*
D03*
X385827D02*
D03*
X379528D02*
D03*
X373228D02*
D03*
X366929D02*
D03*
X360630D02*
D03*
X354331D02*
D03*
X348031D02*
D03*
X341732D02*
D03*
X335433D02*
D03*
X329134D02*
D03*
X322835D02*
D03*
X316535D02*
D03*
X310236D02*
D03*
X303937D02*
D03*
X297638D02*
D03*
X291339D02*
D03*
X285039D02*
D03*
X278740D02*
D03*
X272441D02*
D03*
X266142D02*
D03*
X259842D02*
D03*
X253543D02*
D03*
X247244D02*
D03*
X240945D02*
D03*
X234646D02*
D03*
X228346D02*
D03*
X222047D02*
D03*
X215748D02*
D03*
X209449D02*
D03*
X203150D02*
D03*
X196850D02*
D03*
X190551D02*
D03*
X184252D02*
D03*
X177953D02*
D03*
X171653D02*
D03*
X165354D02*
D03*
X159055D02*
D03*
X152756D02*
D03*
X146457D02*
D03*
X140157D02*
D03*
X417323Y205118D02*
D03*
X411024D02*
D03*
X404724D02*
D03*
X398425D02*
D03*
X392126D02*
D03*
X385827D02*
D03*
X379528D02*
D03*
X373228D02*
D03*
X366929D02*
D03*
X360630D02*
D03*
X354331D02*
D03*
X348031D02*
D03*
X341732D02*
D03*
X335433D02*
D03*
X329134D02*
D03*
X322835D02*
D03*
X316535D02*
D03*
X310236D02*
D03*
X303937D02*
D03*
X297638D02*
D03*
X291339D02*
D03*
X285039D02*
D03*
X278740D02*
D03*
X272441D02*
D03*
X266142D02*
D03*
X259842D02*
D03*
X253543D02*
D03*
X247244D02*
D03*
X240945D02*
D03*
X234646D02*
D03*
X228346D02*
D03*
X222047D02*
D03*
X215748D02*
D03*
X209449D02*
D03*
X203150D02*
D03*
X196850D02*
D03*
X190551D02*
D03*
X184252D02*
D03*
X177953D02*
D03*
X171653D02*
D03*
X165354D02*
D03*
X159055D02*
D03*
X152756D02*
D03*
X146457D02*
D03*
X58661Y78740D02*
D03*
X53543D02*
D03*
X48819D02*
D03*
X43701D02*
D03*
X38583D02*
D03*
X58661Y177165D02*
D03*
X53937D02*
D03*
X48819D02*
D03*
X43701D02*
D03*
X38583D02*
D03*
X68110Y197244D02*
D03*
X64961Y194882D02*
D03*
X74410Y108268D02*
D03*
X65748Y105905D02*
D03*
X67716Y100000D02*
D03*
X63386D02*
D03*
X64567Y35433D02*
D03*
X33071D02*
D03*
X64527Y229095D02*
D03*
X33071Y229134D02*
D03*
X65354Y112992D02*
D03*
X81102Y143307D02*
D03*
X59055Y119291D02*
D03*
X65354Y123228D02*
D03*
X68110Y152756D02*
D03*
X58661D02*
D03*
X55905Y144488D02*
D03*
X46457Y143307D02*
D03*
X77953Y137402D02*
D03*
X61221Y237402D02*
D03*
X56221Y237402D02*
D03*
X51221D02*
D03*
X46220D02*
D03*
X41221D02*
D03*
X36220Y237402D02*
D03*
X423622Y215748D02*
D03*
X427953Y211024D02*
D03*
Y197638D02*
D03*
X424409Y159843D02*
D03*
X427953Y166142D02*
D03*
Y181496D02*
D03*
X471654Y224016D02*
D03*
X462992D02*
D03*
Y247638D02*
D03*
X471654D02*
D03*
Y186221D02*
D03*
X462992D02*
D03*
Y209842D02*
D03*
X471654D02*
D03*
Y148031D02*
D03*
X462992D02*
D03*
Y171653D02*
D03*
X471654D02*
D03*
Y109843D02*
D03*
X462992D02*
D03*
Y133465D02*
D03*
X471654D02*
D03*
Y71653D02*
D03*
X462992D02*
D03*
Y95276D02*
D03*
X471654D02*
D03*
Y57087D02*
D03*
X462992D02*
D03*
Y33465D02*
D03*
X471654D02*
D03*
X140157Y174409D02*
D03*
X146457D02*
D03*
X152756D02*
D03*
X159055D02*
D03*
X165354D02*
D03*
X171653D02*
D03*
X177953D02*
D03*
X184252D02*
D03*
X190551D02*
D03*
X196850D02*
D03*
X203150D02*
D03*
X209449D02*
D03*
X215748D02*
D03*
X222047D02*
D03*
X228346D02*
D03*
X234646D02*
D03*
X240945D02*
D03*
X247244D02*
D03*
X253543D02*
D03*
X259842D02*
D03*
X266142D02*
D03*
X272441D02*
D03*
X278740D02*
D03*
X285039D02*
D03*
X291339D02*
D03*
X297638D02*
D03*
X303937D02*
D03*
X310236D02*
D03*
X316535D02*
D03*
X322835D02*
D03*
X329134D02*
D03*
X335433D02*
D03*
X341732D02*
D03*
X348031D02*
D03*
X354331D02*
D03*
X360630D02*
D03*
X366929D02*
D03*
X373228D02*
D03*
X379528D02*
D03*
X385827D02*
D03*
X392126D02*
D03*
X398425D02*
D03*
X404724D02*
D03*
X411024D02*
D03*
X417323D02*
D03*
X61024Y57087D02*
D03*
X56299D02*
D03*
X51181D02*
D03*
X46063D02*
D03*
X36220Y62992D02*
D03*
X41339D02*
D03*
X81102Y131496D02*
D03*
X77953D02*
D03*
X46457Y140157D02*
D03*
X47638Y132283D02*
D03*
X31496Y110630D02*
D03*
Y112992D02*
D03*
X20866Y116142D02*
D03*
X22047Y111811D02*
D03*
X27165Y134252D02*
D03*
X430762Y68823D02*
D03*
X403966Y58209D02*
D03*
X161024Y135827D02*
D03*
X430709Y105512D02*
D03*
X425189D02*
D03*
X153937Y44488D02*
D03*
X148425Y35827D02*
D03*
X268110Y41732D02*
D03*
Y35827D02*
D03*
X188189Y41732D02*
D03*
Y35827D02*
D03*
X228346Y41732D02*
D03*
Y35827D02*
D03*
X435827Y33071D02*
D03*
Y39370D02*
D03*
Y45669D02*
D03*
Y51968D02*
D03*
Y58268D02*
D03*
Y64567D02*
D03*
Y70866D02*
D03*
Y80315D02*
D03*
Y86614D02*
D03*
Y105512D02*
D03*
Y111811D02*
D03*
Y118110D02*
D03*
Y124409D02*
D03*
Y130709D02*
D03*
Y137008D02*
D03*
Y143307D02*
D03*
Y149606D02*
D03*
Y155905D02*
D03*
Y162205D02*
D03*
Y168504D02*
D03*
Y174803D02*
D03*
Y228346D02*
D03*
Y222047D02*
D03*
Y215748D02*
D03*
Y209449D02*
D03*
Y203150D02*
D03*
Y196850D02*
D03*
Y187402D02*
D03*
Y181102D02*
D03*
X132677Y120472D02*
D03*
Y127165D02*
D03*
Y133465D02*
D03*
Y139764D02*
D03*
Y146063D02*
D03*
Y152362D02*
D03*
Y158661D02*
D03*
Y164961D02*
D03*
Y171260D02*
D03*
X148425Y135433D02*
D03*
X268110Y141732D02*
D03*
Y135433D02*
D03*
X228346Y141732D02*
D03*
Y135433D02*
D03*
X188189Y141732D02*
D03*
Y135433D02*
D03*
X286614Y244094D02*
D03*
Y237795D02*
D03*
X401968Y234646D02*
D03*
X406693Y244094D02*
D03*
X366929D02*
D03*
Y237795D02*
D03*
X326772D02*
D03*
Y244094D02*
D03*
X80085Y106841D02*
D03*
X80172Y207272D02*
D03*
X74016Y104331D02*
D03*
Y204724D02*
D03*
X113779Y63386D02*
D03*
X105118D02*
D03*
X113779Y93307D02*
D03*
X105118D02*
D03*
Y163779D02*
D03*
X113779D02*
D03*
X77953Y171653D02*
D03*
Y174803D02*
D03*
X68110Y184646D02*
D03*
Y189764D02*
D03*
X68379Y86721D02*
D03*
X78347Y71260D02*
D03*
Y74410D02*
D03*
X113779Y193701D02*
D03*
X105118D02*
D03*
D58*
X163445Y79854D02*
D03*
X416892Y79783D02*
D03*
X380639Y79773D02*
D03*
X344506Y79924D02*
D03*
X308223Y79753D02*
D03*
X272011Y79714D02*
D03*
X235785Y79774D02*
D03*
X199657Y79668D02*
D03*
X392521Y179750D02*
D03*
X356301D02*
D03*
X320080Y179750D02*
D03*
X283860Y179750D02*
D03*
X247639D02*
D03*
X211419D02*
D03*
X138978D02*
D03*
X175198Y179750D02*
D03*
X163384Y199778D02*
D03*
X199605Y199778D02*
D03*
X235825D02*
D03*
X272046Y199778D02*
D03*
X308266Y199778D02*
D03*
X344487D02*
D03*
X380707D02*
D03*
X416928Y199778D02*
D03*
X138976Y66536D02*
D03*
X163386Y66535D02*
D03*
X272047Y66536D02*
D03*
X247638Y66536D02*
D03*
X235827Y66535D02*
D03*
X211417D02*
D03*
X199606D02*
D03*
X175197Y66536D02*
D03*
X416929Y55512D02*
D03*
X392520D02*
D03*
X380709D02*
D03*
X356299D02*
D03*
X344488Y55512D02*
D03*
X320079Y55512D02*
D03*
X308268D02*
D03*
X283858D02*
D03*
X272047D02*
D03*
X247638D02*
D03*
X235827D02*
D03*
X211417D02*
D03*
X199606Y55512D02*
D03*
X175197Y55512D02*
D03*
X163386Y55512D02*
D03*
X138976Y55512D02*
D03*
X401968Y47638D02*
D03*
Y40945D02*
D03*
X365748Y47638D02*
D03*
Y40945D02*
D03*
X329528Y47638D02*
D03*
Y40945D02*
D03*
X293307Y47638D02*
D03*
Y40945D02*
D03*
X257087Y47638D02*
D03*
Y40945D02*
D03*
X184646Y47638D02*
D03*
Y40945D02*
D03*
X220866D02*
D03*
Y47638D02*
D03*
X272047Y166929D02*
D03*
X247638D02*
D03*
X235827Y166929D02*
D03*
X211417Y166929D02*
D03*
X199606D02*
D03*
X175197D02*
D03*
X163386D02*
D03*
X138976D02*
D03*
X138976Y155905D02*
D03*
X163386Y155905D02*
D03*
X175197Y155905D02*
D03*
X199606D02*
D03*
X211417D02*
D03*
X235827Y155905D02*
D03*
X247638Y155905D02*
D03*
X272047D02*
D03*
X283858D02*
D03*
X308268D02*
D03*
X320079D02*
D03*
X344488Y155905D02*
D03*
X356299Y155905D02*
D03*
X380709D02*
D03*
X392520Y149606D02*
D03*
X416929D02*
D03*
X412992Y157480D02*
D03*
X392520Y223622D02*
D03*
X416929Y223622D02*
D03*
X416929Y212598D02*
D03*
X392520D02*
D03*
X380709D02*
D03*
X356299Y212598D02*
D03*
X344488Y212598D02*
D03*
X320079Y212598D02*
D03*
X308268Y212598D02*
D03*
X283858D02*
D03*
X153937Y231496D02*
D03*
Y238583D02*
D03*
X153937Y144095D02*
D03*
X184646Y148031D02*
D03*
Y140945D02*
D03*
X220866Y148031D02*
D03*
Y140945D02*
D03*
X257087Y148031D02*
D03*
Y140945D02*
D03*
X293307Y148031D02*
D03*
Y140945D02*
D03*
X329528Y148031D02*
D03*
Y140945D02*
D03*
X365748Y148031D02*
D03*
Y140945D02*
D03*
X401968D02*
D03*
Y148031D02*
D03*
X380709Y223622D02*
D03*
X356299Y223622D02*
D03*
X344488Y223622D02*
D03*
X320079Y223622D02*
D03*
X308268Y223622D02*
D03*
X283858Y223622D02*
D03*
X272047Y223622D02*
D03*
X247638D02*
D03*
X235827Y223622D02*
D03*
X211417D02*
D03*
X199606D02*
D03*
X175197D02*
D03*
X138976Y223622D02*
D03*
X163386D02*
D03*
X449213Y57480D02*
D03*
Y95669D02*
D03*
Y133858D02*
D03*
Y172047D02*
D03*
Y210236D02*
D03*
Y248031D02*
D03*
X440158Y33071D02*
D03*
X190157Y238583D02*
D03*
Y231496D02*
D03*
X226378Y238583D02*
D03*
Y231496D02*
D03*
X262598Y238583D02*
D03*
Y231496D02*
D03*
X335039Y238583D02*
D03*
Y231496D02*
D03*
X298819Y238583D02*
D03*
Y231496D02*
D03*
X371260Y231496D02*
D03*
Y238583D02*
D03*
X440158Y223622D02*
D03*
X440158Y185827D02*
D03*
Y147638D02*
D03*
Y109449D02*
D03*
Y71260D02*
D03*
X392521Y79356D02*
D03*
X356301D02*
D03*
X320080D02*
D03*
X283860Y79356D02*
D03*
X247639Y79356D02*
D03*
X211419Y79356D02*
D03*
X175198D02*
D03*
X138978Y79356D02*
D03*
X416929Y179921D02*
D03*
X380709D02*
D03*
X344488Y179921D02*
D03*
X308268Y179921D02*
D03*
X272047Y179921D02*
D03*
X235827Y179921D02*
D03*
X199606Y179921D02*
D03*
X163386Y179921D02*
D03*
X392520Y199606D02*
D03*
X356299Y199606D02*
D03*
X320079Y199606D02*
D03*
X283858Y199606D02*
D03*
X247638D02*
D03*
X211417Y199606D02*
D03*
X175197Y199606D02*
D03*
X138976D02*
D03*
D59*
X67716Y134252D02*
D03*
X62992D02*
D03*
X67716Y138976D02*
D03*
X62992D02*
D03*
D60*
X118504Y104331D02*
D03*
X115354Y111417D02*
D03*
X118718Y108633D02*
D03*
X120835Y106515D02*
D03*
X120943Y102182D02*
D03*
X115354Y114173D02*
D03*
X118504Y74409D02*
D03*
X115354Y67323D02*
D03*
Y81496D02*
D03*
Y84252D02*
D03*
X118718Y78711D02*
D03*
X118361Y70233D02*
D03*
X120835Y76594D02*
D03*
X120943Y72261D02*
D03*
X118504Y204724D02*
D03*
X115354Y197638D02*
D03*
Y211811D02*
D03*
X118718Y209026D02*
D03*
X118361Y200548D02*
D03*
X120835Y206909D02*
D03*
X120943Y202576D02*
D03*
X115354Y214567D02*
D03*
X120943Y172654D02*
D03*
X120835Y176987D02*
D03*
X118361Y170626D02*
D03*
X118718Y179105D02*
D03*
X115354Y184646D02*
D03*
Y181890D02*
D03*
Y167717D02*
D03*
X118504Y174803D02*
D03*
X106102Y106496D02*
D03*
X110433D02*
D03*
X106102Y102165D02*
D03*
X110433D02*
D03*
X106102Y206890D02*
D03*
X110433D02*
D03*
X106102Y202559D02*
D03*
X110433D02*
D03*
X78347Y185433D02*
D03*
X78347Y189764D02*
D03*
X78347Y194095D02*
D03*
X82677Y185433D02*
D03*
Y189764D02*
D03*
Y194095D02*
D03*
X87008Y185433D02*
D03*
X87008Y189764D02*
D03*
X87008Y194095D02*
D03*
X106102Y176969D02*
D03*
X110433D02*
D03*
X106102Y172638D02*
D03*
X110433D02*
D03*
X106102Y76575D02*
D03*
X110433D02*
D03*
X106102Y72244D02*
D03*
X110433D02*
D03*
X78347Y85039D02*
D03*
X78347Y89370D02*
D03*
X78347Y93701D02*
D03*
X82677Y85039D02*
D03*
Y89370D02*
D03*
Y93701D02*
D03*
X87008Y85039D02*
D03*
X87008Y89370D02*
D03*
X87008Y93701D02*
D03*
D61*
X473425Y11811D02*
D03*
Y267717D02*
D03*
X20669Y11811D02*
D03*
Y267717D02*
D03*
M02*
