G04*
G04 #@! TF.GenerationSoftware,Altium Limited,Altium Designer,20.0.9 (164)*
G04*
G04 Layer_Color=8421504*
%FSLAX25Y25*%
%MOIN*%
G70*
G01*
G75*
%ADD14R,0.02500X0.02500*%
%ADD15O,0.03347X0.00984*%
%ADD16O,0.00984X0.03347*%
%ADD17R,0.09055X0.09055*%
%ADD18R,0.15472X0.15472*%
%ADD19O,0.03937X0.01181*%
%ADD20O,0.01181X0.03937*%
%ADD21R,0.03150X0.05118*%
%ADD22R,0.02756X0.06693*%
%ADD23R,0.09843X0.09843*%
%ADD24O,0.00787X0.02953*%
%ADD25O,0.02953X0.00787*%
G04:AMPARAMS|DCode=26|XSize=20.47mil|YSize=22.05mil|CornerRadius=5.12mil|HoleSize=0mil|Usage=FLASHONLY|Rotation=90.000|XOffset=0mil|YOffset=0mil|HoleType=Round|Shape=RoundedRectangle|*
%AMROUNDEDRECTD26*
21,1,0.02047,0.01181,0,0,90.0*
21,1,0.01024,0.02205,0,0,90.0*
1,1,0.01024,0.00591,0.00512*
1,1,0.01024,0.00591,-0.00512*
1,1,0.01024,-0.00591,-0.00512*
1,1,0.01024,-0.00591,0.00512*
%
%ADD26ROUNDEDRECTD26*%
G04:AMPARAMS|DCode=27|XSize=20.47mil|YSize=22.05mil|CornerRadius=5.12mil|HoleSize=0mil|Usage=FLASHONLY|Rotation=180.000|XOffset=0mil|YOffset=0mil|HoleType=Round|Shape=RoundedRectangle|*
%AMROUNDEDRECTD27*
21,1,0.02047,0.01181,0,0,180.0*
21,1,0.01024,0.02205,0,0,180.0*
1,1,0.01024,-0.00512,0.00591*
1,1,0.01024,0.00512,0.00591*
1,1,0.01024,0.00512,-0.00591*
1,1,0.01024,-0.00512,-0.00591*
%
%ADD27ROUNDEDRECTD27*%
%ADD28R,0.02992X0.09449*%
%ADD29R,0.02165X0.03150*%
%ADD30R,0.02835X0.03543*%
%ADD31R,0.02756X0.03347*%
D14*
X592551Y371260D02*
D03*
X588551Y371260D02*
D03*
X592551Y466142D02*
D03*
X588551D02*
D03*
X373984Y324410D02*
D03*
X377984D02*
D03*
D15*
X417520Y428346D02*
D03*
Y426378D02*
D03*
Y424409D02*
D03*
Y422441D02*
D03*
Y420472D02*
D03*
X431890D02*
D03*
Y422441D02*
D03*
Y424409D02*
D03*
Y426378D02*
D03*
Y428346D02*
D03*
X417520Y333465D02*
D03*
Y331496D02*
D03*
Y329528D02*
D03*
Y327559D02*
D03*
Y325591D02*
D03*
X431890D02*
D03*
Y327559D02*
D03*
Y329528D02*
D03*
Y331496D02*
D03*
Y333465D02*
D03*
D16*
X420768Y417224D02*
D03*
X422736D02*
D03*
X424705D02*
D03*
X426673D02*
D03*
X428642D02*
D03*
Y431595D02*
D03*
X426673D02*
D03*
X424705D02*
D03*
X422736D02*
D03*
X420768D02*
D03*
Y322342D02*
D03*
X422736D02*
D03*
X424705D02*
D03*
X426673D02*
D03*
X428642D02*
D03*
Y336713D02*
D03*
X426673D02*
D03*
X424705D02*
D03*
X422736D02*
D03*
X420768D02*
D03*
D17*
X424705Y424409D02*
D03*
Y329528D02*
D03*
D18*
X420079Y378740D02*
D03*
D19*
X430807Y386417D02*
D03*
Y383858D02*
D03*
Y381299D02*
D03*
Y378740D02*
D03*
Y376181D02*
D03*
Y373622D02*
D03*
Y371063D02*
D03*
X409350D02*
D03*
Y373622D02*
D03*
Y376181D02*
D03*
Y378740D02*
D03*
Y381299D02*
D03*
Y383858D02*
D03*
Y386417D02*
D03*
D20*
X427756Y368012D02*
D03*
X425197D02*
D03*
X422638D02*
D03*
X420079D02*
D03*
X417520D02*
D03*
X414961D02*
D03*
X412402D02*
D03*
Y389469D02*
D03*
X414961D02*
D03*
X417520D02*
D03*
X420079D02*
D03*
X422638D02*
D03*
X425197D02*
D03*
X427756D02*
D03*
D21*
X579921Y466142D02*
D03*
X573228D02*
D03*
X539370D02*
D03*
X532677D02*
D03*
X498819D02*
D03*
X492126D02*
D03*
X458268D02*
D03*
X451575D02*
D03*
X481890Y382677D02*
D03*
X488583D02*
D03*
X522441D02*
D03*
X529134D02*
D03*
X562992D02*
D03*
X569685D02*
D03*
X603543D02*
D03*
X610236D02*
D03*
X588583Y425984D02*
D03*
X581890D02*
D03*
X548032D02*
D03*
X541339D02*
D03*
X507480D02*
D03*
X500787D02*
D03*
X466929D02*
D03*
X460236D02*
D03*
X473228Y422835D02*
D03*
X479921D02*
D03*
X513779D02*
D03*
X520472D02*
D03*
X554331D02*
D03*
X561024D02*
D03*
X594882D02*
D03*
X601575D02*
D03*
X579921Y371260D02*
D03*
X573228D02*
D03*
X588583Y331102D02*
D03*
X581890D02*
D03*
X539370Y371260D02*
D03*
X532677D02*
D03*
X548032Y331102D02*
D03*
X541339D02*
D03*
X498819Y371260D02*
D03*
X492126D02*
D03*
X507480Y331102D02*
D03*
X500787D02*
D03*
X458268Y371260D02*
D03*
X451575D02*
D03*
X466929Y331102D02*
D03*
X460236D02*
D03*
X481890Y287795D02*
D03*
X488583D02*
D03*
X473228Y327953D02*
D03*
X479921D02*
D03*
X522441Y287795D02*
D03*
X529134D02*
D03*
X513779Y327953D02*
D03*
X520472D02*
D03*
X562992Y287795D02*
D03*
X569685D02*
D03*
X554331Y327953D02*
D03*
X561024D02*
D03*
X603543Y287795D02*
D03*
X610236D02*
D03*
X594882Y327953D02*
D03*
X601575D02*
D03*
D22*
X603150Y458268D02*
D03*
X590551D02*
D03*
X581890D02*
D03*
X573228D02*
D03*
Y433858D02*
D03*
X581890D02*
D03*
X590551D02*
D03*
X603150D02*
D03*
X562598Y458268D02*
D03*
X550000D02*
D03*
X541339D02*
D03*
X532677D02*
D03*
Y433858D02*
D03*
X541339D02*
D03*
X550000D02*
D03*
X562598D02*
D03*
X522047Y458268D02*
D03*
X509449D02*
D03*
X500787D02*
D03*
X492126D02*
D03*
Y433858D02*
D03*
X500787D02*
D03*
X509449D02*
D03*
X522047D02*
D03*
X481496Y458268D02*
D03*
X468898D02*
D03*
X460236D02*
D03*
X451575D02*
D03*
Y433858D02*
D03*
X460236D02*
D03*
X468898D02*
D03*
X481496D02*
D03*
X458661Y390551D02*
D03*
X471260D02*
D03*
X479921D02*
D03*
X488583D02*
D03*
Y414961D02*
D03*
X479921D02*
D03*
X471260D02*
D03*
X458661D02*
D03*
X499213Y390551D02*
D03*
X511811D02*
D03*
X520472D02*
D03*
X529134D02*
D03*
Y414961D02*
D03*
X520472D02*
D03*
X511811D02*
D03*
X499213D02*
D03*
X539764Y390551D02*
D03*
X552362D02*
D03*
X561024D02*
D03*
X569685D02*
D03*
Y414961D02*
D03*
X561024D02*
D03*
X552362D02*
D03*
X539764D02*
D03*
X580315Y390551D02*
D03*
X592913D02*
D03*
X601575D02*
D03*
X610236D02*
D03*
Y414961D02*
D03*
X601575D02*
D03*
X592913D02*
D03*
X580315D02*
D03*
Y295669D02*
D03*
X592913D02*
D03*
X601575D02*
D03*
X610236D02*
D03*
Y320079D02*
D03*
X601575D02*
D03*
X592913D02*
D03*
X580315D02*
D03*
X539764Y295669D02*
D03*
X552362D02*
D03*
X561024D02*
D03*
X569685D02*
D03*
Y320079D02*
D03*
X561024D02*
D03*
X552362D02*
D03*
X539764D02*
D03*
X499213Y295669D02*
D03*
X511811D02*
D03*
X520472D02*
D03*
X529134D02*
D03*
Y320079D02*
D03*
X520472D02*
D03*
X511811D02*
D03*
X499213D02*
D03*
X458661Y295669D02*
D03*
X471260D02*
D03*
X479921D02*
D03*
X488583D02*
D03*
Y320079D02*
D03*
X479921D02*
D03*
X471260D02*
D03*
X458661D02*
D03*
X481496Y363386D02*
D03*
X468898D02*
D03*
X460236D02*
D03*
X451575D02*
D03*
X451575Y338976D02*
D03*
X460236Y338976D02*
D03*
X468898Y338976D02*
D03*
X481496D02*
D03*
X522047Y363386D02*
D03*
X509449D02*
D03*
X500787D02*
D03*
X492126D02*
D03*
Y338976D02*
D03*
X500787D02*
D03*
X509449D02*
D03*
X522047D02*
D03*
X562598Y363386D02*
D03*
X550000D02*
D03*
X541339Y363386D02*
D03*
X532677Y363386D02*
D03*
Y338976D02*
D03*
X541339Y338976D02*
D03*
X550000Y338976D02*
D03*
X562598D02*
D03*
X603150Y363386D02*
D03*
X590551D02*
D03*
X581890D02*
D03*
X573228D02*
D03*
Y338976D02*
D03*
X581890D02*
D03*
X590551D02*
D03*
X603150D02*
D03*
D23*
X381398Y378740D02*
D03*
D24*
X386713Y370768D02*
D03*
X384941D02*
D03*
X383169Y370768D02*
D03*
X381398D02*
D03*
X379626Y370768D02*
D03*
X377854D02*
D03*
X376083Y370768D02*
D03*
X376083Y386713D02*
D03*
X377854D02*
D03*
X379626D02*
D03*
X381398Y386713D02*
D03*
X383169Y386713D02*
D03*
X384941D02*
D03*
X386713D02*
D03*
D25*
X373425Y373425D02*
D03*
Y375197D02*
D03*
Y376969D02*
D03*
X373425Y378740D02*
D03*
X373425Y380512D02*
D03*
Y382283D02*
D03*
Y384055D02*
D03*
X389370Y384055D02*
D03*
X389370Y382283D02*
D03*
X389370Y380512D02*
D03*
Y378740D02*
D03*
Y376969D02*
D03*
X389370Y375197D02*
D03*
Y373425D02*
D03*
D26*
X381496Y394646D02*
D03*
Y391181D02*
D03*
X378346Y394646D02*
D03*
Y391181D02*
D03*
D27*
X414409Y393701D02*
D03*
X417874D02*
D03*
X365591Y385827D02*
D03*
X369055D02*
D03*
X406142Y360630D02*
D03*
X409606D02*
D03*
X397165Y382283D02*
D03*
X393701D02*
D03*
X406142Y363779D02*
D03*
X409606D02*
D03*
X427716Y318504D02*
D03*
X424252D02*
D03*
X427716Y413386D02*
D03*
X424252D02*
D03*
X401811Y387008D02*
D03*
X405276D02*
D03*
X401811Y383858D02*
D03*
X405276D02*
D03*
X382126Y355906D02*
D03*
X385591D02*
D03*
X382126Y359842D02*
D03*
X385591D02*
D03*
X362362Y315354D02*
D03*
X358898D02*
D03*
X355748Y337795D02*
D03*
X359213D02*
D03*
X369055Y382677D02*
D03*
X365591D02*
D03*
X393701Y377165D02*
D03*
X397165D02*
D03*
D28*
X398721Y459469D02*
D03*
X398721Y444468D02*
D03*
X393721Y459469D02*
D03*
Y444468D02*
D03*
X388720Y459469D02*
D03*
Y444468D02*
D03*
X383720Y459469D02*
D03*
X383720Y444468D02*
D03*
X378720Y459469D02*
D03*
Y444468D02*
D03*
X373721Y459469D02*
D03*
X373721Y444468D02*
D03*
X398721Y314980D02*
D03*
Y299980D02*
D03*
X393721Y314980D02*
D03*
Y299980D02*
D03*
X388720Y314980D02*
D03*
Y299980D02*
D03*
X383720Y314980D02*
D03*
Y299980D02*
D03*
X378720Y314980D02*
D03*
Y299980D02*
D03*
X373721Y314980D02*
D03*
Y299980D02*
D03*
D29*
X355709Y324213D02*
D03*
X363189Y324213D02*
D03*
X355709Y334055D02*
D03*
X359449Y334055D02*
D03*
X363189Y334055D02*
D03*
D30*
X362992Y319291D02*
D03*
X358268D02*
D03*
D31*
X364173Y378346D02*
D03*
X368898D02*
D03*
M02*
