G04*
G04 #@! TF.GenerationSoftware,Altium Limited,Altium Designer,20.0.9 (164)*
G04*
G04 Layer_Physical_Order=3*
G04 Layer_Color=16440176*
%FSLAX25Y25*%
%MOIN*%
G70*
G01*
G75*
%ADD10C,0.00787*%
%ADD65C,0.05000*%
%ADD66C,0.10000*%
%ADD67C,0.05906*%
%ADD68R,0.05906X0.05906*%
%ADD71C,0.01772*%
%ADD72C,0.03150*%
%ADD74C,0.01968*%
%ADD75C,0.02598*%
%ADD76C,0.03150*%
G36*
X438976Y448073D02*
X438189Y447834D01*
X438110Y447953D01*
X437424Y448411D01*
X436614Y448572D01*
X436102Y448470D01*
X418898D01*
X418127Y448317D01*
X417474Y447880D01*
X392867Y423273D01*
X371008D01*
X370966Y423328D01*
X370360Y423793D01*
X369655Y424085D01*
X368898Y424185D01*
X368141Y424085D01*
X367435Y423793D01*
X366829Y423328D01*
X366365Y422722D01*
X366072Y422017D01*
X365973Y421260D01*
X366072Y420503D01*
X366365Y419797D01*
X366829Y419192D01*
X367435Y418727D01*
X368141Y418434D01*
X368898Y418335D01*
X369655Y418434D01*
X370360Y418727D01*
X370966Y419192D01*
X371008Y419246D01*
X393701D01*
X394471Y419400D01*
X395125Y419836D01*
X395125Y419836D01*
X419732Y444443D01*
X436102D01*
X436614Y444341D01*
X437424Y444502D01*
X438110Y444961D01*
X438189Y445079D01*
X438976Y444840D01*
Y440573D01*
X438667Y440511D01*
X438404Y440336D01*
X438404Y440336D01*
X434015Y435947D01*
X427799D01*
X427672Y436137D01*
X427214Y436443D01*
X426673Y436551D01*
X426132Y436443D01*
X425674Y436137D01*
X425368Y435678D01*
X425260Y435138D01*
X425368Y434597D01*
X425674Y434139D01*
X426132Y433832D01*
X426673Y433725D01*
X427214Y433832D01*
X427672Y434139D01*
X427799Y434329D01*
X434350D01*
X434350Y434329D01*
X434660Y434390D01*
X434923Y434566D01*
X438012Y437655D01*
X438811Y437349D01*
X438868Y436863D01*
X434409Y432404D01*
X433311D01*
X433184Y432594D01*
X432726Y432900D01*
X432185Y433007D01*
X431644Y432900D01*
X431186Y432594D01*
X430880Y432135D01*
X430772Y431595D01*
X430880Y431054D01*
X431186Y430595D01*
X431644Y430289D01*
X432185Y430182D01*
X432726Y430289D01*
X433184Y430595D01*
X433311Y430785D01*
X434744D01*
X434744Y430785D01*
X435054Y430847D01*
X435316Y431022D01*
X438012Y433717D01*
X438811Y433412D01*
X438868Y432926D01*
X435657Y429715D01*
X435433Y429759D01*
X434892Y429652D01*
X434434Y429346D01*
X434128Y428887D01*
X434020Y428346D01*
X434128Y427806D01*
X434434Y427347D01*
X434892Y427041D01*
X435433Y426933D01*
X435595Y426772D01*
X435595Y425984D01*
X435433Y425822D01*
X434892Y425715D01*
X434434Y425409D01*
X434128Y424950D01*
X434020Y424409D01*
X434128Y423869D01*
X434434Y423410D01*
X434892Y423104D01*
X435433Y422997D01*
X435595Y422835D01*
X435595Y422047D01*
X435433Y421885D01*
X434892Y421778D01*
X434434Y421472D01*
X434128Y421013D01*
X434020Y420472D01*
X434128Y419932D01*
X434434Y419473D01*
X434892Y419167D01*
X435433Y419060D01*
X435657Y419104D01*
X438868Y415893D01*
X438811Y415407D01*
X438012Y415101D01*
X435316Y417797D01*
X435054Y417972D01*
X434744Y418034D01*
X434744Y418034D01*
X433311D01*
X433184Y418223D01*
X432726Y418530D01*
X432185Y418637D01*
X431644Y418530D01*
X431186Y418223D01*
X430880Y417765D01*
X430772Y417224D01*
X430880Y416684D01*
X431186Y416225D01*
X431644Y415919D01*
X432185Y415811D01*
X432726Y415919D01*
X433184Y416225D01*
X433311Y416415D01*
X434409D01*
X438976Y411848D01*
Y345691D01*
X438667Y345630D01*
X438404Y345454D01*
X438404Y345454D01*
X434015Y341065D01*
X427799D01*
X427672Y341255D01*
X427214Y341561D01*
X426673Y341669D01*
X426132Y341561D01*
X425674Y341255D01*
X425368Y340797D01*
X425260Y340256D01*
X425368Y339715D01*
X425674Y339257D01*
X426132Y338950D01*
X426673Y338843D01*
X427214Y338950D01*
X427672Y339257D01*
X427799Y339447D01*
X434350D01*
X434350Y339447D01*
X434660Y339508D01*
X434923Y339684D01*
X438012Y342773D01*
X438811Y342467D01*
X438868Y341981D01*
X434409Y337522D01*
X433311D01*
X433184Y337712D01*
X432726Y338018D01*
X432185Y338126D01*
X431644Y338018D01*
X431186Y337712D01*
X430880Y337253D01*
X430772Y336713D01*
X430880Y336172D01*
X431186Y335714D01*
X431644Y335407D01*
X432185Y335300D01*
X432726Y335407D01*
X433184Y335714D01*
X433311Y335903D01*
X434744D01*
X434744Y335903D01*
X435054Y335965D01*
X435316Y336140D01*
X438012Y338836D01*
X438811Y338530D01*
X438868Y338044D01*
X435657Y334833D01*
X435433Y334878D01*
X434892Y334770D01*
X434434Y334464D01*
X434128Y334005D01*
X434020Y333465D01*
X434128Y332924D01*
X434434Y332466D01*
X434892Y332159D01*
X435433Y332052D01*
X435595Y331890D01*
X435595Y331102D01*
X435433Y330941D01*
X434892Y330833D01*
X434434Y330527D01*
X434128Y330068D01*
X434020Y329528D01*
X434128Y328987D01*
X434434Y328528D01*
X434892Y328222D01*
X435433Y328115D01*
X435595Y327953D01*
X435595Y327165D01*
X435433Y327004D01*
X434892Y326896D01*
X434434Y326590D01*
X434128Y326131D01*
X434020Y325591D01*
X434128Y325050D01*
X434434Y324591D01*
X434892Y324285D01*
X435433Y324178D01*
X435657Y324222D01*
X438868Y321011D01*
X438811Y320525D01*
X438012Y320219D01*
X435316Y322915D01*
X435054Y323090D01*
X434744Y323152D01*
X434744Y323152D01*
X433311D01*
X433184Y323342D01*
X432726Y323648D01*
X432185Y323756D01*
X431644Y323648D01*
X431186Y323342D01*
X430880Y322883D01*
X430772Y322342D01*
X430880Y321802D01*
X431186Y321343D01*
X431644Y321037D01*
X432185Y320930D01*
X432726Y321037D01*
X433184Y321343D01*
X433311Y321533D01*
X434409D01*
X438976Y316966D01*
Y268898D01*
X356232D01*
X356010Y269685D01*
X357072Y270336D01*
X358428Y271494D01*
X359586Y272849D01*
X360517Y274369D01*
X361199Y276017D01*
X361616Y277750D01*
X361755Y279528D01*
X361616Y281305D01*
X361199Y283038D01*
X360517Y284686D01*
X359586Y286206D01*
X358428Y287562D01*
X357072Y288719D01*
X355552Y289651D01*
X353905Y290333D01*
X352171Y290750D01*
X350394Y290889D01*
X348616Y290750D01*
X346883Y290333D01*
X345236Y289651D01*
X343715Y288719D01*
X342360Y287562D01*
X341202Y286206D01*
X340270Y284686D01*
X339588Y283038D01*
X339386Y282195D01*
X338598Y282288D01*
X338598Y473618D01*
X339385Y473711D01*
X339588Y472867D01*
X340270Y471220D01*
X341202Y469700D01*
X342360Y468344D01*
X343715Y467186D01*
X345236Y466255D01*
X346883Y465572D01*
X348616Y465156D01*
X350394Y465016D01*
X352171Y465156D01*
X353905Y465572D01*
X355552Y466255D01*
X357072Y467186D01*
X358428Y468344D01*
X359586Y469700D01*
X360517Y471220D01*
X361199Y472867D01*
X361616Y474601D01*
X361755Y476378D01*
X361616Y478155D01*
X361199Y479889D01*
X360517Y481536D01*
X359586Y483056D01*
X358428Y484412D01*
X357072Y485570D01*
X355552Y486501D01*
X355317Y486599D01*
X355473Y487386D01*
X438976D01*
Y448073D01*
D02*
G37*
G36*
X658252Y268519D02*
X650749D01*
X650592Y269307D01*
X650827Y269404D01*
X652348Y270336D01*
X653703Y271494D01*
X654861Y272849D01*
X655793Y274369D01*
X656475Y276017D01*
X656891Y277750D01*
X657031Y279528D01*
X656891Y281305D01*
X656475Y283038D01*
X655793Y284686D01*
X654861Y286206D01*
X653703Y287562D01*
X652348Y288719D01*
X650827Y289651D01*
X649180Y290333D01*
X647447Y290750D01*
X645669Y290889D01*
X643892Y290750D01*
X642158Y290333D01*
X640511Y289651D01*
X638991Y288719D01*
X637635Y287562D01*
X636477Y286206D01*
X635546Y284686D01*
X634864Y283038D01*
X634447Y281305D01*
X634307Y279528D01*
X634447Y277750D01*
X634864Y276017D01*
X635546Y274369D01*
X636477Y272849D01*
X637635Y271494D01*
X638991Y270336D01*
X640511Y269404D01*
X640746Y269307D01*
X640590Y268519D01*
X442520D01*
X442520Y312404D01*
X442625Y312542D01*
X443307Y312970D01*
X570472D01*
X570472Y312970D01*
X570782Y313032D01*
X571045Y313207D01*
X576548Y318710D01*
X576772Y318666D01*
X577312Y318773D01*
X577771Y319080D01*
X578077Y319538D01*
X578185Y320079D01*
X578077Y320620D01*
X577771Y321078D01*
X577312Y321384D01*
X576772Y321492D01*
X576231Y321384D01*
X575772Y321078D01*
X575466Y320620D01*
X575359Y320079D01*
X575403Y319855D01*
X570137Y314589D01*
X532989D01*
X532662Y315376D01*
X535996Y318710D01*
X536221Y318666D01*
X536761Y318773D01*
X537220Y319080D01*
X537526Y319538D01*
X537633Y320079D01*
X537526Y320620D01*
X537220Y321078D01*
X536761Y321384D01*
X536221Y321492D01*
X535680Y321384D01*
X535221Y321078D01*
X534915Y320620D01*
X534807Y320079D01*
X534852Y319855D01*
X531161Y316164D01*
X494012D01*
X493686Y316951D01*
X495445Y318710D01*
X495669Y318666D01*
X496210Y318773D01*
X496668Y319080D01*
X496975Y319538D01*
X497082Y320079D01*
X496975Y320620D01*
X496668Y321078D01*
X496210Y321384D01*
X495669Y321492D01*
X495129Y321384D01*
X494670Y321078D01*
X494364Y320620D01*
X494256Y320079D01*
X494301Y319855D01*
X492184Y317738D01*
X448367D01*
X442628Y323477D01*
X442685Y323963D01*
X443485Y324269D01*
X448247Y319507D01*
X448509Y319331D01*
X448819Y319269D01*
X448819Y319269D01*
X453992D01*
X454119Y319080D01*
X454577Y318773D01*
X455118Y318666D01*
X455659Y318773D01*
X456117Y319080D01*
X456424Y319538D01*
X456531Y320079D01*
X456424Y320620D01*
X456117Y321078D01*
X455659Y321384D01*
X455118Y321492D01*
X454577Y321384D01*
X454119Y321078D01*
X453992Y320888D01*
X449154D01*
X442520Y327522D01*
X442520Y335470D01*
X445217Y338167D01*
X476827D01*
X476954Y337977D01*
X477412Y337671D01*
X477953Y337563D01*
X478493Y337671D01*
X478952Y337977D01*
X479258Y338436D01*
X479366Y338976D01*
X479258Y339517D01*
X478952Y339976D01*
X478712Y340136D01*
X478951Y340923D01*
X515413D01*
X517135Y339200D01*
X517091Y338976D01*
X517199Y338436D01*
X517505Y337977D01*
X517963Y337671D01*
X518504Y337563D01*
X519045Y337671D01*
X519503Y337977D01*
X519809Y338436D01*
X519917Y338976D01*
X519809Y339517D01*
X519503Y339976D01*
X519045Y340282D01*
X518504Y340389D01*
X518280Y340345D01*
X516921Y341704D01*
X517247Y342492D01*
X554395D01*
X557687Y339200D01*
X557642Y338976D01*
X557750Y338436D01*
X558056Y337977D01*
X558514Y337671D01*
X559055Y337563D01*
X559596Y337671D01*
X560054Y337977D01*
X560360Y338436D01*
X560468Y338976D01*
X560360Y339517D01*
X560054Y339976D01*
X559596Y340282D01*
X559055Y340389D01*
X558831Y340345D01*
X555891Y343285D01*
X556217Y344073D01*
X593366D01*
X598238Y339200D01*
X598193Y338976D01*
X598301Y338436D01*
X598607Y337977D01*
X599066Y337671D01*
X599606Y337563D01*
X600147Y337671D01*
X600605Y337977D01*
X600912Y338436D01*
X601019Y338976D01*
X600912Y339517D01*
X600605Y339976D01*
X600147Y340282D01*
X599606Y340389D01*
X599382Y340345D01*
X594273Y345454D01*
X594010Y345630D01*
X593701Y345691D01*
X593701Y345691D01*
X442520D01*
X442520Y407286D01*
X442625Y407424D01*
X443307Y407852D01*
X570472D01*
X570472Y407852D01*
X570782Y407914D01*
X571045Y408089D01*
X576548Y413592D01*
X576772Y413548D01*
X577312Y413655D01*
X577771Y413962D01*
X578077Y414420D01*
X578185Y414961D01*
X578077Y415501D01*
X577771Y415960D01*
X577312Y416266D01*
X576772Y416374D01*
X576231Y416266D01*
X575772Y415960D01*
X575466Y415501D01*
X575359Y414961D01*
X575403Y414737D01*
X570137Y409471D01*
X532989D01*
X532662Y410258D01*
X535996Y413592D01*
X536221Y413548D01*
X536761Y413655D01*
X537220Y413962D01*
X537526Y414420D01*
X537633Y414961D01*
X537526Y415501D01*
X537220Y415960D01*
X536761Y416266D01*
X536221Y416374D01*
X535680Y416266D01*
X535221Y415960D01*
X534915Y415501D01*
X534807Y414961D01*
X534852Y414737D01*
X531161Y411046D01*
X494012D01*
X493686Y411833D01*
X495445Y413592D01*
X495669Y413548D01*
X496210Y413655D01*
X496668Y413962D01*
X496975Y414420D01*
X497082Y414961D01*
X496975Y415501D01*
X496668Y415960D01*
X496210Y416266D01*
X495669Y416374D01*
X495129Y416266D01*
X494670Y415960D01*
X494364Y415501D01*
X494256Y414961D01*
X494301Y414737D01*
X492184Y412620D01*
X448367D01*
X442628Y418359D01*
X442685Y418845D01*
X443484Y419150D01*
X448247Y414388D01*
X448509Y414213D01*
X448819Y414151D01*
X448819Y414151D01*
X453992D01*
X454119Y413962D01*
X454577Y413655D01*
X455118Y413548D01*
X455659Y413655D01*
X456117Y413962D01*
X456424Y414420D01*
X456531Y414961D01*
X456424Y415501D01*
X456117Y415960D01*
X455659Y416266D01*
X455118Y416374D01*
X454577Y416266D01*
X454119Y415960D01*
X453992Y415770D01*
X449154D01*
X442520Y422404D01*
Y430352D01*
X445217Y433049D01*
X476827D01*
X476954Y432859D01*
X477412Y432553D01*
X477953Y432445D01*
X478493Y432553D01*
X478952Y432859D01*
X479258Y433318D01*
X479366Y433858D01*
X479258Y434399D01*
X478952Y434857D01*
X478712Y435017D01*
X478951Y435805D01*
X515413D01*
X517135Y434082D01*
X517091Y433858D01*
X517199Y433318D01*
X517505Y432859D01*
X517963Y432553D01*
X518504Y432445D01*
X519045Y432553D01*
X519503Y432859D01*
X519809Y433318D01*
X519917Y433858D01*
X519809Y434399D01*
X519503Y434857D01*
X519045Y435164D01*
X518504Y435271D01*
X518280Y435227D01*
X516921Y436586D01*
X517247Y437373D01*
X554395D01*
X557687Y434082D01*
X557642Y433858D01*
X557750Y433318D01*
X558056Y432859D01*
X558514Y432553D01*
X559055Y432445D01*
X559596Y432553D01*
X560054Y432859D01*
X560360Y433318D01*
X560468Y433858D01*
X560360Y434399D01*
X560054Y434857D01*
X559596Y435164D01*
X559055Y435271D01*
X558831Y435227D01*
X555891Y438167D01*
X556217Y438954D01*
X593366D01*
X598238Y434082D01*
X598193Y433858D01*
X598301Y433318D01*
X598607Y432859D01*
X599066Y432553D01*
X599606Y432445D01*
X600147Y432553D01*
X600605Y432859D01*
X600912Y433318D01*
X601019Y433858D01*
X600912Y434399D01*
X600605Y434857D01*
X600147Y435164D01*
X599606Y435271D01*
X599382Y435227D01*
X594273Y440336D01*
X594010Y440511D01*
X593701Y440573D01*
X593701Y440573D01*
X442520D01*
X442520Y487386D01*
X640590D01*
X640746Y486599D01*
X640511Y486501D01*
X638991Y485570D01*
X637635Y484412D01*
X636477Y483056D01*
X635546Y481536D01*
X634864Y479889D01*
X634447Y478155D01*
X634307Y476378D01*
X634447Y474601D01*
X634864Y472867D01*
X635546Y471220D01*
X636477Y469700D01*
X637635Y468344D01*
X638991Y467186D01*
X640511Y466255D01*
X642158Y465572D01*
X643892Y465156D01*
X645669Y465016D01*
X647447Y465156D01*
X649180Y465572D01*
X650827Y466255D01*
X652348Y467186D01*
X653703Y468344D01*
X654861Y469700D01*
X655793Y471220D01*
X656475Y472867D01*
X656891Y474601D01*
X657031Y476378D01*
X656891Y478155D01*
X656475Y479889D01*
X655793Y481536D01*
X654861Y483056D01*
X653703Y484412D01*
X652348Y485570D01*
X650827Y486501D01*
X650592Y486599D01*
X650749Y487386D01*
X658252D01*
Y268519D01*
D02*
G37*
%LPC*%
G36*
X398721Y454208D02*
X398180Y454101D01*
X397721Y453794D01*
X397415Y453336D01*
X397307Y452795D01*
X397415Y452255D01*
X397721Y451796D01*
X398180Y451490D01*
X398721Y451382D01*
X399261Y451490D01*
X399720Y451796D01*
X400026Y452255D01*
X400133Y452795D01*
X400026Y453336D01*
X399720Y453794D01*
X399261Y454101D01*
X398721Y454208D01*
D02*
G37*
G36*
X393721D02*
X393180Y454101D01*
X392721Y453794D01*
X392415Y453336D01*
X392307Y452795D01*
X392415Y452255D01*
X392721Y451796D01*
X393180Y451490D01*
X393721Y451382D01*
X394261Y451490D01*
X394720Y451796D01*
X395026Y452255D01*
X395133Y452795D01*
X395026Y453336D01*
X394720Y453794D01*
X394261Y454101D01*
X393721Y454208D01*
D02*
G37*
G36*
X388720D02*
X388180Y454101D01*
X387721Y453794D01*
X387415Y453336D01*
X387308Y452795D01*
X387415Y452255D01*
X387721Y451796D01*
X388180Y451490D01*
X388720Y451382D01*
X389261Y451490D01*
X389720Y451796D01*
X390026Y452255D01*
X390133Y452795D01*
X390026Y453336D01*
X389720Y453794D01*
X389261Y454101D01*
X388720Y454208D01*
D02*
G37*
G36*
X383720D02*
X383180Y454101D01*
X382721Y453794D01*
X382415Y453336D01*
X382308Y452795D01*
X382415Y452255D01*
X382721Y451796D01*
X383180Y451490D01*
X383720Y451382D01*
X384261Y451490D01*
X384720Y451796D01*
X385026Y452255D01*
X385133Y452795D01*
X385026Y453336D01*
X384720Y453794D01*
X384261Y454101D01*
X383720Y454208D01*
D02*
G37*
G36*
X378720D02*
X378180Y454101D01*
X377721Y453794D01*
X377415Y453336D01*
X377308Y452795D01*
X377415Y452255D01*
X377721Y451796D01*
X378180Y451490D01*
X378720Y451382D01*
X379261Y451490D01*
X379720Y451796D01*
X380026Y452255D01*
X380133Y452795D01*
X380026Y453336D01*
X379720Y453794D01*
X379261Y454101D01*
X378720Y454208D01*
D02*
G37*
G36*
X373721D02*
X373180Y454101D01*
X372721Y453794D01*
X372415Y453336D01*
X372307Y452795D01*
X372415Y452255D01*
X372721Y451796D01*
X373180Y451490D01*
X373721Y451382D01*
X374261Y451490D01*
X374720Y451796D01*
X375026Y452255D01*
X375133Y452795D01*
X375026Y453336D01*
X374720Y453794D01*
X374261Y454101D01*
X373721Y454208D01*
D02*
G37*
G36*
X343901Y437292D02*
Y434137D01*
X347056D01*
X346967Y434812D01*
X346629Y435628D01*
X346092Y436328D01*
X345392Y436866D01*
X344576Y437204D01*
X343901Y437292D01*
D02*
G37*
G36*
X343501D02*
X342826Y437204D01*
X342010Y436866D01*
X341310Y436328D01*
X340772Y435628D01*
X340434Y434812D01*
X340345Y434137D01*
X343501D01*
Y437292D01*
D02*
G37*
G36*
X347056Y433737D02*
X343901D01*
Y430582D01*
X344576Y430671D01*
X345392Y431008D01*
X346092Y431546D01*
X346629Y432246D01*
X346967Y433062D01*
X347056Y433737D01*
D02*
G37*
G36*
X343501D02*
X340345D01*
X340434Y433062D01*
X340772Y432246D01*
X341310Y431546D01*
X342010Y431008D01*
X342826Y430671D01*
X343501Y430582D01*
Y433737D01*
D02*
G37*
G36*
X343701Y427319D02*
X342826Y427204D01*
X342010Y426866D01*
X341310Y426328D01*
X340772Y425628D01*
X340434Y424812D01*
X340319Y423937D01*
X340434Y423062D01*
X340772Y422246D01*
X341310Y421546D01*
X342010Y421008D01*
X342826Y420671D01*
X343701Y420555D01*
X344576Y420671D01*
X345392Y421008D01*
X346092Y421546D01*
X346629Y422246D01*
X346967Y423062D01*
X347082Y423937D01*
X346967Y424812D01*
X346629Y425628D01*
X346092Y426328D01*
X345392Y426866D01*
X344576Y427204D01*
X343701Y427319D01*
D02*
G37*
G36*
X369098Y416285D02*
Y413586D01*
X371796D01*
X371723Y414143D01*
X371431Y414848D01*
X370966Y415454D01*
X370360Y415919D01*
X369655Y416211D01*
X369098Y416285D01*
D02*
G37*
G36*
X368698D02*
X368141Y416211D01*
X367435Y415919D01*
X366829Y415454D01*
X366365Y414848D01*
X366072Y414143D01*
X365999Y413586D01*
X368698D01*
Y416285D01*
D02*
G37*
G36*
X430315Y414799D02*
X429774Y414691D01*
X429316Y414385D01*
X429010Y413927D01*
X428902Y413386D01*
X429010Y412845D01*
X429316Y412387D01*
X429774Y412080D01*
X430315Y411973D01*
X430856Y412080D01*
X431314Y412387D01*
X431620Y412845D01*
X431728Y413386D01*
X431620Y413927D01*
X431314Y414385D01*
X430856Y414691D01*
X430315Y414799D01*
D02*
G37*
G36*
X343701Y417319D02*
X342826Y417204D01*
X342010Y416866D01*
X341310Y416328D01*
X340772Y415628D01*
X340434Y414812D01*
X340319Y413937D01*
X340434Y413062D01*
X340772Y412246D01*
X341310Y411546D01*
X342010Y411008D01*
X342826Y410671D01*
X343701Y410555D01*
X344576Y410671D01*
X345392Y411008D01*
X346092Y411546D01*
X346629Y412246D01*
X346967Y413062D01*
X347082Y413937D01*
X346967Y414812D01*
X346629Y415628D01*
X346092Y416328D01*
X345392Y416866D01*
X344576Y417204D01*
X343701Y417319D01*
D02*
G37*
G36*
X371796Y413186D02*
X369098D01*
Y410487D01*
X369655Y410561D01*
X370360Y410853D01*
X370966Y411317D01*
X371431Y411923D01*
X371723Y412629D01*
X371796Y413186D01*
D02*
G37*
G36*
X368698D02*
X365999D01*
X366072Y412629D01*
X366365Y411923D01*
X366829Y411317D01*
X367435Y410853D01*
X368141Y410561D01*
X368698Y410487D01*
Y413186D01*
D02*
G37*
G36*
X347054Y407290D02*
X343901D01*
Y404137D01*
X347054D01*
Y407290D01*
D02*
G37*
G36*
X343501D02*
X340348D01*
Y404137D01*
X343501D01*
Y407290D01*
D02*
G37*
G36*
X347054Y403737D02*
X343901D01*
Y400584D01*
X347054D01*
Y403737D01*
D02*
G37*
G36*
X343501D02*
X340348D01*
Y400584D01*
X343501D01*
Y403737D01*
D02*
G37*
G36*
X381890Y402594D02*
X381349Y402487D01*
X380891Y402180D01*
X380584Y401722D01*
X380477Y401181D01*
X380584Y400640D01*
X380891Y400182D01*
X381349Y399876D01*
X381890Y399768D01*
X382431Y399876D01*
X382889Y400182D01*
X383195Y400640D01*
X383303Y401181D01*
X383195Y401722D01*
X382889Y402180D01*
X382431Y402487D01*
X381890Y402594D01*
D02*
G37*
G36*
X378510Y399214D02*
X377969Y399107D01*
X377511Y398801D01*
X377205Y398342D01*
X377097Y397801D01*
X377205Y397261D01*
X377511Y396802D01*
X377969Y396496D01*
X378510Y396389D01*
X379051Y396496D01*
X379509Y396802D01*
X379816Y397261D01*
X379923Y397801D01*
X379816Y398342D01*
X379509Y398801D01*
X379051Y399107D01*
X378510Y399214D01*
D02*
G37*
G36*
X417717Y397870D02*
X417176Y397762D01*
X416717Y397456D01*
X416411Y396997D01*
X416304Y396457D01*
X416411Y395916D01*
X416717Y395458D01*
X417176Y395151D01*
X417717Y395044D01*
X418257Y395151D01*
X418716Y395458D01*
X419022Y395916D01*
X419130Y396457D01*
X419022Y396997D01*
X418716Y397456D01*
X418257Y397762D01*
X417717Y397870D01*
D02*
G37*
G36*
X387008Y395901D02*
X386467Y395794D01*
X386009Y395487D01*
X385702Y395029D01*
X385595Y394488D01*
X385702Y393948D01*
X386009Y393489D01*
X386467Y393183D01*
X387008Y393075D01*
X387549Y393183D01*
X388007Y393489D01*
X388313Y393948D01*
X388421Y394488D01*
X388313Y395029D01*
X388007Y395487D01*
X387549Y395794D01*
X387008Y395901D01*
D02*
G37*
G36*
X343901Y395954D02*
Y392798D01*
X347056D01*
X346967Y393474D01*
X346629Y394289D01*
X346092Y394990D01*
X345392Y395527D01*
X344576Y395865D01*
X343901Y395954D01*
D02*
G37*
G36*
X343501D02*
X342826Y395865D01*
X342010Y395527D01*
X341310Y394990D01*
X340772Y394289D01*
X340434Y393474D01*
X340345Y392798D01*
X343501D01*
Y395954D01*
D02*
G37*
G36*
X405118Y391177D02*
X404577Y391069D01*
X404119Y390763D01*
X403867Y390386D01*
X403460Y390339D01*
X403025Y390381D01*
X402776Y390753D01*
X402318Y391060D01*
X401777Y391167D01*
X401236Y391060D01*
X400778Y390753D01*
X400472Y390295D01*
X400364Y389754D01*
X400472Y389213D01*
X400778Y388755D01*
X401236Y388449D01*
X401777Y388341D01*
X402318Y388449D01*
X402776Y388755D01*
X403028Y389132D01*
X403435Y389179D01*
X403870Y389137D01*
X404119Y388765D01*
X404577Y388458D01*
X405118Y388351D01*
X405659Y388458D01*
X406117Y388765D01*
X406424Y389223D01*
X406531Y389764D01*
X406424Y390304D01*
X406117Y390763D01*
X405659Y391069D01*
X405118Y391177D01*
D02*
G37*
G36*
X347056Y392398D02*
X343901D01*
Y389243D01*
X344576Y389332D01*
X345392Y389670D01*
X346092Y390207D01*
X346629Y390908D01*
X346967Y391723D01*
X347056Y392398D01*
D02*
G37*
G36*
X343501D02*
X340345D01*
X340434Y391723D01*
X340772Y390908D01*
X341310Y390207D01*
X342010Y389670D01*
X342826Y389332D01*
X343501Y389243D01*
Y392398D01*
D02*
G37*
G36*
X375590Y391177D02*
X375050Y391069D01*
X374591Y390763D01*
X374285Y390304D01*
X374178Y389764D01*
X374285Y389223D01*
X374591Y388765D01*
X375050Y388458D01*
X375590Y388351D01*
X376131Y388458D01*
X376590Y388765D01*
X376896Y389223D01*
X377004Y389764D01*
X376896Y390304D01*
X376590Y390763D01*
X376131Y391069D01*
X375590Y391177D01*
D02*
G37*
G36*
X397244Y387240D02*
X396703Y387132D01*
X396245Y386826D01*
X395939Y386368D01*
X395831Y385827D01*
X395939Y385286D01*
X396245Y384828D01*
X396703Y384521D01*
X397244Y384414D01*
X397785Y384521D01*
X398243Y384828D01*
X398550Y385286D01*
X398657Y385827D01*
X398550Y386368D01*
X398243Y386826D01*
X397785Y387132D01*
X397244Y387240D01*
D02*
G37*
G36*
X343701Y385980D02*
X342826Y385865D01*
X342010Y385527D01*
X341310Y384990D01*
X340772Y384289D01*
X340434Y383474D01*
X340319Y382598D01*
X340434Y381723D01*
X340772Y380908D01*
X341310Y380207D01*
X342010Y379670D01*
X342826Y379332D01*
X343701Y379217D01*
X344576Y379332D01*
X345392Y379670D01*
X346092Y380207D01*
X346629Y380908D01*
X346967Y381723D01*
X347082Y382598D01*
X346967Y383474D01*
X346629Y384289D01*
X346092Y384990D01*
X345392Y385527D01*
X344576Y385865D01*
X343701Y385980D01*
D02*
G37*
G36*
X361024Y379759D02*
X360483Y379652D01*
X360024Y379346D01*
X359718Y378887D01*
X359611Y378346D01*
X359718Y377806D01*
X360024Y377347D01*
X360483Y377041D01*
X361024Y376934D01*
X361564Y377041D01*
X362023Y377347D01*
X362329Y377806D01*
X362437Y378346D01*
X362329Y378887D01*
X362023Y379346D01*
X361564Y379652D01*
X361024Y379759D01*
D02*
G37*
G36*
X395669Y372673D02*
X395129Y372565D01*
X394670Y372259D01*
X394364Y371801D01*
X394256Y371260D01*
X394364Y370719D01*
X394670Y370261D01*
X395129Y369954D01*
X395669Y369847D01*
X396210Y369954D01*
X396668Y370261D01*
X396975Y370719D01*
X397082Y371260D01*
X396975Y371801D01*
X396668Y372259D01*
X396210Y372565D01*
X395669Y372673D01*
D02*
G37*
G36*
X401575Y372279D02*
X401034Y372171D01*
X400576Y371865D01*
X400269Y371407D01*
X400162Y370866D01*
X400269Y370325D01*
X400576Y369867D01*
X401034Y369561D01*
X401575Y369453D01*
X402115Y369561D01*
X402574Y369867D01*
X402880Y370325D01*
X402988Y370866D01*
X402880Y371407D01*
X402574Y371865D01*
X402115Y372171D01*
X401575Y372279D01*
D02*
G37*
G36*
X343701Y375980D02*
X342826Y375865D01*
X342010Y375527D01*
X341310Y374990D01*
X340772Y374289D01*
X340434Y373474D01*
X340319Y372598D01*
X340434Y371723D01*
X340772Y370908D01*
X341310Y370207D01*
X342010Y369670D01*
X342826Y369332D01*
X343701Y369217D01*
X344576Y369332D01*
X345392Y369670D01*
X346092Y370207D01*
X346629Y370908D01*
X346967Y371723D01*
X347082Y372598D01*
X346967Y373474D01*
X346629Y374289D01*
X346092Y374990D01*
X345392Y375527D01*
X344576Y375865D01*
X343701Y375980D01*
D02*
G37*
G36*
X391339Y368342D02*
X390798Y368234D01*
X390339Y367928D01*
X390033Y367470D01*
X389926Y366929D01*
X390033Y366388D01*
X390339Y365930D01*
X390798Y365624D01*
X391339Y365516D01*
X391879Y365624D01*
X392338Y365930D01*
X392644Y366388D01*
X392752Y366929D01*
X392644Y367470D01*
X392338Y367928D01*
X391879Y368234D01*
X391339Y368342D01*
D02*
G37*
G36*
X347054Y365951D02*
X343901D01*
Y362798D01*
X347054D01*
Y365951D01*
D02*
G37*
G36*
X343501D02*
X340348D01*
Y362798D01*
X343501D01*
Y365951D01*
D02*
G37*
G36*
X347054Y362398D02*
X343901D01*
Y359246D01*
X347054D01*
Y362398D01*
D02*
G37*
G36*
X343501D02*
X340348D01*
Y359246D01*
X343501D01*
Y362398D01*
D02*
G37*
G36*
X403543Y362043D02*
X403003Y361935D01*
X402544Y361629D01*
X402238Y361171D01*
X402130Y360630D01*
X402238Y360089D01*
X402544Y359631D01*
X403003Y359325D01*
X403543Y359217D01*
X404084Y359325D01*
X404542Y359631D01*
X404849Y360089D01*
X404956Y360630D01*
X404849Y361171D01*
X404542Y361629D01*
X404084Y361935D01*
X403543Y362043D01*
D02*
G37*
G36*
X391732Y361256D02*
X391192Y361148D01*
X390733Y360842D01*
X390427Y360383D01*
X390319Y359842D01*
X390427Y359302D01*
X390733Y358843D01*
X391192Y358537D01*
X391732Y358430D01*
X392273Y358537D01*
X392731Y358843D01*
X393038Y359302D01*
X393145Y359842D01*
X393038Y360383D01*
X392731Y360842D01*
X392273Y361148D01*
X391732Y361256D01*
D02*
G37*
G36*
X379528D02*
X378987Y361148D01*
X378528Y360842D01*
X378222Y360383D01*
X378115Y359842D01*
X378222Y359302D01*
X378528Y358843D01*
X378987Y358537D01*
X379528Y358430D01*
X380068Y358537D01*
X380527Y358843D01*
X380833Y359302D01*
X380941Y359842D01*
X380833Y360383D01*
X380527Y360842D01*
X380068Y361148D01*
X379528Y361256D01*
D02*
G37*
G36*
X379382Y357474D02*
X378841Y357366D01*
X378383Y357060D01*
X378077Y356602D01*
X377969Y356061D01*
X378077Y355520D01*
X378383Y355062D01*
X378841Y354755D01*
X379382Y354648D01*
X379923Y354755D01*
X380381Y355062D01*
X380687Y355520D01*
X380795Y356061D01*
X380687Y356602D01*
X380381Y357060D01*
X379923Y357366D01*
X379382Y357474D01*
D02*
G37*
G36*
X396457Y357318D02*
X395916Y357211D01*
X395458Y356905D01*
X395151Y356446D01*
X395044Y355906D01*
X395151Y355365D01*
X395458Y354906D01*
X395916Y354600D01*
X396457Y354492D01*
X396997Y354600D01*
X397456Y354906D01*
X397762Y355365D01*
X397870Y355906D01*
X397762Y356446D01*
X397456Y356905D01*
X396997Y357211D01*
X396457Y357318D01*
D02*
G37*
G36*
X369098Y356048D02*
Y353350D01*
X371796D01*
X371723Y353907D01*
X371431Y354612D01*
X370966Y355218D01*
X370360Y355683D01*
X369655Y355975D01*
X369098Y356048D01*
D02*
G37*
G36*
X368698D02*
X368141Y355975D01*
X367435Y355683D01*
X366829Y355218D01*
X366365Y354612D01*
X366072Y353907D01*
X365999Y353350D01*
X368698D01*
Y356048D01*
D02*
G37*
G36*
X371796Y352950D02*
X369098D01*
Y350251D01*
X369655Y350324D01*
X370360Y350617D01*
X370966Y351081D01*
X371431Y351687D01*
X371723Y352393D01*
X371796Y352950D01*
D02*
G37*
G36*
X368698D02*
X365999D01*
X366072Y352393D01*
X366365Y351687D01*
X366829Y351081D01*
X367435Y350617D01*
X368141Y350324D01*
X368698Y350251D01*
Y352950D01*
D02*
G37*
G36*
X368898Y348201D02*
X368141Y348101D01*
X367435Y347809D01*
X366829Y347344D01*
X366365Y346738D01*
X366072Y346033D01*
X365973Y345276D01*
X366072Y344518D01*
X366365Y343813D01*
X366829Y343207D01*
X367435Y342742D01*
X368141Y342450D01*
X368898Y342351D01*
X369655Y342450D01*
X370360Y342742D01*
X370966Y343207D01*
X371431Y343813D01*
X371723Y344518D01*
X371823Y345276D01*
X371723Y346033D01*
X371431Y346738D01*
X370966Y347344D01*
X370360Y347809D01*
X369655Y348101D01*
X368898Y348201D01*
D02*
G37*
G36*
X378740Y329740D02*
X378199Y329632D01*
X377741Y329326D01*
X377435Y328868D01*
X377327Y328327D01*
X377435Y327786D01*
X377741Y327328D01*
X378199Y327021D01*
X378740Y326914D01*
X379281Y327021D01*
X379739Y327328D01*
X380046Y327786D01*
X380153Y328327D01*
X380046Y328868D01*
X379739Y329326D01*
X379281Y329632D01*
X378740Y329740D01*
D02*
G37*
G36*
X373622D02*
X373081Y329632D01*
X372623Y329326D01*
X372317Y328868D01*
X372209Y328327D01*
X372317Y327786D01*
X372623Y327328D01*
X373081Y327021D01*
X373622Y326914D01*
X374163Y327021D01*
X374621Y327328D01*
X374927Y327786D01*
X375035Y328327D01*
X374927Y328868D01*
X374621Y329326D01*
X374163Y329632D01*
X373622Y329740D01*
D02*
G37*
G36*
X398721Y323066D02*
X398180Y322959D01*
X397721Y322653D01*
X397415Y322194D01*
X397307Y321654D01*
X397415Y321113D01*
X397721Y320654D01*
X398180Y320348D01*
X398721Y320241D01*
X399261Y320348D01*
X399720Y320654D01*
X400026Y321113D01*
X400133Y321654D01*
X400026Y322194D01*
X399720Y322653D01*
X399261Y322959D01*
X398721Y323066D01*
D02*
G37*
G36*
X393721Y323066D02*
X393180Y322959D01*
X392721Y322653D01*
X392415Y322194D01*
X392307Y321654D01*
X392415Y321113D01*
X392721Y320654D01*
X393180Y320348D01*
X393721Y320241D01*
X394261Y320348D01*
X394720Y320654D01*
X395026Y321113D01*
X395133Y321654D01*
X395026Y322194D01*
X394720Y322653D01*
X394261Y322959D01*
X393721Y323066D01*
D02*
G37*
G36*
X388720D02*
X388180Y322959D01*
X387721Y322653D01*
X387415Y322194D01*
X387308Y321654D01*
X387415Y321113D01*
X387721Y320654D01*
X388180Y320348D01*
X388720Y320241D01*
X389261Y320348D01*
X389720Y320654D01*
X390026Y321113D01*
X390133Y321654D01*
X390026Y322194D01*
X389720Y322653D01*
X389261Y322959D01*
X388720Y323066D01*
D02*
G37*
G36*
X383720D02*
X383180Y322959D01*
X382721Y322653D01*
X382415Y322194D01*
X382308Y321654D01*
X382415Y321113D01*
X382721Y320654D01*
X383180Y320348D01*
X383720Y320241D01*
X384261Y320348D01*
X384720Y320654D01*
X385026Y321113D01*
X385133Y321654D01*
X385026Y322194D01*
X384720Y322653D01*
X384261Y322959D01*
X383720Y323066D01*
D02*
G37*
G36*
X430315Y319917D02*
X429774Y319809D01*
X429316Y319503D01*
X429010Y319045D01*
X428902Y318504D01*
X429010Y317963D01*
X429316Y317505D01*
X429774Y317198D01*
X430315Y317091D01*
X430856Y317198D01*
X431314Y317505D01*
X431620Y317963D01*
X431728Y318504D01*
X431620Y319045D01*
X431314Y319503D01*
X430856Y319809D01*
X430315Y319917D01*
D02*
G37*
G36*
X365354Y316767D02*
X364814Y316660D01*
X364355Y316354D01*
X364049Y315895D01*
X363941Y315354D01*
X364049Y314814D01*
X364355Y314355D01*
Y313991D01*
X364049Y313533D01*
X363941Y312992D01*
X364049Y312451D01*
X364355Y311993D01*
X364814Y311687D01*
X365354Y311579D01*
X365895Y311687D01*
X366354Y311993D01*
X366660Y312451D01*
X366767Y312992D01*
X366660Y313533D01*
X366354Y313991D01*
Y314355D01*
X366660Y314814D01*
X366767Y315354D01*
X366660Y315895D01*
X366354Y316354D01*
X365895Y316660D01*
X365354Y316767D01*
D02*
G37*
G36*
X600000Y459982D02*
X599344Y459851D01*
X598788Y459480D01*
X598416Y458924D01*
X598286Y458268D01*
X598416Y457612D01*
X598788Y457056D01*
X599344Y456684D01*
X600000Y456554D01*
X600656Y456684D01*
X601212Y457056D01*
X601584Y457612D01*
X601714Y458268D01*
X601584Y458924D01*
X601212Y459480D01*
X600656Y459851D01*
X600000Y459982D01*
D02*
G37*
G36*
X559449D02*
X558793Y459851D01*
X558237Y459480D01*
X557865Y458924D01*
X557735Y458268D01*
X557865Y457612D01*
X558237Y457056D01*
X558793Y456684D01*
X559449Y456554D01*
X560105Y456684D01*
X560661Y457056D01*
X561032Y457612D01*
X561163Y458268D01*
X561032Y458924D01*
X560661Y459480D01*
X560105Y459851D01*
X559449Y459982D01*
D02*
G37*
G36*
X518898D02*
X518242Y459851D01*
X517686Y459480D01*
X517314Y458924D01*
X517184Y458268D01*
X517314Y457612D01*
X517686Y457056D01*
X518242Y456684D01*
X518898Y456554D01*
X519554Y456684D01*
X520110Y457056D01*
X520481Y457612D01*
X520612Y458268D01*
X520481Y458924D01*
X520110Y459480D01*
X519554Y459851D01*
X518898Y459982D01*
D02*
G37*
G36*
X478346D02*
X477691Y459851D01*
X477135Y459480D01*
X476763Y458924D01*
X476632Y458268D01*
X476763Y457612D01*
X477135Y457056D01*
X477691Y456684D01*
X478346Y456554D01*
X479002Y456684D01*
X479559Y457056D01*
X479930Y457612D01*
X480060Y458268D01*
X479930Y458924D01*
X479559Y459480D01*
X479002Y459851D01*
X478346Y459982D01*
D02*
G37*
G36*
X644095Y455762D02*
X642685Y455576D01*
X641371Y455032D01*
X640243Y454166D01*
X639378Y453038D01*
X638834Y451725D01*
X638648Y450315D01*
X638834Y448905D01*
X639378Y447592D01*
X640243Y446464D01*
X641371Y445598D01*
X642685Y445054D01*
X644095Y444868D01*
X645504Y445054D01*
X646818Y445598D01*
X647946Y446464D01*
X648811Y447592D01*
X649356Y448905D01*
X649541Y450315D01*
X649356Y451725D01*
X648811Y453038D01*
X647946Y454166D01*
X646818Y455032D01*
X645504Y455576D01*
X644095Y455762D01*
D02*
G37*
G36*
X613779Y450592D02*
X612709Y450451D01*
X611712Y450038D01*
X610855Y449381D01*
X610198Y448524D01*
X609785Y447527D01*
X609644Y446457D01*
X609785Y445386D01*
X610198Y444389D01*
X610855Y443533D01*
X611712Y442875D01*
X612709Y442462D01*
X613779Y442321D01*
X614850Y442462D01*
X615847Y442875D01*
X616704Y443533D01*
X617361Y444389D01*
X617774Y445386D01*
X617915Y446457D01*
X617774Y447527D01*
X617361Y448524D01*
X616704Y449381D01*
X615847Y450038D01*
X614850Y450451D01*
X613779Y450592D01*
D02*
G37*
G36*
X644095Y435762D02*
X642685Y435576D01*
X641371Y435032D01*
X640243Y434166D01*
X639378Y433038D01*
X638834Y431725D01*
X638648Y430315D01*
X638834Y428905D01*
X639378Y427592D01*
X640243Y426464D01*
X641371Y425598D01*
X642685Y425054D01*
X644095Y424868D01*
X645504Y425054D01*
X646818Y425598D01*
X647946Y426464D01*
X648811Y427592D01*
X649356Y428905D01*
X649541Y430315D01*
X649356Y431725D01*
X648811Y433038D01*
X647946Y434166D01*
X646818Y435032D01*
X645504Y435576D01*
X644095Y435762D01*
D02*
G37*
G36*
Y416077D02*
X642685Y415891D01*
X641371Y415347D01*
X640243Y414481D01*
X639378Y413353D01*
X638834Y412040D01*
X638648Y410630D01*
X638834Y409220D01*
X639378Y407907D01*
X640243Y406779D01*
X641371Y405913D01*
X642685Y405369D01*
X644095Y405183D01*
X645504Y405369D01*
X646818Y405913D01*
X647946Y406779D01*
X648811Y407907D01*
X649356Y409220D01*
X649541Y410630D01*
X649356Y412040D01*
X648811Y413353D01*
X647946Y414481D01*
X646818Y415347D01*
X645504Y415891D01*
X644095Y416077D01*
D02*
G37*
G36*
X644295Y396050D02*
Y390830D01*
X649515D01*
X649356Y392040D01*
X648811Y393353D01*
X647946Y394481D01*
X646818Y395347D01*
X645504Y395891D01*
X644295Y396050D01*
D02*
G37*
G36*
X643894D02*
X642685Y395891D01*
X641371Y395347D01*
X640243Y394481D01*
X639378Y393353D01*
X638834Y392040D01*
X638674Y390830D01*
X643894D01*
Y396050D01*
D02*
G37*
G36*
X577165Y392265D02*
X576509Y392135D01*
X575953Y391763D01*
X575582Y391207D01*
X575451Y390551D01*
X575582Y389895D01*
X575953Y389339D01*
X576509Y388968D01*
X577165Y388837D01*
X577821Y388968D01*
X578377Y389339D01*
X578749Y389895D01*
X578879Y390551D01*
X578749Y391207D01*
X578377Y391763D01*
X577821Y392135D01*
X577165Y392265D01*
D02*
G37*
G36*
X536614D02*
X535958Y392135D01*
X535402Y391763D01*
X535031Y391207D01*
X534900Y390551D01*
X535031Y389895D01*
X535402Y389339D01*
X535958Y388968D01*
X536614Y388837D01*
X537270Y388968D01*
X537826Y389339D01*
X538198Y389895D01*
X538328Y390551D01*
X538198Y391207D01*
X537826Y391763D01*
X537270Y392135D01*
X536614Y392265D01*
D02*
G37*
G36*
X496063D02*
X495407Y392135D01*
X494851Y391763D01*
X494479Y391207D01*
X494349Y390551D01*
X494479Y389895D01*
X494851Y389339D01*
X495407Y388968D01*
X496063Y388837D01*
X496719Y388968D01*
X497275Y389339D01*
X497647Y389895D01*
X497777Y390551D01*
X497647Y391207D01*
X497275Y391763D01*
X496719Y392135D01*
X496063Y392265D01*
D02*
G37*
G36*
X455512D02*
X454856Y392135D01*
X454300Y391763D01*
X453928Y391207D01*
X453798Y390551D01*
X453928Y389895D01*
X454300Y389339D01*
X454856Y388968D01*
X455512Y388837D01*
X456168Y388968D01*
X456724Y389339D01*
X457095Y389895D01*
X457226Y390551D01*
X457095Y391207D01*
X456724Y391763D01*
X456168Y392135D01*
X455512Y392265D01*
D02*
G37*
G36*
X649515Y390430D02*
X644295D01*
Y385210D01*
X645504Y385369D01*
X646818Y385913D01*
X647946Y386779D01*
X648811Y387907D01*
X649356Y389220D01*
X649515Y390430D01*
D02*
G37*
G36*
X643894D02*
X638674D01*
X638834Y389220D01*
X639378Y387907D01*
X640243Y386779D01*
X641371Y385913D01*
X642685Y385369D01*
X643894Y385210D01*
Y390430D01*
D02*
G37*
G36*
X600000Y365100D02*
X599344Y364969D01*
X598788Y364598D01*
X598416Y364042D01*
X598286Y363386D01*
X598416Y362730D01*
X598788Y362174D01*
X599344Y361802D01*
X600000Y361672D01*
X600656Y361802D01*
X601212Y362174D01*
X601584Y362730D01*
X601714Y363386D01*
X601584Y364042D01*
X601212Y364598D01*
X600656Y364969D01*
X600000Y365100D01*
D02*
G37*
G36*
X559449D02*
X558793Y364969D01*
X558237Y364598D01*
X557865Y364042D01*
X557735Y363386D01*
X557865Y362730D01*
X558237Y362174D01*
X558793Y361802D01*
X559449Y361672D01*
X560105Y361802D01*
X560661Y362174D01*
X561032Y362730D01*
X561163Y363386D01*
X561032Y364042D01*
X560661Y364598D01*
X560105Y364969D01*
X559449Y365100D01*
D02*
G37*
G36*
X518898D02*
X518242Y364969D01*
X517686Y364598D01*
X517314Y364042D01*
X517184Y363386D01*
X517314Y362730D01*
X517686Y362174D01*
X518242Y361802D01*
X518898Y361672D01*
X519554Y361802D01*
X520110Y362174D01*
X520481Y362730D01*
X520612Y363386D01*
X520481Y364042D01*
X520110Y364598D01*
X519554Y364969D01*
X518898Y365100D01*
D02*
G37*
G36*
X478346D02*
X477691Y364969D01*
X477135Y364598D01*
X476763Y364042D01*
X476632Y363386D01*
X476763Y362730D01*
X477135Y362174D01*
X477691Y361802D01*
X478346Y361672D01*
X479002Y361802D01*
X479559Y362174D01*
X479930Y362730D01*
X480060Y363386D01*
X479930Y364042D01*
X479559Y364598D01*
X479002Y364969D01*
X478346Y365100D01*
D02*
G37*
G36*
X643701Y369541D02*
X642291Y369356D01*
X640977Y368811D01*
X639850Y367946D01*
X638984Y366818D01*
X638440Y365504D01*
X638254Y364094D01*
X638440Y362685D01*
X638984Y361371D01*
X639850Y360243D01*
X640977Y359378D01*
X642291Y358834D01*
X643701Y358648D01*
X645111Y358834D01*
X646424Y359378D01*
X647552Y360243D01*
X648418Y361371D01*
X648962Y362685D01*
X649147Y364094D01*
X648962Y365504D01*
X648418Y366818D01*
X647552Y367946D01*
X646424Y368811D01*
X645111Y369356D01*
X643701Y369541D01*
D02*
G37*
G36*
X613779Y355316D02*
X612709Y355176D01*
X611712Y354762D01*
X610855Y354105D01*
X610198Y353249D01*
X609785Y352251D01*
X609644Y351181D01*
X609785Y350111D01*
X610198Y349113D01*
X610855Y348257D01*
X611712Y347600D01*
X612709Y347187D01*
X613779Y347046D01*
X614850Y347187D01*
X615847Y347600D01*
X616704Y348257D01*
X617361Y349113D01*
X617774Y350111D01*
X617915Y351181D01*
X617774Y352251D01*
X617361Y353249D01*
X616704Y354105D01*
X615847Y354762D01*
X614850Y355176D01*
X613779Y355316D01*
D02*
G37*
G36*
X643701Y349541D02*
X642291Y349356D01*
X640977Y348811D01*
X639850Y347946D01*
X638984Y346818D01*
X638440Y345504D01*
X638254Y344094D01*
X638440Y342685D01*
X638984Y341371D01*
X639850Y340243D01*
X640977Y339378D01*
X642291Y338833D01*
X643701Y338648D01*
X645111Y338833D01*
X646424Y339378D01*
X647552Y340243D01*
X648418Y341371D01*
X648962Y342685D01*
X649147Y344094D01*
X648962Y345504D01*
X648418Y346818D01*
X647552Y347946D01*
X646424Y348811D01*
X645111Y349356D01*
X643701Y349541D01*
D02*
G37*
G36*
Y329856D02*
X642291Y329671D01*
X640977Y329126D01*
X639850Y328261D01*
X638984Y327133D01*
X638440Y325819D01*
X638254Y324410D01*
X638440Y323000D01*
X638984Y321686D01*
X639850Y320558D01*
X640977Y319693D01*
X642291Y319148D01*
X643701Y318963D01*
X645111Y319148D01*
X646424Y319693D01*
X647552Y320558D01*
X648418Y321686D01*
X648962Y323000D01*
X649147Y324410D01*
X648962Y325819D01*
X648418Y327133D01*
X647552Y328261D01*
X646424Y329126D01*
X645111Y329671D01*
X643701Y329856D01*
D02*
G37*
G36*
X643901Y309830D02*
Y304609D01*
X649121D01*
X648962Y305819D01*
X648418Y307133D01*
X647552Y308261D01*
X646424Y309126D01*
X645111Y309670D01*
X643901Y309830D01*
D02*
G37*
G36*
X643501D02*
X642291Y309670D01*
X640977Y309126D01*
X639850Y308261D01*
X638984Y307133D01*
X638440Y305819D01*
X638280Y304609D01*
X643501D01*
Y309830D01*
D02*
G37*
G36*
X649121Y304209D02*
X643901D01*
Y298989D01*
X645111Y299148D01*
X646424Y299693D01*
X647552Y300558D01*
X648418Y301686D01*
X648962Y303000D01*
X649121Y304209D01*
D02*
G37*
G36*
X643501D02*
X638280D01*
X638440Y303000D01*
X638984Y301686D01*
X639850Y300558D01*
X640977Y299693D01*
X642291Y299148D01*
X643501Y298989D01*
Y304209D01*
D02*
G37*
G36*
X577165Y297383D02*
X576509Y297253D01*
X575953Y296881D01*
X575582Y296325D01*
X575451Y295669D01*
X575582Y295013D01*
X575953Y294457D01*
X576509Y294086D01*
X577165Y293955D01*
X577821Y294086D01*
X578377Y294457D01*
X578749Y295013D01*
X578879Y295669D01*
X578749Y296325D01*
X578377Y296881D01*
X577821Y297253D01*
X577165Y297383D01*
D02*
G37*
G36*
X536614D02*
X535958Y297253D01*
X535402Y296881D01*
X535031Y296325D01*
X534900Y295669D01*
X535031Y295013D01*
X535402Y294457D01*
X535958Y294086D01*
X536614Y293955D01*
X537270Y294086D01*
X537826Y294457D01*
X538198Y295013D01*
X538328Y295669D01*
X538198Y296325D01*
X537826Y296881D01*
X537270Y297253D01*
X536614Y297383D01*
D02*
G37*
G36*
X496063D02*
X495407Y297253D01*
X494851Y296881D01*
X494479Y296325D01*
X494349Y295669D01*
X494479Y295013D01*
X494851Y294457D01*
X495407Y294086D01*
X496063Y293955D01*
X496719Y294086D01*
X497275Y294457D01*
X497647Y295013D01*
X497777Y295669D01*
X497647Y296325D01*
X497275Y296881D01*
X496719Y297253D01*
X496063Y297383D01*
D02*
G37*
G36*
X455512D02*
X454856Y297253D01*
X454300Y296881D01*
X453928Y296325D01*
X453798Y295669D01*
X453928Y295013D01*
X454300Y294457D01*
X454856Y294086D01*
X455512Y293955D01*
X456168Y294086D01*
X456724Y294457D01*
X457095Y295013D01*
X457226Y295669D01*
X457095Y296325D01*
X456724Y296881D01*
X456168Y297253D01*
X455512Y297383D01*
D02*
G37*
%LPD*%
D10*
X593701Y439764D02*
X599606Y433858D01*
X438976Y439764D02*
X593701D01*
X434350Y435138D02*
X438976Y439764D01*
X426673Y435138D02*
X434350D01*
X554731Y438183D02*
X559055Y433858D01*
X441332Y438183D02*
X554731D01*
X434744Y431595D02*
X441332Y438183D01*
X432185Y431595D02*
X434744D01*
X515748Y436614D02*
X518504Y433858D01*
X443701Y436614D02*
X515748D01*
X435433Y428346D02*
X443701Y436614D01*
X444882Y433858D02*
X477953D01*
X437402Y426378D02*
X444882Y433858D01*
X448819Y414961D02*
X455118D01*
X439370Y424409D02*
X448819Y414961D01*
X435433Y424409D02*
X439370D01*
X448032Y411811D02*
X492520D01*
X495669Y414961D01*
X437402Y422441D02*
X448032Y411811D01*
X531496Y410236D02*
X536221Y414961D01*
X445669Y410236D02*
X531496D01*
X435433Y420472D02*
X445669Y410236D01*
X570472Y408661D02*
X576772Y414961D01*
X443307Y408661D02*
X570472D01*
X432185Y417224D02*
X434744D01*
X443307Y408661D01*
X426673Y340256D02*
X434350D01*
X438976Y344882D01*
X593701D01*
X599606Y338976D01*
X432185Y336713D02*
X434744D01*
X441332Y343301D01*
X554731D02*
X559055Y338976D01*
X441332Y343301D02*
X554731D01*
X515748Y341732D02*
X518504Y338976D01*
X443701Y341732D02*
X515748D01*
X435433Y333465D02*
X443701Y341732D01*
X437402Y331496D02*
X444882Y338976D01*
X477953D01*
X443307Y313779D02*
X570472D01*
X448819Y320079D02*
X455118D01*
X570472Y313779D02*
X576772Y320079D01*
X434744Y322342D02*
X443307Y313779D01*
X432185Y322342D02*
X434744D01*
X445669Y315354D02*
X531496D01*
X536221Y320079D01*
X435433Y325591D02*
X445669Y315354D01*
X448032Y316929D02*
X492520D01*
X437402Y327559D02*
X448032Y316929D01*
X492520D02*
X495669Y320079D01*
X435433Y329528D02*
X439370D01*
X448819Y320079D01*
D65*
X368898Y413386D02*
D03*
Y421260D02*
D03*
Y353150D02*
D03*
D66*
X643701Y304410D02*
D03*
X644095Y390630D02*
D03*
D67*
X343701Y433937D02*
D03*
Y392598D02*
D03*
D68*
Y403937D02*
D03*
Y362598D02*
D03*
D71*
X479528Y281890D02*
D03*
X483465D02*
D03*
X475591D02*
D03*
X471654D02*
D03*
X487402D02*
D03*
X491339D02*
D03*
X499213D02*
D03*
X495276D02*
D03*
X463779D02*
D03*
X467717D02*
D03*
X459842D02*
D03*
X455905D02*
D03*
X444095D02*
D03*
X451968D02*
D03*
X448032D02*
D03*
X554331D02*
D03*
X550394D02*
D03*
X558268D02*
D03*
X546457D02*
D03*
X542520D02*
D03*
X534646D02*
D03*
X538583D02*
D03*
X507087D02*
D03*
X503150D02*
D03*
X511024D02*
D03*
X514961D02*
D03*
X530709D02*
D03*
X526772D02*
D03*
X518898D02*
D03*
X522835D02*
D03*
X609449D02*
D03*
X605512D02*
D03*
X601575D02*
D03*
X593701D02*
D03*
X597638D02*
D03*
X566142D02*
D03*
X562205D02*
D03*
X570079D02*
D03*
X574016D02*
D03*
X589764D02*
D03*
X585827D02*
D03*
X577953D02*
D03*
X581890D02*
D03*
X479528Y472047D02*
D03*
X483465D02*
D03*
X475591D02*
D03*
X471654D02*
D03*
X487402D02*
D03*
X491339D02*
D03*
X499213D02*
D03*
X495276D02*
D03*
X463779D02*
D03*
X467717D02*
D03*
X459842D02*
D03*
X455905D02*
D03*
X444095D02*
D03*
X451968D02*
D03*
X448032D02*
D03*
X554331D02*
D03*
X550394D02*
D03*
X558268D02*
D03*
X546457D02*
D03*
X542520D02*
D03*
X534646D02*
D03*
X538583D02*
D03*
X507087D02*
D03*
X503150D02*
D03*
X511024D02*
D03*
X514961D02*
D03*
X530709D02*
D03*
X526772D02*
D03*
X518898D02*
D03*
X522835D02*
D03*
X613386D02*
D03*
X609449D02*
D03*
X617323D02*
D03*
X605512D02*
D03*
X601575D02*
D03*
X593701Y472835D02*
D03*
X597638D02*
D03*
X566142Y472047D02*
D03*
X562205D02*
D03*
X570079D02*
D03*
X574016D02*
D03*
X589764Y472835D02*
D03*
X585827D02*
D03*
X577953Y472047D02*
D03*
X581890D02*
D03*
Y377165D02*
D03*
X577953D02*
D03*
X585827Y377953D02*
D03*
X589764D02*
D03*
X574016Y377165D02*
D03*
X570079D02*
D03*
X562205D02*
D03*
X566142D02*
D03*
X597638Y377953D02*
D03*
X593701D02*
D03*
X601575Y377165D02*
D03*
X605512D02*
D03*
X617323D02*
D03*
X609449D02*
D03*
X613386D02*
D03*
X522835D02*
D03*
X518898D02*
D03*
X526772D02*
D03*
X530709D02*
D03*
X514961D02*
D03*
X511024D02*
D03*
X503150D02*
D03*
X507087D02*
D03*
X538583D02*
D03*
X534646D02*
D03*
X542520D02*
D03*
X546457D02*
D03*
X558268D02*
D03*
X550394D02*
D03*
X554331D02*
D03*
X448032D02*
D03*
X451968D02*
D03*
X444095D02*
D03*
X455905D02*
D03*
X459842D02*
D03*
X467717D02*
D03*
X463779D02*
D03*
X495276D02*
D03*
X499213D02*
D03*
X491339D02*
D03*
X487402D02*
D03*
X471654D02*
D03*
X475591D02*
D03*
X483465D02*
D03*
X479528D02*
D03*
X576772Y424803D02*
D03*
X571654D02*
D03*
X566535D02*
D03*
X525591D02*
D03*
X530709D02*
D03*
X535827D02*
D03*
X485039D02*
D03*
X490158D02*
D03*
X495276D02*
D03*
X495669Y329921D02*
D03*
X490551D02*
D03*
X485433D02*
D03*
X536221D02*
D03*
X531102D02*
D03*
X525984D02*
D03*
X566929D02*
D03*
X572047D02*
D03*
X577165D02*
D03*
X396457Y330315D02*
D03*
X391151Y330249D02*
D03*
X386221Y330315D02*
D03*
X381103Y330394D02*
D03*
X376032Y430691D02*
D03*
X381103Y430788D02*
D03*
X386221Y430709D02*
D03*
X391151Y430643D02*
D03*
X396457Y430709D02*
D03*
Y374410D02*
D03*
X370866Y444488D02*
D03*
X401575D02*
D03*
Y300000D02*
D03*
X370866D02*
D03*
X362992Y382677D02*
D03*
X361811Y337795D02*
D03*
X356299Y315354D02*
D03*
X355118Y319291D02*
D03*
X403543Y363779D02*
D03*
X405930Y376146D02*
D03*
X405905Y373622D02*
D03*
Y378740D02*
D03*
X411811Y393701D02*
D03*
X424409Y315748D02*
D03*
X424016Y410630D02*
D03*
X599606Y433858D02*
D03*
X426673Y435138D02*
D03*
X559055Y433858D02*
D03*
X432185Y431595D02*
D03*
X518504Y433858D02*
D03*
X435433Y428346D02*
D03*
X477953Y433858D02*
D03*
X437402Y426378D02*
D03*
X455118Y414961D02*
D03*
X435433Y424409D02*
D03*
X495669Y414961D02*
D03*
X437402Y422441D02*
D03*
X536221Y414961D02*
D03*
X435433Y420472D02*
D03*
X576772Y414961D02*
D03*
X432185Y417224D02*
D03*
X437402Y327559D02*
D03*
X426673Y340256D02*
D03*
X435433Y333465D02*
D03*
X432185Y336713D02*
D03*
Y322342D02*
D03*
X435433Y325591D02*
D03*
X437402Y331496D02*
D03*
X435433Y329528D02*
D03*
X455118Y320079D02*
D03*
X495669D02*
D03*
X536221D02*
D03*
X576772D02*
D03*
X599606Y338976D02*
D03*
X559055D02*
D03*
X518504D02*
D03*
X477953D02*
D03*
D72*
X436614Y446457D02*
D03*
D74*
X422539Y426575D02*
D03*
X426870D02*
D03*
X422539Y422244D02*
D03*
X426870D02*
D03*
X415748Y374410D02*
D03*
X415748Y378740D02*
D03*
X415748Y383071D02*
D03*
X420079Y374410D02*
D03*
Y378740D02*
D03*
Y383071D02*
D03*
X424409Y374410D02*
D03*
X424409Y378740D02*
D03*
X424409Y383071D02*
D03*
X422539Y331693D02*
D03*
X426870D02*
D03*
X422539Y327362D02*
D03*
X426870D02*
D03*
D75*
X379035Y381102D02*
D03*
X383760D02*
D03*
X379035Y376378D02*
D03*
X383760D02*
D03*
D76*
X393701Y421260D02*
Y421260D01*
X368898Y421260D02*
X393701D01*
X418898Y446457D02*
X436614D01*
X393701Y421260D02*
X418898Y446457D01*
M02*
