G04*
G04 #@! TF.GenerationSoftware,Altium Limited,Altium Designer,20.0.9 (164)*
G04*
G04 Layer_Physical_Order=1*
G04 Layer_Color=255*
%FSLAX25Y25*%
%MOIN*%
G70*
G01*
G75*
%ADD10C,0.00787*%
%ADD14R,0.02500X0.02500*%
%ADD15O,0.03347X0.00984*%
%ADD16O,0.00984X0.03347*%
%ADD17R,0.09055X0.09055*%
%ADD18R,0.15472X0.15472*%
%ADD19O,0.03937X0.01181*%
%ADD20O,0.01181X0.03937*%
%ADD21R,0.03150X0.05118*%
%ADD22R,0.02756X0.06693*%
%ADD23R,0.09843X0.09843*%
%ADD24O,0.00787X0.02953*%
%ADD25O,0.02953X0.00787*%
G04:AMPARAMS|DCode=26|XSize=20.47mil|YSize=22.05mil|CornerRadius=5.12mil|HoleSize=0mil|Usage=FLASHONLY|Rotation=90.000|XOffset=0mil|YOffset=0mil|HoleType=Round|Shape=RoundedRectangle|*
%AMROUNDEDRECTD26*
21,1,0.02047,0.01181,0,0,90.0*
21,1,0.01024,0.02205,0,0,90.0*
1,1,0.01024,0.00591,0.00512*
1,1,0.01024,0.00591,-0.00512*
1,1,0.01024,-0.00591,-0.00512*
1,1,0.01024,-0.00591,0.00512*
%
%ADD26ROUNDEDRECTD26*%
G04:AMPARAMS|DCode=27|XSize=20.47mil|YSize=22.05mil|CornerRadius=5.12mil|HoleSize=0mil|Usage=FLASHONLY|Rotation=180.000|XOffset=0mil|YOffset=0mil|HoleType=Round|Shape=RoundedRectangle|*
%AMROUNDEDRECTD27*
21,1,0.02047,0.01181,0,0,180.0*
21,1,0.01024,0.02205,0,0,180.0*
1,1,0.01024,-0.00512,0.00591*
1,1,0.01024,0.00512,0.00591*
1,1,0.01024,0.00512,-0.00591*
1,1,0.01024,-0.00512,-0.00591*
%
%ADD27ROUNDEDRECTD27*%
%ADD28R,0.02992X0.09449*%
%ADD29R,0.02165X0.03150*%
%ADD30R,0.02835X0.03543*%
%ADD31R,0.02756X0.03347*%
%ADD61C,0.01181*%
%ADD62C,0.01500*%
%ADD63C,0.01968*%
%ADD64C,0.01575*%
%ADD65C,0.05000*%
%ADD66C,0.10000*%
%ADD67C,0.05906*%
%ADD68R,0.05906X0.05906*%
%ADD69C,0.07400*%
%ADD70C,0.21654*%
%ADD71C,0.01772*%
%ADD72C,0.03150*%
%ADD73C,0.02362*%
%ADD74C,0.01968*%
%ADD75C,0.02598*%
G36*
X438976Y448073D02*
X438189Y447834D01*
X438110Y447953D01*
X437424Y448411D01*
X436614Y448572D01*
X435805Y448411D01*
X435118Y447953D01*
X434660Y447266D01*
X434499Y446457D01*
X434660Y445647D01*
X435118Y444961D01*
X435805Y444502D01*
X436614Y444341D01*
X437424Y444502D01*
X438110Y444961D01*
X438189Y445079D01*
X438976Y444840D01*
Y427867D01*
X438885Y427789D01*
X438189Y427519D01*
X437942Y427683D01*
X437402Y427791D01*
X436846Y428346D01*
X436738Y428887D01*
X436432Y429346D01*
X435974Y429652D01*
X435433Y429759D01*
X434892Y429652D01*
X434434Y429346D01*
X434307Y429156D01*
X433465D01*
X433419Y429187D01*
X433071Y429256D01*
X430709D01*
X430420Y429199D01*
X430243Y429211D01*
X429814Y429299D01*
X429516Y430056D01*
X429812Y430785D01*
X431059D01*
X431186Y430595D01*
X431644Y430289D01*
X432185Y430182D01*
X432726Y430289D01*
X433184Y430595D01*
X433490Y431054D01*
X433598Y431595D01*
X433490Y432135D01*
X433184Y432594D01*
X432726Y432900D01*
X432185Y433007D01*
X431644Y432900D01*
X431186Y432594D01*
X431059Y432404D01*
X429551D01*
Y432776D01*
X429482Y433124D01*
X429285Y433419D01*
X428990Y433616D01*
X428642Y433685D01*
X428294Y433616D01*
X427965Y434292D01*
X427897Y434475D01*
X427979Y434597D01*
X428086Y435138D01*
X427979Y435678D01*
X427672Y436137D01*
X427214Y436443D01*
X426673Y436551D01*
X426132Y436443D01*
X425674Y436137D01*
X425368Y435678D01*
X425260Y435138D01*
X425368Y434597D01*
X425450Y434475D01*
X425382Y434292D01*
X425053Y433616D01*
X424705Y433685D01*
X424357Y433616D01*
X424269Y433557D01*
X423698Y433727D01*
X423622Y433766D01*
X423461Y433892D01*
X423420Y434100D01*
X423244Y434363D01*
X423244Y434363D01*
X422783Y434824D01*
X422520Y435000D01*
X422211Y435061D01*
X422211Y435061D01*
X418504D01*
X418504Y435061D01*
X418194Y435000D01*
X417932Y434824D01*
X417932Y434824D01*
X408543Y425436D01*
X408368Y425174D01*
X408307Y424864D01*
X408307Y424864D01*
Y408207D01*
X408307Y408207D01*
X408368Y407897D01*
X408543Y407635D01*
X417541Y398638D01*
X417282Y397783D01*
X417176Y397762D01*
X416717Y397456D01*
X416411Y396997D01*
X416304Y396457D01*
X416411Y395916D01*
X416511Y395766D01*
X416576Y395492D01*
X416382Y395133D01*
X415731Y394984D01*
X415559Y394962D01*
X415277Y395150D01*
X414921Y395221D01*
X414609D01*
Y393701D01*
X414409D01*
Y393501D01*
X412968D01*
Y393110D01*
X413039Y392755D01*
X413240Y392453D01*
X413324Y392397D01*
X413456Y391739D01*
X413292Y391653D01*
X413092Y391577D01*
X412788Y391779D01*
X412402Y391856D01*
X412015Y391779D01*
X411687Y391561D01*
X411469Y391233D01*
X411392Y390846D01*
Y388091D01*
X411403Y388035D01*
X411401Y388030D01*
X410788Y387418D01*
X410784Y387416D01*
X410728Y387427D01*
X407972D01*
X407586Y387350D01*
X407513Y387302D01*
X406717D01*
Y387598D01*
X406646Y387954D01*
X406445Y388256D01*
X406377Y389140D01*
X406387Y389169D01*
X406424Y389223D01*
X406531Y389764D01*
X406424Y390304D01*
X406117Y390763D01*
X405659Y391069D01*
X405118Y391177D01*
X404577Y391069D01*
X404119Y390763D01*
X403867Y390386D01*
X403460Y390339D01*
X403025Y390381D01*
X402776Y390753D01*
X402318Y391060D01*
X401777Y391167D01*
X401236Y391060D01*
X400778Y390753D01*
X400472Y390295D01*
X400364Y389754D01*
X400472Y389213D01*
X400535Y389118D01*
X400642Y388256D01*
X400440Y387954D01*
X400370Y387598D01*
Y386417D01*
X400440Y386062D01*
X400540Y385913D01*
X400642Y385760D01*
Y385106D01*
X400540Y384953D01*
X400440Y384805D01*
X400370Y384449D01*
Y383268D01*
X400440Y382912D01*
X400642Y382610D01*
X400943Y382409D01*
X401299Y382338D01*
X402323D01*
X402679Y382409D01*
X402980Y382610D01*
X403120Y382820D01*
X403543Y382870D01*
X403966Y382820D01*
X404106Y382610D01*
X404408Y382409D01*
X404466Y382397D01*
Y380962D01*
X402971Y379467D01*
X402796Y379204D01*
X402734Y378895D01*
X402734Y378894D01*
Y372705D01*
X402508Y372510D01*
X401947Y372205D01*
X401575Y372279D01*
X401034Y372171D01*
X400576Y371865D01*
X400269Y371407D01*
X400162Y370866D01*
X400269Y370325D01*
X400576Y369867D01*
X400266Y369127D01*
X396915Y365776D01*
X393182D01*
X392991Y365994D01*
X392679Y366564D01*
X392752Y366929D01*
X392644Y367470D01*
X392338Y367928D01*
X391879Y368234D01*
X391339Y368342D01*
X390798Y368234D01*
X390339Y367928D01*
X390213Y367738D01*
X383222D01*
X382703Y368517D01*
X382778Y368797D01*
X382994Y368911D01*
X383169Y368876D01*
X383169Y368876D01*
X383479Y368937D01*
X384055Y369058D01*
X384631Y368937D01*
X384941Y368876D01*
X384941Y368876D01*
X385047Y368897D01*
X385251Y368937D01*
X385303Y368973D01*
X385534Y369113D01*
X386120D01*
X386350Y368973D01*
X386403Y368937D01*
X386713Y368876D01*
X387022Y368937D01*
X387285Y369113D01*
X387460Y369375D01*
X387522Y369685D01*
Y371850D01*
X387479Y372063D01*
X387746Y372392D01*
X388074Y372658D01*
X388287Y372616D01*
X390453D01*
X390762Y372677D01*
X391025Y372853D01*
X391200Y373115D01*
X391262Y373425D01*
X391200Y373735D01*
X391165Y373788D01*
X391025Y374018D01*
Y374604D01*
X391165Y374834D01*
X391200Y374887D01*
X391262Y375197D01*
X391227Y375372D01*
X391494Y375881D01*
X391645Y376075D01*
X392438Y376057D01*
X392532Y375917D01*
X392833Y375716D01*
X392892Y375704D01*
Y373228D01*
X392892Y373228D01*
X392953Y372919D01*
X393129Y372656D01*
X394301Y371484D01*
X394256Y371260D01*
X394364Y370719D01*
X394670Y370261D01*
X395129Y369954D01*
X395669Y369847D01*
X396210Y369954D01*
X396668Y370261D01*
X396975Y370719D01*
X397082Y371260D01*
X396975Y371801D01*
X396668Y372259D01*
X396210Y372565D01*
X395669Y372673D01*
X395445Y372628D01*
X394510Y373564D01*
Y375704D01*
X394568Y375716D01*
X394870Y375917D01*
X395010Y376127D01*
X395433Y376177D01*
X395856Y376127D01*
X395996Y375917D01*
X396298Y375716D01*
X396654Y375645D01*
X396965D01*
Y377165D01*
Y378686D01*
X396654D01*
X396298Y378615D01*
X395996Y378413D01*
X395856Y378204D01*
X395433Y378154D01*
X395010Y378204D01*
X394870Y378413D01*
X394568Y378615D01*
X394213Y378686D01*
X393189D01*
X392833Y378615D01*
X392532Y378413D01*
X392361Y378157D01*
X392048Y378084D01*
X391763Y378057D01*
X391396Y378540D01*
X389370D01*
Y378940D01*
X391222D01*
X391200Y379050D01*
X391165Y379103D01*
X391025Y379333D01*
Y379919D01*
X391165Y380149D01*
X391200Y380202D01*
X391262Y380512D01*
X391247Y380589D01*
X391709Y381275D01*
X391868Y381291D01*
X392399Y381233D01*
X392532Y381035D01*
X392833Y380834D01*
X393189Y380763D01*
X394213D01*
X394568Y380834D01*
X394870Y381035D01*
X395010Y381245D01*
X395433Y381295D01*
X395856Y381245D01*
X395996Y381035D01*
X396298Y380834D01*
X396654Y380763D01*
X397677D01*
X398033Y380834D01*
X398335Y381035D01*
X398536Y381337D01*
X398607Y381693D01*
Y382874D01*
X398536Y383230D01*
X398335Y383531D01*
X398033Y383733D01*
X398014Y383737D01*
Y384675D01*
X398243Y384828D01*
X398550Y385286D01*
X398657Y385827D01*
X398550Y386368D01*
X398243Y386826D01*
X397785Y387132D01*
X397244Y387240D01*
X396703Y387132D01*
X396245Y386826D01*
X395939Y386368D01*
X395831Y385827D01*
X395939Y385286D01*
X396245Y384828D01*
X396395Y384727D01*
Y383752D01*
X396298Y383733D01*
X395996Y383531D01*
X395856Y383322D01*
X395433Y383272D01*
X395010Y383322D01*
X394870Y383531D01*
X394568Y383733D01*
X394213Y383804D01*
X393189D01*
X392833Y383733D01*
X392532Y383531D01*
X392399Y383333D01*
X391868Y383276D01*
X391709Y383292D01*
X391247Y383979D01*
X391262Y384055D01*
X391200Y384365D01*
X391025Y384627D01*
X390762Y384803D01*
X390453Y384864D01*
X388287D01*
X388074Y384822D01*
X387746Y385088D01*
X387479Y385417D01*
X387522Y385630D01*
Y387795D01*
X387460Y388105D01*
X387285Y388368D01*
X387022Y388543D01*
X386713Y388604D01*
X386403Y388543D01*
X386350Y388508D01*
X386120Y388368D01*
X385534D01*
X385303Y388508D01*
X385251Y388543D01*
X384941Y388604D01*
X384631Y388543D01*
X384578Y388508D01*
X384348Y388368D01*
X383762D01*
X383532Y388508D01*
X383479Y388543D01*
X383169Y388604D01*
X382860Y388543D01*
X382807Y388508D01*
X382720Y388455D01*
X382283Y388404D01*
X381847Y388455D01*
X381760Y388508D01*
X381707Y388543D01*
X381398Y388604D01*
X381223Y388570D01*
X381118Y388624D01*
X381044Y388984D01*
X381641Y389740D01*
X382087D01*
X382442Y389810D01*
X382744Y390012D01*
X382945Y390314D01*
X383016Y390669D01*
Y391693D01*
X382945Y392049D01*
X382744Y392350D01*
X382534Y392490D01*
X382485Y392913D01*
X382534Y393336D01*
X382744Y393477D01*
X382932Y393758D01*
X385829D01*
X386009Y393489D01*
X386467Y393183D01*
X387008Y393075D01*
X387549Y393183D01*
X388007Y393489D01*
X388313Y393948D01*
X388421Y394488D01*
X388313Y395029D01*
X388007Y395487D01*
X387549Y395794D01*
X387008Y395901D01*
X386467Y395794D01*
X386009Y395487D01*
X385934Y395376D01*
X382973D01*
X382945Y395513D01*
X382744Y395815D01*
X382442Y396016D01*
X382087Y396087D01*
X380906D01*
X380550Y396016D01*
X380451Y395950D01*
X380353Y395885D01*
X379595Y395815D01*
X379595Y395815D01*
X379394Y396519D01*
Y396726D01*
X379509Y396802D01*
X379816Y397261D01*
X379923Y397801D01*
X379816Y398342D01*
X379509Y398801D01*
X379051Y399107D01*
X378510Y399214D01*
X377969Y399107D01*
X377511Y398801D01*
X377205Y398342D01*
X377097Y397801D01*
X377205Y397261D01*
X377511Y396802D01*
X377449Y396360D01*
X377374Y395999D01*
X377098Y395815D01*
X376897Y395513D01*
X376826Y395158D01*
Y394134D01*
X376897Y393778D01*
X377098Y393477D01*
X377308Y393336D01*
X377358Y392913D01*
X377308Y392490D01*
X377098Y392350D01*
X376897Y392049D01*
X376826Y391693D01*
Y391552D01*
X376236Y391142D01*
X376039Y391088D01*
X375590Y391177D01*
X375050Y391069D01*
X374591Y390763D01*
X374285Y390304D01*
X374178Y389764D01*
X374285Y389223D01*
X374591Y388765D01*
X375050Y388458D01*
X375273Y388414D01*
Y385630D01*
X375316Y385417D01*
X375049Y385088D01*
X374721Y384822D01*
X374508Y384864D01*
X370961D01*
X370497Y385329D01*
Y386417D01*
X370426Y386773D01*
X370224Y387075D01*
X369923Y387276D01*
X369567Y387347D01*
X368543D01*
X368187Y387276D01*
X367886Y387075D01*
X367746Y386865D01*
X367323Y386816D01*
X366900Y386865D01*
X366760Y387075D01*
X366557Y387210D01*
Y397696D01*
X369233Y400372D01*
X380764D01*
X380891Y400182D01*
X381349Y399876D01*
X381890Y399768D01*
X382431Y399876D01*
X382889Y400182D01*
X383195Y400640D01*
X383303Y401181D01*
X383195Y401722D01*
X382889Y402180D01*
X382431Y402487D01*
X381890Y402594D01*
X381349Y402487D01*
X380891Y402180D01*
X380764Y401990D01*
X368898D01*
X368898Y401990D01*
X368588Y401929D01*
X368325Y401753D01*
X368325Y401753D01*
X365176Y398604D01*
X365000Y398341D01*
X364939Y398031D01*
X364939Y398031D01*
Y387319D01*
X364723Y387276D01*
X364421Y387075D01*
X364220Y386773D01*
X364149Y386417D01*
Y385236D01*
X364220Y384880D01*
X364286Y384781D01*
X364421Y384579D01*
Y383925D01*
X364286Y383722D01*
X364220Y383624D01*
X364149Y383268D01*
Y382877D01*
X365591D01*
Y382477D01*
X364149D01*
Y382087D01*
X364220Y381731D01*
X364421Y381429D01*
X364723Y381228D01*
X364827Y381207D01*
X364749Y380420D01*
X362395D01*
Y380044D01*
X361608Y379623D01*
X361564Y379652D01*
X361024Y379759D01*
X360483Y379652D01*
X360024Y379346D01*
X359718Y378887D01*
X359611Y378346D01*
X359718Y377806D01*
X360024Y377347D01*
X360483Y377041D01*
X361024Y376934D01*
X361564Y377041D01*
X361608Y377070D01*
X362395Y376649D01*
Y376273D01*
X365951D01*
Y380369D01*
X365951Y380420D01*
X366072Y381157D01*
X366102D01*
X366458Y381228D01*
X366760Y381429D01*
X366900Y381639D01*
X367323Y381688D01*
X367746Y381639D01*
X367886Y381429D01*
X368187Y381228D01*
X368246Y381216D01*
Y380420D01*
X367120D01*
Y376273D01*
X370676D01*
Y380420D01*
X369864D01*
Y381216D01*
X369923Y381228D01*
X370224Y381429D01*
X370254Y381474D01*
X371084D01*
X371302Y381196D01*
X371568Y380687D01*
X371533Y380512D01*
X371533Y380512D01*
X371595Y380202D01*
X371716Y379626D01*
X371595Y379050D01*
X371573Y378940D01*
X373425D01*
Y378540D01*
X371573D01*
X371595Y378431D01*
X371630Y378378D01*
X371683Y378291D01*
X371734Y377854D01*
X371683Y377418D01*
X371630Y377331D01*
X371595Y377278D01*
X371533Y376969D01*
X371595Y376659D01*
X371630Y376606D01*
X371770Y376376D01*
Y375790D01*
X371630Y375559D01*
X371595Y375506D01*
X371533Y375197D01*
X371595Y374887D01*
X371630Y374834D01*
X371770Y374604D01*
Y374018D01*
X371630Y373788D01*
X371595Y373735D01*
X371533Y373425D01*
X371595Y373115D01*
X371770Y372853D01*
X372033Y372678D01*
X372342Y372616D01*
X374508D01*
X374721Y372658D01*
X375049Y372392D01*
X375316Y372063D01*
X375273Y371850D01*
Y369685D01*
X375335Y369375D01*
X375510Y369113D01*
X375773Y368937D01*
X376083Y368876D01*
X376258Y368911D01*
X376767Y368644D01*
X377045Y368426D01*
Y367815D01*
X377045Y367815D01*
X377107Y367505D01*
X377282Y367243D01*
X381317Y363207D01*
X381317Y363207D01*
X381580Y363032D01*
X381890Y362970D01*
X398425D01*
X398425Y362970D01*
X398735Y363032D01*
X398997Y363207D01*
X404115Y368325D01*
X404291Y368588D01*
X404353Y368898D01*
X404353Y368898D01*
Y378559D01*
X405848Y380055D01*
X405848Y380055D01*
X406023Y380317D01*
X406085Y380627D01*
Y382397D01*
X406143Y382409D01*
X406445Y382610D01*
X407105Y382510D01*
X407157Y382382D01*
X407258Y382013D01*
X407039Y381686D01*
X406962Y381299D01*
X407039Y380913D01*
X407258Y380585D01*
X407459Y380451D01*
X407529Y380020D01*
X407459Y379589D01*
X407258Y379454D01*
X407039Y379127D01*
X407002Y378940D01*
X409350D01*
Y378540D01*
X407002D01*
X407039Y378354D01*
X407258Y378026D01*
X407459Y377892D01*
X407529Y377461D01*
X407459Y377029D01*
X407258Y376895D01*
X407039Y376568D01*
X407002Y376381D01*
X409350D01*
Y375981D01*
X407002D01*
X407039Y375795D01*
X407258Y375467D01*
X407459Y375333D01*
X407529Y374902D01*
X407459Y374470D01*
X407258Y374336D01*
X407039Y374008D01*
X407002Y373822D01*
X409350D01*
Y373422D01*
X407002D01*
X407039Y373236D01*
X407258Y372908D01*
X407459Y372774D01*
X407529Y372342D01*
X407459Y371911D01*
X407258Y371777D01*
X407039Y371449D01*
X406962Y371063D01*
X407039Y370676D01*
X407258Y370349D01*
X407586Y370130D01*
X407972Y370053D01*
X408797D01*
Y365241D01*
X408739Y365229D01*
X408437Y365027D01*
X408297Y364818D01*
X407874Y364768D01*
X407451Y364818D01*
X407311Y365027D01*
X407009Y365229D01*
X406653Y365300D01*
X406342D01*
Y363779D01*
X406142D01*
Y363580D01*
X404700D01*
Y363189D01*
X404771Y362833D01*
X404837Y362734D01*
X404879Y362671D01*
X404779Y362381D01*
X404185Y361921D01*
X404099Y361926D01*
X404084Y361935D01*
X403543Y362043D01*
X403003Y361935D01*
X402544Y361629D01*
X402238Y361171D01*
X402130Y360630D01*
X402238Y360089D01*
X402544Y359631D01*
X403003Y359325D01*
X403543Y359217D01*
X404084Y359325D01*
X404099Y359334D01*
X404973Y359382D01*
X405274Y359180D01*
X405630Y359110D01*
X406653D01*
X407009Y359180D01*
X407311Y359382D01*
X407451Y359592D01*
X407874Y359641D01*
X408297Y359592D01*
X408437Y359382D01*
X408739Y359180D01*
X409094Y359110D01*
X410118D01*
X410474Y359180D01*
X410776Y359382D01*
X410977Y359684D01*
X411048Y360039D01*
Y361221D01*
X410977Y361576D01*
X410878Y361725D01*
X410776Y361878D01*
Y362531D01*
X410878Y362684D01*
X410977Y362833D01*
X411048Y363189D01*
Y364370D01*
X410977Y364726D01*
X410776Y365027D01*
X410474Y365229D01*
X410416Y365241D01*
Y369322D01*
X410609Y369402D01*
X411392Y368874D01*
Y366634D01*
X411469Y366247D01*
X411687Y365920D01*
X412015Y365701D01*
X412402Y365624D01*
X412788Y365701D01*
X413116Y365920D01*
X413250Y366121D01*
X413681Y366191D01*
X414112Y366121D01*
X414247Y365920D01*
X414574Y365701D01*
X414961Y365624D01*
X415347Y365701D01*
X415675Y365920D01*
X416483Y365783D01*
X416710Y365626D01*
Y356339D01*
X409639Y349268D01*
X409463Y349005D01*
X409402Y348695D01*
X409402Y348695D01*
Y329900D01*
X409402Y329900D01*
X409463Y329590D01*
X409639Y329327D01*
X417098Y321869D01*
X417360Y321693D01*
X417670Y321632D01*
X419858D01*
Y321161D01*
X419927Y320813D01*
X420124Y320518D01*
X420420Y320321D01*
X420768Y320252D01*
X421116Y320321D01*
X421236Y320401D01*
X421423Y320518D01*
X422081D01*
X422268Y320401D01*
X422388Y320321D01*
X422565Y320286D01*
X422577Y320274D01*
X422843Y319759D01*
X422902Y319482D01*
X422881Y319450D01*
X422811Y319094D01*
Y318704D01*
X424252D01*
Y318504D01*
X424452D01*
Y316984D01*
X424764D01*
X425119Y317055D01*
X425421Y317256D01*
X425561Y317466D01*
X425984Y317515D01*
X426407Y317466D01*
X426547Y317256D01*
X426849Y317055D01*
X427205Y316984D01*
X428228D01*
X428584Y317055D01*
X428886Y317256D01*
X429760Y317208D01*
X429774Y317198D01*
X430315Y317091D01*
X430856Y317198D01*
X431314Y317505D01*
X431620Y317963D01*
X431728Y318504D01*
X431620Y319045D01*
X431314Y319503D01*
X430856Y319809D01*
X430315Y319917D01*
X429774Y319809D01*
X429746Y319816D01*
X429384Y320270D01*
X429315Y320564D01*
X429482Y320813D01*
X429551Y321161D01*
Y321533D01*
X431059D01*
X431186Y321343D01*
X431644Y321037D01*
X432185Y320930D01*
X432726Y321037D01*
X433184Y321343D01*
X433490Y321802D01*
X433598Y322342D01*
X433490Y322883D01*
X433184Y323342D01*
X432726Y323648D01*
X432185Y323756D01*
X431644Y323648D01*
X431186Y323342D01*
X431059Y323152D01*
X429812D01*
X429516Y323882D01*
X429814Y324638D01*
X430243Y324726D01*
X430420Y324738D01*
X430709Y324681D01*
X433071D01*
X433419Y324750D01*
X433465Y324781D01*
X434307D01*
X434434Y324591D01*
X434892Y324285D01*
X435433Y324178D01*
X435974Y324285D01*
X436432Y324591D01*
X436738Y325050D01*
X436846Y325590D01*
X437402Y326146D01*
X437942Y326254D01*
X438189Y326418D01*
X438885Y326148D01*
X438976Y326070D01*
X438976Y285226D01*
X412334D01*
Y269679D01*
X438976D01*
Y268519D01*
X355473D01*
X355317Y269307D01*
X355552Y269404D01*
X357072Y270336D01*
X358428Y271494D01*
X359586Y272849D01*
X360517Y274369D01*
X361199Y276017D01*
X361616Y277750D01*
X361755Y279528D01*
X361616Y281305D01*
X361199Y283038D01*
X360517Y284686D01*
X359586Y286206D01*
X358428Y287562D01*
X357072Y288719D01*
X355552Y289651D01*
X353905Y290333D01*
X352171Y290750D01*
X350394Y290889D01*
X348616Y290750D01*
X346883Y290333D01*
X345236Y289651D01*
X343715Y288719D01*
X342360Y287562D01*
X341202Y286206D01*
X340270Y284686D01*
X339588Y283038D01*
X339386Y282195D01*
X338598Y282288D01*
X338598Y473618D01*
X339385Y473711D01*
X339588Y472867D01*
X340270Y471220D01*
X341202Y469700D01*
X342360Y468344D01*
X343715Y467186D01*
X345236Y466255D01*
X346883Y465572D01*
X348616Y465156D01*
X350394Y465016D01*
X352171Y465156D01*
X353905Y465572D01*
X355552Y466255D01*
X357072Y467186D01*
X358428Y468344D01*
X359586Y469700D01*
X360517Y471220D01*
X361199Y472867D01*
X361616Y474601D01*
X361755Y476378D01*
X361616Y478155D01*
X361199Y479889D01*
X360517Y481536D01*
X359586Y483056D01*
X358428Y484412D01*
X357072Y485570D01*
X355552Y486501D01*
X355317Y486599D01*
X355473Y487386D01*
X438976D01*
X438976Y448073D01*
D02*
G37*
G36*
X438885Y421030D02*
X438976Y420952D01*
X438976Y332985D01*
X438885Y332907D01*
X438189Y332637D01*
X437942Y332802D01*
X437402Y332909D01*
X436846Y333465D01*
X436738Y334005D01*
X436432Y334464D01*
X435974Y334770D01*
X435433Y334878D01*
X434892Y334770D01*
X434434Y334464D01*
X434307Y334274D01*
X433465D01*
X433419Y334305D01*
X433071Y334374D01*
X430709D01*
X430420Y334317D01*
X430243Y334329D01*
X429814Y334418D01*
X429516Y335174D01*
X429812Y335903D01*
X431059D01*
X431186Y335714D01*
X431644Y335407D01*
X432185Y335300D01*
X432726Y335407D01*
X433184Y335714D01*
X433490Y336172D01*
X433598Y336713D01*
X433490Y337253D01*
X433184Y337712D01*
X432726Y338018D01*
X432185Y338126D01*
X431644Y338018D01*
X431186Y337712D01*
X431059Y337522D01*
X429551D01*
Y337894D01*
X429482Y338242D01*
X429285Y338537D01*
X428990Y338734D01*
X428642Y338803D01*
X428294Y338734D01*
X427965Y339410D01*
X427897Y339593D01*
X427979Y339715D01*
X428086Y340256D01*
X427979Y340797D01*
X427672Y341255D01*
X427214Y341561D01*
X426673Y341669D01*
X426132Y341561D01*
X425674Y341255D01*
X425368Y340797D01*
X425260Y340256D01*
X425368Y339715D01*
X425450Y339593D01*
X425382Y339410D01*
X425053Y338734D01*
X424705Y338803D01*
X424357Y338734D01*
X424333Y338718D01*
X423546Y339074D01*
Y340905D01*
X436793Y354152D01*
X436968Y354415D01*
X437030Y354724D01*
X437030Y354724D01*
Y374803D01*
X437030Y374803D01*
X436968Y375113D01*
X436793Y375375D01*
X435415Y376753D01*
X435152Y376929D01*
X434842Y376990D01*
X434842Y376990D01*
X433481D01*
X433199Y377461D01*
X433481Y377931D01*
X434208D01*
X434208Y377931D01*
X434518Y377993D01*
X434781Y378168D01*
X437580Y380967D01*
X437755Y381230D01*
X437817Y381540D01*
Y394488D01*
X437755Y394798D01*
X437580Y395060D01*
X437580Y395060D01*
X421577Y411064D01*
Y414863D01*
X422364Y415219D01*
X422388Y415203D01*
X422565Y415168D01*
X422577Y415156D01*
X422843Y414641D01*
X422902Y414364D01*
X422881Y414332D01*
X422811Y413976D01*
Y413586D01*
X424252D01*
Y413386D01*
X424452D01*
Y411866D01*
X424764D01*
X425119Y411936D01*
X425421Y412138D01*
X425561Y412348D01*
X425984Y412397D01*
X426407Y412348D01*
X426547Y412138D01*
X426849Y411936D01*
X427205Y411866D01*
X428228D01*
X428584Y411936D01*
X428886Y412138D01*
X429760Y412090D01*
X429774Y412080D01*
X430315Y411973D01*
X430856Y412080D01*
X431314Y412387D01*
X431620Y412845D01*
X431728Y413386D01*
X431620Y413927D01*
X431314Y414385D01*
X430856Y414691D01*
X430315Y414799D01*
X429774Y414691D01*
X429746Y414698D01*
X429384Y415152D01*
X429315Y415446D01*
X429482Y415695D01*
X429551Y416043D01*
Y416415D01*
X431059D01*
X431186Y416225D01*
X431644Y415919D01*
X432185Y415811D01*
X432726Y415919D01*
X433184Y416225D01*
X433490Y416684D01*
X433598Y417224D01*
X433490Y417765D01*
X433184Y418223D01*
X432726Y418530D01*
X432185Y418637D01*
X431644Y418530D01*
X431186Y418223D01*
X431059Y418034D01*
X429812D01*
X429516Y418763D01*
X429814Y419519D01*
X430243Y419608D01*
X430420Y419620D01*
X430709Y419563D01*
X433071D01*
X433419Y419632D01*
X433465Y419663D01*
X434307D01*
X434434Y419473D01*
X434892Y419167D01*
X435433Y419060D01*
X435974Y419167D01*
X436432Y419473D01*
X436738Y419932D01*
X436846Y420472D01*
X437402Y421028D01*
X437942Y421136D01*
X438189Y421300D01*
X438885Y421030D01*
D02*
G37*
G36*
X658252Y268519D02*
X650749D01*
X650592Y269307D01*
X650827Y269404D01*
X652348Y270336D01*
X653703Y271494D01*
X654861Y272849D01*
X655793Y274369D01*
X656475Y276017D01*
X656891Y277750D01*
X657031Y279528D01*
X656891Y281305D01*
X656475Y283038D01*
X655793Y284686D01*
X654861Y286206D01*
X653703Y287562D01*
X652348Y288719D01*
X650827Y289651D01*
X649180Y290333D01*
X647447Y290750D01*
X645669Y290889D01*
X643892Y290750D01*
X642158Y290333D01*
X640511Y289651D01*
X638991Y288719D01*
X637635Y287562D01*
X636477Y286206D01*
X635546Y284686D01*
X634864Y283038D01*
X634447Y281305D01*
X634307Y279528D01*
X634447Y277750D01*
X634864Y276017D01*
X635546Y274369D01*
X636477Y272849D01*
X637635Y271494D01*
X638991Y270336D01*
X640511Y269404D01*
X640746Y269307D01*
X640590Y268519D01*
X442520D01*
X442520Y487386D01*
X640590D01*
X640746Y486599D01*
X640511Y486501D01*
X638991Y485570D01*
X637635Y484412D01*
X636477Y483056D01*
X635546Y481536D01*
X634864Y479889D01*
X634447Y478155D01*
X634307Y476378D01*
X634447Y474601D01*
X634864Y472867D01*
X635546Y471220D01*
X636477Y469700D01*
X637635Y468344D01*
X638991Y467186D01*
X640511Y466255D01*
X642158Y465572D01*
X643892Y465156D01*
X645669Y465016D01*
X647447Y465156D01*
X649180Y465572D01*
X650827Y466255D01*
X652348Y467186D01*
X653703Y468344D01*
X654861Y469700D01*
X655793Y471220D01*
X656475Y472867D01*
X656891Y474601D01*
X657031Y476378D01*
X656891Y478155D01*
X656475Y479889D01*
X655793Y481536D01*
X654861Y483056D01*
X653703Y484412D01*
X652348Y485570D01*
X650827Y486501D01*
X650592Y486599D01*
X650749Y487386D01*
X658252D01*
Y268519D01*
D02*
G37*
%LPC*%
G36*
X400617Y464593D02*
X396824D01*
Y454344D01*
X397214D01*
X397252Y454303D01*
X397563Y453557D01*
X397415Y453336D01*
X397307Y452795D01*
X397415Y452255D01*
X397721Y451796D01*
X398180Y451490D01*
X398721Y451382D01*
X399261Y451490D01*
X399720Y451796D01*
X400026Y452255D01*
X400133Y452795D01*
X400026Y453336D01*
X399878Y453557D01*
X400189Y454303D01*
X400227Y454344D01*
X400617D01*
Y464593D01*
D02*
G37*
G36*
X395617D02*
X391824D01*
Y454344D01*
X392214D01*
X392252Y454303D01*
X392563Y453557D01*
X392415Y453336D01*
X392307Y452795D01*
X392415Y452255D01*
X392721Y451796D01*
X393180Y451490D01*
X393721Y451382D01*
X394261Y451490D01*
X394720Y451796D01*
X395026Y452255D01*
X395133Y452795D01*
X395026Y453336D01*
X394878Y453557D01*
X395189Y454303D01*
X395227Y454344D01*
X395617D01*
Y464593D01*
D02*
G37*
G36*
X390616D02*
X386824D01*
Y454344D01*
X387214D01*
X387252Y454303D01*
X387562Y453557D01*
X387415Y453336D01*
X387308Y452795D01*
X387415Y452255D01*
X387721Y451796D01*
X388180Y451490D01*
X388720Y451382D01*
X389261Y451490D01*
X389720Y451796D01*
X390026Y452255D01*
X390133Y452795D01*
X390026Y453336D01*
X389878Y453557D01*
X390189Y454303D01*
X390227Y454344D01*
X390616D01*
Y464593D01*
D02*
G37*
G36*
X385616D02*
X381824D01*
Y454344D01*
X382214D01*
X382252Y454303D01*
X382562Y453557D01*
X382415Y453336D01*
X382308Y452795D01*
X382415Y452255D01*
X382721Y451796D01*
X383180Y451490D01*
X383720Y451382D01*
X384261Y451490D01*
X384720Y451796D01*
X385026Y452255D01*
X385133Y452795D01*
X385026Y453336D01*
X384878Y453557D01*
X385189Y454303D01*
X385227Y454344D01*
X385616D01*
Y464593D01*
D02*
G37*
G36*
X380616D02*
X376824D01*
Y454344D01*
X377214D01*
X377252Y454303D01*
X377562Y453557D01*
X377415Y453336D01*
X377308Y452795D01*
X377415Y452255D01*
X377721Y451796D01*
X378180Y451490D01*
X378720Y451382D01*
X379261Y451490D01*
X379720Y451796D01*
X380026Y452255D01*
X380133Y452795D01*
X380026Y453336D01*
X379878Y453557D01*
X380189Y454303D01*
X380227Y454344D01*
X380616D01*
Y464593D01*
D02*
G37*
G36*
X375617D02*
X371824D01*
Y454344D01*
X372214D01*
X372252Y454303D01*
X372563Y453557D01*
X372415Y453336D01*
X372307Y452795D01*
X372415Y452255D01*
X372721Y451796D01*
X373180Y451490D01*
X373721Y451382D01*
X374261Y451490D01*
X374720Y451796D01*
X375026Y452255D01*
X375133Y452795D01*
X375026Y453336D01*
X374878Y453557D01*
X375189Y454303D01*
X375227Y454344D01*
X375617D01*
Y464593D01*
D02*
G37*
G36*
X400617Y449593D02*
X398920D01*
Y444668D01*
X400617D01*
Y449593D01*
D02*
G37*
G36*
X395617D02*
X393920D01*
Y444668D01*
X395617D01*
Y449593D01*
D02*
G37*
G36*
X390616D02*
X388920D01*
Y444668D01*
X390616D01*
Y449593D01*
D02*
G37*
G36*
X385616D02*
X383921D01*
Y444668D01*
X385616D01*
Y449593D01*
D02*
G37*
G36*
X380616D02*
X378921D01*
Y444668D01*
X380616D01*
Y449593D01*
D02*
G37*
G36*
X375617D02*
X373920D01*
Y444668D01*
X375617D01*
Y449593D01*
D02*
G37*
G36*
X398520D02*
X396824D01*
Y444668D01*
X398520D01*
Y449593D01*
D02*
G37*
G36*
X393520D02*
X391824D01*
Y444668D01*
X393520D01*
Y449593D01*
D02*
G37*
G36*
X388521D02*
X386824D01*
Y444668D01*
X388521D01*
Y449593D01*
D02*
G37*
G36*
X383521D02*
X381824D01*
Y444668D01*
X383521D01*
Y449593D01*
D02*
G37*
G36*
X378520D02*
X376824D01*
Y444668D01*
X378520D01*
Y449593D01*
D02*
G37*
G36*
X373520D02*
X371824D01*
Y444668D01*
X373520D01*
Y449593D01*
D02*
G37*
G36*
X400617Y444269D02*
X398920D01*
Y439344D01*
X400617D01*
Y444269D01*
D02*
G37*
G36*
X398520D02*
X396824D01*
Y439344D01*
X398520D01*
Y444269D01*
D02*
G37*
G36*
X395617D02*
X393920D01*
Y439344D01*
X395617D01*
Y444269D01*
D02*
G37*
G36*
X393520D02*
X391824D01*
Y439344D01*
X393520D01*
Y444269D01*
D02*
G37*
G36*
X390616D02*
X388920D01*
Y439344D01*
X390616D01*
Y444269D01*
D02*
G37*
G36*
X388521D02*
X386824D01*
Y439344D01*
X388521D01*
Y444269D01*
D02*
G37*
G36*
X385616D02*
X383921D01*
Y439344D01*
X385616D01*
Y444269D01*
D02*
G37*
G36*
X383521D02*
X381824D01*
Y439344D01*
X383521D01*
Y444269D01*
D02*
G37*
G36*
X380616D02*
X378921D01*
Y439344D01*
X380616D01*
Y444269D01*
D02*
G37*
G36*
X378520D02*
X376824D01*
Y439344D01*
X378520D01*
Y444269D01*
D02*
G37*
G36*
X375617D02*
X373920D01*
Y439344D01*
X375617D01*
Y444269D01*
D02*
G37*
G36*
X373520D02*
X371824D01*
Y439344D01*
X373520D01*
Y444269D01*
D02*
G37*
G36*
X343901Y437292D02*
Y434137D01*
X347056D01*
X346967Y434812D01*
X346629Y435628D01*
X346092Y436328D01*
X345392Y436866D01*
X344576Y437204D01*
X343901Y437292D01*
D02*
G37*
G36*
X343501D02*
X342826Y437204D01*
X342010Y436866D01*
X341310Y436328D01*
X340772Y435628D01*
X340434Y434812D01*
X340345Y434137D01*
X343501D01*
Y437292D01*
D02*
G37*
G36*
X347056Y433737D02*
X343901D01*
Y430582D01*
X344576Y430671D01*
X345392Y431008D01*
X346092Y431546D01*
X346629Y432246D01*
X346967Y433062D01*
X347056Y433737D01*
D02*
G37*
G36*
X343501D02*
X340345D01*
X340434Y433062D01*
X340772Y432246D01*
X341310Y431546D01*
X342010Y431008D01*
X342826Y430671D01*
X343501Y430582D01*
Y433737D01*
D02*
G37*
G36*
X343701Y427319D02*
X342826Y427204D01*
X342010Y426866D01*
X341310Y426328D01*
X340772Y425628D01*
X340434Y424812D01*
X340319Y423937D01*
X340434Y423062D01*
X340772Y422246D01*
X341310Y421546D01*
X342010Y421008D01*
X342826Y420671D01*
X343701Y420555D01*
X344576Y420671D01*
X345392Y421008D01*
X346092Y421546D01*
X346629Y422246D01*
X346967Y423062D01*
X347082Y423937D01*
X346967Y424812D01*
X346629Y425628D01*
X346092Y426328D01*
X345392Y426866D01*
X344576Y427204D01*
X343701Y427319D01*
D02*
G37*
G36*
X368898Y424185D02*
X368141Y424085D01*
X367435Y423793D01*
X366829Y423328D01*
X366365Y422722D01*
X366072Y422017D01*
X365973Y421260D01*
X366072Y420503D01*
X366365Y419797D01*
X366829Y419192D01*
X367435Y418727D01*
X368141Y418434D01*
X368898Y418335D01*
X369655Y418434D01*
X370360Y418727D01*
X370966Y419192D01*
X371431Y419797D01*
X371723Y420503D01*
X371823Y421260D01*
X371723Y422017D01*
X371431Y422722D01*
X370966Y423328D01*
X370360Y423793D01*
X369655Y424085D01*
X368898Y424185D01*
D02*
G37*
G36*
X369098Y416285D02*
Y413586D01*
X371796D01*
X371723Y414143D01*
X371431Y414848D01*
X370966Y415454D01*
X370360Y415919D01*
X369655Y416211D01*
X369098Y416285D01*
D02*
G37*
G36*
X368698D02*
X368141Y416211D01*
X367435Y415919D01*
X366829Y415454D01*
X366365Y414848D01*
X366072Y414143D01*
X365999Y413586D01*
X368698D01*
Y416285D01*
D02*
G37*
G36*
X371796Y413186D02*
X369098D01*
Y410487D01*
X369655Y410561D01*
X370360Y410853D01*
X370966Y411317D01*
X371431Y411923D01*
X371723Y412629D01*
X371796Y413186D01*
D02*
G37*
G36*
X368698D02*
X365999D01*
X366072Y412629D01*
X366365Y411923D01*
X366829Y411317D01*
X367435Y410853D01*
X368141Y410561D01*
X368698Y410487D01*
Y413186D01*
D02*
G37*
G36*
X347054Y407290D02*
X343901D01*
Y404137D01*
X347054D01*
Y407290D01*
D02*
G37*
G36*
X343501D02*
X340348D01*
Y404137D01*
X343501D01*
Y407290D01*
D02*
G37*
G36*
X347054Y403737D02*
X343901D01*
Y400584D01*
X347054D01*
Y403737D01*
D02*
G37*
G36*
X343501D02*
X340348D01*
Y400584D01*
X343501D01*
Y403737D01*
D02*
G37*
G36*
X414209Y395221D02*
X413898D01*
X413542Y395150D01*
X413240Y394949D01*
X413039Y394647D01*
X412968Y394291D01*
Y393901D01*
X414209D01*
Y395221D01*
D02*
G37*
G36*
X343901Y395954D02*
Y392798D01*
X347056D01*
X346967Y393474D01*
X346629Y394289D01*
X346092Y394990D01*
X345392Y395527D01*
X344576Y395865D01*
X343901Y395954D01*
D02*
G37*
G36*
X343501D02*
X342826Y395865D01*
X342010Y395527D01*
X341310Y394990D01*
X340772Y394289D01*
X340434Y393474D01*
X340345Y392798D01*
X343501D01*
Y395954D01*
D02*
G37*
G36*
X347056Y392398D02*
X343901D01*
Y389243D01*
X344576Y389332D01*
X345392Y389670D01*
X346092Y390207D01*
X346629Y390908D01*
X346967Y391723D01*
X347056Y392398D01*
D02*
G37*
G36*
X343501D02*
X340345D01*
X340434Y391723D01*
X340772Y390908D01*
X341310Y390207D01*
X342010Y389670D01*
X342826Y389332D01*
X343501Y389243D01*
Y392398D01*
D02*
G37*
G36*
X343701Y385980D02*
X342826Y385865D01*
X342010Y385527D01*
X341310Y384990D01*
X340772Y384289D01*
X340434Y383474D01*
X340319Y382598D01*
X340434Y381723D01*
X340772Y380908D01*
X341310Y380207D01*
X342010Y379670D01*
X342826Y379332D01*
X343701Y379217D01*
X344576Y379332D01*
X345392Y379670D01*
X346092Y380207D01*
X346629Y380908D01*
X346967Y381723D01*
X347082Y382598D01*
X346967Y383474D01*
X346629Y384289D01*
X346092Y384990D01*
X345392Y385527D01*
X344576Y385865D01*
X343701Y385980D01*
D02*
G37*
G36*
X397677Y378686D02*
X397365D01*
Y377365D01*
X398607D01*
Y377756D01*
X398536Y378112D01*
X398335Y378413D01*
X398033Y378615D01*
X397677Y378686D01*
D02*
G37*
G36*
X398607Y376965D02*
X397365D01*
Y375645D01*
X397677D01*
X398033Y375716D01*
X398335Y375917D01*
X398536Y376219D01*
X398607Y376575D01*
Y376965D01*
D02*
G37*
G36*
X343701Y417319D02*
X342826Y417204D01*
X342010Y416866D01*
X341310Y416328D01*
X340772Y415628D01*
X340434Y414812D01*
X340319Y413937D01*
X340434Y413062D01*
X340772Y412246D01*
X341310Y411546D01*
X342010Y411008D01*
X342826Y410671D01*
X343701Y410555D01*
X344576Y410671D01*
X345392Y411008D01*
X346092Y411546D01*
X346629Y412246D01*
X346745Y412526D01*
X350163D01*
Y374010D01*
X346745D01*
X346629Y374289D01*
X346092Y374990D01*
X345392Y375527D01*
X344576Y375865D01*
X343701Y375980D01*
X342826Y375865D01*
X342010Y375527D01*
X341310Y374990D01*
X340772Y374289D01*
X340434Y373474D01*
X340319Y372598D01*
X340434Y371723D01*
X340772Y370908D01*
X341310Y370207D01*
X342010Y369670D01*
X342826Y369332D01*
X343701Y369217D01*
X344576Y369332D01*
X345392Y369670D01*
X346092Y370207D01*
X346629Y370908D01*
X346745Y371187D01*
X350163D01*
Y345276D01*
X350271Y344736D01*
X350577Y344278D01*
X351035Y343972D01*
X351575Y343864D01*
X354738D01*
Y339150D01*
X354579Y339043D01*
X354377Y338742D01*
X354307Y338386D01*
Y337205D01*
X354377Y336849D01*
X354398Y336817D01*
X354226Y336030D01*
X354226D01*
Y332080D01*
X355763D01*
X357068Y330776D01*
X357395Y330557D01*
X357782Y330480D01*
X361116D01*
X361502Y330557D01*
X361830Y330776D01*
X363135Y332080D01*
X364672D01*
Y336030D01*
X361719D01*
X361706Y336030D01*
Y336030D01*
X360931Y336030D01*
X360620Y336688D01*
X360562Y336817D01*
X360583Y336849D01*
X360654Y337205D01*
Y337595D01*
X359213D01*
Y337795D01*
X359013D01*
Y339316D01*
X358701D01*
X358345Y339245D01*
X358043Y339043D01*
X357903Y338833D01*
X357480Y338784D01*
X357057Y338833D01*
X356917Y339043D01*
X356758Y339150D01*
Y343864D01*
X366343D01*
X366365Y343813D01*
X366829Y343207D01*
X367435Y342742D01*
X368141Y342450D01*
X368898Y342351D01*
X369655Y342450D01*
X370360Y342742D01*
X370966Y343207D01*
X371431Y343813D01*
X371723Y344518D01*
X371823Y345276D01*
X371723Y346033D01*
X371431Y346738D01*
X370966Y347344D01*
X370360Y347809D01*
X369655Y348101D01*
X368898Y348201D01*
X368141Y348101D01*
X367435Y347809D01*
X366829Y347344D01*
X366365Y346738D01*
X366343Y346687D01*
X355748D01*
X355630Y346663D01*
X355512Y346687D01*
X352986D01*
Y372598D01*
Y413937D01*
X352879Y414477D01*
X352573Y414935D01*
X352115Y415241D01*
X351575Y415348D01*
X346745D01*
X346629Y415628D01*
X346092Y416328D01*
X345392Y416866D01*
X344576Y417204D01*
X343701Y417319D01*
D02*
G37*
G36*
X405942Y365300D02*
X405630D01*
X405274Y365229D01*
X404973Y365027D01*
X404771Y364726D01*
X404700Y364370D01*
Y363980D01*
X405942D01*
Y365300D01*
D02*
G37*
G36*
X347054Y365951D02*
X343901D01*
Y362798D01*
X347054D01*
Y365951D01*
D02*
G37*
G36*
X343501D02*
X340348D01*
Y362798D01*
X343501D01*
Y365951D01*
D02*
G37*
G36*
X386102Y361363D02*
X385079D01*
X384723Y361292D01*
X384421Y361090D01*
X384281Y360881D01*
X383858Y360831D01*
X383435Y360881D01*
X383295Y361090D01*
X382994Y361292D01*
X382638Y361363D01*
X381614D01*
X381258Y361292D01*
X380957Y361090D01*
X380083Y361138D01*
X380068Y361148D01*
X379528Y361256D01*
X378987Y361148D01*
X378528Y360842D01*
X378222Y360383D01*
X378115Y359842D01*
X378222Y359302D01*
X378528Y358843D01*
X378987Y358537D01*
X379528Y358430D01*
X380068Y358537D01*
X380083Y358547D01*
X380610Y358576D01*
X380819Y358393D01*
X380808Y357364D01*
X380602Y357192D01*
X380101Y357247D01*
X379923Y357366D01*
X379382Y357474D01*
X378841Y357366D01*
X378383Y357060D01*
X378077Y356602D01*
X377969Y356061D01*
X378077Y355520D01*
X378383Y355062D01*
X378841Y354755D01*
X379382Y354648D01*
X379923Y354755D01*
X379988Y354799D01*
X380097Y354822D01*
X380957Y354658D01*
X381258Y354456D01*
X381614Y354385D01*
X382638D01*
X382994Y354456D01*
X383295Y354658D01*
X383435Y354867D01*
X383858Y354917D01*
X384281Y354867D01*
X384421Y354658D01*
X384723Y354456D01*
X385079Y354385D01*
X386102D01*
X386458Y354456D01*
X386760Y354658D01*
X386961Y354959D01*
X386988Y355096D01*
X395331D01*
X395458Y354906D01*
X395916Y354600D01*
X396457Y354492D01*
X396997Y354600D01*
X397456Y354906D01*
X397762Y355365D01*
X397870Y355906D01*
X397762Y356446D01*
X397456Y356905D01*
X396997Y357211D01*
X396457Y357318D01*
X395916Y357211D01*
X395458Y356905D01*
X395331Y356715D01*
X386988D01*
X386961Y356852D01*
X386760Y357153D01*
X386458Y357355D01*
X386102Y357426D01*
X385079D01*
X384723Y357355D01*
X384421Y357153D01*
X384281Y356944D01*
X383858Y356894D01*
X383435Y356944D01*
X383295Y357153D01*
X382994Y357355D01*
X382935Y357367D01*
Y358382D01*
X382994Y358393D01*
X383295Y358595D01*
X383435Y358804D01*
X383858Y358854D01*
X384281Y358804D01*
X384421Y358595D01*
X384723Y358393D01*
X385079Y358322D01*
X386102D01*
X386458Y358393D01*
X386760Y358595D01*
X386961Y358896D01*
X386988Y359033D01*
X390606D01*
X390733Y358843D01*
X391192Y358537D01*
X391732Y358430D01*
X392273Y358537D01*
X392731Y358843D01*
X393038Y359302D01*
X393145Y359842D01*
X393038Y360383D01*
X392731Y360842D01*
X392273Y361148D01*
X391732Y361256D01*
X391192Y361148D01*
X390733Y360842D01*
X390606Y360652D01*
X386988D01*
X386961Y360789D01*
X386760Y361090D01*
X386458Y361292D01*
X386102Y361363D01*
D02*
G37*
G36*
X347054Y362398D02*
X343901D01*
Y359246D01*
X347054D01*
Y362398D01*
D02*
G37*
G36*
X343501D02*
X340348D01*
Y359246D01*
X343501D01*
Y362398D01*
D02*
G37*
G36*
X369098Y356048D02*
Y353350D01*
X371796D01*
X371723Y353907D01*
X371431Y354612D01*
X370966Y355218D01*
X370360Y355683D01*
X369655Y355975D01*
X369098Y356048D01*
D02*
G37*
G36*
X368698D02*
X368141Y355975D01*
X367435Y355683D01*
X366829Y355218D01*
X366365Y354612D01*
X366072Y353907D01*
X365999Y353350D01*
X368698D01*
Y356048D01*
D02*
G37*
G36*
X371796Y352950D02*
X369098D01*
Y350251D01*
X369655Y350324D01*
X370360Y350617D01*
X370966Y351081D01*
X371431Y351687D01*
X371723Y352393D01*
X371796Y352950D01*
D02*
G37*
G36*
X368698D02*
X365999D01*
X366072Y352393D01*
X366365Y351687D01*
X366829Y351081D01*
X367435Y350617D01*
X368141Y350324D01*
X368698Y350251D01*
Y352950D01*
D02*
G37*
G36*
X359724Y339316D02*
X359413D01*
Y337995D01*
X360654D01*
Y338386D01*
X360583Y338742D01*
X360382Y339043D01*
X360080Y339245D01*
X359724Y339316D01*
D02*
G37*
G36*
X378740Y329740D02*
X378199Y329632D01*
X377741Y329326D01*
X377435Y328868D01*
X377327Y328327D01*
X377401Y327953D01*
X377027Y327474D01*
X376812Y327309D01*
X376732Y327342D01*
X376235D01*
X375984Y327238D01*
X375733Y327342D01*
X375578D01*
X375423Y327448D01*
X375022Y327961D01*
X374984Y328070D01*
X375035Y328327D01*
X374927Y328868D01*
X374621Y329326D01*
X374163Y329632D01*
X373622Y329740D01*
X373081Y329632D01*
X372623Y329326D01*
X372317Y328868D01*
X372209Y328327D01*
X372317Y327786D01*
X372623Y327328D01*
X372813Y327201D01*
Y326060D01*
X372334D01*
Y322760D01*
X372911D01*
Y320105D01*
X371824D01*
Y309856D01*
X375617D01*
Y320105D01*
X374530D01*
Y321107D01*
X375236Y321477D01*
X375733D01*
X375984Y321581D01*
X376235Y321477D01*
X376732D01*
X376812Y321510D01*
X376898D01*
X377124Y321603D01*
X377911Y321077D01*
Y320105D01*
X376824D01*
Y309856D01*
X380616D01*
Y320105D01*
X379530D01*
Y322760D01*
X379634D01*
Y326060D01*
X379549D01*
Y327201D01*
X379739Y327328D01*
X380046Y327786D01*
X380153Y328327D01*
X380046Y328868D01*
X379739Y329326D01*
X379281Y329632D01*
X378740Y329740D01*
D02*
G37*
G36*
X364672Y326187D02*
X361706D01*
Y322238D01*
X361706D01*
X361676Y321463D01*
X361175D01*
Y317120D01*
X361175D01*
X361049Y316392D01*
X360630Y316343D01*
X360211Y316392D01*
X360085Y317120D01*
X360085Y317465D01*
Y319091D01*
X358268D01*
X356450D01*
Y317120D01*
X357193D01*
X357548Y316332D01*
X357527Y316301D01*
X357456Y315945D01*
Y315554D01*
X358898D01*
Y315354D01*
X359098D01*
Y313834D01*
X359409D01*
X359765Y313905D01*
X360067Y314106D01*
X360207Y314316D01*
X360630Y314366D01*
X361053Y314316D01*
X361193Y314106D01*
X361495Y313905D01*
X361850Y313834D01*
X362659D01*
X363885Y312608D01*
X363885Y312608D01*
X364038Y312506D01*
X364049Y312451D01*
X364355Y311993D01*
X364814Y311687D01*
X365354Y311579D01*
X365895Y311687D01*
X366354Y311993D01*
X366660Y312451D01*
X366767Y312992D01*
X366660Y313533D01*
X366354Y313991D01*
Y314355D01*
X366660Y314814D01*
X366767Y315354D01*
X366660Y315895D01*
X366354Y316354D01*
X365895Y316660D01*
X365443Y316750D01*
X365305Y316831D01*
X364809Y317462D01*
Y321463D01*
X364702D01*
X364672Y322238D01*
X364672D01*
Y326187D01*
D02*
G37*
G36*
X358468Y321463D02*
Y319491D01*
X360085D01*
Y321463D01*
X358468D01*
D02*
G37*
G36*
X357191Y326187D02*
X354226D01*
Y322238D01*
X356404D01*
X356420Y322238D01*
X356423Y322172D01*
X356450Y321398D01*
X356450D01*
X356450Y321398D01*
Y319491D01*
X358068D01*
Y321463D01*
X357238D01*
X357222Y321463D01*
X357219Y321529D01*
X357191Y322302D01*
X357191D01*
X357191Y322302D01*
Y326187D01*
D02*
G37*
G36*
X424052Y318304D02*
X422811D01*
Y317913D01*
X422881Y317558D01*
X423083Y317256D01*
X423384Y317055D01*
X423740Y316984D01*
X424052D01*
Y318304D01*
D02*
G37*
G36*
X358698Y315154D02*
X357456D01*
Y314764D01*
X357527Y314408D01*
X357729Y314106D01*
X358030Y313905D01*
X358386Y313834D01*
X358698D01*
Y315154D01*
D02*
G37*
G36*
X398721Y323066D02*
X398180Y322959D01*
X397721Y322653D01*
X397415Y322194D01*
X397307Y321654D01*
X397415Y321113D01*
X397563Y320892D01*
X397252Y320146D01*
X397214Y320105D01*
X396824D01*
Y309856D01*
X400617D01*
Y320105D01*
X400227D01*
X400189Y320146D01*
X399878Y320892D01*
X400026Y321113D01*
X400133Y321654D01*
X400026Y322194D01*
X399720Y322653D01*
X399261Y322959D01*
X398721Y323066D01*
D02*
G37*
G36*
X393721Y323066D02*
X393180Y322959D01*
X392721Y322653D01*
X392415Y322194D01*
X392307Y321654D01*
X392415Y321113D01*
X392563Y320892D01*
X392252Y320146D01*
X392214Y320105D01*
X391824D01*
Y309856D01*
X395617D01*
Y320105D01*
X395227D01*
X395189Y320146D01*
X394878Y320892D01*
X395026Y321113D01*
X395133Y321654D01*
X395026Y322194D01*
X394720Y322653D01*
X394261Y322959D01*
X393721Y323066D01*
D02*
G37*
G36*
X388720D02*
X388180Y322959D01*
X387721Y322653D01*
X387415Y322194D01*
X387308Y321654D01*
X387415Y321113D01*
X387562Y320892D01*
X387252Y320146D01*
X387214Y320105D01*
X386824D01*
Y309856D01*
X390616D01*
Y320105D01*
X390227D01*
X390189Y320146D01*
X389878Y320892D01*
X390026Y321113D01*
X390133Y321654D01*
X390026Y322194D01*
X389720Y322653D01*
X389261Y322959D01*
X388720Y323066D01*
D02*
G37*
G36*
X383720D02*
X383180Y322959D01*
X382721Y322653D01*
X382415Y322194D01*
X382308Y321654D01*
X382415Y321113D01*
X382562Y320892D01*
X382252Y320146D01*
X382214Y320105D01*
X381824D01*
Y309856D01*
X385616D01*
Y320105D01*
X385227D01*
X385189Y320146D01*
X384878Y320892D01*
X385026Y321113D01*
X385133Y321654D01*
X385026Y322194D01*
X384720Y322653D01*
X384261Y322959D01*
X383720Y323066D01*
D02*
G37*
G36*
X400617Y305105D02*
X398920D01*
Y300180D01*
X400617D01*
Y305105D01*
D02*
G37*
G36*
X375617D02*
X373920D01*
Y300180D01*
X375617D01*
Y305105D01*
D02*
G37*
G36*
X395617Y305105D02*
X393920D01*
Y300180D01*
X395617D01*
Y305105D01*
D02*
G37*
G36*
X390616D02*
X388920D01*
Y300180D01*
X390616D01*
Y305105D01*
D02*
G37*
G36*
X385616D02*
X383921D01*
Y300180D01*
X385616D01*
Y305105D01*
D02*
G37*
G36*
X380616D02*
X378921D01*
Y300180D01*
X380616D01*
Y305105D01*
D02*
G37*
G36*
X398520Y305105D02*
X396824D01*
Y300180D01*
X398520D01*
Y305105D01*
D02*
G37*
G36*
X373520D02*
X371824D01*
Y300180D01*
X373520D01*
Y305105D01*
D02*
G37*
G36*
X393520Y305105D02*
X391824D01*
Y300180D01*
X393520D01*
Y305105D01*
D02*
G37*
G36*
X388521D02*
X386824D01*
Y300180D01*
X388521D01*
Y305105D01*
D02*
G37*
G36*
X383521D02*
X381824D01*
Y300180D01*
X383521D01*
Y305105D01*
D02*
G37*
G36*
X378520D02*
X376824D01*
Y300180D01*
X378520D01*
Y305105D01*
D02*
G37*
G36*
X395617Y299780D02*
X393920D01*
Y294856D01*
X395617D01*
Y299780D01*
D02*
G37*
G36*
X393520D02*
X391824D01*
Y294856D01*
X393520D01*
Y299780D01*
D02*
G37*
G36*
X390616D02*
X388920D01*
Y294856D01*
X390616D01*
Y299780D01*
D02*
G37*
G36*
X388521D02*
X386824D01*
Y294856D01*
X388521D01*
Y299780D01*
D02*
G37*
G36*
X385616D02*
X383921D01*
Y294856D01*
X385616D01*
Y299780D01*
D02*
G37*
G36*
X383521D02*
X381824D01*
Y294856D01*
X383521D01*
Y299780D01*
D02*
G37*
G36*
X380616D02*
X378921D01*
Y294856D01*
X380616D01*
Y299780D01*
D02*
G37*
G36*
X378520D02*
X376824D01*
Y294856D01*
X378520D01*
Y299780D01*
D02*
G37*
G36*
X400617D02*
X398920D01*
Y294856D01*
X400617D01*
Y299780D01*
D02*
G37*
G36*
X398520D02*
X396824D01*
Y294856D01*
X398520D01*
Y299780D01*
D02*
G37*
G36*
X375617D02*
X373920D01*
Y294856D01*
X375617D01*
Y299780D01*
D02*
G37*
G36*
X373520D02*
X371824D01*
Y294856D01*
X373520D01*
Y299780D01*
D02*
G37*
%LPD*%
G36*
X377651Y326529D02*
X378355Y325826D01*
X378735Y324907D01*
Y324410D01*
Y323912D01*
X378355Y322993D01*
X377651Y322290D01*
X376732Y321909D01*
X376235D01*
Y326909D01*
X376732D01*
X377651Y326529D01*
D02*
G37*
G36*
X375733Y321909D02*
X375236D01*
X374317Y322290D01*
X373614Y322993D01*
X373233Y323912D01*
Y324410D01*
Y324907D01*
X373614Y325826D01*
X374317Y326529D01*
X375236Y326909D01*
X375733D01*
Y321909D01*
D02*
G37*
%LPC*%
G36*
X424052Y413186D02*
X422811D01*
Y412795D01*
X422881Y412439D01*
X423083Y412138D01*
X423384Y411936D01*
X423740Y411866D01*
X424052D01*
Y413186D01*
D02*
G37*
G36*
X575203Y469101D02*
X571253D01*
Y467152D01*
X541345D01*
Y469101D01*
X537395D01*
Y463183D01*
X540113D01*
X540329Y462967D01*
Y462014D01*
X539561D01*
Y454521D01*
X543117D01*
Y462014D01*
X542348D01*
Y463386D01*
X542272Y463772D01*
X542053Y464100D01*
X541808Y464344D01*
X542135Y465132D01*
X571253D01*
Y463183D01*
X572218D01*
Y462014D01*
X571450D01*
Y454521D01*
X575006D01*
Y462014D01*
X574238D01*
Y463183D01*
X575203D01*
Y469101D01*
D02*
G37*
G36*
X534652D02*
X530702D01*
Y467152D01*
X500794D01*
Y469101D01*
X496844D01*
Y463183D01*
X499562D01*
X499777Y462967D01*
Y462014D01*
X499010D01*
Y454521D01*
X502565D01*
Y462014D01*
X501797D01*
Y463386D01*
X501721Y463772D01*
X501502Y464100D01*
X501257Y464344D01*
X501583Y465132D01*
X530702D01*
Y463183D01*
X531667D01*
Y462014D01*
X530899D01*
Y454521D01*
X534455D01*
Y462014D01*
X533687D01*
Y463183D01*
X534652D01*
Y469101D01*
D02*
G37*
G36*
X494101D02*
X490151D01*
Y467152D01*
X460243D01*
Y469101D01*
X456293D01*
Y463183D01*
X459011D01*
X459226Y462967D01*
Y462014D01*
X458458D01*
Y454521D01*
X462014D01*
Y462014D01*
X461246D01*
Y463386D01*
X461169Y463772D01*
X460950Y464100D01*
X460706Y464344D01*
X461032Y465132D01*
X490151D01*
Y463183D01*
X491116D01*
Y462014D01*
X490348D01*
Y454521D01*
X493904D01*
Y462014D01*
X493136D01*
Y463183D01*
X494101D01*
Y469101D01*
D02*
G37*
G36*
X604927Y462014D02*
X601372D01*
Y460320D01*
X600705Y459883D01*
X600584Y459866D01*
X600000Y459982D01*
X599344Y459851D01*
X598788Y459480D01*
X598416Y458924D01*
X598286Y458268D01*
X598416Y457612D01*
X598788Y457056D01*
X599344Y456684D01*
X600000Y456554D01*
X600584Y456670D01*
X600705Y456652D01*
X601372Y456215D01*
Y454521D01*
X604927D01*
Y462014D01*
D02*
G37*
G36*
X523825D02*
X520269D01*
Y460320D01*
X519603Y459883D01*
X519482Y459866D01*
X518898Y459982D01*
X518242Y459851D01*
X517686Y459480D01*
X517314Y458924D01*
X517184Y458268D01*
X517314Y457612D01*
X517686Y457056D01*
X518242Y456684D01*
X518898Y456554D01*
X519482Y456670D01*
X519603Y456652D01*
X520269Y456215D01*
Y454521D01*
X523825D01*
Y462014D01*
D02*
G37*
G36*
X564376Y462014D02*
X560820D01*
Y460320D01*
X560154Y459883D01*
X560033Y459866D01*
X559449Y459982D01*
X558793Y459851D01*
X558237Y459480D01*
X557865Y458924D01*
X557735Y458268D01*
X557865Y457612D01*
X558237Y457056D01*
X558793Y456684D01*
X559449Y456554D01*
X560033Y456670D01*
X560154Y456652D01*
X560820Y456215D01*
Y454521D01*
X564376D01*
Y462014D01*
D02*
G37*
G36*
X483274D02*
X479718D01*
Y460320D01*
X479051Y459883D01*
X478931Y459866D01*
X478346Y459982D01*
X477691Y459851D01*
X477135Y459480D01*
X476763Y458924D01*
X476632Y458268D01*
X476763Y457612D01*
X477135Y457056D01*
X477691Y456684D01*
X478346Y456554D01*
X478931Y456670D01*
X479051Y456652D01*
X479718Y456215D01*
Y454521D01*
X483274D01*
Y462014D01*
D02*
G37*
G36*
X592329Y462014D02*
X588773D01*
Y454521D01*
X592329D01*
Y462014D01*
D02*
G37*
G36*
X511227D02*
X507671D01*
Y454521D01*
X511227D01*
Y462014D01*
D02*
G37*
G36*
X551778Y462014D02*
X548222D01*
Y454521D01*
X551778D01*
Y462014D01*
D02*
G37*
G36*
X470676D02*
X467120D01*
Y454521D01*
X470676D01*
Y462014D01*
D02*
G37*
G36*
X453550Y469101D02*
X449600D01*
Y463183D01*
X450565D01*
Y462014D01*
X449797D01*
Y459278D01*
X448032D01*
X447645Y459201D01*
X447317Y458982D01*
X443774Y455439D01*
X443555Y455111D01*
X443478Y454724D01*
Y406299D01*
X443555Y405913D01*
X443774Y405585D01*
X447317Y402042D01*
X447645Y401823D01*
X448032Y401746D01*
X472810D01*
X478911Y395645D01*
Y394298D01*
X478143D01*
Y386805D01*
X478911D01*
Y385433D01*
X478988Y385047D01*
X479207Y384719D01*
X479915Y384011D01*
Y379718D01*
X483865D01*
Y385636D01*
X481146D01*
X480931Y385851D01*
Y386805D01*
X481699D01*
Y394298D01*
X480931D01*
Y396063D01*
X480854Y396449D01*
X480635Y396777D01*
X473943Y403470D01*
X473615Y403689D01*
X473228Y403766D01*
X448450D01*
X445498Y406718D01*
Y454306D01*
X448450Y457258D01*
X449797D01*
Y454521D01*
X453353D01*
Y462014D01*
X452585D01*
Y463183D01*
X453550D01*
Y469101D01*
D02*
G37*
G36*
X644095Y455762D02*
X642685Y455576D01*
X641371Y455032D01*
X640243Y454166D01*
X639378Y453038D01*
X638834Y451725D01*
X638648Y450315D01*
X638834Y448905D01*
X639378Y447592D01*
X639623Y447272D01*
X616196Y423845D01*
X603550D01*
Y425794D01*
X599600D01*
Y419876D01*
X600565D01*
Y418707D01*
X599797D01*
Y411214D01*
X603353D01*
Y418707D01*
X602585D01*
Y419876D01*
X603550D01*
Y421825D01*
X616614D01*
X617001Y421902D01*
X617328Y422121D01*
X641051Y445844D01*
X641371Y445598D01*
X642685Y445054D01*
X644095Y444868D01*
X645504Y445054D01*
X646818Y445598D01*
X647946Y446464D01*
X648811Y447592D01*
X649356Y448905D01*
X649541Y450315D01*
X649356Y451725D01*
X648811Y453038D01*
X647946Y454166D01*
X646818Y455032D01*
X645504Y455576D01*
X644095Y455762D01*
D02*
G37*
G36*
X604927Y437605D02*
X601372D01*
Y434868D01*
X600589D01*
X600147Y435164D01*
X599606Y435271D01*
X599066Y435164D01*
X598607Y434857D01*
X598301Y434399D01*
X598193Y433858D01*
X598301Y433318D01*
X598607Y432859D01*
X599066Y432553D01*
X599606Y432445D01*
X600147Y432553D01*
X600589Y432848D01*
X601372D01*
Y430112D01*
X604927D01*
Y437605D01*
D02*
G37*
G36*
X564376Y437605D02*
X560820D01*
Y434868D01*
X560038D01*
X559596Y435164D01*
X559055Y435271D01*
X558514Y435164D01*
X558056Y434857D01*
X557750Y434399D01*
X557642Y433858D01*
X557750Y433318D01*
X558056Y432859D01*
X558514Y432553D01*
X559055Y432445D01*
X559596Y432553D01*
X560038Y432848D01*
X560820D01*
Y430112D01*
X564376D01*
Y437605D01*
D02*
G37*
G36*
X523825Y437605D02*
X520269D01*
Y434868D01*
X519487D01*
X519045Y435164D01*
X518504Y435271D01*
X517963Y435164D01*
X517505Y434857D01*
X517199Y434399D01*
X517091Y433858D01*
X517199Y433318D01*
X517505Y432859D01*
X517963Y432553D01*
X518504Y432445D01*
X519045Y432553D01*
X519487Y432848D01*
X520269D01*
Y430112D01*
X523825D01*
Y437605D01*
D02*
G37*
G36*
X483274Y437605D02*
X479718D01*
Y434868D01*
X478936D01*
X478493Y435164D01*
X477953Y435271D01*
X477412Y435164D01*
X476954Y434857D01*
X476647Y434399D01*
X476540Y433858D01*
X476647Y433318D01*
X476954Y432859D01*
X477412Y432553D01*
X477953Y432445D01*
X478493Y432553D01*
X478936Y432848D01*
X479718D01*
Y430112D01*
X483274D01*
Y437605D01*
D02*
G37*
G36*
X575006Y437605D02*
X571450D01*
Y430112D01*
X575006D01*
Y437605D01*
D02*
G37*
G36*
X493904D02*
X490348D01*
Y430112D01*
X493904D01*
Y437605D01*
D02*
G37*
G36*
X534455Y437605D02*
X530899D01*
Y430112D01*
X534455D01*
Y437605D01*
D02*
G37*
G36*
X453353D02*
X449797D01*
Y430112D01*
X453353D01*
Y437605D01*
D02*
G37*
G36*
X644095Y435762D02*
X642685Y435576D01*
X641371Y435032D01*
X640243Y434166D01*
X639378Y433038D01*
X638834Y431725D01*
X638648Y430315D01*
X638834Y428905D01*
X639378Y427592D01*
X639523Y427402D01*
X609407Y397286D01*
X609153Y396905D01*
X609064Y396457D01*
Y394298D01*
X608458D01*
Y386805D01*
X609064D01*
Y385636D01*
X608261D01*
Y379718D01*
X612211D01*
Y385636D01*
X611409D01*
Y386805D01*
X612014D01*
Y394298D01*
X611409D01*
Y395971D01*
X641181Y425744D01*
X641371Y425598D01*
X642685Y425054D01*
X644095Y424868D01*
X645504Y425054D01*
X646818Y425598D01*
X647946Y426464D01*
X648811Y427592D01*
X649356Y428905D01*
X649541Y430315D01*
X649356Y431725D01*
X648811Y433038D01*
X647946Y434166D01*
X646818Y435032D01*
X645504Y435576D01*
X644095Y435762D01*
D02*
G37*
G36*
X582093Y418707D02*
X578537D01*
Y415971D01*
X577755D01*
X577312Y416266D01*
X576772Y416374D01*
X576231Y416266D01*
X575772Y415960D01*
X575466Y415501D01*
X575359Y414961D01*
X575466Y414420D01*
X575772Y413962D01*
X576231Y413655D01*
X576772Y413548D01*
X577312Y413655D01*
X577755Y413951D01*
X578537D01*
Y411214D01*
X582093D01*
Y418707D01*
D02*
G37*
G36*
X541542D02*
X537986D01*
Y415971D01*
X537203D01*
X536761Y416266D01*
X536221Y416374D01*
X535680Y416266D01*
X535221Y415960D01*
X534915Y415501D01*
X534807Y414961D01*
X534915Y414420D01*
X535221Y413962D01*
X535680Y413655D01*
X536221Y413548D01*
X536761Y413655D01*
X537203Y413951D01*
X537986D01*
Y411214D01*
X541542D01*
Y418707D01*
D02*
G37*
G36*
X500990D02*
X497435D01*
Y415971D01*
X496652D01*
X496210Y416266D01*
X495669Y416374D01*
X495129Y416266D01*
X494670Y415960D01*
X494364Y415501D01*
X494256Y414961D01*
X494364Y414420D01*
X494670Y413962D01*
X495129Y413655D01*
X495669Y413548D01*
X496210Y413655D01*
X496652Y413951D01*
X497435D01*
Y411214D01*
X500990D01*
Y418707D01*
D02*
G37*
G36*
X460439D02*
X456883D01*
Y415971D01*
X456101D01*
X455659Y416266D01*
X455118Y416374D01*
X454577Y416266D01*
X454119Y415960D01*
X453813Y415501D01*
X453705Y414961D01*
X453813Y414420D01*
X454119Y413962D01*
X454577Y413655D01*
X455118Y413548D01*
X455659Y413655D01*
X456101Y413951D01*
X456883D01*
Y411214D01*
X460439D01*
Y418707D01*
D02*
G37*
G36*
X599606Y471089D02*
X583858D01*
X583472Y471012D01*
X583144Y470793D01*
X581471Y469120D01*
X580905D01*
X580808Y469101D01*
X577947D01*
Y463183D01*
X580665D01*
X580880Y462967D01*
Y462014D01*
X580112D01*
Y454521D01*
X583668D01*
Y462014D01*
X582900D01*
Y463386D01*
X582823Y463772D01*
X582604Y464100D01*
X582360Y464344D01*
X582686Y465132D01*
X586901D01*
Y464492D01*
X587845D01*
X587875Y464419D01*
X588578Y463716D01*
X588657Y463683D01*
X588718Y463622D01*
X589637Y463242D01*
X589723D01*
X589803Y463209D01*
X590300D01*
X590551Y463313D01*
X590802Y463209D01*
X591299D01*
X591379Y463242D01*
X591465D01*
X592384Y463622D01*
X592445Y463683D01*
X592524Y463716D01*
X593037Y464228D01*
X594659Y462605D01*
Y446457D01*
Y441363D01*
X590901Y437605D01*
X588773D01*
Y430112D01*
X589541D01*
Y429158D01*
X589326Y428943D01*
X586608D01*
Y423057D01*
X586608Y423025D01*
X586531Y422270D01*
X583942D01*
X583865Y423025D01*
X583865Y423057D01*
Y428943D01*
X582900D01*
Y430112D01*
X583668D01*
Y437605D01*
X580112D01*
Y430112D01*
X580880D01*
Y428963D01*
X551010D01*
Y430112D01*
X551778D01*
Y437605D01*
X548222D01*
Y430112D01*
X548990D01*
Y429063D01*
X548870Y428943D01*
X546057D01*
Y423057D01*
X546057Y423025D01*
X545979Y422270D01*
X543391D01*
X543313Y423025D01*
X543313Y423057D01*
Y428943D01*
X542348D01*
Y430112D01*
X543117D01*
Y437605D01*
X539561D01*
Y430112D01*
X540329D01*
Y428963D01*
X510459D01*
Y430112D01*
X511227D01*
Y437605D01*
X507671D01*
Y430112D01*
X508439D01*
Y429063D01*
X508319Y428943D01*
X505506D01*
Y423057D01*
X505506Y423025D01*
X505428Y422270D01*
X502840D01*
X502762Y423025D01*
X502762Y423057D01*
Y428943D01*
X501797D01*
Y430112D01*
X502565D01*
Y437605D01*
X499010D01*
Y430112D01*
X499777D01*
Y428963D01*
X469908D01*
Y430112D01*
X470676D01*
Y437605D01*
X467120D01*
Y430112D01*
X467888D01*
Y429063D01*
X467768Y428943D01*
X464954D01*
Y423057D01*
X464954Y423025D01*
X464877Y422270D01*
X462288D01*
X462211Y423025D01*
X462211D01*
Y428943D01*
X461246D01*
Y430112D01*
X462014D01*
Y437605D01*
X458458D01*
Y430112D01*
X459226D01*
Y428943D01*
X458261D01*
Y423025D01*
X459226D01*
Y421952D01*
X459303Y421565D01*
X459522Y421238D01*
X460214Y420546D01*
X460542Y420327D01*
X460928Y420250D01*
X470109D01*
X470250Y420079D01*
Y418707D01*
X469482D01*
Y411214D01*
X473038D01*
Y418707D01*
X472270D01*
Y419660D01*
X472485Y419876D01*
X475203D01*
Y425794D01*
X471253D01*
Y422270D01*
X468981D01*
X468904Y423025D01*
X468904Y423057D01*
Y426943D01*
X498813D01*
Y423057D01*
X498813Y423025D01*
X498735Y422270D01*
X481896D01*
Y425794D01*
X477947D01*
Y419876D01*
X478911D01*
Y418707D01*
X478143D01*
Y411214D01*
X481699D01*
Y418707D01*
X480931D01*
Y419876D01*
X481896D01*
Y420250D01*
X510661D01*
X510801Y420079D01*
Y418707D01*
X510033D01*
Y411214D01*
X513589D01*
Y418707D01*
X512821D01*
Y419660D01*
X513036Y419876D01*
X515754D01*
Y425794D01*
X511805D01*
Y422270D01*
X509532D01*
X509455Y423025D01*
X509455Y423057D01*
Y426943D01*
X539364D01*
Y423057D01*
X539364Y423025D01*
X539287Y422270D01*
X522447D01*
Y425794D01*
X518498D01*
Y419876D01*
X519462D01*
Y418707D01*
X518694D01*
Y411214D01*
X522250D01*
Y418707D01*
X521482D01*
Y419876D01*
X522447D01*
Y420250D01*
X551212D01*
X551352Y420079D01*
Y418707D01*
X550584D01*
Y411214D01*
X554140D01*
Y418707D01*
X553372D01*
Y419660D01*
X553587Y419876D01*
X556306D01*
Y425794D01*
X552356D01*
Y422270D01*
X550084D01*
X550006Y423025D01*
X550006Y423057D01*
Y426943D01*
X579915D01*
Y423057D01*
X579915Y423025D01*
X579838Y422270D01*
X562998D01*
Y425794D01*
X559049D01*
Y419876D01*
X560014D01*
Y418707D01*
X559246D01*
Y411214D01*
X562802D01*
Y418707D01*
X562034D01*
Y419876D01*
X562998D01*
Y420250D01*
X591763D01*
X591903Y420079D01*
Y418707D01*
X591135D01*
Y411214D01*
X594691D01*
Y418707D01*
X593923D01*
Y419660D01*
X594138Y419876D01*
X596857D01*
Y425794D01*
X592907D01*
Y422270D01*
X590635D01*
X590557Y423025D01*
X590557Y423057D01*
Y427318D01*
X591265Y428026D01*
X591484Y428354D01*
X591561Y428740D01*
Y430112D01*
X592329D01*
Y436176D01*
X596383Y440231D01*
X596602Y440558D01*
X596679Y440945D01*
Y445447D01*
X609777D01*
X609785Y445386D01*
X610198Y444389D01*
X610855Y443533D01*
X611712Y442875D01*
X612709Y442462D01*
X613779Y442321D01*
X614850Y442462D01*
X615847Y442875D01*
X616704Y443533D01*
X617361Y444389D01*
X617774Y445386D01*
X617915Y446457D01*
X617774Y447527D01*
X617361Y448524D01*
X616704Y449381D01*
X615847Y450038D01*
X614850Y450451D01*
X613779Y450592D01*
X612709Y450451D01*
X611712Y450038D01*
X610855Y449381D01*
X610198Y448524D01*
X609785Y447527D01*
X609777Y447467D01*
X596679D01*
Y463024D01*
X596602Y463410D01*
X596383Y463738D01*
X594201Y465920D01*
Y467792D01*
X593350D01*
X592894Y468382D01*
X593193Y469069D01*
X599188D01*
X611097Y457160D01*
X611424Y456941D01*
X611811Y456864D01*
X649975D01*
X652140Y454700D01*
Y420103D01*
X647138Y415101D01*
X646818Y415347D01*
X645504Y415891D01*
X644095Y416077D01*
X642685Y415891D01*
X641371Y415347D01*
X640243Y414481D01*
X639378Y413353D01*
X638834Y412040D01*
X638648Y410630D01*
X638834Y409220D01*
X639378Y407907D01*
X640243Y406779D01*
X641371Y405913D01*
X642685Y405369D01*
X644095Y405183D01*
X645504Y405369D01*
X646818Y405913D01*
X647946Y406779D01*
X648811Y407907D01*
X649356Y409220D01*
X649541Y410630D01*
X649356Y412040D01*
X648811Y413353D01*
X648566Y413673D01*
X653864Y418971D01*
X654083Y419299D01*
X654160Y419685D01*
Y455118D01*
X654083Y455505D01*
X653864Y455832D01*
X651108Y458588D01*
X650780Y458807D01*
X650394Y458884D01*
X612229D01*
X600320Y470793D01*
X599993Y471012D01*
X599606Y471089D01*
D02*
G37*
G36*
X612014Y418707D02*
X608458D01*
Y411214D01*
X612014D01*
Y418707D01*
D02*
G37*
G36*
X571463D02*
X567907D01*
Y411214D01*
X571463D01*
Y418707D01*
D02*
G37*
G36*
X530912D02*
X527356D01*
Y411214D01*
X530912D01*
Y418707D01*
D02*
G37*
G36*
X490361D02*
X486805D01*
Y411214D01*
X490361D01*
Y418707D01*
D02*
G37*
G36*
X582093Y394298D02*
X578537D01*
Y392603D01*
X577870Y392167D01*
X577750Y392149D01*
X577165Y392265D01*
X576509Y392135D01*
X575953Y391763D01*
X575582Y391207D01*
X575451Y390551D01*
X575582Y389895D01*
X575953Y389339D01*
X576509Y388968D01*
X577165Y388837D01*
X577750Y388953D01*
X577870Y388935D01*
X578537Y388499D01*
Y386805D01*
X582093D01*
Y394298D01*
D02*
G37*
G36*
X541542D02*
X537986D01*
Y392603D01*
X537319Y392167D01*
X537198Y392149D01*
X536614Y392265D01*
X535958Y392135D01*
X535402Y391763D01*
X535031Y391207D01*
X534900Y390551D01*
X535031Y389895D01*
X535402Y389339D01*
X535958Y388968D01*
X536614Y388837D01*
X537198Y388953D01*
X537319Y388935D01*
X537986Y388499D01*
Y386805D01*
X541542D01*
Y394298D01*
D02*
G37*
G36*
X500990D02*
X497435D01*
Y392603D01*
X496768Y392167D01*
X496647Y392149D01*
X496063Y392265D01*
X495407Y392135D01*
X494851Y391763D01*
X494479Y391207D01*
X494349Y390551D01*
X494479Y389895D01*
X494851Y389339D01*
X495407Y388968D01*
X496063Y388837D01*
X496647Y388953D01*
X496768Y388935D01*
X497435Y388499D01*
Y386805D01*
X500990D01*
Y394298D01*
D02*
G37*
G36*
X460439D02*
X456883D01*
Y392603D01*
X456217Y392167D01*
X456096Y392149D01*
X455512Y392265D01*
X454856Y392135D01*
X454300Y391763D01*
X453928Y391207D01*
X453798Y390551D01*
X453928Y389895D01*
X454300Y389339D01*
X454856Y388968D01*
X455512Y388837D01*
X456096Y388953D01*
X456217Y388935D01*
X456883Y388499D01*
Y386805D01*
X460439D01*
Y394298D01*
D02*
G37*
G36*
X644295Y396050D02*
Y390830D01*
X649515D01*
X649356Y392040D01*
X648811Y393353D01*
X647946Y394481D01*
X646818Y395347D01*
X645504Y395891D01*
X644295Y396050D01*
D02*
G37*
G36*
X643894D02*
X642685Y395891D01*
X641371Y395347D01*
X640243Y394481D01*
X639378Y393353D01*
X638834Y392040D01*
X638674Y390830D01*
X643894D01*
Y396050D01*
D02*
G37*
G36*
X594691Y394298D02*
X591135D01*
Y386805D01*
X594691D01*
Y394298D01*
D02*
G37*
G36*
X554140D02*
X550584D01*
Y386805D01*
X554140D01*
Y394298D01*
D02*
G37*
G36*
X513589D02*
X510033D01*
Y386805D01*
X513589D01*
Y394298D01*
D02*
G37*
G36*
X473038D02*
X469482D01*
Y386805D01*
X473038D01*
Y394298D01*
D02*
G37*
G36*
X649515Y390430D02*
X644295D01*
Y385210D01*
X645504Y385369D01*
X646818Y385913D01*
X647946Y386779D01*
X648811Y387907D01*
X649356Y389220D01*
X649515Y390430D01*
D02*
G37*
G36*
X643894D02*
X638674D01*
X638834Y389220D01*
X639378Y387907D01*
X640243Y386779D01*
X641371Y385913D01*
X642685Y385369D01*
X643894Y385210D01*
Y390430D01*
D02*
G37*
G36*
X603353Y394298D02*
X599797D01*
Y386805D01*
X600565D01*
Y385433D01*
X600642Y385047D01*
X600861Y384719D01*
X601105Y384474D01*
X600779Y383687D01*
X571660D01*
Y385636D01*
X570695D01*
Y386805D01*
X571463D01*
Y394298D01*
X567907D01*
Y386805D01*
X568675D01*
Y385636D01*
X567710D01*
Y379718D01*
X571660D01*
Y381667D01*
X601569D01*
Y379718D01*
X605518D01*
Y385636D01*
X602800D01*
X602585Y385851D01*
Y386805D01*
X603353D01*
Y394298D01*
D02*
G37*
G36*
X562802D02*
X559246D01*
Y386805D01*
X560014D01*
Y385433D01*
X560090Y385047D01*
X560310Y384719D01*
X560554Y384474D01*
X560228Y383687D01*
X531109D01*
Y385636D01*
X530144D01*
Y386805D01*
X530912D01*
Y394298D01*
X527356D01*
Y386805D01*
X528124D01*
Y385636D01*
X527159D01*
Y379718D01*
X531109D01*
Y381667D01*
X561017D01*
Y379718D01*
X564967D01*
Y385636D01*
X562249D01*
X562034Y385851D01*
Y386805D01*
X562802D01*
Y394298D01*
D02*
G37*
G36*
X522250D02*
X518694D01*
Y386805D01*
X519462D01*
Y385433D01*
X519539Y385047D01*
X519758Y384719D01*
X520003Y384474D01*
X519676Y383687D01*
X490557D01*
Y385636D01*
X489593D01*
Y386805D01*
X490361D01*
Y394298D01*
X486805D01*
Y386805D01*
X487573D01*
Y385636D01*
X486608D01*
Y379718D01*
X490557D01*
Y381667D01*
X520466D01*
Y379718D01*
X524416D01*
Y385636D01*
X521698D01*
X521482Y385851D01*
Y386805D01*
X522250D01*
Y394298D01*
D02*
G37*
G36*
X575203Y374219D02*
X571253D01*
Y372270D01*
X541345D01*
Y374219D01*
X537395D01*
Y368301D01*
X540113D01*
X540329Y368086D01*
Y367132D01*
X539561D01*
Y359639D01*
X543117D01*
Y367132D01*
X542348D01*
Y368504D01*
X542272Y368890D01*
X542053Y369218D01*
X541808Y369462D01*
X542135Y370250D01*
X571253D01*
Y368301D01*
X572218D01*
Y367132D01*
X571450D01*
Y359639D01*
X575006D01*
Y367132D01*
X574238D01*
Y368301D01*
X575203D01*
Y374219D01*
D02*
G37*
G36*
X534652D02*
X530702D01*
Y372270D01*
X500794D01*
Y374219D01*
X496844D01*
Y368301D01*
X499562D01*
X499777Y368086D01*
Y367132D01*
X499010D01*
Y359639D01*
X502565D01*
Y367132D01*
X501797D01*
Y368504D01*
X501721Y368890D01*
X501502Y369218D01*
X501257Y369462D01*
X501583Y370250D01*
X530702D01*
Y368301D01*
X531667D01*
Y367132D01*
X530899D01*
Y359639D01*
X534455D01*
Y367132D01*
X533687D01*
Y368301D01*
X534652D01*
Y374219D01*
D02*
G37*
G36*
X494101D02*
X490151D01*
Y372270D01*
X460243D01*
Y374219D01*
X456293D01*
Y368301D01*
X459011D01*
X459226Y368086D01*
Y367132D01*
X458458D01*
Y359639D01*
X462014D01*
Y367132D01*
X461246D01*
Y368504D01*
X461169Y368890D01*
X460950Y369218D01*
X460706Y369462D01*
X461032Y370250D01*
X490151D01*
Y368301D01*
X491116D01*
Y367132D01*
X490348D01*
Y359639D01*
X493904D01*
Y367132D01*
X493136D01*
Y368301D01*
X494101D01*
Y374219D01*
D02*
G37*
G36*
X604927Y367132D02*
X601372D01*
Y365438D01*
X600705Y365002D01*
X600584Y364984D01*
X600000Y365100D01*
X599344Y364969D01*
X598788Y364598D01*
X598416Y364042D01*
X598286Y363386D01*
X598416Y362730D01*
X598788Y362174D01*
X599344Y361802D01*
X600000Y361672D01*
X600584Y361788D01*
X600705Y361770D01*
X601372Y361333D01*
Y359639D01*
X604927D01*
Y367132D01*
D02*
G37*
G36*
X564376D02*
X560820D01*
Y365438D01*
X560154Y365002D01*
X560033Y364984D01*
X559449Y365100D01*
X558793Y364969D01*
X558237Y364598D01*
X557865Y364042D01*
X557735Y363386D01*
X557865Y362730D01*
X558237Y362174D01*
X558793Y361802D01*
X559449Y361672D01*
X560033Y361788D01*
X560154Y361770D01*
X560820Y361333D01*
Y359639D01*
X564376D01*
Y367132D01*
D02*
G37*
G36*
X523825D02*
X520269D01*
Y365438D01*
X519603Y365002D01*
X519482Y364984D01*
X518898Y365100D01*
X518242Y364969D01*
X517686Y364598D01*
X517314Y364042D01*
X517184Y363386D01*
X517314Y362730D01*
X517686Y362174D01*
X518242Y361802D01*
X518898Y361672D01*
X519482Y361788D01*
X519603Y361770D01*
X520269Y361333D01*
Y359639D01*
X523825D01*
Y367132D01*
D02*
G37*
G36*
X483274D02*
X479718D01*
Y365438D01*
X479051Y365002D01*
X478931Y364984D01*
X478346Y365100D01*
X477691Y364969D01*
X477135Y364598D01*
X476763Y364042D01*
X476632Y363386D01*
X476763Y362730D01*
X477135Y362174D01*
X477691Y361802D01*
X478346Y361672D01*
X478931Y361788D01*
X479051Y361770D01*
X479718Y361333D01*
Y359639D01*
X483274D01*
Y367132D01*
D02*
G37*
G36*
X592329D02*
X588773D01*
Y359639D01*
X592329D01*
Y367132D01*
D02*
G37*
G36*
X551778D02*
X548222D01*
Y359639D01*
X551778D01*
Y367132D01*
D02*
G37*
G36*
X511227D02*
X507671D01*
Y359639D01*
X511227D01*
Y367132D01*
D02*
G37*
G36*
X470676D02*
X467120D01*
Y359639D01*
X470676D01*
Y367132D01*
D02*
G37*
G36*
X453550Y374219D02*
X449600D01*
Y368301D01*
X450565D01*
Y367132D01*
X449797D01*
Y364396D01*
X448032D01*
X447645Y364319D01*
X447317Y364100D01*
X443774Y360557D01*
X443555Y360229D01*
X443478Y359842D01*
Y311417D01*
X443555Y311031D01*
X443774Y310703D01*
X447317Y307160D01*
X447645Y306941D01*
X448032Y306864D01*
X472810D01*
X478911Y300763D01*
Y299416D01*
X478143D01*
Y291923D01*
X478911D01*
Y290551D01*
X478988Y290165D01*
X479207Y289837D01*
X479915Y289129D01*
Y284836D01*
X483865D01*
Y290754D01*
X481146D01*
X480931Y290969D01*
Y291923D01*
X481699D01*
Y299416D01*
X480931D01*
Y301181D01*
X480854Y301568D01*
X480635Y301895D01*
X473943Y308588D01*
X473615Y308807D01*
X473228Y308884D01*
X448450D01*
X445498Y311836D01*
Y359424D01*
X448450Y362376D01*
X449797D01*
Y359639D01*
X453353D01*
Y367132D01*
X452585D01*
Y368301D01*
X453550D01*
Y374219D01*
D02*
G37*
G36*
X604927Y342723D02*
X601372D01*
Y339986D01*
X600589D01*
X600147Y340282D01*
X599606Y340389D01*
X599066Y340282D01*
X598607Y339976D01*
X598301Y339517D01*
X598193Y338976D01*
X598301Y338436D01*
X598607Y337977D01*
X599066Y337671D01*
X599606Y337563D01*
X600147Y337671D01*
X600589Y337966D01*
X601372D01*
Y335230D01*
X604927D01*
Y342723D01*
D02*
G37*
G36*
X564376D02*
X560820D01*
Y339986D01*
X560038D01*
X559596Y340282D01*
X559055Y340389D01*
X558514Y340282D01*
X558056Y339976D01*
X557750Y339517D01*
X557642Y338976D01*
X557750Y338436D01*
X558056Y337977D01*
X558514Y337671D01*
X559055Y337563D01*
X559596Y337671D01*
X560038Y337966D01*
X560820D01*
Y335230D01*
X564376D01*
Y342723D01*
D02*
G37*
G36*
X523825D02*
X520269D01*
Y339986D01*
X519487D01*
X519045Y340282D01*
X518504Y340389D01*
X517963Y340282D01*
X517505Y339976D01*
X517199Y339517D01*
X517091Y338976D01*
X517199Y338436D01*
X517505Y337977D01*
X517963Y337671D01*
X518504Y337563D01*
X519045Y337671D01*
X519487Y337966D01*
X520269D01*
Y335230D01*
X523825D01*
Y342723D01*
D02*
G37*
G36*
X483274D02*
X479718D01*
Y339986D01*
X478936D01*
X478493Y340282D01*
X477953Y340389D01*
X477412Y340282D01*
X476954Y339976D01*
X476647Y339517D01*
X476540Y338976D01*
X476647Y338436D01*
X476954Y337977D01*
X477412Y337671D01*
X477953Y337563D01*
X478493Y337671D01*
X478936Y337966D01*
X479718D01*
Y335230D01*
X483274D01*
Y342723D01*
D02*
G37*
G36*
X575006D02*
X571450D01*
Y335230D01*
X575006D01*
Y342723D01*
D02*
G37*
G36*
X534455D02*
X530899D01*
Y335230D01*
X534455D01*
Y342723D01*
D02*
G37*
G36*
X493904D02*
X490348D01*
Y335230D01*
X493904D01*
Y342723D01*
D02*
G37*
G36*
X453353D02*
X449797D01*
Y335230D01*
X453353D01*
Y342723D01*
D02*
G37*
G36*
X643701Y369541D02*
X642291Y369356D01*
X640977Y368811D01*
X639850Y367946D01*
X638984Y366818D01*
X638440Y365504D01*
X638254Y364094D01*
X638440Y362685D01*
X638984Y361371D01*
X639850Y360243D01*
X640977Y359378D01*
X642291Y358834D01*
X642486Y358808D01*
X642769Y357976D01*
X613755Y328963D01*
X603550D01*
Y330912D01*
X599600D01*
Y324994D01*
X600565D01*
Y323825D01*
X599797D01*
Y316332D01*
X603353D01*
Y323825D01*
X602585D01*
Y324994D01*
X603550D01*
Y326943D01*
X614173D01*
X614560Y327020D01*
X614887Y327239D01*
X644809Y357160D01*
X645028Y357488D01*
X645104Y357874D01*
Y358833D01*
X645111Y358834D01*
X646424Y359378D01*
X647552Y360243D01*
X648418Y361371D01*
X648962Y362685D01*
X649147Y364094D01*
X648962Y365504D01*
X648418Y366818D01*
X647552Y367946D01*
X646424Y368811D01*
X645111Y369356D01*
X643701Y369541D01*
D02*
G37*
G36*
X598819Y376207D02*
X583858D01*
X583472Y376130D01*
X583144Y375911D01*
X581471Y374238D01*
X580905D01*
X580808Y374219D01*
X577947D01*
Y368301D01*
X580665D01*
X580880Y368086D01*
Y367132D01*
X580112D01*
Y359639D01*
X583668D01*
Y367132D01*
X582900D01*
Y368504D01*
X582823Y368890D01*
X582604Y369218D01*
X582360Y369462D01*
X582686Y370250D01*
X586901D01*
Y369610D01*
X587845D01*
X587875Y369538D01*
X588578Y368834D01*
X588658Y368801D01*
X588718Y368741D01*
X589637Y368360D01*
X589723D01*
X589803Y368327D01*
X590300D01*
X590551Y368431D01*
X590802Y368327D01*
X591299D01*
X591379Y368360D01*
X591465D01*
X592384Y368741D01*
X592445Y368801D01*
X592524Y368834D01*
X593037Y369346D01*
X594659Y367723D01*
Y351181D01*
Y346481D01*
X590901Y342723D01*
X588773D01*
Y335230D01*
X589541D01*
Y334277D01*
X589326Y334061D01*
X586608D01*
Y328175D01*
X586608Y328143D01*
X586531Y327388D01*
X583942D01*
X583865Y328143D01*
X583865Y328175D01*
Y334061D01*
X582900D01*
Y335230D01*
X583668D01*
Y342723D01*
X580112D01*
Y335230D01*
X580880D01*
Y334081D01*
X551010D01*
Y335230D01*
X551778D01*
Y342723D01*
X548222D01*
Y335230D01*
X548990D01*
Y334181D01*
X548870Y334061D01*
X546057D01*
Y328175D01*
X546057Y328143D01*
X545979Y327388D01*
X543391D01*
X543313Y328143D01*
X543313Y328175D01*
Y334061D01*
X542348D01*
Y335230D01*
X543117D01*
Y342723D01*
X539561D01*
Y335230D01*
X540329D01*
Y334081D01*
X510459D01*
Y335230D01*
X511227D01*
Y342723D01*
X507671D01*
Y335230D01*
X508439D01*
Y334181D01*
X508319Y334061D01*
X505506D01*
Y328175D01*
X505506Y328143D01*
X505428Y327388D01*
X502840D01*
X502762Y328143D01*
X502762Y328175D01*
Y334061D01*
X501797D01*
Y335230D01*
X502565D01*
Y342723D01*
X499010D01*
Y335230D01*
X499777D01*
Y334081D01*
X469908D01*
Y335230D01*
X470676D01*
Y342723D01*
X467120D01*
Y335230D01*
X467888D01*
Y334181D01*
X467768Y334061D01*
X464954D01*
Y328175D01*
X464954Y328143D01*
X464877Y327388D01*
X462288D01*
X462211Y328143D01*
X462211D01*
Y334061D01*
X461246D01*
Y335230D01*
X462014D01*
Y342723D01*
X458458D01*
Y335230D01*
X459226D01*
Y334061D01*
X458261D01*
Y328143D01*
X459226D01*
Y327070D01*
X459303Y326683D01*
X459522Y326356D01*
X460214Y325664D01*
X460542Y325445D01*
X460928Y325368D01*
X470109D01*
X470250Y325197D01*
Y323825D01*
X469482D01*
Y316332D01*
X473038D01*
Y323825D01*
X472270D01*
Y324779D01*
X472485Y324994D01*
X475203D01*
Y330912D01*
X471253D01*
Y327388D01*
X468981D01*
X468904Y328143D01*
X468904Y328175D01*
Y332061D01*
X498813D01*
Y328175D01*
X498813Y328143D01*
X498735Y327388D01*
X481896D01*
Y330912D01*
X477947D01*
Y324994D01*
X478911D01*
Y323825D01*
X478143D01*
Y316332D01*
X481699D01*
Y323825D01*
X480931D01*
Y324994D01*
X481896D01*
Y325368D01*
X510661D01*
X510801Y325197D01*
Y323825D01*
X510033D01*
Y316332D01*
X513589D01*
Y323825D01*
X512821D01*
Y324779D01*
X513036Y324994D01*
X515754D01*
Y330912D01*
X511805D01*
Y327388D01*
X509532D01*
X509455Y328143D01*
X509455Y328175D01*
Y332061D01*
X539364D01*
Y328175D01*
X539364Y328143D01*
X539287Y327388D01*
X522447D01*
Y330912D01*
X518498D01*
Y324994D01*
X519462D01*
Y323825D01*
X518694D01*
Y316332D01*
X522250D01*
Y323825D01*
X521482D01*
Y324994D01*
X522447D01*
Y325368D01*
X551212D01*
X551352Y325197D01*
Y323825D01*
X550584D01*
Y316332D01*
X554140D01*
Y323825D01*
X553372D01*
Y324779D01*
X553587Y324994D01*
X556306D01*
Y330912D01*
X552356D01*
Y327388D01*
X550084D01*
X550006Y328143D01*
X550006Y328175D01*
Y332061D01*
X579915D01*
Y328175D01*
X579915Y328143D01*
X579838Y327388D01*
X562998D01*
Y330912D01*
X559049D01*
Y324994D01*
X560014D01*
Y323825D01*
X559246D01*
Y316332D01*
X562802D01*
Y323825D01*
X562034D01*
Y324994D01*
X562998D01*
Y325368D01*
X591763D01*
X591903Y325197D01*
Y323825D01*
X591135D01*
Y316332D01*
X594691D01*
Y323825D01*
X593923D01*
Y324779D01*
X594138Y324994D01*
X596857D01*
Y330912D01*
X592907D01*
Y327388D01*
X590635D01*
X590557Y328143D01*
X590557Y328175D01*
Y332436D01*
X591265Y333144D01*
X591484Y333472D01*
X591561Y333858D01*
Y335230D01*
X592329D01*
Y341295D01*
X596383Y345349D01*
X596602Y345676D01*
X596679Y346063D01*
Y350171D01*
X609777D01*
X609785Y350111D01*
X610198Y349113D01*
X610855Y348257D01*
X611712Y347600D01*
X612709Y347187D01*
X613779Y347046D01*
X614850Y347187D01*
X615847Y347600D01*
X616704Y348257D01*
X617361Y349113D01*
X617774Y350111D01*
X617915Y351181D01*
X617774Y352251D01*
X617361Y353249D01*
X616704Y354105D01*
X615847Y354762D01*
X614850Y355176D01*
X613779Y355316D01*
X612709Y355176D01*
X611712Y354762D01*
X610855Y354105D01*
X610198Y353249D01*
X609785Y352251D01*
X609777Y352191D01*
X596679D01*
Y368142D01*
X596602Y368528D01*
X596383Y368856D01*
X594201Y371038D01*
Y372910D01*
X593350D01*
X592894Y373500D01*
X593193Y374187D01*
X598401D01*
X601301Y371287D01*
X601303Y371284D01*
X601292Y371265D01*
X602004Y370789D01*
X602851Y370620D01*
Y370644D01*
X649582D01*
X652140Y368086D01*
Y334277D01*
X646744Y328881D01*
X646424Y329126D01*
X645111Y329671D01*
X643701Y329856D01*
X642291Y329671D01*
X640977Y329126D01*
X639850Y328261D01*
X638984Y327133D01*
X638440Y325819D01*
X638254Y324410D01*
X638440Y323000D01*
X638984Y321686D01*
X639850Y320558D01*
X640977Y319693D01*
X642291Y319148D01*
X643701Y318963D01*
X645111Y319148D01*
X646424Y319693D01*
X647552Y320558D01*
X648418Y321686D01*
X648962Y323000D01*
X649147Y324410D01*
X648962Y325819D01*
X648418Y327133D01*
X648172Y327453D01*
X653864Y333144D01*
X654083Y333472D01*
X654160Y333858D01*
Y368504D01*
X654083Y368890D01*
X653864Y369218D01*
X650714Y372368D01*
X650386Y372587D01*
X650000Y372663D01*
X602871D01*
X602851Y372682D01*
X602270Y373179D01*
X602174Y373270D01*
X599533Y375911D01*
X599205Y376130D01*
X598819Y376207D01*
D02*
G37*
G36*
X582093Y323825D02*
X578537D01*
Y321089D01*
X577755D01*
X577312Y321384D01*
X576772Y321492D01*
X576231Y321384D01*
X575772Y321078D01*
X575466Y320620D01*
X575359Y320079D01*
X575466Y319538D01*
X575772Y319080D01*
X576231Y318773D01*
X576772Y318666D01*
X577312Y318773D01*
X577755Y319069D01*
X578537D01*
Y316332D01*
X582093D01*
Y323825D01*
D02*
G37*
G36*
X541542D02*
X537986D01*
Y321089D01*
X537203D01*
X536761Y321384D01*
X536221Y321492D01*
X535680Y321384D01*
X535221Y321078D01*
X534915Y320620D01*
X534807Y320079D01*
X534915Y319538D01*
X535221Y319080D01*
X535680Y318773D01*
X536221Y318666D01*
X536761Y318773D01*
X537203Y319069D01*
X537986D01*
Y316332D01*
X541542D01*
Y323825D01*
D02*
G37*
G36*
X500990D02*
X497435D01*
Y321089D01*
X496652D01*
X496210Y321384D01*
X495669Y321492D01*
X495129Y321384D01*
X494670Y321078D01*
X494364Y320620D01*
X494256Y320079D01*
X494364Y319538D01*
X494670Y319080D01*
X495129Y318773D01*
X495669Y318666D01*
X496210Y318773D01*
X496652Y319069D01*
X497435D01*
Y316332D01*
X500990D01*
Y323825D01*
D02*
G37*
G36*
X460439D02*
X456883D01*
Y321089D01*
X456101D01*
X455659Y321384D01*
X455118Y321492D01*
X454577Y321384D01*
X454119Y321078D01*
X453813Y320620D01*
X453705Y320079D01*
X453813Y319538D01*
X454119Y319080D01*
X454577Y318773D01*
X455118Y318666D01*
X455659Y318773D01*
X456101Y319069D01*
X456883D01*
Y316332D01*
X460439D01*
Y323825D01*
D02*
G37*
G36*
X612014D02*
X608458D01*
Y316332D01*
X612014D01*
Y323825D01*
D02*
G37*
G36*
X571463D02*
X567907D01*
Y316332D01*
X571463D01*
Y323825D01*
D02*
G37*
G36*
X530912D02*
X527356D01*
Y316332D01*
X530912D01*
Y323825D01*
D02*
G37*
G36*
X490361D02*
X486805D01*
Y316332D01*
X490361D01*
Y323825D01*
D02*
G37*
G36*
X643901Y309830D02*
Y304609D01*
X649121D01*
X648962Y305819D01*
X648418Y307133D01*
X647552Y308261D01*
X646424Y309126D01*
X645111Y309670D01*
X643901Y309830D01*
D02*
G37*
G36*
X643501D02*
X642291Y309670D01*
X640977Y309126D01*
X639850Y308261D01*
X638984Y307133D01*
X638440Y305819D01*
X638280Y304609D01*
X643501D01*
Y309830D01*
D02*
G37*
G36*
X649121Y304209D02*
X643901D01*
Y298989D01*
X645111Y299148D01*
X646424Y299693D01*
X647552Y300558D01*
X648418Y301686D01*
X648962Y303000D01*
X649121Y304209D01*
D02*
G37*
G36*
X643501D02*
X638280D01*
X638440Y303000D01*
X638984Y301686D01*
X639850Y300558D01*
X640977Y299693D01*
X642291Y299148D01*
X643501Y298989D01*
Y304209D01*
D02*
G37*
G36*
X582093Y299416D02*
X578537D01*
Y297722D01*
X577870Y297285D01*
X577750Y297267D01*
X577165Y297383D01*
X576509Y297253D01*
X575953Y296881D01*
X575582Y296325D01*
X575451Y295669D01*
X575582Y295013D01*
X575953Y294457D01*
X576509Y294086D01*
X577165Y293955D01*
X577750Y294072D01*
X577870Y294054D01*
X578537Y293617D01*
Y291923D01*
X582093D01*
Y299416D01*
D02*
G37*
G36*
X541542D02*
X537986D01*
Y297722D01*
X537319Y297285D01*
X537198Y297267D01*
X536614Y297383D01*
X535958Y297253D01*
X535402Y296881D01*
X535031Y296325D01*
X534900Y295669D01*
X535031Y295013D01*
X535402Y294457D01*
X535958Y294086D01*
X536614Y293955D01*
X537198Y294072D01*
X537319Y294054D01*
X537986Y293617D01*
Y291923D01*
X541542D01*
Y299416D01*
D02*
G37*
G36*
X500990D02*
X497435D01*
Y297722D01*
X496768Y297285D01*
X496647Y297267D01*
X496063Y297383D01*
X495407Y297253D01*
X494851Y296881D01*
X494479Y296325D01*
X494349Y295669D01*
X494479Y295013D01*
X494851Y294457D01*
X495407Y294086D01*
X496063Y293955D01*
X496647Y294072D01*
X496768Y294054D01*
X497435Y293617D01*
Y291923D01*
X500990D01*
Y299416D01*
D02*
G37*
G36*
X460439D02*
X456883D01*
Y297722D01*
X456217Y297285D01*
X456096Y297267D01*
X455512Y297383D01*
X454856Y297253D01*
X454300Y296881D01*
X453928Y296325D01*
X453798Y295669D01*
X453928Y295013D01*
X454300Y294457D01*
X454856Y294086D01*
X455512Y293955D01*
X456096Y294072D01*
X456217Y294054D01*
X456883Y293617D01*
Y291923D01*
X460439D01*
Y299416D01*
D02*
G37*
G36*
X594691D02*
X591135D01*
Y291923D01*
X594691D01*
Y299416D01*
D02*
G37*
G36*
X554140D02*
X550584D01*
Y291923D01*
X554140D01*
Y299416D01*
D02*
G37*
G36*
X513589D02*
X510033D01*
Y291923D01*
X513589D01*
Y299416D01*
D02*
G37*
G36*
X473038D02*
X469482D01*
Y291923D01*
X473038D01*
Y299416D01*
D02*
G37*
G36*
X603353D02*
X599797D01*
Y291923D01*
X600565D01*
Y290551D01*
X600642Y290165D01*
X600861Y289837D01*
X601105Y289593D01*
X600779Y288805D01*
X571660D01*
Y290754D01*
X570695D01*
Y291923D01*
X571463D01*
Y299416D01*
X567907D01*
Y291923D01*
X568675D01*
Y290754D01*
X567710D01*
Y284836D01*
X571660D01*
Y286785D01*
X601569D01*
Y284836D01*
X605518D01*
Y290754D01*
X602800D01*
X602585Y290969D01*
Y291923D01*
X603353D01*
Y299416D01*
D02*
G37*
G36*
X562802D02*
X559246D01*
Y291923D01*
X560014D01*
Y290551D01*
X560090Y290165D01*
X560310Y289837D01*
X560554Y289593D01*
X560228Y288805D01*
X531109D01*
Y290754D01*
X530144D01*
Y291923D01*
X530912D01*
Y299416D01*
X527356D01*
Y291923D01*
X528124D01*
Y290754D01*
X527159D01*
Y284836D01*
X531109D01*
Y286785D01*
X561017D01*
Y284836D01*
X564967D01*
Y290754D01*
X562249D01*
X562034Y290969D01*
Y291923D01*
X562802D01*
Y299416D01*
D02*
G37*
G36*
X522250D02*
X518694D01*
Y291923D01*
X519462D01*
Y290551D01*
X519539Y290165D01*
X519758Y289837D01*
X520003Y289593D01*
X519676Y288805D01*
X490557D01*
Y290754D01*
X489593D01*
Y291923D01*
X490361D01*
Y299416D01*
X486805D01*
Y291923D01*
X487573D01*
Y290754D01*
X486608D01*
Y284836D01*
X490557D01*
Y286785D01*
X520466D01*
Y284836D01*
X524416D01*
Y290754D01*
X521698D01*
X521482Y290969D01*
Y291923D01*
X522250D01*
Y299416D01*
D02*
G37*
G36*
X643701Y349541D02*
X642291Y349356D01*
X640977Y348811D01*
X639850Y347946D01*
X638984Y346818D01*
X638440Y345504D01*
X638254Y344094D01*
X638440Y342685D01*
X638984Y341371D01*
X639850Y340243D01*
X640862Y339467D01*
X641105Y338739D01*
X641128Y338620D01*
X609522Y307013D01*
X609303Y306686D01*
X609226Y306299D01*
Y299416D01*
X608458D01*
Y291923D01*
X609064D01*
Y290754D01*
X608261D01*
Y284836D01*
X612211D01*
Y290754D01*
X611409D01*
Y291923D01*
X612014D01*
Y299416D01*
X611246D01*
Y305881D01*
X644061Y338695D01*
X645111Y338833D01*
X646424Y339378D01*
X647552Y340243D01*
X648418Y341371D01*
X648962Y342685D01*
X649147Y344094D01*
X648962Y345504D01*
X648418Y346818D01*
X647552Y347946D01*
X646424Y348811D01*
X645111Y349356D01*
X643701Y349541D01*
D02*
G37*
%LPD*%
G36*
X592218Y468261D02*
X592922Y467558D01*
X593302Y466639D01*
Y466142D01*
Y465644D01*
X592922Y464726D01*
X592218Y464022D01*
X591299Y463642D01*
X590802D01*
Y468642D01*
X591299D01*
X592218Y468261D01*
D02*
G37*
G36*
X590300Y463642D02*
X589803D01*
X588884Y464022D01*
X588181Y464726D01*
X587800Y465644D01*
Y466142D01*
Y466639D01*
X588181Y467558D01*
X588884Y468261D01*
X589803Y468642D01*
X590300D01*
Y463642D01*
D02*
G37*
G36*
X592218Y373379D02*
X592922Y372676D01*
X593302Y371757D01*
Y371260D01*
Y370763D01*
X592922Y369844D01*
X592218Y369141D01*
X591299Y368760D01*
X590802D01*
X590802Y373760D01*
X591299D01*
X592218Y373379D01*
D02*
G37*
G36*
X590300Y368760D02*
X589803D01*
X588884Y369141D01*
X588181Y369844D01*
X587800Y370763D01*
Y371260D01*
Y371757D01*
X588181Y372676D01*
X588884Y373379D01*
X589803Y373760D01*
X590300D01*
X590300Y368760D01*
D02*
G37*
D10*
X373721Y314980D02*
Y324410D01*
X378720Y314980D02*
Y324410D01*
X379382Y356061D02*
X381971D01*
X382126Y355906D01*
X379528Y359842D02*
X382126D01*
Y355906D02*
Y359842D01*
X381398Y367919D02*
Y370768D01*
Y367919D02*
X382388Y366929D01*
X391339D01*
X385591Y359842D02*
X391732D01*
X385591Y355906D02*
X396457D01*
X362362Y315276D02*
Y315354D01*
Y315276D02*
X364457Y313180D01*
X365166D01*
X365354Y312992D01*
X362362Y315354D02*
X365354D01*
X389370Y376969D02*
X393701D01*
Y377165D01*
Y373228D02*
Y376969D01*
Y373228D02*
X395669Y371260D01*
X401575Y369291D02*
Y370866D01*
X397250Y364967D02*
X401575Y369291D01*
X405197Y387087D02*
X405276Y387008D01*
X405197Y387087D02*
Y389685D01*
X405118Y389764D02*
X405197Y389685D01*
X381890Y363779D02*
X398425D01*
X377854Y367815D02*
Y370768D01*
X398425Y363779D02*
X403543Y368898D01*
Y378895D01*
X377854Y367815D02*
X381890Y363779D01*
X405276Y380627D02*
Y383858D01*
X403543Y378895D02*
X405276Y380627D01*
Y383858D02*
X409350D01*
X409275Y386493D02*
X409350Y386417D01*
X405791Y386493D02*
X409275D01*
X405276Y387008D02*
X405791Y386493D01*
X379626Y368012D02*
Y370768D01*
Y368012D02*
X382671Y364967D01*
X397250D01*
X397165Y382283D02*
X397205Y382323D01*
Y385787D01*
X397244Y385827D01*
X375590Y389497D02*
Y389764D01*
Y389497D02*
X376083Y389005D01*
Y386713D02*
Y389005D01*
X396769Y376769D02*
X397165Y377165D01*
X396769Y375640D02*
Y376769D01*
X396645Y375516D02*
X396769Y375640D01*
X396645Y374598D02*
Y375516D01*
X377854Y390689D02*
X378346Y391181D01*
X377854Y386713D02*
Y390689D01*
X381417Y391181D02*
X381496D01*
X379626Y389390D02*
X381417Y391181D01*
X379626Y386713D02*
Y389390D01*
X381496Y394646D02*
X381575Y394567D01*
X386929D01*
X387008Y394488D01*
X378510Y394809D02*
Y397801D01*
X378346Y394646D02*
X378510Y394809D01*
X365591Y385827D02*
X365748Y385984D01*
Y398031D01*
X368898Y401181D02*
X381890D01*
X365748Y398031D02*
X368898Y401181D01*
X373721Y452795D02*
Y459469D01*
X378720Y452795D02*
Y459469D01*
X383720Y452795D02*
Y459469D01*
X388720Y452795D02*
Y459469D01*
X393721Y452795D02*
Y459469D01*
X398721Y452795D02*
Y459469D01*
X373622Y324772D02*
X373984Y324410D01*
X377984D02*
X378740Y325165D01*
X383720Y314980D02*
Y321654D01*
X388720Y314980D02*
Y321654D01*
X393721Y314980D02*
Y321654D01*
X398721Y314980D02*
Y321654D01*
X370866Y444468D02*
X373721D01*
X370866D02*
Y444488D01*
X398721Y444468D02*
X401575D01*
Y444488D01*
X373721Y299980D02*
X398721D01*
X401575D01*
Y300000D01*
X370866Y299980D02*
X373721D01*
X370866D02*
Y300000D01*
X378740Y325165D02*
Y328327D01*
X377984Y324410D02*
X378720D01*
X373622Y324772D02*
Y328327D01*
X373721Y324410D02*
X373984D01*
X396457Y374410D02*
X396645Y374598D01*
X389370Y382283D02*
Y382283D01*
Y382283D02*
X393701D01*
X361024Y378346D02*
X364173D01*
X362992Y382677D02*
X365591D01*
X369055Y382283D02*
X373425D01*
X369055D02*
Y382677D01*
Y378346D02*
Y382283D01*
X368898Y378346D02*
X369055D01*
X370626Y384055D02*
X373425D01*
X369612Y385069D02*
X370626Y384055D01*
X369612Y385069D02*
Y385270D01*
X369055Y385827D02*
X369612Y385270D01*
X393721Y444468D02*
X398721D01*
X388720D02*
X393721D01*
X383720D02*
X388720D01*
X378720D02*
X383720D01*
X373721D02*
X378720D01*
X359213Y337795D02*
X361811D01*
X359213D02*
X359331Y337677D01*
Y334173D02*
Y337677D01*
Y334173D02*
X359449Y334055D01*
X356299Y315354D02*
X358898D01*
X355118Y319291D02*
X358268D01*
Y316127D02*
Y319291D01*
Y316127D02*
X358898Y315497D01*
Y315354D02*
Y315497D01*
X363189Y316324D02*
Y324213D01*
X362362Y315497D02*
X363189Y316324D01*
X362362Y315354D02*
Y315497D01*
X401794Y387025D02*
X401811Y387008D01*
X401794Y387025D02*
Y389737D01*
X401777Y389754D02*
X401794Y389737D01*
X401811Y383858D02*
Y387008D01*
X403543Y360630D02*
X406142D01*
X403543Y363779D02*
X406142D01*
X409606D02*
Y370881D01*
Y360630D02*
Y363779D01*
X409350Y371063D02*
X409424D01*
X409606Y370881D01*
X405970Y376106D02*
X409275D01*
X405930Y376146D02*
X405970Y376106D01*
X409275D02*
X409350Y376181D01*
X405905Y373622D02*
X409350D01*
X405905Y378740D02*
X409350D01*
Y376181D02*
Y378740D01*
Y373622D02*
Y376181D01*
X417520Y389469D02*
X417595Y389544D01*
Y393422D01*
X417874Y393701D01*
X414409D02*
X414885Y393225D01*
Y389544D02*
Y393225D01*
Y389544D02*
X414961Y389469D01*
X411811Y393701D02*
X414409D01*
X417795Y393779D02*
X417874Y393701D01*
X417795Y393779D02*
Y396378D01*
X417717Y396457D02*
X417795Y396378D01*
X373425Y378740D02*
X381398D01*
X389370D01*
X427716Y318504D02*
Y318621D01*
X426673Y319665D02*
X427716Y318621D01*
X426673Y319665D02*
Y322342D01*
X427716Y318504D02*
X430315D01*
X424252D02*
X424331Y318425D01*
Y315827D02*
Y318425D01*
Y315827D02*
X424409Y315748D01*
X424667Y322305D02*
X424705Y322342D01*
X424667Y318919D02*
Y322305D01*
X424252Y318504D02*
X424667Y318919D01*
X427716Y413386D02*
X430315D01*
X426673Y414547D02*
Y417224D01*
Y414547D02*
X427716Y413503D01*
Y413386D02*
Y413503D01*
X424134Y413268D02*
X424252Y413386D01*
X424134Y410748D02*
Y413268D01*
X424016Y410630D02*
X424134Y410748D01*
X424667Y417187D02*
X424705Y417224D01*
X424667Y413801D02*
Y417187D01*
X424252Y413386D02*
X424667Y413801D01*
X412678Y410944D02*
X427681Y395941D01*
X411490Y410028D02*
X425121Y396397D01*
X422699Y431632D02*
X422736Y431595D01*
X422699Y431632D02*
Y432952D01*
X409116Y408207D02*
X420079Y397244D01*
X422672Y432979D02*
X422699Y432952D01*
X409116Y424864D02*
X418504Y434252D01*
X422672Y432979D02*
Y433791D01*
X418504Y434252D02*
X422211D01*
X409116Y408207D02*
Y424864D01*
X422211Y434252D02*
X422672Y433791D01*
X420079Y389469D02*
Y397244D01*
X410303Y408988D02*
Y424129D01*
Y408988D02*
X422638Y396654D01*
Y389469D02*
Y396654D01*
X420768Y430898D02*
Y431595D01*
X420677Y430807D02*
X420768Y430898D01*
X416981Y430807D02*
X420677D01*
X410303Y424129D02*
X416981Y430807D01*
X425121Y389544D02*
X425197Y389469D01*
X411490Y410028D02*
Y423498D01*
X416339Y428346D01*
X417520D01*
X425121Y389544D02*
Y396397D01*
X427681Y389544D02*
Y395941D01*
Y389544D02*
X427756Y389469D01*
X412678Y410944D02*
Y422717D01*
X416339Y426378D02*
X417520D01*
X412678Y422717D02*
X416339Y426378D01*
X413865Y421936D02*
X416339Y424409D01*
X413865Y411725D02*
Y421936D01*
X416339Y424409D02*
X417520D01*
X430807Y386417D02*
Y394783D01*
X413865Y411725D02*
X430807Y394783D01*
Y383858D02*
X430882Y383934D01*
X433140D01*
X434633Y385426D01*
Y392926D01*
X415053Y412506D02*
Y421155D01*
X416339Y422441D02*
X417520D01*
X415053Y421155D02*
X416339Y422441D01*
X415053Y412506D02*
X434633Y392926D01*
X425092Y404436D02*
X435820Y393707D01*
Y383458D02*
Y393707D01*
X425092Y404436D02*
X425092D01*
X417520Y412008D02*
Y420472D01*
Y412008D02*
X425092Y404436D01*
X433661Y381299D02*
X435820Y383458D01*
X430807Y381299D02*
X433661D01*
X437008Y381540D02*
Y394488D01*
X420768Y410728D02*
Y417224D01*
Y410728D02*
X437008Y394488D01*
X434208Y378740D02*
X437008Y381540D01*
X430807Y378740D02*
X434208D01*
X414961Y332585D02*
Y342913D01*
X420768Y322342D02*
Y322350D01*
X420677Y322441D02*
X420768Y322350D01*
X417670Y322441D02*
X420677D01*
X410211Y329900D02*
Y348695D01*
X417520Y356004D02*
Y368012D01*
X410211Y348695D02*
X417520Y356004D01*
X410211Y329900D02*
X417670Y322441D01*
X411398Y330531D02*
X416339Y325591D01*
X411398Y330531D02*
Y347324D01*
X420079Y356004D01*
Y368012D01*
X416339Y325591D02*
X417520D01*
X412586Y331312D02*
X416339Y327559D01*
X412586Y331312D02*
Y345952D01*
X416339Y327559D02*
X417520D01*
X422638Y356004D02*
Y368012D01*
X412586Y345952D02*
X422638Y356004D01*
X416339Y329528D02*
X417520D01*
X425197Y356004D02*
Y368012D01*
X413773Y332093D02*
Y344580D01*
X425197Y356004D01*
X413773Y332093D02*
X416339Y329528D01*
X417482Y331534D02*
X417520Y331496D01*
X427681Y355633D02*
Y367936D01*
X416012Y331534D02*
X417482D01*
X414961Y332585D02*
X416012Y331534D01*
X414961Y342913D02*
X427681Y355633D01*
Y367936D02*
X427756Y368012D01*
X417520Y333465D02*
X417626D01*
X417717Y333556D01*
X430807Y355610D02*
Y371063D01*
X417717Y333556D02*
Y342520D01*
X430807Y355610D01*
X420768Y342421D02*
X433858Y355512D01*
Y373161D01*
X433397Y373622D02*
X433858Y373161D01*
X420768Y336713D02*
Y342421D01*
X430807Y373622D02*
X433397D01*
X422736Y341240D02*
X436221Y354724D01*
Y374803D01*
X422736Y336713D02*
Y341240D01*
X434842Y376181D02*
X436221Y374803D01*
X430807Y376181D02*
X434842D01*
X424705Y322342D02*
Y329528D01*
X426673Y431595D02*
Y435138D01*
X428642Y431595D02*
X432185D01*
X431890Y428346D02*
X435433D01*
X431890Y426378D02*
X437402D01*
X431890Y424409D02*
X435433D01*
X431890Y422441D02*
X437402D01*
X431890Y420472D02*
X435433D01*
X428642Y417224D02*
X432185D01*
X424705D02*
Y424409D01*
X431890Y327559D02*
X437402D01*
X426673Y336713D02*
Y340256D01*
X431890Y333465D02*
X435433D01*
X428642Y336713D02*
X432185D01*
X428642Y322342D02*
X432185D01*
X431890Y325591D02*
X435433D01*
X431890Y331496D02*
X437402D01*
X431890Y329528D02*
X435433D01*
X421721Y284038D02*
Y280103D01*
X423688D01*
X424344Y280759D01*
Y281415D01*
X423688Y282070D01*
X421721D01*
X423688D01*
X424344Y282726D01*
Y283382D01*
X423688Y284038D01*
X421721D01*
X425656Y282726D02*
Y280759D01*
X426312Y280103D01*
X428280D01*
Y279447D01*
X427624Y278791D01*
X426968D01*
X428280Y280103D02*
Y282726D01*
X429592D02*
X430248D01*
Y282070D01*
X429592D01*
Y282726D01*
Y280759D02*
X430248D01*
Y280103D01*
X429592D01*
Y280759D01*
X416145Y276114D02*
X413521D01*
Y272178D01*
X416145D01*
X413521Y274146D02*
X414833D01*
X417457Y272178D02*
X418769D01*
X418113D01*
Y276114D01*
X417457D01*
X423360Y275458D02*
X422705Y276114D01*
X421393D01*
X420737Y275458D01*
Y274802D01*
X421393Y274146D01*
X422705D01*
X423360Y273490D01*
Y272834D01*
X422705Y272178D01*
X421393D01*
X420737Y272834D01*
X424672Y276114D02*
Y272178D01*
Y274146D01*
X425328Y274802D01*
X426640D01*
X427296Y274146D01*
Y272178D01*
X428608D02*
X429920D01*
X429264D01*
Y274802D01*
X428608D01*
X431888Y272178D02*
Y274802D01*
X433856D01*
X434512Y274146D01*
Y272178D01*
X435824Y274802D02*
Y272834D01*
X436480Y272178D01*
X438447D01*
Y271522D01*
X437791Y270866D01*
X437136D01*
X438447Y272178D02*
Y274802D01*
D14*
X592551Y371260D02*
D03*
X588551Y371260D02*
D03*
X592551Y466142D02*
D03*
X588551D02*
D03*
X373984Y324410D02*
D03*
X377984D02*
D03*
D15*
X417520Y428346D02*
D03*
Y426378D02*
D03*
Y424409D02*
D03*
Y422441D02*
D03*
Y420472D02*
D03*
X431890D02*
D03*
Y422441D02*
D03*
Y424409D02*
D03*
Y426378D02*
D03*
Y428346D02*
D03*
X417520Y333465D02*
D03*
Y331496D02*
D03*
Y329528D02*
D03*
Y327559D02*
D03*
Y325591D02*
D03*
X431890D02*
D03*
Y327559D02*
D03*
Y329528D02*
D03*
Y331496D02*
D03*
Y333465D02*
D03*
D16*
X420768Y417224D02*
D03*
X422736D02*
D03*
X424705D02*
D03*
X426673D02*
D03*
X428642D02*
D03*
Y431595D02*
D03*
X426673D02*
D03*
X424705D02*
D03*
X422736D02*
D03*
X420768D02*
D03*
Y322342D02*
D03*
X422736D02*
D03*
X424705D02*
D03*
X426673D02*
D03*
X428642D02*
D03*
Y336713D02*
D03*
X426673D02*
D03*
X424705D02*
D03*
X422736D02*
D03*
X420768D02*
D03*
D17*
X424705Y424409D02*
D03*
Y329528D02*
D03*
D18*
X420079Y378740D02*
D03*
D19*
X430807Y386417D02*
D03*
Y383858D02*
D03*
Y381299D02*
D03*
Y378740D02*
D03*
Y376181D02*
D03*
Y373622D02*
D03*
Y371063D02*
D03*
X409350D02*
D03*
Y373622D02*
D03*
Y376181D02*
D03*
Y378740D02*
D03*
Y381299D02*
D03*
Y383858D02*
D03*
Y386417D02*
D03*
D20*
X427756Y368012D02*
D03*
X425197D02*
D03*
X422638D02*
D03*
X420079D02*
D03*
X417520D02*
D03*
X414961D02*
D03*
X412402D02*
D03*
Y389469D02*
D03*
X414961D02*
D03*
X417520D02*
D03*
X420079D02*
D03*
X422638D02*
D03*
X425197D02*
D03*
X427756D02*
D03*
D21*
X579921Y466142D02*
D03*
X573228D02*
D03*
X539370D02*
D03*
X532677D02*
D03*
X498819D02*
D03*
X492126D02*
D03*
X458268D02*
D03*
X451575D02*
D03*
X481890Y382677D02*
D03*
X488583D02*
D03*
X522441D02*
D03*
X529134D02*
D03*
X562992D02*
D03*
X569685D02*
D03*
X603543D02*
D03*
X610236D02*
D03*
X588583Y425984D02*
D03*
X581890D02*
D03*
X548032D02*
D03*
X541339D02*
D03*
X507480D02*
D03*
X500787D02*
D03*
X466929D02*
D03*
X460236D02*
D03*
X473228Y422835D02*
D03*
X479921D02*
D03*
X513779D02*
D03*
X520472D02*
D03*
X554331D02*
D03*
X561024D02*
D03*
X594882D02*
D03*
X601575D02*
D03*
X579921Y371260D02*
D03*
X573228D02*
D03*
X588583Y331102D02*
D03*
X581890D02*
D03*
X539370Y371260D02*
D03*
X532677D02*
D03*
X548032Y331102D02*
D03*
X541339D02*
D03*
X498819Y371260D02*
D03*
X492126D02*
D03*
X507480Y331102D02*
D03*
X500787D02*
D03*
X458268Y371260D02*
D03*
X451575D02*
D03*
X466929Y331102D02*
D03*
X460236D02*
D03*
X481890Y287795D02*
D03*
X488583D02*
D03*
X473228Y327953D02*
D03*
X479921D02*
D03*
X522441Y287795D02*
D03*
X529134D02*
D03*
X513779Y327953D02*
D03*
X520472D02*
D03*
X562992Y287795D02*
D03*
X569685D02*
D03*
X554331Y327953D02*
D03*
X561024D02*
D03*
X603543Y287795D02*
D03*
X610236D02*
D03*
X594882Y327953D02*
D03*
X601575D02*
D03*
D22*
X603150Y458268D02*
D03*
X590551D02*
D03*
X581890D02*
D03*
X573228D02*
D03*
Y433858D02*
D03*
X581890D02*
D03*
X590551D02*
D03*
X603150D02*
D03*
X562598Y458268D02*
D03*
X550000D02*
D03*
X541339D02*
D03*
X532677D02*
D03*
Y433858D02*
D03*
X541339D02*
D03*
X550000D02*
D03*
X562598D02*
D03*
X522047Y458268D02*
D03*
X509449D02*
D03*
X500787D02*
D03*
X492126D02*
D03*
Y433858D02*
D03*
X500787D02*
D03*
X509449D02*
D03*
X522047D02*
D03*
X481496Y458268D02*
D03*
X468898D02*
D03*
X460236D02*
D03*
X451575D02*
D03*
Y433858D02*
D03*
X460236D02*
D03*
X468898D02*
D03*
X481496D02*
D03*
X458661Y390551D02*
D03*
X471260D02*
D03*
X479921D02*
D03*
X488583D02*
D03*
Y414961D02*
D03*
X479921D02*
D03*
X471260D02*
D03*
X458661D02*
D03*
X499213Y390551D02*
D03*
X511811D02*
D03*
X520472D02*
D03*
X529134D02*
D03*
Y414961D02*
D03*
X520472D02*
D03*
X511811D02*
D03*
X499213D02*
D03*
X539764Y390551D02*
D03*
X552362D02*
D03*
X561024D02*
D03*
X569685D02*
D03*
Y414961D02*
D03*
X561024D02*
D03*
X552362D02*
D03*
X539764D02*
D03*
X580315Y390551D02*
D03*
X592913D02*
D03*
X601575D02*
D03*
X610236D02*
D03*
Y414961D02*
D03*
X601575D02*
D03*
X592913D02*
D03*
X580315D02*
D03*
Y295669D02*
D03*
X592913D02*
D03*
X601575D02*
D03*
X610236D02*
D03*
Y320079D02*
D03*
X601575D02*
D03*
X592913D02*
D03*
X580315D02*
D03*
X539764Y295669D02*
D03*
X552362D02*
D03*
X561024D02*
D03*
X569685D02*
D03*
Y320079D02*
D03*
X561024D02*
D03*
X552362D02*
D03*
X539764D02*
D03*
X499213Y295669D02*
D03*
X511811D02*
D03*
X520472D02*
D03*
X529134D02*
D03*
Y320079D02*
D03*
X520472D02*
D03*
X511811D02*
D03*
X499213D02*
D03*
X458661Y295669D02*
D03*
X471260D02*
D03*
X479921D02*
D03*
X488583D02*
D03*
Y320079D02*
D03*
X479921D02*
D03*
X471260D02*
D03*
X458661D02*
D03*
X481496Y363386D02*
D03*
X468898D02*
D03*
X460236D02*
D03*
X451575D02*
D03*
X451575Y338976D02*
D03*
X460236Y338976D02*
D03*
X468898Y338976D02*
D03*
X481496D02*
D03*
X522047Y363386D02*
D03*
X509449D02*
D03*
X500787D02*
D03*
X492126D02*
D03*
Y338976D02*
D03*
X500787D02*
D03*
X509449D02*
D03*
X522047D02*
D03*
X562598Y363386D02*
D03*
X550000D02*
D03*
X541339Y363386D02*
D03*
X532677Y363386D02*
D03*
Y338976D02*
D03*
X541339Y338976D02*
D03*
X550000Y338976D02*
D03*
X562598D02*
D03*
X603150Y363386D02*
D03*
X590551D02*
D03*
X581890D02*
D03*
X573228D02*
D03*
Y338976D02*
D03*
X581890D02*
D03*
X590551D02*
D03*
X603150D02*
D03*
D23*
X381398Y378740D02*
D03*
D24*
X386713Y370768D02*
D03*
X384941D02*
D03*
X383169Y370768D02*
D03*
X381398D02*
D03*
X379626Y370768D02*
D03*
X377854D02*
D03*
X376083Y370768D02*
D03*
X376083Y386713D02*
D03*
X377854D02*
D03*
X379626D02*
D03*
X381398Y386713D02*
D03*
X383169Y386713D02*
D03*
X384941D02*
D03*
X386713D02*
D03*
D25*
X373425Y373425D02*
D03*
Y375197D02*
D03*
Y376969D02*
D03*
X373425Y378740D02*
D03*
X373425Y380512D02*
D03*
Y382283D02*
D03*
Y384055D02*
D03*
X389370Y384055D02*
D03*
X389370Y382283D02*
D03*
X389370Y380512D02*
D03*
Y378740D02*
D03*
Y376969D02*
D03*
X389370Y375197D02*
D03*
Y373425D02*
D03*
D26*
X381496Y394646D02*
D03*
Y391181D02*
D03*
X378346Y394646D02*
D03*
Y391181D02*
D03*
D27*
X414409Y393701D02*
D03*
X417874D02*
D03*
X365591Y385827D02*
D03*
X369055D02*
D03*
X406142Y360630D02*
D03*
X409606D02*
D03*
X397165Y382283D02*
D03*
X393701D02*
D03*
X406142Y363779D02*
D03*
X409606D02*
D03*
X427716Y318504D02*
D03*
X424252D02*
D03*
X427716Y413386D02*
D03*
X424252D02*
D03*
X401811Y387008D02*
D03*
X405276D02*
D03*
X401811Y383858D02*
D03*
X405276D02*
D03*
X382126Y355906D02*
D03*
X385591D02*
D03*
X382126Y359842D02*
D03*
X385591D02*
D03*
X362362Y315354D02*
D03*
X358898D02*
D03*
X355748Y337795D02*
D03*
X359213D02*
D03*
X369055Y382677D02*
D03*
X365591D02*
D03*
X393701Y377165D02*
D03*
X397165D02*
D03*
D28*
X398721Y459469D02*
D03*
X398721Y444468D02*
D03*
X393721Y459469D02*
D03*
Y444468D02*
D03*
X388720Y459469D02*
D03*
Y444468D02*
D03*
X383720Y459469D02*
D03*
X383720Y444468D02*
D03*
X378720Y459469D02*
D03*
Y444468D02*
D03*
X373721Y459469D02*
D03*
X373721Y444468D02*
D03*
X398721Y314980D02*
D03*
Y299980D02*
D03*
X393721Y314980D02*
D03*
Y299980D02*
D03*
X388720Y314980D02*
D03*
Y299980D02*
D03*
X383720Y314980D02*
D03*
Y299980D02*
D03*
X378720Y314980D02*
D03*
Y299980D02*
D03*
X373721Y314980D02*
D03*
Y299980D02*
D03*
D29*
X355709Y324213D02*
D03*
X363189Y324213D02*
D03*
X355709Y334055D02*
D03*
X359449Y334055D02*
D03*
X363189Y334055D02*
D03*
D30*
X362992Y319291D02*
D03*
X358268D02*
D03*
D31*
X364173Y378346D02*
D03*
X368898D02*
D03*
D61*
X602019Y371997D02*
G03*
X602851Y371654I833J838D01*
G01*
X602016Y372000D02*
X602019Y371997D01*
X602851Y371654D02*
X650000D01*
X653150Y368504D01*
X643701Y324410D02*
X653150Y333858D01*
Y368504D01*
X650394Y457874D02*
X653150Y455118D01*
Y419685D02*
Y455118D01*
X599606Y470079D02*
X611811Y457874D01*
X650394D01*
X616614Y422835D02*
X644095Y450315D01*
X579921Y371260D02*
X592551D01*
X581890Y373228D02*
X583858Y375197D01*
X598819D01*
X602016Y372000D01*
X595669Y351181D02*
Y368142D01*
Y346063D02*
Y351181D01*
X613779D01*
X595669Y446457D02*
Y463024D01*
Y440945D02*
Y446457D01*
X613779D01*
X355906Y334055D02*
Y337795D01*
X355512Y345276D02*
X355748D01*
Y337795D02*
Y345276D01*
X355709Y333563D02*
Y334055D01*
Y333563D02*
X357782Y331490D01*
X361116D01*
X363189Y333563D01*
Y334055D01*
X355709D02*
X355906D01*
X644095Y410630D02*
X653150Y419685D01*
X583858Y470079D02*
X599606D01*
Y433858D02*
X603150D01*
X559055D02*
X562598D01*
X518504D02*
X522047D01*
X477953D02*
X481496D01*
X473228Y402756D02*
X479921Y396063D01*
Y390551D02*
Y396063D01*
X448032Y458268D02*
X451575D01*
X444488Y454724D02*
X448032Y458268D01*
Y402756D02*
X473228D01*
X444488Y406299D02*
Y454724D01*
Y406299D02*
X448032Y402756D01*
X455118Y414961D02*
X458661D01*
X495669D02*
X499213D01*
X536221D02*
X539764D01*
X576772D02*
X580315D01*
X593898Y421260D02*
X594882Y422244D01*
X593898Y420866D02*
X594882Y421850D01*
Y422244D02*
Y422835D01*
Y421850D02*
Y422244D01*
X593701Y420866D02*
X593898D01*
X592913Y420079D02*
X593701Y420866D01*
X592913Y414961D02*
Y420079D01*
X601575Y422835D02*
X616614D01*
X601575Y414961D02*
Y422835D01*
Y385433D02*
X602362Y384646D01*
X602559D01*
X601575Y385433D02*
Y390551D01*
X603543Y382677D02*
Y383661D01*
X602559Y384646D02*
X603543Y383661D01*
X553346Y421260D02*
X554331Y422244D01*
X553346Y420866D02*
X554331Y421850D01*
Y422244D02*
Y422835D01*
Y421850D02*
Y422244D01*
X553150Y420866D02*
X553346D01*
X552362Y420079D02*
X553150Y420866D01*
X552362Y414961D02*
Y420079D01*
X562008Y421260D02*
X593898D01*
X561024Y422244D02*
Y422835D01*
Y422244D02*
X562008Y421260D01*
X561024Y414961D02*
Y422835D01*
Y385433D02*
X561811Y384646D01*
X562008D01*
X561024Y385433D02*
Y390551D01*
X562992Y382677D02*
Y383661D01*
X562008Y384646D02*
X562992Y383661D01*
X569685Y382677D02*
X603543D01*
X569685D02*
Y390551D01*
X512795Y421260D02*
X513779Y422244D01*
X512795Y420866D02*
X513779Y421850D01*
Y422244D02*
Y422835D01*
Y421850D02*
Y422244D01*
X512598Y420866D02*
X512795D01*
X511811Y420079D02*
X512598Y420866D01*
X511811Y414961D02*
Y420079D01*
X521457Y421260D02*
X553346D01*
X520472Y422244D02*
Y422835D01*
Y422244D02*
X521457Y421260D01*
X520472Y414961D02*
Y422835D01*
Y385433D02*
X521260Y384646D01*
X521457D01*
X520472Y385433D02*
Y390551D01*
X522441Y382677D02*
Y383661D01*
X521457Y384646D02*
X522441Y383661D01*
X529134Y382677D02*
X562992D01*
X529134D02*
Y390551D01*
X473228Y422244D02*
Y422835D01*
Y421850D02*
Y422835D01*
X472244Y421260D02*
X473228Y422244D01*
X472244Y420866D02*
X473228Y421850D01*
X472047Y420866D02*
X472244D01*
X471654Y420472D02*
X472047Y420866D01*
X471260Y420079D02*
X471654Y420472D01*
X471260Y414961D02*
Y420079D01*
X480905Y421260D02*
X512795D01*
X479921Y422244D02*
Y422835D01*
Y422244D02*
X480905Y421260D01*
X479921Y414961D02*
Y422835D01*
X480709Y384646D02*
X480905D01*
X479921Y385433D02*
Y390551D01*
X481890Y382677D02*
Y383661D01*
X479921Y385433D02*
X480709Y384646D01*
X480905D02*
X481890Y383661D01*
X488583Y382677D02*
Y390551D01*
Y382677D02*
X522441D01*
X468898Y428645D02*
Y433858D01*
X468206Y427953D02*
X468898Y428645D01*
X467913Y427953D02*
X468206D01*
X466929Y426968D02*
X467913Y427953D01*
X466929Y425984D02*
Y426968D01*
Y425984D02*
Y426968D01*
X460236Y425984D02*
Y433858D01*
Y425984D02*
X460236Y425984D01*
X460928Y421260D02*
X472244D01*
X460236Y421952D02*
Y425984D01*
Y421952D02*
X460928Y421260D01*
X459449Y464173D02*
X460236Y463386D01*
X459252Y464173D02*
X459449D01*
X460236Y458268D02*
Y463386D01*
X458268Y465158D02*
X459252Y464173D01*
X458268Y465158D02*
Y466142D01*
X451575Y458268D02*
Y466142D01*
X509449Y428645D02*
Y433858D01*
X508757Y427953D02*
X509449Y428645D01*
X508465Y427953D02*
X508757D01*
X507480Y426968D02*
X508465Y427953D01*
X507480Y425984D02*
Y426968D01*
Y425984D02*
Y426968D01*
X500787Y425984D02*
Y426968D01*
X500787D02*
Y433858D01*
X499803Y427953D02*
X500787Y426968D01*
X467913Y427953D02*
X499803D01*
X466929Y426968D02*
X467913Y427953D01*
X500000Y464173D02*
X500787Y463386D01*
X499803Y464173D02*
X500000D01*
X500787Y458268D02*
Y463386D01*
X498819Y465158D02*
X499803Y464173D01*
X498819Y465158D02*
Y466142D01*
X492126Y458268D02*
Y466142D01*
X458268D02*
X492126D01*
X550000Y428645D02*
Y433858D01*
X549308Y427953D02*
X550000Y428645D01*
X549016Y427953D02*
X549308D01*
X548032Y426968D02*
X549016Y427953D01*
X548032Y425984D02*
Y426968D01*
Y425984D02*
Y426968D01*
X508465Y427953D02*
X540354D01*
X541339Y425984D02*
Y426968D01*
X541339D02*
Y433858D01*
X540354Y427953D02*
X541339Y426968D01*
X507480D02*
X508465Y427953D01*
X540551Y464173D02*
X541339Y463386D01*
X540354Y464173D02*
X540551D01*
X541339Y458268D02*
Y463386D01*
X539370Y465158D02*
X540354Y464173D01*
X539370Y465158D02*
Y466142D01*
X532677Y458268D02*
Y466142D01*
X498819D02*
X532677D01*
X589764Y427953D02*
X590551Y428740D01*
X589567Y427953D02*
X589764D01*
X588583Y426968D02*
X589567Y427953D01*
X581890Y425984D02*
Y426968D01*
X581890D02*
Y433858D01*
X580905Y427953D02*
X581890Y426968D01*
X549016Y427953D02*
X580905D01*
X548032Y426968D02*
X549016Y427953D01*
X581890Y468110D02*
X583858Y470079D01*
X580905Y468110D02*
X581890D01*
X579921Y467126D02*
X580905Y468110D01*
X579921Y466142D02*
X579921Y466142D01*
X579921Y466142D02*
Y467126D01*
X581890Y458268D02*
Y463386D01*
X581102Y464173D02*
X581890Y463386D01*
X579921Y465158D02*
Y466142D01*
X580905Y464173D02*
X581102D01*
X579921Y465158D02*
X580905Y464173D01*
X573228Y458268D02*
Y466142D01*
X539370D02*
X573228D01*
X592551Y466142D02*
X595669Y463024D01*
X590551Y428740D02*
Y435827D01*
X595669Y440945D01*
X588551Y466142D02*
X592551D01*
X579921D02*
X588551D01*
X601575Y327953D02*
X614173D01*
X610236Y306299D02*
X644095Y340158D01*
X610236Y295669D02*
Y306299D01*
X614173Y327953D02*
X644095Y357874D01*
Y360157D01*
X579921Y371260D02*
Y372244D01*
X580905Y373228D01*
X581890D01*
X455118Y320079D02*
X458661D01*
X495669D02*
X499213D01*
X536221D02*
X539764D01*
X576772D02*
X580315D01*
X599606Y338976D02*
X603150D01*
X559055D02*
X562598D01*
X518504D02*
X522047D01*
X477953D02*
X481496D01*
X448032Y363386D02*
X451575D01*
X444488Y311417D02*
Y359842D01*
X448032Y363386D01*
Y307874D02*
X473228D01*
X444488Y311417D02*
X448032Y307874D01*
X479921Y295669D02*
Y301181D01*
X473228Y307874D02*
X479921Y301181D01*
X481890Y287795D02*
Y288779D01*
X480905Y289764D02*
X481890Y288779D01*
X480709Y289764D02*
X480905D01*
X479921Y290551D02*
X480709Y289764D01*
X479921Y290551D02*
Y295669D01*
X451575Y363386D02*
Y371260D01*
X492126Y363386D02*
Y371260D01*
X458268D02*
X492126D01*
X460236Y363386D02*
Y368504D01*
X459449Y369291D02*
X460236Y368504D01*
X459252Y369291D02*
X459449D01*
X458268Y370276D02*
X459252Y369291D01*
X458268Y370276D02*
Y371260D01*
X532677Y363386D02*
Y371260D01*
X498819D02*
X532677D01*
X500787Y363386D02*
Y368504D01*
X500000Y369291D02*
X500787Y368504D01*
X499803Y369291D02*
X500000D01*
X498819Y370276D02*
X499803Y369291D01*
X498819Y370276D02*
Y371260D01*
X539370Y370276D02*
Y371260D01*
Y370276D02*
X540354Y369291D01*
X540551D01*
X541339Y368504D01*
Y363386D02*
Y368504D01*
X539370Y371260D02*
X573228D01*
Y363386D02*
Y371260D01*
X579921Y370276D02*
Y371260D01*
Y370276D02*
X580905Y369291D01*
X581102D01*
X581890Y368504D01*
Y363386D02*
Y368504D01*
X590551Y338976D02*
Y340945D01*
X592551Y371260D02*
X595669Y368142D01*
X590551Y340945D02*
X595669Y346063D01*
X579921Y371260D02*
X579921Y371260D01*
X588583Y331102D02*
Y332087D01*
X589567Y333071D01*
X589764D01*
X590551Y333858D01*
Y338976D01*
X460236Y327070D02*
Y331102D01*
X471654Y325591D02*
X472047Y325984D01*
X471260Y325197D02*
X471654Y325591D01*
X473228Y327362D02*
Y327953D01*
X460236Y327070D02*
X460928Y326378D01*
X473228Y326969D02*
Y327953D01*
X460236Y331102D02*
Y338976D01*
Y331102D02*
X460236Y331102D01*
X466929D02*
Y332087D01*
Y331102D02*
Y332087D01*
X467913Y333071D01*
X466929Y332087D02*
X467913Y333071D01*
X499803D02*
X500787Y332087D01*
X500787D02*
Y338976D01*
X467913Y333071D02*
X468206D01*
X468898Y333763D02*
Y338976D01*
X500787Y331102D02*
Y332087D01*
X467913Y333071D02*
X499803D01*
X468206D02*
X468898Y333763D01*
X548032Y331102D02*
Y332087D01*
Y331102D02*
Y332087D01*
X549016Y333071D01*
X548032Y332087D02*
X549016Y333071D01*
X580905D02*
X581890Y332087D01*
X581890D02*
Y338976D01*
X549016Y333071D02*
X549308D01*
X550000Y333763D02*
Y338976D01*
X581890Y331102D02*
Y332087D01*
X549016Y333071D02*
X580905D01*
X549308D02*
X550000Y333763D01*
X508757Y333071D02*
X509449Y333763D01*
X508465Y333071D02*
X540354D01*
X541339Y331102D02*
Y332087D01*
X509449Y333763D02*
Y338976D01*
X508465Y333071D02*
X508757D01*
X541339Y332087D02*
Y338976D01*
X540354Y333071D02*
X541339Y332087D01*
X507480D02*
X508465Y333071D01*
X507480Y332087D02*
X508465Y333071D01*
X507480Y331102D02*
Y332087D01*
Y331102D02*
Y332087D01*
X601575Y327953D02*
X601575Y327953D01*
X601575Y320079D02*
Y327953D01*
X561024Y320079D02*
Y327953D01*
X562008Y326378D02*
X593898D01*
X594882Y327362D01*
X561024D02*
Y327953D01*
Y327362D02*
X562008Y326378D01*
X592913Y320079D02*
Y325197D01*
X593701Y325984D01*
X593898D01*
X594882Y326969D01*
Y327362D01*
Y327953D01*
X520472Y320079D02*
Y327953D01*
X521457Y326378D02*
X553346D01*
X554331Y327362D01*
X520472D02*
Y327953D01*
Y327362D02*
X521457Y326378D01*
X552362Y320079D02*
Y325197D01*
X553150Y325984D01*
X553346D01*
X554331Y326969D01*
Y327362D01*
Y327953D01*
X513779Y327362D02*
Y327953D01*
Y326969D02*
Y327362D01*
X512795Y325984D02*
X513779Y326969D01*
X512598Y325984D02*
X512795D01*
X511811Y325197D02*
X512598Y325984D01*
X511811Y320079D02*
Y325197D01*
X479921Y327362D02*
X480905Y326378D01*
X479921Y327362D02*
Y327953D01*
X512795Y326378D02*
X513779Y327362D01*
X480905Y326378D02*
X512795D01*
X479921Y320079D02*
Y327953D01*
X460928Y326378D02*
X472244D01*
X473228Y327362D01*
X472047Y325984D02*
X472244D01*
X473228Y326969D01*
X471260Y320079D02*
Y325197D01*
X522441Y287795D02*
Y288779D01*
X521457Y289764D02*
X522441Y288779D01*
X521260Y289764D02*
X521457D01*
X520472Y290551D02*
X521260Y289764D01*
X520472Y290551D02*
Y295669D01*
X488583Y287795D02*
X522441D01*
X488583D02*
Y295669D01*
X529134Y287795D02*
Y295669D01*
Y287795D02*
X562992D01*
X561024Y290551D02*
Y295669D01*
Y290551D02*
X561811Y289764D01*
X562008D01*
X562992Y288779D01*
Y287795D02*
Y288779D01*
X569685Y287795D02*
Y295669D01*
Y287795D02*
X603543D01*
X601575Y290551D02*
Y295669D01*
Y290551D02*
X602362Y289764D01*
X602559D01*
X603543Y288779D01*
Y287795D02*
Y288779D01*
D62*
X610236Y390551D02*
Y396457D01*
X644095Y430315D01*
X610236Y382677D02*
Y390551D01*
Y287795D02*
Y295669D01*
D63*
X355748Y345276D02*
X367323D01*
X351575D02*
X355512D01*
X351575D02*
Y372598D01*
X343701D02*
X351575D01*
Y413937D01*
X343701D02*
X351575D01*
D64*
X559449Y458268D02*
X562598D01*
X600000D02*
X603150D01*
X518898D02*
X522047D01*
X478346D02*
X481496D01*
X577165Y390551D02*
X580315D01*
X536614D02*
X539764D01*
X496063D02*
X499213D01*
X455512D02*
X458661D01*
X600000Y363386D02*
X603150D01*
X559449D02*
X562598D01*
X518898D02*
X522047D01*
X478346D02*
X481496D01*
X455512Y295669D02*
X458661D01*
X496063D02*
X499213D01*
X536614D02*
X539764D01*
X577165D02*
X580315D01*
D65*
X368898Y413386D02*
D03*
Y421260D02*
D03*
Y353150D02*
D03*
Y345276D02*
D03*
D66*
X643701Y364094D02*
D03*
Y344094D02*
D03*
Y324410D02*
D03*
Y304410D02*
D03*
X644095Y450315D02*
D03*
Y430315D02*
D03*
Y410630D02*
D03*
Y390630D02*
D03*
D67*
X343701Y433937D02*
D03*
Y423937D02*
D03*
Y413937D02*
D03*
Y392598D02*
D03*
Y382598D02*
D03*
Y372598D02*
D03*
D68*
Y403937D02*
D03*
Y362598D02*
D03*
D69*
X613779Y351181D02*
D03*
Y446457D02*
D03*
D70*
X645669Y279528D02*
D03*
X350394Y476378D02*
D03*
X645669D02*
D03*
X350394Y279528D02*
D03*
D71*
X479528Y281890D02*
D03*
X483465D02*
D03*
X475591D02*
D03*
X471654D02*
D03*
X487402D02*
D03*
X491339D02*
D03*
X499213D02*
D03*
X495276D02*
D03*
X463779D02*
D03*
X467717D02*
D03*
X459842D02*
D03*
X455905D02*
D03*
X444095D02*
D03*
X451968D02*
D03*
X448032D02*
D03*
X554331D02*
D03*
X550394D02*
D03*
X558268D02*
D03*
X546457D02*
D03*
X542520D02*
D03*
X534646D02*
D03*
X538583D02*
D03*
X507087D02*
D03*
X503150D02*
D03*
X511024D02*
D03*
X514961D02*
D03*
X530709D02*
D03*
X526772D02*
D03*
X518898D02*
D03*
X522835D02*
D03*
X609449D02*
D03*
X605512D02*
D03*
X601575D02*
D03*
X593701D02*
D03*
X597638D02*
D03*
X566142D02*
D03*
X562205D02*
D03*
X570079D02*
D03*
X574016D02*
D03*
X589764D02*
D03*
X585827D02*
D03*
X577953D02*
D03*
X581890D02*
D03*
X479528Y472047D02*
D03*
X483465D02*
D03*
X475591D02*
D03*
X471654D02*
D03*
X487402D02*
D03*
X491339D02*
D03*
X499213D02*
D03*
X495276D02*
D03*
X463779D02*
D03*
X467717D02*
D03*
X459842D02*
D03*
X455905D02*
D03*
X444095D02*
D03*
X451968D02*
D03*
X448032D02*
D03*
X554331D02*
D03*
X550394D02*
D03*
X558268D02*
D03*
X546457D02*
D03*
X542520D02*
D03*
X534646D02*
D03*
X538583D02*
D03*
X507087D02*
D03*
X503150D02*
D03*
X511024D02*
D03*
X514961D02*
D03*
X530709D02*
D03*
X526772D02*
D03*
X518898D02*
D03*
X522835D02*
D03*
X613386D02*
D03*
X609449D02*
D03*
X617323D02*
D03*
X605512D02*
D03*
X601575D02*
D03*
X593701Y472835D02*
D03*
X597638D02*
D03*
X566142Y472047D02*
D03*
X562205D02*
D03*
X570079D02*
D03*
X574016D02*
D03*
X589764Y472835D02*
D03*
X585827D02*
D03*
X577953Y472047D02*
D03*
X581890D02*
D03*
Y377165D02*
D03*
X577953D02*
D03*
X585827Y377953D02*
D03*
X589764D02*
D03*
X574016Y377165D02*
D03*
X570079D02*
D03*
X562205D02*
D03*
X566142D02*
D03*
X597638Y377953D02*
D03*
X593701D02*
D03*
X601575Y377165D02*
D03*
X605512D02*
D03*
X617323D02*
D03*
X609449D02*
D03*
X613386D02*
D03*
X522835D02*
D03*
X518898D02*
D03*
X526772D02*
D03*
X530709D02*
D03*
X514961D02*
D03*
X511024D02*
D03*
X503150D02*
D03*
X507087D02*
D03*
X538583D02*
D03*
X534646D02*
D03*
X542520D02*
D03*
X546457D02*
D03*
X558268D02*
D03*
X550394D02*
D03*
X554331D02*
D03*
X448032D02*
D03*
X451968D02*
D03*
X444095D02*
D03*
X455905D02*
D03*
X459842D02*
D03*
X467717D02*
D03*
X463779D02*
D03*
X495276D02*
D03*
X499213D02*
D03*
X491339D02*
D03*
X487402D02*
D03*
X471654D02*
D03*
X475591D02*
D03*
X483465D02*
D03*
X479528D02*
D03*
X576772Y424803D02*
D03*
X571654D02*
D03*
X566535D02*
D03*
X525591D02*
D03*
X530709D02*
D03*
X535827D02*
D03*
X485039D02*
D03*
X490158D02*
D03*
X495276D02*
D03*
X495669Y329921D02*
D03*
X490551D02*
D03*
X485433D02*
D03*
X536221D02*
D03*
X531102D02*
D03*
X525984D02*
D03*
X566929D02*
D03*
X572047D02*
D03*
X577165D02*
D03*
X396457Y330315D02*
D03*
X391151Y330249D02*
D03*
X386221Y330315D02*
D03*
X381103Y330394D02*
D03*
X376032Y430691D02*
D03*
X381103Y430788D02*
D03*
X386221Y430709D02*
D03*
X391151Y430643D02*
D03*
X396457Y430709D02*
D03*
X379382Y356061D02*
D03*
X379528Y359842D02*
D03*
X391339Y366929D02*
D03*
X391732Y359842D02*
D03*
X396457Y355906D02*
D03*
X365354Y312992D02*
D03*
Y315354D02*
D03*
X395669Y371260D02*
D03*
X401575Y370866D02*
D03*
X405118Y389764D02*
D03*
X397244Y385827D02*
D03*
X375590Y389764D02*
D03*
X396457Y374410D02*
D03*
X387008Y394488D02*
D03*
X378510Y397801D02*
D03*
X381890Y401181D02*
D03*
X373721Y452795D02*
D03*
X378720D02*
D03*
X383720D02*
D03*
X388720D02*
D03*
X393721D02*
D03*
X398721D02*
D03*
X373622Y328327D02*
D03*
X378740D02*
D03*
X383720Y321654D02*
D03*
X388720D02*
D03*
X393721D02*
D03*
X398721Y321654D02*
D03*
X370866Y444488D02*
D03*
X401575D02*
D03*
Y300000D02*
D03*
X370866D02*
D03*
X361024Y378346D02*
D03*
X362992Y382677D02*
D03*
X361811Y337795D02*
D03*
X356299Y315354D02*
D03*
X355118Y319291D02*
D03*
X417717Y396457D02*
D03*
X401777Y389754D02*
D03*
X403543Y360630D02*
D03*
Y363779D02*
D03*
X405930Y376146D02*
D03*
X405905Y373622D02*
D03*
Y378740D02*
D03*
X411811Y393701D02*
D03*
X430315Y318504D02*
D03*
X424409Y315748D02*
D03*
X430315Y413386D02*
D03*
X424016Y410630D02*
D03*
X599606Y433858D02*
D03*
X426673Y435138D02*
D03*
X559055Y433858D02*
D03*
X432185Y431595D02*
D03*
X518504Y433858D02*
D03*
X435433Y428346D02*
D03*
X477953Y433858D02*
D03*
X437402Y426378D02*
D03*
X455118Y414961D02*
D03*
X435433Y424409D02*
D03*
X495669Y414961D02*
D03*
X437402Y422441D02*
D03*
X536221Y414961D02*
D03*
X435433Y420472D02*
D03*
X576772Y414961D02*
D03*
X432185Y417224D02*
D03*
X437402Y327559D02*
D03*
X426673Y340256D02*
D03*
X435433Y333465D02*
D03*
X432185Y336713D02*
D03*
Y322342D02*
D03*
X435433Y325591D02*
D03*
X437402Y331496D02*
D03*
X435433Y329528D02*
D03*
X455118Y320079D02*
D03*
X495669D02*
D03*
X536221D02*
D03*
X576772D02*
D03*
X599606Y338976D02*
D03*
X559055D02*
D03*
X518504D02*
D03*
X477953D02*
D03*
D72*
X436614Y446457D02*
D03*
D73*
X600000Y458268D02*
D03*
X559449D02*
D03*
X518898D02*
D03*
X478346D02*
D03*
X577165Y390551D02*
D03*
X536614D02*
D03*
X496063D02*
D03*
X455512D02*
D03*
X600000Y363386D02*
D03*
X559449D02*
D03*
X518898D02*
D03*
X478346D02*
D03*
X455512Y295669D02*
D03*
X496063D02*
D03*
X536614D02*
D03*
X577165D02*
D03*
D74*
X422539Y426575D02*
D03*
X426870D02*
D03*
X422539Y422244D02*
D03*
X426870D02*
D03*
X415748Y374410D02*
D03*
X415748Y378740D02*
D03*
X415748Y383071D02*
D03*
X420079Y374410D02*
D03*
Y378740D02*
D03*
Y383071D02*
D03*
X424409Y374410D02*
D03*
X424409Y378740D02*
D03*
X424409Y383071D02*
D03*
X422539Y331693D02*
D03*
X426870D02*
D03*
X422539Y327362D02*
D03*
X426870D02*
D03*
D75*
X379035Y381102D02*
D03*
X383760D02*
D03*
X379035Y376378D02*
D03*
X383760D02*
D03*
M02*
