G04*
G04 #@! TF.GenerationSoftware,Altium Limited,Altium Designer,20.0.9 (164)*
G04*
G04 Layer_Color=65535*
%FSLAX25Y25*%
%MOIN*%
G70*
G01*
G75*
%ADD10C,0.00787*%
%ADD11C,0.00984*%
%ADD12C,0.00394*%
%ADD13C,0.01000*%
G36*
X390551Y290551D02*
X381890D01*
Y293701D01*
X390551D01*
Y290551D01*
D02*
G37*
G36*
X390551Y435039D02*
X381890D01*
Y438189D01*
X390551D01*
Y435039D01*
D02*
G37*
D10*
X378740Y417323D02*
G03*
X378740Y417323I-9843J0D01*
G01*
Y349213D02*
G03*
X378740Y349213I-9843J0D01*
G01*
X370472Y438189D02*
X403150D01*
X338976Y336221D02*
Y353543D01*
X348819D01*
Y343307D02*
Y353543D01*
X370472Y293701D02*
X403150D01*
X348819Y292126D02*
Y343307D01*
X338976Y292126D02*
X348819D01*
X338976D02*
Y336221D01*
Y292126D02*
X341339D01*
X416043Y430413D02*
Y433071D01*
X418701D01*
X430709D02*
X433366D01*
Y430413D02*
Y433071D01*
Y415748D02*
Y418405D01*
X430709Y415748D02*
X433366D01*
X416043D02*
Y418405D01*
Y415748D02*
X418701D01*
X407677Y388583D02*
Y391142D01*
X410236Y391142D01*
X407677Y366339D02*
X407677Y368898D01*
X407677Y366339D02*
X410236Y366339D01*
X429921Y366339D02*
X432480D01*
X432480Y368898D02*
X432480Y366339D01*
Y388583D02*
Y391142D01*
X429921D02*
X432480D01*
X416043Y335531D02*
Y338189D01*
X418701D01*
X430709D02*
X433366D01*
Y335531D02*
Y338189D01*
Y320866D02*
Y323524D01*
X430709Y320866D02*
X433366D01*
X416043D02*
Y323524D01*
Y320866D02*
X418701D01*
X576378Y463976D02*
X576772D01*
X576378Y468307D02*
X576772D01*
X535827Y463976D02*
X536221D01*
X535827Y468307D02*
X536221D01*
X495276Y463976D02*
X495669D01*
X495276Y468307D02*
X495669D01*
X454724Y463976D02*
X455118D01*
X454724Y468307D02*
X455118D01*
X485039Y384842D02*
X485433D01*
X485039Y380512D02*
X485433D01*
X525591Y384842D02*
X525984D01*
X525591Y380512D02*
X525984D01*
X566142Y384842D02*
X566535D01*
X566142Y380512D02*
X566535D01*
X606693Y384842D02*
X607087D01*
X606693Y380512D02*
X607087D01*
X585039Y423819D02*
X585433D01*
X585039Y428150D02*
X585433D01*
X544488Y423819D02*
X544882D01*
X544488Y428150D02*
X544882D01*
X503937Y423819D02*
X504331D01*
X503937Y428150D02*
X504331D01*
X463386Y423819D02*
X463779D01*
X463386Y428150D02*
X463779D01*
X476378Y425000D02*
X476772D01*
X476378Y420669D02*
X476772D01*
X516929Y425000D02*
X517323D01*
X516929Y420669D02*
X517323D01*
X557480Y425000D02*
X557874D01*
X557480Y420669D02*
X557874D01*
X598032Y425000D02*
X598425D01*
X598032Y420669D02*
X598425D01*
X626201Y373294D02*
X656701D01*
X626201Y334894D02*
X656701D01*
X626201D02*
Y373294D01*
X656701Y334894D02*
Y373294D01*
X338701Y398937D02*
X348701D01*
X338701D02*
Y438937D01*
X348701Y398937D02*
Y438937D01*
X338701D02*
X348701D01*
X338701Y357598D02*
X348701D01*
X338701D02*
Y397598D01*
X348701Y357598D02*
Y397598D01*
X338701D02*
X348701D01*
X626201Y333610D02*
X656701D01*
X626201Y295210D02*
X656701D01*
X626201D02*
Y333610D01*
X656701Y295210D02*
Y333610D01*
X626594Y459515D02*
X657094D01*
X626594Y421115D02*
X657094D01*
X626594D02*
Y459515D01*
X657094Y421115D02*
Y459515D01*
X626594Y419830D02*
X657094D01*
X626594Y381430D02*
X657094D01*
X626594D02*
Y419830D01*
X657094Y381430D02*
Y419830D01*
X353150Y327362D02*
Y330906D01*
X365748Y327362D02*
Y330906D01*
X353150Y327362D02*
X365748Y327362D01*
X353150Y330906D02*
X365748Y330906D01*
X576378Y369094D02*
X576772Y369094D01*
X576378Y373425D02*
X576772D01*
X585039Y328937D02*
X585433Y328937D01*
X585039Y333268D02*
X585433D01*
X535827Y369094D02*
X536220D01*
X535827Y373425D02*
X536220D01*
X544488Y328937D02*
X544882D01*
X544488Y333268D02*
X544882D01*
X495276Y369094D02*
X495669D01*
X495276Y373425D02*
X495669D01*
X503937Y328937D02*
X504331D01*
X503937Y333268D02*
X504331D01*
X454724Y369094D02*
X455118Y369094D01*
X454724Y373425D02*
X455118D01*
X463386Y328937D02*
X463779D01*
X463386Y333268D02*
X463779D01*
X485039Y289961D02*
X485433D01*
X485039Y285630D02*
X485433D01*
X476378Y330118D02*
X476772Y330118D01*
X476378Y325787D02*
X476772D01*
X525591Y289961D02*
X525984D01*
X525591Y285630D02*
X525984D01*
X516929Y330118D02*
X517323D01*
X516929Y325787D02*
X517323D01*
X566142Y289961D02*
X566535D01*
X566142Y285630D02*
X566535D01*
X557480Y330118D02*
X557874D01*
X557480Y325787D02*
X557874D01*
X606693Y289961D02*
X607087D01*
X606693Y285630D02*
X607087D01*
X598032Y330118D02*
X598425D01*
X598032Y325787D02*
X598425D01*
X368702Y428346D02*
Y432282D01*
X366734Y430314D02*
X370670D01*
X369093Y338189D02*
Y334253D01*
X371061Y336221D02*
X367126D01*
D11*
X413976Y432480D02*
G03*
X413976Y432480I-492J0D01*
G01*
X432382Y393701D02*
G03*
X432382Y393701I-492J0D01*
G01*
X413976Y337598D02*
G03*
X413976Y337598I-492J0D01*
G01*
X391043Y370866D02*
G03*
X391043Y370866I-492J0D01*
G01*
X366929Y334055D02*
G03*
X366929Y334055I-492J0D01*
G01*
D12*
X605512Y457874D02*
X607874D01*
X592913D02*
X600787D01*
X584252D02*
X588189D01*
X575591D02*
X579528D01*
X568504D02*
X570866D01*
X568504Y434252D02*
X570866D01*
X575591D02*
X579528D01*
X584252D02*
X588189D01*
X592913D02*
X600787D01*
X605512D02*
X607874D01*
X568504D02*
Y457874D01*
X590551Y438189D02*
Y444095D01*
X584252D02*
X590551D01*
X581890Y438189D02*
Y440551D01*
X583521Y444465D01*
X573622Y438189D02*
Y444095D01*
X580315D01*
X573622Y448032D02*
X580315D01*
X573622D02*
Y453937D01*
X581890Y451575D02*
X583521Y447661D01*
X581890Y451575D02*
Y453937D01*
X584252Y448032D02*
X590551D01*
Y453937D01*
X603150Y438189D02*
Y440158D01*
X601968Y452756D02*
X604331D01*
X603150Y451575D02*
Y453937D01*
X607874Y434252D02*
Y457874D01*
X564961Y457874D02*
X567323D01*
X552362D02*
X560236D01*
X543701D02*
X547638D01*
X535039D02*
X538976D01*
X527953D02*
X530315D01*
X527953Y434252D02*
X530315D01*
X535039D02*
X538976D01*
X543701D02*
X547638D01*
X552362D02*
X560236D01*
X564961D02*
X567323D01*
X527953D02*
Y457874D01*
X550000Y438189D02*
Y444095D01*
X543701D02*
X550000D01*
X541339Y438189D02*
Y440551D01*
X542969Y444465D01*
X533071Y438189D02*
Y444095D01*
X539764D01*
X533071Y448032D02*
X539764D01*
X533071D02*
Y453937D01*
X541339Y451575D02*
X542969Y447661D01*
X541339Y451575D02*
Y453937D01*
X543701Y448032D02*
X550000D01*
Y453937D01*
X562598Y438189D02*
Y440158D01*
X561417Y452756D02*
X563779D01*
X562598Y451575D02*
Y453937D01*
X567323Y434252D02*
Y457874D01*
X524409Y457874D02*
X526772D01*
X511811D02*
X519685D01*
X503150D02*
X507087D01*
X494488D02*
X498425D01*
X487402D02*
X489764D01*
X487402Y434252D02*
X489764D01*
X494488D02*
X498425D01*
X503150D02*
X507087D01*
X511811D02*
X519685D01*
X524409D02*
X526772D01*
X487402D02*
Y457874D01*
X509449Y438189D02*
Y444095D01*
X503150D02*
X509449D01*
X500787Y438189D02*
Y440551D01*
X502418Y444465D01*
X492520Y438189D02*
Y444095D01*
X499213D01*
X492520Y448032D02*
X499213D01*
X492520D02*
Y453937D01*
X500787Y451575D02*
X502418Y447661D01*
X500787Y451575D02*
Y453937D01*
X503150Y448032D02*
X509449D01*
Y453937D01*
X522047Y438189D02*
Y440158D01*
X520866Y452756D02*
X523228D01*
X522047Y451575D02*
Y453937D01*
X526772Y434252D02*
Y457874D01*
X483858Y457874D02*
X486221D01*
X471260D02*
X479134D01*
X462598D02*
X466535D01*
X453937D02*
X457874D01*
X446850D02*
X449213D01*
X446850Y434252D02*
X449213D01*
X453937D02*
X457874D01*
X462598D02*
X466535D01*
X471260D02*
X479134D01*
X483858D02*
X486221D01*
X446850D02*
Y457874D01*
X468898Y438189D02*
Y444095D01*
X462598D02*
X468898D01*
X460236Y438189D02*
Y440551D01*
X461867Y444465D01*
X451968Y438189D02*
Y444095D01*
X458661D01*
X451968Y448032D02*
X458661D01*
X451968D02*
Y453937D01*
X460236Y451575D02*
X461867Y447661D01*
X460236Y451575D02*
Y453937D01*
X462598Y448032D02*
X468898D01*
Y453937D01*
X481496Y438189D02*
Y440158D01*
X480315Y452756D02*
X482677D01*
X481496Y451575D02*
Y453937D01*
X486221Y434252D02*
Y457874D01*
X453937Y390945D02*
X456299D01*
X461024D02*
X468898D01*
X473622D02*
X477559D01*
X482283D02*
X486221D01*
X490945D02*
X493307D01*
X490945Y414567D02*
X493307D01*
X482283D02*
X486221D01*
X473622D02*
X477559D01*
X461024D02*
X468898D01*
X453937D02*
X456299D01*
X493307Y390945D02*
Y414567D01*
X471260Y404724D02*
Y410630D01*
Y404724D02*
X477559D01*
X479921Y408268D02*
Y410630D01*
X478291Y404354D02*
X479921Y408268D01*
X488189Y404724D02*
Y410630D01*
X481496Y404724D02*
X488189D01*
X481496Y400787D02*
X488189D01*
Y394882D02*
Y400787D01*
X478291Y401158D02*
X479921Y397244D01*
Y394882D02*
Y397244D01*
X471260Y400787D02*
X477559D01*
X471260Y394882D02*
Y400787D01*
X458661Y408661D02*
Y410630D01*
X457480Y396063D02*
X459842D01*
X458661Y394882D02*
Y397244D01*
X453937Y390945D02*
Y414567D01*
X494488Y390945D02*
X496850D01*
X501575D02*
X509449D01*
X514173D02*
X518110D01*
X522835D02*
X526772D01*
X531496D02*
X533858D01*
X531496Y414567D02*
X533858D01*
X522835D02*
X526772D01*
X514173D02*
X518110D01*
X501575D02*
X509449D01*
X494488D02*
X496850D01*
X533858Y390945D02*
Y414567D01*
X511811Y404724D02*
Y410630D01*
Y404724D02*
X518110D01*
X520472Y408268D02*
Y410630D01*
X518842Y404354D02*
X520472Y408268D01*
X528740Y404724D02*
Y410630D01*
X522047Y404724D02*
X528740D01*
X522047Y400787D02*
X528740D01*
Y394882D02*
Y400787D01*
X518842Y401158D02*
X520472Y397244D01*
Y394882D02*
Y397244D01*
X511811Y400787D02*
X518110D01*
X511811Y394882D02*
Y400787D01*
X499213Y408661D02*
Y410630D01*
X498032Y396063D02*
X500394D01*
X499213Y394882D02*
Y397244D01*
X494488Y390945D02*
Y414567D01*
X535039Y390945D02*
X537402D01*
X542126D02*
X550000D01*
X554724D02*
X558661D01*
X563386D02*
X567323D01*
X572047D02*
X574409D01*
X572047Y414567D02*
X574409D01*
X563386D02*
X567323D01*
X554724D02*
X558661D01*
X542126D02*
X550000D01*
X535039D02*
X537402D01*
X574409Y390945D02*
Y414567D01*
X552362Y404724D02*
Y410630D01*
Y404724D02*
X558661D01*
X561024Y408268D02*
Y410630D01*
X559393Y404354D02*
X561024Y408268D01*
X569291Y404724D02*
Y410630D01*
X562598Y404724D02*
X569291D01*
X562598Y400787D02*
X569291D01*
Y394882D02*
Y400787D01*
X559393Y401158D02*
X561024Y397244D01*
Y394882D02*
Y397244D01*
X552362Y400787D02*
X558661D01*
X552362Y394882D02*
Y400787D01*
X539764Y408661D02*
Y410630D01*
X538583Y396063D02*
X540945D01*
X539764Y394882D02*
Y397244D01*
X535039Y390945D02*
Y414567D01*
X575591Y390945D02*
X577953D01*
X582677D02*
X590551D01*
X595276D02*
X599213D01*
X603937D02*
X607874D01*
X612598D02*
X614961D01*
X612598Y414567D02*
X614961D01*
X603937D02*
X607874D01*
X595276D02*
X599213D01*
X582677D02*
X590551D01*
X575591D02*
X577953D01*
X614961Y390945D02*
Y414567D01*
X592913Y404724D02*
Y410630D01*
Y404724D02*
X599213D01*
X601575Y408268D02*
Y410630D01*
X599944Y404354D02*
X601575Y408268D01*
X609842Y404724D02*
Y410630D01*
X603150Y404724D02*
X609842D01*
X603150Y400787D02*
X609842D01*
Y394882D02*
Y400787D01*
X599944Y401158D02*
X601575Y397244D01*
Y394882D02*
Y397244D01*
X592913Y400787D02*
X599213D01*
X592913Y394882D02*
Y400787D01*
X580315Y408661D02*
Y410630D01*
X579134Y396063D02*
X581496D01*
X580315Y394882D02*
Y397244D01*
X575591Y390945D02*
Y414567D01*
Y296063D02*
X577953D01*
X582677D02*
X590551D01*
X595276D02*
X599213D01*
X603937D02*
X607874D01*
X612598D02*
X614961D01*
X612598Y319685D02*
X614961D01*
X603937D02*
X607874D01*
X595276D02*
X599213D01*
X582677D02*
X590551D01*
X575591D02*
X577953D01*
X614961Y296063D02*
Y319685D01*
X592913Y309842D02*
Y315748D01*
Y309842D02*
X599213D01*
X601575Y313386D02*
Y315748D01*
X599944Y309472D02*
X601575Y313386D01*
X609842Y309842D02*
Y315748D01*
X603150Y309842D02*
X609842D01*
X603150Y305906D02*
X609842D01*
Y300000D02*
Y305906D01*
X599944Y306276D02*
X601575Y302362D01*
Y300000D02*
Y302362D01*
X592913Y305906D02*
X599213D01*
X592913Y300000D02*
Y305906D01*
X580315Y313779D02*
Y315748D01*
X579134Y301181D02*
X581496D01*
X580315Y300000D02*
Y302362D01*
X575591Y296063D02*
Y319685D01*
X535039Y296063D02*
X537402D01*
X542126D02*
X550000D01*
X554724D02*
X558661D01*
X563386D02*
X567323D01*
X572047D02*
X574409D01*
X572047Y319685D02*
X574409D01*
X563386D02*
X567323D01*
X554724D02*
X558661D01*
X542126D02*
X550000D01*
X535039D02*
X537402D01*
X574409Y296063D02*
Y319685D01*
X552362Y309842D02*
Y315748D01*
Y309842D02*
X558661D01*
X561024Y313386D02*
Y315748D01*
X559393Y309472D02*
X561024Y313386D01*
X569291Y309842D02*
Y315748D01*
X562598Y309842D02*
X569291D01*
X562598Y305906D02*
X569291D01*
Y300000D02*
Y305906D01*
X559393Y306276D02*
X561024Y302362D01*
Y300000D02*
Y302362D01*
X552362Y305906D02*
X558661D01*
X552362Y300000D02*
Y305906D01*
X539764Y313779D02*
Y315748D01*
X538583Y301181D02*
X540945D01*
X539764Y300000D02*
Y302362D01*
X535039Y296063D02*
Y319685D01*
X494488Y296063D02*
X496850D01*
X501575D02*
X509449D01*
X514173D02*
X518110D01*
X522835D02*
X526772D01*
X531496D02*
X533858D01*
X531496Y319685D02*
X533858D01*
X522835D02*
X526772D01*
X514173D02*
X518110D01*
X501575D02*
X509449D01*
X494488D02*
X496850D01*
X533858Y296063D02*
Y319685D01*
X511811Y309842D02*
Y315748D01*
Y309842D02*
X518110D01*
X520472Y313386D02*
Y315748D01*
X518842Y309472D02*
X520472Y313386D01*
X528740Y309842D02*
Y315748D01*
X522047Y309842D02*
X528740D01*
X522047Y305906D02*
X528740D01*
Y300000D02*
Y305906D01*
X518842Y306276D02*
X520472Y302362D01*
Y300000D02*
Y302362D01*
X511811Y305906D02*
X518110D01*
X511811Y300000D02*
Y305906D01*
X499213Y313779D02*
Y315748D01*
X498032Y301181D02*
X500394D01*
X499213Y300000D02*
Y302362D01*
X494488Y296063D02*
Y319685D01*
X453937Y296063D02*
X456299D01*
X461024D02*
X468898D01*
X473622D02*
X477559D01*
X482283D02*
X486221D01*
X490945D02*
X493307D01*
X490945Y319685D02*
X493307D01*
X482283D02*
X486221D01*
X473622D02*
X477559D01*
X461024D02*
X468898D01*
X453937D02*
X456299D01*
X493307Y296063D02*
Y319685D01*
X471260Y309842D02*
Y315748D01*
Y309842D02*
X477559D01*
X479921Y313386D02*
Y315748D01*
X478291Y309472D02*
X479921Y313386D01*
X488189Y309842D02*
Y315748D01*
X481496Y309842D02*
X488189D01*
X481496Y305906D02*
X488189D01*
Y300000D02*
Y305906D01*
X478291Y306276D02*
X479921Y302362D01*
Y300000D02*
Y302362D01*
X471260Y305906D02*
X477559D01*
X471260Y300000D02*
Y305906D01*
X458661Y313779D02*
Y315748D01*
X457480Y301181D02*
X459842D01*
X458661Y300000D02*
Y302362D01*
X453937Y296063D02*
Y319685D01*
X483858Y362992D02*
X486221D01*
X471260Y362992D02*
X479134Y362992D01*
X462598Y362992D02*
X466535D01*
X453937D02*
X457874D01*
X446850Y362992D02*
X449213D01*
X446850Y339370D02*
X449213Y339370D01*
X453937D02*
X457874D01*
X462598D02*
X466535D01*
X471260D02*
X479134Y339370D01*
X483858Y339370D02*
X486221Y339370D01*
X446850D02*
Y362992D01*
X468898Y343307D02*
Y349213D01*
X462598D02*
X468898D01*
X460236Y343307D02*
Y345669D01*
X461867Y349583D01*
X451968Y343307D02*
Y349213D01*
X458661D01*
X451968Y353150D02*
X458661D01*
X451968D02*
Y359055D01*
X460236Y356693D02*
X461867Y352779D01*
X460236Y356693D02*
Y359055D01*
X462598Y353150D02*
X468898D01*
Y359055D01*
X481496Y343307D02*
Y345276D01*
X480315Y357874D02*
X482677D01*
X481496Y356693D02*
X481496Y359055D01*
X486221Y339370D02*
Y362992D01*
X524409D02*
X526772Y362992D01*
X511811D02*
X519685D01*
X503150D02*
X507087D01*
X494488D02*
X498425D01*
X487402Y362992D02*
X489764D01*
X487402Y339370D02*
X489764Y339370D01*
X494488Y339370D02*
X498425D01*
X503150D02*
X507087D01*
X511811D02*
X519685D01*
X524409Y339370D02*
X526772Y339370D01*
X487402D02*
Y362992D01*
X509449Y343307D02*
X509449Y349213D01*
X503150D02*
X509449D01*
X500787Y343307D02*
Y345669D01*
X502418Y349583D01*
X492520Y343307D02*
X492520Y349213D01*
X499213D01*
X492520Y353150D02*
X499213D01*
X492520D02*
Y359055D01*
X500787Y356693D02*
X502418Y352779D01*
X500787Y356693D02*
Y359055D01*
X503150Y353150D02*
X509449D01*
X509449Y359055D02*
X509449Y353150D01*
X522047Y343307D02*
Y345276D01*
X520866Y357874D02*
X523228Y357874D01*
X522047Y356693D02*
X522047Y359055D01*
X526772Y339370D02*
X526772Y362992D01*
X564961D02*
X567323Y362992D01*
X552362Y362992D02*
X560236Y362992D01*
X543701Y362992D02*
X547638D01*
X535039D02*
X538976D01*
X527953Y362992D02*
X530315D01*
X527953Y339370D02*
X530315Y339370D01*
X535039D02*
X538976D01*
X543701D02*
X547638D01*
X552362D02*
X560236Y339370D01*
X564961Y339370D02*
X567323Y339370D01*
X527953D02*
Y362992D01*
X550000Y343307D02*
Y349213D01*
X543701D02*
X550000D01*
X541339Y345669D02*
X541339Y343307D01*
X541339Y345669D02*
X542969Y349583D01*
X533071Y349213D02*
X533071Y343307D01*
X533071Y349213D02*
X539764D01*
X533071Y353150D02*
X539764D01*
X533071D02*
Y359055D01*
X541339Y356693D02*
X542969Y352779D01*
X541339Y359055D02*
X541339Y356693D01*
X543701Y353150D02*
X550000D01*
Y359055D01*
X562598Y343307D02*
Y345276D01*
X561417Y357874D02*
X563779D01*
X562598Y356693D02*
Y359055D01*
X567323Y339370D02*
Y362992D01*
X605512D02*
X607874D01*
X592913Y362992D02*
X600787Y362992D01*
X584252Y362992D02*
X588189D01*
X575591D02*
X579528D01*
X568504Y362992D02*
X570866D01*
X568504Y339370D02*
X570866Y339370D01*
X575591Y339370D02*
X579528D01*
X584252D02*
X588189D01*
X592913D02*
X600787D01*
X605512D02*
X607874D01*
X568504D02*
Y362992D01*
X590551Y343307D02*
Y349213D01*
X584252D02*
X590551D01*
X581890Y343307D02*
Y345669D01*
X583521Y349583D01*
X573622Y349213D02*
X573622Y343307D01*
X573622Y349213D02*
X580315D01*
X573622Y353150D02*
X580315D01*
X573622D02*
Y359055D01*
X581890Y356693D02*
X583521Y352779D01*
X581890Y356693D02*
Y359055D01*
X584252Y353150D02*
X590551D01*
X590551Y359055D02*
X590551Y353150D01*
X603150Y343307D02*
Y345276D01*
X601968Y357874D02*
X604331Y357874D01*
X603150Y356693D02*
X603150Y359055D01*
X607874Y339370D02*
Y362992D01*
D13*
X623016Y386433D02*
X620392D01*
X619080Y387745D01*
X620392Y389057D01*
X623016D01*
X621048D01*
Y386433D01*
X619736Y392993D02*
X619080Y392337D01*
Y391025D01*
X619736Y390369D01*
X622360D01*
X623016Y391025D01*
Y392337D01*
X622360Y392993D01*
X621048D01*
Y391681D01*
X623016Y394305D02*
X619080D01*
X623016Y396928D01*
X619080D01*
Y398240D02*
X623016D01*
Y400208D01*
X622360Y400864D01*
X619736D01*
X619080Y400208D01*
Y398240D01*
X351626Y361104D02*
X350970Y360448D01*
Y359136D01*
X351626Y358480D01*
X354250D01*
X354906Y359136D01*
Y360448D01*
X354250Y361104D01*
X352938D01*
Y359792D01*
Y366352D02*
Y368976D01*
X351626Y367664D02*
X354250D01*
X350970Y372911D02*
Y370287D01*
X352938D01*
X352282Y371599D01*
Y372255D01*
X352938Y372911D01*
X354250D01*
X354906Y372255D01*
Y370943D01*
X354250Y370287D01*
X352938Y378159D02*
Y380783D01*
X351626Y379471D02*
X354250D01*
X354906Y382095D02*
Y383407D01*
Y382751D01*
X350970D01*
X351626Y382095D01*
X354906Y387998D02*
Y385374D01*
X352282Y387998D01*
X351626D01*
X350970Y387342D01*
Y386031D01*
X351626Y385374D01*
Y395870D02*
X350970Y395214D01*
Y393902D01*
X351626Y393246D01*
X354250D01*
X354906Y393902D01*
Y395214D01*
X354250Y395870D01*
X352938D01*
Y394558D01*
X623016Y357299D02*
X620392D01*
X619080Y358611D01*
X620392Y359923D01*
X623016D01*
X621048D01*
Y357299D01*
X623016Y363859D02*
Y361235D01*
X620392Y363859D01*
X619736D01*
X619080Y363203D01*
Y361891D01*
X619736Y361235D01*
X351626Y402443D02*
X350970Y401787D01*
Y400475D01*
X351626Y399819D01*
X354250D01*
X354906Y400475D01*
Y401787D01*
X354250Y402443D01*
X352938D01*
Y401131D01*
Y407690D02*
Y410314D01*
X351626Y409002D02*
X354250D01*
X350970Y414250D02*
Y411626D01*
X352938D01*
X352282Y412938D01*
Y413594D01*
X352938Y414250D01*
X354250D01*
X354906Y413594D01*
Y412282D01*
X354250Y411626D01*
X352938Y419498D02*
Y422121D01*
X351626Y420810D02*
X354250D01*
X354906Y423433D02*
Y424745D01*
Y424089D01*
X350970D01*
X351626Y423433D01*
X354906Y429337D02*
Y426713D01*
X352282Y429337D01*
X351626D01*
X350970Y428681D01*
Y427369D01*
X351626Y426713D01*
Y437208D02*
X350970Y436552D01*
Y435241D01*
X351626Y434585D01*
X354250D01*
X354906Y435241D01*
Y436552D01*
X354250Y437208D01*
X352938D01*
Y435896D01*
X341915Y446276D02*
X344538D01*
X345850Y447587D01*
X344538Y448899D01*
X341915D01*
X345850Y450211D02*
Y451523D01*
Y450867D01*
X341915D01*
X342571Y450211D01*
X345850Y453491D02*
X345195D01*
Y454147D01*
X345850D01*
Y453491D01*
X342571Y456771D02*
X341915Y457427D01*
Y458739D01*
X342571Y459395D01*
X345195D01*
X345850Y458739D01*
Y457427D01*
X345195Y456771D01*
X342571D01*
X619736Y320159D02*
X619080Y319503D01*
Y318191D01*
X619736Y317535D01*
X622360D01*
X623016Y318191D01*
Y319503D01*
X622360Y320159D01*
X623016Y324095D02*
Y321471D01*
X620392Y324095D01*
X619736D01*
X619080Y323439D01*
Y322127D01*
X619736Y321471D01*
X623016Y291945D02*
X620392D01*
X619080Y293257D01*
X620392Y294569D01*
X623016D01*
X621048D01*
Y291945D01*
X619736Y298504D02*
X619080Y297849D01*
Y296537D01*
X619736Y295881D01*
X622360D01*
X623016Y296537D01*
Y297849D01*
X622360Y298504D01*
X621048D01*
Y297193D01*
X623016Y299816D02*
X619080D01*
X623016Y302440D01*
X619080D01*
Y303752D02*
X623016D01*
Y305720D01*
X622360Y306376D01*
X619736D01*
X619080Y305720D01*
Y303752D01*
X619736Y414647D02*
X619080Y413991D01*
Y412680D01*
X619736Y412024D01*
X622360D01*
X623016Y412680D01*
Y413991D01*
X622360Y414647D01*
X623016Y415959D02*
Y417271D01*
Y416615D01*
X619080D01*
X619736Y415959D01*
X405694Y438008D02*
X409630D01*
Y439976D01*
X408974Y440632D01*
X406350D01*
X405694Y439976D01*
Y438008D01*
X409630Y441944D02*
X407006D01*
X405694Y443256D01*
X407006Y444567D01*
X409630D01*
X407662D01*
Y441944D01*
X405694Y445879D02*
Y448503D01*
Y447191D01*
X409630D01*
Y449815D02*
X407006D01*
X405694Y451127D01*
X407006Y452439D01*
X409630D01*
X407662D01*
Y449815D01*
X405694Y457687D02*
Y458998D01*
Y458343D01*
X409630D01*
Y457687D01*
Y458998D01*
Y460966D02*
X405694D01*
X409630Y463590D01*
X405694D01*
X619080Y431709D02*
X623016D01*
Y433676D01*
X622360Y434333D01*
X621704D01*
X621048Y433676D01*
Y431709D01*
Y433676D01*
X620392Y434333D01*
X619736D01*
X619080Y433676D01*
Y431709D01*
X623016Y435644D02*
Y436956D01*
Y436300D01*
X619080D01*
X619736Y435644D01*
X623016Y451787D02*
X620392D01*
X619080Y453099D01*
X620392Y454411D01*
X623016D01*
X621048D01*
Y451787D01*
X623016Y455723D02*
Y457035D01*
Y456379D01*
X619080D01*
X619736Y455723D01*
X404907Y293126D02*
X408843D01*
Y295094D01*
X408186Y295750D01*
X405563D01*
X404907Y295094D01*
Y293126D01*
X408843Y297062D02*
X406219D01*
X404907Y298374D01*
X406219Y299686D01*
X408843D01*
X406875D01*
Y297062D01*
X404907Y300997D02*
Y303621D01*
Y302309D01*
X408843D01*
Y304933D02*
X406219D01*
X404907Y306245D01*
X406219Y307557D01*
X408843D01*
X406875D01*
Y304933D01*
X404907Y314773D02*
Y313461D01*
X405563Y312805D01*
X408186D01*
X408843Y313461D01*
Y314773D01*
X408186Y315428D01*
X405563D01*
X404907Y314773D01*
Y316740D02*
X408186D01*
X408843Y317396D01*
Y318708D01*
X408186Y319364D01*
X404907D01*
Y320676D02*
Y323300D01*
Y321988D01*
X408843D01*
X341915Y295488D02*
X345194D01*
X345850Y296144D01*
Y297456D01*
X345194Y298112D01*
X341915D01*
X345850Y299424D02*
X341915D01*
X345850Y302048D01*
X341915D01*
Y303360D02*
Y304672D01*
Y304016D01*
X345850D01*
Y303360D01*
Y304672D01*
Y306640D02*
X341915D01*
Y308607D01*
X342571Y309263D01*
X343882D01*
X344538Y308607D01*
Y306640D01*
Y307951D02*
X345850Y309263D01*
X341915Y313199D02*
Y310575D01*
X345850D01*
Y313199D01*
X343882Y310575D02*
Y311887D01*
X341915Y314511D02*
X345850D01*
Y317135D01*
X343882Y318447D02*
Y321071D01*
X345850Y322382D02*
X341915D01*
Y324350D01*
X342571Y325006D01*
X343882D01*
X344538Y324350D01*
Y322382D01*
X341915Y328286D02*
Y326974D01*
X342571Y326318D01*
X345194D01*
X345850Y326974D01*
Y328286D01*
X345194Y328942D01*
X342571D01*
X341915Y328286D01*
Y330254D02*
Y332878D01*
Y331566D01*
X345850D01*
Y338125D02*
X341915D01*
X343227Y339437D01*
X341915Y340749D01*
X345850D01*
X341915Y342061D02*
Y343373D01*
Y342717D01*
X345850D01*
Y342061D01*
Y343373D01*
Y345341D02*
X341915D01*
X345850Y347965D01*
X341915D01*
Y349277D02*
Y350588D01*
Y349933D01*
X345850D01*
Y349277D01*
Y350588D01*
X366091Y478690D02*
X364779Y480002D01*
Y481314D01*
X366091Y482626D01*
X370683Y481314D02*
X368715D01*
X368059Y480658D01*
Y479346D01*
X368715Y478690D01*
X370683D01*
X371995D02*
X373307Y480002D01*
Y481314D01*
X371995Y482626D01*
X379211D02*
Y478690D01*
X381178D01*
X381834Y479346D01*
Y481970D01*
X381178Y482626D01*
X379211D01*
X383146Y478690D02*
X384458D01*
X383802D01*
Y481314D01*
X383146D01*
X386426Y478690D02*
X388394D01*
X389050Y479346D01*
X388394Y480002D01*
X387082D01*
X386426Y480658D01*
X387082Y481314D01*
X389050D01*
X391018Y481970D02*
Y481314D01*
X390362D01*
X391674D01*
X391018D01*
Y479346D01*
X391674Y478690D01*
X394298D02*
X395609D01*
X396265Y479346D01*
Y480658D01*
X395609Y481314D01*
X394298D01*
X393642Y480658D01*
Y479346D01*
X394298Y478690D01*
X397577Y477378D02*
Y481314D01*
X399545D01*
X400201Y480658D01*
Y479346D01*
X399545Y478690D01*
X397577D01*
X401513D02*
X402825D01*
X402169D01*
Y481314D01*
X401513D01*
X404793Y478690D02*
Y482626D01*
Y480002D02*
X406761Y481314D01*
X404793Y480002D02*
X406761Y478690D01*
X412664Y482626D02*
Y478690D01*
X415288D01*
X417256Y481970D02*
Y481314D01*
X416600D01*
X417912D01*
X417256D01*
Y479346D01*
X417912Y478690D01*
X422504Y482626D02*
Y478690D01*
X420536D01*
X419880Y479346D01*
Y480658D01*
X420536Y481314D01*
X422504D01*
X423816Y478690D02*
Y479346D01*
X424472D01*
Y478690D01*
X423816D01*
X388269Y470685D02*
X385646D01*
X388269Y473309D01*
Y473965D01*
X387614Y474621D01*
X386302D01*
X385646Y473965D01*
X389581D02*
X390237Y474621D01*
X391549D01*
X392205Y473965D01*
Y471341D01*
X391549Y470685D01*
X390237D01*
X389581Y471341D01*
Y473965D01*
X396141Y470685D02*
X393517D01*
X396141Y473309D01*
Y473965D01*
X395485Y474621D01*
X394173D01*
X393517Y473965D01*
X397453D02*
X398109Y474621D01*
X399421D01*
X400077Y473965D01*
Y473309D01*
X399421Y472653D01*
X398765D01*
X399421D01*
X400077Y471997D01*
Y471341D01*
X399421Y470685D01*
X398109D01*
X397453Y471341D01*
X619080Y337221D02*
X623016D01*
Y339188D01*
X622360Y339844D01*
X621704D01*
X621048Y339188D01*
Y337221D01*
Y339188D01*
X620392Y339844D01*
X619736D01*
X619080Y339188D01*
Y337221D01*
X623016Y343780D02*
Y341156D01*
X620392Y343780D01*
X619736D01*
X619080Y343124D01*
Y341812D01*
X619736Y341156D01*
M02*
