G04*
G04 #@! TF.GenerationSoftware,Altium Limited,Altium Designer,20.0.9 (164)*
G04*
G04 Layer_Color=8388736*
%FSLAX25Y25*%
%MOIN*%
G70*
G01*
G75*
%ADD33O,0.03543X0.01378*%
%ADD34O,0.01378X0.03543*%
%ADD35R,0.10433X0.10433*%
%ADD36R,0.03740X0.05709*%
%ADD37R,0.03091X0.03091*%
%ADD38R,0.03347X0.07284*%
%ADD39O,0.03937X0.01575*%
%ADD40O,0.01575X0.03937*%
%ADD41R,0.09646X0.09646*%
G04:AMPARAMS|DCode=42|XSize=26.38mil|YSize=27.95mil|CornerRadius=8.07mil|HoleSize=0mil|Usage=FLASHONLY|Rotation=180.000|XOffset=0mil|YOffset=0mil|HoleType=Round|Shape=RoundedRectangle|*
%AMROUNDEDRECTD42*
21,1,0.02638,0.01181,0,0,180.0*
21,1,0.01024,0.02795,0,0,180.0*
1,1,0.01614,-0.00512,0.00591*
1,1,0.01614,0.00512,0.00591*
1,1,0.01614,0.00512,-0.00591*
1,1,0.01614,-0.00512,-0.00591*
%
%ADD42ROUNDEDRECTD42*%
%ADD43R,0.16063X0.16063*%
%ADD44O,0.04528X0.01772*%
%ADD45O,0.01772X0.04528*%
G04:AMPARAMS|DCode=46|XSize=26.38mil|YSize=27.95mil|CornerRadius=8.07mil|HoleSize=0mil|Usage=FLASHONLY|Rotation=90.000|XOffset=0mil|YOffset=0mil|HoleType=Round|Shape=RoundedRectangle|*
%AMROUNDEDRECTD46*
21,1,0.02638,0.01181,0,0,90.0*
21,1,0.01024,0.02795,0,0,90.0*
1,1,0.01614,0.00591,0.00512*
1,1,0.01614,0.00591,-0.00512*
1,1,0.01614,-0.00591,-0.00512*
1,1,0.01614,-0.00591,0.00512*
%
%ADD46ROUNDEDRECTD46*%
%ADD47R,0.03583X0.10039*%
%ADD48R,0.02756X0.03740*%
%ADD49R,0.03425X0.04134*%
%ADD50R,0.03347X0.03937*%
%ADD51C,0.05591*%
%ADD52R,0.06496X0.06496*%
%ADD53C,0.06496*%
%ADD54C,0.07991*%
%ADD55C,0.02362*%
%ADD56C,0.03398*%
%ADD57C,0.24213*%
%ADD58C,0.03740*%
%ADD59C,0.02559*%
G36*
X133831Y80748D02*
X133842D01*
X133854Y80746D01*
X133865Y80745D01*
X133877Y80743D01*
X133888Y80741D01*
X133899Y80737D01*
X133911Y80734D01*
X133922Y80730D01*
X133932Y80726D01*
X134851Y80346D01*
X134862Y80340D01*
X134872Y80336D01*
X134882Y80330D01*
X134893Y80325D01*
X134902Y80318D01*
X134912Y80312D01*
X134921Y80304D01*
X134930Y80297D01*
X134939Y80289D01*
X134948Y80282D01*
X135651Y79578D01*
X135658Y79569D01*
X135667Y79561D01*
X135673Y79552D01*
X135681Y79543D01*
X135687Y79533D01*
X135694Y79524D01*
X135699Y79513D01*
X135705Y79503D01*
X135710Y79493D01*
X135715Y79482D01*
X136095Y78563D01*
X136099Y78552D01*
X136104Y78542D01*
X136106Y78530D01*
X136110Y78519D01*
X136112Y78508D01*
X136114Y78496D01*
X136115Y78485D01*
X136117Y78473D01*
Y78462D01*
X136118Y78450D01*
Y77953D01*
Y77456D01*
X136117Y77444D01*
Y77432D01*
X136115Y77421D01*
X136114Y77409D01*
X136112Y77398D01*
X136110Y77386D01*
X136106Y77375D01*
X136104Y77364D01*
X136099Y77353D01*
X136095Y77342D01*
X135715Y76423D01*
X135710Y76413D01*
X135705Y76402D01*
X135699Y76392D01*
X135694Y76382D01*
X135687Y76372D01*
X135681Y76363D01*
X135673Y76354D01*
X135667Y76344D01*
X135658Y76336D01*
X135651Y76327D01*
X134948Y75624D01*
X134939Y75616D01*
X134930Y75608D01*
X134921Y75601D01*
X134912Y75594D01*
X134902Y75588D01*
X134893Y75581D01*
X134882Y75576D01*
X134872Y75569D01*
X134862Y75565D01*
X134851Y75560D01*
X133932Y75179D01*
X133922Y75175D01*
X133911Y75171D01*
X133899Y75168D01*
X133888Y75165D01*
X133877Y75163D01*
X133865Y75160D01*
X133854Y75159D01*
X133842Y75157D01*
X133831D01*
X133819Y75157D01*
X133322D01*
X133276Y75160D01*
X133230Y75171D01*
X133187Y75189D01*
X133148Y75213D01*
X133112Y75243D01*
X133082Y75279D01*
X133071Y75297D01*
X133060Y75279D01*
X133029Y75243D01*
X132994Y75213D01*
X132954Y75189D01*
X132911Y75171D01*
X132866Y75160D01*
X132820Y75157D01*
X132323D01*
X132311Y75157D01*
X132299D01*
X132288Y75159D01*
X132276Y75160D01*
X132265Y75163D01*
X132253Y75165D01*
X132242Y75168D01*
X132231Y75171D01*
X132220Y75175D01*
X132209Y75179D01*
X131290Y75560D01*
X131280Y75565D01*
X131269Y75569D01*
X131259Y75576D01*
X131249Y75581D01*
X131240Y75588D01*
X131230Y75594D01*
X131221Y75601D01*
X131211Y75608D01*
X131203Y75616D01*
X131194Y75624D01*
X130491Y76327D01*
X130483Y76336D01*
X130475Y76344D01*
X130468Y76354D01*
X130461Y76363D01*
X130455Y76372D01*
X130448Y76382D01*
X130443Y76392D01*
X130437Y76402D01*
X130432Y76413D01*
X130427Y76423D01*
X130046Y77342D01*
X130043Y77353D01*
X130038Y77364D01*
X130035Y77375D01*
X130032Y77386D01*
X130030Y77398D01*
X130027Y77409D01*
X130026Y77421D01*
X130025Y77432D01*
Y77444D01*
X130024Y77456D01*
Y77953D01*
Y78450D01*
X130025Y78462D01*
Y78473D01*
X130026Y78485D01*
X130027Y78496D01*
X130030Y78508D01*
X130032Y78519D01*
X130035Y78530D01*
X130038Y78542D01*
X130043Y78552D01*
X130046Y78563D01*
X130427Y79482D01*
X130432Y79493D01*
X130437Y79503D01*
X130443Y79513D01*
X130448Y79524D01*
X130455Y79533D01*
X130461Y79543D01*
X130468Y79552D01*
X130475Y79561D01*
X130483Y79569D01*
X130491Y79578D01*
X131194Y80282D01*
X131203Y80289D01*
X131211Y80297D01*
X131221Y80304D01*
X131230Y80312D01*
X131240Y80318D01*
X131249Y80325D01*
X131259Y80330D01*
X131269Y80336D01*
X131280Y80340D01*
X131290Y80346D01*
X132209Y80726D01*
X132220Y80730D01*
X132231Y80734D01*
X132242Y80737D01*
X132253Y80741D01*
X132265Y80743D01*
X132276Y80745D01*
X132288Y80746D01*
X132299Y80748D01*
X132311D01*
X132323Y80749D01*
X132820D01*
X132866Y80745D01*
X132911Y80734D01*
X132954Y80717D01*
X132994Y80692D01*
X133029Y80662D01*
X133060Y80627D01*
X133071Y80608D01*
X133082Y80627D01*
X133112Y80662D01*
X133148Y80692D01*
X133187Y80717D01*
X133230Y80734D01*
X133276Y80745D01*
X133322Y80749D01*
X133819D01*
X133831Y80748D01*
D02*
G37*
G36*
X19854Y74646D02*
X19866D01*
X19877Y74644D01*
X19889Y74643D01*
X19900Y74640D01*
X19912Y74638D01*
X19923Y74635D01*
X19934Y74632D01*
X19945Y74628D01*
X19956Y74624D01*
X20875Y74243D01*
X20885Y74238D01*
X20896Y74234D01*
X20906Y74228D01*
X20916Y74222D01*
X20926Y74216D01*
X20936Y74209D01*
X20945Y74202D01*
X20954Y74195D01*
X20962Y74187D01*
X20971Y74179D01*
X21674Y73476D01*
X21682Y73467D01*
X21690Y73459D01*
X21697Y73449D01*
X21704Y73441D01*
X21711Y73431D01*
X21717Y73421D01*
X21723Y73411D01*
X21729Y73401D01*
X21733Y73390D01*
X21738Y73380D01*
X22119Y72461D01*
X22123Y72450D01*
X22127Y72439D01*
X22130Y72428D01*
X22133Y72417D01*
X22135Y72405D01*
X22138Y72394D01*
X22139Y72382D01*
X22141Y72371D01*
Y72359D01*
X22142Y72348D01*
Y71850D01*
Y71353D01*
X22141Y71341D01*
Y71330D01*
X22139Y71318D01*
X22138Y71307D01*
X22135Y71295D01*
X22133Y71284D01*
X22130Y71273D01*
X22127Y71262D01*
X22123Y71251D01*
X22119Y71240D01*
X21738Y70321D01*
X21733Y70311D01*
X21729Y70300D01*
X21723Y70290D01*
X21717Y70280D01*
X21711Y70270D01*
X21704Y70260D01*
X21697Y70251D01*
X21690Y70242D01*
X21682Y70234D01*
X21674Y70225D01*
X20971Y69522D01*
X20962Y69514D01*
X20954Y69506D01*
X20945Y69499D01*
X20936Y69491D01*
X20926Y69485D01*
X20916Y69478D01*
X20906Y69473D01*
X20896Y69467D01*
X20885Y69463D01*
X20875Y69457D01*
X19956Y69077D01*
X19945Y69073D01*
X19934Y69069D01*
X19923Y69066D01*
X19912Y69062D01*
X19900Y69061D01*
X19889Y69058D01*
X19877Y69057D01*
X19866Y69055D01*
X19854D01*
X19843Y69054D01*
X19345D01*
X19299Y69058D01*
X19254Y69069D01*
X19211Y69086D01*
X19171Y69111D01*
X19136Y69141D01*
X19106Y69176D01*
X19094Y69195D01*
X19083Y69176D01*
X19053Y69141D01*
X19018Y69111D01*
X18978Y69086D01*
X18935Y69069D01*
X18890Y69058D01*
X18844Y69054D01*
X18346D01*
X18335Y69055D01*
X18323D01*
X18311Y69057D01*
X18300Y69058D01*
X18289Y69061D01*
X18277Y69062D01*
X18266Y69066D01*
X18255Y69069D01*
X18244Y69073D01*
X18233Y69077D01*
X17314Y69457D01*
X17304Y69463D01*
X17293Y69467D01*
X17283Y69473D01*
X17273Y69478D01*
X17263Y69485D01*
X17253Y69491D01*
X17244Y69499D01*
X17235Y69506D01*
X17227Y69514D01*
X17218Y69522D01*
X16515Y70225D01*
X16507Y70234D01*
X16499Y70242D01*
X16492Y70251D01*
X16485Y70260D01*
X16478Y70270D01*
X16472Y70280D01*
X16466Y70290D01*
X16460Y70300D01*
X16456Y70311D01*
X16450Y70321D01*
X16070Y71240D01*
X16066Y71251D01*
X16062Y71262D01*
X16059Y71273D01*
X16056Y71284D01*
X16054Y71295D01*
X16051Y71307D01*
X16050Y71318D01*
X16048Y71330D01*
Y71341D01*
X16047Y71353D01*
Y71850D01*
Y72348D01*
X16048Y72359D01*
Y72371D01*
X16050Y72382D01*
X16051Y72394D01*
X16054Y72405D01*
X16056Y72417D01*
X16059Y72428D01*
X16062Y72439D01*
X16066Y72450D01*
X16070Y72461D01*
X16450Y73380D01*
X16456Y73390D01*
X16460Y73401D01*
X16466Y73411D01*
X16472Y73421D01*
X16478Y73431D01*
X16485Y73441D01*
X16492Y73449D01*
X16499Y73459D01*
X16507Y73467D01*
X16515Y73476D01*
X17218Y74179D01*
X17227Y74187D01*
X17235Y74195D01*
X17244Y74202D01*
X17253Y74209D01*
X17263Y74216D01*
X17273Y74222D01*
X17283Y74228D01*
X17293Y74234D01*
X17304Y74238D01*
X17314Y74243D01*
X18233Y74624D01*
X18244Y74628D01*
X18255Y74632D01*
X18266Y74635D01*
X18277Y74638D01*
X18289Y74640D01*
X18300Y74643D01*
X18312Y74644D01*
X18323Y74646D01*
X18335D01*
X18346Y74647D01*
X18844D01*
X18890Y74643D01*
X18935Y74632D01*
X18978Y74614D01*
X19018Y74590D01*
X19053Y74560D01*
X19083Y74524D01*
X19094Y74506D01*
X19106Y74524D01*
X19136Y74560D01*
X19171Y74590D01*
X19211Y74614D01*
X19254Y74632D01*
X19299Y74643D01*
X19345Y74647D01*
X19843D01*
X19854Y74646D01*
D02*
G37*
G36*
X133831Y28780D02*
X133842D01*
X133854Y28778D01*
X133865Y28777D01*
X133877Y28774D01*
X133888Y28772D01*
X133899Y28769D01*
X133911Y28766D01*
X133922Y28762D01*
X133932Y28758D01*
X134851Y28377D01*
X134862Y28372D01*
X134872Y28367D01*
X134882Y28361D01*
X134893Y28356D01*
X134902Y28349D01*
X134912Y28343D01*
X134921Y28336D01*
X134930Y28329D01*
X134939Y28321D01*
X134948Y28313D01*
X135651Y27610D01*
X135658Y27601D01*
X135667Y27593D01*
X135673Y27583D01*
X135681Y27575D01*
X135687Y27564D01*
X135694Y27555D01*
X135699Y27545D01*
X135705Y27535D01*
X135710Y27524D01*
X135715Y27514D01*
X136095Y26595D01*
X136099Y26584D01*
X136104Y26573D01*
X136106Y26562D01*
X136110Y26551D01*
X136112Y26539D01*
X136114Y26528D01*
X136115Y26516D01*
X136117Y26505D01*
Y26493D01*
X136118Y26482D01*
Y25984D01*
Y25487D01*
X136117Y25475D01*
Y25464D01*
X136115Y25452D01*
X136114Y25441D01*
X136112Y25429D01*
X136110Y25418D01*
X136106Y25407D01*
X136104Y25395D01*
X136099Y25385D01*
X136095Y25374D01*
X135715Y24455D01*
X135710Y24444D01*
X135705Y24434D01*
X135699Y24424D01*
X135694Y24413D01*
X135687Y24404D01*
X135681Y24394D01*
X135673Y24385D01*
X135667Y24376D01*
X135658Y24368D01*
X135651Y24359D01*
X134948Y23655D01*
X134939Y23648D01*
X134930Y23640D01*
X134921Y23633D01*
X134912Y23625D01*
X134902Y23619D01*
X134893Y23612D01*
X134882Y23607D01*
X134872Y23601D01*
X134862Y23596D01*
X134851Y23591D01*
X133932Y23211D01*
X133922Y23207D01*
X133911Y23203D01*
X133899Y23200D01*
X133888Y23196D01*
X133877Y23194D01*
X133865Y23192D01*
X133854Y23191D01*
X133842Y23189D01*
X133831D01*
X133819Y23188D01*
X133322D01*
X133276Y23192D01*
X133230Y23203D01*
X133187Y23220D01*
X133148Y23245D01*
X133112Y23275D01*
X133082Y23310D01*
X133071Y23329D01*
X133060Y23310D01*
X133029Y23275D01*
X132994Y23245D01*
X132954Y23220D01*
X132911Y23203D01*
X132866Y23192D01*
X132820Y23188D01*
X132323D01*
X132311Y23189D01*
X132299D01*
X132288Y23191D01*
X132276Y23192D01*
X132265Y23194D01*
X132253Y23196D01*
X132242Y23200D01*
X132231Y23203D01*
X132220Y23207D01*
X132209Y23211D01*
X131290Y23591D01*
X131280Y23596D01*
X131269Y23601D01*
X131259Y23607D01*
X131249Y23612D01*
X131240Y23619D01*
X131230Y23625D01*
X131221Y23633D01*
X131211Y23640D01*
X131203Y23648D01*
X131194Y23655D01*
X130491Y24359D01*
X130483Y24368D01*
X130475Y24376D01*
X130468Y24385D01*
X130461Y24394D01*
X130455Y24404D01*
X130448Y24413D01*
X130443Y24424D01*
X130437Y24434D01*
X130432Y24444D01*
X130427Y24455D01*
X130046Y25374D01*
X130043Y25385D01*
X130038Y25395D01*
X130035Y25407D01*
X130032Y25418D01*
X130030Y25429D01*
X130027Y25441D01*
X130026Y25452D01*
X130025Y25464D01*
Y25475D01*
X130024Y25487D01*
Y25984D01*
Y26482D01*
X130025Y26493D01*
Y26505D01*
X130026Y26516D01*
X130027Y26528D01*
X130030Y26539D01*
X130032Y26551D01*
X130035Y26562D01*
X130038Y26573D01*
X130043Y26584D01*
X130046Y26595D01*
X130427Y27514D01*
X130432Y27524D01*
X130437Y27535D01*
X130443Y27545D01*
X130448Y27555D01*
X130455Y27564D01*
X130461Y27575D01*
X130468Y27583D01*
X130475Y27593D01*
X130483Y27601D01*
X130491Y27610D01*
X131194Y28313D01*
X131203Y28321D01*
X131211Y28329D01*
X131221Y28336D01*
X131230Y28343D01*
X131240Y28349D01*
X131249Y28356D01*
X131259Y28361D01*
X131269Y28367D01*
X131280Y28372D01*
X131290Y28377D01*
X132209Y28758D01*
X132220Y28762D01*
X132231Y28766D01*
X132242Y28769D01*
X132253Y28772D01*
X132265Y28774D01*
X132276Y28777D01*
X132288Y28778D01*
X132299Y28780D01*
X132311D01*
X132323Y28780D01*
X132820D01*
X132866Y28777D01*
X132911Y28766D01*
X132954Y28748D01*
X132994Y28724D01*
X133029Y28694D01*
X133060Y28658D01*
X133071Y28640D01*
X133082Y28658D01*
X133112Y28694D01*
X133148Y28724D01*
X133187Y28748D01*
X133230Y28766D01*
X133276Y28777D01*
X133322Y28780D01*
X133819D01*
X133831Y28780D01*
D02*
G37*
G36*
Y236653D02*
X133842D01*
X133854Y236652D01*
X133865Y236651D01*
X133877Y236648D01*
X133888Y236646D01*
X133899Y236643D01*
X133911Y236640D01*
X133922Y236635D01*
X133932Y236632D01*
X134851Y236251D01*
X134862Y236246D01*
X134872Y236242D01*
X134882Y236235D01*
X134893Y236230D01*
X134902Y236223D01*
X134912Y236217D01*
X134921Y236210D01*
X134930Y236203D01*
X134939Y236195D01*
X134948Y236187D01*
X135651Y235484D01*
X135658Y235475D01*
X135667Y235467D01*
X135673Y235457D01*
X135681Y235449D01*
X135687Y235438D01*
X135694Y235429D01*
X135699Y235419D01*
X135705Y235409D01*
X135710Y235398D01*
X135715Y235388D01*
X136095Y234469D01*
X136099Y234458D01*
X136104Y234447D01*
X136106Y234436D01*
X136110Y234425D01*
X136112Y234413D01*
X136114Y234402D01*
X136115Y234390D01*
X136117Y234379D01*
Y234367D01*
X136118Y234355D01*
Y233858D01*
Y233361D01*
X136117Y233349D01*
Y233338D01*
X136115Y233326D01*
X136114Y233315D01*
X136112Y233303D01*
X136110Y233292D01*
X136106Y233281D01*
X136104Y233269D01*
X136099Y233259D01*
X136095Y233248D01*
X135715Y232329D01*
X135710Y232318D01*
X135705Y232308D01*
X135699Y232298D01*
X135694Y232287D01*
X135687Y232278D01*
X135681Y232268D01*
X135673Y232259D01*
X135667Y232250D01*
X135658Y232242D01*
X135651Y232233D01*
X134948Y231529D01*
X134939Y231522D01*
X134930Y231514D01*
X134921Y231507D01*
X134912Y231499D01*
X134902Y231493D01*
X134893Y231486D01*
X134882Y231481D01*
X134872Y231475D01*
X134862Y231470D01*
X134851Y231465D01*
X133932Y231085D01*
X133922Y231081D01*
X133911Y231077D01*
X133899Y231074D01*
X133888Y231070D01*
X133877Y231068D01*
X133865Y231066D01*
X133854Y231065D01*
X133842Y231063D01*
X133831D01*
X133819Y231062D01*
X133322D01*
X133276Y231066D01*
X133230Y231077D01*
X133187Y231094D01*
X133148Y231119D01*
X133112Y231149D01*
X133082Y231184D01*
X133071Y231203D01*
X133060Y231184D01*
X133029Y231149D01*
X132994Y231119D01*
X132954Y231094D01*
X132911Y231077D01*
X132866Y231066D01*
X132820Y231062D01*
X132323D01*
X132311Y231063D01*
X132299D01*
X132288Y231065D01*
X132276Y231066D01*
X132265Y231068D01*
X132253Y231070D01*
X132242Y231074D01*
X132231Y231077D01*
X132220Y231081D01*
X132209Y231085D01*
X131290Y231465D01*
X131280Y231470D01*
X131269Y231475D01*
X131259Y231481D01*
X131249Y231486D01*
X131240Y231493D01*
X131230Y231499D01*
X131221Y231507D01*
X131211Y231514D01*
X131203Y231522D01*
X131194Y231529D01*
X130491Y232233D01*
X130483Y232242D01*
X130475Y232250D01*
X130468Y232259D01*
X130461Y232268D01*
X130455Y232278D01*
X130448Y232287D01*
X130443Y232298D01*
X130437Y232308D01*
X130432Y232318D01*
X130427Y232329D01*
X130046Y233248D01*
X130043Y233259D01*
X130038Y233269D01*
X130035Y233281D01*
X130032Y233292D01*
X130030Y233303D01*
X130027Y233315D01*
X130026Y233326D01*
X130025Y233338D01*
Y233349D01*
X130024Y233361D01*
Y233858D01*
Y234355D01*
X130025Y234367D01*
Y234379D01*
X130026Y234390D01*
X130027Y234402D01*
X130030Y234413D01*
X130032Y234425D01*
X130035Y234436D01*
X130038Y234447D01*
X130043Y234458D01*
X130046Y234469D01*
X130427Y235388D01*
X130432Y235398D01*
X130437Y235409D01*
X130443Y235419D01*
X130448Y235429D01*
X130455Y235438D01*
X130461Y235449D01*
X130468Y235457D01*
X130475Y235467D01*
X130483Y235475D01*
X130491Y235484D01*
X131194Y236187D01*
X131203Y236195D01*
X131211Y236203D01*
X131221Y236210D01*
X131230Y236217D01*
X131240Y236223D01*
X131249Y236230D01*
X131259Y236235D01*
X131269Y236242D01*
X131280Y236246D01*
X131290Y236251D01*
X132209Y236632D01*
X132220Y236635D01*
X132231Y236640D01*
X132242Y236643D01*
X132253Y236646D01*
X132265Y236648D01*
X132276Y236651D01*
X132288Y236652D01*
X132299Y236653D01*
X132311D01*
X132323Y236654D01*
X132820D01*
X132866Y236651D01*
X132911Y236640D01*
X132954Y236622D01*
X132994Y236598D01*
X133029Y236568D01*
X133060Y236532D01*
X133071Y236514D01*
X133082Y236532D01*
X133112Y236568D01*
X133148Y236598D01*
X133187Y236622D01*
X133230Y236640D01*
X133276Y236651D01*
X133322Y236654D01*
X133819D01*
X133831Y236653D01*
D02*
G37*
G36*
X133831Y184685D02*
X133842D01*
X133854Y184683D01*
X133865Y184682D01*
X133877Y184680D01*
X133888Y184678D01*
X133899Y184674D01*
X133911Y184671D01*
X133922Y184667D01*
X133932Y184663D01*
X134851Y184283D01*
X134862Y184277D01*
X134872Y184273D01*
X134882Y184267D01*
X134893Y184262D01*
X134902Y184255D01*
X134912Y184249D01*
X134921Y184241D01*
X134930Y184234D01*
X134939Y184226D01*
X134948Y184219D01*
X135651Y183515D01*
X135658Y183506D01*
X135667Y183498D01*
X135673Y183489D01*
X135681Y183480D01*
X135687Y183470D01*
X135694Y183461D01*
X135699Y183450D01*
X135705Y183440D01*
X135710Y183430D01*
X135715Y183419D01*
X136095Y182500D01*
X136099Y182489D01*
X136104Y182479D01*
X136106Y182467D01*
X136110Y182456D01*
X136112Y182445D01*
X136114Y182433D01*
X136115Y182422D01*
X136117Y182410D01*
Y182399D01*
X136118Y182387D01*
Y181890D01*
Y181393D01*
X136117Y181381D01*
Y181369D01*
X136115Y181358D01*
X136114Y181346D01*
X136112Y181335D01*
X136110Y181323D01*
X136106Y181312D01*
X136104Y181301D01*
X136099Y181290D01*
X136095Y181279D01*
X135715Y180360D01*
X135710Y180350D01*
X135705Y180339D01*
X135699Y180329D01*
X135694Y180319D01*
X135687Y180309D01*
X135681Y180299D01*
X135673Y180291D01*
X135667Y180281D01*
X135658Y180273D01*
X135651Y180264D01*
X134948Y179561D01*
X134939Y179553D01*
X134930Y179545D01*
X134921Y179538D01*
X134912Y179531D01*
X134902Y179525D01*
X134893Y179518D01*
X134882Y179513D01*
X134872Y179507D01*
X134862Y179502D01*
X134851Y179497D01*
X133932Y179116D01*
X133922Y179113D01*
X133911Y179108D01*
X133899Y179105D01*
X133888Y179102D01*
X133877Y179100D01*
X133865Y179097D01*
X133854Y179096D01*
X133842Y179095D01*
X133831D01*
X133819Y179094D01*
X133322D01*
X133276Y179097D01*
X133230Y179108D01*
X133187Y179126D01*
X133148Y179150D01*
X133113Y179180D01*
X133082Y179216D01*
X133071Y179234D01*
X133060Y179216D01*
X133029Y179180D01*
X132994Y179150D01*
X132954Y179126D01*
X132911Y179108D01*
X132866Y179097D01*
X132820Y179094D01*
X132323D01*
X132311Y179095D01*
X132299D01*
X132288Y179096D01*
X132276Y179097D01*
X132265Y179100D01*
X132253Y179102D01*
X132242Y179105D01*
X132231Y179108D01*
X132220Y179113D01*
X132209Y179116D01*
X131290Y179497D01*
X131280Y179502D01*
X131269Y179507D01*
X131259Y179513D01*
X131249Y179518D01*
X131240Y179525D01*
X131230Y179531D01*
X131221Y179538D01*
X131211Y179545D01*
X131203Y179553D01*
X131194Y179561D01*
X130491Y180264D01*
X130483Y180273D01*
X130475Y180281D01*
X130468Y180291D01*
X130461Y180299D01*
X130455Y180309D01*
X130448Y180319D01*
X130443Y180329D01*
X130437Y180339D01*
X130432Y180350D01*
X130427Y180360D01*
X130046Y181279D01*
X130043Y181290D01*
X130038Y181301D01*
X130035Y181312D01*
X130032Y181323D01*
X130030Y181335D01*
X130027Y181346D01*
X130026Y181358D01*
X130025Y181369D01*
Y181381D01*
X130024Y181393D01*
Y181890D01*
Y182387D01*
X130025Y182399D01*
Y182410D01*
X130026Y182422D01*
X130027Y182433D01*
X130030Y182445D01*
X130032Y182456D01*
X130035Y182467D01*
X130038Y182479D01*
X130043Y182489D01*
X130046Y182500D01*
X130427Y183419D01*
X130432Y183430D01*
X130437Y183440D01*
X130443Y183450D01*
X130448Y183461D01*
X130455Y183470D01*
X130461Y183480D01*
X130468Y183489D01*
X130475Y183498D01*
X130483Y183506D01*
X130491Y183515D01*
X131194Y184219D01*
X131203Y184226D01*
X131211Y184234D01*
X131221Y184241D01*
X131230Y184249D01*
X131240Y184255D01*
X131249Y184262D01*
X131259Y184267D01*
X131269Y184273D01*
X131280Y184277D01*
X131290Y184283D01*
X132209Y184663D01*
X132220Y184667D01*
X132231Y184671D01*
X132242Y184674D01*
X132253Y184678D01*
X132265Y184680D01*
X132276Y184682D01*
X132288Y184683D01*
X132299Y184685D01*
X132311D01*
X132323Y184686D01*
X132820D01*
X132866Y184682D01*
X132911Y184671D01*
X132954Y184654D01*
X132994Y184629D01*
X133029Y184599D01*
X133060Y184564D01*
X133071Y184545D01*
X133082Y184564D01*
X133113Y184599D01*
X133148Y184629D01*
X133187Y184654D01*
X133230Y184671D01*
X133276Y184682D01*
X133322Y184686D01*
X133819D01*
X133831Y184685D01*
D02*
G37*
G36*
X133831Y132717D02*
X133842D01*
X133854Y132715D01*
X133865Y132714D01*
X133877Y132711D01*
X133888Y132709D01*
X133899Y132706D01*
X133911Y132703D01*
X133922Y132699D01*
X133932Y132695D01*
X134851Y132314D01*
X134862Y132309D01*
X134872Y132305D01*
X134882Y132299D01*
X134893Y132293D01*
X134902Y132286D01*
X134912Y132280D01*
X134921Y132273D01*
X134930Y132266D01*
X134939Y132258D01*
X134948Y132250D01*
X135651Y131547D01*
X135658Y131538D01*
X135667Y131530D01*
X135673Y131520D01*
X135681Y131511D01*
X135687Y131501D01*
X135694Y131492D01*
X135699Y131482D01*
X135705Y131472D01*
X135710Y131461D01*
X135715Y131451D01*
X136095Y130532D01*
X136099Y130521D01*
X136104Y130510D01*
X136106Y130499D01*
X136110Y130488D01*
X136112Y130476D01*
X136114Y130465D01*
X136115Y130453D01*
X136117Y130442D01*
Y130430D01*
X136118Y130419D01*
Y129921D01*
Y129424D01*
X136117Y129412D01*
Y129401D01*
X136115Y129389D01*
X136114Y129378D01*
X136112Y129366D01*
X136110Y129355D01*
X136106Y129344D01*
X136104Y129332D01*
X136099Y129322D01*
X136095Y129311D01*
X135715Y128392D01*
X135710Y128381D01*
X135705Y128371D01*
X135699Y128361D01*
X135694Y128350D01*
X135687Y128341D01*
X135681Y128331D01*
X135673Y128322D01*
X135667Y128313D01*
X135658Y128305D01*
X135651Y128296D01*
X134948Y127592D01*
X134939Y127585D01*
X134930Y127577D01*
X134921Y127570D01*
X134912Y127562D01*
X134902Y127556D01*
X134893Y127549D01*
X134882Y127544D01*
X134872Y127538D01*
X134862Y127533D01*
X134851Y127528D01*
X133932Y127148D01*
X133922Y127144D01*
X133911Y127140D01*
X133899Y127137D01*
X133888Y127133D01*
X133877Y127131D01*
X133865Y127129D01*
X133854Y127128D01*
X133842Y127126D01*
X133831D01*
X133819Y127125D01*
X133322D01*
X133276Y127129D01*
X133230Y127140D01*
X133187Y127157D01*
X133148Y127182D01*
X133112Y127212D01*
X133082Y127247D01*
X133071Y127266D01*
X133060Y127247D01*
X133029Y127212D01*
X132994Y127182D01*
X132954Y127157D01*
X132911Y127140D01*
X132866Y127129D01*
X132820Y127125D01*
X132323D01*
X132311Y127126D01*
X132299D01*
X132288Y127128D01*
X132276Y127129D01*
X132265Y127131D01*
X132253Y127133D01*
X132242Y127137D01*
X132231Y127140D01*
X132220Y127144D01*
X132209Y127148D01*
X131290Y127528D01*
X131280Y127533D01*
X131269Y127538D01*
X131259Y127544D01*
X131249Y127549D01*
X131240Y127556D01*
X131230Y127562D01*
X131221Y127570D01*
X131211Y127577D01*
X131203Y127585D01*
X131194Y127592D01*
X130491Y128296D01*
X130483Y128305D01*
X130475Y128313D01*
X130468Y128322D01*
X130461Y128331D01*
X130455Y128341D01*
X130448Y128350D01*
X130443Y128361D01*
X130437Y128371D01*
X130432Y128382D01*
X130427Y128392D01*
X130046Y129311D01*
X130043Y129322D01*
X130038Y129332D01*
X130035Y129344D01*
X130032Y129355D01*
X130030Y129366D01*
X130027Y129378D01*
X130026Y129389D01*
X130025Y129401D01*
Y129412D01*
X130024Y129424D01*
Y129921D01*
Y130419D01*
X130025Y130430D01*
Y130442D01*
X130026Y130453D01*
X130027Y130465D01*
X130030Y130476D01*
X130032Y130488D01*
X130035Y130499D01*
X130038Y130510D01*
X130043Y130521D01*
X130046Y130532D01*
X130427Y131451D01*
X130432Y131461D01*
X130437Y131472D01*
X130443Y131482D01*
X130448Y131492D01*
X130455Y131501D01*
X130461Y131511D01*
X130468Y131520D01*
X130475Y131530D01*
X130483Y131538D01*
X130491Y131547D01*
X131194Y132250D01*
X131203Y132258D01*
X131211Y132266D01*
X131221Y132273D01*
X131230Y132280D01*
X131240Y132286D01*
X131249Y132293D01*
X131259Y132299D01*
X131269Y132305D01*
X131280Y132309D01*
X131290Y132314D01*
X132209Y132695D01*
X132220Y132699D01*
X132231Y132703D01*
X132242Y132706D01*
X132253Y132709D01*
X132265Y132711D01*
X132276Y132714D01*
X132288Y132715D01*
X132299Y132717D01*
X132311D01*
X132323Y132718D01*
X132820D01*
X132866Y132714D01*
X132911Y132703D01*
X132954Y132685D01*
X132994Y132661D01*
X133029Y132631D01*
X133060Y132595D01*
X133071Y132577D01*
X133082Y132595D01*
X133112Y132631D01*
X133148Y132661D01*
X133187Y132685D01*
X133230Y132703D01*
X133276Y132714D01*
X133322Y132718D01*
X133819D01*
X133831Y132717D01*
D02*
G37*
D33*
X36713Y119882D02*
D03*
Y121653D02*
D03*
Y123425D02*
D03*
X36713Y125197D02*
D03*
X36713Y126969D02*
D03*
Y128740D02*
D03*
Y130512D02*
D03*
X20768D02*
D03*
Y128740D02*
D03*
Y126969D02*
D03*
X20768Y125197D02*
D03*
X20768Y123425D02*
D03*
Y121653D02*
D03*
Y119882D02*
D03*
D34*
X34055Y133169D02*
D03*
X32283D02*
D03*
X30512D02*
D03*
X28740Y133169D02*
D03*
X26969Y133169D02*
D03*
X25197D02*
D03*
X23425D02*
D03*
Y117224D02*
D03*
X25197D02*
D03*
X26969D02*
D03*
X28740Y117224D02*
D03*
X30512Y117224D02*
D03*
X32283D02*
D03*
X34055D02*
D03*
D35*
X28740Y125197D02*
D03*
D36*
X143701Y233858D02*
D03*
X150394D02*
D03*
X185827D02*
D03*
X192520D02*
D03*
X227953D02*
D03*
X234646D02*
D03*
X270079D02*
D03*
X276772D02*
D03*
X312205D02*
D03*
X318898D02*
D03*
X354331D02*
D03*
X361024D02*
D03*
X396457D02*
D03*
X403150D02*
D03*
X438583D02*
D03*
X445276D02*
D03*
X133071Y275590D02*
D03*
X139764D02*
D03*
X175197D02*
D03*
X181890D02*
D03*
X217323D02*
D03*
X224016D02*
D03*
X259449D02*
D03*
X266142D02*
D03*
X301575D02*
D03*
X308268D02*
D03*
X343701D02*
D03*
X350394D02*
D03*
X385827D02*
D03*
X392520D02*
D03*
X427953D02*
D03*
X434646D02*
D03*
X143701Y181890D02*
D03*
X150394D02*
D03*
X185827D02*
D03*
X192520D02*
D03*
X227953D02*
D03*
X234646D02*
D03*
X270079D02*
D03*
X276772D02*
D03*
X312205D02*
D03*
X318898D02*
D03*
X354331D02*
D03*
X361024D02*
D03*
X396457D02*
D03*
X403150D02*
D03*
X438583D02*
D03*
X445276D02*
D03*
X133071Y223622D02*
D03*
X139764D02*
D03*
X175197D02*
D03*
X181890D02*
D03*
X217323D02*
D03*
X224016D02*
D03*
X259449D02*
D03*
X266142D02*
D03*
X301575D02*
D03*
X308268D02*
D03*
X343701D02*
D03*
X350394D02*
D03*
X385827D02*
D03*
X392520D02*
D03*
X427953D02*
D03*
X434646D02*
D03*
X143701Y129921D02*
D03*
X150394D02*
D03*
X185827D02*
D03*
X192520D02*
D03*
X227953D02*
D03*
X234646D02*
D03*
X270079D02*
D03*
X276772D02*
D03*
X312205D02*
D03*
X318898D02*
D03*
X354331D02*
D03*
X361024D02*
D03*
X396457D02*
D03*
X403150D02*
D03*
X438583D02*
D03*
X445276D02*
D03*
X133071Y171653D02*
D03*
X139764D02*
D03*
X175197D02*
D03*
X181890D02*
D03*
X217323D02*
D03*
X224016D02*
D03*
X259449D02*
D03*
X266142D02*
D03*
X301575D02*
D03*
X308268D02*
D03*
X343701D02*
D03*
X350394D02*
D03*
X385827D02*
D03*
X392520D02*
D03*
X427953D02*
D03*
X434646D02*
D03*
X143701Y77953D02*
D03*
X150394D02*
D03*
X185827D02*
D03*
X192520D02*
D03*
X227953D02*
D03*
X234646D02*
D03*
X270079D02*
D03*
X276772D02*
D03*
X312205D02*
D03*
X318898D02*
D03*
X354331D02*
D03*
X361024D02*
D03*
X396457D02*
D03*
X403150D02*
D03*
X438583D02*
D03*
X445276D02*
D03*
X133071Y119685D02*
D03*
X139764D02*
D03*
X175197D02*
D03*
X181890D02*
D03*
X217323D02*
D03*
X224016D02*
D03*
X259449D02*
D03*
X266142D02*
D03*
X301575D02*
D03*
X308268D02*
D03*
X343701D02*
D03*
X350394D02*
D03*
X385827D02*
D03*
X392520D02*
D03*
X427953D02*
D03*
X434646D02*
D03*
X143701Y25984D02*
D03*
X150394D02*
D03*
X185827D02*
D03*
X192520D02*
D03*
X227953D02*
D03*
X234646D02*
D03*
X270079D02*
D03*
X276772D02*
D03*
X312205D02*
D03*
X318898D02*
D03*
X354331D02*
D03*
X361024D02*
D03*
X396457D02*
D03*
X403150D02*
D03*
X438583D02*
D03*
X445276D02*
D03*
X133071Y67716D02*
D03*
X139764D02*
D03*
X175197D02*
D03*
X181890D02*
D03*
X217323D02*
D03*
X224016D02*
D03*
X259449D02*
D03*
X266142D02*
D03*
X301575D02*
D03*
X308268D02*
D03*
X343701D02*
D03*
X350394D02*
D03*
X385827D02*
D03*
X392520D02*
D03*
X427953D02*
D03*
X434646D02*
D03*
D37*
X135071Y233858D02*
D03*
X131071D02*
D03*
X135071Y181890D02*
D03*
X131071D02*
D03*
X135071Y129921D02*
D03*
X131071D02*
D03*
X135071Y77953D02*
D03*
X131071D02*
D03*
X135071Y25984D02*
D03*
X131071D02*
D03*
X17095Y71850D02*
D03*
X21094D02*
D03*
D38*
X120472Y242520D02*
D03*
X133071D02*
D03*
X141732D02*
D03*
X150394D02*
D03*
Y266929D02*
D03*
X141732D02*
D03*
X133071D02*
D03*
X120472D02*
D03*
X162598Y242520D02*
D03*
X175197D02*
D03*
X183858D02*
D03*
X192520D02*
D03*
Y266929D02*
D03*
X183858D02*
D03*
X175197D02*
D03*
X162598D02*
D03*
X204724Y242520D02*
D03*
X217323D02*
D03*
X225984D02*
D03*
X234646D02*
D03*
Y266929D02*
D03*
X225984D02*
D03*
X217323D02*
D03*
X204724D02*
D03*
X246850Y242520D02*
D03*
X259449D02*
D03*
X268110D02*
D03*
X276772D02*
D03*
Y266929D02*
D03*
X268110D02*
D03*
X259449D02*
D03*
X246850D02*
D03*
X288976Y242520D02*
D03*
X301575D02*
D03*
X310236D02*
D03*
X318898D02*
D03*
Y266929D02*
D03*
X310236D02*
D03*
X301575D02*
D03*
X288976D02*
D03*
X331102Y242520D02*
D03*
X343701D02*
D03*
X352362D02*
D03*
X361024D02*
D03*
Y266929D02*
D03*
X352362D02*
D03*
X343701D02*
D03*
X331102D02*
D03*
X373228Y242520D02*
D03*
X385827D02*
D03*
X394488D02*
D03*
X403150D02*
D03*
Y266929D02*
D03*
X394488D02*
D03*
X385827D02*
D03*
X373228D02*
D03*
X415354Y242520D02*
D03*
X427953D02*
D03*
X436614D02*
D03*
X445276D02*
D03*
Y266929D02*
D03*
X436614D02*
D03*
X427953D02*
D03*
X415354D02*
D03*
X120473Y190551D02*
D03*
X133071D02*
D03*
X141732D02*
D03*
X150394D02*
D03*
Y214961D02*
D03*
X141732D02*
D03*
X133071D02*
D03*
X120473D02*
D03*
X162599Y190551D02*
D03*
X175197D02*
D03*
X183858D02*
D03*
X192520D02*
D03*
Y214961D02*
D03*
X183858D02*
D03*
X175197D02*
D03*
X162599D02*
D03*
X204724Y190551D02*
D03*
X217323D02*
D03*
X225984D02*
D03*
X234646D02*
D03*
Y214961D02*
D03*
X225984D02*
D03*
X217323D02*
D03*
X204724D02*
D03*
X246850Y190551D02*
D03*
X259449D02*
D03*
X268110D02*
D03*
X276772D02*
D03*
Y214961D02*
D03*
X268110D02*
D03*
X259449D02*
D03*
X246850D02*
D03*
X288976Y190551D02*
D03*
X301575D02*
D03*
X310236D02*
D03*
X318898D02*
D03*
Y214961D02*
D03*
X310236D02*
D03*
X301575D02*
D03*
X288976D02*
D03*
X331102Y190551D02*
D03*
X343701D02*
D03*
X352362D02*
D03*
X361024D02*
D03*
Y214961D02*
D03*
X352362D02*
D03*
X343701D02*
D03*
X331102D02*
D03*
X373228Y190551D02*
D03*
X385827D02*
D03*
X394488D02*
D03*
X403150D02*
D03*
Y214961D02*
D03*
X394488D02*
D03*
X385827D02*
D03*
X373228D02*
D03*
X415354Y190551D02*
D03*
X427953D02*
D03*
X436614D02*
D03*
X445276D02*
D03*
Y214961D02*
D03*
X436614D02*
D03*
X427953D02*
D03*
X415354D02*
D03*
X120472Y138583D02*
D03*
X133071D02*
D03*
X141732D02*
D03*
X150394D02*
D03*
Y162992D02*
D03*
X141732D02*
D03*
X133071D02*
D03*
X120472D02*
D03*
X162598Y138583D02*
D03*
X175197D02*
D03*
X183858D02*
D03*
X192520D02*
D03*
Y162992D02*
D03*
X183858D02*
D03*
X175197D02*
D03*
X162598D02*
D03*
X204724Y138583D02*
D03*
X217323D02*
D03*
X225984D02*
D03*
X234646D02*
D03*
Y162992D02*
D03*
X225984D02*
D03*
X217323D02*
D03*
X204724D02*
D03*
X246850Y138583D02*
D03*
X259449D02*
D03*
X268110D02*
D03*
X276772D02*
D03*
Y162992D02*
D03*
X268110D02*
D03*
X259449D02*
D03*
X246850D02*
D03*
X288976Y138583D02*
D03*
X301575D02*
D03*
X310236D02*
D03*
X318898D02*
D03*
Y162992D02*
D03*
X310236D02*
D03*
X301575D02*
D03*
X288976D02*
D03*
X331102Y138583D02*
D03*
X343701D02*
D03*
X352362D02*
D03*
X361024D02*
D03*
Y162992D02*
D03*
X352362D02*
D03*
X343701D02*
D03*
X331102D02*
D03*
X373228Y138583D02*
D03*
X385827D02*
D03*
X394488D02*
D03*
X403150D02*
D03*
Y162992D02*
D03*
X394488D02*
D03*
X385827D02*
D03*
X373228D02*
D03*
X415354Y138583D02*
D03*
X427953D02*
D03*
X436614D02*
D03*
X445276D02*
D03*
Y162992D02*
D03*
X436614D02*
D03*
X427953D02*
D03*
X415354D02*
D03*
X120472Y86614D02*
D03*
X133071D02*
D03*
X141732D02*
D03*
X150394D02*
D03*
Y111024D02*
D03*
X141732D02*
D03*
X133071D02*
D03*
X120472D02*
D03*
X162598Y86614D02*
D03*
X175197D02*
D03*
X183858D02*
D03*
X192520D02*
D03*
Y111024D02*
D03*
X183858D02*
D03*
X175197D02*
D03*
X162598D02*
D03*
X204724Y86614D02*
D03*
X217323D02*
D03*
X225984D02*
D03*
X234646D02*
D03*
Y111024D02*
D03*
X225984D02*
D03*
X217323D02*
D03*
X204724D02*
D03*
X246850Y86614D02*
D03*
X259449D02*
D03*
X268110D02*
D03*
X276772D02*
D03*
Y111024D02*
D03*
X268110D02*
D03*
X259449D02*
D03*
X246850D02*
D03*
X288976Y86614D02*
D03*
X301575D02*
D03*
X310236D02*
D03*
X318898D02*
D03*
Y111024D02*
D03*
X310236D02*
D03*
X301575D02*
D03*
X288976D02*
D03*
X331102Y86614D02*
D03*
X343701D02*
D03*
X352362D02*
D03*
X361024D02*
D03*
Y111024D02*
D03*
X352362D02*
D03*
X343701D02*
D03*
X331102D02*
D03*
X373228Y86614D02*
D03*
X385827D02*
D03*
X394488D02*
D03*
X403150D02*
D03*
Y111024D02*
D03*
X394488D02*
D03*
X385827D02*
D03*
X373228D02*
D03*
X415354Y86614D02*
D03*
X427953D02*
D03*
X436614D02*
D03*
X445276D02*
D03*
Y111024D02*
D03*
X436614D02*
D03*
X427953D02*
D03*
X415354D02*
D03*
X120472Y34646D02*
D03*
X133071D02*
D03*
X141732D02*
D03*
X150394D02*
D03*
Y59055D02*
D03*
X141732D02*
D03*
X133071D02*
D03*
X120472D02*
D03*
X162598Y34646D02*
D03*
X175197D02*
D03*
X183858D02*
D03*
X192520D02*
D03*
Y59055D02*
D03*
X183858D02*
D03*
X175197D02*
D03*
X162598D02*
D03*
X204724Y34646D02*
D03*
X217323D02*
D03*
X225984D02*
D03*
X234646D02*
D03*
Y59055D02*
D03*
X225984D02*
D03*
X217323D02*
D03*
X204724D02*
D03*
X246850Y34646D02*
D03*
X259449D02*
D03*
X268110D02*
D03*
X276772D02*
D03*
Y59055D02*
D03*
X268110D02*
D03*
X259449D02*
D03*
X246850D02*
D03*
X288976Y34646D02*
D03*
X301575D02*
D03*
X310236D02*
D03*
X318898D02*
D03*
Y59055D02*
D03*
X310236D02*
D03*
X301575D02*
D03*
X288976D02*
D03*
X331102Y34646D02*
D03*
X343701D02*
D03*
X352362D02*
D03*
X361024D02*
D03*
Y59055D02*
D03*
X352362D02*
D03*
X343701D02*
D03*
X331102D02*
D03*
X373228Y34646D02*
D03*
X385827D02*
D03*
X394488D02*
D03*
X403150D02*
D03*
Y59055D02*
D03*
X394488D02*
D03*
X385827D02*
D03*
X373228D02*
D03*
X415354Y34646D02*
D03*
X427953D02*
D03*
X436614D02*
D03*
X445276D02*
D03*
Y59055D02*
D03*
X436614D02*
D03*
X427953D02*
D03*
X415354D02*
D03*
D39*
X92421Y66437D02*
D03*
Y64468D02*
D03*
Y62500D02*
D03*
Y60532D02*
D03*
Y58563D02*
D03*
X106791D02*
D03*
Y60532D02*
D03*
Y62500D02*
D03*
Y64468D02*
D03*
Y66437D02*
D03*
X92421Y118415D02*
D03*
Y116446D02*
D03*
Y114478D02*
D03*
Y112509D02*
D03*
Y110541D02*
D03*
X106791D02*
D03*
Y112509D02*
D03*
Y114478D02*
D03*
Y116446D02*
D03*
Y118415D02*
D03*
X92421Y170348D02*
D03*
Y168379D02*
D03*
Y166411D02*
D03*
Y164442D02*
D03*
Y162474D02*
D03*
X106791D02*
D03*
Y164442D02*
D03*
Y166411D02*
D03*
Y168379D02*
D03*
Y170348D02*
D03*
X92421Y222323D02*
D03*
Y220354D02*
D03*
Y218386D02*
D03*
Y216417D02*
D03*
Y214449D02*
D03*
X106791D02*
D03*
Y216417D02*
D03*
Y218386D02*
D03*
Y220354D02*
D03*
Y222323D02*
D03*
X92421Y274250D02*
D03*
Y272281D02*
D03*
Y270313D02*
D03*
Y268344D02*
D03*
Y266376D02*
D03*
X106791D02*
D03*
Y268344D02*
D03*
Y270313D02*
D03*
Y272281D02*
D03*
Y274250D02*
D03*
X92457Y247592D02*
D03*
Y245623D02*
D03*
Y243655D02*
D03*
Y241686D02*
D03*
Y239718D02*
D03*
X106827D02*
D03*
Y241686D02*
D03*
Y243655D02*
D03*
Y245623D02*
D03*
Y247592D02*
D03*
X92457Y195623D02*
D03*
Y193655D02*
D03*
Y191686D02*
D03*
Y189718D02*
D03*
Y187749D02*
D03*
X106827D02*
D03*
Y189718D02*
D03*
Y191686D02*
D03*
Y193655D02*
D03*
Y195623D02*
D03*
X92457Y143655D02*
D03*
X92457Y141686D02*
D03*
Y139718D02*
D03*
Y137749D02*
D03*
X92457Y135781D02*
D03*
X106827D02*
D03*
Y137749D02*
D03*
Y139718D02*
D03*
Y141686D02*
D03*
Y143655D02*
D03*
X92457Y91686D02*
D03*
Y89718D02*
D03*
Y87749D02*
D03*
Y85781D02*
D03*
Y83812D02*
D03*
X106827D02*
D03*
Y85781D02*
D03*
Y87749D02*
D03*
Y89718D02*
D03*
Y91686D02*
D03*
X92421Y39764D02*
D03*
Y37795D02*
D03*
Y35827D02*
D03*
Y33858D02*
D03*
Y31890D02*
D03*
X106791D02*
D03*
X106791Y33858D02*
D03*
Y35827D02*
D03*
Y37795D02*
D03*
X106791Y39764D02*
D03*
D40*
X95669Y55315D02*
D03*
X97638D02*
D03*
X99606D02*
D03*
X101575D02*
D03*
X103543D02*
D03*
Y69685D02*
D03*
X101575D02*
D03*
X99606D02*
D03*
X97638D02*
D03*
X95669D02*
D03*
Y107293D02*
D03*
X97638D02*
D03*
X99606D02*
D03*
X101575D02*
D03*
X103543D02*
D03*
Y121663D02*
D03*
X101575D02*
D03*
X99606D02*
D03*
X97638D02*
D03*
X95669D02*
D03*
Y159226D02*
D03*
X97638D02*
D03*
X99606D02*
D03*
X101575D02*
D03*
X103543D02*
D03*
Y173596D02*
D03*
X101575D02*
D03*
X99606D02*
D03*
X97638D02*
D03*
X95669D02*
D03*
X95669Y211201D02*
D03*
X97638D02*
D03*
X99606D02*
D03*
X101575D02*
D03*
X103543D02*
D03*
Y225571D02*
D03*
X101575D02*
D03*
X99606D02*
D03*
X97638D02*
D03*
X95669D02*
D03*
X95669Y263128D02*
D03*
X97638D02*
D03*
X99606D02*
D03*
X101575D02*
D03*
X103543D02*
D03*
Y277498D02*
D03*
X101575D02*
D03*
X99606D02*
D03*
X97638D02*
D03*
X95669D02*
D03*
X95705Y236470D02*
D03*
X97673D02*
D03*
X99642D02*
D03*
X101610D02*
D03*
X103579D02*
D03*
Y250840D02*
D03*
X101610D02*
D03*
X99642D02*
D03*
X97673D02*
D03*
X95705D02*
D03*
Y184501D02*
D03*
X97673D02*
D03*
X99642D02*
D03*
X101610D02*
D03*
X103579D02*
D03*
Y198871D02*
D03*
X101610D02*
D03*
X99642D02*
D03*
X97673D02*
D03*
X95705D02*
D03*
Y132533D02*
D03*
X97673D02*
D03*
X99642D02*
D03*
X101610D02*
D03*
X103579D02*
D03*
Y146903D02*
D03*
X101610D02*
D03*
X99642D02*
D03*
X97673D02*
D03*
X95705D02*
D03*
Y80564D02*
D03*
X97673D02*
D03*
X99642D02*
D03*
X101610D02*
D03*
X103579D02*
D03*
Y94934D02*
D03*
X101610D02*
D03*
X99642D02*
D03*
X97673D02*
D03*
X95705D02*
D03*
X95669Y28642D02*
D03*
X97638D02*
D03*
X99606Y28642D02*
D03*
X101575D02*
D03*
X103543Y28642D02*
D03*
Y43012D02*
D03*
X101575D02*
D03*
X99606D02*
D03*
X97638D02*
D03*
X95669D02*
D03*
D41*
X99606Y62500D02*
D03*
Y114478D02*
D03*
Y166411D02*
D03*
X99606Y218386D02*
D03*
X99606Y270313D02*
D03*
X99642Y243655D02*
D03*
Y191686D02*
D03*
Y139718D02*
D03*
Y87749D02*
D03*
X99606Y35827D02*
D03*
D42*
X62835Y113779D02*
D03*
X66299D02*
D03*
X60394Y80315D02*
D03*
X56929D02*
D03*
X60394Y83465D02*
D03*
X56929Y83465D02*
D03*
X102520Y103543D02*
D03*
X99055D02*
D03*
X102520Y51575D02*
D03*
X99055D02*
D03*
X62441Y165748D02*
D03*
X65905D02*
D03*
X60319Y184491D02*
D03*
X56854D02*
D03*
X60319Y187640D02*
D03*
X56854D02*
D03*
X102520Y180709D02*
D03*
X99055D02*
D03*
X102520Y259449D02*
D03*
X99055D02*
D03*
X62441Y217717D02*
D03*
X65905D02*
D03*
X60394Y236614D02*
D03*
X56929D02*
D03*
X60394Y239764D02*
D03*
X56929D02*
D03*
X102520Y76772D02*
D03*
X99055D02*
D03*
X102520Y232677D02*
D03*
X99055D02*
D03*
X62441Y269685D02*
D03*
X65905D02*
D03*
X60394Y132480D02*
D03*
X56929D02*
D03*
X60394Y135630D02*
D03*
X56929D02*
D03*
X102126Y154724D02*
D03*
X98661D02*
D03*
X13032Y131890D02*
D03*
X16496D02*
D03*
X44449Y128740D02*
D03*
X40984D02*
D03*
X102520D02*
D03*
X99055D02*
D03*
X62441Y61811D02*
D03*
X65905D02*
D03*
X60394Y28346D02*
D03*
X56929D02*
D03*
X60394Y31496D02*
D03*
X56929Y31496D02*
D03*
X102520Y207480D02*
D03*
X99055D02*
D03*
X45709Y158268D02*
D03*
X49173D02*
D03*
X45709Y155118D02*
D03*
X49173D02*
D03*
X27402Y103347D02*
D03*
X30866D02*
D03*
X27402Y106299D02*
D03*
X30866Y106299D02*
D03*
X26142Y154134D02*
D03*
X22677D02*
D03*
X18740Y176378D02*
D03*
X22205D02*
D03*
X16496Y128740D02*
D03*
X13032D02*
D03*
X40984Y123425D02*
D03*
X44449D02*
D03*
X102624Y24810D02*
D03*
X99159D02*
D03*
D43*
X68504Y98819D02*
D03*
Y202756D02*
D03*
Y254724D02*
D03*
Y150787D02*
D03*
Y46850D02*
D03*
D44*
X79232Y106496D02*
D03*
Y103937D02*
D03*
Y101378D02*
D03*
Y98819D02*
D03*
Y96260D02*
D03*
Y93701D02*
D03*
Y91142D02*
D03*
X57776D02*
D03*
Y93701D02*
D03*
Y96260D02*
D03*
Y98819D02*
D03*
Y101378D02*
D03*
Y103937D02*
D03*
Y106496D02*
D03*
X79232Y210433D02*
D03*
Y207874D02*
D03*
Y205315D02*
D03*
Y202756D02*
D03*
Y200197D02*
D03*
Y197638D02*
D03*
Y195079D02*
D03*
X57776D02*
D03*
Y197638D02*
D03*
Y200197D02*
D03*
Y202756D02*
D03*
Y205315D02*
D03*
Y207874D02*
D03*
Y210433D02*
D03*
X79232Y262402D02*
D03*
Y259842D02*
D03*
Y257283D02*
D03*
Y254724D02*
D03*
Y252165D02*
D03*
Y249606D02*
D03*
Y247047D02*
D03*
X57776D02*
D03*
Y249606D02*
D03*
Y252165D02*
D03*
Y254724D02*
D03*
Y257283D02*
D03*
Y259842D02*
D03*
Y262402D02*
D03*
X79232Y158465D02*
D03*
Y155905D02*
D03*
Y153347D02*
D03*
Y150787D02*
D03*
Y148228D02*
D03*
Y145669D02*
D03*
Y143110D02*
D03*
X57776D02*
D03*
Y145669D02*
D03*
Y148228D02*
D03*
Y150787D02*
D03*
Y153347D02*
D03*
Y155905D02*
D03*
Y158465D02*
D03*
X79232Y54528D02*
D03*
Y51968D02*
D03*
Y49409D02*
D03*
Y46850D02*
D03*
Y44291D02*
D03*
Y41732D02*
D03*
Y39173D02*
D03*
X57776D02*
D03*
Y41732D02*
D03*
Y44291D02*
D03*
Y46850D02*
D03*
Y49409D02*
D03*
Y51968D02*
D03*
Y54528D02*
D03*
D45*
X76181Y88091D02*
D03*
X73622D02*
D03*
X71063D02*
D03*
X68504D02*
D03*
X65945D02*
D03*
X63386D02*
D03*
X60827D02*
D03*
Y109547D02*
D03*
X63386D02*
D03*
X65945D02*
D03*
X68504D02*
D03*
X71063D02*
D03*
X73622D02*
D03*
X76181D02*
D03*
Y192028D02*
D03*
X73622D02*
D03*
X71063D02*
D03*
X68504D02*
D03*
X65945D02*
D03*
X63386D02*
D03*
X60827D02*
D03*
Y213484D02*
D03*
X63386D02*
D03*
X65945D02*
D03*
X68504D02*
D03*
X71063D02*
D03*
X73622D02*
D03*
X76181D02*
D03*
Y243996D02*
D03*
X73622D02*
D03*
X71063D02*
D03*
X68504D02*
D03*
X65945D02*
D03*
X63386D02*
D03*
X60827D02*
D03*
Y265453D02*
D03*
X63386D02*
D03*
X65945D02*
D03*
X68504D02*
D03*
X71063D02*
D03*
X73622D02*
D03*
X76181D02*
D03*
Y140059D02*
D03*
X73622D02*
D03*
X71063D02*
D03*
X68504D02*
D03*
X65945D02*
D03*
X63386D02*
D03*
X60827D02*
D03*
Y161516D02*
D03*
X63386D02*
D03*
X65945D02*
D03*
X68504D02*
D03*
X71063D02*
D03*
X73622D02*
D03*
X76181D02*
D03*
Y36122D02*
D03*
X73622D02*
D03*
X71063D02*
D03*
X68504D02*
D03*
X65945D02*
D03*
X63386D02*
D03*
X60827D02*
D03*
Y57579D02*
D03*
X63386D02*
D03*
X65945D02*
D03*
X68504D02*
D03*
X71063D02*
D03*
X73622D02*
D03*
X76181D02*
D03*
D46*
X26969Y140905D02*
D03*
Y137441D02*
D03*
X22047Y140905D02*
D03*
Y137441D02*
D03*
D47*
X40748Y254724D02*
D03*
Y239724D02*
D03*
X35748Y254724D02*
D03*
Y239724D02*
D03*
X30748Y254724D02*
D03*
Y239724D02*
D03*
X25748Y254724D02*
D03*
Y239724D02*
D03*
X20748Y254724D02*
D03*
Y239724D02*
D03*
X15748Y254724D02*
D03*
Y239724D02*
D03*
X40748Y61850D02*
D03*
Y46850D02*
D03*
X35748Y61850D02*
D03*
Y46850D02*
D03*
X30748Y61850D02*
D03*
Y46850D02*
D03*
X25748Y61850D02*
D03*
Y46850D02*
D03*
X20748Y61850D02*
D03*
Y46850D02*
D03*
X15748Y61850D02*
D03*
Y46850D02*
D03*
D48*
X18701Y162795D02*
D03*
X26181Y162795D02*
D03*
X18701Y172638D02*
D03*
X22441Y172638D02*
D03*
X26181D02*
D03*
D49*
X26181Y158268D02*
D03*
X21457D02*
D03*
D50*
X11417Y124606D02*
D03*
X16142D02*
D03*
D51*
X24016Y185433D02*
D03*
Y193307D02*
D03*
Y209252D02*
D03*
Y217126D02*
D03*
D52*
X495827Y170866D02*
D03*
Y40709D02*
D03*
X3937Y151024D02*
D03*
Y192520D02*
D03*
D53*
X485827Y170866D02*
D03*
X495827Y180866D02*
D03*
X485827Y180866D02*
D03*
X495827Y190866D02*
D03*
X485827Y190866D02*
D03*
X495827Y200866D02*
D03*
X485827Y200866D02*
D03*
X495827Y210866D02*
D03*
X485827Y210866D02*
D03*
X495827Y220866D02*
D03*
X485827Y220866D02*
D03*
X495827Y230866D02*
D03*
X485827Y230866D02*
D03*
X495827Y240866D02*
D03*
X485827Y240866D02*
D03*
X495827Y250866D02*
D03*
X485827D02*
D03*
X495827Y260866D02*
D03*
X485827D02*
D03*
Y40709D02*
D03*
X495827Y50709D02*
D03*
X485827D02*
D03*
X495827Y60709D02*
D03*
X485827D02*
D03*
X495827Y70709D02*
D03*
X485827Y70709D02*
D03*
X495827Y80709D02*
D03*
X485827D02*
D03*
X495827Y90709D02*
D03*
X485827Y90709D02*
D03*
X495827Y100709D02*
D03*
X485827D02*
D03*
X495827Y110709D02*
D03*
X485827Y110709D02*
D03*
X495827Y120709D02*
D03*
X485827Y120709D02*
D03*
X495827Y130709D02*
D03*
X485827Y130709D02*
D03*
X3937Y181024D02*
D03*
Y171024D02*
D03*
Y161024D02*
D03*
Y222520D02*
D03*
Y212520D02*
D03*
Y202520D02*
D03*
D54*
X457087Y39370D02*
D03*
Y91339D02*
D03*
Y143307D02*
D03*
Y195276D02*
D03*
Y247244D02*
D03*
Y262205D02*
D03*
Y210236D02*
D03*
Y158268D02*
D03*
Y106299D02*
D03*
Y54331D02*
D03*
D55*
X43701Y46850D02*
D03*
X33858Y113779D02*
D03*
X14173Y88779D02*
D03*
X18898D02*
D03*
X23425D02*
D03*
X28346D02*
D03*
X32874D02*
D03*
X38386D02*
D03*
X45472D02*
D03*
X38189Y215945D02*
D03*
X46654D02*
D03*
X46850Y226378D02*
D03*
X12205D02*
D03*
X23228D02*
D03*
X30315D02*
D03*
X38780D02*
D03*
X42717Y120669D02*
D03*
X49409Y254724D02*
D03*
Y252165D02*
D03*
Y249606D02*
D03*
X49606Y202756D02*
D03*
Y197441D02*
D03*
Y41929D02*
D03*
Y46654D02*
D03*
Y145669D02*
D03*
Y150787D02*
D03*
X49409Y98819D02*
D03*
X62917Y187640D02*
D03*
Y184491D02*
D03*
X99016Y178150D02*
D03*
X20669Y247835D02*
D03*
X22047Y143307D02*
D03*
X29724Y140945D02*
D03*
X26181Y151378D02*
D03*
X34252Y106496D02*
D03*
X25787Y247835D02*
D03*
X25984Y68898D02*
D03*
X12992Y134449D02*
D03*
X39370Y103150D02*
D03*
X30709Y247835D02*
D03*
Y68898D02*
D03*
X35827Y248031D02*
D03*
X35827Y68898D02*
D03*
X40748D02*
D03*
Y248031D02*
D03*
X21138Y133206D02*
D03*
X15748Y247441D02*
D03*
X16929Y75984D02*
D03*
X21063D02*
D03*
X12992Y46850D02*
D03*
X44291Y239764D02*
D03*
X12205D02*
D03*
X47047Y123425D02*
D03*
Y128740D02*
D03*
X24016Y103347D02*
D03*
Y106299D02*
D03*
X43110Y158268D02*
D03*
Y155315D02*
D03*
X8465Y124606D02*
D03*
X10591Y128740D02*
D03*
X19882Y154134D02*
D03*
X18307Y158268D02*
D03*
X22047Y179331D02*
D03*
X63189Y132480D02*
D03*
Y135630D02*
D03*
Y239764D02*
D03*
Y236614D02*
D03*
X54134Y51968D02*
D03*
X51968Y54331D02*
D03*
X54134Y103937D02*
D03*
X51968Y106299D02*
D03*
X54134Y259842D02*
D03*
X51968Y262205D02*
D03*
X54134Y207874D02*
D03*
X51968Y210236D02*
D03*
Y158268D02*
D03*
X54134Y155905D02*
D03*
X63189Y31496D02*
D03*
Y28346D02*
D03*
X62992Y80315D02*
D03*
Y83465D02*
D03*
X59449Y61811D02*
D03*
X65748Y64567D02*
D03*
X59423Y269630D02*
D03*
X65748Y272441D02*
D03*
Y220472D02*
D03*
X59449Y217717D02*
D03*
X60184Y113828D02*
D03*
X66142Y116142D02*
D03*
X59842Y165748D02*
D03*
X65748Y168504D02*
D03*
X95669Y181102D02*
D03*
X83071Y150787D02*
D03*
X92520Y185433D02*
D03*
X83071Y153150D02*
D03*
Y155905D02*
D03*
Y158661D02*
D03*
X89370Y189764D02*
D03*
X87402Y191732D02*
D03*
X89370Y193701D02*
D03*
X87402Y195669D02*
D03*
X92520Y198819D02*
D03*
X97638Y201969D02*
D03*
X68382Y165279D02*
D03*
X71138D02*
D03*
X73894D02*
D03*
X76256D02*
D03*
Y61342D02*
D03*
X73894D02*
D03*
X71138D02*
D03*
X68382D02*
D03*
X96457Y232677D02*
D03*
X97638Y98032D02*
D03*
X92520Y94882D02*
D03*
X87402Y91732D02*
D03*
X89370Y89764D02*
D03*
X87402Y87795D02*
D03*
X89370Y85827D02*
D03*
X83071Y54724D02*
D03*
Y51968D02*
D03*
Y49213D02*
D03*
X92520Y81496D02*
D03*
X83071Y46850D02*
D03*
X95669Y77165D02*
D03*
X120472Y237008D02*
D03*
Y185039D02*
D03*
Y133465D02*
D03*
Y81102D02*
D03*
Y29528D02*
D03*
X457087Y254724D02*
D03*
X457480Y238976D02*
D03*
X457087Y218110D02*
D03*
Y46850D02*
D03*
X456693Y150787D02*
D03*
X457087Y115354D02*
D03*
X498819Y148425D02*
D03*
Y160236D02*
D03*
X485039Y148425D02*
D03*
X479134Y159843D02*
D03*
X452362Y280315D02*
D03*
X446063D02*
D03*
X436614D02*
D03*
X417717D02*
D03*
X427165D02*
D03*
X379921D02*
D03*
X370472D02*
D03*
X389370D02*
D03*
X398819D02*
D03*
X408268D02*
D03*
X313779D02*
D03*
X304331D02*
D03*
X285433D02*
D03*
X294882D02*
D03*
X342126D02*
D03*
X332677D02*
D03*
X323228D02*
D03*
X351575D02*
D03*
X361024D02*
D03*
X228740D02*
D03*
X219291D02*
D03*
X190945D02*
D03*
X200394D02*
D03*
X209842D02*
D03*
X247638D02*
D03*
X238189D02*
D03*
X257087D02*
D03*
X266535D02*
D03*
X275984D02*
D03*
X143701D02*
D03*
X134252D02*
D03*
X124803D02*
D03*
X162598D02*
D03*
X153150D02*
D03*
X172047D02*
D03*
X181496D02*
D03*
X452362Y21260D02*
D03*
X446063D02*
D03*
X436614D02*
D03*
X417717D02*
D03*
X427165D02*
D03*
X379921D02*
D03*
X370472D02*
D03*
X389370D02*
D03*
X398819D02*
D03*
X408268D02*
D03*
X313779D02*
D03*
X304331D02*
D03*
X285433D02*
D03*
X294882D02*
D03*
X342126D02*
D03*
X332677D02*
D03*
X323228D02*
D03*
X351575D02*
D03*
X361024D02*
D03*
X228740D02*
D03*
X219291D02*
D03*
X190945D02*
D03*
X200394D02*
D03*
X209842D02*
D03*
X247638D02*
D03*
X238189D02*
D03*
X257087D02*
D03*
X266535D02*
D03*
X275984D02*
D03*
X143701D02*
D03*
X134252D02*
D03*
X124803D02*
D03*
X162598D02*
D03*
X153150D02*
D03*
X172047D02*
D03*
X181496D02*
D03*
X452362Y72835D02*
D03*
X446063D02*
D03*
X436614D02*
D03*
X417717D02*
D03*
X427165D02*
D03*
X379921D02*
D03*
X370472D02*
D03*
X389370D02*
D03*
X398819D02*
D03*
X408268D02*
D03*
X313779D02*
D03*
X304331D02*
D03*
X285433D02*
D03*
X294882D02*
D03*
X342126D02*
D03*
X332677D02*
D03*
X323228D02*
D03*
X351575D02*
D03*
X361024D02*
D03*
X228740D02*
D03*
X219291D02*
D03*
X190945D02*
D03*
X200394D02*
D03*
X209842D02*
D03*
X247638D02*
D03*
X238189D02*
D03*
X257087D02*
D03*
X266535D02*
D03*
X275984D02*
D03*
X143701D02*
D03*
X134252D02*
D03*
X124803D02*
D03*
X162598D02*
D03*
X153150D02*
D03*
X172047D02*
D03*
X181496D02*
D03*
X452362Y124803D02*
D03*
X446063D02*
D03*
X436614D02*
D03*
X417717D02*
D03*
X427165D02*
D03*
X379921D02*
D03*
X370472D02*
D03*
X389370D02*
D03*
X398819D02*
D03*
X408268D02*
D03*
X313779D02*
D03*
X304331D02*
D03*
X285433D02*
D03*
X294882D02*
D03*
X342126D02*
D03*
X332677D02*
D03*
X323228D02*
D03*
X351575D02*
D03*
X361024D02*
D03*
X228740D02*
D03*
X219291D02*
D03*
X190945D02*
D03*
X200394D02*
D03*
X209842D02*
D03*
X247638D02*
D03*
X238189D02*
D03*
X257087D02*
D03*
X266535D02*
D03*
X275984D02*
D03*
X143701D02*
D03*
X134252D02*
D03*
X124803D02*
D03*
X162598D02*
D03*
X153150D02*
D03*
X172047D02*
D03*
X181496D02*
D03*
X452362Y176772D02*
D03*
X436614D02*
D03*
X417717D02*
D03*
X427165D02*
D03*
X379921D02*
D03*
X370472D02*
D03*
X389370D02*
D03*
X398819D02*
D03*
X408268D02*
D03*
X313779D02*
D03*
X304331D02*
D03*
X285433D02*
D03*
X294882D02*
D03*
X342126D02*
D03*
X332677D02*
D03*
X323228D02*
D03*
X351575D02*
D03*
X361024D02*
D03*
X228740D02*
D03*
X219291D02*
D03*
X190945D02*
D03*
X200394D02*
D03*
X209842D02*
D03*
X247638D02*
D03*
X238189D02*
D03*
X257087D02*
D03*
X266535D02*
D03*
X275984D02*
D03*
X143701D02*
D03*
X134252D02*
D03*
X124803D02*
D03*
X162598D02*
D03*
X153150D02*
D03*
X172047D02*
D03*
X181496D02*
D03*
Y228740D02*
D03*
X172047D02*
D03*
X153150D02*
D03*
X162598D02*
D03*
X124803D02*
D03*
X134252D02*
D03*
X143701D02*
D03*
X275984D02*
D03*
X266535D02*
D03*
X257087D02*
D03*
X238189D02*
D03*
X247638D02*
D03*
X209842D02*
D03*
X200394D02*
D03*
X190945D02*
D03*
X219291D02*
D03*
X228740D02*
D03*
X361024D02*
D03*
X351575D02*
D03*
X323228D02*
D03*
X332677D02*
D03*
X342126D02*
D03*
X294882D02*
D03*
X285433D02*
D03*
X304331D02*
D03*
X313779D02*
D03*
X408268D02*
D03*
X398819D02*
D03*
X389370D02*
D03*
X370472D02*
D03*
X379921D02*
D03*
X427165D02*
D03*
X417717D02*
D03*
X436614D02*
D03*
X446063D02*
D03*
X452362D02*
D03*
X422441Y209842D02*
D03*
X422047Y158268D02*
D03*
X422047Y106299D02*
D03*
Y54331D02*
D03*
X422638Y261614D02*
D03*
X422047Y39370D02*
D03*
Y91339D02*
D03*
X422835Y248031D02*
D03*
X422047Y143307D02*
D03*
X422441Y195669D02*
D03*
X99213Y256693D02*
D03*
X105512Y259449D02*
D03*
Y232677D02*
D03*
X99213Y204724D02*
D03*
X105512Y207480D02*
D03*
X105118Y180709D02*
D03*
X104724Y154724D02*
D03*
X98634Y152116D02*
D03*
X98920Y126301D02*
D03*
X105118Y128740D02*
D03*
Y103543D02*
D03*
X98819Y100787D02*
D03*
X99091Y22142D02*
D03*
X105512Y24803D02*
D03*
X105118Y51575D02*
D03*
X99045Y48683D02*
D03*
X105118Y76772D02*
D03*
X99055Y74173D02*
D03*
X106693Y45669D02*
D03*
X421654Y266535D02*
D03*
Y242913D02*
D03*
X389764Y266535D02*
D03*
Y242913D02*
D03*
X365748Y266535D02*
D03*
X356693D02*
D03*
Y242913D02*
D03*
X365748D02*
D03*
X348031Y266535D02*
D03*
Y242913D02*
D03*
X253150Y266535D02*
D03*
Y242913D02*
D03*
X197244Y266535D02*
D03*
X221654D02*
D03*
X197244Y242913D02*
D03*
X221654D02*
D03*
X188189Y266535D02*
D03*
Y242913D02*
D03*
X440945Y266535D02*
D03*
Y242913D02*
D03*
X432283Y266535D02*
D03*
Y242913D02*
D03*
X407874Y266535D02*
D03*
Y242913D02*
D03*
X398819Y266535D02*
D03*
Y242913D02*
D03*
X379528Y266535D02*
D03*
Y242913D02*
D03*
X337402Y266535D02*
D03*
Y242913D02*
D03*
X323622Y266535D02*
D03*
Y242913D02*
D03*
X314567Y266535D02*
D03*
Y242913D02*
D03*
X305906Y266535D02*
D03*
Y242913D02*
D03*
X295276Y266535D02*
D03*
Y242913D02*
D03*
X281496Y266535D02*
D03*
Y242913D02*
D03*
X272441Y266535D02*
D03*
Y242913D02*
D03*
X263779Y266535D02*
D03*
Y242913D02*
D03*
X239370Y266535D02*
D03*
Y242913D02*
D03*
X230315Y266535D02*
D03*
Y242913D02*
D03*
X211024Y266535D02*
D03*
Y242913D02*
D03*
X179528Y266535D02*
D03*
Y242913D02*
D03*
X168898Y266535D02*
D03*
Y242913D02*
D03*
X155118Y266535D02*
D03*
Y242913D02*
D03*
X146063Y266535D02*
D03*
Y242913D02*
D03*
X137402Y266535D02*
D03*
Y242913D02*
D03*
X124016Y266535D02*
D03*
X129134Y242913D02*
D03*
X159055Y266929D02*
D03*
X106299Y277559D02*
D03*
X201181Y266929D02*
D03*
X109843Y274410D02*
D03*
X243307Y266929D02*
D03*
X111811Y272441D02*
D03*
X285433Y266929D02*
D03*
X109843Y270472D02*
D03*
X327559Y266929D02*
D03*
X111811Y268504D02*
D03*
X369685Y266929D02*
D03*
X109843Y266535D02*
D03*
X162598Y251575D02*
D03*
X411811Y266929D02*
D03*
X106299Y263386D02*
D03*
X147244Y237795D02*
D03*
X421654Y214567D02*
D03*
Y190945D02*
D03*
X389764Y214567D02*
D03*
Y190945D02*
D03*
X365748Y214567D02*
D03*
X356693D02*
D03*
Y190945D02*
D03*
X365748D02*
D03*
X348031Y214567D02*
D03*
Y190945D02*
D03*
X253150Y214567D02*
D03*
Y190945D02*
D03*
X197244Y214567D02*
D03*
X221654D02*
D03*
X197244Y190945D02*
D03*
X221654D02*
D03*
X188189Y214567D02*
D03*
Y190945D02*
D03*
X440945Y214567D02*
D03*
Y190945D02*
D03*
X432283Y214567D02*
D03*
Y190945D02*
D03*
X407874Y214567D02*
D03*
Y190945D02*
D03*
X398819Y214567D02*
D03*
Y190945D02*
D03*
X379528Y214567D02*
D03*
Y190945D02*
D03*
X337402Y214567D02*
D03*
Y190945D02*
D03*
X323622Y214567D02*
D03*
Y190945D02*
D03*
X314567Y214567D02*
D03*
Y190945D02*
D03*
X305906Y214567D02*
D03*
Y190945D02*
D03*
X295276Y214567D02*
D03*
Y190945D02*
D03*
X281496Y214567D02*
D03*
Y190945D02*
D03*
X272441Y214567D02*
D03*
Y190945D02*
D03*
X263779Y214567D02*
D03*
Y190945D02*
D03*
X239370Y214567D02*
D03*
Y190945D02*
D03*
X230315Y214567D02*
D03*
Y190945D02*
D03*
X211024Y214567D02*
D03*
Y190945D02*
D03*
X179528Y214567D02*
D03*
Y190945D02*
D03*
X168898Y214567D02*
D03*
Y190945D02*
D03*
X155118Y214567D02*
D03*
Y190945D02*
D03*
X146063Y214567D02*
D03*
Y190945D02*
D03*
X137402Y214567D02*
D03*
Y190945D02*
D03*
X124016Y214567D02*
D03*
X129134Y190945D02*
D03*
X159055Y214961D02*
D03*
X106299Y225591D02*
D03*
X201181Y214961D02*
D03*
X109843Y222441D02*
D03*
X243307Y214961D02*
D03*
X111811Y220472D02*
D03*
X285433Y214961D02*
D03*
X109843Y218504D02*
D03*
X327559Y214961D02*
D03*
X111811Y216535D02*
D03*
X369685Y214961D02*
D03*
X109843Y214567D02*
D03*
X162598Y199606D02*
D03*
X411811Y214961D02*
D03*
X106299Y211417D02*
D03*
X147244Y185827D02*
D03*
X421654Y162598D02*
D03*
Y138976D02*
D03*
X389764Y162598D02*
D03*
Y138976D02*
D03*
X365748Y162598D02*
D03*
X356693D02*
D03*
Y138976D02*
D03*
X365748D02*
D03*
X348031Y162598D02*
D03*
Y138976D02*
D03*
X253150Y162598D02*
D03*
Y138976D02*
D03*
X197244Y162598D02*
D03*
X221654D02*
D03*
X197244Y138976D02*
D03*
X221654D02*
D03*
X188189Y162598D02*
D03*
Y138976D02*
D03*
X440945Y162598D02*
D03*
Y138976D02*
D03*
X432283Y162598D02*
D03*
Y138976D02*
D03*
X407874Y162598D02*
D03*
Y138976D02*
D03*
X398819Y162598D02*
D03*
Y138976D02*
D03*
X379528Y162598D02*
D03*
Y138976D02*
D03*
X337402Y162598D02*
D03*
Y138976D02*
D03*
X323622Y162598D02*
D03*
Y138976D02*
D03*
X314567Y162598D02*
D03*
Y138976D02*
D03*
X305906Y162598D02*
D03*
Y138976D02*
D03*
X295276Y162598D02*
D03*
Y138976D02*
D03*
X281496Y162598D02*
D03*
Y138976D02*
D03*
X272441Y162598D02*
D03*
Y138976D02*
D03*
X263779Y162598D02*
D03*
Y138976D02*
D03*
X239370Y162598D02*
D03*
Y138976D02*
D03*
X230315Y162598D02*
D03*
Y138976D02*
D03*
X211024Y162598D02*
D03*
Y138976D02*
D03*
X179528Y162598D02*
D03*
Y138976D02*
D03*
X168898Y162598D02*
D03*
Y138976D02*
D03*
X155118Y162598D02*
D03*
Y138976D02*
D03*
X146063Y162598D02*
D03*
Y138976D02*
D03*
X137402Y162598D02*
D03*
Y138976D02*
D03*
X124016Y162598D02*
D03*
X129134Y138976D02*
D03*
X159055Y162992D02*
D03*
X106299Y173622D02*
D03*
X201181Y162992D02*
D03*
X109843Y170473D02*
D03*
X243307Y162992D02*
D03*
X111811Y168504D02*
D03*
X285433Y162992D02*
D03*
X109843Y166535D02*
D03*
X327559Y162992D02*
D03*
X111811Y164567D02*
D03*
X369685Y162992D02*
D03*
X109843Y162598D02*
D03*
X162598Y147638D02*
D03*
X411811Y162992D02*
D03*
X106299Y159449D02*
D03*
X147244Y133858D02*
D03*
X421654Y110630D02*
D03*
Y87008D02*
D03*
X389764Y110630D02*
D03*
Y87008D02*
D03*
X365748Y110630D02*
D03*
X356693D02*
D03*
Y87008D02*
D03*
X365748D02*
D03*
X348031Y110630D02*
D03*
Y87008D02*
D03*
X253150Y110630D02*
D03*
Y87008D02*
D03*
X197244Y110630D02*
D03*
X221654D02*
D03*
X197244Y87008D02*
D03*
X221654D02*
D03*
X188189Y110630D02*
D03*
Y87008D02*
D03*
X440945Y110630D02*
D03*
Y87008D02*
D03*
X432283Y110630D02*
D03*
Y87008D02*
D03*
X407874Y110630D02*
D03*
Y87008D02*
D03*
X398819Y110630D02*
D03*
Y87008D02*
D03*
X379528Y110630D02*
D03*
Y87008D02*
D03*
X337402Y110630D02*
D03*
Y87008D02*
D03*
X323622Y110630D02*
D03*
Y87008D02*
D03*
X314567Y110630D02*
D03*
Y87008D02*
D03*
X305906Y110630D02*
D03*
Y87008D02*
D03*
X295276Y110630D02*
D03*
Y87008D02*
D03*
X281496Y110630D02*
D03*
Y87008D02*
D03*
X272441Y110630D02*
D03*
Y87008D02*
D03*
X263779Y110630D02*
D03*
Y87008D02*
D03*
X239370Y110630D02*
D03*
Y87008D02*
D03*
X230315Y110630D02*
D03*
Y87008D02*
D03*
X211024Y110630D02*
D03*
Y87008D02*
D03*
X179528Y110630D02*
D03*
Y87008D02*
D03*
X168898Y110630D02*
D03*
Y87008D02*
D03*
X155118Y110630D02*
D03*
Y87008D02*
D03*
X146063Y110630D02*
D03*
Y87008D02*
D03*
X137402Y110630D02*
D03*
Y87008D02*
D03*
X124016Y110630D02*
D03*
X129134Y87008D02*
D03*
X159055Y111024D02*
D03*
X106299Y121653D02*
D03*
X201181Y111024D02*
D03*
X109843Y118504D02*
D03*
X243307Y111024D02*
D03*
X111811Y116535D02*
D03*
X285433Y111024D02*
D03*
X109843Y114567D02*
D03*
X327559Y111024D02*
D03*
X111811Y112598D02*
D03*
X369685Y111024D02*
D03*
X109843Y110630D02*
D03*
X162598Y95669D02*
D03*
X411811Y111024D02*
D03*
X106299Y107480D02*
D03*
X147244Y81890D02*
D03*
X137402Y35039D02*
D03*
X146063D02*
D03*
X168898D02*
D03*
X179528D02*
D03*
X197244D02*
D03*
X211024D02*
D03*
X230315D02*
D03*
X239370D02*
D03*
X263779D02*
D03*
X272441D02*
D03*
X281496D02*
D03*
X155118D02*
D03*
X188189D02*
D03*
X221654D02*
D03*
X253150D02*
D03*
X295276D02*
D03*
X305906D02*
D03*
X314567D02*
D03*
X323622D02*
D03*
X337402D02*
D03*
X348031D02*
D03*
X356693D02*
D03*
X365748D02*
D03*
X379528D02*
D03*
X389764D02*
D03*
X398819D02*
D03*
X407874D02*
D03*
X421654D02*
D03*
X432283D02*
D03*
X440945D02*
D03*
Y58661D02*
D03*
X432283D02*
D03*
X421654D02*
D03*
X407874D02*
D03*
X398819D02*
D03*
X389764D02*
D03*
X379528D02*
D03*
X365748D02*
D03*
X356693D02*
D03*
X348031D02*
D03*
X337402D02*
D03*
X323622D02*
D03*
X314567D02*
D03*
X305906D02*
D03*
X295276D02*
D03*
X162598Y43701D02*
D03*
X129528Y58661D02*
D03*
X159055Y34646D02*
D03*
X109780Y31844D02*
D03*
X201181Y34646D02*
D03*
X111748Y33812D02*
D03*
X243307Y34646D02*
D03*
X109780Y35781D02*
D03*
X285433Y34646D02*
D03*
X111846Y37848D02*
D03*
X327559Y34646D02*
D03*
X109878Y39816D02*
D03*
X369685Y34646D02*
D03*
X106728Y42966D02*
D03*
X411811Y34646D02*
D03*
X146850Y63779D02*
D03*
X129528Y110630D02*
D03*
X159055Y86614D02*
D03*
X109780Y83812D02*
D03*
X201181Y86614D02*
D03*
X111748Y85781D02*
D03*
X243307Y86614D02*
D03*
X109780Y87749D02*
D03*
X285433Y86614D02*
D03*
X111846Y89816D02*
D03*
X327559Y86614D02*
D03*
X109878Y91785D02*
D03*
X369685Y86614D02*
D03*
X106728Y94934D02*
D03*
X411811Y86614D02*
D03*
X106728Y97690D02*
D03*
X146850Y115748D02*
D03*
X129528Y162598D02*
D03*
X159055Y138583D02*
D03*
X109780Y135781D02*
D03*
X201181Y138583D02*
D03*
X111748Y137749D02*
D03*
X243307Y138583D02*
D03*
X109780Y139718D02*
D03*
X285433Y138583D02*
D03*
X111846Y141785D02*
D03*
X327559Y138583D02*
D03*
X109878Y143753D02*
D03*
X369685Y138583D02*
D03*
X106728Y146903D02*
D03*
X411811Y138583D02*
D03*
X106728Y149659D02*
D03*
X146850Y167717D02*
D03*
X129528Y214567D02*
D03*
X159055Y190551D02*
D03*
X109780Y187749D02*
D03*
X201181Y190551D02*
D03*
X111748Y189718D02*
D03*
X243307Y190551D02*
D03*
X109780Y191686D02*
D03*
X285433Y190551D02*
D03*
X111846Y193753D02*
D03*
X327559Y190551D02*
D03*
X109878Y195722D02*
D03*
X369685Y190551D02*
D03*
X106728Y198871D02*
D03*
X411811Y190551D02*
D03*
X106728Y201627D02*
D03*
X146850Y219685D02*
D03*
X253150Y58661D02*
D03*
X221654D02*
D03*
X188189D02*
D03*
X155118D02*
D03*
X281496D02*
D03*
X272441D02*
D03*
X263779D02*
D03*
X239370D02*
D03*
X230315D02*
D03*
X211024D02*
D03*
X197244D02*
D03*
X179528D02*
D03*
X168898D02*
D03*
X146063D02*
D03*
X137402D02*
D03*
X124016D02*
D03*
X129134Y35039D02*
D03*
X159055Y59055D02*
D03*
X106299Y69685D02*
D03*
X201181Y59055D02*
D03*
X109843Y66535D02*
D03*
X243307Y59055D02*
D03*
X111811Y64567D02*
D03*
X285433Y59055D02*
D03*
X109843Y62598D02*
D03*
X327559Y59055D02*
D03*
X111811Y60630D02*
D03*
X369685Y59055D02*
D03*
X109843Y58661D02*
D03*
X411811Y59055D02*
D03*
X106299Y55512D02*
D03*
X147244Y29921D02*
D03*
X146850Y271654D02*
D03*
X129528Y266535D02*
D03*
X109780Y239718D02*
D03*
X111748Y241686D02*
D03*
X109780Y243655D02*
D03*
X106728Y253596D02*
D03*
X411811Y242520D02*
D03*
X106728Y250840D02*
D03*
X369685Y242520D02*
D03*
X109878Y247690D02*
D03*
X327559Y242520D02*
D03*
X111846Y245722D02*
D03*
X285433Y242520D02*
D03*
X243307D02*
D03*
X201181D02*
D03*
X159055D02*
D03*
D56*
X31102Y122835D02*
D03*
X26378D02*
D03*
X31102Y127559D02*
D03*
X26378D02*
D03*
D57*
X12205Y276772D02*
D03*
Y24803D02*
D03*
X468898Y276772D02*
D03*
Y24803D02*
D03*
D58*
X130709Y250000D02*
D03*
X124016Y242913D02*
D03*
X130709Y198031D02*
D03*
X124016Y190945D02*
D03*
X130709Y146063D02*
D03*
X124016Y138976D02*
D03*
X130709Y94095D02*
D03*
X124016Y87008D02*
D03*
X130709Y42126D02*
D03*
X124016Y35039D02*
D03*
D59*
X97441Y64665D02*
D03*
X101772D02*
D03*
X97441Y60335D02*
D03*
X101772D02*
D03*
X64173Y94488D02*
D03*
Y98819D02*
D03*
Y103150D02*
D03*
X68504Y94488D02*
D03*
Y98819D02*
D03*
Y103150D02*
D03*
X72835Y94488D02*
D03*
X72835Y98819D02*
D03*
X72835Y103150D02*
D03*
X97441Y116643D02*
D03*
X101772D02*
D03*
X97441Y112312D02*
D03*
X101772D02*
D03*
X97441Y168576D02*
D03*
X101772D02*
D03*
X97441Y164245D02*
D03*
X101772D02*
D03*
X64173Y198425D02*
D03*
Y202756D02*
D03*
Y207087D02*
D03*
X68504Y198425D02*
D03*
Y202756D02*
D03*
Y207087D02*
D03*
X72835Y198425D02*
D03*
Y202756D02*
D03*
Y207087D02*
D03*
X97441Y220551D02*
D03*
X101772D02*
D03*
X97441Y216220D02*
D03*
X101772D02*
D03*
X97441Y272478D02*
D03*
X101772D02*
D03*
X97441Y268147D02*
D03*
X101772D02*
D03*
X64173Y250394D02*
D03*
X64173Y254724D02*
D03*
X64173Y259055D02*
D03*
X68504Y250394D02*
D03*
Y254724D02*
D03*
Y259055D02*
D03*
X72835Y250394D02*
D03*
X72835Y254724D02*
D03*
X72835Y259055D02*
D03*
X97476Y245820D02*
D03*
X101807D02*
D03*
X97476Y241489D02*
D03*
X101807D02*
D03*
X97476Y193851D02*
D03*
X101807D02*
D03*
X97476Y189521D02*
D03*
X101807D02*
D03*
X64173Y146457D02*
D03*
X64173Y150787D02*
D03*
X64173Y155118D02*
D03*
X68504Y146457D02*
D03*
Y150787D02*
D03*
Y155118D02*
D03*
X72835Y146457D02*
D03*
X72835Y150787D02*
D03*
X72835Y155118D02*
D03*
X97476Y141883D02*
D03*
X101807Y141883D02*
D03*
X97476Y137552D02*
D03*
X101807Y137552D02*
D03*
X97476Y89915D02*
D03*
X101807D02*
D03*
X97476Y85584D02*
D03*
X101807D02*
D03*
X64173Y42520D02*
D03*
Y46850D02*
D03*
Y51181D02*
D03*
X68504Y42520D02*
D03*
Y46850D02*
D03*
Y51181D02*
D03*
X72835Y42520D02*
D03*
X72835Y46850D02*
D03*
X72835Y51181D02*
D03*
X97441Y37992D02*
D03*
X101772D02*
D03*
X97441Y33661D02*
D03*
X101772Y33661D02*
D03*
M02*
