G04*
G04 #@! TF.GenerationSoftware,Altium Limited,Altium Designer,20.0.9 (164)*
G04*
G04 Layer_Physical_Order=3*
G04 Layer_Color=16440176*
%FSLAX25Y25*%
%MOIN*%
G70*
G01*
G75*
%ADD10C,0.00787*%
%ADD63C,0.05000*%
%ADD64R,0.05906X0.05906*%
%ADD65C,0.05906*%
%ADD66C,0.07400*%
%ADD67C,0.01772*%
%ADD68C,0.02598*%
%ADD71C,0.01968*%
G36*
X111811Y274366D02*
X111741Y274337D01*
X111675Y274347D01*
X111206Y274657D01*
X111148Y274950D01*
X110842Y275409D01*
X110383Y275715D01*
X109843Y275822D01*
X109302Y275715D01*
X108843Y275409D01*
X108537Y274950D01*
X108430Y274410D01*
X108537Y273869D01*
X108843Y273410D01*
X109302Y273104D01*
X109843Y272996D01*
X109925Y273013D01*
X110307Y272675D01*
X110307Y272207D01*
X109925Y271869D01*
X109843Y271885D01*
X109302Y271778D01*
X108843Y271472D01*
X108537Y271013D01*
X108430Y270472D01*
X108537Y269932D01*
X108843Y269473D01*
X109302Y269167D01*
X109843Y269059D01*
X109925Y269076D01*
X110307Y268738D01*
X110307Y268270D01*
X109925Y267932D01*
X109843Y267948D01*
X109302Y267841D01*
X108843Y267534D01*
X108537Y267076D01*
X108430Y266535D01*
X108537Y265995D01*
X108843Y265536D01*
X109302Y265230D01*
X109843Y265123D01*
X110383Y265230D01*
X110842Y265536D01*
X111148Y265995D01*
X111206Y266288D01*
X111675Y266598D01*
X111741Y266608D01*
X111811Y266579D01*
Y258070D01*
X108316Y254575D01*
X107727Y254595D01*
X107269Y254901D01*
X106728Y255009D01*
X106188Y254901D01*
X105729Y254595D01*
X105423Y254136D01*
X105315Y253596D01*
X105423Y253055D01*
X105729Y252596D01*
X105846Y252518D01*
Y251917D01*
X105729Y251839D01*
X105423Y251380D01*
X105315Y250840D01*
X105423Y250299D01*
X105729Y249841D01*
X106188Y249534D01*
X106728Y249427D01*
X107269Y249534D01*
X107727Y249841D01*
X108034Y250299D01*
X108050Y250379D01*
X108165Y250456D01*
X111302Y253593D01*
X111764Y253402D01*
Y250721D01*
X110102Y249059D01*
X109878Y249103D01*
X109337Y248995D01*
X108879Y248689D01*
X108572Y248231D01*
X108465Y247690D01*
X108572Y247149D01*
X108879Y246691D01*
X109337Y246385D01*
X109878Y246277D01*
X110041Y246309D01*
X110466Y245884D01*
X110433Y245722D01*
X110498Y245397D01*
X110104Y245003D01*
X109780Y245068D01*
X109239Y244960D01*
X108780Y244654D01*
X108474Y244195D01*
X108367Y243655D01*
X108474Y243114D01*
X108780Y242656D01*
X109239Y242349D01*
X109780Y242242D01*
X109862Y242258D01*
X110244Y241920D01*
Y241452D01*
X109862Y241114D01*
X109780Y241131D01*
X109239Y241023D01*
X108780Y240717D01*
X108474Y240258D01*
X108367Y239718D01*
X108474Y239177D01*
X108780Y238719D01*
X109239Y238412D01*
X109780Y238305D01*
X110320Y238412D01*
X110779Y238719D01*
X110906Y238908D01*
X111811D01*
Y222397D01*
X111741Y222369D01*
X111675Y222378D01*
X111206Y222688D01*
X111148Y222982D01*
X110842Y223440D01*
X110383Y223746D01*
X109843Y223854D01*
X109302Y223746D01*
X108843Y223440D01*
X108537Y222982D01*
X108430Y222441D01*
X108537Y221900D01*
X108843Y221442D01*
X109302Y221136D01*
X109843Y221028D01*
X109925Y221044D01*
X110307Y220706D01*
X110307Y220238D01*
X109925Y219900D01*
X109843Y219917D01*
X109302Y219809D01*
X108843Y219503D01*
X108537Y219045D01*
X108430Y218504D01*
X108537Y217963D01*
X108843Y217505D01*
X109302Y217198D01*
X109843Y217091D01*
X109925Y217108D01*
X110307Y216769D01*
X110307Y216301D01*
X109925Y215963D01*
X109843Y215980D01*
X109302Y215872D01*
X108843Y215566D01*
X108537Y215108D01*
X108430Y214567D01*
X108537Y214026D01*
X108843Y213568D01*
X109302Y213262D01*
X109843Y213154D01*
X110383Y213262D01*
X110842Y213568D01*
X111148Y214026D01*
X111206Y214320D01*
X111675Y214630D01*
X111741Y214639D01*
X111811Y214610D01*
Y206102D01*
X108316Y202607D01*
X107727Y202626D01*
X107269Y202933D01*
X106728Y203040D01*
X106188Y202933D01*
X105729Y202626D01*
X105423Y202168D01*
X105315Y201627D01*
X105423Y201086D01*
X105729Y200628D01*
X105846Y200550D01*
Y199949D01*
X105729Y199870D01*
X105423Y199412D01*
X105315Y198871D01*
X105423Y198330D01*
X105729Y197872D01*
X106188Y197566D01*
X106728Y197458D01*
X107269Y197566D01*
X107727Y197872D01*
X108034Y198330D01*
X108050Y198410D01*
X108165Y198487D01*
X111302Y201625D01*
X111764Y201433D01*
Y198752D01*
X110102Y197090D01*
X109878Y197135D01*
X109337Y197027D01*
X108879Y196721D01*
X108572Y196262D01*
X108465Y195722D01*
X108572Y195181D01*
X108879Y194722D01*
X109337Y194416D01*
X109878Y194309D01*
X110041Y194341D01*
X110466Y193916D01*
X110433Y193753D01*
X110498Y193428D01*
X110104Y193035D01*
X109780Y193099D01*
X109239Y192992D01*
X108780Y192685D01*
X108474Y192227D01*
X108367Y191686D01*
X108474Y191146D01*
X108780Y190687D01*
X109239Y190381D01*
X109780Y190273D01*
X109862Y190290D01*
X110244Y189952D01*
Y189484D01*
X109862Y189146D01*
X109780Y189162D01*
X109239Y189055D01*
X108780Y188748D01*
X108474Y188290D01*
X108367Y187749D01*
X108474Y187208D01*
X108780Y186750D01*
X109239Y186444D01*
X109780Y186336D01*
X110320Y186444D01*
X110779Y186750D01*
X110906Y186940D01*
X111811D01*
Y170429D01*
X111741Y170400D01*
X111675Y170410D01*
X111206Y170720D01*
X111148Y171013D01*
X110842Y171472D01*
X110383Y171778D01*
X109843Y171885D01*
X109302Y171778D01*
X108843Y171472D01*
X108537Y171013D01*
X108430Y170473D01*
X108537Y169932D01*
X108843Y169473D01*
X109302Y169167D01*
X109843Y169060D01*
X110005Y169092D01*
X110430Y168667D01*
X110398Y168504D01*
X110430Y168341D01*
X110005Y167916D01*
X109843Y167948D01*
X109302Y167841D01*
X108843Y167535D01*
X108537Y167076D01*
X108430Y166535D01*
X108537Y165995D01*
X108843Y165536D01*
X109302Y165230D01*
X109843Y165122D01*
X110005Y165155D01*
X110430Y164730D01*
X110398Y164567D01*
X110430Y164404D01*
X110005Y163979D01*
X109843Y164011D01*
X109302Y163904D01*
X108843Y163598D01*
X108537Y163139D01*
X108430Y162598D01*
X108537Y162058D01*
X108843Y161599D01*
X109302Y161293D01*
X109843Y161186D01*
X110383Y161293D01*
X110842Y161599D01*
X111148Y162058D01*
X111206Y162351D01*
X111675Y162661D01*
X111741Y162671D01*
X111811Y162642D01*
Y154133D01*
X108316Y150638D01*
X107727Y150658D01*
X107269Y150964D01*
X106728Y151072D01*
X106188Y150964D01*
X105729Y150658D01*
X105423Y150199D01*
X105315Y149659D01*
X105423Y149118D01*
X105729Y148660D01*
X105846Y148581D01*
Y147980D01*
X105729Y147902D01*
X105423Y147443D01*
X105315Y146903D01*
X105423Y146362D01*
X105729Y145904D01*
X106188Y145597D01*
X106728Y145490D01*
X107269Y145597D01*
X107727Y145904D01*
X108034Y146362D01*
X108050Y146442D01*
X108165Y146519D01*
X111302Y149656D01*
X111764Y149465D01*
Y146784D01*
X110102Y145122D01*
X109878Y145166D01*
X109337Y145059D01*
X108879Y144752D01*
X108572Y144294D01*
X108465Y143753D01*
X108572Y143212D01*
X108879Y142754D01*
X109337Y142448D01*
X109878Y142340D01*
X110041Y142373D01*
X110466Y141947D01*
X110433Y141785D01*
X110498Y141460D01*
X110104Y141066D01*
X109780Y141131D01*
X109239Y141023D01*
X108780Y140717D01*
X108474Y140258D01*
X108367Y139718D01*
X108474Y139177D01*
X108780Y138719D01*
X109239Y138412D01*
X109780Y138305D01*
X109862Y138321D01*
X110244Y137983D01*
Y137515D01*
X109862Y137177D01*
X109780Y137194D01*
X109239Y137086D01*
X108780Y136780D01*
X108474Y136321D01*
X108367Y135781D01*
X108474Y135240D01*
X108780Y134782D01*
X109239Y134475D01*
X109780Y134368D01*
X110320Y134475D01*
X110779Y134782D01*
X110906Y134971D01*
X111811D01*
Y118461D01*
X111741Y118431D01*
X111675Y118441D01*
X111206Y118751D01*
X111148Y119045D01*
X110842Y119503D01*
X110383Y119809D01*
X109843Y119917D01*
X109302Y119809D01*
X108843Y119503D01*
X108537Y119045D01*
X108430Y118504D01*
X108537Y117963D01*
X108843Y117505D01*
X109302Y117199D01*
X109843Y117091D01*
X110005Y117123D01*
X110430Y116698D01*
X110398Y116535D01*
X110430Y116373D01*
X110005Y115948D01*
X109843Y115980D01*
X109302Y115872D01*
X108843Y115566D01*
X108537Y115108D01*
X108430Y114567D01*
X108537Y114026D01*
X108843Y113568D01*
X109302Y113261D01*
X109843Y113154D01*
X110005Y113186D01*
X110430Y112761D01*
X110398Y112598D01*
X110430Y112436D01*
X110005Y112011D01*
X109843Y112043D01*
X109302Y111935D01*
X108843Y111629D01*
X108537Y111171D01*
X108430Y110630D01*
X108537Y110089D01*
X108843Y109631D01*
X109302Y109325D01*
X109843Y109217D01*
X110383Y109325D01*
X110842Y109631D01*
X111148Y110089D01*
X111206Y110383D01*
X111675Y110693D01*
X111741Y110702D01*
X111811Y110673D01*
Y102165D01*
X108316Y98670D01*
X107727Y98689D01*
X107269Y98996D01*
X106728Y99103D01*
X106188Y98996D01*
X105729Y98689D01*
X105423Y98231D01*
X105315Y97690D01*
X105423Y97149D01*
X105729Y96691D01*
X105846Y96613D01*
Y96012D01*
X105729Y95933D01*
X105423Y95475D01*
X105315Y94934D01*
X105423Y94393D01*
X105729Y93935D01*
X106188Y93629D01*
X106728Y93521D01*
X107269Y93629D01*
X107727Y93935D01*
X108034Y94393D01*
X108050Y94473D01*
X108165Y94550D01*
X111302Y97688D01*
X111764Y97496D01*
Y94815D01*
X110102Y93153D01*
X109878Y93198D01*
X109337Y93090D01*
X108879Y92784D01*
X108572Y92325D01*
X108465Y91785D01*
X108572Y91244D01*
X108879Y90785D01*
X109337Y90479D01*
X109878Y90372D01*
X110041Y90404D01*
X110466Y89979D01*
X110433Y89816D01*
X110498Y89491D01*
X110104Y89097D01*
X109780Y89162D01*
X109239Y89055D01*
X108780Y88748D01*
X108474Y88290D01*
X108367Y87749D01*
X108474Y87208D01*
X108780Y86750D01*
X109239Y86444D01*
X109780Y86336D01*
X109942Y86369D01*
X110367Y85943D01*
X110335Y85781D01*
X110367Y85618D01*
X109942Y85193D01*
X109780Y85225D01*
X109239Y85118D01*
X108780Y84811D01*
X108474Y84353D01*
X108367Y83812D01*
X108474Y83271D01*
X108780Y82813D01*
X109239Y82507D01*
X109780Y82399D01*
X110320Y82507D01*
X110779Y82813D01*
X110906Y83003D01*
X111811D01*
Y66492D01*
X111741Y66463D01*
X111675Y66473D01*
X111206Y66783D01*
X111148Y67076D01*
X110842Y67535D01*
X110383Y67841D01*
X109843Y67948D01*
X109302Y67841D01*
X108843Y67535D01*
X108537Y67076D01*
X108430Y66535D01*
X108537Y65995D01*
X108843Y65536D01*
X109302Y65230D01*
X109843Y65122D01*
X110005Y65155D01*
X110430Y64730D01*
X110398Y64567D01*
X110430Y64404D01*
X110005Y63979D01*
X109843Y64011D01*
X109302Y63904D01*
X108843Y63598D01*
X108537Y63139D01*
X108430Y62598D01*
X108537Y62058D01*
X108843Y61599D01*
X109302Y61293D01*
X109843Y61185D01*
X110005Y61218D01*
X110430Y60793D01*
X110398Y60630D01*
X110430Y60467D01*
X110005Y60042D01*
X109843Y60074D01*
X109302Y59967D01*
X108843Y59661D01*
X108537Y59202D01*
X108430Y58661D01*
X108537Y58121D01*
X108843Y57662D01*
X109302Y57356D01*
X109843Y57249D01*
X110383Y57356D01*
X110842Y57662D01*
X111148Y58121D01*
X111206Y58414D01*
X111675Y58724D01*
X111741Y58734D01*
X111811Y58705D01*
Y50196D01*
X108257Y46643D01*
X107692Y46668D01*
X107234Y46975D01*
X106693Y47082D01*
X106152Y46975D01*
X105694Y46668D01*
X105387Y46210D01*
X105280Y45669D01*
X105387Y45129D01*
X105694Y44670D01*
X105789Y44606D01*
Y44005D01*
X105729Y43965D01*
X105423Y43506D01*
X105315Y42966D01*
X105423Y42425D01*
X105729Y41967D01*
X106188Y41660D01*
X106728Y41553D01*
X107269Y41660D01*
X107727Y41967D01*
X108034Y42425D01*
X108050Y42505D01*
X108165Y42582D01*
X111302Y45719D01*
X111764Y45528D01*
Y42847D01*
X110102Y41184D01*
X109878Y41229D01*
X109337Y41122D01*
X108879Y40815D01*
X108572Y40357D01*
X108465Y39816D01*
X108572Y39275D01*
X108879Y38817D01*
X109337Y38511D01*
X109878Y38403D01*
X110041Y38436D01*
X110466Y38010D01*
X110433Y37848D01*
X110498Y37523D01*
X110104Y37129D01*
X109780Y37194D01*
X109239Y37086D01*
X108780Y36780D01*
X108474Y36321D01*
X108367Y35781D01*
X108474Y35240D01*
X108780Y34782D01*
X109239Y34475D01*
X109780Y34368D01*
X109942Y34400D01*
X110367Y33975D01*
X110335Y33812D01*
X110367Y33650D01*
X109942Y33224D01*
X109780Y33257D01*
X109239Y33149D01*
X108780Y32843D01*
X108474Y32384D01*
X108367Y31844D01*
X108474Y31303D01*
X108780Y30845D01*
X109239Y30538D01*
X109780Y30431D01*
X110320Y30538D01*
X110779Y30845D01*
X110906Y31034D01*
X111811D01*
Y12614D01*
X16254D01*
X16154Y13114D01*
X17811Y13800D01*
X19463Y14812D01*
X20937Y16071D01*
X22195Y17545D01*
X23208Y19197D01*
X23949Y20987D01*
X24402Y22871D01*
X24554Y24803D01*
X24402Y26735D01*
X23949Y28619D01*
X23208Y30410D01*
X22195Y32062D01*
X20937Y33535D01*
X19463Y34794D01*
X17811Y35806D01*
X16021Y36548D01*
X14137Y37000D01*
X12205Y37152D01*
X10273Y37000D01*
X8389Y36548D01*
X6598Y35806D01*
X4946Y34794D01*
X3473Y33535D01*
X2214Y32062D01*
X1202Y30410D01*
X460Y28619D01*
X8Y26735D01*
X-144Y24803D01*
X8Y22871D01*
X460Y20987D01*
X1202Y19197D01*
X2214Y17545D01*
X3473Y16071D01*
X4946Y14812D01*
X6598Y13800D01*
X8255Y13114D01*
X8156Y12614D01*
X-1363D01*
X-1363Y288961D01*
X8156D01*
X8255Y288461D01*
X6598Y287775D01*
X4946Y286762D01*
X3473Y285504D01*
X2214Y284030D01*
X1202Y282378D01*
X460Y280588D01*
X8Y278703D01*
X-144Y276772D01*
X8Y274840D01*
X460Y272956D01*
X1202Y271165D01*
X2214Y269513D01*
X3473Y268039D01*
X4946Y266781D01*
X6598Y265769D01*
X8389Y265027D01*
X10273Y264575D01*
X12205Y264423D01*
X14137Y264575D01*
X16021Y265027D01*
X17811Y265769D01*
X19463Y266781D01*
X20937Y268039D01*
X22195Y269513D01*
X23208Y271165D01*
X23949Y272956D01*
X24402Y274840D01*
X24554Y276772D01*
X24402Y278703D01*
X23949Y280588D01*
X23208Y282378D01*
X22195Y284030D01*
X20937Y285504D01*
X19463Y286762D01*
X17811Y287775D01*
X16154Y288461D01*
X16254Y288961D01*
X111811D01*
Y274366D01*
D02*
G37*
G36*
X503922Y257087D02*
X503922Y12614D01*
X472947D01*
X472847Y13114D01*
X474504Y13800D01*
X476156Y14812D01*
X477630Y16071D01*
X478888Y17545D01*
X479901Y19197D01*
X480642Y20987D01*
X481095Y22871D01*
X481247Y24803D01*
X481095Y26735D01*
X480642Y28619D01*
X479901Y30410D01*
X478888Y32062D01*
X477630Y33535D01*
X476156Y34794D01*
X474504Y35806D01*
X472714Y36548D01*
X470829Y37000D01*
X468898Y37152D01*
X466966Y37000D01*
X465082Y36548D01*
X463291Y35806D01*
X461639Y34794D01*
X460166Y33535D01*
X458907Y32062D01*
X457895Y30410D01*
X457153Y28619D01*
X456701Y26735D01*
X456549Y24803D01*
X456701Y22871D01*
X457153Y20987D01*
X457895Y19197D01*
X458907Y17545D01*
X460166Y16071D01*
X461639Y14812D01*
X463291Y13800D01*
X464948Y13114D01*
X464849Y12614D01*
X113779D01*
Y32183D01*
X117895Y36298D01*
X117895Y36298D01*
X118070Y36561D01*
X118132Y36870D01*
X118132Y36870D01*
Y44153D01*
X121201Y47222D01*
X154783D01*
X158246Y43759D01*
Y35772D01*
X158056Y35645D01*
X157750Y35186D01*
X157642Y34646D01*
X157750Y34105D01*
X158056Y33647D01*
X158514Y33340D01*
X159055Y33233D01*
X159596Y33340D01*
X160054Y33647D01*
X160361Y34105D01*
X160468Y34646D01*
X160361Y35186D01*
X160054Y35645D01*
X159864Y35772D01*
Y44094D01*
X159803Y44404D01*
X159627Y44667D01*
X159627Y44667D01*
X156346Y47948D01*
X156538Y48410D01*
X195721D01*
X200372Y43759D01*
Y35772D01*
X200182Y35645D01*
X199876Y35186D01*
X199768Y34646D01*
X199876Y34105D01*
X200182Y33647D01*
X200640Y33340D01*
X201181Y33233D01*
X201722Y33340D01*
X202180Y33647D01*
X202486Y34105D01*
X202594Y34646D01*
X202486Y35186D01*
X202180Y35645D01*
X201990Y35772D01*
Y44094D01*
X201929Y44404D01*
X201753Y44667D01*
X201753Y44667D01*
X197285Y49135D01*
X197476Y49597D01*
X236660D01*
X242498Y43759D01*
Y35772D01*
X242308Y35645D01*
X242002Y35186D01*
X241894Y34646D01*
X242002Y34105D01*
X242308Y33647D01*
X242766Y33340D01*
X243307Y33233D01*
X243848Y33340D01*
X244306Y33647D01*
X244613Y34105D01*
X244720Y34646D01*
X244613Y35186D01*
X244306Y35645D01*
X244116Y35772D01*
Y44094D01*
X244055Y44404D01*
X243879Y44667D01*
X243879Y44667D01*
X238224Y50323D01*
X238415Y50784D01*
X277599D01*
X284624Y43759D01*
Y35772D01*
X284434Y35645D01*
X284128Y35186D01*
X284020Y34646D01*
X284128Y34105D01*
X284434Y33647D01*
X284892Y33340D01*
X285433Y33233D01*
X285974Y33340D01*
X286432Y33647D01*
X286738Y34105D01*
X286846Y34646D01*
X286738Y35186D01*
X286432Y35645D01*
X286242Y35772D01*
Y44094D01*
X286181Y44404D01*
X286005Y44667D01*
X286005Y44667D01*
X279162Y51510D01*
X279353Y51972D01*
X318537D01*
X326750Y43759D01*
Y35772D01*
X326560Y35645D01*
X326254Y35186D01*
X326146Y34646D01*
X326254Y34105D01*
X326560Y33647D01*
X327018Y33340D01*
X327559Y33233D01*
X328100Y33340D01*
X328558Y33647D01*
X328865Y34105D01*
X328972Y34646D01*
X328865Y35186D01*
X328558Y35645D01*
X328368Y35772D01*
Y44094D01*
X328368Y44094D01*
X328307Y44404D01*
X328131Y44667D01*
X328131Y44667D01*
X320101Y52697D01*
X320292Y53159D01*
X359476D01*
X368876Y43759D01*
Y35772D01*
X368686Y35645D01*
X368380Y35186D01*
X368272Y34646D01*
X368380Y34105D01*
X368686Y33647D01*
X369144Y33340D01*
X369685Y33233D01*
X370226Y33340D01*
X370684Y33647D01*
X370990Y34105D01*
X371098Y34646D01*
X370990Y35186D01*
X370684Y35645D01*
X370494Y35772D01*
Y44094D01*
X370494Y44094D01*
X370433Y44404D01*
X370257Y44667D01*
X361039Y53885D01*
X361231Y54347D01*
X400414D01*
X411002Y43759D01*
Y35772D01*
X410812Y35645D01*
X410506Y35186D01*
X410398Y34646D01*
X410506Y34105D01*
X410812Y33647D01*
X411270Y33340D01*
X411811Y33233D01*
X412352Y33340D01*
X412810Y33647D01*
X413116Y34105D01*
X413224Y34646D01*
X413116Y35186D01*
X412810Y35645D01*
X412620Y35772D01*
Y44094D01*
X412620Y44094D01*
X412559Y44404D01*
X412383Y44667D01*
X412383Y44667D01*
X401322Y55728D01*
X401059Y55904D01*
X400750Y55965D01*
X400750Y55965D01*
X117915D01*
X117605Y55904D01*
X117343Y55728D01*
X117343Y55728D01*
X114242Y52627D01*
X113779Y52818D01*
Y84151D01*
X117895Y88267D01*
X117895Y88267D01*
X118070Y88529D01*
X118132Y88839D01*
X118132Y88839D01*
Y96122D01*
X121201Y99191D01*
X154783D01*
X158246Y95728D01*
Y87740D01*
X158056Y87613D01*
X157750Y87155D01*
X157642Y86614D01*
X157750Y86073D01*
X158056Y85615D01*
X158514Y85309D01*
X159055Y85201D01*
X159596Y85309D01*
X160054Y85615D01*
X160361Y86073D01*
X160468Y86614D01*
X160361Y87155D01*
X160054Y87613D01*
X159864Y87740D01*
Y96063D01*
X159803Y96373D01*
X159627Y96635D01*
X159627Y96635D01*
X156346Y99916D01*
X156538Y100378D01*
X195721D01*
X200372Y95728D01*
Y87740D01*
X200182Y87613D01*
X199876Y87155D01*
X199768Y86614D01*
X199876Y86073D01*
X200182Y85615D01*
X200640Y85309D01*
X201181Y85201D01*
X201722Y85309D01*
X202180Y85615D01*
X202486Y86073D01*
X202594Y86614D01*
X202486Y87155D01*
X202180Y87613D01*
X201990Y87740D01*
Y96063D01*
X201929Y96373D01*
X201753Y96635D01*
X201753Y96635D01*
X197285Y101104D01*
X197476Y101566D01*
X236660D01*
X242498Y95728D01*
Y87740D01*
X242308Y87613D01*
X242002Y87155D01*
X241894Y86614D01*
X242002Y86073D01*
X242308Y85615D01*
X242766Y85309D01*
X243307Y85201D01*
X243848Y85309D01*
X244306Y85615D01*
X244613Y86073D01*
X244720Y86614D01*
X244613Y87155D01*
X244306Y87613D01*
X244116Y87740D01*
Y96063D01*
X244055Y96373D01*
X243879Y96635D01*
X243879Y96635D01*
X238224Y102291D01*
X238415Y102753D01*
X277599D01*
X284624Y95728D01*
Y87740D01*
X284434Y87613D01*
X284128Y87155D01*
X284020Y86614D01*
X284128Y86073D01*
X284434Y85615D01*
X284892Y85309D01*
X285433Y85201D01*
X285974Y85309D01*
X286432Y85615D01*
X286738Y86073D01*
X286846Y86614D01*
X286738Y87155D01*
X286432Y87613D01*
X286242Y87740D01*
Y96063D01*
X286181Y96373D01*
X286005Y96635D01*
X286005Y96635D01*
X279162Y103478D01*
X279353Y103940D01*
X318537D01*
X326750Y95728D01*
Y87740D01*
X326560Y87613D01*
X326254Y87155D01*
X326146Y86614D01*
X326254Y86073D01*
X326560Y85615D01*
X327018Y85309D01*
X327559Y85201D01*
X328100Y85309D01*
X328558Y85615D01*
X328865Y86073D01*
X328972Y86614D01*
X328865Y87155D01*
X328558Y87613D01*
X328368Y87740D01*
Y96063D01*
X328368Y96063D01*
X328307Y96373D01*
X328131Y96635D01*
X328131Y96635D01*
X320101Y104666D01*
X320292Y105128D01*
X359476D01*
X368876Y95728D01*
Y87740D01*
X368686Y87613D01*
X368380Y87155D01*
X368272Y86614D01*
X368380Y86073D01*
X368686Y85615D01*
X369144Y85309D01*
X369685Y85201D01*
X370226Y85309D01*
X370684Y85615D01*
X370990Y86073D01*
X371098Y86614D01*
X370990Y87155D01*
X370684Y87613D01*
X370494Y87740D01*
Y96063D01*
X370494Y96063D01*
X370433Y96373D01*
X370257Y96635D01*
X361039Y105853D01*
X361231Y106315D01*
X400414D01*
X411002Y95728D01*
Y87740D01*
X410812Y87613D01*
X410506Y87155D01*
X410398Y86614D01*
X410506Y86073D01*
X410812Y85615D01*
X411270Y85309D01*
X411811Y85201D01*
X412352Y85309D01*
X412810Y85615D01*
X413116Y86073D01*
X413224Y86614D01*
X413116Y87155D01*
X412810Y87613D01*
X412620Y87740D01*
Y96063D01*
X412620Y96063D01*
X412559Y96373D01*
X412383Y96635D01*
X412383Y96635D01*
X401322Y107697D01*
X401059Y107872D01*
X400750Y107934D01*
X400750Y107934D01*
X117915D01*
X117605Y107872D01*
X117343Y107697D01*
X117343Y107697D01*
X114242Y104595D01*
X113779Y104787D01*
Y136120D01*
X117895Y140235D01*
X117895Y140235D01*
X118070Y140498D01*
X118132Y140807D01*
X118132Y140807D01*
Y148090D01*
X121201Y151159D01*
X154783D01*
X158246Y147696D01*
Y139709D01*
X158056Y139582D01*
X157750Y139123D01*
X157642Y138583D01*
X157750Y138042D01*
X158056Y137584D01*
X158514Y137277D01*
X159055Y137170D01*
X159596Y137277D01*
X160054Y137584D01*
X160361Y138042D01*
X160468Y138583D01*
X160361Y139123D01*
X160054Y139582D01*
X159864Y139709D01*
Y148031D01*
X159803Y148341D01*
X159627Y148604D01*
X159627Y148604D01*
X156346Y151885D01*
X156538Y152347D01*
X195721D01*
X200372Y147696D01*
Y139709D01*
X200182Y139582D01*
X199876Y139123D01*
X199768Y138583D01*
X199876Y138042D01*
X200182Y137584D01*
X200640Y137277D01*
X201181Y137170D01*
X201722Y137277D01*
X202180Y137584D01*
X202486Y138042D01*
X202594Y138583D01*
X202486Y139123D01*
X202180Y139582D01*
X201990Y139709D01*
Y148031D01*
X201929Y148341D01*
X201753Y148604D01*
X201753Y148604D01*
X197285Y153072D01*
X197476Y153534D01*
X236660D01*
X242498Y147696D01*
Y139709D01*
X242308Y139582D01*
X242002Y139123D01*
X241894Y138583D01*
X242002Y138042D01*
X242308Y137584D01*
X242766Y137277D01*
X243307Y137170D01*
X243848Y137277D01*
X244306Y137584D01*
X244613Y138042D01*
X244720Y138583D01*
X244613Y139123D01*
X244306Y139582D01*
X244116Y139709D01*
Y148031D01*
X244055Y148341D01*
X243879Y148604D01*
X243879Y148604D01*
X238224Y154260D01*
X238415Y154721D01*
X277599D01*
X284624Y147696D01*
Y139709D01*
X284434Y139582D01*
X284128Y139123D01*
X284020Y138583D01*
X284128Y138042D01*
X284434Y137584D01*
X284892Y137277D01*
X285433Y137170D01*
X285974Y137277D01*
X286432Y137584D01*
X286738Y138042D01*
X286846Y138583D01*
X286738Y139123D01*
X286432Y139582D01*
X286242Y139709D01*
Y148031D01*
X286181Y148341D01*
X286005Y148604D01*
X286005Y148604D01*
X279162Y155447D01*
X279353Y155909D01*
X318537D01*
X326750Y147696D01*
Y139709D01*
X326560Y139582D01*
X326254Y139123D01*
X326146Y138583D01*
X326254Y138042D01*
X326560Y137584D01*
X327018Y137277D01*
X327559Y137170D01*
X328100Y137277D01*
X328558Y137584D01*
X328865Y138042D01*
X328972Y138583D01*
X328865Y139123D01*
X328558Y139582D01*
X328368Y139709D01*
Y148031D01*
X328368Y148031D01*
X328307Y148341D01*
X328131Y148604D01*
X328131Y148604D01*
X320101Y156634D01*
X320292Y157096D01*
X359476D01*
X368876Y147696D01*
Y139709D01*
X368686Y139582D01*
X368380Y139123D01*
X368272Y138583D01*
X368380Y138042D01*
X368686Y137584D01*
X369144Y137277D01*
X369685Y137170D01*
X370226Y137277D01*
X370684Y137584D01*
X370990Y138042D01*
X371098Y138583D01*
X370990Y139123D01*
X370684Y139582D01*
X370494Y139709D01*
Y148031D01*
X370494Y148031D01*
X370433Y148341D01*
X370257Y148604D01*
X361039Y157822D01*
X361231Y158284D01*
X400414D01*
X411002Y147696D01*
Y139709D01*
X410812Y139582D01*
X410506Y139123D01*
X410398Y138583D01*
X410506Y138042D01*
X410812Y137584D01*
X411270Y137277D01*
X411811Y137170D01*
X412352Y137277D01*
X412810Y137584D01*
X413116Y138042D01*
X413224Y138583D01*
X413116Y139123D01*
X412810Y139582D01*
X412620Y139709D01*
Y148031D01*
X412620Y148031D01*
X412559Y148341D01*
X412383Y148604D01*
X412383Y148604D01*
X401322Y159665D01*
X401059Y159841D01*
X400750Y159902D01*
X400750Y159902D01*
X117915D01*
X117605Y159841D01*
X117343Y159665D01*
X117343Y159665D01*
X114242Y156564D01*
X113779Y156755D01*
Y188088D01*
X117895Y192204D01*
X117895Y192204D01*
X118070Y192466D01*
X118132Y192776D01*
X118132Y192776D01*
Y200059D01*
X121201Y203128D01*
X154783D01*
X158246Y199665D01*
Y191677D01*
X158056Y191550D01*
X157750Y191092D01*
X157642Y190551D01*
X157750Y190010D01*
X158056Y189552D01*
X158514Y189246D01*
X159055Y189138D01*
X159596Y189246D01*
X160054Y189552D01*
X160361Y190010D01*
X160468Y190551D01*
X160361Y191092D01*
X160054Y191550D01*
X159864Y191677D01*
Y200000D01*
X159803Y200310D01*
X159627Y200572D01*
X159627Y200572D01*
X156346Y203853D01*
X156538Y204315D01*
X195721D01*
X200372Y199665D01*
Y191677D01*
X200182Y191550D01*
X199876Y191092D01*
X199768Y190551D01*
X199876Y190010D01*
X200182Y189552D01*
X200640Y189246D01*
X201181Y189138D01*
X201722Y189246D01*
X202180Y189552D01*
X202486Y190010D01*
X202594Y190551D01*
X202486Y191092D01*
X202180Y191550D01*
X201990Y191677D01*
Y200000D01*
X201929Y200310D01*
X201753Y200572D01*
X201753Y200572D01*
X197285Y205041D01*
X197476Y205503D01*
X236660D01*
X242498Y199665D01*
Y191677D01*
X242308Y191550D01*
X242002Y191092D01*
X241894Y190551D01*
X242002Y190010D01*
X242308Y189552D01*
X242766Y189246D01*
X243307Y189138D01*
X243848Y189246D01*
X244306Y189552D01*
X244613Y190010D01*
X244720Y190551D01*
X244613Y191092D01*
X244306Y191550D01*
X244116Y191677D01*
Y200000D01*
X244055Y200310D01*
X243879Y200572D01*
X243879Y200572D01*
X238224Y206228D01*
X238415Y206690D01*
X277599D01*
X284624Y199665D01*
Y191677D01*
X284434Y191550D01*
X284128Y191092D01*
X284020Y190551D01*
X284128Y190010D01*
X284434Y189552D01*
X284892Y189246D01*
X285433Y189138D01*
X285974Y189246D01*
X286432Y189552D01*
X286738Y190010D01*
X286846Y190551D01*
X286738Y191092D01*
X286432Y191550D01*
X286242Y191677D01*
Y200000D01*
X286181Y200310D01*
X286005Y200572D01*
X286005Y200572D01*
X279162Y207415D01*
X279353Y207877D01*
X318537D01*
X326750Y199665D01*
Y191677D01*
X326560Y191550D01*
X326254Y191092D01*
X326146Y190551D01*
X326254Y190010D01*
X326560Y189552D01*
X327018Y189246D01*
X327559Y189138D01*
X328100Y189246D01*
X328558Y189552D01*
X328865Y190010D01*
X328972Y190551D01*
X328865Y191092D01*
X328558Y191550D01*
X328368Y191677D01*
Y200000D01*
X328368Y200000D01*
X328307Y200310D01*
X328131Y200572D01*
X328131Y200572D01*
X320101Y208603D01*
X320292Y209065D01*
X359476D01*
X368876Y199665D01*
Y191677D01*
X368686Y191550D01*
X368380Y191092D01*
X368272Y190551D01*
X368380Y190010D01*
X368686Y189552D01*
X369144Y189246D01*
X369685Y189138D01*
X370226Y189246D01*
X370684Y189552D01*
X370990Y190010D01*
X371098Y190551D01*
X370990Y191092D01*
X370684Y191550D01*
X370494Y191677D01*
Y200000D01*
X370494Y200000D01*
X370433Y200310D01*
X370257Y200572D01*
X361039Y209790D01*
X361231Y210252D01*
X400414D01*
X411002Y199665D01*
Y191677D01*
X410812Y191550D01*
X410506Y191092D01*
X410398Y190551D01*
X410506Y190010D01*
X410812Y189552D01*
X411270Y189246D01*
X411811Y189138D01*
X412352Y189246D01*
X412810Y189552D01*
X413116Y190010D01*
X413224Y190551D01*
X413116Y191092D01*
X412810Y191550D01*
X412620Y191677D01*
Y200000D01*
X412620Y200000D01*
X412559Y200310D01*
X412383Y200572D01*
X412383Y200572D01*
X401322Y211634D01*
X401059Y211809D01*
X400750Y211871D01*
X400750Y211871D01*
X117915D01*
X117605Y211809D01*
X117343Y211634D01*
X117343Y211634D01*
X114242Y208532D01*
X113779Y208723D01*
Y240057D01*
X117895Y244172D01*
X117895Y244172D01*
X118070Y244435D01*
X118132Y244744D01*
X118132Y244744D01*
Y252027D01*
X121201Y255096D01*
X154783D01*
X158246Y251633D01*
Y243646D01*
X158056Y243519D01*
X157750Y243060D01*
X157642Y242520D01*
X157750Y241979D01*
X158056Y241521D01*
X158514Y241214D01*
X159055Y241107D01*
X159596Y241214D01*
X160054Y241521D01*
X160361Y241979D01*
X160468Y242520D01*
X160361Y243060D01*
X160054Y243519D01*
X159864Y243646D01*
Y251969D01*
X159803Y252278D01*
X159627Y252541D01*
X159627Y252541D01*
X156346Y255822D01*
X156538Y256284D01*
X195721D01*
X200372Y251633D01*
Y243646D01*
X200182Y243519D01*
X199876Y243060D01*
X199768Y242520D01*
X199876Y241979D01*
X200182Y241521D01*
X200640Y241214D01*
X201181Y241107D01*
X201722Y241214D01*
X202180Y241521D01*
X202486Y241979D01*
X202594Y242520D01*
X202486Y243060D01*
X202180Y243519D01*
X201990Y243646D01*
Y251969D01*
X201929Y252278D01*
X201753Y252541D01*
X201753Y252541D01*
X197285Y257009D01*
X197476Y257471D01*
X236660D01*
X242498Y251633D01*
Y243646D01*
X242308Y243519D01*
X242002Y243060D01*
X241894Y242520D01*
X242002Y241979D01*
X242308Y241521D01*
X242766Y241214D01*
X243307Y241107D01*
X243848Y241214D01*
X244306Y241521D01*
X244613Y241979D01*
X244720Y242520D01*
X244613Y243060D01*
X244306Y243519D01*
X244116Y243646D01*
Y251969D01*
X244055Y252278D01*
X243879Y252541D01*
X243879Y252541D01*
X238224Y258196D01*
X238415Y258659D01*
X277599D01*
X284624Y251633D01*
Y243646D01*
X284434Y243519D01*
X284128Y243060D01*
X284020Y242520D01*
X284128Y241979D01*
X284434Y241521D01*
X284892Y241214D01*
X285433Y241107D01*
X285974Y241214D01*
X286432Y241521D01*
X286738Y241979D01*
X286846Y242520D01*
X286738Y243060D01*
X286432Y243519D01*
X286242Y243646D01*
Y251969D01*
X286181Y252278D01*
X286005Y252541D01*
X286005Y252541D01*
X279162Y259384D01*
X279353Y259846D01*
X318537D01*
X326750Y251633D01*
Y243646D01*
X326560Y243519D01*
X326254Y243060D01*
X326146Y242520D01*
X326254Y241979D01*
X326560Y241521D01*
X327018Y241214D01*
X327559Y241107D01*
X328100Y241214D01*
X328558Y241521D01*
X328865Y241979D01*
X328972Y242520D01*
X328865Y243060D01*
X328558Y243519D01*
X328368Y243646D01*
Y251969D01*
X328368Y251969D01*
X328307Y252278D01*
X328131Y252541D01*
X328131Y252541D01*
X320101Y260571D01*
X320292Y261033D01*
X359476D01*
X368876Y251633D01*
Y243646D01*
X368686Y243519D01*
X368380Y243060D01*
X368272Y242520D01*
X368380Y241979D01*
X368686Y241521D01*
X369144Y241214D01*
X369685Y241107D01*
X370226Y241214D01*
X370684Y241521D01*
X370990Y241979D01*
X371098Y242520D01*
X370990Y243060D01*
X370684Y243519D01*
X370494Y243646D01*
Y251969D01*
X370494Y251969D01*
X370433Y252278D01*
X370257Y252541D01*
X361039Y261759D01*
X361231Y262221D01*
X400414D01*
X411002Y251633D01*
Y243646D01*
X410812Y243519D01*
X410506Y243060D01*
X410398Y242520D01*
X410506Y241979D01*
X410812Y241521D01*
X411270Y241214D01*
X411811Y241107D01*
X412352Y241214D01*
X412810Y241521D01*
X413116Y241979D01*
X413224Y242520D01*
X413116Y243060D01*
X412810Y243519D01*
X412620Y243646D01*
Y251968D01*
X412620Y251969D01*
X412559Y252278D01*
X412383Y252541D01*
X412383Y252541D01*
X401322Y263602D01*
X401059Y263778D01*
X400750Y263839D01*
X400750Y263839D01*
X117915D01*
X117605Y263778D01*
X117343Y263602D01*
X117343Y263602D01*
X114242Y260501D01*
X113779Y260692D01*
Y288961D01*
X464849D01*
X464948Y288461D01*
X463291Y287775D01*
X461639Y286762D01*
X460166Y285504D01*
X458907Y284030D01*
X457895Y282378D01*
X457153Y280588D01*
X456701Y278703D01*
X456549Y276772D01*
X456701Y274840D01*
X457153Y272956D01*
X457895Y271165D01*
X458907Y269513D01*
X460166Y268039D01*
X461639Y266781D01*
X463291Y265769D01*
X465082Y265027D01*
X466966Y264575D01*
X468898Y264423D01*
X470829Y264575D01*
X472714Y265027D01*
X474504Y265769D01*
X476156Y266781D01*
X477630Y268039D01*
X478888Y269513D01*
X479901Y271165D01*
X480642Y272956D01*
X481095Y274840D01*
X481247Y276772D01*
X481095Y278703D01*
X480642Y280588D01*
X479901Y282378D01*
X478888Y284030D01*
X477630Y285504D01*
X476156Y286762D01*
X474504Y287775D01*
X472847Y288461D01*
X472947Y288961D01*
X503922D01*
Y257087D01*
D02*
G37*
%LPC*%
G36*
X106299Y278972D02*
X105759Y278865D01*
X105300Y278558D01*
X104994Y278100D01*
X104886Y277559D01*
X104994Y277018D01*
X105300Y276560D01*
X105759Y276254D01*
X106299Y276146D01*
X106840Y276254D01*
X107298Y276560D01*
X107605Y277018D01*
X107712Y277559D01*
X107605Y278100D01*
X107298Y278558D01*
X106840Y278865D01*
X106299Y278972D01*
D02*
G37*
G36*
X65748Y273854D02*
X65207Y273746D01*
X64749Y273440D01*
X64443Y272982D01*
X64335Y272441D01*
X64443Y271900D01*
X64749Y271442D01*
X65207Y271135D01*
X65748Y271028D01*
X66289Y271135D01*
X66747Y271442D01*
X67053Y271900D01*
X67161Y272441D01*
X67053Y272982D01*
X66747Y273440D01*
X66289Y273746D01*
X65748Y273854D01*
D02*
G37*
G36*
X106299Y264799D02*
X105759Y264691D01*
X105300Y264385D01*
X104994Y263927D01*
X104886Y263386D01*
X104994Y262845D01*
X105300Y262387D01*
X105759Y262080D01*
X106299Y261973D01*
X106840Y262080D01*
X107298Y262387D01*
X107605Y262845D01*
X107712Y263386D01*
X107605Y263927D01*
X107298Y264385D01*
X106840Y264691D01*
X106299Y264799D01*
D02*
G37*
G36*
X105512Y260862D02*
X104971Y260754D01*
X104513Y260448D01*
X104206Y259990D01*
X104099Y259449D01*
X104206Y258908D01*
X104513Y258450D01*
X104971Y258143D01*
X105512Y258036D01*
X106052Y258143D01*
X106511Y258450D01*
X106817Y258908D01*
X106925Y259449D01*
X106817Y259990D01*
X106511Y260448D01*
X106052Y260754D01*
X105512Y260862D01*
D02*
G37*
G36*
X51968Y263618D02*
X51428Y263510D01*
X50969Y263204D01*
X50663Y262745D01*
X50555Y262205D01*
X50663Y261664D01*
X50969Y261206D01*
X51159Y261079D01*
Y252872D01*
X51040Y252828D01*
X50659Y252789D01*
X50409Y253165D01*
X49950Y253471D01*
X49409Y253578D01*
X48869Y253471D01*
X48410Y253165D01*
X48104Y252706D01*
X47997Y252165D01*
X48104Y251625D01*
X48410Y251166D01*
X48869Y250860D01*
X49409Y250752D01*
X49950Y250860D01*
X50409Y251166D01*
X50659Y251541D01*
X51040Y251503D01*
X51159Y251458D01*
Y211362D01*
X50969Y211235D01*
X50663Y210777D01*
X50555Y210236D01*
X50663Y209696D01*
X50969Y209237D01*
X51159Y209110D01*
Y203826D01*
X50659Y203675D01*
X50605Y203755D01*
X50147Y204061D01*
X49606Y204169D01*
X49066Y204061D01*
X48607Y203755D01*
X48301Y203297D01*
X48193Y202756D01*
X48301Y202215D01*
X48607Y201757D01*
X49066Y201450D01*
X49606Y201343D01*
X50147Y201450D01*
X50605Y201757D01*
X50659Y201837D01*
X51159Y201686D01*
Y159394D01*
X50969Y159267D01*
X50663Y158808D01*
X50555Y158268D01*
X50663Y157727D01*
X50969Y157269D01*
X51159Y157142D01*
Y151858D01*
X50659Y151706D01*
X50605Y151786D01*
X50147Y152093D01*
X49606Y152200D01*
X49066Y152093D01*
X48607Y151786D01*
X48301Y151328D01*
X48193Y150787D01*
X48301Y150247D01*
X48607Y149788D01*
X49066Y149482D01*
X49606Y149374D01*
X50147Y149482D01*
X50605Y149788D01*
X50659Y149869D01*
X51159Y149717D01*
Y107425D01*
X50969Y107298D01*
X50663Y106840D01*
X50555Y106299D01*
X50663Y105759D01*
X50969Y105300D01*
X51159Y105173D01*
Y55457D01*
X50969Y55330D01*
X50663Y54871D01*
X50555Y54331D01*
X50663Y53790D01*
X50969Y53332D01*
X51428Y53025D01*
X51968Y52918D01*
X52509Y53025D01*
X52622Y53101D01*
X52983Y52741D01*
X52828Y52509D01*
X52721Y51968D01*
X52828Y51428D01*
X53135Y50969D01*
X53593Y50663D01*
X54134Y50555D01*
X54675Y50663D01*
X55133Y50969D01*
X55439Y51428D01*
X55547Y51968D01*
X55439Y52509D01*
X55133Y52968D01*
X54943Y53095D01*
Y102811D01*
X55133Y102938D01*
X55439Y103396D01*
X55547Y103937D01*
X55439Y104478D01*
X55133Y104936D01*
X54943Y105063D01*
Y154780D01*
X55133Y154906D01*
X55439Y155365D01*
X55547Y155905D01*
X55439Y156446D01*
X55133Y156905D01*
X54943Y157032D01*
Y206748D01*
X55133Y206875D01*
X55439Y207333D01*
X55547Y207874D01*
X55439Y208415D01*
X55133Y208873D01*
X54943Y209000D01*
Y258717D01*
X55133Y258843D01*
X55439Y259302D01*
X55547Y259842D01*
X55439Y260383D01*
X55133Y260842D01*
X54675Y261148D01*
X54134Y261256D01*
X53593Y261148D01*
X53480Y261072D01*
X53119Y261433D01*
X53274Y261664D01*
X53382Y262205D01*
X53274Y262745D01*
X52968Y263204D01*
X52509Y263510D01*
X51968Y263618D01*
D02*
G37*
G36*
X25787Y249248D02*
X25247Y249140D01*
X24788Y248834D01*
X24482Y248375D01*
X24374Y247835D01*
X24482Y247294D01*
X24788Y246835D01*
X25247Y246529D01*
X25787Y246422D01*
X26011Y246466D01*
X27151Y245326D01*
Y218441D01*
X26651Y218341D01*
X26549Y218588D01*
X26084Y219194D01*
X25478Y219659D01*
X24773Y219951D01*
X24016Y220051D01*
X23259Y219951D01*
X22553Y219659D01*
X21948Y219194D01*
X21483Y218588D01*
X21190Y217883D01*
X21091Y217126D01*
X21190Y216369D01*
X21483Y215664D01*
X21948Y215058D01*
X22553Y214593D01*
X23259Y214301D01*
X24016Y214201D01*
X24773Y214301D01*
X25478Y214593D01*
X26084Y215058D01*
X26549Y215664D01*
X26651Y215911D01*
X27151Y215811D01*
Y210566D01*
X26651Y210467D01*
X26549Y210715D01*
X26084Y211320D01*
X25478Y211785D01*
X24773Y212077D01*
X24216Y212151D01*
Y209252D01*
Y206353D01*
X24773Y206427D01*
X25478Y206719D01*
X26084Y207184D01*
X26549Y207789D01*
X26651Y208037D01*
X27151Y207937D01*
Y194622D01*
X26651Y194522D01*
X26549Y194770D01*
X26084Y195375D01*
X25478Y195840D01*
X24773Y196132D01*
X24016Y196232D01*
X23259Y196132D01*
X22553Y195840D01*
X21948Y195375D01*
X21483Y194770D01*
X21190Y194064D01*
X21091Y193307D01*
X21190Y192550D01*
X21483Y191845D01*
X21948Y191239D01*
X22553Y190774D01*
X23259Y190482D01*
X24016Y190382D01*
X24773Y190482D01*
X25478Y190774D01*
X26084Y191239D01*
X26549Y191845D01*
X26651Y192092D01*
X27151Y191993D01*
Y186748D01*
X26651Y186648D01*
X26549Y186896D01*
X26084Y187501D01*
X25478Y187966D01*
X24773Y188258D01*
X24216Y188332D01*
Y185433D01*
Y182534D01*
X24773Y182608D01*
X25478Y182900D01*
X26084Y183365D01*
X26549Y183971D01*
X26651Y184218D01*
X27151Y184118D01*
Y152913D01*
X27005Y152835D01*
X26651Y152697D01*
X26181Y152791D01*
X25640Y152683D01*
X25182Y152377D01*
X24876Y151919D01*
X24768Y151378D01*
X24876Y150837D01*
X25182Y150379D01*
X25581Y150112D01*
X25734Y149765D01*
X25782Y149606D01*
X24034Y147859D01*
X23859Y147596D01*
X23797Y147286D01*
X23797Y147286D01*
Y144014D01*
X23677Y143969D01*
X23297Y143931D01*
X23046Y144306D01*
X22588Y144613D01*
X22047Y144720D01*
X21823Y144676D01*
X15967Y150532D01*
Y176633D01*
X17895Y178562D01*
X17895Y178562D01*
X18070Y178824D01*
X18132Y179134D01*
X18132Y179134D01*
Y244153D01*
X20445Y246466D01*
X20669Y246422D01*
X21210Y246529D01*
X21668Y246835D01*
X21975Y247294D01*
X22082Y247835D01*
X21975Y248375D01*
X21668Y248834D01*
X21210Y249140D01*
X20669Y249248D01*
X20129Y249140D01*
X19670Y248834D01*
X19364Y248375D01*
X19256Y247835D01*
X19301Y247611D01*
X17057Y245367D01*
X16557Y245574D01*
Y246315D01*
X16747Y246442D01*
X17053Y246900D01*
X17161Y247441D01*
X17053Y247982D01*
X16747Y248440D01*
X16289Y248746D01*
X15748Y248854D01*
X15207Y248746D01*
X14749Y248440D01*
X14443Y247982D01*
X14335Y247441D01*
X14443Y246900D01*
X14749Y246442D01*
X14939Y246315D01*
Y181161D01*
X12617Y178839D01*
X12441Y178576D01*
X12380Y178267D01*
X12380Y178267D01*
Y141280D01*
X5727Y134627D01*
X5552Y134365D01*
X5490Y134055D01*
X5490Y134055D01*
Y103525D01*
X5490Y103525D01*
X5552Y103215D01*
X5727Y102953D01*
X16120Y92560D01*
Y77110D01*
X15930Y76983D01*
X15624Y76525D01*
X15516Y75984D01*
X15624Y75444D01*
X15930Y74985D01*
X16388Y74679D01*
X16929Y74571D01*
X17470Y74679D01*
X17928Y74985D01*
X18235Y75444D01*
X18342Y75984D01*
X18235Y76525D01*
X17928Y76983D01*
X17738Y77110D01*
Y92895D01*
X17738Y92895D01*
X17677Y93205D01*
X17501Y93467D01*
X17501Y93467D01*
X7108Y103860D01*
Y123290D01*
X7149Y123327D01*
X7609Y123512D01*
X7924Y123301D01*
X8465Y123193D01*
X9005Y123301D01*
X9464Y123607D01*
X9770Y124066D01*
X9877Y124606D01*
X9770Y125147D01*
X9464Y125605D01*
X9005Y125912D01*
X8465Y126019D01*
X7924Y125912D01*
X7609Y125701D01*
X7149Y125886D01*
X7108Y125923D01*
Y133720D01*
X13761Y140373D01*
X13761Y140373D01*
X13937Y140635D01*
X13998Y140945D01*
X13998Y140945D01*
Y149603D01*
X14498Y149755D01*
X14585Y149625D01*
X20679Y143531D01*
X20634Y143307D01*
X20742Y142766D01*
X21048Y142308D01*
X21507Y142002D01*
X22047Y141894D01*
X22588Y142002D01*
X23046Y142308D01*
X23297Y142683D01*
X23677Y142645D01*
X23797Y142600D01*
Y136636D01*
X14370D01*
X14370Y136636D01*
X14060Y136574D01*
X13798Y136399D01*
X13798Y136399D01*
X13216Y135817D01*
X12992Y135862D01*
X12451Y135754D01*
X11993Y135448D01*
X11687Y134990D01*
X11579Y134449D01*
X11687Y133908D01*
X11993Y133450D01*
X12451Y133143D01*
X12992Y133036D01*
X13533Y133143D01*
X13991Y133450D01*
X14298Y133908D01*
X14405Y134449D01*
X14361Y134673D01*
X14705Y135018D01*
X20579D01*
X20629Y134518D01*
X20597Y134511D01*
X20139Y134205D01*
X19833Y133747D01*
X19725Y133206D01*
X19833Y132665D01*
X20139Y132207D01*
X20254Y132130D01*
Y77110D01*
X20064Y76983D01*
X19758Y76525D01*
X19650Y75984D01*
X19758Y75444D01*
X20064Y74985D01*
X20522Y74679D01*
X21063Y74571D01*
X21604Y74679D01*
X22062Y74985D01*
X22368Y75444D01*
X22476Y75984D01*
X22368Y76525D01*
X22062Y76983D01*
X21872Y77110D01*
Y132030D01*
X22137Y132207D01*
X22313Y132469D01*
X22813Y132318D01*
Y115748D01*
X22813Y115748D01*
X22874Y115438D01*
X23050Y115176D01*
X25175Y113051D01*
Y107793D01*
X24675Y107525D01*
X24556Y107605D01*
X24016Y107712D01*
X23475Y107605D01*
X23017Y107298D01*
X22710Y106840D01*
X22603Y106299D01*
X22710Y105759D01*
X23017Y105300D01*
X23315Y105101D01*
X23326Y105070D01*
Y104576D01*
X23315Y104545D01*
X23017Y104346D01*
X22710Y103887D01*
X22603Y103347D01*
X22710Y102806D01*
X23017Y102347D01*
X23475Y102041D01*
X24016Y101934D01*
X24556Y102041D01*
X24675Y102120D01*
X25175Y101853D01*
Y70024D01*
X24985Y69897D01*
X24679Y69438D01*
X24571Y68898D01*
X24679Y68357D01*
X24985Y67898D01*
X25444Y67592D01*
X25984Y67485D01*
X26525Y67592D01*
X26983Y67898D01*
X27290Y68357D01*
X27397Y68898D01*
X27290Y69438D01*
X26983Y69897D01*
X26794Y70024D01*
Y113386D01*
X26794Y113386D01*
X26732Y113696D01*
X26557Y113958D01*
X26557Y113958D01*
X24431Y116083D01*
Y134507D01*
X25179Y135255D01*
X25354Y135517D01*
X25416Y135827D01*
X25416Y135827D01*
Y146951D01*
X28533Y150069D01*
X28708Y150331D01*
X28770Y150641D01*
X28770Y150641D01*
Y245661D01*
X28708Y245971D01*
X28533Y246234D01*
X27156Y247611D01*
X27200Y247835D01*
X27093Y248375D01*
X26787Y248834D01*
X26328Y249140D01*
X25787Y249248D01*
D02*
G37*
G36*
X63189Y238027D02*
X62648Y237920D01*
X62190Y237613D01*
X61884Y237155D01*
X61776Y236614D01*
X61884Y236073D01*
X62190Y235615D01*
X62648Y235309D01*
X63189Y235201D01*
X63730Y235309D01*
X64188Y235615D01*
X64494Y236073D01*
X64602Y236614D01*
X64494Y237155D01*
X64188Y237613D01*
X63730Y237920D01*
X63189Y238027D01*
D02*
G37*
G36*
X105512Y234090D02*
X104971Y233983D01*
X104513Y233676D01*
X104206Y233218D01*
X104099Y232677D01*
X104206Y232137D01*
X104513Y231678D01*
X104971Y231372D01*
X105512Y231264D01*
X106052Y231372D01*
X106511Y231678D01*
X106817Y232137D01*
X106925Y232677D01*
X106817Y233218D01*
X106511Y233676D01*
X106052Y233983D01*
X105512Y234090D01*
D02*
G37*
G36*
X106299Y227004D02*
X105759Y226896D01*
X105300Y226590D01*
X104994Y226131D01*
X104886Y225591D01*
X104994Y225050D01*
X105300Y224591D01*
X105759Y224285D01*
X106299Y224178D01*
X106840Y224285D01*
X107298Y224591D01*
X107605Y225050D01*
X107712Y225591D01*
X107605Y226131D01*
X107298Y226590D01*
X106840Y226896D01*
X106299Y227004D01*
D02*
G37*
G36*
X4137Y225875D02*
Y222720D01*
X7292D01*
X7203Y223395D01*
X6866Y224211D01*
X6328Y224911D01*
X5628Y225448D01*
X4812Y225786D01*
X4137Y225875D01*
D02*
G37*
G36*
X3737D02*
X3062Y225786D01*
X2246Y225448D01*
X1546Y224911D01*
X1008Y224211D01*
X671Y223395D01*
X582Y222720D01*
X3737D01*
Y225875D01*
D02*
G37*
G36*
X7292Y222320D02*
X4137D01*
Y219164D01*
X4812Y219253D01*
X5628Y219591D01*
X6328Y220128D01*
X6866Y220829D01*
X7203Y221644D01*
X7292Y222320D01*
D02*
G37*
G36*
X3737D02*
X582D01*
X671Y221644D01*
X1008Y220829D01*
X1546Y220128D01*
X2246Y219591D01*
X3062Y219253D01*
X3737Y219164D01*
Y222320D01*
D02*
G37*
G36*
X65748Y221885D02*
X65207Y221778D01*
X64749Y221472D01*
X64443Y221013D01*
X64335Y220472D01*
X64443Y219932D01*
X64749Y219473D01*
X65207Y219167D01*
X65748Y219059D01*
X66289Y219167D01*
X66747Y219473D01*
X67053Y219932D01*
X67161Y220472D01*
X67053Y221013D01*
X66747Y221472D01*
X66289Y221778D01*
X65748Y221885D01*
D02*
G37*
G36*
X106299Y212830D02*
X105759Y212723D01*
X105300Y212416D01*
X104994Y211958D01*
X104886Y211417D01*
X104994Y210877D01*
X105300Y210418D01*
X105759Y210112D01*
X106299Y210004D01*
X106840Y210112D01*
X107298Y210418D01*
X107605Y210877D01*
X107712Y211417D01*
X107605Y211958D01*
X107298Y212416D01*
X106840Y212723D01*
X106299Y212830D01*
D02*
G37*
G36*
X23816Y212151D02*
X23259Y212077D01*
X22553Y211785D01*
X21948Y211320D01*
X21483Y210715D01*
X21190Y210009D01*
X21117Y209452D01*
X23816D01*
Y212151D01*
D02*
G37*
G36*
X3937Y215901D02*
X3062Y215786D01*
X2246Y215448D01*
X1546Y214911D01*
X1008Y214211D01*
X671Y213395D01*
X555Y212520D01*
X671Y211644D01*
X1008Y210829D01*
X1546Y210128D01*
X2246Y209591D01*
X3062Y209253D01*
X3937Y209138D01*
X4812Y209253D01*
X5628Y209591D01*
X6328Y210128D01*
X6866Y210829D01*
X7203Y211644D01*
X7319Y212520D01*
X7203Y213395D01*
X6866Y214211D01*
X6328Y214911D01*
X5628Y215448D01*
X4812Y215786D01*
X3937Y215901D01*
D02*
G37*
G36*
X23816Y209052D02*
X21117D01*
X21190Y208495D01*
X21483Y207789D01*
X21948Y207184D01*
X22553Y206719D01*
X23259Y206427D01*
X23816Y206353D01*
Y209052D01*
D02*
G37*
G36*
X105512Y208893D02*
X104971Y208786D01*
X104513Y208479D01*
X104206Y208021D01*
X104099Y207480D01*
X104206Y206940D01*
X104513Y206481D01*
X104971Y206175D01*
X105512Y206067D01*
X106052Y206175D01*
X106511Y206481D01*
X106817Y206940D01*
X106925Y207480D01*
X106817Y208021D01*
X106511Y208479D01*
X106052Y208786D01*
X105512Y208893D01*
D02*
G37*
G36*
X97638Y203381D02*
X97097Y203274D01*
X96639Y202968D01*
X96332Y202509D01*
X96225Y201969D01*
X96332Y201428D01*
X96639Y200969D01*
X97097Y200663D01*
X97638Y200555D01*
X98178Y200663D01*
X98637Y200969D01*
X98943Y201428D01*
X99051Y201969D01*
X98943Y202509D01*
X98637Y202968D01*
X98178Y203274D01*
X97638Y203381D01*
D02*
G37*
G36*
X3937Y205901D02*
X3062Y205786D01*
X2246Y205448D01*
X1546Y204911D01*
X1008Y204210D01*
X671Y203395D01*
X555Y202520D01*
X671Y201644D01*
X1008Y200829D01*
X1546Y200129D01*
X2246Y199591D01*
X3062Y199253D01*
X3937Y199138D01*
X4812Y199253D01*
X5628Y199591D01*
X6328Y200129D01*
X6866Y200829D01*
X7203Y201644D01*
X7319Y202520D01*
X7203Y203395D01*
X6866Y204210D01*
X6328Y204911D01*
X5628Y205448D01*
X4812Y205786D01*
X3937Y205901D01*
D02*
G37*
G36*
X92520Y200232D02*
X91979Y200124D01*
X91521Y199818D01*
X91214Y199360D01*
X91107Y198819D01*
X91214Y198278D01*
X91521Y197820D01*
X91979Y197513D01*
X92520Y197406D01*
X93060Y197513D01*
X93519Y197820D01*
X93825Y198278D01*
X93933Y198819D01*
X93825Y199360D01*
X93519Y199818D01*
X93060Y200124D01*
X92520Y200232D01*
D02*
G37*
G36*
X87402Y197082D02*
X86861Y196975D01*
X86402Y196668D01*
X86096Y196210D01*
X85989Y195669D01*
X86096Y195129D01*
X86402Y194670D01*
X86861Y194364D01*
X87402Y194256D01*
X87484Y194273D01*
X87866Y193935D01*
Y193467D01*
X87484Y193129D01*
X87402Y193145D01*
X86861Y193038D01*
X86402Y192731D01*
X86096Y192273D01*
X85989Y191732D01*
X86096Y191192D01*
X86402Y190733D01*
X86861Y190427D01*
X87402Y190319D01*
X87564Y190352D01*
X87989Y189926D01*
X87957Y189764D01*
X88065Y189223D01*
X88371Y188765D01*
X88829Y188458D01*
X89370Y188351D01*
X89911Y188458D01*
X90369Y188765D01*
X90675Y189223D01*
X90783Y189764D01*
X90675Y190305D01*
X90369Y190763D01*
X89911Y191069D01*
X89370Y191177D01*
X89287Y191160D01*
X88906Y191498D01*
Y191966D01*
X89287Y192304D01*
X89370Y192288D01*
X89911Y192395D01*
X90369Y192702D01*
X90675Y193160D01*
X90783Y193701D01*
X90675Y194241D01*
X90369Y194700D01*
X89911Y195006D01*
X89370Y195114D01*
X89207Y195081D01*
X88782Y195507D01*
X88815Y195669D01*
X88707Y196210D01*
X88401Y196668D01*
X87942Y196975D01*
X87402Y197082D01*
D02*
G37*
G36*
X7290Y195872D02*
X4137D01*
Y192720D01*
X7290D01*
Y195872D01*
D02*
G37*
G36*
X3737D02*
X584D01*
Y192720D01*
X3737D01*
Y195872D01*
D02*
G37*
G36*
X7290Y192320D02*
X4137D01*
Y189167D01*
X7290D01*
Y192320D01*
D02*
G37*
G36*
X3737D02*
X584D01*
Y189167D01*
X3737D01*
Y192320D01*
D02*
G37*
G36*
X23816Y188332D02*
X23259Y188258D01*
X22553Y187966D01*
X21948Y187501D01*
X21483Y186896D01*
X21190Y186190D01*
X21117Y185633D01*
X23816D01*
Y188332D01*
D02*
G37*
G36*
X92520Y186846D02*
X91979Y186739D01*
X91521Y186432D01*
X91214Y185974D01*
X91107Y185433D01*
X91214Y184892D01*
X91521Y184434D01*
X91979Y184128D01*
X92520Y184020D01*
X93060Y184128D01*
X93519Y184434D01*
X93825Y184892D01*
X93933Y185433D01*
X93825Y185974D01*
X93519Y186432D01*
X93060Y186739D01*
X92520Y186846D01*
D02*
G37*
G36*
X62917Y185904D02*
X62377Y185796D01*
X61918Y185490D01*
X61612Y185031D01*
X61504Y184491D01*
X61612Y183950D01*
X61918Y183492D01*
X62377Y183185D01*
X62917Y183078D01*
X63458Y183185D01*
X63916Y183492D01*
X64223Y183950D01*
X64330Y184491D01*
X64223Y185031D01*
X63916Y185490D01*
X63458Y185796D01*
X62917Y185904D01*
D02*
G37*
G36*
X23816Y185233D02*
X21117D01*
X21190Y184676D01*
X21483Y183971D01*
X21948Y183365D01*
X22553Y182900D01*
X23259Y182608D01*
X23816Y182534D01*
Y185233D01*
D02*
G37*
G36*
X4137Y184379D02*
Y181224D01*
X7292D01*
X7203Y181899D01*
X6866Y182714D01*
X6328Y183415D01*
X5628Y183952D01*
X4812Y184290D01*
X4137Y184379D01*
D02*
G37*
G36*
X3737D02*
X3062Y184290D01*
X2246Y183952D01*
X1546Y183415D01*
X1008Y182714D01*
X671Y181899D01*
X582Y181224D01*
X3737D01*
Y184379D01*
D02*
G37*
G36*
X95669Y182515D02*
X95129Y182408D01*
X94670Y182102D01*
X94364Y181643D01*
X94256Y181102D01*
X94364Y180562D01*
X94670Y180103D01*
X95129Y179797D01*
X95669Y179689D01*
X96210Y179797D01*
X96668Y180103D01*
X96975Y180562D01*
X97082Y181102D01*
X96975Y181643D01*
X96668Y182102D01*
X96210Y182408D01*
X95669Y182515D01*
D02*
G37*
G36*
X105118Y182122D02*
X104577Y182014D01*
X104119Y181708D01*
X103813Y181249D01*
X103705Y180709D01*
X103813Y180168D01*
X104119Y179709D01*
X104577Y179403D01*
X105118Y179296D01*
X105659Y179403D01*
X106117Y179709D01*
X106423Y180168D01*
X106531Y180709D01*
X106423Y181249D01*
X106117Y181708D01*
X105659Y182014D01*
X105118Y182122D01*
D02*
G37*
G36*
X7292Y180824D02*
X4137D01*
Y177668D01*
X4812Y177757D01*
X5628Y178095D01*
X6328Y178632D01*
X6866Y179333D01*
X7203Y180148D01*
X7292Y180824D01*
D02*
G37*
G36*
X3737D02*
X582D01*
X671Y180148D01*
X1008Y179333D01*
X1546Y178632D01*
X2246Y178095D01*
X3062Y177757D01*
X3737Y177668D01*
Y180824D01*
D02*
G37*
G36*
X106299Y175035D02*
X105759Y174927D01*
X105300Y174621D01*
X104994Y174163D01*
X104886Y173622D01*
X104994Y173081D01*
X105300Y172623D01*
X105759Y172317D01*
X106299Y172209D01*
X106840Y172317D01*
X107298Y172623D01*
X107605Y173081D01*
X107712Y173622D01*
X107605Y174163D01*
X107298Y174621D01*
X106840Y174927D01*
X106299Y175035D01*
D02*
G37*
G36*
X3937Y174405D02*
X3062Y174290D01*
X2246Y173952D01*
X1546Y173415D01*
X1008Y172714D01*
X671Y171899D01*
X555Y171024D01*
X671Y170148D01*
X1008Y169333D01*
X1546Y168632D01*
X2246Y168095D01*
X3062Y167757D01*
X3937Y167642D01*
X4812Y167757D01*
X5628Y168095D01*
X6328Y168632D01*
X6866Y169333D01*
X7203Y170148D01*
X7319Y171024D01*
X7203Y171899D01*
X6866Y172714D01*
X6328Y173415D01*
X5628Y173952D01*
X4812Y174290D01*
X3937Y174405D01*
D02*
G37*
G36*
X65748Y169917D02*
X65207Y169809D01*
X64749Y169503D01*
X64443Y169045D01*
X64335Y168504D01*
X64443Y167963D01*
X64749Y167505D01*
X65207Y167199D01*
X65748Y167091D01*
X66289Y167199D01*
X66747Y167505D01*
X67053Y167963D01*
X67161Y168504D01*
X67053Y169045D01*
X66747Y169503D01*
X66289Y169809D01*
X65748Y169917D01*
D02*
G37*
G36*
X76256Y166692D02*
X75716Y166584D01*
X75257Y166278D01*
X74893D01*
X74435Y166584D01*
X73894Y166692D01*
X73353Y166584D01*
X72895Y166278D01*
X72817Y166161D01*
X72216D01*
X72137Y166278D01*
X71679Y166584D01*
X71138Y166692D01*
X70598Y166584D01*
X70139Y166278D01*
X70061Y166161D01*
X69460D01*
X69381Y166278D01*
X68923Y166584D01*
X68382Y166692D01*
X67842Y166584D01*
X67383Y166278D01*
X67077Y165820D01*
X66969Y165279D01*
X67077Y164738D01*
X67383Y164280D01*
X67842Y163974D01*
X68382Y163866D01*
X68923Y163974D01*
X69381Y164280D01*
X69460Y164397D01*
X70061D01*
X70139Y164280D01*
X70598Y163974D01*
X71138Y163866D01*
X71679Y163974D01*
X72137Y164280D01*
X72216Y164397D01*
X72817D01*
X72895Y164280D01*
X73353Y163974D01*
X73894Y163866D01*
X74435Y163974D01*
X74893Y164280D01*
X75257D01*
X75716Y163974D01*
X76256Y163866D01*
X76797Y163974D01*
X77256Y164280D01*
X77562Y164738D01*
X77669Y165279D01*
X77562Y165820D01*
X77256Y166278D01*
X76797Y166584D01*
X76256Y166692D01*
D02*
G37*
G36*
X106299Y160862D02*
X105759Y160754D01*
X105300Y160448D01*
X104994Y159990D01*
X104886Y159449D01*
X104994Y158908D01*
X105300Y158450D01*
X105759Y158143D01*
X106299Y158036D01*
X106840Y158143D01*
X107298Y158450D01*
X107605Y158908D01*
X107712Y159449D01*
X107605Y159990D01*
X107298Y160448D01*
X106840Y160754D01*
X106299Y160862D01*
D02*
G37*
G36*
X3937Y164405D02*
X3062Y164290D01*
X2246Y163952D01*
X1546Y163415D01*
X1008Y162715D01*
X671Y161899D01*
X555Y161024D01*
X671Y160148D01*
X1008Y159333D01*
X1546Y158632D01*
X2246Y158095D01*
X3062Y157757D01*
X3937Y157642D01*
X4812Y157757D01*
X5628Y158095D01*
X6328Y158632D01*
X6866Y159333D01*
X7203Y160148D01*
X7319Y161024D01*
X7203Y161899D01*
X6866Y162715D01*
X6328Y163415D01*
X5628Y163952D01*
X4812Y164290D01*
X3937Y164405D01*
D02*
G37*
G36*
X40748Y249445D02*
X40207Y249337D01*
X39749Y249031D01*
X39443Y248572D01*
X39335Y248031D01*
X39443Y247491D01*
X39749Y247032D01*
X39939Y246905D01*
Y128937D01*
X39939Y128937D01*
X39939Y128937D01*
Y104959D01*
X39439Y104549D01*
X39370Y104563D01*
X38829Y104455D01*
X38371Y104149D01*
X38065Y103690D01*
X37957Y103150D01*
X38065Y102609D01*
X38371Y102150D01*
X38829Y101844D01*
X39370Y101737D01*
X39439Y101750D01*
X39939Y101340D01*
Y70024D01*
X39749Y69897D01*
X39443Y69438D01*
X39335Y68898D01*
X39443Y68357D01*
X39749Y67898D01*
X40207Y67592D01*
X40748Y67485D01*
X41289Y67592D01*
X41747Y67898D01*
X42053Y68357D01*
X42161Y68898D01*
X42053Y69438D01*
X41747Y69897D01*
X41557Y70024D01*
Y103150D01*
Y119176D01*
X42057Y119443D01*
X42176Y119364D01*
X42717Y119256D01*
X43257Y119364D01*
X43716Y119670D01*
X44022Y120129D01*
X44129Y120669D01*
X44022Y121210D01*
X43716Y121668D01*
X43257Y121975D01*
X42717Y122082D01*
X42176Y121975D01*
X42057Y121896D01*
X41557Y122163D01*
Y127931D01*
X45921D01*
X46048Y127741D01*
X46507Y127435D01*
X47047Y127327D01*
X47588Y127435D01*
X48046Y127741D01*
X48353Y128199D01*
X48460Y128740D01*
X48353Y129281D01*
X48046Y129739D01*
X47588Y130046D01*
X47047Y130153D01*
X46507Y130046D01*
X46048Y129739D01*
X45921Y129549D01*
X41557D01*
Y154245D01*
X42057Y154396D01*
X42111Y154316D01*
X42570Y154010D01*
X43110Y153902D01*
X43651Y154010D01*
X44109Y154316D01*
X44416Y154774D01*
X44523Y155315D01*
X44416Y155856D01*
X44109Y156314D01*
X43811Y156514D01*
X43800Y156544D01*
Y157038D01*
X43811Y157069D01*
X44109Y157269D01*
X44416Y157727D01*
X44523Y158268D01*
X44416Y158808D01*
X44109Y159267D01*
X43651Y159573D01*
X43110Y159681D01*
X42570Y159573D01*
X42111Y159267D01*
X42057Y159186D01*
X41557Y159338D01*
Y246905D01*
X41747Y247032D01*
X42053Y247491D01*
X42161Y248031D01*
X42053Y248572D01*
X41747Y249031D01*
X41289Y249337D01*
X40748Y249445D01*
D02*
G37*
G36*
X104724Y156137D02*
X104184Y156030D01*
X103725Y155724D01*
X103419Y155265D01*
X103311Y154724D01*
X103419Y154184D01*
X103725Y153725D01*
X104184Y153419D01*
X104724Y153311D01*
X105265Y153419D01*
X105724Y153725D01*
X106030Y154184D01*
X106137Y154724D01*
X106030Y155265D01*
X105724Y155724D01*
X105265Y156030D01*
X104724Y156137D01*
D02*
G37*
G36*
X7290Y154376D02*
X4137D01*
Y151224D01*
X7290D01*
Y154376D01*
D02*
G37*
G36*
X3737D02*
X584D01*
Y151224D01*
X3737D01*
Y154376D01*
D02*
G37*
G36*
X83071Y160074D02*
X82530Y159967D01*
X82072Y159660D01*
X81766Y159202D01*
X81658Y158661D01*
X81766Y158121D01*
X82072Y157662D01*
X82189Y157584D01*
Y156983D01*
X82072Y156905D01*
X81766Y156446D01*
X81658Y155905D01*
X81766Y155365D01*
X82072Y154906D01*
X82189Y154828D01*
Y154227D01*
X82072Y154149D01*
X81766Y153690D01*
X81658Y153150D01*
X81766Y152609D01*
X82072Y152150D01*
Y151786D01*
X81766Y151328D01*
X81658Y150787D01*
X81766Y150247D01*
X82072Y149788D01*
X82530Y149482D01*
X83071Y149374D01*
X83612Y149482D01*
X84070Y149788D01*
X84376Y150247D01*
X84484Y150787D01*
X84376Y151328D01*
X84070Y151786D01*
Y152150D01*
X84376Y152609D01*
X84484Y153150D01*
X84376Y153690D01*
X84070Y154149D01*
X83953Y154227D01*
Y154828D01*
X84070Y154906D01*
X84376Y155365D01*
X84484Y155905D01*
X84376Y156446D01*
X84070Y156905D01*
X83953Y156983D01*
Y157584D01*
X84070Y157662D01*
X84376Y158121D01*
X84484Y158661D01*
X84376Y159202D01*
X84070Y159660D01*
X83612Y159967D01*
X83071Y160074D01*
D02*
G37*
G36*
X7290Y150824D02*
X4137D01*
Y147671D01*
X7290D01*
Y150824D01*
D02*
G37*
G36*
X3737D02*
X584D01*
Y147671D01*
X3737D01*
Y150824D01*
D02*
G37*
G36*
X35827Y249445D02*
X35286Y249337D01*
X34828Y249031D01*
X34521Y248572D01*
X34414Y248031D01*
X34521Y247491D01*
X34828Y247032D01*
X35017Y246905D01*
X35017Y138586D01*
X34517Y138434D01*
X34431Y138564D01*
X33683Y139312D01*
Y140945D01*
Y245669D01*
X33622Y245979D01*
X33446Y246241D01*
X32077Y247611D01*
X32122Y247835D01*
X32014Y248375D01*
X31708Y248834D01*
X31249Y249140D01*
X30709Y249248D01*
X30168Y249140D01*
X29710Y248834D01*
X29403Y248375D01*
X29296Y247835D01*
X29403Y247294D01*
X29710Y246835D01*
X30168Y246529D01*
X30709Y246422D01*
X30933Y246466D01*
X32065Y245334D01*
Y141754D01*
X30850D01*
X30724Y141944D01*
X30265Y142250D01*
X29724Y142358D01*
X29184Y142250D01*
X28725Y141944D01*
X28419Y141486D01*
X28311Y140945D01*
X28419Y140404D01*
X28725Y139946D01*
X29184Y139639D01*
X29724Y139532D01*
X30265Y139639D01*
X30724Y139946D01*
X30850Y140136D01*
X32065D01*
Y138976D01*
X32065Y138976D01*
X32126Y138667D01*
X32302Y138404D01*
X33049Y137657D01*
Y119823D01*
X30136Y116911D01*
X29961Y116648D01*
X29899Y116339D01*
X29899Y116339D01*
Y70024D01*
X29710Y69897D01*
X29403Y69438D01*
X29296Y68898D01*
X29403Y68357D01*
X29710Y67898D01*
X30168Y67592D01*
X30709Y67485D01*
X31249Y67592D01*
X31708Y67898D01*
X32014Y68357D01*
X32122Y68898D01*
X32014Y69438D01*
X31708Y69897D01*
X31518Y70024D01*
Y116003D01*
X34431Y118916D01*
X34517Y119046D01*
X35017Y118895D01*
Y115273D01*
X34517Y115006D01*
X34399Y115085D01*
X33858Y115192D01*
X33318Y115085D01*
X32859Y114779D01*
X32553Y114320D01*
X32445Y113779D01*
X32553Y113239D01*
X32859Y112780D01*
X33318Y112474D01*
X33858Y112367D01*
X34399Y112474D01*
X34517Y112553D01*
X35017Y112286D01*
Y108207D01*
X34517Y107856D01*
X34252Y107909D01*
X33711Y107801D01*
X33253Y107495D01*
X32947Y107037D01*
X32839Y106496D01*
X32947Y105955D01*
X33253Y105497D01*
X33711Y105191D01*
X34252Y105083D01*
X34517Y105136D01*
X35017Y104785D01*
Y70024D01*
X34828Y69897D01*
X34521Y69438D01*
X34414Y68898D01*
X34521Y68357D01*
X34828Y67898D01*
X35286Y67592D01*
X35827Y67485D01*
X36367Y67592D01*
X36826Y67898D01*
X37132Y68357D01*
X37240Y68898D01*
X37132Y69438D01*
X36826Y69897D01*
X36636Y70024D01*
Y106496D01*
Y113779D01*
X36636Y246905D01*
X36826Y247032D01*
X37132Y247491D01*
X37240Y248031D01*
X37132Y248572D01*
X36826Y249031D01*
X36367Y249337D01*
X35827Y249445D01*
D02*
G37*
G36*
X63189Y133893D02*
X62648Y133786D01*
X62190Y133479D01*
X61884Y133021D01*
X61776Y132480D01*
X61884Y131940D01*
X62190Y131481D01*
X62648Y131175D01*
X63189Y131067D01*
X63730Y131175D01*
X64188Y131481D01*
X64494Y131940D01*
X64602Y132480D01*
X64494Y133021D01*
X64188Y133479D01*
X63730Y133786D01*
X63189Y133893D01*
D02*
G37*
G36*
X105118Y130153D02*
X104577Y130046D01*
X104119Y129739D01*
X103813Y129281D01*
X103705Y128740D01*
X103813Y128199D01*
X104119Y127741D01*
X104577Y127435D01*
X105118Y127327D01*
X105659Y127435D01*
X106117Y127741D01*
X106423Y128199D01*
X106531Y128740D01*
X106423Y129281D01*
X106117Y129739D01*
X105659Y130046D01*
X105118Y130153D01*
D02*
G37*
G36*
X106299Y123066D02*
X105759Y122959D01*
X105300Y122653D01*
X104994Y122194D01*
X104886Y121653D01*
X104994Y121113D01*
X105300Y120654D01*
X105759Y120348D01*
X106299Y120241D01*
X106840Y120348D01*
X107298Y120654D01*
X107605Y121113D01*
X107712Y121653D01*
X107605Y122194D01*
X107298Y122653D01*
X106840Y122959D01*
X106299Y123066D01*
D02*
G37*
G36*
X66142Y117555D02*
X65601Y117447D01*
X65143Y117141D01*
X64836Y116682D01*
X64729Y116142D01*
X64836Y115601D01*
X65143Y115143D01*
X65601Y114836D01*
X66142Y114729D01*
X66682Y114836D01*
X67141Y115143D01*
X67447Y115601D01*
X67555Y116142D01*
X67447Y116682D01*
X67141Y117141D01*
X66682Y117447D01*
X66142Y117555D01*
D02*
G37*
G36*
X106299Y108893D02*
X105759Y108786D01*
X105300Y108479D01*
X104994Y108021D01*
X104886Y107480D01*
X104994Y106940D01*
X105300Y106481D01*
X105759Y106175D01*
X106299Y106067D01*
X106840Y106175D01*
X107298Y106481D01*
X107605Y106940D01*
X107712Y107480D01*
X107605Y108021D01*
X107298Y108479D01*
X106840Y108786D01*
X106299Y108893D01*
D02*
G37*
G36*
X105118Y104956D02*
X104577Y104849D01*
X104119Y104542D01*
X103813Y104084D01*
X103705Y103543D01*
X103813Y103003D01*
X104119Y102544D01*
X104577Y102238D01*
X105118Y102130D01*
X105659Y102238D01*
X106117Y102544D01*
X106423Y103003D01*
X106531Y103543D01*
X106423Y104084D01*
X106117Y104542D01*
X105659Y104849D01*
X105118Y104956D01*
D02*
G37*
G36*
X97638Y99445D02*
X97097Y99337D01*
X96639Y99031D01*
X96332Y98572D01*
X96225Y98032D01*
X96332Y97491D01*
X96639Y97032D01*
X97097Y96726D01*
X97638Y96618D01*
X98178Y96726D01*
X98637Y97032D01*
X98943Y97491D01*
X99051Y98032D01*
X98943Y98572D01*
X98637Y99031D01*
X98178Y99337D01*
X97638Y99445D01*
D02*
G37*
G36*
X92520Y96295D02*
X91979Y96187D01*
X91521Y95881D01*
X91214Y95423D01*
X91107Y94882D01*
X91214Y94341D01*
X91521Y93883D01*
X91979Y93577D01*
X92520Y93469D01*
X93060Y93577D01*
X93519Y93883D01*
X93825Y94341D01*
X93933Y94882D01*
X93825Y95423D01*
X93519Y95881D01*
X93060Y96187D01*
X92520Y96295D01*
D02*
G37*
G36*
X87402Y93145D02*
X86861Y93038D01*
X86402Y92731D01*
X86096Y92273D01*
X85989Y91732D01*
X86096Y91192D01*
X86402Y90733D01*
X86861Y90427D01*
X87402Y90319D01*
X87484Y90336D01*
X87866Y89998D01*
Y89530D01*
X87484Y89192D01*
X87402Y89208D01*
X86861Y89101D01*
X86402Y88794D01*
X86096Y88336D01*
X85989Y87795D01*
X86096Y87255D01*
X86402Y86796D01*
X86861Y86490D01*
X87402Y86382D01*
X87564Y86415D01*
X87989Y85989D01*
X87957Y85827D01*
X88065Y85286D01*
X88371Y84828D01*
X88829Y84521D01*
X89370Y84414D01*
X89911Y84521D01*
X90369Y84828D01*
X90675Y85286D01*
X90783Y85827D01*
X90675Y86367D01*
X90369Y86826D01*
X89911Y87132D01*
X89370Y87240D01*
X89287Y87223D01*
X88906Y87561D01*
Y88029D01*
X89287Y88367D01*
X89370Y88351D01*
X89911Y88458D01*
X90369Y88765D01*
X90675Y89223D01*
X90783Y89764D01*
X90675Y90304D01*
X90369Y90763D01*
X89911Y91069D01*
X89370Y91177D01*
X89207Y91144D01*
X88782Y91570D01*
X88815Y91732D01*
X88707Y92273D01*
X88401Y92731D01*
X87942Y93038D01*
X87402Y93145D01*
D02*
G37*
G36*
X92520Y82909D02*
X91979Y82802D01*
X91521Y82495D01*
X91214Y82037D01*
X91107Y81496D01*
X91214Y80955D01*
X91521Y80497D01*
X91979Y80191D01*
X92520Y80083D01*
X93060Y80191D01*
X93519Y80497D01*
X93825Y80955D01*
X93933Y81496D01*
X93825Y82037D01*
X93519Y82495D01*
X93060Y82802D01*
X92520Y82909D01*
D02*
G37*
G36*
X62992Y81728D02*
X62451Y81620D01*
X61993Y81314D01*
X61687Y80856D01*
X61579Y80315D01*
X61687Y79774D01*
X61993Y79316D01*
X62451Y79010D01*
X62992Y78902D01*
X63533Y79010D01*
X63991Y79316D01*
X64297Y79774D01*
X64405Y80315D01*
X64297Y80856D01*
X63991Y81314D01*
X63533Y81620D01*
X62992Y81728D01*
D02*
G37*
G36*
X95669Y78578D02*
X95129Y78471D01*
X94670Y78164D01*
X94364Y77706D01*
X94256Y77165D01*
X94364Y76625D01*
X94670Y76166D01*
X95129Y75860D01*
X95669Y75752D01*
X96210Y75860D01*
X96668Y76166D01*
X96975Y76625D01*
X97082Y77165D01*
X96975Y77706D01*
X96668Y78164D01*
X96210Y78471D01*
X95669Y78578D01*
D02*
G37*
G36*
X105118Y78185D02*
X104577Y78077D01*
X104119Y77771D01*
X103813Y77312D01*
X103705Y76772D01*
X103813Y76231D01*
X104119Y75773D01*
X104577Y75466D01*
X105118Y75359D01*
X105659Y75466D01*
X106117Y75773D01*
X106423Y76231D01*
X106531Y76772D01*
X106423Y77312D01*
X106117Y77771D01*
X105659Y78077D01*
X105118Y78185D01*
D02*
G37*
G36*
X106299Y71098D02*
X105759Y70990D01*
X105300Y70684D01*
X104994Y70226D01*
X104886Y69685D01*
X104994Y69144D01*
X105300Y68686D01*
X105759Y68380D01*
X106299Y68272D01*
X106840Y68380D01*
X107298Y68686D01*
X107605Y69144D01*
X107712Y69685D01*
X107605Y70226D01*
X107298Y70684D01*
X106840Y70990D01*
X106299Y71098D01*
D02*
G37*
G36*
X65748Y65980D02*
X65207Y65872D01*
X64749Y65566D01*
X64443Y65108D01*
X64335Y64567D01*
X64443Y64026D01*
X64749Y63568D01*
X65207Y63261D01*
X65748Y63154D01*
X66289Y63261D01*
X66747Y63568D01*
X67053Y64026D01*
X67161Y64567D01*
X67053Y65108D01*
X66747Y65566D01*
X66289Y65872D01*
X65748Y65980D01*
D02*
G37*
G36*
X76256Y62755D02*
X75716Y62647D01*
X75257Y62341D01*
X74893D01*
X74435Y62647D01*
X73894Y62755D01*
X73353Y62647D01*
X72895Y62341D01*
X72817Y62224D01*
X72216D01*
X72137Y62341D01*
X71679Y62647D01*
X71138Y62755D01*
X70598Y62647D01*
X70139Y62341D01*
X70061Y62224D01*
X69460D01*
X69381Y62341D01*
X68923Y62647D01*
X68382Y62755D01*
X67842Y62647D01*
X67383Y62341D01*
X67077Y61883D01*
X66969Y61342D01*
X67077Y60801D01*
X67383Y60343D01*
X67842Y60037D01*
X68382Y59929D01*
X68923Y60037D01*
X69381Y60343D01*
X69460Y60460D01*
X70061D01*
X70139Y60343D01*
X70598Y60037D01*
X71138Y59929D01*
X71679Y60037D01*
X72137Y60343D01*
X72216Y60460D01*
X72817D01*
X72895Y60343D01*
X73353Y60037D01*
X73894Y59929D01*
X74435Y60037D01*
X74893Y60343D01*
X75257D01*
X75716Y60037D01*
X76256Y59929D01*
X76797Y60037D01*
X77256Y60343D01*
X77562Y60801D01*
X77669Y61342D01*
X77562Y61883D01*
X77256Y62341D01*
X76797Y62647D01*
X76256Y62755D01*
D02*
G37*
G36*
X106299Y56925D02*
X105759Y56817D01*
X105300Y56511D01*
X104994Y56053D01*
X104886Y55512D01*
X104994Y54971D01*
X105300Y54513D01*
X105759Y54206D01*
X106299Y54099D01*
X106840Y54206D01*
X107298Y54513D01*
X107605Y54971D01*
X107712Y55512D01*
X107605Y56053D01*
X107298Y56511D01*
X106840Y56817D01*
X106299Y56925D01*
D02*
G37*
G36*
X105118Y52988D02*
X104577Y52880D01*
X104119Y52574D01*
X103813Y52115D01*
X103705Y51575D01*
X103813Y51034D01*
X104119Y50576D01*
X104577Y50269D01*
X105118Y50162D01*
X105659Y50269D01*
X106117Y50576D01*
X106423Y51034D01*
X106531Y51575D01*
X106423Y52115D01*
X106117Y52574D01*
X105659Y52880D01*
X105118Y52988D01*
D02*
G37*
G36*
X83071Y56137D02*
X82530Y56030D01*
X82072Y55724D01*
X81766Y55265D01*
X81658Y54724D01*
X81766Y54184D01*
X82072Y53725D01*
X82189Y53647D01*
Y53046D01*
X82072Y52968D01*
X81766Y52509D01*
X81658Y51968D01*
X81766Y51428D01*
X82072Y50969D01*
X82189Y50891D01*
Y50290D01*
X82072Y50212D01*
X81766Y49753D01*
X81658Y49213D01*
X81766Y48672D01*
X82072Y48213D01*
Y47850D01*
X81766Y47391D01*
X81658Y46850D01*
X81766Y46310D01*
X82072Y45851D01*
X82530Y45545D01*
X83071Y45437D01*
X83612Y45545D01*
X84070Y45851D01*
X84376Y46310D01*
X84484Y46850D01*
X84376Y47391D01*
X84070Y47850D01*
Y48213D01*
X84376Y48672D01*
X84484Y49213D01*
X84376Y49753D01*
X84070Y50212D01*
X83953Y50290D01*
Y50891D01*
X84070Y50969D01*
X84376Y51428D01*
X84484Y51968D01*
X84376Y52509D01*
X84070Y52968D01*
X83953Y53046D01*
Y53647D01*
X84070Y53725D01*
X84376Y54184D01*
X84484Y54724D01*
X84376Y55265D01*
X84070Y55724D01*
X83612Y56030D01*
X83071Y56137D01*
D02*
G37*
G36*
X49606Y43342D02*
X49066Y43235D01*
X48607Y42928D01*
X48301Y42470D01*
X48193Y41929D01*
X48301Y41388D01*
X48607Y40930D01*
X49066Y40624D01*
X49606Y40516D01*
X50147Y40624D01*
X50605Y40930D01*
X50912Y41388D01*
X51019Y41929D01*
X50912Y42470D01*
X50605Y42928D01*
X50147Y43235D01*
X49606Y43342D01*
D02*
G37*
G36*
X63189Y29759D02*
X62648Y29652D01*
X62190Y29346D01*
X61884Y28887D01*
X61776Y28346D01*
X61884Y27806D01*
X62190Y27347D01*
X62648Y27041D01*
X63189Y26934D01*
X63730Y27041D01*
X64188Y27347D01*
X64494Y27806D01*
X64602Y28346D01*
X64494Y28887D01*
X64188Y29346D01*
X63730Y29652D01*
X63189Y29759D01*
D02*
G37*
G36*
X105512Y26216D02*
X104971Y26109D01*
X104513Y25802D01*
X104206Y25344D01*
X104099Y24803D01*
X104206Y24262D01*
X104513Y23804D01*
X104971Y23498D01*
X105512Y23390D01*
X106052Y23498D01*
X106511Y23804D01*
X106817Y24262D01*
X106925Y24803D01*
X106817Y25344D01*
X106511Y25802D01*
X106052Y26109D01*
X105512Y26216D01*
D02*
G37*
G36*
X415354Y269707D02*
X415354Y269707D01*
X131890D01*
X131890Y269707D01*
X131580Y269645D01*
X131317Y269470D01*
X131317Y269470D01*
X129752Y267904D01*
X129528Y267948D01*
X128987Y267841D01*
X128528Y267534D01*
X128222Y267076D01*
X128115Y266535D01*
X128222Y265995D01*
X128528Y265536D01*
X128987Y265230D01*
X129528Y265123D01*
X130068Y265230D01*
X130527Y265536D01*
X130833Y265995D01*
X130940Y266535D01*
X130896Y266759D01*
X132225Y268088D01*
X157562D01*
X157829Y267588D01*
X157750Y267470D01*
X157642Y266929D01*
X157750Y266388D01*
X158056Y265930D01*
X158514Y265624D01*
X159055Y265516D01*
X159596Y265624D01*
X160054Y265930D01*
X160361Y266388D01*
X160468Y266929D01*
X160361Y267470D01*
X160281Y267588D01*
X160549Y268088D01*
X199688D01*
X199955Y267588D01*
X199876Y267470D01*
X199768Y266929D01*
X199876Y266388D01*
X200182Y265930D01*
X200640Y265624D01*
X201181Y265516D01*
X201722Y265624D01*
X202180Y265930D01*
X202486Y266388D01*
X202594Y266929D01*
X202486Y267470D01*
X202407Y267588D01*
X202675Y268088D01*
X241814D01*
X242081Y267588D01*
X242002Y267470D01*
X241894Y266929D01*
X242002Y266388D01*
X242308Y265930D01*
X242766Y265624D01*
X243307Y265516D01*
X243848Y265624D01*
X244306Y265930D01*
X244613Y266388D01*
X244720Y266929D01*
X244613Y267470D01*
X244533Y267588D01*
X244801Y268088D01*
X283940D01*
X284207Y267588D01*
X284128Y267470D01*
X284020Y266929D01*
X284128Y266388D01*
X284434Y265930D01*
X284892Y265624D01*
X285433Y265516D01*
X285974Y265624D01*
X286432Y265930D01*
X286738Y266388D01*
X286846Y266929D01*
X286738Y267470D01*
X286659Y267588D01*
X286927Y268088D01*
X326066D01*
X326333Y267588D01*
X326254Y267470D01*
X326146Y266929D01*
X326254Y266388D01*
X326560Y265930D01*
X327018Y265624D01*
X327559Y265516D01*
X328100Y265624D01*
X328558Y265930D01*
X328865Y266388D01*
X328972Y266929D01*
X328865Y267470D01*
X328785Y267588D01*
X329052Y268088D01*
X368192D01*
X368459Y267588D01*
X368380Y267470D01*
X368272Y266929D01*
X368380Y266388D01*
X368686Y265930D01*
X369144Y265624D01*
X369685Y265516D01*
X370226Y265624D01*
X370684Y265930D01*
X370990Y266388D01*
X371098Y266929D01*
X370990Y267470D01*
X370911Y267588D01*
X371179Y268088D01*
X410318D01*
X410585Y267588D01*
X410506Y267470D01*
X410398Y266929D01*
X410506Y266388D01*
X410812Y265930D01*
X411270Y265624D01*
X411811Y265516D01*
X412352Y265624D01*
X412810Y265930D01*
X413116Y266388D01*
X413224Y266929D01*
X413116Y267470D01*
X413037Y267588D01*
X413305Y268088D01*
X415019D01*
X421269Y261838D01*
X421225Y261614D01*
X421332Y261073D01*
X421639Y260615D01*
X422097Y260309D01*
X422638Y260201D01*
X423178Y260309D01*
X423637Y260615D01*
X423943Y261073D01*
X424051Y261614D01*
X423943Y262155D01*
X423637Y262613D01*
X423178Y262920D01*
X422638Y263027D01*
X422414Y262983D01*
X415927Y269470D01*
X415664Y269645D01*
X415613Y269655D01*
X415354Y269707D01*
D02*
G37*
G36*
X124016Y267948D02*
X123475Y267841D01*
X123017Y267534D01*
X122710Y267076D01*
X122603Y266535D01*
X122710Y265995D01*
X123017Y265536D01*
X123475Y265230D01*
X124016Y265123D01*
X124557Y265230D01*
X125015Y265536D01*
X125321Y265995D01*
X125429Y266535D01*
X125321Y267076D01*
X125015Y267534D01*
X124557Y267841D01*
X124016Y267948D01*
D02*
G37*
G36*
X486027Y264222D02*
Y261066D01*
X489182D01*
X489093Y261741D01*
X488755Y262557D01*
X488218Y263257D01*
X487518Y263795D01*
X486702Y264133D01*
X486027Y264222D01*
D02*
G37*
G36*
X485627D02*
X484951Y264133D01*
X484136Y263795D01*
X483436Y263257D01*
X482898Y262557D01*
X482560Y261741D01*
X482471Y261066D01*
X485627D01*
Y264222D01*
D02*
G37*
G36*
X146850Y273066D02*
X146310Y272959D01*
X145851Y272653D01*
X145545Y272194D01*
X145437Y271654D01*
X145545Y271113D01*
X145851Y270654D01*
X146310Y270348D01*
X146850Y270241D01*
X147391Y270348D01*
X147850Y270654D01*
X147976Y270844D01*
X447303D01*
X453666Y264481D01*
X453505Y264272D01*
X453092Y263275D01*
X452951Y262205D01*
X453092Y261134D01*
X453505Y260137D01*
X454163Y259281D01*
X455019Y258623D01*
X456016Y258210D01*
X457087Y258069D01*
X458157Y258210D01*
X459154Y258623D01*
X460011Y259281D01*
X460668Y260137D01*
X461081Y261134D01*
X461222Y262205D01*
X461081Y263275D01*
X460668Y264272D01*
X460011Y265129D01*
X459154Y265786D01*
X458157Y266199D01*
X457087Y266340D01*
X456016Y266199D01*
X455019Y265786D01*
X454810Y265626D01*
X448210Y272226D01*
X447948Y272401D01*
X447638Y272463D01*
X447638Y272463D01*
X147976D01*
X147850Y272653D01*
X147391Y272959D01*
X146850Y273066D01*
D02*
G37*
G36*
X485627Y260666D02*
X482471D01*
X482560Y259991D01*
X482898Y259175D01*
X483436Y258475D01*
X484136Y257938D01*
X484951Y257600D01*
X485627Y257511D01*
Y260666D01*
D02*
G37*
G36*
X489182D02*
X486027D01*
Y257511D01*
X486702Y257600D01*
X487518Y257938D01*
X488218Y258475D01*
X488755Y259175D01*
X489093Y259991D01*
X489182Y260666D01*
D02*
G37*
G36*
X495827Y264248D02*
X494951Y264133D01*
X494136Y263795D01*
X493436Y263257D01*
X492898Y262557D01*
X492560Y261741D01*
X492445Y260866D01*
X492560Y259991D01*
X492898Y259175D01*
X493436Y258475D01*
X494136Y257938D01*
X494951Y257600D01*
X495827Y257485D01*
X496702Y257600D01*
X497518Y257938D01*
X498218Y258475D01*
X498755Y259175D01*
X499093Y259991D01*
X499208Y260866D01*
X499093Y261741D01*
X498755Y262557D01*
X498218Y263257D01*
X497518Y263795D01*
X496702Y264133D01*
X495827Y264248D01*
D02*
G37*
G36*
X162598Y252988D02*
X162058Y252880D01*
X161599Y252574D01*
X161293Y252116D01*
X161186Y251575D01*
X161293Y251034D01*
X161599Y250576D01*
X162058Y250269D01*
X162598Y250162D01*
X163139Y250269D01*
X163598Y250576D01*
X163904Y251034D01*
X164011Y251575D01*
X163904Y252116D01*
X163598Y252574D01*
X163139Y252880D01*
X162598Y252988D01*
D02*
G37*
G36*
X130709Y252116D02*
X129899Y251954D01*
X129213Y251496D01*
X128754Y250810D01*
X128593Y250000D01*
X128754Y249190D01*
X129213Y248504D01*
X129899Y248046D01*
X130709Y247884D01*
X131518Y248046D01*
X132204Y248504D01*
X132663Y249190D01*
X132824Y250000D01*
X132663Y250810D01*
X132204Y251496D01*
X131518Y251954D01*
X130709Y252116D01*
D02*
G37*
G36*
X495827Y254248D02*
X494951Y254133D01*
X494136Y253795D01*
X493436Y253257D01*
X492898Y252557D01*
X492560Y251741D01*
X492445Y250866D01*
X492560Y249991D01*
X492898Y249175D01*
X493436Y248475D01*
X494136Y247937D01*
X494951Y247600D01*
X495827Y247484D01*
X496702Y247600D01*
X497518Y247937D01*
X498218Y248475D01*
X498755Y249175D01*
X499093Y249991D01*
X499208Y250866D01*
X499093Y251741D01*
X498755Y252557D01*
X498218Y253257D01*
X497518Y253795D01*
X496702Y254133D01*
X495827Y254248D01*
D02*
G37*
G36*
X485827D02*
X484951Y254133D01*
X484136Y253795D01*
X483436Y253257D01*
X482898Y252557D01*
X482560Y251741D01*
X482445Y250866D01*
X482560Y249991D01*
X482898Y249175D01*
X483436Y248475D01*
X484136Y247937D01*
X484951Y247600D01*
X485827Y247484D01*
X486702Y247600D01*
X487518Y247937D01*
X488218Y248475D01*
X488755Y249175D01*
X489093Y249991D01*
X489208Y250866D01*
X489093Y251741D01*
X488755Y252557D01*
X488218Y253257D01*
X487518Y253795D01*
X486702Y254133D01*
X485827Y254248D01*
D02*
G37*
G36*
X422835Y249445D02*
X422294Y249337D01*
X421836Y249031D01*
X421529Y248572D01*
X421422Y248031D01*
X421529Y247491D01*
X421836Y247032D01*
X422294Y246726D01*
X422835Y246619D01*
X423375Y246726D01*
X423834Y247032D01*
X424140Y247491D01*
X424248Y248031D01*
X424140Y248572D01*
X423834Y249031D01*
X423375Y249337D01*
X422835Y249445D01*
D02*
G37*
G36*
X457087Y251379D02*
X456016Y251239D01*
X455019Y250825D01*
X454163Y250168D01*
X453505Y249312D01*
X453092Y248314D01*
X452951Y247244D01*
X453092Y246174D01*
X453505Y245176D01*
X454163Y244320D01*
X455019Y243663D01*
X456016Y243250D01*
X457087Y243109D01*
X458157Y243250D01*
X459154Y243663D01*
X460011Y244320D01*
X460668Y245176D01*
X461081Y246174D01*
X461222Y247244D01*
X461081Y248314D01*
X460668Y249312D01*
X460011Y250168D01*
X459154Y250825D01*
X458157Y251239D01*
X457087Y251379D01*
D02*
G37*
G36*
X129134Y244326D02*
X128593Y244219D01*
X128135Y243913D01*
X127828Y243454D01*
X127721Y242913D01*
X127828Y242373D01*
X128135Y241914D01*
X128593Y241608D01*
X129134Y241500D01*
X129675Y241608D01*
X130133Y241914D01*
X130439Y242373D01*
X130547Y242913D01*
X130439Y243454D01*
X130133Y243913D01*
X129675Y244219D01*
X129134Y244326D01*
D02*
G37*
G36*
X486027Y244221D02*
Y241066D01*
X489182D01*
X489093Y241741D01*
X488755Y242557D01*
X488218Y243257D01*
X487518Y243795D01*
X486702Y244133D01*
X486027Y244221D01*
D02*
G37*
G36*
X485627D02*
X484951Y244133D01*
X484136Y243795D01*
X483436Y243257D01*
X482898Y242557D01*
X482560Y241741D01*
X482471Y241066D01*
X485627D01*
Y244221D01*
D02*
G37*
G36*
X124016Y245029D02*
X123206Y244868D01*
X122520Y244409D01*
X122061Y243723D01*
X121900Y242913D01*
X122061Y242104D01*
X122520Y241418D01*
X123206Y240959D01*
X124016Y240798D01*
X124825Y240959D01*
X125512Y241418D01*
X125970Y242104D01*
X126131Y242913D01*
X125970Y243723D01*
X125512Y244409D01*
X124825Y244868D01*
X124016Y245029D01*
D02*
G37*
G36*
X489182Y240666D02*
X486027D01*
Y237511D01*
X486702Y237600D01*
X487518Y237937D01*
X488218Y238475D01*
X488755Y239175D01*
X489093Y239991D01*
X489182Y240666D01*
D02*
G37*
G36*
X485627D02*
X482471D01*
X482560Y239991D01*
X482898Y239175D01*
X483436Y238475D01*
X484136Y237937D01*
X484951Y237600D01*
X485627Y237511D01*
Y240666D01*
D02*
G37*
G36*
X495827Y244248D02*
X494951Y244133D01*
X494136Y243795D01*
X493436Y243257D01*
X492898Y242557D01*
X492560Y241741D01*
X492445Y240866D01*
X492560Y239991D01*
X492898Y239175D01*
X493436Y238475D01*
X494136Y237937D01*
X494951Y237600D01*
X495827Y237485D01*
X496702Y237600D01*
X497518Y237937D01*
X498218Y238475D01*
X498755Y239175D01*
X499093Y239991D01*
X499208Y240866D01*
X499093Y241741D01*
X498755Y242557D01*
X498218Y243257D01*
X497518Y243795D01*
X496702Y244133D01*
X495827Y244248D01*
D02*
G37*
G36*
X147244Y239208D02*
X146703Y239101D01*
X146245Y238794D01*
X145939Y238336D01*
X145831Y237795D01*
X145939Y237255D01*
X146245Y236796D01*
X146703Y236490D01*
X147244Y236382D01*
X147785Y236490D01*
X148243Y236796D01*
X148549Y237255D01*
X148657Y237795D01*
X148549Y238336D01*
X148243Y238794D01*
X147785Y239101D01*
X147244Y239208D01*
D02*
G37*
G36*
X120472Y238421D02*
X119932Y238313D01*
X119473Y238007D01*
X119167Y237549D01*
X119060Y237008D01*
X119167Y236467D01*
X119473Y236009D01*
X119932Y235702D01*
X120472Y235595D01*
X121013Y235702D01*
X121472Y236009D01*
X121778Y236467D01*
X121885Y237008D01*
X121778Y237549D01*
X121472Y238007D01*
X121013Y238313D01*
X120472Y238421D01*
D02*
G37*
G36*
X495827Y234248D02*
X494951Y234133D01*
X494136Y233795D01*
X493436Y233257D01*
X492898Y232557D01*
X492560Y231741D01*
X492445Y230866D01*
X492560Y229991D01*
X492898Y229175D01*
X493436Y228475D01*
X494136Y227938D01*
X494951Y227600D01*
X495827Y227484D01*
X496702Y227600D01*
X497518Y227938D01*
X498218Y228475D01*
X498755Y229175D01*
X499093Y229991D01*
X499208Y230866D01*
X499093Y231741D01*
X498755Y232557D01*
X498218Y233257D01*
X497518Y233795D01*
X496702Y234133D01*
X495827Y234248D01*
D02*
G37*
G36*
X485827Y234248D02*
X484951Y234133D01*
X484136Y233795D01*
X483436Y233257D01*
X482898Y232557D01*
X482560Y231741D01*
X482445Y230866D01*
X482560Y229991D01*
X482898Y229175D01*
X483436Y228475D01*
X484136Y227938D01*
X484951Y227600D01*
X485827Y227484D01*
X486702Y227600D01*
X487518Y227938D01*
X488218Y228475D01*
X488755Y229175D01*
X489093Y229991D01*
X489208Y230866D01*
X489093Y231741D01*
X488755Y232557D01*
X488218Y233257D01*
X487518Y233795D01*
X486702Y234133D01*
X485827Y234248D01*
D02*
G37*
G36*
X486027Y224221D02*
Y221066D01*
X489182D01*
X489093Y221741D01*
X488755Y222557D01*
X488218Y223257D01*
X487518Y223795D01*
X486702Y224133D01*
X486027Y224221D01*
D02*
G37*
G36*
X485627Y224221D02*
X484951Y224133D01*
X484136Y223795D01*
X483436Y223257D01*
X482898Y222557D01*
X482560Y221741D01*
X482471Y221066D01*
X485627D01*
Y224221D01*
D02*
G37*
G36*
X415354Y217738D02*
X415354Y217738D01*
X131890D01*
X131890Y217738D01*
X131580Y217677D01*
X131317Y217501D01*
X131317Y217501D01*
X129752Y215935D01*
X129528Y215980D01*
X128987Y215872D01*
X128528Y215566D01*
X128222Y215108D01*
X128115Y214567D01*
X128222Y214026D01*
X128528Y213568D01*
X128987Y213262D01*
X129528Y213154D01*
X130068Y213262D01*
X130527Y213568D01*
X130833Y214026D01*
X130940Y214567D01*
X130896Y214791D01*
X132225Y216120D01*
X157562D01*
X157829Y215620D01*
X157750Y215501D01*
X157642Y214961D01*
X157750Y214420D01*
X158056Y213962D01*
X158514Y213655D01*
X159055Y213548D01*
X159596Y213655D01*
X160054Y213962D01*
X160361Y214420D01*
X160468Y214961D01*
X160361Y215501D01*
X160281Y215620D01*
X160549Y216120D01*
X199688D01*
X199955Y215620D01*
X199876Y215501D01*
X199768Y214961D01*
X199876Y214420D01*
X200182Y213962D01*
X200640Y213655D01*
X201181Y213548D01*
X201722Y213655D01*
X202180Y213962D01*
X202486Y214420D01*
X202594Y214961D01*
X202486Y215501D01*
X202407Y215620D01*
X202675Y216120D01*
X241814D01*
X242081Y215620D01*
X242002Y215501D01*
X241894Y214961D01*
X242002Y214420D01*
X242308Y213962D01*
X242766Y213655D01*
X243307Y213548D01*
X243848Y213655D01*
X244306Y213962D01*
X244613Y214420D01*
X244720Y214961D01*
X244613Y215501D01*
X244533Y215620D01*
X244801Y216120D01*
X283940D01*
X284207Y215620D01*
X284128Y215501D01*
X284020Y214961D01*
X284128Y214420D01*
X284434Y213962D01*
X284892Y213655D01*
X285433Y213548D01*
X285974Y213655D01*
X286432Y213962D01*
X286738Y214420D01*
X286846Y214961D01*
X286738Y215501D01*
X286659Y215620D01*
X286927Y216120D01*
X326066D01*
X326333Y215620D01*
X326254Y215501D01*
X326146Y214961D01*
X326254Y214420D01*
X326560Y213962D01*
X327018Y213655D01*
X327559Y213548D01*
X328100Y213655D01*
X328558Y213962D01*
X328865Y214420D01*
X328972Y214961D01*
X328865Y215501D01*
X328785Y215620D01*
X329053Y216120D01*
X368192D01*
X368459Y215620D01*
X368380Y215501D01*
X368272Y214961D01*
X368380Y214420D01*
X368686Y213962D01*
X369144Y213655D01*
X369685Y213548D01*
X370226Y213655D01*
X370684Y213962D01*
X370990Y214420D01*
X371098Y214961D01*
X370990Y215501D01*
X370911Y215620D01*
X371179Y216120D01*
X410318D01*
X410585Y215620D01*
X410506Y215501D01*
X410398Y214961D01*
X410506Y214420D01*
X410812Y213962D01*
X411270Y213655D01*
X411811Y213548D01*
X412352Y213655D01*
X412810Y213962D01*
X413116Y214420D01*
X413224Y214961D01*
X413116Y215501D01*
X413037Y215620D01*
X413305Y216120D01*
X415019D01*
X421072Y210067D01*
X421028Y209842D01*
X421136Y209302D01*
X421442Y208843D01*
X421900Y208537D01*
X422441Y208430D01*
X422982Y208537D01*
X423440Y208843D01*
X423746Y209302D01*
X423854Y209842D01*
X423746Y210383D01*
X423440Y210842D01*
X422982Y211148D01*
X422441Y211256D01*
X422217Y211211D01*
X415927Y217501D01*
X415664Y217677D01*
X415613Y217687D01*
X415354Y217738D01*
D02*
G37*
G36*
X485627Y220666D02*
X482471D01*
X482560Y219991D01*
X482898Y219175D01*
X483436Y218475D01*
X484136Y217937D01*
X484951Y217600D01*
X485627Y217511D01*
Y220666D01*
D02*
G37*
G36*
X489182D02*
X486027D01*
Y217511D01*
X486702Y217600D01*
X487518Y217937D01*
X488218Y218475D01*
X488755Y219175D01*
X489093Y219991D01*
X489182Y220666D01*
D02*
G37*
G36*
X495827Y224248D02*
X494951Y224133D01*
X494136Y223795D01*
X493436Y223257D01*
X492898Y222557D01*
X492560Y221741D01*
X492445Y220866D01*
X492560Y219991D01*
X492898Y219175D01*
X493436Y218475D01*
X494136Y217937D01*
X494951Y217600D01*
X495827Y217484D01*
X496702Y217600D01*
X497518Y217937D01*
X498218Y218475D01*
X498755Y219175D01*
X499093Y219991D01*
X499208Y220866D01*
X499093Y221741D01*
X498755Y222557D01*
X498218Y223257D01*
X497518Y223795D01*
X496702Y224133D01*
X495827Y224248D01*
D02*
G37*
G36*
X124016Y215980D02*
X123475Y215872D01*
X123017Y215566D01*
X122710Y215108D01*
X122603Y214567D01*
X122710Y214026D01*
X123017Y213568D01*
X123475Y213262D01*
X124016Y213154D01*
X124557Y213262D01*
X125015Y213568D01*
X125321Y214026D01*
X125429Y214567D01*
X125321Y215108D01*
X125015Y215566D01*
X124557Y215872D01*
X124016Y215980D01*
D02*
G37*
G36*
X485827Y214248D02*
X484951Y214133D01*
X484136Y213795D01*
X483436Y213257D01*
X482898Y212557D01*
X482560Y211741D01*
X482445Y210866D01*
X482560Y209991D01*
X482898Y209175D01*
X483436Y208475D01*
X484136Y207938D01*
X484951Y207600D01*
X485827Y207485D01*
X486702Y207600D01*
X487518Y207938D01*
X488218Y208475D01*
X488755Y209175D01*
X489093Y209991D01*
X489208Y210866D01*
X489093Y211741D01*
X488755Y212557D01*
X488218Y213257D01*
X487518Y213795D01*
X486702Y214133D01*
X485827Y214248D01*
D02*
G37*
G36*
X495827Y214248D02*
X494951Y214133D01*
X494136Y213795D01*
X493436Y213257D01*
X492898Y212557D01*
X492560Y211741D01*
X492445Y210866D01*
X492560Y209991D01*
X492898Y209175D01*
X493436Y208475D01*
X494136Y207938D01*
X494951Y207600D01*
X495827Y207485D01*
X496702Y207600D01*
X497518Y207938D01*
X498218Y208475D01*
X498755Y209175D01*
X499093Y209991D01*
X499208Y210866D01*
X499093Y211741D01*
X498755Y212557D01*
X498218Y213257D01*
X497518Y213795D01*
X496702Y214133D01*
X495827Y214248D01*
D02*
G37*
G36*
X146850Y221098D02*
X146310Y220990D01*
X145851Y220684D01*
X145545Y220226D01*
X145437Y219685D01*
X145545Y219144D01*
X145851Y218686D01*
X146310Y218380D01*
X146850Y218272D01*
X147391Y218380D01*
X147850Y218686D01*
X147976Y218876D01*
X447303D01*
X453666Y212513D01*
X453505Y212304D01*
X453092Y211307D01*
X452951Y210236D01*
X453092Y209166D01*
X453505Y208169D01*
X454163Y207312D01*
X455019Y206655D01*
X456016Y206242D01*
X457087Y206101D01*
X458157Y206242D01*
X459154Y206655D01*
X460011Y207312D01*
X460668Y208169D01*
X461081Y209166D01*
X461222Y210236D01*
X461081Y211307D01*
X460668Y212304D01*
X460011Y213160D01*
X459154Y213818D01*
X458157Y214231D01*
X457087Y214372D01*
X456016Y214231D01*
X455019Y213818D01*
X454810Y213657D01*
X448210Y220257D01*
X447948Y220433D01*
X447638Y220494D01*
X447638Y220494D01*
X147976D01*
X147850Y220684D01*
X147391Y220990D01*
X146850Y221098D01*
D02*
G37*
G36*
X486027Y204222D02*
Y201066D01*
X489182D01*
X489093Y201741D01*
X488755Y202557D01*
X488218Y203257D01*
X487518Y203795D01*
X486702Y204133D01*
X486027Y204222D01*
D02*
G37*
G36*
X485627D02*
X484951Y204133D01*
X484136Y203795D01*
X483436Y203257D01*
X482898Y202557D01*
X482560Y201741D01*
X482471Y201066D01*
X485627D01*
Y204222D01*
D02*
G37*
G36*
X162598Y201019D02*
X162058Y200912D01*
X161599Y200605D01*
X161293Y200147D01*
X161186Y199606D01*
X161293Y199066D01*
X161599Y198607D01*
X162058Y198301D01*
X162598Y198193D01*
X163139Y198301D01*
X163598Y198607D01*
X163904Y199066D01*
X164011Y199606D01*
X163904Y200147D01*
X163598Y200605D01*
X163139Y200912D01*
X162598Y201019D01*
D02*
G37*
G36*
X485627Y200666D02*
X482471D01*
X482560Y199991D01*
X482898Y199175D01*
X483436Y198475D01*
X484136Y197938D01*
X484951Y197600D01*
X485627Y197511D01*
Y200666D01*
D02*
G37*
G36*
X489182D02*
X486027D01*
Y197511D01*
X486702Y197600D01*
X487518Y197938D01*
X488218Y198475D01*
X488755Y199175D01*
X489093Y199991D01*
X489182Y200666D01*
D02*
G37*
G36*
X495827Y204248D02*
X494951Y204133D01*
X494136Y203795D01*
X493436Y203257D01*
X492898Y202557D01*
X492560Y201741D01*
X492445Y200866D01*
X492560Y199991D01*
X492898Y199175D01*
X493436Y198475D01*
X494136Y197938D01*
X494951Y197600D01*
X495827Y197484D01*
X496702Y197600D01*
X497518Y197938D01*
X498218Y198475D01*
X498755Y199175D01*
X499093Y199991D01*
X499208Y200866D01*
X499093Y201741D01*
X498755Y202557D01*
X498218Y203257D01*
X497518Y203795D01*
X496702Y204133D01*
X495827Y204248D01*
D02*
G37*
G36*
X130709Y200147D02*
X129899Y199986D01*
X129213Y199527D01*
X128754Y198841D01*
X128593Y198031D01*
X128754Y197222D01*
X129213Y196536D01*
X129899Y196077D01*
X130709Y195916D01*
X131518Y196077D01*
X132204Y196536D01*
X132663Y197222D01*
X132824Y198031D01*
X132663Y198841D01*
X132204Y199527D01*
X131518Y199986D01*
X130709Y200147D01*
D02*
G37*
G36*
X422441Y197082D02*
X421900Y196975D01*
X421442Y196668D01*
X421136Y196210D01*
X421028Y195669D01*
X421136Y195129D01*
X421442Y194670D01*
X421900Y194364D01*
X422441Y194256D01*
X422982Y194364D01*
X423440Y194670D01*
X423746Y195129D01*
X423854Y195669D01*
X423746Y196210D01*
X423440Y196668D01*
X422982Y196975D01*
X422441Y197082D01*
D02*
G37*
G36*
X457087Y199411D02*
X456016Y199270D01*
X455019Y198857D01*
X454163Y198200D01*
X453505Y197343D01*
X453092Y196346D01*
X452951Y195276D01*
X453092Y194205D01*
X453505Y193208D01*
X454163Y192351D01*
X455019Y191694D01*
X456016Y191281D01*
X457087Y191140D01*
X458157Y191281D01*
X459154Y191694D01*
X460011Y192351D01*
X460668Y193208D01*
X461081Y194205D01*
X461222Y195276D01*
X461081Y196346D01*
X460668Y197343D01*
X460011Y198200D01*
X459154Y198857D01*
X458157Y199270D01*
X457087Y199411D01*
D02*
G37*
G36*
X129134Y192358D02*
X128593Y192250D01*
X128135Y191944D01*
X127829Y191486D01*
X127721Y190945D01*
X127829Y190404D01*
X128135Y189946D01*
X128593Y189639D01*
X129134Y189532D01*
X129675Y189639D01*
X130133Y189946D01*
X130439Y190404D01*
X130547Y190945D01*
X130439Y191486D01*
X130133Y191944D01*
X129675Y192250D01*
X129134Y192358D01*
D02*
G37*
G36*
X124016Y193060D02*
X123206Y192899D01*
X122520Y192441D01*
X122061Y191754D01*
X121900Y190945D01*
X122061Y190135D01*
X122520Y189449D01*
X123206Y188990D01*
X124016Y188829D01*
X124825Y188990D01*
X125512Y189449D01*
X125970Y190135D01*
X126131Y190945D01*
X125970Y191754D01*
X125512Y192441D01*
X124825Y192899D01*
X124016Y193060D01*
D02*
G37*
G36*
X485827Y194248D02*
X484951Y194133D01*
X484136Y193795D01*
X483436Y193257D01*
X482898Y192557D01*
X482560Y191741D01*
X482445Y190866D01*
X482560Y189991D01*
X482898Y189175D01*
X483436Y188475D01*
X484136Y187937D01*
X484951Y187600D01*
X485827Y187484D01*
X486702Y187600D01*
X487518Y187937D01*
X488218Y188475D01*
X488755Y189175D01*
X489093Y189991D01*
X489208Y190866D01*
X489093Y191741D01*
X488755Y192557D01*
X488218Y193257D01*
X487518Y193795D01*
X486702Y194133D01*
X485827Y194248D01*
D02*
G37*
G36*
X495827Y194248D02*
X494951Y194133D01*
X494136Y193795D01*
X493436Y193257D01*
X492898Y192557D01*
X492560Y191741D01*
X492445Y190866D01*
X492560Y189991D01*
X492898Y189175D01*
X493436Y188475D01*
X494136Y187937D01*
X494951Y187600D01*
X495827Y187484D01*
X496702Y187600D01*
X497518Y187937D01*
X498218Y188475D01*
X498755Y189175D01*
X499093Y189991D01*
X499208Y190866D01*
X499093Y191741D01*
X498755Y192557D01*
X498218Y193257D01*
X497518Y193795D01*
X496702Y194133D01*
X495827Y194248D01*
D02*
G37*
G36*
X147244Y187240D02*
X146703Y187132D01*
X146245Y186826D01*
X145939Y186367D01*
X145831Y185827D01*
X145939Y185286D01*
X146245Y184828D01*
X146703Y184521D01*
X147244Y184414D01*
X147785Y184521D01*
X148243Y184828D01*
X148549Y185286D01*
X148657Y185827D01*
X148549Y186367D01*
X148243Y186826D01*
X147785Y187132D01*
X147244Y187240D01*
D02*
G37*
G36*
X120472Y186452D02*
X119932Y186345D01*
X119473Y186038D01*
X119167Y185580D01*
X119060Y185039D01*
X119167Y184499D01*
X119473Y184040D01*
X119932Y183734D01*
X120472Y183626D01*
X121013Y183734D01*
X121472Y184040D01*
X121778Y184499D01*
X121885Y185039D01*
X121778Y185580D01*
X121472Y186038D01*
X121013Y186345D01*
X120472Y186452D01*
D02*
G37*
G36*
X486027Y184221D02*
Y181066D01*
X489182D01*
X489093Y181741D01*
X488755Y182557D01*
X488218Y183257D01*
X487518Y183795D01*
X486702Y184133D01*
X486027Y184221D01*
D02*
G37*
G36*
X485627D02*
X484951Y184133D01*
X484136Y183795D01*
X483436Y183257D01*
X482898Y182557D01*
X482560Y181741D01*
X482471Y181066D01*
X485627D01*
Y184221D01*
D02*
G37*
G36*
Y180666D02*
X482471D01*
X482560Y179991D01*
X482898Y179175D01*
X483436Y178475D01*
X484136Y177937D01*
X484951Y177600D01*
X485627Y177511D01*
Y180666D01*
D02*
G37*
G36*
X489182D02*
X486027D01*
Y177511D01*
X486702Y177600D01*
X487518Y177937D01*
X488218Y178475D01*
X488755Y179175D01*
X489093Y179991D01*
X489182Y180666D01*
D02*
G37*
G36*
X495827Y184248D02*
X494951Y184133D01*
X494136Y183795D01*
X493436Y183257D01*
X492898Y182557D01*
X492560Y181741D01*
X492445Y180866D01*
X492560Y179991D01*
X492898Y179175D01*
X493436Y178475D01*
X494136Y177937D01*
X494951Y177600D01*
X495827Y177484D01*
X496702Y177600D01*
X497518Y177937D01*
X498218Y178475D01*
X498755Y179175D01*
X499093Y179991D01*
X499208Y180866D01*
X499093Y181741D01*
X498755Y182557D01*
X498218Y183257D01*
X497518Y183795D01*
X496702Y184133D01*
X495827Y184248D01*
D02*
G37*
G36*
X452362Y178185D02*
X451822Y178077D01*
X451363Y177771D01*
X451057Y177312D01*
X450949Y176772D01*
X451057Y176231D01*
X451363Y175773D01*
X451822Y175466D01*
X452362Y175359D01*
X452903Y175466D01*
X453361Y175773D01*
X453668Y176231D01*
X453775Y176772D01*
X453668Y177312D01*
X453361Y177771D01*
X452903Y178077D01*
X452362Y178185D01*
D02*
G37*
G36*
X499180Y174219D02*
X492474D01*
Y167513D01*
X499180D01*
Y174219D01*
D02*
G37*
G36*
X485827Y174248D02*
X484951Y174133D01*
X484136Y173795D01*
X483436Y173257D01*
X482898Y172557D01*
X482560Y171741D01*
X482445Y170866D01*
X482560Y169991D01*
X482898Y169175D01*
X483436Y168475D01*
X484136Y167938D01*
X484951Y167600D01*
X485827Y167484D01*
X486702Y167600D01*
X487518Y167938D01*
X488218Y168475D01*
X488755Y169175D01*
X489093Y169991D01*
X489208Y170866D01*
X489093Y171741D01*
X488755Y172557D01*
X488218Y173257D01*
X487518Y173795D01*
X486702Y174133D01*
X485827Y174248D01*
D02*
G37*
G36*
X415354Y165770D02*
X415354Y165770D01*
X131890D01*
X131890Y165770D01*
X131580Y165708D01*
X131317Y165533D01*
X131317Y165533D01*
X129752Y163967D01*
X129528Y164011D01*
X128987Y163904D01*
X128528Y163598D01*
X128222Y163139D01*
X128115Y162598D01*
X128222Y162058D01*
X128528Y161599D01*
X128987Y161293D01*
X129528Y161186D01*
X130068Y161293D01*
X130527Y161599D01*
X130833Y162058D01*
X130940Y162598D01*
X130896Y162822D01*
X132225Y164151D01*
X157562D01*
X157829Y163651D01*
X157750Y163533D01*
X157642Y162992D01*
X157750Y162451D01*
X158056Y161993D01*
X158514Y161687D01*
X159055Y161579D01*
X159596Y161687D01*
X160054Y161993D01*
X160361Y162451D01*
X160468Y162992D01*
X160361Y163533D01*
X160281Y163651D01*
X160549Y164151D01*
X199688D01*
X199955Y163651D01*
X199876Y163533D01*
X199768Y162992D01*
X199876Y162451D01*
X200182Y161993D01*
X200640Y161687D01*
X201181Y161579D01*
X201722Y161687D01*
X202180Y161993D01*
X202486Y162451D01*
X202594Y162992D01*
X202486Y163533D01*
X202407Y163651D01*
X202675Y164151D01*
X241814D01*
X242081Y163651D01*
X242002Y163533D01*
X241894Y162992D01*
X242002Y162451D01*
X242308Y161993D01*
X242766Y161687D01*
X243307Y161579D01*
X243848Y161687D01*
X244306Y161993D01*
X244613Y162451D01*
X244720Y162992D01*
X244613Y163533D01*
X244533Y163651D01*
X244801Y164151D01*
X283940D01*
X284207Y163651D01*
X284128Y163533D01*
X284020Y162992D01*
X284128Y162451D01*
X284434Y161993D01*
X284892Y161687D01*
X285433Y161579D01*
X285974Y161687D01*
X286432Y161993D01*
X286738Y162451D01*
X286846Y162992D01*
X286738Y163533D01*
X286659Y163651D01*
X286927Y164151D01*
X326066D01*
X326333Y163651D01*
X326254Y163533D01*
X326146Y162992D01*
X326254Y162451D01*
X326560Y161993D01*
X327018Y161687D01*
X327559Y161579D01*
X328100Y161687D01*
X328558Y161993D01*
X328865Y162451D01*
X328972Y162992D01*
X328865Y163533D01*
X328785Y163651D01*
X329052Y164151D01*
X368192D01*
X368459Y163651D01*
X368380Y163533D01*
X368272Y162992D01*
X368380Y162451D01*
X368686Y161993D01*
X369144Y161687D01*
X369685Y161579D01*
X370226Y161687D01*
X370684Y161993D01*
X370990Y162451D01*
X371098Y162992D01*
X370990Y163533D01*
X370911Y163651D01*
X371179Y164151D01*
X410318D01*
X410585Y163651D01*
X410506Y163533D01*
X410398Y162992D01*
X410506Y162451D01*
X410812Y161993D01*
X411270Y161687D01*
X411811Y161579D01*
X412352Y161687D01*
X412810Y161993D01*
X413116Y162451D01*
X413224Y162992D01*
X413116Y163533D01*
X413037Y163651D01*
X413305Y164151D01*
X415019D01*
X420679Y158492D01*
X420634Y158268D01*
X420742Y157727D01*
X421048Y157269D01*
X421507Y156962D01*
X422047Y156855D01*
X422588Y156962D01*
X423046Y157269D01*
X423353Y157727D01*
X423460Y158268D01*
X423353Y158808D01*
X423046Y159267D01*
X422588Y159573D01*
X422047Y159681D01*
X421823Y159636D01*
X415927Y165533D01*
X415664Y165708D01*
X415613Y165718D01*
X415354Y165770D01*
D02*
G37*
G36*
X124016Y164011D02*
X123475Y163904D01*
X123017Y163598D01*
X122710Y163139D01*
X122603Y162598D01*
X122710Y162058D01*
X123017Y161599D01*
X123475Y161293D01*
X124016Y161186D01*
X124557Y161293D01*
X125015Y161599D01*
X125321Y162058D01*
X125429Y162598D01*
X125321Y163139D01*
X125015Y163598D01*
X124557Y163904D01*
X124016Y164011D01*
D02*
G37*
G36*
X146850Y169130D02*
X146310Y169022D01*
X145851Y168716D01*
X145545Y168257D01*
X145437Y167717D01*
X145545Y167176D01*
X145851Y166717D01*
X146310Y166411D01*
X146850Y166304D01*
X147391Y166411D01*
X147850Y166717D01*
X147976Y166907D01*
X447303D01*
X453666Y160544D01*
X453505Y160335D01*
X453092Y159338D01*
X452951Y158268D01*
X453092Y157197D01*
X453505Y156200D01*
X454163Y155344D01*
X455019Y154686D01*
X456016Y154273D01*
X457087Y154132D01*
X458157Y154273D01*
X459154Y154686D01*
X460011Y155344D01*
X460668Y156200D01*
X461081Y157197D01*
X461222Y158268D01*
X461081Y159338D01*
X460668Y160335D01*
X460011Y161192D01*
X459154Y161849D01*
X458157Y162262D01*
X457087Y162403D01*
X456016Y162262D01*
X455019Y161849D01*
X454810Y161689D01*
X448210Y168289D01*
X447948Y168464D01*
X447638Y168526D01*
X447638Y168526D01*
X147976D01*
X147850Y168716D01*
X147391Y169022D01*
X146850Y169130D01*
D02*
G37*
G36*
X162598Y149051D02*
X162058Y148943D01*
X161599Y148637D01*
X161293Y148179D01*
X161186Y147638D01*
X161293Y147097D01*
X161599Y146639D01*
X162058Y146332D01*
X162598Y146225D01*
X163139Y146332D01*
X163598Y146639D01*
X163904Y147097D01*
X164011Y147638D01*
X163904Y148179D01*
X163598Y148637D01*
X163139Y148943D01*
X162598Y149051D01*
D02*
G37*
G36*
X130709Y148178D02*
X129899Y148017D01*
X129213Y147559D01*
X128754Y146873D01*
X128593Y146063D01*
X128754Y145253D01*
X129213Y144567D01*
X129899Y144109D01*
X130709Y143948D01*
X131518Y144109D01*
X132204Y144567D01*
X132663Y145253D01*
X132824Y146063D01*
X132663Y146873D01*
X132204Y147559D01*
X131518Y148017D01*
X130709Y148178D01*
D02*
G37*
G36*
X422047Y144720D02*
X421507Y144613D01*
X421048Y144306D01*
X420742Y143848D01*
X420634Y143307D01*
X420742Y142766D01*
X421048Y142308D01*
X421507Y142002D01*
X422047Y141894D01*
X422588Y142002D01*
X423046Y142308D01*
X423353Y142766D01*
X423460Y143307D01*
X423353Y143848D01*
X423046Y144306D01*
X422588Y144613D01*
X422047Y144720D01*
D02*
G37*
G36*
X457087Y147442D02*
X456016Y147302D01*
X455019Y146888D01*
X454163Y146231D01*
X453505Y145375D01*
X453092Y144377D01*
X452951Y143307D01*
X453092Y142237D01*
X453505Y141239D01*
X454163Y140383D01*
X455019Y139726D01*
X456016Y139313D01*
X457087Y139172D01*
X458157Y139313D01*
X459154Y139726D01*
X460011Y140383D01*
X460668Y141239D01*
X461081Y142237D01*
X461222Y143307D01*
X461081Y144377D01*
X460668Y145375D01*
X460011Y146231D01*
X459154Y146888D01*
X458157Y147302D01*
X457087Y147442D01*
D02*
G37*
G36*
X129134Y140389D02*
X128593Y140282D01*
X128135Y139976D01*
X127828Y139517D01*
X127721Y138976D01*
X127828Y138436D01*
X128135Y137977D01*
X128593Y137671D01*
X129134Y137563D01*
X129675Y137671D01*
X130133Y137977D01*
X130439Y138436D01*
X130547Y138976D01*
X130439Y139517D01*
X130133Y139976D01*
X129675Y140282D01*
X129134Y140389D01*
D02*
G37*
G36*
X124016Y141092D02*
X123206Y140931D01*
X122520Y140472D01*
X122061Y139786D01*
X121900Y138976D01*
X122061Y138167D01*
X122520Y137480D01*
X123206Y137022D01*
X124016Y136861D01*
X124825Y137022D01*
X125512Y137480D01*
X125970Y138167D01*
X126131Y138976D01*
X125970Y139786D01*
X125512Y140472D01*
X124825Y140931D01*
X124016Y141092D01*
D02*
G37*
G36*
X147244Y135271D02*
X146703Y135164D01*
X146245Y134857D01*
X145939Y134399D01*
X145831Y133858D01*
X145939Y133318D01*
X146245Y132859D01*
X146703Y132553D01*
X147244Y132445D01*
X147785Y132553D01*
X148243Y132859D01*
X148549Y133318D01*
X148657Y133858D01*
X148549Y134399D01*
X148243Y134857D01*
X147785Y135164D01*
X147244Y135271D01*
D02*
G37*
G36*
X120472Y134878D02*
X119932Y134770D01*
X119473Y134464D01*
X119167Y134005D01*
X119060Y133465D01*
X119167Y132924D01*
X119473Y132466D01*
X119932Y132159D01*
X120472Y132052D01*
X121013Y132159D01*
X121472Y132466D01*
X121778Y132924D01*
X121885Y133465D01*
X121778Y134005D01*
X121472Y134464D01*
X121013Y134770D01*
X120472Y134878D01*
D02*
G37*
G36*
X486027Y134064D02*
Y130909D01*
X489182D01*
X489093Y131584D01*
X488755Y132399D01*
X488218Y133100D01*
X487518Y133637D01*
X486702Y133975D01*
X486027Y134064D01*
D02*
G37*
G36*
X485627D02*
X484951Y133975D01*
X484136Y133637D01*
X483435Y133100D01*
X482898Y132399D01*
X482560Y131584D01*
X482471Y130909D01*
X485627D01*
Y134064D01*
D02*
G37*
G36*
X489182Y130509D02*
X486027D01*
Y127353D01*
X486702Y127442D01*
X487518Y127780D01*
X488218Y128317D01*
X488755Y129018D01*
X489093Y129833D01*
X489182Y130509D01*
D02*
G37*
G36*
X485627D02*
X482471D01*
X482560Y129833D01*
X482898Y129018D01*
X483435Y128317D01*
X484136Y127780D01*
X484951Y127442D01*
X485627Y127353D01*
Y130509D01*
D02*
G37*
G36*
X495827Y134090D02*
X494951Y133975D01*
X494136Y133637D01*
X493436Y133100D01*
X492898Y132399D01*
X492560Y131584D01*
X492445Y130709D01*
X492560Y129833D01*
X492898Y129018D01*
X493436Y128317D01*
X494136Y127780D01*
X494951Y127442D01*
X495827Y127327D01*
X496702Y127442D01*
X497518Y127780D01*
X498218Y128317D01*
X498755Y129018D01*
X499093Y129833D01*
X499208Y130709D01*
X499093Y131584D01*
X498755Y132399D01*
X498218Y133100D01*
X497518Y133637D01*
X496702Y133975D01*
X495827Y134090D01*
D02*
G37*
G36*
Y124090D02*
X494951Y123975D01*
X494136Y123637D01*
X493436Y123100D01*
X492898Y122399D01*
X492560Y121584D01*
X492445Y120709D01*
X492560Y119833D01*
X492898Y119018D01*
X493436Y118317D01*
X494136Y117780D01*
X494951Y117442D01*
X495827Y117327D01*
X496702Y117442D01*
X497518Y117780D01*
X498218Y118317D01*
X498755Y119018D01*
X499093Y119833D01*
X499208Y120709D01*
X499093Y121584D01*
X498755Y122399D01*
X498218Y123100D01*
X497518Y123637D01*
X496702Y123975D01*
X495827Y124090D01*
D02*
G37*
G36*
X485827Y124090D02*
X484951Y123975D01*
X484136Y123637D01*
X483435Y123100D01*
X482898Y122399D01*
X482560Y121584D01*
X482445Y120709D01*
X482560Y119833D01*
X482898Y119018D01*
X483435Y118317D01*
X484136Y117780D01*
X484951Y117442D01*
X485827Y117327D01*
X486702Y117442D01*
X487518Y117780D01*
X488218Y118317D01*
X488755Y119018D01*
X489093Y119833D01*
X489208Y120709D01*
X489093Y121584D01*
X488755Y122399D01*
X488218Y123100D01*
X487518Y123637D01*
X486702Y123975D01*
X485827Y124090D01*
D02*
G37*
G36*
X415354Y113801D02*
X415354Y113801D01*
X131890D01*
X131890Y113801D01*
X131580Y113740D01*
X131317Y113564D01*
X131317Y113564D01*
X129752Y111998D01*
X129528Y112043D01*
X128987Y111935D01*
X128528Y111629D01*
X128222Y111171D01*
X128115Y110630D01*
X128222Y110089D01*
X128528Y109631D01*
X128987Y109325D01*
X129528Y109217D01*
X130068Y109325D01*
X130527Y109631D01*
X130833Y110089D01*
X130940Y110630D01*
X130896Y110854D01*
X132225Y112183D01*
X157562D01*
X157829Y111683D01*
X157750Y111564D01*
X157642Y111024D01*
X157750Y110483D01*
X158056Y110024D01*
X158514Y109718D01*
X159055Y109611D01*
X159596Y109718D01*
X160054Y110024D01*
X160361Y110483D01*
X160468Y111024D01*
X160361Y111564D01*
X160281Y111683D01*
X160549Y112183D01*
X199688D01*
X199955Y111683D01*
X199876Y111564D01*
X199768Y111024D01*
X199876Y110483D01*
X200182Y110024D01*
X200640Y109718D01*
X201181Y109611D01*
X201722Y109718D01*
X202180Y110024D01*
X202486Y110483D01*
X202594Y111024D01*
X202486Y111564D01*
X202407Y111683D01*
X202675Y112183D01*
X241814D01*
X242081Y111683D01*
X242002Y111564D01*
X241894Y111024D01*
X242002Y110483D01*
X242308Y110024D01*
X242766Y109718D01*
X243307Y109611D01*
X243848Y109718D01*
X244306Y110024D01*
X244613Y110483D01*
X244720Y111024D01*
X244613Y111564D01*
X244533Y111683D01*
X244801Y112183D01*
X283940D01*
X284207Y111683D01*
X284128Y111564D01*
X284020Y111024D01*
X284128Y110483D01*
X284434Y110024D01*
X284892Y109718D01*
X285433Y109611D01*
X285974Y109718D01*
X286432Y110024D01*
X286738Y110483D01*
X286846Y111024D01*
X286738Y111564D01*
X286659Y111683D01*
X286927Y112183D01*
X326066D01*
X326333Y111683D01*
X326254Y111564D01*
X326146Y111024D01*
X326254Y110483D01*
X326560Y110024D01*
X327018Y109718D01*
X327559Y109611D01*
X328100Y109718D01*
X328558Y110024D01*
X328865Y110483D01*
X328972Y111024D01*
X328865Y111564D01*
X328785Y111683D01*
X329052Y112183D01*
X368192D01*
X368459Y111683D01*
X368380Y111564D01*
X368272Y111024D01*
X368380Y110483D01*
X368686Y110024D01*
X369144Y109718D01*
X369685Y109611D01*
X370226Y109718D01*
X370684Y110024D01*
X370990Y110483D01*
X371098Y111024D01*
X370990Y111564D01*
X370911Y111683D01*
X371179Y112183D01*
X410318D01*
X410585Y111683D01*
X410506Y111564D01*
X410398Y111024D01*
X410506Y110483D01*
X410812Y110024D01*
X411270Y109718D01*
X411811Y109611D01*
X412352Y109718D01*
X412810Y110024D01*
X413116Y110483D01*
X413224Y111024D01*
X413116Y111564D01*
X413037Y111683D01*
X413305Y112183D01*
X415019D01*
X420679Y106523D01*
X420634Y106299D01*
X420742Y105759D01*
X421048Y105300D01*
X421507Y104994D01*
X422047Y104886D01*
X422588Y104994D01*
X423046Y105300D01*
X423353Y105759D01*
X423460Y106299D01*
X423353Y106840D01*
X423046Y107298D01*
X422588Y107605D01*
X422047Y107712D01*
X421823Y107668D01*
X415927Y113564D01*
X415664Y113740D01*
X415613Y113750D01*
X415354Y113801D01*
D02*
G37*
G36*
X486027Y114064D02*
Y110909D01*
X489182D01*
X489093Y111584D01*
X488755Y112399D01*
X488218Y113100D01*
X487518Y113637D01*
X486702Y113975D01*
X486027Y114064D01*
D02*
G37*
G36*
X485627D02*
X484951Y113975D01*
X484136Y113637D01*
X483436Y113100D01*
X482898Y112399D01*
X482560Y111584D01*
X482471Y110909D01*
X485627D01*
Y114064D01*
D02*
G37*
G36*
X124016Y112043D02*
X123475Y111935D01*
X123017Y111629D01*
X122710Y111171D01*
X122603Y110630D01*
X122710Y110089D01*
X123017Y109631D01*
X123475Y109325D01*
X124016Y109217D01*
X124557Y109325D01*
X125015Y109631D01*
X125321Y110089D01*
X125429Y110630D01*
X125321Y111171D01*
X125015Y111629D01*
X124557Y111935D01*
X124016Y112043D01*
D02*
G37*
G36*
X489182Y110509D02*
X486027D01*
Y107353D01*
X486702Y107442D01*
X487518Y107780D01*
X488218Y108317D01*
X488755Y109018D01*
X489093Y109833D01*
X489182Y110509D01*
D02*
G37*
G36*
X485627D02*
X482471D01*
X482560Y109833D01*
X482898Y109018D01*
X483436Y108317D01*
X484136Y107780D01*
X484951Y107442D01*
X485627Y107353D01*
Y110509D01*
D02*
G37*
G36*
X495827Y114090D02*
X494951Y113975D01*
X494136Y113637D01*
X493436Y113100D01*
X492898Y112399D01*
X492560Y111584D01*
X492445Y110709D01*
X492560Y109833D01*
X492898Y109018D01*
X493436Y108317D01*
X494136Y107780D01*
X494951Y107442D01*
X495827Y107327D01*
X496702Y107442D01*
X497518Y107780D01*
X498218Y108317D01*
X498755Y109018D01*
X499093Y109833D01*
X499208Y110709D01*
X499093Y111584D01*
X498755Y112399D01*
X498218Y113100D01*
X497518Y113637D01*
X496702Y113975D01*
X495827Y114090D01*
D02*
G37*
G36*
X146850Y117161D02*
X146310Y117053D01*
X145851Y116747D01*
X145545Y116289D01*
X145437Y115748D01*
X145545Y115207D01*
X145851Y114749D01*
X146310Y114443D01*
X146850Y114335D01*
X147391Y114443D01*
X147850Y114749D01*
X147976Y114939D01*
X447303D01*
X453666Y108576D01*
X453505Y108367D01*
X453092Y107369D01*
X452951Y106299D01*
X453092Y105229D01*
X453505Y104232D01*
X454163Y103375D01*
X455019Y102718D01*
X456016Y102305D01*
X457087Y102164D01*
X458157Y102305D01*
X459154Y102718D01*
X460011Y103375D01*
X460668Y104232D01*
X461081Y105229D01*
X461222Y106299D01*
X461081Y107369D01*
X460668Y108367D01*
X460011Y109223D01*
X459154Y109880D01*
X458157Y110294D01*
X457087Y110435D01*
X456016Y110294D01*
X455019Y109880D01*
X454810Y109720D01*
X448210Y116320D01*
X447948Y116496D01*
X447638Y116557D01*
X447638Y116557D01*
X147976D01*
X147850Y116747D01*
X147391Y117053D01*
X146850Y117161D01*
D02*
G37*
G36*
X495827Y104090D02*
X494951Y103975D01*
X494136Y103637D01*
X493436Y103100D01*
X492898Y102400D01*
X492560Y101584D01*
X492445Y100709D01*
X492560Y99833D01*
X492898Y99018D01*
X493436Y98317D01*
X494136Y97780D01*
X494951Y97442D01*
X495827Y97327D01*
X496702Y97442D01*
X497518Y97780D01*
X498218Y98317D01*
X498755Y99018D01*
X499093Y99833D01*
X499208Y100709D01*
X499093Y101584D01*
X498755Y102400D01*
X498218Y103100D01*
X497518Y103637D01*
X496702Y103975D01*
X495827Y104090D01*
D02*
G37*
G36*
X485827D02*
X484951Y103975D01*
X484136Y103637D01*
X483436Y103100D01*
X482898Y102400D01*
X482560Y101584D01*
X482445Y100709D01*
X482560Y99833D01*
X482898Y99018D01*
X483436Y98317D01*
X484136Y97780D01*
X484951Y97442D01*
X485827Y97327D01*
X486702Y97442D01*
X487518Y97780D01*
X488218Y98317D01*
X488755Y99018D01*
X489093Y99833D01*
X489208Y100709D01*
X489093Y101584D01*
X488755Y102400D01*
X488218Y103100D01*
X487518Y103637D01*
X486702Y103975D01*
X485827Y104090D01*
D02*
G37*
G36*
X162598Y97082D02*
X162058Y96975D01*
X161599Y96668D01*
X161293Y96210D01*
X161186Y95669D01*
X161293Y95129D01*
X161599Y94670D01*
X162058Y94364D01*
X162598Y94256D01*
X163139Y94364D01*
X163598Y94670D01*
X163904Y95129D01*
X164011Y95669D01*
X163904Y96210D01*
X163598Y96668D01*
X163139Y96975D01*
X162598Y97082D01*
D02*
G37*
G36*
X130709Y96210D02*
X129899Y96049D01*
X129213Y95590D01*
X128754Y94904D01*
X128593Y94095D01*
X128754Y93285D01*
X129213Y92599D01*
X129899Y92140D01*
X130709Y91979D01*
X131518Y92140D01*
X132204Y92599D01*
X132663Y93285D01*
X132824Y94095D01*
X132663Y94904D01*
X132204Y95590D01*
X131518Y96049D01*
X130709Y96210D01*
D02*
G37*
G36*
X486027Y94064D02*
Y90909D01*
X489182D01*
X489093Y91584D01*
X488755Y92400D01*
X488218Y93100D01*
X487518Y93637D01*
X486702Y93975D01*
X486027Y94064D01*
D02*
G37*
G36*
X485627D02*
X484951Y93975D01*
X484136Y93637D01*
X483436Y93100D01*
X482898Y92400D01*
X482560Y91584D01*
X482471Y90909D01*
X485627D01*
Y94064D01*
D02*
G37*
G36*
X422047Y92752D02*
X421507Y92644D01*
X421048Y92338D01*
X420742Y91879D01*
X420634Y91339D01*
X420742Y90798D01*
X421048Y90339D01*
X421507Y90033D01*
X422047Y89926D01*
X422588Y90033D01*
X423046Y90339D01*
X423353Y90798D01*
X423460Y91339D01*
X423353Y91879D01*
X423046Y92338D01*
X422588Y92644D01*
X422047Y92752D01*
D02*
G37*
G36*
X485627Y90509D02*
X482471D01*
X482560Y89833D01*
X482898Y89018D01*
X483436Y88317D01*
X484136Y87780D01*
X484951Y87442D01*
X485627Y87353D01*
Y90509D01*
D02*
G37*
G36*
X489182D02*
X486027D01*
Y87353D01*
X486702Y87442D01*
X487518Y87780D01*
X488218Y88317D01*
X488755Y89018D01*
X489093Y89833D01*
X489182Y90509D01*
D02*
G37*
G36*
X495827Y94090D02*
X494951Y93975D01*
X494136Y93637D01*
X493436Y93100D01*
X492898Y92400D01*
X492560Y91584D01*
X492445Y90709D01*
X492560Y89833D01*
X492898Y89018D01*
X493436Y88317D01*
X494136Y87780D01*
X494951Y87442D01*
X495827Y87327D01*
X496702Y87442D01*
X497518Y87780D01*
X498218Y88317D01*
X498755Y89018D01*
X499093Y89833D01*
X499208Y90709D01*
X499093Y91584D01*
X498755Y92400D01*
X498218Y93100D01*
X497518Y93637D01*
X496702Y93975D01*
X495827Y94090D01*
D02*
G37*
G36*
X457087Y95474D02*
X456016Y95333D01*
X455019Y94920D01*
X454163Y94263D01*
X453505Y93406D01*
X453092Y92409D01*
X452951Y91339D01*
X453092Y90268D01*
X453505Y89271D01*
X454163Y88414D01*
X455019Y87757D01*
X456016Y87344D01*
X457087Y87203D01*
X458157Y87344D01*
X459154Y87757D01*
X460011Y88414D01*
X460668Y89271D01*
X461081Y90268D01*
X461222Y91339D01*
X461081Y92409D01*
X460668Y93406D01*
X460011Y94263D01*
X459154Y94920D01*
X458157Y95333D01*
X457087Y95474D01*
D02*
G37*
G36*
X129134Y88421D02*
X128593Y88313D01*
X128135Y88007D01*
X127828Y87549D01*
X127721Y87008D01*
X127828Y86467D01*
X128135Y86009D01*
X128593Y85703D01*
X129134Y85595D01*
X129675Y85703D01*
X130133Y86009D01*
X130439Y86467D01*
X130547Y87008D01*
X130439Y87549D01*
X130133Y88007D01*
X129675Y88313D01*
X129134Y88421D01*
D02*
G37*
G36*
X124016Y89123D02*
X123206Y88962D01*
X122520Y88504D01*
X122061Y87817D01*
X121900Y87008D01*
X122061Y86198D01*
X122520Y85512D01*
X123206Y85053D01*
X124016Y84892D01*
X124825Y85053D01*
X125512Y85512D01*
X125970Y86198D01*
X126131Y87008D01*
X125970Y87817D01*
X125512Y88504D01*
X124825Y88962D01*
X124016Y89123D01*
D02*
G37*
G36*
X147244Y83303D02*
X146703Y83195D01*
X146245Y82889D01*
X145939Y82430D01*
X145831Y81890D01*
X145939Y81349D01*
X146245Y80891D01*
X146703Y80584D01*
X147244Y80477D01*
X147785Y80584D01*
X148243Y80891D01*
X148549Y81349D01*
X148657Y81890D01*
X148549Y82430D01*
X148243Y82889D01*
X147785Y83195D01*
X147244Y83303D01*
D02*
G37*
G36*
X120472Y82515D02*
X119932Y82408D01*
X119473Y82102D01*
X119167Y81643D01*
X119060Y81102D01*
X119167Y80562D01*
X119473Y80103D01*
X119932Y79797D01*
X120472Y79689D01*
X121013Y79797D01*
X121472Y80103D01*
X121778Y80562D01*
X121885Y81102D01*
X121778Y81643D01*
X121472Y82102D01*
X121013Y82408D01*
X120472Y82515D01*
D02*
G37*
G36*
X495827Y84090D02*
X494951Y83975D01*
X494136Y83637D01*
X493436Y83100D01*
X492898Y82399D01*
X492560Y81584D01*
X492445Y80709D01*
X492560Y79833D01*
X492898Y79018D01*
X493436Y78317D01*
X494136Y77780D01*
X494951Y77442D01*
X495827Y77327D01*
X496702Y77442D01*
X497518Y77780D01*
X498218Y78317D01*
X498755Y79018D01*
X499093Y79833D01*
X499208Y80709D01*
X499093Y81584D01*
X498755Y82399D01*
X498218Y83100D01*
X497518Y83637D01*
X496702Y83975D01*
X495827Y84090D01*
D02*
G37*
G36*
X485827D02*
X484951Y83975D01*
X484136Y83637D01*
X483435Y83100D01*
X482898Y82399D01*
X482560Y81584D01*
X482445Y80709D01*
X482560Y79833D01*
X482898Y79018D01*
X483435Y78317D01*
X484136Y77780D01*
X484951Y77442D01*
X485827Y77327D01*
X486702Y77442D01*
X487518Y77780D01*
X488218Y78317D01*
X488755Y79018D01*
X489093Y79833D01*
X489208Y80709D01*
X489093Y81584D01*
X488755Y82399D01*
X488218Y83100D01*
X487518Y83637D01*
X486702Y83975D01*
X485827Y84090D01*
D02*
G37*
G36*
X486027Y74064D02*
Y70909D01*
X489182D01*
X489093Y71584D01*
X488755Y72399D01*
X488218Y73100D01*
X487518Y73637D01*
X486702Y73975D01*
X486027Y74064D01*
D02*
G37*
G36*
X485627D02*
X484951Y73975D01*
X484136Y73637D01*
X483436Y73100D01*
X482898Y72399D01*
X482560Y71584D01*
X482471Y70909D01*
X485627D01*
Y74064D01*
D02*
G37*
G36*
X489182Y70509D02*
X486027D01*
Y67353D01*
X486702Y67442D01*
X487518Y67780D01*
X488218Y68317D01*
X488755Y69018D01*
X489093Y69833D01*
X489182Y70509D01*
D02*
G37*
G36*
X485627D02*
X482471D01*
X482560Y69833D01*
X482898Y69018D01*
X483436Y68317D01*
X484136Y67780D01*
X484951Y67442D01*
X485627Y67353D01*
Y70509D01*
D02*
G37*
G36*
X495827Y74090D02*
X494951Y73975D01*
X494136Y73637D01*
X493436Y73100D01*
X492898Y72399D01*
X492560Y71584D01*
X492445Y70709D01*
X492560Y69833D01*
X492898Y69018D01*
X493436Y68317D01*
X494136Y67780D01*
X494951Y67442D01*
X495827Y67327D01*
X496702Y67442D01*
X497518Y67780D01*
X498218Y68317D01*
X498755Y69018D01*
X499093Y69833D01*
X499208Y70709D01*
X499093Y71584D01*
X498755Y72399D01*
X498218Y73100D01*
X497518Y73637D01*
X496702Y73975D01*
X495827Y74090D01*
D02*
G37*
G36*
X415354Y61833D02*
X415354Y61833D01*
X131890D01*
X131890Y61833D01*
X131580Y61771D01*
X131317Y61596D01*
X131317Y61596D01*
X129752Y60030D01*
X129528Y60074D01*
X128987Y59967D01*
X128528Y59661D01*
X128222Y59202D01*
X128115Y58661D01*
X128222Y58121D01*
X128528Y57662D01*
X128987Y57356D01*
X129528Y57249D01*
X130068Y57356D01*
X130527Y57662D01*
X130833Y58121D01*
X130940Y58661D01*
X130896Y58885D01*
X132225Y60214D01*
X157562D01*
X157829Y59714D01*
X157750Y59596D01*
X157642Y59055D01*
X157750Y58514D01*
X158056Y58056D01*
X158514Y57750D01*
X159055Y57642D01*
X159596Y57750D01*
X160054Y58056D01*
X160361Y58514D01*
X160468Y59055D01*
X160361Y59596D01*
X160281Y59714D01*
X160549Y60214D01*
X199688D01*
X199955Y59714D01*
X199876Y59596D01*
X199768Y59055D01*
X199876Y58514D01*
X200182Y58056D01*
X200640Y57750D01*
X201181Y57642D01*
X201722Y57750D01*
X202180Y58056D01*
X202486Y58514D01*
X202594Y59055D01*
X202486Y59596D01*
X202407Y59714D01*
X202675Y60214D01*
X241814D01*
X242081Y59714D01*
X242002Y59596D01*
X241894Y59055D01*
X242002Y58514D01*
X242308Y58056D01*
X242766Y57750D01*
X243307Y57642D01*
X243848Y57750D01*
X244306Y58056D01*
X244613Y58514D01*
X244720Y59055D01*
X244613Y59596D01*
X244533Y59714D01*
X244801Y60214D01*
X283940D01*
X284207Y59714D01*
X284128Y59596D01*
X284020Y59055D01*
X284128Y58514D01*
X284434Y58056D01*
X284892Y57750D01*
X285433Y57642D01*
X285974Y57750D01*
X286432Y58056D01*
X286738Y58514D01*
X286846Y59055D01*
X286738Y59596D01*
X286659Y59714D01*
X286927Y60214D01*
X326066D01*
X326333Y59714D01*
X326254Y59596D01*
X326146Y59055D01*
X326254Y58514D01*
X326560Y58056D01*
X327018Y57750D01*
X327559Y57642D01*
X328100Y57750D01*
X328558Y58056D01*
X328865Y58514D01*
X328972Y59055D01*
X328865Y59596D01*
X328785Y59714D01*
X329052Y60214D01*
X368192D01*
X368459Y59714D01*
X368380Y59596D01*
X368272Y59055D01*
X368380Y58514D01*
X368686Y58056D01*
X369144Y57750D01*
X369685Y57642D01*
X370226Y57750D01*
X370684Y58056D01*
X370990Y58514D01*
X371098Y59055D01*
X370990Y59596D01*
X370911Y59714D01*
X371179Y60214D01*
X410318D01*
X410585Y59714D01*
X410506Y59596D01*
X410398Y59055D01*
X410506Y58514D01*
X410812Y58056D01*
X411270Y57750D01*
X411811Y57642D01*
X412352Y57750D01*
X412810Y58056D01*
X413116Y58514D01*
X413224Y59055D01*
X413116Y59596D01*
X413037Y59714D01*
X413305Y60214D01*
X415019D01*
X420679Y54555D01*
X420634Y54331D01*
X420742Y53790D01*
X421048Y53332D01*
X421507Y53025D01*
X422047Y52918D01*
X422588Y53025D01*
X423046Y53332D01*
X423353Y53790D01*
X423460Y54331D01*
X423353Y54871D01*
X423046Y55330D01*
X422588Y55636D01*
X422047Y55744D01*
X421823Y55699D01*
X415927Y61596D01*
X415664Y61771D01*
X415613Y61782D01*
X415354Y61833D01*
D02*
G37*
G36*
X495827Y64090D02*
X494951Y63975D01*
X494136Y63637D01*
X493436Y63100D01*
X492898Y62400D01*
X492560Y61584D01*
X492445Y60709D01*
X492560Y59833D01*
X492898Y59018D01*
X493436Y58317D01*
X494136Y57780D01*
X494951Y57442D01*
X495827Y57327D01*
X496702Y57442D01*
X497518Y57780D01*
X498218Y58317D01*
X498755Y59018D01*
X499093Y59833D01*
X499208Y60709D01*
X499093Y61584D01*
X498755Y62400D01*
X498218Y63100D01*
X497518Y63637D01*
X496702Y63975D01*
X495827Y64090D01*
D02*
G37*
G36*
X485827D02*
X484951Y63975D01*
X484136Y63637D01*
X483436Y63100D01*
X482898Y62400D01*
X482560Y61584D01*
X482445Y60709D01*
X482560Y59833D01*
X482898Y59018D01*
X483436Y58317D01*
X484136Y57780D01*
X484951Y57442D01*
X485827Y57327D01*
X486702Y57442D01*
X487518Y57780D01*
X488218Y58317D01*
X488755Y59018D01*
X489093Y59833D01*
X489208Y60709D01*
X489093Y61584D01*
X488755Y62400D01*
X488218Y63100D01*
X487518Y63637D01*
X486702Y63975D01*
X485827Y64090D01*
D02*
G37*
G36*
X124016Y60074D02*
X123475Y59967D01*
X123017Y59661D01*
X122710Y59202D01*
X122603Y58661D01*
X122710Y58121D01*
X123017Y57662D01*
X123475Y57356D01*
X124016Y57249D01*
X124557Y57356D01*
X125015Y57662D01*
X125321Y58121D01*
X125429Y58661D01*
X125321Y59202D01*
X125015Y59661D01*
X124557Y59967D01*
X124016Y60074D01*
D02*
G37*
G36*
X486027Y54064D02*
Y50909D01*
X489182D01*
X489093Y51584D01*
X488755Y52399D01*
X488218Y53100D01*
X487518Y53637D01*
X486702Y53975D01*
X486027Y54064D01*
D02*
G37*
G36*
X485627D02*
X484951Y53975D01*
X484136Y53637D01*
X483435Y53100D01*
X482898Y52399D01*
X482560Y51584D01*
X482471Y50909D01*
X485627D01*
Y54064D01*
D02*
G37*
G36*
X146850Y65193D02*
X146310Y65085D01*
X145851Y64779D01*
X145545Y64320D01*
X145437Y63779D01*
X145545Y63239D01*
X145851Y62780D01*
X146310Y62474D01*
X146850Y62367D01*
X147391Y62474D01*
X147850Y62780D01*
X147976Y62970D01*
X447303D01*
X453666Y56607D01*
X453505Y56398D01*
X453092Y55401D01*
X452951Y54331D01*
X453092Y53260D01*
X453505Y52263D01*
X454163Y51407D01*
X455019Y50749D01*
X456016Y50336D01*
X457087Y50195D01*
X458157Y50336D01*
X459154Y50749D01*
X460011Y51407D01*
X460668Y52263D01*
X461081Y53260D01*
X461222Y54331D01*
X461081Y55401D01*
X460668Y56398D01*
X460011Y57255D01*
X459154Y57912D01*
X458157Y58325D01*
X457087Y58466D01*
X456016Y58325D01*
X455019Y57912D01*
X454810Y57752D01*
X448210Y64352D01*
X447948Y64527D01*
X447638Y64589D01*
X447638Y64589D01*
X147976D01*
X147850Y64779D01*
X147391Y65085D01*
X146850Y65193D01*
D02*
G37*
G36*
X489182Y50509D02*
X486027D01*
Y47353D01*
X486702Y47442D01*
X487518Y47780D01*
X488218Y48317D01*
X488755Y49018D01*
X489093Y49833D01*
X489182Y50509D01*
D02*
G37*
G36*
X485627D02*
X482471D01*
X482560Y49833D01*
X482898Y49018D01*
X483435Y48317D01*
X484136Y47780D01*
X484951Y47442D01*
X485627Y47353D01*
Y50509D01*
D02*
G37*
G36*
X495827Y54090D02*
X494951Y53975D01*
X494136Y53637D01*
X493436Y53100D01*
X492898Y52399D01*
X492560Y51584D01*
X492445Y50709D01*
X492560Y49833D01*
X492898Y49018D01*
X493436Y48317D01*
X494136Y47780D01*
X494951Y47442D01*
X495827Y47327D01*
X496702Y47442D01*
X497518Y47780D01*
X498218Y48317D01*
X498755Y49018D01*
X499093Y49833D01*
X499208Y50709D01*
X499093Y51584D01*
X498755Y52399D01*
X498218Y53100D01*
X497518Y53637D01*
X496702Y53975D01*
X495827Y54090D01*
D02*
G37*
G36*
X162598Y45114D02*
X162058Y45006D01*
X161599Y44700D01*
X161293Y44241D01*
X161186Y43701D01*
X161293Y43160D01*
X161599Y42702D01*
X162058Y42395D01*
X162598Y42288D01*
X163139Y42395D01*
X163598Y42702D01*
X163904Y43160D01*
X164011Y43701D01*
X163904Y44241D01*
X163598Y44700D01*
X163139Y45006D01*
X162598Y45114D01*
D02*
G37*
G36*
X130709Y44241D02*
X129899Y44080D01*
X129213Y43622D01*
X128754Y42935D01*
X128593Y42126D01*
X128754Y41316D01*
X129213Y40630D01*
X129899Y40172D01*
X130709Y40010D01*
X131518Y40172D01*
X132204Y40630D01*
X132663Y41316D01*
X132824Y42126D01*
X132663Y42935D01*
X132204Y43622D01*
X131518Y44080D01*
X130709Y44241D01*
D02*
G37*
G36*
X422047Y40783D02*
X421507Y40676D01*
X421048Y40369D01*
X420742Y39911D01*
X420634Y39370D01*
X420742Y38829D01*
X421048Y38371D01*
X421507Y38065D01*
X422047Y37957D01*
X422588Y38065D01*
X423046Y38371D01*
X423353Y38829D01*
X423460Y39370D01*
X423353Y39911D01*
X423046Y40369D01*
X422588Y40676D01*
X422047Y40783D01*
D02*
G37*
G36*
X499180Y44061D02*
X492474D01*
Y37356D01*
X499180D01*
Y44061D01*
D02*
G37*
G36*
X485827Y44090D02*
X484951Y43975D01*
X484136Y43637D01*
X483436Y43100D01*
X482898Y42399D01*
X482560Y41584D01*
X482445Y40709D01*
X482560Y39833D01*
X482898Y39018D01*
X483436Y38317D01*
X484136Y37780D01*
X484951Y37442D01*
X485827Y37327D01*
X486702Y37442D01*
X487518Y37780D01*
X488218Y38317D01*
X488755Y39018D01*
X489093Y39833D01*
X489208Y40709D01*
X489093Y41584D01*
X488755Y42399D01*
X488218Y43100D01*
X487518Y43637D01*
X486702Y43975D01*
X485827Y44090D01*
D02*
G37*
G36*
X457087Y43505D02*
X456016Y43365D01*
X455019Y42951D01*
X454163Y42294D01*
X453505Y41438D01*
X453092Y40440D01*
X452951Y39370D01*
X453092Y38300D01*
X453505Y37302D01*
X454163Y36446D01*
X455019Y35789D01*
X456016Y35376D01*
X457087Y35235D01*
X458157Y35376D01*
X459154Y35789D01*
X460011Y36446D01*
X460668Y37302D01*
X461081Y38300D01*
X461222Y39370D01*
X461081Y40440D01*
X460668Y41438D01*
X460011Y42294D01*
X459154Y42951D01*
X458157Y43365D01*
X457087Y43505D01*
D02*
G37*
G36*
X129134Y36452D02*
X128593Y36345D01*
X128135Y36039D01*
X127828Y35580D01*
X127721Y35039D01*
X127828Y34499D01*
X128135Y34040D01*
X128593Y33734D01*
X129134Y33626D01*
X129675Y33734D01*
X130133Y34040D01*
X130439Y34499D01*
X130547Y35039D01*
X130439Y35580D01*
X130133Y36039D01*
X129675Y36345D01*
X129134Y36452D01*
D02*
G37*
G36*
X124016Y37155D02*
X123206Y36994D01*
X122520Y36535D01*
X122061Y35849D01*
X121900Y35039D01*
X122061Y34230D01*
X122520Y33544D01*
X123206Y33085D01*
X124016Y32924D01*
X124825Y33085D01*
X125512Y33544D01*
X125970Y34230D01*
X126131Y35039D01*
X125970Y35849D01*
X125512Y36535D01*
X124825Y36994D01*
X124016Y37155D01*
D02*
G37*
G36*
X147244Y31334D02*
X146703Y31227D01*
X146245Y30920D01*
X145939Y30462D01*
X145831Y29921D01*
X145939Y29381D01*
X146245Y28922D01*
X146703Y28616D01*
X147244Y28508D01*
X147785Y28616D01*
X148243Y28922D01*
X148549Y29381D01*
X148657Y29921D01*
X148549Y30462D01*
X148243Y30920D01*
X147785Y31227D01*
X147244Y31334D01*
D02*
G37*
G36*
X120472Y30940D02*
X119932Y30833D01*
X119473Y30527D01*
X119167Y30068D01*
X119060Y29528D01*
X119167Y28987D01*
X119473Y28528D01*
X119932Y28222D01*
X120472Y28115D01*
X121013Y28222D01*
X121472Y28528D01*
X121778Y28987D01*
X121885Y29528D01*
X121778Y30068D01*
X121472Y30527D01*
X121013Y30833D01*
X120472Y30940D01*
D02*
G37*
%LPD*%
D10*
X35827Y248031D02*
X35827Y113779D01*
Y106496D02*
Y113779D01*
X33858D02*
X35827D01*
X40748Y128937D02*
Y248031D01*
Y103150D02*
Y128937D01*
X40945Y128740D02*
X47047D01*
X40748Y128937D02*
X40945Y128740D01*
X54134Y207874D02*
Y259842D01*
Y155905D02*
Y207874D01*
Y103937D02*
Y155905D01*
X51968Y210236D02*
Y262205D01*
Y158268D02*
Y210236D01*
Y106299D02*
Y158268D01*
Y54331D02*
Y106299D01*
X54134Y51968D02*
Y103937D01*
X17323Y244488D02*
X20669Y247835D01*
X17323Y179134D02*
Y244488D01*
X15157Y150197D02*
Y176969D01*
X17323Y179134D01*
X15157Y150197D02*
X22047Y143307D01*
X32874Y140945D02*
Y245669D01*
Y138976D02*
Y140945D01*
X29724D02*
X32874D01*
X23622Y134843D02*
X24606Y135827D01*
Y147286D02*
X27961Y150641D01*
X25787Y247835D02*
X27961Y245661D01*
Y150641D02*
Y245661D01*
X24606Y135827D02*
Y147286D01*
X32874Y138976D02*
X33858Y137992D01*
X35827Y68898D02*
Y106496D01*
X34252D02*
X35827D01*
X13189Y140945D02*
Y178267D01*
X6299Y103525D02*
Y134055D01*
X13189Y140945D01*
X12992Y134449D02*
X14370Y135827D01*
X24606D01*
X23622Y115748D02*
Y134843D01*
X25984Y68898D02*
Y113386D01*
X23622Y115748D02*
X25984Y113386D01*
X39370Y103150D02*
X40748D01*
Y68898D02*
Y103150D01*
X30709Y247835D02*
X32874Y245669D01*
X33858Y119488D02*
Y137992D01*
X30709Y116339D02*
X33858Y119488D01*
X30709Y68898D02*
Y116339D01*
X21063Y75984D02*
Y133131D01*
X21138Y133206D01*
X15748Y180826D02*
Y247441D01*
X6299Y103525D02*
X16929Y92895D01*
X13189Y178267D02*
X15748Y180826D01*
X16929Y75984D02*
Y92895D01*
X447638Y63779D02*
X457087Y54331D01*
X415354Y268898D02*
X422638Y261614D01*
X415354Y216929D02*
X422441Y209842D01*
X146850Y63779D02*
X447638D01*
Y115748D02*
X457087Y106299D01*
X146850Y115748D02*
X447638D01*
X447638Y271654D02*
X457087Y262205D01*
X146850Y271654D02*
X447638D01*
X447638Y219685D02*
X457087Y210236D01*
X146850Y219685D02*
X447638D01*
Y167717D02*
X457087Y158268D01*
X146850Y167717D02*
X447638D01*
X108429Y45669D02*
X117915Y55156D01*
X106693Y45669D02*
X108429D01*
X415354Y61024D02*
X422047Y54331D01*
X131890Y61024D02*
X415354D01*
X129528Y58661D02*
X131890Y61024D01*
X155118Y48031D02*
X159055Y44094D01*
X117323Y44488D02*
X120866Y48031D01*
X155118D01*
X159055Y34646D02*
Y44094D01*
X117323Y36870D02*
Y44488D01*
X112296Y31844D02*
X117323Y36870D01*
X109780Y31844D02*
X112296D01*
X201181Y34646D02*
Y44094D01*
X120374Y49219D02*
X196057D01*
X201181Y44094D01*
X116135Y44980D02*
X120374Y49219D01*
X116135Y37941D02*
Y44980D01*
X112007Y33812D02*
X116135Y37941D01*
X111748Y33812D02*
X112007D01*
X243307Y34646D02*
Y44094D01*
X119883Y50406D02*
X236995D01*
X243307Y44094D01*
X114948Y45472D02*
X119883Y50406D01*
X114948Y38433D02*
Y45472D01*
X112296Y35781D02*
X114948Y38433D01*
X109780Y35781D02*
X112296D01*
X285433Y34646D02*
Y44094D01*
X119391Y51594D02*
X277934D01*
X285433Y44094D01*
X113761Y45964D02*
X119391Y51594D01*
X113761Y39762D02*
Y45964D01*
X111846Y37848D02*
X113761Y39762D01*
X327559Y34646D02*
Y44094D01*
X118899Y52781D02*
X318872D01*
X327559Y44094D01*
X112573Y46455D02*
X118899Y52781D01*
X112573Y42511D02*
Y46455D01*
X109878Y39816D02*
X112573Y42511D01*
X109878Y39816D02*
X109878D01*
X359811Y53969D02*
X369685Y44094D01*
Y34646D02*
Y44094D01*
X118407Y53969D02*
X359811D01*
X111386Y46947D02*
Y46947D01*
X118407Y53969D01*
X107592Y43154D02*
X111386Y46947D01*
X106728Y42966D02*
X106917Y43154D01*
X107592D01*
X400750Y55156D02*
X411811Y44094D01*
X117915Y55156D02*
X400750D01*
X411811Y34646D02*
Y44094D01*
X415354Y112992D02*
X422047Y106299D01*
X131890Y112992D02*
X415354D01*
X129528Y110630D02*
X131890Y112992D01*
X155118Y100000D02*
X159055Y96063D01*
X117323Y96457D02*
X120866Y100000D01*
X155118D01*
X159055Y86614D02*
Y96063D01*
X117323Y88839D02*
Y96457D01*
X112296Y83812D02*
X117323Y88839D01*
X109780Y83812D02*
X112296D01*
X201181Y86614D02*
Y96063D01*
X120374Y101187D02*
X196057D01*
X201181Y96063D01*
X116135Y96948D02*
X120374Y101187D01*
X116135Y89909D02*
Y96948D01*
X112007Y85781D02*
X116135Y89909D01*
X111748Y85781D02*
X112007D01*
X243307Y86614D02*
Y96063D01*
X119883Y102375D02*
X236995D01*
X243307Y96063D01*
X114948Y97440D02*
X119883Y102375D01*
X114948Y90401D02*
Y97440D01*
X112296Y87749D02*
X114948Y90401D01*
X109780Y87749D02*
X112296D01*
X285433Y86614D02*
Y96063D01*
X119391Y103562D02*
X277934D01*
X285433Y96063D01*
X113761Y97932D02*
X119391Y103562D01*
X113761Y91730D02*
Y97932D01*
X111846Y89816D02*
X113761Y91730D01*
X327559Y86614D02*
Y96063D01*
X118899Y104750D02*
X318872D01*
X327559Y96063D01*
X112573Y98424D02*
X118899Y104750D01*
X112573Y94480D02*
Y98424D01*
X109878Y91785D02*
X112573Y94480D01*
X109878Y91785D02*
X109878D01*
X359811Y105937D02*
X369685Y96063D01*
Y86614D02*
Y96063D01*
X118407Y105937D02*
X359811D01*
X111386Y98916D02*
Y98916D01*
X118407Y105937D01*
X107592Y95122D02*
X111386Y98916D01*
X106728Y94934D02*
X106917Y95122D01*
X107592D01*
X400750Y107124D02*
X411811Y96063D01*
X108429Y97638D02*
X117915Y107124D01*
X400750D01*
X411811Y86614D02*
Y96063D01*
X106781Y97638D02*
X108429D01*
X106728Y97690D02*
X106781Y97638D01*
X415354Y164961D02*
X422047Y158268D01*
X131890Y164961D02*
X415354D01*
X129528Y162598D02*
X131890Y164961D01*
X155118Y151969D02*
X159055Y148031D01*
X117323Y148425D02*
X120866Y151969D01*
X155118D01*
X159055Y138583D02*
Y148031D01*
X117323Y140807D02*
Y148425D01*
X112296Y135781D02*
X117323Y140807D01*
X109780Y135781D02*
X112296D01*
X201181Y138583D02*
Y148031D01*
X120374Y153156D02*
X196057D01*
X201181Y148031D01*
X116135Y148917D02*
X120374Y153156D01*
X116135Y141878D02*
Y148917D01*
X112007Y137749D02*
X116135Y141878D01*
X111748Y137749D02*
X112007D01*
X243307Y138583D02*
Y148031D01*
X119883Y154343D02*
X236995D01*
X243307Y148031D01*
X114948Y149409D02*
X119883Y154343D01*
X114948Y142370D02*
Y149409D01*
X112296Y139718D02*
X114948Y142370D01*
X109780Y139718D02*
X112296D01*
X285433Y138583D02*
Y148031D01*
X119391Y155531D02*
X277934D01*
X285433Y148031D01*
X113761Y149901D02*
X119391Y155531D01*
X113761Y143699D02*
Y149901D01*
X111846Y141785D02*
X113761Y143699D01*
X327559Y138583D02*
Y148031D01*
X118899Y156718D02*
X318872D01*
X327559Y148031D01*
X112573Y150392D02*
X118899Y156718D01*
X112573Y146448D02*
Y150392D01*
X109878Y143753D02*
X112573Y146448D01*
X109878Y143753D02*
X109878D01*
X359811Y157905D02*
X369685Y148031D01*
Y138583D02*
Y148031D01*
X118407Y157905D02*
X359811D01*
X111386Y150884D02*
Y150884D01*
X118407Y157905D01*
X107592Y147091D02*
X111386Y150884D01*
X106728Y146903D02*
X106917Y147091D01*
X107592D01*
X400750Y159093D02*
X411811Y148031D01*
X108429Y149606D02*
X117915Y159093D01*
X400750D01*
X411811Y138583D02*
Y148031D01*
X106781Y149606D02*
X108429D01*
X106728Y149659D02*
X106781Y149606D01*
X131890Y216929D02*
X415354D01*
X129528Y214567D02*
X131890Y216929D01*
X155118Y203937D02*
X159055Y200000D01*
X117323Y200394D02*
X120866Y203937D01*
X155118D01*
X159055Y190551D02*
Y200000D01*
X117323Y192776D02*
Y200394D01*
X112296Y187749D02*
X117323Y192776D01*
X109780Y187749D02*
X112296D01*
X201181Y190551D02*
Y200000D01*
X120374Y205124D02*
X196057D01*
X201181Y200000D01*
X116135Y200886D02*
X120374Y205124D01*
X116135Y193846D02*
Y200886D01*
X112007Y189718D02*
X116135Y193846D01*
X111748Y189718D02*
X112007D01*
X243307Y190551D02*
Y200000D01*
X119883Y206312D02*
X236995D01*
X243307Y200000D01*
X114948Y201377D02*
X119883Y206312D01*
X114948Y194338D02*
Y201377D01*
X112296Y191686D02*
X114948Y194338D01*
X109780Y191686D02*
X112296D01*
X285433Y190551D02*
Y200000D01*
X119391Y207499D02*
X277934D01*
X285433Y200000D01*
X113761Y201869D02*
X119391Y207499D01*
X113761Y195667D02*
Y201869D01*
X111846Y193753D02*
X113761Y195667D01*
X327559Y190551D02*
Y200000D01*
X118899Y208687D02*
X318872D01*
X327559Y200000D01*
X112573Y202361D02*
X118899Y208687D01*
X112573Y198417D02*
Y202361D01*
X109878Y195722D02*
X112573Y198417D01*
X109878Y195722D02*
X109878D01*
X359811Y209874D02*
X369685Y200000D01*
Y190551D02*
Y200000D01*
X118407Y209874D02*
X359811D01*
X111386Y202853D02*
Y202853D01*
X118407Y209874D01*
X107592Y199059D02*
X111386Y202853D01*
X106728Y198871D02*
X106917Y199059D01*
X107592D01*
X400750Y211061D02*
X411811Y200000D01*
X108429Y201575D02*
X117915Y211061D01*
X400750D01*
X411811Y190551D02*
Y200000D01*
X106781Y201575D02*
X108429D01*
X106728Y201627D02*
X106781Y201575D01*
X129528Y266535D02*
X131890Y268898D01*
X415354D01*
X111386Y254821D02*
Y254821D01*
X112573Y250385D02*
Y254329D01*
X106917Y251028D02*
X107592D01*
X111386Y254821D02*
X118407Y261842D01*
X106728Y250840D02*
X106917Y251028D01*
X107592D02*
X111386Y254821D01*
X109878Y247690D02*
X112573Y250385D01*
X111846Y245722D02*
X113761Y247636D01*
X109780Y239718D02*
X112296D01*
X117323Y244744D01*
Y252362D01*
X111748Y241686D02*
X112007D01*
X116135Y245815D01*
Y252854D01*
X109780Y243655D02*
X112296D01*
X114948Y246307D01*
Y253346D01*
X113761Y247636D02*
Y253838D01*
X109878Y247690D02*
X109878D01*
X106728Y253596D02*
X106781Y253543D01*
X108429D01*
X117915Y263030D01*
X411811Y242520D02*
Y251969D01*
X117915Y263030D02*
X400750D01*
X411811Y251969D01*
X118407Y261842D02*
X359811D01*
X369685Y242520D02*
Y251969D01*
X359811Y261842D02*
X369685Y251969D01*
X118899Y260655D02*
X318872D01*
X112573Y254329D02*
X118899Y260655D01*
X327559Y242520D02*
Y251969D01*
X318872Y260655D02*
X327559Y251969D01*
X119391Y259468D02*
X277934D01*
X113761Y253838D02*
X119391Y259468D01*
X285433Y242520D02*
Y251969D01*
X277934Y259468D02*
X285433Y251969D01*
X119883Y258280D02*
X236995D01*
X114948Y253346D02*
X119883Y258280D01*
X243307Y242520D02*
Y251969D01*
X236995Y258280D02*
X243307Y251969D01*
X120374Y257093D02*
X196057D01*
X116135Y252854D02*
X120374Y257093D01*
X201181Y242520D02*
Y251969D01*
X196057Y257093D02*
X201181Y251969D01*
X120866Y255906D02*
X155118D01*
X117323Y252362D02*
X120866Y255906D01*
X159055Y242520D02*
Y251969D01*
X155118Y255906D02*
X159055Y251969D01*
D63*
X24016Y185433D02*
D03*
Y209252D02*
D03*
D64*
X3937Y151024D02*
D03*
Y192520D02*
D03*
D65*
X485827Y180866D02*
D03*
Y200866D02*
D03*
Y220866D02*
D03*
Y240866D02*
D03*
Y260866D02*
D03*
X485827Y50709D02*
D03*
X485827Y70709D02*
D03*
Y90709D02*
D03*
Y110709D02*
D03*
X485827Y130709D02*
D03*
X3937Y181024D02*
D03*
Y222520D02*
D03*
D66*
X457087Y262205D02*
D03*
Y210236D02*
D03*
Y158268D02*
D03*
Y106299D02*
D03*
Y54331D02*
D03*
D67*
X43701Y46850D02*
D03*
X33858Y113779D02*
D03*
X14173Y88779D02*
D03*
X18898D02*
D03*
X23425D02*
D03*
X28346D02*
D03*
X32874D02*
D03*
X38386D02*
D03*
X45472D02*
D03*
X38189Y215945D02*
D03*
X46654D02*
D03*
X46850Y226378D02*
D03*
X12205D02*
D03*
X23228D02*
D03*
X30315D02*
D03*
X38780D02*
D03*
X49409Y254724D02*
D03*
Y249606D02*
D03*
X49606Y197441D02*
D03*
Y46654D02*
D03*
Y145669D02*
D03*
X49409Y98819D02*
D03*
X62917Y187640D02*
D03*
X99016Y178150D02*
D03*
X20669Y247835D02*
D03*
X22047Y143307D02*
D03*
X29724Y140945D02*
D03*
X34252Y106496D02*
D03*
X25787Y247835D02*
D03*
X25984Y68898D02*
D03*
X12992Y134449D02*
D03*
X39370Y103150D02*
D03*
X30709Y247835D02*
D03*
Y68898D02*
D03*
X35827Y248031D02*
D03*
X35827Y68898D02*
D03*
X40748D02*
D03*
Y248031D02*
D03*
X21138Y133206D02*
D03*
X15748Y247441D02*
D03*
X16929Y75984D02*
D03*
X21063D02*
D03*
X12992Y46850D02*
D03*
X44291Y239764D02*
D03*
X12205D02*
D03*
X47047Y123425D02*
D03*
Y128740D02*
D03*
X10591D02*
D03*
X19882Y154134D02*
D03*
X18307Y158268D02*
D03*
X22047Y179331D02*
D03*
X63189Y135630D02*
D03*
Y239764D02*
D03*
X54134Y51968D02*
D03*
X51968Y54331D02*
D03*
X54134Y103937D02*
D03*
X51968Y106299D02*
D03*
X54134Y259842D02*
D03*
X51968Y262205D02*
D03*
X54134Y207874D02*
D03*
X51968Y210236D02*
D03*
Y158268D02*
D03*
X54134Y155905D02*
D03*
X63189Y31496D02*
D03*
X62992Y83465D02*
D03*
X59449Y61811D02*
D03*
X59423Y269630D02*
D03*
X59449Y217717D02*
D03*
X60184Y113828D02*
D03*
X59842Y165748D02*
D03*
X96457Y232677D02*
D03*
X457087Y254724D02*
D03*
X457480Y238976D02*
D03*
X457087Y218110D02*
D03*
Y46850D02*
D03*
X456693Y150787D02*
D03*
X457087Y115354D02*
D03*
X498819Y148425D02*
D03*
Y160236D02*
D03*
X485039Y148425D02*
D03*
X479134Y159843D02*
D03*
X452362Y280315D02*
D03*
X446063D02*
D03*
X436614D02*
D03*
X417717D02*
D03*
X427165D02*
D03*
X379921D02*
D03*
X370472D02*
D03*
X389370D02*
D03*
X398819D02*
D03*
X408268D02*
D03*
X313779D02*
D03*
X304331D02*
D03*
X285433D02*
D03*
X294882D02*
D03*
X342126D02*
D03*
X332677D02*
D03*
X323228D02*
D03*
X351575D02*
D03*
X361024D02*
D03*
X228740D02*
D03*
X219291D02*
D03*
X190945D02*
D03*
X200394D02*
D03*
X209842D02*
D03*
X247638D02*
D03*
X238189D02*
D03*
X257087D02*
D03*
X266535D02*
D03*
X275984D02*
D03*
X143701D02*
D03*
X134252D02*
D03*
X124803D02*
D03*
X162598D02*
D03*
X153150D02*
D03*
X172047D02*
D03*
X181496D02*
D03*
X452362Y21260D02*
D03*
X446063D02*
D03*
X436614D02*
D03*
X417717D02*
D03*
X427165D02*
D03*
X379921D02*
D03*
X370472D02*
D03*
X389370D02*
D03*
X398819D02*
D03*
X408268D02*
D03*
X313779D02*
D03*
X304331D02*
D03*
X285433D02*
D03*
X294882D02*
D03*
X342126D02*
D03*
X332677D02*
D03*
X323228D02*
D03*
X351575D02*
D03*
X361024D02*
D03*
X228740D02*
D03*
X219291D02*
D03*
X190945D02*
D03*
X200394D02*
D03*
X209842D02*
D03*
X247638D02*
D03*
X238189D02*
D03*
X257087D02*
D03*
X266535D02*
D03*
X275984D02*
D03*
X143701D02*
D03*
X134252D02*
D03*
X124803D02*
D03*
X162598D02*
D03*
X153150D02*
D03*
X172047D02*
D03*
X181496D02*
D03*
X452362Y72835D02*
D03*
X446063D02*
D03*
X436614D02*
D03*
X417717D02*
D03*
X427165D02*
D03*
X379921D02*
D03*
X370472D02*
D03*
X389370D02*
D03*
X398819D02*
D03*
X408268D02*
D03*
X313779D02*
D03*
X304331D02*
D03*
X285433D02*
D03*
X294882D02*
D03*
X342126D02*
D03*
X332677D02*
D03*
X323228D02*
D03*
X351575D02*
D03*
X361024D02*
D03*
X228740D02*
D03*
X219291D02*
D03*
X190945D02*
D03*
X200394D02*
D03*
X209842D02*
D03*
X247638D02*
D03*
X238189D02*
D03*
X257087D02*
D03*
X266535D02*
D03*
X275984D02*
D03*
X143701D02*
D03*
X134252D02*
D03*
X124803D02*
D03*
X162598D02*
D03*
X153150D02*
D03*
X172047D02*
D03*
X181496D02*
D03*
X452362Y124803D02*
D03*
X446063D02*
D03*
X436614D02*
D03*
X417717D02*
D03*
X427165D02*
D03*
X379921D02*
D03*
X370472D02*
D03*
X389370D02*
D03*
X398819D02*
D03*
X408268D02*
D03*
X313779D02*
D03*
X304331D02*
D03*
X285433D02*
D03*
X294882D02*
D03*
X342126D02*
D03*
X332677D02*
D03*
X323228D02*
D03*
X351575D02*
D03*
X361024D02*
D03*
X228740D02*
D03*
X219291D02*
D03*
X190945D02*
D03*
X200394D02*
D03*
X209842D02*
D03*
X247638D02*
D03*
X238189D02*
D03*
X257087D02*
D03*
X266535D02*
D03*
X275984D02*
D03*
X143701D02*
D03*
X134252D02*
D03*
X124803D02*
D03*
X162598D02*
D03*
X153150D02*
D03*
X172047D02*
D03*
X181496D02*
D03*
X436614Y176772D02*
D03*
X417717D02*
D03*
X427165D02*
D03*
X379921D02*
D03*
X370472D02*
D03*
X389370D02*
D03*
X398819D02*
D03*
X408268D02*
D03*
X313779D02*
D03*
X304331D02*
D03*
X285433D02*
D03*
X294882D02*
D03*
X342126D02*
D03*
X332677D02*
D03*
X323228D02*
D03*
X351575D02*
D03*
X361024D02*
D03*
X228740D02*
D03*
X219291D02*
D03*
X190945D02*
D03*
X200394D02*
D03*
X209842D02*
D03*
X247638D02*
D03*
X238189D02*
D03*
X257087D02*
D03*
X266535D02*
D03*
X275984D02*
D03*
X143701D02*
D03*
X134252D02*
D03*
X124803D02*
D03*
X162598D02*
D03*
X153150D02*
D03*
X172047D02*
D03*
X181496D02*
D03*
Y228740D02*
D03*
X172047D02*
D03*
X153150D02*
D03*
X162598D02*
D03*
X124803D02*
D03*
X134252D02*
D03*
X143701D02*
D03*
X275984D02*
D03*
X266535D02*
D03*
X257087D02*
D03*
X238189D02*
D03*
X247638D02*
D03*
X209842D02*
D03*
X200394D02*
D03*
X190945D02*
D03*
X219291D02*
D03*
X228740D02*
D03*
X361024D02*
D03*
X351575D02*
D03*
X323228D02*
D03*
X332677D02*
D03*
X342126D02*
D03*
X294882D02*
D03*
X285433D02*
D03*
X304331D02*
D03*
X313779D02*
D03*
X408268D02*
D03*
X398819D02*
D03*
X389370D02*
D03*
X370472D02*
D03*
X379921D02*
D03*
X427165D02*
D03*
X417717D02*
D03*
X436614D02*
D03*
X446063D02*
D03*
X452362D02*
D03*
X422441Y209842D02*
D03*
X422047Y158268D02*
D03*
X422047Y106299D02*
D03*
Y54331D02*
D03*
X422638Y261614D02*
D03*
X99213Y256693D02*
D03*
Y204724D02*
D03*
X98634Y152116D02*
D03*
X98920Y126301D02*
D03*
X98819Y100787D02*
D03*
X99091Y22142D02*
D03*
X99045Y48683D02*
D03*
X99055Y74173D02*
D03*
X106693Y45669D02*
D03*
X421654Y266535D02*
D03*
Y242913D02*
D03*
X389764Y266535D02*
D03*
Y242913D02*
D03*
X365748Y266535D02*
D03*
X356693D02*
D03*
Y242913D02*
D03*
X365748D02*
D03*
X348031Y266535D02*
D03*
Y242913D02*
D03*
X253150Y266535D02*
D03*
Y242913D02*
D03*
X197244Y266535D02*
D03*
X221654D02*
D03*
X197244Y242913D02*
D03*
X221654D02*
D03*
X188189Y266535D02*
D03*
Y242913D02*
D03*
X440945Y266535D02*
D03*
Y242913D02*
D03*
X432283Y266535D02*
D03*
Y242913D02*
D03*
X407874Y266535D02*
D03*
Y242913D02*
D03*
X398819Y266535D02*
D03*
Y242913D02*
D03*
X379528Y266535D02*
D03*
Y242913D02*
D03*
X337402Y266535D02*
D03*
Y242913D02*
D03*
X323622Y266535D02*
D03*
Y242913D02*
D03*
X314567Y266535D02*
D03*
Y242913D02*
D03*
X305906Y266535D02*
D03*
Y242913D02*
D03*
X295276Y266535D02*
D03*
Y242913D02*
D03*
X281496Y266535D02*
D03*
Y242913D02*
D03*
X272441Y266535D02*
D03*
Y242913D02*
D03*
X263779Y266535D02*
D03*
Y242913D02*
D03*
X239370Y266535D02*
D03*
Y242913D02*
D03*
X230315Y266535D02*
D03*
Y242913D02*
D03*
X211024Y266535D02*
D03*
Y242913D02*
D03*
X179528Y266535D02*
D03*
Y242913D02*
D03*
X168898Y266535D02*
D03*
Y242913D02*
D03*
X155118Y266535D02*
D03*
Y242913D02*
D03*
X146063Y266535D02*
D03*
Y242913D02*
D03*
X137402Y266535D02*
D03*
Y242913D02*
D03*
X421654Y214567D02*
D03*
Y190945D02*
D03*
X389764Y214567D02*
D03*
Y190945D02*
D03*
X365748Y214567D02*
D03*
X356693D02*
D03*
Y190945D02*
D03*
X365748D02*
D03*
X348031Y214567D02*
D03*
Y190945D02*
D03*
X253150Y214567D02*
D03*
Y190945D02*
D03*
X197244Y214567D02*
D03*
X221654D02*
D03*
X197244Y190945D02*
D03*
X221654D02*
D03*
X188189Y214567D02*
D03*
Y190945D02*
D03*
X440945Y214567D02*
D03*
Y190945D02*
D03*
X432283Y214567D02*
D03*
Y190945D02*
D03*
X407874Y214567D02*
D03*
Y190945D02*
D03*
X398819Y214567D02*
D03*
Y190945D02*
D03*
X379528Y214567D02*
D03*
Y190945D02*
D03*
X337402Y214567D02*
D03*
Y190945D02*
D03*
X323622Y214567D02*
D03*
Y190945D02*
D03*
X314567Y214567D02*
D03*
Y190945D02*
D03*
X305906Y214567D02*
D03*
Y190945D02*
D03*
X295276Y214567D02*
D03*
Y190945D02*
D03*
X281496Y214567D02*
D03*
Y190945D02*
D03*
X272441Y214567D02*
D03*
Y190945D02*
D03*
X263779Y214567D02*
D03*
Y190945D02*
D03*
X239370Y214567D02*
D03*
Y190945D02*
D03*
X230315Y214567D02*
D03*
Y190945D02*
D03*
X211024Y214567D02*
D03*
Y190945D02*
D03*
X179528Y214567D02*
D03*
Y190945D02*
D03*
X168898Y214567D02*
D03*
Y190945D02*
D03*
X155118Y214567D02*
D03*
Y190945D02*
D03*
X146063Y214567D02*
D03*
Y190945D02*
D03*
X137402Y214567D02*
D03*
Y190945D02*
D03*
X421654Y162598D02*
D03*
Y138976D02*
D03*
X389764Y162598D02*
D03*
Y138976D02*
D03*
X365748Y162598D02*
D03*
X356693D02*
D03*
Y138976D02*
D03*
X365748D02*
D03*
X348031Y162598D02*
D03*
Y138976D02*
D03*
X253150Y162598D02*
D03*
Y138976D02*
D03*
X197244Y162598D02*
D03*
X221654D02*
D03*
X197244Y138976D02*
D03*
X221654D02*
D03*
X188189Y162598D02*
D03*
Y138976D02*
D03*
X440945Y162598D02*
D03*
Y138976D02*
D03*
X432283Y162598D02*
D03*
Y138976D02*
D03*
X407874Y162598D02*
D03*
Y138976D02*
D03*
X398819Y162598D02*
D03*
Y138976D02*
D03*
X379528Y162598D02*
D03*
Y138976D02*
D03*
X337402Y162598D02*
D03*
Y138976D02*
D03*
X323622Y162598D02*
D03*
Y138976D02*
D03*
X314567Y162598D02*
D03*
Y138976D02*
D03*
X305906Y162598D02*
D03*
Y138976D02*
D03*
X295276Y162598D02*
D03*
Y138976D02*
D03*
X281496Y162598D02*
D03*
Y138976D02*
D03*
X272441Y162598D02*
D03*
Y138976D02*
D03*
X263779Y162598D02*
D03*
Y138976D02*
D03*
X239370Y162598D02*
D03*
Y138976D02*
D03*
X230315Y162598D02*
D03*
Y138976D02*
D03*
X211024Y162598D02*
D03*
Y138976D02*
D03*
X179528Y162598D02*
D03*
Y138976D02*
D03*
X168898Y162598D02*
D03*
Y138976D02*
D03*
X155118Y162598D02*
D03*
Y138976D02*
D03*
X146063Y162598D02*
D03*
Y138976D02*
D03*
X137402Y162598D02*
D03*
Y138976D02*
D03*
X421654Y110630D02*
D03*
Y87008D02*
D03*
X389764Y110630D02*
D03*
Y87008D02*
D03*
X365748Y110630D02*
D03*
X356693D02*
D03*
Y87008D02*
D03*
X365748D02*
D03*
X348031Y110630D02*
D03*
Y87008D02*
D03*
X253150Y110630D02*
D03*
Y87008D02*
D03*
X197244Y110630D02*
D03*
X221654D02*
D03*
X197244Y87008D02*
D03*
X221654D02*
D03*
X188189Y110630D02*
D03*
Y87008D02*
D03*
X440945Y110630D02*
D03*
Y87008D02*
D03*
X432283Y110630D02*
D03*
Y87008D02*
D03*
X407874Y110630D02*
D03*
Y87008D02*
D03*
X398819Y110630D02*
D03*
Y87008D02*
D03*
X379528Y110630D02*
D03*
Y87008D02*
D03*
X337402Y110630D02*
D03*
Y87008D02*
D03*
X323622Y110630D02*
D03*
Y87008D02*
D03*
X314567Y110630D02*
D03*
Y87008D02*
D03*
X305906Y110630D02*
D03*
Y87008D02*
D03*
X295276Y110630D02*
D03*
Y87008D02*
D03*
X281496Y110630D02*
D03*
Y87008D02*
D03*
X272441Y110630D02*
D03*
Y87008D02*
D03*
X263779Y110630D02*
D03*
Y87008D02*
D03*
X239370Y110630D02*
D03*
Y87008D02*
D03*
X230315Y110630D02*
D03*
Y87008D02*
D03*
X211024Y110630D02*
D03*
Y87008D02*
D03*
X179528Y110630D02*
D03*
Y87008D02*
D03*
X168898Y110630D02*
D03*
Y87008D02*
D03*
X155118Y110630D02*
D03*
Y87008D02*
D03*
X146063Y110630D02*
D03*
Y87008D02*
D03*
X137402Y110630D02*
D03*
Y87008D02*
D03*
Y35039D02*
D03*
X146063D02*
D03*
X168898D02*
D03*
X179528D02*
D03*
X197244D02*
D03*
X211024D02*
D03*
X230315D02*
D03*
X239370D02*
D03*
X263779D02*
D03*
X272441D02*
D03*
X281496D02*
D03*
X155118D02*
D03*
X188189D02*
D03*
X221654D02*
D03*
X253150D02*
D03*
X295276D02*
D03*
X305906D02*
D03*
X314567D02*
D03*
X323622D02*
D03*
X337402D02*
D03*
X348031D02*
D03*
X356693D02*
D03*
X365748D02*
D03*
X379528D02*
D03*
X389764D02*
D03*
X398819D02*
D03*
X407874D02*
D03*
X421654D02*
D03*
X432283D02*
D03*
X440945D02*
D03*
Y58661D02*
D03*
X432283D02*
D03*
X421654D02*
D03*
X407874D02*
D03*
X398819D02*
D03*
X389764D02*
D03*
X379528D02*
D03*
X365748D02*
D03*
X356693D02*
D03*
X348031D02*
D03*
X337402D02*
D03*
X323622D02*
D03*
X314567D02*
D03*
X305906D02*
D03*
X295276D02*
D03*
X129528D02*
D03*
X159055Y34646D02*
D03*
X109780Y31844D02*
D03*
X201181Y34646D02*
D03*
X111748Y33812D02*
D03*
X243307Y34646D02*
D03*
X109780Y35781D02*
D03*
X285433Y34646D02*
D03*
X111846Y37848D02*
D03*
X327559Y34646D02*
D03*
X109878Y39816D02*
D03*
X369685Y34646D02*
D03*
X106728Y42966D02*
D03*
X411811Y34646D02*
D03*
X146850Y63779D02*
D03*
X129528Y110630D02*
D03*
X159055Y86614D02*
D03*
X109780Y83812D02*
D03*
X201181Y86614D02*
D03*
X111748Y85781D02*
D03*
X243307Y86614D02*
D03*
X109780Y87749D02*
D03*
X285433Y86614D02*
D03*
X111846Y89816D02*
D03*
X327559Y86614D02*
D03*
X109878Y91785D02*
D03*
X369685Y86614D02*
D03*
X106728Y94934D02*
D03*
X411811Y86614D02*
D03*
X106728Y97690D02*
D03*
X146850Y115748D02*
D03*
X129528Y162598D02*
D03*
X159055Y138583D02*
D03*
X109780Y135781D02*
D03*
X201181Y138583D02*
D03*
X111748Y137749D02*
D03*
X243307Y138583D02*
D03*
X109780Y139718D02*
D03*
X285433Y138583D02*
D03*
X111846Y141785D02*
D03*
X327559Y138583D02*
D03*
X109878Y143753D02*
D03*
X369685Y138583D02*
D03*
X106728Y146903D02*
D03*
X411811Y138583D02*
D03*
X106728Y149659D02*
D03*
X146850Y167717D02*
D03*
X129528Y214567D02*
D03*
X159055Y190551D02*
D03*
X109780Y187749D02*
D03*
X201181Y190551D02*
D03*
X111748Y189718D02*
D03*
X243307Y190551D02*
D03*
X109780Y191686D02*
D03*
X285433Y190551D02*
D03*
X111846Y193753D02*
D03*
X327559Y190551D02*
D03*
X109878Y195722D02*
D03*
X369685Y190551D02*
D03*
X106728Y198871D02*
D03*
X411811Y190551D02*
D03*
X106728Y201627D02*
D03*
X146850Y219685D02*
D03*
X253150Y58661D02*
D03*
X221654D02*
D03*
X188189D02*
D03*
X155118D02*
D03*
X281496D02*
D03*
X272441D02*
D03*
X263779D02*
D03*
X239370D02*
D03*
X230315D02*
D03*
X211024D02*
D03*
X197244D02*
D03*
X179528D02*
D03*
X168898D02*
D03*
X146063D02*
D03*
X137402D02*
D03*
X146850Y271654D02*
D03*
X129528Y266535D02*
D03*
X109780Y239718D02*
D03*
X111748Y241686D02*
D03*
X109780Y243655D02*
D03*
X106728Y253596D02*
D03*
X411811Y242520D02*
D03*
X106728Y250840D02*
D03*
X369685Y242520D02*
D03*
X109878Y247690D02*
D03*
X327559Y242520D02*
D03*
X111846Y245722D02*
D03*
X285433Y242520D02*
D03*
X243307D02*
D03*
X201181D02*
D03*
X159055D02*
D03*
D68*
X31102Y122835D02*
D03*
X26378D02*
D03*
X31102Y127559D02*
D03*
X26378D02*
D03*
D71*
X97441Y64665D02*
D03*
X101772D02*
D03*
X97441Y60335D02*
D03*
X101772D02*
D03*
X64173Y94488D02*
D03*
Y98819D02*
D03*
Y103150D02*
D03*
X68504Y94488D02*
D03*
Y98819D02*
D03*
Y103150D02*
D03*
X72835Y94488D02*
D03*
X72835Y98819D02*
D03*
X72835Y103150D02*
D03*
X97441Y116643D02*
D03*
X101772D02*
D03*
X97441Y112312D02*
D03*
X101772D02*
D03*
X97441Y168576D02*
D03*
X101772D02*
D03*
X97441Y164245D02*
D03*
X101772D02*
D03*
X64173Y198425D02*
D03*
Y202756D02*
D03*
Y207087D02*
D03*
X68504Y198425D02*
D03*
Y202756D02*
D03*
Y207087D02*
D03*
X72835Y198425D02*
D03*
Y202756D02*
D03*
Y207087D02*
D03*
X97441Y220551D02*
D03*
X101772D02*
D03*
X97441Y216220D02*
D03*
X101772D02*
D03*
X97441Y272478D02*
D03*
X101772D02*
D03*
X97441Y268147D02*
D03*
X101772D02*
D03*
X64173Y250394D02*
D03*
X64173Y254724D02*
D03*
X64173Y259055D02*
D03*
X68504Y250394D02*
D03*
Y254724D02*
D03*
Y259055D02*
D03*
X72835Y250394D02*
D03*
X72835Y254724D02*
D03*
X72835Y259055D02*
D03*
X97476Y245820D02*
D03*
X101807D02*
D03*
X97476Y241489D02*
D03*
X101807D02*
D03*
X97476Y193851D02*
D03*
X101807D02*
D03*
X97476Y189521D02*
D03*
X101807D02*
D03*
X64173Y146457D02*
D03*
X64173Y150787D02*
D03*
X64173Y155118D02*
D03*
X68504Y146457D02*
D03*
Y150787D02*
D03*
Y155118D02*
D03*
X72835Y146457D02*
D03*
X72835Y150787D02*
D03*
X72835Y155118D02*
D03*
X97476Y141883D02*
D03*
X101807Y141883D02*
D03*
X97476Y137552D02*
D03*
X101807Y137552D02*
D03*
X97476Y89915D02*
D03*
X101807D02*
D03*
X97476Y85584D02*
D03*
X101807D02*
D03*
X64173Y42520D02*
D03*
Y46850D02*
D03*
Y51181D02*
D03*
X68504Y42520D02*
D03*
Y46850D02*
D03*
Y51181D02*
D03*
X72835Y42520D02*
D03*
X72835Y46850D02*
D03*
X72835Y51181D02*
D03*
X97441Y37992D02*
D03*
X101772D02*
D03*
X97441Y33661D02*
D03*
X101772Y33661D02*
D03*
M02*
