M48
;Layer_Color=9474304
;FILE_FORMAT=2:5
INCH,LZ
;TYPE=PLATED
T1F00S00C0.00787
T2F00S00C0.02756
T3F00S00C0.03543
T4F00S00C0.11811
%
T01
X0334646Y0112598
Y0129528
X0354724Y015
X0355512Y0154724
X0367717Y0154331
X0378346Y0154724
X0377559Y015
X0390551Y0154331
X0397244Y0135827
X0401968Y0134252
X0405118Y0136614
X0408661Y0137008
X0411417Y0130315
X0400394Y0129921
Y0125197
X0405512Y0107087
X0411417Y0110236
X0416535
X0431496Y0130315
X0462992Y0154724
X0477165Y0156693
Y0168504
X0392404Y0170474
X0390773Y0164268
Y0160093
X0386422Y0173198
X0379921Y0172835
X0374016Y0170472
X0377933Y0165905
X0367929Y0164251
X0367961Y0160237
X0367323Y0172835
X0363779
X0357087
X0353858Y0172756
X0357087Y0176772
X0360438Y0179385
X0361024Y0197638
X0357874
X0354724Y0200394
X0354331Y0205512
X0368898Y0205118
X037126Y0207087
X0372441Y0212205
X0370472Y0214173
X0376378Y0214961
Y0205118
X037441Y020315
X0379134Y0203937
X0382677Y0200787
X038937Y0201575
X0393307Y0198425
Y0211024
X038937Y0212992
X0397376Y0209116
X0363386Y0212992
X0361811Y0217323
X0365748
X0370079Y0196063
Y0192913
X0376378Y0190551
X0383148Y0178663
T02
X0314567Y0118898
Y0123898
X0319567
X0319567Y0118898
X0324567
Y0123898
X0329567Y0123898
X0334567
Y0118898
X0339567
Y0123898
X0329567Y0118898
X0411614Y0118898
X0411614Y0123898
X0416614Y0123898
X0421614
Y0118898
X0416614
X0426614Y0118898
X0431614
Y0123898
X0436614Y0123898
X0436614Y0118898
X0426614Y0123898
T03
X0274252Y0135827
Y0145827
Y0155827
X0284252
Y0145827
Y0135827
X0312126Y0143307
X0322126
X0332126
X0342126
X0365591Y012126
X037559Y0122047
X0385591Y012126
X0404016Y0143307
X0414016
X0424016
X0434016
X0444016
X0472047Y0146063
Y0136063
Y0180315
Y0190315
X0384409Y0229528
X037441Y0230709
X0364409Y0229528
X0340945Y0185984
Y0175984
Y0165984
X032559
Y0175984
Y0185984
X0284252Y0185827
Y0195827
Y0205827
Y0215827
Y0225827
Y0235827
Y0245827
Y0255827
Y0265827
Y0275827
Y0285827
Y0295827
Y0305827
X0274252
Y0295827
Y0285827
Y0275827
Y0265827
Y0255827
Y0245827
Y0235827
Y0225827
Y0215827
Y0205827
Y0195827
Y0185827
Y0175827
X0284252
Y0165827
X0274252
Y0315827
Y0325827
X0284252
Y0315827
T04
X0279134Y0116535
X0472047
X0279134Y0344882
X0472047
M30
