G04*
G04 #@! TF.GenerationSoftware,Altium Limited,Altium Designer,20.0.9 (164)*
G04*
G04 Layer_Color=8421504*
%FSLAX25Y25*%
%MOIN*%
G70*
G01*
G75*
%ADD15O,0.02953X0.00787*%
%ADD16O,0.00787X0.02953*%
%ADD17R,0.09843X0.09843*%
%ADD18R,0.03150X0.05118*%
%ADD19R,0.02500X0.02500*%
%ADD20R,0.02756X0.06693*%
%ADD21O,0.03347X0.00984*%
%ADD22O,0.00984X0.03347*%
%ADD23R,0.09055X0.09055*%
G04:AMPARAMS|DCode=24|XSize=20.47mil|YSize=22.05mil|CornerRadius=5.12mil|HoleSize=0mil|Usage=FLASHONLY|Rotation=180.000|XOffset=0mil|YOffset=0mil|HoleType=Round|Shape=RoundedRectangle|*
%AMROUNDEDRECTD24*
21,1,0.02047,0.01181,0,0,180.0*
21,1,0.01024,0.02205,0,0,180.0*
1,1,0.01024,-0.00512,0.00591*
1,1,0.01024,0.00512,0.00591*
1,1,0.01024,0.00512,-0.00591*
1,1,0.01024,-0.00512,-0.00591*
%
%ADD24ROUNDEDRECTD24*%
%ADD25R,0.15472X0.15472*%
%ADD26O,0.03937X0.01181*%
%ADD27O,0.01181X0.03937*%
G04:AMPARAMS|DCode=28|XSize=20.47mil|YSize=22.05mil|CornerRadius=5.12mil|HoleSize=0mil|Usage=FLASHONLY|Rotation=90.000|XOffset=0mil|YOffset=0mil|HoleType=Round|Shape=RoundedRectangle|*
%AMROUNDEDRECTD28*
21,1,0.02047,0.01181,0,0,90.0*
21,1,0.01024,0.02205,0,0,90.0*
1,1,0.01024,0.00591,0.00512*
1,1,0.01024,0.00591,-0.00512*
1,1,0.01024,-0.00591,-0.00512*
1,1,0.01024,-0.00591,0.00512*
%
%ADD28ROUNDEDRECTD28*%
%ADD29R,0.02992X0.09449*%
%ADD30R,0.02165X0.03150*%
%ADD31R,0.02835X0.03543*%
%ADD32R,0.02756X0.03347*%
D15*
X38878Y108071D02*
D03*
Y109843D02*
D03*
Y111614D02*
D03*
X38878Y113386D02*
D03*
X38878Y115157D02*
D03*
Y116929D02*
D03*
Y118701D02*
D03*
X22933D02*
D03*
Y116929D02*
D03*
Y115157D02*
D03*
X22933Y113386D02*
D03*
X22933Y111614D02*
D03*
Y109843D02*
D03*
Y108071D02*
D03*
D16*
X36220Y121358D02*
D03*
X34449D02*
D03*
X32677D02*
D03*
X30906Y121358D02*
D03*
X29134Y121358D02*
D03*
X27362D02*
D03*
X25591D02*
D03*
Y105413D02*
D03*
X27362D02*
D03*
X29134D02*
D03*
X30906Y105413D02*
D03*
X32677Y105413D02*
D03*
X34449D02*
D03*
X36220D02*
D03*
D17*
X30906Y113386D02*
D03*
D18*
X145866Y222047D02*
D03*
X152559D02*
D03*
X187992D02*
D03*
X194685D02*
D03*
X230118D02*
D03*
X236811D02*
D03*
X272244D02*
D03*
X278937D02*
D03*
X314370D02*
D03*
X321063D02*
D03*
X356496D02*
D03*
X363189D02*
D03*
X398622D02*
D03*
X405315D02*
D03*
X440748D02*
D03*
X447441D02*
D03*
X135236Y263779D02*
D03*
X141929D02*
D03*
X177362D02*
D03*
X184055D02*
D03*
X219488D02*
D03*
X226181D02*
D03*
X261614D02*
D03*
X268307D02*
D03*
X303740D02*
D03*
X310433D02*
D03*
X345866D02*
D03*
X352559D02*
D03*
X387992D02*
D03*
X394685D02*
D03*
X430118D02*
D03*
X436811D02*
D03*
X145866Y170079D02*
D03*
X152559D02*
D03*
X187992D02*
D03*
X194685D02*
D03*
X230118D02*
D03*
X236811D02*
D03*
X272244D02*
D03*
X278937D02*
D03*
X314370D02*
D03*
X321063D02*
D03*
X356496D02*
D03*
X363189D02*
D03*
X398622D02*
D03*
X405315D02*
D03*
X440748D02*
D03*
X447441D02*
D03*
X135236Y211811D02*
D03*
X141929D02*
D03*
X177362D02*
D03*
X184055D02*
D03*
X219488D02*
D03*
X226181D02*
D03*
X261614D02*
D03*
X268307D02*
D03*
X303740D02*
D03*
X310433D02*
D03*
X345866D02*
D03*
X352559D02*
D03*
X387992D02*
D03*
X394685D02*
D03*
X430118D02*
D03*
X436811D02*
D03*
X145866Y118110D02*
D03*
X152559D02*
D03*
X187992D02*
D03*
X194685D02*
D03*
X230118D02*
D03*
X236811D02*
D03*
X272244D02*
D03*
X278937D02*
D03*
X314370D02*
D03*
X321063D02*
D03*
X356496D02*
D03*
X363189D02*
D03*
X398622D02*
D03*
X405315D02*
D03*
X440748D02*
D03*
X447441D02*
D03*
X135236Y159843D02*
D03*
X141929D02*
D03*
X177362D02*
D03*
X184055D02*
D03*
X219488D02*
D03*
X226181D02*
D03*
X261614D02*
D03*
X268307D02*
D03*
X303740D02*
D03*
X310433D02*
D03*
X345866D02*
D03*
X352559D02*
D03*
X387992D02*
D03*
X394685D02*
D03*
X430118D02*
D03*
X436811D02*
D03*
X145866Y66142D02*
D03*
X152559D02*
D03*
X187992D02*
D03*
X194685D02*
D03*
X230118D02*
D03*
X236811D02*
D03*
X272244D02*
D03*
X278937D02*
D03*
X314370D02*
D03*
X321063D02*
D03*
X356496D02*
D03*
X363189D02*
D03*
X398622D02*
D03*
X405315D02*
D03*
X440748D02*
D03*
X447441D02*
D03*
X135236Y107874D02*
D03*
X141929D02*
D03*
X177362D02*
D03*
X184055D02*
D03*
X219488D02*
D03*
X226181D02*
D03*
X261614D02*
D03*
X268307D02*
D03*
X303740D02*
D03*
X310433D02*
D03*
X345866D02*
D03*
X352559D02*
D03*
X387992D02*
D03*
X394685D02*
D03*
X430118D02*
D03*
X436811D02*
D03*
X145866Y14173D02*
D03*
X152559D02*
D03*
X187992D02*
D03*
X194685D02*
D03*
X230118D02*
D03*
X236811D02*
D03*
X272244D02*
D03*
X278937D02*
D03*
X314370D02*
D03*
X321063D02*
D03*
X356496D02*
D03*
X363189D02*
D03*
X398622D02*
D03*
X405315D02*
D03*
X440748D02*
D03*
X447441D02*
D03*
X135236Y55905D02*
D03*
X141929D02*
D03*
X177362D02*
D03*
X184055D02*
D03*
X219488D02*
D03*
X226181D02*
D03*
X261614D02*
D03*
X268307D02*
D03*
X303740D02*
D03*
X310433D02*
D03*
X345866D02*
D03*
X352559D02*
D03*
X387992D02*
D03*
X394685D02*
D03*
X430118D02*
D03*
X436811D02*
D03*
D19*
X137236Y222047D02*
D03*
X133236D02*
D03*
X137236Y170079D02*
D03*
X133236D02*
D03*
X137236Y118110D02*
D03*
X133236D02*
D03*
X137236Y66142D02*
D03*
X133236D02*
D03*
X137236Y14173D02*
D03*
X133236D02*
D03*
X19260Y60039D02*
D03*
X23260D02*
D03*
D20*
X122638Y230709D02*
D03*
X135236D02*
D03*
X143898D02*
D03*
X152559D02*
D03*
Y255118D02*
D03*
X143898D02*
D03*
X135236D02*
D03*
X122638D02*
D03*
X164764Y230709D02*
D03*
X177362D02*
D03*
X186024D02*
D03*
X194685D02*
D03*
Y255118D02*
D03*
X186024D02*
D03*
X177362D02*
D03*
X164764D02*
D03*
X206890Y230709D02*
D03*
X219488D02*
D03*
X228150D02*
D03*
X236811D02*
D03*
Y255118D02*
D03*
X228150D02*
D03*
X219488D02*
D03*
X206890D02*
D03*
X249016Y230709D02*
D03*
X261614D02*
D03*
X270276D02*
D03*
X278937D02*
D03*
Y255118D02*
D03*
X270276D02*
D03*
X261614D02*
D03*
X249016D02*
D03*
X291142Y230709D02*
D03*
X303740D02*
D03*
X312402D02*
D03*
X321063D02*
D03*
Y255118D02*
D03*
X312402D02*
D03*
X303740D02*
D03*
X291142D02*
D03*
X333268Y230709D02*
D03*
X345866D02*
D03*
X354528D02*
D03*
X363189D02*
D03*
Y255118D02*
D03*
X354528D02*
D03*
X345866D02*
D03*
X333268D02*
D03*
X375394Y230709D02*
D03*
X387992D02*
D03*
X396654D02*
D03*
X405315D02*
D03*
Y255118D02*
D03*
X396654D02*
D03*
X387992D02*
D03*
X375394D02*
D03*
X417520Y230709D02*
D03*
X430118D02*
D03*
X438779D02*
D03*
X447441D02*
D03*
Y255118D02*
D03*
X438779D02*
D03*
X430118D02*
D03*
X417520D02*
D03*
X122638Y178740D02*
D03*
X135236D02*
D03*
X143898D02*
D03*
X152559D02*
D03*
Y203150D02*
D03*
X143898D02*
D03*
X135236D02*
D03*
X122638D02*
D03*
X164764Y178740D02*
D03*
X177362D02*
D03*
X186024D02*
D03*
X194685D02*
D03*
Y203150D02*
D03*
X186024D02*
D03*
X177362D02*
D03*
X164764D02*
D03*
X206890Y178740D02*
D03*
X219488D02*
D03*
X228150D02*
D03*
X236811D02*
D03*
Y203150D02*
D03*
X228150D02*
D03*
X219488D02*
D03*
X206890D02*
D03*
X249016Y178740D02*
D03*
X261614D02*
D03*
X270276D02*
D03*
X278937D02*
D03*
Y203150D02*
D03*
X270276D02*
D03*
X261614D02*
D03*
X249016D02*
D03*
X291142Y178740D02*
D03*
X303740D02*
D03*
X312402D02*
D03*
X321063D02*
D03*
Y203150D02*
D03*
X312402D02*
D03*
X303740D02*
D03*
X291142D02*
D03*
X333268Y178740D02*
D03*
X345866D02*
D03*
X354528D02*
D03*
X363189D02*
D03*
Y203150D02*
D03*
X354528D02*
D03*
X345866D02*
D03*
X333268D02*
D03*
X375394Y178740D02*
D03*
X387992D02*
D03*
X396654D02*
D03*
X405315D02*
D03*
Y203150D02*
D03*
X396654D02*
D03*
X387992D02*
D03*
X375394D02*
D03*
X417520Y178740D02*
D03*
X430118D02*
D03*
X438779D02*
D03*
X447441D02*
D03*
Y203150D02*
D03*
X438779D02*
D03*
X430118D02*
D03*
X417520D02*
D03*
X122638Y126772D02*
D03*
X135236D02*
D03*
X143898D02*
D03*
X152559D02*
D03*
Y151181D02*
D03*
X143898D02*
D03*
X135236D02*
D03*
X122638D02*
D03*
X164764Y126772D02*
D03*
X177362D02*
D03*
X186024D02*
D03*
X194685D02*
D03*
Y151181D02*
D03*
X186024D02*
D03*
X177362D02*
D03*
X164764D02*
D03*
X206890Y126772D02*
D03*
X219488D02*
D03*
X228150D02*
D03*
X236811D02*
D03*
Y151181D02*
D03*
X228150D02*
D03*
X219488D02*
D03*
X206890D02*
D03*
X249016Y126772D02*
D03*
X261614D02*
D03*
X270276D02*
D03*
X278937D02*
D03*
Y151181D02*
D03*
X270276D02*
D03*
X261614D02*
D03*
X249016D02*
D03*
X291142Y126772D02*
D03*
X303740D02*
D03*
X312402D02*
D03*
X321063D02*
D03*
Y151181D02*
D03*
X312402D02*
D03*
X303740D02*
D03*
X291142D02*
D03*
X333268Y126772D02*
D03*
X345866D02*
D03*
X354528D02*
D03*
X363189D02*
D03*
Y151181D02*
D03*
X354528D02*
D03*
X345866D02*
D03*
X333268D02*
D03*
X375394Y126772D02*
D03*
X387992D02*
D03*
X396654D02*
D03*
X405315D02*
D03*
Y151181D02*
D03*
X396654D02*
D03*
X387992D02*
D03*
X375394D02*
D03*
X417520Y126772D02*
D03*
X430118D02*
D03*
X438779D02*
D03*
X447441D02*
D03*
Y151181D02*
D03*
X438779D02*
D03*
X430118D02*
D03*
X417520D02*
D03*
X122638Y74803D02*
D03*
X135236D02*
D03*
X143898D02*
D03*
X152559D02*
D03*
Y99213D02*
D03*
X143898D02*
D03*
X135236D02*
D03*
X122638D02*
D03*
X164764Y74803D02*
D03*
X177362D02*
D03*
X186024D02*
D03*
X194685D02*
D03*
Y99213D02*
D03*
X186024D02*
D03*
X177362D02*
D03*
X164764D02*
D03*
X206890Y74803D02*
D03*
X219488D02*
D03*
X228150D02*
D03*
X236811D02*
D03*
Y99213D02*
D03*
X228150D02*
D03*
X219488D02*
D03*
X206890D02*
D03*
X249016Y74803D02*
D03*
X261614D02*
D03*
X270276D02*
D03*
X278937D02*
D03*
Y99213D02*
D03*
X270276D02*
D03*
X261614D02*
D03*
X249016D02*
D03*
X291142Y74803D02*
D03*
X303740D02*
D03*
X312402D02*
D03*
X321063D02*
D03*
Y99213D02*
D03*
X312402D02*
D03*
X303740D02*
D03*
X291142D02*
D03*
X333268Y74803D02*
D03*
X345866D02*
D03*
X354528D02*
D03*
X363189D02*
D03*
Y99213D02*
D03*
X354528D02*
D03*
X345866D02*
D03*
X333268D02*
D03*
X375394Y74803D02*
D03*
X387992D02*
D03*
X396654D02*
D03*
X405315D02*
D03*
Y99213D02*
D03*
X396654D02*
D03*
X387992D02*
D03*
X375394D02*
D03*
X417520Y74803D02*
D03*
X430118D02*
D03*
X438779D02*
D03*
X447441D02*
D03*
Y99213D02*
D03*
X438779D02*
D03*
X430118D02*
D03*
X417520D02*
D03*
X122638Y22835D02*
D03*
X135236D02*
D03*
X143898D02*
D03*
X152559D02*
D03*
Y47244D02*
D03*
X143898D02*
D03*
X135236D02*
D03*
X122638D02*
D03*
X164764Y22835D02*
D03*
X177362D02*
D03*
X186024D02*
D03*
X194685D02*
D03*
Y47244D02*
D03*
X186024D02*
D03*
X177362D02*
D03*
X164764D02*
D03*
X206890Y22835D02*
D03*
X219488D02*
D03*
X228150D02*
D03*
X236811D02*
D03*
Y47244D02*
D03*
X228150D02*
D03*
X219488D02*
D03*
X206890D02*
D03*
X249016Y22835D02*
D03*
X261614D02*
D03*
X270276D02*
D03*
X278937D02*
D03*
Y47244D02*
D03*
X270276D02*
D03*
X261614D02*
D03*
X249016D02*
D03*
X291142Y22835D02*
D03*
X303740D02*
D03*
X312402D02*
D03*
X321063D02*
D03*
Y47244D02*
D03*
X312402D02*
D03*
X303740D02*
D03*
X291142D02*
D03*
X333268Y22835D02*
D03*
X345866D02*
D03*
X354528D02*
D03*
X363189D02*
D03*
Y47244D02*
D03*
X354528D02*
D03*
X345866D02*
D03*
X333268D02*
D03*
X375394Y22835D02*
D03*
X387992D02*
D03*
X396654D02*
D03*
X405315D02*
D03*
Y47244D02*
D03*
X396654D02*
D03*
X387992D02*
D03*
X375394D02*
D03*
X417520Y22835D02*
D03*
X430118D02*
D03*
X438779D02*
D03*
X447441D02*
D03*
Y47244D02*
D03*
X438779D02*
D03*
X430118D02*
D03*
X417520D02*
D03*
D21*
X94587Y54626D02*
D03*
Y52658D02*
D03*
Y50689D02*
D03*
Y48720D02*
D03*
Y46752D02*
D03*
X108957D02*
D03*
Y48720D02*
D03*
Y50689D02*
D03*
Y52658D02*
D03*
Y54626D02*
D03*
X94587Y106604D02*
D03*
Y104635D02*
D03*
Y102667D02*
D03*
Y100698D02*
D03*
Y98730D02*
D03*
X108957D02*
D03*
Y100698D02*
D03*
Y102667D02*
D03*
Y104635D02*
D03*
Y106604D02*
D03*
X94587Y158537D02*
D03*
Y156568D02*
D03*
Y154600D02*
D03*
Y152631D02*
D03*
Y150663D02*
D03*
X108957D02*
D03*
Y152631D02*
D03*
Y154600D02*
D03*
Y156568D02*
D03*
Y158537D02*
D03*
X94587Y210512D02*
D03*
Y208543D02*
D03*
Y206575D02*
D03*
Y204606D02*
D03*
Y202638D02*
D03*
X108957D02*
D03*
Y204606D02*
D03*
Y206575D02*
D03*
Y208543D02*
D03*
Y210512D02*
D03*
X94587Y262439D02*
D03*
Y260470D02*
D03*
Y258502D02*
D03*
Y256533D02*
D03*
Y254565D02*
D03*
X108957D02*
D03*
Y256533D02*
D03*
Y258502D02*
D03*
Y260470D02*
D03*
Y262439D02*
D03*
X94622Y235781D02*
D03*
Y233812D02*
D03*
Y231844D02*
D03*
Y229875D02*
D03*
Y227907D02*
D03*
X108992D02*
D03*
Y229875D02*
D03*
Y231844D02*
D03*
Y233812D02*
D03*
Y235781D02*
D03*
X94622Y183812D02*
D03*
Y181844D02*
D03*
Y179875D02*
D03*
Y177907D02*
D03*
Y175938D02*
D03*
X108992D02*
D03*
Y177907D02*
D03*
Y179875D02*
D03*
Y181844D02*
D03*
Y183812D02*
D03*
X94622Y131844D02*
D03*
X94622Y129875D02*
D03*
Y127907D02*
D03*
Y125938D02*
D03*
X94622Y123970D02*
D03*
X108992D02*
D03*
Y125938D02*
D03*
Y127907D02*
D03*
Y129875D02*
D03*
Y131844D02*
D03*
X94622Y79875D02*
D03*
Y77907D02*
D03*
Y75938D02*
D03*
Y73970D02*
D03*
Y72001D02*
D03*
X108992D02*
D03*
Y73970D02*
D03*
Y75938D02*
D03*
Y77907D02*
D03*
Y79875D02*
D03*
X94587Y27953D02*
D03*
Y25984D02*
D03*
Y24016D02*
D03*
Y22047D02*
D03*
Y20079D02*
D03*
X108957D02*
D03*
X108957Y22047D02*
D03*
Y24016D02*
D03*
Y25984D02*
D03*
X108957Y27953D02*
D03*
D22*
X97835Y43504D02*
D03*
X99803D02*
D03*
X101772D02*
D03*
X103740D02*
D03*
X105709D02*
D03*
Y57874D02*
D03*
X103740D02*
D03*
X101772D02*
D03*
X99803D02*
D03*
X97835D02*
D03*
Y95482D02*
D03*
X99803D02*
D03*
X101772D02*
D03*
X103740D02*
D03*
X105709D02*
D03*
Y109852D02*
D03*
X103740D02*
D03*
X101772D02*
D03*
X99803D02*
D03*
X97835D02*
D03*
Y147415D02*
D03*
X99803D02*
D03*
X101772D02*
D03*
X103740D02*
D03*
X105709D02*
D03*
Y161785D02*
D03*
X103740D02*
D03*
X101772D02*
D03*
X99803D02*
D03*
X97835D02*
D03*
X97835Y199390D02*
D03*
X99803D02*
D03*
X101772D02*
D03*
X103740D02*
D03*
X105709D02*
D03*
Y213760D02*
D03*
X103740D02*
D03*
X101772D02*
D03*
X99803D02*
D03*
X97835D02*
D03*
X97835Y251317D02*
D03*
X99803D02*
D03*
X101772D02*
D03*
X103740D02*
D03*
X105709D02*
D03*
Y265687D02*
D03*
X103740D02*
D03*
X101772D02*
D03*
X99803D02*
D03*
X97835D02*
D03*
X97870Y224659D02*
D03*
X99839D02*
D03*
X101807D02*
D03*
X103776D02*
D03*
X105744D02*
D03*
Y239029D02*
D03*
X103776D02*
D03*
X101807D02*
D03*
X99839D02*
D03*
X97870D02*
D03*
Y172690D02*
D03*
X99839D02*
D03*
X101807D02*
D03*
X103776D02*
D03*
X105744D02*
D03*
Y187060D02*
D03*
X103776D02*
D03*
X101807D02*
D03*
X99839D02*
D03*
X97870D02*
D03*
Y120722D02*
D03*
X99839D02*
D03*
X101807D02*
D03*
X103776D02*
D03*
X105744D02*
D03*
Y135092D02*
D03*
X103776D02*
D03*
X101807D02*
D03*
X99839D02*
D03*
X97870D02*
D03*
Y68753D02*
D03*
X99839D02*
D03*
X101807D02*
D03*
X103776D02*
D03*
X105744D02*
D03*
Y83123D02*
D03*
X103776D02*
D03*
X101807D02*
D03*
X99839D02*
D03*
X97870D02*
D03*
X97835Y16831D02*
D03*
X99803D02*
D03*
X101772Y16831D02*
D03*
X103740D02*
D03*
X105709Y16831D02*
D03*
Y31201D02*
D03*
X103740D02*
D03*
X101772D02*
D03*
X99803D02*
D03*
X97835D02*
D03*
D23*
X101772Y50689D02*
D03*
Y102667D02*
D03*
Y154600D02*
D03*
X101772Y206575D02*
D03*
X101772Y258502D02*
D03*
X101807Y231844D02*
D03*
Y179875D02*
D03*
Y127907D02*
D03*
Y75938D02*
D03*
X101772Y24016D02*
D03*
D24*
X65000Y101969D02*
D03*
X68464D02*
D03*
X62559Y68504D02*
D03*
X59095D02*
D03*
X62559Y71653D02*
D03*
X59095Y71653D02*
D03*
X104685Y91732D02*
D03*
X101221D02*
D03*
X104685Y39764D02*
D03*
X101221D02*
D03*
X64606Y153937D02*
D03*
X68071D02*
D03*
X62484Y172680D02*
D03*
X59020D02*
D03*
X62484Y175829D02*
D03*
X59020D02*
D03*
X104685Y168898D02*
D03*
X101221D02*
D03*
X104685Y247638D02*
D03*
X101221D02*
D03*
X64606Y205906D02*
D03*
X68071D02*
D03*
X62559Y224803D02*
D03*
X59095D02*
D03*
X62559Y227953D02*
D03*
X59095D02*
D03*
X104685Y64961D02*
D03*
X101221D02*
D03*
X104685Y220866D02*
D03*
X101221D02*
D03*
X64606Y257874D02*
D03*
X68071D02*
D03*
X62559Y120669D02*
D03*
X59095D02*
D03*
X62559Y123819D02*
D03*
X59095D02*
D03*
X104291Y142913D02*
D03*
X100827D02*
D03*
X15197Y120079D02*
D03*
X18661D02*
D03*
X46614Y116929D02*
D03*
X43150D02*
D03*
X104685D02*
D03*
X101221D02*
D03*
X64606Y50000D02*
D03*
X68071D02*
D03*
X62559Y16535D02*
D03*
X59095D02*
D03*
X62559Y19685D02*
D03*
X59095Y19685D02*
D03*
X104685Y195669D02*
D03*
X101221D02*
D03*
X47874Y146457D02*
D03*
X51339D02*
D03*
X47874Y143307D02*
D03*
X51339D02*
D03*
X29567Y91535D02*
D03*
X33031D02*
D03*
X29567Y94488D02*
D03*
X33031Y94488D02*
D03*
X28307Y142323D02*
D03*
X24843D02*
D03*
X20906Y164567D02*
D03*
X24370D02*
D03*
X18661Y116929D02*
D03*
X15197D02*
D03*
X43150Y111614D02*
D03*
X46614D02*
D03*
X104789Y12999D02*
D03*
X101324D02*
D03*
D25*
X70669Y87008D02*
D03*
Y190945D02*
D03*
Y242913D02*
D03*
Y138976D02*
D03*
Y35039D02*
D03*
D26*
X81398Y94685D02*
D03*
Y92126D02*
D03*
Y89567D02*
D03*
Y87008D02*
D03*
Y84449D02*
D03*
Y81890D02*
D03*
Y79331D02*
D03*
X59941D02*
D03*
Y81890D02*
D03*
Y84449D02*
D03*
Y87008D02*
D03*
Y89567D02*
D03*
Y92126D02*
D03*
Y94685D02*
D03*
X81398Y198622D02*
D03*
Y196063D02*
D03*
Y193504D02*
D03*
Y190945D02*
D03*
Y188386D02*
D03*
Y185827D02*
D03*
Y183268D02*
D03*
X59941D02*
D03*
Y185827D02*
D03*
Y188386D02*
D03*
Y190945D02*
D03*
Y193504D02*
D03*
Y196063D02*
D03*
Y198622D02*
D03*
X81398Y250590D02*
D03*
Y248031D02*
D03*
Y245472D02*
D03*
Y242913D02*
D03*
Y240354D02*
D03*
Y237795D02*
D03*
Y235236D02*
D03*
X59941D02*
D03*
Y237795D02*
D03*
Y240354D02*
D03*
Y242913D02*
D03*
Y245472D02*
D03*
Y248031D02*
D03*
Y250590D02*
D03*
X81398Y146653D02*
D03*
Y144095D02*
D03*
Y141535D02*
D03*
Y138976D02*
D03*
Y136417D02*
D03*
Y133858D02*
D03*
Y131299D02*
D03*
X59941D02*
D03*
Y133858D02*
D03*
Y136417D02*
D03*
Y138976D02*
D03*
Y141535D02*
D03*
Y144095D02*
D03*
Y146653D02*
D03*
X81398Y42717D02*
D03*
Y40157D02*
D03*
Y37598D02*
D03*
Y35039D02*
D03*
Y32480D02*
D03*
Y29921D02*
D03*
Y27362D02*
D03*
X59941D02*
D03*
Y29921D02*
D03*
Y32480D02*
D03*
Y35039D02*
D03*
Y37598D02*
D03*
Y40157D02*
D03*
Y42717D02*
D03*
D27*
X78347Y76279D02*
D03*
X75787D02*
D03*
X73228D02*
D03*
X70669D02*
D03*
X68110D02*
D03*
X65551D02*
D03*
X62992D02*
D03*
Y97736D02*
D03*
X65551D02*
D03*
X68110D02*
D03*
X70669D02*
D03*
X73228D02*
D03*
X75787D02*
D03*
X78347D02*
D03*
Y180217D02*
D03*
X75787D02*
D03*
X73228D02*
D03*
X70669D02*
D03*
X68110D02*
D03*
X65551D02*
D03*
X62992D02*
D03*
Y201673D02*
D03*
X65551D02*
D03*
X68110D02*
D03*
X70669D02*
D03*
X73228D02*
D03*
X75787D02*
D03*
X78347D02*
D03*
Y232185D02*
D03*
X75787D02*
D03*
X73228D02*
D03*
X70669D02*
D03*
X68110D02*
D03*
X65551D02*
D03*
X62992D02*
D03*
Y253642D02*
D03*
X65551D02*
D03*
X68110D02*
D03*
X70669D02*
D03*
X73228D02*
D03*
X75787D02*
D03*
X78347D02*
D03*
Y128248D02*
D03*
X75787D02*
D03*
X73228D02*
D03*
X70669D02*
D03*
X68110D02*
D03*
X65551D02*
D03*
X62992D02*
D03*
Y149705D02*
D03*
X65551D02*
D03*
X68110D02*
D03*
X70669D02*
D03*
X73228D02*
D03*
X75787D02*
D03*
X78347D02*
D03*
Y24311D02*
D03*
X75787D02*
D03*
X73228D02*
D03*
X70669D02*
D03*
X68110D02*
D03*
X65551D02*
D03*
X62992D02*
D03*
Y45768D02*
D03*
X65551D02*
D03*
X68110D02*
D03*
X70669D02*
D03*
X73228D02*
D03*
X75787D02*
D03*
X78347D02*
D03*
D28*
X29134Y129095D02*
D03*
Y125630D02*
D03*
X24213Y129095D02*
D03*
Y125630D02*
D03*
D29*
X42913Y242913D02*
D03*
Y227913D02*
D03*
X37913Y242913D02*
D03*
Y227913D02*
D03*
X32913Y242913D02*
D03*
Y227913D02*
D03*
X27913Y242913D02*
D03*
Y227913D02*
D03*
X22913Y242913D02*
D03*
Y227913D02*
D03*
X17913Y242913D02*
D03*
Y227913D02*
D03*
X42913Y50039D02*
D03*
Y35039D02*
D03*
X37913Y50039D02*
D03*
Y35039D02*
D03*
X32913Y50039D02*
D03*
Y35039D02*
D03*
X27913Y50039D02*
D03*
Y35039D02*
D03*
X22913Y50039D02*
D03*
Y35039D02*
D03*
X17913Y50039D02*
D03*
Y35039D02*
D03*
D30*
X20866Y150984D02*
D03*
X28346Y150984D02*
D03*
X20866Y160827D02*
D03*
X24606Y160827D02*
D03*
X28346D02*
D03*
D31*
X28346Y146457D02*
D03*
X23622D02*
D03*
D32*
X13583Y112795D02*
D03*
X18307D02*
D03*
M02*
