G04*
G04 #@! TF.GenerationSoftware,Altium Limited,Altium Designer,20.0.9 (164)*
G04*
G04 Layer_Physical_Order=2*
G04 Layer_Color=36540*
%FSLAX25Y25*%
%MOIN*%
G70*
G01*
G75*
%ADD10C,0.00787*%
%ADD60C,0.01181*%
%ADD61C,0.01575*%
%ADD63C,0.05000*%
%ADD65C,0.05906*%
%ADD66C,0.07400*%
%ADD67C,0.01772*%
%ADD70C,0.03150*%
G36*
X13979Y277937D02*
X14078Y277437D01*
X13149Y277053D01*
X11629Y276121D01*
X10273Y274963D01*
X9115Y273607D01*
X8184Y272087D01*
X7501Y270440D01*
X7085Y268706D01*
X6945Y266929D01*
X7085Y265152D01*
X7501Y263418D01*
X8184Y261771D01*
X9115Y260251D01*
X10273Y258895D01*
X11629Y257737D01*
X13149Y256806D01*
X14796Y256123D01*
X16530Y255707D01*
X18307Y255567D01*
X20085Y255707D01*
X21818Y256123D01*
X23465Y256806D01*
X24985Y257737D01*
X26341Y258895D01*
X27499Y260251D01*
X28431Y261771D01*
X29113Y263418D01*
X29529Y265152D01*
X29669Y266929D01*
X29529Y268706D01*
X29113Y270440D01*
X28431Y272087D01*
X27499Y273607D01*
X26341Y274963D01*
X24985Y276121D01*
X23465Y277053D01*
X22536Y277437D01*
X22636Y277937D01*
X113976D01*
Y266778D01*
X113503Y266498D01*
X113476Y266500D01*
X113189Y266557D01*
X113189Y266557D01*
X109590D01*
X109464Y266747D01*
X109005Y267053D01*
X108465Y267161D01*
X107924Y267053D01*
X107465Y266747D01*
X107159Y266289D01*
X107052Y265748D01*
X107159Y265207D01*
X107465Y264749D01*
X107924Y264443D01*
X108465Y264335D01*
X109005Y264443D01*
X109464Y264749D01*
X109590Y264939D01*
X112854D01*
X113885Y263908D01*
X113755Y263408D01*
X113134D01*
X113007Y263597D01*
X112549Y263904D01*
X112008Y264011D01*
X111467Y263904D01*
X111009Y263597D01*
X110702Y263139D01*
X110595Y262598D01*
X110702Y262058D01*
X111009Y261599D01*
X111467Y261293D01*
X112008Y261185D01*
X112091Y261202D01*
X112472Y260864D01*
X112472Y260396D01*
X112091Y260058D01*
X112008Y260074D01*
X111467Y259967D01*
X111009Y259661D01*
X110702Y259202D01*
X110595Y258661D01*
X110702Y258121D01*
X111009Y257662D01*
X111467Y257356D01*
X112008Y257248D01*
X112091Y257265D01*
X112472Y256927D01*
X112472Y256459D01*
X112091Y256121D01*
X112008Y256137D01*
X111467Y256030D01*
X111009Y255724D01*
X110702Y255265D01*
X110595Y254724D01*
X110702Y254184D01*
X111009Y253725D01*
X111467Y253419D01*
X112008Y253311D01*
X112549Y253419D01*
X113007Y253725D01*
X113059Y253803D01*
X113590Y253838D01*
X113976Y253451D01*
Y252384D01*
X109590D01*
X109464Y252574D01*
X109005Y252880D01*
X108465Y252988D01*
X107924Y252880D01*
X107465Y252574D01*
X107159Y252116D01*
X107052Y251575D01*
X107159Y251034D01*
X107465Y250576D01*
X107924Y250269D01*
X108465Y250162D01*
X109005Y250269D01*
X109464Y250576D01*
X109590Y250765D01*
X113976D01*
Y235871D01*
X113932Y235853D01*
X113912Y235854D01*
X113398Y236173D01*
X113349Y236420D01*
X113042Y236878D01*
X112584Y237185D01*
X112043Y237292D01*
X111503Y237185D01*
X111044Y236878D01*
X110738Y236420D01*
X110630Y235879D01*
X110738Y235338D01*
X111044Y234880D01*
X111503Y234574D01*
X112043Y234466D01*
X112206Y234499D01*
X112631Y234073D01*
X112599Y233911D01*
X112663Y233586D01*
X112270Y233192D01*
X111945Y233257D01*
X111404Y233149D01*
X110946Y232843D01*
X110639Y232384D01*
X110532Y231844D01*
X110639Y231303D01*
X110946Y230844D01*
X111404Y230538D01*
X111945Y230431D01*
X112028Y230447D01*
X112409Y230109D01*
Y229641D01*
X112028Y229303D01*
X111945Y229320D01*
X111404Y229212D01*
X110946Y228906D01*
X110639Y228447D01*
X110532Y227907D01*
X110639Y227366D01*
X110946Y226907D01*
X111404Y226601D01*
X111945Y226494D01*
X112486Y226601D01*
X112944Y226907D01*
X113250Y227366D01*
X113325Y227742D01*
X113712Y228029D01*
X113835Y228072D01*
X113976Y228013D01*
Y214809D01*
X113503Y214530D01*
X113476Y214532D01*
X113189Y214589D01*
X113189Y214589D01*
X109591D01*
X109464Y214779D01*
X109005Y215085D01*
X108465Y215193D01*
X107924Y215085D01*
X107465Y214779D01*
X107159Y214320D01*
X107052Y213779D01*
X107159Y213239D01*
X107465Y212780D01*
X107924Y212474D01*
X108465Y212367D01*
X109005Y212474D01*
X109464Y212780D01*
X109591Y212970D01*
X112854D01*
X113885Y211939D01*
X113756Y211439D01*
X113134D01*
X113007Y211629D01*
X112549Y211935D01*
X112008Y212043D01*
X111467Y211935D01*
X111009Y211629D01*
X110703Y211171D01*
X110595Y210630D01*
X110703Y210089D01*
X111009Y209631D01*
X111467Y209325D01*
X112008Y209217D01*
X112091Y209233D01*
X112472Y208895D01*
X112472Y208428D01*
X112091Y208089D01*
X112008Y208106D01*
X111467Y207998D01*
X111009Y207692D01*
X110703Y207234D01*
X110595Y206693D01*
X110703Y206152D01*
X111009Y205694D01*
X111467Y205387D01*
X112008Y205280D01*
X112091Y205296D01*
X112472Y204958D01*
X112472Y204490D01*
X112091Y204152D01*
X112008Y204169D01*
X111467Y204061D01*
X111009Y203755D01*
X110703Y203297D01*
X110595Y202756D01*
X110703Y202215D01*
X111009Y201757D01*
X111467Y201450D01*
X112008Y201343D01*
X112549Y201450D01*
X113007Y201757D01*
X113059Y201835D01*
X113590Y201870D01*
X113976Y201483D01*
Y200416D01*
X109591D01*
X109464Y200605D01*
X109005Y200912D01*
X108465Y201019D01*
X107924Y200912D01*
X107465Y200605D01*
X107159Y200147D01*
X107052Y199606D01*
X107159Y199066D01*
X107465Y198607D01*
X107924Y198301D01*
X108465Y198193D01*
X109005Y198301D01*
X109464Y198607D01*
X109591Y198797D01*
X113976D01*
Y183903D01*
X113932Y183884D01*
X113912Y183886D01*
X113398Y184204D01*
X113349Y184451D01*
X113042Y184910D01*
X112584Y185216D01*
X112043Y185324D01*
X111503Y185216D01*
X111044Y184910D01*
X110738Y184451D01*
X110630Y183911D01*
X110738Y183370D01*
X111044Y182912D01*
X111503Y182605D01*
X112043Y182498D01*
X112206Y182530D01*
X112631Y182105D01*
X112599Y181942D01*
X112663Y181617D01*
X112270Y181223D01*
X111945Y181288D01*
X111404Y181181D01*
X110946Y180874D01*
X110639Y180416D01*
X110532Y179875D01*
X110639Y179334D01*
X110946Y178876D01*
X111404Y178570D01*
X111945Y178462D01*
X112028Y178479D01*
X112409Y178141D01*
Y177673D01*
X112028Y177335D01*
X111945Y177351D01*
X111404Y177244D01*
X110946Y176937D01*
X110639Y176479D01*
X110532Y175938D01*
X110639Y175397D01*
X110946Y174939D01*
X111404Y174633D01*
X111945Y174525D01*
X112486Y174633D01*
X112944Y174939D01*
X113250Y175397D01*
X113325Y175773D01*
X113712Y176061D01*
X113835Y176103D01*
X113976Y176045D01*
Y162841D01*
X113503Y162561D01*
X113476Y162563D01*
X113189Y162620D01*
X113189Y162620D01*
X109590D01*
X109464Y162810D01*
X109005Y163116D01*
X108465Y163224D01*
X107924Y163116D01*
X107465Y162810D01*
X107159Y162352D01*
X107052Y161811D01*
X107159Y161270D01*
X107465Y160812D01*
X107924Y160506D01*
X108465Y160398D01*
X109005Y160506D01*
X109464Y160812D01*
X109590Y161002D01*
X112854D01*
X113885Y159971D01*
X113756Y159471D01*
X113134D01*
X113007Y159660D01*
X112549Y159967D01*
X112008Y160074D01*
X111467Y159967D01*
X111009Y159660D01*
X110702Y159202D01*
X110595Y158661D01*
X110702Y158121D01*
X111009Y157662D01*
X111467Y157356D01*
X112008Y157248D01*
X112171Y157281D01*
X112596Y156856D01*
X112563Y156693D01*
X112596Y156530D01*
X112171Y156105D01*
X112008Y156137D01*
X111467Y156030D01*
X111009Y155724D01*
X110702Y155265D01*
X110595Y154724D01*
X110702Y154184D01*
X111009Y153725D01*
X111467Y153419D01*
X112008Y153311D01*
X112171Y153344D01*
X112596Y152919D01*
X112563Y152756D01*
X112596Y152593D01*
X112171Y152168D01*
X112008Y152200D01*
X111467Y152093D01*
X111009Y151786D01*
X110702Y151328D01*
X110595Y150787D01*
X110702Y150247D01*
X111009Y149788D01*
X111467Y149482D01*
X112008Y149374D01*
X112549Y149482D01*
X113007Y149788D01*
X113059Y149866D01*
X113590Y149901D01*
X113976Y149514D01*
Y148447D01*
X109590D01*
X109464Y148637D01*
X109005Y148943D01*
X108465Y149051D01*
X107924Y148943D01*
X107465Y148637D01*
X107159Y148179D01*
X107052Y147638D01*
X107159Y147097D01*
X107465Y146639D01*
X107924Y146332D01*
X108465Y146225D01*
X109005Y146332D01*
X109464Y146639D01*
X109590Y146828D01*
X113976D01*
X113976Y131934D01*
X113932Y131916D01*
X113912Y131917D01*
X113398Y132236D01*
X113349Y132483D01*
X113042Y132941D01*
X112584Y133247D01*
X112043Y133355D01*
X111503Y133247D01*
X111044Y132941D01*
X110738Y132483D01*
X110630Y131942D01*
X110738Y131401D01*
X111044Y130943D01*
X111503Y130637D01*
X112043Y130529D01*
X112206Y130561D01*
X112631Y130136D01*
X112599Y129974D01*
X112663Y129649D01*
X112270Y129255D01*
X111945Y129320D01*
X111404Y129212D01*
X110946Y128906D01*
X110639Y128447D01*
X110532Y127907D01*
X110639Y127366D01*
X110946Y126908D01*
X111404Y126601D01*
X111945Y126494D01*
X112028Y126510D01*
X112409Y126172D01*
Y125704D01*
X112028Y125366D01*
X111945Y125383D01*
X111404Y125275D01*
X110946Y124969D01*
X110639Y124510D01*
X110532Y123970D01*
X110639Y123429D01*
X110946Y122970D01*
X111404Y122664D01*
X111945Y122557D01*
X112486Y122664D01*
X112944Y122970D01*
X113250Y123429D01*
X113325Y123805D01*
X113712Y124092D01*
X113835Y124135D01*
X113976Y124076D01*
Y110872D01*
X113503Y110593D01*
X113476Y110595D01*
X113189Y110652D01*
X113189Y110652D01*
X109590D01*
X109464Y110842D01*
X109005Y111148D01*
X108465Y111256D01*
X107924Y111148D01*
X107465Y110842D01*
X107159Y110383D01*
X107052Y109843D01*
X107159Y109302D01*
X107465Y108843D01*
X107924Y108537D01*
X108465Y108430D01*
X109005Y108537D01*
X109464Y108843D01*
X109590Y109033D01*
X112854D01*
X113885Y108002D01*
X113756Y107502D01*
X113134D01*
X113007Y107692D01*
X112549Y107998D01*
X112008Y108106D01*
X111467Y107998D01*
X111009Y107692D01*
X110702Y107234D01*
X110595Y106693D01*
X110702Y106152D01*
X111009Y105694D01*
X111467Y105387D01*
X112008Y105280D01*
X112171Y105312D01*
X112596Y104887D01*
X112563Y104724D01*
X112596Y104562D01*
X112171Y104137D01*
X112008Y104169D01*
X111467Y104061D01*
X111009Y103755D01*
X110702Y103297D01*
X110595Y102756D01*
X110702Y102215D01*
X111009Y101757D01*
X111467Y101451D01*
X112008Y101343D01*
X112171Y101375D01*
X112596Y100950D01*
X112563Y100787D01*
X112596Y100625D01*
X112171Y100199D01*
X112008Y100232D01*
X111467Y100124D01*
X111009Y99818D01*
X110702Y99360D01*
X110595Y98819D01*
X110702Y98278D01*
X111009Y97820D01*
X111467Y97514D01*
X112008Y97406D01*
X112549Y97514D01*
X113007Y97820D01*
X113059Y97898D01*
X113590Y97933D01*
X113976Y97546D01*
Y96478D01*
X109590D01*
X109464Y96668D01*
X109005Y96975D01*
X108465Y97082D01*
X107924Y96975D01*
X107465Y96668D01*
X107159Y96210D01*
X107052Y95669D01*
X107159Y95129D01*
X107465Y94670D01*
X107924Y94364D01*
X108465Y94256D01*
X109005Y94364D01*
X109464Y94670D01*
X109590Y94860D01*
X113976D01*
Y79966D01*
X113932Y79947D01*
X113912Y79949D01*
X113398Y80267D01*
X113349Y80514D01*
X113042Y80973D01*
X112584Y81279D01*
X112043Y81387D01*
X111503Y81279D01*
X111044Y80973D01*
X110738Y80514D01*
X110630Y79974D01*
X110738Y79433D01*
X111044Y78974D01*
X111503Y78668D01*
X112043Y78561D01*
X112206Y78593D01*
X112631Y78168D01*
X112599Y78005D01*
X112663Y77680D01*
X112270Y77286D01*
X111945Y77351D01*
X111404Y77244D01*
X110946Y76937D01*
X110639Y76479D01*
X110532Y75938D01*
X110639Y75397D01*
X110946Y74939D01*
X111404Y74633D01*
X111945Y74525D01*
X112108Y74558D01*
X112533Y74132D01*
X112500Y73970D01*
X112533Y73807D01*
X112108Y73382D01*
X111945Y73414D01*
X111404Y73307D01*
X110946Y73000D01*
X110639Y72542D01*
X110532Y72001D01*
X110639Y71460D01*
X110946Y71002D01*
X111404Y70696D01*
X111945Y70588D01*
X112486Y70696D01*
X112944Y71002D01*
X113250Y71460D01*
X113325Y71836D01*
X113712Y72124D01*
X113835Y72166D01*
X113976Y72108D01*
Y58904D01*
X113503Y58624D01*
X113476Y58626D01*
X113189Y58683D01*
X113189Y58683D01*
X109590D01*
X109464Y58873D01*
X109005Y59179D01*
X108465Y59287D01*
X107924Y59179D01*
X107465Y58873D01*
X107159Y58415D01*
X107052Y57874D01*
X107159Y57333D01*
X107465Y56875D01*
X107924Y56569D01*
X108465Y56461D01*
X109005Y56569D01*
X109464Y56875D01*
X109590Y57065D01*
X112854D01*
X113885Y56034D01*
X113756Y55534D01*
X113134D01*
X113007Y55724D01*
X112549Y56030D01*
X112008Y56137D01*
X111467Y56030D01*
X111009Y55724D01*
X110702Y55265D01*
X110595Y54724D01*
X110702Y54184D01*
X111009Y53725D01*
X111467Y53419D01*
X112008Y53311D01*
X112171Y53344D01*
X112596Y52919D01*
X112563Y52756D01*
X112596Y52593D01*
X112171Y52168D01*
X112008Y52200D01*
X111467Y52093D01*
X111009Y51787D01*
X110702Y51328D01*
X110595Y50787D01*
X110702Y50247D01*
X111009Y49788D01*
X111467Y49482D01*
X112008Y49374D01*
X112171Y49407D01*
X112596Y48982D01*
X112563Y48819D01*
X112596Y48656D01*
X112171Y48231D01*
X112008Y48263D01*
X111467Y48156D01*
X111009Y47850D01*
X110702Y47391D01*
X110595Y46850D01*
X110702Y46310D01*
X111009Y45851D01*
X111467Y45545D01*
X112008Y45437D01*
X112549Y45545D01*
X113007Y45851D01*
X113059Y45929D01*
X113590Y45964D01*
X113976Y45577D01*
Y44510D01*
X109590D01*
X109464Y44700D01*
X109005Y45006D01*
X108465Y45114D01*
X107924Y45006D01*
X107465Y44700D01*
X107159Y44241D01*
X107052Y43701D01*
X107159Y43160D01*
X107465Y42702D01*
X107924Y42395D01*
X108465Y42288D01*
X109005Y42395D01*
X109464Y42702D01*
X109590Y42891D01*
X113976D01*
Y27997D01*
X113932Y27979D01*
X113912Y27980D01*
X113398Y28299D01*
X113349Y28546D01*
X113042Y29004D01*
X112584Y29311D01*
X112043Y29418D01*
X111503Y29311D01*
X111044Y29004D01*
X110738Y28546D01*
X110630Y28005D01*
X110738Y27464D01*
X111044Y27006D01*
X111503Y26700D01*
X112043Y26592D01*
X112206Y26625D01*
X112631Y26199D01*
X112599Y26037D01*
X112663Y25712D01*
X112270Y25318D01*
X111945Y25383D01*
X111404Y25275D01*
X110946Y24969D01*
X110639Y24510D01*
X110532Y23970D01*
X110639Y23429D01*
X110946Y22971D01*
X111404Y22664D01*
X111945Y22557D01*
X112108Y22589D01*
X112533Y22164D01*
X112500Y22001D01*
X112533Y21838D01*
X112108Y21413D01*
X111945Y21446D01*
X111404Y21338D01*
X110946Y21032D01*
X110639Y20573D01*
X110532Y20033D01*
X110639Y19492D01*
X110946Y19034D01*
X111404Y18727D01*
X111945Y18620D01*
X112486Y18727D01*
X112944Y19034D01*
X113250Y19492D01*
X113325Y19868D01*
X113712Y20155D01*
X113835Y20198D01*
X113976Y20139D01*
Y15D01*
X22636D01*
X22536Y515D01*
X23465Y900D01*
X24985Y1832D01*
X26341Y2990D01*
X27499Y4345D01*
X28431Y5866D01*
X29113Y7513D01*
X29529Y9246D01*
X29669Y11024D01*
X29529Y12801D01*
X29113Y14535D01*
X28431Y16182D01*
X27499Y17702D01*
X26341Y19058D01*
X24985Y20215D01*
X23465Y21147D01*
X21818Y21829D01*
X20085Y22245D01*
X18307Y22385D01*
X16530Y22245D01*
X14796Y21829D01*
X13149Y21147D01*
X11629Y20215D01*
X10273Y19058D01*
X9115Y17702D01*
X8184Y16182D01*
X7501Y14535D01*
X7085Y12801D01*
X6945Y11024D01*
X7085Y9246D01*
X7501Y7513D01*
X8184Y5866D01*
X9115Y4345D01*
X10273Y2990D01*
X11629Y1832D01*
X13149Y900D01*
X14078Y515D01*
X13979Y15D01*
X-1559D01*
X-1559Y277937D01*
X13979D01*
D02*
G37*
G36*
X466734Y277937D02*
X466834Y277437D01*
X465905Y277053D01*
X464385Y276121D01*
X463029Y274963D01*
X461871Y273607D01*
X460940Y272087D01*
X460257Y270440D01*
X459841Y268706D01*
X459701Y266929D01*
X459841Y265152D01*
X460257Y263418D01*
X460940Y261771D01*
X461871Y260251D01*
X463029Y258895D01*
X464385Y257737D01*
X465905Y256806D01*
X467552Y256123D01*
X469286Y255707D01*
X471063Y255567D01*
X472840Y255707D01*
X474574Y256123D01*
X476221Y256806D01*
X477741Y257737D01*
X479097Y258895D01*
X480255Y260251D01*
X481186Y261771D01*
X481869Y263418D01*
X482285Y265152D01*
X482425Y266929D01*
X482285Y268706D01*
X481869Y270440D01*
X481186Y272087D01*
X480255Y273607D01*
X479097Y274963D01*
X477741Y276121D01*
X476221Y277053D01*
X475292Y277437D01*
X475392Y277937D01*
X508646D01*
X508646Y15D01*
X475392D01*
X475292Y515D01*
X476221Y900D01*
X477741Y1832D01*
X479097Y2990D01*
X480255Y4345D01*
X481186Y5866D01*
X481869Y7513D01*
X482285Y9246D01*
X482425Y11024D01*
X482285Y12801D01*
X481869Y14535D01*
X481186Y16182D01*
X480255Y17702D01*
X479097Y19058D01*
X477741Y20215D01*
X476221Y21147D01*
X474574Y21829D01*
X472840Y22245D01*
X471063Y22385D01*
X469286Y22245D01*
X467552Y21829D01*
X465905Y21147D01*
X464385Y20215D01*
X463029Y19058D01*
X461871Y17702D01*
X460940Y16182D01*
X460257Y14535D01*
X459841Y12801D01*
X459701Y11024D01*
X459841Y9246D01*
X460257Y7513D01*
X460940Y5866D01*
X461871Y4345D01*
X463029Y2990D01*
X464385Y1832D01*
X465905Y900D01*
X466834Y515D01*
X466734Y15D01*
X115945D01*
Y41276D01*
X116407Y41468D01*
X122264Y35610D01*
X122527Y35435D01*
X122836Y35373D01*
X122836Y35373D01*
X362468D01*
X362468Y35373D01*
X362658Y35411D01*
X402953D01*
X402953Y35411D01*
X403262Y35473D01*
X403525Y35648D01*
X413752Y45876D01*
X413976Y45831D01*
X414517Y45939D01*
X414976Y46245D01*
X415282Y46703D01*
X415389Y47244D01*
X415282Y47785D01*
X414976Y48243D01*
X414517Y48550D01*
X413976Y48657D01*
X413436Y48550D01*
X412977Y48243D01*
X412671Y47785D01*
X412563Y47244D01*
X412608Y47020D01*
X402618Y37030D01*
X363434D01*
X363242Y37492D01*
X371626Y45876D01*
X371850Y45831D01*
X372391Y45939D01*
X372849Y46245D01*
X373156Y46703D01*
X373263Y47244D01*
X373156Y47785D01*
X372849Y48243D01*
X372391Y48550D01*
X371850Y48657D01*
X371310Y48550D01*
X370851Y48243D01*
X370545Y47785D01*
X370437Y47244D01*
X370482Y47020D01*
X361673Y38211D01*
X322489D01*
X322298Y38673D01*
X329500Y45876D01*
X329724Y45831D01*
X330265Y45939D01*
X330724Y46245D01*
X331030Y46703D01*
X331137Y47244D01*
X331030Y47785D01*
X330724Y48243D01*
X330265Y48550D01*
X329724Y48657D01*
X329184Y48550D01*
X328725Y48243D01*
X328419Y47785D01*
X328311Y47244D01*
X328356Y47020D01*
X320728Y39392D01*
X281544D01*
X281353Y39854D01*
X287374Y45876D01*
X287598Y45831D01*
X288139Y45939D01*
X288597Y46245D01*
X288904Y46703D01*
X289011Y47244D01*
X288904Y47785D01*
X288597Y48243D01*
X288139Y48550D01*
X287598Y48657D01*
X287058Y48550D01*
X286599Y48243D01*
X286293Y47785D01*
X286185Y47244D01*
X286230Y47020D01*
X279764Y40554D01*
X240580D01*
X240389Y41016D01*
X245249Y45876D01*
X245472Y45831D01*
X246013Y45939D01*
X246472Y46245D01*
X246778Y46703D01*
X246885Y47244D01*
X246778Y47785D01*
X246472Y48243D01*
X246013Y48550D01*
X245472Y48657D01*
X244932Y48550D01*
X244473Y48243D01*
X244167Y47785D01*
X244059Y47244D01*
X244104Y47020D01*
X238838Y41754D01*
X199654D01*
X199463Y42216D01*
X203122Y45876D01*
X203346Y45831D01*
X203887Y45939D01*
X204346Y46245D01*
X204652Y46703D01*
X204759Y47244D01*
X204652Y47785D01*
X204346Y48243D01*
X203887Y48550D01*
X203346Y48657D01*
X202806Y48550D01*
X202347Y48243D01*
X202041Y47785D01*
X201934Y47244D01*
X201978Y47020D01*
X197893Y42935D01*
X158709D01*
X158518Y43397D01*
X160996Y45876D01*
X161221Y45831D01*
X161761Y45939D01*
X162220Y46245D01*
X162526Y46703D01*
X162633Y47244D01*
X162526Y47785D01*
X162220Y48243D01*
X161761Y48550D01*
X161221Y48657D01*
X160680Y48550D01*
X160221Y48243D01*
X159915Y47785D01*
X159808Y47244D01*
X159852Y47020D01*
X156948Y44116D01*
X126123D01*
X123182Y47057D01*
Y48690D01*
X123120Y49000D01*
X122945Y49262D01*
X115945Y56263D01*
X115945Y93245D01*
X116407Y93436D01*
X122264Y87579D01*
X122527Y87404D01*
X122836Y87342D01*
X122836Y87342D01*
X362468D01*
X362468Y87342D01*
X362658Y87380D01*
X402953D01*
X402953Y87380D01*
X403262Y87441D01*
X403525Y87617D01*
X413752Y97844D01*
X413976Y97800D01*
X414517Y97907D01*
X414976Y98213D01*
X415282Y98672D01*
X415389Y99213D01*
X415282Y99753D01*
X414976Y100212D01*
X414517Y100518D01*
X413976Y100626D01*
X413436Y100518D01*
X412977Y100212D01*
X412671Y99753D01*
X412563Y99213D01*
X412608Y98989D01*
X402618Y88998D01*
X363434D01*
X363242Y89460D01*
X371626Y97844D01*
X371850Y97800D01*
X372391Y97907D01*
X372849Y98213D01*
X373156Y98672D01*
X373263Y99213D01*
X373156Y99753D01*
X372849Y100212D01*
X372391Y100518D01*
X371850Y100626D01*
X371310Y100518D01*
X370851Y100212D01*
X370545Y99753D01*
X370437Y99213D01*
X370482Y98989D01*
X361673Y90179D01*
X322489D01*
X322298Y90641D01*
X329500Y97844D01*
X329724Y97800D01*
X330265Y97907D01*
X330724Y98213D01*
X331030Y98672D01*
X331137Y99213D01*
X331030Y99753D01*
X330724Y100212D01*
X330265Y100518D01*
X329724Y100626D01*
X329184Y100518D01*
X328725Y100212D01*
X328419Y99753D01*
X328311Y99213D01*
X328356Y98989D01*
X320728Y91360D01*
X281544D01*
X281353Y91822D01*
X287374Y97844D01*
X287598Y97800D01*
X288139Y97907D01*
X288597Y98213D01*
X288904Y98672D01*
X289011Y99213D01*
X288904Y99753D01*
X288597Y100212D01*
X288139Y100518D01*
X287598Y100626D01*
X287058Y100518D01*
X286599Y100212D01*
X286293Y99753D01*
X286185Y99213D01*
X286230Y98989D01*
X279764Y92523D01*
X240580D01*
X240389Y92985D01*
X245249Y97844D01*
X245472Y97800D01*
X246013Y97907D01*
X246472Y98213D01*
X246778Y98672D01*
X246885Y99213D01*
X246778Y99753D01*
X246472Y100212D01*
X246013Y100518D01*
X245472Y100626D01*
X244932Y100518D01*
X244473Y100212D01*
X244167Y99753D01*
X244059Y99213D01*
X244104Y98989D01*
X238838Y93723D01*
X199654D01*
X199463Y94185D01*
X203122Y97844D01*
X203346Y97800D01*
X203887Y97907D01*
X204346Y98213D01*
X204652Y98672D01*
X204759Y99213D01*
X204652Y99753D01*
X204346Y100212D01*
X203887Y100518D01*
X203346Y100626D01*
X202806Y100518D01*
X202347Y100212D01*
X202041Y99753D01*
X201934Y99213D01*
X201978Y98989D01*
X197893Y94904D01*
X158709D01*
X158518Y95366D01*
X160996Y97844D01*
X161221Y97800D01*
X161761Y97907D01*
X162220Y98213D01*
X162526Y98672D01*
X162633Y99213D01*
X162526Y99753D01*
X162220Y100212D01*
X161761Y100518D01*
X161221Y100626D01*
X160680Y100518D01*
X160221Y100212D01*
X159915Y99753D01*
X159808Y99213D01*
X159852Y98989D01*
X156948Y96085D01*
X126123D01*
X123182Y99025D01*
Y100659D01*
X123120Y100969D01*
X122945Y101231D01*
X115945Y108231D01*
Y145213D01*
X116407Y145405D01*
X122264Y139548D01*
X122527Y139372D01*
X122836Y139310D01*
X122836Y139310D01*
X362468D01*
X362468Y139310D01*
X362658Y139348D01*
X402953D01*
X402953Y139348D01*
X403262Y139410D01*
X403525Y139585D01*
X413752Y149813D01*
X413976Y149768D01*
X414517Y149876D01*
X414976Y150182D01*
X415282Y150640D01*
X415389Y151181D01*
X415282Y151722D01*
X414976Y152180D01*
X414517Y152487D01*
X413976Y152594D01*
X413436Y152487D01*
X412977Y152180D01*
X412671Y151722D01*
X412563Y151181D01*
X412608Y150957D01*
X402618Y140967D01*
X363434D01*
X363242Y141429D01*
X371626Y149813D01*
X371850Y149768D01*
X372391Y149876D01*
X372849Y150182D01*
X373156Y150640D01*
X373263Y151181D01*
X373156Y151722D01*
X372849Y152180D01*
X372391Y152487D01*
X371850Y152594D01*
X371310Y152487D01*
X370851Y152180D01*
X370545Y151722D01*
X370437Y151181D01*
X370482Y150957D01*
X361673Y142148D01*
X322489D01*
X322298Y142610D01*
X329500Y149813D01*
X329724Y149768D01*
X330265Y149876D01*
X330724Y150182D01*
X331030Y150640D01*
X331137Y151181D01*
X331030Y151722D01*
X330724Y152180D01*
X330265Y152487D01*
X329724Y152594D01*
X329184Y152487D01*
X328725Y152180D01*
X328419Y151722D01*
X328311Y151181D01*
X328356Y150957D01*
X320728Y143329D01*
X281544D01*
X281353Y143791D01*
X287374Y149813D01*
X287598Y149768D01*
X288139Y149876D01*
X288597Y150182D01*
X288904Y150640D01*
X289011Y151181D01*
X288904Y151722D01*
X288597Y152180D01*
X288139Y152487D01*
X287598Y152594D01*
X287058Y152487D01*
X286599Y152180D01*
X286293Y151722D01*
X286185Y151181D01*
X286230Y150957D01*
X279764Y144491D01*
X240580D01*
X240389Y144953D01*
X245249Y149813D01*
X245472Y149768D01*
X246013Y149876D01*
X246472Y150182D01*
X246778Y150640D01*
X246885Y151181D01*
X246778Y151722D01*
X246472Y152180D01*
X246013Y152487D01*
X245472Y152594D01*
X244932Y152487D01*
X244473Y152180D01*
X244167Y151722D01*
X244059Y151181D01*
X244104Y150957D01*
X238838Y145691D01*
X199654D01*
X199463Y146153D01*
X203122Y149813D01*
X203346Y149768D01*
X203887Y149876D01*
X204346Y150182D01*
X204652Y150640D01*
X204759Y151181D01*
X204652Y151722D01*
X204346Y152180D01*
X203887Y152487D01*
X203346Y152594D01*
X202806Y152487D01*
X202347Y152180D01*
X202041Y151722D01*
X201934Y151181D01*
X201978Y150957D01*
X197893Y146872D01*
X158709D01*
X158518Y147334D01*
X160996Y149813D01*
X161221Y149768D01*
X161761Y149876D01*
X162220Y150182D01*
X162526Y150640D01*
X162633Y151181D01*
X162526Y151722D01*
X162220Y152180D01*
X161761Y152487D01*
X161221Y152594D01*
X160680Y152487D01*
X160221Y152180D01*
X159915Y151722D01*
X159808Y151181D01*
X159852Y150957D01*
X156948Y148053D01*
X126123D01*
X123182Y150994D01*
Y152627D01*
X123120Y152937D01*
X122945Y153200D01*
X115945Y160200D01*
Y197182D01*
X116407Y197373D01*
X122264Y191516D01*
X122527Y191341D01*
X122836Y191279D01*
X122836Y191279D01*
X362468D01*
X362468Y191279D01*
X362658Y191317D01*
X402953D01*
X402953Y191317D01*
X403262Y191378D01*
X403525Y191554D01*
X413752Y201781D01*
X413976Y201737D01*
X414517Y201844D01*
X414976Y202151D01*
X415282Y202609D01*
X415389Y203150D01*
X415282Y203690D01*
X414976Y204149D01*
X414517Y204455D01*
X413976Y204563D01*
X413436Y204455D01*
X412977Y204149D01*
X412671Y203690D01*
X412563Y203150D01*
X412608Y202926D01*
X402618Y192935D01*
X363434D01*
X363242Y193397D01*
X371626Y201781D01*
X371850Y201737D01*
X372391Y201844D01*
X372849Y202151D01*
X373156Y202609D01*
X373263Y203150D01*
X373156Y203690D01*
X372849Y204149D01*
X372391Y204455D01*
X371850Y204563D01*
X371310Y204455D01*
X370851Y204149D01*
X370545Y203690D01*
X370437Y203150D01*
X370482Y202926D01*
X361673Y194116D01*
X322489D01*
X322298Y194578D01*
X329500Y201781D01*
X329724Y201737D01*
X330265Y201844D01*
X330724Y202151D01*
X331030Y202609D01*
X331137Y203150D01*
X331030Y203690D01*
X330724Y204149D01*
X330265Y204455D01*
X329724Y204563D01*
X329184Y204455D01*
X328725Y204149D01*
X328419Y203690D01*
X328311Y203150D01*
X328356Y202926D01*
X320728Y195297D01*
X281544D01*
X281353Y195759D01*
X287374Y201781D01*
X287598Y201737D01*
X288139Y201844D01*
X288597Y202151D01*
X288904Y202609D01*
X289011Y203150D01*
X288904Y203690D01*
X288597Y204149D01*
X288139Y204455D01*
X287598Y204563D01*
X287058Y204455D01*
X286599Y204149D01*
X286293Y203690D01*
X286185Y203150D01*
X286230Y202926D01*
X279764Y196460D01*
X240580D01*
X240389Y196922D01*
X245249Y201781D01*
X245472Y201737D01*
X246013Y201844D01*
X246472Y202151D01*
X246778Y202609D01*
X246885Y203150D01*
X246778Y203690D01*
X246472Y204149D01*
X246013Y204455D01*
X245472Y204563D01*
X244932Y204455D01*
X244473Y204149D01*
X244167Y203690D01*
X244059Y203150D01*
X244104Y202926D01*
X238838Y197660D01*
X199654D01*
X199463Y198122D01*
X203122Y201781D01*
X203346Y201737D01*
X203887Y201844D01*
X204346Y202151D01*
X204652Y202609D01*
X204759Y203150D01*
X204652Y203690D01*
X204346Y204149D01*
X203887Y204455D01*
X203346Y204563D01*
X202806Y204455D01*
X202347Y204149D01*
X202041Y203690D01*
X201934Y203150D01*
X201978Y202926D01*
X197893Y198841D01*
X158709D01*
X158518Y199303D01*
X160996Y201781D01*
X161221Y201737D01*
X161761Y201844D01*
X162220Y202151D01*
X162526Y202609D01*
X162633Y203150D01*
X162526Y203690D01*
X162220Y204149D01*
X161761Y204455D01*
X161221Y204563D01*
X160680Y204455D01*
X160221Y204149D01*
X159915Y203690D01*
X159808Y203150D01*
X159852Y202926D01*
X156948Y200022D01*
X126123D01*
X123182Y202962D01*
Y204596D01*
X123120Y204906D01*
X122945Y205168D01*
X115945Y212168D01*
Y249150D01*
X116407Y249342D01*
X122264Y243484D01*
X122527Y243309D01*
X122836Y243247D01*
X122836Y243247D01*
X362468D01*
X362468Y243247D01*
X362658Y243285D01*
X402953D01*
X402953Y243285D01*
X403262Y243347D01*
X403525Y243522D01*
X413752Y253750D01*
X413976Y253705D01*
X414517Y253813D01*
X414976Y254119D01*
X415282Y254577D01*
X415389Y255118D01*
X415282Y255659D01*
X414976Y256117D01*
X414517Y256423D01*
X413976Y256531D01*
X413436Y256423D01*
X412977Y256117D01*
X412671Y255659D01*
X412563Y255118D01*
X412608Y254894D01*
X402618Y244904D01*
X363434D01*
X363242Y245366D01*
X371626Y253750D01*
X371850Y253705D01*
X372391Y253813D01*
X372849Y254119D01*
X373156Y254577D01*
X373263Y255118D01*
X373156Y255659D01*
X372849Y256117D01*
X372391Y256423D01*
X371850Y256531D01*
X371310Y256423D01*
X370851Y256117D01*
X370545Y255659D01*
X370437Y255118D01*
X370482Y254894D01*
X361673Y246085D01*
X322489D01*
X322298Y246547D01*
X329500Y253750D01*
X329724Y253705D01*
X330265Y253813D01*
X330724Y254119D01*
X331030Y254577D01*
X331137Y255118D01*
X331030Y255659D01*
X330724Y256117D01*
X330265Y256423D01*
X329724Y256531D01*
X329184Y256423D01*
X328725Y256117D01*
X328419Y255659D01*
X328311Y255118D01*
X328356Y254894D01*
X320728Y247266D01*
X281544D01*
X281353Y247728D01*
X287374Y253750D01*
X287598Y253705D01*
X288139Y253813D01*
X288597Y254119D01*
X288904Y254577D01*
X289011Y255118D01*
X288904Y255659D01*
X288597Y256117D01*
X288139Y256423D01*
X287598Y256531D01*
X287058Y256423D01*
X286599Y256117D01*
X286293Y255659D01*
X286185Y255118D01*
X286230Y254894D01*
X279764Y248428D01*
X240580D01*
X240389Y248890D01*
X245249Y253750D01*
X245472Y253705D01*
X246013Y253813D01*
X246472Y254119D01*
X246778Y254577D01*
X246885Y255118D01*
X246778Y255659D01*
X246472Y256117D01*
X246013Y256423D01*
X245472Y256531D01*
X244932Y256423D01*
X244473Y256117D01*
X244167Y255659D01*
X244059Y255118D01*
X244104Y254894D01*
X238838Y249628D01*
X199654D01*
X199463Y250090D01*
X203122Y253750D01*
X203346Y253705D01*
X203887Y253813D01*
X204346Y254119D01*
X204652Y254577D01*
X204759Y255118D01*
X204652Y255659D01*
X204346Y256117D01*
X203887Y256423D01*
X203346Y256531D01*
X202806Y256423D01*
X202347Y256117D01*
X202041Y255659D01*
X201934Y255118D01*
X201978Y254894D01*
X197893Y250809D01*
X158709D01*
X158518Y251271D01*
X160996Y253750D01*
X161221Y253705D01*
X161761Y253813D01*
X162220Y254119D01*
X162526Y254577D01*
X162633Y255118D01*
X162526Y255659D01*
X162220Y256117D01*
X161761Y256423D01*
X161221Y256531D01*
X160680Y256423D01*
X160221Y256117D01*
X159915Y255659D01*
X159808Y255118D01*
X159852Y254894D01*
X156948Y251990D01*
X126123D01*
X123182Y254931D01*
Y256564D01*
X123120Y256874D01*
X122945Y257137D01*
X115945Y264137D01*
Y277937D01*
X466734Y277937D01*
D02*
G37*
%LPC*%
G36*
X103937Y262180D02*
X103358Y262065D01*
X102867Y261737D01*
X102539Y261246D01*
X102424Y260667D01*
X102539Y260088D01*
X102867Y259597D01*
X103358Y259269D01*
X103937Y259154D01*
X104516Y259269D01*
X105007Y259597D01*
X105335Y260088D01*
X105450Y260667D01*
X105335Y261246D01*
X105007Y261737D01*
X104516Y262065D01*
X103937Y262180D01*
D02*
G37*
G36*
X99606D02*
X99027Y262065D01*
X98536Y261737D01*
X98208Y261246D01*
X98093Y260667D01*
X98208Y260088D01*
X98536Y259597D01*
X99027Y259269D01*
X99606Y259154D01*
X100185Y259269D01*
X100676Y259597D01*
X101004Y260088D01*
X101120Y260667D01*
X101004Y261246D01*
X100676Y261737D01*
X100185Y262065D01*
X99606Y262180D01*
D02*
G37*
G36*
X61588Y259232D02*
X61048Y259124D01*
X60589Y258818D01*
X60283Y258360D01*
X60175Y257819D01*
X60283Y257278D01*
X60589Y256820D01*
X61048Y256514D01*
X61588Y256406D01*
X62129Y256514D01*
X62587Y256820D01*
X62894Y257278D01*
X63001Y257819D01*
X62894Y258360D01*
X62587Y258818D01*
X62129Y259124D01*
X61588Y259232D01*
D02*
G37*
G36*
X103937Y257850D02*
X103358Y257735D01*
X102867Y257407D01*
X102539Y256916D01*
X102424Y256336D01*
X102539Y255757D01*
X102867Y255266D01*
X103358Y254938D01*
X103937Y254823D01*
X104516Y254938D01*
X105007Y255266D01*
X105335Y255757D01*
X105450Y256336D01*
X105335Y256916D01*
X105007Y257407D01*
X104516Y257735D01*
X103937Y257850D01*
D02*
G37*
G36*
X99606D02*
X99027Y257735D01*
X98536Y257407D01*
X98208Y256916D01*
X98093Y256336D01*
X98208Y255757D01*
X98536Y255266D01*
X99027Y254938D01*
X99606Y254823D01*
X100185Y254938D01*
X100676Y255266D01*
X101004Y255757D01*
X101120Y256336D01*
X101004Y256916D01*
X100676Y257407D01*
X100185Y257735D01*
X99606Y257850D01*
D02*
G37*
G36*
X54134Y251807D02*
X53593Y251699D01*
X53135Y251393D01*
X52828Y250934D01*
X52721Y250394D01*
X52828Y249853D01*
X53135Y249395D01*
X53593Y249088D01*
X54134Y248981D01*
X54675Y249088D01*
X54788Y249164D01*
X55148Y248803D01*
X54994Y248572D01*
X54886Y248031D01*
X54994Y247491D01*
X55300Y247032D01*
X55759Y246726D01*
X56299Y246619D01*
X56840Y246726D01*
X57298Y247032D01*
X57605Y247491D01*
X57712Y248031D01*
X57605Y248572D01*
X57298Y249031D01*
X56840Y249337D01*
X56299Y249445D01*
X55759Y249337D01*
X55645Y249261D01*
X55285Y249622D01*
X55439Y249853D01*
X55547Y250394D01*
X55439Y250934D01*
X55133Y251393D01*
X54675Y251699D01*
X54134Y251807D01*
D02*
G37*
G36*
X107677Y249051D02*
X107136Y248943D01*
X106678Y248637D01*
X106372Y248179D01*
X106264Y247638D01*
X106372Y247097D01*
X106678Y246639D01*
X107136Y246332D01*
X107677Y246225D01*
X108218Y246332D01*
X108676Y246639D01*
X108983Y247097D01*
X109090Y247638D01*
X108983Y248179D01*
X108676Y248637D01*
X108218Y248943D01*
X107677Y249051D01*
D02*
G37*
G36*
X75000Y248757D02*
X74421Y248642D01*
X73930Y248314D01*
X73602Y247823D01*
X73487Y247244D01*
X73602Y246665D01*
X73930Y246174D01*
X74421Y245846D01*
X75000Y245731D01*
X75579Y245846D01*
X76070Y246174D01*
X76398Y246665D01*
X76513Y247244D01*
X76398Y247823D01*
X76070Y248314D01*
X75579Y248642D01*
X75000Y248757D01*
D02*
G37*
G36*
X66339D02*
X65759Y248642D01*
X65268Y248314D01*
X64940Y247823D01*
X64825Y247244D01*
X64940Y246665D01*
X65268Y246174D01*
X65759Y245846D01*
X66339Y245731D01*
X66918Y245846D01*
X67409Y246174D01*
X67737Y246665D01*
X67852Y247244D01*
X67737Y247823D01*
X67409Y248314D01*
X66918Y248642D01*
X66339Y248757D01*
D02*
G37*
G36*
X70669Y248757D02*
X70090Y248642D01*
X69599Y248314D01*
X69271Y247823D01*
X69156Y247244D01*
X69271Y246665D01*
X69599Y246174D01*
X70090Y245846D01*
X70669Y245731D01*
X71248Y245846D01*
X71739Y246174D01*
X72067Y246665D01*
X72183Y247244D01*
X72067Y247823D01*
X71739Y248314D01*
X71248Y248642D01*
X70669Y248757D01*
D02*
G37*
G36*
X101378Y246295D02*
X100837Y246187D01*
X100379Y245881D01*
X100073Y245423D01*
X99965Y244882D01*
X100073Y244341D01*
X100379Y243883D01*
X100837Y243577D01*
X101378Y243469D01*
X101919Y243577D01*
X102377Y243883D01*
X102683Y244341D01*
X102791Y244882D01*
X102683Y245423D01*
X102377Y245881D01*
X101919Y246187D01*
X101378Y246295D01*
D02*
G37*
G36*
X51575Y244326D02*
X51034Y244219D01*
X50576Y243913D01*
X50269Y243454D01*
X50162Y242913D01*
X50269Y242373D01*
X50576Y241914D01*
X51034Y241608D01*
X51575Y241500D01*
X52115Y241608D01*
X52574Y241914D01*
X52880Y242373D01*
X52988Y242913D01*
X52880Y243454D01*
X52574Y243913D01*
X52115Y244219D01*
X51575Y244326D01*
D02*
G37*
G36*
X75000Y244427D02*
X74421Y244311D01*
X73930Y243984D01*
X73602Y243493D01*
X73487Y242913D01*
X73602Y242334D01*
X73930Y241843D01*
X74421Y241515D01*
X75000Y241400D01*
X75579Y241515D01*
X76070Y241843D01*
X76398Y242334D01*
X76513Y242913D01*
X76398Y243493D01*
X76070Y243984D01*
X75579Y244311D01*
X75000Y244427D01*
D02*
G37*
G36*
X70669D02*
X70090Y244311D01*
X69599Y243984D01*
X69271Y243493D01*
X69156Y242913D01*
X69271Y242334D01*
X69599Y241843D01*
X70090Y241515D01*
X70669Y241400D01*
X71248Y241515D01*
X71739Y241843D01*
X72067Y242334D01*
X72183Y242913D01*
X72067Y243493D01*
X71739Y243984D01*
X71248Y244311D01*
X70669Y244427D01*
D02*
G37*
G36*
X66339D02*
X65759Y244311D01*
X65268Y243984D01*
X64940Y243493D01*
X64825Y242913D01*
X64940Y242334D01*
X65268Y241843D01*
X65759Y241515D01*
X66339Y241400D01*
X66918Y241515D01*
X67409Y241843D01*
X67737Y242334D01*
X67852Y242913D01*
X67737Y243493D01*
X67409Y243984D01*
X66918Y244311D01*
X66339Y244427D01*
D02*
G37*
G36*
X108894Y243198D02*
X108353Y243090D01*
X107895Y242784D01*
X107588Y242325D01*
X107481Y241785D01*
X107588Y241244D01*
X107895Y240786D01*
X108011Y240707D01*
Y240106D01*
X107895Y240028D01*
X107588Y239569D01*
X107481Y239029D01*
X107588Y238488D01*
X107895Y238030D01*
X108353Y237723D01*
X108894Y237616D01*
X109434Y237723D01*
X109893Y238030D01*
X110199Y238488D01*
X110307Y239029D01*
X110199Y239569D01*
X109893Y240028D01*
X109776Y240106D01*
Y240707D01*
X109893Y240786D01*
X110199Y241244D01*
X110307Y241785D01*
X110199Y242325D01*
X109893Y242784D01*
X109434Y243090D01*
X108894Y243198D01*
D02*
G37*
G36*
X70669Y240096D02*
X70090Y239981D01*
X69599Y239653D01*
X69271Y239162D01*
X69156Y238583D01*
X69271Y238003D01*
X69599Y237513D01*
X70090Y237185D01*
X70669Y237069D01*
X71248Y237185D01*
X71739Y237513D01*
X72067Y238003D01*
X72183Y238583D01*
X72067Y239162D01*
X71739Y239653D01*
X71248Y239981D01*
X70669Y240096D01*
D02*
G37*
G36*
X75000Y240096D02*
X74421Y239981D01*
X73930Y239653D01*
X73602Y239162D01*
X73487Y238583D01*
X73602Y238003D01*
X73930Y237513D01*
X74421Y237185D01*
X75000Y237069D01*
X75579Y237185D01*
X76070Y237513D01*
X76398Y238003D01*
X76513Y238583D01*
X76398Y239162D01*
X76070Y239653D01*
X75579Y239981D01*
X75000Y240096D01*
D02*
G37*
G36*
X66339D02*
X65759Y239981D01*
X65268Y239653D01*
X64940Y239162D01*
X64825Y238583D01*
X64940Y238003D01*
X65268Y237513D01*
X65759Y237185D01*
X66339Y237069D01*
X66918Y237185D01*
X67409Y237513D01*
X67737Y238003D01*
X67852Y238583D01*
X67737Y239162D01*
X67409Y239653D01*
X66918Y239981D01*
X66339Y240096D01*
D02*
G37*
G36*
X51575Y239208D02*
X51034Y239101D01*
X50576Y238794D01*
X50269Y238336D01*
X50162Y237795D01*
X50269Y237255D01*
X50576Y236796D01*
X51034Y236490D01*
X51575Y236382D01*
X52115Y236490D01*
X52574Y236796D01*
X52880Y237255D01*
X52988Y237795D01*
X52880Y238336D01*
X52574Y238794D01*
X52115Y239101D01*
X51575Y239208D01*
D02*
G37*
G36*
X42913Y237633D02*
X42373Y237526D01*
X41914Y237220D01*
X41608Y236761D01*
X41500Y236221D01*
X41608Y235680D01*
X41914Y235221D01*
X42373Y234915D01*
X42913Y234807D01*
X43454Y234915D01*
X43913Y235221D01*
X44219Y235680D01*
X44326Y236221D01*
X44219Y236761D01*
X43913Y237220D01*
X43454Y237526D01*
X42913Y237633D01*
D02*
G37*
G36*
X37992D02*
X37451Y237526D01*
X36993Y237220D01*
X36687Y236761D01*
X36579Y236221D01*
X36687Y235680D01*
X36993Y235221D01*
X37451Y234915D01*
X37992Y234807D01*
X38533Y234915D01*
X38991Y235221D01*
X39298Y235680D01*
X39405Y236221D01*
X39298Y236761D01*
X38991Y237220D01*
X38533Y237526D01*
X37992Y237633D01*
D02*
G37*
G36*
X32874Y237437D02*
X32333Y237329D01*
X31875Y237023D01*
X31569Y236564D01*
X31461Y236024D01*
X31569Y235483D01*
X31875Y235024D01*
X32333Y234718D01*
X32874Y234611D01*
X33415Y234718D01*
X33873Y235024D01*
X34179Y235483D01*
X34287Y236024D01*
X34179Y236564D01*
X33873Y237023D01*
X33415Y237329D01*
X32874Y237437D01*
D02*
G37*
G36*
X27953D02*
X27412Y237329D01*
X26954Y237023D01*
X26647Y236564D01*
X26540Y236024D01*
X26647Y235483D01*
X26954Y235024D01*
X27412Y234718D01*
X27953Y234611D01*
X28493Y234718D01*
X28952Y235024D01*
X29258Y235483D01*
X29366Y236024D01*
X29258Y236564D01*
X28952Y237023D01*
X28493Y237329D01*
X27953Y237437D01*
D02*
G37*
G36*
X22835D02*
X22294Y237329D01*
X21836Y237023D01*
X21529Y236564D01*
X21422Y236024D01*
X21529Y235483D01*
X21836Y235024D01*
X22294Y234718D01*
X22835Y234611D01*
X23375Y234718D01*
X23834Y235024D01*
X24140Y235483D01*
X24248Y236024D01*
X24140Y236564D01*
X23834Y237023D01*
X23375Y237329D01*
X22835Y237437D01*
D02*
G37*
G36*
X17913Y237043D02*
X17373Y236935D01*
X16914Y236629D01*
X16608Y236171D01*
X16500Y235630D01*
X16608Y235089D01*
X16914Y234631D01*
X17373Y234325D01*
X17913Y234217D01*
X18454Y234325D01*
X18913Y234631D01*
X19219Y235089D01*
X19326Y235630D01*
X19219Y236171D01*
X18913Y236629D01*
X18454Y236935D01*
X17913Y237043D01*
D02*
G37*
G36*
X103972Y235522D02*
X103393Y235407D01*
X102902Y235079D01*
X102574Y234588D01*
X102459Y234009D01*
X102574Y233430D01*
X102902Y232939D01*
X103393Y232611D01*
X103972Y232496D01*
X104551Y232611D01*
X105043Y232939D01*
X105370Y233430D01*
X105486Y234009D01*
X105370Y234588D01*
X105043Y235079D01*
X104551Y235407D01*
X103972Y235522D01*
D02*
G37*
G36*
X99642D02*
X99063Y235407D01*
X98572Y235079D01*
X98244Y234588D01*
X98128Y234009D01*
X98244Y233430D01*
X98572Y232939D01*
X99063Y232611D01*
X99642Y232496D01*
X100221Y232611D01*
X100712Y232939D01*
X101040Y233430D01*
X101155Y234009D01*
X101040Y234588D01*
X100712Y235079D01*
X100221Y235407D01*
X99642Y235522D01*
D02*
G37*
G36*
X103972Y231192D02*
X103393Y231076D01*
X102902Y230748D01*
X102574Y230257D01*
X102459Y229678D01*
X102574Y229099D01*
X102902Y228608D01*
X103393Y228280D01*
X103972Y228165D01*
X104551Y228280D01*
X105043Y228608D01*
X105370Y229099D01*
X105486Y229678D01*
X105370Y230257D01*
X105043Y230748D01*
X104551Y231076D01*
X103972Y231192D01*
D02*
G37*
G36*
X99642D02*
X99063Y231076D01*
X98572Y230748D01*
X98244Y230257D01*
X98128Y229678D01*
X98244Y229099D01*
X98572Y228608D01*
X99063Y228280D01*
X99642Y228165D01*
X100221Y228280D01*
X100712Y228608D01*
X101040Y229099D01*
X101155Y229678D01*
X101040Y230257D01*
X100712Y230748D01*
X100221Y231076D01*
X99642Y231192D01*
D02*
G37*
G36*
X65354Y229366D02*
X64814Y229258D01*
X64355Y228952D01*
X64049Y228493D01*
X63941Y227953D01*
X64049Y227412D01*
X64355Y226954D01*
X64814Y226647D01*
X65354Y226540D01*
X65895Y226647D01*
X66353Y226954D01*
X66660Y227412D01*
X66767Y227953D01*
X66660Y228493D01*
X66353Y228952D01*
X65895Y229258D01*
X65354Y229366D01*
D02*
G37*
G36*
X46457D02*
X45916Y229258D01*
X45458Y228952D01*
X45151Y228493D01*
X45044Y227953D01*
X45151Y227412D01*
X45458Y226954D01*
X45916Y226647D01*
X46457Y226540D01*
X46997Y226647D01*
X47456Y226954D01*
X47762Y227412D01*
X47870Y227953D01*
X47762Y228493D01*
X47456Y228952D01*
X46997Y229258D01*
X46457Y229366D01*
D02*
G37*
G36*
X14370D02*
X13829Y229258D01*
X13371Y228952D01*
X13065Y228493D01*
X12957Y227953D01*
X13065Y227412D01*
X13371Y226954D01*
X13829Y226647D01*
X14370Y226540D01*
X14911Y226647D01*
X15369Y226954D01*
X15676Y227412D01*
X15783Y227953D01*
X15676Y228493D01*
X15369Y228952D01*
X14911Y229258D01*
X14370Y229366D01*
D02*
G37*
G36*
X107677Y222279D02*
X107136Y222171D01*
X106678Y221865D01*
X106372Y221407D01*
X106264Y220866D01*
X106372Y220325D01*
X106678Y219867D01*
X107136Y219561D01*
X107677Y219453D01*
X108218Y219561D01*
X108676Y219867D01*
X108983Y220325D01*
X109090Y220866D01*
X108983Y221407D01*
X108676Y221865D01*
X108218Y222171D01*
X107677Y222279D01*
D02*
G37*
G36*
X98622D02*
X98081Y222171D01*
X97623Y221865D01*
X97317Y221407D01*
X97209Y220866D01*
X97317Y220325D01*
X97623Y219867D01*
X98081Y219561D01*
X98622Y219453D01*
X99163Y219561D01*
X99621Y219867D01*
X99927Y220325D01*
X100035Y220866D01*
X99927Y221407D01*
X99621Y221865D01*
X99163Y222171D01*
X98622Y222279D01*
D02*
G37*
G36*
X49016Y215980D02*
X48475Y215872D01*
X48017Y215566D01*
X47710Y215108D01*
X47603Y214567D01*
X47710Y214026D01*
X48017Y213568D01*
X48475Y213262D01*
X49016Y213154D01*
X49556Y213262D01*
X50015Y213568D01*
X50321Y214026D01*
X50429Y214567D01*
X50321Y215108D01*
X50015Y215566D01*
X49556Y215872D01*
X49016Y215980D01*
D02*
G37*
G36*
X40945D02*
X40404Y215872D01*
X39946Y215566D01*
X39639Y215108D01*
X39532Y214567D01*
X39639Y214026D01*
X39946Y213568D01*
X40404Y213262D01*
X40945Y213154D01*
X41486Y213262D01*
X41944Y213568D01*
X42250Y214026D01*
X42358Y214567D01*
X42250Y215108D01*
X41944Y215566D01*
X41486Y215872D01*
X40945Y215980D01*
D02*
G37*
G36*
X25394D02*
X24853Y215872D01*
X24395Y215566D01*
X24088Y215108D01*
X23981Y214567D01*
X24088Y214026D01*
X24395Y213568D01*
X24853Y213262D01*
X25394Y213154D01*
X25934Y213262D01*
X26393Y213568D01*
X26699Y214026D01*
X26807Y214567D01*
X26699Y215108D01*
X26393Y215566D01*
X25934Y215872D01*
X25394Y215980D01*
D02*
G37*
G36*
X14370D02*
X13829Y215872D01*
X13371Y215566D01*
X13065Y215108D01*
X12957Y214567D01*
X13065Y214026D01*
X13371Y213568D01*
X13829Y213262D01*
X14370Y213154D01*
X14911Y213262D01*
X15369Y213568D01*
X15676Y214026D01*
X15783Y214567D01*
X15676Y215108D01*
X15369Y215566D01*
X14911Y215872D01*
X14370Y215980D01*
D02*
G37*
G36*
X6102Y214090D02*
X5227Y213975D01*
X4411Y213637D01*
X3711Y213100D01*
X3174Y212400D01*
X2836Y211584D01*
X2721Y210709D01*
X2836Y209833D01*
X3174Y209018D01*
X3711Y208317D01*
X4411Y207780D01*
X5227Y207442D01*
X6102Y207327D01*
X6978Y207442D01*
X7793Y207780D01*
X8494Y208317D01*
X9031Y209018D01*
X9369Y209833D01*
X9484Y210709D01*
X9369Y211584D01*
X9031Y212400D01*
X8494Y213100D01*
X7793Y213637D01*
X6978Y213975D01*
X6102Y214090D01*
D02*
G37*
G36*
X28543Y213161D02*
X27786Y213062D01*
X27081Y212769D01*
X26475Y212304D01*
X26010Y211699D01*
X25718Y210993D01*
X25618Y210236D01*
X25718Y209479D01*
X26010Y208774D01*
X26475Y208168D01*
X27081Y207703D01*
X27786Y207411D01*
X28543Y207311D01*
X29300Y207411D01*
X30006Y207703D01*
X30612Y208168D01*
X31076Y208774D01*
X31369Y209479D01*
X31468Y210236D01*
X31369Y210993D01*
X31076Y211699D01*
X30612Y212304D01*
X30006Y212769D01*
X29300Y213062D01*
X28543Y213161D01*
D02*
G37*
G36*
X103937Y210253D02*
X103358Y210138D01*
X102867Y209810D01*
X102539Y209319D01*
X102424Y208740D01*
X102539Y208161D01*
X102867Y207670D01*
X103358Y207342D01*
X103937Y207227D01*
X104516Y207342D01*
X105007Y207670D01*
X105335Y208161D01*
X105450Y208740D01*
X105335Y209319D01*
X105007Y209810D01*
X104516Y210138D01*
X103937Y210253D01*
D02*
G37*
G36*
X99606D02*
X99027Y210138D01*
X98536Y209810D01*
X98208Y209319D01*
X98093Y208740D01*
X98208Y208161D01*
X98536Y207670D01*
X99027Y207342D01*
X99606Y207227D01*
X100185Y207342D01*
X100676Y207670D01*
X101004Y208161D01*
X101120Y208740D01*
X101004Y209319D01*
X100676Y209810D01*
X100185Y210138D01*
X99606Y210253D01*
D02*
G37*
G36*
X61614Y207318D02*
X61073Y207211D01*
X60615Y206905D01*
X60309Y206446D01*
X60201Y205906D01*
X60309Y205365D01*
X60615Y204906D01*
X61073Y204600D01*
X61614Y204492D01*
X62155Y204600D01*
X62613Y204906D01*
X62920Y205365D01*
X63027Y205906D01*
X62920Y206446D01*
X62613Y206905D01*
X62155Y207211D01*
X61614Y207318D01*
D02*
G37*
G36*
X103937Y205923D02*
X103358Y205807D01*
X102867Y205479D01*
X102539Y204988D01*
X102424Y204409D01*
X102539Y203830D01*
X102867Y203339D01*
X103358Y203011D01*
X103937Y202896D01*
X104516Y203011D01*
X105007Y203339D01*
X105335Y203830D01*
X105450Y204409D01*
X105335Y204988D01*
X105007Y205479D01*
X104516Y205807D01*
X103937Y205923D01*
D02*
G37*
G36*
X99606D02*
X99027Y205807D01*
X98536Y205479D01*
X98208Y204988D01*
X98093Y204409D01*
X98208Y203830D01*
X98536Y203339D01*
X99027Y203011D01*
X99606Y202896D01*
X100185Y203011D01*
X100676Y203339D01*
X101004Y203830D01*
X101120Y204409D01*
X101004Y204988D01*
X100676Y205479D01*
X100185Y205807D01*
X99606Y205923D01*
D02*
G37*
G36*
X48819Y205547D02*
X48278Y205439D01*
X47820Y205133D01*
X47513Y204675D01*
X47406Y204134D01*
X47513Y203593D01*
X47820Y203135D01*
X48278Y202828D01*
X48819Y202721D01*
X49360Y202828D01*
X49818Y203135D01*
X50124Y203593D01*
X50232Y204134D01*
X50124Y204675D01*
X49818Y205133D01*
X49360Y205439D01*
X48819Y205547D01*
D02*
G37*
G36*
X40354D02*
X39814Y205439D01*
X39355Y205133D01*
X39049Y204675D01*
X38941Y204134D01*
X39049Y203593D01*
X39355Y203135D01*
X39814Y202828D01*
X40354Y202721D01*
X40895Y202828D01*
X41353Y203135D01*
X41660Y203593D01*
X41767Y204134D01*
X41660Y204675D01*
X41353Y205133D01*
X40895Y205439D01*
X40354Y205547D01*
D02*
G37*
G36*
X28543Y205287D02*
X27786Y205188D01*
X27081Y204895D01*
X26475Y204431D01*
X26010Y203825D01*
X25718Y203119D01*
X25618Y202362D01*
X25718Y201605D01*
X26010Y200900D01*
X26475Y200294D01*
X27081Y199829D01*
X27786Y199537D01*
X28543Y199437D01*
X29300Y199537D01*
X30006Y199829D01*
X30612Y200294D01*
X31076Y200900D01*
X31369Y201605D01*
X31468Y202362D01*
X31369Y203119D01*
X31076Y203825D01*
X30612Y204431D01*
X30006Y204895D01*
X29300Y205188D01*
X28543Y205287D01*
D02*
G37*
G36*
X6102Y204090D02*
X5227Y203975D01*
X4411Y203637D01*
X3711Y203100D01*
X3174Y202399D01*
X2836Y201584D01*
X2721Y200709D01*
X2836Y199833D01*
X3174Y199018D01*
X3711Y198317D01*
X4411Y197780D01*
X5227Y197442D01*
X6102Y197327D01*
X6978Y197442D01*
X7793Y197780D01*
X8494Y198317D01*
X9031Y199018D01*
X9369Y199833D01*
X9484Y200709D01*
X9369Y201584D01*
X9031Y202399D01*
X8494Y203100D01*
X7793Y203637D01*
X6978Y203975D01*
X6102Y204090D01*
D02*
G37*
G36*
X54134Y199838D02*
X53593Y199731D01*
X53135Y199424D01*
X52828Y198966D01*
X52721Y198425D01*
X52828Y197885D01*
X53135Y197426D01*
X53593Y197120D01*
X54134Y197012D01*
X54675Y197120D01*
X54788Y197195D01*
X55148Y196835D01*
X54994Y196604D01*
X54886Y196063D01*
X54994Y195522D01*
X55300Y195064D01*
X55759Y194758D01*
X56299Y194650D01*
X56840Y194758D01*
X57298Y195064D01*
X57605Y195522D01*
X57712Y196063D01*
X57605Y196604D01*
X57298Y197062D01*
X56840Y197368D01*
X56299Y197476D01*
X55759Y197368D01*
X55645Y197293D01*
X55285Y197653D01*
X55439Y197885D01*
X55547Y198425D01*
X55439Y198966D01*
X55133Y199424D01*
X54675Y199731D01*
X54134Y199838D01*
D02*
G37*
G36*
X107677Y197082D02*
X107136Y196975D01*
X106678Y196668D01*
X106372Y196210D01*
X106264Y195669D01*
X106372Y195129D01*
X106678Y194670D01*
X107136Y194364D01*
X107677Y194256D01*
X108218Y194364D01*
X108676Y194670D01*
X108983Y195129D01*
X109090Y195669D01*
X108983Y196210D01*
X108676Y196668D01*
X108218Y196975D01*
X107677Y197082D01*
D02*
G37*
G36*
X70669Y196789D02*
X70090Y196674D01*
X69599Y196346D01*
X69271Y195855D01*
X69156Y195276D01*
X69271Y194696D01*
X69599Y194205D01*
X70090Y193877D01*
X70669Y193762D01*
X71248Y193877D01*
X71739Y194205D01*
X72067Y194696D01*
X72183Y195276D01*
X72067Y195855D01*
X71739Y196346D01*
X71248Y196674D01*
X70669Y196789D01*
D02*
G37*
G36*
X75000Y196789D02*
X74421Y196674D01*
X73930Y196346D01*
X73602Y195855D01*
X73487Y195276D01*
X73602Y194696D01*
X73930Y194205D01*
X74421Y193877D01*
X75000Y193762D01*
X75579Y193877D01*
X76070Y194205D01*
X76398Y194696D01*
X76513Y195276D01*
X76398Y195855D01*
X76070Y196346D01*
X75579Y196674D01*
X75000Y196789D01*
D02*
G37*
G36*
X66339D02*
X65759Y196674D01*
X65268Y196346D01*
X64940Y195855D01*
X64825Y195276D01*
X64940Y194696D01*
X65268Y194205D01*
X65759Y193877D01*
X66339Y193762D01*
X66918Y193877D01*
X67409Y194205D01*
X67737Y194696D01*
X67852Y195276D01*
X67737Y195855D01*
X67409Y196346D01*
X66918Y196674D01*
X66339Y196789D01*
D02*
G37*
G36*
X101378Y194326D02*
X100837Y194219D01*
X100379Y193912D01*
X100073Y193454D01*
X99965Y192913D01*
X100073Y192373D01*
X100339Y191974D01*
X100260Y191748D01*
X100091Y191513D01*
X99803Y191570D01*
X99262Y191463D01*
X98804Y191157D01*
X98677Y190967D01*
X91142D01*
X91142Y190967D01*
X90832Y190905D01*
X90570Y190730D01*
X81121Y181281D01*
X80945Y181018D01*
X80884Y180709D01*
X80884Y180709D01*
Y165690D01*
X70164Y154970D01*
X70037Y154779D01*
X70007Y154773D01*
X69549Y154467D01*
X69242Y154009D01*
X69135Y153468D01*
X69242Y152927D01*
X69549Y152469D01*
X70007Y152163D01*
X70548Y152055D01*
X71088Y152163D01*
X71547Y152469D01*
X71625Y152586D01*
X72226D01*
X72304Y152469D01*
X72763Y152163D01*
X73304Y152055D01*
X73844Y152163D01*
X74303Y152469D01*
X74381Y152586D01*
X74982D01*
X75060Y152469D01*
X75519Y152163D01*
X76060Y152055D01*
X76600Y152163D01*
X77059Y152469D01*
X77423D01*
X77881Y152163D01*
X78422Y152055D01*
X78962Y152163D01*
X79421Y152469D01*
X79727Y152927D01*
X79835Y153468D01*
X79727Y154009D01*
X79425Y154461D01*
X86670Y161707D01*
X87170Y161500D01*
Y148354D01*
X86768Y147952D01*
X86235Y147850D01*
X85777Y148156D01*
X85236Y148263D01*
X84696Y148156D01*
X84237Y147850D01*
X83931Y147391D01*
X83823Y146850D01*
X83931Y146310D01*
X84237Y145851D01*
X84354Y145773D01*
Y145172D01*
X84237Y145094D01*
X83931Y144635D01*
X83823Y144095D01*
X83931Y143554D01*
X84237Y143095D01*
X84354Y143017D01*
Y142416D01*
X84237Y142338D01*
X83931Y141879D01*
X83823Y141339D01*
X83931Y140798D01*
X84237Y140340D01*
Y139976D01*
X83931Y139517D01*
X83823Y138976D01*
X83931Y138436D01*
X84237Y137977D01*
X84696Y137671D01*
X85236Y137563D01*
X85777Y137671D01*
X86235Y137977D01*
X86362Y138167D01*
X89173D01*
X89173Y138167D01*
X89483Y138229D01*
X89745Y138404D01*
X92108Y140766D01*
X92108Y140766D01*
X92283Y141029D01*
X92345Y141339D01*
X92345Y141339D01*
Y142390D01*
X92351Y142421D01*
X92351Y142422D01*
Y162663D01*
X97611Y167923D01*
X97835Y167878D01*
X98375Y167986D01*
X98834Y168292D01*
X99140Y168751D01*
X99248Y169291D01*
X99140Y169832D01*
X98834Y170291D01*
X98375Y170597D01*
X97835Y170704D01*
X97294Y170597D01*
X96836Y170291D01*
X96529Y169832D01*
X96422Y169291D01*
X96466Y169067D01*
X91625Y164227D01*
X91164Y164418D01*
Y168956D01*
X94461Y172254D01*
X94685Y172209D01*
X95226Y172317D01*
X95684Y172623D01*
X95990Y173081D01*
X96098Y173622D01*
X95990Y174163D01*
X95684Y174621D01*
X95226Y174927D01*
X94685Y175035D01*
X94144Y174927D01*
X93686Y174621D01*
X93380Y174163D01*
X93272Y173622D01*
X93317Y173398D01*
X90438Y170520D01*
X89976Y170711D01*
Y175249D01*
X91312Y176584D01*
X91535Y176540D01*
X92076Y176647D01*
X92535Y176954D01*
X92841Y177412D01*
X92948Y177953D01*
X92841Y178493D01*
X92535Y178952D01*
X92076Y179258D01*
X91535Y179366D01*
X91453Y179349D01*
X91071Y179687D01*
Y180155D01*
X91453Y180493D01*
X91535Y180477D01*
X92076Y180584D01*
X92535Y180891D01*
X92841Y181349D01*
X92948Y181890D01*
X92841Y182431D01*
X92535Y182889D01*
X92076Y183195D01*
X91535Y183303D01*
X91373Y183270D01*
X90948Y183696D01*
X90980Y183858D01*
X90872Y184399D01*
X90566Y184857D01*
X90167Y185124D01*
X90014Y185471D01*
X89966Y185630D01*
X90535Y186199D01*
X93559D01*
X93686Y186009D01*
X94144Y185702D01*
X94685Y185595D01*
X95226Y185702D01*
X95684Y186009D01*
X95990Y186467D01*
X96098Y187008D01*
X95990Y187549D01*
X95684Y188007D01*
X95226Y188313D01*
X94685Y188421D01*
X94144Y188313D01*
X93686Y188007D01*
X93559Y187817D01*
X90653D01*
X90446Y188317D01*
X91477Y189348D01*
X98677D01*
X98804Y189158D01*
X99262Y188852D01*
X99803Y188744D01*
X100344Y188852D01*
X100802Y189158D01*
X101109Y189617D01*
X101216Y190157D01*
X101109Y190698D01*
X100842Y191097D01*
X100921Y191322D01*
X101090Y191558D01*
X101378Y191500D01*
X101919Y191608D01*
X102377Y191914D01*
X102683Y192373D01*
X102791Y192913D01*
X102683Y193454D01*
X102377Y193912D01*
X101919Y194219D01*
X101378Y194326D01*
D02*
G37*
G36*
X75000Y192458D02*
X74421Y192343D01*
X73930Y192015D01*
X73602Y191524D01*
X73487Y190945D01*
X73602Y190366D01*
X73930Y189875D01*
X74421Y189547D01*
X75000Y189432D01*
X75579Y189547D01*
X76070Y189875D01*
X76398Y190366D01*
X76513Y190945D01*
X76398Y191524D01*
X76070Y192015D01*
X75579Y192343D01*
X75000Y192458D01*
D02*
G37*
G36*
X70669D02*
X70090Y192343D01*
X69599Y192015D01*
X69271Y191524D01*
X69156Y190945D01*
X69271Y190366D01*
X69599Y189875D01*
X70090Y189547D01*
X70669Y189432D01*
X71248Y189547D01*
X71739Y189875D01*
X72067Y190366D01*
X72183Y190945D01*
X72067Y191524D01*
X71739Y192015D01*
X71248Y192343D01*
X70669Y192458D01*
D02*
G37*
G36*
X66339D02*
X65759Y192343D01*
X65268Y192015D01*
X64940Y191524D01*
X64825Y190945D01*
X64940Y190366D01*
X65268Y189875D01*
X65759Y189547D01*
X66339Y189432D01*
X66918Y189547D01*
X67409Y189875D01*
X67737Y190366D01*
X67852Y190945D01*
X67737Y191524D01*
X67409Y192015D01*
X66918Y192343D01*
X66339Y192458D01*
D02*
G37*
G36*
X108894Y191229D02*
X108353Y191121D01*
X107895Y190815D01*
X107588Y190357D01*
X107481Y189816D01*
X107588Y189275D01*
X107895Y188817D01*
X108011Y188739D01*
Y188137D01*
X107895Y188059D01*
X107588Y187601D01*
X107481Y187060D01*
X107588Y186520D01*
X107895Y186061D01*
X108353Y185755D01*
X108894Y185647D01*
X109434Y185755D01*
X109893Y186061D01*
X110199Y186520D01*
X110307Y187060D01*
X110199Y187601D01*
X109893Y188059D01*
X109776Y188137D01*
Y188739D01*
X109893Y188817D01*
X110199Y189275D01*
X110307Y189816D01*
X110199Y190357D01*
X109893Y190815D01*
X109434Y191121D01*
X108894Y191229D01*
D02*
G37*
G36*
X75000Y188128D02*
X74421Y188012D01*
X73930Y187684D01*
X73602Y187193D01*
X73487Y186614D01*
X73602Y186035D01*
X73930Y185544D01*
X74421Y185216D01*
X75000Y185101D01*
X75579Y185216D01*
X76070Y185544D01*
X76398Y186035D01*
X76513Y186614D01*
X76398Y187193D01*
X76070Y187684D01*
X75579Y188012D01*
X75000Y188128D01*
D02*
G37*
G36*
X70669D02*
X70090Y188012D01*
X69599Y187684D01*
X69271Y187193D01*
X69156Y186614D01*
X69271Y186035D01*
X69599Y185544D01*
X70090Y185216D01*
X70669Y185101D01*
X71248Y185216D01*
X71739Y185544D01*
X72067Y186035D01*
X72183Y186614D01*
X72067Y187193D01*
X71739Y187684D01*
X71248Y188012D01*
X70669Y188128D01*
D02*
G37*
G36*
X66339D02*
X65759Y188012D01*
X65268Y187684D01*
X64940Y187193D01*
X64825Y186614D01*
X64940Y186035D01*
X65268Y185544D01*
X65759Y185216D01*
X66339Y185101D01*
X66918Y185216D01*
X67409Y185544D01*
X67737Y186035D01*
X67852Y186614D01*
X67737Y187193D01*
X67409Y187684D01*
X66918Y188012D01*
X66339Y188128D01*
D02*
G37*
G36*
X51772Y187043D02*
X51231Y186935D01*
X50773Y186629D01*
X50466Y186171D01*
X50359Y185630D01*
X50466Y185089D01*
X50773Y184631D01*
X51231Y184325D01*
X51772Y184217D01*
X52312Y184325D01*
X52771Y184631D01*
X53077Y185089D01*
X53185Y185630D01*
X53077Y186171D01*
X52771Y186629D01*
X52312Y186935D01*
X51772Y187043D01*
D02*
G37*
G36*
X103972Y183554D02*
X103393Y183439D01*
X102902Y183111D01*
X102574Y182620D01*
X102459Y182041D01*
X102574Y181461D01*
X102902Y180970D01*
X103393Y180642D01*
X103972Y180527D01*
X104551Y180642D01*
X105043Y180970D01*
X105370Y181461D01*
X105486Y182041D01*
X105370Y182620D01*
X105043Y183111D01*
X104551Y183439D01*
X103972Y183554D01*
D02*
G37*
G36*
X99642D02*
X99063Y183439D01*
X98572Y183111D01*
X98244Y182620D01*
X98128Y182041D01*
X98244Y181461D01*
X98572Y180970D01*
X99063Y180642D01*
X99642Y180527D01*
X100221Y180642D01*
X100712Y180970D01*
X101040Y181461D01*
X101155Y182041D01*
X101040Y182620D01*
X100712Y183111D01*
X100221Y183439D01*
X99642Y183554D01*
D02*
G37*
G36*
X6102Y194090D02*
X5227Y193975D01*
X4411Y193637D01*
X3711Y193100D01*
X3174Y192400D01*
X2836Y191584D01*
X2721Y190709D01*
X2836Y189833D01*
X3174Y189018D01*
X3711Y188317D01*
X4411Y187780D01*
X5227Y187442D01*
X6102Y187327D01*
X6978Y187442D01*
X7793Y187780D01*
X8494Y188317D01*
X9031Y189018D01*
X9313Y189699D01*
X11038D01*
X12573Y188164D01*
Y180905D01*
Y151993D01*
X10802Y150223D01*
X9313D01*
X9031Y150903D01*
X8494Y151604D01*
X7793Y152141D01*
X6978Y152479D01*
X6102Y152594D01*
X5227Y152479D01*
X4411Y152141D01*
X3711Y151604D01*
X3174Y150903D01*
X2836Y150088D01*
X2721Y149213D01*
X2836Y148337D01*
X3174Y147522D01*
X3711Y146821D01*
X4411Y146284D01*
X5227Y145946D01*
X6102Y145831D01*
X6978Y145946D01*
X7793Y146284D01*
X8494Y146821D01*
X9031Y147522D01*
X9313Y148203D01*
X11220D01*
X11607Y148280D01*
X11935Y148498D01*
X14297Y150861D01*
X14516Y151188D01*
X14593Y151575D01*
Y179896D01*
X26116D01*
X26475Y179428D01*
X27081Y178963D01*
X27786Y178671D01*
X28543Y178571D01*
X29300Y178671D01*
X30006Y178963D01*
X30612Y179428D01*
X31076Y180034D01*
X31369Y180739D01*
X31468Y181496D01*
X31369Y182253D01*
X31076Y182959D01*
X30612Y183564D01*
X30006Y184029D01*
X29300Y184321D01*
X28543Y184421D01*
X27786Y184321D01*
X27081Y184029D01*
X26475Y183564D01*
X26010Y182959D01*
X25718Y182253D01*
X25673Y181915D01*
X14593D01*
Y188583D01*
X14516Y188969D01*
X14297Y189297D01*
X12171Y191423D01*
X11843Y191642D01*
X11457Y191719D01*
X9313D01*
X9031Y192400D01*
X8494Y193100D01*
X7793Y193637D01*
X6978Y193975D01*
X6102Y194090D01*
D02*
G37*
G36*
X9455Y184061D02*
X2750D01*
Y177356D01*
X9455D01*
Y184061D01*
D02*
G37*
G36*
X103972Y179223D02*
X103393Y179108D01*
X102902Y178780D01*
X102574Y178289D01*
X102459Y177710D01*
X102574Y177131D01*
X102902Y176640D01*
X103393Y176312D01*
X103972Y176197D01*
X104551Y176312D01*
X105043Y176640D01*
X105370Y177131D01*
X105486Y177710D01*
X105370Y178289D01*
X105043Y178780D01*
X104551Y179108D01*
X103972Y179223D01*
D02*
G37*
G36*
X99642D02*
X99063Y179108D01*
X98572Y178780D01*
X98244Y178289D01*
X98128Y177710D01*
X98244Y177131D01*
X98572Y176640D01*
X99063Y176312D01*
X99642Y176197D01*
X100221Y176312D01*
X100712Y176640D01*
X101040Y177131D01*
X101155Y177710D01*
X101040Y178289D01*
X100712Y178780D01*
X100221Y179108D01*
X99642Y179223D01*
D02*
G37*
G36*
X65083Y177242D02*
X64542Y177135D01*
X64084Y176828D01*
X63777Y176370D01*
X63670Y175829D01*
X63777Y175289D01*
X64084Y174830D01*
X64542Y174524D01*
X65083Y174416D01*
X65623Y174524D01*
X66082Y174830D01*
X66388Y175289D01*
X66496Y175829D01*
X66388Y176370D01*
X66082Y176828D01*
X65623Y177135D01*
X65083Y177242D01*
D02*
G37*
G36*
X28543Y176547D02*
X27786Y176447D01*
X27081Y176155D01*
X26475Y175690D01*
X26010Y175084D01*
X25718Y174379D01*
X25618Y173622D01*
X25718Y172865D01*
X26010Y172160D01*
X26475Y171554D01*
X27081Y171089D01*
X27786Y170797D01*
X28543Y170697D01*
X29300Y170797D01*
X30006Y171089D01*
X30612Y171554D01*
X31076Y172160D01*
X31369Y172865D01*
X31468Y173622D01*
X31369Y174379D01*
X31076Y175084D01*
X30612Y175690D01*
X30006Y176155D01*
X29300Y176447D01*
X28543Y176547D01*
D02*
G37*
G36*
X107283Y170311D02*
X106743Y170203D01*
X106284Y169897D01*
X105978Y169438D01*
X105870Y168898D01*
X105978Y168357D01*
X106284Y167898D01*
X106743Y167592D01*
X107283Y167485D01*
X107824Y167592D01*
X108283Y167898D01*
X108589Y168357D01*
X108696Y168898D01*
X108589Y169438D01*
X108283Y169897D01*
X107824Y170203D01*
X107283Y170311D01*
D02*
G37*
G36*
X24213Y168933D02*
X23672Y168825D01*
X23213Y168519D01*
X22907Y168060D01*
X22800Y167520D01*
X22907Y166979D01*
X23213Y166521D01*
X23672Y166214D01*
X24213Y166107D01*
X24753Y166214D01*
X25212Y166521D01*
X25518Y166979D01*
X25626Y167520D01*
X25518Y168060D01*
X25212Y168519D01*
X24753Y168825D01*
X24213Y168933D01*
D02*
G37*
G36*
X6102Y172594D02*
X5227Y172479D01*
X4411Y172141D01*
X3711Y171604D01*
X3174Y170903D01*
X2836Y170088D01*
X2721Y169213D01*
X2836Y168337D01*
X3174Y167522D01*
X3711Y166821D01*
X4411Y166284D01*
X5227Y165946D01*
X6102Y165831D01*
X6978Y165946D01*
X7793Y166284D01*
X8494Y166821D01*
X9031Y167522D01*
X9369Y168337D01*
X9484Y169213D01*
X9369Y170088D01*
X9031Y170903D01*
X8494Y171604D01*
X7793Y172141D01*
X6978Y172479D01*
X6102Y172594D01*
D02*
G37*
G36*
X101181Y167752D02*
X100640Y167644D01*
X100182Y167338D01*
X99876Y166879D01*
X99768Y166339D01*
X99876Y165798D01*
X100182Y165340D01*
X100640Y165033D01*
X101181Y164926D01*
X101722Y165033D01*
X102180Y165340D01*
X102487Y165798D01*
X102594Y166339D01*
X102487Y166879D01*
X102180Y167338D01*
X101722Y167644D01*
X101181Y167752D01*
D02*
G37*
G36*
X6102Y162594D02*
X5227Y162479D01*
X4411Y162141D01*
X3711Y161604D01*
X3174Y160903D01*
X2836Y160088D01*
X2721Y159213D01*
X2836Y158337D01*
X3174Y157522D01*
X3711Y156821D01*
X4411Y156284D01*
X5227Y155946D01*
X6102Y155831D01*
X6978Y155946D01*
X7793Y156284D01*
X8494Y156821D01*
X9031Y157522D01*
X9369Y158337D01*
X9484Y159213D01*
X9369Y160088D01*
X9031Y160903D01*
X8494Y161604D01*
X7793Y162141D01*
X6978Y162479D01*
X6102Y162594D01*
D02*
G37*
G36*
X103937Y158279D02*
X103358Y158163D01*
X102867Y157835D01*
X102539Y157344D01*
X102424Y156765D01*
X102539Y156186D01*
X102867Y155695D01*
X103358Y155367D01*
X103937Y155252D01*
X104516Y155367D01*
X105007Y155695D01*
X105335Y156186D01*
X105450Y156765D01*
X105335Y157344D01*
X105007Y157835D01*
X104516Y158163D01*
X103937Y158279D01*
D02*
G37*
G36*
X99606D02*
X99027Y158163D01*
X98536Y157835D01*
X98208Y157344D01*
X98093Y156765D01*
X98208Y156186D01*
X98536Y155695D01*
X99027Y155367D01*
X99606Y155252D01*
X100185Y155367D01*
X100676Y155695D01*
X101004Y156186D01*
X101120Y156765D01*
X101004Y157344D01*
X100676Y157835D01*
X100185Y158163D01*
X99606Y158279D01*
D02*
G37*
G36*
X62008Y155350D02*
X61467Y155242D01*
X61009Y154936D01*
X60702Y154478D01*
X60595Y153937D01*
X60702Y153396D01*
X61009Y152938D01*
X61467Y152632D01*
X62008Y152524D01*
X62549Y152632D01*
X63007Y152938D01*
X63313Y153396D01*
X63421Y153937D01*
X63313Y154478D01*
X63007Y154936D01*
X62549Y155242D01*
X62008Y155350D01*
D02*
G37*
G36*
X103937Y153948D02*
X103358Y153833D01*
X102867Y153505D01*
X102539Y153014D01*
X102424Y152434D01*
X102539Y151855D01*
X102867Y151364D01*
X103358Y151036D01*
X103937Y150921D01*
X104516Y151036D01*
X105007Y151364D01*
X105335Y151855D01*
X105450Y152434D01*
X105335Y153014D01*
X105007Y153505D01*
X104516Y153833D01*
X103937Y153948D01*
D02*
G37*
G36*
X99606D02*
X99027Y153833D01*
X98536Y153505D01*
X98208Y153014D01*
X98093Y152434D01*
X98208Y151855D01*
X98536Y151364D01*
X99027Y151036D01*
X99606Y150921D01*
X100185Y151036D01*
X100676Y151364D01*
X101004Y151855D01*
X101120Y152434D01*
X101004Y153014D01*
X100676Y153505D01*
X100185Y153833D01*
X99606Y153948D01*
D02*
G37*
G36*
X20472Y147870D02*
X19932Y147762D01*
X19473Y147456D01*
X19167Y146997D01*
X19060Y146457D01*
X19167Y145916D01*
X19473Y145458D01*
X19932Y145151D01*
X20472Y145044D01*
X21013Y145151D01*
X21472Y145458D01*
X21778Y145916D01*
X21885Y146457D01*
X21778Y146997D01*
X21472Y147456D01*
X21013Y147762D01*
X20472Y147870D01*
D02*
G37*
G36*
X54134D02*
X53593Y147762D01*
X53135Y147456D01*
X52828Y146997D01*
X52721Y146457D01*
X52828Y145916D01*
X53135Y145458D01*
X53593Y145151D01*
X54134Y145044D01*
X54675Y145151D01*
X54788Y145227D01*
X55148Y144867D01*
X54994Y144635D01*
X54886Y144095D01*
X54994Y143554D01*
X55300Y143095D01*
X55759Y142789D01*
X56299Y142682D01*
X56840Y142789D01*
X57298Y143095D01*
X57605Y143554D01*
X57712Y144095D01*
X57605Y144635D01*
X57298Y145094D01*
X56840Y145400D01*
X56299Y145507D01*
X55759Y145400D01*
X55645Y145324D01*
X55285Y145685D01*
X55439Y145916D01*
X55547Y146457D01*
X55439Y146997D01*
X55133Y147456D01*
X54675Y147762D01*
X54134Y147870D01*
D02*
G37*
G36*
X75000Y144820D02*
X74421Y144705D01*
X73930Y144377D01*
X73602Y143886D01*
X73487Y143307D01*
X73602Y142728D01*
X73930Y142237D01*
X74421Y141909D01*
X75000Y141794D01*
X75579Y141909D01*
X76070Y142237D01*
X76398Y142728D01*
X76513Y143307D01*
X76398Y143886D01*
X76070Y144377D01*
X75579Y144705D01*
X75000Y144820D01*
D02*
G37*
G36*
X66339D02*
X65759Y144705D01*
X65268Y144377D01*
X64940Y143886D01*
X64825Y143307D01*
X64940Y142728D01*
X65268Y142237D01*
X65759Y141909D01*
X66339Y141794D01*
X66918Y141909D01*
X67409Y142237D01*
X67737Y142728D01*
X67852Y143307D01*
X67737Y143886D01*
X67409Y144377D01*
X66918Y144705D01*
X66339Y144820D01*
D02*
G37*
G36*
X70669Y144820D02*
X70090Y144705D01*
X69599Y144377D01*
X69271Y143886D01*
X69156Y143307D01*
X69271Y142728D01*
X69599Y142237D01*
X70090Y141909D01*
X70669Y141794D01*
X71248Y141909D01*
X71739Y142237D01*
X72067Y142728D01*
X72183Y143307D01*
X72067Y143886D01*
X71739Y144377D01*
X71248Y144705D01*
X70669Y144820D01*
D02*
G37*
G36*
X106890Y144326D02*
X106349Y144219D01*
X105891Y143912D01*
X105584Y143454D01*
X105477Y142913D01*
X105584Y142373D01*
X105891Y141914D01*
X106349Y141608D01*
X106890Y141500D01*
X107431Y141608D01*
X107889Y141914D01*
X108195Y142373D01*
X108303Y142913D01*
X108195Y143454D01*
X107889Y143912D01*
X107431Y144219D01*
X106890Y144326D01*
D02*
G37*
G36*
X22047Y143736D02*
X21507Y143628D01*
X21048Y143322D01*
X20742Y142864D01*
X20634Y142323D01*
X20742Y141782D01*
X21048Y141324D01*
X21507Y141017D01*
X22047Y140910D01*
X22588Y141017D01*
X23046Y141324D01*
X23353Y141782D01*
X23460Y142323D01*
X23353Y142864D01*
X23046Y143322D01*
X22588Y143628D01*
X22047Y143736D01*
D02*
G37*
G36*
X100799Y141718D02*
X100259Y141610D01*
X99800Y141304D01*
X99494Y140846D01*
X99386Y140305D01*
X99494Y139764D01*
X99800Y139306D01*
X100259Y138999D01*
X100799Y138892D01*
X101340Y138999D01*
X101798Y139306D01*
X102105Y139764D01*
X102212Y140305D01*
X102105Y140846D01*
X101798Y141304D01*
X101340Y141610D01*
X100799Y141718D01*
D02*
G37*
G36*
X66339Y140490D02*
X65759Y140375D01*
X65268Y140047D01*
X64940Y139556D01*
X64825Y138976D01*
X64940Y138397D01*
X65268Y137906D01*
X65759Y137578D01*
X66339Y137463D01*
X66918Y137578D01*
X67409Y137906D01*
X67737Y138397D01*
X67852Y138976D01*
X67737Y139556D01*
X67409Y140047D01*
X66918Y140375D01*
X66339Y140490D01*
D02*
G37*
G36*
X75000Y140490D02*
X74421Y140375D01*
X73930Y140047D01*
X73602Y139556D01*
X73487Y138976D01*
X73602Y138397D01*
X73930Y137906D01*
X74421Y137578D01*
X75000Y137463D01*
X75579Y137578D01*
X76070Y137906D01*
X76398Y138397D01*
X76513Y138976D01*
X76398Y139556D01*
X76070Y140047D01*
X75579Y140375D01*
X75000Y140490D01*
D02*
G37*
G36*
X70669D02*
X70090Y140375D01*
X69599Y140047D01*
X69271Y139556D01*
X69156Y138976D01*
X69271Y138397D01*
X69599Y137906D01*
X70090Y137578D01*
X70669Y137463D01*
X71248Y137578D01*
X71739Y137906D01*
X72067Y138397D01*
X72183Y138976D01*
X72067Y139556D01*
X71739Y140047D01*
X71248Y140375D01*
X70669Y140490D01*
D02*
G37*
G36*
X9455Y142565D02*
X2750D01*
Y135860D01*
X9455D01*
Y142565D01*
D02*
G37*
G36*
X108894Y139261D02*
X108353Y139153D01*
X107895Y138847D01*
X107588Y138388D01*
X107481Y137848D01*
X107588Y137307D01*
X107895Y136848D01*
X108011Y136770D01*
Y136169D01*
X107895Y136091D01*
X107588Y135632D01*
X107481Y135092D01*
X107588Y134551D01*
X107895Y134093D01*
X108353Y133786D01*
X108894Y133679D01*
X109434Y133786D01*
X109893Y134093D01*
X110199Y134551D01*
X110307Y135092D01*
X110199Y135632D01*
X109893Y136091D01*
X109776Y136169D01*
Y136770D01*
X109893Y136848D01*
X110199Y137307D01*
X110307Y137848D01*
X110199Y138388D01*
X109893Y138847D01*
X109434Y139153D01*
X108894Y139261D01*
D02*
G37*
G36*
X70669Y136159D02*
X70090Y136044D01*
X69599Y135716D01*
X69271Y135225D01*
X69156Y134646D01*
X69271Y134066D01*
X69599Y133576D01*
X70090Y133247D01*
X70669Y133132D01*
X71248Y133247D01*
X71739Y133576D01*
X72067Y134066D01*
X72183Y134646D01*
X72067Y135225D01*
X71739Y135716D01*
X71248Y136044D01*
X70669Y136159D01*
D02*
G37*
G36*
X75000Y136159D02*
X74421Y136044D01*
X73930Y135716D01*
X73602Y135225D01*
X73487Y134646D01*
X73602Y134066D01*
X73930Y133576D01*
X74421Y133247D01*
X75000Y133132D01*
X75579Y133247D01*
X76070Y133576D01*
X76398Y134066D01*
X76513Y134646D01*
X76398Y135225D01*
X76070Y135716D01*
X75579Y136044D01*
X75000Y136159D01*
D02*
G37*
G36*
X66339D02*
X65759Y136044D01*
X65268Y135716D01*
X64940Y135225D01*
X64825Y134646D01*
X64940Y134066D01*
X65268Y133576D01*
X65759Y133247D01*
X66339Y133132D01*
X66918Y133247D01*
X67409Y133576D01*
X67737Y134066D01*
X67852Y134646D01*
X67737Y135225D01*
X67409Y135716D01*
X66918Y136044D01*
X66339Y136159D01*
D02*
G37*
G36*
X51772Y135271D02*
X51231Y135164D01*
X50773Y134857D01*
X50466Y134399D01*
X50359Y133858D01*
X50466Y133317D01*
X50773Y132859D01*
X51231Y132553D01*
X51772Y132445D01*
X52312Y132553D01*
X52771Y132859D01*
X53077Y133317D01*
X53185Y133858D01*
X53077Y134399D01*
X52771Y134857D01*
X52312Y135164D01*
X51772Y135271D01*
D02*
G37*
G36*
X24213Y132909D02*
X23672Y132801D01*
X23213Y132495D01*
X22907Y132037D01*
X22800Y131496D01*
X22907Y130955D01*
X23213Y130497D01*
X23672Y130191D01*
X24213Y130083D01*
X24753Y130191D01*
X25212Y130497D01*
X25518Y130955D01*
X25626Y131496D01*
X25518Y132037D01*
X25212Y132495D01*
X24753Y132801D01*
X24213Y132909D01*
D02*
G37*
G36*
X99642Y131585D02*
X99063Y131470D01*
X98572Y131142D01*
X98244Y130651D01*
X98128Y130072D01*
X98244Y129493D01*
X98572Y129002D01*
X99063Y128674D01*
X99642Y128559D01*
X100221Y128674D01*
X100712Y129002D01*
X101040Y129493D01*
X101155Y130072D01*
X101040Y130651D01*
X100712Y131142D01*
X100221Y131470D01*
X99642Y131585D01*
D02*
G37*
G36*
X103972Y131585D02*
X103393Y131470D01*
X102902Y131142D01*
X102574Y130651D01*
X102459Y130072D01*
X102574Y129493D01*
X102902Y129002D01*
X103393Y128674D01*
X103972Y128559D01*
X104551Y128674D01*
X105043Y129002D01*
X105370Y129493D01*
X105486Y130072D01*
X105370Y130651D01*
X105043Y131142D01*
X104551Y131470D01*
X103972Y131585D01*
D02*
G37*
G36*
X31890Y130547D02*
X31349Y130439D01*
X30891Y130133D01*
X30584Y129675D01*
X30477Y129134D01*
X30584Y128593D01*
X30891Y128135D01*
X31349Y127828D01*
X31890Y127721D01*
X32430Y127828D01*
X32889Y128135D01*
X33195Y128593D01*
X33303Y129134D01*
X33195Y129675D01*
X32889Y130133D01*
X32430Y130439D01*
X31890Y130547D01*
D02*
G37*
G36*
X103972Y127255D02*
X103393Y127139D01*
X102902Y126811D01*
X102574Y126320D01*
X102459Y125741D01*
X102574Y125162D01*
X102902Y124671D01*
X103393Y124343D01*
X103972Y124228D01*
X104551Y124343D01*
X105043Y124671D01*
X105370Y125162D01*
X105486Y125741D01*
X105370Y126320D01*
X105043Y126811D01*
X104551Y127139D01*
X103972Y127255D01*
D02*
G37*
G36*
X99642Y127255D02*
X99063Y127139D01*
X98572Y126811D01*
X98244Y126320D01*
X98128Y125741D01*
X98244Y125162D01*
X98572Y124671D01*
X99063Y124343D01*
X99642Y124228D01*
X100221Y124343D01*
X100712Y124671D01*
X101040Y125162D01*
X101155Y125741D01*
X101040Y126320D01*
X100712Y126811D01*
X100221Y127139D01*
X99642Y127255D01*
D02*
G37*
G36*
X65354Y125232D02*
X64814Y125124D01*
X64355Y124818D01*
X64049Y124360D01*
X63941Y123819D01*
X64049Y123278D01*
X64355Y122820D01*
X64814Y122513D01*
X65354Y122406D01*
X65895Y122513D01*
X66353Y122820D01*
X66660Y123278D01*
X66767Y123819D01*
X66660Y124360D01*
X66353Y124818D01*
X65895Y125124D01*
X65354Y125232D01*
D02*
G37*
G36*
X15157Y124051D02*
X14617Y123943D01*
X14158Y123637D01*
X13852Y123179D01*
X13745Y122638D01*
X13852Y122097D01*
X14158Y121639D01*
X14617Y121332D01*
X15157Y121225D01*
X15698Y121332D01*
X16157Y121639D01*
X16463Y122097D01*
X16570Y122638D01*
X16463Y123179D01*
X16157Y123637D01*
X15698Y123943D01*
X15157Y124051D01*
D02*
G37*
G36*
X23303Y122808D02*
X22763Y122700D01*
X22304Y122394D01*
X21998Y121936D01*
X21891Y121395D01*
X21998Y120854D01*
X22304Y120396D01*
X22763Y120089D01*
X23303Y119982D01*
X23844Y120089D01*
X24303Y120396D01*
X24609Y120854D01*
X24716Y121395D01*
X24609Y121936D01*
X24303Y122394D01*
X23844Y122700D01*
X23303Y122808D01*
D02*
G37*
G36*
X107283Y118342D02*
X106743Y118235D01*
X106284Y117928D01*
X105978Y117470D01*
X105870Y116929D01*
X105978Y116388D01*
X106284Y115930D01*
X106743Y115624D01*
X107283Y115516D01*
X107824Y115624D01*
X108283Y115930D01*
X108589Y116388D01*
X108696Y116929D01*
X108589Y117470D01*
X108283Y117928D01*
X107824Y118235D01*
X107283Y118342D01*
D02*
G37*
G36*
X49213D02*
X48672Y118235D01*
X48213Y117928D01*
X47907Y117470D01*
X47800Y116929D01*
X47907Y116388D01*
X48213Y115930D01*
X48672Y115624D01*
X49213Y115516D01*
X49753Y115624D01*
X50212Y115930D01*
X50518Y116388D01*
X50625Y116929D01*
X50518Y117470D01*
X50212Y117928D01*
X49753Y118235D01*
X49213Y118342D01*
D02*
G37*
G36*
X12756D02*
X12215Y118235D01*
X11757Y117928D01*
X11451Y117470D01*
X11343Y116929D01*
X11451Y116388D01*
X11757Y115930D01*
X12215Y115624D01*
X12756Y115516D01*
X13297Y115624D01*
X13755Y115930D01*
X14061Y116388D01*
X14169Y116929D01*
X14061Y117470D01*
X13755Y117928D01*
X13297Y118235D01*
X12756Y118342D01*
D02*
G37*
G36*
X33268Y117582D02*
X32566Y117443D01*
X31971Y117045D01*
X31573Y116450D01*
X31433Y115748D01*
X31573Y115046D01*
X31971Y114451D01*
X32566Y114053D01*
X33268Y113914D01*
X33970Y114053D01*
X34565Y114451D01*
X34962Y115046D01*
X35102Y115748D01*
X34962Y116450D01*
X34565Y117045D01*
X33970Y117443D01*
X33268Y117582D01*
D02*
G37*
G36*
X28543D02*
X27841Y117443D01*
X27246Y117045D01*
X26849Y116450D01*
X26709Y115748D01*
X26849Y115046D01*
X27246Y114451D01*
X27841Y114053D01*
X28543Y113914D01*
X29245Y114053D01*
X29840Y114451D01*
X30238Y115046D01*
X30378Y115748D01*
X30238Y116450D01*
X29840Y117045D01*
X29245Y117443D01*
X28543Y117582D01*
D02*
G37*
G36*
X101085Y115902D02*
X100545Y115795D01*
X100086Y115489D01*
X99780Y115030D01*
X99673Y114489D01*
X99780Y113949D01*
X100086Y113490D01*
X100545Y113184D01*
X101085Y113076D01*
X101626Y113184D01*
X102085Y113490D01*
X102391Y113949D01*
X102498Y114489D01*
X102391Y115030D01*
X102085Y115489D01*
X101626Y115795D01*
X101085Y115902D01*
D02*
G37*
G36*
X49213Y113027D02*
X48672Y112920D01*
X48213Y112613D01*
X47907Y112155D01*
X47800Y111614D01*
X47907Y111074D01*
X48213Y110615D01*
X48672Y110309D01*
X49213Y110201D01*
X49753Y110309D01*
X50212Y110615D01*
X50518Y111074D01*
X50625Y111614D01*
X50518Y112155D01*
X50212Y112613D01*
X49753Y112920D01*
X49213Y113027D01*
D02*
G37*
G36*
X33268Y112858D02*
X32566Y112718D01*
X31971Y112321D01*
X31573Y111726D01*
X31433Y111024D01*
X31573Y110322D01*
X31971Y109727D01*
X32566Y109329D01*
X33268Y109189D01*
X33970Y109329D01*
X34565Y109727D01*
X34962Y110322D01*
X35102Y111024D01*
X34962Y111726D01*
X34565Y112321D01*
X33970Y112718D01*
X33268Y112858D01*
D02*
G37*
G36*
X28543D02*
X27841Y112718D01*
X27246Y112321D01*
X26849Y111726D01*
X26709Y111024D01*
X26849Y110322D01*
X27246Y109727D01*
X27841Y109329D01*
X28543Y109189D01*
X29245Y109329D01*
X29840Y109727D01*
X30238Y110322D01*
X30378Y111024D01*
X30238Y111726D01*
X29840Y112321D01*
X29245Y112718D01*
X28543Y112858D01*
D02*
G37*
G36*
X103937Y106345D02*
X103358Y106230D01*
X102867Y105902D01*
X102539Y105411D01*
X102424Y104832D01*
X102539Y104253D01*
X102867Y103762D01*
X103358Y103434D01*
X103937Y103319D01*
X104516Y103434D01*
X105007Y103762D01*
X105335Y104253D01*
X105450Y104832D01*
X105335Y105411D01*
X105007Y105902D01*
X104516Y106230D01*
X103937Y106345D01*
D02*
G37*
G36*
X99606D02*
X99027Y106230D01*
X98536Y105902D01*
X98208Y105411D01*
X98093Y104832D01*
X98208Y104253D01*
X98536Y103762D01*
X99027Y103434D01*
X99606Y103319D01*
X100185Y103434D01*
X100676Y103762D01*
X101004Y104253D01*
X101120Y104832D01*
X101004Y105411D01*
X100676Y105902D01*
X100185Y106230D01*
X99606Y106345D01*
D02*
G37*
G36*
X62349Y103430D02*
X61808Y103322D01*
X61350Y103016D01*
X61044Y102558D01*
X60936Y102017D01*
X61044Y101476D01*
X61350Y101018D01*
X61808Y100712D01*
X62349Y100604D01*
X62890Y100712D01*
X63348Y101018D01*
X63654Y101476D01*
X63762Y102017D01*
X63654Y102558D01*
X63348Y103016D01*
X62890Y103322D01*
X62349Y103430D01*
D02*
G37*
G36*
X36024Y103382D02*
X35483Y103274D01*
X35024Y102968D01*
X34718Y102509D01*
X34611Y101969D01*
X34718Y101428D01*
X35024Y100969D01*
X35483Y100663D01*
X36024Y100556D01*
X36564Y100663D01*
X37023Y100969D01*
X37329Y101428D01*
X37437Y101969D01*
X37329Y102509D01*
X37023Y102968D01*
X36564Y103274D01*
X36024Y103382D01*
D02*
G37*
G36*
X103937Y102015D02*
X103358Y101900D01*
X102867Y101571D01*
X102539Y101081D01*
X102424Y100501D01*
X102539Y99922D01*
X102867Y99431D01*
X103358Y99103D01*
X103937Y98988D01*
X104516Y99103D01*
X105007Y99431D01*
X105335Y99922D01*
X105450Y100501D01*
X105335Y101081D01*
X105007Y101571D01*
X104516Y101900D01*
X103937Y102015D01*
D02*
G37*
G36*
X99606D02*
X99027Y101900D01*
X98536Y101571D01*
X98208Y101081D01*
X98093Y100501D01*
X98208Y99922D01*
X98536Y99431D01*
X99027Y99103D01*
X99606Y98988D01*
X100185Y99103D01*
X100676Y99431D01*
X101004Y99922D01*
X101120Y100501D01*
X101004Y101081D01*
X100676Y101571D01*
X100185Y101900D01*
X99606Y102015D01*
D02*
G37*
G36*
X36417Y96098D02*
X35877Y95990D01*
X35418Y95684D01*
X35112Y95226D01*
X35004Y94685D01*
X35112Y94144D01*
X35418Y93686D01*
X35877Y93380D01*
X36417Y93272D01*
X36958Y93380D01*
X37416Y93686D01*
X37723Y94144D01*
X37830Y94685D01*
X37723Y95226D01*
X37416Y95684D01*
X36958Y95990D01*
X36417Y96098D01*
D02*
G37*
G36*
X54134Y95901D02*
X53593Y95794D01*
X53135Y95487D01*
X52828Y95029D01*
X52721Y94488D01*
X52828Y93947D01*
X53135Y93489D01*
X53593Y93183D01*
X54134Y93075D01*
X54675Y93183D01*
X54788Y93259D01*
X55148Y92898D01*
X54994Y92667D01*
X54886Y92126D01*
X54994Y91585D01*
X55300Y91127D01*
X55759Y90821D01*
X56299Y90713D01*
X56840Y90821D01*
X57298Y91127D01*
X57605Y91585D01*
X57712Y92126D01*
X57605Y92667D01*
X57298Y93125D01*
X56840Y93431D01*
X56299Y93539D01*
X55759Y93431D01*
X55645Y93356D01*
X55285Y93716D01*
X55439Y93947D01*
X55547Y94488D01*
X55439Y95029D01*
X55133Y95487D01*
X54675Y95794D01*
X54134Y95901D01*
D02*
G37*
G36*
X107283Y93145D02*
X106743Y93038D01*
X106284Y92731D01*
X105978Y92273D01*
X105870Y91732D01*
X105978Y91192D01*
X106284Y90733D01*
X106743Y90427D01*
X107283Y90319D01*
X107824Y90427D01*
X108283Y90733D01*
X108589Y91192D01*
X108696Y91732D01*
X108589Y92273D01*
X108283Y92731D01*
X107824Y93038D01*
X107283Y93145D01*
D02*
G37*
G36*
X41535Y92751D02*
X40995Y92644D01*
X40536Y92338D01*
X40230Y91879D01*
X40122Y91339D01*
X40230Y90798D01*
X40536Y90339D01*
X40995Y90033D01*
X41535Y89926D01*
X42076Y90033D01*
X42535Y90339D01*
X42841Y90798D01*
X42948Y91339D01*
X42841Y91879D01*
X42535Y92338D01*
X42076Y92644D01*
X41535Y92751D01*
D02*
G37*
G36*
X75000Y92852D02*
X74421Y92737D01*
X73930Y92409D01*
X73602Y91918D01*
X73487Y91339D01*
X73602Y90759D01*
X73930Y90268D01*
X74421Y89940D01*
X75000Y89825D01*
X75579Y89940D01*
X76070Y90268D01*
X76398Y90759D01*
X76513Y91339D01*
X76398Y91918D01*
X76070Y92409D01*
X75579Y92737D01*
X75000Y92852D01*
D02*
G37*
G36*
X66339D02*
X65759Y92737D01*
X65268Y92409D01*
X64940Y91918D01*
X64825Y91339D01*
X64940Y90759D01*
X65268Y90268D01*
X65759Y89940D01*
X66339Y89825D01*
X66918Y89940D01*
X67409Y90268D01*
X67737Y90759D01*
X67852Y91339D01*
X67737Y91918D01*
X67409Y92409D01*
X66918Y92737D01*
X66339Y92852D01*
D02*
G37*
G36*
X70669Y92852D02*
X70090Y92737D01*
X69599Y92409D01*
X69271Y91918D01*
X69156Y91339D01*
X69271Y90759D01*
X69599Y90268D01*
X70090Y89940D01*
X70669Y89825D01*
X71248Y89940D01*
X71739Y90268D01*
X72067Y90759D01*
X72183Y91339D01*
X72067Y91918D01*
X71739Y92409D01*
X71248Y92737D01*
X70669Y92852D01*
D02*
G37*
G36*
X100984Y90389D02*
X100443Y90282D01*
X99985Y89976D01*
X99679Y89517D01*
X99571Y88976D01*
X99679Y88436D01*
X99889Y88121D01*
X99861Y87966D01*
X99722Y87664D01*
X99676Y87608D01*
X99262Y87526D01*
X98804Y87220D01*
X98677Y87030D01*
X91142D01*
X91142Y87030D01*
X90832Y86968D01*
X90570Y86793D01*
X81121Y77344D01*
X80945Y77081D01*
X80884Y76772D01*
X80884Y76772D01*
Y61752D01*
X70164Y51033D01*
X70037Y50842D01*
X70007Y50836D01*
X69549Y50530D01*
X69242Y50072D01*
X69135Y49531D01*
X69242Y48990D01*
X69549Y48532D01*
X70007Y48226D01*
X70548Y48118D01*
X71088Y48226D01*
X71547Y48532D01*
X71625Y48649D01*
X72226D01*
X72304Y48532D01*
X72763Y48226D01*
X73304Y48118D01*
X73844Y48226D01*
X74303Y48532D01*
X74381Y48649D01*
X74982D01*
X75060Y48532D01*
X75519Y48226D01*
X76060Y48118D01*
X76600Y48226D01*
X77059Y48532D01*
X77423D01*
X77881Y48226D01*
X78422Y48118D01*
X78962Y48226D01*
X79421Y48532D01*
X79727Y48990D01*
X79835Y49531D01*
X79727Y50072D01*
X79425Y50524D01*
X86670Y57770D01*
X87170Y57563D01*
Y44417D01*
X86768Y44015D01*
X86235Y43913D01*
X85777Y44219D01*
X85236Y44326D01*
X84696Y44219D01*
X84237Y43913D01*
X83931Y43454D01*
X83823Y42913D01*
X83931Y42373D01*
X84237Y41914D01*
X84354Y41836D01*
Y41235D01*
X84237Y41157D01*
X83931Y40698D01*
X83823Y40157D01*
X83931Y39617D01*
X84237Y39158D01*
X84354Y39080D01*
Y38479D01*
X84237Y38401D01*
X83931Y37942D01*
X83823Y37402D01*
X83931Y36861D01*
X84237Y36402D01*
Y36039D01*
X83931Y35580D01*
X83823Y35039D01*
X83931Y34499D01*
X84237Y34040D01*
X84696Y33734D01*
X85236Y33626D01*
X85777Y33734D01*
X86235Y34040D01*
X86362Y34230D01*
X89173D01*
X89173Y34230D01*
X89483Y34292D01*
X89745Y34467D01*
X92108Y36829D01*
X92108Y36829D01*
X92283Y37092D01*
X92345Y37402D01*
X92345Y37402D01*
Y38453D01*
X92351Y38484D01*
X92351Y38485D01*
Y58726D01*
X97611Y63986D01*
X97835Y63941D01*
X98375Y64049D01*
X98834Y64355D01*
X99140Y64814D01*
X99248Y65354D01*
X99140Y65895D01*
X98834Y66353D01*
X98375Y66660D01*
X97835Y66767D01*
X97294Y66660D01*
X96836Y66353D01*
X96529Y65895D01*
X96422Y65354D01*
X96466Y65130D01*
X91625Y60290D01*
X91164Y60481D01*
Y65019D01*
X94461Y68317D01*
X94685Y68272D01*
X95226Y68380D01*
X95684Y68686D01*
X95990Y69144D01*
X96098Y69685D01*
X95990Y70226D01*
X95684Y70684D01*
X95226Y70990D01*
X94685Y71098D01*
X94144Y70990D01*
X93686Y70684D01*
X93380Y70226D01*
X93272Y69685D01*
X93317Y69461D01*
X90438Y66583D01*
X89976Y66774D01*
Y71312D01*
X91312Y72647D01*
X91535Y72603D01*
X92076Y72710D01*
X92535Y73017D01*
X92841Y73475D01*
X92948Y74016D01*
X92841Y74556D01*
X92535Y75015D01*
X92076Y75321D01*
X91535Y75429D01*
X91453Y75412D01*
X91071Y75750D01*
Y76218D01*
X91453Y76556D01*
X91535Y76540D01*
X92076Y76647D01*
X92535Y76954D01*
X92841Y77412D01*
X92948Y77953D01*
X92841Y78493D01*
X92535Y78952D01*
X92076Y79258D01*
X91535Y79366D01*
X91373Y79333D01*
X90948Y79759D01*
X90980Y79921D01*
X90872Y80462D01*
X90566Y80920D01*
X90167Y81187D01*
X90014Y81534D01*
X89966Y81693D01*
X90535Y82262D01*
X93559D01*
X93686Y82072D01*
X94144Y81765D01*
X94685Y81658D01*
X95226Y81765D01*
X95684Y82072D01*
X95990Y82530D01*
X96098Y83071D01*
X95990Y83612D01*
X95684Y84070D01*
X95226Y84376D01*
X94685Y84484D01*
X94144Y84376D01*
X93686Y84070D01*
X93559Y83880D01*
X90653D01*
X90446Y84380D01*
X91477Y85411D01*
X98677D01*
X98804Y85221D01*
X99262Y84915D01*
X99803Y84807D01*
X100344Y84915D01*
X100802Y85221D01*
X101109Y85680D01*
X101216Y86221D01*
X101109Y86761D01*
X100899Y87075D01*
X100926Y87231D01*
X101065Y87533D01*
X101111Y87589D01*
X101525Y87671D01*
X101983Y87977D01*
X102290Y88436D01*
X102397Y88976D01*
X102290Y89517D01*
X101983Y89976D01*
X101525Y90282D01*
X100984Y90389D01*
D02*
G37*
G36*
X51575Y88421D02*
X51034Y88313D01*
X50576Y88007D01*
X50269Y87549D01*
X50162Y87008D01*
X50269Y86467D01*
X50576Y86009D01*
X51034Y85703D01*
X51575Y85595D01*
X52115Y85703D01*
X52574Y86009D01*
X52880Y86467D01*
X52988Y87008D01*
X52880Y87549D01*
X52574Y88007D01*
X52115Y88313D01*
X51575Y88421D01*
D02*
G37*
G36*
X75000Y88521D02*
X74421Y88406D01*
X73930Y88078D01*
X73602Y87587D01*
X73487Y87008D01*
X73602Y86429D01*
X73930Y85938D01*
X74421Y85610D01*
X75000Y85495D01*
X75579Y85610D01*
X76070Y85938D01*
X76398Y86429D01*
X76513Y87008D01*
X76398Y87587D01*
X76070Y88078D01*
X75579Y88406D01*
X75000Y88521D01*
D02*
G37*
G36*
X70669D02*
X70090Y88406D01*
X69599Y88078D01*
X69271Y87587D01*
X69156Y87008D01*
X69271Y86429D01*
X69599Y85938D01*
X70090Y85610D01*
X70669Y85495D01*
X71248Y85610D01*
X71739Y85938D01*
X72067Y86429D01*
X72183Y87008D01*
X72067Y87587D01*
X71739Y88078D01*
X71248Y88406D01*
X70669Y88521D01*
D02*
G37*
G36*
X66339D02*
X65759Y88406D01*
X65268Y88078D01*
X64940Y87587D01*
X64825Y87008D01*
X64940Y86429D01*
X65268Y85938D01*
X65759Y85610D01*
X66339Y85495D01*
X66918Y85610D01*
X67409Y85938D01*
X67737Y86429D01*
X67852Y87008D01*
X67737Y87587D01*
X67409Y88078D01*
X66918Y88406D01*
X66339Y88521D01*
D02*
G37*
G36*
X108894Y87292D02*
X108353Y87185D01*
X107895Y86878D01*
X107588Y86420D01*
X107481Y85879D01*
X107588Y85338D01*
X107895Y84880D01*
X108011Y84802D01*
Y84201D01*
X107895Y84122D01*
X107588Y83664D01*
X107481Y83123D01*
X107588Y82582D01*
X107895Y82124D01*
X108353Y81818D01*
X108894Y81710D01*
X109434Y81818D01*
X109893Y82124D01*
X110199Y82582D01*
X110307Y83123D01*
X110199Y83664D01*
X109893Y84122D01*
X109776Y84201D01*
Y84802D01*
X109893Y84880D01*
X110199Y85338D01*
X110307Y85879D01*
X110199Y86420D01*
X109893Y86878D01*
X109434Y87185D01*
X108894Y87292D01*
D02*
G37*
G36*
X75000Y84190D02*
X74421Y84075D01*
X73930Y83747D01*
X73602Y83256D01*
X73487Y82677D01*
X73602Y82098D01*
X73930Y81607D01*
X74421Y81279D01*
X75000Y81164D01*
X75579Y81279D01*
X76070Y81607D01*
X76398Y82098D01*
X76513Y82677D01*
X76398Y83256D01*
X76070Y83747D01*
X75579Y84075D01*
X75000Y84190D01*
D02*
G37*
G36*
X70669D02*
X70090Y84075D01*
X69599Y83747D01*
X69271Y83256D01*
X69156Y82677D01*
X69271Y82098D01*
X69599Y81607D01*
X70090Y81279D01*
X70669Y81164D01*
X71248Y81279D01*
X71739Y81607D01*
X72067Y82098D01*
X72183Y82677D01*
X72067Y83256D01*
X71739Y83747D01*
X71248Y84075D01*
X70669Y84190D01*
D02*
G37*
G36*
X66339D02*
X65759Y84075D01*
X65268Y83747D01*
X64940Y83256D01*
X64825Y82677D01*
X64940Y82098D01*
X65268Y81607D01*
X65759Y81279D01*
X66339Y81164D01*
X66918Y81279D01*
X67409Y81607D01*
X67737Y82098D01*
X67852Y82677D01*
X67737Y83256D01*
X67409Y83747D01*
X66918Y84075D01*
X66339Y84190D01*
D02*
G37*
G36*
X103972Y79617D02*
X103393Y79502D01*
X102902Y79174D01*
X102574Y78683D01*
X102459Y78104D01*
X102574Y77524D01*
X102902Y77033D01*
X103393Y76705D01*
X103972Y76590D01*
X104551Y76705D01*
X105043Y77033D01*
X105370Y77524D01*
X105486Y78104D01*
X105370Y78683D01*
X105043Y79174D01*
X104551Y79502D01*
X103972Y79617D01*
D02*
G37*
G36*
X99642D02*
X99063Y79502D01*
X98572Y79174D01*
X98244Y78683D01*
X98128Y78104D01*
X98244Y77524D01*
X98572Y77033D01*
X99063Y76705D01*
X99642Y76590D01*
X100221Y76705D01*
X100712Y77033D01*
X101040Y77524D01*
X101155Y78104D01*
X101040Y78683D01*
X100712Y79174D01*
X100221Y79502D01*
X99642Y79617D01*
D02*
G37*
G36*
X47638Y78382D02*
X47097Y78274D01*
X46639Y77968D01*
X46332Y77509D01*
X46225Y76968D01*
X46332Y76428D01*
X46639Y75969D01*
X47097Y75663D01*
X47638Y75555D01*
X48178Y75663D01*
X48637Y75969D01*
X48943Y76428D01*
X49051Y76968D01*
X48943Y77509D01*
X48637Y77968D01*
X48178Y78274D01*
X47638Y78382D01*
D02*
G37*
G36*
X40551D02*
X40010Y78274D01*
X39552Y77968D01*
X39246Y77509D01*
X39138Y76968D01*
X39246Y76428D01*
X39552Y75969D01*
X40010Y75663D01*
X40551Y75555D01*
X41092Y75663D01*
X41550Y75969D01*
X41857Y76428D01*
X41964Y76968D01*
X41857Y77509D01*
X41550Y77968D01*
X41092Y78274D01*
X40551Y78382D01*
D02*
G37*
G36*
X35039D02*
X34499Y78274D01*
X34040Y77968D01*
X33734Y77509D01*
X33626Y76968D01*
X33734Y76428D01*
X34040Y75969D01*
X34499Y75663D01*
X35039Y75555D01*
X35580Y75663D01*
X36039Y75969D01*
X36345Y76428D01*
X36452Y76968D01*
X36345Y77509D01*
X36039Y77968D01*
X35580Y78274D01*
X35039Y78382D01*
D02*
G37*
G36*
X30512D02*
X29971Y78274D01*
X29513Y77968D01*
X29206Y77509D01*
X29099Y76968D01*
X29206Y76428D01*
X29513Y75969D01*
X29971Y75663D01*
X30512Y75555D01*
X31053Y75663D01*
X31511Y75969D01*
X31817Y76428D01*
X31925Y76968D01*
X31817Y77509D01*
X31511Y77968D01*
X31053Y78274D01*
X30512Y78382D01*
D02*
G37*
G36*
X25591D02*
X25050Y78274D01*
X24591Y77968D01*
X24285Y77509D01*
X24178Y76968D01*
X24285Y76428D01*
X24591Y75969D01*
X25050Y75663D01*
X25591Y75555D01*
X26131Y75663D01*
X26590Y75969D01*
X26896Y76428D01*
X27003Y76968D01*
X26896Y77509D01*
X26590Y77968D01*
X26131Y78274D01*
X25591Y78382D01*
D02*
G37*
G36*
X21063D02*
X20522Y78274D01*
X20064Y77968D01*
X19758Y77509D01*
X19650Y76968D01*
X19758Y76428D01*
X20064Y75969D01*
X20522Y75663D01*
X21063Y75555D01*
X21604Y75663D01*
X22062Y75969D01*
X22368Y76428D01*
X22476Y76968D01*
X22368Y77509D01*
X22062Y77968D01*
X21604Y78274D01*
X21063Y78382D01*
D02*
G37*
G36*
X16339D02*
X15798Y78274D01*
X15339Y77968D01*
X15033Y77509D01*
X14926Y76968D01*
X15033Y76428D01*
X15339Y75969D01*
X15798Y75663D01*
X16339Y75555D01*
X16879Y75663D01*
X17338Y75969D01*
X17644Y76428D01*
X17752Y76968D01*
X17644Y77509D01*
X17338Y77968D01*
X16879Y78274D01*
X16339Y78382D01*
D02*
G37*
G36*
X103972Y75286D02*
X103393Y75171D01*
X102902Y74843D01*
X102574Y74352D01*
X102459Y73773D01*
X102574Y73194D01*
X102902Y72703D01*
X103393Y72375D01*
X103972Y72259D01*
X104551Y72375D01*
X105043Y72703D01*
X105370Y73194D01*
X105486Y73773D01*
X105370Y74352D01*
X105043Y74843D01*
X104551Y75171D01*
X103972Y75286D01*
D02*
G37*
G36*
X99642D02*
X99063Y75171D01*
X98572Y74843D01*
X98244Y74352D01*
X98128Y73773D01*
X98244Y73194D01*
X98572Y72703D01*
X99063Y72375D01*
X99642Y72259D01*
X100221Y72375D01*
X100712Y72703D01*
X101040Y73194D01*
X101155Y73773D01*
X101040Y74352D01*
X100712Y74843D01*
X100221Y75171D01*
X99642Y75286D01*
D02*
G37*
G36*
X65158Y73067D02*
X64617Y72959D01*
X64158Y72653D01*
X63852Y72194D01*
X63744Y71653D01*
X63852Y71113D01*
X64158Y70654D01*
X64617Y70348D01*
X65158Y70241D01*
X65698Y70348D01*
X66157Y70654D01*
X66463Y71113D01*
X66570Y71653D01*
X66463Y72194D01*
X66157Y72653D01*
X65698Y72959D01*
X65158Y73067D01*
D02*
G37*
G36*
X107283Y66374D02*
X106743Y66266D01*
X106284Y65960D01*
X105978Y65501D01*
X105870Y64961D01*
X105978Y64420D01*
X106284Y63961D01*
X106743Y63655D01*
X107283Y63548D01*
X107824Y63655D01*
X108283Y63961D01*
X108589Y64420D01*
X108696Y64961D01*
X108589Y65501D01*
X108283Y65960D01*
X107824Y66266D01*
X107283Y66374D01*
D02*
G37*
G36*
X23228Y65586D02*
X22688Y65479D01*
X22229Y65172D01*
X21923Y64714D01*
X21815Y64173D01*
X21923Y63633D01*
X22229Y63174D01*
X22688Y62868D01*
X23228Y62760D01*
X23769Y62868D01*
X24227Y63174D01*
X24534Y63633D01*
X24641Y64173D01*
X24534Y64714D01*
X24227Y65172D01*
X23769Y65479D01*
X23228Y65586D01*
D02*
G37*
G36*
X19094D02*
X18554Y65479D01*
X18095Y65172D01*
X17789Y64714D01*
X17682Y64173D01*
X17789Y63633D01*
X18095Y63174D01*
X18554Y62868D01*
X19094Y62760D01*
X19635Y62868D01*
X20094Y63174D01*
X20400Y63633D01*
X20507Y64173D01*
X20400Y64714D01*
X20094Y65172D01*
X19635Y65479D01*
X19094Y65586D01*
D02*
G37*
G36*
X101221Y63775D02*
X100680Y63668D01*
X100221Y63361D01*
X99915Y62903D01*
X99808Y62362D01*
X99915Y61822D01*
X100221Y61363D01*
X100680Y61057D01*
X101221Y60949D01*
X101761Y61057D01*
X102220Y61363D01*
X102526Y61822D01*
X102633Y62362D01*
X102526Y62903D01*
X102220Y63361D01*
X101761Y63668D01*
X101221Y63775D01*
D02*
G37*
G36*
X42913Y58500D02*
X42373Y58392D01*
X41914Y58086D01*
X41608Y57627D01*
X41500Y57087D01*
X41608Y56546D01*
X41914Y56087D01*
X42373Y55781D01*
X42913Y55674D01*
X43454Y55781D01*
X43913Y56087D01*
X44219Y56546D01*
X44326Y57087D01*
X44219Y57627D01*
X43913Y58086D01*
X43454Y58392D01*
X42913Y58500D01*
D02*
G37*
G36*
X37992D02*
X37451Y58392D01*
X36993Y58086D01*
X36687Y57627D01*
X36579Y57087D01*
X36687Y56546D01*
X36993Y56087D01*
X37451Y55781D01*
X37992Y55674D01*
X38533Y55781D01*
X38991Y56087D01*
X39298Y56546D01*
X39405Y57087D01*
X39298Y57627D01*
X38991Y58086D01*
X38533Y58392D01*
X37992Y58500D01*
D02*
G37*
G36*
X32874D02*
X32333Y58392D01*
X31875Y58086D01*
X31569Y57627D01*
X31461Y57087D01*
X31569Y56546D01*
X31875Y56087D01*
X32333Y55781D01*
X32874Y55674D01*
X33415Y55781D01*
X33873Y56087D01*
X34179Y56546D01*
X34287Y57087D01*
X34179Y57627D01*
X33873Y58086D01*
X33415Y58392D01*
X32874Y58500D01*
D02*
G37*
G36*
X28150D02*
X27609Y58392D01*
X27150Y58086D01*
X26844Y57627D01*
X26737Y57087D01*
X26844Y56546D01*
X27150Y56087D01*
X27609Y55781D01*
X28150Y55674D01*
X28690Y55781D01*
X29149Y56087D01*
X29455Y56546D01*
X29563Y57087D01*
X29455Y57627D01*
X29149Y58086D01*
X28690Y58392D01*
X28150Y58500D01*
D02*
G37*
G36*
X103937Y54368D02*
X103358Y54252D01*
X102867Y53924D01*
X102539Y53434D01*
X102424Y52854D01*
X102539Y52275D01*
X102867Y51784D01*
X103358Y51456D01*
X103937Y51341D01*
X104516Y51456D01*
X105007Y51784D01*
X105335Y52275D01*
X105450Y52854D01*
X105335Y53434D01*
X105007Y53924D01*
X104516Y54252D01*
X103937Y54368D01*
D02*
G37*
G36*
X99606D02*
X99027Y54252D01*
X98536Y53924D01*
X98208Y53434D01*
X98093Y52854D01*
X98208Y52275D01*
X98536Y51784D01*
X99027Y51456D01*
X99606Y51341D01*
X100185Y51456D01*
X100676Y51784D01*
X101004Y52275D01*
X101120Y52854D01*
X101004Y53434D01*
X100676Y53924D01*
X100185Y54252D01*
X99606Y54368D01*
D02*
G37*
G36*
X61614Y51413D02*
X61073Y51305D01*
X60615Y50999D01*
X60309Y50541D01*
X60201Y50000D01*
X60309Y49459D01*
X60615Y49001D01*
X61073Y48695D01*
X61614Y48587D01*
X62155Y48695D01*
X62613Y49001D01*
X62920Y49459D01*
X63027Y50000D01*
X62920Y50541D01*
X62613Y50999D01*
X62155Y51305D01*
X61614Y51413D01*
D02*
G37*
G36*
X103937Y50037D02*
X103358Y49922D01*
X102867Y49594D01*
X102539Y49103D01*
X102424Y48524D01*
X102539Y47945D01*
X102867Y47453D01*
X103358Y47126D01*
X103937Y47010D01*
X104516Y47126D01*
X105007Y47453D01*
X105335Y47945D01*
X105450Y48524D01*
X105335Y49103D01*
X105007Y49594D01*
X104516Y49922D01*
X103937Y50037D01*
D02*
G37*
G36*
X99606D02*
X99027Y49922D01*
X98536Y49594D01*
X98208Y49103D01*
X98093Y48524D01*
X98208Y47945D01*
X98536Y47453D01*
X99027Y47126D01*
X99606Y47010D01*
X100185Y47126D01*
X100676Y47453D01*
X101004Y47945D01*
X101120Y48524D01*
X101004Y49103D01*
X100676Y49594D01*
X100185Y49922D01*
X99606Y50037D01*
D02*
G37*
G36*
X54134Y43933D02*
X53593Y43825D01*
X53135Y43519D01*
X52828Y43060D01*
X52721Y42520D01*
X52828Y41979D01*
X53135Y41521D01*
X53593Y41214D01*
X54134Y41107D01*
X54675Y41214D01*
X54788Y41290D01*
X55148Y40929D01*
X54994Y40698D01*
X54886Y40157D01*
X54994Y39617D01*
X55300Y39158D01*
X55759Y38852D01*
X56299Y38745D01*
X56840Y38852D01*
X57298Y39158D01*
X57605Y39617D01*
X57712Y40157D01*
X57605Y40698D01*
X57298Y41157D01*
X56840Y41463D01*
X56299Y41570D01*
X55759Y41463D01*
X55645Y41387D01*
X55285Y41748D01*
X55439Y41979D01*
X55547Y42520D01*
X55439Y43060D01*
X55133Y43519D01*
X54675Y43825D01*
X54134Y43933D01*
D02*
G37*
G36*
X107283Y41177D02*
X106743Y41069D01*
X106284Y40763D01*
X105978Y40304D01*
X105870Y39764D01*
X105978Y39223D01*
X106284Y38765D01*
X106743Y38458D01*
X107283Y38351D01*
X107824Y38458D01*
X108283Y38765D01*
X108589Y39223D01*
X108696Y39764D01*
X108589Y40304D01*
X108283Y40763D01*
X107824Y41069D01*
X107283Y41177D01*
D02*
G37*
G36*
X75000Y40883D02*
X74421Y40768D01*
X73930Y40440D01*
X73602Y39949D01*
X73487Y39370D01*
X73602Y38791D01*
X73930Y38300D01*
X74421Y37972D01*
X75000Y37857D01*
X75579Y37972D01*
X76070Y38300D01*
X76398Y38791D01*
X76513Y39370D01*
X76398Y39949D01*
X76070Y40440D01*
X75579Y40768D01*
X75000Y40883D01*
D02*
G37*
G36*
X66339D02*
X65759Y40768D01*
X65268Y40440D01*
X64940Y39949D01*
X64825Y39370D01*
X64940Y38791D01*
X65268Y38300D01*
X65759Y37972D01*
X66339Y37857D01*
X66918Y37972D01*
X67409Y38300D01*
X67737Y38791D01*
X67852Y39370D01*
X67737Y39949D01*
X67409Y40440D01*
X66918Y40768D01*
X66339Y40883D01*
D02*
G37*
G36*
X70669Y40883D02*
X70090Y40768D01*
X69599Y40440D01*
X69271Y39949D01*
X69156Y39370D01*
X69271Y38791D01*
X69599Y38300D01*
X70090Y37972D01*
X70669Y37857D01*
X71248Y37972D01*
X71739Y38300D01*
X72067Y38791D01*
X72183Y39370D01*
X72067Y39949D01*
X71739Y40440D01*
X71248Y40768D01*
X70669Y40883D01*
D02*
G37*
G36*
X101210Y38285D02*
X100670Y38177D01*
X100211Y37871D01*
X99905Y37413D01*
X99797Y36872D01*
X99905Y36331D01*
X100211Y35873D01*
X100670Y35567D01*
X101210Y35459D01*
X101751Y35567D01*
X102209Y35873D01*
X102516Y36331D01*
X102623Y36872D01*
X102516Y37413D01*
X102209Y37871D01*
X101751Y38177D01*
X101210Y38285D01*
D02*
G37*
G36*
X45866Y36452D02*
X45325Y36345D01*
X44867Y36039D01*
X44561Y35580D01*
X44453Y35039D01*
X44561Y34499D01*
X44867Y34040D01*
X45325Y33734D01*
X45866Y33626D01*
X46407Y33734D01*
X46865Y34040D01*
X47172Y34499D01*
X47279Y35039D01*
X47172Y35580D01*
X46865Y36039D01*
X46407Y36345D01*
X45866Y36452D01*
D02*
G37*
G36*
X15157D02*
X14617Y36345D01*
X14158Y36039D01*
X13852Y35580D01*
X13745Y35039D01*
X13852Y34499D01*
X14158Y34040D01*
X14617Y33734D01*
X15157Y33626D01*
X15698Y33734D01*
X16157Y34040D01*
X16463Y34499D01*
X16570Y35039D01*
X16463Y35580D01*
X16157Y36039D01*
X15698Y36345D01*
X15157Y36452D01*
D02*
G37*
G36*
X75000Y36553D02*
X74421Y36437D01*
X73930Y36110D01*
X73602Y35618D01*
X73487Y35039D01*
X73602Y34460D01*
X73930Y33969D01*
X74421Y33641D01*
X75000Y33526D01*
X75579Y33641D01*
X76070Y33969D01*
X76398Y34460D01*
X76513Y35039D01*
X76398Y35618D01*
X76070Y36110D01*
X75579Y36437D01*
X75000Y36553D01*
D02*
G37*
G36*
X70669D02*
X70090Y36437D01*
X69599Y36110D01*
X69271Y35618D01*
X69156Y35039D01*
X69271Y34460D01*
X69599Y33969D01*
X70090Y33641D01*
X70669Y33526D01*
X71248Y33641D01*
X71739Y33969D01*
X72067Y34460D01*
X72183Y35039D01*
X72067Y35618D01*
X71739Y36110D01*
X71248Y36437D01*
X70669Y36553D01*
D02*
G37*
G36*
X66339D02*
X65759Y36437D01*
X65268Y36110D01*
X64940Y35618D01*
X64825Y35039D01*
X64940Y34460D01*
X65268Y33969D01*
X65759Y33641D01*
X66339Y33526D01*
X66918Y33641D01*
X67409Y33969D01*
X67737Y34460D01*
X67852Y35039D01*
X67737Y35618D01*
X67409Y36110D01*
X66918Y36437D01*
X66339Y36553D01*
D02*
G37*
G36*
X51772Y36255D02*
X51231Y36148D01*
X50773Y35842D01*
X50466Y35383D01*
X50359Y34843D01*
X50466Y34302D01*
X50773Y33843D01*
X51231Y33537D01*
X51772Y33430D01*
X52312Y33537D01*
X52771Y33843D01*
X53077Y34302D01*
X53185Y34843D01*
X53077Y35383D01*
X52771Y35842D01*
X52312Y36148D01*
X51772Y36255D01*
D02*
G37*
G36*
X108858Y35271D02*
X108317Y35164D01*
X107859Y34857D01*
X107553Y34399D01*
X107445Y33858D01*
X107553Y33318D01*
X107859Y32859D01*
X107955Y32795D01*
Y32194D01*
X107895Y32154D01*
X107588Y31695D01*
X107481Y31155D01*
X107588Y30614D01*
X107895Y30156D01*
X108353Y29849D01*
X108894Y29742D01*
X109434Y29849D01*
X109893Y30156D01*
X110199Y30614D01*
X110307Y31155D01*
X110199Y31695D01*
X109893Y32154D01*
X109797Y32218D01*
Y32819D01*
X109857Y32859D01*
X110164Y33318D01*
X110271Y33858D01*
X110164Y34399D01*
X109857Y34857D01*
X109399Y35164D01*
X108858Y35271D01*
D02*
G37*
G36*
X75000Y32222D02*
X74421Y32107D01*
X73930Y31779D01*
X73602Y31288D01*
X73487Y30709D01*
X73602Y30130D01*
X73930Y29639D01*
X74421Y29311D01*
X75000Y29195D01*
X75579Y29311D01*
X76070Y29639D01*
X76398Y30130D01*
X76513Y30709D01*
X76398Y31288D01*
X76070Y31779D01*
X75579Y32107D01*
X75000Y32222D01*
D02*
G37*
G36*
X70669D02*
X70090Y32107D01*
X69599Y31779D01*
X69271Y31288D01*
X69156Y30709D01*
X69271Y30130D01*
X69599Y29639D01*
X70090Y29311D01*
X70669Y29195D01*
X71248Y29311D01*
X71739Y29639D01*
X72067Y30130D01*
X72183Y30709D01*
X72067Y31288D01*
X71739Y31779D01*
X71248Y32107D01*
X70669Y32222D01*
D02*
G37*
G36*
X66339D02*
X65759Y32107D01*
X65268Y31779D01*
X64940Y31288D01*
X64825Y30709D01*
X64940Y30130D01*
X65268Y29639D01*
X65759Y29311D01*
X66339Y29195D01*
X66918Y29311D01*
X67409Y29639D01*
X67737Y30130D01*
X67852Y30709D01*
X67737Y31288D01*
X67409Y31779D01*
X66918Y32107D01*
X66339Y32222D01*
D02*
G37*
G36*
X103937Y27694D02*
X103358Y27579D01*
X102867Y27251D01*
X102539Y26760D01*
X102424Y26181D01*
X102539Y25602D01*
X102867Y25111D01*
X103358Y24783D01*
X103937Y24668D01*
X104516Y24783D01*
X105007Y25111D01*
X105335Y25602D01*
X105450Y26181D01*
X105335Y26760D01*
X105007Y27251D01*
X104516Y27579D01*
X103937Y27694D01*
D02*
G37*
G36*
X99606D02*
X99027Y27579D01*
X98536Y27251D01*
X98208Y26760D01*
X98093Y26181D01*
X98208Y25602D01*
X98536Y25111D01*
X99027Y24783D01*
X99606Y24668D01*
X100185Y24783D01*
X100676Y25111D01*
X101004Y25602D01*
X101120Y26181D01*
X101004Y26760D01*
X100676Y27251D01*
X100185Y27579D01*
X99606Y27694D01*
D02*
G37*
G36*
Y23364D02*
X99027Y23248D01*
X98536Y22920D01*
X98208Y22430D01*
X98093Y21850D01*
X98208Y21271D01*
X98536Y20780D01*
X99027Y20452D01*
X99606Y20337D01*
X100185Y20452D01*
X100676Y20780D01*
X101004Y21271D01*
X101120Y21850D01*
X101004Y22430D01*
X100676Y22920D01*
X100185Y23248D01*
X99606Y23364D01*
D02*
G37*
G36*
X103937Y23364D02*
X103358Y23248D01*
X102867Y22920D01*
X102539Y22430D01*
X102424Y21850D01*
X102539Y21271D01*
X102867Y20780D01*
X103358Y20452D01*
X103937Y20337D01*
X104516Y20452D01*
X105007Y20780D01*
X105335Y21271D01*
X105450Y21850D01*
X105335Y22430D01*
X105007Y22920D01*
X104516Y23248D01*
X103937Y23364D01*
D02*
G37*
G36*
X65354Y21098D02*
X64814Y20990D01*
X64355Y20684D01*
X64049Y20226D01*
X63941Y19685D01*
X64049Y19144D01*
X64355Y18686D01*
X64814Y18380D01*
X65354Y18272D01*
X65895Y18380D01*
X66353Y18686D01*
X66660Y19144D01*
X66767Y19685D01*
X66660Y20226D01*
X66353Y20684D01*
X65895Y20990D01*
X65354Y21098D01*
D02*
G37*
G36*
X107677Y14405D02*
X107136Y14298D01*
X106678Y13991D01*
X106372Y13533D01*
X106264Y12992D01*
X106372Y12451D01*
X106678Y11993D01*
X107136Y11687D01*
X107677Y11579D01*
X108218Y11687D01*
X108676Y11993D01*
X108983Y12451D01*
X109090Y12992D01*
X108983Y13533D01*
X108676Y13991D01*
X108218Y14298D01*
X107677Y14405D01*
D02*
G37*
G36*
X101257Y11744D02*
X100716Y11637D01*
X100257Y11330D01*
X99951Y10872D01*
X99844Y10331D01*
X99951Y9791D01*
X100257Y9332D01*
X100716Y9026D01*
X101257Y8918D01*
X101797Y9026D01*
X102256Y9332D01*
X102562Y9791D01*
X102670Y10331D01*
X102562Y10872D01*
X102256Y11330D01*
X101797Y11637D01*
X101257Y11744D01*
D02*
G37*
G36*
X149016Y261256D02*
X148475Y261148D01*
X148017Y260842D01*
X147710Y260383D01*
X147603Y259842D01*
X147710Y259302D01*
X148017Y258843D01*
X148475Y258537D01*
X149016Y258430D01*
X149557Y258537D01*
X150015Y258843D01*
X150321Y259302D01*
X150429Y259842D01*
X150321Y260383D01*
X150015Y260842D01*
X149557Y261148D01*
X149016Y261256D01*
D02*
G37*
G36*
X131693Y256137D02*
X131152Y256030D01*
X130694Y255724D01*
X130387Y255265D01*
X130280Y254724D01*
X130387Y254184D01*
X130694Y253725D01*
X131152Y253419D01*
X131693Y253311D01*
X132234Y253419D01*
X132692Y253725D01*
X132998Y254184D01*
X133106Y254724D01*
X132998Y255265D01*
X132692Y255724D01*
X132234Y256030D01*
X131693Y256137D01*
D02*
G37*
G36*
X126181D02*
X125640Y256030D01*
X125182Y255724D01*
X124876Y255265D01*
X124768Y254724D01*
X124876Y254184D01*
X125182Y253725D01*
X125640Y253419D01*
X126181Y253311D01*
X126722Y253419D01*
X127180Y253725D01*
X127487Y254184D01*
X127594Y254724D01*
X127487Y255265D01*
X127180Y255724D01*
X126722Y256030D01*
X126181Y256137D01*
D02*
G37*
G36*
X488192Y252411D02*
Y249255D01*
X491348D01*
X491259Y249930D01*
X490921Y250746D01*
X490383Y251446D01*
X489683Y251984D01*
X488867Y252322D01*
X488192Y252411D01*
D02*
G37*
G36*
X487792D02*
X487117Y252322D01*
X486301Y251984D01*
X485601Y251446D01*
X485064Y250746D01*
X484726Y249930D01*
X484637Y249255D01*
X487792D01*
Y252411D01*
D02*
G37*
G36*
X424803Y251216D02*
X424262Y251109D01*
X423804Y250802D01*
X423498Y250344D01*
X423390Y249803D01*
X423498Y249262D01*
X423804Y248804D01*
X424262Y248498D01*
X424803Y248390D01*
X425344Y248498D01*
X425802Y248804D01*
X426109Y249262D01*
X426216Y249803D01*
X426109Y250344D01*
X425802Y250802D01*
X425344Y251109D01*
X424803Y251216D01*
D02*
G37*
G36*
X459252Y254529D02*
X458182Y254388D01*
X457184Y253975D01*
X456328Y253318D01*
X455671Y252461D01*
X455258Y251464D01*
X455117Y250394D01*
X455258Y249323D01*
X455671Y248326D01*
X456328Y247469D01*
X457184Y246812D01*
X458182Y246399D01*
X459252Y246258D01*
X460322Y246399D01*
X461320Y246812D01*
X462176Y247469D01*
X462833Y248326D01*
X463246Y249323D01*
X463387Y250394D01*
X463246Y251464D01*
X462833Y252461D01*
X462176Y253318D01*
X461320Y253975D01*
X460322Y254388D01*
X459252Y254529D01*
D02*
G37*
G36*
X487792Y248855D02*
X484637D01*
X484726Y248180D01*
X485064Y247364D01*
X485601Y246664D01*
X486301Y246127D01*
X487117Y245789D01*
X487792Y245700D01*
Y248855D01*
D02*
G37*
G36*
X491348D02*
X488192D01*
Y245700D01*
X488867Y245789D01*
X489683Y246127D01*
X490383Y246664D01*
X490921Y247364D01*
X491259Y248180D01*
X491348Y248855D01*
D02*
G37*
G36*
X497992Y252437D02*
X497117Y252322D01*
X496301Y251984D01*
X495601Y251446D01*
X495063Y250746D01*
X494726Y249930D01*
X494610Y249055D01*
X494726Y248180D01*
X495063Y247364D01*
X495601Y246664D01*
X496301Y246127D01*
X497117Y245789D01*
X497992Y245673D01*
X498867Y245789D01*
X499683Y246127D01*
X500383Y246664D01*
X500921Y247364D01*
X501259Y248180D01*
X501374Y249055D01*
X501259Y249930D01*
X500921Y250746D01*
X500383Y251446D01*
X499683Y251984D01*
X498867Y252322D01*
X497992Y252437D01*
D02*
G37*
G36*
X164764Y241177D02*
X164223Y241069D01*
X163765Y240763D01*
X163458Y240304D01*
X163351Y239764D01*
X163458Y239223D01*
X163765Y238765D01*
X164223Y238458D01*
X164764Y238351D01*
X165305Y238458D01*
X165763Y238765D01*
X166069Y239223D01*
X166177Y239764D01*
X166069Y240304D01*
X165763Y240763D01*
X165305Y241069D01*
X164764Y241177D01*
D02*
G37*
G36*
X132874Y240304D02*
X132064Y240143D01*
X131378Y239685D01*
X130920Y238999D01*
X130759Y238189D01*
X130825Y237853D01*
X126189Y233216D01*
X126181Y233218D01*
X125372Y233057D01*
X124685Y232598D01*
X124227Y231912D01*
X124066Y231102D01*
X124227Y230293D01*
X124685Y229607D01*
X125372Y229148D01*
X126181Y228987D01*
X126991Y229148D01*
X127677Y229607D01*
X128136Y230293D01*
X128296Y231102D01*
X128164Y231767D01*
X132538Y236140D01*
X132874Y236073D01*
X133684Y236234D01*
X134370Y236693D01*
X134828Y237379D01*
X134990Y238189D01*
X134828Y238999D01*
X134370Y239685D01*
X133684Y240143D01*
X132874Y240304D01*
D02*
G37*
G36*
X497992Y242437D02*
X497117Y242321D01*
X496301Y241984D01*
X495601Y241446D01*
X495063Y240746D01*
X494726Y239930D01*
X494610Y239055D01*
X494726Y238180D01*
X495063Y237364D01*
X495601Y236664D01*
X496301Y236126D01*
X497117Y235789D01*
X497992Y235673D01*
X498867Y235789D01*
X499683Y236126D01*
X500383Y236664D01*
X500921Y237364D01*
X501259Y238180D01*
X501374Y239055D01*
X501259Y239930D01*
X500921Y240746D01*
X500383Y241446D01*
X499683Y241984D01*
X498867Y242321D01*
X497992Y242437D01*
D02*
G37*
G36*
X487992D02*
X487117Y242321D01*
X486301Y241984D01*
X485601Y241446D01*
X485064Y240746D01*
X484726Y239930D01*
X484610Y239055D01*
X484726Y238180D01*
X485064Y237364D01*
X485601Y236664D01*
X486301Y236126D01*
X487117Y235789D01*
X487992Y235673D01*
X488867Y235789D01*
X489683Y236126D01*
X490383Y236664D01*
X490921Y237364D01*
X491259Y238180D01*
X491374Y239055D01*
X491259Y239930D01*
X490921Y240746D01*
X490383Y241446D01*
X489683Y241984D01*
X488867Y242321D01*
X487992Y242437D01*
D02*
G37*
G36*
X425000Y237633D02*
X424459Y237526D01*
X424001Y237220D01*
X423695Y236761D01*
X423587Y236221D01*
X423632Y235997D01*
X417184Y229549D01*
X415470D01*
X415203Y230049D01*
X415282Y230168D01*
X415389Y230709D01*
X415282Y231249D01*
X414976Y231708D01*
X414517Y232014D01*
X413976Y232122D01*
X413436Y232014D01*
X412977Y231708D01*
X412671Y231249D01*
X412563Y230709D01*
X412671Y230168D01*
X412750Y230049D01*
X412483Y229549D01*
X373344D01*
X373077Y230049D01*
X373156Y230168D01*
X373263Y230709D01*
X373156Y231249D01*
X372849Y231708D01*
X372391Y232014D01*
X371850Y232122D01*
X371310Y232014D01*
X370851Y231708D01*
X370545Y231249D01*
X370437Y230709D01*
X370545Y230168D01*
X370624Y230049D01*
X370357Y229549D01*
X331218D01*
X330951Y230049D01*
X331030Y230168D01*
X331137Y230709D01*
X331030Y231249D01*
X330724Y231708D01*
X330265Y232014D01*
X329724Y232122D01*
X329184Y232014D01*
X328725Y231708D01*
X328419Y231249D01*
X328311Y230709D01*
X328419Y230168D01*
X328498Y230049D01*
X328231Y229549D01*
X289092D01*
X288825Y230049D01*
X288904Y230168D01*
X289011Y230709D01*
X288904Y231249D01*
X288597Y231708D01*
X288139Y232014D01*
X287598Y232122D01*
X287058Y232014D01*
X286599Y231708D01*
X286293Y231249D01*
X286185Y230709D01*
X286293Y230168D01*
X286372Y230049D01*
X286105Y229549D01*
X246966D01*
X246699Y230049D01*
X246778Y230168D01*
X246885Y230709D01*
X246778Y231249D01*
X246472Y231708D01*
X246013Y232014D01*
X245472Y232122D01*
X244932Y232014D01*
X244473Y231708D01*
X244167Y231249D01*
X244059Y230709D01*
X244167Y230168D01*
X244246Y230049D01*
X243979Y229549D01*
X204840D01*
X204573Y230049D01*
X204652Y230168D01*
X204759Y230709D01*
X204652Y231249D01*
X204346Y231708D01*
X203887Y232014D01*
X203346Y232122D01*
X202806Y232014D01*
X202347Y231708D01*
X202041Y231249D01*
X201934Y230709D01*
X202041Y230168D01*
X202120Y230049D01*
X201853Y229549D01*
X162714D01*
X162447Y230049D01*
X162526Y230168D01*
X162633Y230709D01*
X162526Y231249D01*
X162220Y231708D01*
X161761Y232014D01*
X161221Y232122D01*
X160680Y232014D01*
X160221Y231708D01*
X159915Y231249D01*
X159808Y230709D01*
X159915Y230168D01*
X159994Y230049D01*
X159727Y229549D01*
X133997D01*
X132668Y230878D01*
X132712Y231102D01*
X132605Y231643D01*
X132298Y232101D01*
X131840Y232408D01*
X131299Y232515D01*
X130759Y232408D01*
X130300Y232101D01*
X129994Y231643D01*
X129886Y231102D01*
X129994Y230562D01*
X130300Y230103D01*
X130759Y229797D01*
X131299Y229689D01*
X131523Y229734D01*
X133089Y228168D01*
X133089Y228168D01*
X133352Y227993D01*
X133661Y227931D01*
X133661Y227931D01*
X417520D01*
X417520Y227931D01*
X417829Y227993D01*
X418092Y228168D01*
X424776Y234852D01*
X425000Y234807D01*
X425541Y234915D01*
X425999Y235221D01*
X426305Y235680D01*
X426413Y236221D01*
X426305Y236761D01*
X425999Y237220D01*
X425541Y237526D01*
X425000Y237633D01*
D02*
G37*
G36*
X459252Y239568D02*
X458182Y239427D01*
X457184Y239014D01*
X456328Y238357D01*
X455671Y237501D01*
X455258Y236503D01*
X455117Y235433D01*
X455258Y234363D01*
X455671Y233365D01*
X455831Y233156D01*
X448287Y225612D01*
X151235D01*
X150822Y225984D01*
X150715Y226525D01*
X150409Y226983D01*
X149950Y227290D01*
X149409Y227397D01*
X148869Y227290D01*
X148410Y226983D01*
X148104Y226525D01*
X147996Y225984D01*
X148104Y225444D01*
X148410Y224985D01*
X148869Y224679D01*
X149409Y224571D01*
X149633Y224616D01*
X150018Y224231D01*
X150018Y224231D01*
X150281Y224056D01*
X150591Y223994D01*
X150591Y223994D01*
X448622D01*
X448622Y223994D01*
X448932Y224056D01*
X449194Y224231D01*
X456975Y232012D01*
X457184Y231852D01*
X458182Y231439D01*
X459252Y231298D01*
X460322Y231439D01*
X461320Y231852D01*
X462176Y232509D01*
X462833Y233365D01*
X463246Y234363D01*
X463387Y235433D01*
X463246Y236503D01*
X462833Y237501D01*
X462176Y238357D01*
X461320Y239014D01*
X460322Y239427D01*
X459252Y239568D01*
D02*
G37*
G36*
X488192Y232410D02*
Y229255D01*
X491348D01*
X491259Y229930D01*
X490921Y230746D01*
X490383Y231446D01*
X489683Y231984D01*
X488867Y232322D01*
X488192Y232410D01*
D02*
G37*
G36*
X487792D02*
X487117Y232322D01*
X486301Y231984D01*
X485601Y231446D01*
X485064Y230746D01*
X484726Y229930D01*
X484637Y229255D01*
X487792D01*
Y232410D01*
D02*
G37*
G36*
X491348Y228855D02*
X488192D01*
Y225700D01*
X488867Y225789D01*
X489683Y226127D01*
X490383Y226664D01*
X490921Y227364D01*
X491259Y228180D01*
X491348Y228855D01*
D02*
G37*
G36*
X487792D02*
X484637D01*
X484726Y228180D01*
X485064Y227364D01*
X485601Y226664D01*
X486301Y226127D01*
X487117Y225789D01*
X487792Y225700D01*
Y228855D01*
D02*
G37*
G36*
X497992Y232437D02*
X497117Y232322D01*
X496301Y231984D01*
X495601Y231446D01*
X495063Y230746D01*
X494726Y229930D01*
X494610Y229055D01*
X494726Y228180D01*
X495063Y227364D01*
X495601Y226664D01*
X496301Y226127D01*
X497117Y225789D01*
X497992Y225673D01*
X498867Y225789D01*
X499683Y226127D01*
X500383Y226664D01*
X500921Y227364D01*
X501259Y228180D01*
X501374Y229055D01*
X501259Y229930D01*
X500921Y230746D01*
X500383Y231446D01*
X499683Y231984D01*
X498867Y232322D01*
X497992Y232437D01*
D02*
G37*
G36*
X122638Y226610D02*
X122097Y226502D01*
X121639Y226196D01*
X121332Y225738D01*
X121225Y225197D01*
X121332Y224656D01*
X121639Y224198D01*
X122097Y223891D01*
X122638Y223784D01*
X123179Y223891D01*
X123637Y224198D01*
X123943Y224656D01*
X124051Y225197D01*
X123943Y225738D01*
X123637Y226196D01*
X123179Y226502D01*
X122638Y226610D01*
D02*
G37*
G36*
X497992Y222437D02*
X497117Y222322D01*
X496301Y221984D01*
X495601Y221446D01*
X495063Y220746D01*
X494726Y219930D01*
X494610Y219055D01*
X494726Y218180D01*
X495063Y217364D01*
X495601Y216664D01*
X496301Y216126D01*
X497117Y215789D01*
X497992Y215673D01*
X498867Y215789D01*
X499683Y216126D01*
X500383Y216664D01*
X500921Y217364D01*
X501259Y218180D01*
X501374Y219055D01*
X501259Y219930D01*
X500921Y220746D01*
X500383Y221446D01*
X499683Y221984D01*
X498867Y222322D01*
X497992Y222437D01*
D02*
G37*
G36*
X487992Y222437D02*
X487117Y222322D01*
X486301Y221984D01*
X485601Y221446D01*
X485064Y220746D01*
X484726Y219930D01*
X484610Y219055D01*
X484726Y218180D01*
X485064Y217364D01*
X485601Y216664D01*
X486301Y216126D01*
X487117Y215789D01*
X487992Y215673D01*
X488867Y215789D01*
X489683Y216126D01*
X490383Y216664D01*
X490921Y217364D01*
X491259Y218180D01*
X491374Y219055D01*
X491259Y219930D01*
X490921Y220746D01*
X490383Y221446D01*
X489683Y221984D01*
X488867Y222322D01*
X487992Y222437D01*
D02*
G37*
G36*
X488192Y212410D02*
Y209255D01*
X491348D01*
X491259Y209930D01*
X490921Y210746D01*
X490383Y211446D01*
X489683Y211984D01*
X488867Y212321D01*
X488192Y212410D01*
D02*
G37*
G36*
X487792Y212410D02*
X487117Y212321D01*
X486301Y211984D01*
X485601Y211446D01*
X485064Y210746D01*
X484726Y209930D01*
X484637Y209255D01*
X487792D01*
Y212410D01*
D02*
G37*
G36*
X149016Y209287D02*
X148475Y209179D01*
X148017Y208873D01*
X147710Y208415D01*
X147603Y207874D01*
X147710Y207333D01*
X148017Y206875D01*
X148475Y206569D01*
X149016Y206461D01*
X149557Y206569D01*
X150015Y206875D01*
X150321Y207333D01*
X150429Y207874D01*
X150321Y208415D01*
X150015Y208873D01*
X149557Y209179D01*
X149016Y209287D01*
D02*
G37*
G36*
X487792Y208855D02*
X484637D01*
X484726Y208180D01*
X485064Y207364D01*
X485601Y206664D01*
X486301Y206126D01*
X487117Y205789D01*
X487792Y205700D01*
Y208855D01*
D02*
G37*
G36*
X491348D02*
X488192D01*
Y205700D01*
X488867Y205789D01*
X489683Y206126D01*
X490383Y206664D01*
X490921Y207364D01*
X491259Y208180D01*
X491348Y208855D01*
D02*
G37*
G36*
X497992Y212437D02*
X497117Y212322D01*
X496301Y211984D01*
X495601Y211446D01*
X495063Y210746D01*
X494726Y209930D01*
X494610Y209055D01*
X494726Y208180D01*
X495063Y207364D01*
X495601Y206664D01*
X496301Y206126D01*
X497117Y205789D01*
X497992Y205673D01*
X498867Y205789D01*
X499683Y206126D01*
X500383Y206664D01*
X500921Y207364D01*
X501259Y208180D01*
X501374Y209055D01*
X501259Y209930D01*
X500921Y210746D01*
X500383Y211446D01*
X499683Y211984D01*
X498867Y212322D01*
X497992Y212437D01*
D02*
G37*
G36*
X126181Y204169D02*
X125640Y204061D01*
X125182Y203755D01*
X124876Y203297D01*
X124768Y202756D01*
X124876Y202215D01*
X125182Y201757D01*
X125640Y201450D01*
X126181Y201343D01*
X126722Y201450D01*
X127180Y201757D01*
X127487Y202215D01*
X127594Y202756D01*
X127487Y203297D01*
X127180Y203755D01*
X126722Y204061D01*
X126181Y204169D01*
D02*
G37*
G36*
X131693Y204169D02*
X131152Y204061D01*
X130694Y203755D01*
X130387Y203297D01*
X130280Y202756D01*
X130387Y202215D01*
X130694Y201757D01*
X131152Y201450D01*
X131693Y201343D01*
X132234Y201450D01*
X132692Y201757D01*
X132998Y202215D01*
X133106Y202756D01*
X132998Y203297D01*
X132692Y203755D01*
X132234Y204061D01*
X131693Y204169D01*
D02*
G37*
G36*
X424606Y199444D02*
X424066Y199337D01*
X423607Y199031D01*
X423301Y198572D01*
X423193Y198031D01*
X423301Y197491D01*
X423607Y197032D01*
X424066Y196726D01*
X424606Y196618D01*
X425147Y196726D01*
X425605Y197032D01*
X425912Y197491D01*
X426019Y198031D01*
X425912Y198572D01*
X425605Y199031D01*
X425147Y199337D01*
X424606Y199444D01*
D02*
G37*
G36*
X487992Y202437D02*
X487117Y202322D01*
X486301Y201984D01*
X485601Y201446D01*
X485064Y200746D01*
X484726Y199930D01*
X484610Y199055D01*
X484726Y198180D01*
X485064Y197364D01*
X485601Y196664D01*
X486301Y196126D01*
X487117Y195789D01*
X487992Y195673D01*
X488867Y195789D01*
X489683Y196126D01*
X490383Y196664D01*
X490921Y197364D01*
X491259Y198180D01*
X491374Y199055D01*
X491259Y199930D01*
X490921Y200746D01*
X490383Y201446D01*
X489683Y201984D01*
X488867Y202322D01*
X487992Y202437D01*
D02*
G37*
G36*
X497992Y202437D02*
X497117Y202322D01*
X496301Y201984D01*
X495601Y201446D01*
X495063Y200746D01*
X494726Y199930D01*
X494610Y199055D01*
X494726Y198180D01*
X495063Y197364D01*
X495601Y196664D01*
X496301Y196126D01*
X497117Y195789D01*
X497992Y195673D01*
X498867Y195789D01*
X499683Y196126D01*
X500383Y196664D01*
X500921Y197364D01*
X501259Y198180D01*
X501374Y199055D01*
X501259Y199930D01*
X500921Y200746D01*
X500383Y201446D01*
X499683Y201984D01*
X498867Y202322D01*
X497992Y202437D01*
D02*
G37*
G36*
X459252Y202561D02*
X458182Y202420D01*
X457184Y202007D01*
X456328Y201349D01*
X455671Y200493D01*
X455258Y199495D01*
X455117Y198425D01*
X455258Y197355D01*
X455671Y196358D01*
X456328Y195501D01*
X457184Y194844D01*
X458182Y194431D01*
X459252Y194290D01*
X460322Y194431D01*
X461320Y194844D01*
X462176Y195501D01*
X462833Y196358D01*
X463246Y197355D01*
X463387Y198425D01*
X463246Y199495D01*
X462833Y200493D01*
X462176Y201349D01*
X461320Y202007D01*
X460322Y202420D01*
X459252Y202561D01*
D02*
G37*
G36*
X488192Y192411D02*
Y189255D01*
X491348D01*
X491259Y189930D01*
X490921Y190746D01*
X490383Y191446D01*
X489683Y191984D01*
X488867Y192322D01*
X488192Y192411D01*
D02*
G37*
G36*
X487792D02*
X487117Y192322D01*
X486301Y191984D01*
X485601Y191446D01*
X485064Y190746D01*
X484726Y189930D01*
X484637Y189255D01*
X487792D01*
Y192411D01*
D02*
G37*
G36*
X164764Y189208D02*
X164223Y189101D01*
X163765Y188794D01*
X163458Y188336D01*
X163351Y187795D01*
X163458Y187255D01*
X163765Y186796D01*
X164223Y186490D01*
X164764Y186382D01*
X165305Y186490D01*
X165763Y186796D01*
X166069Y187255D01*
X166177Y187795D01*
X166069Y188336D01*
X165763Y188794D01*
X165305Y189101D01*
X164764Y189208D01*
D02*
G37*
G36*
X487792Y188855D02*
X484637D01*
X484726Y188180D01*
X485064Y187364D01*
X485601Y186664D01*
X486301Y186126D01*
X487117Y185789D01*
X487792Y185700D01*
Y188855D01*
D02*
G37*
G36*
X491348D02*
X488192D01*
Y185700D01*
X488867Y185789D01*
X489683Y186126D01*
X490383Y186664D01*
X490921Y187364D01*
X491259Y188180D01*
X491348Y188855D01*
D02*
G37*
G36*
X497992Y192437D02*
X497117Y192322D01*
X496301Y191984D01*
X495601Y191446D01*
X495063Y190746D01*
X494726Y189930D01*
X494610Y189055D01*
X494726Y188180D01*
X495063Y187364D01*
X495601Y186664D01*
X496301Y186126D01*
X497117Y185789D01*
X497992Y185673D01*
X498867Y185789D01*
X499683Y186126D01*
X500383Y186664D01*
X500921Y187364D01*
X501259Y188180D01*
X501374Y189055D01*
X501259Y189930D01*
X500921Y190746D01*
X500383Y191446D01*
X499683Y191984D01*
X498867Y192322D01*
X497992Y192437D01*
D02*
G37*
G36*
X132874Y188336D02*
X132064Y188175D01*
X131378Y187716D01*
X130920Y187030D01*
X130759Y186221D01*
X130825Y185884D01*
X126189Y181248D01*
X126181Y181249D01*
X125372Y181088D01*
X124685Y180630D01*
X124227Y179943D01*
X124066Y179134D01*
X124227Y178324D01*
X124685Y177638D01*
X125372Y177179D01*
X126181Y177018D01*
X126991Y177179D01*
X127677Y177638D01*
X128136Y178324D01*
X128297Y179134D01*
X128164Y179799D01*
X132538Y184172D01*
X132874Y184105D01*
X133684Y184266D01*
X134370Y184725D01*
X134828Y185411D01*
X134990Y186221D01*
X134828Y187030D01*
X134370Y187716D01*
X133684Y188175D01*
X132874Y188336D01*
D02*
G37*
G36*
X424606Y185271D02*
X424066Y185164D01*
X423607Y184857D01*
X423301Y184399D01*
X423193Y183858D01*
X423238Y183634D01*
X417184Y177581D01*
X415470D01*
X415203Y178081D01*
X415282Y178199D01*
X415389Y178740D01*
X415282Y179281D01*
X414976Y179739D01*
X414517Y180046D01*
X413976Y180153D01*
X413436Y180046D01*
X412977Y179739D01*
X412671Y179281D01*
X412563Y178740D01*
X412671Y178199D01*
X412750Y178081D01*
X412483Y177581D01*
X373344D01*
X373077Y178081D01*
X373156Y178199D01*
X373263Y178740D01*
X373156Y179281D01*
X372849Y179739D01*
X372391Y180046D01*
X371850Y180153D01*
X371310Y180046D01*
X370851Y179739D01*
X370545Y179281D01*
X370437Y178740D01*
X370545Y178199D01*
X370624Y178081D01*
X370357Y177581D01*
X331218D01*
X330951Y178081D01*
X331030Y178199D01*
X331137Y178740D01*
X331030Y179281D01*
X330724Y179739D01*
X330265Y180046D01*
X329724Y180153D01*
X329184Y180046D01*
X328725Y179739D01*
X328419Y179281D01*
X328311Y178740D01*
X328419Y178199D01*
X328498Y178081D01*
X328231Y177581D01*
X289092D01*
X288825Y178081D01*
X288904Y178199D01*
X289011Y178740D01*
X288904Y179281D01*
X288597Y179739D01*
X288139Y180046D01*
X287598Y180153D01*
X287058Y180046D01*
X286599Y179739D01*
X286293Y179281D01*
X286185Y178740D01*
X286293Y178199D01*
X286372Y178081D01*
X286105Y177581D01*
X246966D01*
X246699Y178081D01*
X246778Y178199D01*
X246885Y178740D01*
X246778Y179281D01*
X246472Y179739D01*
X246013Y180046D01*
X245472Y180153D01*
X244932Y180046D01*
X244473Y179739D01*
X244167Y179281D01*
X244059Y178740D01*
X244167Y178199D01*
X244246Y178081D01*
X243979Y177581D01*
X204840D01*
X204573Y178081D01*
X204652Y178199D01*
X204759Y178740D01*
X204652Y179281D01*
X204346Y179739D01*
X203887Y180046D01*
X203346Y180153D01*
X202806Y180046D01*
X202347Y179739D01*
X202041Y179281D01*
X201934Y178740D01*
X202041Y178199D01*
X202120Y178081D01*
X201853Y177581D01*
X162714D01*
X162447Y178081D01*
X162526Y178199D01*
X162633Y178740D01*
X162526Y179281D01*
X162220Y179739D01*
X161761Y180046D01*
X161221Y180153D01*
X160680Y180046D01*
X160221Y179739D01*
X159915Y179281D01*
X159808Y178740D01*
X159915Y178199D01*
X159994Y178081D01*
X159727Y177581D01*
X133997D01*
X132668Y178910D01*
X132712Y179134D01*
X132605Y179675D01*
X132298Y180133D01*
X131840Y180439D01*
X131299Y180547D01*
X130759Y180439D01*
X130300Y180133D01*
X129994Y179675D01*
X129886Y179134D01*
X129994Y178593D01*
X130300Y178135D01*
X130759Y177828D01*
X131299Y177721D01*
X131523Y177765D01*
X133089Y176199D01*
X133089Y176199D01*
X133352Y176024D01*
X133661Y175962D01*
X133661Y175962D01*
X417520D01*
X417520Y175962D01*
X417829Y176024D01*
X418092Y176199D01*
X424382Y182490D01*
X424606Y182445D01*
X425147Y182553D01*
X425605Y182859D01*
X425912Y183317D01*
X426019Y183858D01*
X425912Y184399D01*
X425605Y184857D01*
X425147Y185164D01*
X424606Y185271D01*
D02*
G37*
G36*
X459252Y187600D02*
X458182Y187459D01*
X457184Y187046D01*
X456328Y186389D01*
X455671Y185532D01*
X455258Y184535D01*
X455117Y183465D01*
X455258Y182394D01*
X455671Y181397D01*
X455831Y181188D01*
X448287Y173644D01*
X151235D01*
X150822Y174016D01*
X150715Y174557D01*
X150409Y175015D01*
X149950Y175321D01*
X149409Y175429D01*
X148869Y175321D01*
X148410Y175015D01*
X148104Y174557D01*
X147996Y174016D01*
X148104Y173475D01*
X148410Y173017D01*
X148869Y172710D01*
X149409Y172603D01*
X149633Y172647D01*
X150018Y172262D01*
X150018Y172262D01*
X150281Y172087D01*
X150591Y172025D01*
X150591Y172025D01*
X448622D01*
X448622Y172025D01*
X448932Y172087D01*
X449194Y172262D01*
X456975Y180043D01*
X457184Y179883D01*
X458182Y179470D01*
X459252Y179329D01*
X460322Y179470D01*
X461320Y179883D01*
X462176Y180540D01*
X462833Y181397D01*
X463246Y182394D01*
X463387Y183465D01*
X463246Y184535D01*
X462833Y185532D01*
X462176Y186389D01*
X461320Y187046D01*
X460322Y187459D01*
X459252Y187600D01*
D02*
G37*
G36*
X487992Y182437D02*
X487117Y182322D01*
X486301Y181984D01*
X485601Y181446D01*
X485064Y180746D01*
X484726Y179930D01*
X484610Y179055D01*
X484726Y178180D01*
X485064Y177364D01*
X485601Y176664D01*
X486301Y176127D01*
X487117Y175789D01*
X487992Y175673D01*
X488867Y175789D01*
X489683Y176127D01*
X490383Y176664D01*
X490921Y177364D01*
X491259Y178180D01*
X491374Y179055D01*
X491259Y179930D01*
X490921Y180746D01*
X490383Y181446D01*
X489683Y181984D01*
X488867Y182322D01*
X487992Y182437D01*
D02*
G37*
G36*
X497992Y182437D02*
X497117Y182322D01*
X496301Y181984D01*
X495601Y181446D01*
X495063Y180746D01*
X494726Y179930D01*
X494610Y179055D01*
X494726Y178180D01*
X495063Y177364D01*
X495601Y176664D01*
X496301Y176127D01*
X497117Y175789D01*
X497992Y175673D01*
X498867Y175789D01*
X499683Y176127D01*
X500383Y176664D01*
X500921Y177364D01*
X501259Y178180D01*
X501374Y179055D01*
X501259Y179930D01*
X500921Y180746D01*
X500383Y181446D01*
X499683Y181984D01*
X498867Y182322D01*
X497992Y182437D01*
D02*
G37*
G36*
X122638Y174641D02*
X122097Y174534D01*
X121639Y174227D01*
X121332Y173769D01*
X121225Y173228D01*
X121332Y172688D01*
X121639Y172229D01*
X122097Y171923D01*
X122638Y171815D01*
X123179Y171923D01*
X123637Y172229D01*
X123943Y172688D01*
X124051Y173228D01*
X123943Y173769D01*
X123637Y174227D01*
X123179Y174534D01*
X122638Y174641D01*
D02*
G37*
G36*
X488192Y172411D02*
Y169255D01*
X491348D01*
X491259Y169930D01*
X490921Y170746D01*
X490383Y171446D01*
X489683Y171984D01*
X488867Y172322D01*
X488192Y172411D01*
D02*
G37*
G36*
X487792D02*
X487117Y172322D01*
X486301Y171984D01*
X485601Y171446D01*
X485064Y170746D01*
X484726Y169930D01*
X484637Y169255D01*
X487792D01*
Y172411D01*
D02*
G37*
G36*
Y168855D02*
X484637D01*
X484726Y168180D01*
X485064Y167364D01*
X485601Y166664D01*
X486301Y166127D01*
X487117Y165789D01*
X487792Y165700D01*
Y168855D01*
D02*
G37*
G36*
X491348D02*
X488192D01*
Y165700D01*
X488867Y165789D01*
X489683Y166127D01*
X490383Y166664D01*
X490921Y167364D01*
X491259Y168180D01*
X491348Y168855D01*
D02*
G37*
G36*
X497992Y172437D02*
X497117Y172321D01*
X496301Y171984D01*
X495601Y171446D01*
X495063Y170746D01*
X494726Y169930D01*
X494610Y169055D01*
X494726Y168180D01*
X495063Y167364D01*
X495601Y166664D01*
X496301Y166127D01*
X497117Y165789D01*
X497992Y165673D01*
X498867Y165789D01*
X499683Y166127D01*
X500383Y166664D01*
X500921Y167364D01*
X501259Y168180D01*
X501374Y169055D01*
X501259Y169930D01*
X500921Y170746D01*
X500383Y171446D01*
X499683Y171984D01*
X498867Y172321D01*
X497992Y172437D01*
D02*
G37*
G36*
X454528Y166374D02*
X453987Y166266D01*
X453528Y165960D01*
X453222Y165501D01*
X453115Y164961D01*
X453222Y164420D01*
X453528Y163962D01*
X453987Y163655D01*
X454528Y163548D01*
X455068Y163655D01*
X455527Y163962D01*
X455833Y164420D01*
X455940Y164961D01*
X455833Y165501D01*
X455527Y165960D01*
X455068Y166266D01*
X454528Y166374D01*
D02*
G37*
G36*
X501345Y162408D02*
X494639D01*
Y155702D01*
X501345D01*
Y162408D01*
D02*
G37*
G36*
X487992Y162437D02*
X487117Y162322D01*
X486301Y161984D01*
X485601Y161446D01*
X485064Y160746D01*
X484726Y159930D01*
X484610Y159055D01*
X484726Y158180D01*
X485064Y157364D01*
X485601Y156664D01*
X486301Y156126D01*
X487117Y155789D01*
X487992Y155673D01*
X488867Y155789D01*
X489683Y156126D01*
X490383Y156664D01*
X490921Y157364D01*
X491259Y158180D01*
X491374Y159055D01*
X491259Y159930D01*
X490921Y160746D01*
X490383Y161446D01*
X489683Y161984D01*
X488867Y162322D01*
X487992Y162437D01*
D02*
G37*
G36*
X149016Y157318D02*
X148475Y157211D01*
X148017Y156905D01*
X147710Y156446D01*
X147603Y155905D01*
X147710Y155365D01*
X148017Y154906D01*
X148475Y154600D01*
X149016Y154492D01*
X149557Y154600D01*
X150015Y154906D01*
X150321Y155365D01*
X150429Y155905D01*
X150321Y156446D01*
X150015Y156905D01*
X149557Y157211D01*
X149016Y157318D01*
D02*
G37*
G36*
X131693Y152200D02*
X131152Y152093D01*
X130694Y151786D01*
X130387Y151328D01*
X130280Y150787D01*
X130387Y150247D01*
X130694Y149788D01*
X131152Y149482D01*
X131693Y149374D01*
X132234Y149482D01*
X132692Y149788D01*
X132998Y150247D01*
X133106Y150787D01*
X132998Y151328D01*
X132692Y151786D01*
X132234Y152093D01*
X131693Y152200D01*
D02*
G37*
G36*
X126181D02*
X125640Y152093D01*
X125182Y151786D01*
X124876Y151328D01*
X124768Y150787D01*
X124876Y150247D01*
X125182Y149788D01*
X125640Y149482D01*
X126181Y149374D01*
X126722Y149482D01*
X127180Y149788D01*
X127487Y150247D01*
X127594Y150787D01*
X127487Y151328D01*
X127180Y151786D01*
X126722Y152093D01*
X126181Y152200D01*
D02*
G37*
G36*
X424213Y147870D02*
X423672Y147762D01*
X423213Y147456D01*
X422907Y146997D01*
X422800Y146457D01*
X422907Y145916D01*
X423213Y145458D01*
X423672Y145151D01*
X424213Y145044D01*
X424753Y145151D01*
X425212Y145458D01*
X425518Y145916D01*
X425626Y146457D01*
X425518Y146997D01*
X425212Y147456D01*
X424753Y147762D01*
X424213Y147870D01*
D02*
G37*
G36*
X459252Y150592D02*
X458182Y150451D01*
X457184Y150038D01*
X456328Y149381D01*
X455671Y148524D01*
X455258Y147527D01*
X455117Y146457D01*
X455258Y145386D01*
X455671Y144389D01*
X456328Y143533D01*
X457184Y142875D01*
X458182Y142462D01*
X459252Y142321D01*
X460322Y142462D01*
X461320Y142875D01*
X462176Y143533D01*
X462833Y144389D01*
X463246Y145386D01*
X463387Y146457D01*
X463246Y147527D01*
X462833Y148524D01*
X462176Y149381D01*
X461320Y150038D01*
X460322Y150451D01*
X459252Y150592D01*
D02*
G37*
G36*
X164764Y137240D02*
X164223Y137132D01*
X163765Y136826D01*
X163458Y136367D01*
X163351Y135827D01*
X163458Y135286D01*
X163765Y134828D01*
X164223Y134521D01*
X164764Y134414D01*
X165305Y134521D01*
X165763Y134828D01*
X166069Y135286D01*
X166177Y135827D01*
X166069Y136367D01*
X165763Y136826D01*
X165305Y137132D01*
X164764Y137240D01*
D02*
G37*
G36*
X132874Y136367D02*
X132064Y136206D01*
X131378Y135748D01*
X130920Y135062D01*
X130759Y134252D01*
X130825Y133916D01*
X126189Y129279D01*
X126181Y129281D01*
X125372Y129120D01*
X124685Y128661D01*
X124227Y127975D01*
X124066Y127165D01*
X124227Y126356D01*
X124685Y125670D01*
X125372Y125211D01*
X126181Y125050D01*
X126991Y125211D01*
X127677Y125670D01*
X128136Y126356D01*
X128296Y127165D01*
X128164Y127830D01*
X132538Y132203D01*
X132874Y132136D01*
X133684Y132298D01*
X134370Y132756D01*
X134828Y133442D01*
X134990Y134252D01*
X134828Y135062D01*
X134370Y135748D01*
X133684Y136206D01*
X132874Y136367D01*
D02*
G37*
G36*
X424213Y132909D02*
X423672Y132801D01*
X423213Y132495D01*
X422907Y132037D01*
X422800Y131496D01*
X422844Y131272D01*
X417184Y125612D01*
X415470D01*
X415203Y126112D01*
X415282Y126231D01*
X415389Y126772D01*
X415282Y127312D01*
X414976Y127771D01*
X414517Y128077D01*
X413976Y128185D01*
X413436Y128077D01*
X412977Y127771D01*
X412671Y127312D01*
X412563Y126772D01*
X412671Y126231D01*
X412750Y126112D01*
X412483Y125612D01*
X373344D01*
X373077Y126112D01*
X373156Y126231D01*
X373263Y126772D01*
X373156Y127312D01*
X372849Y127771D01*
X372391Y128077D01*
X371850Y128185D01*
X371310Y128077D01*
X370851Y127771D01*
X370545Y127312D01*
X370437Y126772D01*
X370545Y126231D01*
X370624Y126112D01*
X370357Y125612D01*
X331218D01*
X330951Y126112D01*
X331030Y126231D01*
X331137Y126772D01*
X331030Y127312D01*
X330724Y127771D01*
X330265Y128077D01*
X329724Y128185D01*
X329184Y128077D01*
X328725Y127771D01*
X328419Y127312D01*
X328311Y126772D01*
X328419Y126231D01*
X328498Y126112D01*
X328231Y125612D01*
X289092D01*
X288825Y126112D01*
X288904Y126231D01*
X289011Y126772D01*
X288904Y127312D01*
X288597Y127771D01*
X288139Y128077D01*
X287598Y128185D01*
X287058Y128077D01*
X286599Y127771D01*
X286293Y127312D01*
X286185Y126772D01*
X286293Y126231D01*
X286372Y126112D01*
X286105Y125612D01*
X246966D01*
X246699Y126112D01*
X246778Y126231D01*
X246885Y126772D01*
X246778Y127312D01*
X246472Y127771D01*
X246013Y128077D01*
X245472Y128185D01*
X244932Y128077D01*
X244473Y127771D01*
X244167Y127312D01*
X244059Y126772D01*
X244167Y126231D01*
X244246Y126112D01*
X243979Y125612D01*
X204840D01*
X204573Y126112D01*
X204652Y126231D01*
X204759Y126772D01*
X204652Y127312D01*
X204346Y127771D01*
X203887Y128077D01*
X203346Y128185D01*
X202806Y128077D01*
X202347Y127771D01*
X202041Y127312D01*
X201934Y126772D01*
X202041Y126231D01*
X202120Y126112D01*
X201853Y125612D01*
X162714D01*
X162447Y126112D01*
X162526Y126231D01*
X162633Y126772D01*
X162526Y127312D01*
X162220Y127771D01*
X161761Y128077D01*
X161221Y128185D01*
X160680Y128077D01*
X160221Y127771D01*
X159915Y127312D01*
X159808Y126772D01*
X159915Y126231D01*
X159994Y126112D01*
X159727Y125612D01*
X133997D01*
X132668Y126941D01*
X132712Y127165D01*
X132605Y127706D01*
X132298Y128165D01*
X131840Y128471D01*
X131299Y128578D01*
X130759Y128471D01*
X130300Y128165D01*
X129994Y127706D01*
X129886Y127165D01*
X129994Y126625D01*
X130300Y126166D01*
X130759Y125860D01*
X131299Y125752D01*
X131523Y125797D01*
X133089Y124231D01*
X133089Y124231D01*
X133352Y124056D01*
X133661Y123994D01*
X133661Y123994D01*
X417520D01*
X417520Y123994D01*
X417829Y124056D01*
X418092Y124231D01*
X423989Y130128D01*
X424213Y130083D01*
X424753Y130191D01*
X425212Y130497D01*
X425518Y130955D01*
X425626Y131496D01*
X425518Y132037D01*
X425212Y132495D01*
X424753Y132801D01*
X424213Y132909D01*
D02*
G37*
G36*
X459252Y135631D02*
X458182Y135491D01*
X457184Y135077D01*
X456328Y134420D01*
X455671Y133564D01*
X455258Y132566D01*
X455117Y131496D01*
X455258Y130426D01*
X455671Y129428D01*
X455831Y129219D01*
X448287Y121675D01*
X151235D01*
X150822Y122047D01*
X150715Y122588D01*
X150409Y123046D01*
X149950Y123353D01*
X149409Y123460D01*
X148869Y123353D01*
X148410Y123046D01*
X148104Y122588D01*
X147996Y122047D01*
X148104Y121507D01*
X148410Y121048D01*
X148869Y120742D01*
X149409Y120634D01*
X149633Y120679D01*
X150018Y120294D01*
X150018Y120294D01*
X150281Y120118D01*
X150591Y120057D01*
X150591Y120057D01*
X448622D01*
X448622Y120057D01*
X448932Y120118D01*
X449194Y120294D01*
X456975Y128075D01*
X457184Y127915D01*
X458182Y127502D01*
X459252Y127361D01*
X460322Y127502D01*
X461320Y127915D01*
X462176Y128572D01*
X462833Y129428D01*
X463246Y130426D01*
X463387Y131496D01*
X463246Y132566D01*
X462833Y133564D01*
X462176Y134420D01*
X461320Y135077D01*
X460322Y135491D01*
X459252Y135631D01*
D02*
G37*
G36*
X122638Y123066D02*
X122097Y122959D01*
X121639Y122653D01*
X121332Y122194D01*
X121225Y121653D01*
X121332Y121113D01*
X121639Y120654D01*
X122097Y120348D01*
X122638Y120241D01*
X123179Y120348D01*
X123637Y120654D01*
X123943Y121113D01*
X124051Y121653D01*
X123943Y122194D01*
X123637Y122653D01*
X123179Y122959D01*
X122638Y123066D01*
D02*
G37*
G36*
X488192Y122253D02*
Y119098D01*
X491348D01*
X491259Y119773D01*
X490921Y120589D01*
X490383Y121289D01*
X489683Y121826D01*
X488867Y122164D01*
X488192Y122253D01*
D02*
G37*
G36*
X487792D02*
X487117Y122164D01*
X486301Y121826D01*
X485601Y121289D01*
X485064Y120589D01*
X484726Y119773D01*
X484637Y119098D01*
X487792D01*
Y122253D01*
D02*
G37*
G36*
X491348Y118698D02*
X488192D01*
Y115542D01*
X488867Y115631D01*
X489683Y115969D01*
X490383Y116506D01*
X490921Y117207D01*
X491259Y118022D01*
X491348Y118698D01*
D02*
G37*
G36*
X487792D02*
X484637D01*
X484726Y118022D01*
X485064Y117207D01*
X485601Y116506D01*
X486301Y115969D01*
X487117Y115631D01*
X487792Y115542D01*
Y118698D01*
D02*
G37*
G36*
X497992Y122279D02*
X497117Y122164D01*
X496301Y121826D01*
X495601Y121289D01*
X495063Y120589D01*
X494726Y119773D01*
X494610Y118898D01*
X494726Y118022D01*
X495063Y117207D01*
X495601Y116506D01*
X496301Y115969D01*
X497117Y115631D01*
X497992Y115516D01*
X498867Y115631D01*
X499683Y115969D01*
X500383Y116506D01*
X500921Y117207D01*
X501259Y118022D01*
X501374Y118898D01*
X501259Y119773D01*
X500921Y120589D01*
X500383Y121289D01*
X499683Y121826D01*
X498867Y122164D01*
X497992Y122279D01*
D02*
G37*
G36*
Y112279D02*
X497117Y112164D01*
X496301Y111826D01*
X495601Y111289D01*
X495063Y110589D01*
X494726Y109773D01*
X494610Y108898D01*
X494726Y108022D01*
X495063Y107207D01*
X495601Y106506D01*
X496301Y105969D01*
X497117Y105631D01*
X497992Y105516D01*
X498867Y105631D01*
X499683Y105969D01*
X500383Y106506D01*
X500921Y107207D01*
X501259Y108022D01*
X501374Y108898D01*
X501259Y109773D01*
X500921Y110589D01*
X500383Y111289D01*
X499683Y111826D01*
X498867Y112164D01*
X497992Y112279D01*
D02*
G37*
G36*
X487992Y112279D02*
X487117Y112164D01*
X486301Y111826D01*
X485601Y111289D01*
X485064Y110588D01*
X484726Y109773D01*
X484610Y108898D01*
X484726Y108022D01*
X485064Y107207D01*
X485601Y106506D01*
X486301Y105969D01*
X487117Y105631D01*
X487992Y105516D01*
X488867Y105631D01*
X489683Y105969D01*
X490383Y106506D01*
X490921Y107207D01*
X491259Y108022D01*
X491374Y108898D01*
X491259Y109773D01*
X490921Y110588D01*
X490383Y111289D01*
X489683Y111826D01*
X488867Y112164D01*
X487992Y112279D01*
D02*
G37*
G36*
X149016Y105350D02*
X148475Y105242D01*
X148017Y104936D01*
X147710Y104478D01*
X147603Y103937D01*
X147710Y103396D01*
X148017Y102938D01*
X148475Y102632D01*
X149016Y102524D01*
X149557Y102632D01*
X150015Y102938D01*
X150321Y103396D01*
X150429Y103937D01*
X150321Y104478D01*
X150015Y104936D01*
X149557Y105242D01*
X149016Y105350D01*
D02*
G37*
G36*
X488192Y102253D02*
Y99098D01*
X491348D01*
X491259Y99773D01*
X490921Y100589D01*
X490383Y101289D01*
X489683Y101826D01*
X488867Y102164D01*
X488192Y102253D01*
D02*
G37*
G36*
X487792D02*
X487117Y102164D01*
X486301Y101826D01*
X485601Y101289D01*
X485064Y100589D01*
X484726Y99773D01*
X484637Y99098D01*
X487792D01*
Y102253D01*
D02*
G37*
G36*
X126181Y100232D02*
X125640Y100124D01*
X125182Y99818D01*
X124876Y99360D01*
X124768Y98819D01*
X124876Y98278D01*
X125182Y97820D01*
X125640Y97514D01*
X126181Y97406D01*
X126722Y97514D01*
X127180Y97820D01*
X127487Y98278D01*
X127594Y98819D01*
X127487Y99360D01*
X127180Y99818D01*
X126722Y100124D01*
X126181Y100232D01*
D02*
G37*
G36*
X131693Y100232D02*
X131152Y100124D01*
X130694Y99818D01*
X130387Y99360D01*
X130280Y98819D01*
X130387Y98278D01*
X130694Y97820D01*
X131152Y97514D01*
X131693Y97406D01*
X132234Y97514D01*
X132692Y97820D01*
X132998Y98278D01*
X133106Y98819D01*
X132998Y99360D01*
X132692Y99818D01*
X132234Y100124D01*
X131693Y100232D01*
D02*
G37*
G36*
X491348Y98698D02*
X488192D01*
Y95542D01*
X488867Y95631D01*
X489683Y95969D01*
X490383Y96506D01*
X490921Y97207D01*
X491259Y98022D01*
X491348Y98698D01*
D02*
G37*
G36*
X487792D02*
X484637D01*
X484726Y98022D01*
X485064Y97207D01*
X485601Y96506D01*
X486301Y95969D01*
X487117Y95631D01*
X487792Y95542D01*
Y98698D01*
D02*
G37*
G36*
X497992Y102279D02*
X497117Y102164D01*
X496301Y101826D01*
X495601Y101289D01*
X495063Y100589D01*
X494726Y99773D01*
X494610Y98898D01*
X494726Y98022D01*
X495063Y97207D01*
X495601Y96506D01*
X496301Y95969D01*
X497117Y95631D01*
X497992Y95516D01*
X498867Y95631D01*
X499683Y95969D01*
X500383Y96506D01*
X500921Y97207D01*
X501259Y98022D01*
X501374Y98898D01*
X501259Y99773D01*
X500921Y100589D01*
X500383Y101289D01*
X499683Y101826D01*
X498867Y102164D01*
X497992Y102279D01*
D02*
G37*
G36*
X424213Y95901D02*
X423672Y95794D01*
X423213Y95487D01*
X422907Y95029D01*
X422800Y94488D01*
X422907Y93947D01*
X423213Y93489D01*
X423672Y93183D01*
X424213Y93075D01*
X424753Y93183D01*
X425212Y93489D01*
X425518Y93947D01*
X425626Y94488D01*
X425518Y95029D01*
X425212Y95487D01*
X424753Y95794D01*
X424213Y95901D01*
D02*
G37*
G36*
X459252Y98624D02*
X458182Y98483D01*
X457184Y98070D01*
X456328Y97412D01*
X455671Y96556D01*
X455258Y95559D01*
X455117Y94488D01*
X455258Y93418D01*
X455671Y92421D01*
X456328Y91564D01*
X457184Y90907D01*
X458182Y90494D01*
X459252Y90353D01*
X460322Y90494D01*
X461320Y90907D01*
X462176Y91564D01*
X462833Y92421D01*
X463246Y93418D01*
X463387Y94488D01*
X463246Y95559D01*
X462833Y96556D01*
X462176Y97412D01*
X461320Y98070D01*
X460322Y98483D01*
X459252Y98624D01*
D02*
G37*
G36*
X497992Y92279D02*
X497117Y92164D01*
X496301Y91826D01*
X495601Y91289D01*
X495063Y90588D01*
X494726Y89773D01*
X494610Y88898D01*
X494726Y88022D01*
X495063Y87207D01*
X495601Y86506D01*
X496301Y85969D01*
X497117Y85631D01*
X497992Y85516D01*
X498867Y85631D01*
X499683Y85969D01*
X500383Y86506D01*
X500921Y87207D01*
X501259Y88022D01*
X501374Y88898D01*
X501259Y89773D01*
X500921Y90588D01*
X500383Y91289D01*
X499683Y91826D01*
X498867Y92164D01*
X497992Y92279D01*
D02*
G37*
G36*
X487992D02*
X487117Y92164D01*
X486301Y91826D01*
X485601Y91289D01*
X485064Y90588D01*
X484726Y89773D01*
X484610Y88898D01*
X484726Y88022D01*
X485064Y87207D01*
X485601Y86506D01*
X486301Y85969D01*
X487117Y85631D01*
X487992Y85516D01*
X488867Y85631D01*
X489683Y85969D01*
X490383Y86506D01*
X490921Y87207D01*
X491259Y88022D01*
X491374Y88898D01*
X491259Y89773D01*
X490921Y90588D01*
X490383Y91289D01*
X489683Y91826D01*
X488867Y92164D01*
X487992Y92279D01*
D02*
G37*
G36*
X164764Y85271D02*
X164223Y85164D01*
X163765Y84857D01*
X163458Y84399D01*
X163351Y83858D01*
X163458Y83318D01*
X163765Y82859D01*
X164223Y82553D01*
X164764Y82445D01*
X165305Y82553D01*
X165763Y82859D01*
X166069Y83318D01*
X166177Y83858D01*
X166069Y84399D01*
X165763Y84857D01*
X165305Y85164D01*
X164764Y85271D01*
D02*
G37*
G36*
X132874Y84399D02*
X132064Y84238D01*
X131378Y83779D01*
X130920Y83093D01*
X130759Y82284D01*
X130825Y81947D01*
X126189Y77311D01*
X126181Y77312D01*
X125372Y77151D01*
X124685Y76693D01*
X124227Y76006D01*
X124066Y75197D01*
X124227Y74387D01*
X124685Y73701D01*
X125372Y73242D01*
X126181Y73081D01*
X126991Y73242D01*
X127677Y73701D01*
X128136Y74387D01*
X128296Y75197D01*
X128164Y75862D01*
X132538Y80235D01*
X132874Y80168D01*
X133684Y80329D01*
X134370Y80788D01*
X134828Y81474D01*
X134990Y82284D01*
X134828Y83093D01*
X134370Y83779D01*
X133684Y84238D01*
X132874Y84399D01*
D02*
G37*
G36*
X488192Y82253D02*
Y79098D01*
X491348D01*
X491259Y79773D01*
X490921Y80589D01*
X490383Y81289D01*
X489683Y81826D01*
X488867Y82164D01*
X488192Y82253D01*
D02*
G37*
G36*
X487792D02*
X487117Y82164D01*
X486301Y81826D01*
X485601Y81289D01*
X485064Y80589D01*
X484726Y79773D01*
X484637Y79098D01*
X487792D01*
Y82253D01*
D02*
G37*
G36*
X424213Y80941D02*
X423672Y80833D01*
X423213Y80527D01*
X422907Y80068D01*
X422800Y79528D01*
X422844Y79304D01*
X417184Y73644D01*
X415470D01*
X415203Y74144D01*
X415282Y74262D01*
X415389Y74803D01*
X415282Y75344D01*
X414976Y75802D01*
X414517Y76109D01*
X413976Y76216D01*
X413436Y76109D01*
X412977Y75802D01*
X412671Y75344D01*
X412563Y74803D01*
X412671Y74262D01*
X412750Y74144D01*
X412483Y73644D01*
X373344D01*
X373077Y74144D01*
X373156Y74262D01*
X373263Y74803D01*
X373156Y75344D01*
X372849Y75802D01*
X372391Y76109D01*
X371850Y76216D01*
X371310Y76109D01*
X370851Y75802D01*
X370545Y75344D01*
X370437Y74803D01*
X370545Y74262D01*
X370624Y74144D01*
X370357Y73644D01*
X331218D01*
X330951Y74144D01*
X331030Y74262D01*
X331137Y74803D01*
X331030Y75344D01*
X330724Y75802D01*
X330265Y76109D01*
X329724Y76216D01*
X329184Y76109D01*
X328725Y75802D01*
X328419Y75344D01*
X328311Y74803D01*
X328419Y74262D01*
X328498Y74144D01*
X328231Y73644D01*
X289092D01*
X288825Y74144D01*
X288904Y74262D01*
X289011Y74803D01*
X288904Y75344D01*
X288597Y75802D01*
X288139Y76109D01*
X287598Y76216D01*
X287058Y76109D01*
X286599Y75802D01*
X286293Y75344D01*
X286185Y74803D01*
X286293Y74262D01*
X286372Y74144D01*
X286105Y73644D01*
X246966D01*
X246699Y74144D01*
X246778Y74262D01*
X246885Y74803D01*
X246778Y75344D01*
X246472Y75802D01*
X246013Y76109D01*
X245472Y76216D01*
X244932Y76109D01*
X244473Y75802D01*
X244167Y75344D01*
X244059Y74803D01*
X244167Y74262D01*
X244246Y74144D01*
X243979Y73644D01*
X204840D01*
X204573Y74144D01*
X204652Y74262D01*
X204759Y74803D01*
X204652Y75344D01*
X204346Y75802D01*
X203887Y76109D01*
X203346Y76216D01*
X202806Y76109D01*
X202347Y75802D01*
X202041Y75344D01*
X201934Y74803D01*
X202041Y74262D01*
X202120Y74144D01*
X201853Y73644D01*
X162714D01*
X162447Y74144D01*
X162526Y74262D01*
X162633Y74803D01*
X162526Y75344D01*
X162220Y75802D01*
X161761Y76109D01*
X161221Y76216D01*
X160680Y76109D01*
X160221Y75802D01*
X159915Y75344D01*
X159808Y74803D01*
X159915Y74262D01*
X159994Y74144D01*
X159727Y73644D01*
X133997D01*
X132668Y74973D01*
X132712Y75197D01*
X132605Y75738D01*
X132298Y76196D01*
X131840Y76502D01*
X131299Y76610D01*
X130759Y76502D01*
X130300Y76196D01*
X129994Y75738D01*
X129886Y75197D01*
X129994Y74656D01*
X130300Y74198D01*
X130759Y73891D01*
X131299Y73784D01*
X131523Y73828D01*
X133089Y72263D01*
X133089Y72262D01*
X133352Y72087D01*
X133661Y72025D01*
X133661Y72025D01*
X417520D01*
X417520Y72025D01*
X417829Y72087D01*
X418092Y72262D01*
X423989Y78159D01*
X424213Y78115D01*
X424753Y78222D01*
X425212Y78528D01*
X425518Y78987D01*
X425626Y79528D01*
X425518Y80068D01*
X425212Y80527D01*
X424753Y80833D01*
X424213Y80941D01*
D02*
G37*
G36*
X487792Y78698D02*
X484637D01*
X484726Y78022D01*
X485064Y77207D01*
X485601Y76506D01*
X486301Y75969D01*
X487117Y75631D01*
X487792Y75542D01*
Y78698D01*
D02*
G37*
G36*
X491348D02*
X488192D01*
Y75542D01*
X488867Y75631D01*
X489683Y75969D01*
X490383Y76506D01*
X490921Y77207D01*
X491259Y78022D01*
X491348Y78698D01*
D02*
G37*
G36*
X497992Y82279D02*
X497117Y82164D01*
X496301Y81826D01*
X495601Y81289D01*
X495063Y80589D01*
X494726Y79773D01*
X494610Y78898D01*
X494726Y78022D01*
X495063Y77207D01*
X495601Y76506D01*
X496301Y75969D01*
X497117Y75631D01*
X497992Y75516D01*
X498867Y75631D01*
X499683Y75969D01*
X500383Y76506D01*
X500921Y77207D01*
X501259Y78022D01*
X501374Y78898D01*
X501259Y79773D01*
X500921Y80589D01*
X500383Y81289D01*
X499683Y81826D01*
X498867Y82164D01*
X497992Y82279D01*
D02*
G37*
G36*
X459252Y83663D02*
X458182Y83522D01*
X457184Y83109D01*
X456328Y82452D01*
X455671Y81595D01*
X455258Y80598D01*
X455117Y79528D01*
X455258Y78457D01*
X455671Y77460D01*
X455831Y77251D01*
X448287Y69707D01*
X151235D01*
X150822Y70079D01*
X150715Y70619D01*
X150409Y71078D01*
X149950Y71384D01*
X149409Y71492D01*
X148869Y71384D01*
X148410Y71078D01*
X148104Y70619D01*
X147996Y70079D01*
X148104Y69538D01*
X148410Y69080D01*
X148869Y68773D01*
X149409Y68666D01*
X149633Y68710D01*
X150018Y68325D01*
X150018Y68325D01*
X150281Y68150D01*
X150591Y68088D01*
X150591Y68088D01*
X448622D01*
X448622Y68088D01*
X448932Y68150D01*
X449194Y68325D01*
X456975Y76107D01*
X457184Y75946D01*
X458182Y75533D01*
X459252Y75392D01*
X460322Y75533D01*
X461320Y75946D01*
X462176Y76603D01*
X462833Y77460D01*
X463246Y78457D01*
X463387Y79528D01*
X463246Y80598D01*
X462833Y81595D01*
X462176Y82452D01*
X461320Y83109D01*
X460322Y83522D01*
X459252Y83663D01*
D02*
G37*
G36*
X122638Y70704D02*
X122097Y70597D01*
X121639Y70290D01*
X121332Y69832D01*
X121225Y69291D01*
X121332Y68751D01*
X121639Y68292D01*
X122097Y67986D01*
X122638Y67878D01*
X123179Y67986D01*
X123637Y68292D01*
X123943Y68751D01*
X124051Y69291D01*
X123943Y69832D01*
X123637Y70290D01*
X123179Y70597D01*
X122638Y70704D01*
D02*
G37*
G36*
X497992Y72279D02*
X497117Y72164D01*
X496301Y71826D01*
X495601Y71289D01*
X495063Y70588D01*
X494726Y69773D01*
X494610Y68898D01*
X494726Y68022D01*
X495063Y67207D01*
X495601Y66506D01*
X496301Y65969D01*
X497117Y65631D01*
X497992Y65516D01*
X498867Y65631D01*
X499683Y65969D01*
X500383Y66506D01*
X500921Y67207D01*
X501259Y68022D01*
X501374Y68898D01*
X501259Y69773D01*
X500921Y70588D01*
X500383Y71289D01*
X499683Y71826D01*
X498867Y72164D01*
X497992Y72279D01*
D02*
G37*
G36*
X487992D02*
X487117Y72164D01*
X486301Y71826D01*
X485601Y71289D01*
X485064Y70588D01*
X484726Y69773D01*
X484610Y68898D01*
X484726Y68022D01*
X485064Y67207D01*
X485601Y66506D01*
X486301Y65969D01*
X487117Y65631D01*
X487992Y65516D01*
X488867Y65631D01*
X489683Y65969D01*
X490383Y66506D01*
X490921Y67207D01*
X491259Y68022D01*
X491374Y68898D01*
X491259Y69773D01*
X490921Y70588D01*
X490383Y71289D01*
X489683Y71826D01*
X488867Y72164D01*
X487992Y72279D01*
D02*
G37*
G36*
X488192Y62253D02*
Y59098D01*
X491348D01*
X491259Y59773D01*
X490921Y60589D01*
X490383Y61289D01*
X489683Y61826D01*
X488867Y62164D01*
X488192Y62253D01*
D02*
G37*
G36*
X487792D02*
X487117Y62164D01*
X486301Y61826D01*
X485601Y61289D01*
X485064Y60589D01*
X484726Y59773D01*
X484637Y59098D01*
X487792D01*
Y62253D01*
D02*
G37*
G36*
X491348Y58698D02*
X488192D01*
Y55542D01*
X488867Y55631D01*
X489683Y55969D01*
X490383Y56506D01*
X490921Y57207D01*
X491259Y58022D01*
X491348Y58698D01*
D02*
G37*
G36*
X487792D02*
X484637D01*
X484726Y58022D01*
X485064Y57207D01*
X485601Y56506D01*
X486301Y55969D01*
X487117Y55631D01*
X487792Y55542D01*
Y58698D01*
D02*
G37*
G36*
X497992Y62279D02*
X497117Y62164D01*
X496301Y61826D01*
X495601Y61289D01*
X495063Y60589D01*
X494726Y59773D01*
X494610Y58898D01*
X494726Y58022D01*
X495063Y57207D01*
X495601Y56506D01*
X496301Y55969D01*
X497117Y55631D01*
X497992Y55516D01*
X498867Y55631D01*
X499683Y55969D01*
X500383Y56506D01*
X500921Y57207D01*
X501259Y58022D01*
X501374Y58898D01*
X501259Y59773D01*
X500921Y60589D01*
X500383Y61289D01*
X499683Y61826D01*
X498867Y62164D01*
X497992Y62279D01*
D02*
G37*
G36*
X149016Y53382D02*
X148475Y53274D01*
X148017Y52968D01*
X147710Y52509D01*
X147603Y51968D01*
X147710Y51428D01*
X148017Y50969D01*
X148475Y50663D01*
X149016Y50555D01*
X149557Y50663D01*
X150015Y50969D01*
X150321Y51428D01*
X150429Y51968D01*
X150321Y52509D01*
X150015Y52968D01*
X149557Y53274D01*
X149016Y53382D01*
D02*
G37*
G36*
X497992Y52279D02*
X497117Y52164D01*
X496301Y51826D01*
X495601Y51289D01*
X495063Y50589D01*
X494726Y49773D01*
X494610Y48898D01*
X494726Y48022D01*
X495063Y47207D01*
X495601Y46506D01*
X496301Y45969D01*
X497117Y45631D01*
X497992Y45516D01*
X498867Y45631D01*
X499683Y45969D01*
X500383Y46506D01*
X500921Y47207D01*
X501259Y48022D01*
X501374Y48898D01*
X501259Y49773D01*
X500921Y50589D01*
X500383Y51289D01*
X499683Y51826D01*
X498867Y52164D01*
X497992Y52279D01*
D02*
G37*
G36*
X487992D02*
X487117Y52164D01*
X486301Y51826D01*
X485601Y51289D01*
X485064Y50589D01*
X484726Y49773D01*
X484610Y48898D01*
X484726Y48022D01*
X485064Y47207D01*
X485601Y46506D01*
X486301Y45969D01*
X487117Y45631D01*
X487992Y45516D01*
X488867Y45631D01*
X489683Y45969D01*
X490383Y46506D01*
X490921Y47207D01*
X491259Y48022D01*
X491374Y48898D01*
X491259Y49773D01*
X490921Y50589D01*
X490383Y51289D01*
X489683Y51826D01*
X488867Y52164D01*
X487992Y52279D01*
D02*
G37*
G36*
X131693Y48263D02*
X131152Y48156D01*
X130694Y47850D01*
X130387Y47391D01*
X130280Y46850D01*
X130387Y46310D01*
X130694Y45851D01*
X131152Y45545D01*
X131693Y45437D01*
X132234Y45545D01*
X132692Y45851D01*
X132998Y46310D01*
X133106Y46850D01*
X132998Y47391D01*
X132692Y47850D01*
X132234Y48156D01*
X131693Y48263D01*
D02*
G37*
G36*
X126181D02*
X125640Y48156D01*
X125182Y47850D01*
X124876Y47391D01*
X124768Y46850D01*
X124876Y46310D01*
X125182Y45851D01*
X125640Y45545D01*
X126181Y45437D01*
X126722Y45545D01*
X127180Y45851D01*
X127487Y46310D01*
X127594Y46850D01*
X127487Y47391D01*
X127180Y47850D01*
X126722Y48156D01*
X126181Y48263D01*
D02*
G37*
G36*
X424213Y43933D02*
X423672Y43825D01*
X423213Y43519D01*
X422907Y43060D01*
X422800Y42520D01*
X422907Y41979D01*
X423213Y41521D01*
X423672Y41214D01*
X424213Y41107D01*
X424753Y41214D01*
X425212Y41521D01*
X425518Y41979D01*
X425626Y42520D01*
X425518Y43060D01*
X425212Y43519D01*
X424753Y43825D01*
X424213Y43933D01*
D02*
G37*
G36*
X488192Y42253D02*
Y39098D01*
X491348D01*
X491259Y39773D01*
X490921Y40589D01*
X490383Y41289D01*
X489683Y41826D01*
X488867Y42164D01*
X488192Y42253D01*
D02*
G37*
G36*
X487792D02*
X487117Y42164D01*
X486301Y41826D01*
X485601Y41289D01*
X485064Y40589D01*
X484726Y39773D01*
X484637Y39098D01*
X487792D01*
Y42253D01*
D02*
G37*
G36*
X459252Y46655D02*
X458182Y46514D01*
X457184Y46101D01*
X456328Y45444D01*
X455671Y44587D01*
X455258Y43590D01*
X455117Y42520D01*
X455258Y41449D01*
X455671Y40452D01*
X456328Y39595D01*
X457184Y38938D01*
X458182Y38525D01*
X459252Y38384D01*
X460322Y38525D01*
X461320Y38938D01*
X462176Y39595D01*
X462833Y40452D01*
X463246Y41449D01*
X463387Y42520D01*
X463246Y43590D01*
X462833Y44587D01*
X462176Y45444D01*
X461320Y46101D01*
X460322Y46514D01*
X459252Y46655D01*
D02*
G37*
G36*
X491348Y38698D02*
X488192D01*
Y35542D01*
X488867Y35631D01*
X489683Y35969D01*
X490383Y36506D01*
X490921Y37207D01*
X491259Y38022D01*
X491348Y38698D01*
D02*
G37*
G36*
X487792D02*
X484637D01*
X484726Y38022D01*
X485064Y37207D01*
X485601Y36506D01*
X486301Y35969D01*
X487117Y35631D01*
X487792Y35542D01*
Y38698D01*
D02*
G37*
G36*
X497992Y42279D02*
X497117Y42164D01*
X496301Y41826D01*
X495601Y41289D01*
X495063Y40589D01*
X494726Y39773D01*
X494610Y38898D01*
X494726Y38022D01*
X495063Y37207D01*
X495601Y36506D01*
X496301Y35969D01*
X497117Y35631D01*
X497992Y35516D01*
X498867Y35631D01*
X499683Y35969D01*
X500383Y36506D01*
X500921Y37207D01*
X501259Y38022D01*
X501374Y38898D01*
X501259Y39773D01*
X500921Y40589D01*
X500383Y41289D01*
X499683Y41826D01*
X498867Y42164D01*
X497992Y42279D01*
D02*
G37*
G36*
X164764Y33303D02*
X164223Y33195D01*
X163765Y32889D01*
X163458Y32430D01*
X163351Y31890D01*
X163458Y31349D01*
X163765Y30891D01*
X164223Y30584D01*
X164764Y30477D01*
X165305Y30584D01*
X165763Y30891D01*
X166069Y31349D01*
X166177Y31890D01*
X166069Y32430D01*
X165763Y32889D01*
X165305Y33195D01*
X164764Y33303D01*
D02*
G37*
G36*
X132874Y32430D02*
X132064Y32269D01*
X131378Y31811D01*
X130920Y31124D01*
X130759Y30315D01*
X130825Y29979D01*
X126189Y25342D01*
X126181Y25344D01*
X125372Y25183D01*
X124685Y24724D01*
X124227Y24038D01*
X124066Y23228D01*
X124227Y22419D01*
X124685Y21733D01*
X125372Y21274D01*
X126181Y21113D01*
X126991Y21274D01*
X127677Y21733D01*
X128136Y22419D01*
X128296Y23228D01*
X128164Y23893D01*
X132538Y28266D01*
X132874Y28199D01*
X133684Y28361D01*
X134370Y28819D01*
X134828Y29505D01*
X134990Y30315D01*
X134828Y31124D01*
X134370Y31811D01*
X133684Y32269D01*
X132874Y32430D01*
D02*
G37*
G36*
X424213Y28972D02*
X423672Y28864D01*
X423213Y28558D01*
X422907Y28100D01*
X422800Y27559D01*
X422844Y27335D01*
X417184Y21675D01*
X415470D01*
X415203Y22175D01*
X415282Y22294D01*
X415389Y22835D01*
X415282Y23375D01*
X414976Y23834D01*
X414517Y24140D01*
X413976Y24248D01*
X413436Y24140D01*
X412977Y23834D01*
X412671Y23375D01*
X412563Y22835D01*
X412671Y22294D01*
X412750Y22175D01*
X412483Y21675D01*
X373344D01*
X373077Y22175D01*
X373156Y22294D01*
X373263Y22835D01*
X373156Y23375D01*
X372849Y23834D01*
X372391Y24140D01*
X371850Y24248D01*
X371310Y24140D01*
X370851Y23834D01*
X370545Y23375D01*
X370437Y22835D01*
X370545Y22294D01*
X370624Y22175D01*
X370357Y21675D01*
X331218D01*
X330951Y22175D01*
X331030Y22294D01*
X331137Y22835D01*
X331030Y23375D01*
X330724Y23834D01*
X330265Y24140D01*
X329724Y24248D01*
X329184Y24140D01*
X328725Y23834D01*
X328419Y23375D01*
X328311Y22835D01*
X328419Y22294D01*
X328498Y22175D01*
X328231Y21675D01*
X289092D01*
X288825Y22175D01*
X288904Y22294D01*
X289011Y22835D01*
X288904Y23375D01*
X288597Y23834D01*
X288139Y24140D01*
X287598Y24248D01*
X287058Y24140D01*
X286599Y23834D01*
X286293Y23375D01*
X286185Y22835D01*
X286293Y22294D01*
X286372Y22175D01*
X286105Y21675D01*
X246966D01*
X246699Y22175D01*
X246778Y22294D01*
X246885Y22835D01*
X246778Y23375D01*
X246472Y23834D01*
X246013Y24140D01*
X245472Y24248D01*
X244932Y24140D01*
X244473Y23834D01*
X244167Y23375D01*
X244059Y22835D01*
X244167Y22294D01*
X244246Y22175D01*
X243979Y21675D01*
X204840D01*
X204573Y22175D01*
X204652Y22294D01*
X204759Y22835D01*
X204652Y23375D01*
X204346Y23834D01*
X203887Y24140D01*
X203346Y24248D01*
X202806Y24140D01*
X202347Y23834D01*
X202041Y23375D01*
X201934Y22835D01*
X202041Y22294D01*
X202120Y22175D01*
X201853Y21675D01*
X162714D01*
X162447Y22175D01*
X162526Y22294D01*
X162633Y22835D01*
X162526Y23375D01*
X162220Y23834D01*
X161761Y24140D01*
X161221Y24248D01*
X160680Y24140D01*
X160221Y23834D01*
X159915Y23375D01*
X159808Y22835D01*
X159915Y22294D01*
X159994Y22175D01*
X159727Y21675D01*
X133997D01*
X132668Y23004D01*
X132712Y23228D01*
X132605Y23769D01*
X132298Y24227D01*
X131840Y24534D01*
X131299Y24641D01*
X130759Y24534D01*
X130300Y24227D01*
X129994Y23769D01*
X129886Y23228D01*
X129994Y22688D01*
X130300Y22229D01*
X130759Y21923D01*
X131299Y21815D01*
X131523Y21860D01*
X133089Y20294D01*
X133089Y20294D01*
X133352Y20119D01*
X133661Y20057D01*
X133661Y20057D01*
X417520D01*
X417520Y20057D01*
X417829Y20119D01*
X418092Y20294D01*
X423989Y26191D01*
X424213Y26146D01*
X424753Y26254D01*
X425212Y26560D01*
X425518Y27018D01*
X425626Y27559D01*
X425518Y28100D01*
X425212Y28558D01*
X424753Y28864D01*
X424213Y28972D01*
D02*
G37*
G36*
X501345Y32250D02*
X494639D01*
Y25545D01*
X501345D01*
Y32250D01*
D02*
G37*
G36*
X487992Y32279D02*
X487117Y32164D01*
X486301Y31826D01*
X485601Y31289D01*
X485064Y30588D01*
X484726Y29773D01*
X484610Y28898D01*
X484726Y28022D01*
X485064Y27207D01*
X485601Y26506D01*
X486301Y25969D01*
X487117Y25631D01*
X487992Y25516D01*
X488867Y25631D01*
X489683Y25969D01*
X490383Y26506D01*
X490921Y27207D01*
X491259Y28022D01*
X491374Y28898D01*
X491259Y29773D01*
X490921Y30588D01*
X490383Y31289D01*
X489683Y31826D01*
X488867Y32164D01*
X487992Y32279D01*
D02*
G37*
G36*
X459252Y31694D02*
X458182Y31554D01*
X457184Y31140D01*
X456328Y30483D01*
X455671Y29627D01*
X455258Y28629D01*
X455117Y27559D01*
X455258Y26489D01*
X455671Y25491D01*
X455831Y25282D01*
X448287Y17738D01*
X151235D01*
X150822Y18110D01*
X150715Y18651D01*
X150409Y19109D01*
X149950Y19416D01*
X149409Y19523D01*
X148869Y19416D01*
X148410Y19109D01*
X148104Y18651D01*
X147996Y18110D01*
X148104Y17570D01*
X148410Y17111D01*
X148869Y16805D01*
X149409Y16697D01*
X149633Y16742D01*
X150018Y16357D01*
X150018Y16357D01*
X150281Y16182D01*
X150591Y16120D01*
X150591Y16120D01*
X448622D01*
X448622Y16120D01*
X448932Y16182D01*
X449194Y16357D01*
X456975Y24138D01*
X457184Y23978D01*
X458182Y23565D01*
X459252Y23424D01*
X460322Y23565D01*
X461320Y23978D01*
X462176Y24635D01*
X462833Y25491D01*
X463246Y26489D01*
X463387Y27559D01*
X463246Y28629D01*
X462833Y29627D01*
X462176Y30483D01*
X461320Y31140D01*
X460322Y31554D01*
X459252Y31694D01*
D02*
G37*
G36*
X122638Y19129D02*
X122097Y19022D01*
X121639Y18716D01*
X121332Y18257D01*
X121225Y17717D01*
X121332Y17176D01*
X121639Y16717D01*
X122097Y16411D01*
X122638Y16304D01*
X123179Y16411D01*
X123637Y16717D01*
X123943Y17176D01*
X124051Y17717D01*
X123943Y18257D01*
X123637Y18716D01*
X123179Y19022D01*
X122638Y19129D01*
D02*
G37*
%LPD*%
D10*
X91542Y162998D02*
X97835Y169291D01*
X91535Y142415D02*
X91542Y142421D01*
Y162998D01*
X85236Y138976D02*
X89173D01*
X85236Y141339D02*
X88779D01*
X90354Y142913D01*
Y169291D01*
X94685Y173622D01*
X87986Y144095D02*
X89167Y145276D01*
X85236Y144095D02*
X87986D01*
X89167Y145276D02*
Y175584D01*
X91535Y177953D01*
X87980Y178334D02*
X89567Y179921D01*
X87980Y148019D02*
Y178334D01*
X86811Y146850D02*
X87980Y148019D01*
X85236Y146850D02*
X86811D01*
X91535Y141339D02*
Y142415D01*
X89173Y138976D02*
X91535Y141339D01*
X78528Y154710D02*
X86417Y162598D01*
Y179288D02*
X89019Y181890D01*
X91535D01*
X76060Y153468D02*
X76166Y153575D01*
X88901Y183459D02*
X89301Y183858D01*
X88618Y183459D02*
X88901D01*
X73492Y153656D02*
Y154734D01*
X83268Y164510D02*
Y180076D01*
X90200Y187008D02*
X94685D01*
X89301Y183858D02*
X89567D01*
X84842Y179683D02*
X88618Y183459D01*
X91142Y190157D02*
X99803D01*
X81693Y165354D02*
Y180709D01*
X70736Y153656D02*
Y154397D01*
X78528Y153575D02*
Y154710D01*
X76166Y154710D02*
X84842Y163386D01*
X76166Y153575D02*
Y154710D01*
X84842Y163386D02*
Y179683D01*
X73492Y154734D02*
X83268Y164510D01*
X73304Y153468D02*
X73492Y153656D01*
X83268Y180076D02*
X90200Y187008D01*
X78422Y153468D02*
X78528Y153575D01*
X86417Y162598D02*
Y179288D01*
X70736Y154397D02*
X81693Y165354D01*
X70548Y153468D02*
X70736Y153656D01*
X81693Y180709D02*
X91142Y190157D01*
X81693Y76772D02*
X91142Y86221D01*
X70548Y49531D02*
X70736Y49719D01*
Y50460D02*
X81693Y61417D01*
X86417Y58661D02*
Y75351D01*
X78422Y49531D02*
X78528Y49638D01*
X83268Y76139D02*
X90200Y83071D01*
X73304Y49531D02*
X73492Y49719D01*
Y50797D02*
X83268Y60573D01*
X84842Y59449D02*
Y75746D01*
X76166Y49638D02*
Y50773D01*
X84842Y59449D01*
X78528Y49638D02*
Y50773D01*
X70736Y49719D02*
Y50460D01*
X81693Y61417D02*
Y76772D01*
X91142Y86221D02*
X99803D01*
X84842Y75746D02*
X88618Y79522D01*
X89301Y79921D02*
X89567D01*
X90200Y83071D02*
X94685D01*
X83268Y60573D02*
Y76139D01*
X73492Y49719D02*
Y50797D01*
X88618Y79522D02*
X88901D01*
X89301Y79921D01*
X76060Y49531D02*
X76166Y49638D01*
X89019Y77953D02*
X91535D01*
X86417Y75351D02*
X89019Y77953D01*
X78528Y50773D02*
X86417Y58661D01*
X89173Y35039D02*
X91535Y37402D01*
Y38478D01*
X85236Y42913D02*
X86811D01*
X87980Y44082D01*
Y74397D01*
X89567Y75984D01*
X89167Y71647D02*
X91535Y74016D01*
X89167Y41339D02*
Y71647D01*
X85236Y40157D02*
X87986D01*
X89167Y41339D01*
X90354Y65354D02*
X94685Y69685D01*
X90354Y38976D02*
Y65354D01*
X88779Y37402D02*
X90354Y38976D01*
X85236Y37402D02*
X88779D01*
X85236Y35039D02*
X89173D01*
X91542Y38484D02*
Y59061D01*
X91535Y38478D02*
X91542Y38484D01*
Y59061D02*
X97835Y65354D01*
X417520Y228740D02*
X425000Y236221D01*
X424606Y183858D02*
Y183858D01*
X417520Y176772D02*
X424606Y183858D01*
X448622Y16929D02*
X459252Y27559D01*
X150591Y16929D02*
X448622D01*
Y68898D02*
X459252Y79528D01*
X150591Y68898D02*
X448622D01*
X448622Y224803D02*
X459252Y235433D01*
X150591Y224803D02*
X448622D01*
X448622Y172835D02*
X459252Y183465D01*
X150591Y172835D02*
X448622D01*
X448622Y120866D02*
X459252Y131496D01*
X150591Y120866D02*
X448622D01*
X133661Y228740D02*
X417520D01*
X131299Y231102D02*
X133661Y228740D01*
X157283Y251181D02*
X161221Y255118D01*
X125787Y251181D02*
X157283D01*
X122373Y254596D02*
X125787Y251181D01*
X108465Y265748D02*
X113189D01*
X122373Y256564D01*
Y254596D02*
Y256564D01*
X198228Y250000D02*
X203346Y255118D01*
X157775Y249994D02*
X157782Y250000D01*
X198228D01*
X121185Y254104D02*
X125296Y249994D01*
X157775D01*
X112008Y262598D02*
X114579D01*
X121185Y255992D01*
Y254104D02*
Y255992D01*
X119998Y253612D02*
Y255500D01*
X239173Y248819D02*
X245472Y255118D01*
X198726Y248819D02*
X239173D01*
X198714Y248806D02*
X198726Y248819D01*
X124804Y248806D02*
X198714D01*
X113976Y260630D02*
X114165Y260442D01*
X115057D01*
X119998Y255500D01*
Y253612D02*
X124804Y248806D01*
X118810Y253120D02*
Y255008D01*
X280099Y247619D02*
X287598Y255118D01*
X124312Y247619D02*
X280099D01*
X118810Y253120D02*
X124312Y247619D01*
X112008Y258661D02*
X115157D01*
X118810Y255008D01*
X117623Y252628D02*
Y253046D01*
X321063Y246457D02*
X329724Y255118D01*
X280616Y246457D02*
X321063D01*
X280591Y246431D02*
X280616Y246457D01*
X123820Y246431D02*
X280591D01*
X113976Y256693D02*
X113976D01*
X117623Y253046D01*
Y252628D02*
X123820Y246431D01*
X362008Y245276D02*
X371850Y255118D01*
X321561Y245276D02*
X362008D01*
X321530Y245244D02*
X321561Y245276D01*
X112008Y254724D02*
X113848D01*
X123328Y245244D01*
X321530D01*
X402953Y244094D02*
X413976Y255118D01*
X362506Y244094D02*
X402953D01*
X362468Y244057D02*
X362506Y244094D01*
X122836Y244057D02*
X362468D01*
X108465Y251575D02*
X115318D01*
X122836Y244057D01*
X149409Y225984D02*
X150591Y224803D01*
X133661Y176772D02*
X417520D01*
X131299Y179134D02*
X133661Y176772D01*
X157283Y199213D02*
X161221Y203150D01*
X125787Y199213D02*
X157283D01*
X122373Y202627D02*
X125787Y199213D01*
X108465Y213779D02*
X113189D01*
X122373Y204596D01*
Y202627D02*
Y204596D01*
X198228Y198031D02*
X203346Y203150D01*
X157775Y198025D02*
X157782Y198031D01*
X198228D01*
X121185Y202135D02*
X125296Y198025D01*
X157775D01*
X112008Y210630D02*
X114579D01*
X121185Y204024D01*
Y202135D02*
Y204024D01*
X119998Y201644D02*
Y203532D01*
X239173Y196850D02*
X245472Y203150D01*
X198726Y196850D02*
X239173D01*
X198714Y196838D02*
X198726Y196850D01*
X124804Y196838D02*
X198714D01*
X113976Y208661D02*
X114165Y208473D01*
X115057D01*
X119998Y203532D01*
Y201644D02*
X124804Y196838D01*
X118810Y201152D02*
Y203040D01*
X280099Y195650D02*
X287598Y203150D01*
X124312Y195650D02*
X280099D01*
X118810Y201152D02*
X124312Y195650D01*
X112008Y206693D02*
X115157D01*
X118810Y203040D01*
X117623Y200660D02*
Y201078D01*
X321063Y194488D02*
X329724Y203150D01*
X280616Y194488D02*
X321063D01*
X280591Y194463D02*
X280616Y194488D01*
X123820Y194463D02*
X280591D01*
X113976Y204724D02*
X113976D01*
X117623Y201078D01*
Y200660D02*
X123820Y194463D01*
X362008Y193307D02*
X371850Y203150D01*
X321561Y193307D02*
X362008D01*
X321530Y193276D02*
X321561Y193307D01*
X112008Y202756D02*
X113848D01*
X123328Y193276D01*
X321530D01*
X402953Y192126D02*
X413976Y203150D01*
X362506Y192126D02*
X402953D01*
X362468Y192088D02*
X362506Y192126D01*
X122836Y192088D02*
X362468D01*
X108465Y199606D02*
X115318D01*
X122836Y192088D01*
X149409Y174016D02*
X150591Y172835D01*
X417520Y124803D02*
X424213Y131496D01*
X133661Y124803D02*
X417520D01*
X131299Y127165D02*
X133661Y124803D01*
X157283Y147244D02*
X161221Y151181D01*
X125787Y147244D02*
X157283D01*
X122373Y150659D02*
X125787Y147244D01*
X108465Y161811D02*
X113189D01*
X122373Y152627D01*
Y150659D02*
Y152627D01*
X198228Y146063D02*
X203346Y151181D01*
X157775Y146057D02*
X157782Y146063D01*
X198228D01*
X121185Y150167D02*
X125296Y146057D01*
X157775D01*
X112008Y158661D02*
X114579D01*
X121185Y152055D01*
Y150167D02*
Y152055D01*
X119998Y149675D02*
Y151563D01*
X239173Y144882D02*
X245472Y151181D01*
X198726Y144882D02*
X239173D01*
X198714Y144869D02*
X198726Y144882D01*
X124804Y144869D02*
X198714D01*
X113976Y156693D02*
X114165Y156505D01*
X115057D01*
X119998Y151563D01*
Y149675D02*
X124804Y144869D01*
X118810Y149183D02*
Y151071D01*
X280099Y143682D02*
X287598Y151181D01*
X124312Y143682D02*
X280099D01*
X118810Y149183D02*
X124312Y143682D01*
X112008Y154724D02*
X115157D01*
X118810Y151071D01*
X117623Y148691D02*
Y149109D01*
X321063Y142520D02*
X329724Y151181D01*
X280616Y142520D02*
X321063D01*
X280591Y142494D02*
X280616Y142520D01*
X123820Y142494D02*
X280591D01*
X113976Y152756D02*
X113976D01*
X117623Y149109D01*
Y148691D02*
X123820Y142494D01*
X362008Y141339D02*
X371850Y151181D01*
X321561Y141339D02*
X362008D01*
X321530Y141307D02*
X321561Y141339D01*
X112008Y150787D02*
X113848D01*
X123328Y141307D01*
X321530D01*
X402953Y140157D02*
X413976Y151181D01*
X362506Y140157D02*
X402953D01*
X362468Y140120D02*
X362506Y140157D01*
X122836Y140120D02*
X362468D01*
X108465Y147638D02*
X115318D01*
X122836Y140120D01*
X149409Y122047D02*
X150591Y120866D01*
X417520Y72835D02*
X424213Y79528D01*
X133661Y72835D02*
X417520D01*
X131299Y75197D02*
X133661Y72835D01*
X157283Y95276D02*
X161221Y99213D01*
X125787Y95276D02*
X157283D01*
X122373Y98690D02*
X125787Y95276D01*
X108465Y109843D02*
X113189D01*
X122373Y100659D01*
Y98690D02*
Y100659D01*
X198228Y94095D02*
X203346Y99213D01*
X157775Y94088D02*
X157782Y94095D01*
X198228D01*
X121185Y98198D02*
X125296Y94088D01*
X157775D01*
X112008Y106693D02*
X114579D01*
X121185Y100086D01*
Y98198D02*
Y100086D01*
X119998Y97707D02*
Y99595D01*
X239173Y92913D02*
X245472Y99213D01*
X198726Y92913D02*
X239173D01*
X198714Y92901D02*
X198726Y92913D01*
X124804Y92901D02*
X198714D01*
X113976Y104724D02*
X114165Y104536D01*
X115057D01*
X119998Y99595D01*
Y97707D02*
X124804Y92901D01*
X118810Y97215D02*
Y99103D01*
X280099Y91713D02*
X287598Y99213D01*
X124312Y91713D02*
X280099D01*
X118810Y97215D02*
X124312Y91713D01*
X112008Y102756D02*
X115157D01*
X118810Y99103D01*
X117623Y96723D02*
Y97141D01*
X321063Y90551D02*
X329724Y99213D01*
X280616Y90551D02*
X321063D01*
X280591Y90526D02*
X280616Y90551D01*
X123820Y90526D02*
X280591D01*
X113976Y100787D02*
X113976D01*
X117623Y97141D01*
Y96723D02*
X123820Y90526D01*
X362008Y89370D02*
X371850Y99213D01*
X321561Y89370D02*
X362008D01*
X321530Y89339D02*
X321561Y89370D01*
X112008Y98819D02*
X113848D01*
X123328Y89339D01*
X321530D01*
X402953Y88189D02*
X413976Y99213D01*
X362506Y88189D02*
X402953D01*
X362468Y88151D02*
X362506Y88189D01*
X122836Y88151D02*
X362468D01*
X108465Y95669D02*
X115318D01*
X122836Y88151D01*
X149409Y70079D02*
X150591Y68898D01*
X417520Y20866D02*
X424213Y27559D01*
X133661Y20866D02*
X417520D01*
X131299Y23228D02*
X133661Y20866D01*
X157283Y43307D02*
X161221Y47244D01*
X125787Y43307D02*
X157283D01*
X122373Y46722D02*
X125787Y43307D01*
X108465Y57874D02*
X113189D01*
X122373Y48690D01*
Y46722D02*
Y48690D01*
X198228Y42126D02*
X203346Y47244D01*
X157775Y42120D02*
X157782Y42126D01*
X198228D01*
X121185Y46230D02*
X125296Y42120D01*
X157775D01*
X112008Y54724D02*
X114579D01*
X121185Y48118D01*
Y46230D02*
Y48118D01*
X119998Y45738D02*
Y47626D01*
X239173Y40945D02*
X245472Y47244D01*
X198726Y40945D02*
X239173D01*
X198714Y40932D02*
X198726Y40945D01*
X124804Y40932D02*
X198714D01*
X113976Y52756D02*
X114165Y52568D01*
X115057D01*
X119998Y47626D01*
Y45738D02*
X124804Y40932D01*
X118810Y45246D02*
Y47134D01*
X280099Y39745D02*
X287598Y47244D01*
X124312Y39745D02*
X280099D01*
X118810Y45246D02*
X124312Y39745D01*
X112008Y50787D02*
X115157D01*
X118810Y47134D01*
X117623Y44754D02*
Y45172D01*
X321063Y38583D02*
X329724Y47244D01*
X280616Y38583D02*
X321063D01*
X280591Y38557D02*
X280616Y38583D01*
X123820Y38557D02*
X280591D01*
X113976Y48819D02*
X113976D01*
X117623Y45172D01*
Y44754D02*
X123820Y38557D01*
X362008Y37402D02*
X371850Y47244D01*
X321561Y37402D02*
X362008D01*
X321530Y37370D02*
X321561Y37402D01*
X112008Y46850D02*
X113848D01*
X123328Y37370D01*
X321530D01*
X402953Y36220D02*
X413976Y47244D01*
X362506Y36220D02*
X402953D01*
X362468Y36183D02*
X362506Y36220D01*
X122836Y36183D02*
X362468D01*
X108465Y43701D02*
X115318D01*
X122836Y36183D01*
X149409Y18110D02*
X150591Y16929D01*
D60*
X13583Y180905D02*
X27953D01*
X28543Y181496D01*
X13583Y151575D02*
Y180905D01*
Y188583D01*
X6102Y149213D02*
X11220D01*
X13583Y151575D01*
X11457Y190709D02*
X13583Y188583D01*
X6102Y190709D02*
X11457D01*
D61*
X126181Y231496D02*
X132874Y238189D01*
X126181Y231102D02*
Y231496D01*
X126181Y179528D02*
X132874Y186221D01*
X126181Y179134D02*
Y179528D01*
X126181Y127559D02*
X132874Y134252D01*
X126181Y127165D02*
Y127559D01*
Y75591D02*
X132874Y82284D01*
X126181Y75197D02*
Y75591D01*
Y23622D02*
X132874Y30315D01*
X126181Y23228D02*
Y23622D01*
D63*
X28543Y181496D02*
D03*
D65*
X487992Y169055D02*
D03*
Y189055D02*
D03*
Y209055D02*
D03*
Y229055D02*
D03*
Y249055D02*
D03*
X487992Y38898D02*
D03*
X487992Y58898D02*
D03*
Y78898D02*
D03*
Y98898D02*
D03*
X487992Y118898D02*
D03*
X6102Y149213D02*
D03*
Y190709D02*
D03*
D66*
X459252Y27559D02*
D03*
Y79528D02*
D03*
Y131496D02*
D03*
Y183465D02*
D03*
Y235433D02*
D03*
D67*
X44882Y108858D02*
D03*
X51575Y240354D02*
D03*
X51772Y190945D02*
D03*
Y30118D02*
D03*
Y138976D02*
D03*
X65083Y172680D02*
D03*
X28346Y139567D02*
D03*
X26181Y91535D02*
D03*
Y94488D02*
D03*
X45276Y146457D02*
D03*
Y143504D02*
D03*
X10630Y112795D02*
D03*
X65354Y120669D02*
D03*
Y224803D02*
D03*
Y16535D02*
D03*
X65158Y68504D02*
D03*
X67913Y52756D02*
D03*
Y260630D02*
D03*
Y208661D02*
D03*
X68307Y104331D02*
D03*
X67913Y156693D02*
D03*
X97835Y169291D02*
D03*
X85236Y138976D02*
D03*
X94685Y173622D02*
D03*
X85236Y141339D02*
D03*
Y144095D02*
D03*
Y146850D02*
D03*
X91535Y177953D02*
D03*
X89567Y179921D02*
D03*
X91535Y181890D02*
D03*
X89567Y183858D02*
D03*
X94685Y187008D02*
D03*
X99803Y190157D02*
D03*
X70548Y153468D02*
D03*
X73304D02*
D03*
X76060D02*
D03*
X78422D02*
D03*
Y49531D02*
D03*
X76060D02*
D03*
X73304D02*
D03*
X70548D02*
D03*
X99803Y86221D02*
D03*
X94685Y83071D02*
D03*
X89567Y79921D02*
D03*
X91535Y77953D02*
D03*
X89567Y75984D02*
D03*
X91535Y74016D02*
D03*
X85236Y42913D02*
D03*
Y40157D02*
D03*
Y37402D02*
D03*
X94685Y69685D02*
D03*
X85236Y35039D02*
D03*
X97835Y65354D02*
D03*
X459252Y242913D02*
D03*
X459646Y227165D02*
D03*
X459252Y206299D02*
D03*
Y35039D02*
D03*
X458858Y138976D02*
D03*
X459252Y103543D02*
D03*
X500984Y136614D02*
D03*
Y148425D02*
D03*
X487205Y136614D02*
D03*
X481299Y148031D02*
D03*
X454528Y268504D02*
D03*
X448228D02*
D03*
X438779D02*
D03*
X419882D02*
D03*
X429331D02*
D03*
X382087D02*
D03*
X372638D02*
D03*
X391535D02*
D03*
X400984D02*
D03*
X410433D02*
D03*
X315945D02*
D03*
X306496D02*
D03*
X287598D02*
D03*
X297047D02*
D03*
X344291D02*
D03*
X334842D02*
D03*
X325394D02*
D03*
X353740D02*
D03*
X363189D02*
D03*
X230906D02*
D03*
X221457D02*
D03*
X193110D02*
D03*
X202559D02*
D03*
X212008D02*
D03*
X249803D02*
D03*
X240354D02*
D03*
X259252D02*
D03*
X268701D02*
D03*
X278150D02*
D03*
X145866D02*
D03*
X136417D02*
D03*
X126969D02*
D03*
X164764D02*
D03*
X155315D02*
D03*
X174213D02*
D03*
X183661D02*
D03*
X454528Y9449D02*
D03*
X448228D02*
D03*
X438779D02*
D03*
X419882D02*
D03*
X429331D02*
D03*
X382087D02*
D03*
X372638D02*
D03*
X391535D02*
D03*
X400984D02*
D03*
X410433D02*
D03*
X315945D02*
D03*
X306496D02*
D03*
X287598D02*
D03*
X297047D02*
D03*
X344291D02*
D03*
X334842D02*
D03*
X325394D02*
D03*
X353740D02*
D03*
X363189D02*
D03*
X230906D02*
D03*
X221457D02*
D03*
X193110D02*
D03*
X202559D02*
D03*
X212008D02*
D03*
X249803D02*
D03*
X240354D02*
D03*
X259252D02*
D03*
X268701D02*
D03*
X278150D02*
D03*
X145866D02*
D03*
X136417D02*
D03*
X126969D02*
D03*
X164764D02*
D03*
X155315D02*
D03*
X174213D02*
D03*
X183661D02*
D03*
X454528Y61024D02*
D03*
X448228D02*
D03*
X438779D02*
D03*
X419882D02*
D03*
X429331D02*
D03*
X382087D02*
D03*
X372638D02*
D03*
X391535D02*
D03*
X400984D02*
D03*
X410433D02*
D03*
X315945D02*
D03*
X306496D02*
D03*
X287598D02*
D03*
X297047D02*
D03*
X344291D02*
D03*
X334842D02*
D03*
X325394D02*
D03*
X353740D02*
D03*
X363189D02*
D03*
X230906D02*
D03*
X221457D02*
D03*
X193110D02*
D03*
X202559D02*
D03*
X212008D02*
D03*
X249803D02*
D03*
X240354D02*
D03*
X259252D02*
D03*
X268701D02*
D03*
X278150D02*
D03*
X145866D02*
D03*
X136417D02*
D03*
X126969D02*
D03*
X164764D02*
D03*
X155315D02*
D03*
X174213D02*
D03*
X183661D02*
D03*
X454528Y112992D02*
D03*
X448228D02*
D03*
X438779D02*
D03*
X419882D02*
D03*
X429331D02*
D03*
X382087D02*
D03*
X372638D02*
D03*
X391535D02*
D03*
X400984D02*
D03*
X410433D02*
D03*
X315945D02*
D03*
X306496D02*
D03*
X287598D02*
D03*
X297047D02*
D03*
X344291D02*
D03*
X334842D02*
D03*
X325394D02*
D03*
X353740D02*
D03*
X363189D02*
D03*
X230906D02*
D03*
X221457D02*
D03*
X193110D02*
D03*
X202559D02*
D03*
X212008D02*
D03*
X249803D02*
D03*
X240354D02*
D03*
X259252D02*
D03*
X268701D02*
D03*
X278150D02*
D03*
X145866D02*
D03*
X136417D02*
D03*
X126969D02*
D03*
X164764D02*
D03*
X155315D02*
D03*
X174213D02*
D03*
X183661D02*
D03*
X438779Y164961D02*
D03*
X419882D02*
D03*
X429331D02*
D03*
X382087D02*
D03*
X372638D02*
D03*
X391535D02*
D03*
X400984D02*
D03*
X410433D02*
D03*
X315945D02*
D03*
X306496D02*
D03*
X287598D02*
D03*
X297047D02*
D03*
X344291D02*
D03*
X334842D02*
D03*
X325394D02*
D03*
X353740D02*
D03*
X363189D02*
D03*
X230906D02*
D03*
X221457D02*
D03*
X193110D02*
D03*
X202559D02*
D03*
X212008D02*
D03*
X249803D02*
D03*
X240354D02*
D03*
X259252D02*
D03*
X268701D02*
D03*
X278150D02*
D03*
X145866D02*
D03*
X136417D02*
D03*
X126969D02*
D03*
X164764D02*
D03*
X155315D02*
D03*
X174213D02*
D03*
X183661D02*
D03*
Y216929D02*
D03*
X174213D02*
D03*
X155315D02*
D03*
X164764D02*
D03*
X126969D02*
D03*
X136417D02*
D03*
X145866D02*
D03*
X278150D02*
D03*
X268701D02*
D03*
X259252D02*
D03*
X240354D02*
D03*
X249803D02*
D03*
X212008D02*
D03*
X202559D02*
D03*
X193110D02*
D03*
X221457D02*
D03*
X230906D02*
D03*
X363189D02*
D03*
X353740D02*
D03*
X325394D02*
D03*
X334842D02*
D03*
X344291D02*
D03*
X297047D02*
D03*
X287598D02*
D03*
X306496D02*
D03*
X315945D02*
D03*
X410433D02*
D03*
X400984D02*
D03*
X391535D02*
D03*
X372638D02*
D03*
X382087D02*
D03*
X429331D02*
D03*
X419882D02*
D03*
X438779D02*
D03*
X448228D02*
D03*
X454528D02*
D03*
X424213Y27559D02*
D03*
Y79528D02*
D03*
X425000Y236221D02*
D03*
X424213Y131496D02*
D03*
X424606Y183858D02*
D03*
X423819Y254724D02*
D03*
Y231102D02*
D03*
X391929Y254724D02*
D03*
Y231102D02*
D03*
X367913Y254724D02*
D03*
X358858D02*
D03*
Y231102D02*
D03*
X367913D02*
D03*
X350197Y254724D02*
D03*
Y231102D02*
D03*
X255315Y254724D02*
D03*
Y231102D02*
D03*
X199409Y254724D02*
D03*
X223819D02*
D03*
X199409Y231102D02*
D03*
X223819D02*
D03*
X190354Y254724D02*
D03*
Y231102D02*
D03*
X443110Y254724D02*
D03*
Y231102D02*
D03*
X434449Y254724D02*
D03*
Y231102D02*
D03*
X410039Y254724D02*
D03*
Y231102D02*
D03*
X400984Y254724D02*
D03*
Y231102D02*
D03*
X381693Y254724D02*
D03*
Y231102D02*
D03*
X339567Y254724D02*
D03*
Y231102D02*
D03*
X325787Y254724D02*
D03*
Y231102D02*
D03*
X316732Y254724D02*
D03*
Y231102D02*
D03*
X308071Y254724D02*
D03*
Y231102D02*
D03*
X297441Y254724D02*
D03*
Y231102D02*
D03*
X283661Y254724D02*
D03*
Y231102D02*
D03*
X274606Y254724D02*
D03*
Y231102D02*
D03*
X265945Y254724D02*
D03*
Y231102D02*
D03*
X241535Y254724D02*
D03*
Y231102D02*
D03*
X232480Y254724D02*
D03*
Y231102D02*
D03*
X213189Y254724D02*
D03*
Y231102D02*
D03*
X181693Y254724D02*
D03*
Y231102D02*
D03*
X171063Y254724D02*
D03*
Y231102D02*
D03*
X157283Y254724D02*
D03*
Y231102D02*
D03*
X148228Y254724D02*
D03*
Y231102D02*
D03*
X139567Y254724D02*
D03*
Y231102D02*
D03*
X131299D02*
D03*
X161221Y255118D02*
D03*
X108465Y265748D02*
D03*
X203346Y255118D02*
D03*
X112008Y262598D02*
D03*
X245472Y255118D02*
D03*
X113976Y260630D02*
D03*
X287598Y255118D02*
D03*
X112008Y258661D02*
D03*
X329724Y255118D02*
D03*
X113976Y256693D02*
D03*
X371850Y255118D02*
D03*
X112008Y254724D02*
D03*
X413976Y255118D02*
D03*
X108465Y251575D02*
D03*
X149409Y225984D02*
D03*
X423819Y202756D02*
D03*
Y179134D02*
D03*
X391929Y202756D02*
D03*
Y179134D02*
D03*
X367913Y202756D02*
D03*
X358858D02*
D03*
Y179134D02*
D03*
X367913D02*
D03*
X350197Y202756D02*
D03*
Y179134D02*
D03*
X255315Y202756D02*
D03*
Y179134D02*
D03*
X199409Y202756D02*
D03*
X223819D02*
D03*
X199409Y179134D02*
D03*
X223819D02*
D03*
X190354Y202756D02*
D03*
Y179134D02*
D03*
X443110Y202756D02*
D03*
Y179134D02*
D03*
X434449Y202756D02*
D03*
Y179134D02*
D03*
X410039Y202756D02*
D03*
Y179134D02*
D03*
X400984Y202756D02*
D03*
Y179134D02*
D03*
X381693Y202756D02*
D03*
Y179134D02*
D03*
X339567Y202756D02*
D03*
Y179134D02*
D03*
X325787Y202756D02*
D03*
Y179134D02*
D03*
X316732Y202756D02*
D03*
Y179134D02*
D03*
X308071Y202756D02*
D03*
Y179134D02*
D03*
X297441Y202756D02*
D03*
Y179134D02*
D03*
X283661Y202756D02*
D03*
Y179134D02*
D03*
X274606Y202756D02*
D03*
Y179134D02*
D03*
X265945Y202756D02*
D03*
Y179134D02*
D03*
X241535Y202756D02*
D03*
Y179134D02*
D03*
X232480Y202756D02*
D03*
Y179134D02*
D03*
X213189Y202756D02*
D03*
Y179134D02*
D03*
X181693Y202756D02*
D03*
Y179134D02*
D03*
X171063Y202756D02*
D03*
Y179134D02*
D03*
X157283Y202756D02*
D03*
Y179134D02*
D03*
X148228Y202756D02*
D03*
Y179134D02*
D03*
X139567Y202756D02*
D03*
Y179134D02*
D03*
X131299D02*
D03*
X161221Y203150D02*
D03*
X108465Y213779D02*
D03*
X203346Y203150D02*
D03*
X112008Y210630D02*
D03*
X245472Y203150D02*
D03*
X113976Y208661D02*
D03*
X287598Y203150D02*
D03*
X112008Y206693D02*
D03*
X329724Y203150D02*
D03*
X113976Y204724D02*
D03*
X371850Y203150D02*
D03*
X112008Y202756D02*
D03*
X413976Y203150D02*
D03*
X108465Y199606D02*
D03*
X149409Y174016D02*
D03*
X423819Y150787D02*
D03*
Y127165D02*
D03*
X391929Y150787D02*
D03*
Y127165D02*
D03*
X367913Y150787D02*
D03*
X358858D02*
D03*
Y127165D02*
D03*
X367913D02*
D03*
X350197Y150787D02*
D03*
Y127165D02*
D03*
X255315Y150787D02*
D03*
Y127165D02*
D03*
X199409Y150787D02*
D03*
X223819D02*
D03*
X199409Y127165D02*
D03*
X223819D02*
D03*
X190354Y150787D02*
D03*
Y127165D02*
D03*
X443110Y150787D02*
D03*
Y127165D02*
D03*
X434449Y150787D02*
D03*
Y127165D02*
D03*
X410039Y150787D02*
D03*
Y127165D02*
D03*
X400984Y150787D02*
D03*
Y127165D02*
D03*
X381693Y150787D02*
D03*
Y127165D02*
D03*
X339567Y150787D02*
D03*
Y127165D02*
D03*
X325787Y150787D02*
D03*
Y127165D02*
D03*
X316732Y150787D02*
D03*
Y127165D02*
D03*
X308071Y150787D02*
D03*
Y127165D02*
D03*
X297441Y150787D02*
D03*
Y127165D02*
D03*
X283661Y150787D02*
D03*
Y127165D02*
D03*
X274606Y150787D02*
D03*
Y127165D02*
D03*
X265945Y150787D02*
D03*
Y127165D02*
D03*
X241535Y150787D02*
D03*
Y127165D02*
D03*
X232480Y150787D02*
D03*
Y127165D02*
D03*
X213189Y150787D02*
D03*
Y127165D02*
D03*
X181693Y150787D02*
D03*
Y127165D02*
D03*
X171063Y150787D02*
D03*
Y127165D02*
D03*
X157283Y150787D02*
D03*
Y127165D02*
D03*
X148228Y150787D02*
D03*
Y127165D02*
D03*
X139567Y150787D02*
D03*
Y127165D02*
D03*
X131299D02*
D03*
X161221Y151181D02*
D03*
X108465Y161811D02*
D03*
X203346Y151181D02*
D03*
X112008Y158661D02*
D03*
X245472Y151181D02*
D03*
X113976Y156693D02*
D03*
X287598Y151181D02*
D03*
X112008Y154724D02*
D03*
X329724Y151181D02*
D03*
X113976Y152756D02*
D03*
X371850Y151181D02*
D03*
X112008Y150787D02*
D03*
X413976Y151181D02*
D03*
X108465Y147638D02*
D03*
X149409Y122047D02*
D03*
X423819Y98819D02*
D03*
Y75197D02*
D03*
X391929Y98819D02*
D03*
Y75197D02*
D03*
X367913Y98819D02*
D03*
X358858D02*
D03*
Y75197D02*
D03*
X367913D02*
D03*
X350197Y98819D02*
D03*
Y75197D02*
D03*
X255315Y98819D02*
D03*
Y75197D02*
D03*
X199409Y98819D02*
D03*
X223819D02*
D03*
X199409Y75197D02*
D03*
X223819D02*
D03*
X190354Y98819D02*
D03*
Y75197D02*
D03*
X443110Y98819D02*
D03*
Y75197D02*
D03*
X434449Y98819D02*
D03*
Y75197D02*
D03*
X410039Y98819D02*
D03*
Y75197D02*
D03*
X400984Y98819D02*
D03*
Y75197D02*
D03*
X381693Y98819D02*
D03*
Y75197D02*
D03*
X339567Y98819D02*
D03*
Y75197D02*
D03*
X325787Y98819D02*
D03*
Y75197D02*
D03*
X316732Y98819D02*
D03*
Y75197D02*
D03*
X308071Y98819D02*
D03*
Y75197D02*
D03*
X297441Y98819D02*
D03*
Y75197D02*
D03*
X283661Y98819D02*
D03*
Y75197D02*
D03*
X274606Y98819D02*
D03*
Y75197D02*
D03*
X265945Y98819D02*
D03*
Y75197D02*
D03*
X241535Y98819D02*
D03*
Y75197D02*
D03*
X232480Y98819D02*
D03*
Y75197D02*
D03*
X213189Y98819D02*
D03*
Y75197D02*
D03*
X181693Y98819D02*
D03*
Y75197D02*
D03*
X171063Y98819D02*
D03*
Y75197D02*
D03*
X157283Y98819D02*
D03*
Y75197D02*
D03*
X148228Y98819D02*
D03*
Y75197D02*
D03*
X139567Y98819D02*
D03*
Y75197D02*
D03*
X131299D02*
D03*
X161221Y99213D02*
D03*
X108465Y109843D02*
D03*
X203346Y99213D02*
D03*
X112008Y106693D02*
D03*
X245472Y99213D02*
D03*
X113976Y104724D02*
D03*
X287598Y99213D02*
D03*
X112008Y102756D02*
D03*
X329724Y99213D02*
D03*
X113976Y100787D02*
D03*
X371850Y99213D02*
D03*
X112008Y98819D02*
D03*
X413976Y99213D02*
D03*
X108465Y95669D02*
D03*
X149409Y70079D02*
D03*
X139567Y23228D02*
D03*
X148228D02*
D03*
X171063D02*
D03*
X181693D02*
D03*
X199409D02*
D03*
X213189D02*
D03*
X232480D02*
D03*
X241535D02*
D03*
X265945D02*
D03*
X274606D02*
D03*
X283661D02*
D03*
X157283D02*
D03*
X190354D02*
D03*
X223819D02*
D03*
X255315D02*
D03*
X297441D02*
D03*
X308071D02*
D03*
X316732D02*
D03*
X325787D02*
D03*
X339567D02*
D03*
X350197D02*
D03*
X358858D02*
D03*
X367913D02*
D03*
X381693D02*
D03*
X391929D02*
D03*
X400984D02*
D03*
X410039D02*
D03*
X423819D02*
D03*
X434449D02*
D03*
X443110D02*
D03*
Y46850D02*
D03*
X434449D02*
D03*
X423819D02*
D03*
X410039D02*
D03*
X400984D02*
D03*
X391929D02*
D03*
X381693D02*
D03*
X367913D02*
D03*
X358858D02*
D03*
X350197D02*
D03*
X339567D02*
D03*
X325787D02*
D03*
X316732D02*
D03*
X308071D02*
D03*
X297441D02*
D03*
X255315D02*
D03*
X223819D02*
D03*
X190354D02*
D03*
X157283D02*
D03*
X283661D02*
D03*
X274606D02*
D03*
X265945D02*
D03*
X241535D02*
D03*
X232480D02*
D03*
X213189D02*
D03*
X199409D02*
D03*
X181693D02*
D03*
X171063D02*
D03*
X148228D02*
D03*
X139567D02*
D03*
X131299Y23228D02*
D03*
X161221Y47244D02*
D03*
X108465Y57874D02*
D03*
X203346Y47244D02*
D03*
X112008Y54724D02*
D03*
X245472Y47244D02*
D03*
X113976Y52756D02*
D03*
X287598Y47244D02*
D03*
X112008Y50787D02*
D03*
X329724Y47244D02*
D03*
X113976Y48819D02*
D03*
X371850Y47244D02*
D03*
X112008Y46850D02*
D03*
X413976Y47244D02*
D03*
X108465Y43701D02*
D03*
X149409Y18110D02*
D03*
D70*
X132874Y238189D02*
D03*
X126181Y231102D02*
D03*
X132874Y186221D02*
D03*
X126181Y179134D02*
D03*
X132874Y134252D02*
D03*
X126181Y127165D02*
D03*
X132874Y82284D02*
D03*
X126181Y75197D02*
D03*
X132874Y30315D02*
D03*
X126181Y23228D02*
D03*
M02*
