G04*
G04 #@! TF.GenerationSoftware,Altium Limited,Altium Designer,20.0.9 (164)*
G04*
G04 Layer_Color=8388736*
%FSLAX25Y25*%
%MOIN*%
G70*
G01*
G75*
%ADD33O,0.03543X0.01378*%
%ADD34O,0.01378X0.03543*%
%ADD35R,0.10433X0.10433*%
%ADD36R,0.03740X0.05709*%
%ADD37R,0.03091X0.03091*%
%ADD38R,0.03347X0.07284*%
%ADD39O,0.03937X0.01575*%
%ADD40O,0.01575X0.03937*%
%ADD41R,0.09646X0.09646*%
G04:AMPARAMS|DCode=42|XSize=26.38mil|YSize=27.95mil|CornerRadius=8.07mil|HoleSize=0mil|Usage=FLASHONLY|Rotation=180.000|XOffset=0mil|YOffset=0mil|HoleType=Round|Shape=RoundedRectangle|*
%AMROUNDEDRECTD42*
21,1,0.02638,0.01181,0,0,180.0*
21,1,0.01024,0.02795,0,0,180.0*
1,1,0.01614,-0.00512,0.00591*
1,1,0.01614,0.00512,0.00591*
1,1,0.01614,0.00512,-0.00591*
1,1,0.01614,-0.00512,-0.00591*
%
%ADD42ROUNDEDRECTD42*%
%ADD43R,0.16063X0.16063*%
%ADD44O,0.04528X0.01772*%
%ADD45O,0.01772X0.04528*%
G04:AMPARAMS|DCode=46|XSize=26.38mil|YSize=27.95mil|CornerRadius=8.07mil|HoleSize=0mil|Usage=FLASHONLY|Rotation=90.000|XOffset=0mil|YOffset=0mil|HoleType=Round|Shape=RoundedRectangle|*
%AMROUNDEDRECTD46*
21,1,0.02638,0.01181,0,0,90.0*
21,1,0.01024,0.02795,0,0,90.0*
1,1,0.01614,0.00591,0.00512*
1,1,0.01614,0.00591,-0.00512*
1,1,0.01614,-0.00591,-0.00512*
1,1,0.01614,-0.00591,0.00512*
%
%ADD46ROUNDEDRECTD46*%
%ADD47R,0.03583X0.10039*%
%ADD48R,0.02756X0.03740*%
%ADD49R,0.03425X0.04134*%
%ADD50R,0.03347X0.03937*%
%ADD51C,0.05591*%
%ADD52R,0.06496X0.06496*%
%ADD53C,0.06496*%
%ADD54C,0.07991*%
%ADD55C,0.02362*%
%ADD56C,0.03398*%
%ADD57C,0.22244*%
%ADD58C,0.03740*%
%ADD59C,0.02559*%
G36*
X135996Y68937D02*
X136008D01*
X136019Y68935D01*
X136031Y68934D01*
X136042Y68932D01*
X136054Y68930D01*
X136065Y68926D01*
X136076Y68923D01*
X136087Y68919D01*
X136098Y68915D01*
X137017Y68535D01*
X137027Y68529D01*
X137038Y68525D01*
X137048Y68519D01*
X137058Y68514D01*
X137067Y68507D01*
X137077Y68501D01*
X137086Y68493D01*
X137096Y68486D01*
X137104Y68478D01*
X137113Y68471D01*
X137816Y67767D01*
X137824Y67758D01*
X137832Y67750D01*
X137839Y67741D01*
X137846Y67732D01*
X137852Y67722D01*
X137859Y67713D01*
X137864Y67702D01*
X137871Y67692D01*
X137875Y67681D01*
X137880Y67671D01*
X138261Y66752D01*
X138265Y66741D01*
X138269Y66730D01*
X138272Y66719D01*
X138275Y66708D01*
X138277Y66697D01*
X138280Y66685D01*
X138281Y66674D01*
X138283Y66662D01*
Y66651D01*
X138283Y66639D01*
Y66142D01*
Y65644D01*
X138283Y65633D01*
Y65621D01*
X138281Y65610D01*
X138280Y65598D01*
X138277Y65587D01*
X138275Y65575D01*
X138272Y65564D01*
X138269Y65553D01*
X138265Y65542D01*
X138261Y65531D01*
X137880Y64612D01*
X137875Y64602D01*
X137871Y64591D01*
X137864Y64581D01*
X137859Y64571D01*
X137852Y64561D01*
X137846Y64552D01*
X137839Y64543D01*
X137832Y64533D01*
X137824Y64525D01*
X137816Y64516D01*
X137113Y63813D01*
X137104Y63805D01*
X137096Y63797D01*
X137086Y63790D01*
X137077Y63783D01*
X137067Y63777D01*
X137058Y63770D01*
X137048Y63765D01*
X137038Y63758D01*
X137027Y63754D01*
X137017Y63749D01*
X136098Y63368D01*
X136087Y63364D01*
X136076Y63360D01*
X136065Y63357D01*
X136054Y63354D01*
X136042Y63352D01*
X136031Y63349D01*
X136019Y63348D01*
X136008Y63346D01*
X135996D01*
X135985Y63345D01*
X135487D01*
X135441Y63349D01*
X135396Y63360D01*
X135353Y63378D01*
X135313Y63402D01*
X135278Y63432D01*
X135248Y63468D01*
X135236Y63486D01*
X135225Y63468D01*
X135195Y63432D01*
X135159Y63402D01*
X135120Y63378D01*
X135077Y63360D01*
X135031Y63349D01*
X134985Y63345D01*
X134488D01*
X134476Y63346D01*
X134465D01*
X134453Y63348D01*
X134442Y63349D01*
X134430Y63352D01*
X134419Y63354D01*
X134408Y63357D01*
X134396Y63360D01*
X134386Y63364D01*
X134374Y63368D01*
X133456Y63749D01*
X133445Y63754D01*
X133435Y63758D01*
X133425Y63765D01*
X133414Y63770D01*
X133405Y63777D01*
X133395Y63783D01*
X133386Y63790D01*
X133377Y63797D01*
X133369Y63805D01*
X133360Y63813D01*
X132656Y64516D01*
X132649Y64525D01*
X132641Y64533D01*
X132634Y64543D01*
X132626Y64552D01*
X132620Y64561D01*
X132613Y64571D01*
X132608Y64581D01*
X132602Y64591D01*
X132597Y64602D01*
X132592Y64612D01*
X132211Y65531D01*
X132208Y65542D01*
X132203Y65553D01*
X132201Y65564D01*
X132197Y65575D01*
X132195Y65587D01*
X132193Y65598D01*
X132192Y65610D01*
X132190Y65621D01*
Y65633D01*
X132189Y65644D01*
Y66142D01*
Y66639D01*
X132190Y66651D01*
Y66662D01*
X132192Y66674D01*
X132193Y66685D01*
X132195Y66697D01*
X132197Y66708D01*
X132201Y66719D01*
X132203Y66730D01*
X132208Y66741D01*
X132212Y66752D01*
X132592Y67671D01*
X132597Y67681D01*
X132602Y67692D01*
X132608Y67702D01*
X132613Y67713D01*
X132620Y67722D01*
X132626Y67732D01*
X132634Y67741D01*
X132641Y67750D01*
X132649Y67758D01*
X132656Y67767D01*
X133360Y68471D01*
X133369Y68478D01*
X133377Y68486D01*
X133386Y68493D01*
X133395Y68501D01*
X133405Y68507D01*
X133414Y68514D01*
X133425Y68519D01*
X133435Y68525D01*
X133445Y68529D01*
X133456Y68535D01*
X134374Y68915D01*
X134386Y68919D01*
X134396Y68923D01*
X134408Y68926D01*
X134419Y68930D01*
X134430Y68932D01*
X134442Y68934D01*
X134453Y68935D01*
X134465Y68937D01*
X134476D01*
X134488Y68938D01*
X134985D01*
X135031Y68934D01*
X135077Y68923D01*
X135120Y68906D01*
X135159Y68881D01*
X135195Y68851D01*
X135225Y68816D01*
X135236Y68797D01*
X135248Y68816D01*
X135278Y68851D01*
X135313Y68881D01*
X135353Y68906D01*
X135396Y68923D01*
X135441Y68934D01*
X135487Y68938D01*
X135985D01*
X135996Y68937D01*
D02*
G37*
G36*
X22020Y62835D02*
X22031D01*
X22043Y62833D01*
X22054Y62832D01*
X22066Y62829D01*
X22077Y62827D01*
X22088Y62824D01*
X22100Y62821D01*
X22110Y62817D01*
X22121Y62813D01*
X23040Y62432D01*
X23051Y62427D01*
X23061Y62423D01*
X23071Y62417D01*
X23082Y62411D01*
X23091Y62405D01*
X23101Y62398D01*
X23110Y62391D01*
X23119Y62384D01*
X23128Y62376D01*
X23136Y62368D01*
X23840Y61665D01*
X23847Y61656D01*
X23855Y61648D01*
X23862Y61638D01*
X23870Y61630D01*
X23876Y61620D01*
X23883Y61610D01*
X23888Y61600D01*
X23894Y61590D01*
X23899Y61579D01*
X23904Y61569D01*
X24284Y60650D01*
X24288Y60639D01*
X24293Y60628D01*
X24295Y60617D01*
X24299Y60606D01*
X24301Y60594D01*
X24303Y60583D01*
X24304Y60571D01*
X24306Y60560D01*
Y60548D01*
X24307Y60537D01*
Y60039D01*
Y59542D01*
X24306Y59530D01*
Y59519D01*
X24304Y59507D01*
X24303Y59496D01*
X24301Y59484D01*
X24299Y59473D01*
X24295Y59462D01*
X24293Y59451D01*
X24288Y59440D01*
X24284Y59429D01*
X23904Y58510D01*
X23899Y58499D01*
X23894Y58489D01*
X23888Y58479D01*
X23883Y58469D01*
X23876Y58459D01*
X23870Y58449D01*
X23862Y58440D01*
X23855Y58431D01*
X23847Y58423D01*
X23840Y58414D01*
X23136Y57710D01*
X23128Y57703D01*
X23119Y57695D01*
X23110Y57688D01*
X23101Y57680D01*
X23091Y57674D01*
X23082Y57667D01*
X23071Y57662D01*
X23061Y57656D01*
X23051Y57652D01*
X23040Y57646D01*
X22121Y57266D01*
X22110Y57262D01*
X22100Y57258D01*
X22088Y57255D01*
X22077Y57251D01*
X22066Y57249D01*
X22054Y57247D01*
X22043Y57246D01*
X22031Y57244D01*
X22020D01*
X22008Y57243D01*
X21511D01*
X21464Y57247D01*
X21419Y57258D01*
X21376Y57275D01*
X21337Y57300D01*
X21301Y57330D01*
X21271Y57365D01*
X21260Y57384D01*
X21248Y57365D01*
X21218Y57330D01*
X21183Y57300D01*
X21143Y57275D01*
X21100Y57258D01*
X21055Y57247D01*
X21009Y57243D01*
X20512D01*
X20500Y57244D01*
X20488D01*
X20477Y57246D01*
X20465Y57247D01*
X20454Y57249D01*
X20442Y57251D01*
X20431Y57255D01*
X20420Y57258D01*
X20409Y57262D01*
X20398Y57266D01*
X19479Y57646D01*
X19469Y57652D01*
X19458Y57656D01*
X19448Y57662D01*
X19438Y57667D01*
X19429Y57674D01*
X19419Y57680D01*
X19410Y57688D01*
X19400Y57695D01*
X19392Y57703D01*
X19383Y57710D01*
X18680Y58414D01*
X18672Y58423D01*
X18664Y58431D01*
X18657Y58440D01*
X18650Y58449D01*
X18644Y58459D01*
X18637Y58469D01*
X18632Y58479D01*
X18625Y58489D01*
X18621Y58499D01*
X18616Y58510D01*
X18235Y59429D01*
X18232Y59440D01*
X18227Y59451D01*
X18224Y59462D01*
X18221Y59473D01*
X18219Y59484D01*
X18216Y59496D01*
X18215Y59507D01*
X18214Y59519D01*
Y59530D01*
X18213Y59542D01*
Y60039D01*
Y60537D01*
X18214Y60548D01*
Y60560D01*
X18215Y60571D01*
X18216Y60583D01*
X18219Y60594D01*
X18221Y60606D01*
X18224Y60617D01*
X18227Y60628D01*
X18232Y60639D01*
X18235Y60650D01*
X18616Y61569D01*
X18621Y61579D01*
X18625Y61590D01*
X18632Y61600D01*
X18637Y61610D01*
X18644Y61620D01*
X18650Y61630D01*
X18657Y61638D01*
X18664Y61648D01*
X18672Y61656D01*
X18680Y61665D01*
X19383Y62368D01*
X19392Y62376D01*
X19400Y62384D01*
X19410Y62391D01*
X19419Y62398D01*
X19429Y62405D01*
X19438Y62411D01*
X19448Y62417D01*
X19458Y62423D01*
X19469Y62427D01*
X19479Y62432D01*
X20398Y62813D01*
X20409Y62817D01*
X20420Y62821D01*
X20431Y62824D01*
X20442Y62827D01*
X20454Y62829D01*
X20465Y62832D01*
X20477Y62833D01*
X20488Y62835D01*
X20500D01*
X20512Y62836D01*
X21009D01*
X21055Y62832D01*
X21100Y62821D01*
X21143Y62803D01*
X21183Y62779D01*
X21218Y62749D01*
X21248Y62713D01*
X21260Y62695D01*
X21271Y62713D01*
X21301Y62749D01*
X21337Y62779D01*
X21376Y62803D01*
X21419Y62821D01*
X21464Y62832D01*
X21511Y62836D01*
X22008D01*
X22020Y62835D01*
D02*
G37*
G36*
X135996Y16969D02*
X136008D01*
X136019Y16967D01*
X136031Y16966D01*
X136042Y16963D01*
X136054Y16961D01*
X136065Y16958D01*
X136076Y16955D01*
X136087Y16951D01*
X136098Y16947D01*
X137017Y16566D01*
X137027Y16561D01*
X137038Y16556D01*
X137048Y16550D01*
X137058Y16545D01*
X137067Y16538D01*
X137077Y16532D01*
X137086Y16525D01*
X137096Y16518D01*
X137104Y16510D01*
X137113Y16502D01*
X137816Y15799D01*
X137824Y15790D01*
X137832Y15782D01*
X137839Y15772D01*
X137846Y15764D01*
X137852Y15754D01*
X137859Y15744D01*
X137864Y15734D01*
X137871Y15724D01*
X137875Y15713D01*
X137880Y15703D01*
X138261Y14784D01*
X138265Y14773D01*
X138269Y14762D01*
X138272Y14751D01*
X138275Y14740D01*
X138277Y14728D01*
X138280Y14717D01*
X138281Y14705D01*
X138283Y14694D01*
Y14682D01*
X138283Y14671D01*
Y14173D01*
Y13676D01*
X138283Y13664D01*
Y13653D01*
X138281Y13641D01*
X138280Y13630D01*
X138277Y13618D01*
X138275Y13607D01*
X138272Y13596D01*
X138269Y13584D01*
X138265Y13574D01*
X138261Y13563D01*
X137880Y12644D01*
X137875Y12633D01*
X137871Y12623D01*
X137864Y12613D01*
X137859Y12602D01*
X137852Y12593D01*
X137846Y12583D01*
X137839Y12574D01*
X137832Y12565D01*
X137824Y12557D01*
X137816Y12548D01*
X137113Y11844D01*
X137104Y11837D01*
X137096Y11829D01*
X137086Y11822D01*
X137077Y11814D01*
X137067Y11808D01*
X137058Y11801D01*
X137048Y11796D01*
X137038Y11790D01*
X137027Y11785D01*
X137017Y11780D01*
X136098Y11400D01*
X136087Y11396D01*
X136076Y11391D01*
X136065Y11389D01*
X136054Y11385D01*
X136042Y11383D01*
X136031Y11381D01*
X136019Y11380D01*
X136008Y11378D01*
X135996D01*
X135985Y11377D01*
X135487D01*
X135441Y11381D01*
X135396Y11391D01*
X135353Y11409D01*
X135313Y11434D01*
X135278Y11464D01*
X135248Y11499D01*
X135236Y11518D01*
X135225Y11499D01*
X135195Y11464D01*
X135159Y11434D01*
X135120Y11409D01*
X135077Y11391D01*
X135031Y11381D01*
X134985Y11377D01*
X134488D01*
X134476Y11378D01*
X134465D01*
X134453Y11380D01*
X134442Y11381D01*
X134430Y11383D01*
X134419Y11385D01*
X134408Y11389D01*
X134396Y11391D01*
X134386Y11396D01*
X134374Y11400D01*
X133456Y11780D01*
X133445Y11785D01*
X133435Y11790D01*
X133425Y11796D01*
X133414Y11801D01*
X133405Y11808D01*
X133395Y11814D01*
X133386Y11822D01*
X133377Y11829D01*
X133369Y11837D01*
X133360Y11844D01*
X132656Y12548D01*
X132649Y12557D01*
X132641Y12565D01*
X132634Y12574D01*
X132626Y12583D01*
X132620Y12593D01*
X132613Y12602D01*
X132608Y12613D01*
X132602Y12623D01*
X132597Y12633D01*
X132592Y12644D01*
X132211Y13563D01*
X132208Y13574D01*
X132203Y13584D01*
X132201Y13596D01*
X132197Y13607D01*
X132195Y13618D01*
X132193Y13630D01*
X132192Y13641D01*
X132190Y13653D01*
Y13664D01*
X132189Y13676D01*
Y14173D01*
Y14671D01*
X132190Y14682D01*
Y14694D01*
X132192Y14705D01*
X132193Y14717D01*
X132195Y14728D01*
X132197Y14740D01*
X132201Y14751D01*
X132203Y14762D01*
X132208Y14773D01*
X132212Y14784D01*
X132592Y15703D01*
X132597Y15713D01*
X132602Y15724D01*
X132608Y15734D01*
X132613Y15744D01*
X132620Y15754D01*
X132626Y15764D01*
X132634Y15772D01*
X132641Y15782D01*
X132649Y15790D01*
X132656Y15799D01*
X133360Y16502D01*
X133369Y16510D01*
X133377Y16518D01*
X133386Y16525D01*
X133395Y16532D01*
X133405Y16538D01*
X133414Y16545D01*
X133425Y16550D01*
X133435Y16556D01*
X133445Y16561D01*
X133456Y16566D01*
X134374Y16947D01*
X134386Y16951D01*
X134396Y16955D01*
X134408Y16958D01*
X134419Y16961D01*
X134430Y16963D01*
X134442Y16966D01*
X134453Y16967D01*
X134465Y16969D01*
X134476D01*
X134488Y16969D01*
X134985D01*
X135031Y16966D01*
X135077Y16955D01*
X135120Y16937D01*
X135159Y16913D01*
X135195Y16883D01*
X135225Y16847D01*
X135236Y16829D01*
X135248Y16847D01*
X135278Y16883D01*
X135313Y16913D01*
X135353Y16937D01*
X135396Y16955D01*
X135441Y16966D01*
X135487Y16969D01*
X135985D01*
X135996Y16969D01*
D02*
G37*
G36*
Y224843D02*
X136008D01*
X136019Y224841D01*
X136031Y224840D01*
X136042Y224837D01*
X136054Y224835D01*
X136065Y224832D01*
X136076Y224829D01*
X136087Y224825D01*
X136098Y224821D01*
X137017Y224440D01*
X137027Y224435D01*
X137038Y224430D01*
X137048Y224424D01*
X137058Y224419D01*
X137067Y224412D01*
X137077Y224406D01*
X137086Y224399D01*
X137096Y224392D01*
X137104Y224384D01*
X137113Y224376D01*
X137816Y223673D01*
X137824Y223664D01*
X137832Y223656D01*
X137839Y223646D01*
X137846Y223638D01*
X137852Y223627D01*
X137859Y223618D01*
X137864Y223608D01*
X137871Y223598D01*
X137875Y223587D01*
X137880Y223577D01*
X138261Y222658D01*
X138265Y222647D01*
X138269Y222636D01*
X138272Y222625D01*
X138275Y222614D01*
X138277Y222602D01*
X138280Y222591D01*
X138281Y222579D01*
X138283Y222568D01*
Y222556D01*
X138283Y222545D01*
Y222047D01*
Y221550D01*
X138283Y221538D01*
Y221527D01*
X138281Y221515D01*
X138280Y221504D01*
X138277Y221492D01*
X138275Y221481D01*
X138272Y221470D01*
X138269Y221458D01*
X138265Y221448D01*
X138261Y221437D01*
X137880Y220518D01*
X137875Y220507D01*
X137871Y220497D01*
X137864Y220487D01*
X137859Y220476D01*
X137852Y220467D01*
X137846Y220457D01*
X137839Y220448D01*
X137832Y220439D01*
X137824Y220430D01*
X137816Y220422D01*
X137113Y219718D01*
X137104Y219711D01*
X137096Y219703D01*
X137086Y219696D01*
X137077Y219688D01*
X137067Y219682D01*
X137058Y219675D01*
X137048Y219670D01*
X137038Y219664D01*
X137027Y219659D01*
X137017Y219654D01*
X136098Y219274D01*
X136087Y219270D01*
X136076Y219266D01*
X136065Y219263D01*
X136054Y219259D01*
X136042Y219257D01*
X136031Y219255D01*
X136019Y219254D01*
X136008Y219252D01*
X135996D01*
X135985Y219251D01*
X135487D01*
X135441Y219255D01*
X135396Y219266D01*
X135353Y219283D01*
X135313Y219308D01*
X135278Y219338D01*
X135248Y219373D01*
X135236Y219392D01*
X135225Y219373D01*
X135195Y219338D01*
X135159Y219308D01*
X135120Y219283D01*
X135077Y219266D01*
X135031Y219255D01*
X134985Y219251D01*
X134488D01*
X134476Y219252D01*
X134465D01*
X134453Y219254D01*
X134442Y219255D01*
X134430Y219257D01*
X134419Y219259D01*
X134408Y219263D01*
X134396Y219266D01*
X134386Y219270D01*
X134374Y219274D01*
X133456Y219654D01*
X133445Y219659D01*
X133435Y219664D01*
X133425Y219670D01*
X133414Y219675D01*
X133405Y219682D01*
X133395Y219688D01*
X133386Y219696D01*
X133377Y219703D01*
X133369Y219711D01*
X133360Y219718D01*
X132656Y220422D01*
X132649Y220430D01*
X132641Y220439D01*
X132634Y220448D01*
X132626Y220457D01*
X132620Y220467D01*
X132613Y220476D01*
X132608Y220487D01*
X132602Y220497D01*
X132597Y220507D01*
X132592Y220518D01*
X132211Y221437D01*
X132208Y221448D01*
X132203Y221458D01*
X132201Y221470D01*
X132197Y221481D01*
X132195Y221492D01*
X132193Y221504D01*
X132192Y221515D01*
X132190Y221527D01*
Y221538D01*
X132189Y221550D01*
Y222047D01*
Y222545D01*
X132190Y222556D01*
Y222568D01*
X132192Y222579D01*
X132193Y222591D01*
X132195Y222602D01*
X132197Y222614D01*
X132201Y222625D01*
X132203Y222636D01*
X132208Y222647D01*
X132212Y222658D01*
X132592Y223577D01*
X132597Y223587D01*
X132602Y223598D01*
X132608Y223608D01*
X132613Y223618D01*
X132620Y223627D01*
X132626Y223638D01*
X132634Y223646D01*
X132641Y223656D01*
X132649Y223664D01*
X132656Y223673D01*
X133360Y224376D01*
X133369Y224384D01*
X133377Y224392D01*
X133386Y224399D01*
X133395Y224406D01*
X133405Y224412D01*
X133414Y224419D01*
X133425Y224424D01*
X133435Y224430D01*
X133445Y224435D01*
X133456Y224440D01*
X134374Y224821D01*
X134386Y224825D01*
X134396Y224829D01*
X134408Y224832D01*
X134419Y224835D01*
X134430Y224837D01*
X134442Y224840D01*
X134453Y224841D01*
X134465Y224843D01*
X134476D01*
X134488Y224843D01*
X134985D01*
X135031Y224840D01*
X135077Y224829D01*
X135120Y224811D01*
X135159Y224787D01*
X135195Y224757D01*
X135225Y224721D01*
X135236Y224703D01*
X135248Y224721D01*
X135278Y224757D01*
X135313Y224787D01*
X135353Y224811D01*
X135396Y224829D01*
X135441Y224840D01*
X135487Y224843D01*
X135985D01*
X135996Y224843D01*
D02*
G37*
G36*
X135996Y172874D02*
X136008D01*
X136019Y172872D01*
X136031Y172871D01*
X136042Y172869D01*
X136054Y172867D01*
X136065Y172863D01*
X136076Y172860D01*
X136087Y172856D01*
X136098Y172852D01*
X137017Y172472D01*
X137027Y172467D01*
X137038Y172462D01*
X137048Y172456D01*
X137058Y172451D01*
X137067Y172444D01*
X137077Y172438D01*
X137086Y172430D01*
X137096Y172423D01*
X137104Y172415D01*
X137113Y172408D01*
X137816Y171704D01*
X137824Y171695D01*
X137832Y171687D01*
X137839Y171678D01*
X137846Y171669D01*
X137852Y171659D01*
X137859Y171650D01*
X137864Y171639D01*
X137871Y171629D01*
X137875Y171618D01*
X137880Y171608D01*
X138261Y170689D01*
X138265Y170678D01*
X138269Y170668D01*
X138272Y170656D01*
X138275Y170645D01*
X138277Y170634D01*
X138280Y170622D01*
X138281Y170611D01*
X138283Y170599D01*
Y170588D01*
X138283Y170576D01*
Y170079D01*
Y169581D01*
X138283Y169570D01*
Y169558D01*
X138281Y169547D01*
X138280Y169535D01*
X138277Y169524D01*
X138275Y169512D01*
X138272Y169501D01*
X138269Y169490D01*
X138265Y169479D01*
X138261Y169468D01*
X137880Y168549D01*
X137875Y168539D01*
X137871Y168528D01*
X137864Y168518D01*
X137859Y168508D01*
X137852Y168499D01*
X137846Y168489D01*
X137839Y168480D01*
X137832Y168470D01*
X137824Y168462D01*
X137816Y168453D01*
X137113Y167750D01*
X137104Y167742D01*
X137096Y167734D01*
X137086Y167727D01*
X137077Y167720D01*
X137067Y167714D01*
X137058Y167707D01*
X137048Y167701D01*
X137038Y167695D01*
X137027Y167691D01*
X137017Y167686D01*
X136098Y167305D01*
X136087Y167301D01*
X136076Y167297D01*
X136065Y167294D01*
X136054Y167291D01*
X136042Y167289D01*
X136031Y167286D01*
X136019Y167285D01*
X136008Y167283D01*
X135996D01*
X135985Y167282D01*
X135487D01*
X135441Y167286D01*
X135396Y167297D01*
X135353Y167315D01*
X135313Y167339D01*
X135278Y167369D01*
X135248Y167405D01*
X135236Y167423D01*
X135225Y167405D01*
X135195Y167369D01*
X135159Y167339D01*
X135120Y167315D01*
X135077Y167297D01*
X135031Y167286D01*
X134985Y167282D01*
X134488D01*
X134476Y167283D01*
X134465D01*
X134453Y167285D01*
X134442Y167286D01*
X134430Y167289D01*
X134419Y167291D01*
X134408Y167294D01*
X134396Y167297D01*
X134386Y167301D01*
X134375Y167305D01*
X133456Y167686D01*
X133445Y167691D01*
X133435Y167695D01*
X133425Y167701D01*
X133414Y167707D01*
X133405Y167714D01*
X133395Y167720D01*
X133386Y167727D01*
X133377Y167734D01*
X133369Y167742D01*
X133360Y167750D01*
X132656Y168453D01*
X132649Y168462D01*
X132641Y168470D01*
X132634Y168480D01*
X132626Y168489D01*
X132620Y168499D01*
X132613Y168508D01*
X132608Y168518D01*
X132602Y168528D01*
X132597Y168539D01*
X132592Y168549D01*
X132212Y169468D01*
X132208Y169479D01*
X132203Y169490D01*
X132201Y169501D01*
X132197Y169512D01*
X132195Y169524D01*
X132193Y169535D01*
X132192Y169547D01*
X132190Y169558D01*
Y169570D01*
X132189Y169581D01*
Y170079D01*
Y170576D01*
X132190Y170588D01*
Y170599D01*
X132192Y170611D01*
X132193Y170622D01*
X132195Y170634D01*
X132197Y170645D01*
X132201Y170656D01*
X132203Y170668D01*
X132208Y170678D01*
X132212Y170689D01*
X132592Y171608D01*
X132597Y171618D01*
X132602Y171629D01*
X132608Y171639D01*
X132613Y171650D01*
X132620Y171659D01*
X132626Y171669D01*
X132634Y171678D01*
X132641Y171687D01*
X132649Y171695D01*
X132656Y171704D01*
X133360Y172408D01*
X133369Y172415D01*
X133377Y172423D01*
X133386Y172430D01*
X133395Y172438D01*
X133405Y172444D01*
X133414Y172451D01*
X133425Y172456D01*
X133435Y172462D01*
X133445Y172467D01*
X133456Y172472D01*
X134375Y172852D01*
X134386Y172856D01*
X134396Y172860D01*
X134408Y172863D01*
X134419Y172867D01*
X134430Y172869D01*
X134442Y172871D01*
X134453Y172872D01*
X134465Y172874D01*
X134476D01*
X134488Y172875D01*
X134985D01*
X135031Y172871D01*
X135077Y172860D01*
X135120Y172843D01*
X135159Y172818D01*
X135195Y172788D01*
X135225Y172753D01*
X135236Y172734D01*
X135248Y172753D01*
X135278Y172788D01*
X135313Y172818D01*
X135353Y172843D01*
X135396Y172860D01*
X135441Y172871D01*
X135487Y172875D01*
X135985D01*
X135996Y172874D01*
D02*
G37*
G36*
X135996Y120905D02*
X136008D01*
X136019Y120904D01*
X136031Y120903D01*
X136042Y120900D01*
X136054Y120898D01*
X136065Y120895D01*
X136076Y120892D01*
X136087Y120887D01*
X136098Y120884D01*
X137017Y120503D01*
X137027Y120498D01*
X137038Y120493D01*
X137048Y120487D01*
X137058Y120482D01*
X137067Y120475D01*
X137077Y120469D01*
X137086Y120462D01*
X137096Y120455D01*
X137104Y120447D01*
X137113Y120439D01*
X137816Y119736D01*
X137824Y119727D01*
X137832Y119719D01*
X137839Y119709D01*
X137846Y119701D01*
X137852Y119691D01*
X137859Y119681D01*
X137864Y119671D01*
X137871Y119661D01*
X137875Y119650D01*
X137880Y119640D01*
X138261Y118721D01*
X138265Y118710D01*
X138269Y118699D01*
X138272Y118688D01*
X138275Y118677D01*
X138277Y118665D01*
X138280Y118654D01*
X138281Y118642D01*
X138283Y118631D01*
Y118619D01*
X138283Y118607D01*
Y118110D01*
Y117613D01*
X138283Y117601D01*
Y117590D01*
X138281Y117578D01*
X138280Y117567D01*
X138277Y117555D01*
X138275Y117544D01*
X138272Y117533D01*
X138269Y117521D01*
X138265Y117511D01*
X138261Y117500D01*
X137880Y116581D01*
X137875Y116570D01*
X137871Y116560D01*
X137864Y116550D01*
X137859Y116539D01*
X137852Y116530D01*
X137846Y116520D01*
X137839Y116511D01*
X137832Y116502D01*
X137824Y116493D01*
X137816Y116485D01*
X137113Y115781D01*
X137104Y115774D01*
X137096Y115766D01*
X137086Y115759D01*
X137077Y115751D01*
X137067Y115745D01*
X137058Y115738D01*
X137048Y115733D01*
X137038Y115727D01*
X137027Y115723D01*
X137017Y115717D01*
X136098Y115337D01*
X136087Y115333D01*
X136076Y115329D01*
X136065Y115326D01*
X136054Y115322D01*
X136042Y115320D01*
X136031Y115318D01*
X136019Y115317D01*
X136008Y115315D01*
X135996D01*
X135985Y115314D01*
X135487D01*
X135441Y115318D01*
X135396Y115329D01*
X135353Y115346D01*
X135313Y115371D01*
X135278Y115401D01*
X135248Y115436D01*
X135236Y115455D01*
X135225Y115436D01*
X135195Y115401D01*
X135159Y115371D01*
X135120Y115346D01*
X135077Y115329D01*
X135031Y115318D01*
X134985Y115314D01*
X134488D01*
X134476Y115315D01*
X134465D01*
X134453Y115317D01*
X134442Y115318D01*
X134430Y115320D01*
X134419Y115322D01*
X134408Y115326D01*
X134396Y115329D01*
X134386Y115333D01*
X134374Y115337D01*
X133456Y115717D01*
X133445Y115723D01*
X133435Y115727D01*
X133425Y115733D01*
X133414Y115738D01*
X133405Y115745D01*
X133395Y115751D01*
X133386Y115759D01*
X133377Y115766D01*
X133369Y115774D01*
X133360Y115781D01*
X132656Y116485D01*
X132649Y116493D01*
X132641Y116502D01*
X132634Y116511D01*
X132626Y116520D01*
X132620Y116530D01*
X132613Y116539D01*
X132608Y116550D01*
X132602Y116560D01*
X132597Y116570D01*
X132592Y116581D01*
X132211Y117500D01*
X132208Y117511D01*
X132203Y117521D01*
X132201Y117533D01*
X132197Y117544D01*
X132195Y117555D01*
X132193Y117567D01*
X132192Y117578D01*
X132190Y117590D01*
Y117601D01*
X132189Y117613D01*
Y118110D01*
Y118607D01*
X132190Y118619D01*
Y118631D01*
X132192Y118642D01*
X132193Y118654D01*
X132195Y118665D01*
X132197Y118677D01*
X132201Y118688D01*
X132203Y118699D01*
X132208Y118710D01*
X132212Y118721D01*
X132592Y119640D01*
X132597Y119650D01*
X132602Y119661D01*
X132608Y119671D01*
X132613Y119681D01*
X132620Y119691D01*
X132626Y119701D01*
X132634Y119709D01*
X132641Y119719D01*
X132649Y119727D01*
X132656Y119736D01*
X133360Y120439D01*
X133369Y120447D01*
X133377Y120455D01*
X133386Y120462D01*
X133395Y120469D01*
X133405Y120475D01*
X133414Y120482D01*
X133425Y120487D01*
X133435Y120493D01*
X133445Y120498D01*
X133456Y120503D01*
X134374Y120884D01*
X134386Y120887D01*
X134396Y120892D01*
X134408Y120895D01*
X134419Y120898D01*
X134430Y120900D01*
X134442Y120903D01*
X134453Y120904D01*
X134465Y120905D01*
X134476D01*
X134488Y120906D01*
X134985D01*
X135031Y120903D01*
X135077Y120892D01*
X135120Y120874D01*
X135159Y120850D01*
X135195Y120820D01*
X135225Y120784D01*
X135236Y120766D01*
X135248Y120784D01*
X135278Y120820D01*
X135313Y120850D01*
X135353Y120874D01*
X135396Y120892D01*
X135441Y120903D01*
X135487Y120906D01*
X135985D01*
X135996Y120905D01*
D02*
G37*
D33*
X38878Y108071D02*
D03*
Y109843D02*
D03*
Y111614D02*
D03*
X38878Y113386D02*
D03*
X38878Y115157D02*
D03*
Y116929D02*
D03*
Y118701D02*
D03*
X22933D02*
D03*
Y116929D02*
D03*
Y115157D02*
D03*
X22933Y113386D02*
D03*
X22933Y111614D02*
D03*
Y109843D02*
D03*
Y108071D02*
D03*
D34*
X36220Y121358D02*
D03*
X34449D02*
D03*
X32677D02*
D03*
X30906Y121358D02*
D03*
X29134Y121358D02*
D03*
X27362D02*
D03*
X25591D02*
D03*
Y105413D02*
D03*
X27362D02*
D03*
X29134D02*
D03*
X30906Y105413D02*
D03*
X32677Y105413D02*
D03*
X34449D02*
D03*
X36220D02*
D03*
D35*
X30906Y113386D02*
D03*
D36*
X145866Y222047D02*
D03*
X152559D02*
D03*
X187992D02*
D03*
X194685D02*
D03*
X230118D02*
D03*
X236811D02*
D03*
X272244D02*
D03*
X278937D02*
D03*
X314370D02*
D03*
X321063D02*
D03*
X356496D02*
D03*
X363189D02*
D03*
X398622D02*
D03*
X405315D02*
D03*
X440748D02*
D03*
X447441D02*
D03*
X135236Y263779D02*
D03*
X141929D02*
D03*
X177362D02*
D03*
X184055D02*
D03*
X219488D02*
D03*
X226181D02*
D03*
X261614D02*
D03*
X268307D02*
D03*
X303740D02*
D03*
X310433D02*
D03*
X345866D02*
D03*
X352559D02*
D03*
X387992D02*
D03*
X394685D02*
D03*
X430118D02*
D03*
X436811D02*
D03*
X145866Y170079D02*
D03*
X152559D02*
D03*
X187992D02*
D03*
X194685D02*
D03*
X230118D02*
D03*
X236811D02*
D03*
X272244D02*
D03*
X278937D02*
D03*
X314370D02*
D03*
X321063D02*
D03*
X356496D02*
D03*
X363189D02*
D03*
X398622D02*
D03*
X405315D02*
D03*
X440748D02*
D03*
X447441D02*
D03*
X135236Y211811D02*
D03*
X141929D02*
D03*
X177362D02*
D03*
X184055D02*
D03*
X219488D02*
D03*
X226181D02*
D03*
X261614D02*
D03*
X268307D02*
D03*
X303740D02*
D03*
X310433D02*
D03*
X345866D02*
D03*
X352559D02*
D03*
X387992D02*
D03*
X394685D02*
D03*
X430118D02*
D03*
X436811D02*
D03*
X145866Y118110D02*
D03*
X152559D02*
D03*
X187992D02*
D03*
X194685D02*
D03*
X230118D02*
D03*
X236811D02*
D03*
X272244D02*
D03*
X278937D02*
D03*
X314370D02*
D03*
X321063D02*
D03*
X356496D02*
D03*
X363189D02*
D03*
X398622D02*
D03*
X405315D02*
D03*
X440748D02*
D03*
X447441D02*
D03*
X135236Y159843D02*
D03*
X141929D02*
D03*
X177362D02*
D03*
X184055D02*
D03*
X219488D02*
D03*
X226181D02*
D03*
X261614D02*
D03*
X268307D02*
D03*
X303740D02*
D03*
X310433D02*
D03*
X345866D02*
D03*
X352559D02*
D03*
X387992D02*
D03*
X394685D02*
D03*
X430118D02*
D03*
X436811D02*
D03*
X145866Y66142D02*
D03*
X152559D02*
D03*
X187992D02*
D03*
X194685D02*
D03*
X230118D02*
D03*
X236811D02*
D03*
X272244D02*
D03*
X278937D02*
D03*
X314370D02*
D03*
X321063D02*
D03*
X356496D02*
D03*
X363189D02*
D03*
X398622D02*
D03*
X405315D02*
D03*
X440748D02*
D03*
X447441D02*
D03*
X135236Y107874D02*
D03*
X141929D02*
D03*
X177362D02*
D03*
X184055D02*
D03*
X219488D02*
D03*
X226181D02*
D03*
X261614D02*
D03*
X268307D02*
D03*
X303740D02*
D03*
X310433D02*
D03*
X345866D02*
D03*
X352559D02*
D03*
X387992D02*
D03*
X394685D02*
D03*
X430118D02*
D03*
X436811D02*
D03*
X145866Y14173D02*
D03*
X152559D02*
D03*
X187992D02*
D03*
X194685D02*
D03*
X230118D02*
D03*
X236811D02*
D03*
X272244D02*
D03*
X278937D02*
D03*
X314370D02*
D03*
X321063D02*
D03*
X356496D02*
D03*
X363189D02*
D03*
X398622D02*
D03*
X405315D02*
D03*
X440748D02*
D03*
X447441D02*
D03*
X135236Y55905D02*
D03*
X141929D02*
D03*
X177362D02*
D03*
X184055D02*
D03*
X219488D02*
D03*
X226181D02*
D03*
X261614D02*
D03*
X268307D02*
D03*
X303740D02*
D03*
X310433D02*
D03*
X345866D02*
D03*
X352559D02*
D03*
X387992D02*
D03*
X394685D02*
D03*
X430118D02*
D03*
X436811D02*
D03*
D37*
X137236Y222047D02*
D03*
X133236D02*
D03*
X137236Y170079D02*
D03*
X133236D02*
D03*
X137236Y118110D02*
D03*
X133236D02*
D03*
X137236Y66142D02*
D03*
X133236D02*
D03*
X137236Y14173D02*
D03*
X133236D02*
D03*
X19260Y60039D02*
D03*
X23260D02*
D03*
D38*
X122638Y230709D02*
D03*
X135236D02*
D03*
X143898D02*
D03*
X152559D02*
D03*
Y255118D02*
D03*
X143898D02*
D03*
X135236D02*
D03*
X122638D02*
D03*
X164764Y230709D02*
D03*
X177362D02*
D03*
X186024D02*
D03*
X194685D02*
D03*
Y255118D02*
D03*
X186024D02*
D03*
X177362D02*
D03*
X164764D02*
D03*
X206890Y230709D02*
D03*
X219488D02*
D03*
X228150D02*
D03*
X236811D02*
D03*
Y255118D02*
D03*
X228150D02*
D03*
X219488D02*
D03*
X206890D02*
D03*
X249016Y230709D02*
D03*
X261614D02*
D03*
X270276D02*
D03*
X278937D02*
D03*
Y255118D02*
D03*
X270276D02*
D03*
X261614D02*
D03*
X249016D02*
D03*
X291142Y230709D02*
D03*
X303740D02*
D03*
X312402D02*
D03*
X321063D02*
D03*
Y255118D02*
D03*
X312402D02*
D03*
X303740D02*
D03*
X291142D02*
D03*
X333268Y230709D02*
D03*
X345866D02*
D03*
X354528D02*
D03*
X363189D02*
D03*
Y255118D02*
D03*
X354528D02*
D03*
X345866D02*
D03*
X333268D02*
D03*
X375394Y230709D02*
D03*
X387992D02*
D03*
X396654D02*
D03*
X405315D02*
D03*
Y255118D02*
D03*
X396654D02*
D03*
X387992D02*
D03*
X375394D02*
D03*
X417520Y230709D02*
D03*
X430118D02*
D03*
X438779D02*
D03*
X447441D02*
D03*
Y255118D02*
D03*
X438779D02*
D03*
X430118D02*
D03*
X417520D02*
D03*
X122638Y178740D02*
D03*
X135236D02*
D03*
X143898D02*
D03*
X152559D02*
D03*
Y203150D02*
D03*
X143898D02*
D03*
X135236D02*
D03*
X122638D02*
D03*
X164764Y178740D02*
D03*
X177362D02*
D03*
X186024D02*
D03*
X194685D02*
D03*
Y203150D02*
D03*
X186024D02*
D03*
X177362D02*
D03*
X164764D02*
D03*
X206890Y178740D02*
D03*
X219488D02*
D03*
X228150D02*
D03*
X236811D02*
D03*
Y203150D02*
D03*
X228150D02*
D03*
X219488D02*
D03*
X206890D02*
D03*
X249016Y178740D02*
D03*
X261614D02*
D03*
X270276D02*
D03*
X278937D02*
D03*
Y203150D02*
D03*
X270276D02*
D03*
X261614D02*
D03*
X249016D02*
D03*
X291142Y178740D02*
D03*
X303740D02*
D03*
X312402D02*
D03*
X321063D02*
D03*
Y203150D02*
D03*
X312402D02*
D03*
X303740D02*
D03*
X291142D02*
D03*
X333268Y178740D02*
D03*
X345866D02*
D03*
X354528D02*
D03*
X363189D02*
D03*
Y203150D02*
D03*
X354528D02*
D03*
X345866D02*
D03*
X333268D02*
D03*
X375394Y178740D02*
D03*
X387992D02*
D03*
X396654D02*
D03*
X405315D02*
D03*
Y203150D02*
D03*
X396654D02*
D03*
X387992D02*
D03*
X375394D02*
D03*
X417520Y178740D02*
D03*
X430118D02*
D03*
X438779D02*
D03*
X447441D02*
D03*
Y203150D02*
D03*
X438779D02*
D03*
X430118D02*
D03*
X417520D02*
D03*
X122638Y126772D02*
D03*
X135236D02*
D03*
X143898D02*
D03*
X152559D02*
D03*
Y151181D02*
D03*
X143898D02*
D03*
X135236D02*
D03*
X122638D02*
D03*
X164764Y126772D02*
D03*
X177362D02*
D03*
X186024D02*
D03*
X194685D02*
D03*
Y151181D02*
D03*
X186024D02*
D03*
X177362D02*
D03*
X164764D02*
D03*
X206890Y126772D02*
D03*
X219488D02*
D03*
X228150D02*
D03*
X236811D02*
D03*
Y151181D02*
D03*
X228150D02*
D03*
X219488D02*
D03*
X206890D02*
D03*
X249016Y126772D02*
D03*
X261614D02*
D03*
X270276D02*
D03*
X278937D02*
D03*
Y151181D02*
D03*
X270276D02*
D03*
X261614D02*
D03*
X249016D02*
D03*
X291142Y126772D02*
D03*
X303740D02*
D03*
X312402D02*
D03*
X321063D02*
D03*
Y151181D02*
D03*
X312402D02*
D03*
X303740D02*
D03*
X291142D02*
D03*
X333268Y126772D02*
D03*
X345866D02*
D03*
X354528D02*
D03*
X363189D02*
D03*
Y151181D02*
D03*
X354528D02*
D03*
X345866D02*
D03*
X333268D02*
D03*
X375394Y126772D02*
D03*
X387992D02*
D03*
X396654D02*
D03*
X405315D02*
D03*
Y151181D02*
D03*
X396654D02*
D03*
X387992D02*
D03*
X375394D02*
D03*
X417520Y126772D02*
D03*
X430118D02*
D03*
X438779D02*
D03*
X447441D02*
D03*
Y151181D02*
D03*
X438779D02*
D03*
X430118D02*
D03*
X417520D02*
D03*
X122638Y74803D02*
D03*
X135236D02*
D03*
X143898D02*
D03*
X152559D02*
D03*
Y99213D02*
D03*
X143898D02*
D03*
X135236D02*
D03*
X122638D02*
D03*
X164764Y74803D02*
D03*
X177362D02*
D03*
X186024D02*
D03*
X194685D02*
D03*
Y99213D02*
D03*
X186024D02*
D03*
X177362D02*
D03*
X164764D02*
D03*
X206890Y74803D02*
D03*
X219488D02*
D03*
X228150D02*
D03*
X236811D02*
D03*
Y99213D02*
D03*
X228150D02*
D03*
X219488D02*
D03*
X206890D02*
D03*
X249016Y74803D02*
D03*
X261614D02*
D03*
X270276D02*
D03*
X278937D02*
D03*
Y99213D02*
D03*
X270276D02*
D03*
X261614D02*
D03*
X249016D02*
D03*
X291142Y74803D02*
D03*
X303740D02*
D03*
X312402D02*
D03*
X321063D02*
D03*
Y99213D02*
D03*
X312402D02*
D03*
X303740D02*
D03*
X291142D02*
D03*
X333268Y74803D02*
D03*
X345866D02*
D03*
X354528D02*
D03*
X363189D02*
D03*
Y99213D02*
D03*
X354528D02*
D03*
X345866D02*
D03*
X333268D02*
D03*
X375394Y74803D02*
D03*
X387992D02*
D03*
X396654D02*
D03*
X405315D02*
D03*
Y99213D02*
D03*
X396654D02*
D03*
X387992D02*
D03*
X375394D02*
D03*
X417520Y74803D02*
D03*
X430118D02*
D03*
X438779D02*
D03*
X447441D02*
D03*
Y99213D02*
D03*
X438779D02*
D03*
X430118D02*
D03*
X417520D02*
D03*
X122638Y22835D02*
D03*
X135236D02*
D03*
X143898D02*
D03*
X152559D02*
D03*
Y47244D02*
D03*
X143898D02*
D03*
X135236D02*
D03*
X122638D02*
D03*
X164764Y22835D02*
D03*
X177362D02*
D03*
X186024D02*
D03*
X194685D02*
D03*
Y47244D02*
D03*
X186024D02*
D03*
X177362D02*
D03*
X164764D02*
D03*
X206890Y22835D02*
D03*
X219488D02*
D03*
X228150D02*
D03*
X236811D02*
D03*
Y47244D02*
D03*
X228150D02*
D03*
X219488D02*
D03*
X206890D02*
D03*
X249016Y22835D02*
D03*
X261614D02*
D03*
X270276D02*
D03*
X278937D02*
D03*
Y47244D02*
D03*
X270276D02*
D03*
X261614D02*
D03*
X249016D02*
D03*
X291142Y22835D02*
D03*
X303740D02*
D03*
X312402D02*
D03*
X321063D02*
D03*
Y47244D02*
D03*
X312402D02*
D03*
X303740D02*
D03*
X291142D02*
D03*
X333268Y22835D02*
D03*
X345866D02*
D03*
X354528D02*
D03*
X363189D02*
D03*
Y47244D02*
D03*
X354528D02*
D03*
X345866D02*
D03*
X333268D02*
D03*
X375394Y22835D02*
D03*
X387992D02*
D03*
X396654D02*
D03*
X405315D02*
D03*
Y47244D02*
D03*
X396654D02*
D03*
X387992D02*
D03*
X375394D02*
D03*
X417520Y22835D02*
D03*
X430118D02*
D03*
X438779D02*
D03*
X447441D02*
D03*
Y47244D02*
D03*
X438779D02*
D03*
X430118D02*
D03*
X417520D02*
D03*
D39*
X94587Y54626D02*
D03*
Y52658D02*
D03*
Y50689D02*
D03*
Y48720D02*
D03*
Y46752D02*
D03*
X108957D02*
D03*
Y48720D02*
D03*
Y50689D02*
D03*
Y52658D02*
D03*
Y54626D02*
D03*
X94587Y106604D02*
D03*
Y104635D02*
D03*
Y102667D02*
D03*
Y100698D02*
D03*
Y98730D02*
D03*
X108957D02*
D03*
Y100698D02*
D03*
Y102667D02*
D03*
Y104635D02*
D03*
Y106604D02*
D03*
X94587Y158537D02*
D03*
Y156568D02*
D03*
Y154600D02*
D03*
Y152631D02*
D03*
Y150663D02*
D03*
X108957D02*
D03*
Y152631D02*
D03*
Y154600D02*
D03*
Y156568D02*
D03*
Y158537D02*
D03*
X94587Y210512D02*
D03*
Y208543D02*
D03*
Y206575D02*
D03*
Y204606D02*
D03*
Y202638D02*
D03*
X108957D02*
D03*
Y204606D02*
D03*
Y206575D02*
D03*
Y208543D02*
D03*
Y210512D02*
D03*
X94587Y262439D02*
D03*
Y260470D02*
D03*
Y258502D02*
D03*
Y256533D02*
D03*
Y254565D02*
D03*
X108957D02*
D03*
Y256533D02*
D03*
Y258502D02*
D03*
Y260470D02*
D03*
Y262439D02*
D03*
X94622Y235781D02*
D03*
Y233812D02*
D03*
Y231844D02*
D03*
Y229875D02*
D03*
Y227907D02*
D03*
X108992D02*
D03*
Y229875D02*
D03*
Y231844D02*
D03*
Y233812D02*
D03*
Y235781D02*
D03*
X94622Y183812D02*
D03*
Y181844D02*
D03*
Y179875D02*
D03*
Y177907D02*
D03*
Y175938D02*
D03*
X108992D02*
D03*
Y177907D02*
D03*
Y179875D02*
D03*
Y181844D02*
D03*
Y183812D02*
D03*
X94622Y131844D02*
D03*
X94622Y129875D02*
D03*
Y127907D02*
D03*
Y125938D02*
D03*
X94622Y123970D02*
D03*
X108992D02*
D03*
Y125938D02*
D03*
Y127907D02*
D03*
Y129875D02*
D03*
Y131844D02*
D03*
X94622Y79875D02*
D03*
Y77907D02*
D03*
Y75938D02*
D03*
Y73970D02*
D03*
Y72001D02*
D03*
X108992D02*
D03*
Y73970D02*
D03*
Y75938D02*
D03*
Y77907D02*
D03*
Y79875D02*
D03*
X94587Y27953D02*
D03*
Y25984D02*
D03*
Y24016D02*
D03*
Y22047D02*
D03*
Y20079D02*
D03*
X108957D02*
D03*
X108957Y22047D02*
D03*
Y24016D02*
D03*
Y25984D02*
D03*
X108957Y27953D02*
D03*
D40*
X97835Y43504D02*
D03*
X99803D02*
D03*
X101772D02*
D03*
X103740D02*
D03*
X105709D02*
D03*
Y57874D02*
D03*
X103740D02*
D03*
X101772D02*
D03*
X99803D02*
D03*
X97835D02*
D03*
Y95482D02*
D03*
X99803D02*
D03*
X101772D02*
D03*
X103740D02*
D03*
X105709D02*
D03*
Y109852D02*
D03*
X103740D02*
D03*
X101772D02*
D03*
X99803D02*
D03*
X97835D02*
D03*
Y147415D02*
D03*
X99803D02*
D03*
X101772D02*
D03*
X103740D02*
D03*
X105709D02*
D03*
Y161785D02*
D03*
X103740D02*
D03*
X101772D02*
D03*
X99803D02*
D03*
X97835D02*
D03*
X97835Y199390D02*
D03*
X99803D02*
D03*
X101772D02*
D03*
X103740D02*
D03*
X105709D02*
D03*
Y213760D02*
D03*
X103740D02*
D03*
X101772D02*
D03*
X99803D02*
D03*
X97835D02*
D03*
X97835Y251317D02*
D03*
X99803D02*
D03*
X101772D02*
D03*
X103740D02*
D03*
X105709D02*
D03*
Y265687D02*
D03*
X103740D02*
D03*
X101772D02*
D03*
X99803D02*
D03*
X97835D02*
D03*
X97870Y224659D02*
D03*
X99839D02*
D03*
X101807D02*
D03*
X103776D02*
D03*
X105744D02*
D03*
Y239029D02*
D03*
X103776D02*
D03*
X101807D02*
D03*
X99839D02*
D03*
X97870D02*
D03*
Y172690D02*
D03*
X99839D02*
D03*
X101807D02*
D03*
X103776D02*
D03*
X105744D02*
D03*
Y187060D02*
D03*
X103776D02*
D03*
X101807D02*
D03*
X99839D02*
D03*
X97870D02*
D03*
Y120722D02*
D03*
X99839D02*
D03*
X101807D02*
D03*
X103776D02*
D03*
X105744D02*
D03*
Y135092D02*
D03*
X103776D02*
D03*
X101807D02*
D03*
X99839D02*
D03*
X97870D02*
D03*
Y68753D02*
D03*
X99839D02*
D03*
X101807D02*
D03*
X103776D02*
D03*
X105744D02*
D03*
Y83123D02*
D03*
X103776D02*
D03*
X101807D02*
D03*
X99839D02*
D03*
X97870D02*
D03*
X97835Y16831D02*
D03*
X99803D02*
D03*
X101772Y16831D02*
D03*
X103740D02*
D03*
X105709Y16831D02*
D03*
Y31201D02*
D03*
X103740D02*
D03*
X101772D02*
D03*
X99803D02*
D03*
X97835D02*
D03*
D41*
X101772Y50689D02*
D03*
Y102667D02*
D03*
Y154600D02*
D03*
X101772Y206575D02*
D03*
X101772Y258502D02*
D03*
X101807Y231844D02*
D03*
Y179875D02*
D03*
Y127907D02*
D03*
Y75938D02*
D03*
X101772Y24016D02*
D03*
D42*
X65000Y101969D02*
D03*
X68464D02*
D03*
X62559Y68504D02*
D03*
X59095D02*
D03*
X62559Y71653D02*
D03*
X59095Y71653D02*
D03*
X104685Y91732D02*
D03*
X101221D02*
D03*
X104685Y39764D02*
D03*
X101221D02*
D03*
X64606Y153937D02*
D03*
X68071D02*
D03*
X62484Y172680D02*
D03*
X59020D02*
D03*
X62484Y175829D02*
D03*
X59020D02*
D03*
X104685Y168898D02*
D03*
X101221D02*
D03*
X104685Y247638D02*
D03*
X101221D02*
D03*
X64606Y205906D02*
D03*
X68071D02*
D03*
X62559Y224803D02*
D03*
X59095D02*
D03*
X62559Y227953D02*
D03*
X59095D02*
D03*
X104685Y64961D02*
D03*
X101221D02*
D03*
X104685Y220866D02*
D03*
X101221D02*
D03*
X64606Y257874D02*
D03*
X68071D02*
D03*
X62559Y120669D02*
D03*
X59095D02*
D03*
X62559Y123819D02*
D03*
X59095D02*
D03*
X104291Y142913D02*
D03*
X100827D02*
D03*
X15197Y120079D02*
D03*
X18661D02*
D03*
X46614Y116929D02*
D03*
X43150D02*
D03*
X104685D02*
D03*
X101221D02*
D03*
X64606Y50000D02*
D03*
X68071D02*
D03*
X62559Y16535D02*
D03*
X59095D02*
D03*
X62559Y19685D02*
D03*
X59095Y19685D02*
D03*
X104685Y195669D02*
D03*
X101221D02*
D03*
X47874Y146457D02*
D03*
X51339D02*
D03*
X47874Y143307D02*
D03*
X51339D02*
D03*
X29567Y91535D02*
D03*
X33031D02*
D03*
X29567Y94488D02*
D03*
X33031Y94488D02*
D03*
X28307Y142323D02*
D03*
X24843D02*
D03*
X20906Y164567D02*
D03*
X24370D02*
D03*
X18661Y116929D02*
D03*
X15197D02*
D03*
X43150Y111614D02*
D03*
X46614D02*
D03*
X104789Y12999D02*
D03*
X101324D02*
D03*
D43*
X70669Y87008D02*
D03*
Y190945D02*
D03*
Y242913D02*
D03*
Y138976D02*
D03*
Y35039D02*
D03*
D44*
X81398Y94685D02*
D03*
Y92126D02*
D03*
Y89567D02*
D03*
Y87008D02*
D03*
Y84449D02*
D03*
Y81890D02*
D03*
Y79331D02*
D03*
X59941D02*
D03*
Y81890D02*
D03*
Y84449D02*
D03*
Y87008D02*
D03*
Y89567D02*
D03*
Y92126D02*
D03*
Y94685D02*
D03*
X81398Y198622D02*
D03*
Y196063D02*
D03*
Y193504D02*
D03*
Y190945D02*
D03*
Y188386D02*
D03*
Y185827D02*
D03*
Y183268D02*
D03*
X59941D02*
D03*
Y185827D02*
D03*
Y188386D02*
D03*
Y190945D02*
D03*
Y193504D02*
D03*
Y196063D02*
D03*
Y198622D02*
D03*
X81398Y250590D02*
D03*
Y248031D02*
D03*
Y245472D02*
D03*
Y242913D02*
D03*
Y240354D02*
D03*
Y237795D02*
D03*
Y235236D02*
D03*
X59941D02*
D03*
Y237795D02*
D03*
Y240354D02*
D03*
Y242913D02*
D03*
Y245472D02*
D03*
Y248031D02*
D03*
Y250590D02*
D03*
X81398Y146653D02*
D03*
Y144095D02*
D03*
Y141535D02*
D03*
Y138976D02*
D03*
Y136417D02*
D03*
Y133858D02*
D03*
Y131299D02*
D03*
X59941D02*
D03*
Y133858D02*
D03*
Y136417D02*
D03*
Y138976D02*
D03*
Y141535D02*
D03*
Y144095D02*
D03*
Y146653D02*
D03*
X81398Y42717D02*
D03*
Y40157D02*
D03*
Y37598D02*
D03*
Y35039D02*
D03*
Y32480D02*
D03*
Y29921D02*
D03*
Y27362D02*
D03*
X59941D02*
D03*
Y29921D02*
D03*
Y32480D02*
D03*
Y35039D02*
D03*
Y37598D02*
D03*
Y40157D02*
D03*
Y42717D02*
D03*
D45*
X78347Y76279D02*
D03*
X75787D02*
D03*
X73228D02*
D03*
X70669D02*
D03*
X68110D02*
D03*
X65551D02*
D03*
X62992D02*
D03*
Y97736D02*
D03*
X65551D02*
D03*
X68110D02*
D03*
X70669D02*
D03*
X73228D02*
D03*
X75787D02*
D03*
X78347D02*
D03*
Y180217D02*
D03*
X75787D02*
D03*
X73228D02*
D03*
X70669D02*
D03*
X68110D02*
D03*
X65551D02*
D03*
X62992D02*
D03*
Y201673D02*
D03*
X65551D02*
D03*
X68110D02*
D03*
X70669D02*
D03*
X73228D02*
D03*
X75787D02*
D03*
X78347D02*
D03*
Y232185D02*
D03*
X75787D02*
D03*
X73228D02*
D03*
X70669D02*
D03*
X68110D02*
D03*
X65551D02*
D03*
X62992D02*
D03*
Y253642D02*
D03*
X65551D02*
D03*
X68110D02*
D03*
X70669D02*
D03*
X73228D02*
D03*
X75787D02*
D03*
X78347D02*
D03*
Y128248D02*
D03*
X75787D02*
D03*
X73228D02*
D03*
X70669D02*
D03*
X68110D02*
D03*
X65551D02*
D03*
X62992D02*
D03*
Y149705D02*
D03*
X65551D02*
D03*
X68110D02*
D03*
X70669D02*
D03*
X73228D02*
D03*
X75787D02*
D03*
X78347D02*
D03*
Y24311D02*
D03*
X75787D02*
D03*
X73228D02*
D03*
X70669D02*
D03*
X68110D02*
D03*
X65551D02*
D03*
X62992D02*
D03*
Y45768D02*
D03*
X65551D02*
D03*
X68110D02*
D03*
X70669D02*
D03*
X73228D02*
D03*
X75787D02*
D03*
X78347D02*
D03*
D46*
X29134Y129095D02*
D03*
Y125630D02*
D03*
X24213Y129095D02*
D03*
Y125630D02*
D03*
D47*
X42913Y242913D02*
D03*
Y227913D02*
D03*
X37913Y242913D02*
D03*
Y227913D02*
D03*
X32913Y242913D02*
D03*
Y227913D02*
D03*
X27913Y242913D02*
D03*
Y227913D02*
D03*
X22913Y242913D02*
D03*
Y227913D02*
D03*
X17913Y242913D02*
D03*
Y227913D02*
D03*
X42913Y50039D02*
D03*
Y35039D02*
D03*
X37913Y50039D02*
D03*
Y35039D02*
D03*
X32913Y50039D02*
D03*
Y35039D02*
D03*
X27913Y50039D02*
D03*
Y35039D02*
D03*
X22913Y50039D02*
D03*
Y35039D02*
D03*
X17913Y50039D02*
D03*
Y35039D02*
D03*
D48*
X20866Y150984D02*
D03*
X28346Y150984D02*
D03*
X20866Y160827D02*
D03*
X24606Y160827D02*
D03*
X28346D02*
D03*
D49*
X28346Y146457D02*
D03*
X23622D02*
D03*
D50*
X13583Y112795D02*
D03*
X18307D02*
D03*
D51*
X28543Y173622D02*
D03*
Y181496D02*
D03*
Y202362D02*
D03*
Y210236D02*
D03*
D52*
X497992Y159055D02*
D03*
Y28898D02*
D03*
X6102Y139213D02*
D03*
Y180709D02*
D03*
D53*
X487992Y159055D02*
D03*
X497992Y169055D02*
D03*
X487992Y169055D02*
D03*
X497992Y179055D02*
D03*
X487992Y179055D02*
D03*
X497992Y189055D02*
D03*
X487992Y189055D02*
D03*
X497992Y199055D02*
D03*
X487992Y199055D02*
D03*
X497992Y209055D02*
D03*
X487992Y209055D02*
D03*
X497992Y219055D02*
D03*
X487992Y219055D02*
D03*
X497992Y229055D02*
D03*
X487992Y229055D02*
D03*
X497992Y239055D02*
D03*
X487992D02*
D03*
X497992Y249055D02*
D03*
X487992D02*
D03*
Y28898D02*
D03*
X497992Y38898D02*
D03*
X487992D02*
D03*
X497992Y48898D02*
D03*
X487992D02*
D03*
X497992Y58898D02*
D03*
X487992Y58898D02*
D03*
X497992Y68898D02*
D03*
X487992D02*
D03*
X497992Y78898D02*
D03*
X487992Y78898D02*
D03*
X497992Y88898D02*
D03*
X487992D02*
D03*
X497992Y98898D02*
D03*
X487992Y98898D02*
D03*
X497992Y108898D02*
D03*
X487992Y108898D02*
D03*
X497992Y118898D02*
D03*
X487992Y118898D02*
D03*
X6102Y169213D02*
D03*
Y159213D02*
D03*
Y149213D02*
D03*
Y210709D02*
D03*
Y200709D02*
D03*
Y190709D02*
D03*
D54*
X459252Y27559D02*
D03*
Y79528D02*
D03*
Y131496D02*
D03*
Y183465D02*
D03*
Y235433D02*
D03*
Y250394D02*
D03*
Y198425D02*
D03*
Y146457D02*
D03*
Y94488D02*
D03*
Y42520D02*
D03*
D55*
X45866Y35039D02*
D03*
X36024Y101969D02*
D03*
X16339Y76968D02*
D03*
X21063D02*
D03*
X25591D02*
D03*
X30512D02*
D03*
X35039D02*
D03*
X40551D02*
D03*
X47638D02*
D03*
X40354Y204134D02*
D03*
X48819D02*
D03*
X49016Y214567D02*
D03*
X14370D02*
D03*
X25394D02*
D03*
X40945D02*
D03*
X44882Y108858D02*
D03*
X51575Y242913D02*
D03*
Y240354D02*
D03*
Y237795D02*
D03*
X51772Y190945D02*
D03*
Y185630D02*
D03*
Y30118D02*
D03*
Y34843D02*
D03*
Y133858D02*
D03*
Y138976D02*
D03*
X51575Y87008D02*
D03*
X65083Y175829D02*
D03*
Y172680D02*
D03*
X101181Y166339D02*
D03*
X22835Y236024D02*
D03*
X24213Y131496D02*
D03*
X31890Y129134D02*
D03*
X28346Y139567D02*
D03*
X36417Y94685D02*
D03*
X27953Y236024D02*
D03*
X28150Y57087D02*
D03*
X15157Y122638D02*
D03*
X41535Y91339D02*
D03*
X32874Y236024D02*
D03*
Y57087D02*
D03*
X37992Y236221D02*
D03*
X37992Y57087D02*
D03*
X42913D02*
D03*
Y236221D02*
D03*
X23303Y121395D02*
D03*
X17913Y235630D02*
D03*
X19094Y64173D02*
D03*
X23228D02*
D03*
X15157Y35039D02*
D03*
X46457Y227953D02*
D03*
X14370D02*
D03*
X49213Y111614D02*
D03*
Y116929D02*
D03*
X26181Y91535D02*
D03*
Y94488D02*
D03*
X45276Y146457D02*
D03*
Y143504D02*
D03*
X10630Y112795D02*
D03*
X12756Y116929D02*
D03*
X22047Y142323D02*
D03*
X20472Y146457D02*
D03*
X24213Y167520D02*
D03*
X65354Y120669D02*
D03*
Y123819D02*
D03*
Y227953D02*
D03*
Y224803D02*
D03*
X56299Y40157D02*
D03*
X54134Y42520D02*
D03*
X56299Y92126D02*
D03*
X54134Y94488D02*
D03*
X56299Y248031D02*
D03*
X54134Y250394D02*
D03*
X56299Y196063D02*
D03*
X54134Y198425D02*
D03*
Y146457D02*
D03*
X56299Y144095D02*
D03*
X65354Y19685D02*
D03*
Y16535D02*
D03*
X65158Y68504D02*
D03*
Y71653D02*
D03*
X61614Y50000D02*
D03*
X67913Y52756D02*
D03*
X61588Y257819D02*
D03*
X67913Y260630D02*
D03*
Y208661D02*
D03*
X61614Y205906D02*
D03*
X62349Y102017D02*
D03*
X68307Y104331D02*
D03*
X62008Y153937D02*
D03*
X67913Y156693D02*
D03*
X97835Y169291D02*
D03*
X85236Y138976D02*
D03*
X94685Y173622D02*
D03*
X85236Y141339D02*
D03*
Y144095D02*
D03*
Y146850D02*
D03*
X91535Y177953D02*
D03*
X89567Y179921D02*
D03*
X91535Y181890D02*
D03*
X89567Y183858D02*
D03*
X94685Y187008D02*
D03*
X99803Y190157D02*
D03*
X70548Y153468D02*
D03*
X73304D02*
D03*
X76060D02*
D03*
X78422D02*
D03*
Y49531D02*
D03*
X76060D02*
D03*
X73304D02*
D03*
X70548D02*
D03*
X98622Y220866D02*
D03*
X99803Y86221D02*
D03*
X94685Y83071D02*
D03*
X89567Y79921D02*
D03*
X91535Y77953D02*
D03*
X89567Y75984D02*
D03*
X91535Y74016D02*
D03*
X85236Y42913D02*
D03*
Y40157D02*
D03*
Y37402D02*
D03*
X94685Y69685D02*
D03*
X85236Y35039D02*
D03*
X97835Y65354D02*
D03*
X122638Y225197D02*
D03*
Y173228D02*
D03*
Y121653D02*
D03*
Y69291D02*
D03*
Y17717D02*
D03*
X459252Y242913D02*
D03*
X459646Y227165D02*
D03*
X459252Y206299D02*
D03*
Y35039D02*
D03*
X458858Y138976D02*
D03*
X459252Y103543D02*
D03*
X500984Y136614D02*
D03*
Y148425D02*
D03*
X487205Y136614D02*
D03*
X481299Y148031D02*
D03*
X454528Y268504D02*
D03*
X448228D02*
D03*
X438779D02*
D03*
X419882D02*
D03*
X429331D02*
D03*
X382087D02*
D03*
X372638D02*
D03*
X391535D02*
D03*
X400984D02*
D03*
X410433D02*
D03*
X315945D02*
D03*
X306496D02*
D03*
X287598D02*
D03*
X297047D02*
D03*
X344291D02*
D03*
X334842D02*
D03*
X325394D02*
D03*
X353740D02*
D03*
X363189D02*
D03*
X230906D02*
D03*
X221457D02*
D03*
X193110D02*
D03*
X202559D02*
D03*
X212008D02*
D03*
X249803D02*
D03*
X240354D02*
D03*
X259252D02*
D03*
X268701D02*
D03*
X278150D02*
D03*
X145866D02*
D03*
X136417D02*
D03*
X126969D02*
D03*
X164764D02*
D03*
X155315D02*
D03*
X174213D02*
D03*
X183661D02*
D03*
X454528Y9449D02*
D03*
X448228D02*
D03*
X438779D02*
D03*
X419882D02*
D03*
X429331D02*
D03*
X382087D02*
D03*
X372638D02*
D03*
X391535D02*
D03*
X400984D02*
D03*
X410433D02*
D03*
X315945D02*
D03*
X306496D02*
D03*
X287598D02*
D03*
X297047D02*
D03*
X344291D02*
D03*
X334842D02*
D03*
X325394D02*
D03*
X353740D02*
D03*
X363189D02*
D03*
X230906D02*
D03*
X221457D02*
D03*
X193110D02*
D03*
X202559D02*
D03*
X212008D02*
D03*
X249803D02*
D03*
X240354D02*
D03*
X259252D02*
D03*
X268701D02*
D03*
X278150D02*
D03*
X145866D02*
D03*
X136417D02*
D03*
X126969D02*
D03*
X164764D02*
D03*
X155315D02*
D03*
X174213D02*
D03*
X183661D02*
D03*
X454528Y61024D02*
D03*
X448228D02*
D03*
X438779D02*
D03*
X419882D02*
D03*
X429331D02*
D03*
X382087D02*
D03*
X372638D02*
D03*
X391535D02*
D03*
X400984D02*
D03*
X410433D02*
D03*
X315945D02*
D03*
X306496D02*
D03*
X287598D02*
D03*
X297047D02*
D03*
X344291D02*
D03*
X334842D02*
D03*
X325394D02*
D03*
X353740D02*
D03*
X363189D02*
D03*
X230906D02*
D03*
X221457D02*
D03*
X193110D02*
D03*
X202559D02*
D03*
X212008D02*
D03*
X249803D02*
D03*
X240354D02*
D03*
X259252D02*
D03*
X268701D02*
D03*
X278150D02*
D03*
X145866D02*
D03*
X136417D02*
D03*
X126969D02*
D03*
X164764D02*
D03*
X155315D02*
D03*
X174213D02*
D03*
X183661D02*
D03*
X454528Y112992D02*
D03*
X448228D02*
D03*
X438779D02*
D03*
X419882D02*
D03*
X429331D02*
D03*
X382087D02*
D03*
X372638D02*
D03*
X391535D02*
D03*
X400984D02*
D03*
X410433D02*
D03*
X315945D02*
D03*
X306496D02*
D03*
X287598D02*
D03*
X297047D02*
D03*
X344291D02*
D03*
X334842D02*
D03*
X325394D02*
D03*
X353740D02*
D03*
X363189D02*
D03*
X230906D02*
D03*
X221457D02*
D03*
X193110D02*
D03*
X202559D02*
D03*
X212008D02*
D03*
X249803D02*
D03*
X240354D02*
D03*
X259252D02*
D03*
X268701D02*
D03*
X278150D02*
D03*
X145866D02*
D03*
X136417D02*
D03*
X126969D02*
D03*
X164764D02*
D03*
X155315D02*
D03*
X174213D02*
D03*
X183661D02*
D03*
X454528Y164961D02*
D03*
X438779D02*
D03*
X419882D02*
D03*
X429331D02*
D03*
X382087D02*
D03*
X372638D02*
D03*
X391535D02*
D03*
X400984D02*
D03*
X410433D02*
D03*
X315945D02*
D03*
X306496D02*
D03*
X287598D02*
D03*
X297047D02*
D03*
X344291D02*
D03*
X334842D02*
D03*
X325394D02*
D03*
X353740D02*
D03*
X363189D02*
D03*
X230906D02*
D03*
X221457D02*
D03*
X193110D02*
D03*
X202559D02*
D03*
X212008D02*
D03*
X249803D02*
D03*
X240354D02*
D03*
X259252D02*
D03*
X268701D02*
D03*
X278150D02*
D03*
X145866D02*
D03*
X136417D02*
D03*
X126969D02*
D03*
X164764D02*
D03*
X155315D02*
D03*
X174213D02*
D03*
X183661D02*
D03*
Y216929D02*
D03*
X174213D02*
D03*
X155315D02*
D03*
X164764D02*
D03*
X126969D02*
D03*
X136417D02*
D03*
X145866D02*
D03*
X278150D02*
D03*
X268701D02*
D03*
X259252D02*
D03*
X240354D02*
D03*
X249803D02*
D03*
X212008D02*
D03*
X202559D02*
D03*
X193110D02*
D03*
X221457D02*
D03*
X230906D02*
D03*
X363189D02*
D03*
X353740D02*
D03*
X325394D02*
D03*
X334842D02*
D03*
X344291D02*
D03*
X297047D02*
D03*
X287598D02*
D03*
X306496D02*
D03*
X315945D02*
D03*
X410433D02*
D03*
X400984D02*
D03*
X391535D02*
D03*
X372638D02*
D03*
X382087D02*
D03*
X429331D02*
D03*
X419882D02*
D03*
X438779D02*
D03*
X448228D02*
D03*
X454528D02*
D03*
X424606Y198031D02*
D03*
X424213Y146457D02*
D03*
X424213Y94488D02*
D03*
Y42520D02*
D03*
X424803Y249803D02*
D03*
X424213Y27559D02*
D03*
Y79528D02*
D03*
X425000Y236221D02*
D03*
X424213Y131496D02*
D03*
X424606Y183858D02*
D03*
X101378Y244882D02*
D03*
X107677Y247638D02*
D03*
Y220866D02*
D03*
X101378Y192913D02*
D03*
X107677Y195669D02*
D03*
X107283Y168898D02*
D03*
X106890Y142913D02*
D03*
X100799Y140305D02*
D03*
X101085Y114489D02*
D03*
X107283Y116929D02*
D03*
Y91732D02*
D03*
X100984Y88976D02*
D03*
X101257Y10331D02*
D03*
X107677Y12992D02*
D03*
X107283Y39764D02*
D03*
X101210Y36872D02*
D03*
X107283Y64961D02*
D03*
X101221Y62362D02*
D03*
X108858Y33858D02*
D03*
X423819Y254724D02*
D03*
Y231102D02*
D03*
X391929Y254724D02*
D03*
Y231102D02*
D03*
X367913Y254724D02*
D03*
X358858D02*
D03*
Y231102D02*
D03*
X367913D02*
D03*
X350197Y254724D02*
D03*
Y231102D02*
D03*
X255315Y254724D02*
D03*
Y231102D02*
D03*
X199409Y254724D02*
D03*
X223819D02*
D03*
X199409Y231102D02*
D03*
X223819D02*
D03*
X190354Y254724D02*
D03*
Y231102D02*
D03*
X443110Y254724D02*
D03*
Y231102D02*
D03*
X434449Y254724D02*
D03*
Y231102D02*
D03*
X410039Y254724D02*
D03*
Y231102D02*
D03*
X400984Y254724D02*
D03*
Y231102D02*
D03*
X381693Y254724D02*
D03*
Y231102D02*
D03*
X339567Y254724D02*
D03*
Y231102D02*
D03*
X325787Y254724D02*
D03*
Y231102D02*
D03*
X316732Y254724D02*
D03*
Y231102D02*
D03*
X308071Y254724D02*
D03*
Y231102D02*
D03*
X297441Y254724D02*
D03*
Y231102D02*
D03*
X283661Y254724D02*
D03*
Y231102D02*
D03*
X274606Y254724D02*
D03*
Y231102D02*
D03*
X265945Y254724D02*
D03*
Y231102D02*
D03*
X241535Y254724D02*
D03*
Y231102D02*
D03*
X232480Y254724D02*
D03*
Y231102D02*
D03*
X213189Y254724D02*
D03*
Y231102D02*
D03*
X181693Y254724D02*
D03*
Y231102D02*
D03*
X171063Y254724D02*
D03*
Y231102D02*
D03*
X157283Y254724D02*
D03*
Y231102D02*
D03*
X148228Y254724D02*
D03*
Y231102D02*
D03*
X139567Y254724D02*
D03*
Y231102D02*
D03*
X126181Y254724D02*
D03*
X131299Y231102D02*
D03*
X161221Y255118D02*
D03*
X108465Y265748D02*
D03*
X203346Y255118D02*
D03*
X112008Y262598D02*
D03*
X245472Y255118D02*
D03*
X113976Y260630D02*
D03*
X287598Y255118D02*
D03*
X112008Y258661D02*
D03*
X329724Y255118D02*
D03*
X113976Y256693D02*
D03*
X371850Y255118D02*
D03*
X112008Y254724D02*
D03*
X164764Y239764D02*
D03*
X413976Y255118D02*
D03*
X108465Y251575D02*
D03*
X149409Y225984D02*
D03*
X423819Y202756D02*
D03*
Y179134D02*
D03*
X391929Y202756D02*
D03*
Y179134D02*
D03*
X367913Y202756D02*
D03*
X358858D02*
D03*
Y179134D02*
D03*
X367913D02*
D03*
X350197Y202756D02*
D03*
Y179134D02*
D03*
X255315Y202756D02*
D03*
Y179134D02*
D03*
X199409Y202756D02*
D03*
X223819D02*
D03*
X199409Y179134D02*
D03*
X223819D02*
D03*
X190354Y202756D02*
D03*
Y179134D02*
D03*
X443110Y202756D02*
D03*
Y179134D02*
D03*
X434449Y202756D02*
D03*
Y179134D02*
D03*
X410039Y202756D02*
D03*
Y179134D02*
D03*
X400984Y202756D02*
D03*
Y179134D02*
D03*
X381693Y202756D02*
D03*
Y179134D02*
D03*
X339567Y202756D02*
D03*
Y179134D02*
D03*
X325787Y202756D02*
D03*
Y179134D02*
D03*
X316732Y202756D02*
D03*
Y179134D02*
D03*
X308071Y202756D02*
D03*
Y179134D02*
D03*
X297441Y202756D02*
D03*
Y179134D02*
D03*
X283661Y202756D02*
D03*
Y179134D02*
D03*
X274606Y202756D02*
D03*
Y179134D02*
D03*
X265945Y202756D02*
D03*
Y179134D02*
D03*
X241535Y202756D02*
D03*
Y179134D02*
D03*
X232480Y202756D02*
D03*
Y179134D02*
D03*
X213189Y202756D02*
D03*
Y179134D02*
D03*
X181693Y202756D02*
D03*
Y179134D02*
D03*
X171063Y202756D02*
D03*
Y179134D02*
D03*
X157283Y202756D02*
D03*
Y179134D02*
D03*
X148228Y202756D02*
D03*
Y179134D02*
D03*
X139567Y202756D02*
D03*
Y179134D02*
D03*
X126181Y202756D02*
D03*
X131299Y179134D02*
D03*
X161221Y203150D02*
D03*
X108465Y213779D02*
D03*
X203346Y203150D02*
D03*
X112008Y210630D02*
D03*
X245472Y203150D02*
D03*
X113976Y208661D02*
D03*
X287598Y203150D02*
D03*
X112008Y206693D02*
D03*
X329724Y203150D02*
D03*
X113976Y204724D02*
D03*
X371850Y203150D02*
D03*
X112008Y202756D02*
D03*
X164764Y187795D02*
D03*
X413976Y203150D02*
D03*
X108465Y199606D02*
D03*
X149409Y174016D02*
D03*
X423819Y150787D02*
D03*
Y127165D02*
D03*
X391929Y150787D02*
D03*
Y127165D02*
D03*
X367913Y150787D02*
D03*
X358858D02*
D03*
Y127165D02*
D03*
X367913D02*
D03*
X350197Y150787D02*
D03*
Y127165D02*
D03*
X255315Y150787D02*
D03*
Y127165D02*
D03*
X199409Y150787D02*
D03*
X223819D02*
D03*
X199409Y127165D02*
D03*
X223819D02*
D03*
X190354Y150787D02*
D03*
Y127165D02*
D03*
X443110Y150787D02*
D03*
Y127165D02*
D03*
X434449Y150787D02*
D03*
Y127165D02*
D03*
X410039Y150787D02*
D03*
Y127165D02*
D03*
X400984Y150787D02*
D03*
Y127165D02*
D03*
X381693Y150787D02*
D03*
Y127165D02*
D03*
X339567Y150787D02*
D03*
Y127165D02*
D03*
X325787Y150787D02*
D03*
Y127165D02*
D03*
X316732Y150787D02*
D03*
Y127165D02*
D03*
X308071Y150787D02*
D03*
Y127165D02*
D03*
X297441Y150787D02*
D03*
Y127165D02*
D03*
X283661Y150787D02*
D03*
Y127165D02*
D03*
X274606Y150787D02*
D03*
Y127165D02*
D03*
X265945Y150787D02*
D03*
Y127165D02*
D03*
X241535Y150787D02*
D03*
Y127165D02*
D03*
X232480Y150787D02*
D03*
Y127165D02*
D03*
X213189Y150787D02*
D03*
Y127165D02*
D03*
X181693Y150787D02*
D03*
Y127165D02*
D03*
X171063Y150787D02*
D03*
Y127165D02*
D03*
X157283Y150787D02*
D03*
Y127165D02*
D03*
X148228Y150787D02*
D03*
Y127165D02*
D03*
X139567Y150787D02*
D03*
Y127165D02*
D03*
X126181Y150787D02*
D03*
X131299Y127165D02*
D03*
X161221Y151181D02*
D03*
X108465Y161811D02*
D03*
X203346Y151181D02*
D03*
X112008Y158661D02*
D03*
X245472Y151181D02*
D03*
X113976Y156693D02*
D03*
X287598Y151181D02*
D03*
X112008Y154724D02*
D03*
X329724Y151181D02*
D03*
X113976Y152756D02*
D03*
X371850Y151181D02*
D03*
X112008Y150787D02*
D03*
X164764Y135827D02*
D03*
X413976Y151181D02*
D03*
X108465Y147638D02*
D03*
X149409Y122047D02*
D03*
X423819Y98819D02*
D03*
Y75197D02*
D03*
X391929Y98819D02*
D03*
Y75197D02*
D03*
X367913Y98819D02*
D03*
X358858D02*
D03*
Y75197D02*
D03*
X367913D02*
D03*
X350197Y98819D02*
D03*
Y75197D02*
D03*
X255315Y98819D02*
D03*
Y75197D02*
D03*
X199409Y98819D02*
D03*
X223819D02*
D03*
X199409Y75197D02*
D03*
X223819D02*
D03*
X190354Y98819D02*
D03*
Y75197D02*
D03*
X443110Y98819D02*
D03*
Y75197D02*
D03*
X434449Y98819D02*
D03*
Y75197D02*
D03*
X410039Y98819D02*
D03*
Y75197D02*
D03*
X400984Y98819D02*
D03*
Y75197D02*
D03*
X381693Y98819D02*
D03*
Y75197D02*
D03*
X339567Y98819D02*
D03*
Y75197D02*
D03*
X325787Y98819D02*
D03*
Y75197D02*
D03*
X316732Y98819D02*
D03*
Y75197D02*
D03*
X308071Y98819D02*
D03*
Y75197D02*
D03*
X297441Y98819D02*
D03*
Y75197D02*
D03*
X283661Y98819D02*
D03*
Y75197D02*
D03*
X274606Y98819D02*
D03*
Y75197D02*
D03*
X265945Y98819D02*
D03*
Y75197D02*
D03*
X241535Y98819D02*
D03*
Y75197D02*
D03*
X232480Y98819D02*
D03*
Y75197D02*
D03*
X213189Y98819D02*
D03*
Y75197D02*
D03*
X181693Y98819D02*
D03*
Y75197D02*
D03*
X171063Y98819D02*
D03*
Y75197D02*
D03*
X157283Y98819D02*
D03*
Y75197D02*
D03*
X148228Y98819D02*
D03*
Y75197D02*
D03*
X139567Y98819D02*
D03*
Y75197D02*
D03*
X126181Y98819D02*
D03*
X131299Y75197D02*
D03*
X161221Y99213D02*
D03*
X108465Y109843D02*
D03*
X203346Y99213D02*
D03*
X112008Y106693D02*
D03*
X245472Y99213D02*
D03*
X113976Y104724D02*
D03*
X287598Y99213D02*
D03*
X112008Y102756D02*
D03*
X329724Y99213D02*
D03*
X113976Y100787D02*
D03*
X371850Y99213D02*
D03*
X112008Y98819D02*
D03*
X164764Y83858D02*
D03*
X413976Y99213D02*
D03*
X108465Y95669D02*
D03*
X149409Y70079D02*
D03*
X139567Y23228D02*
D03*
X148228D02*
D03*
X171063D02*
D03*
X181693D02*
D03*
X199409D02*
D03*
X213189D02*
D03*
X232480D02*
D03*
X241535D02*
D03*
X265945D02*
D03*
X274606D02*
D03*
X283661D02*
D03*
X157283D02*
D03*
X190354D02*
D03*
X223819D02*
D03*
X255315D02*
D03*
X297441D02*
D03*
X308071D02*
D03*
X316732D02*
D03*
X325787D02*
D03*
X339567D02*
D03*
X350197D02*
D03*
X358858D02*
D03*
X367913D02*
D03*
X381693D02*
D03*
X391929D02*
D03*
X400984D02*
D03*
X410039D02*
D03*
X423819D02*
D03*
X434449D02*
D03*
X443110D02*
D03*
Y46850D02*
D03*
X434449D02*
D03*
X423819D02*
D03*
X410039D02*
D03*
X400984D02*
D03*
X391929D02*
D03*
X381693D02*
D03*
X367913D02*
D03*
X358858D02*
D03*
X350197D02*
D03*
X339567D02*
D03*
X325787D02*
D03*
X316732D02*
D03*
X308071D02*
D03*
X297441D02*
D03*
X164764Y31890D02*
D03*
X131693Y46850D02*
D03*
X161221Y22835D02*
D03*
X111945Y20033D02*
D03*
X203346Y22835D02*
D03*
X113913Y22001D02*
D03*
X245472Y22835D02*
D03*
X111945Y23970D02*
D03*
X287598Y22835D02*
D03*
X114012Y26037D02*
D03*
X329724Y22835D02*
D03*
X112043Y28005D02*
D03*
X371850Y22835D02*
D03*
X108894Y31155D02*
D03*
X413976Y22835D02*
D03*
X149016Y51968D02*
D03*
X131693Y98819D02*
D03*
X161221Y74803D02*
D03*
X111945Y72001D02*
D03*
X203346Y74803D02*
D03*
X113913Y73970D02*
D03*
X245472Y74803D02*
D03*
X111945Y75938D02*
D03*
X287598Y74803D02*
D03*
X114012Y78005D02*
D03*
X329724Y74803D02*
D03*
X112043Y79974D02*
D03*
X371850Y74803D02*
D03*
X108894Y83123D02*
D03*
X413976Y74803D02*
D03*
X108894Y85879D02*
D03*
X149016Y103937D02*
D03*
X131693Y150787D02*
D03*
X161221Y126772D02*
D03*
X111945Y123970D02*
D03*
X203346Y126772D02*
D03*
X113913Y125938D02*
D03*
X245472Y126772D02*
D03*
X111945Y127907D02*
D03*
X287598Y126772D02*
D03*
X114012Y129974D02*
D03*
X329724Y126772D02*
D03*
X112043Y131942D02*
D03*
X371850Y126772D02*
D03*
X108894Y135092D02*
D03*
X413976Y126772D02*
D03*
X108894Y137848D02*
D03*
X149016Y155905D02*
D03*
X131693Y202756D02*
D03*
X161221Y178740D02*
D03*
X111945Y175938D02*
D03*
X203346Y178740D02*
D03*
X113913Y177907D02*
D03*
X245472Y178740D02*
D03*
X111945Y179875D02*
D03*
X287598Y178740D02*
D03*
X114012Y181942D02*
D03*
X329724Y178740D02*
D03*
X112043Y183911D02*
D03*
X371850Y178740D02*
D03*
X108894Y187060D02*
D03*
X413976Y178740D02*
D03*
X108894Y189816D02*
D03*
X149016Y207874D02*
D03*
X255315Y46850D02*
D03*
X223819D02*
D03*
X190354D02*
D03*
X157283D02*
D03*
X283661D02*
D03*
X274606D02*
D03*
X265945D02*
D03*
X241535D02*
D03*
X232480D02*
D03*
X213189D02*
D03*
X199409D02*
D03*
X181693D02*
D03*
X171063D02*
D03*
X148228D02*
D03*
X139567D02*
D03*
X126181D02*
D03*
X131299Y23228D02*
D03*
X161221Y47244D02*
D03*
X108465Y57874D02*
D03*
X203346Y47244D02*
D03*
X112008Y54724D02*
D03*
X245472Y47244D02*
D03*
X113976Y52756D02*
D03*
X287598Y47244D02*
D03*
X112008Y50787D02*
D03*
X329724Y47244D02*
D03*
X113976Y48819D02*
D03*
X371850Y47244D02*
D03*
X112008Y46850D02*
D03*
X413976Y47244D02*
D03*
X108465Y43701D02*
D03*
X149409Y18110D02*
D03*
X149016Y259842D02*
D03*
X131693Y254724D02*
D03*
X111945Y227907D02*
D03*
X113913Y229875D02*
D03*
X111945Y231844D02*
D03*
X108894Y241785D02*
D03*
X413976Y230709D02*
D03*
X108894Y239029D02*
D03*
X371850Y230709D02*
D03*
X112043Y235879D02*
D03*
X329724Y230709D02*
D03*
X114012Y233911D02*
D03*
X287598Y230709D02*
D03*
X245472D02*
D03*
X203346D02*
D03*
X161221D02*
D03*
D56*
X33268Y111024D02*
D03*
X28543D02*
D03*
X33268Y115748D02*
D03*
X28543D02*
D03*
D57*
X18307Y266929D02*
D03*
Y11024D02*
D03*
X471063Y266929D02*
D03*
Y11024D02*
D03*
D58*
X132874Y238189D02*
D03*
X126181Y231102D02*
D03*
X132874Y186221D02*
D03*
X126181Y179134D02*
D03*
X132874Y134252D02*
D03*
X126181Y127165D02*
D03*
X132874Y82284D02*
D03*
X126181Y75197D02*
D03*
X132874Y30315D02*
D03*
X126181Y23228D02*
D03*
D59*
X99606Y52854D02*
D03*
X103937D02*
D03*
X99606Y48524D02*
D03*
X103937D02*
D03*
X66339Y82677D02*
D03*
Y87008D02*
D03*
Y91339D02*
D03*
X70669Y82677D02*
D03*
Y87008D02*
D03*
Y91339D02*
D03*
X75000Y82677D02*
D03*
X75000Y87008D02*
D03*
X75000Y91339D02*
D03*
X99606Y104832D02*
D03*
X103937D02*
D03*
X99606Y100501D02*
D03*
X103937D02*
D03*
X99606Y156765D02*
D03*
X103937D02*
D03*
X99606Y152434D02*
D03*
X103937D02*
D03*
X66339Y186614D02*
D03*
Y190945D02*
D03*
Y195276D02*
D03*
X70669Y186614D02*
D03*
Y190945D02*
D03*
Y195276D02*
D03*
X75000Y186614D02*
D03*
Y190945D02*
D03*
Y195276D02*
D03*
X99606Y208740D02*
D03*
X103937D02*
D03*
X99606Y204409D02*
D03*
X103937D02*
D03*
X99606Y260667D02*
D03*
X103937D02*
D03*
X99606Y256336D02*
D03*
X103937D02*
D03*
X66339Y238583D02*
D03*
X66339Y242913D02*
D03*
X66339Y247244D02*
D03*
X70669Y238583D02*
D03*
Y242913D02*
D03*
Y247244D02*
D03*
X75000Y238583D02*
D03*
X75000Y242913D02*
D03*
X75000Y247244D02*
D03*
X99642Y234009D02*
D03*
X103972D02*
D03*
X99642Y229678D02*
D03*
X103972D02*
D03*
X99642Y182041D02*
D03*
X103972D02*
D03*
X99642Y177710D02*
D03*
X103972D02*
D03*
X66339Y134646D02*
D03*
X66339Y138976D02*
D03*
X66339Y143307D02*
D03*
X70669Y134646D02*
D03*
Y138976D02*
D03*
Y143307D02*
D03*
X75000Y134646D02*
D03*
X75000Y138976D02*
D03*
X75000Y143307D02*
D03*
X99642Y130072D02*
D03*
X103972Y130072D02*
D03*
X99642Y125741D02*
D03*
X103972Y125741D02*
D03*
X99642Y78104D02*
D03*
X103972D02*
D03*
X99642Y73773D02*
D03*
X103972D02*
D03*
X66339Y30709D02*
D03*
Y35039D02*
D03*
Y39370D02*
D03*
X70669Y30709D02*
D03*
Y35039D02*
D03*
Y39370D02*
D03*
X75000Y30709D02*
D03*
X75000Y35039D02*
D03*
X75000Y39370D02*
D03*
X99606Y26181D02*
D03*
X103937D02*
D03*
X99606Y21850D02*
D03*
X103937Y21850D02*
D03*
M02*
