G04*
G04 #@! TF.GenerationSoftware,Altium Limited,Altium Designer,20.0.9 (164)*
G04*
G04 Layer_Color=65535*
%FSLAX25Y25*%
%MOIN*%
G70*
G01*
G75*
%ADD10C,0.00787*%
%ADD11C,0.00984*%
%ADD12C,0.00394*%
%ADD13C,0.01000*%
%ADD14C,0.00800*%
G36*
X34449Y25591D02*
X25787D01*
Y28740D01*
X34449D01*
Y25591D01*
D02*
G37*
G36*
X34449Y218504D02*
X25787D01*
Y221654D01*
X34449D01*
Y218504D01*
D02*
G37*
G36*
X506496Y68898D02*
X502953D01*
Y79134D01*
X506496D01*
Y68898D01*
D02*
G37*
G36*
Y198819D02*
X502953D01*
Y209055D01*
X506496D01*
Y198819D01*
D02*
G37*
D10*
X471215Y138976D02*
G03*
X471215Y138976I-2120J0D01*
G01*
X475000D02*
G03*
X475000Y138976I-5906J0D01*
G01*
X38386Y177559D02*
G03*
X38386Y177559I-9843J0D01*
G01*
Y206299D02*
G03*
X38386Y206299I-9843J0D01*
G01*
X984Y24016D02*
X3346D01*
X984D02*
Y68110D01*
X1378D01*
X984Y24016D02*
X10827D01*
Y68110D01*
X984D02*
X10827D01*
X475123Y43301D02*
X479060D01*
X475123Y42120D02*
Y43301D01*
X479060Y42120D02*
Y43301D01*
X475123Y42120D02*
X479060D01*
X475186Y33475D02*
X479123D01*
X475186Y32293D02*
Y33475D01*
X479123Y32293D02*
Y33475D01*
X475186Y32293D02*
X479123D01*
X467332Y32248D02*
X471270D01*
Y33429D01*
X467332Y32248D02*
Y33429D01*
X471270D01*
X14370Y28740D02*
X47047D01*
X26575Y221654D02*
X28543D01*
X14370D02*
X47047D01*
X480905Y64173D02*
Y83858D01*
X473425Y134646D02*
X476968D01*
Y135827D02*
X479331D01*
X476968Y138976D02*
X479331D01*
X476968Y142126D02*
X479331D01*
X476968Y134646D02*
Y143307D01*
X473425D02*
X476968D01*
X467717Y137598D02*
X470276Y140157D01*
X465551Y104331D02*
Y123228D01*
X480905D01*
Y103543D02*
Y123228D01*
X465551Y103543D02*
X480905D01*
X473228D02*
Y123228D01*
X465551Y113386D02*
X480905D01*
X465551Y103543D02*
Y107087D01*
Y83858D02*
Y87402D01*
X465551Y93701D02*
X480905D01*
X473228Y83858D02*
Y103543D01*
X465551Y83858D02*
X480905D01*
Y103543D01*
X465551D02*
X480905D01*
X465551Y84646D02*
Y103543D01*
X465551Y64173D02*
Y67716D01*
X465551Y74016D02*
X480905D01*
X473228Y64173D02*
Y83858D01*
X465551Y64173D02*
X480905D01*
X465551Y83858D02*
X480905D01*
X465551Y64961D02*
Y83858D01*
X465551Y44488D02*
Y48031D01*
X465551Y54331D02*
X480905D01*
X473228Y44488D02*
Y64173D01*
X465551Y44488D02*
X480905D01*
Y64173D01*
X465551D02*
X480905D01*
X465551Y45276D02*
Y64173D01*
X465551Y24803D02*
Y28346D01*
X465551Y34646D02*
X480905D01*
X473228Y24803D02*
Y44488D01*
X465551Y24803D02*
X480905D01*
Y44488D01*
X465551D02*
X480905D01*
X465551Y25591D02*
Y44488D01*
Y155512D02*
Y174409D01*
X480905D01*
Y154724D02*
Y174409D01*
X465551Y154724D02*
X480905D01*
X473228D02*
Y174409D01*
X465551Y164567D02*
X480905D01*
X465551Y154724D02*
Y158268D01*
X465551Y175197D02*
Y194095D01*
X480905D01*
Y174409D02*
Y194095D01*
X465551Y174409D02*
X480905D01*
X473228D02*
Y194095D01*
X465551Y184252D02*
X480905D01*
X465551Y174409D02*
Y177953D01*
X465551Y194882D02*
Y213779D01*
X480905D01*
Y194095D02*
Y213779D01*
X465551Y194095D02*
X480905D01*
X473228D02*
Y213779D01*
X465551Y203937D02*
X480905D01*
X465551Y194095D02*
Y197638D01*
X465551Y214567D02*
Y233465D01*
X480905D01*
Y213779D02*
Y233465D01*
X465551Y213779D02*
X480905D01*
X473228D02*
Y233465D01*
X465551Y223622D02*
X480905D01*
X465551Y213779D02*
Y217323D01*
Y233465D02*
Y237008D01*
X465551Y243307D02*
X480905D01*
X473228Y233465D02*
Y253150D01*
X465551Y233465D02*
X480905D01*
Y253150D01*
X465551D02*
X480905D01*
X465551Y234252D02*
Y253150D01*
X115945Y216535D02*
X454528D01*
X482992Y254055D02*
X502992Y254055D01*
X502992Y154055D02*
Y161555D01*
X482992Y154055D02*
X502992Y154055D01*
X482992Y154055D02*
X482992Y161555D01*
Y254055D01*
X502992Y254055D02*
X502992Y161555D01*
X115945Y268504D02*
X454528D01*
X115945D02*
X454528D01*
X115945D02*
X454528D01*
X115945D02*
X454528D01*
X115945D02*
X454528D01*
X115945D02*
X454528D01*
Y217323D02*
Y268504D01*
Y217323D02*
Y268504D01*
X454528Y217323D02*
Y268504D01*
X454528Y217323D02*
Y268504D01*
Y217323D02*
Y268504D01*
Y217323D02*
Y268504D01*
X115945Y217323D02*
Y268504D01*
Y217323D02*
Y268504D01*
X115945Y217323D02*
Y268504D01*
X115945Y217323D02*
Y268504D01*
Y217323D02*
Y268504D01*
Y217323D02*
Y268504D01*
X115945Y165354D02*
X454528D01*
X115945D02*
X454528D01*
X115945D02*
X454528D01*
X115945D02*
X454528D01*
X115945D02*
X454528D01*
X115945D02*
X454528D01*
Y216535D01*
Y165354D02*
Y216535D01*
X454528Y165354D02*
Y216535D01*
X454528Y165354D02*
Y216535D01*
Y165354D02*
Y216535D01*
Y165354D02*
Y216535D01*
X115945Y165354D02*
Y216535D01*
Y165354D02*
Y216535D01*
X115945Y165354D02*
Y216535D01*
X115945Y165354D02*
Y216535D01*
Y165354D02*
Y216535D01*
Y165354D02*
Y216535D01*
X115945Y113386D02*
X454528D01*
X115945D02*
X454528D01*
X115945D02*
X454528D01*
X115945D02*
X454528D01*
X115945D02*
X454528D01*
X115945D02*
X454528D01*
X115945Y164567D02*
X454528D01*
X115945D02*
X454528D01*
X115945D02*
X454528D01*
X115945D02*
X454528D01*
X115945D02*
X454528D01*
X115945D02*
X454528D01*
Y113386D02*
Y164567D01*
Y113386D02*
Y164567D01*
X454528Y113386D02*
Y164567D01*
X454528Y113386D02*
Y164567D01*
Y113386D02*
Y164567D01*
Y113386D02*
Y164567D01*
X115945Y113386D02*
Y164567D01*
Y113386D02*
Y164567D01*
X115945Y113386D02*
Y164567D01*
X115945Y113386D02*
Y164567D01*
Y113386D02*
Y164567D01*
Y113386D02*
Y164567D01*
Y61417D02*
X454528D01*
X115945D02*
X454528D01*
X115945D02*
X454528D01*
X115945D02*
X454528D01*
X115945D02*
X454528D01*
X115945D02*
X454528D01*
X115945Y112598D02*
X454528D01*
X115945D02*
X454528D01*
X115945D02*
X454528D01*
X115945D02*
X454528D01*
X115945D02*
X454528D01*
X115945D02*
X454528D01*
Y61417D02*
Y112598D01*
Y61417D02*
Y112598D01*
X454528Y61417D02*
Y112598D01*
X454528Y61417D02*
Y112598D01*
Y61417D02*
Y112598D01*
Y61417D02*
Y112598D01*
X115945Y61417D02*
Y112598D01*
Y61417D02*
Y112598D01*
X115945Y61417D02*
Y112598D01*
X115945Y61417D02*
Y112598D01*
Y61417D02*
Y112598D01*
Y61417D02*
Y112598D01*
Y268504D02*
X454528D01*
X115945D02*
X454528D01*
X115945D02*
X454528D01*
X115945D02*
X454528D01*
X115945D02*
X454528D01*
X115945D02*
X454528D01*
Y217323D02*
Y268504D01*
Y217323D02*
Y268504D01*
X454528Y217323D02*
Y268504D01*
X454528Y217323D02*
Y268504D01*
Y217323D02*
Y268504D01*
Y217323D02*
Y268504D01*
X115945Y217323D02*
Y268504D01*
Y217323D02*
Y268504D01*
X115945Y217323D02*
Y268504D01*
X115945Y217323D02*
Y268504D01*
Y217323D02*
Y268504D01*
Y217323D02*
Y268504D01*
X115945Y165354D02*
X454528D01*
X115945D02*
X454528D01*
X115945D02*
X454528D01*
X115945D02*
X454528D01*
X115945D02*
X454528D01*
X115945D02*
X454528D01*
Y216535D01*
Y165354D02*
Y216535D01*
X454528Y165354D02*
Y216535D01*
X454528Y165354D02*
Y216535D01*
Y165354D02*
Y216535D01*
Y165354D02*
Y216535D01*
X115945Y165354D02*
Y216535D01*
Y165354D02*
Y216535D01*
X115945Y165354D02*
Y216535D01*
X115945Y165354D02*
Y216535D01*
Y165354D02*
Y216535D01*
Y165354D02*
Y216535D01*
X115945Y113386D02*
X454528D01*
X115945D02*
X454528D01*
X115945D02*
X454528D01*
X115945D02*
X454528D01*
X115945D02*
X454528D01*
X115945D02*
X454528D01*
X115945Y164567D02*
X454528D01*
X115945D02*
X454528D01*
X115945D02*
X454528D01*
X115945D02*
X454528D01*
X115945D02*
X454528D01*
X115945D02*
X454528D01*
Y113386D02*
Y164567D01*
Y113386D02*
Y164567D01*
X454528Y113386D02*
Y164567D01*
X454528Y113386D02*
Y164567D01*
Y113386D02*
Y164567D01*
Y113386D02*
Y164567D01*
X115945Y113386D02*
Y164567D01*
Y113386D02*
Y164567D01*
X115945Y113386D02*
Y164567D01*
X115945Y113386D02*
Y164567D01*
Y113386D02*
Y164567D01*
Y113386D02*
Y164567D01*
Y61417D02*
X454528D01*
X115945D02*
X454528D01*
X115945D02*
X454528D01*
X115945D02*
X454528D01*
X115945D02*
X454528D01*
X115945D02*
X454528D01*
X115945Y112598D02*
X454528D01*
X115945D02*
X454528D01*
X115945D02*
X454528D01*
X115945D02*
X454528D01*
X115945D02*
X454528D01*
X115945D02*
X454528D01*
Y61417D02*
Y112598D01*
Y61417D02*
Y112598D01*
X454528Y61417D02*
Y112598D01*
X454528Y61417D02*
Y112598D01*
Y61417D02*
Y112598D01*
Y61417D02*
Y112598D01*
X115945Y61417D02*
Y112598D01*
Y61417D02*
Y112598D01*
X115945Y61417D02*
Y112598D01*
X115945Y61417D02*
Y112598D01*
Y61417D02*
Y112598D01*
Y61417D02*
Y112598D01*
X115945Y165354D02*
Y216535D01*
X115945Y165354D02*
Y216535D01*
X115945Y165354D02*
Y216535D01*
X115945Y165354D02*
X454528D01*
X115945Y60630D02*
X454528D01*
X115945D02*
X454528D01*
X115945D02*
X454528D01*
X115945D02*
X454528D01*
X115945D02*
X454528D01*
X115945D02*
X454528D01*
X115945Y9449D02*
X454528D01*
X115945D02*
X454528D01*
X115945D02*
X454528D01*
X115945D02*
X454528D01*
X115945D02*
X454528D01*
X115945D02*
X454528D01*
Y60630D01*
Y9449D02*
Y60630D01*
X454528Y9449D02*
Y60630D01*
X454528Y9449D02*
Y60630D01*
Y9449D02*
Y60630D01*
Y9449D02*
Y60630D01*
X115945Y9449D02*
Y60630D01*
Y9449D02*
Y60630D01*
X115945Y9449D02*
Y60630D01*
X115945Y9449D02*
Y60630D01*
Y9449D02*
Y60630D01*
Y9449D02*
Y60630D01*
X115945D02*
X454528D01*
X115945Y9449D02*
X454528D01*
Y60630D01*
X115945Y9449D02*
Y60630D01*
X454528D01*
X115945Y9449D02*
X454528D01*
Y60630D01*
X115945Y9449D02*
Y60630D01*
Y112598D02*
X454528D01*
X115945Y61417D02*
X454528D01*
Y112598D01*
X115945Y61417D02*
Y112598D01*
Y164567D02*
X454528D01*
X115945Y113386D02*
X454528D01*
Y164567D01*
X115945Y113386D02*
Y164567D01*
Y165354D02*
X454528D01*
Y216535D01*
X115945Y268504D02*
X454528D01*
X115945D02*
X454528D01*
X115945D02*
X454528D01*
X115945D02*
X454528D01*
Y217323D02*
Y268504D01*
Y217323D02*
Y268504D01*
X454528Y217323D02*
Y268504D01*
X454528Y217323D02*
Y268504D01*
X115945Y217323D02*
Y268504D01*
Y217323D02*
Y268504D01*
X115945Y217323D02*
Y268504D01*
X115945Y217323D02*
Y268504D01*
X115945Y165354D02*
X454528D01*
X115945D02*
X454528D01*
X115945D02*
X454528D01*
X115945D02*
X454528D01*
Y216535D01*
Y165354D02*
Y216535D01*
X454528Y165354D02*
Y216535D01*
X454528Y165354D02*
Y216535D01*
X115945Y165354D02*
Y216535D01*
Y165354D02*
Y216535D01*
X115945Y165354D02*
Y216535D01*
X115945Y165354D02*
Y216535D01*
X115945Y113386D02*
X454528D01*
X115945D02*
X454528D01*
X115945D02*
X454528D01*
X115945D02*
X454528D01*
X115945Y164567D02*
X454528D01*
X115945D02*
X454528D01*
X115945D02*
X454528D01*
X115945D02*
X454528D01*
Y113386D02*
Y164567D01*
Y113386D02*
Y164567D01*
X454528Y113386D02*
Y164567D01*
X454528Y113386D02*
Y164567D01*
X115945Y113386D02*
Y164567D01*
Y113386D02*
Y164567D01*
X115945Y113386D02*
Y164567D01*
X115945Y113386D02*
Y164567D01*
Y61417D02*
X454528D01*
X115945D02*
X454528D01*
X115945D02*
X454528D01*
X115945D02*
X454528D01*
X115945Y112598D02*
X454528D01*
X115945D02*
X454528D01*
X115945D02*
X454528D01*
X115945D02*
X454528D01*
Y61417D02*
Y112598D01*
Y61417D02*
Y112598D01*
X454528Y61417D02*
Y112598D01*
X454528Y61417D02*
Y112598D01*
X115945Y61417D02*
Y112598D01*
Y61417D02*
Y112598D01*
X115945Y61417D02*
Y112598D01*
X115945Y61417D02*
Y112598D01*
X115945Y60630D02*
X454528D01*
X115945Y9449D02*
X454528D01*
Y60630D01*
X115945Y9449D02*
Y60630D01*
Y112598D02*
X454528D01*
X115945Y61417D02*
X454528D01*
Y112598D01*
X115945Y61417D02*
Y112598D01*
Y164567D02*
X454528D01*
X115945Y113386D02*
X454528D01*
Y164567D01*
X115945Y113386D02*
Y164567D01*
Y165354D02*
X454528D01*
Y216535D01*
X115945Y9449D02*
X454528D01*
X115945Y60630D02*
X454528D01*
Y9449D02*
Y60630D01*
X115945Y9449D02*
Y60630D01*
Y61417D02*
X454528D01*
X115945Y112598D02*
X454528D01*
Y61417D02*
Y112598D01*
X115945Y61417D02*
Y112598D01*
Y113386D02*
X454528D01*
X115945Y164567D02*
X454528D01*
Y113386D02*
Y164567D01*
X115945Y113386D02*
Y164567D01*
Y165354D02*
X454528D01*
Y216535D01*
X115945Y268504D02*
X454528D01*
X115945D02*
X454528D01*
Y217323D02*
Y268504D01*
Y217323D02*
Y268504D01*
X115945Y217323D02*
Y268504D01*
Y217323D02*
Y268504D01*
X115945Y165354D02*
X454528D01*
X115945D02*
X454528D01*
Y216535D01*
Y165354D02*
Y216535D01*
X115945Y165354D02*
Y216535D01*
Y165354D02*
Y216535D01*
X115945Y164567D02*
X454528D01*
X115945D02*
X454528D01*
X115945Y113386D02*
X454528D01*
X115945D02*
X454528D01*
Y164567D01*
Y113386D02*
Y164567D01*
X115945Y113386D02*
Y164567D01*
Y113386D02*
Y164567D01*
Y60630D02*
X454528D01*
X115945D02*
X454528D01*
X115945Y9449D02*
X454528D01*
X115945D02*
X454528D01*
Y60630D01*
Y9449D02*
Y60630D01*
X115945Y9449D02*
Y60630D01*
Y9449D02*
Y60630D01*
X115945Y9449D02*
X454528D01*
X115945Y60630D02*
X454528D01*
Y9449D02*
Y60630D01*
X115945Y9449D02*
Y60630D01*
Y61417D02*
X454528D01*
X115945Y112598D02*
X454528D01*
Y61417D02*
Y112598D01*
X115945Y61417D02*
Y112598D01*
Y113386D02*
X454528D01*
X115945Y164567D02*
X454528D01*
Y113386D02*
Y164567D01*
X115945Y113386D02*
Y164567D01*
Y165354D02*
X454528D01*
Y216535D01*
X115945Y164567D02*
X454528D01*
X115945Y112598D02*
X454528D01*
X115945Y113386D02*
X454528D01*
X115945Y61417D02*
X454528D01*
Y112598D01*
X115945Y61417D02*
Y112598D01*
X454528Y113386D02*
Y164567D01*
X115945Y113386D02*
Y164567D01*
X454528Y165354D02*
Y216535D01*
X115945Y268504D02*
X454528D01*
Y217323D02*
Y268504D01*
X115945Y217323D02*
Y268504D01*
X115945Y165354D02*
X454528D01*
Y216535D01*
X115945Y165354D02*
Y216535D01*
X115945Y113386D02*
X454528D01*
X115945Y164567D02*
X454528D01*
Y113386D02*
Y164567D01*
X115945Y113386D02*
Y164567D01*
Y61417D02*
X454528D01*
X115945Y112598D02*
X454528D01*
Y61417D02*
Y112598D01*
X115945Y61417D02*
Y112598D01*
Y268504D02*
X454528D01*
X115945Y217323D02*
X454528D01*
Y268504D01*
X115945Y217323D02*
Y268504D01*
X115945Y165354D02*
X454528D01*
Y216535D01*
X115945Y165354D02*
Y216535D01*
X115945Y164567D02*
X454528D01*
X115945Y113386D02*
X454528D01*
Y164567D01*
X115945Y113386D02*
Y164567D01*
Y112598D02*
X454528D01*
X115945Y61417D02*
X454528D01*
Y112598D01*
X115945Y61417D02*
Y112598D01*
Y60630D02*
X454528D01*
X115945Y9449D02*
X454528D01*
Y60630D01*
X115945Y9449D02*
Y60630D01*
X149016Y224213D02*
X149409D01*
X149016Y219882D02*
X149409D01*
X191142Y224213D02*
X191535D01*
X191142Y219882D02*
X191535D01*
X233268Y224213D02*
X233661D01*
X233268Y219882D02*
X233661D01*
X275394Y224213D02*
X275787D01*
X275394Y219882D02*
X275787D01*
X317520Y224213D02*
X317913D01*
X317520Y219882D02*
X317913D01*
X359646Y224213D02*
X360039D01*
X359646Y219882D02*
X360039D01*
X401772Y224213D02*
X402165D01*
X401772Y219882D02*
X402165D01*
X443898Y224213D02*
X444291D01*
X443898Y219882D02*
X444291D01*
X138386Y265945D02*
X138779D01*
X138386Y261614D02*
X138779D01*
X180512Y265945D02*
X180905D01*
X180512Y261614D02*
X180905D01*
X222638Y265945D02*
X223031D01*
X222638Y261614D02*
X223031D01*
X264764Y265945D02*
X265158D01*
X264764Y261614D02*
X265158D01*
X306890Y265945D02*
X307283D01*
X306890Y261614D02*
X307283D01*
X349016Y265945D02*
X349409D01*
X349016Y261614D02*
X349409D01*
X391142Y265945D02*
X391535D01*
X391142Y261614D02*
X391535D01*
X433268Y265945D02*
X433661D01*
X433268Y261614D02*
X433661D01*
X149016Y172244D02*
X149409D01*
X149016Y167913D02*
X149409D01*
X191142Y172244D02*
X191535D01*
X191142Y167913D02*
X191535D01*
X233268Y172244D02*
X233661D01*
X233268Y167913D02*
X233661D01*
X275394Y172244D02*
X275787D01*
X275394Y167913D02*
X275787D01*
X317520Y172244D02*
X317913D01*
X317520Y167913D02*
X317913D01*
X359646Y172244D02*
X360039D01*
X359646Y167913D02*
X360039D01*
X401772Y172244D02*
X402165D01*
X401772Y167913D02*
X402165D01*
X443898Y172244D02*
X444291D01*
X443898Y167913D02*
X444291D01*
X138386Y213976D02*
X138779D01*
X138386Y209646D02*
X138779D01*
X180512Y213976D02*
X180905D01*
X180512Y209646D02*
X180905D01*
X222638Y213976D02*
X223031D01*
X222638Y209646D02*
X223031D01*
X264764Y213976D02*
X265158D01*
X264764Y209646D02*
X265158D01*
X306890Y213976D02*
X307283D01*
X306890Y209646D02*
X307283D01*
X349016Y213976D02*
X349409D01*
X349016Y209646D02*
X349409D01*
X391142Y213976D02*
X391535D01*
X391142Y209646D02*
X391535D01*
X433268Y213976D02*
X433661D01*
X433268Y209646D02*
X433661D01*
X149016Y120276D02*
X149409D01*
X149016Y115945D02*
X149409D01*
X191142Y120276D02*
X191535D01*
X191142Y115945D02*
X191535D01*
X233268Y120276D02*
X233661D01*
X233268Y115945D02*
X233661D01*
X275394Y120276D02*
X275787D01*
X275394Y115945D02*
X275787D01*
X317520Y120276D02*
X317913D01*
X317520Y115945D02*
X317913D01*
X359646Y120276D02*
X360039D01*
X359646Y115945D02*
X360039D01*
X401772Y120276D02*
X402165D01*
X401772Y115945D02*
X402165D01*
X443898Y120276D02*
X444291D01*
X443898Y115945D02*
X444291D01*
X138386Y162008D02*
X138779D01*
X138386Y157677D02*
X138779D01*
X180512Y162008D02*
X180905D01*
X180512Y157677D02*
X180905D01*
X222638Y162008D02*
X223031D01*
X222638Y157677D02*
X223031D01*
X264764Y162008D02*
X265158D01*
X264764Y157677D02*
X265158D01*
X306890Y162008D02*
X307283D01*
X306890Y157677D02*
X307283D01*
X349016Y162008D02*
X349409D01*
X349016Y157677D02*
X349409D01*
X391142Y162008D02*
X391535D01*
X391142Y157677D02*
X391535D01*
X433268Y162008D02*
X433661D01*
X433268Y157677D02*
X433661D01*
X149016Y68307D02*
X149409D01*
X149016Y63976D02*
X149409D01*
X191142Y68307D02*
X191535D01*
X191142Y63976D02*
X191535D01*
X233268Y68307D02*
X233661D01*
X233268Y63976D02*
X233661D01*
X275394Y68307D02*
X275787D01*
X275394Y63976D02*
X275787D01*
X317520Y68307D02*
X317913D01*
X317520Y63976D02*
X317913D01*
X359646Y68307D02*
X360039D01*
X359646Y63976D02*
X360039D01*
X401772Y68307D02*
X402165D01*
X401772Y63976D02*
X402165D01*
X443898Y68307D02*
X444291D01*
X443898Y63976D02*
X444291D01*
X138386Y110039D02*
X138779D01*
X138386Y105709D02*
X138779D01*
X180512Y110039D02*
X180905D01*
X180512Y105709D02*
X180905D01*
X222638Y110039D02*
X223031D01*
X222638Y105709D02*
X223031D01*
X264764Y110039D02*
X265158D01*
X264764Y105709D02*
X265158D01*
X306890Y110039D02*
X307283D01*
X306890Y105709D02*
X307283D01*
X349016Y110039D02*
X349409D01*
X349016Y105709D02*
X349409D01*
X391142Y110039D02*
X391535D01*
X391142Y105709D02*
X391535D01*
X433268Y110039D02*
X433661D01*
X433268Y105709D02*
X433661D01*
X149016Y16339D02*
X149409D01*
X149016Y12008D02*
X149409D01*
X191142Y16339D02*
X191535D01*
X191142Y12008D02*
X191535D01*
X233268Y16339D02*
X233661D01*
X233268Y12008D02*
X233661D01*
X275394Y16339D02*
X275787D01*
X275394Y12008D02*
X275787D01*
X317520Y16339D02*
X317913D01*
X317520Y12008D02*
X317913D01*
X359646Y16339D02*
X360039D01*
X359646Y12008D02*
X360039D01*
X401772Y16339D02*
X402165D01*
X401772Y12008D02*
X402165D01*
X443898Y16339D02*
X444291D01*
X443898Y12008D02*
X444291D01*
X138386Y58071D02*
X138779D01*
X138386Y53740D02*
X138779D01*
X180512Y58071D02*
X180905D01*
X180512Y53740D02*
X180905D01*
X222638Y58071D02*
X223031D01*
X222638Y53740D02*
X223031D01*
X264764Y58071D02*
X265158D01*
X264764Y53740D02*
X265158D01*
X306890Y58071D02*
X307283D01*
X306890Y53740D02*
X307283D01*
X349016Y58071D02*
X349409D01*
X349016Y53740D02*
X349409D01*
X391142Y58071D02*
X391535D01*
X391142Y53740D02*
X391535D01*
X433268Y58071D02*
X433661D01*
X433268Y53740D02*
X433661D01*
X93110Y56693D02*
Y59350D01*
X95768D01*
X107776D02*
X110433D01*
Y56693D02*
Y59350D01*
Y42028D02*
Y44685D01*
X107776Y42028D02*
X110433D01*
X93110D02*
Y44685D01*
Y42028D02*
X95768D01*
X58268Y96850D02*
Y99410D01*
X60827Y99410D01*
X58268Y74606D02*
X58268Y77165D01*
X58268Y74606D02*
X60827Y74606D01*
X80512Y74606D02*
X83071D01*
X83071Y77165D02*
X83071Y74606D01*
Y96850D02*
Y99410D01*
X80512D02*
X83071D01*
X93110Y108671D02*
Y111328D01*
X95768D01*
X107776D02*
X110433D01*
Y108671D02*
Y111328D01*
Y94005D02*
Y96663D01*
X107776Y94005D02*
X110433D01*
X93110D02*
Y96663D01*
Y94005D02*
X95768D01*
X93110Y160604D02*
Y163261D01*
X95768D01*
X107776D02*
X110433D01*
Y160604D02*
Y163261D01*
Y145938D02*
Y148596D01*
X107776Y145938D02*
X110433D01*
X93110D02*
Y148596D01*
Y145938D02*
X95768D01*
X58268Y200787D02*
Y203346D01*
X60827Y203346D01*
X58268Y178543D02*
X58268Y181102D01*
X58268Y178543D02*
X60827Y178543D01*
X80512D02*
X83071Y178543D01*
Y181102D01*
Y203346D02*
X83071Y200787D01*
X80512Y203346D02*
X83071Y203346D01*
X93110Y212579D02*
Y215236D01*
X95768D01*
X107776D02*
X110433D01*
Y212579D02*
Y215236D01*
Y197913D02*
Y200571D01*
X107776Y197913D02*
X110433D01*
X93110D02*
Y200571D01*
Y197913D02*
X95768D01*
X93110Y264506D02*
Y267163D01*
X95768D01*
X107776D02*
X110433D01*
Y264506D02*
Y267163D01*
Y249840D02*
Y252498D01*
X107776Y249840D02*
X110433D01*
X93110D02*
Y252498D01*
Y249840D02*
X95768D01*
X58268Y252756D02*
Y255315D01*
X60827Y255315D01*
X58268Y230512D02*
X58268Y233071D01*
X58268Y230512D02*
X60827Y230512D01*
X80512Y230512D02*
X83071D01*
Y233071D01*
X83071Y255315D02*
X83071Y252756D01*
X80512Y255315D02*
X83071Y255315D01*
X93146Y237848D02*
Y240505D01*
X95803D01*
X107811D02*
X110468D01*
Y237848D02*
Y240505D01*
Y223182D02*
Y225840D01*
X107811Y223182D02*
X110468D01*
X93146D02*
Y225840D01*
Y223182D02*
X95803D01*
X93146Y185879D02*
Y188537D01*
X95803D01*
X107811D02*
X110468D01*
Y185879D02*
Y188537D01*
Y171214D02*
Y173871D01*
X107811Y171214D02*
X110468D01*
X93146D02*
Y173871D01*
Y171214D02*
X95803D01*
X58268Y148819D02*
Y151378D01*
X60827Y151378D01*
X58268Y126575D02*
X58268Y129134D01*
X58268Y126575D02*
X60827Y126575D01*
X80512Y126575D02*
X83071D01*
X83071Y129134D02*
X83071Y126575D01*
Y148819D02*
Y151378D01*
X80512D02*
X83071D01*
X482992Y123898D02*
X502992D01*
Y23898D02*
Y31398D01*
X482992Y23898D02*
X502992D01*
X482992D02*
Y31398D01*
X482992Y123898D01*
X502992Y31398D02*
Y123898D01*
X1102Y134213D02*
X11102D01*
X1102D02*
Y174213D01*
X11102Y134213D02*
Y174213D01*
X1102D02*
X11102D01*
X1102Y175709D02*
X11102D01*
X1102D02*
Y215709D01*
X11102Y175709D02*
Y215709D01*
X1102D02*
X11102D01*
X93146Y133911D02*
Y136568D01*
X95803D01*
X107811D02*
X110468Y136568D01*
X110468Y133911D01*
X110468Y119245D02*
X110468Y121903D01*
X107811Y119245D02*
X110468Y119245D01*
X93146Y119245D02*
Y121903D01*
Y119245D02*
X95803D01*
X93146Y81942D02*
Y84600D01*
X95803D01*
X107811D02*
X110468D01*
Y81942D02*
Y84600D01*
Y67277D02*
Y69934D01*
X107811Y67277D02*
X110468D01*
X93146D02*
Y69934D01*
Y67277D02*
X95803D01*
X58268Y44882D02*
Y47441D01*
X60827D01*
X58268Y22638D02*
Y25197D01*
Y22638D02*
X60827Y22638D01*
X80512Y22638D02*
X83071D01*
Y25197D01*
Y44882D02*
X83071Y47441D01*
X80512D02*
X83071D01*
X18307Y157677D02*
X18307Y154134D01*
X30906Y157677D02*
X30906Y154134D01*
X18307Y154134D02*
X30906Y154134D01*
X18307Y157677D02*
X30906D01*
X93110Y30020D02*
X93110Y32677D01*
X95768Y32677D01*
X107776D02*
X110433Y32677D01*
X110433Y30020D01*
Y15354D02*
Y18012D01*
X107776Y15354D02*
X110433D01*
X93110Y18012D02*
X93110Y15354D01*
X95768Y15354D01*
X39962Y185433D02*
Y189369D01*
X37994Y187401D02*
X41929D01*
X39765Y214961D02*
Y218896D01*
X37797Y216929D02*
X41733D01*
D11*
X40551Y105512D02*
G03*
X40551Y105512I-492J0D01*
G01*
X91043Y58760D02*
G03*
X91043Y58760I-492J0D01*
G01*
X82972Y101969D02*
G03*
X82972Y101969I-492J0D01*
G01*
X91043Y110738D02*
G03*
X91043Y110738I-492J0D01*
G01*
Y162671D02*
G03*
X91043Y162671I-492J0D01*
G01*
X82972Y205906D02*
G03*
X82972Y205906I-492J0D01*
G01*
X91043Y214646D02*
G03*
X91043Y214646I-492J0D01*
G01*
X91043Y266573D02*
G03*
X91043Y266573I-492J0D01*
G01*
X82972Y257874D02*
G03*
X82972Y257874I-492J0D01*
G01*
X91079Y239914D02*
G03*
X91079Y239914I-492J0D01*
G01*
Y187946D02*
G03*
X91079Y187946I-492J0D01*
G01*
X82973Y153937D02*
G03*
X82973Y153937I-492J0D01*
G01*
X91079Y135977D02*
G03*
X91079Y135977I-492J0D01*
G01*
Y84009D02*
G03*
X91079Y84009I-492J0D01*
G01*
X82972Y50000D02*
G03*
X82972Y50000I-492J0D01*
G01*
X32087Y160827D02*
G03*
X32087Y160827I-492J0D01*
G01*
X91043Y32087D02*
G03*
X91043Y32087I-492J0D01*
G01*
D12*
X117913Y231102D02*
X120276D01*
X125000D02*
X132874D01*
X137598D02*
X141535D01*
X146260D02*
X150197D01*
X154921D02*
X157283D01*
X154921Y254724D02*
X157283D01*
X146260D02*
X150197D01*
X137598D02*
X141535D01*
X125000D02*
X132874D01*
X117913D02*
X120276D01*
X157283Y231102D02*
Y254724D01*
X135236Y244882D02*
Y250787D01*
Y244882D02*
X141535D01*
X143898Y248425D02*
Y250787D01*
X142267Y244512D02*
X143898Y248425D01*
X152165Y244882D02*
Y250787D01*
X145472Y244882D02*
X152165D01*
X145472Y240945D02*
X152165D01*
Y235039D02*
Y240945D01*
X142267Y241315D02*
X143898Y237402D01*
Y235039D02*
Y237402D01*
X135236Y240945D02*
X141535D01*
X135236Y235039D02*
Y240945D01*
X122638Y248819D02*
Y250787D01*
X121457Y236221D02*
X123819D01*
X122638Y235039D02*
Y237402D01*
X117913Y231102D02*
Y254724D01*
X160039Y231102D02*
X162402D01*
X167126D02*
X175000D01*
X179724D02*
X183661D01*
X188386D02*
X192323D01*
X197047D02*
X199409D01*
X197047Y254724D02*
X199409D01*
X188386D02*
X192323D01*
X179724D02*
X183661D01*
X167126D02*
X175000D01*
X160039D02*
X162402D01*
X199409Y231102D02*
Y254724D01*
X177362Y244882D02*
Y250787D01*
Y244882D02*
X183661D01*
X186024Y248425D02*
Y250787D01*
X184393Y244512D02*
X186024Y248425D01*
X194291Y244882D02*
Y250787D01*
X187598Y244882D02*
X194291D01*
X187598Y240945D02*
X194291D01*
Y235039D02*
Y240945D01*
X184393Y241315D02*
X186024Y237402D01*
Y235039D02*
Y237402D01*
X177362Y240945D02*
X183661D01*
X177362Y235039D02*
Y240945D01*
X164764Y248819D02*
Y250787D01*
X163583Y236221D02*
X165945D01*
X164764Y235039D02*
Y237402D01*
X160039Y231102D02*
Y254724D01*
X202165Y231102D02*
X204527D01*
X209252D02*
X217126D01*
X221850D02*
X225787D01*
X230512D02*
X234449D01*
X239173D02*
X241535D01*
X239173Y254724D02*
X241535D01*
X230512D02*
X234449D01*
X221850D02*
X225787D01*
X209252D02*
X217126D01*
X202165D02*
X204527D01*
X241535Y231102D02*
Y254724D01*
X219488Y244882D02*
Y250787D01*
Y244882D02*
X225787D01*
X228150Y248425D02*
Y250787D01*
X226519Y244512D02*
X228150Y248425D01*
X236417Y244882D02*
Y250787D01*
X229724Y244882D02*
X236417D01*
X229724Y240945D02*
X236417D01*
Y235039D02*
Y240945D01*
X226519Y241315D02*
X228150Y237402D01*
Y235039D02*
Y237402D01*
X219488Y240945D02*
X225787D01*
X219488Y235039D02*
Y240945D01*
X206890Y248819D02*
Y250787D01*
X205709Y236221D02*
X208071D01*
X206890Y235039D02*
Y237402D01*
X202165Y231102D02*
Y254724D01*
X244291Y231102D02*
X246654D01*
X251378D02*
X259252D01*
X263976D02*
X267913D01*
X272638D02*
X276575D01*
X281299D02*
X283661D01*
X281299Y254724D02*
X283661D01*
X272638D02*
X276575D01*
X263976D02*
X267913D01*
X251378D02*
X259252D01*
X244291D02*
X246654D01*
X283661Y231102D02*
Y254724D01*
X261614Y244882D02*
Y250787D01*
Y244882D02*
X267913D01*
X270276Y248425D02*
Y250787D01*
X268645Y244512D02*
X270276Y248425D01*
X278543Y244882D02*
Y250787D01*
X271850Y244882D02*
X278543D01*
X271850Y240945D02*
X278543D01*
Y235039D02*
Y240945D01*
X268645Y241315D02*
X270276Y237402D01*
Y235039D02*
Y237402D01*
X261614Y240945D02*
X267913D01*
X261614Y235039D02*
Y240945D01*
X249016Y248819D02*
Y250787D01*
X247835Y236221D02*
X250197D01*
X249016Y235039D02*
Y237402D01*
X244291Y231102D02*
Y254724D01*
X286417Y231102D02*
X288779D01*
X293504D02*
X301378D01*
X306102D02*
X310039D01*
X314764D02*
X318701D01*
X323425D02*
X325787D01*
X323425Y254724D02*
X325787D01*
X314764D02*
X318701D01*
X306102D02*
X310039D01*
X293504D02*
X301378D01*
X286417D02*
X288779D01*
X325787Y231102D02*
Y254724D01*
X303740Y244882D02*
Y250787D01*
Y244882D02*
X310039D01*
X312402Y248425D02*
Y250787D01*
X310771Y244512D02*
X312402Y248425D01*
X320669Y244882D02*
Y250787D01*
X313976Y244882D02*
X320669D01*
X313976Y240945D02*
X320669D01*
Y235039D02*
Y240945D01*
X310771Y241315D02*
X312402Y237402D01*
Y235039D02*
Y237402D01*
X303740Y240945D02*
X310039D01*
X303740Y235039D02*
Y240945D01*
X291142Y248819D02*
Y250787D01*
X289961Y236221D02*
X292323D01*
X291142Y235039D02*
Y237402D01*
X286417Y231102D02*
Y254724D01*
X328543Y231102D02*
X330906D01*
X335630D02*
X343504D01*
X348228D02*
X352165D01*
X356890D02*
X360827D01*
X365551D02*
X367913D01*
X365551Y254724D02*
X367913D01*
X356890D02*
X360827D01*
X348228D02*
X352165D01*
X335630D02*
X343504D01*
X328543D02*
X330906D01*
X367913Y231102D02*
Y254724D01*
X345866Y244882D02*
Y250787D01*
Y244882D02*
X352165D01*
X354528Y248425D02*
Y250787D01*
X352897Y244512D02*
X354528Y248425D01*
X362795Y244882D02*
Y250787D01*
X356102Y244882D02*
X362795D01*
X356102Y240945D02*
X362795D01*
Y235039D02*
Y240945D01*
X352897Y241315D02*
X354528Y237402D01*
Y235039D02*
Y237402D01*
X345866Y240945D02*
X352165D01*
X345866Y235039D02*
Y240945D01*
X333268Y248819D02*
Y250787D01*
X332087Y236221D02*
X334449D01*
X333268Y235039D02*
Y237402D01*
X328543Y231102D02*
Y254724D01*
X370669Y231102D02*
X373031D01*
X377756D02*
X385630D01*
X390354D02*
X394291D01*
X399016D02*
X402953D01*
X407677D02*
X410039D01*
X407677Y254724D02*
X410039D01*
X399016D02*
X402953D01*
X390354D02*
X394291D01*
X377756D02*
X385630D01*
X370669D02*
X373031D01*
X410039Y231102D02*
Y254724D01*
X387992Y244882D02*
Y250787D01*
Y244882D02*
X394291D01*
X396654Y248425D02*
Y250787D01*
X395023Y244512D02*
X396654Y248425D01*
X404921Y244882D02*
Y250787D01*
X398228Y244882D02*
X404921D01*
X398228Y240945D02*
X404921D01*
Y235039D02*
Y240945D01*
X395023Y241315D02*
X396654Y237402D01*
Y235039D02*
Y237402D01*
X387992Y240945D02*
X394291D01*
X387992Y235039D02*
Y240945D01*
X375394Y248819D02*
Y250787D01*
X374213Y236220D02*
X376575D01*
X375394Y235039D02*
Y237402D01*
X370669Y231102D02*
Y254724D01*
X412795Y231102D02*
X415158D01*
X419882D02*
X427756D01*
X432480D02*
X436417D01*
X441142D02*
X445079D01*
X449803D02*
X452165D01*
X449803Y254724D02*
X452165D01*
X441142D02*
X445079D01*
X432480D02*
X436417D01*
X419882D02*
X427756D01*
X412795D02*
X415158D01*
X452165Y231102D02*
Y254724D01*
X430118Y244882D02*
Y250787D01*
Y244882D02*
X436417D01*
X438779Y248425D02*
Y250787D01*
X437149Y244512D02*
X438779Y248425D01*
X447047Y244882D02*
Y250787D01*
X440354Y244882D02*
X447047D01*
X440354Y240945D02*
X447047D01*
Y235039D02*
Y240945D01*
X437149Y241315D02*
X438779Y237402D01*
Y235039D02*
Y237402D01*
X430118Y240945D02*
X436417D01*
X430118Y235039D02*
Y240945D01*
X417520Y248819D02*
Y250787D01*
X416339Y236220D02*
X418701D01*
X417520Y235039D02*
Y237402D01*
X412795Y231102D02*
Y254724D01*
X117913Y179134D02*
X120276D01*
X125000D02*
X132874D01*
X137598D02*
X141535D01*
X146260D02*
X150197D01*
X154921D02*
X157283D01*
X154921Y202756D02*
X157283D01*
X146260D02*
X150197D01*
X137598D02*
X141535D01*
X125000D02*
X132874D01*
X117913D02*
X120276D01*
X157283Y179134D02*
Y202756D01*
X135236Y192913D02*
Y198819D01*
Y192913D02*
X141535D01*
X143898Y196457D02*
Y198819D01*
X142267Y192543D02*
X143898Y196457D01*
X152165Y192913D02*
Y198819D01*
X145472Y192913D02*
X152165D01*
X145472Y188976D02*
X152165D01*
Y183071D02*
Y188976D01*
X142267Y189347D02*
X143898Y185433D01*
Y183071D02*
Y185433D01*
X135236Y188976D02*
X141535D01*
X135236Y183071D02*
Y188976D01*
X122638Y196850D02*
Y198819D01*
X121457Y184252D02*
X123819D01*
X122638Y183071D02*
Y185433D01*
X117913Y179134D02*
Y202756D01*
X160039Y179134D02*
X162402D01*
X167126D02*
X175000D01*
X179724D02*
X183661D01*
X188386D02*
X192323D01*
X197047D02*
X199409D01*
X197047Y202756D02*
X199409D01*
X188386D02*
X192323D01*
X179724D02*
X183661D01*
X167126D02*
X175000D01*
X160039D02*
X162402D01*
X199409Y179134D02*
Y202756D01*
X177362Y192913D02*
Y198819D01*
Y192913D02*
X183661D01*
X186024Y196457D02*
Y198819D01*
X184393Y192543D02*
X186024Y196457D01*
X194291Y192913D02*
Y198819D01*
X187598Y192913D02*
X194291D01*
X187598Y188976D02*
X194291D01*
Y183071D02*
Y188976D01*
X184393Y189347D02*
X186024Y185433D01*
Y183071D02*
Y185433D01*
X177362Y188976D02*
X183661D01*
X177362Y183071D02*
Y188976D01*
X164764Y196850D02*
Y198819D01*
X163583Y184252D02*
X165945D01*
X164764Y183071D02*
Y185433D01*
X160039Y179134D02*
Y202756D01*
X202165Y179134D02*
X204527D01*
X209252D02*
X217126D01*
X221850D02*
X225787D01*
X230512D02*
X234449D01*
X239173D02*
X241535D01*
X239173Y202756D02*
X241535D01*
X230512D02*
X234449D01*
X221850D02*
X225787D01*
X209252D02*
X217126D01*
X202165D02*
X204527D01*
X241535Y179134D02*
Y202756D01*
X219488Y192913D02*
Y198819D01*
Y192913D02*
X225787D01*
X228150Y196457D02*
Y198819D01*
X226519Y192543D02*
X228150Y196457D01*
X236417Y192913D02*
Y198819D01*
X229724Y192913D02*
X236417D01*
X229724Y188976D02*
X236417D01*
Y183071D02*
Y188976D01*
X226519Y189347D02*
X228150Y185433D01*
Y183071D02*
Y185433D01*
X219488Y188976D02*
X225787D01*
X219488Y183071D02*
Y188976D01*
X206890Y196850D02*
Y198819D01*
X205709Y184252D02*
X208071D01*
X206890Y183071D02*
Y185433D01*
X202165Y179134D02*
Y202756D01*
X244291Y179134D02*
X246654D01*
X251378D02*
X259252D01*
X263976D02*
X267913D01*
X272638D02*
X276575D01*
X281299D02*
X283661D01*
X281299Y202756D02*
X283661D01*
X272638D02*
X276575D01*
X263976D02*
X267913D01*
X251378D02*
X259252D01*
X244291D02*
X246654D01*
X283661Y179134D02*
Y202756D01*
X261614Y192913D02*
Y198819D01*
Y192913D02*
X267913D01*
X270276Y196457D02*
Y198819D01*
X268645Y192543D02*
X270276Y196457D01*
X278543Y192913D02*
Y198819D01*
X271850Y192913D02*
X278543D01*
X271850Y188976D02*
X278543D01*
Y183071D02*
Y188976D01*
X268645Y189347D02*
X270276Y185433D01*
Y183071D02*
Y185433D01*
X261614Y188976D02*
X267913D01*
X261614Y183071D02*
Y188976D01*
X249016Y196850D02*
Y198819D01*
X247835Y184252D02*
X250197D01*
X249016Y183071D02*
Y185433D01*
X244291Y179134D02*
Y202756D01*
X286417Y179134D02*
X288779D01*
X293504D02*
X301378D01*
X306102D02*
X310039D01*
X314764D02*
X318701D01*
X323425D02*
X325787D01*
X323425Y202756D02*
X325787D01*
X314764D02*
X318701D01*
X306102D02*
X310039D01*
X293504D02*
X301378D01*
X286417D02*
X288779D01*
X325787Y179134D02*
Y202756D01*
X303740Y192913D02*
Y198819D01*
Y192913D02*
X310039D01*
X312402Y196457D02*
Y198819D01*
X310771Y192543D02*
X312402Y196457D01*
X320669Y192913D02*
Y198819D01*
X313976Y192913D02*
X320669D01*
X313976Y188976D02*
X320669D01*
Y183071D02*
Y188976D01*
X310771Y189347D02*
X312402Y185433D01*
Y183071D02*
Y185433D01*
X303740Y188976D02*
X310039D01*
X303740Y183071D02*
Y188976D01*
X291142Y196850D02*
Y198819D01*
X289961Y184252D02*
X292323D01*
X291142Y183071D02*
Y185433D01*
X286417Y179134D02*
Y202756D01*
X328543Y179134D02*
X330906D01*
X335630D02*
X343504D01*
X348228D02*
X352165D01*
X356890D02*
X360827D01*
X365551D02*
X367913D01*
X365551Y202756D02*
X367913D01*
X356890D02*
X360827D01*
X348228D02*
X352165D01*
X335630D02*
X343504D01*
X328543D02*
X330906D01*
X367913Y179134D02*
Y202756D01*
X345866Y192913D02*
Y198819D01*
Y192913D02*
X352165D01*
X354528Y196457D02*
Y198819D01*
X352897Y192543D02*
X354528Y196457D01*
X362795Y192913D02*
Y198819D01*
X356102Y192913D02*
X362795D01*
X356102Y188976D02*
X362795D01*
Y183071D02*
Y188976D01*
X352897Y189347D02*
X354528Y185433D01*
Y183071D02*
Y185433D01*
X345866Y188976D02*
X352165D01*
X345866Y183071D02*
Y188976D01*
X333268Y196850D02*
Y198819D01*
X332087Y184252D02*
X334449D01*
X333268Y183071D02*
Y185433D01*
X328543Y179134D02*
Y202756D01*
X370669Y179134D02*
X373031D01*
X377756D02*
X385630D01*
X390354D02*
X394291D01*
X399016D02*
X402953D01*
X407677D02*
X410039D01*
X407677Y202756D02*
X410039D01*
X399016D02*
X402953D01*
X390354D02*
X394291D01*
X377756D02*
X385630D01*
X370669D02*
X373031D01*
X410039Y179134D02*
Y202756D01*
X387992Y192913D02*
Y198819D01*
Y192913D02*
X394291D01*
X396654Y196457D02*
Y198819D01*
X395023Y192543D02*
X396654Y196457D01*
X404921Y192913D02*
Y198819D01*
X398228Y192913D02*
X404921D01*
X398228Y188976D02*
X404921D01*
Y183071D02*
Y188976D01*
X395023Y189347D02*
X396654Y185433D01*
Y183071D02*
Y185433D01*
X387992Y188976D02*
X394291D01*
X387992Y183071D02*
Y188976D01*
X375394Y196850D02*
Y198819D01*
X374213Y184252D02*
X376575D01*
X375394Y183071D02*
Y185433D01*
X370669Y179134D02*
Y202756D01*
X412795Y179134D02*
X415158D01*
X419882D02*
X427756D01*
X432480D02*
X436417D01*
X441142D02*
X445079D01*
X449803D02*
X452165D01*
X449803Y202756D02*
X452165D01*
X441142D02*
X445079D01*
X432480D02*
X436417D01*
X419882D02*
X427756D01*
X412795D02*
X415158D01*
X452165Y179134D02*
Y202756D01*
X430118Y192913D02*
Y198819D01*
Y192913D02*
X436417D01*
X438779Y196457D02*
Y198819D01*
X437149Y192543D02*
X438779Y196457D01*
X447047Y192913D02*
Y198819D01*
X440354Y192913D02*
X447047D01*
X440354Y188976D02*
X447047D01*
Y183071D02*
Y188976D01*
X437149Y189347D02*
X438779Y185433D01*
Y183071D02*
Y185433D01*
X430118Y188976D02*
X436417D01*
X430118Y183071D02*
Y188976D01*
X417520Y196850D02*
Y198819D01*
X416339Y184252D02*
X418701D01*
X417520Y183071D02*
Y185433D01*
X412795Y179134D02*
Y202756D01*
X117913Y127165D02*
X120276D01*
X125000D02*
X132874D01*
X137598D02*
X141535D01*
X146260D02*
X150197D01*
X154921D02*
X157283D01*
X154921Y150787D02*
X157283D01*
X146260D02*
X150197D01*
X137598D02*
X141535D01*
X125000D02*
X132874D01*
X117913D02*
X120276D01*
X157283Y127165D02*
Y150787D01*
X135236Y140945D02*
Y146850D01*
Y140945D02*
X141535D01*
X143898Y144488D02*
Y146850D01*
X142267Y140575D02*
X143898Y144488D01*
X152165Y140945D02*
Y146850D01*
X145472Y140945D02*
X152165D01*
X145472Y137008D02*
X152165D01*
Y131102D02*
Y137008D01*
X142267Y137378D02*
X143898Y133465D01*
Y131102D02*
Y133465D01*
X135236Y137008D02*
X141535D01*
X135236Y131102D02*
Y137008D01*
X122638Y144882D02*
Y146850D01*
X121457Y132283D02*
X123819D01*
X122638Y131102D02*
Y133465D01*
X117913Y127165D02*
Y150787D01*
X160039Y127165D02*
X162402D01*
X167126D02*
X175000D01*
X179724D02*
X183661D01*
X188386D02*
X192323D01*
X197047D02*
X199409D01*
X197047Y150787D02*
X199409D01*
X188386D02*
X192323D01*
X179724D02*
X183661D01*
X167126D02*
X175000D01*
X160039D02*
X162402D01*
X199409Y127165D02*
Y150787D01*
X177362Y140945D02*
Y146850D01*
Y140945D02*
X183661D01*
X186024Y144488D02*
Y146850D01*
X184393Y140575D02*
X186024Y144488D01*
X194291Y140945D02*
Y146850D01*
X187598Y140945D02*
X194291D01*
X187598Y137008D02*
X194291D01*
Y131102D02*
Y137008D01*
X184393Y137378D02*
X186024Y133465D01*
Y131102D02*
Y133465D01*
X177362Y137008D02*
X183661D01*
X177362Y131102D02*
Y137008D01*
X164764Y144882D02*
Y146850D01*
X163583Y132283D02*
X165945D01*
X164764Y131102D02*
Y133465D01*
X160039Y127165D02*
Y150787D01*
X202165Y127165D02*
X204527D01*
X209252D02*
X217126D01*
X221850D02*
X225787D01*
X230512D02*
X234449D01*
X239173D02*
X241535D01*
X239173Y150787D02*
X241535D01*
X230512D02*
X234449D01*
X221850D02*
X225787D01*
X209252D02*
X217126D01*
X202165D02*
X204527D01*
X241535Y127165D02*
Y150787D01*
X219488Y140945D02*
Y146850D01*
Y140945D02*
X225787D01*
X228150Y144488D02*
Y146850D01*
X226519Y140575D02*
X228150Y144488D01*
X236417Y140945D02*
Y146850D01*
X229724Y140945D02*
X236417D01*
X229724Y137008D02*
X236417D01*
Y131102D02*
Y137008D01*
X226519Y137378D02*
X228150Y133465D01*
Y131102D02*
Y133465D01*
X219488Y137008D02*
X225787D01*
X219488Y131102D02*
Y137008D01*
X206890Y144882D02*
Y146850D01*
X205709Y132283D02*
X208071D01*
X206890Y131102D02*
Y133465D01*
X202165Y127165D02*
Y150787D01*
X244291Y127165D02*
X246654D01*
X251378D02*
X259252D01*
X263976D02*
X267913D01*
X272638D02*
X276575D01*
X281299D02*
X283661D01*
X281299Y150787D02*
X283661D01*
X272638D02*
X276575D01*
X263976D02*
X267913D01*
X251378D02*
X259252D01*
X244291D02*
X246654D01*
X283661Y127165D02*
Y150787D01*
X261614Y140945D02*
Y146850D01*
Y140945D02*
X267913D01*
X270276Y144488D02*
Y146850D01*
X268645Y140575D02*
X270276Y144488D01*
X278543Y140945D02*
Y146850D01*
X271850Y140945D02*
X278543D01*
X271850Y137008D02*
X278543D01*
Y131102D02*
Y137008D01*
X268645Y137378D02*
X270276Y133465D01*
Y131102D02*
Y133465D01*
X261614Y137008D02*
X267913D01*
X261614Y131102D02*
Y137008D01*
X249016Y144882D02*
Y146850D01*
X247835Y132283D02*
X250197D01*
X249016Y131102D02*
Y133465D01*
X244291Y127165D02*
Y150787D01*
X286417Y127165D02*
X288779D01*
X293504D02*
X301378D01*
X306102D02*
X310039D01*
X314764D02*
X318701D01*
X323425D02*
X325787D01*
X323425Y150787D02*
X325787D01*
X314764D02*
X318701D01*
X306102D02*
X310039D01*
X293504D02*
X301378D01*
X286417D02*
X288779D01*
X325787Y127165D02*
Y150787D01*
X303740Y140945D02*
Y146850D01*
Y140945D02*
X310039D01*
X312402Y144488D02*
Y146850D01*
X310771Y140575D02*
X312402Y144488D01*
X320669Y140945D02*
Y146850D01*
X313976Y140945D02*
X320669D01*
X313976Y137008D02*
X320669D01*
Y131102D02*
Y137008D01*
X310771Y137378D02*
X312402Y133465D01*
Y131102D02*
Y133465D01*
X303740Y137008D02*
X310039D01*
X303740Y131102D02*
Y137008D01*
X291142Y144882D02*
Y146850D01*
X289961Y132283D02*
X292323D01*
X291142Y131102D02*
Y133465D01*
X286417Y127165D02*
Y150787D01*
X328543Y127165D02*
X330906D01*
X335630D02*
X343504D01*
X348228D02*
X352165D01*
X356890D02*
X360827D01*
X365551D02*
X367913D01*
X365551Y150787D02*
X367913D01*
X356890D02*
X360827D01*
X348228D02*
X352165D01*
X335630D02*
X343504D01*
X328543D02*
X330906D01*
X367913Y127165D02*
Y150787D01*
X345866Y140945D02*
Y146850D01*
Y140945D02*
X352165D01*
X354528Y144488D02*
Y146850D01*
X352897Y140575D02*
X354528Y144488D01*
X362795Y140945D02*
Y146850D01*
X356102Y140945D02*
X362795D01*
X356102Y137008D02*
X362795D01*
Y131102D02*
Y137008D01*
X352897Y137378D02*
X354528Y133465D01*
Y131102D02*
Y133465D01*
X345866Y137008D02*
X352165D01*
X345866Y131102D02*
Y137008D01*
X333268Y144882D02*
Y146850D01*
X332087Y132283D02*
X334449D01*
X333268Y131102D02*
Y133465D01*
X328543Y127165D02*
Y150787D01*
X370669Y127165D02*
X373031D01*
X377756D02*
X385630D01*
X390354D02*
X394291D01*
X399016D02*
X402953D01*
X407677D02*
X410039D01*
X407677Y150787D02*
X410039D01*
X399016D02*
X402953D01*
X390354D02*
X394291D01*
X377756D02*
X385630D01*
X370669D02*
X373031D01*
X410039Y127165D02*
Y150787D01*
X387992Y140945D02*
Y146850D01*
Y140945D02*
X394291D01*
X396654Y144488D02*
Y146850D01*
X395023Y140575D02*
X396654Y144488D01*
X404921Y140945D02*
Y146850D01*
X398228Y140945D02*
X404921D01*
X398228Y137008D02*
X404921D01*
Y131102D02*
Y137008D01*
X395023Y137378D02*
X396654Y133465D01*
Y131102D02*
Y133465D01*
X387992Y137008D02*
X394291D01*
X387992Y131102D02*
Y137008D01*
X375394Y144882D02*
Y146850D01*
X374213Y132283D02*
X376575D01*
X375394Y131102D02*
Y133465D01*
X370669Y127165D02*
Y150787D01*
X412795Y127165D02*
X415158D01*
X419882D02*
X427756D01*
X432480D02*
X436417D01*
X441142D02*
X445079D01*
X449803D02*
X452165D01*
X449803Y150787D02*
X452165D01*
X441142D02*
X445079D01*
X432480D02*
X436417D01*
X419882D02*
X427756D01*
X412795D02*
X415158D01*
X452165Y127165D02*
Y150787D01*
X430118Y140945D02*
Y146850D01*
Y140945D02*
X436417D01*
X438779Y144488D02*
Y146850D01*
X437149Y140575D02*
X438779Y144488D01*
X447047Y140945D02*
Y146850D01*
X440354Y140945D02*
X447047D01*
X440354Y137008D02*
X447047D01*
Y131102D02*
Y137008D01*
X437149Y137378D02*
X438779Y133465D01*
Y131102D02*
Y133465D01*
X430118Y137008D02*
X436417D01*
X430118Y131102D02*
Y137008D01*
X417520Y144882D02*
Y146850D01*
X416339Y132283D02*
X418701D01*
X417520Y131102D02*
Y133465D01*
X412795Y127165D02*
Y150787D01*
X117913Y75197D02*
X120276D01*
X125000D02*
X132874D01*
X137598D02*
X141535D01*
X146260D02*
X150197D01*
X154921D02*
X157283D01*
X154921Y98819D02*
X157283D01*
X146260D02*
X150197D01*
X137598D02*
X141535D01*
X125000D02*
X132874D01*
X117913D02*
X120276D01*
X157283Y75197D02*
Y98819D01*
X135236Y88976D02*
Y94882D01*
Y88976D02*
X141535D01*
X143898Y92520D02*
Y94882D01*
X142267Y88606D02*
X143898Y92520D01*
X152165Y88976D02*
Y94882D01*
X145472Y88976D02*
X152165D01*
X145472Y85039D02*
X152165D01*
Y79134D02*
Y85039D01*
X142267Y85410D02*
X143898Y81496D01*
Y79134D02*
Y81496D01*
X135236Y85039D02*
X141535D01*
X135236Y79134D02*
Y85039D01*
X122638Y92913D02*
Y94882D01*
X121457Y80315D02*
X123819D01*
X122638Y79134D02*
Y81496D01*
X117913Y75197D02*
Y98819D01*
X160039Y75197D02*
X162402D01*
X167126D02*
X175000D01*
X179724D02*
X183661D01*
X188386D02*
X192323D01*
X197047D02*
X199409D01*
X197047Y98819D02*
X199409D01*
X188386D02*
X192323D01*
X179724D02*
X183661D01*
X167126D02*
X175000D01*
X160039D02*
X162402D01*
X199409Y75197D02*
Y98819D01*
X177362Y88976D02*
Y94882D01*
Y88976D02*
X183661D01*
X186024Y92520D02*
Y94882D01*
X184393Y88606D02*
X186024Y92520D01*
X194291Y88976D02*
Y94882D01*
X187598Y88976D02*
X194291D01*
X187598Y85039D02*
X194291D01*
Y79134D02*
Y85039D01*
X184393Y85410D02*
X186024Y81496D01*
Y79134D02*
Y81496D01*
X177362Y85039D02*
X183661D01*
X177362Y79134D02*
Y85039D01*
X164764Y92913D02*
Y94882D01*
X163583Y80315D02*
X165945D01*
X164764Y79134D02*
Y81496D01*
X160039Y75197D02*
Y98819D01*
X202165Y75197D02*
X204527D01*
X209252D02*
X217126D01*
X221850D02*
X225787D01*
X230512D02*
X234449D01*
X239173D02*
X241535D01*
X239173Y98819D02*
X241535D01*
X230512D02*
X234449D01*
X221850D02*
X225787D01*
X209252D02*
X217126D01*
X202165D02*
X204527D01*
X241535Y75197D02*
Y98819D01*
X219488Y88976D02*
Y94882D01*
Y88976D02*
X225787D01*
X228150Y92520D02*
Y94882D01*
X226519Y88606D02*
X228150Y92520D01*
X236417Y88976D02*
Y94882D01*
X229724Y88976D02*
X236417D01*
X229724Y85039D02*
X236417D01*
Y79134D02*
Y85039D01*
X226519Y85410D02*
X228150Y81496D01*
Y79134D02*
Y81496D01*
X219488Y85039D02*
X225787D01*
X219488Y79134D02*
Y85039D01*
X206890Y92913D02*
Y94882D01*
X205709Y80315D02*
X208071D01*
X206890Y79134D02*
Y81496D01*
X202165Y75197D02*
Y98819D01*
X244291Y75197D02*
X246654D01*
X251378D02*
X259252D01*
X263976D02*
X267913D01*
X272638D02*
X276575D01*
X281299D02*
X283661D01*
X281299Y98819D02*
X283661D01*
X272638D02*
X276575D01*
X263976D02*
X267913D01*
X251378D02*
X259252D01*
X244291D02*
X246654D01*
X283661Y75197D02*
Y98819D01*
X261614Y88976D02*
Y94882D01*
Y88976D02*
X267913D01*
X270276Y92520D02*
Y94882D01*
X268645Y88606D02*
X270276Y92520D01*
X278543Y88976D02*
Y94882D01*
X271850Y88976D02*
X278543D01*
X271850Y85039D02*
X278543D01*
Y79134D02*
Y85039D01*
X268645Y85410D02*
X270276Y81496D01*
Y79134D02*
Y81496D01*
X261614Y85039D02*
X267913D01*
X261614Y79134D02*
Y85039D01*
X249016Y92913D02*
Y94882D01*
X247835Y80315D02*
X250197D01*
X249016Y79134D02*
Y81496D01*
X244291Y75197D02*
Y98819D01*
X286417Y75197D02*
X288779D01*
X293504D02*
X301378D01*
X306102D02*
X310039D01*
X314764D02*
X318701D01*
X323425D02*
X325787D01*
X323425Y98819D02*
X325787D01*
X314764D02*
X318701D01*
X306102D02*
X310039D01*
X293504D02*
X301378D01*
X286417D02*
X288779D01*
X325787Y75197D02*
Y98819D01*
X303740Y88976D02*
Y94882D01*
Y88976D02*
X310039D01*
X312402Y92520D02*
Y94882D01*
X310771Y88606D02*
X312402Y92520D01*
X320669Y88976D02*
Y94882D01*
X313976Y88976D02*
X320669D01*
X313976Y85039D02*
X320669D01*
Y79134D02*
Y85039D01*
X310771Y85410D02*
X312402Y81496D01*
Y79134D02*
Y81496D01*
X303740Y85039D02*
X310039D01*
X303740Y79134D02*
Y85039D01*
X291142Y92913D02*
Y94882D01*
X289961Y80315D02*
X292323D01*
X291142Y79134D02*
Y81496D01*
X286417Y75197D02*
Y98819D01*
X328543Y75197D02*
X330906D01*
X335630D02*
X343504D01*
X348228D02*
X352165D01*
X356890D02*
X360827D01*
X365551D02*
X367913D01*
X365551Y98819D02*
X367913D01*
X356890D02*
X360827D01*
X348228D02*
X352165D01*
X335630D02*
X343504D01*
X328543D02*
X330906D01*
X367913Y75197D02*
Y98819D01*
X345866Y88976D02*
Y94882D01*
Y88976D02*
X352165D01*
X354528Y92520D02*
Y94882D01*
X352897Y88606D02*
X354528Y92520D01*
X362795Y88976D02*
Y94882D01*
X356102Y88976D02*
X362795D01*
X356102Y85039D02*
X362795D01*
Y79134D02*
Y85039D01*
X352897Y85410D02*
X354528Y81496D01*
Y79134D02*
Y81496D01*
X345866Y85039D02*
X352165D01*
X345866Y79134D02*
Y85039D01*
X333268Y92913D02*
Y94882D01*
X332087Y80315D02*
X334449D01*
X333268Y79134D02*
Y81496D01*
X328543Y75197D02*
Y98819D01*
X370669Y75197D02*
X373031D01*
X377756D02*
X385630D01*
X390354D02*
X394291D01*
X399016D02*
X402953D01*
X407677D02*
X410039D01*
X407677Y98819D02*
X410039D01*
X399016D02*
X402953D01*
X390354D02*
X394291D01*
X377756D02*
X385630D01*
X370669D02*
X373031D01*
X410039Y75197D02*
Y98819D01*
X387992Y88976D02*
Y94882D01*
Y88976D02*
X394291D01*
X396654Y92520D02*
Y94882D01*
X395023Y88606D02*
X396654Y92520D01*
X404921Y88976D02*
Y94882D01*
X398228Y88976D02*
X404921D01*
X398228Y85039D02*
X404921D01*
Y79134D02*
Y85039D01*
X395023Y85410D02*
X396654Y81496D01*
Y79134D02*
Y81496D01*
X387992Y85039D02*
X394291D01*
X387992Y79134D02*
Y85039D01*
X375394Y92913D02*
Y94882D01*
X374213Y80315D02*
X376575D01*
X375394Y79134D02*
Y81496D01*
X370669Y75197D02*
Y98819D01*
X412795Y75197D02*
X415158D01*
X419882D02*
X427756D01*
X432480D02*
X436417D01*
X441142D02*
X445079D01*
X449803D02*
X452165D01*
X449803Y98819D02*
X452165D01*
X441142D02*
X445079D01*
X432480D02*
X436417D01*
X419882D02*
X427756D01*
X412795D02*
X415158D01*
X452165Y75197D02*
Y98819D01*
X430118Y88976D02*
Y94882D01*
Y88976D02*
X436417D01*
X438779Y92520D02*
Y94882D01*
X437149Y88606D02*
X438779Y92520D01*
X447047Y88976D02*
Y94882D01*
X440354Y88976D02*
X447047D01*
X440354Y85039D02*
X447047D01*
Y79134D02*
Y85039D01*
X437149Y85410D02*
X438779Y81496D01*
Y79134D02*
Y81496D01*
X430118Y85039D02*
X436417D01*
X430118Y79134D02*
Y85039D01*
X417520Y92913D02*
Y94882D01*
X416339Y80315D02*
X418701D01*
X417520Y79134D02*
Y81496D01*
X412795Y75197D02*
Y98819D01*
X117913Y23228D02*
X120276D01*
X125000D02*
X132874D01*
X137598D02*
X141535D01*
X146260D02*
X150197D01*
X154921D02*
X157283D01*
X154921Y46850D02*
X157283D01*
X146260D02*
X150197D01*
X137598D02*
X141535D01*
X125000D02*
X132874D01*
X117913D02*
X120276D01*
X157283Y23228D02*
Y46850D01*
X135236Y37008D02*
Y42913D01*
Y37008D02*
X141535D01*
X143898Y40551D02*
Y42913D01*
X142267Y36637D02*
X143898Y40551D01*
X152165Y37008D02*
Y42913D01*
X145472Y37008D02*
X152165D01*
X145472Y33071D02*
X152165D01*
Y27165D02*
Y33071D01*
X142267Y33441D02*
X143898Y29528D01*
Y27165D02*
Y29528D01*
X135236Y33071D02*
X141535D01*
X135236Y27165D02*
Y33071D01*
X122638Y40945D02*
Y42913D01*
X121457Y28346D02*
X123819D01*
X122638Y27165D02*
Y29528D01*
X117913Y23228D02*
Y46850D01*
X160039Y23228D02*
X162402D01*
X167126D02*
X175000D01*
X179724D02*
X183661D01*
X188386D02*
X192323D01*
X197047D02*
X199409D01*
X197047Y46850D02*
X199409D01*
X188386D02*
X192323D01*
X179724D02*
X183661D01*
X167126D02*
X175000D01*
X160039D02*
X162402D01*
X199409Y23228D02*
Y46850D01*
X177362Y37008D02*
Y42913D01*
Y37008D02*
X183661D01*
X186024Y40551D02*
Y42913D01*
X184393Y36637D02*
X186024Y40551D01*
X194291Y37008D02*
Y42913D01*
X187598Y37008D02*
X194291D01*
X187598Y33071D02*
X194291D01*
Y27165D02*
Y33071D01*
X184393Y33441D02*
X186024Y29528D01*
Y27165D02*
Y29528D01*
X177362Y33071D02*
X183661D01*
X177362Y27165D02*
Y33071D01*
X164764Y40945D02*
Y42913D01*
X163583Y28346D02*
X165945D01*
X164764Y27165D02*
Y29528D01*
X160039Y23228D02*
Y46850D01*
X202165Y23228D02*
X204527D01*
X209252D02*
X217126D01*
X221850D02*
X225787D01*
X230512D02*
X234449D01*
X239173D02*
X241535D01*
X239173Y46850D02*
X241535D01*
X230512D02*
X234449D01*
X221850D02*
X225787D01*
X209252D02*
X217126D01*
X202165D02*
X204527D01*
X241535Y23228D02*
Y46850D01*
X219488Y37008D02*
Y42913D01*
Y37008D02*
X225787D01*
X228150Y40551D02*
Y42913D01*
X226519Y36637D02*
X228150Y40551D01*
X236417Y37008D02*
Y42913D01*
X229724Y37008D02*
X236417D01*
X229724Y33071D02*
X236417D01*
Y27165D02*
Y33071D01*
X226519Y33441D02*
X228150Y29528D01*
Y27165D02*
Y29528D01*
X219488Y33071D02*
X225787D01*
X219488Y27165D02*
Y33071D01*
X206890Y40945D02*
Y42913D01*
X205709Y28346D02*
X208071D01*
X206890Y27165D02*
Y29528D01*
X202165Y23228D02*
Y46850D01*
X244291Y23228D02*
X246654D01*
X251378D02*
X259252D01*
X263976D02*
X267913D01*
X272638D02*
X276575D01*
X281299D02*
X283661D01*
X281299Y46850D02*
X283661D01*
X272638D02*
X276575D01*
X263976D02*
X267913D01*
X251378D02*
X259252D01*
X244291D02*
X246654D01*
X283661Y23228D02*
Y46850D01*
X261614Y37008D02*
Y42913D01*
Y37008D02*
X267913D01*
X270276Y40551D02*
Y42913D01*
X268645Y36637D02*
X270276Y40551D01*
X278543Y37008D02*
Y42913D01*
X271850Y37008D02*
X278543D01*
X271850Y33071D02*
X278543D01*
Y27165D02*
Y33071D01*
X268645Y33441D02*
X270276Y29528D01*
Y27165D02*
Y29528D01*
X261614Y33071D02*
X267913D01*
X261614Y27165D02*
Y33071D01*
X249016Y40945D02*
Y42913D01*
X247835Y28346D02*
X250197D01*
X249016Y27165D02*
Y29528D01*
X244291Y23228D02*
Y46850D01*
X286417Y23228D02*
X288779D01*
X293504D02*
X301378D01*
X306102D02*
X310039D01*
X314764D02*
X318701D01*
X323425D02*
X325787D01*
X323425Y46850D02*
X325787D01*
X314764D02*
X318701D01*
X306102D02*
X310039D01*
X293504D02*
X301378D01*
X286417D02*
X288779D01*
X325787Y23228D02*
Y46850D01*
X303740Y37008D02*
Y42913D01*
Y37008D02*
X310039D01*
X312402Y40551D02*
Y42913D01*
X310771Y36637D02*
X312402Y40551D01*
X320669Y37008D02*
Y42913D01*
X313976Y37008D02*
X320669D01*
X313976Y33071D02*
X320669D01*
Y27165D02*
Y33071D01*
X310771Y33441D02*
X312402Y29528D01*
Y27165D02*
Y29528D01*
X303740Y33071D02*
X310039D01*
X303740Y27165D02*
Y33071D01*
X291142Y40945D02*
Y42913D01*
X289961Y28346D02*
X292323D01*
X291142Y27165D02*
Y29528D01*
X286417Y23228D02*
Y46850D01*
X328543Y23228D02*
X330906D01*
X335630D02*
X343504D01*
X348228D02*
X352165D01*
X356890D02*
X360827D01*
X365551D02*
X367913D01*
X365551Y46850D02*
X367913D01*
X356890D02*
X360827D01*
X348228D02*
X352165D01*
X335630D02*
X343504D01*
X328543D02*
X330906D01*
X367913Y23228D02*
Y46850D01*
X345866Y37008D02*
Y42913D01*
Y37008D02*
X352165D01*
X354528Y40551D02*
Y42913D01*
X352897Y36637D02*
X354528Y40551D01*
X362795Y37008D02*
Y42913D01*
X356102Y37008D02*
X362795D01*
X356102Y33071D02*
X362795D01*
Y27165D02*
Y33071D01*
X352897Y33441D02*
X354528Y29528D01*
Y27165D02*
Y29528D01*
X345866Y33071D02*
X352165D01*
X345866Y27165D02*
Y33071D01*
X333268Y40945D02*
Y42913D01*
X332087Y28346D02*
X334449D01*
X333268Y27165D02*
Y29528D01*
X328543Y23228D02*
Y46850D01*
X370669Y23228D02*
X373031D01*
X377756D02*
X385630D01*
X390354D02*
X394291D01*
X399016D02*
X402953D01*
X407677D02*
X410039D01*
X407677Y46850D02*
X410039D01*
X399016D02*
X402953D01*
X390354D02*
X394291D01*
X377756D02*
X385630D01*
X370669D02*
X373031D01*
X410039Y23228D02*
Y46850D01*
X387992Y37008D02*
Y42913D01*
Y37008D02*
X394291D01*
X396654Y40551D02*
Y42913D01*
X395023Y36637D02*
X396654Y40551D01*
X404921Y37008D02*
Y42913D01*
X398228Y37008D02*
X404921D01*
X398228Y33071D02*
X404921D01*
Y27165D02*
Y33071D01*
X395023Y33441D02*
X396654Y29528D01*
Y27165D02*
Y29528D01*
X387992Y33071D02*
X394291D01*
X387992Y27165D02*
Y33071D01*
X375394Y40945D02*
Y42913D01*
X374213Y28346D02*
X376575D01*
X375394Y27165D02*
Y29528D01*
X370669Y23228D02*
Y46850D01*
X412795Y23228D02*
X415158D01*
X419882D02*
X427756D01*
X432480D02*
X436417D01*
X441142D02*
X445079D01*
X449803D02*
X452165D01*
X449803Y46850D02*
X452165D01*
X441142D02*
X445079D01*
X432480D02*
X436417D01*
X419882D02*
X427756D01*
X412795D02*
X415158D01*
X452165Y23228D02*
Y46850D01*
X430118Y37008D02*
Y42913D01*
Y37008D02*
X436417D01*
X438779Y40551D02*
Y42913D01*
X437149Y36637D02*
X438779Y40551D01*
X447047Y37008D02*
Y42913D01*
X440354Y37008D02*
X447047D01*
X440354Y33071D02*
X447047D01*
Y27165D02*
Y33071D01*
X437149Y33441D02*
X438779Y29528D01*
Y27165D02*
Y29528D01*
X430118Y33071D02*
X436417D01*
X430118Y27165D02*
Y33071D01*
X417520Y40945D02*
Y42913D01*
X416339Y28346D02*
X418701D01*
X417520Y27165D02*
Y29528D01*
X412795Y23228D02*
Y46850D01*
D13*
X475838Y58348D02*
X475182Y57692D01*
Y56380D01*
X475838Y55724D01*
X478462D01*
X479118Y56380D01*
Y57692D01*
X478462Y58348D01*
Y59660D02*
X479118Y60316D01*
Y61628D01*
X478462Y62284D01*
X475838D01*
X475182Y61628D01*
Y60316D01*
X475838Y59660D01*
X476494D01*
X477150Y60316D01*
Y62284D01*
X467964Y207955D02*
X467308Y207299D01*
Y205987D01*
X467964Y205331D01*
X470588D01*
X471244Y205987D01*
Y207299D01*
X470588Y207955D01*
X469276D01*
Y206643D01*
X467308Y209266D02*
X471244D01*
Y211234D01*
X470588Y211890D01*
X467964D01*
X467308Y211234D01*
Y209266D01*
Y26197D02*
X471244D01*
Y28165D01*
X470588Y28821D01*
X469932D01*
X469276Y28165D01*
Y26197D01*
Y28165D01*
X468620Y28821D01*
X467964D01*
X467308Y28165D01*
Y26197D01*
X471244Y30133D02*
Y31444D01*
Y30788D01*
X467308D01*
X467964Y30133D01*
X475445Y178821D02*
X474789Y178165D01*
Y176853D01*
X475445Y176197D01*
X478068D01*
X478724Y176853D01*
Y178165D01*
X478068Y178821D01*
X478724Y182756D02*
Y180133D01*
X476101Y182756D01*
X475445D01*
X474789Y182100D01*
Y180789D01*
X475445Y180133D01*
X483843Y130921D02*
X481219D01*
X479907Y132233D01*
X481219Y133545D01*
X483843D01*
X481875D01*
Y130921D01*
X467308Y215567D02*
X471244D01*
Y217535D01*
X470588Y218191D01*
X469932D01*
X469276Y217535D01*
Y215567D01*
Y217535D01*
X468620Y218191D01*
X467964D01*
X467308Y217535D01*
Y215567D01*
X471244Y221470D02*
X467308D01*
X469276Y219503D01*
Y222127D01*
X467964Y97718D02*
X467308Y97062D01*
Y95750D01*
X467964Y95095D01*
X470588D01*
X471244Y95750D01*
Y97062D01*
X470588Y97718D01*
X469276D01*
Y96406D01*
X467308Y99030D02*
X471244D01*
Y100998D01*
X470588Y101654D01*
X467964D01*
X467308Y100998D01*
Y99030D01*
X18882Y96537D02*
Y93913D01*
X16258Y96537D01*
X15602D01*
X14946Y95881D01*
Y94569D01*
X15602Y93913D01*
Y97849D02*
X14946Y98505D01*
Y99817D01*
X15602Y100473D01*
X18226D01*
X18882Y99817D01*
Y98505D01*
X18226Y97849D01*
X15602D01*
X18882Y104409D02*
Y101785D01*
X16258Y104409D01*
X15602D01*
X14946Y103753D01*
Y102441D01*
X15602Y101785D01*
Y105721D02*
X14946Y106377D01*
Y107688D01*
X15602Y108344D01*
X16258D01*
X16914Y107688D01*
Y107033D01*
Y107688D01*
X17570Y108344D01*
X18226D01*
X18882Y107688D01*
Y106377D01*
X18226Y105721D01*
X478724Y205331D02*
X476101D01*
X474789Y206643D01*
X476101Y207955D01*
X478724D01*
X476756D01*
Y205331D01*
X475445Y209266D02*
X474789Y209922D01*
Y211234D01*
X475445Y211890D01*
X476101D01*
X476756Y211234D01*
Y210578D01*
Y211234D01*
X477413Y211890D01*
X478068D01*
X478724Y211234D01*
Y209922D01*
X478068Y209266D01*
X475838Y97718D02*
X475182Y97062D01*
Y95750D01*
X475838Y95095D01*
X478462D01*
X479118Y95750D01*
Y97062D01*
X478462Y97718D01*
X475182Y99030D02*
Y101654D01*
X475838D01*
X478462Y99030D01*
X479118D01*
X467308Y65961D02*
X471244D01*
Y67928D01*
X470588Y68584D01*
X469932D01*
X469276Y67928D01*
Y65961D01*
Y67928D01*
X468620Y68584D01*
X467964D01*
X467308Y67928D01*
Y65961D01*
X467964Y69896D02*
X467308Y70552D01*
Y71864D01*
X467964Y72520D01*
X468620D01*
X469276Y71864D01*
X469932Y72520D01*
X470588D01*
X471244Y71864D01*
Y70552D01*
X470588Y69896D01*
X469932D01*
X469276Y70552D01*
X468620Y69896D01*
X467964D01*
X469276Y70552D02*
Y71864D01*
X467964Y227640D02*
X467308Y226984D01*
Y225672D01*
X467964Y225016D01*
X470588D01*
X471244Y225672D01*
Y226984D01*
X470588Y227640D01*
X469276D01*
Y226328D01*
X467308Y228952D02*
X471244D01*
Y230919D01*
X470588Y231575D01*
X467964D01*
X467308Y230919D01*
Y228952D01*
X478724Y165961D02*
X476101D01*
X474789Y167272D01*
X476101Y168584D01*
X478724D01*
X476756D01*
Y165961D01*
X478724Y169896D02*
Y171208D01*
Y170552D01*
X474789D01*
X475445Y169896D01*
X475838Y78033D02*
X475182Y77377D01*
Y76065D01*
X475838Y75410D01*
X478462D01*
X479118Y76065D01*
Y77377D01*
X478462Y78033D01*
X475838Y79345D02*
X475182Y80001D01*
Y81313D01*
X475838Y81969D01*
X476494D01*
X477150Y81313D01*
X477806Y81969D01*
X478462D01*
X479118Y81313D01*
Y80001D01*
X478462Y79345D01*
X477806D01*
X477150Y80001D01*
X476494Y79345D01*
X475838D01*
X477150Y80001D02*
Y81313D01*
X475445Y159136D02*
X474789Y158480D01*
Y157168D01*
X475445Y156512D01*
X478068D01*
X478724Y157168D01*
Y158480D01*
X478068Y159136D01*
X478724Y160448D02*
Y161759D01*
Y161103D01*
X474789D01*
X475445Y160448D01*
X3923Y27378D02*
X7202D01*
X7858Y28034D01*
Y29346D01*
X7202Y30002D01*
X3923D01*
X7858Y31314D02*
X3923D01*
X7858Y33937D01*
X3923D01*
Y35249D02*
Y36561D01*
Y35905D01*
X7858D01*
Y35249D01*
Y36561D01*
Y38529D02*
X3923D01*
Y40497D01*
X4578Y41153D01*
X5890D01*
X6546Y40497D01*
Y38529D01*
Y39841D02*
X7858Y41153D01*
X3923Y45089D02*
Y42465D01*
X7858D01*
Y45089D01*
X5890Y42465D02*
Y43777D01*
X3923Y46401D02*
X7858D01*
Y49025D01*
X5890Y50336D02*
Y52960D01*
X7858Y54272D02*
X3923D01*
Y56240D01*
X4578Y56896D01*
X5890D01*
X6546Y56240D01*
Y54272D01*
X3923Y60176D02*
Y58864D01*
X4578Y58208D01*
X7202D01*
X7858Y58864D01*
Y60176D01*
X7202Y60832D01*
X4578D01*
X3923Y60176D01*
Y62144D02*
Y64767D01*
Y63456D01*
X7858D01*
X478724Y244701D02*
X476101D01*
X474789Y246013D01*
X476101Y247325D01*
X478724D01*
X476756D01*
Y244701D01*
X474789Y251260D02*
Y248637D01*
X476756D01*
X476101Y249948D01*
Y250604D01*
X476756Y251260D01*
X478068D01*
X478724Y250604D01*
Y249292D01*
X478068Y248637D01*
X479118Y85646D02*
X476494D01*
X475182Y86958D01*
X476494Y88270D01*
X479118D01*
X477150D01*
Y85646D01*
X475182Y89581D02*
Y92205D01*
X475838D01*
X478462Y89581D01*
X479118D01*
X478724Y185646D02*
X476101D01*
X474789Y186958D01*
X476101Y188269D01*
X478724D01*
X476756D01*
Y185646D01*
X478724Y192205D02*
Y189581D01*
X476101Y192205D01*
X475445D01*
X474789Y191549D01*
Y190237D01*
X475445Y189581D01*
X467308Y156512D02*
X471244D01*
Y158480D01*
X470588Y159136D01*
X469932D01*
X469276Y158480D01*
Y156512D01*
Y158480D01*
X468620Y159136D01*
X467964D01*
X467308Y158480D01*
Y156512D01*
X471244Y160448D02*
Y161759D01*
Y161103D01*
X467308D01*
X467964Y160448D01*
X48821Y221916D02*
X52756D01*
Y223884D01*
X52100Y224540D01*
X49477D01*
X48821Y223884D01*
Y221916D01*
X52756Y225852D02*
X50133D01*
X48821Y227164D01*
X50133Y228475D01*
X52756D01*
X50788D01*
Y225852D01*
X48821Y229787D02*
Y232411D01*
Y231099D01*
X52756D01*
Y233723D02*
X50133D01*
X48821Y235035D01*
X50133Y236347D01*
X52756D01*
X50788D01*
Y233723D01*
X48821Y241595D02*
Y242906D01*
Y242251D01*
X52756D01*
Y241595D01*
Y242906D01*
Y244874D02*
X48821D01*
X52756Y247498D01*
X48821D01*
X7464Y74359D02*
X6153Y73047D01*
X4841D01*
X3529Y74359D01*
X4841Y78951D02*
Y76983D01*
X5497Y76327D01*
X6809D01*
X7464Y76983D01*
Y78951D01*
Y80263D02*
X6153Y81575D01*
X4841D01*
X3529Y80263D01*
X48504Y28588D02*
X52440D01*
Y30555D01*
X51784Y31212D01*
X49161D01*
X48504Y30555D01*
Y28588D01*
X52440Y32523D02*
X49816D01*
X48504Y33835D01*
X49816Y35147D01*
X52440D01*
X50472D01*
Y32523D01*
X48504Y36459D02*
Y39083D01*
Y37771D01*
X52440D01*
Y40395D02*
X49816D01*
X48504Y41707D01*
X49816Y43019D01*
X52440D01*
X50472D01*
Y40395D01*
X48504Y50234D02*
Y48922D01*
X49161Y48266D01*
X51784D01*
X52440Y48922D01*
Y50234D01*
X51784Y50890D01*
X49161D01*
X48504Y50234D01*
Y52202D02*
X51784D01*
X52440Y52858D01*
Y54170D01*
X51784Y54826D01*
X48504D01*
Y56138D02*
Y58762D01*
Y57450D01*
X52440D01*
X475838Y117403D02*
X475182Y116747D01*
Y115436D01*
X475838Y114779D01*
X478462D01*
X479118Y115436D01*
Y116747D01*
X478462Y117403D01*
X475182Y121339D02*
X475838Y120027D01*
X477150Y118715D01*
X478462D01*
X479118Y119371D01*
Y120683D01*
X478462Y121339D01*
X477806D01*
X477150Y120683D01*
Y118715D01*
X467308Y85646D02*
X471244D01*
Y87613D01*
X470588Y88270D01*
X469932D01*
X469276Y87613D01*
Y85646D01*
Y87613D01*
X468620Y88270D01*
X467964D01*
X467308Y87613D01*
Y85646D01*
Y89581D02*
Y92205D01*
X467964D01*
X470588Y89581D01*
X471244D01*
X467308Y235252D02*
X471244D01*
Y237220D01*
X470588Y237876D01*
X469932D01*
X469276Y237220D01*
Y235252D01*
Y237220D01*
X468620Y237876D01*
X467964D01*
X467308Y237220D01*
Y235252D01*
Y241811D02*
Y239188D01*
X469276D01*
X468620Y240500D01*
Y241156D01*
X469276Y241811D01*
X470588D01*
X471244Y241156D01*
Y239844D01*
X470588Y239188D01*
X467964Y247325D02*
X467308Y246669D01*
Y245357D01*
X467964Y244701D01*
X470588D01*
X471244Y245357D01*
Y246669D01*
X470588Y247325D01*
X469276D01*
Y246013D01*
X467308Y248637D02*
X471244D01*
Y250604D01*
X470588Y251260D01*
X467964D01*
X467308Y250604D01*
Y248637D01*
X479118Y65961D02*
X476494D01*
X475182Y67273D01*
X476494Y68584D01*
X479118D01*
X477150D01*
Y65961D01*
X475838Y69896D02*
X475182Y70552D01*
Y71864D01*
X475838Y72520D01*
X476494D01*
X477150Y71864D01*
X477806Y72520D01*
X478462D01*
X479118Y71864D01*
Y70552D01*
X478462Y69896D01*
X477806D01*
X477150Y70552D01*
X476494Y69896D01*
X475838D01*
X477150Y70552D02*
Y71864D01*
X478724Y225016D02*
X476101D01*
X474789Y226328D01*
X476101Y227640D01*
X478724D01*
X476756D01*
Y225016D01*
X478724Y230919D02*
X474789D01*
X476756Y228952D01*
Y231575D01*
X467964Y78033D02*
X467308Y77377D01*
Y76065D01*
X467964Y75409D01*
X470588D01*
X471244Y76065D01*
Y77377D01*
X470588Y78033D01*
X469276D01*
Y76721D01*
X467308Y79345D02*
X471244D01*
Y81313D01*
X470588Y81969D01*
X467964D01*
X467308Y81313D01*
Y79345D01*
X467964Y58348D02*
X467308Y57692D01*
Y56380D01*
X467964Y55724D01*
X470588D01*
X471244Y56380D01*
Y57692D01*
X470588Y58348D01*
X469276D01*
Y57036D01*
X467308Y59660D02*
X471244D01*
Y61628D01*
X470588Y62284D01*
X467964D01*
X467308Y61628D01*
Y59660D01*
X475838Y38663D02*
X475182Y38007D01*
Y36695D01*
X475838Y36039D01*
X478462D01*
X479118Y36695D01*
Y38007D01*
X478462Y38663D01*
X479118Y39975D02*
Y41287D01*
Y40631D01*
X475182D01*
X475838Y39975D01*
X12453Y137876D02*
X11796Y137220D01*
Y135908D01*
X12453Y135252D01*
X15076D01*
X15732Y135908D01*
Y137220D01*
X15076Y137876D01*
X13764D01*
Y136564D01*
Y143123D02*
Y145747D01*
X12453Y144435D02*
X15076D01*
X11796Y149683D02*
Y147059D01*
X13764D01*
X13108Y148371D01*
Y149027D01*
X13764Y149683D01*
X15076D01*
X15732Y149027D01*
Y147715D01*
X15076Y147059D01*
X13764Y154931D02*
Y157554D01*
X12453Y156243D02*
X15076D01*
X15732Y158866D02*
Y160178D01*
Y159522D01*
X11796D01*
X12453Y158866D01*
X15732Y164770D02*
Y162146D01*
X13108Y164770D01*
X12453D01*
X11796Y164114D01*
Y162802D01*
X12453Y162146D01*
Y172642D02*
X11796Y171985D01*
Y170674D01*
X12453Y170018D01*
X15076D01*
X15732Y170674D01*
Y171985D01*
X15076Y172642D01*
X13764D01*
Y171330D01*
X467308Y195882D02*
X471244D01*
Y197850D01*
X470588Y198506D01*
X469932D01*
X469276Y197850D01*
Y195882D01*
Y197850D01*
X468620Y198506D01*
X467964D01*
X467308Y197850D01*
Y195882D01*
X467964Y199818D02*
X467308Y200474D01*
Y201785D01*
X467964Y202442D01*
X468620D01*
X469276Y201785D01*
Y201130D01*
Y201785D01*
X469932Y202442D01*
X470588D01*
X471244Y201785D01*
Y200474D01*
X470588Y199818D01*
X475445Y198506D02*
X474789Y197850D01*
Y196538D01*
X475445Y195882D01*
X478068D01*
X478724Y196538D01*
Y197850D01*
X478068Y198506D01*
X475445Y199818D02*
X474789Y200474D01*
Y201785D01*
X475445Y202441D01*
X476101D01*
X476756Y201785D01*
Y201130D01*
Y201785D01*
X477413Y202441D01*
X478068D01*
X478724Y201785D01*
Y200474D01*
X478068Y199818D01*
X3792Y86827D02*
X7728D01*
Y88795D01*
X7072Y89451D01*
X4448D01*
X3792Y88795D01*
Y86827D01*
X7728Y90763D02*
Y92074D01*
Y91418D01*
X5104D01*
Y90763D01*
X7728Y94042D02*
Y96010D01*
X7072Y96666D01*
X6415Y96010D01*
Y94698D01*
X5760Y94042D01*
X5104Y94698D01*
Y96666D01*
X4448Y98634D02*
X5104D01*
Y97978D01*
Y99290D01*
Y98634D01*
X7072D01*
X7728Y99290D01*
Y101914D02*
Y103226D01*
X7072Y103882D01*
X5760D01*
X5104Y103226D01*
Y101914D01*
X5760Y101258D01*
X7072D01*
X7728Y101914D01*
X9039Y105194D02*
X5104D01*
Y107161D01*
X5760Y107817D01*
X7072D01*
X7728Y107161D01*
Y105194D01*
Y109129D02*
Y110441D01*
Y109785D01*
X5104D01*
Y109129D01*
X7728Y112409D02*
X3792D01*
X6415D02*
X5104Y114377D01*
X6415Y112409D02*
X7728Y114377D01*
X12453Y179214D02*
X11796Y178558D01*
Y177246D01*
X12453Y176591D01*
X15076D01*
X15732Y177246D01*
Y178558D01*
X15076Y179214D01*
X13764D01*
Y177902D01*
Y184462D02*
Y187086D01*
X12453Y185774D02*
X15076D01*
X11796Y191022D02*
Y188398D01*
X13764D01*
X13108Y189710D01*
Y190366D01*
X13764Y191022D01*
X15076D01*
X15732Y190366D01*
Y189054D01*
X15076Y188398D01*
X13764Y196269D02*
Y198893D01*
X12453Y197581D02*
X15076D01*
X15732Y200205D02*
Y201517D01*
Y200861D01*
X11796D01*
X12453Y200205D01*
X15732Y206109D02*
Y203485D01*
X13108Y206109D01*
X12453D01*
X11796Y205453D01*
Y204141D01*
X12453Y203485D01*
Y213980D02*
X11796Y213324D01*
Y212012D01*
X12453Y211356D01*
X15076D01*
X15732Y212012D01*
Y213324D01*
X15076Y213980D01*
X13764D01*
Y212668D01*
X479118Y26197D02*
X476494D01*
X475182Y27509D01*
X476494Y28821D01*
X479118D01*
X477150D01*
Y26197D01*
X479118Y30133D02*
Y31444D01*
Y30788D01*
X475182D01*
X475838Y30133D01*
X480563Y146537D02*
X479907Y145881D01*
Y144569D01*
X480563Y143913D01*
X483186D01*
X483843Y144569D01*
Y145881D01*
X483186Y146537D01*
X479118Y105331D02*
X476494D01*
X475182Y106643D01*
X476494Y107955D01*
X479118D01*
X477150D01*
Y105331D01*
X475182Y111890D02*
X475838Y110578D01*
X477150Y109266D01*
X478462D01*
X479118Y109922D01*
Y111234D01*
X478462Y111890D01*
X477806D01*
X477150Y111234D01*
Y109266D01*
X467964Y168584D02*
X467308Y167929D01*
Y166617D01*
X467964Y165961D01*
X470588D01*
X471244Y166617D01*
Y167929D01*
X470588Y168584D01*
X469276D01*
Y167272D01*
X467308Y169896D02*
X471244D01*
Y171864D01*
X470588Y172520D01*
X467964D01*
X467308Y171864D01*
Y169896D01*
X467964Y117403D02*
X467308Y116747D01*
Y115436D01*
X467964Y114779D01*
X470588D01*
X471244Y115436D01*
Y116747D01*
X470588Y117403D01*
X469276D01*
Y116091D01*
X467308Y118715D02*
X471244D01*
Y120683D01*
X470588Y121339D01*
X467964D01*
X467308Y120683D01*
Y118715D01*
X467964Y188269D02*
X467308Y187613D01*
Y186302D01*
X467964Y185646D01*
X470588D01*
X471244Y186302D01*
Y187613D01*
X470588Y188269D01*
X469276D01*
Y186958D01*
X467308Y189581D02*
X471244D01*
Y191549D01*
X470588Y192205D01*
X467964D01*
X467308Y191549D01*
Y189581D01*
X467964Y38663D02*
X467308Y38007D01*
Y36695D01*
X467964Y36039D01*
X470588D01*
X471244Y36695D01*
Y38007D01*
X470588Y38663D01*
X469276D01*
Y37351D01*
X467308Y39975D02*
X471244D01*
Y41943D01*
X470588Y42599D01*
X467964D01*
X467308Y41943D01*
Y39975D01*
X3529Y119110D02*
X7464D01*
Y121734D01*
X4185Y123702D02*
X4841D01*
Y123046D01*
Y124358D01*
Y123702D01*
X6809D01*
X7464Y124358D01*
X3529Y128950D02*
X7464D01*
Y126982D01*
X6809Y126326D01*
X5497D01*
X4841Y126982D01*
Y128950D01*
X7464Y130262D02*
X6809D01*
Y130918D01*
X7464D01*
Y130262D01*
X479118Y46276D02*
X476494D01*
X475182Y47587D01*
X476494Y48899D01*
X479118D01*
X477150D01*
Y46276D01*
X478462Y50211D02*
X479118Y50867D01*
Y52179D01*
X478462Y52835D01*
X475838D01*
X475182Y52179D01*
Y50867D01*
X475838Y50211D01*
X476494D01*
X477150Y50867D01*
Y52835D01*
X475445Y237876D02*
X474789Y237220D01*
Y235908D01*
X475445Y235252D01*
X478068D01*
X478724Y235908D01*
Y237220D01*
X478068Y237876D01*
X474789Y241811D02*
Y239188D01*
X476756D01*
X476101Y240500D01*
Y241156D01*
X476756Y241811D01*
X478068D01*
X478724Y241156D01*
Y239844D01*
X478068Y239188D01*
X475445Y218191D02*
X474789Y217535D01*
Y216223D01*
X475445Y215567D01*
X478068D01*
X478724Y216223D01*
Y217535D01*
X478068Y218191D01*
X478724Y221470D02*
X474789D01*
X476756Y219503D01*
Y222127D01*
X481875Y137614D02*
X485811D01*
Y139582D01*
X485155Y140238D01*
X484499D01*
X483843Y139582D01*
Y137614D01*
Y139582D01*
X483187Y140238D01*
X482531D01*
X481875Y139582D01*
Y137614D01*
X4316Y228559D02*
X6940D01*
X8252Y229871D01*
X6940Y231183D01*
X4316D01*
X8252Y232495D02*
Y233807D01*
Y233151D01*
X4316D01*
X4972Y232495D01*
X8252Y235775D02*
X7596D01*
Y236431D01*
X8252D01*
Y235775D01*
X4972Y239054D02*
X4316Y239710D01*
Y241022D01*
X4972Y241678D01*
X7596D01*
X8252Y241022D01*
Y239710D01*
X7596Y239054D01*
X4972D01*
X467308Y176197D02*
X471244D01*
Y178165D01*
X470588Y178821D01*
X469932D01*
X469276Y178165D01*
Y176197D01*
Y178165D01*
X468620Y178821D01*
X467964D01*
X467308Y178165D01*
Y176197D01*
X471244Y182756D02*
Y180133D01*
X468620Y182756D01*
X467964D01*
X467308Y182100D01*
Y180789D01*
X467964Y180133D01*
X467308Y46276D02*
X471244D01*
Y48243D01*
X470588Y48899D01*
X469932D01*
X469276Y48243D01*
Y46276D01*
Y48243D01*
X468620Y48899D01*
X467964D01*
X467308Y48243D01*
Y46276D01*
X470588Y50211D02*
X471244Y50867D01*
Y52179D01*
X470588Y52835D01*
X467964D01*
X467308Y52179D01*
Y50867D01*
X467964Y50211D01*
X468620D01*
X469276Y50867D01*
Y52835D01*
X467308Y105331D02*
X471244D01*
Y107299D01*
X470588Y107955D01*
X469932D01*
X469276Y107299D01*
Y105331D01*
Y107299D01*
X468620Y107955D01*
X467964D01*
X467308Y107299D01*
Y105331D01*
Y111890D02*
X467964Y110578D01*
X469276Y109266D01*
X470588D01*
X471244Y109922D01*
Y111234D01*
X470588Y111890D01*
X469932D01*
X469276Y111234D01*
Y109266D01*
D14*
X489992Y152387D02*
Y149055D01*
X486660Y152387D01*
X485827D01*
X484994Y151554D01*
Y149888D01*
X485827Y149055D01*
X489992Y22230D02*
Y18898D01*
X486660Y22230D01*
X485827D01*
X484994Y21397D01*
Y19731D01*
X485827Y18898D01*
X499992Y149055D02*
Y150721D01*
Y149888D01*
X494994D01*
X495827Y149055D01*
X499992Y18898D02*
Y20564D01*
Y19731D01*
X494994D01*
X495827Y18898D01*
M02*
