G04*
G04 #@! TF.GenerationSoftware,Altium Limited,Altium Designer,20.0.9 (164)*
G04*
G04 Layer_Physical_Order=3*
G04 Layer_Color=16440176*
%FSLAX25Y25*%
%MOIN*%
G70*
G01*
G75*
%ADD10C,0.00787*%
%ADD63C,0.05000*%
%ADD64R,0.05906X0.05906*%
%ADD65C,0.05906*%
%ADD66C,0.07400*%
%ADD67C,0.01772*%
%ADD68C,0.02598*%
%ADD71C,0.01968*%
G36*
X13979Y277937D02*
X14078Y277437D01*
X13149Y277053D01*
X11629Y276121D01*
X10273Y274963D01*
X9115Y273607D01*
X8184Y272087D01*
X7501Y270440D01*
X7085Y268706D01*
X6945Y266929D01*
X7085Y265152D01*
X7501Y263418D01*
X8184Y261771D01*
X9115Y260251D01*
X10273Y258895D01*
X11629Y257737D01*
X13149Y256806D01*
X14796Y256123D01*
X16530Y255707D01*
X18307Y255567D01*
X20085Y255707D01*
X21818Y256123D01*
X23465Y256806D01*
X24985Y257737D01*
X26341Y258895D01*
X27499Y260251D01*
X28431Y261771D01*
X29113Y263418D01*
X29529Y265152D01*
X29669Y266929D01*
X29529Y268706D01*
X29113Y270440D01*
X28431Y272087D01*
X27499Y273607D01*
X26341Y274963D01*
X24985Y276121D01*
X23465Y277053D01*
X22536Y277437D01*
X22636Y277937D01*
X113976D01*
Y262555D01*
X113906Y262526D01*
X113840Y262536D01*
X113372Y262846D01*
X113313Y263139D01*
X113007Y263597D01*
X112549Y263904D01*
X112008Y264011D01*
X111467Y263904D01*
X111009Y263597D01*
X110702Y263139D01*
X110595Y262598D01*
X110702Y262058D01*
X111009Y261599D01*
X111467Y261293D01*
X112008Y261185D01*
X112091Y261202D01*
X112472Y260864D01*
X112472Y260396D01*
X112091Y260058D01*
X112008Y260074D01*
X111467Y259967D01*
X111009Y259661D01*
X110702Y259202D01*
X110595Y258661D01*
X110702Y258121D01*
X111009Y257662D01*
X111467Y257356D01*
X112008Y257248D01*
X112091Y257265D01*
X112472Y256927D01*
X112472Y256459D01*
X112091Y256121D01*
X112008Y256137D01*
X111467Y256030D01*
X111009Y255724D01*
X110702Y255265D01*
X110595Y254724D01*
X110702Y254184D01*
X111009Y253725D01*
X111467Y253419D01*
X112008Y253311D01*
X112549Y253419D01*
X113007Y253725D01*
X113313Y254184D01*
X113372Y254477D01*
X113840Y254787D01*
X113906Y254797D01*
X113976Y254768D01*
Y246259D01*
X110481Y242764D01*
X109893Y242784D01*
X109434Y243090D01*
X108894Y243198D01*
X108353Y243090D01*
X107895Y242784D01*
X107588Y242325D01*
X107481Y241785D01*
X107588Y241244D01*
X107895Y240786D01*
X108011Y240707D01*
Y240106D01*
X107895Y240028D01*
X107588Y239569D01*
X107481Y239029D01*
X107588Y238488D01*
X107895Y238030D01*
X108353Y237723D01*
X108894Y237616D01*
X109434Y237723D01*
X109893Y238030D01*
X110199Y238488D01*
X110215Y238568D01*
X110330Y238645D01*
X113467Y241782D01*
X113929Y241591D01*
Y238910D01*
X112267Y237247D01*
X112043Y237292D01*
X111503Y237185D01*
X111044Y236878D01*
X110738Y236420D01*
X110630Y235879D01*
X110738Y235338D01*
X111044Y234880D01*
X111503Y234574D01*
X112043Y234466D01*
X112206Y234499D01*
X112631Y234073D01*
X112599Y233911D01*
X112663Y233586D01*
X112270Y233192D01*
X111945Y233257D01*
X111404Y233149D01*
X110946Y232843D01*
X110639Y232384D01*
X110532Y231844D01*
X110639Y231303D01*
X110946Y230844D01*
X111404Y230538D01*
X111945Y230431D01*
X112028Y230447D01*
X112409Y230109D01*
Y229641D01*
X112028Y229303D01*
X111945Y229320D01*
X111404Y229212D01*
X110946Y228906D01*
X110639Y228447D01*
X110532Y227907D01*
X110639Y227366D01*
X110946Y226907D01*
X111404Y226601D01*
X111945Y226494D01*
X112486Y226601D01*
X112944Y226907D01*
X113071Y227097D01*
X113976D01*
Y210587D01*
X113906Y210557D01*
X113840Y210567D01*
X113372Y210877D01*
X113313Y211171D01*
X113007Y211629D01*
X112549Y211935D01*
X112008Y212043D01*
X111467Y211935D01*
X111009Y211629D01*
X110703Y211171D01*
X110595Y210630D01*
X110703Y210089D01*
X111009Y209631D01*
X111467Y209325D01*
X112008Y209217D01*
X112091Y209233D01*
X112472Y208895D01*
X112472Y208428D01*
X112091Y208089D01*
X112008Y208106D01*
X111467Y207998D01*
X111009Y207692D01*
X110703Y207234D01*
X110595Y206693D01*
X110703Y206152D01*
X111009Y205694D01*
X111467Y205387D01*
X112008Y205280D01*
X112091Y205296D01*
X112472Y204958D01*
X112472Y204490D01*
X112091Y204152D01*
X112008Y204169D01*
X111467Y204061D01*
X111009Y203755D01*
X110703Y203297D01*
X110595Y202756D01*
X110703Y202215D01*
X111009Y201757D01*
X111467Y201450D01*
X112008Y201343D01*
X112549Y201450D01*
X113007Y201757D01*
X113313Y202215D01*
X113372Y202509D01*
X113840Y202818D01*
X113906Y202828D01*
X113976Y202799D01*
Y194291D01*
X110481Y190796D01*
X109893Y190815D01*
X109434Y191121D01*
X108894Y191229D01*
X108353Y191121D01*
X107895Y190815D01*
X107588Y190357D01*
X107481Y189816D01*
X107588Y189275D01*
X107895Y188817D01*
X108011Y188739D01*
Y188137D01*
X107895Y188059D01*
X107588Y187601D01*
X107481Y187060D01*
X107588Y186520D01*
X107895Y186061D01*
X108353Y185755D01*
X108894Y185647D01*
X109434Y185755D01*
X109893Y186061D01*
X110199Y186520D01*
X110215Y186599D01*
X110330Y186676D01*
X113467Y189814D01*
X113929Y189622D01*
Y186941D01*
X112267Y185279D01*
X112043Y185324D01*
X111503Y185216D01*
X111044Y184910D01*
X110738Y184451D01*
X110630Y183911D01*
X110738Y183370D01*
X111044Y182912D01*
X111503Y182605D01*
X112043Y182498D01*
X112206Y182530D01*
X112631Y182105D01*
X112599Y181942D01*
X112663Y181617D01*
X112270Y181223D01*
X111945Y181288D01*
X111404Y181181D01*
X110946Y180874D01*
X110639Y180416D01*
X110532Y179875D01*
X110639Y179334D01*
X110946Y178876D01*
X111404Y178570D01*
X111945Y178462D01*
X112028Y178479D01*
X112409Y178141D01*
Y177673D01*
X112028Y177335D01*
X111945Y177351D01*
X111404Y177244D01*
X110946Y176937D01*
X110639Y176479D01*
X110532Y175938D01*
X110639Y175397D01*
X110946Y174939D01*
X111404Y174633D01*
X111945Y174525D01*
X112486Y174633D01*
X112944Y174939D01*
X113071Y175129D01*
X113976D01*
Y158618D01*
X113906Y158589D01*
X113840Y158599D01*
X113372Y158909D01*
X113313Y159202D01*
X113007Y159660D01*
X112549Y159967D01*
X112008Y160074D01*
X111467Y159967D01*
X111009Y159660D01*
X110702Y159202D01*
X110595Y158661D01*
X110702Y158121D01*
X111009Y157662D01*
X111467Y157356D01*
X112008Y157248D01*
X112171Y157281D01*
X112596Y156856D01*
X112563Y156693D01*
X112596Y156530D01*
X112171Y156105D01*
X112008Y156137D01*
X111467Y156030D01*
X111009Y155724D01*
X110702Y155265D01*
X110595Y154724D01*
X110702Y154184D01*
X111009Y153725D01*
X111467Y153419D01*
X112008Y153311D01*
X112171Y153344D01*
X112596Y152919D01*
X112563Y152756D01*
X112596Y152593D01*
X112171Y152168D01*
X112008Y152200D01*
X111467Y152093D01*
X111009Y151786D01*
X110702Y151328D01*
X110595Y150787D01*
X110702Y150247D01*
X111009Y149788D01*
X111467Y149482D01*
X112008Y149374D01*
X112549Y149482D01*
X113007Y149788D01*
X113313Y150247D01*
X113372Y150540D01*
X113840Y150850D01*
X113906Y150860D01*
X113976Y150831D01*
Y142322D01*
X110481Y138827D01*
X109893Y138847D01*
X109434Y139153D01*
X108894Y139261D01*
X108353Y139153D01*
X107895Y138847D01*
X107588Y138388D01*
X107481Y137848D01*
X107588Y137307D01*
X107895Y136848D01*
X108011Y136770D01*
Y136169D01*
X107895Y136091D01*
X107588Y135632D01*
X107481Y135092D01*
X107588Y134551D01*
X107895Y134093D01*
X108353Y133786D01*
X108894Y133679D01*
X109434Y133786D01*
X109893Y134093D01*
X110199Y134551D01*
X110215Y134631D01*
X110330Y134708D01*
X113467Y137845D01*
X113929Y137654D01*
Y134973D01*
X112267Y133310D01*
X112043Y133355D01*
X111503Y133247D01*
X111044Y132941D01*
X110738Y132483D01*
X110630Y131942D01*
X110738Y131401D01*
X111044Y130943D01*
X111503Y130637D01*
X112043Y130529D01*
X112206Y130561D01*
X112631Y130136D01*
X112599Y129974D01*
X112663Y129649D01*
X112270Y129255D01*
X111945Y129320D01*
X111404Y129212D01*
X110946Y128906D01*
X110639Y128447D01*
X110532Y127907D01*
X110639Y127366D01*
X110946Y126908D01*
X111404Y126601D01*
X111945Y126494D01*
X112028Y126510D01*
X112409Y126172D01*
Y125704D01*
X112028Y125366D01*
X111945Y125383D01*
X111404Y125275D01*
X110946Y124969D01*
X110639Y124510D01*
X110532Y123970D01*
X110639Y123429D01*
X110946Y122970D01*
X111404Y122664D01*
X111945Y122557D01*
X112486Y122664D01*
X112944Y122970D01*
X113071Y123160D01*
X113976D01*
Y106649D01*
X113906Y106620D01*
X113840Y106630D01*
X113372Y106940D01*
X113313Y107234D01*
X113007Y107692D01*
X112549Y107998D01*
X112008Y108106D01*
X111467Y107998D01*
X111009Y107692D01*
X110702Y107234D01*
X110595Y106693D01*
X110702Y106152D01*
X111009Y105694D01*
X111467Y105387D01*
X112008Y105280D01*
X112171Y105312D01*
X112596Y104887D01*
X112563Y104724D01*
X112596Y104562D01*
X112171Y104137D01*
X112008Y104169D01*
X111467Y104061D01*
X111009Y103755D01*
X110702Y103297D01*
X110595Y102756D01*
X110702Y102215D01*
X111009Y101757D01*
X111467Y101451D01*
X112008Y101343D01*
X112171Y101375D01*
X112596Y100950D01*
X112563Y100787D01*
X112596Y100625D01*
X112171Y100199D01*
X112008Y100232D01*
X111467Y100124D01*
X111009Y99818D01*
X110702Y99360D01*
X110595Y98819D01*
X110702Y98278D01*
X111009Y97820D01*
X111467Y97514D01*
X112008Y97406D01*
X112549Y97514D01*
X113007Y97820D01*
X113313Y98278D01*
X113372Y98572D01*
X113840Y98882D01*
X113906Y98891D01*
X113976Y98862D01*
Y90354D01*
X110481Y86859D01*
X109893Y86878D01*
X109434Y87185D01*
X108894Y87292D01*
X108353Y87185D01*
X107895Y86878D01*
X107588Y86420D01*
X107481Y85879D01*
X107588Y85338D01*
X107895Y84880D01*
X108011Y84802D01*
Y84201D01*
X107895Y84122D01*
X107588Y83664D01*
X107481Y83123D01*
X107588Y82582D01*
X107895Y82124D01*
X108353Y81818D01*
X108894Y81710D01*
X109434Y81818D01*
X109893Y82124D01*
X110199Y82582D01*
X110215Y82662D01*
X110330Y82739D01*
X113467Y85877D01*
X113929Y85685D01*
Y83004D01*
X112267Y81342D01*
X112043Y81387D01*
X111503Y81279D01*
X111044Y80973D01*
X110738Y80514D01*
X110630Y79974D01*
X110738Y79433D01*
X111044Y78974D01*
X111503Y78668D01*
X112043Y78561D01*
X112206Y78593D01*
X112631Y78168D01*
X112599Y78005D01*
X112663Y77680D01*
X112270Y77286D01*
X111945Y77351D01*
X111404Y77244D01*
X110946Y76937D01*
X110639Y76479D01*
X110532Y75938D01*
X110639Y75397D01*
X110946Y74939D01*
X111404Y74633D01*
X111945Y74525D01*
X112108Y74558D01*
X112533Y74132D01*
X112500Y73970D01*
X112533Y73807D01*
X112108Y73382D01*
X111945Y73414D01*
X111404Y73307D01*
X110946Y73000D01*
X110639Y72542D01*
X110532Y72001D01*
X110639Y71460D01*
X110946Y71002D01*
X111404Y70696D01*
X111945Y70588D01*
X112486Y70696D01*
X112944Y71002D01*
X113071Y71192D01*
X113976D01*
Y54681D01*
X113906Y54652D01*
X113840Y54662D01*
X113372Y54972D01*
X113313Y55265D01*
X113007Y55724D01*
X112549Y56030D01*
X112008Y56137D01*
X111467Y56030D01*
X111009Y55724D01*
X110702Y55265D01*
X110595Y54724D01*
X110702Y54184D01*
X111009Y53725D01*
X111467Y53419D01*
X112008Y53311D01*
X112171Y53344D01*
X112596Y52919D01*
X112563Y52756D01*
X112596Y52593D01*
X112171Y52168D01*
X112008Y52200D01*
X111467Y52093D01*
X111009Y51787D01*
X110702Y51328D01*
X110595Y50787D01*
X110702Y50247D01*
X111009Y49788D01*
X111467Y49482D01*
X112008Y49374D01*
X112171Y49407D01*
X112596Y48982D01*
X112563Y48819D01*
X112596Y48656D01*
X112171Y48231D01*
X112008Y48263D01*
X111467Y48156D01*
X111009Y47850D01*
X110702Y47391D01*
X110595Y46850D01*
X110702Y46310D01*
X111009Y45851D01*
X111467Y45545D01*
X112008Y45437D01*
X112549Y45545D01*
X113007Y45851D01*
X113313Y46310D01*
X113372Y46603D01*
X113840Y46913D01*
X113906Y46923D01*
X113976Y46894D01*
Y38385D01*
X110423Y34832D01*
X109857Y34857D01*
X109399Y35164D01*
X108858Y35271D01*
X108317Y35164D01*
X107859Y34857D01*
X107553Y34399D01*
X107445Y33858D01*
X107553Y33318D01*
X107859Y32859D01*
X107955Y32795D01*
Y32194D01*
X107895Y32154D01*
X107588Y31695D01*
X107481Y31155D01*
X107588Y30614D01*
X107895Y30156D01*
X108353Y29849D01*
X108894Y29742D01*
X109434Y29849D01*
X109893Y30156D01*
X110199Y30614D01*
X110215Y30694D01*
X110330Y30771D01*
X113467Y33908D01*
X113929Y33717D01*
Y31036D01*
X112267Y29373D01*
X112043Y29418D01*
X111503Y29311D01*
X111044Y29004D01*
X110738Y28546D01*
X110630Y28005D01*
X110738Y27464D01*
X111044Y27006D01*
X111503Y26700D01*
X112043Y26592D01*
X112206Y26625D01*
X112631Y26199D01*
X112599Y26037D01*
X112663Y25712D01*
X112270Y25318D01*
X111945Y25383D01*
X111404Y25275D01*
X110946Y24969D01*
X110639Y24510D01*
X110532Y23970D01*
X110639Y23429D01*
X110946Y22971D01*
X111404Y22664D01*
X111945Y22557D01*
X112108Y22589D01*
X112533Y22164D01*
X112500Y22001D01*
X112533Y21838D01*
X112108Y21413D01*
X111945Y21446D01*
X111404Y21338D01*
X110946Y21032D01*
X110639Y20573D01*
X110532Y20033D01*
X110639Y19492D01*
X110946Y19034D01*
X111404Y18727D01*
X111945Y18620D01*
X112486Y18727D01*
X112944Y19034D01*
X113071Y19223D01*
X113976D01*
Y15D01*
X22636D01*
X22536Y515D01*
X23465Y900D01*
X24985Y1832D01*
X26341Y2990D01*
X27499Y4345D01*
X28431Y5866D01*
X29113Y7513D01*
X29529Y9246D01*
X29669Y11024D01*
X29529Y12801D01*
X29113Y14535D01*
X28431Y16182D01*
X27499Y17702D01*
X26341Y19058D01*
X24985Y20215D01*
X23465Y21147D01*
X21818Y21829D01*
X20085Y22245D01*
X18307Y22385D01*
X16530Y22245D01*
X14796Y21829D01*
X13149Y21147D01*
X11629Y20215D01*
X10273Y19058D01*
X9115Y17702D01*
X8184Y16182D01*
X7501Y14535D01*
X7085Y12801D01*
X6945Y11024D01*
X7085Y9246D01*
X7501Y7513D01*
X8184Y5866D01*
X9115Y4345D01*
X10273Y2990D01*
X11629Y1832D01*
X13149Y900D01*
X14078Y515D01*
X13979Y15D01*
X-1559D01*
X-1559Y277937D01*
X13979D01*
D02*
G37*
G36*
X466734Y277937D02*
X466834Y277437D01*
X465905Y277053D01*
X464385Y276121D01*
X463029Y274963D01*
X461871Y273607D01*
X460940Y272087D01*
X460257Y270440D01*
X459841Y268706D01*
X459701Y266929D01*
X459841Y265152D01*
X460257Y263418D01*
X460940Y261771D01*
X461871Y260251D01*
X463029Y258895D01*
X464385Y257737D01*
X465905Y256806D01*
X467552Y256123D01*
X469286Y255707D01*
X471063Y255567D01*
X472840Y255707D01*
X474574Y256123D01*
X476221Y256806D01*
X477741Y257737D01*
X479097Y258895D01*
X480255Y260251D01*
X481186Y261771D01*
X481869Y263418D01*
X482285Y265152D01*
X482425Y266929D01*
X482285Y268706D01*
X481869Y270440D01*
X481186Y272087D01*
X480255Y273607D01*
X479097Y274963D01*
X477741Y276121D01*
X476221Y277053D01*
X475292Y277437D01*
X475392Y277937D01*
X508646D01*
X508646Y15D01*
X475392D01*
X475292Y515D01*
X476221Y900D01*
X477741Y1832D01*
X479097Y2990D01*
X480255Y4345D01*
X481186Y5866D01*
X481869Y7513D01*
X482285Y9246D01*
X482425Y11024D01*
X482285Y12801D01*
X481869Y14535D01*
X481186Y16182D01*
X480255Y17702D01*
X479097Y19058D01*
X477741Y20215D01*
X476221Y21147D01*
X474574Y21829D01*
X472840Y22245D01*
X471063Y22385D01*
X469286Y22245D01*
X467552Y21829D01*
X465905Y21147D01*
X464385Y20215D01*
X463029Y19058D01*
X461871Y17702D01*
X460940Y16182D01*
X460257Y14535D01*
X459841Y12801D01*
X459701Y11024D01*
X459841Y9246D01*
X460257Y7513D01*
X460940Y5866D01*
X461871Y4345D01*
X463029Y2990D01*
X464385Y1832D01*
X465905Y900D01*
X466834Y515D01*
X466734Y15D01*
X115945D01*
Y20372D01*
X120060Y24487D01*
X120060Y24487D01*
X120236Y24750D01*
X120297Y25059D01*
X120297Y25059D01*
Y32342D01*
X123367Y35411D01*
X156948D01*
X160411Y31948D01*
Y23961D01*
X160221Y23834D01*
X159915Y23375D01*
X159808Y22835D01*
X159915Y22294D01*
X160221Y21836D01*
X160680Y21529D01*
X161221Y21422D01*
X161761Y21529D01*
X162220Y21836D01*
X162526Y22294D01*
X162633Y22835D01*
X162526Y23375D01*
X162220Y23834D01*
X162030Y23961D01*
Y32283D01*
X161968Y32593D01*
X161793Y32856D01*
X161793Y32856D01*
X158512Y36137D01*
X158703Y36599D01*
X197887D01*
X202537Y31948D01*
Y23961D01*
X202347Y23834D01*
X202041Y23375D01*
X201934Y22835D01*
X202041Y22294D01*
X202347Y21836D01*
X202806Y21529D01*
X203346Y21422D01*
X203887Y21529D01*
X204346Y21836D01*
X204652Y22294D01*
X204759Y22835D01*
X204652Y23375D01*
X204346Y23834D01*
X204156Y23961D01*
Y32283D01*
X204094Y32593D01*
X203919Y32856D01*
X203919Y32856D01*
X199450Y37324D01*
X199642Y37786D01*
X238825D01*
X244663Y31948D01*
Y23961D01*
X244473Y23834D01*
X244167Y23375D01*
X244059Y22835D01*
X244167Y22294D01*
X244473Y21836D01*
X244932Y21529D01*
X245472Y21422D01*
X246013Y21529D01*
X246472Y21836D01*
X246778Y22294D01*
X246885Y22835D01*
X246778Y23375D01*
X246472Y23834D01*
X246282Y23961D01*
Y32283D01*
X246220Y32593D01*
X246045Y32856D01*
X246045Y32856D01*
X240389Y38511D01*
X240580Y38973D01*
X279764D01*
X286789Y31948D01*
Y23961D01*
X286599Y23834D01*
X286293Y23375D01*
X286185Y22835D01*
X286293Y22294D01*
X286599Y21836D01*
X287058Y21529D01*
X287598Y21422D01*
X288139Y21529D01*
X288597Y21836D01*
X288904Y22294D01*
X289011Y22835D01*
X288904Y23375D01*
X288597Y23834D01*
X288408Y23961D01*
Y32283D01*
X288346Y32593D01*
X288171Y32856D01*
X288171Y32856D01*
X281327Y39699D01*
X281519Y40161D01*
X320703D01*
X328915Y31948D01*
Y23961D01*
X328725Y23834D01*
X328419Y23375D01*
X328311Y22835D01*
X328419Y22294D01*
X328725Y21836D01*
X329184Y21529D01*
X329724Y21422D01*
X330265Y21529D01*
X330724Y21836D01*
X331030Y22294D01*
X331137Y22835D01*
X331030Y23375D01*
X330724Y23834D01*
X330534Y23961D01*
Y32283D01*
X330534Y32283D01*
X330472Y32593D01*
X330297Y32856D01*
X330297Y32856D01*
X322266Y40886D01*
X322457Y41348D01*
X361641D01*
X371041Y31948D01*
Y23961D01*
X370851Y23834D01*
X370545Y23375D01*
X370437Y22835D01*
X370545Y22294D01*
X370851Y21836D01*
X371310Y21529D01*
X371850Y21422D01*
X372391Y21529D01*
X372849Y21836D01*
X373156Y22294D01*
X373263Y22835D01*
X373156Y23375D01*
X372849Y23834D01*
X372660Y23961D01*
Y32283D01*
X372660Y32283D01*
X372598Y32593D01*
X372423Y32856D01*
X363205Y42074D01*
X363396Y42536D01*
X402580D01*
X413167Y31948D01*
Y23961D01*
X412977Y23834D01*
X412671Y23375D01*
X412563Y22835D01*
X412671Y22294D01*
X412977Y21836D01*
X413436Y21529D01*
X413976Y21422D01*
X414517Y21529D01*
X414976Y21836D01*
X415282Y22294D01*
X415389Y22835D01*
X415282Y23375D01*
X414976Y23834D01*
X414786Y23961D01*
Y32283D01*
X414786Y32283D01*
X414724Y32593D01*
X414549Y32856D01*
X414549Y32856D01*
X403487Y43917D01*
X403225Y44093D01*
X402915Y44154D01*
X402915Y44154D01*
X120080D01*
X119771Y44093D01*
X119508Y43917D01*
X119508Y43917D01*
X116407Y40816D01*
X115945Y41007D01*
X115945Y72340D01*
X120060Y76456D01*
X120060Y76456D01*
X120236Y76718D01*
X120297Y77028D01*
X120297Y77028D01*
Y84311D01*
X123367Y87380D01*
X156948D01*
X160411Y83917D01*
Y75929D01*
X160221Y75802D01*
X159915Y75344D01*
X159808Y74803D01*
X159915Y74262D01*
X160221Y73804D01*
X160680Y73498D01*
X161221Y73390D01*
X161761Y73498D01*
X162220Y73804D01*
X162526Y74262D01*
X162633Y74803D01*
X162526Y75344D01*
X162220Y75802D01*
X162030Y75929D01*
Y84252D01*
X161968Y84562D01*
X161793Y84824D01*
X161793Y84824D01*
X158512Y88105D01*
X158703Y88567D01*
X197887D01*
X202537Y83917D01*
Y75929D01*
X202347Y75802D01*
X202041Y75344D01*
X201934Y74803D01*
X202041Y74262D01*
X202347Y73804D01*
X202806Y73498D01*
X203346Y73390D01*
X203887Y73498D01*
X204346Y73804D01*
X204652Y74262D01*
X204759Y74803D01*
X204652Y75344D01*
X204346Y75802D01*
X204156Y75929D01*
Y84252D01*
X204094Y84562D01*
X203919Y84824D01*
X203919Y84824D01*
X199450Y89293D01*
X199642Y89754D01*
X238825D01*
X244663Y83917D01*
Y75929D01*
X244473Y75802D01*
X244167Y75344D01*
X244059Y74803D01*
X244167Y74262D01*
X244473Y73804D01*
X244932Y73498D01*
X245472Y73390D01*
X246013Y73498D01*
X246472Y73804D01*
X246778Y74262D01*
X246885Y74803D01*
X246778Y75344D01*
X246472Y75802D01*
X246282Y75929D01*
Y84252D01*
X246220Y84562D01*
X246045Y84824D01*
X246045Y84824D01*
X240389Y90480D01*
X240580Y90942D01*
X279764D01*
X286789Y83917D01*
Y75929D01*
X286599Y75802D01*
X286293Y75344D01*
X286185Y74803D01*
X286293Y74262D01*
X286599Y73804D01*
X287058Y73498D01*
X287598Y73390D01*
X288139Y73498D01*
X288597Y73804D01*
X288904Y74262D01*
X289011Y74803D01*
X288904Y75344D01*
X288597Y75802D01*
X288408Y75929D01*
Y84252D01*
X288346Y84562D01*
X288171Y84824D01*
X288171Y84824D01*
X281327Y91667D01*
X281519Y92129D01*
X320703D01*
X328915Y83917D01*
Y75929D01*
X328725Y75802D01*
X328419Y75344D01*
X328311Y74803D01*
X328419Y74262D01*
X328725Y73804D01*
X329184Y73498D01*
X329724Y73390D01*
X330265Y73498D01*
X330724Y73804D01*
X331030Y74262D01*
X331137Y74803D01*
X331030Y75344D01*
X330724Y75802D01*
X330534Y75929D01*
Y84252D01*
X330534Y84252D01*
X330472Y84562D01*
X330297Y84824D01*
X330297Y84824D01*
X322266Y92855D01*
X322457Y93317D01*
X361641D01*
X371041Y83917D01*
Y75929D01*
X370851Y75802D01*
X370545Y75344D01*
X370437Y74803D01*
X370545Y74262D01*
X370851Y73804D01*
X371310Y73498D01*
X371850Y73390D01*
X372391Y73498D01*
X372849Y73804D01*
X373156Y74262D01*
X373263Y74803D01*
X373156Y75344D01*
X372849Y75802D01*
X372660Y75929D01*
Y84252D01*
X372660Y84252D01*
X372598Y84562D01*
X372423Y84824D01*
X363205Y94042D01*
X363396Y94504D01*
X402580D01*
X413167Y83917D01*
Y75929D01*
X412977Y75802D01*
X412671Y75344D01*
X412563Y74803D01*
X412671Y74262D01*
X412977Y73804D01*
X413436Y73498D01*
X413976Y73390D01*
X414517Y73498D01*
X414976Y73804D01*
X415282Y74262D01*
X415389Y74803D01*
X415282Y75344D01*
X414976Y75802D01*
X414786Y75929D01*
Y84252D01*
X414786Y84252D01*
X414724Y84562D01*
X414549Y84824D01*
X414549Y84824D01*
X403487Y95886D01*
X403225Y96061D01*
X402915Y96123D01*
X402915Y96123D01*
X120080D01*
X119771Y96061D01*
X119508Y95886D01*
X119508Y95886D01*
X116407Y92784D01*
X115945Y92975D01*
Y124309D01*
X120060Y128424D01*
X120060Y128424D01*
X120236Y128687D01*
X120297Y128996D01*
X120297Y128996D01*
Y136279D01*
X123367Y139348D01*
X156948D01*
X160411Y135885D01*
Y127898D01*
X160221Y127771D01*
X159915Y127312D01*
X159808Y126772D01*
X159915Y126231D01*
X160221Y125773D01*
X160680Y125466D01*
X161221Y125359D01*
X161761Y125466D01*
X162220Y125773D01*
X162526Y126231D01*
X162633Y126772D01*
X162526Y127312D01*
X162220Y127771D01*
X162030Y127898D01*
Y136221D01*
X161968Y136530D01*
X161793Y136793D01*
X161793Y136793D01*
X158512Y140074D01*
X158703Y140536D01*
X197887D01*
X202537Y135885D01*
Y127898D01*
X202347Y127771D01*
X202041Y127312D01*
X201934Y126772D01*
X202041Y126231D01*
X202347Y125773D01*
X202806Y125466D01*
X203346Y125359D01*
X203887Y125466D01*
X204346Y125773D01*
X204652Y126231D01*
X204759Y126772D01*
X204652Y127312D01*
X204346Y127771D01*
X204156Y127898D01*
Y136221D01*
X204094Y136530D01*
X203919Y136793D01*
X203919Y136793D01*
X199450Y141261D01*
X199642Y141723D01*
X238825D01*
X244663Y135885D01*
Y127898D01*
X244473Y127771D01*
X244167Y127312D01*
X244059Y126772D01*
X244167Y126231D01*
X244473Y125773D01*
X244932Y125466D01*
X245472Y125359D01*
X246013Y125466D01*
X246472Y125773D01*
X246778Y126231D01*
X246885Y126772D01*
X246778Y127312D01*
X246472Y127771D01*
X246282Y127898D01*
Y136221D01*
X246220Y136530D01*
X246045Y136793D01*
X246045Y136793D01*
X240389Y142448D01*
X240580Y142910D01*
X279764D01*
X286789Y135885D01*
Y127898D01*
X286599Y127771D01*
X286293Y127312D01*
X286185Y126772D01*
X286293Y126231D01*
X286599Y125773D01*
X287058Y125466D01*
X287598Y125359D01*
X288139Y125466D01*
X288597Y125773D01*
X288904Y126231D01*
X289011Y126772D01*
X288904Y127312D01*
X288597Y127771D01*
X288408Y127898D01*
Y136221D01*
X288346Y136530D01*
X288171Y136793D01*
X288171Y136793D01*
X281327Y143636D01*
X281519Y144098D01*
X320703D01*
X328915Y135885D01*
Y127898D01*
X328725Y127771D01*
X328419Y127312D01*
X328311Y126772D01*
X328419Y126231D01*
X328725Y125773D01*
X329184Y125466D01*
X329724Y125359D01*
X330265Y125466D01*
X330724Y125773D01*
X331030Y126231D01*
X331137Y126772D01*
X331030Y127312D01*
X330724Y127771D01*
X330534Y127898D01*
Y136220D01*
X330534Y136221D01*
X330472Y136530D01*
X330297Y136793D01*
X330297Y136793D01*
X322266Y144823D01*
X322457Y145285D01*
X361641D01*
X371041Y135885D01*
Y127898D01*
X370851Y127771D01*
X370545Y127312D01*
X370437Y126772D01*
X370545Y126231D01*
X370851Y125773D01*
X371310Y125466D01*
X371850Y125359D01*
X372391Y125466D01*
X372849Y125773D01*
X373156Y126231D01*
X373263Y126772D01*
X373156Y127312D01*
X372849Y127771D01*
X372660Y127898D01*
Y136220D01*
X372660Y136221D01*
X372598Y136530D01*
X372423Y136793D01*
X363205Y146011D01*
X363396Y146473D01*
X402580D01*
X413167Y135885D01*
Y127898D01*
X412977Y127771D01*
X412671Y127312D01*
X412563Y126772D01*
X412671Y126231D01*
X412977Y125773D01*
X413436Y125466D01*
X413976Y125359D01*
X414517Y125466D01*
X414976Y125773D01*
X415282Y126231D01*
X415389Y126772D01*
X415282Y127312D01*
X414976Y127771D01*
X414786Y127898D01*
Y136220D01*
X414786Y136221D01*
X414724Y136530D01*
X414549Y136793D01*
X414549Y136793D01*
X403487Y147854D01*
X403225Y148029D01*
X402915Y148091D01*
X402915Y148091D01*
X120080D01*
X119771Y148029D01*
X119508Y147854D01*
X119508Y147854D01*
X116407Y144753D01*
X115945Y144944D01*
Y176277D01*
X120060Y180393D01*
X120060Y180393D01*
X120236Y180655D01*
X120297Y180965D01*
X120297Y180965D01*
Y188248D01*
X123367Y191317D01*
X156948D01*
X160411Y187854D01*
Y179866D01*
X160221Y179739D01*
X159915Y179281D01*
X159808Y178740D01*
X159915Y178199D01*
X160221Y177741D01*
X160680Y177435D01*
X161221Y177327D01*
X161761Y177435D01*
X162220Y177741D01*
X162526Y178199D01*
X162633Y178740D01*
X162526Y179281D01*
X162220Y179739D01*
X162030Y179866D01*
Y188189D01*
X161968Y188499D01*
X161793Y188761D01*
X161793Y188761D01*
X158512Y192042D01*
X158703Y192504D01*
X197887D01*
X202537Y187854D01*
Y179866D01*
X202347Y179739D01*
X202041Y179281D01*
X201934Y178740D01*
X202041Y178199D01*
X202347Y177741D01*
X202806Y177435D01*
X203346Y177327D01*
X203887Y177435D01*
X204346Y177741D01*
X204652Y178199D01*
X204759Y178740D01*
X204652Y179281D01*
X204346Y179739D01*
X204156Y179866D01*
Y188189D01*
X204094Y188499D01*
X203919Y188761D01*
X203919Y188761D01*
X199450Y193230D01*
X199642Y193692D01*
X238825D01*
X244663Y187854D01*
Y179866D01*
X244473Y179739D01*
X244167Y179281D01*
X244059Y178740D01*
X244167Y178199D01*
X244473Y177741D01*
X244932Y177435D01*
X245472Y177327D01*
X246013Y177435D01*
X246472Y177741D01*
X246778Y178199D01*
X246885Y178740D01*
X246778Y179281D01*
X246472Y179739D01*
X246282Y179866D01*
Y188189D01*
X246220Y188499D01*
X246045Y188761D01*
X246045Y188761D01*
X240389Y194417D01*
X240580Y194879D01*
X279764D01*
X286789Y187854D01*
Y179866D01*
X286599Y179739D01*
X286293Y179281D01*
X286185Y178740D01*
X286293Y178199D01*
X286599Y177741D01*
X287058Y177435D01*
X287598Y177327D01*
X288139Y177435D01*
X288597Y177741D01*
X288904Y178199D01*
X289011Y178740D01*
X288904Y179281D01*
X288597Y179739D01*
X288408Y179866D01*
Y188189D01*
X288346Y188499D01*
X288171Y188761D01*
X288171Y188761D01*
X281327Y195604D01*
X281519Y196066D01*
X320703D01*
X328915Y187854D01*
Y179866D01*
X328725Y179739D01*
X328419Y179281D01*
X328311Y178740D01*
X328419Y178199D01*
X328725Y177741D01*
X329184Y177435D01*
X329724Y177327D01*
X330265Y177435D01*
X330724Y177741D01*
X331030Y178199D01*
X331137Y178740D01*
X331030Y179281D01*
X330724Y179739D01*
X330534Y179866D01*
Y188189D01*
X330534Y188189D01*
X330472Y188499D01*
X330297Y188761D01*
X330297Y188761D01*
X322266Y196792D01*
X322457Y197254D01*
X361641D01*
X371041Y187854D01*
Y179866D01*
X370851Y179739D01*
X370545Y179281D01*
X370437Y178740D01*
X370545Y178199D01*
X370851Y177741D01*
X371310Y177435D01*
X371850Y177327D01*
X372391Y177435D01*
X372849Y177741D01*
X373156Y178199D01*
X373263Y178740D01*
X373156Y179281D01*
X372849Y179739D01*
X372660Y179866D01*
Y188189D01*
X372660Y188189D01*
X372598Y188499D01*
X372423Y188761D01*
X363205Y197979D01*
X363396Y198441D01*
X402580D01*
X413167Y187854D01*
Y179866D01*
X412977Y179739D01*
X412671Y179281D01*
X412563Y178740D01*
X412671Y178199D01*
X412977Y177741D01*
X413436Y177435D01*
X413976Y177327D01*
X414517Y177435D01*
X414976Y177741D01*
X415282Y178199D01*
X415389Y178740D01*
X415282Y179281D01*
X414976Y179739D01*
X414786Y179866D01*
Y188189D01*
X414786Y188189D01*
X414724Y188499D01*
X414549Y188761D01*
X414549Y188761D01*
X403487Y199823D01*
X403225Y199998D01*
X402915Y200060D01*
X402915Y200060D01*
X120080D01*
X119771Y199998D01*
X119508Y199823D01*
X119508Y199823D01*
X116407Y196721D01*
X115945Y196913D01*
X115945Y228246D01*
X120060Y232361D01*
X120060Y232361D01*
X120236Y232624D01*
X120297Y232933D01*
X120297Y232933D01*
Y240216D01*
X123367Y243285D01*
X156948D01*
X160411Y239822D01*
Y231835D01*
X160221Y231708D01*
X159915Y231249D01*
X159808Y230709D01*
X159915Y230168D01*
X160221Y229710D01*
X160680Y229403D01*
X161221Y229296D01*
X161761Y229403D01*
X162220Y229710D01*
X162526Y230168D01*
X162633Y230709D01*
X162526Y231249D01*
X162220Y231708D01*
X162030Y231835D01*
Y240158D01*
X161968Y240467D01*
X161793Y240730D01*
X161793Y240730D01*
X158512Y244011D01*
X158703Y244473D01*
X197887D01*
X202537Y239822D01*
Y231835D01*
X202347Y231708D01*
X202041Y231249D01*
X201934Y230709D01*
X202041Y230168D01*
X202347Y229710D01*
X202806Y229403D01*
X203346Y229296D01*
X203887Y229403D01*
X204346Y229710D01*
X204652Y230168D01*
X204759Y230709D01*
X204652Y231249D01*
X204346Y231708D01*
X204156Y231835D01*
Y240158D01*
X204094Y240467D01*
X203919Y240730D01*
X203919Y240730D01*
X199450Y245198D01*
X199642Y245660D01*
X238825D01*
X244663Y239822D01*
Y231835D01*
X244473Y231708D01*
X244167Y231249D01*
X244059Y230709D01*
X244167Y230168D01*
X244473Y229710D01*
X244932Y229403D01*
X245472Y229296D01*
X246013Y229403D01*
X246472Y229710D01*
X246778Y230168D01*
X246885Y230709D01*
X246778Y231249D01*
X246472Y231708D01*
X246282Y231835D01*
Y240158D01*
X246220Y240467D01*
X246045Y240730D01*
X246045Y240730D01*
X240389Y246386D01*
X240580Y246847D01*
X279764D01*
X286789Y239822D01*
Y231835D01*
X286599Y231708D01*
X286293Y231249D01*
X286185Y230709D01*
X286293Y230168D01*
X286599Y229710D01*
X287058Y229403D01*
X287598Y229296D01*
X288139Y229403D01*
X288597Y229710D01*
X288904Y230168D01*
X289011Y230709D01*
X288904Y231249D01*
X288597Y231708D01*
X288408Y231835D01*
Y240158D01*
X288346Y240467D01*
X288171Y240730D01*
X288171Y240730D01*
X281327Y247573D01*
X281519Y248035D01*
X320703D01*
X328915Y239822D01*
Y231835D01*
X328725Y231708D01*
X328419Y231249D01*
X328311Y230709D01*
X328419Y230168D01*
X328725Y229710D01*
X329184Y229403D01*
X329724Y229296D01*
X330265Y229403D01*
X330724Y229710D01*
X331030Y230168D01*
X331137Y230709D01*
X331030Y231249D01*
X330724Y231708D01*
X330534Y231835D01*
Y240157D01*
X330534Y240158D01*
X330472Y240467D01*
X330297Y240730D01*
X330297Y240730D01*
X322266Y248760D01*
X322457Y249222D01*
X361641D01*
X371041Y239822D01*
Y231835D01*
X370851Y231708D01*
X370545Y231249D01*
X370437Y230709D01*
X370545Y230168D01*
X370851Y229710D01*
X371310Y229403D01*
X371850Y229296D01*
X372391Y229403D01*
X372849Y229710D01*
X373156Y230168D01*
X373263Y230709D01*
X373156Y231249D01*
X372849Y231708D01*
X372660Y231835D01*
Y240157D01*
X372660Y240158D01*
X372598Y240467D01*
X372423Y240730D01*
X363205Y249948D01*
X363396Y250410D01*
X402580D01*
X413167Y239822D01*
Y231835D01*
X412977Y231708D01*
X412671Y231249D01*
X412563Y230709D01*
X412671Y230168D01*
X412977Y229710D01*
X413436Y229403D01*
X413976Y229296D01*
X414517Y229403D01*
X414976Y229710D01*
X415282Y230168D01*
X415389Y230709D01*
X415282Y231249D01*
X414976Y231708D01*
X414786Y231835D01*
Y240157D01*
X414786Y240158D01*
X414724Y240467D01*
X414549Y240730D01*
X414549Y240730D01*
X403487Y251791D01*
X403225Y251967D01*
X402915Y252028D01*
X402915Y252028D01*
X120080D01*
X119771Y251967D01*
X119508Y251791D01*
X119508Y251791D01*
X116407Y248690D01*
X115945Y248881D01*
Y277937D01*
X466734Y277937D01*
D02*
G37*
%LPC*%
G36*
X108465Y267161D02*
X107924Y267053D01*
X107465Y266747D01*
X107159Y266289D01*
X107052Y265748D01*
X107159Y265207D01*
X107465Y264749D01*
X107924Y264443D01*
X108465Y264335D01*
X109005Y264443D01*
X109464Y264749D01*
X109770Y265207D01*
X109878Y265748D01*
X109770Y266289D01*
X109464Y266747D01*
X109005Y267053D01*
X108465Y267161D01*
D02*
G37*
G36*
X67913Y262043D02*
X67373Y261935D01*
X66914Y261629D01*
X66608Y261171D01*
X66500Y260630D01*
X66608Y260089D01*
X66914Y259631D01*
X67373Y259325D01*
X67913Y259217D01*
X68454Y259325D01*
X68913Y259631D01*
X69219Y260089D01*
X69326Y260630D01*
X69219Y261171D01*
X68913Y261629D01*
X68454Y261935D01*
X67913Y262043D01*
D02*
G37*
G36*
X108465Y252988D02*
X107924Y252880D01*
X107465Y252574D01*
X107159Y252116D01*
X107052Y251575D01*
X107159Y251034D01*
X107465Y250576D01*
X107924Y250269D01*
X108465Y250162D01*
X109005Y250269D01*
X109464Y250576D01*
X109770Y251034D01*
X109878Y251575D01*
X109770Y252116D01*
X109464Y252574D01*
X109005Y252880D01*
X108465Y252988D01*
D02*
G37*
G36*
X107677Y249051D02*
X107136Y248943D01*
X106678Y248637D01*
X106372Y248179D01*
X106264Y247638D01*
X106372Y247097D01*
X106678Y246639D01*
X107136Y246332D01*
X107677Y246225D01*
X108218Y246332D01*
X108676Y246639D01*
X108983Y247097D01*
X109090Y247638D01*
X108983Y248179D01*
X108676Y248637D01*
X108218Y248943D01*
X107677Y249051D01*
D02*
G37*
G36*
X54134Y251807D02*
X53593Y251699D01*
X53135Y251393D01*
X52828Y250934D01*
X52721Y250394D01*
X52828Y249853D01*
X53135Y249395D01*
X53325Y249268D01*
Y241061D01*
X53205Y241017D01*
X52825Y240978D01*
X52574Y241353D01*
X52115Y241660D01*
X51575Y241767D01*
X51034Y241660D01*
X50576Y241353D01*
X50269Y240895D01*
X50162Y240354D01*
X50269Y239814D01*
X50576Y239355D01*
X51034Y239049D01*
X51575Y238941D01*
X52115Y239049D01*
X52574Y239355D01*
X52825Y239730D01*
X53205Y239692D01*
X53325Y239647D01*
Y199551D01*
X53135Y199424D01*
X52828Y198966D01*
X52721Y198425D01*
X52828Y197885D01*
X53135Y197426D01*
X53325Y197299D01*
Y192015D01*
X52825Y191863D01*
X52771Y191944D01*
X52312Y192250D01*
X51772Y192358D01*
X51231Y192250D01*
X50773Y191944D01*
X50466Y191486D01*
X50359Y190945D01*
X50466Y190404D01*
X50773Y189946D01*
X51231Y189639D01*
X51772Y189532D01*
X52312Y189639D01*
X52771Y189946D01*
X52825Y190026D01*
X53325Y189875D01*
Y147583D01*
X53135Y147456D01*
X52828Y146997D01*
X52721Y146457D01*
X52828Y145916D01*
X53135Y145458D01*
X53325Y145331D01*
Y140047D01*
X52825Y139895D01*
X52771Y139976D01*
X52312Y140282D01*
X51772Y140389D01*
X51231Y140282D01*
X50773Y139976D01*
X50466Y139517D01*
X50359Y138976D01*
X50466Y138436D01*
X50773Y137977D01*
X51231Y137671D01*
X51772Y137563D01*
X52312Y137671D01*
X52771Y137977D01*
X52825Y138058D01*
X53325Y137906D01*
Y95614D01*
X53135Y95487D01*
X52828Y95029D01*
X52721Y94488D01*
X52828Y93947D01*
X53135Y93489D01*
X53325Y93362D01*
Y43646D01*
X53135Y43519D01*
X52828Y43060D01*
X52721Y42520D01*
X52828Y41979D01*
X53135Y41521D01*
X53593Y41214D01*
X54134Y41107D01*
X54675Y41214D01*
X54788Y41290D01*
X55148Y40929D01*
X54994Y40698D01*
X54886Y40157D01*
X54994Y39617D01*
X55300Y39158D01*
X55759Y38852D01*
X56299Y38745D01*
X56840Y38852D01*
X57298Y39158D01*
X57605Y39617D01*
X57712Y40157D01*
X57605Y40698D01*
X57298Y41157D01*
X57108Y41284D01*
Y91000D01*
X57298Y91127D01*
X57605Y91585D01*
X57712Y92126D01*
X57605Y92667D01*
X57298Y93125D01*
X57108Y93252D01*
Y142968D01*
X57298Y143095D01*
X57605Y143554D01*
X57712Y144095D01*
X57605Y144635D01*
X57298Y145094D01*
X57108Y145220D01*
Y194937D01*
X57298Y195064D01*
X57605Y195522D01*
X57712Y196063D01*
X57605Y196604D01*
X57298Y197062D01*
X57108Y197189D01*
Y246905D01*
X57298Y247032D01*
X57605Y247491D01*
X57712Y248031D01*
X57605Y248572D01*
X57298Y249031D01*
X56840Y249337D01*
X56299Y249445D01*
X55759Y249337D01*
X55645Y249261D01*
X55285Y249622D01*
X55439Y249853D01*
X55547Y250394D01*
X55439Y250934D01*
X55133Y251393D01*
X54675Y251699D01*
X54134Y251807D01*
D02*
G37*
G36*
X27953Y237437D02*
X27412Y237329D01*
X26954Y237023D01*
X26647Y236564D01*
X26540Y236024D01*
X26647Y235483D01*
X26954Y235024D01*
X27412Y234718D01*
X27953Y234611D01*
X28177Y234655D01*
X31671Y231161D01*
Y211570D01*
X31171Y211470D01*
X31076Y211699D01*
X30612Y212304D01*
X30006Y212769D01*
X29300Y213062D01*
X28543Y213161D01*
X27786Y213062D01*
X27081Y212769D01*
X26475Y212304D01*
X26010Y211699D01*
X25718Y210993D01*
X25618Y210236D01*
X25718Y209479D01*
X26010Y208774D01*
X26475Y208168D01*
X27081Y207703D01*
X27786Y207411D01*
X28543Y207311D01*
X29300Y207411D01*
X30006Y207703D01*
X30612Y208168D01*
X31076Y208774D01*
X31171Y209002D01*
X31671Y208903D01*
Y203696D01*
X31171Y203596D01*
X31076Y203825D01*
X30612Y204431D01*
X30006Y204895D01*
X29300Y205188D01*
X28743Y205261D01*
Y202362D01*
X28543D01*
D01*
X28743D01*
Y199463D01*
X29300Y199537D01*
X30006Y199829D01*
X30612Y200294D01*
X31076Y200900D01*
X31171Y201128D01*
X31671Y201029D01*
Y182830D01*
X31171Y182730D01*
X31076Y182959D01*
X30612Y183564D01*
X30006Y184029D01*
X29300Y184321D01*
X28543Y184421D01*
X27786Y184321D01*
X27081Y184029D01*
X26475Y183564D01*
X26010Y182959D01*
X25718Y182253D01*
X25618Y181496D01*
X25718Y180739D01*
X26010Y180034D01*
X26475Y179428D01*
X27081Y178963D01*
X27786Y178671D01*
X28543Y178571D01*
X29300Y178671D01*
X30006Y178963D01*
X30612Y179428D01*
X31076Y180034D01*
X31171Y180262D01*
X31671Y180163D01*
Y174956D01*
X31171Y174856D01*
X31076Y175084D01*
X30612Y175690D01*
X30006Y176155D01*
X29300Y176447D01*
X28743Y176521D01*
Y173622D01*
Y170723D01*
X29300Y170797D01*
X30006Y171089D01*
X30612Y171554D01*
X31076Y172160D01*
X31171Y172388D01*
X31671Y172289D01*
Y141519D01*
X30118Y139966D01*
X29959Y140014D01*
X29612Y140167D01*
X29346Y140566D01*
X28887Y140872D01*
X28346Y140980D01*
X27806Y140872D01*
X27347Y140566D01*
X27041Y140108D01*
X26934Y139567D01*
X27041Y139026D01*
X27347Y138568D01*
X27746Y138301D01*
X27899Y137954D01*
X27947Y137795D01*
X26199Y136048D01*
X26024Y135785D01*
X25962Y135476D01*
X25962Y135475D01*
Y132203D01*
X25843Y132158D01*
X25462Y132120D01*
X25212Y132495D01*
X24753Y132801D01*
X24213Y132909D01*
X23989Y132864D01*
X18132Y138721D01*
Y164822D01*
X20060Y166751D01*
X20060Y166751D01*
X20236Y167013D01*
X20297Y167323D01*
X20297Y167323D01*
Y232342D01*
X22611Y234655D01*
X22835Y234611D01*
X23375Y234718D01*
X23834Y235024D01*
X24140Y235483D01*
X24248Y236024D01*
X24140Y236564D01*
X23834Y237023D01*
X23375Y237329D01*
X22835Y237437D01*
X22294Y237329D01*
X21836Y237023D01*
X21529Y236564D01*
X21422Y236024D01*
X21466Y235800D01*
X19223Y233556D01*
X18723Y233763D01*
Y234504D01*
X18913Y234631D01*
X19219Y235089D01*
X19326Y235630D01*
X19219Y236171D01*
X18913Y236629D01*
X18454Y236935D01*
X17913Y237043D01*
X17373Y236935D01*
X16914Y236629D01*
X16608Y236171D01*
X16500Y235630D01*
X16608Y235089D01*
X16914Y234631D01*
X17104Y234504D01*
Y169350D01*
X14782Y167028D01*
X14607Y166765D01*
X14545Y166455D01*
X14545Y166455D01*
Y129469D01*
X7892Y122816D01*
X7717Y122554D01*
X7655Y122244D01*
X7655Y122244D01*
Y91714D01*
X7655Y91714D01*
X7717Y91404D01*
X7892Y91141D01*
X18285Y80749D01*
Y65299D01*
X18095Y65172D01*
X17789Y64714D01*
X17682Y64173D01*
X17789Y63633D01*
X18095Y63174D01*
X18554Y62868D01*
X19094Y62760D01*
X19635Y62868D01*
X20094Y63174D01*
X20400Y63633D01*
X20507Y64173D01*
X20400Y64714D01*
X20094Y65172D01*
X19904Y65299D01*
Y81084D01*
X19904Y81084D01*
X19842Y81393D01*
X19667Y81656D01*
X19667Y81656D01*
X9274Y92049D01*
Y111479D01*
X9315Y111515D01*
X9774Y111701D01*
X10089Y111490D01*
X10630Y111382D01*
X11171Y111490D01*
X11629Y111796D01*
X11935Y112255D01*
X12043Y112795D01*
X11935Y113336D01*
X11629Y113794D01*
X11171Y114101D01*
X10630Y114208D01*
X10089Y114101D01*
X9774Y113890D01*
X9315Y114075D01*
X9274Y114111D01*
Y121909D01*
X15926Y128562D01*
X15927Y128562D01*
X16102Y128824D01*
X16164Y129134D01*
X16164Y129134D01*
Y137792D01*
X16664Y137944D01*
X16751Y137814D01*
X22844Y131720D01*
X22800Y131496D01*
X22907Y130955D01*
X23213Y130497D01*
X23672Y130191D01*
X24213Y130083D01*
X24753Y130191D01*
X25212Y130497D01*
X25462Y130872D01*
X25843Y130834D01*
X25962Y130789D01*
Y124825D01*
X16535D01*
X16535Y124825D01*
X16226Y124763D01*
X15963Y124588D01*
X15963Y124588D01*
X15381Y124006D01*
X15157Y124051D01*
X14617Y123943D01*
X14158Y123637D01*
X13852Y123179D01*
X13745Y122638D01*
X13852Y122097D01*
X14158Y121639D01*
X14617Y121332D01*
X15157Y121225D01*
X15698Y121332D01*
X16157Y121639D01*
X16463Y122097D01*
X16570Y122638D01*
X16526Y122862D01*
X16871Y123206D01*
X22745D01*
X22794Y122706D01*
X22763Y122700D01*
X22304Y122394D01*
X21998Y121936D01*
X21891Y121395D01*
X21998Y120854D01*
X22304Y120396D01*
X22419Y120319D01*
Y65299D01*
X22229Y65172D01*
X21923Y64714D01*
X21815Y64173D01*
X21923Y63633D01*
X22229Y63174D01*
X22688Y62868D01*
X23228Y62760D01*
X23769Y62868D01*
X24227Y63174D01*
X24534Y63633D01*
X24641Y64173D01*
X24534Y64714D01*
X24227Y65172D01*
X24038Y65299D01*
Y120219D01*
X24303Y120396D01*
X24478Y120659D01*
X24978Y120507D01*
Y103937D01*
X24978Y103937D01*
X25040Y103627D01*
X25215Y103365D01*
X27340Y101240D01*
Y95982D01*
X26840Y95714D01*
X26722Y95794D01*
X26181Y95901D01*
X25640Y95794D01*
X25182Y95487D01*
X24876Y95029D01*
X24768Y94488D01*
X24876Y93947D01*
X25182Y93489D01*
X25480Y93290D01*
X25491Y93259D01*
Y92765D01*
X25480Y92734D01*
X25182Y92535D01*
X24876Y92076D01*
X24768Y91535D01*
X24876Y90995D01*
X25182Y90536D01*
X25640Y90230D01*
X26181Y90122D01*
X26722Y90230D01*
X26840Y90309D01*
X27340Y90042D01*
Y58213D01*
X27150Y58086D01*
X26844Y57627D01*
X26737Y57087D01*
X26844Y56546D01*
X27150Y56087D01*
X27609Y55781D01*
X28150Y55674D01*
X28690Y55781D01*
X29149Y56087D01*
X29455Y56546D01*
X29563Y57087D01*
X29455Y57627D01*
X29149Y58086D01*
X28959Y58213D01*
Y101575D01*
X28959Y101575D01*
X28897Y101884D01*
X28722Y102147D01*
X28722Y102147D01*
X26597Y104272D01*
Y122696D01*
X27344Y123443D01*
X27519Y123706D01*
X27581Y124016D01*
X27581Y124016D01*
Y135140D01*
X33053Y140612D01*
X33053Y140612D01*
X33228Y140875D01*
X33290Y141184D01*
Y231496D01*
X33290Y231496D01*
X33228Y231806D01*
X33053Y232068D01*
X33053Y232068D01*
X29321Y235800D01*
X29366Y236024D01*
X29258Y236564D01*
X28952Y237023D01*
X28493Y237329D01*
X27953Y237437D01*
D02*
G37*
G36*
X65354Y226216D02*
X64814Y226109D01*
X64355Y225802D01*
X64049Y225344D01*
X63941Y224803D01*
X64049Y224262D01*
X64355Y223804D01*
X64814Y223498D01*
X65354Y223390D01*
X65895Y223498D01*
X66353Y223804D01*
X66660Y224262D01*
X66767Y224803D01*
X66660Y225344D01*
X66353Y225802D01*
X65895Y226109D01*
X65354Y226216D01*
D02*
G37*
G36*
X107677Y222279D02*
X107136Y222171D01*
X106678Y221865D01*
X106372Y221407D01*
X106264Y220866D01*
X106372Y220325D01*
X106678Y219867D01*
X107136Y219561D01*
X107677Y219453D01*
X108218Y219561D01*
X108676Y219867D01*
X108983Y220325D01*
X109090Y220866D01*
X108983Y221407D01*
X108676Y221865D01*
X108218Y222171D01*
X107677Y222279D01*
D02*
G37*
G36*
X108465Y215193D02*
X107924Y215085D01*
X107465Y214779D01*
X107159Y214320D01*
X107052Y213779D01*
X107159Y213239D01*
X107465Y212780D01*
X107924Y212474D01*
X108465Y212367D01*
X109005Y212474D01*
X109464Y212780D01*
X109770Y213239D01*
X109878Y213779D01*
X109770Y214320D01*
X109464Y214779D01*
X109005Y215085D01*
X108465Y215193D01*
D02*
G37*
G36*
X6302Y214064D02*
Y210909D01*
X9458D01*
X9369Y211584D01*
X9031Y212400D01*
X8494Y213100D01*
X7793Y213637D01*
X6978Y213975D01*
X6302Y214064D01*
D02*
G37*
G36*
X5902D02*
X5227Y213975D01*
X4411Y213637D01*
X3711Y213100D01*
X3174Y212400D01*
X2836Y211584D01*
X2747Y210909D01*
X5902D01*
Y214064D01*
D02*
G37*
G36*
X9458Y210509D02*
X6302D01*
Y207353D01*
X6978Y207442D01*
X7793Y207780D01*
X8494Y208317D01*
X9031Y209018D01*
X9369Y209833D01*
X9458Y210509D01*
D02*
G37*
G36*
X5902D02*
X2747D01*
X2836Y209833D01*
X3174Y209018D01*
X3711Y208317D01*
X4411Y207780D01*
X5227Y207442D01*
X5902Y207353D01*
Y210509D01*
D02*
G37*
G36*
X67913Y210074D02*
X67373Y209967D01*
X66914Y209661D01*
X66608Y209202D01*
X66500Y208661D01*
X66608Y208121D01*
X66914Y207662D01*
X67373Y207356D01*
X67913Y207248D01*
X68454Y207356D01*
X68913Y207662D01*
X69219Y208121D01*
X69326Y208661D01*
X69219Y209202D01*
X68913Y209661D01*
X68454Y209967D01*
X67913Y210074D01*
D02*
G37*
G36*
X28343Y205261D02*
X27786Y205188D01*
X27081Y204895D01*
X26475Y204431D01*
X26010Y203825D01*
X25718Y203119D01*
X25645Y202562D01*
X28343D01*
Y205261D01*
D02*
G37*
G36*
Y202162D02*
X25645D01*
X25718Y201605D01*
X26010Y200900D01*
X26475Y200294D01*
X27081Y199829D01*
X27786Y199537D01*
X28343Y199463D01*
Y202162D01*
D02*
G37*
G36*
X108465Y201019D02*
X107924Y200912D01*
X107465Y200605D01*
X107159Y200147D01*
X107052Y199606D01*
X107159Y199066D01*
X107465Y198607D01*
X107924Y198301D01*
X108465Y198193D01*
X109005Y198301D01*
X109464Y198607D01*
X109770Y199066D01*
X109878Y199606D01*
X109770Y200147D01*
X109464Y200605D01*
X109005Y200912D01*
X108465Y201019D01*
D02*
G37*
G36*
X6102Y204090D02*
X5227Y203975D01*
X4411Y203637D01*
X3711Y203100D01*
X3174Y202399D01*
X2836Y201584D01*
X2721Y200709D01*
X2836Y199833D01*
X3174Y199018D01*
X3711Y198317D01*
X4411Y197780D01*
X5227Y197442D01*
X6102Y197327D01*
X6978Y197442D01*
X7793Y197780D01*
X8494Y198317D01*
X9031Y199018D01*
X9369Y199833D01*
X9484Y200709D01*
X9369Y201584D01*
X9031Y202399D01*
X8494Y203100D01*
X7793Y203637D01*
X6978Y203975D01*
X6102Y204090D01*
D02*
G37*
G36*
X107677Y197082D02*
X107136Y196975D01*
X106678Y196668D01*
X106372Y196210D01*
X106264Y195669D01*
X106372Y195129D01*
X106678Y194670D01*
X107136Y194364D01*
X107677Y194256D01*
X108218Y194364D01*
X108676Y194670D01*
X108983Y195129D01*
X109090Y195669D01*
X108983Y196210D01*
X108676Y196668D01*
X108218Y196975D01*
X107677Y197082D01*
D02*
G37*
G36*
X99803Y191570D02*
X99262Y191463D01*
X98804Y191157D01*
X98498Y190698D01*
X98390Y190157D01*
X98498Y189617D01*
X98804Y189158D01*
X99262Y188852D01*
X99803Y188744D01*
X100344Y188852D01*
X100802Y189158D01*
X101109Y189617D01*
X101216Y190157D01*
X101109Y190698D01*
X100802Y191157D01*
X100344Y191463D01*
X99803Y191570D01*
D02*
G37*
G36*
X6102Y194090D02*
X5227Y193975D01*
X4411Y193637D01*
X3711Y193100D01*
X3174Y192400D01*
X2836Y191584D01*
X2721Y190709D01*
X2836Y189833D01*
X3174Y189018D01*
X3711Y188317D01*
X4411Y187780D01*
X5227Y187442D01*
X6102Y187327D01*
X6978Y187442D01*
X7793Y187780D01*
X8494Y188317D01*
X9031Y189018D01*
X9369Y189833D01*
X9484Y190709D01*
X9369Y191584D01*
X9031Y192400D01*
X8494Y193100D01*
X7793Y193637D01*
X6978Y193975D01*
X6102Y194090D01*
D02*
G37*
G36*
X94685Y188421D02*
X94144Y188313D01*
X93686Y188007D01*
X93380Y187549D01*
X93272Y187008D01*
X93380Y186467D01*
X93686Y186009D01*
X94144Y185702D01*
X94685Y185595D01*
X95226Y185702D01*
X95684Y186009D01*
X95990Y186467D01*
X96098Y187008D01*
X95990Y187549D01*
X95684Y188007D01*
X95226Y188313D01*
X94685Y188421D01*
D02*
G37*
G36*
X89567Y185271D02*
X89026Y185164D01*
X88568Y184857D01*
X88261Y184399D01*
X88154Y183858D01*
X88261Y183317D01*
X88568Y182859D01*
X89026Y182553D01*
X89567Y182445D01*
X89650Y182462D01*
X90031Y182124D01*
Y181656D01*
X89650Y181318D01*
X89567Y181334D01*
X89026Y181227D01*
X88568Y180920D01*
X88261Y180462D01*
X88154Y179921D01*
X88261Y179381D01*
X88568Y178922D01*
X89026Y178616D01*
X89567Y178508D01*
X89730Y178541D01*
X90155Y178115D01*
X90122Y177953D01*
X90230Y177412D01*
X90536Y176954D01*
X90995Y176647D01*
X91535Y176540D01*
X92076Y176647D01*
X92535Y176954D01*
X92841Y177412D01*
X92948Y177953D01*
X92841Y178493D01*
X92535Y178952D01*
X92076Y179258D01*
X91535Y179366D01*
X91453Y179349D01*
X91071Y179687D01*
Y180155D01*
X91453Y180493D01*
X91535Y180477D01*
X92076Y180584D01*
X92535Y180891D01*
X92841Y181349D01*
X92948Y181890D01*
X92841Y182431D01*
X92535Y182889D01*
X92076Y183195D01*
X91535Y183303D01*
X91373Y183270D01*
X90948Y183696D01*
X90980Y183858D01*
X90872Y184399D01*
X90566Y184857D01*
X90108Y185164D01*
X89567Y185271D01*
D02*
G37*
G36*
X9455Y184061D02*
X6302D01*
Y180909D01*
X9455D01*
Y184061D01*
D02*
G37*
G36*
X5902D02*
X2750D01*
Y180909D01*
X5902D01*
Y184061D01*
D02*
G37*
G36*
X9455Y180509D02*
X6302D01*
Y177356D01*
X9455D01*
Y180509D01*
D02*
G37*
G36*
X5902D02*
X2750D01*
Y177356D01*
X5902D01*
Y180509D01*
D02*
G37*
G36*
X28343Y176521D02*
X27786Y176447D01*
X27081Y176155D01*
X26475Y175690D01*
X26010Y175084D01*
X25718Y174379D01*
X25645Y173822D01*
X28343D01*
Y176521D01*
D02*
G37*
G36*
X94685Y175035D02*
X94144Y174927D01*
X93686Y174621D01*
X93380Y174163D01*
X93272Y173622D01*
X93380Y173081D01*
X93686Y172623D01*
X94144Y172317D01*
X94685Y172209D01*
X95226Y172317D01*
X95684Y172623D01*
X95990Y173081D01*
X96098Y173622D01*
X95990Y174163D01*
X95684Y174621D01*
X95226Y174927D01*
X94685Y175035D01*
D02*
G37*
G36*
X65083Y174093D02*
X64542Y173985D01*
X64084Y173679D01*
X63777Y173220D01*
X63670Y172680D01*
X63777Y172139D01*
X64084Y171680D01*
X64542Y171374D01*
X65083Y171267D01*
X65623Y171374D01*
X66082Y171680D01*
X66388Y172139D01*
X66496Y172680D01*
X66388Y173220D01*
X66082Y173679D01*
X65623Y173985D01*
X65083Y174093D01*
D02*
G37*
G36*
X28343Y173422D02*
X25645D01*
X25718Y172865D01*
X26010Y172160D01*
X26475Y171554D01*
X27081Y171089D01*
X27786Y170797D01*
X28343Y170723D01*
Y173422D01*
D02*
G37*
G36*
X6302Y172568D02*
Y169413D01*
X9458D01*
X9369Y170088D01*
X9031Y170903D01*
X8494Y171604D01*
X7793Y172141D01*
X6978Y172479D01*
X6302Y172568D01*
D02*
G37*
G36*
X5902D02*
X5227Y172479D01*
X4411Y172141D01*
X3711Y171604D01*
X3174Y170903D01*
X2836Y170088D01*
X2747Y169413D01*
X5902D01*
Y172568D01*
D02*
G37*
G36*
X97835Y170704D02*
X97294Y170597D01*
X96836Y170291D01*
X96529Y169832D01*
X96422Y169291D01*
X96529Y168751D01*
X96836Y168292D01*
X97294Y167986D01*
X97835Y167878D01*
X98375Y167986D01*
X98834Y168292D01*
X99140Y168751D01*
X99248Y169291D01*
X99140Y169832D01*
X98834Y170291D01*
X98375Y170597D01*
X97835Y170704D01*
D02*
G37*
G36*
X107283Y170311D02*
X106743Y170203D01*
X106284Y169897D01*
X105978Y169438D01*
X105870Y168898D01*
X105978Y168357D01*
X106284Y167898D01*
X106743Y167592D01*
X107283Y167485D01*
X107824Y167592D01*
X108283Y167898D01*
X108589Y168357D01*
X108696Y168898D01*
X108589Y169438D01*
X108283Y169897D01*
X107824Y170203D01*
X107283Y170311D01*
D02*
G37*
G36*
X9458Y169013D02*
X6302D01*
Y165857D01*
X6978Y165946D01*
X7793Y166284D01*
X8494Y166821D01*
X9031Y167522D01*
X9369Y168337D01*
X9458Y169013D01*
D02*
G37*
G36*
X5902D02*
X2747D01*
X2836Y168337D01*
X3174Y167522D01*
X3711Y166821D01*
X4411Y166284D01*
X5227Y165946D01*
X5902Y165857D01*
Y169013D01*
D02*
G37*
G36*
X108465Y163224D02*
X107924Y163116D01*
X107465Y162810D01*
X107159Y162352D01*
X107052Y161811D01*
X107159Y161270D01*
X107465Y160812D01*
X107924Y160506D01*
X108465Y160398D01*
X109005Y160506D01*
X109464Y160812D01*
X109770Y161270D01*
X109878Y161811D01*
X109770Y162352D01*
X109464Y162810D01*
X109005Y163116D01*
X108465Y163224D01*
D02*
G37*
G36*
X6102Y162594D02*
X5227Y162479D01*
X4411Y162141D01*
X3711Y161604D01*
X3174Y160903D01*
X2836Y160088D01*
X2721Y159213D01*
X2836Y158337D01*
X3174Y157522D01*
X3711Y156821D01*
X4411Y156284D01*
X5227Y155946D01*
X6102Y155831D01*
X6978Y155946D01*
X7793Y156284D01*
X8494Y156821D01*
X9031Y157522D01*
X9369Y158337D01*
X9484Y159213D01*
X9369Y160088D01*
X9031Y160903D01*
X8494Y161604D01*
X7793Y162141D01*
X6978Y162479D01*
X6102Y162594D01*
D02*
G37*
G36*
X67913Y158106D02*
X67373Y157998D01*
X66914Y157692D01*
X66608Y157234D01*
X66500Y156693D01*
X66608Y156152D01*
X66914Y155694D01*
X67373Y155387D01*
X67913Y155280D01*
X68454Y155387D01*
X68913Y155694D01*
X69219Y156152D01*
X69326Y156693D01*
X69219Y157234D01*
X68913Y157692D01*
X68454Y157998D01*
X67913Y158106D01*
D02*
G37*
G36*
X78422Y154881D02*
X77881Y154773D01*
X77423Y154467D01*
X77059D01*
X76600Y154773D01*
X76060Y154881D01*
X75519Y154773D01*
X75060Y154467D01*
X74982Y154350D01*
X74381D01*
X74303Y154467D01*
X73844Y154773D01*
X73304Y154881D01*
X72763Y154773D01*
X72304Y154467D01*
X72226Y154350D01*
X71625D01*
X71547Y154467D01*
X71088Y154773D01*
X70548Y154881D01*
X70007Y154773D01*
X69549Y154467D01*
X69242Y154009D01*
X69135Y153468D01*
X69242Y152927D01*
X69549Y152469D01*
X70007Y152163D01*
X70548Y152055D01*
X71088Y152163D01*
X71547Y152469D01*
X71625Y152586D01*
X72226D01*
X72304Y152469D01*
X72763Y152163D01*
X73304Y152055D01*
X73844Y152163D01*
X74303Y152469D01*
X74381Y152586D01*
X74982D01*
X75060Y152469D01*
X75519Y152163D01*
X76060Y152055D01*
X76600Y152163D01*
X77059Y152469D01*
X77423D01*
X77881Y152163D01*
X78422Y152055D01*
X78962Y152163D01*
X79421Y152469D01*
X79727Y152927D01*
X79835Y153468D01*
X79727Y154009D01*
X79421Y154467D01*
X78962Y154773D01*
X78422Y154881D01*
D02*
G37*
G36*
X108465Y149051D02*
X107924Y148943D01*
X107465Y148637D01*
X107159Y148179D01*
X107052Y147638D01*
X107159Y147097D01*
X107465Y146639D01*
X107924Y146332D01*
X108465Y146225D01*
X109005Y146332D01*
X109464Y146639D01*
X109770Y147097D01*
X109878Y147638D01*
X109770Y148179D01*
X109464Y148637D01*
X109005Y148943D01*
X108465Y149051D01*
D02*
G37*
G36*
X6102Y152594D02*
X5227Y152479D01*
X4411Y152141D01*
X3711Y151604D01*
X3174Y150903D01*
X2836Y150088D01*
X2721Y149213D01*
X2836Y148337D01*
X3174Y147522D01*
X3711Y146821D01*
X4411Y146284D01*
X5227Y145946D01*
X6102Y145831D01*
X6978Y145946D01*
X7793Y146284D01*
X8494Y146821D01*
X9031Y147522D01*
X9369Y148337D01*
X9484Y149213D01*
X9369Y150088D01*
X9031Y150903D01*
X8494Y151604D01*
X7793Y152141D01*
X6978Y152479D01*
X6102Y152594D01*
D02*
G37*
G36*
X42913Y237633D02*
X42373Y237526D01*
X41914Y237220D01*
X41608Y236761D01*
X41500Y236221D01*
X41608Y235680D01*
X41914Y235221D01*
X42104Y235094D01*
Y117126D01*
X42104Y117126D01*
X42104Y117126D01*
Y93148D01*
X41604Y92738D01*
X41535Y92751D01*
X40995Y92644D01*
X40536Y92338D01*
X40230Y91879D01*
X40122Y91339D01*
X40230Y90798D01*
X40536Y90339D01*
X40995Y90033D01*
X41535Y89926D01*
X41604Y89939D01*
X42104Y89529D01*
Y58213D01*
X41914Y58086D01*
X41608Y57627D01*
X41500Y57087D01*
X41608Y56546D01*
X41914Y56087D01*
X42373Y55781D01*
X42913Y55674D01*
X43454Y55781D01*
X43913Y56087D01*
X44219Y56546D01*
X44326Y57087D01*
X44219Y57627D01*
X43913Y58086D01*
X43723Y58213D01*
Y91339D01*
Y107365D01*
X44223Y107632D01*
X44341Y107553D01*
X44882Y107445D01*
X45423Y107553D01*
X45881Y107859D01*
X46187Y108317D01*
X46295Y108858D01*
X46187Y109399D01*
X45881Y109857D01*
X45423Y110164D01*
X44882Y110271D01*
X44341Y110164D01*
X44223Y110084D01*
X43723Y110352D01*
Y116120D01*
X48087D01*
X48213Y115930D01*
X48672Y115624D01*
X49213Y115516D01*
X49753Y115624D01*
X50212Y115930D01*
X50518Y116388D01*
X50625Y116929D01*
X50518Y117470D01*
X50212Y117928D01*
X49753Y118235D01*
X49213Y118342D01*
X48672Y118235D01*
X48213Y117928D01*
X48087Y117738D01*
X43723D01*
Y142434D01*
X44223Y142585D01*
X44276Y142505D01*
X44735Y142199D01*
X45276Y142091D01*
X45816Y142199D01*
X46275Y142505D01*
X46581Y142963D01*
X46689Y143504D01*
X46581Y144045D01*
X46275Y144503D01*
X45976Y144702D01*
X45965Y144734D01*
Y145227D01*
X45976Y145258D01*
X46275Y145458D01*
X46581Y145916D01*
X46689Y146457D01*
X46581Y146997D01*
X46275Y147456D01*
X45816Y147762D01*
X45276Y147870D01*
X44735Y147762D01*
X44276Y147456D01*
X44223Y147375D01*
X43723Y147527D01*
Y235094D01*
X43913Y235221D01*
X44219Y235680D01*
X44326Y236221D01*
X44219Y236761D01*
X43913Y237220D01*
X43454Y237526D01*
X42913Y237633D01*
D02*
G37*
G36*
X106890Y144326D02*
X106349Y144219D01*
X105891Y143912D01*
X105584Y143454D01*
X105477Y142913D01*
X105584Y142373D01*
X105891Y141914D01*
X106349Y141608D01*
X106890Y141500D01*
X107431Y141608D01*
X107889Y141914D01*
X108195Y142373D01*
X108303Y142913D01*
X108195Y143454D01*
X107889Y143912D01*
X107431Y144219D01*
X106890Y144326D01*
D02*
G37*
G36*
X9455Y142565D02*
X6302D01*
Y139413D01*
X9455D01*
Y142565D01*
D02*
G37*
G36*
X5902D02*
X2750D01*
Y139413D01*
X5902D01*
Y142565D01*
D02*
G37*
G36*
X85236Y148263D02*
X84696Y148156D01*
X84237Y147850D01*
X83931Y147391D01*
X83823Y146850D01*
X83931Y146310D01*
X84237Y145851D01*
X84354Y145773D01*
Y145172D01*
X84237Y145094D01*
X83931Y144635D01*
X83823Y144095D01*
X83931Y143554D01*
X84237Y143095D01*
X84354Y143017D01*
Y142416D01*
X84237Y142338D01*
X83931Y141879D01*
X83823Y141339D01*
X83931Y140798D01*
X84237Y140340D01*
Y139976D01*
X83931Y139517D01*
X83823Y138976D01*
X83931Y138436D01*
X84237Y137977D01*
X84696Y137671D01*
X85236Y137563D01*
X85777Y137671D01*
X86235Y137977D01*
X86542Y138436D01*
X86649Y138976D01*
X86542Y139517D01*
X86235Y139976D01*
Y140340D01*
X86542Y140798D01*
X86649Y141339D01*
X86542Y141879D01*
X86235Y142338D01*
X86118Y142416D01*
Y143017D01*
X86235Y143095D01*
X86542Y143554D01*
X86649Y144095D01*
X86542Y144635D01*
X86235Y145094D01*
X86118Y145172D01*
Y145773D01*
X86235Y145851D01*
X86542Y146310D01*
X86649Y146850D01*
X86542Y147391D01*
X86235Y147850D01*
X85777Y148156D01*
X85236Y148263D01*
D02*
G37*
G36*
X9455Y139013D02*
X6302D01*
Y135860D01*
X9455D01*
Y139013D01*
D02*
G37*
G36*
X5902D02*
X2750D01*
Y135860D01*
X5902D01*
Y139013D01*
D02*
G37*
G36*
X37992Y237633D02*
X37451Y237526D01*
X36993Y237220D01*
X36687Y236761D01*
X36579Y236221D01*
X36687Y235680D01*
X36993Y235221D01*
X37183Y235094D01*
X37183Y126775D01*
X36683Y126623D01*
X36596Y126753D01*
X36046Y127304D01*
Y233661D01*
X36046Y233661D01*
X35984Y233971D01*
X35808Y234234D01*
X34242Y235800D01*
X34287Y236024D01*
X34179Y236564D01*
X33873Y237023D01*
X33415Y237329D01*
X32874Y237437D01*
X32333Y237329D01*
X31875Y237023D01*
X31569Y236564D01*
X31461Y236024D01*
X31569Y235483D01*
X31875Y235024D01*
X32333Y234718D01*
X32874Y234611D01*
X33098Y234655D01*
X34427Y233326D01*
Y129943D01*
X33016D01*
X32889Y130133D01*
X32430Y130439D01*
X31890Y130547D01*
X31349Y130439D01*
X30891Y130133D01*
X30584Y129675D01*
X30477Y129134D01*
X30584Y128593D01*
X30891Y128135D01*
X31349Y127828D01*
X31890Y127721D01*
X32430Y127828D01*
X32889Y128135D01*
X33016Y128325D01*
X34230D01*
Y127165D01*
X34230Y127165D01*
X34292Y126856D01*
X34467Y126593D01*
X35214Y125846D01*
Y108012D01*
X32302Y105100D01*
X32126Y104837D01*
X32065Y104527D01*
X32065Y104527D01*
Y58213D01*
X31875Y58086D01*
X31569Y57627D01*
X31461Y57087D01*
X31569Y56546D01*
X31875Y56087D01*
X32333Y55781D01*
X32874Y55674D01*
X33415Y55781D01*
X33873Y56087D01*
X34179Y56546D01*
X34287Y57087D01*
X34179Y57627D01*
X33873Y58086D01*
X33683Y58213D01*
Y104192D01*
X36596Y107105D01*
X36683Y107235D01*
X37183Y107083D01*
Y103462D01*
X36683Y103195D01*
X36564Y103274D01*
X36024Y103382D01*
X35483Y103274D01*
X35024Y102968D01*
X34718Y102509D01*
X34611Y101969D01*
X34718Y101428D01*
X35024Y100969D01*
X35483Y100663D01*
X36024Y100556D01*
X36564Y100663D01*
X36683Y100742D01*
X37183Y100475D01*
Y96396D01*
X36683Y96045D01*
X36417Y96098D01*
X35877Y95990D01*
X35418Y95684D01*
X35112Y95226D01*
X35004Y94685D01*
X35112Y94144D01*
X35418Y93686D01*
X35877Y93380D01*
X36417Y93272D01*
X36683Y93325D01*
X37183Y92974D01*
Y58213D01*
X36993Y58086D01*
X36687Y57627D01*
X36579Y57087D01*
X36687Y56546D01*
X36993Y56087D01*
X37451Y55781D01*
X37992Y55674D01*
X38533Y55781D01*
X38991Y56087D01*
X39298Y56546D01*
X39405Y57087D01*
X39298Y57627D01*
X38991Y58086D01*
X38801Y58213D01*
Y94685D01*
Y101969D01*
X38801Y235094D01*
X38991Y235221D01*
X39298Y235680D01*
X39405Y236221D01*
X39298Y236761D01*
X38991Y237220D01*
X38533Y237526D01*
X37992Y237633D01*
D02*
G37*
G36*
X65354Y122082D02*
X64814Y121975D01*
X64355Y121668D01*
X64049Y121210D01*
X63941Y120669D01*
X64049Y120129D01*
X64355Y119670D01*
X64814Y119364D01*
X65354Y119256D01*
X65895Y119364D01*
X66353Y119670D01*
X66660Y120129D01*
X66767Y120669D01*
X66660Y121210D01*
X66353Y121668D01*
X65895Y121975D01*
X65354Y122082D01*
D02*
G37*
G36*
X107283Y118342D02*
X106743Y118235D01*
X106284Y117928D01*
X105978Y117470D01*
X105870Y116929D01*
X105978Y116388D01*
X106284Y115930D01*
X106743Y115624D01*
X107283Y115516D01*
X107824Y115624D01*
X108283Y115930D01*
X108589Y116388D01*
X108696Y116929D01*
X108589Y117470D01*
X108283Y117928D01*
X107824Y118235D01*
X107283Y118342D01*
D02*
G37*
G36*
X108465Y111256D02*
X107924Y111148D01*
X107465Y110842D01*
X107159Y110383D01*
X107052Y109843D01*
X107159Y109302D01*
X107465Y108843D01*
X107924Y108537D01*
X108465Y108430D01*
X109005Y108537D01*
X109464Y108843D01*
X109770Y109302D01*
X109878Y109843D01*
X109770Y110383D01*
X109464Y110842D01*
X109005Y111148D01*
X108465Y111256D01*
D02*
G37*
G36*
X68307Y105744D02*
X67766Y105636D01*
X67308Y105330D01*
X67002Y104871D01*
X66894Y104331D01*
X67002Y103790D01*
X67308Y103332D01*
X67766Y103025D01*
X68307Y102918D01*
X68848Y103025D01*
X69306Y103332D01*
X69612Y103790D01*
X69720Y104331D01*
X69612Y104871D01*
X69306Y105330D01*
X68848Y105636D01*
X68307Y105744D01*
D02*
G37*
G36*
X108465Y97082D02*
X107924Y96975D01*
X107465Y96668D01*
X107159Y96210D01*
X107052Y95669D01*
X107159Y95129D01*
X107465Y94670D01*
X107924Y94364D01*
X108465Y94256D01*
X109005Y94364D01*
X109464Y94670D01*
X109770Y95129D01*
X109878Y95669D01*
X109770Y96210D01*
X109464Y96668D01*
X109005Y96975D01*
X108465Y97082D01*
D02*
G37*
G36*
X107283Y93145D02*
X106743Y93038D01*
X106284Y92731D01*
X105978Y92273D01*
X105870Y91732D01*
X105978Y91192D01*
X106284Y90733D01*
X106743Y90427D01*
X107283Y90319D01*
X107824Y90427D01*
X108283Y90733D01*
X108589Y91192D01*
X108696Y91732D01*
X108589Y92273D01*
X108283Y92731D01*
X107824Y93038D01*
X107283Y93145D01*
D02*
G37*
G36*
X99803Y87633D02*
X99262Y87526D01*
X98804Y87220D01*
X98498Y86761D01*
X98390Y86221D01*
X98498Y85680D01*
X98804Y85221D01*
X99262Y84915D01*
X99803Y84807D01*
X100344Y84915D01*
X100802Y85221D01*
X101109Y85680D01*
X101216Y86221D01*
X101109Y86761D01*
X100802Y87220D01*
X100344Y87526D01*
X99803Y87633D01*
D02*
G37*
G36*
X94685Y84484D02*
X94144Y84376D01*
X93686Y84070D01*
X93380Y83612D01*
X93272Y83071D01*
X93380Y82530D01*
X93686Y82072D01*
X94144Y81765D01*
X94685Y81658D01*
X95226Y81765D01*
X95684Y82072D01*
X95990Y82530D01*
X96098Y83071D01*
X95990Y83612D01*
X95684Y84070D01*
X95226Y84376D01*
X94685Y84484D01*
D02*
G37*
G36*
X89567Y81334D02*
X89026Y81227D01*
X88568Y80920D01*
X88261Y80462D01*
X88154Y79921D01*
X88261Y79381D01*
X88568Y78922D01*
X89026Y78616D01*
X89567Y78508D01*
X89650Y78525D01*
X90031Y78187D01*
Y77719D01*
X89650Y77381D01*
X89567Y77397D01*
X89026Y77290D01*
X88568Y76983D01*
X88261Y76525D01*
X88154Y75984D01*
X88261Y75444D01*
X88568Y74985D01*
X89026Y74679D01*
X89567Y74571D01*
X89730Y74604D01*
X90155Y74178D01*
X90122Y74016D01*
X90230Y73475D01*
X90536Y73017D01*
X90995Y72710D01*
X91535Y72603D01*
X92076Y72710D01*
X92535Y73017D01*
X92841Y73475D01*
X92948Y74016D01*
X92841Y74556D01*
X92535Y75015D01*
X92076Y75321D01*
X91535Y75429D01*
X91453Y75412D01*
X91071Y75750D01*
Y76218D01*
X91453Y76556D01*
X91535Y76540D01*
X92076Y76647D01*
X92535Y76954D01*
X92841Y77412D01*
X92948Y77953D01*
X92841Y78493D01*
X92535Y78952D01*
X92076Y79258D01*
X91535Y79366D01*
X91373Y79333D01*
X90948Y79759D01*
X90980Y79921D01*
X90872Y80462D01*
X90566Y80920D01*
X90108Y81227D01*
X89567Y81334D01*
D02*
G37*
G36*
X94685Y71098D02*
X94144Y70990D01*
X93686Y70684D01*
X93380Y70226D01*
X93272Y69685D01*
X93380Y69144D01*
X93686Y68686D01*
X94144Y68380D01*
X94685Y68272D01*
X95226Y68380D01*
X95684Y68686D01*
X95990Y69144D01*
X96098Y69685D01*
X95990Y70226D01*
X95684Y70684D01*
X95226Y70990D01*
X94685Y71098D01*
D02*
G37*
G36*
X65158Y69917D02*
X64617Y69809D01*
X64158Y69503D01*
X63852Y69045D01*
X63744Y68504D01*
X63852Y67963D01*
X64158Y67505D01*
X64617Y67198D01*
X65158Y67091D01*
X65698Y67198D01*
X66157Y67505D01*
X66463Y67963D01*
X66570Y68504D01*
X66463Y69045D01*
X66157Y69503D01*
X65698Y69809D01*
X65158Y69917D01*
D02*
G37*
G36*
X97835Y66767D02*
X97294Y66660D01*
X96836Y66353D01*
X96529Y65895D01*
X96422Y65354D01*
X96529Y64814D01*
X96836Y64355D01*
X97294Y64049D01*
X97835Y63941D01*
X98375Y64049D01*
X98834Y64355D01*
X99140Y64814D01*
X99248Y65354D01*
X99140Y65895D01*
X98834Y66353D01*
X98375Y66660D01*
X97835Y66767D01*
D02*
G37*
G36*
X107283Y66374D02*
X106743Y66266D01*
X106284Y65960D01*
X105978Y65501D01*
X105870Y64961D01*
X105978Y64420D01*
X106284Y63961D01*
X106743Y63655D01*
X107283Y63548D01*
X107824Y63655D01*
X108283Y63961D01*
X108589Y64420D01*
X108696Y64961D01*
X108589Y65501D01*
X108283Y65960D01*
X107824Y66266D01*
X107283Y66374D01*
D02*
G37*
G36*
X108465Y59287D02*
X107924Y59179D01*
X107465Y58873D01*
X107159Y58415D01*
X107052Y57874D01*
X107159Y57333D01*
X107465Y56875D01*
X107924Y56569D01*
X108465Y56461D01*
X109005Y56569D01*
X109464Y56875D01*
X109770Y57333D01*
X109878Y57874D01*
X109770Y58415D01*
X109464Y58873D01*
X109005Y59179D01*
X108465Y59287D01*
D02*
G37*
G36*
X67913Y54169D02*
X67373Y54061D01*
X66914Y53755D01*
X66608Y53297D01*
X66500Y52756D01*
X66608Y52215D01*
X66914Y51757D01*
X67373Y51451D01*
X67913Y51343D01*
X68454Y51451D01*
X68913Y51757D01*
X69219Y52215D01*
X69326Y52756D01*
X69219Y53297D01*
X68913Y53755D01*
X68454Y54061D01*
X67913Y54169D01*
D02*
G37*
G36*
X78422Y50944D02*
X77881Y50836D01*
X77423Y50530D01*
X77059D01*
X76600Y50836D01*
X76060Y50944D01*
X75519Y50836D01*
X75060Y50530D01*
X74982Y50413D01*
X74381D01*
X74303Y50530D01*
X73844Y50836D01*
X73304Y50944D01*
X72763Y50836D01*
X72304Y50530D01*
X72226Y50413D01*
X71625D01*
X71547Y50530D01*
X71088Y50836D01*
X70548Y50944D01*
X70007Y50836D01*
X69549Y50530D01*
X69242Y50072D01*
X69135Y49531D01*
X69242Y48990D01*
X69549Y48532D01*
X70007Y48226D01*
X70548Y48118D01*
X71088Y48226D01*
X71547Y48532D01*
X71625Y48649D01*
X72226D01*
X72304Y48532D01*
X72763Y48226D01*
X73304Y48118D01*
X73844Y48226D01*
X74303Y48532D01*
X74381Y48649D01*
X74982D01*
X75060Y48532D01*
X75519Y48226D01*
X76060Y48118D01*
X76600Y48226D01*
X77059Y48532D01*
X77423D01*
X77881Y48226D01*
X78422Y48118D01*
X78962Y48226D01*
X79421Y48532D01*
X79727Y48990D01*
X79835Y49531D01*
X79727Y50072D01*
X79421Y50530D01*
X78962Y50836D01*
X78422Y50944D01*
D02*
G37*
G36*
X108465Y45114D02*
X107924Y45006D01*
X107465Y44700D01*
X107159Y44241D01*
X107052Y43701D01*
X107159Y43160D01*
X107465Y42702D01*
X107924Y42395D01*
X108465Y42288D01*
X109005Y42395D01*
X109464Y42702D01*
X109770Y43160D01*
X109878Y43701D01*
X109770Y44241D01*
X109464Y44700D01*
X109005Y45006D01*
X108465Y45114D01*
D02*
G37*
G36*
X107283Y41177D02*
X106743Y41069D01*
X106284Y40763D01*
X105978Y40304D01*
X105870Y39764D01*
X105978Y39223D01*
X106284Y38765D01*
X106743Y38458D01*
X107283Y38351D01*
X107824Y38458D01*
X108283Y38765D01*
X108589Y39223D01*
X108696Y39764D01*
X108589Y40304D01*
X108283Y40763D01*
X107824Y41069D01*
X107283Y41177D01*
D02*
G37*
G36*
X85236Y44326D02*
X84696Y44219D01*
X84237Y43913D01*
X83931Y43454D01*
X83823Y42913D01*
X83931Y42373D01*
X84237Y41914D01*
X84354Y41836D01*
Y41235D01*
X84237Y41157D01*
X83931Y40698D01*
X83823Y40157D01*
X83931Y39617D01*
X84237Y39158D01*
X84354Y39080D01*
Y38479D01*
X84237Y38401D01*
X83931Y37942D01*
X83823Y37402D01*
X83931Y36861D01*
X84237Y36402D01*
Y36039D01*
X83931Y35580D01*
X83823Y35039D01*
X83931Y34499D01*
X84237Y34040D01*
X84696Y33734D01*
X85236Y33626D01*
X85777Y33734D01*
X86235Y34040D01*
X86542Y34499D01*
X86649Y35039D01*
X86542Y35580D01*
X86235Y36039D01*
Y36402D01*
X86542Y36861D01*
X86649Y37402D01*
X86542Y37942D01*
X86235Y38401D01*
X86118Y38479D01*
Y39080D01*
X86235Y39158D01*
X86542Y39617D01*
X86649Y40157D01*
X86542Y40698D01*
X86235Y41157D01*
X86118Y41235D01*
Y41836D01*
X86235Y41914D01*
X86542Y42373D01*
X86649Y42913D01*
X86542Y43454D01*
X86235Y43913D01*
X85777Y44219D01*
X85236Y44326D01*
D02*
G37*
G36*
X51772Y31531D02*
X51231Y31424D01*
X50773Y31117D01*
X50466Y30659D01*
X50359Y30118D01*
X50466Y29577D01*
X50773Y29119D01*
X51231Y28813D01*
X51772Y28705D01*
X52312Y28813D01*
X52771Y29119D01*
X53077Y29577D01*
X53185Y30118D01*
X53077Y30659D01*
X52771Y31117D01*
X52312Y31424D01*
X51772Y31531D01*
D02*
G37*
G36*
X65354Y17948D02*
X64814Y17841D01*
X64355Y17535D01*
X64049Y17076D01*
X63941Y16535D01*
X64049Y15995D01*
X64355Y15536D01*
X64814Y15230D01*
X65354Y15123D01*
X65895Y15230D01*
X66353Y15536D01*
X66660Y15995D01*
X66767Y16535D01*
X66660Y17076D01*
X66353Y17535D01*
X65895Y17841D01*
X65354Y17948D01*
D02*
G37*
G36*
X107677Y14405D02*
X107136Y14298D01*
X106678Y13991D01*
X106372Y13533D01*
X106264Y12992D01*
X106372Y12451D01*
X106678Y11993D01*
X107136Y11687D01*
X107677Y11579D01*
X108218Y11687D01*
X108676Y11993D01*
X108983Y12451D01*
X109090Y12992D01*
X108983Y13533D01*
X108676Y13991D01*
X108218Y14298D01*
X107677Y14405D01*
D02*
G37*
G36*
X417520Y257896D02*
X417520Y257896D01*
X134055D01*
X134055Y257896D01*
X133745Y257834D01*
X133483Y257659D01*
X133483Y257659D01*
X131917Y256093D01*
X131693Y256137D01*
X131152Y256030D01*
X130694Y255724D01*
X130387Y255265D01*
X130280Y254724D01*
X130387Y254184D01*
X130694Y253725D01*
X131152Y253419D01*
X131693Y253311D01*
X132234Y253419D01*
X132692Y253725D01*
X132998Y254184D01*
X133106Y254724D01*
X133061Y254948D01*
X134390Y256277D01*
X159727D01*
X159994Y255777D01*
X159915Y255659D01*
X159808Y255118D01*
X159915Y254577D01*
X160221Y254119D01*
X160680Y253813D01*
X161221Y253705D01*
X161761Y253813D01*
X162220Y254119D01*
X162526Y254577D01*
X162633Y255118D01*
X162526Y255659D01*
X162447Y255777D01*
X162714Y256277D01*
X201853D01*
X202120Y255777D01*
X202041Y255659D01*
X201934Y255118D01*
X202041Y254577D01*
X202347Y254119D01*
X202806Y253813D01*
X203346Y253705D01*
X203887Y253813D01*
X204346Y254119D01*
X204652Y254577D01*
X204759Y255118D01*
X204652Y255659D01*
X204573Y255777D01*
X204840Y256277D01*
X243979D01*
X244246Y255777D01*
X244167Y255659D01*
X244059Y255118D01*
X244167Y254577D01*
X244473Y254119D01*
X244932Y253813D01*
X245472Y253705D01*
X246013Y253813D01*
X246472Y254119D01*
X246778Y254577D01*
X246885Y255118D01*
X246778Y255659D01*
X246699Y255777D01*
X246966Y256277D01*
X286105D01*
X286372Y255777D01*
X286293Y255659D01*
X286185Y255118D01*
X286293Y254577D01*
X286599Y254119D01*
X287058Y253813D01*
X287598Y253705D01*
X288139Y253813D01*
X288597Y254119D01*
X288904Y254577D01*
X289011Y255118D01*
X288904Y255659D01*
X288825Y255777D01*
X289092Y256277D01*
X328231D01*
X328498Y255777D01*
X328419Y255659D01*
X328311Y255118D01*
X328419Y254577D01*
X328725Y254119D01*
X329184Y253813D01*
X329724Y253705D01*
X330265Y253813D01*
X330724Y254119D01*
X331030Y254577D01*
X331137Y255118D01*
X331030Y255659D01*
X330951Y255777D01*
X331218Y256277D01*
X370357D01*
X370624Y255777D01*
X370545Y255659D01*
X370437Y255118D01*
X370545Y254577D01*
X370851Y254119D01*
X371310Y253813D01*
X371850Y253705D01*
X372391Y253813D01*
X372849Y254119D01*
X373156Y254577D01*
X373263Y255118D01*
X373156Y255659D01*
X373077Y255777D01*
X373344Y256277D01*
X412483D01*
X412750Y255777D01*
X412671Y255659D01*
X412563Y255118D01*
X412671Y254577D01*
X412977Y254119D01*
X413436Y253813D01*
X413976Y253705D01*
X414517Y253813D01*
X414976Y254119D01*
X415282Y254577D01*
X415389Y255118D01*
X415282Y255659D01*
X415203Y255777D01*
X415470Y256277D01*
X417184D01*
X423435Y250027D01*
X423390Y249803D01*
X423498Y249262D01*
X423804Y248804D01*
X424262Y248498D01*
X424803Y248390D01*
X425344Y248498D01*
X425802Y248804D01*
X426109Y249262D01*
X426216Y249803D01*
X426109Y250344D01*
X425802Y250802D01*
X425344Y251109D01*
X424803Y251216D01*
X424579Y251172D01*
X418092Y257659D01*
X417829Y257834D01*
X417778Y257844D01*
X417520Y257896D01*
D02*
G37*
G36*
X126181Y256137D02*
X125640Y256030D01*
X125182Y255724D01*
X124876Y255265D01*
X124768Y254724D01*
X124876Y254184D01*
X125182Y253725D01*
X125640Y253419D01*
X126181Y253311D01*
X126722Y253419D01*
X127180Y253725D01*
X127487Y254184D01*
X127594Y254724D01*
X127487Y255265D01*
X127180Y255724D01*
X126722Y256030D01*
X126181Y256137D01*
D02*
G37*
G36*
X488192Y252411D02*
Y249255D01*
X491348D01*
X491259Y249930D01*
X490921Y250746D01*
X490383Y251446D01*
X489683Y251984D01*
X488867Y252322D01*
X488192Y252411D01*
D02*
G37*
G36*
X487792D02*
X487117Y252322D01*
X486301Y251984D01*
X485601Y251446D01*
X485064Y250746D01*
X484726Y249930D01*
X484637Y249255D01*
X487792D01*
Y252411D01*
D02*
G37*
G36*
X149016Y261256D02*
X148475Y261148D01*
X148017Y260842D01*
X147710Y260383D01*
X147603Y259842D01*
X147710Y259302D01*
X148017Y258843D01*
X148475Y258537D01*
X149016Y258430D01*
X149557Y258537D01*
X150015Y258843D01*
X150142Y259033D01*
X449468D01*
X455831Y252670D01*
X455671Y252461D01*
X455258Y251464D01*
X455117Y250394D01*
X455258Y249323D01*
X455671Y248326D01*
X456328Y247469D01*
X457184Y246812D01*
X458182Y246399D01*
X459252Y246258D01*
X460322Y246399D01*
X461320Y246812D01*
X462176Y247469D01*
X462833Y248326D01*
X463246Y249323D01*
X463387Y250394D01*
X463246Y251464D01*
X462833Y252461D01*
X462176Y253318D01*
X461320Y253975D01*
X460322Y254388D01*
X459252Y254529D01*
X458182Y254388D01*
X457184Y253975D01*
X456975Y253815D01*
X450375Y260415D01*
X450113Y260590D01*
X449803Y260652D01*
X449803Y260652D01*
X150142D01*
X150015Y260842D01*
X149557Y261148D01*
X149016Y261256D01*
D02*
G37*
G36*
X487792Y248855D02*
X484637D01*
X484726Y248180D01*
X485064Y247364D01*
X485601Y246664D01*
X486301Y246127D01*
X487117Y245789D01*
X487792Y245700D01*
Y248855D01*
D02*
G37*
G36*
X491348D02*
X488192D01*
Y245700D01*
X488867Y245789D01*
X489683Y246127D01*
X490383Y246664D01*
X490921Y247364D01*
X491259Y248180D01*
X491348Y248855D01*
D02*
G37*
G36*
X497992Y252437D02*
X497117Y252322D01*
X496301Y251984D01*
X495601Y251446D01*
X495063Y250746D01*
X494726Y249930D01*
X494610Y249055D01*
X494726Y248180D01*
X495063Y247364D01*
X495601Y246664D01*
X496301Y246127D01*
X497117Y245789D01*
X497992Y245673D01*
X498867Y245789D01*
X499683Y246127D01*
X500383Y246664D01*
X500921Y247364D01*
X501259Y248180D01*
X501374Y249055D01*
X501259Y249930D01*
X500921Y250746D01*
X500383Y251446D01*
X499683Y251984D01*
X498867Y252322D01*
X497992Y252437D01*
D02*
G37*
G36*
X164764Y241177D02*
X164223Y241069D01*
X163765Y240763D01*
X163458Y240304D01*
X163351Y239764D01*
X163458Y239223D01*
X163765Y238765D01*
X164223Y238458D01*
X164764Y238351D01*
X165305Y238458D01*
X165763Y238765D01*
X166069Y239223D01*
X166177Y239764D01*
X166069Y240304D01*
X165763Y240763D01*
X165305Y241069D01*
X164764Y241177D01*
D02*
G37*
G36*
X132874Y240304D02*
X132064Y240143D01*
X131378Y239685D01*
X130920Y238999D01*
X130759Y238189D01*
X130920Y237379D01*
X131378Y236693D01*
X132064Y236234D01*
X132874Y236073D01*
X133684Y236234D01*
X134370Y236693D01*
X134828Y237379D01*
X134990Y238189D01*
X134828Y238999D01*
X134370Y239685D01*
X133684Y240143D01*
X132874Y240304D01*
D02*
G37*
G36*
X497992Y242437D02*
X497117Y242321D01*
X496301Y241984D01*
X495601Y241446D01*
X495063Y240746D01*
X494726Y239930D01*
X494610Y239055D01*
X494726Y238180D01*
X495063Y237364D01*
X495601Y236664D01*
X496301Y236126D01*
X497117Y235789D01*
X497992Y235673D01*
X498867Y235789D01*
X499683Y236126D01*
X500383Y236664D01*
X500921Y237364D01*
X501259Y238180D01*
X501374Y239055D01*
X501259Y239930D01*
X500921Y240746D01*
X500383Y241446D01*
X499683Y241984D01*
X498867Y242321D01*
X497992Y242437D01*
D02*
G37*
G36*
X487992D02*
X487117Y242321D01*
X486301Y241984D01*
X485601Y241446D01*
X485064Y240746D01*
X484726Y239930D01*
X484610Y239055D01*
X484726Y238180D01*
X485064Y237364D01*
X485601Y236664D01*
X486301Y236126D01*
X487117Y235789D01*
X487992Y235673D01*
X488867Y235789D01*
X489683Y236126D01*
X490383Y236664D01*
X490921Y237364D01*
X491259Y238180D01*
X491374Y239055D01*
X491259Y239930D01*
X490921Y240746D01*
X490383Y241446D01*
X489683Y241984D01*
X488867Y242321D01*
X487992Y242437D01*
D02*
G37*
G36*
X425000Y237633D02*
X424459Y237526D01*
X424001Y237220D01*
X423695Y236761D01*
X423587Y236221D01*
X423695Y235680D01*
X424001Y235221D01*
X424459Y234915D01*
X425000Y234807D01*
X425541Y234915D01*
X425999Y235221D01*
X426305Y235680D01*
X426413Y236221D01*
X426305Y236761D01*
X425999Y237220D01*
X425541Y237526D01*
X425000Y237633D01*
D02*
G37*
G36*
X459252Y239568D02*
X458182Y239427D01*
X457184Y239014D01*
X456328Y238357D01*
X455671Y237501D01*
X455258Y236503D01*
X455117Y235433D01*
X455258Y234363D01*
X455671Y233365D01*
X456328Y232509D01*
X457184Y231852D01*
X458182Y231439D01*
X459252Y231298D01*
X460322Y231439D01*
X461320Y231852D01*
X462176Y232509D01*
X462833Y233365D01*
X463246Y234363D01*
X463387Y235433D01*
X463246Y236503D01*
X462833Y237501D01*
X462176Y238357D01*
X461320Y239014D01*
X460322Y239427D01*
X459252Y239568D01*
D02*
G37*
G36*
X131299Y232515D02*
X130759Y232408D01*
X130300Y232101D01*
X129994Y231643D01*
X129886Y231102D01*
X129994Y230562D01*
X130300Y230103D01*
X130759Y229797D01*
X131299Y229689D01*
X131840Y229797D01*
X132298Y230103D01*
X132605Y230562D01*
X132712Y231102D01*
X132605Y231643D01*
X132298Y232101D01*
X131840Y232408D01*
X131299Y232515D01*
D02*
G37*
G36*
X488192Y232410D02*
Y229255D01*
X491348D01*
X491259Y229930D01*
X490921Y230746D01*
X490383Y231446D01*
X489683Y231984D01*
X488867Y232322D01*
X488192Y232410D01*
D02*
G37*
G36*
X487792D02*
X487117Y232322D01*
X486301Y231984D01*
X485601Y231446D01*
X485064Y230746D01*
X484726Y229930D01*
X484637Y229255D01*
X487792D01*
Y232410D01*
D02*
G37*
G36*
X126181Y233218D02*
X125372Y233057D01*
X124685Y232598D01*
X124227Y231912D01*
X124066Y231102D01*
X124227Y230293D01*
X124685Y229607D01*
X125372Y229148D01*
X126181Y228987D01*
X126991Y229148D01*
X127677Y229607D01*
X128136Y230293D01*
X128296Y231102D01*
X128136Y231912D01*
X127677Y232598D01*
X126991Y233057D01*
X126181Y233218D01*
D02*
G37*
G36*
X491348Y228855D02*
X488192D01*
Y225700D01*
X488867Y225789D01*
X489683Y226127D01*
X490383Y226664D01*
X490921Y227364D01*
X491259Y228180D01*
X491348Y228855D01*
D02*
G37*
G36*
X487792D02*
X484637D01*
X484726Y228180D01*
X485064Y227364D01*
X485601Y226664D01*
X486301Y226127D01*
X487117Y225789D01*
X487792Y225700D01*
Y228855D01*
D02*
G37*
G36*
X497992Y232437D02*
X497117Y232322D01*
X496301Y231984D01*
X495601Y231446D01*
X495063Y230746D01*
X494726Y229930D01*
X494610Y229055D01*
X494726Y228180D01*
X495063Y227364D01*
X495601Y226664D01*
X496301Y226127D01*
X497117Y225789D01*
X497992Y225673D01*
X498867Y225789D01*
X499683Y226127D01*
X500383Y226664D01*
X500921Y227364D01*
X501259Y228180D01*
X501374Y229055D01*
X501259Y229930D01*
X500921Y230746D01*
X500383Y231446D01*
X499683Y231984D01*
X498867Y232322D01*
X497992Y232437D01*
D02*
G37*
G36*
X149409Y227397D02*
X148869Y227290D01*
X148410Y226983D01*
X148104Y226525D01*
X147996Y225984D01*
X148104Y225444D01*
X148410Y224985D01*
X148869Y224679D01*
X149409Y224571D01*
X149950Y224679D01*
X150409Y224985D01*
X150715Y225444D01*
X150822Y225984D01*
X150715Y226525D01*
X150409Y226983D01*
X149950Y227290D01*
X149409Y227397D01*
D02*
G37*
G36*
X122638Y226610D02*
X122097Y226502D01*
X121639Y226196D01*
X121332Y225738D01*
X121225Y225197D01*
X121332Y224656D01*
X121639Y224198D01*
X122097Y223891D01*
X122638Y223784D01*
X123179Y223891D01*
X123637Y224198D01*
X123943Y224656D01*
X124051Y225197D01*
X123943Y225738D01*
X123637Y226196D01*
X123179Y226502D01*
X122638Y226610D01*
D02*
G37*
G36*
X497992Y222437D02*
X497117Y222322D01*
X496301Y221984D01*
X495601Y221446D01*
X495063Y220746D01*
X494726Y219930D01*
X494610Y219055D01*
X494726Y218180D01*
X495063Y217364D01*
X495601Y216664D01*
X496301Y216126D01*
X497117Y215789D01*
X497992Y215673D01*
X498867Y215789D01*
X499683Y216126D01*
X500383Y216664D01*
X500921Y217364D01*
X501259Y218180D01*
X501374Y219055D01*
X501259Y219930D01*
X500921Y220746D01*
X500383Y221446D01*
X499683Y221984D01*
X498867Y222322D01*
X497992Y222437D01*
D02*
G37*
G36*
X487992Y222437D02*
X487117Y222322D01*
X486301Y221984D01*
X485601Y221446D01*
X485064Y220746D01*
X484726Y219930D01*
X484610Y219055D01*
X484726Y218180D01*
X485064Y217364D01*
X485601Y216664D01*
X486301Y216126D01*
X487117Y215789D01*
X487992Y215673D01*
X488867Y215789D01*
X489683Y216126D01*
X490383Y216664D01*
X490921Y217364D01*
X491259Y218180D01*
X491374Y219055D01*
X491259Y219930D01*
X490921Y220746D01*
X490383Y221446D01*
X489683Y221984D01*
X488867Y222322D01*
X487992Y222437D01*
D02*
G37*
G36*
X488192Y212410D02*
Y209255D01*
X491348D01*
X491259Y209930D01*
X490921Y210746D01*
X490383Y211446D01*
X489683Y211984D01*
X488867Y212321D01*
X488192Y212410D01*
D02*
G37*
G36*
X487792Y212410D02*
X487117Y212321D01*
X486301Y211984D01*
X485601Y211446D01*
X485064Y210746D01*
X484726Y209930D01*
X484637Y209255D01*
X487792D01*
Y212410D01*
D02*
G37*
G36*
X417520Y205927D02*
X417520Y205927D01*
X134055D01*
X134055Y205927D01*
X133745Y205866D01*
X133483Y205690D01*
X133483Y205690D01*
X131917Y204124D01*
X131693Y204169D01*
X131152Y204061D01*
X130694Y203755D01*
X130387Y203297D01*
X130280Y202756D01*
X130387Y202215D01*
X130694Y201757D01*
X131152Y201450D01*
X131693Y201343D01*
X132234Y201450D01*
X132692Y201757D01*
X132998Y202215D01*
X133106Y202756D01*
X133061Y202980D01*
X134390Y204309D01*
X159727D01*
X159994Y203809D01*
X159915Y203690D01*
X159808Y203150D01*
X159915Y202609D01*
X160221Y202151D01*
X160680Y201844D01*
X161221Y201737D01*
X161761Y201844D01*
X162220Y202151D01*
X162526Y202609D01*
X162633Y203150D01*
X162526Y203690D01*
X162447Y203809D01*
X162714Y204309D01*
X201853D01*
X202120Y203809D01*
X202041Y203690D01*
X201934Y203150D01*
X202041Y202609D01*
X202347Y202151D01*
X202806Y201844D01*
X203346Y201737D01*
X203887Y201844D01*
X204346Y202151D01*
X204652Y202609D01*
X204759Y203150D01*
X204652Y203690D01*
X204573Y203809D01*
X204840Y204309D01*
X243979D01*
X244246Y203809D01*
X244167Y203690D01*
X244059Y203150D01*
X244167Y202609D01*
X244473Y202151D01*
X244932Y201844D01*
X245472Y201737D01*
X246013Y201844D01*
X246472Y202151D01*
X246778Y202609D01*
X246885Y203150D01*
X246778Y203690D01*
X246699Y203809D01*
X246966Y204309D01*
X286105D01*
X286372Y203809D01*
X286293Y203690D01*
X286185Y203150D01*
X286293Y202609D01*
X286599Y202151D01*
X287058Y201844D01*
X287598Y201737D01*
X288139Y201844D01*
X288597Y202151D01*
X288904Y202609D01*
X289011Y203150D01*
X288904Y203690D01*
X288825Y203809D01*
X289092Y204309D01*
X328231D01*
X328498Y203809D01*
X328419Y203690D01*
X328311Y203150D01*
X328419Y202609D01*
X328725Y202151D01*
X329184Y201844D01*
X329724Y201737D01*
X330265Y201844D01*
X330724Y202151D01*
X331030Y202609D01*
X331137Y203150D01*
X331030Y203690D01*
X330951Y203809D01*
X331218Y204309D01*
X370357D01*
X370624Y203809D01*
X370545Y203690D01*
X370437Y203150D01*
X370545Y202609D01*
X370851Y202151D01*
X371310Y201844D01*
X371850Y201737D01*
X372391Y201844D01*
X372849Y202151D01*
X373156Y202609D01*
X373263Y203150D01*
X373156Y203690D01*
X373077Y203809D01*
X373344Y204309D01*
X412483D01*
X412750Y203809D01*
X412671Y203690D01*
X412563Y203150D01*
X412671Y202609D01*
X412977Y202151D01*
X413436Y201844D01*
X413976Y201737D01*
X414517Y201844D01*
X414976Y202151D01*
X415282Y202609D01*
X415389Y203150D01*
X415282Y203690D01*
X415203Y203809D01*
X415470Y204309D01*
X417184D01*
X423238Y198255D01*
X423193Y198031D01*
X423301Y197491D01*
X423607Y197032D01*
X424066Y196726D01*
X424606Y196618D01*
X425147Y196726D01*
X425605Y197032D01*
X425912Y197491D01*
X426019Y198031D01*
X425912Y198572D01*
X425605Y199031D01*
X425147Y199337D01*
X424606Y199444D01*
X424382Y199400D01*
X418092Y205690D01*
X417829Y205866D01*
X417778Y205876D01*
X417520Y205927D01*
D02*
G37*
G36*
X487792Y208855D02*
X484637D01*
X484726Y208180D01*
X485064Y207364D01*
X485601Y206664D01*
X486301Y206126D01*
X487117Y205789D01*
X487792Y205700D01*
Y208855D01*
D02*
G37*
G36*
X491348D02*
X488192D01*
Y205700D01*
X488867Y205789D01*
X489683Y206126D01*
X490383Y206664D01*
X490921Y207364D01*
X491259Y208180D01*
X491348Y208855D01*
D02*
G37*
G36*
X497992Y212437D02*
X497117Y212322D01*
X496301Y211984D01*
X495601Y211446D01*
X495063Y210746D01*
X494726Y209930D01*
X494610Y209055D01*
X494726Y208180D01*
X495063Y207364D01*
X495601Y206664D01*
X496301Y206126D01*
X497117Y205789D01*
X497992Y205673D01*
X498867Y205789D01*
X499683Y206126D01*
X500383Y206664D01*
X500921Y207364D01*
X501259Y208180D01*
X501374Y209055D01*
X501259Y209930D01*
X500921Y210746D01*
X500383Y211446D01*
X499683Y211984D01*
X498867Y212322D01*
X497992Y212437D01*
D02*
G37*
G36*
X126181Y204169D02*
X125640Y204061D01*
X125182Y203755D01*
X124876Y203297D01*
X124768Y202756D01*
X124876Y202215D01*
X125182Y201757D01*
X125640Y201450D01*
X126181Y201343D01*
X126722Y201450D01*
X127180Y201757D01*
X127487Y202215D01*
X127594Y202756D01*
X127487Y203297D01*
X127180Y203755D01*
X126722Y204061D01*
X126181Y204169D01*
D02*
G37*
G36*
X487992Y202437D02*
X487117Y202322D01*
X486301Y201984D01*
X485601Y201446D01*
X485064Y200746D01*
X484726Y199930D01*
X484610Y199055D01*
X484726Y198180D01*
X485064Y197364D01*
X485601Y196664D01*
X486301Y196126D01*
X487117Y195789D01*
X487992Y195673D01*
X488867Y195789D01*
X489683Y196126D01*
X490383Y196664D01*
X490921Y197364D01*
X491259Y198180D01*
X491374Y199055D01*
X491259Y199930D01*
X490921Y200746D01*
X490383Y201446D01*
X489683Y201984D01*
X488867Y202322D01*
X487992Y202437D01*
D02*
G37*
G36*
X497992Y202437D02*
X497117Y202322D01*
X496301Y201984D01*
X495601Y201446D01*
X495063Y200746D01*
X494726Y199930D01*
X494610Y199055D01*
X494726Y198180D01*
X495063Y197364D01*
X495601Y196664D01*
X496301Y196126D01*
X497117Y195789D01*
X497992Y195673D01*
X498867Y195789D01*
X499683Y196126D01*
X500383Y196664D01*
X500921Y197364D01*
X501259Y198180D01*
X501374Y199055D01*
X501259Y199930D01*
X500921Y200746D01*
X500383Y201446D01*
X499683Y201984D01*
X498867Y202322D01*
X497992Y202437D01*
D02*
G37*
G36*
X149016Y209287D02*
X148475Y209179D01*
X148017Y208873D01*
X147710Y208415D01*
X147603Y207874D01*
X147710Y207333D01*
X148017Y206875D01*
X148475Y206569D01*
X149016Y206461D01*
X149557Y206569D01*
X150015Y206875D01*
X150142Y207065D01*
X449468D01*
X455831Y200702D01*
X455671Y200493D01*
X455258Y199495D01*
X455117Y198425D01*
X455258Y197355D01*
X455671Y196358D01*
X456328Y195501D01*
X457184Y194844D01*
X458182Y194431D01*
X459252Y194290D01*
X460322Y194431D01*
X461320Y194844D01*
X462176Y195501D01*
X462833Y196358D01*
X463246Y197355D01*
X463387Y198425D01*
X463246Y199495D01*
X462833Y200493D01*
X462176Y201349D01*
X461320Y202007D01*
X460322Y202420D01*
X459252Y202561D01*
X458182Y202420D01*
X457184Y202007D01*
X456975Y201846D01*
X450375Y208446D01*
X450113Y208622D01*
X449803Y208683D01*
X449803Y208683D01*
X150142D01*
X150015Y208873D01*
X149557Y209179D01*
X149016Y209287D01*
D02*
G37*
G36*
X488192Y192411D02*
Y189255D01*
X491348D01*
X491259Y189930D01*
X490921Y190746D01*
X490383Y191446D01*
X489683Y191984D01*
X488867Y192322D01*
X488192Y192411D01*
D02*
G37*
G36*
X487792D02*
X487117Y192322D01*
X486301Y191984D01*
X485601Y191446D01*
X485064Y190746D01*
X484726Y189930D01*
X484637Y189255D01*
X487792D01*
Y192411D01*
D02*
G37*
G36*
X164764Y189208D02*
X164223Y189101D01*
X163765Y188794D01*
X163458Y188336D01*
X163351Y187795D01*
X163458Y187255D01*
X163765Y186796D01*
X164223Y186490D01*
X164764Y186382D01*
X165305Y186490D01*
X165763Y186796D01*
X166069Y187255D01*
X166177Y187795D01*
X166069Y188336D01*
X165763Y188794D01*
X165305Y189101D01*
X164764Y189208D01*
D02*
G37*
G36*
X487792Y188855D02*
X484637D01*
X484726Y188180D01*
X485064Y187364D01*
X485601Y186664D01*
X486301Y186126D01*
X487117Y185789D01*
X487792Y185700D01*
Y188855D01*
D02*
G37*
G36*
X491348D02*
X488192D01*
Y185700D01*
X488867Y185789D01*
X489683Y186126D01*
X490383Y186664D01*
X490921Y187364D01*
X491259Y188180D01*
X491348Y188855D01*
D02*
G37*
G36*
X497992Y192437D02*
X497117Y192322D01*
X496301Y191984D01*
X495601Y191446D01*
X495063Y190746D01*
X494726Y189930D01*
X494610Y189055D01*
X494726Y188180D01*
X495063Y187364D01*
X495601Y186664D01*
X496301Y186126D01*
X497117Y185789D01*
X497992Y185673D01*
X498867Y185789D01*
X499683Y186126D01*
X500383Y186664D01*
X500921Y187364D01*
X501259Y188180D01*
X501374Y189055D01*
X501259Y189930D01*
X500921Y190746D01*
X500383Y191446D01*
X499683Y191984D01*
X498867Y192322D01*
X497992Y192437D01*
D02*
G37*
G36*
X132874Y188336D02*
X132064Y188175D01*
X131378Y187716D01*
X130920Y187030D01*
X130759Y186221D01*
X130920Y185411D01*
X131378Y184725D01*
X132064Y184266D01*
X132874Y184105D01*
X133684Y184266D01*
X134370Y184725D01*
X134828Y185411D01*
X134990Y186221D01*
X134828Y187030D01*
X134370Y187716D01*
X133684Y188175D01*
X132874Y188336D01*
D02*
G37*
G36*
X424606Y185271D02*
X424066Y185164D01*
X423607Y184857D01*
X423301Y184399D01*
X423193Y183858D01*
X423301Y183317D01*
X423607Y182859D01*
X424066Y182553D01*
X424606Y182445D01*
X425147Y182553D01*
X425605Y182859D01*
X425912Y183317D01*
X426019Y183858D01*
X425912Y184399D01*
X425605Y184857D01*
X425147Y185164D01*
X424606Y185271D01*
D02*
G37*
G36*
X459252Y187600D02*
X458182Y187459D01*
X457184Y187046D01*
X456328Y186389D01*
X455671Y185532D01*
X455258Y184535D01*
X455117Y183465D01*
X455258Y182394D01*
X455671Y181397D01*
X456328Y180540D01*
X457184Y179883D01*
X458182Y179470D01*
X459252Y179329D01*
X460322Y179470D01*
X461320Y179883D01*
X462176Y180540D01*
X462833Y181397D01*
X463246Y182394D01*
X463387Y183465D01*
X463246Y184535D01*
X462833Y185532D01*
X462176Y186389D01*
X461320Y187046D01*
X460322Y187459D01*
X459252Y187600D01*
D02*
G37*
G36*
X131299Y180547D02*
X130759Y180439D01*
X130300Y180133D01*
X129994Y179675D01*
X129886Y179134D01*
X129994Y178593D01*
X130300Y178135D01*
X130759Y177828D01*
X131299Y177721D01*
X131840Y177828D01*
X132298Y178135D01*
X132605Y178593D01*
X132712Y179134D01*
X132605Y179675D01*
X132298Y180133D01*
X131840Y180439D01*
X131299Y180547D01*
D02*
G37*
G36*
X126181Y181249D02*
X125372Y181088D01*
X124685Y180630D01*
X124227Y179943D01*
X124066Y179134D01*
X124227Y178324D01*
X124685Y177638D01*
X125372Y177179D01*
X126181Y177018D01*
X126991Y177179D01*
X127677Y177638D01*
X128136Y178324D01*
X128297Y179134D01*
X128136Y179943D01*
X127677Y180630D01*
X126991Y181088D01*
X126181Y181249D01*
D02*
G37*
G36*
X487992Y182437D02*
X487117Y182322D01*
X486301Y181984D01*
X485601Y181446D01*
X485064Y180746D01*
X484726Y179930D01*
X484610Y179055D01*
X484726Y178180D01*
X485064Y177364D01*
X485601Y176664D01*
X486301Y176127D01*
X487117Y175789D01*
X487992Y175673D01*
X488867Y175789D01*
X489683Y176127D01*
X490383Y176664D01*
X490921Y177364D01*
X491259Y178180D01*
X491374Y179055D01*
X491259Y179930D01*
X490921Y180746D01*
X490383Y181446D01*
X489683Y181984D01*
X488867Y182322D01*
X487992Y182437D01*
D02*
G37*
G36*
X497992Y182437D02*
X497117Y182322D01*
X496301Y181984D01*
X495601Y181446D01*
X495063Y180746D01*
X494726Y179930D01*
X494610Y179055D01*
X494726Y178180D01*
X495063Y177364D01*
X495601Y176664D01*
X496301Y176127D01*
X497117Y175789D01*
X497992Y175673D01*
X498867Y175789D01*
X499683Y176127D01*
X500383Y176664D01*
X500921Y177364D01*
X501259Y178180D01*
X501374Y179055D01*
X501259Y179930D01*
X500921Y180746D01*
X500383Y181446D01*
X499683Y181984D01*
X498867Y182322D01*
X497992Y182437D01*
D02*
G37*
G36*
X149409Y175429D02*
X148869Y175321D01*
X148410Y175015D01*
X148104Y174557D01*
X147996Y174016D01*
X148104Y173475D01*
X148410Y173017D01*
X148869Y172710D01*
X149409Y172603D01*
X149950Y172710D01*
X150409Y173017D01*
X150715Y173475D01*
X150822Y174016D01*
X150715Y174557D01*
X150409Y175015D01*
X149950Y175321D01*
X149409Y175429D01*
D02*
G37*
G36*
X122638Y174641D02*
X122097Y174534D01*
X121639Y174227D01*
X121332Y173769D01*
X121225Y173228D01*
X121332Y172688D01*
X121639Y172229D01*
X122097Y171923D01*
X122638Y171815D01*
X123179Y171923D01*
X123637Y172229D01*
X123943Y172688D01*
X124051Y173228D01*
X123943Y173769D01*
X123637Y174227D01*
X123179Y174534D01*
X122638Y174641D01*
D02*
G37*
G36*
X488192Y172411D02*
Y169255D01*
X491348D01*
X491259Y169930D01*
X490921Y170746D01*
X490383Y171446D01*
X489683Y171984D01*
X488867Y172322D01*
X488192Y172411D01*
D02*
G37*
G36*
X487792D02*
X487117Y172322D01*
X486301Y171984D01*
X485601Y171446D01*
X485064Y170746D01*
X484726Y169930D01*
X484637Y169255D01*
X487792D01*
Y172411D01*
D02*
G37*
G36*
Y168855D02*
X484637D01*
X484726Y168180D01*
X485064Y167364D01*
X485601Y166664D01*
X486301Y166127D01*
X487117Y165789D01*
X487792Y165700D01*
Y168855D01*
D02*
G37*
G36*
X491348D02*
X488192D01*
Y165700D01*
X488867Y165789D01*
X489683Y166127D01*
X490383Y166664D01*
X490921Y167364D01*
X491259Y168180D01*
X491348Y168855D01*
D02*
G37*
G36*
X497992Y172437D02*
X497117Y172321D01*
X496301Y171984D01*
X495601Y171446D01*
X495063Y170746D01*
X494726Y169930D01*
X494610Y169055D01*
X494726Y168180D01*
X495063Y167364D01*
X495601Y166664D01*
X496301Y166127D01*
X497117Y165789D01*
X497992Y165673D01*
X498867Y165789D01*
X499683Y166127D01*
X500383Y166664D01*
X500921Y167364D01*
X501259Y168180D01*
X501374Y169055D01*
X501259Y169930D01*
X500921Y170746D01*
X500383Y171446D01*
X499683Y171984D01*
X498867Y172321D01*
X497992Y172437D01*
D02*
G37*
G36*
X454528Y166374D02*
X453987Y166266D01*
X453528Y165960D01*
X453222Y165501D01*
X453115Y164961D01*
X453222Y164420D01*
X453528Y163962D01*
X453987Y163655D01*
X454528Y163548D01*
X455068Y163655D01*
X455527Y163962D01*
X455833Y164420D01*
X455940Y164961D01*
X455833Y165501D01*
X455527Y165960D01*
X455068Y166266D01*
X454528Y166374D01*
D02*
G37*
G36*
X501345Y162408D02*
X494639D01*
Y155702D01*
X501345D01*
Y162408D01*
D02*
G37*
G36*
X487992Y162437D02*
X487117Y162322D01*
X486301Y161984D01*
X485601Y161446D01*
X485064Y160746D01*
X484726Y159930D01*
X484610Y159055D01*
X484726Y158180D01*
X485064Y157364D01*
X485601Y156664D01*
X486301Y156126D01*
X487117Y155789D01*
X487992Y155673D01*
X488867Y155789D01*
X489683Y156126D01*
X490383Y156664D01*
X490921Y157364D01*
X491259Y158180D01*
X491374Y159055D01*
X491259Y159930D01*
X490921Y160746D01*
X490383Y161446D01*
X489683Y161984D01*
X488867Y162322D01*
X487992Y162437D01*
D02*
G37*
G36*
X417520Y153959D02*
X417520Y153959D01*
X134055D01*
X134055Y153959D01*
X133745Y153897D01*
X133483Y153722D01*
X133483Y153722D01*
X131917Y152156D01*
X131693Y152200D01*
X131152Y152093D01*
X130694Y151786D01*
X130387Y151328D01*
X130280Y150787D01*
X130387Y150247D01*
X130694Y149788D01*
X131152Y149482D01*
X131693Y149374D01*
X132234Y149482D01*
X132692Y149788D01*
X132998Y150247D01*
X133106Y150787D01*
X133061Y151011D01*
X134390Y152340D01*
X159727D01*
X159994Y151840D01*
X159915Y151722D01*
X159808Y151181D01*
X159915Y150640D01*
X160221Y150182D01*
X160680Y149876D01*
X161221Y149768D01*
X161761Y149876D01*
X162220Y150182D01*
X162526Y150640D01*
X162633Y151181D01*
X162526Y151722D01*
X162447Y151840D01*
X162714Y152340D01*
X201853D01*
X202120Y151840D01*
X202041Y151722D01*
X201934Y151181D01*
X202041Y150640D01*
X202347Y150182D01*
X202806Y149876D01*
X203346Y149768D01*
X203887Y149876D01*
X204346Y150182D01*
X204652Y150640D01*
X204759Y151181D01*
X204652Y151722D01*
X204573Y151840D01*
X204840Y152340D01*
X243979D01*
X244246Y151840D01*
X244167Y151722D01*
X244059Y151181D01*
X244167Y150640D01*
X244473Y150182D01*
X244932Y149876D01*
X245472Y149768D01*
X246013Y149876D01*
X246472Y150182D01*
X246778Y150640D01*
X246885Y151181D01*
X246778Y151722D01*
X246699Y151840D01*
X246966Y152340D01*
X286105D01*
X286372Y151840D01*
X286293Y151722D01*
X286185Y151181D01*
X286293Y150640D01*
X286599Y150182D01*
X287058Y149876D01*
X287598Y149768D01*
X288139Y149876D01*
X288597Y150182D01*
X288904Y150640D01*
X289011Y151181D01*
X288904Y151722D01*
X288825Y151840D01*
X289092Y152340D01*
X328231D01*
X328498Y151840D01*
X328419Y151722D01*
X328311Y151181D01*
X328419Y150640D01*
X328725Y150182D01*
X329184Y149876D01*
X329724Y149768D01*
X330265Y149876D01*
X330724Y150182D01*
X331030Y150640D01*
X331137Y151181D01*
X331030Y151722D01*
X330951Y151840D01*
X331218Y152340D01*
X370357D01*
X370624Y151840D01*
X370545Y151722D01*
X370437Y151181D01*
X370545Y150640D01*
X370851Y150182D01*
X371310Y149876D01*
X371850Y149768D01*
X372391Y149876D01*
X372849Y150182D01*
X373156Y150640D01*
X373263Y151181D01*
X373156Y151722D01*
X373077Y151840D01*
X373344Y152340D01*
X412483D01*
X412750Y151840D01*
X412671Y151722D01*
X412563Y151181D01*
X412671Y150640D01*
X412977Y150182D01*
X413436Y149876D01*
X413976Y149768D01*
X414517Y149876D01*
X414976Y150182D01*
X415282Y150640D01*
X415389Y151181D01*
X415282Y151722D01*
X415203Y151840D01*
X415470Y152340D01*
X417184D01*
X422844Y146681D01*
X422800Y146457D01*
X422907Y145916D01*
X423213Y145458D01*
X423672Y145151D01*
X424213Y145044D01*
X424753Y145151D01*
X425212Y145458D01*
X425518Y145916D01*
X425626Y146457D01*
X425518Y146997D01*
X425212Y147456D01*
X424753Y147762D01*
X424213Y147870D01*
X423989Y147825D01*
X418092Y153722D01*
X417829Y153897D01*
X417778Y153908D01*
X417520Y153959D01*
D02*
G37*
G36*
X126181Y152200D02*
X125640Y152093D01*
X125182Y151786D01*
X124876Y151328D01*
X124768Y150787D01*
X124876Y150247D01*
X125182Y149788D01*
X125640Y149482D01*
X126181Y149374D01*
X126722Y149482D01*
X127180Y149788D01*
X127487Y150247D01*
X127594Y150787D01*
X127487Y151328D01*
X127180Y151786D01*
X126722Y152093D01*
X126181Y152200D01*
D02*
G37*
G36*
X149016Y157318D02*
X148475Y157211D01*
X148017Y156905D01*
X147710Y156446D01*
X147603Y155905D01*
X147710Y155365D01*
X148017Y154906D01*
X148475Y154600D01*
X149016Y154492D01*
X149557Y154600D01*
X150015Y154906D01*
X150142Y155096D01*
X449468D01*
X455831Y148733D01*
X455671Y148524D01*
X455258Y147527D01*
X455117Y146457D01*
X455258Y145386D01*
X455671Y144389D01*
X456328Y143533D01*
X457184Y142875D01*
X458182Y142462D01*
X459252Y142321D01*
X460322Y142462D01*
X461320Y142875D01*
X462176Y143533D01*
X462833Y144389D01*
X463246Y145386D01*
X463387Y146457D01*
X463246Y147527D01*
X462833Y148524D01*
X462176Y149381D01*
X461320Y150038D01*
X460322Y150451D01*
X459252Y150592D01*
X458182Y150451D01*
X457184Y150038D01*
X456975Y149878D01*
X450375Y156478D01*
X450113Y156653D01*
X449803Y156715D01*
X449803Y156715D01*
X150142D01*
X150015Y156905D01*
X149557Y157211D01*
X149016Y157318D01*
D02*
G37*
G36*
X164764Y137240D02*
X164223Y137132D01*
X163765Y136826D01*
X163458Y136367D01*
X163351Y135827D01*
X163458Y135286D01*
X163765Y134828D01*
X164223Y134521D01*
X164764Y134414D01*
X165305Y134521D01*
X165763Y134828D01*
X166069Y135286D01*
X166177Y135827D01*
X166069Y136367D01*
X165763Y136826D01*
X165305Y137132D01*
X164764Y137240D01*
D02*
G37*
G36*
X132874Y136367D02*
X132064Y136206D01*
X131378Y135748D01*
X130920Y135062D01*
X130759Y134252D01*
X130920Y133442D01*
X131378Y132756D01*
X132064Y132298D01*
X132874Y132136D01*
X133684Y132298D01*
X134370Y132756D01*
X134828Y133442D01*
X134990Y134252D01*
X134828Y135062D01*
X134370Y135748D01*
X133684Y136206D01*
X132874Y136367D01*
D02*
G37*
G36*
X424213Y132909D02*
X423672Y132801D01*
X423213Y132495D01*
X422907Y132037D01*
X422800Y131496D01*
X422907Y130955D01*
X423213Y130497D01*
X423672Y130191D01*
X424213Y130083D01*
X424753Y130191D01*
X425212Y130497D01*
X425518Y130955D01*
X425626Y131496D01*
X425518Y132037D01*
X425212Y132495D01*
X424753Y132801D01*
X424213Y132909D01*
D02*
G37*
G36*
X459252Y135631D02*
X458182Y135491D01*
X457184Y135077D01*
X456328Y134420D01*
X455671Y133564D01*
X455258Y132566D01*
X455117Y131496D01*
X455258Y130426D01*
X455671Y129428D01*
X456328Y128572D01*
X457184Y127915D01*
X458182Y127502D01*
X459252Y127361D01*
X460322Y127502D01*
X461320Y127915D01*
X462176Y128572D01*
X462833Y129428D01*
X463246Y130426D01*
X463387Y131496D01*
X463246Y132566D01*
X462833Y133564D01*
X462176Y134420D01*
X461320Y135077D01*
X460322Y135491D01*
X459252Y135631D01*
D02*
G37*
G36*
X131299Y128578D02*
X130759Y128471D01*
X130300Y128165D01*
X129994Y127706D01*
X129886Y127165D01*
X129994Y126625D01*
X130300Y126166D01*
X130759Y125860D01*
X131299Y125752D01*
X131840Y125860D01*
X132298Y126166D01*
X132605Y126625D01*
X132712Y127165D01*
X132605Y127706D01*
X132298Y128165D01*
X131840Y128471D01*
X131299Y128578D01*
D02*
G37*
G36*
X126181Y129281D02*
X125372Y129120D01*
X124685Y128661D01*
X124227Y127975D01*
X124066Y127165D01*
X124227Y126356D01*
X124685Y125670D01*
X125372Y125211D01*
X126181Y125050D01*
X126991Y125211D01*
X127677Y125670D01*
X128136Y126356D01*
X128296Y127165D01*
X128136Y127975D01*
X127677Y128661D01*
X126991Y129120D01*
X126181Y129281D01*
D02*
G37*
G36*
X149409Y123460D02*
X148869Y123353D01*
X148410Y123046D01*
X148104Y122588D01*
X147996Y122047D01*
X148104Y121507D01*
X148410Y121048D01*
X148869Y120742D01*
X149409Y120634D01*
X149950Y120742D01*
X150409Y121048D01*
X150715Y121507D01*
X150822Y122047D01*
X150715Y122588D01*
X150409Y123046D01*
X149950Y123353D01*
X149409Y123460D01*
D02*
G37*
G36*
X122638Y123066D02*
X122097Y122959D01*
X121639Y122653D01*
X121332Y122194D01*
X121225Y121653D01*
X121332Y121113D01*
X121639Y120654D01*
X122097Y120348D01*
X122638Y120241D01*
X123179Y120348D01*
X123637Y120654D01*
X123943Y121113D01*
X124051Y121653D01*
X123943Y122194D01*
X123637Y122653D01*
X123179Y122959D01*
X122638Y123066D01*
D02*
G37*
G36*
X488192Y122253D02*
Y119098D01*
X491348D01*
X491259Y119773D01*
X490921Y120589D01*
X490383Y121289D01*
X489683Y121826D01*
X488867Y122164D01*
X488192Y122253D01*
D02*
G37*
G36*
X487792D02*
X487117Y122164D01*
X486301Y121826D01*
X485601Y121289D01*
X485064Y120589D01*
X484726Y119773D01*
X484637Y119098D01*
X487792D01*
Y122253D01*
D02*
G37*
G36*
X491348Y118698D02*
X488192D01*
Y115542D01*
X488867Y115631D01*
X489683Y115969D01*
X490383Y116506D01*
X490921Y117207D01*
X491259Y118022D01*
X491348Y118698D01*
D02*
G37*
G36*
X487792D02*
X484637D01*
X484726Y118022D01*
X485064Y117207D01*
X485601Y116506D01*
X486301Y115969D01*
X487117Y115631D01*
X487792Y115542D01*
Y118698D01*
D02*
G37*
G36*
X497992Y122279D02*
X497117Y122164D01*
X496301Y121826D01*
X495601Y121289D01*
X495063Y120589D01*
X494726Y119773D01*
X494610Y118898D01*
X494726Y118022D01*
X495063Y117207D01*
X495601Y116506D01*
X496301Y115969D01*
X497117Y115631D01*
X497992Y115516D01*
X498867Y115631D01*
X499683Y115969D01*
X500383Y116506D01*
X500921Y117207D01*
X501259Y118022D01*
X501374Y118898D01*
X501259Y119773D01*
X500921Y120589D01*
X500383Y121289D01*
X499683Y121826D01*
X498867Y122164D01*
X497992Y122279D01*
D02*
G37*
G36*
Y112279D02*
X497117Y112164D01*
X496301Y111826D01*
X495601Y111289D01*
X495063Y110589D01*
X494726Y109773D01*
X494610Y108898D01*
X494726Y108022D01*
X495063Y107207D01*
X495601Y106506D01*
X496301Y105969D01*
X497117Y105631D01*
X497992Y105516D01*
X498867Y105631D01*
X499683Y105969D01*
X500383Y106506D01*
X500921Y107207D01*
X501259Y108022D01*
X501374Y108898D01*
X501259Y109773D01*
X500921Y110589D01*
X500383Y111289D01*
X499683Y111826D01*
X498867Y112164D01*
X497992Y112279D01*
D02*
G37*
G36*
X487992Y112279D02*
X487117Y112164D01*
X486301Y111826D01*
X485601Y111289D01*
X485064Y110588D01*
X484726Y109773D01*
X484610Y108898D01*
X484726Y108022D01*
X485064Y107207D01*
X485601Y106506D01*
X486301Y105969D01*
X487117Y105631D01*
X487992Y105516D01*
X488867Y105631D01*
X489683Y105969D01*
X490383Y106506D01*
X490921Y107207D01*
X491259Y108022D01*
X491374Y108898D01*
X491259Y109773D01*
X490921Y110588D01*
X490383Y111289D01*
X489683Y111826D01*
X488867Y112164D01*
X487992Y112279D01*
D02*
G37*
G36*
X417520Y101990D02*
X417520Y101990D01*
X134055D01*
X134055Y101990D01*
X133745Y101929D01*
X133483Y101753D01*
X133483Y101753D01*
X131917Y100187D01*
X131693Y100232D01*
X131152Y100124D01*
X130694Y99818D01*
X130387Y99360D01*
X130280Y98819D01*
X130387Y98278D01*
X130694Y97820D01*
X131152Y97514D01*
X131693Y97406D01*
X132234Y97514D01*
X132692Y97820D01*
X132998Y98278D01*
X133106Y98819D01*
X133061Y99043D01*
X134390Y100372D01*
X159727D01*
X159994Y99872D01*
X159915Y99753D01*
X159808Y99213D01*
X159915Y98672D01*
X160221Y98213D01*
X160680Y97907D01*
X161221Y97800D01*
X161761Y97907D01*
X162220Y98213D01*
X162526Y98672D01*
X162633Y99213D01*
X162526Y99753D01*
X162447Y99872D01*
X162714Y100372D01*
X201853D01*
X202120Y99872D01*
X202041Y99753D01*
X201934Y99213D01*
X202041Y98672D01*
X202347Y98213D01*
X202806Y97907D01*
X203346Y97800D01*
X203887Y97907D01*
X204346Y98213D01*
X204652Y98672D01*
X204759Y99213D01*
X204652Y99753D01*
X204573Y99872D01*
X204840Y100372D01*
X243979D01*
X244246Y99872D01*
X244167Y99753D01*
X244059Y99213D01*
X244167Y98672D01*
X244473Y98213D01*
X244932Y97907D01*
X245472Y97800D01*
X246013Y97907D01*
X246472Y98213D01*
X246778Y98672D01*
X246885Y99213D01*
X246778Y99753D01*
X246699Y99872D01*
X246966Y100372D01*
X286105D01*
X286372Y99872D01*
X286293Y99753D01*
X286185Y99213D01*
X286293Y98672D01*
X286599Y98213D01*
X287058Y97907D01*
X287598Y97800D01*
X288139Y97907D01*
X288597Y98213D01*
X288904Y98672D01*
X289011Y99213D01*
X288904Y99753D01*
X288825Y99872D01*
X289092Y100372D01*
X328231D01*
X328498Y99872D01*
X328419Y99753D01*
X328311Y99213D01*
X328419Y98672D01*
X328725Y98213D01*
X329184Y97907D01*
X329724Y97800D01*
X330265Y97907D01*
X330724Y98213D01*
X331030Y98672D01*
X331137Y99213D01*
X331030Y99753D01*
X330951Y99872D01*
X331218Y100372D01*
X370357D01*
X370624Y99872D01*
X370545Y99753D01*
X370437Y99213D01*
X370545Y98672D01*
X370851Y98213D01*
X371310Y97907D01*
X371850Y97800D01*
X372391Y97907D01*
X372849Y98213D01*
X373156Y98672D01*
X373263Y99213D01*
X373156Y99753D01*
X373077Y99872D01*
X373344Y100372D01*
X412483D01*
X412750Y99872D01*
X412671Y99753D01*
X412563Y99213D01*
X412671Y98672D01*
X412977Y98213D01*
X413436Y97907D01*
X413976Y97800D01*
X414517Y97907D01*
X414976Y98213D01*
X415282Y98672D01*
X415389Y99213D01*
X415282Y99753D01*
X415203Y99872D01*
X415470Y100372D01*
X417184D01*
X422844Y94712D01*
X422800Y94488D01*
X422907Y93947D01*
X423213Y93489D01*
X423672Y93183D01*
X424213Y93075D01*
X424753Y93183D01*
X425212Y93489D01*
X425518Y93947D01*
X425626Y94488D01*
X425518Y95029D01*
X425212Y95487D01*
X424753Y95794D01*
X424213Y95901D01*
X423989Y95857D01*
X418092Y101753D01*
X417829Y101929D01*
X417778Y101939D01*
X417520Y101990D01*
D02*
G37*
G36*
X488192Y102253D02*
Y99098D01*
X491348D01*
X491259Y99773D01*
X490921Y100589D01*
X490383Y101289D01*
X489683Y101826D01*
X488867Y102164D01*
X488192Y102253D01*
D02*
G37*
G36*
X487792D02*
X487117Y102164D01*
X486301Y101826D01*
X485601Y101289D01*
X485064Y100589D01*
X484726Y99773D01*
X484637Y99098D01*
X487792D01*
Y102253D01*
D02*
G37*
G36*
X126181Y100232D02*
X125640Y100124D01*
X125182Y99818D01*
X124876Y99360D01*
X124768Y98819D01*
X124876Y98278D01*
X125182Y97820D01*
X125640Y97514D01*
X126181Y97406D01*
X126722Y97514D01*
X127180Y97820D01*
X127487Y98278D01*
X127594Y98819D01*
X127487Y99360D01*
X127180Y99818D01*
X126722Y100124D01*
X126181Y100232D01*
D02*
G37*
G36*
X491348Y98698D02*
X488192D01*
Y95542D01*
X488867Y95631D01*
X489683Y95969D01*
X490383Y96506D01*
X490921Y97207D01*
X491259Y98022D01*
X491348Y98698D01*
D02*
G37*
G36*
X487792D02*
X484637D01*
X484726Y98022D01*
X485064Y97207D01*
X485601Y96506D01*
X486301Y95969D01*
X487117Y95631D01*
X487792Y95542D01*
Y98698D01*
D02*
G37*
G36*
X497992Y102279D02*
X497117Y102164D01*
X496301Y101826D01*
X495601Y101289D01*
X495063Y100589D01*
X494726Y99773D01*
X494610Y98898D01*
X494726Y98022D01*
X495063Y97207D01*
X495601Y96506D01*
X496301Y95969D01*
X497117Y95631D01*
X497992Y95516D01*
X498867Y95631D01*
X499683Y95969D01*
X500383Y96506D01*
X500921Y97207D01*
X501259Y98022D01*
X501374Y98898D01*
X501259Y99773D01*
X500921Y100589D01*
X500383Y101289D01*
X499683Y101826D01*
X498867Y102164D01*
X497992Y102279D01*
D02*
G37*
G36*
X149016Y105350D02*
X148475Y105242D01*
X148017Y104936D01*
X147710Y104478D01*
X147603Y103937D01*
X147710Y103396D01*
X148017Y102938D01*
X148475Y102632D01*
X149016Y102524D01*
X149557Y102632D01*
X150015Y102938D01*
X150142Y103128D01*
X449468D01*
X455831Y96765D01*
X455671Y96556D01*
X455258Y95559D01*
X455117Y94488D01*
X455258Y93418D01*
X455671Y92421D01*
X456328Y91564D01*
X457184Y90907D01*
X458182Y90494D01*
X459252Y90353D01*
X460322Y90494D01*
X461320Y90907D01*
X462176Y91564D01*
X462833Y92421D01*
X463246Y93418D01*
X463387Y94488D01*
X463246Y95559D01*
X462833Y96556D01*
X462176Y97412D01*
X461320Y98070D01*
X460322Y98483D01*
X459252Y98624D01*
X458182Y98483D01*
X457184Y98070D01*
X456975Y97909D01*
X450375Y104509D01*
X450113Y104685D01*
X449803Y104746D01*
X449803Y104746D01*
X150142D01*
X150015Y104936D01*
X149557Y105242D01*
X149016Y105350D01*
D02*
G37*
G36*
X497992Y92279D02*
X497117Y92164D01*
X496301Y91826D01*
X495601Y91289D01*
X495063Y90588D01*
X494726Y89773D01*
X494610Y88898D01*
X494726Y88022D01*
X495063Y87207D01*
X495601Y86506D01*
X496301Y85969D01*
X497117Y85631D01*
X497992Y85516D01*
X498867Y85631D01*
X499683Y85969D01*
X500383Y86506D01*
X500921Y87207D01*
X501259Y88022D01*
X501374Y88898D01*
X501259Y89773D01*
X500921Y90588D01*
X500383Y91289D01*
X499683Y91826D01*
X498867Y92164D01*
X497992Y92279D01*
D02*
G37*
G36*
X487992D02*
X487117Y92164D01*
X486301Y91826D01*
X485601Y91289D01*
X485064Y90588D01*
X484726Y89773D01*
X484610Y88898D01*
X484726Y88022D01*
X485064Y87207D01*
X485601Y86506D01*
X486301Y85969D01*
X487117Y85631D01*
X487992Y85516D01*
X488867Y85631D01*
X489683Y85969D01*
X490383Y86506D01*
X490921Y87207D01*
X491259Y88022D01*
X491374Y88898D01*
X491259Y89773D01*
X490921Y90588D01*
X490383Y91289D01*
X489683Y91826D01*
X488867Y92164D01*
X487992Y92279D01*
D02*
G37*
G36*
X164764Y85271D02*
X164223Y85164D01*
X163765Y84857D01*
X163458Y84399D01*
X163351Y83858D01*
X163458Y83318D01*
X163765Y82859D01*
X164223Y82553D01*
X164764Y82445D01*
X165305Y82553D01*
X165763Y82859D01*
X166069Y83318D01*
X166177Y83858D01*
X166069Y84399D01*
X165763Y84857D01*
X165305Y85164D01*
X164764Y85271D01*
D02*
G37*
G36*
X132874Y84399D02*
X132064Y84238D01*
X131378Y83779D01*
X130920Y83093D01*
X130759Y82284D01*
X130920Y81474D01*
X131378Y80788D01*
X132064Y80329D01*
X132874Y80168D01*
X133684Y80329D01*
X134370Y80788D01*
X134828Y81474D01*
X134990Y82284D01*
X134828Y83093D01*
X134370Y83779D01*
X133684Y84238D01*
X132874Y84399D01*
D02*
G37*
G36*
X488192Y82253D02*
Y79098D01*
X491348D01*
X491259Y79773D01*
X490921Y80589D01*
X490383Y81289D01*
X489683Y81826D01*
X488867Y82164D01*
X488192Y82253D01*
D02*
G37*
G36*
X487792D02*
X487117Y82164D01*
X486301Y81826D01*
X485601Y81289D01*
X485064Y80589D01*
X484726Y79773D01*
X484637Y79098D01*
X487792D01*
Y82253D01*
D02*
G37*
G36*
X424213Y80941D02*
X423672Y80833D01*
X423213Y80527D01*
X422907Y80068D01*
X422800Y79528D01*
X422907Y78987D01*
X423213Y78528D01*
X423672Y78222D01*
X424213Y78115D01*
X424753Y78222D01*
X425212Y78528D01*
X425518Y78987D01*
X425626Y79528D01*
X425518Y80068D01*
X425212Y80527D01*
X424753Y80833D01*
X424213Y80941D01*
D02*
G37*
G36*
X487792Y78698D02*
X484637D01*
X484726Y78022D01*
X485064Y77207D01*
X485601Y76506D01*
X486301Y75969D01*
X487117Y75631D01*
X487792Y75542D01*
Y78698D01*
D02*
G37*
G36*
X491348D02*
X488192D01*
Y75542D01*
X488867Y75631D01*
X489683Y75969D01*
X490383Y76506D01*
X490921Y77207D01*
X491259Y78022D01*
X491348Y78698D01*
D02*
G37*
G36*
X497992Y82279D02*
X497117Y82164D01*
X496301Y81826D01*
X495601Y81289D01*
X495063Y80589D01*
X494726Y79773D01*
X494610Y78898D01*
X494726Y78022D01*
X495063Y77207D01*
X495601Y76506D01*
X496301Y75969D01*
X497117Y75631D01*
X497992Y75516D01*
X498867Y75631D01*
X499683Y75969D01*
X500383Y76506D01*
X500921Y77207D01*
X501259Y78022D01*
X501374Y78898D01*
X501259Y79773D01*
X500921Y80589D01*
X500383Y81289D01*
X499683Y81826D01*
X498867Y82164D01*
X497992Y82279D01*
D02*
G37*
G36*
X459252Y83663D02*
X458182Y83522D01*
X457184Y83109D01*
X456328Y82452D01*
X455671Y81595D01*
X455258Y80598D01*
X455117Y79528D01*
X455258Y78457D01*
X455671Y77460D01*
X456328Y76603D01*
X457184Y75946D01*
X458182Y75533D01*
X459252Y75392D01*
X460322Y75533D01*
X461320Y75946D01*
X462176Y76603D01*
X462833Y77460D01*
X463246Y78457D01*
X463387Y79528D01*
X463246Y80598D01*
X462833Y81595D01*
X462176Y82452D01*
X461320Y83109D01*
X460322Y83522D01*
X459252Y83663D01*
D02*
G37*
G36*
X131299Y76610D02*
X130759Y76502D01*
X130300Y76196D01*
X129994Y75738D01*
X129886Y75197D01*
X129994Y74656D01*
X130300Y74198D01*
X130759Y73891D01*
X131299Y73784D01*
X131840Y73891D01*
X132298Y74198D01*
X132605Y74656D01*
X132712Y75197D01*
X132605Y75738D01*
X132298Y76196D01*
X131840Y76502D01*
X131299Y76610D01*
D02*
G37*
G36*
X126181Y77312D02*
X125372Y77151D01*
X124685Y76693D01*
X124227Y76006D01*
X124066Y75197D01*
X124227Y74387D01*
X124685Y73701D01*
X125372Y73242D01*
X126181Y73081D01*
X126991Y73242D01*
X127677Y73701D01*
X128136Y74387D01*
X128296Y75197D01*
X128136Y76006D01*
X127677Y76693D01*
X126991Y77151D01*
X126181Y77312D01*
D02*
G37*
G36*
X149409Y71492D02*
X148869Y71384D01*
X148410Y71078D01*
X148104Y70619D01*
X147996Y70079D01*
X148104Y69538D01*
X148410Y69080D01*
X148869Y68773D01*
X149409Y68666D01*
X149950Y68773D01*
X150409Y69080D01*
X150715Y69538D01*
X150822Y70079D01*
X150715Y70619D01*
X150409Y71078D01*
X149950Y71384D01*
X149409Y71492D01*
D02*
G37*
G36*
X122638Y70704D02*
X122097Y70597D01*
X121639Y70290D01*
X121332Y69832D01*
X121225Y69291D01*
X121332Y68751D01*
X121639Y68292D01*
X122097Y67986D01*
X122638Y67878D01*
X123179Y67986D01*
X123637Y68292D01*
X123943Y68751D01*
X124051Y69291D01*
X123943Y69832D01*
X123637Y70290D01*
X123179Y70597D01*
X122638Y70704D01*
D02*
G37*
G36*
X497992Y72279D02*
X497117Y72164D01*
X496301Y71826D01*
X495601Y71289D01*
X495063Y70588D01*
X494726Y69773D01*
X494610Y68898D01*
X494726Y68022D01*
X495063Y67207D01*
X495601Y66506D01*
X496301Y65969D01*
X497117Y65631D01*
X497992Y65516D01*
X498867Y65631D01*
X499683Y65969D01*
X500383Y66506D01*
X500921Y67207D01*
X501259Y68022D01*
X501374Y68898D01*
X501259Y69773D01*
X500921Y70588D01*
X500383Y71289D01*
X499683Y71826D01*
X498867Y72164D01*
X497992Y72279D01*
D02*
G37*
G36*
X487992D02*
X487117Y72164D01*
X486301Y71826D01*
X485601Y71289D01*
X485064Y70588D01*
X484726Y69773D01*
X484610Y68898D01*
X484726Y68022D01*
X485064Y67207D01*
X485601Y66506D01*
X486301Y65969D01*
X487117Y65631D01*
X487992Y65516D01*
X488867Y65631D01*
X489683Y65969D01*
X490383Y66506D01*
X490921Y67207D01*
X491259Y68022D01*
X491374Y68898D01*
X491259Y69773D01*
X490921Y70588D01*
X490383Y71289D01*
X489683Y71826D01*
X488867Y72164D01*
X487992Y72279D01*
D02*
G37*
G36*
X488192Y62253D02*
Y59098D01*
X491348D01*
X491259Y59773D01*
X490921Y60589D01*
X490383Y61289D01*
X489683Y61826D01*
X488867Y62164D01*
X488192Y62253D01*
D02*
G37*
G36*
X487792D02*
X487117Y62164D01*
X486301Y61826D01*
X485601Y61289D01*
X485064Y60589D01*
X484726Y59773D01*
X484637Y59098D01*
X487792D01*
Y62253D01*
D02*
G37*
G36*
X491348Y58698D02*
X488192D01*
Y55542D01*
X488867Y55631D01*
X489683Y55969D01*
X490383Y56506D01*
X490921Y57207D01*
X491259Y58022D01*
X491348Y58698D01*
D02*
G37*
G36*
X487792D02*
X484637D01*
X484726Y58022D01*
X485064Y57207D01*
X485601Y56506D01*
X486301Y55969D01*
X487117Y55631D01*
X487792Y55542D01*
Y58698D01*
D02*
G37*
G36*
X497992Y62279D02*
X497117Y62164D01*
X496301Y61826D01*
X495601Y61289D01*
X495063Y60589D01*
X494726Y59773D01*
X494610Y58898D01*
X494726Y58022D01*
X495063Y57207D01*
X495601Y56506D01*
X496301Y55969D01*
X497117Y55631D01*
X497992Y55516D01*
X498867Y55631D01*
X499683Y55969D01*
X500383Y56506D01*
X500921Y57207D01*
X501259Y58022D01*
X501374Y58898D01*
X501259Y59773D01*
X500921Y60589D01*
X500383Y61289D01*
X499683Y61826D01*
X498867Y62164D01*
X497992Y62279D01*
D02*
G37*
G36*
X417520Y50022D02*
X417520Y50022D01*
X134055D01*
X134055Y50022D01*
X133745Y49960D01*
X133483Y49785D01*
X133483Y49785D01*
X131917Y48219D01*
X131693Y48263D01*
X131152Y48156D01*
X130694Y47850D01*
X130387Y47391D01*
X130280Y46850D01*
X130387Y46310D01*
X130694Y45851D01*
X131152Y45545D01*
X131693Y45437D01*
X132234Y45545D01*
X132692Y45851D01*
X132998Y46310D01*
X133106Y46850D01*
X133061Y47074D01*
X134390Y48403D01*
X159727D01*
X159994Y47903D01*
X159915Y47785D01*
X159808Y47244D01*
X159915Y46703D01*
X160221Y46245D01*
X160680Y45939D01*
X161221Y45831D01*
X161761Y45939D01*
X162220Y46245D01*
X162526Y46703D01*
X162633Y47244D01*
X162526Y47785D01*
X162447Y47903D01*
X162714Y48403D01*
X201853D01*
X202120Y47903D01*
X202041Y47785D01*
X201934Y47244D01*
X202041Y46703D01*
X202347Y46245D01*
X202806Y45939D01*
X203346Y45831D01*
X203887Y45939D01*
X204346Y46245D01*
X204652Y46703D01*
X204759Y47244D01*
X204652Y47785D01*
X204573Y47903D01*
X204840Y48403D01*
X243979D01*
X244246Y47903D01*
X244167Y47785D01*
X244059Y47244D01*
X244167Y46703D01*
X244473Y46245D01*
X244932Y45939D01*
X245472Y45831D01*
X246013Y45939D01*
X246472Y46245D01*
X246778Y46703D01*
X246885Y47244D01*
X246778Y47785D01*
X246699Y47903D01*
X246966Y48403D01*
X286105D01*
X286372Y47903D01*
X286293Y47785D01*
X286185Y47244D01*
X286293Y46703D01*
X286599Y46245D01*
X287058Y45939D01*
X287598Y45831D01*
X288139Y45939D01*
X288597Y46245D01*
X288904Y46703D01*
X289011Y47244D01*
X288904Y47785D01*
X288825Y47903D01*
X289092Y48403D01*
X328231D01*
X328498Y47903D01*
X328419Y47785D01*
X328311Y47244D01*
X328419Y46703D01*
X328725Y46245D01*
X329184Y45939D01*
X329724Y45831D01*
X330265Y45939D01*
X330724Y46245D01*
X331030Y46703D01*
X331137Y47244D01*
X331030Y47785D01*
X330951Y47903D01*
X331218Y48403D01*
X370357D01*
X370624Y47903D01*
X370545Y47785D01*
X370437Y47244D01*
X370545Y46703D01*
X370851Y46245D01*
X371310Y45939D01*
X371850Y45831D01*
X372391Y45939D01*
X372849Y46245D01*
X373156Y46703D01*
X373263Y47244D01*
X373156Y47785D01*
X373077Y47903D01*
X373344Y48403D01*
X412483D01*
X412750Y47903D01*
X412671Y47785D01*
X412563Y47244D01*
X412671Y46703D01*
X412977Y46245D01*
X413436Y45939D01*
X413976Y45831D01*
X414517Y45939D01*
X414976Y46245D01*
X415282Y46703D01*
X415389Y47244D01*
X415282Y47785D01*
X415203Y47903D01*
X415470Y48403D01*
X417184D01*
X422844Y42744D01*
X422800Y42520D01*
X422907Y41979D01*
X423213Y41521D01*
X423672Y41214D01*
X424213Y41107D01*
X424753Y41214D01*
X425212Y41521D01*
X425518Y41979D01*
X425626Y42520D01*
X425518Y43060D01*
X425212Y43519D01*
X424753Y43825D01*
X424213Y43933D01*
X423989Y43888D01*
X418092Y49785D01*
X417829Y49960D01*
X417778Y49970D01*
X417520Y50022D01*
D02*
G37*
G36*
X497992Y52279D02*
X497117Y52164D01*
X496301Y51826D01*
X495601Y51289D01*
X495063Y50589D01*
X494726Y49773D01*
X494610Y48898D01*
X494726Y48022D01*
X495063Y47207D01*
X495601Y46506D01*
X496301Y45969D01*
X497117Y45631D01*
X497992Y45516D01*
X498867Y45631D01*
X499683Y45969D01*
X500383Y46506D01*
X500921Y47207D01*
X501259Y48022D01*
X501374Y48898D01*
X501259Y49773D01*
X500921Y50589D01*
X500383Y51289D01*
X499683Y51826D01*
X498867Y52164D01*
X497992Y52279D01*
D02*
G37*
G36*
X487992D02*
X487117Y52164D01*
X486301Y51826D01*
X485601Y51289D01*
X485064Y50589D01*
X484726Y49773D01*
X484610Y48898D01*
X484726Y48022D01*
X485064Y47207D01*
X485601Y46506D01*
X486301Y45969D01*
X487117Y45631D01*
X487992Y45516D01*
X488867Y45631D01*
X489683Y45969D01*
X490383Y46506D01*
X490921Y47207D01*
X491259Y48022D01*
X491374Y48898D01*
X491259Y49773D01*
X490921Y50589D01*
X490383Y51289D01*
X489683Y51826D01*
X488867Y52164D01*
X487992Y52279D01*
D02*
G37*
G36*
X126181Y48263D02*
X125640Y48156D01*
X125182Y47850D01*
X124876Y47391D01*
X124768Y46850D01*
X124876Y46310D01*
X125182Y45851D01*
X125640Y45545D01*
X126181Y45437D01*
X126722Y45545D01*
X127180Y45851D01*
X127487Y46310D01*
X127594Y46850D01*
X127487Y47391D01*
X127180Y47850D01*
X126722Y48156D01*
X126181Y48263D01*
D02*
G37*
G36*
X488192Y42253D02*
Y39098D01*
X491348D01*
X491259Y39773D01*
X490921Y40589D01*
X490383Y41289D01*
X489683Y41826D01*
X488867Y42164D01*
X488192Y42253D01*
D02*
G37*
G36*
X487792D02*
X487117Y42164D01*
X486301Y41826D01*
X485601Y41289D01*
X485064Y40589D01*
X484726Y39773D01*
X484637Y39098D01*
X487792D01*
Y42253D01*
D02*
G37*
G36*
X149016Y53382D02*
X148475Y53274D01*
X148017Y52968D01*
X147710Y52509D01*
X147603Y51968D01*
X147710Y51428D01*
X148017Y50969D01*
X148475Y50663D01*
X149016Y50555D01*
X149557Y50663D01*
X150015Y50969D01*
X150142Y51159D01*
X449468D01*
X455831Y44796D01*
X455671Y44587D01*
X455258Y43590D01*
X455117Y42520D01*
X455258Y41449D01*
X455671Y40452D01*
X456328Y39595D01*
X457184Y38938D01*
X458182Y38525D01*
X459252Y38384D01*
X460322Y38525D01*
X461320Y38938D01*
X462176Y39595D01*
X462833Y40452D01*
X463246Y41449D01*
X463387Y42520D01*
X463246Y43590D01*
X462833Y44587D01*
X462176Y45444D01*
X461320Y46101D01*
X460322Y46514D01*
X459252Y46655D01*
X458182Y46514D01*
X457184Y46101D01*
X456975Y45941D01*
X450375Y52541D01*
X450113Y52716D01*
X449803Y52778D01*
X449803Y52778D01*
X150142D01*
X150015Y52968D01*
X149557Y53274D01*
X149016Y53382D01*
D02*
G37*
G36*
X491348Y38698D02*
X488192D01*
Y35542D01*
X488867Y35631D01*
X489683Y35969D01*
X490383Y36506D01*
X490921Y37207D01*
X491259Y38022D01*
X491348Y38698D01*
D02*
G37*
G36*
X487792D02*
X484637D01*
X484726Y38022D01*
X485064Y37207D01*
X485601Y36506D01*
X486301Y35969D01*
X487117Y35631D01*
X487792Y35542D01*
Y38698D01*
D02*
G37*
G36*
X497992Y42279D02*
X497117Y42164D01*
X496301Y41826D01*
X495601Y41289D01*
X495063Y40589D01*
X494726Y39773D01*
X494610Y38898D01*
X494726Y38022D01*
X495063Y37207D01*
X495601Y36506D01*
X496301Y35969D01*
X497117Y35631D01*
X497992Y35516D01*
X498867Y35631D01*
X499683Y35969D01*
X500383Y36506D01*
X500921Y37207D01*
X501259Y38022D01*
X501374Y38898D01*
X501259Y39773D01*
X500921Y40589D01*
X500383Y41289D01*
X499683Y41826D01*
X498867Y42164D01*
X497992Y42279D01*
D02*
G37*
G36*
X164764Y33303D02*
X164223Y33195D01*
X163765Y32889D01*
X163458Y32430D01*
X163351Y31890D01*
X163458Y31349D01*
X163765Y30891D01*
X164223Y30584D01*
X164764Y30477D01*
X165305Y30584D01*
X165763Y30891D01*
X166069Y31349D01*
X166177Y31890D01*
X166069Y32430D01*
X165763Y32889D01*
X165305Y33195D01*
X164764Y33303D01*
D02*
G37*
G36*
X132874Y32430D02*
X132064Y32269D01*
X131378Y31811D01*
X130920Y31124D01*
X130759Y30315D01*
X130920Y29505D01*
X131378Y28819D01*
X132064Y28361D01*
X132874Y28199D01*
X133684Y28361D01*
X134370Y28819D01*
X134828Y29505D01*
X134990Y30315D01*
X134828Y31124D01*
X134370Y31811D01*
X133684Y32269D01*
X132874Y32430D01*
D02*
G37*
G36*
X424213Y28972D02*
X423672Y28864D01*
X423213Y28558D01*
X422907Y28100D01*
X422800Y27559D01*
X422907Y27018D01*
X423213Y26560D01*
X423672Y26254D01*
X424213Y26146D01*
X424753Y26254D01*
X425212Y26560D01*
X425518Y27018D01*
X425626Y27559D01*
X425518Y28100D01*
X425212Y28558D01*
X424753Y28864D01*
X424213Y28972D01*
D02*
G37*
G36*
X501345Y32250D02*
X494639D01*
Y25545D01*
X501345D01*
Y32250D01*
D02*
G37*
G36*
X487992Y32279D02*
X487117Y32164D01*
X486301Y31826D01*
X485601Y31289D01*
X485064Y30588D01*
X484726Y29773D01*
X484610Y28898D01*
X484726Y28022D01*
X485064Y27207D01*
X485601Y26506D01*
X486301Y25969D01*
X487117Y25631D01*
X487992Y25516D01*
X488867Y25631D01*
X489683Y25969D01*
X490383Y26506D01*
X490921Y27207D01*
X491259Y28022D01*
X491374Y28898D01*
X491259Y29773D01*
X490921Y30588D01*
X490383Y31289D01*
X489683Y31826D01*
X488867Y32164D01*
X487992Y32279D01*
D02*
G37*
G36*
X459252Y31694D02*
X458182Y31554D01*
X457184Y31140D01*
X456328Y30483D01*
X455671Y29627D01*
X455258Y28629D01*
X455117Y27559D01*
X455258Y26489D01*
X455671Y25491D01*
X456328Y24635D01*
X457184Y23978D01*
X458182Y23565D01*
X459252Y23424D01*
X460322Y23565D01*
X461320Y23978D01*
X462176Y24635D01*
X462833Y25491D01*
X463246Y26489D01*
X463387Y27559D01*
X463246Y28629D01*
X462833Y29627D01*
X462176Y30483D01*
X461320Y31140D01*
X460322Y31554D01*
X459252Y31694D01*
D02*
G37*
G36*
X131299Y24641D02*
X130759Y24534D01*
X130300Y24227D01*
X129994Y23769D01*
X129886Y23228D01*
X129994Y22688D01*
X130300Y22229D01*
X130759Y21923D01*
X131299Y21815D01*
X131840Y21923D01*
X132298Y22229D01*
X132605Y22688D01*
X132712Y23228D01*
X132605Y23769D01*
X132298Y24227D01*
X131840Y24534D01*
X131299Y24641D01*
D02*
G37*
G36*
X126181Y25344D02*
X125372Y25183D01*
X124685Y24724D01*
X124227Y24038D01*
X124066Y23228D01*
X124227Y22419D01*
X124685Y21733D01*
X125372Y21274D01*
X126181Y21113D01*
X126991Y21274D01*
X127677Y21733D01*
X128136Y22419D01*
X128296Y23228D01*
X128136Y24038D01*
X127677Y24724D01*
X126991Y25183D01*
X126181Y25344D01*
D02*
G37*
G36*
X149409Y19523D02*
X148869Y19416D01*
X148410Y19109D01*
X148104Y18651D01*
X147996Y18110D01*
X148104Y17570D01*
X148410Y17111D01*
X148869Y16805D01*
X149409Y16697D01*
X149950Y16805D01*
X150409Y17111D01*
X150715Y17570D01*
X150822Y18110D01*
X150715Y18651D01*
X150409Y19109D01*
X149950Y19416D01*
X149409Y19523D01*
D02*
G37*
G36*
X122638Y19129D02*
X122097Y19022D01*
X121639Y18716D01*
X121332Y18257D01*
X121225Y17717D01*
X121332Y17176D01*
X121639Y16717D01*
X122097Y16411D01*
X122638Y16304D01*
X123179Y16411D01*
X123637Y16717D01*
X123943Y17176D01*
X124051Y17717D01*
X123943Y18257D01*
X123637Y18716D01*
X123179Y19022D01*
X122638Y19129D01*
D02*
G37*
%LPD*%
D10*
X32480Y141184D02*
Y231496D01*
X27953Y236024D02*
X32480Y231496D01*
X37992Y236221D02*
X37992Y101969D01*
Y94685D02*
Y101969D01*
X36024D02*
X37992D01*
X42913Y117126D02*
Y236221D01*
Y91339D02*
Y117126D01*
X43110Y116929D02*
X49213D01*
X42913Y117126D02*
X43110Y116929D01*
X56299Y196063D02*
Y248031D01*
Y144095D02*
Y196063D01*
Y92126D02*
Y144095D01*
X54134Y198425D02*
Y250394D01*
Y146457D02*
Y198425D01*
Y94488D02*
Y146457D01*
Y42520D02*
Y94488D01*
X56299Y40157D02*
Y92126D01*
X19488Y232677D02*
X22835Y236024D01*
X19488Y167323D02*
Y232677D01*
X17323Y138386D02*
Y165157D01*
X19488Y167323D01*
X17323Y138386D02*
X24213Y131496D01*
X32874Y236024D02*
X35236Y233661D01*
X35039Y127165D02*
Y129134D01*
X31890D02*
X35039D01*
X25787Y123031D02*
X26772Y124016D01*
Y135476D02*
X32480Y141184D01*
X26772Y124016D02*
Y135476D01*
X35039Y127165D02*
X36024Y126181D01*
X37992Y57087D02*
Y94685D01*
X36417D02*
X37992D01*
X15354Y129134D02*
Y166455D01*
X8465Y91714D02*
Y122244D01*
X15354Y129134D01*
X15157Y122638D02*
X16535Y124016D01*
X26772D01*
X25787Y103937D02*
Y123031D01*
X28150Y57087D02*
Y101575D01*
X25787Y103937D02*
X28150Y101575D01*
X41535Y91339D02*
X42913D01*
Y57087D02*
Y91339D01*
X35236Y126969D02*
Y233661D01*
X36024Y107677D02*
Y126181D01*
X32874Y104527D02*
X36024Y107677D01*
X32874Y57087D02*
Y104527D01*
X23228Y64173D02*
Y121320D01*
X23303Y121395D01*
X17913Y169015D02*
Y235630D01*
X8465Y91714D02*
X19094Y81084D01*
X15354Y166455D02*
X17913Y169015D01*
X19094Y64173D02*
Y81084D01*
X449803Y51968D02*
X459252Y42520D01*
X417520Y257087D02*
X424803Y249803D01*
X417520Y205118D02*
X424606Y198031D01*
X149016Y51968D02*
X449803D01*
Y103937D02*
X459252Y94488D01*
X149016Y103937D02*
X449803D01*
X449803Y259842D02*
X459252Y250394D01*
X149016Y259842D02*
X449803D01*
X449803Y207874D02*
X459252Y198425D01*
X149016Y207874D02*
X449803D01*
Y155905D02*
X459252Y146457D01*
X149016Y155905D02*
X449803D01*
X110594Y33858D02*
X120080Y43345D01*
X108858Y33858D02*
X110594D01*
X417520Y49213D02*
X424213Y42520D01*
X134055Y49213D02*
X417520D01*
X131693Y46850D02*
X134055Y49213D01*
X157283Y36220D02*
X161221Y32283D01*
X119488Y32677D02*
X123031Y36220D01*
X157283D01*
X161221Y22835D02*
Y32283D01*
X119488Y25059D02*
Y32677D01*
X114462Y20033D02*
X119488Y25059D01*
X111945Y20033D02*
X114462D01*
X203346Y22835D02*
Y32283D01*
X122540Y37408D02*
X198222D01*
X203346Y32283D01*
X118301Y33169D02*
X122540Y37408D01*
X118301Y26130D02*
Y33169D01*
X114172Y22001D02*
X118301Y26130D01*
X113913Y22001D02*
X114172D01*
X245472Y22835D02*
Y32283D01*
X122048Y38595D02*
X239161D01*
X245472Y32283D01*
X117113Y33661D02*
X122048Y38595D01*
X117113Y26622D02*
Y33661D01*
X114462Y23970D02*
X117113Y26622D01*
X111945Y23970D02*
X114462D01*
X287598Y22835D02*
Y32283D01*
X121556Y39783D02*
X280099D01*
X287598Y32283D01*
X115926Y34153D02*
X121556Y39783D01*
X115926Y27951D02*
Y34153D01*
X114012Y26037D02*
X115926Y27951D01*
X329724Y22835D02*
Y32283D01*
X121064Y40970D02*
X321038D01*
X329724Y32283D01*
X114739Y34644D02*
X121064Y40970D01*
X114739Y30700D02*
Y34644D01*
X112043Y28005D02*
X114739Y30700D01*
X112043Y28005D02*
X112043D01*
X361976Y42158D02*
X371850Y32283D01*
Y22835D02*
Y32283D01*
X120572Y42158D02*
X361976D01*
X113551Y35136D02*
Y35136D01*
X120572Y42158D01*
X109758Y31343D02*
X113551Y35136D01*
X108894Y31155D02*
X109082Y31343D01*
X109758D01*
X402915Y43345D02*
X413976Y32283D01*
X120080Y43345D02*
X402915D01*
X413976Y22835D02*
Y32283D01*
X417520Y101181D02*
X424213Y94488D01*
X134055Y101181D02*
X417520D01*
X131693Y98819D02*
X134055Y101181D01*
X157283Y88189D02*
X161221Y84252D01*
X119488Y84646D02*
X123031Y88189D01*
X157283D01*
X161221Y74803D02*
Y84252D01*
X119488Y77028D02*
Y84646D01*
X114462Y72001D02*
X119488Y77028D01*
X111945Y72001D02*
X114462D01*
X203346Y74803D02*
Y84252D01*
X122540Y89376D02*
X198222D01*
X203346Y84252D01*
X118301Y85137D02*
X122540Y89376D01*
X118301Y78098D02*
Y85137D01*
X114172Y73970D02*
X118301Y78098D01*
X113913Y73970D02*
X114172D01*
X245472Y74803D02*
Y84252D01*
X122048Y90564D02*
X239161D01*
X245472Y84252D01*
X117113Y85629D02*
X122048Y90564D01*
X117113Y78590D02*
Y85629D01*
X114462Y75938D02*
X117113Y78590D01*
X111945Y75938D02*
X114462D01*
X287598Y74803D02*
Y84252D01*
X121556Y91751D02*
X280099D01*
X287598Y84252D01*
X115926Y86121D02*
X121556Y91751D01*
X115926Y79919D02*
Y86121D01*
X114012Y78005D02*
X115926Y79919D01*
X329724Y74803D02*
Y84252D01*
X121064Y92939D02*
X321038D01*
X329724Y84252D01*
X114739Y86613D02*
X121064Y92939D01*
X114739Y82669D02*
Y86613D01*
X112043Y79974D02*
X114739Y82669D01*
X112043Y79974D02*
X112043D01*
X361976Y94126D02*
X371850Y84252D01*
Y74803D02*
Y84252D01*
X120572Y94126D02*
X361976D01*
X113551Y87105D02*
Y87105D01*
X120572Y94126D01*
X109758Y83311D02*
X113551Y87105D01*
X108894Y83123D02*
X109082Y83311D01*
X109758D01*
X402915Y95313D02*
X413976Y84252D01*
X110594Y85827D02*
X120080Y95313D01*
X402915D01*
X413976Y74803D02*
Y84252D01*
X108946Y85827D02*
X110594D01*
X108894Y85879D02*
X108946Y85827D01*
X417520Y153150D02*
X424213Y146457D01*
X134055Y153150D02*
X417520D01*
X131693Y150787D02*
X134055Y153150D01*
X157283Y140157D02*
X161221Y136221D01*
X119488Y136614D02*
X123031Y140157D01*
X157283D01*
X161221Y126772D02*
Y136221D01*
X119488Y128996D02*
Y136614D01*
X114462Y123970D02*
X119488Y128996D01*
X111945Y123970D02*
X114462D01*
X203346Y126772D02*
Y136221D01*
X122540Y141345D02*
X198222D01*
X203346Y136221D01*
X118301Y137106D02*
X122540Y141345D01*
X118301Y130067D02*
Y137106D01*
X114172Y125938D02*
X118301Y130067D01*
X113913Y125938D02*
X114172D01*
X245472Y126772D02*
Y136221D01*
X122048Y142532D02*
X239161D01*
X245472Y136221D01*
X117113Y137598D02*
X122048Y142532D01*
X117113Y130559D02*
Y137598D01*
X114462Y127907D02*
X117113Y130559D01*
X111945Y127907D02*
X114462D01*
X287598Y126772D02*
Y136221D01*
X121556Y143720D02*
X280099D01*
X287598Y136221D01*
X115926Y138090D02*
X121556Y143720D01*
X115926Y131888D02*
Y138090D01*
X114012Y129974D02*
X115926Y131888D01*
X329724Y126772D02*
Y136221D01*
X121064Y144907D02*
X321038D01*
X329724Y136221D01*
X114739Y138582D02*
X121064Y144907D01*
X114739Y134637D02*
Y138582D01*
X112043Y131942D02*
X114739Y134637D01*
X112043Y131942D02*
X112043D01*
X361976Y146095D02*
X371850Y136221D01*
Y126772D02*
Y136221D01*
X120572Y146095D02*
X361976D01*
X113551Y139073D02*
Y139073D01*
X120572Y146095D01*
X109758Y135280D02*
X113551Y139073D01*
X108894Y135092D02*
X109082Y135280D01*
X109758D01*
X402915Y147282D02*
X413976Y136221D01*
X110594Y137795D02*
X120080Y147282D01*
X402915D01*
X413976Y126772D02*
Y136221D01*
X108946Y137795D02*
X110594D01*
X108894Y137848D02*
X108946Y137795D01*
X134055Y205118D02*
X417520D01*
X131693Y202756D02*
X134055Y205118D01*
X157283Y192126D02*
X161221Y188189D01*
X119488Y188583D02*
X123031Y192126D01*
X157283D01*
X161221Y178740D02*
Y188189D01*
X119488Y180965D02*
Y188583D01*
X114462Y175938D02*
X119488Y180965D01*
X111945Y175938D02*
X114462D01*
X203346Y178740D02*
Y188189D01*
X122540Y193313D02*
X198222D01*
X203346Y188189D01*
X118301Y189075D02*
X122540Y193313D01*
X118301Y182035D02*
Y189075D01*
X114172Y177907D02*
X118301Y182035D01*
X113913Y177907D02*
X114172D01*
X245472Y178740D02*
Y188189D01*
X122048Y194501D02*
X239161D01*
X245472Y188189D01*
X117113Y189566D02*
X122048Y194501D01*
X117113Y182527D02*
Y189566D01*
X114462Y179875D02*
X117113Y182527D01*
X111945Y179875D02*
X114462D01*
X287598Y178740D02*
Y188189D01*
X121556Y195688D02*
X280099D01*
X287598Y188189D01*
X115926Y190058D02*
X121556Y195688D01*
X115926Y183856D02*
Y190058D01*
X114012Y181942D02*
X115926Y183856D01*
X329724Y178740D02*
Y188189D01*
X121064Y196876D02*
X321038D01*
X329724Y188189D01*
X114739Y190550D02*
X121064Y196876D01*
X114739Y186606D02*
Y190550D01*
X112043Y183911D02*
X114739Y186606D01*
X112043Y183911D02*
X112043D01*
X361976Y198063D02*
X371850Y188189D01*
Y178740D02*
Y188189D01*
X120572Y198063D02*
X361976D01*
X113551Y191042D02*
Y191042D01*
X120572Y198063D01*
X109758Y187249D02*
X113551Y191042D01*
X108894Y187060D02*
X109082Y187249D01*
X109758D01*
X402915Y199250D02*
X413976Y188189D01*
X110594Y189764D02*
X120080Y199250D01*
X402915D01*
X413976Y178740D02*
Y188189D01*
X108946Y189764D02*
X110594D01*
X108894Y189816D02*
X108946Y189764D01*
X131693Y254724D02*
X134055Y257087D01*
X417520D01*
X113551Y243010D02*
Y243010D01*
X114739Y238574D02*
Y242518D01*
X109082Y239217D02*
X109758D01*
X113551Y243010D02*
X120572Y250031D01*
X108894Y239029D02*
X109082Y239217D01*
X109758D02*
X113551Y243010D01*
X112043Y235879D02*
X114739Y238574D01*
X114012Y233911D02*
X115926Y235825D01*
X111945Y227907D02*
X114462D01*
X119488Y232933D01*
Y240551D01*
X113913Y229875D02*
X114172D01*
X118301Y234004D01*
Y241043D01*
X111945Y231844D02*
X114462D01*
X117113Y234496D01*
Y241535D01*
X115926Y235825D02*
Y242027D01*
X112043Y235879D02*
X112043D01*
X108894Y241785D02*
X108946Y241732D01*
X110594D01*
X120080Y251219D01*
X413976Y230709D02*
Y240158D01*
X120080Y251219D02*
X402915D01*
X413976Y240158D01*
X120572Y250031D02*
X361976D01*
X371850Y230709D02*
Y240158D01*
X361976Y250031D02*
X371850Y240158D01*
X121064Y248844D02*
X321038D01*
X114739Y242518D02*
X121064Y248844D01*
X329724Y230709D02*
Y240158D01*
X321038Y248844D02*
X329724Y240158D01*
X121556Y247657D02*
X280099D01*
X115926Y242027D02*
X121556Y247657D01*
X287598Y230709D02*
Y240158D01*
X280099Y247657D02*
X287598Y240158D01*
X122048Y246469D02*
X239161D01*
X117113Y241535D02*
X122048Y246469D01*
X245472Y230709D02*
Y240158D01*
X239161Y246469D02*
X245472Y240158D01*
X122540Y245282D02*
X198222D01*
X118301Y241043D02*
X122540Y245282D01*
X203346Y230709D02*
Y240158D01*
X198222Y245282D02*
X203346Y240158D01*
X123031Y244094D02*
X157283D01*
X119488Y240551D02*
X123031Y244094D01*
X161221Y230709D02*
Y240158D01*
X157283Y244094D02*
X161221Y240158D01*
D63*
X28543Y173622D02*
D03*
Y202362D02*
D03*
D64*
X6102Y139213D02*
D03*
Y180709D02*
D03*
D65*
X487992Y169055D02*
D03*
Y189055D02*
D03*
Y209055D02*
D03*
Y229055D02*
D03*
Y249055D02*
D03*
X487992Y38898D02*
D03*
X487992Y58898D02*
D03*
Y78898D02*
D03*
Y98898D02*
D03*
X487992Y118898D02*
D03*
X6102Y169213D02*
D03*
Y210709D02*
D03*
D66*
X459252Y250394D02*
D03*
Y198425D02*
D03*
Y146457D02*
D03*
Y94488D02*
D03*
Y42520D02*
D03*
D67*
X45866Y35039D02*
D03*
X36024Y101969D02*
D03*
X16339Y76968D02*
D03*
X21063D02*
D03*
X25591D02*
D03*
X30512D02*
D03*
X35039D02*
D03*
X40551D02*
D03*
X47638D02*
D03*
X40354Y204134D02*
D03*
X48819D02*
D03*
X49016Y214567D02*
D03*
X14370D02*
D03*
X25394D02*
D03*
X40945D02*
D03*
X51575Y242913D02*
D03*
Y237795D02*
D03*
X51772Y185630D02*
D03*
Y34843D02*
D03*
Y133858D02*
D03*
X51575Y87008D02*
D03*
X65083Y175829D02*
D03*
X101181Y166339D02*
D03*
X22835Y236024D02*
D03*
X24213Y131496D02*
D03*
X31890Y129134D02*
D03*
X36417Y94685D02*
D03*
X27953Y236024D02*
D03*
X28150Y57087D02*
D03*
X15157Y122638D02*
D03*
X41535Y91339D02*
D03*
X32874Y236024D02*
D03*
Y57087D02*
D03*
X37992Y236221D02*
D03*
X37992Y57087D02*
D03*
X42913D02*
D03*
Y236221D02*
D03*
X23303Y121395D02*
D03*
X17913Y235630D02*
D03*
X19094Y64173D02*
D03*
X23228D02*
D03*
X15157Y35039D02*
D03*
X46457Y227953D02*
D03*
X14370D02*
D03*
X49213Y111614D02*
D03*
Y116929D02*
D03*
X12756D02*
D03*
X22047Y142323D02*
D03*
X20472Y146457D02*
D03*
X24213Y167520D02*
D03*
X65354Y123819D02*
D03*
Y227953D02*
D03*
X56299Y40157D02*
D03*
X54134Y42520D02*
D03*
X56299Y92126D02*
D03*
X54134Y94488D02*
D03*
X56299Y248031D02*
D03*
X54134Y250394D02*
D03*
X56299Y196063D02*
D03*
X54134Y198425D02*
D03*
Y146457D02*
D03*
X56299Y144095D02*
D03*
X65354Y19685D02*
D03*
X65158Y71653D02*
D03*
X61614Y50000D02*
D03*
X61588Y257819D02*
D03*
X61614Y205906D02*
D03*
X62349Y102017D02*
D03*
X62008Y153937D02*
D03*
X98622Y220866D02*
D03*
X459252Y242913D02*
D03*
X459646Y227165D02*
D03*
X459252Y206299D02*
D03*
Y35039D02*
D03*
X458858Y138976D02*
D03*
X459252Y103543D02*
D03*
X500984Y136614D02*
D03*
Y148425D02*
D03*
X487205Y136614D02*
D03*
X481299Y148031D02*
D03*
X454528Y268504D02*
D03*
X448228D02*
D03*
X438779D02*
D03*
X419882D02*
D03*
X429331D02*
D03*
X382087D02*
D03*
X372638D02*
D03*
X391535D02*
D03*
X400984D02*
D03*
X410433D02*
D03*
X315945D02*
D03*
X306496D02*
D03*
X287598D02*
D03*
X297047D02*
D03*
X344291D02*
D03*
X334842D02*
D03*
X325394D02*
D03*
X353740D02*
D03*
X363189D02*
D03*
X230906D02*
D03*
X221457D02*
D03*
X193110D02*
D03*
X202559D02*
D03*
X212008D02*
D03*
X249803D02*
D03*
X240354D02*
D03*
X259252D02*
D03*
X268701D02*
D03*
X278150D02*
D03*
X145866D02*
D03*
X136417D02*
D03*
X126969D02*
D03*
X164764D02*
D03*
X155315D02*
D03*
X174213D02*
D03*
X183661D02*
D03*
X454528Y9449D02*
D03*
X448228D02*
D03*
X438779D02*
D03*
X419882D02*
D03*
X429331D02*
D03*
X382087D02*
D03*
X372638D02*
D03*
X391535D02*
D03*
X400984D02*
D03*
X410433D02*
D03*
X315945D02*
D03*
X306496D02*
D03*
X287598D02*
D03*
X297047D02*
D03*
X344291D02*
D03*
X334842D02*
D03*
X325394D02*
D03*
X353740D02*
D03*
X363189D02*
D03*
X230906D02*
D03*
X221457D02*
D03*
X193110D02*
D03*
X202559D02*
D03*
X212008D02*
D03*
X249803D02*
D03*
X240354D02*
D03*
X259252D02*
D03*
X268701D02*
D03*
X278150D02*
D03*
X145866D02*
D03*
X136417D02*
D03*
X126969D02*
D03*
X164764D02*
D03*
X155315D02*
D03*
X174213D02*
D03*
X183661D02*
D03*
X454528Y61024D02*
D03*
X448228D02*
D03*
X438779D02*
D03*
X419882D02*
D03*
X429331D02*
D03*
X382087D02*
D03*
X372638D02*
D03*
X391535D02*
D03*
X400984D02*
D03*
X410433D02*
D03*
X315945D02*
D03*
X306496D02*
D03*
X287598D02*
D03*
X297047D02*
D03*
X344291D02*
D03*
X334842D02*
D03*
X325394D02*
D03*
X353740D02*
D03*
X363189D02*
D03*
X230906D02*
D03*
X221457D02*
D03*
X193110D02*
D03*
X202559D02*
D03*
X212008D02*
D03*
X249803D02*
D03*
X240354D02*
D03*
X259252D02*
D03*
X268701D02*
D03*
X278150D02*
D03*
X145866D02*
D03*
X136417D02*
D03*
X126969D02*
D03*
X164764D02*
D03*
X155315D02*
D03*
X174213D02*
D03*
X183661D02*
D03*
X454528Y112992D02*
D03*
X448228D02*
D03*
X438779D02*
D03*
X419882D02*
D03*
X429331D02*
D03*
X382087D02*
D03*
X372638D02*
D03*
X391535D02*
D03*
X400984D02*
D03*
X410433D02*
D03*
X315945D02*
D03*
X306496D02*
D03*
X287598D02*
D03*
X297047D02*
D03*
X344291D02*
D03*
X334842D02*
D03*
X325394D02*
D03*
X353740D02*
D03*
X363189D02*
D03*
X230906D02*
D03*
X221457D02*
D03*
X193110D02*
D03*
X202559D02*
D03*
X212008D02*
D03*
X249803D02*
D03*
X240354D02*
D03*
X259252D02*
D03*
X268701D02*
D03*
X278150D02*
D03*
X145866D02*
D03*
X136417D02*
D03*
X126969D02*
D03*
X164764D02*
D03*
X155315D02*
D03*
X174213D02*
D03*
X183661D02*
D03*
X438779Y164961D02*
D03*
X419882D02*
D03*
X429331D02*
D03*
X382087D02*
D03*
X372638D02*
D03*
X391535D02*
D03*
X400984D02*
D03*
X410433D02*
D03*
X315945D02*
D03*
X306496D02*
D03*
X287598D02*
D03*
X297047D02*
D03*
X344291D02*
D03*
X334842D02*
D03*
X325394D02*
D03*
X353740D02*
D03*
X363189D02*
D03*
X230906D02*
D03*
X221457D02*
D03*
X193110D02*
D03*
X202559D02*
D03*
X212008D02*
D03*
X249803D02*
D03*
X240354D02*
D03*
X259252D02*
D03*
X268701D02*
D03*
X278150D02*
D03*
X145866D02*
D03*
X136417D02*
D03*
X126969D02*
D03*
X164764D02*
D03*
X155315D02*
D03*
X174213D02*
D03*
X183661D02*
D03*
Y216929D02*
D03*
X174213D02*
D03*
X155315D02*
D03*
X164764D02*
D03*
X126969D02*
D03*
X136417D02*
D03*
X145866D02*
D03*
X278150D02*
D03*
X268701D02*
D03*
X259252D02*
D03*
X240354D02*
D03*
X249803D02*
D03*
X212008D02*
D03*
X202559D02*
D03*
X193110D02*
D03*
X221457D02*
D03*
X230906D02*
D03*
X363189D02*
D03*
X353740D02*
D03*
X325394D02*
D03*
X334842D02*
D03*
X344291D02*
D03*
X297047D02*
D03*
X287598D02*
D03*
X306496D02*
D03*
X315945D02*
D03*
X410433D02*
D03*
X400984D02*
D03*
X391535D02*
D03*
X372638D02*
D03*
X382087D02*
D03*
X429331D02*
D03*
X419882D02*
D03*
X438779D02*
D03*
X448228D02*
D03*
X454528D02*
D03*
X424606Y198031D02*
D03*
X424213Y146457D02*
D03*
X424213Y94488D02*
D03*
Y42520D02*
D03*
X424803Y249803D02*
D03*
X101378Y244882D02*
D03*
Y192913D02*
D03*
X100799Y140305D02*
D03*
X101085Y114489D02*
D03*
X100984Y88976D02*
D03*
X101257Y10331D02*
D03*
X101210Y36872D02*
D03*
X101221Y62362D02*
D03*
X108858Y33858D02*
D03*
X423819Y254724D02*
D03*
Y231102D02*
D03*
X391929Y254724D02*
D03*
Y231102D02*
D03*
X367913Y254724D02*
D03*
X358858D02*
D03*
Y231102D02*
D03*
X367913D02*
D03*
X350197Y254724D02*
D03*
Y231102D02*
D03*
X255315Y254724D02*
D03*
Y231102D02*
D03*
X199409Y254724D02*
D03*
X223819D02*
D03*
X199409Y231102D02*
D03*
X223819D02*
D03*
X190354Y254724D02*
D03*
Y231102D02*
D03*
X443110Y254724D02*
D03*
Y231102D02*
D03*
X434449Y254724D02*
D03*
Y231102D02*
D03*
X410039Y254724D02*
D03*
Y231102D02*
D03*
X400984Y254724D02*
D03*
Y231102D02*
D03*
X381693Y254724D02*
D03*
Y231102D02*
D03*
X339567Y254724D02*
D03*
Y231102D02*
D03*
X325787Y254724D02*
D03*
Y231102D02*
D03*
X316732Y254724D02*
D03*
Y231102D02*
D03*
X308071Y254724D02*
D03*
Y231102D02*
D03*
X297441Y254724D02*
D03*
Y231102D02*
D03*
X283661Y254724D02*
D03*
Y231102D02*
D03*
X274606Y254724D02*
D03*
Y231102D02*
D03*
X265945Y254724D02*
D03*
Y231102D02*
D03*
X241535Y254724D02*
D03*
Y231102D02*
D03*
X232480Y254724D02*
D03*
Y231102D02*
D03*
X213189Y254724D02*
D03*
Y231102D02*
D03*
X181693Y254724D02*
D03*
Y231102D02*
D03*
X171063Y254724D02*
D03*
Y231102D02*
D03*
X157283Y254724D02*
D03*
Y231102D02*
D03*
X148228Y254724D02*
D03*
Y231102D02*
D03*
X139567Y254724D02*
D03*
Y231102D02*
D03*
X423819Y202756D02*
D03*
Y179134D02*
D03*
X391929Y202756D02*
D03*
Y179134D02*
D03*
X367913Y202756D02*
D03*
X358858D02*
D03*
Y179134D02*
D03*
X367913D02*
D03*
X350197Y202756D02*
D03*
Y179134D02*
D03*
X255315Y202756D02*
D03*
Y179134D02*
D03*
X199409Y202756D02*
D03*
X223819D02*
D03*
X199409Y179134D02*
D03*
X223819D02*
D03*
X190354Y202756D02*
D03*
Y179134D02*
D03*
X443110Y202756D02*
D03*
Y179134D02*
D03*
X434449Y202756D02*
D03*
Y179134D02*
D03*
X410039Y202756D02*
D03*
Y179134D02*
D03*
X400984Y202756D02*
D03*
Y179134D02*
D03*
X381693Y202756D02*
D03*
Y179134D02*
D03*
X339567Y202756D02*
D03*
Y179134D02*
D03*
X325787Y202756D02*
D03*
Y179134D02*
D03*
X316732Y202756D02*
D03*
Y179134D02*
D03*
X308071Y202756D02*
D03*
Y179134D02*
D03*
X297441Y202756D02*
D03*
Y179134D02*
D03*
X283661Y202756D02*
D03*
Y179134D02*
D03*
X274606Y202756D02*
D03*
Y179134D02*
D03*
X265945Y202756D02*
D03*
Y179134D02*
D03*
X241535Y202756D02*
D03*
Y179134D02*
D03*
X232480Y202756D02*
D03*
Y179134D02*
D03*
X213189Y202756D02*
D03*
Y179134D02*
D03*
X181693Y202756D02*
D03*
Y179134D02*
D03*
X171063Y202756D02*
D03*
Y179134D02*
D03*
X157283Y202756D02*
D03*
Y179134D02*
D03*
X148228Y202756D02*
D03*
Y179134D02*
D03*
X139567Y202756D02*
D03*
Y179134D02*
D03*
X423819Y150787D02*
D03*
Y127165D02*
D03*
X391929Y150787D02*
D03*
Y127165D02*
D03*
X367913Y150787D02*
D03*
X358858D02*
D03*
Y127165D02*
D03*
X367913D02*
D03*
X350197Y150787D02*
D03*
Y127165D02*
D03*
X255315Y150787D02*
D03*
Y127165D02*
D03*
X199409Y150787D02*
D03*
X223819D02*
D03*
X199409Y127165D02*
D03*
X223819D02*
D03*
X190354Y150787D02*
D03*
Y127165D02*
D03*
X443110Y150787D02*
D03*
Y127165D02*
D03*
X434449Y150787D02*
D03*
Y127165D02*
D03*
X410039Y150787D02*
D03*
Y127165D02*
D03*
X400984Y150787D02*
D03*
Y127165D02*
D03*
X381693Y150787D02*
D03*
Y127165D02*
D03*
X339567Y150787D02*
D03*
Y127165D02*
D03*
X325787Y150787D02*
D03*
Y127165D02*
D03*
X316732Y150787D02*
D03*
Y127165D02*
D03*
X308071Y150787D02*
D03*
Y127165D02*
D03*
X297441Y150787D02*
D03*
Y127165D02*
D03*
X283661Y150787D02*
D03*
Y127165D02*
D03*
X274606Y150787D02*
D03*
Y127165D02*
D03*
X265945Y150787D02*
D03*
Y127165D02*
D03*
X241535Y150787D02*
D03*
Y127165D02*
D03*
X232480Y150787D02*
D03*
Y127165D02*
D03*
X213189Y150787D02*
D03*
Y127165D02*
D03*
X181693Y150787D02*
D03*
Y127165D02*
D03*
X171063Y150787D02*
D03*
Y127165D02*
D03*
X157283Y150787D02*
D03*
Y127165D02*
D03*
X148228Y150787D02*
D03*
Y127165D02*
D03*
X139567Y150787D02*
D03*
Y127165D02*
D03*
X423819Y98819D02*
D03*
Y75197D02*
D03*
X391929Y98819D02*
D03*
Y75197D02*
D03*
X367913Y98819D02*
D03*
X358858D02*
D03*
Y75197D02*
D03*
X367913D02*
D03*
X350197Y98819D02*
D03*
Y75197D02*
D03*
X255315Y98819D02*
D03*
Y75197D02*
D03*
X199409Y98819D02*
D03*
X223819D02*
D03*
X199409Y75197D02*
D03*
X223819D02*
D03*
X190354Y98819D02*
D03*
Y75197D02*
D03*
X443110Y98819D02*
D03*
Y75197D02*
D03*
X434449Y98819D02*
D03*
Y75197D02*
D03*
X410039Y98819D02*
D03*
Y75197D02*
D03*
X400984Y98819D02*
D03*
Y75197D02*
D03*
X381693Y98819D02*
D03*
Y75197D02*
D03*
X339567Y98819D02*
D03*
Y75197D02*
D03*
X325787Y98819D02*
D03*
Y75197D02*
D03*
X316732Y98819D02*
D03*
Y75197D02*
D03*
X308071Y98819D02*
D03*
Y75197D02*
D03*
X297441Y98819D02*
D03*
Y75197D02*
D03*
X283661Y98819D02*
D03*
Y75197D02*
D03*
X274606Y98819D02*
D03*
Y75197D02*
D03*
X265945Y98819D02*
D03*
Y75197D02*
D03*
X241535Y98819D02*
D03*
Y75197D02*
D03*
X232480Y98819D02*
D03*
Y75197D02*
D03*
X213189Y98819D02*
D03*
Y75197D02*
D03*
X181693Y98819D02*
D03*
Y75197D02*
D03*
X171063Y98819D02*
D03*
Y75197D02*
D03*
X157283Y98819D02*
D03*
Y75197D02*
D03*
X148228Y98819D02*
D03*
Y75197D02*
D03*
X139567Y98819D02*
D03*
Y75197D02*
D03*
Y23228D02*
D03*
X148228D02*
D03*
X171063D02*
D03*
X181693D02*
D03*
X199409D02*
D03*
X213189D02*
D03*
X232480D02*
D03*
X241535D02*
D03*
X265945D02*
D03*
X274606D02*
D03*
X283661D02*
D03*
X157283D02*
D03*
X190354D02*
D03*
X223819D02*
D03*
X255315D02*
D03*
X297441D02*
D03*
X308071D02*
D03*
X316732D02*
D03*
X325787D02*
D03*
X339567D02*
D03*
X350197D02*
D03*
X358858D02*
D03*
X367913D02*
D03*
X381693D02*
D03*
X391929D02*
D03*
X400984D02*
D03*
X410039D02*
D03*
X423819D02*
D03*
X434449D02*
D03*
X443110D02*
D03*
Y46850D02*
D03*
X434449D02*
D03*
X423819D02*
D03*
X410039D02*
D03*
X400984D02*
D03*
X391929D02*
D03*
X381693D02*
D03*
X367913D02*
D03*
X358858D02*
D03*
X350197D02*
D03*
X339567D02*
D03*
X325787D02*
D03*
X316732D02*
D03*
X308071D02*
D03*
X297441D02*
D03*
X131693D02*
D03*
X161221Y22835D02*
D03*
X111945Y20033D02*
D03*
X203346Y22835D02*
D03*
X113913Y22001D02*
D03*
X245472Y22835D02*
D03*
X111945Y23970D02*
D03*
X287598Y22835D02*
D03*
X114012Y26037D02*
D03*
X329724Y22835D02*
D03*
X112043Y28005D02*
D03*
X371850Y22835D02*
D03*
X108894Y31155D02*
D03*
X413976Y22835D02*
D03*
X149016Y51968D02*
D03*
X131693Y98819D02*
D03*
X161221Y74803D02*
D03*
X111945Y72001D02*
D03*
X203346Y74803D02*
D03*
X113913Y73970D02*
D03*
X245472Y74803D02*
D03*
X111945Y75938D02*
D03*
X287598Y74803D02*
D03*
X114012Y78005D02*
D03*
X329724Y74803D02*
D03*
X112043Y79974D02*
D03*
X371850Y74803D02*
D03*
X108894Y83123D02*
D03*
X413976Y74803D02*
D03*
X108894Y85879D02*
D03*
X149016Y103937D02*
D03*
X131693Y150787D02*
D03*
X161221Y126772D02*
D03*
X111945Y123970D02*
D03*
X203346Y126772D02*
D03*
X113913Y125938D02*
D03*
X245472Y126772D02*
D03*
X111945Y127907D02*
D03*
X287598Y126772D02*
D03*
X114012Y129974D02*
D03*
X329724Y126772D02*
D03*
X112043Y131942D02*
D03*
X371850Y126772D02*
D03*
X108894Y135092D02*
D03*
X413976Y126772D02*
D03*
X108894Y137848D02*
D03*
X149016Y155905D02*
D03*
X131693Y202756D02*
D03*
X161221Y178740D02*
D03*
X111945Y175938D02*
D03*
X203346Y178740D02*
D03*
X113913Y177907D02*
D03*
X245472Y178740D02*
D03*
X111945Y179875D02*
D03*
X287598Y178740D02*
D03*
X114012Y181942D02*
D03*
X329724Y178740D02*
D03*
X112043Y183911D02*
D03*
X371850Y178740D02*
D03*
X108894Y187060D02*
D03*
X413976Y178740D02*
D03*
X108894Y189816D02*
D03*
X149016Y207874D02*
D03*
X255315Y46850D02*
D03*
X223819D02*
D03*
X190354D02*
D03*
X157283D02*
D03*
X283661D02*
D03*
X274606D02*
D03*
X265945D02*
D03*
X241535D02*
D03*
X232480D02*
D03*
X213189D02*
D03*
X199409D02*
D03*
X181693D02*
D03*
X171063D02*
D03*
X148228D02*
D03*
X139567D02*
D03*
X149016Y259842D02*
D03*
X131693Y254724D02*
D03*
X111945Y227907D02*
D03*
X113913Y229875D02*
D03*
X111945Y231844D02*
D03*
X108894Y241785D02*
D03*
X413976Y230709D02*
D03*
X108894Y239029D02*
D03*
X371850Y230709D02*
D03*
X112043Y235879D02*
D03*
X329724Y230709D02*
D03*
X114012Y233911D02*
D03*
X287598Y230709D02*
D03*
X245472D02*
D03*
X203346D02*
D03*
X161221D02*
D03*
D68*
X33268Y111024D02*
D03*
X28543D02*
D03*
X33268Y115748D02*
D03*
X28543D02*
D03*
D71*
X99606Y52854D02*
D03*
X103937D02*
D03*
X99606Y48524D02*
D03*
X103937D02*
D03*
X66339Y82677D02*
D03*
Y87008D02*
D03*
Y91339D02*
D03*
X70669Y82677D02*
D03*
Y87008D02*
D03*
Y91339D02*
D03*
X75000Y82677D02*
D03*
X75000Y87008D02*
D03*
X75000Y91339D02*
D03*
X99606Y104832D02*
D03*
X103937D02*
D03*
X99606Y100501D02*
D03*
X103937D02*
D03*
X99606Y156765D02*
D03*
X103937D02*
D03*
X99606Y152434D02*
D03*
X103937D02*
D03*
X66339Y186614D02*
D03*
Y190945D02*
D03*
Y195276D02*
D03*
X70669Y186614D02*
D03*
Y190945D02*
D03*
Y195276D02*
D03*
X75000Y186614D02*
D03*
Y190945D02*
D03*
Y195276D02*
D03*
X99606Y208740D02*
D03*
X103937D02*
D03*
X99606Y204409D02*
D03*
X103937D02*
D03*
X99606Y260667D02*
D03*
X103937D02*
D03*
X99606Y256336D02*
D03*
X103937D02*
D03*
X66339Y238583D02*
D03*
X66339Y242913D02*
D03*
X66339Y247244D02*
D03*
X70669Y238583D02*
D03*
Y242913D02*
D03*
Y247244D02*
D03*
X75000Y238583D02*
D03*
X75000Y242913D02*
D03*
X75000Y247244D02*
D03*
X99642Y234009D02*
D03*
X103972D02*
D03*
X99642Y229678D02*
D03*
X103972D02*
D03*
X99642Y182041D02*
D03*
X103972D02*
D03*
X99642Y177710D02*
D03*
X103972D02*
D03*
X66339Y134646D02*
D03*
X66339Y138976D02*
D03*
X66339Y143307D02*
D03*
X70669Y134646D02*
D03*
Y138976D02*
D03*
Y143307D02*
D03*
X75000Y134646D02*
D03*
X75000Y138976D02*
D03*
X75000Y143307D02*
D03*
X99642Y130072D02*
D03*
X103972Y130072D02*
D03*
X99642Y125741D02*
D03*
X103972Y125741D02*
D03*
X99642Y78104D02*
D03*
X103972D02*
D03*
X99642Y73773D02*
D03*
X103972D02*
D03*
X66339Y30709D02*
D03*
Y35039D02*
D03*
Y39370D02*
D03*
X70669Y30709D02*
D03*
Y35039D02*
D03*
Y39370D02*
D03*
X75000Y30709D02*
D03*
X75000Y35039D02*
D03*
X75000Y39370D02*
D03*
X99606Y26181D02*
D03*
X103937D02*
D03*
X99606Y21850D02*
D03*
X103937Y21850D02*
D03*
M02*
