G04*
G04 #@! TF.GenerationSoftware,Altium Limited,Altium Designer,20.0.9 (164)*
G04*
G04 Layer_Color=16711935*
%FSLAX25Y25*%
%MOIN*%
G70*
G01*
G75*
%ADD36R,0.03740X0.05709*%
%ADD37R,0.03091X0.03091*%
%ADD38R,0.03347X0.07284*%
%ADD51C,0.05591*%
%ADD52R,0.06496X0.06496*%
%ADD53C,0.06496*%
%ADD54C,0.07991*%
%ADD55C,0.02362*%
%ADD56C,0.03398*%
%ADD57C,0.22244*%
%ADD58C,0.03740*%
%ADD59C,0.02559*%
G36*
X135996Y266575D02*
X136008D01*
X136019Y266573D01*
X136031Y266572D01*
X136042Y266569D01*
X136054Y266567D01*
X136065Y266564D01*
X136076Y266561D01*
X136087Y266557D01*
X136098Y266553D01*
X137017Y266173D01*
X137027Y266167D01*
X137038Y266163D01*
X137048Y266157D01*
X137058Y266151D01*
X137067Y266145D01*
X137077Y266139D01*
X137086Y266131D01*
X137096Y266124D01*
X137104Y266116D01*
X137113Y266108D01*
X137816Y265405D01*
X137824Y265396D01*
X137832Y265388D01*
X137839Y265379D01*
X137846Y265370D01*
X137852Y265360D01*
X137859Y265350D01*
X137864Y265340D01*
X137871Y265330D01*
X137875Y265319D01*
X137880Y265309D01*
X138261Y264390D01*
X138265Y264379D01*
X138269Y264368D01*
X138272Y264357D01*
X138275Y264346D01*
X138277Y264335D01*
X138280Y264323D01*
X138281Y264312D01*
X138283Y264300D01*
Y264288D01*
X138283Y264277D01*
Y263779D01*
Y263282D01*
X138283Y263271D01*
Y263259D01*
X138281Y263247D01*
X138280Y263236D01*
X138277Y263225D01*
X138275Y263213D01*
X138272Y263202D01*
X138269Y263191D01*
X138265Y263180D01*
X138261Y263169D01*
X137880Y262250D01*
X137875Y262240D01*
X137871Y262229D01*
X137864Y262219D01*
X137859Y262209D01*
X137852Y262199D01*
X137846Y262189D01*
X137839Y262180D01*
X137832Y262171D01*
X137824Y262163D01*
X137816Y262154D01*
X137113Y261451D01*
X137104Y261443D01*
X137096Y261435D01*
X137086Y261428D01*
X137077Y261420D01*
X137067Y261414D01*
X137058Y261408D01*
X137048Y261402D01*
X137038Y261396D01*
X137027Y261392D01*
X137017Y261386D01*
X136098Y261006D01*
X136087Y261002D01*
X136076Y260998D01*
X136065Y260995D01*
X136054Y260992D01*
X136042Y260990D01*
X136031Y260987D01*
X136019Y260986D01*
X136008Y260984D01*
X135996D01*
X135985Y260983D01*
X135487D01*
X135441Y260987D01*
X135396Y260998D01*
X135353Y261016D01*
X135313Y261040D01*
X135278Y261070D01*
X135248Y261105D01*
X135236Y261124D01*
X135225Y261105D01*
X135195Y261070D01*
X135159Y261040D01*
X135120Y261016D01*
X135077Y260998D01*
X135031Y260987D01*
X134985Y260983D01*
X134488D01*
X134476Y260984D01*
X134465D01*
X134453Y260986D01*
X134442Y260987D01*
X134430Y260990D01*
X134419Y260992D01*
X134408Y260995D01*
X134396Y260998D01*
X134386Y261002D01*
X134374Y261006D01*
X133456Y261386D01*
X133445Y261392D01*
X133435Y261396D01*
X133425Y261402D01*
X133414Y261408D01*
X133405Y261414D01*
X133395Y261420D01*
X133386Y261428D01*
X133377Y261435D01*
X133369Y261443D01*
X133360Y261451D01*
X132656Y262154D01*
X132649Y262163D01*
X132641Y262171D01*
X132634Y262180D01*
X132626Y262189D01*
X132620Y262199D01*
X132613Y262209D01*
X132608Y262219D01*
X132602Y262229D01*
X132597Y262240D01*
X132592Y262250D01*
X132211Y263169D01*
X132208Y263180D01*
X132203Y263191D01*
X132201Y263202D01*
X132197Y263213D01*
X132195Y263225D01*
X132193Y263236D01*
X132192Y263247D01*
X132190Y263259D01*
Y263271D01*
X132189Y263282D01*
Y263779D01*
Y264277D01*
X132190Y264288D01*
Y264300D01*
X132192Y264312D01*
X132193Y264323D01*
X132195Y264335D01*
X132197Y264346D01*
X132201Y264357D01*
X132203Y264368D01*
X132208Y264379D01*
X132211Y264390D01*
X132592Y265309D01*
X132597Y265319D01*
X132602Y265330D01*
X132608Y265340D01*
X132613Y265350D01*
X132620Y265360D01*
X132626Y265370D01*
X132634Y265379D01*
X132641Y265388D01*
X132649Y265396D01*
X132656Y265405D01*
X133360Y266108D01*
X133369Y266116D01*
X133377Y266124D01*
X133386Y266131D01*
X133395Y266139D01*
X133405Y266145D01*
X133414Y266151D01*
X133425Y266157D01*
X133435Y266163D01*
X133445Y266167D01*
X133456Y266173D01*
X134374Y266553D01*
X134386Y266557D01*
X134396Y266561D01*
X134408Y266564D01*
X134419Y266567D01*
X134430Y266569D01*
X134442Y266572D01*
X134453Y266573D01*
X134465Y266575D01*
X134476D01*
X134488Y266576D01*
X134985D01*
X135031Y266572D01*
X135077Y266561D01*
X135120Y266543D01*
X135159Y266519D01*
X135195Y266489D01*
X135225Y266454D01*
X135236Y266435D01*
X135248Y266454D01*
X135278Y266489D01*
X135313Y266519D01*
X135353Y266543D01*
X135396Y266561D01*
X135441Y266572D01*
X135487Y266576D01*
X135985D01*
X135996Y266575D01*
D02*
G37*
G36*
Y214606D02*
X136008D01*
X136019Y214604D01*
X136031Y214604D01*
X136042Y214601D01*
X136054Y214599D01*
X136065Y214595D01*
X136076Y214593D01*
X136087Y214588D01*
X136098Y214585D01*
X137017Y214204D01*
X137027Y214199D01*
X137038Y214194D01*
X137048Y214188D01*
X137058Y214183D01*
X137067Y214176D01*
X137077Y214170D01*
X137086Y214162D01*
X137096Y214156D01*
X137104Y214147D01*
X137113Y214140D01*
X137816Y213437D01*
X137824Y213428D01*
X137832Y213420D01*
X137839Y213410D01*
X137846Y213401D01*
X137852Y213391D01*
X137859Y213382D01*
X137864Y213371D01*
X137871Y213362D01*
X137875Y213351D01*
X137880Y213340D01*
X138261Y212422D01*
X138265Y212411D01*
X138269Y212400D01*
X138272Y212388D01*
X138275Y212377D01*
X138277Y212366D01*
X138280Y212355D01*
X138281Y212343D01*
X138283Y212332D01*
Y212320D01*
X138283Y212308D01*
Y211811D01*
Y211314D01*
X138283Y211302D01*
Y211291D01*
X138281Y211279D01*
X138280Y211267D01*
X138277Y211256D01*
X138275Y211245D01*
X138272Y211233D01*
X138269Y211222D01*
X138265Y211211D01*
X138261Y211200D01*
X137880Y210281D01*
X137875Y210271D01*
X137871Y210260D01*
X137864Y210250D01*
X137859Y210240D01*
X137852Y210231D01*
X137846Y210221D01*
X137839Y210212D01*
X137832Y210203D01*
X137824Y210194D01*
X137816Y210185D01*
X137113Y209482D01*
X137104Y209475D01*
X137096Y209466D01*
X137086Y209460D01*
X137077Y209452D01*
X137067Y209446D01*
X137058Y209439D01*
X137048Y209434D01*
X137038Y209428D01*
X137027Y209423D01*
X137017Y209418D01*
X136098Y209037D01*
X136087Y209034D01*
X136076Y209029D01*
X136065Y209027D01*
X136054Y209023D01*
X136042Y209021D01*
X136031Y209018D01*
X136019Y209018D01*
X136008Y209016D01*
X135996D01*
X135985Y209015D01*
X135487D01*
X135441Y209018D01*
X135396Y209029D01*
X135353Y209047D01*
X135313Y209071D01*
X135278Y209102D01*
X135248Y209137D01*
X135236Y209156D01*
X135225Y209137D01*
X135195Y209102D01*
X135159Y209071D01*
X135120Y209047D01*
X135077Y209029D01*
X135031Y209018D01*
X134985Y209015D01*
X134488D01*
X134476Y209016D01*
X134465D01*
X134453Y209018D01*
X134442Y209018D01*
X134430Y209021D01*
X134419Y209023D01*
X134408Y209027D01*
X134396Y209029D01*
X134386Y209034D01*
X134374Y209037D01*
X133456Y209418D01*
X133445Y209423D01*
X133435Y209428D01*
X133425Y209434D01*
X133414Y209439D01*
X133405Y209446D01*
X133395Y209452D01*
X133386Y209460D01*
X133377Y209466D01*
X133369Y209475D01*
X133360Y209482D01*
X132656Y210185D01*
X132649Y210194D01*
X132641Y210203D01*
X132634Y210212D01*
X132626Y210221D01*
X132620Y210231D01*
X132613Y210240D01*
X132608Y210250D01*
X132602Y210260D01*
X132597Y210271D01*
X132592Y210281D01*
X132211Y211200D01*
X132208Y211211D01*
X132203Y211222D01*
X132201Y211233D01*
X132197Y211245D01*
X132195Y211256D01*
X132193Y211267D01*
X132192Y211279D01*
X132190Y211291D01*
Y211302D01*
X132189Y211314D01*
Y211811D01*
Y212308D01*
X132190Y212320D01*
Y212332D01*
X132192Y212343D01*
X132193Y212355D01*
X132195Y212366D01*
X132197Y212377D01*
X132201Y212388D01*
X132203Y212400D01*
X132208Y212411D01*
X132211Y212422D01*
X132592Y213340D01*
X132597Y213351D01*
X132602Y213362D01*
X132608Y213371D01*
X132613Y213382D01*
X132620Y213391D01*
X132626Y213401D01*
X132634Y213410D01*
X132641Y213420D01*
X132649Y213428D01*
X132656Y213437D01*
X133360Y214140D01*
X133369Y214147D01*
X133377Y214156D01*
X133386Y214162D01*
X133395Y214170D01*
X133405Y214176D01*
X133414Y214183D01*
X133425Y214188D01*
X133435Y214194D01*
X133445Y214199D01*
X133456Y214204D01*
X134374Y214585D01*
X134386Y214588D01*
X134396Y214593D01*
X134408Y214595D01*
X134419Y214599D01*
X134430Y214601D01*
X134442Y214604D01*
X134453Y214604D01*
X134465Y214606D01*
X134476D01*
X134488Y214607D01*
X134985D01*
X135031Y214604D01*
X135077Y214593D01*
X135120Y214575D01*
X135159Y214551D01*
X135195Y214521D01*
X135225Y214485D01*
X135236Y214467D01*
X135248Y214485D01*
X135278Y214521D01*
X135313Y214551D01*
X135353Y214575D01*
X135396Y214593D01*
X135441Y214604D01*
X135487Y214607D01*
X135985D01*
X135996Y214606D01*
D02*
G37*
G36*
Y162638D02*
X136008D01*
X136019Y162636D01*
X136031Y162635D01*
X136042Y162632D01*
X136054Y162630D01*
X136065Y162627D01*
X136076Y162624D01*
X136087Y162620D01*
X136098Y162616D01*
X137017Y162235D01*
X137027Y162230D01*
X137038Y162226D01*
X137048Y162220D01*
X137058Y162215D01*
X137067Y162208D01*
X137077Y162201D01*
X137086Y162194D01*
X137096Y162187D01*
X137104Y162179D01*
X137113Y162171D01*
X137816Y161468D01*
X137824Y161459D01*
X137832Y161451D01*
X137839Y161442D01*
X137846Y161433D01*
X137852Y161423D01*
X137859Y161413D01*
X137864Y161403D01*
X137871Y161393D01*
X137875Y161382D01*
X137880Y161372D01*
X138261Y160453D01*
X138265Y160442D01*
X138269Y160431D01*
X138272Y160420D01*
X138275Y160409D01*
X138277Y160398D01*
X138280Y160386D01*
X138281Y160374D01*
X138283Y160363D01*
Y160351D01*
X138283Y160340D01*
Y159843D01*
Y159345D01*
X138283Y159334D01*
Y159322D01*
X138281Y159310D01*
X138280Y159299D01*
X138277Y159288D01*
X138275Y159276D01*
X138272Y159265D01*
X138269Y159254D01*
X138265Y159243D01*
X138261Y159232D01*
X137880Y158313D01*
X137875Y158303D01*
X137871Y158292D01*
X137864Y158282D01*
X137859Y158272D01*
X137852Y158262D01*
X137846Y158252D01*
X137839Y158243D01*
X137832Y158234D01*
X137824Y158226D01*
X137816Y158217D01*
X137113Y157514D01*
X137104Y157506D01*
X137096Y157498D01*
X137086Y157491D01*
X137077Y157483D01*
X137067Y157477D01*
X137058Y157471D01*
X137048Y157465D01*
X137038Y157459D01*
X137027Y157455D01*
X137017Y157449D01*
X136098Y157069D01*
X136087Y157065D01*
X136076Y157061D01*
X136065Y157058D01*
X136054Y157054D01*
X136042Y157053D01*
X136031Y157050D01*
X136019Y157049D01*
X136008Y157047D01*
X135996D01*
X135985Y157046D01*
X135487D01*
X135441Y157050D01*
X135396Y157061D01*
X135353Y157079D01*
X135313Y157103D01*
X135278Y157133D01*
X135248Y157168D01*
X135236Y157187D01*
X135225Y157168D01*
X135195Y157133D01*
X135159Y157103D01*
X135120Y157079D01*
X135077Y157061D01*
X135031Y157050D01*
X134985Y157046D01*
X134488D01*
X134476Y157047D01*
X134465D01*
X134453Y157049D01*
X134442Y157050D01*
X134430Y157053D01*
X134419Y157054D01*
X134408Y157058D01*
X134396Y157061D01*
X134386Y157065D01*
X134374Y157069D01*
X133456Y157449D01*
X133445Y157455D01*
X133435Y157459D01*
X133425Y157465D01*
X133414Y157471D01*
X133405Y157477D01*
X133395Y157483D01*
X133386Y157491D01*
X133377Y157498D01*
X133369Y157506D01*
X133360Y157514D01*
X132656Y158217D01*
X132649Y158226D01*
X132641Y158234D01*
X132634Y158243D01*
X132626Y158252D01*
X132620Y158262D01*
X132613Y158272D01*
X132608Y158282D01*
X132602Y158292D01*
X132597Y158303D01*
X132592Y158313D01*
X132211Y159232D01*
X132208Y159243D01*
X132203Y159254D01*
X132201Y159265D01*
X132197Y159276D01*
X132195Y159288D01*
X132193Y159299D01*
X132192Y159310D01*
X132190Y159322D01*
Y159334D01*
X132189Y159345D01*
Y159843D01*
Y160340D01*
X132190Y160351D01*
Y160363D01*
X132192Y160374D01*
X132193Y160386D01*
X132195Y160398D01*
X132197Y160409D01*
X132201Y160420D01*
X132203Y160431D01*
X132208Y160442D01*
X132211Y160453D01*
X132592Y161372D01*
X132597Y161382D01*
X132602Y161393D01*
X132608Y161403D01*
X132613Y161413D01*
X132620Y161423D01*
X132626Y161433D01*
X132634Y161442D01*
X132641Y161451D01*
X132649Y161459D01*
X132656Y161468D01*
X133360Y162171D01*
X133369Y162179D01*
X133377Y162187D01*
X133386Y162194D01*
X133395Y162201D01*
X133405Y162208D01*
X133414Y162215D01*
X133425Y162220D01*
X133435Y162226D01*
X133445Y162230D01*
X133456Y162235D01*
X134374Y162616D01*
X134386Y162620D01*
X134396Y162624D01*
X134408Y162627D01*
X134419Y162630D01*
X134430Y162632D01*
X134442Y162635D01*
X134453Y162636D01*
X134465Y162638D01*
X134476D01*
X134488Y162639D01*
X134985D01*
X135031Y162635D01*
X135077Y162624D01*
X135120Y162606D01*
X135159Y162582D01*
X135195Y162552D01*
X135225Y162517D01*
X135236Y162498D01*
X135248Y162517D01*
X135278Y162552D01*
X135313Y162582D01*
X135353Y162606D01*
X135396Y162624D01*
X135441Y162635D01*
X135487Y162639D01*
X135985D01*
X135996Y162638D01*
D02*
G37*
G36*
Y110669D02*
X136008D01*
X136019Y110668D01*
X136031Y110667D01*
X136042Y110664D01*
X136054Y110662D01*
X136065Y110658D01*
X136076Y110656D01*
X136087Y110651D01*
X136098Y110648D01*
X137017Y110267D01*
X137027Y110262D01*
X137038Y110257D01*
X137048Y110251D01*
X137058Y110246D01*
X137067Y110239D01*
X137077Y110233D01*
X137086Y110225D01*
X137096Y110219D01*
X137104Y110210D01*
X137113Y110203D01*
X137816Y109500D01*
X137824Y109491D01*
X137832Y109483D01*
X137839Y109473D01*
X137846Y109464D01*
X137852Y109454D01*
X137859Y109445D01*
X137864Y109434D01*
X137871Y109425D01*
X137875Y109414D01*
X137880Y109404D01*
X138261Y108485D01*
X138265Y108474D01*
X138269Y108463D01*
X138272Y108451D01*
X138275Y108440D01*
X138277Y108429D01*
X138280Y108418D01*
X138281Y108406D01*
X138283Y108395D01*
Y108383D01*
X138283Y108371D01*
Y107874D01*
Y107377D01*
X138283Y107365D01*
Y107353D01*
X138281Y107342D01*
X138280Y107330D01*
X138277Y107319D01*
X138275Y107308D01*
X138272Y107297D01*
X138269Y107285D01*
X138265Y107274D01*
X138261Y107263D01*
X137880Y106344D01*
X137875Y106334D01*
X137871Y106323D01*
X137864Y106314D01*
X137859Y106303D01*
X137852Y106294D01*
X137846Y106284D01*
X137839Y106275D01*
X137832Y106265D01*
X137824Y106257D01*
X137816Y106248D01*
X137113Y105545D01*
X137104Y105538D01*
X137096Y105529D01*
X137086Y105523D01*
X137077Y105515D01*
X137067Y105509D01*
X137058Y105502D01*
X137048Y105497D01*
X137038Y105491D01*
X137027Y105486D01*
X137017Y105481D01*
X136098Y105100D01*
X136087Y105097D01*
X136076Y105092D01*
X136065Y105090D01*
X136054Y105086D01*
X136042Y105084D01*
X136031Y105081D01*
X136019Y105080D01*
X136008Y105079D01*
X135996D01*
X135985Y105078D01*
X135487D01*
X135441Y105081D01*
X135396Y105092D01*
X135353Y105110D01*
X135313Y105134D01*
X135278Y105165D01*
X135248Y105200D01*
X135236Y105219D01*
X135225Y105200D01*
X135195Y105165D01*
X135159Y105134D01*
X135120Y105110D01*
X135077Y105092D01*
X135031Y105081D01*
X134985Y105078D01*
X134488D01*
X134476Y105079D01*
X134465D01*
X134453Y105080D01*
X134442Y105081D01*
X134430Y105084D01*
X134419Y105086D01*
X134408Y105090D01*
X134396Y105092D01*
X134386Y105097D01*
X134374Y105100D01*
X133456Y105481D01*
X133445Y105486D01*
X133435Y105491D01*
X133425Y105497D01*
X133414Y105502D01*
X133405Y105509D01*
X133395Y105515D01*
X133386Y105523D01*
X133377Y105529D01*
X133369Y105538D01*
X133360Y105545D01*
X132656Y106248D01*
X132649Y106257D01*
X132641Y106265D01*
X132634Y106275D01*
X132626Y106284D01*
X132620Y106294D01*
X132613Y106303D01*
X132608Y106313D01*
X132602Y106323D01*
X132597Y106334D01*
X132592Y106344D01*
X132211Y107263D01*
X132208Y107274D01*
X132203Y107285D01*
X132201Y107297D01*
X132197Y107308D01*
X132195Y107319D01*
X132193Y107330D01*
X132192Y107342D01*
X132190Y107353D01*
Y107365D01*
X132189Y107377D01*
Y107874D01*
Y108371D01*
X132190Y108383D01*
Y108395D01*
X132192Y108406D01*
X132193Y108418D01*
X132195Y108429D01*
X132197Y108440D01*
X132201Y108451D01*
X132203Y108463D01*
X132208Y108474D01*
X132211Y108485D01*
X132592Y109404D01*
X132597Y109414D01*
X132602Y109425D01*
X132608Y109434D01*
X132613Y109445D01*
X132620Y109454D01*
X132626Y109464D01*
X132634Y109473D01*
X132641Y109483D01*
X132649Y109491D01*
X132656Y109500D01*
X133360Y110203D01*
X133369Y110210D01*
X133377Y110219D01*
X133386Y110225D01*
X133395Y110233D01*
X133405Y110239D01*
X133414Y110246D01*
X133425Y110251D01*
X133435Y110257D01*
X133445Y110262D01*
X133456Y110267D01*
X134374Y110648D01*
X134386Y110651D01*
X134396Y110656D01*
X134408Y110658D01*
X134419Y110662D01*
X134430Y110664D01*
X134442Y110667D01*
X134453Y110668D01*
X134465Y110669D01*
X134476D01*
X134488Y110670D01*
X134985D01*
X135031Y110667D01*
X135077Y110656D01*
X135120Y110638D01*
X135159Y110614D01*
X135195Y110583D01*
X135225Y110548D01*
X135236Y110529D01*
X135248Y110548D01*
X135278Y110583D01*
X135313Y110614D01*
X135353Y110638D01*
X135396Y110656D01*
X135441Y110667D01*
X135487Y110670D01*
X135985D01*
X135996Y110669D01*
D02*
G37*
G36*
X135996Y58701D02*
X136008D01*
X136019Y58699D01*
X136031Y58698D01*
X136042Y58695D01*
X136054Y58693D01*
X136065Y58690D01*
X136076Y58687D01*
X136087Y58683D01*
X136098Y58679D01*
X137017Y58298D01*
X137027Y58293D01*
X137038Y58289D01*
X137048Y58283D01*
X137058Y58277D01*
X137067Y58271D01*
X137077Y58264D01*
X137086Y58257D01*
X137096Y58250D01*
X137104Y58242D01*
X137113Y58234D01*
X137816Y57531D01*
X137824Y57522D01*
X137832Y57514D01*
X137839Y57505D01*
X137846Y57496D01*
X137852Y57486D01*
X137859Y57476D01*
X137864Y57466D01*
X137871Y57456D01*
X137875Y57445D01*
X137880Y57435D01*
X138261Y56516D01*
X138264Y56505D01*
X138269Y56494D01*
X138272Y56483D01*
X138275Y56472D01*
X138277Y56460D01*
X138280Y56449D01*
X138281Y56437D01*
X138283Y56426D01*
Y56414D01*
X138283Y56403D01*
Y55905D01*
Y55408D01*
X138283Y55397D01*
Y55385D01*
X138281Y55374D01*
X138280Y55362D01*
X138277Y55351D01*
X138275Y55339D01*
X138272Y55328D01*
X138269Y55317D01*
X138264Y55306D01*
X138261Y55295D01*
X137880Y54376D01*
X137875Y54366D01*
X137871Y54355D01*
X137864Y54345D01*
X137859Y54335D01*
X137852Y54325D01*
X137846Y54315D01*
X137839Y54306D01*
X137832Y54297D01*
X137824Y54289D01*
X137816Y54280D01*
X137113Y53577D01*
X137104Y53569D01*
X137096Y53561D01*
X137086Y53554D01*
X137077Y53547D01*
X137067Y53540D01*
X137058Y53534D01*
X137048Y53528D01*
X137038Y53522D01*
X137027Y53518D01*
X137017Y53513D01*
X136098Y53132D01*
X136087Y53128D01*
X136076Y53124D01*
X136065Y53121D01*
X136054Y53118D01*
X136042Y53116D01*
X136031Y53113D01*
X136019Y53112D01*
X136008Y53110D01*
X135996D01*
X135985Y53109D01*
X135487D01*
X135441Y53113D01*
X135396Y53124D01*
X135353Y53142D01*
X135313Y53166D01*
X135278Y53196D01*
X135248Y53231D01*
X135236Y53250D01*
X135225Y53231D01*
X135195Y53196D01*
X135159Y53166D01*
X135120Y53142D01*
X135077Y53124D01*
X135031Y53113D01*
X134985Y53109D01*
X134488D01*
X134476Y53110D01*
X134465D01*
X134453Y53112D01*
X134442Y53113D01*
X134430Y53116D01*
X134419Y53118D01*
X134408Y53121D01*
X134396Y53124D01*
X134386Y53128D01*
X134374Y53132D01*
X133456Y53513D01*
X133445Y53518D01*
X133435Y53522D01*
X133425Y53528D01*
X133414Y53534D01*
X133405Y53540D01*
X133395Y53547D01*
X133386Y53554D01*
X133377Y53561D01*
X133369Y53569D01*
X133360Y53577D01*
X132656Y54280D01*
X132649Y54289D01*
X132641Y54297D01*
X132634Y54306D01*
X132626Y54315D01*
X132620Y54325D01*
X132613Y54335D01*
X132608Y54345D01*
X132602Y54355D01*
X132597Y54366D01*
X132592Y54376D01*
X132211Y55295D01*
X132208Y55306D01*
X132203Y55317D01*
X132201Y55328D01*
X132197Y55339D01*
X132195Y55351D01*
X132193Y55362D01*
X132192Y55374D01*
X132190Y55385D01*
Y55397D01*
X132189Y55408D01*
Y55905D01*
Y56403D01*
X132190Y56414D01*
Y56426D01*
X132192Y56437D01*
X132193Y56449D01*
X132195Y56460D01*
X132197Y56472D01*
X132201Y56483D01*
X132203Y56494D01*
X132208Y56505D01*
X132211Y56516D01*
X132592Y57435D01*
X132597Y57445D01*
X132602Y57456D01*
X132608Y57466D01*
X132613Y57476D01*
X132620Y57486D01*
X132626Y57496D01*
X132634Y57505D01*
X132641Y57514D01*
X132649Y57522D01*
X132656Y57531D01*
X133360Y58234D01*
X133369Y58242D01*
X133377Y58250D01*
X133386Y58257D01*
X133395Y58264D01*
X133405Y58271D01*
X133414Y58277D01*
X133425Y58283D01*
X133435Y58289D01*
X133445Y58293D01*
X133456Y58298D01*
X134374Y58679D01*
X134386Y58683D01*
X134396Y58687D01*
X134408Y58690D01*
X134419Y58693D01*
X134430Y58695D01*
X134442Y58698D01*
X134453Y58699D01*
X134465Y58701D01*
X134476D01*
X134488Y58702D01*
X134985D01*
X135031Y58698D01*
X135077Y58687D01*
X135120Y58669D01*
X135159Y58645D01*
X135195Y58615D01*
X135225Y58580D01*
X135236Y58561D01*
X135248Y58580D01*
X135278Y58615D01*
X135313Y58645D01*
X135353Y58669D01*
X135396Y58687D01*
X135441Y58698D01*
X135487Y58702D01*
X135985D01*
X135996Y58701D01*
D02*
G37*
D36*
X145866Y263779D02*
D03*
X152559D02*
D03*
X135236Y222047D02*
D03*
X141929D02*
D03*
X187992Y263779D02*
D03*
X194685D02*
D03*
X177362Y222047D02*
D03*
X184055D02*
D03*
X230118Y263779D02*
D03*
X236811D02*
D03*
X219488Y222047D02*
D03*
X226181D02*
D03*
X272244Y263779D02*
D03*
X278937D02*
D03*
X261614Y222047D02*
D03*
X268307D02*
D03*
X314370Y263779D02*
D03*
X321063D02*
D03*
X303740Y222047D02*
D03*
X310433D02*
D03*
X356496Y263779D02*
D03*
X363189D02*
D03*
X345866Y222047D02*
D03*
X352559D02*
D03*
X398622Y263779D02*
D03*
X405315D02*
D03*
X387992Y222047D02*
D03*
X394685D02*
D03*
X440748Y263779D02*
D03*
X447441D02*
D03*
X430118Y222047D02*
D03*
X436811D02*
D03*
X145866Y211811D02*
D03*
X152559D02*
D03*
X135236Y170079D02*
D03*
X141929D02*
D03*
X187992Y211811D02*
D03*
X194685D02*
D03*
X177362Y170079D02*
D03*
X184055D02*
D03*
X230118Y211811D02*
D03*
X236811D02*
D03*
X219488Y170079D02*
D03*
X226181D02*
D03*
X272244Y211811D02*
D03*
X278937D02*
D03*
X261614Y170079D02*
D03*
X268307D02*
D03*
X314370Y211811D02*
D03*
X321063D02*
D03*
X303740Y170079D02*
D03*
X310433D02*
D03*
X356496Y211811D02*
D03*
X363189D02*
D03*
X345866Y170079D02*
D03*
X352559D02*
D03*
X398622Y211811D02*
D03*
X405315D02*
D03*
X387992Y170079D02*
D03*
X394685D02*
D03*
X440748Y211811D02*
D03*
X447441D02*
D03*
X430118Y170079D02*
D03*
X436811D02*
D03*
X145866Y159843D02*
D03*
X152559D02*
D03*
X135236Y118110D02*
D03*
X141929D02*
D03*
X187992Y159843D02*
D03*
X194685D02*
D03*
X177362Y118110D02*
D03*
X184055D02*
D03*
X230118Y159843D02*
D03*
X236811D02*
D03*
X219488Y118110D02*
D03*
X226181D02*
D03*
X272244Y159843D02*
D03*
X278937D02*
D03*
X261614Y118110D02*
D03*
X268307D02*
D03*
X314370Y159843D02*
D03*
X321063D02*
D03*
X303740Y118110D02*
D03*
X310433D02*
D03*
X356496Y159843D02*
D03*
X363189D02*
D03*
X345866Y118110D02*
D03*
X352559D02*
D03*
X398622Y159843D02*
D03*
X405315D02*
D03*
X387992Y118110D02*
D03*
X394685D02*
D03*
X440748Y159843D02*
D03*
X447441D02*
D03*
X430118Y118110D02*
D03*
X436811D02*
D03*
X145866Y107874D02*
D03*
X152559D02*
D03*
X135236Y66142D02*
D03*
X141929D02*
D03*
X187992Y107874D02*
D03*
X194685D02*
D03*
X177362Y66142D02*
D03*
X184055D02*
D03*
X230118Y107874D02*
D03*
X236811D02*
D03*
X219488Y66142D02*
D03*
X226181D02*
D03*
X272244Y107874D02*
D03*
X278937D02*
D03*
X261614Y66142D02*
D03*
X268307D02*
D03*
X314370Y107874D02*
D03*
X321063D02*
D03*
X303740Y66142D02*
D03*
X310433D02*
D03*
X356496Y107874D02*
D03*
X363189D02*
D03*
X345866Y66142D02*
D03*
X352559D02*
D03*
X398622Y107874D02*
D03*
X405315D02*
D03*
X387992Y66142D02*
D03*
X394685D02*
D03*
X440748Y107874D02*
D03*
X447441D02*
D03*
X430118Y66142D02*
D03*
X436811D02*
D03*
X356496Y55905D02*
D03*
X363189D02*
D03*
X440748D02*
D03*
X447441D02*
D03*
X398622D02*
D03*
X405315D02*
D03*
X314370D02*
D03*
X321063D02*
D03*
X272244D02*
D03*
X278937D02*
D03*
X230118D02*
D03*
X236811D02*
D03*
X187992D02*
D03*
X194685D02*
D03*
X145866D02*
D03*
X152559D02*
D03*
X430118Y14173D02*
D03*
X436811D02*
D03*
X387992D02*
D03*
X394685D02*
D03*
X345866D02*
D03*
X352559D02*
D03*
X303740D02*
D03*
X310433D02*
D03*
X261614D02*
D03*
X268307D02*
D03*
X219488D02*
D03*
X226181D02*
D03*
X177362D02*
D03*
X184055D02*
D03*
X135236D02*
D03*
X141929D02*
D03*
D37*
X133236Y263779D02*
D03*
X137236D02*
D03*
X133236Y211811D02*
D03*
X137236D02*
D03*
X133236Y159843D02*
D03*
X137236D02*
D03*
X133236Y107874D02*
D03*
X137236D02*
D03*
X133236Y55905D02*
D03*
X137236D02*
D03*
D38*
X417520Y255118D02*
D03*
X430118D02*
D03*
X438779D02*
D03*
X447441D02*
D03*
Y230709D02*
D03*
X438779D02*
D03*
X430118D02*
D03*
X417520D02*
D03*
X375394Y255118D02*
D03*
X387992D02*
D03*
X396654D02*
D03*
X405315D02*
D03*
Y230709D02*
D03*
X396654D02*
D03*
X387992D02*
D03*
X375394D02*
D03*
X333268Y255118D02*
D03*
X345866D02*
D03*
X354528D02*
D03*
X363189D02*
D03*
Y230709D02*
D03*
X354528D02*
D03*
X345866D02*
D03*
X333268D02*
D03*
X291142Y255118D02*
D03*
X303740D02*
D03*
X312402D02*
D03*
X321063D02*
D03*
Y230709D02*
D03*
X312402D02*
D03*
X303740D02*
D03*
X291142D02*
D03*
X249016Y255118D02*
D03*
X261614D02*
D03*
X270276D02*
D03*
X278937D02*
D03*
Y230709D02*
D03*
X270276D02*
D03*
X261614D02*
D03*
X249016D02*
D03*
X206890Y255118D02*
D03*
X219488D02*
D03*
X228150D02*
D03*
X236811D02*
D03*
Y230709D02*
D03*
X228150D02*
D03*
X219488D02*
D03*
X206890D02*
D03*
X164764Y255118D02*
D03*
X177362D02*
D03*
X186024D02*
D03*
X194685D02*
D03*
Y230709D02*
D03*
X186024D02*
D03*
X177362D02*
D03*
X164764D02*
D03*
X122638Y255118D02*
D03*
X135236D02*
D03*
X143898D02*
D03*
X152559D02*
D03*
Y230709D02*
D03*
X143898D02*
D03*
X135236D02*
D03*
X122638D02*
D03*
X417520Y203150D02*
D03*
X430118D02*
D03*
X438779D02*
D03*
X447441D02*
D03*
Y178740D02*
D03*
X438779D02*
D03*
X430118D02*
D03*
X417520D02*
D03*
X375394Y203150D02*
D03*
X387992D02*
D03*
X396654D02*
D03*
X405315D02*
D03*
Y178740D02*
D03*
X396654D02*
D03*
X387992D02*
D03*
X375394D02*
D03*
X333268Y203150D02*
D03*
X345866D02*
D03*
X354528D02*
D03*
X363189D02*
D03*
Y178740D02*
D03*
X354528D02*
D03*
X345866D02*
D03*
X333268D02*
D03*
X291142Y203150D02*
D03*
X303740D02*
D03*
X312402D02*
D03*
X321063D02*
D03*
Y178740D02*
D03*
X312402D02*
D03*
X303740D02*
D03*
X291142D02*
D03*
X249016Y203150D02*
D03*
X261614D02*
D03*
X270276D02*
D03*
X278937D02*
D03*
Y178740D02*
D03*
X270276D02*
D03*
X261614D02*
D03*
X249016D02*
D03*
X206890Y203150D02*
D03*
X219488D02*
D03*
X228150D02*
D03*
X236811D02*
D03*
Y178740D02*
D03*
X228150D02*
D03*
X219488D02*
D03*
X206890D02*
D03*
X164764Y203150D02*
D03*
X177362D02*
D03*
X186024D02*
D03*
X194685D02*
D03*
Y178740D02*
D03*
X186024D02*
D03*
X177362D02*
D03*
X164764D02*
D03*
X122638Y203150D02*
D03*
X135236D02*
D03*
X143898D02*
D03*
X152559D02*
D03*
Y178740D02*
D03*
X143898D02*
D03*
X135236D02*
D03*
X122638D02*
D03*
X417520Y151181D02*
D03*
X430118D02*
D03*
X438779D02*
D03*
X447441D02*
D03*
Y126772D02*
D03*
X438779D02*
D03*
X430118D02*
D03*
X417520D02*
D03*
X375394Y151181D02*
D03*
X387992D02*
D03*
X396654D02*
D03*
X405315D02*
D03*
Y126772D02*
D03*
X396654D02*
D03*
X387992D02*
D03*
X375394D02*
D03*
X333268Y151181D02*
D03*
X345866D02*
D03*
X354528D02*
D03*
X363189D02*
D03*
Y126772D02*
D03*
X354528D02*
D03*
X345866D02*
D03*
X333268D02*
D03*
X291142Y151181D02*
D03*
X303740D02*
D03*
X312402D02*
D03*
X321063D02*
D03*
Y126772D02*
D03*
X312402D02*
D03*
X303740D02*
D03*
X291142D02*
D03*
X249016Y151181D02*
D03*
X261614D02*
D03*
X270276D02*
D03*
X278937D02*
D03*
Y126772D02*
D03*
X270276D02*
D03*
X261614D02*
D03*
X249016D02*
D03*
X206890Y151181D02*
D03*
X219488D02*
D03*
X228150D02*
D03*
X236811D02*
D03*
Y126772D02*
D03*
X228150D02*
D03*
X219488D02*
D03*
X206890D02*
D03*
X164764Y151181D02*
D03*
X177362D02*
D03*
X186024D02*
D03*
X194685D02*
D03*
Y126772D02*
D03*
X186024D02*
D03*
X177362D02*
D03*
X164764D02*
D03*
X122638Y151181D02*
D03*
X135236D02*
D03*
X143898D02*
D03*
X152559D02*
D03*
Y126772D02*
D03*
X143898D02*
D03*
X135236D02*
D03*
X122638D02*
D03*
X417520Y99213D02*
D03*
X430118D02*
D03*
X438779D02*
D03*
X447441D02*
D03*
Y74803D02*
D03*
X438779D02*
D03*
X430118D02*
D03*
X417520D02*
D03*
X375394Y99213D02*
D03*
X387992D02*
D03*
X396654D02*
D03*
X405315D02*
D03*
Y74803D02*
D03*
X396654D02*
D03*
X387992D02*
D03*
X375394D02*
D03*
X333268Y99213D02*
D03*
X345866D02*
D03*
X354528D02*
D03*
X363189D02*
D03*
Y74803D02*
D03*
X354528D02*
D03*
X345866D02*
D03*
X333268D02*
D03*
X291142Y99213D02*
D03*
X303740D02*
D03*
X312402D02*
D03*
X321063D02*
D03*
Y74803D02*
D03*
X312402D02*
D03*
X303740D02*
D03*
X291142D02*
D03*
X249016Y99213D02*
D03*
X261614D02*
D03*
X270276D02*
D03*
X278937D02*
D03*
Y74803D02*
D03*
X270276D02*
D03*
X261614D02*
D03*
X249016D02*
D03*
X206890Y99213D02*
D03*
X219488D02*
D03*
X228150D02*
D03*
X236811D02*
D03*
Y74803D02*
D03*
X228150D02*
D03*
X219488D02*
D03*
X206890D02*
D03*
X164764Y99213D02*
D03*
X177362D02*
D03*
X186024D02*
D03*
X194685D02*
D03*
Y74803D02*
D03*
X186024D02*
D03*
X177362D02*
D03*
X164764D02*
D03*
X122638Y99213D02*
D03*
X135236D02*
D03*
X143898D02*
D03*
X152559D02*
D03*
Y74803D02*
D03*
X143898D02*
D03*
X135236D02*
D03*
X122638D02*
D03*
Y47244D02*
D03*
X135236D02*
D03*
X143898D02*
D03*
X152559D02*
D03*
X152559Y22835D02*
D03*
X143898D02*
D03*
X135236D02*
D03*
X122638D02*
D03*
X164764Y47244D02*
D03*
X177362Y47244D02*
D03*
X186024D02*
D03*
X194685D02*
D03*
Y22835D02*
D03*
X186024D02*
D03*
X177362Y22835D02*
D03*
X164764D02*
D03*
X249016Y47244D02*
D03*
X261614Y47244D02*
D03*
X270276D02*
D03*
X278937D02*
D03*
Y22835D02*
D03*
X270276D02*
D03*
X261614D02*
D03*
X249016D02*
D03*
X206890Y47244D02*
D03*
X219488Y47244D02*
D03*
X228150Y47244D02*
D03*
X236811D02*
D03*
Y22835D02*
D03*
X228150D02*
D03*
X219488Y22835D02*
D03*
X206890Y22835D02*
D03*
X291142Y47244D02*
D03*
X303740Y47244D02*
D03*
X312402Y47244D02*
D03*
X321063D02*
D03*
Y22835D02*
D03*
X312402D02*
D03*
X303740D02*
D03*
X291142D02*
D03*
X333268Y47244D02*
D03*
X345866Y47244D02*
D03*
X354528Y47244D02*
D03*
X363189Y47244D02*
D03*
Y22835D02*
D03*
X354528D02*
D03*
X345866D02*
D03*
X333268D02*
D03*
X375394Y47244D02*
D03*
X387992D02*
D03*
X396654Y47244D02*
D03*
X405315Y47244D02*
D03*
Y22835D02*
D03*
X396654Y22835D02*
D03*
X387992Y22835D02*
D03*
X375394D02*
D03*
X417520Y47244D02*
D03*
X430118Y47244D02*
D03*
X438779Y47244D02*
D03*
X447441D02*
D03*
Y22835D02*
D03*
X438779D02*
D03*
X430118D02*
D03*
X417520D02*
D03*
D51*
X28543Y173622D02*
D03*
Y181496D02*
D03*
Y202362D02*
D03*
Y210236D02*
D03*
D52*
X497992Y159055D02*
D03*
Y28898D02*
D03*
X6102Y139213D02*
D03*
Y180709D02*
D03*
D53*
X487992Y159055D02*
D03*
X497992Y169055D02*
D03*
X487992Y169055D02*
D03*
X497992Y179055D02*
D03*
X487992Y179055D02*
D03*
X497992Y189055D02*
D03*
X487992Y189055D02*
D03*
X497992Y199055D02*
D03*
X487992Y199055D02*
D03*
X497992Y209055D02*
D03*
X487992Y209055D02*
D03*
X497992Y219055D02*
D03*
X487992Y219055D02*
D03*
X497992Y229055D02*
D03*
X487992Y229055D02*
D03*
X497992Y239055D02*
D03*
X487992D02*
D03*
X497992Y249055D02*
D03*
X487992D02*
D03*
Y28898D02*
D03*
X497992Y38898D02*
D03*
X487992D02*
D03*
X497992Y48898D02*
D03*
X487992D02*
D03*
X497992Y58898D02*
D03*
X487992Y58898D02*
D03*
X497992Y68898D02*
D03*
X487992D02*
D03*
X497992Y78898D02*
D03*
X487992Y78898D02*
D03*
X497992Y88898D02*
D03*
X487992D02*
D03*
X497992Y98898D02*
D03*
X487992Y98898D02*
D03*
X497992Y108898D02*
D03*
X487992Y108898D02*
D03*
X497992Y118898D02*
D03*
X487992Y118898D02*
D03*
X6102Y169213D02*
D03*
Y159213D02*
D03*
Y149213D02*
D03*
Y210709D02*
D03*
Y200709D02*
D03*
Y190709D02*
D03*
D54*
X459252Y27559D02*
D03*
Y79528D02*
D03*
Y131496D02*
D03*
Y183465D02*
D03*
Y235433D02*
D03*
Y250394D02*
D03*
Y198425D02*
D03*
Y146457D02*
D03*
Y94488D02*
D03*
Y42520D02*
D03*
D55*
X45866Y35039D02*
D03*
X36024Y101969D02*
D03*
X16339Y76968D02*
D03*
X21063D02*
D03*
X25591D02*
D03*
X30512D02*
D03*
X35039D02*
D03*
X40551D02*
D03*
X47638D02*
D03*
X40354Y204134D02*
D03*
X48819D02*
D03*
X49016Y214567D02*
D03*
X14370D02*
D03*
X25394D02*
D03*
X40945D02*
D03*
X44882Y108858D02*
D03*
X51575Y242913D02*
D03*
Y240354D02*
D03*
Y237795D02*
D03*
X51772Y190945D02*
D03*
Y185630D02*
D03*
Y30118D02*
D03*
Y34843D02*
D03*
Y133858D02*
D03*
Y138976D02*
D03*
X51575Y87008D02*
D03*
X65083Y175829D02*
D03*
Y172680D02*
D03*
X101181Y166339D02*
D03*
X22835Y236024D02*
D03*
X24213Y131496D02*
D03*
X31890Y129134D02*
D03*
X28346Y139567D02*
D03*
X36417Y94685D02*
D03*
X27953Y236024D02*
D03*
X28150Y57087D02*
D03*
X15157Y122638D02*
D03*
X41535Y91339D02*
D03*
X32874Y236024D02*
D03*
Y57087D02*
D03*
X37992Y236221D02*
D03*
X37992Y57087D02*
D03*
X42913D02*
D03*
Y236221D02*
D03*
X23303Y121395D02*
D03*
X17913Y235630D02*
D03*
X19094Y64173D02*
D03*
X23228D02*
D03*
X15157Y35039D02*
D03*
X46457Y227953D02*
D03*
X14370D02*
D03*
X49213Y111614D02*
D03*
Y116929D02*
D03*
X26181Y91535D02*
D03*
Y94488D02*
D03*
X45276Y146457D02*
D03*
Y143504D02*
D03*
X10630Y112795D02*
D03*
X12756Y116929D02*
D03*
X22047Y142323D02*
D03*
X20472Y146457D02*
D03*
X24213Y167520D02*
D03*
X65354Y120669D02*
D03*
Y123819D02*
D03*
Y227953D02*
D03*
Y224803D02*
D03*
X56299Y40157D02*
D03*
X54134Y42520D02*
D03*
X56299Y92126D02*
D03*
X54134Y94488D02*
D03*
X56299Y248031D02*
D03*
X54134Y250394D02*
D03*
X56299Y196063D02*
D03*
X54134Y198425D02*
D03*
Y146457D02*
D03*
X56299Y144095D02*
D03*
X65354Y19685D02*
D03*
Y16535D02*
D03*
X65158Y68504D02*
D03*
Y71653D02*
D03*
X61614Y50000D02*
D03*
X67913Y52756D02*
D03*
X61588Y257819D02*
D03*
X67913Y260630D02*
D03*
Y208661D02*
D03*
X61614Y205906D02*
D03*
X62349Y102017D02*
D03*
X68307Y104331D02*
D03*
X62008Y153937D02*
D03*
X67913Y156693D02*
D03*
X97835Y169291D02*
D03*
X85236Y138976D02*
D03*
X94685Y173622D02*
D03*
X85236Y141339D02*
D03*
Y144095D02*
D03*
Y146850D02*
D03*
X91535Y177953D02*
D03*
X89567Y179921D02*
D03*
X91535Y181890D02*
D03*
X89567Y183858D02*
D03*
X94685Y187008D02*
D03*
X99803Y190157D02*
D03*
X70548Y153468D02*
D03*
X73304D02*
D03*
X76060D02*
D03*
X78422D02*
D03*
Y49531D02*
D03*
X76060D02*
D03*
X73304D02*
D03*
X70548D02*
D03*
X98622Y220866D02*
D03*
X99803Y86221D02*
D03*
X94685Y83071D02*
D03*
X89567Y79921D02*
D03*
X91535Y77953D02*
D03*
X89567Y75984D02*
D03*
X91535Y74016D02*
D03*
X85236Y42913D02*
D03*
Y40157D02*
D03*
Y37402D02*
D03*
X94685Y69685D02*
D03*
X85236Y35039D02*
D03*
X97835Y65354D02*
D03*
X122638Y225197D02*
D03*
Y173228D02*
D03*
Y121653D02*
D03*
Y69291D02*
D03*
Y17717D02*
D03*
X459252Y242913D02*
D03*
X459646Y227165D02*
D03*
X459252Y206299D02*
D03*
Y35039D02*
D03*
X458858Y138976D02*
D03*
X459252Y103543D02*
D03*
X500984Y136614D02*
D03*
Y148425D02*
D03*
X487205Y136614D02*
D03*
X481299Y148031D02*
D03*
X454528Y268504D02*
D03*
X448228D02*
D03*
X438779D02*
D03*
X419882D02*
D03*
X429331D02*
D03*
X382087D02*
D03*
X372638D02*
D03*
X391535D02*
D03*
X400984D02*
D03*
X410433D02*
D03*
X315945D02*
D03*
X306496D02*
D03*
X287598D02*
D03*
X297047D02*
D03*
X344291D02*
D03*
X334842D02*
D03*
X325394D02*
D03*
X353740D02*
D03*
X363189D02*
D03*
X230906D02*
D03*
X221457D02*
D03*
X193110D02*
D03*
X202559D02*
D03*
X212008D02*
D03*
X249803D02*
D03*
X240354D02*
D03*
X259252D02*
D03*
X268701D02*
D03*
X278150D02*
D03*
X145866D02*
D03*
X136417D02*
D03*
X126969D02*
D03*
X164764D02*
D03*
X155315D02*
D03*
X174213D02*
D03*
X183661D02*
D03*
X454528Y9449D02*
D03*
X448228D02*
D03*
X438779D02*
D03*
X419882D02*
D03*
X429331D02*
D03*
X382087D02*
D03*
X372638D02*
D03*
X391535D02*
D03*
X400984D02*
D03*
X410433D02*
D03*
X315945D02*
D03*
X306496D02*
D03*
X287598D02*
D03*
X297047D02*
D03*
X344291D02*
D03*
X334842D02*
D03*
X325394D02*
D03*
X353740D02*
D03*
X363189D02*
D03*
X230906D02*
D03*
X221457D02*
D03*
X193110D02*
D03*
X202559D02*
D03*
X212008D02*
D03*
X249803D02*
D03*
X240354D02*
D03*
X259252D02*
D03*
X268701D02*
D03*
X278150D02*
D03*
X145866D02*
D03*
X136417D02*
D03*
X126969D02*
D03*
X164764D02*
D03*
X155315D02*
D03*
X174213D02*
D03*
X183661D02*
D03*
X454528Y61024D02*
D03*
X448228D02*
D03*
X438779D02*
D03*
X419882D02*
D03*
X429331D02*
D03*
X382087D02*
D03*
X372638D02*
D03*
X391535D02*
D03*
X400984D02*
D03*
X410433D02*
D03*
X315945D02*
D03*
X306496D02*
D03*
X287598D02*
D03*
X297047D02*
D03*
X344291D02*
D03*
X334842D02*
D03*
X325394D02*
D03*
X353740D02*
D03*
X363189D02*
D03*
X230906D02*
D03*
X221457D02*
D03*
X193110D02*
D03*
X202559D02*
D03*
X212008D02*
D03*
X249803D02*
D03*
X240354D02*
D03*
X259252D02*
D03*
X268701D02*
D03*
X278150D02*
D03*
X145866D02*
D03*
X136417D02*
D03*
X126969D02*
D03*
X164764D02*
D03*
X155315D02*
D03*
X174213D02*
D03*
X183661D02*
D03*
X454528Y112992D02*
D03*
X448228D02*
D03*
X438779D02*
D03*
X419882D02*
D03*
X429331D02*
D03*
X382087D02*
D03*
X372638D02*
D03*
X391535D02*
D03*
X400984D02*
D03*
X410433D02*
D03*
X315945D02*
D03*
X306496D02*
D03*
X287598D02*
D03*
X297047D02*
D03*
X344291D02*
D03*
X334842D02*
D03*
X325394D02*
D03*
X353740D02*
D03*
X363189D02*
D03*
X230906D02*
D03*
X221457D02*
D03*
X193110D02*
D03*
X202559D02*
D03*
X212008D02*
D03*
X249803D02*
D03*
X240354D02*
D03*
X259252D02*
D03*
X268701D02*
D03*
X278150D02*
D03*
X145866D02*
D03*
X136417D02*
D03*
X126969D02*
D03*
X164764D02*
D03*
X155315D02*
D03*
X174213D02*
D03*
X183661D02*
D03*
X454528Y164961D02*
D03*
X438779D02*
D03*
X419882D02*
D03*
X429331D02*
D03*
X382087D02*
D03*
X372638D02*
D03*
X391535D02*
D03*
X400984D02*
D03*
X410433D02*
D03*
X315945D02*
D03*
X306496D02*
D03*
X287598D02*
D03*
X297047D02*
D03*
X344291D02*
D03*
X334842D02*
D03*
X325394D02*
D03*
X353740D02*
D03*
X363189D02*
D03*
X230906D02*
D03*
X221457D02*
D03*
X193110D02*
D03*
X202559D02*
D03*
X212008D02*
D03*
X249803D02*
D03*
X240354D02*
D03*
X259252D02*
D03*
X268701D02*
D03*
X278150D02*
D03*
X145866D02*
D03*
X136417D02*
D03*
X126969D02*
D03*
X164764D02*
D03*
X155315D02*
D03*
X174213D02*
D03*
X183661D02*
D03*
Y216929D02*
D03*
X174213D02*
D03*
X155315D02*
D03*
X164764D02*
D03*
X126969D02*
D03*
X136417D02*
D03*
X145866D02*
D03*
X278150D02*
D03*
X268701D02*
D03*
X259252D02*
D03*
X240354D02*
D03*
X249803D02*
D03*
X212008D02*
D03*
X202559D02*
D03*
X193110D02*
D03*
X221457D02*
D03*
X230906D02*
D03*
X363189D02*
D03*
X353740D02*
D03*
X325394D02*
D03*
X334842D02*
D03*
X344291D02*
D03*
X297047D02*
D03*
X287598D02*
D03*
X306496D02*
D03*
X315945D02*
D03*
X410433D02*
D03*
X400984D02*
D03*
X391535D02*
D03*
X372638D02*
D03*
X382087D02*
D03*
X429331D02*
D03*
X419882D02*
D03*
X438779D02*
D03*
X448228D02*
D03*
X454528D02*
D03*
X424606Y198031D02*
D03*
X424213Y146457D02*
D03*
X424213Y94488D02*
D03*
Y42520D02*
D03*
X424803Y249803D02*
D03*
X424213Y27559D02*
D03*
Y79528D02*
D03*
X425000Y236221D02*
D03*
X424213Y131496D02*
D03*
X424606Y183858D02*
D03*
X101378Y244882D02*
D03*
X107677Y247638D02*
D03*
Y220866D02*
D03*
X101378Y192913D02*
D03*
X107677Y195669D02*
D03*
X107283Y168898D02*
D03*
X106890Y142913D02*
D03*
X100799Y140305D02*
D03*
X101085Y114489D02*
D03*
X107283Y116929D02*
D03*
Y91732D02*
D03*
X100984Y88976D02*
D03*
X101257Y10331D02*
D03*
X107677Y12992D02*
D03*
X107283Y39764D02*
D03*
X101210Y36872D02*
D03*
X107283Y64961D02*
D03*
X101221Y62362D02*
D03*
X108858Y33858D02*
D03*
X423819Y254724D02*
D03*
Y231102D02*
D03*
X391929Y254724D02*
D03*
Y231102D02*
D03*
X367913Y254724D02*
D03*
X358858D02*
D03*
Y231102D02*
D03*
X367913D02*
D03*
X350197Y254724D02*
D03*
Y231102D02*
D03*
X255315Y254724D02*
D03*
Y231102D02*
D03*
X199409Y254724D02*
D03*
X223819D02*
D03*
X199409Y231102D02*
D03*
X223819D02*
D03*
X190354Y254724D02*
D03*
Y231102D02*
D03*
X443110Y254724D02*
D03*
Y231102D02*
D03*
X434449Y254724D02*
D03*
Y231102D02*
D03*
X410039Y254724D02*
D03*
Y231102D02*
D03*
X400984Y254724D02*
D03*
Y231102D02*
D03*
X381693Y254724D02*
D03*
Y231102D02*
D03*
X339567Y254724D02*
D03*
Y231102D02*
D03*
X325787Y254724D02*
D03*
Y231102D02*
D03*
X316732Y254724D02*
D03*
Y231102D02*
D03*
X308071Y254724D02*
D03*
Y231102D02*
D03*
X297441Y254724D02*
D03*
Y231102D02*
D03*
X283661Y254724D02*
D03*
Y231102D02*
D03*
X274606Y254724D02*
D03*
Y231102D02*
D03*
X265945Y254724D02*
D03*
Y231102D02*
D03*
X241535Y254724D02*
D03*
Y231102D02*
D03*
X232480Y254724D02*
D03*
Y231102D02*
D03*
X213189Y254724D02*
D03*
Y231102D02*
D03*
X181693Y254724D02*
D03*
Y231102D02*
D03*
X171063Y254724D02*
D03*
Y231102D02*
D03*
X157283Y254724D02*
D03*
Y231102D02*
D03*
X148228Y254724D02*
D03*
Y231102D02*
D03*
X139567Y254724D02*
D03*
Y231102D02*
D03*
X126181Y254724D02*
D03*
X131299Y231102D02*
D03*
X161221Y255118D02*
D03*
X108465Y265748D02*
D03*
X203346Y255118D02*
D03*
X112008Y262598D02*
D03*
X245472Y255118D02*
D03*
X113976Y260630D02*
D03*
X287598Y255118D02*
D03*
X112008Y258661D02*
D03*
X329724Y255118D02*
D03*
X113976Y256693D02*
D03*
X371850Y255118D02*
D03*
X112008Y254724D02*
D03*
X164764Y239764D02*
D03*
X413976Y255118D02*
D03*
X108465Y251575D02*
D03*
X149409Y225984D02*
D03*
X423819Y202756D02*
D03*
Y179134D02*
D03*
X391929Y202756D02*
D03*
Y179134D02*
D03*
X367913Y202756D02*
D03*
X358858D02*
D03*
Y179134D02*
D03*
X367913D02*
D03*
X350197Y202756D02*
D03*
Y179134D02*
D03*
X255315Y202756D02*
D03*
Y179134D02*
D03*
X199409Y202756D02*
D03*
X223819D02*
D03*
X199409Y179134D02*
D03*
X223819D02*
D03*
X190354Y202756D02*
D03*
Y179134D02*
D03*
X443110Y202756D02*
D03*
Y179134D02*
D03*
X434449Y202756D02*
D03*
Y179134D02*
D03*
X410039Y202756D02*
D03*
Y179134D02*
D03*
X400984Y202756D02*
D03*
Y179134D02*
D03*
X381693Y202756D02*
D03*
Y179134D02*
D03*
X339567Y202756D02*
D03*
Y179134D02*
D03*
X325787Y202756D02*
D03*
Y179134D02*
D03*
X316732Y202756D02*
D03*
Y179134D02*
D03*
X308071Y202756D02*
D03*
Y179134D02*
D03*
X297441Y202756D02*
D03*
Y179134D02*
D03*
X283661Y202756D02*
D03*
Y179134D02*
D03*
X274606Y202756D02*
D03*
Y179134D02*
D03*
X265945Y202756D02*
D03*
Y179134D02*
D03*
X241535Y202756D02*
D03*
Y179134D02*
D03*
X232480Y202756D02*
D03*
Y179134D02*
D03*
X213189Y202756D02*
D03*
Y179134D02*
D03*
X181693Y202756D02*
D03*
Y179134D02*
D03*
X171063Y202756D02*
D03*
Y179134D02*
D03*
X157283Y202756D02*
D03*
Y179134D02*
D03*
X148228Y202756D02*
D03*
Y179134D02*
D03*
X139567Y202756D02*
D03*
Y179134D02*
D03*
X126181Y202756D02*
D03*
X131299Y179134D02*
D03*
X161221Y203150D02*
D03*
X108465Y213779D02*
D03*
X203346Y203150D02*
D03*
X112008Y210630D02*
D03*
X245472Y203150D02*
D03*
X113976Y208661D02*
D03*
X287598Y203150D02*
D03*
X112008Y206693D02*
D03*
X329724Y203150D02*
D03*
X113976Y204724D02*
D03*
X371850Y203150D02*
D03*
X112008Y202756D02*
D03*
X164764Y187795D02*
D03*
X413976Y203150D02*
D03*
X108465Y199606D02*
D03*
X149409Y174016D02*
D03*
X423819Y150787D02*
D03*
Y127165D02*
D03*
X391929Y150787D02*
D03*
Y127165D02*
D03*
X367913Y150787D02*
D03*
X358858D02*
D03*
Y127165D02*
D03*
X367913D02*
D03*
X350197Y150787D02*
D03*
Y127165D02*
D03*
X255315Y150787D02*
D03*
Y127165D02*
D03*
X199409Y150787D02*
D03*
X223819D02*
D03*
X199409Y127165D02*
D03*
X223819D02*
D03*
X190354Y150787D02*
D03*
Y127165D02*
D03*
X443110Y150787D02*
D03*
Y127165D02*
D03*
X434449Y150787D02*
D03*
Y127165D02*
D03*
X410039Y150787D02*
D03*
Y127165D02*
D03*
X400984Y150787D02*
D03*
Y127165D02*
D03*
X381693Y150787D02*
D03*
Y127165D02*
D03*
X339567Y150787D02*
D03*
Y127165D02*
D03*
X325787Y150787D02*
D03*
Y127165D02*
D03*
X316732Y150787D02*
D03*
Y127165D02*
D03*
X308071Y150787D02*
D03*
Y127165D02*
D03*
X297441Y150787D02*
D03*
Y127165D02*
D03*
X283661Y150787D02*
D03*
Y127165D02*
D03*
X274606Y150787D02*
D03*
Y127165D02*
D03*
X265945Y150787D02*
D03*
Y127165D02*
D03*
X241535Y150787D02*
D03*
Y127165D02*
D03*
X232480Y150787D02*
D03*
Y127165D02*
D03*
X213189Y150787D02*
D03*
Y127165D02*
D03*
X181693Y150787D02*
D03*
Y127165D02*
D03*
X171063Y150787D02*
D03*
Y127165D02*
D03*
X157283Y150787D02*
D03*
Y127165D02*
D03*
X148228Y150787D02*
D03*
Y127165D02*
D03*
X139567Y150787D02*
D03*
Y127165D02*
D03*
X126181Y150787D02*
D03*
X131299Y127165D02*
D03*
X161221Y151181D02*
D03*
X108465Y161811D02*
D03*
X203346Y151181D02*
D03*
X112008Y158661D02*
D03*
X245472Y151181D02*
D03*
X113976Y156693D02*
D03*
X287598Y151181D02*
D03*
X112008Y154724D02*
D03*
X329724Y151181D02*
D03*
X113976Y152756D02*
D03*
X371850Y151181D02*
D03*
X112008Y150787D02*
D03*
X164764Y135827D02*
D03*
X413976Y151181D02*
D03*
X108465Y147638D02*
D03*
X149409Y122047D02*
D03*
X423819Y98819D02*
D03*
Y75197D02*
D03*
X391929Y98819D02*
D03*
Y75197D02*
D03*
X367913Y98819D02*
D03*
X358858D02*
D03*
Y75197D02*
D03*
X367913D02*
D03*
X350197Y98819D02*
D03*
Y75197D02*
D03*
X255315Y98819D02*
D03*
Y75197D02*
D03*
X199409Y98819D02*
D03*
X223819D02*
D03*
X199409Y75197D02*
D03*
X223819D02*
D03*
X190354Y98819D02*
D03*
Y75197D02*
D03*
X443110Y98819D02*
D03*
Y75197D02*
D03*
X434449Y98819D02*
D03*
Y75197D02*
D03*
X410039Y98819D02*
D03*
Y75197D02*
D03*
X400984Y98819D02*
D03*
Y75197D02*
D03*
X381693Y98819D02*
D03*
Y75197D02*
D03*
X339567Y98819D02*
D03*
Y75197D02*
D03*
X325787Y98819D02*
D03*
Y75197D02*
D03*
X316732Y98819D02*
D03*
Y75197D02*
D03*
X308071Y98819D02*
D03*
Y75197D02*
D03*
X297441Y98819D02*
D03*
Y75197D02*
D03*
X283661Y98819D02*
D03*
Y75197D02*
D03*
X274606Y98819D02*
D03*
Y75197D02*
D03*
X265945Y98819D02*
D03*
Y75197D02*
D03*
X241535Y98819D02*
D03*
Y75197D02*
D03*
X232480Y98819D02*
D03*
Y75197D02*
D03*
X213189Y98819D02*
D03*
Y75197D02*
D03*
X181693Y98819D02*
D03*
Y75197D02*
D03*
X171063Y98819D02*
D03*
Y75197D02*
D03*
X157283Y98819D02*
D03*
Y75197D02*
D03*
X148228Y98819D02*
D03*
Y75197D02*
D03*
X139567Y98819D02*
D03*
Y75197D02*
D03*
X126181Y98819D02*
D03*
X131299Y75197D02*
D03*
X161221Y99213D02*
D03*
X108465Y109843D02*
D03*
X203346Y99213D02*
D03*
X112008Y106693D02*
D03*
X245472Y99213D02*
D03*
X113976Y104724D02*
D03*
X287598Y99213D02*
D03*
X112008Y102756D02*
D03*
X329724Y99213D02*
D03*
X113976Y100787D02*
D03*
X371850Y99213D02*
D03*
X112008Y98819D02*
D03*
X164764Y83858D02*
D03*
X413976Y99213D02*
D03*
X108465Y95669D02*
D03*
X149409Y70079D02*
D03*
X139567Y23228D02*
D03*
X148228D02*
D03*
X171063D02*
D03*
X181693D02*
D03*
X199409D02*
D03*
X213189D02*
D03*
X232480D02*
D03*
X241535D02*
D03*
X265945D02*
D03*
X274606D02*
D03*
X283661D02*
D03*
X157283D02*
D03*
X190354D02*
D03*
X223819D02*
D03*
X255315D02*
D03*
X297441D02*
D03*
X308071D02*
D03*
X316732D02*
D03*
X325787D02*
D03*
X339567D02*
D03*
X350197D02*
D03*
X358858D02*
D03*
X367913D02*
D03*
X381693D02*
D03*
X391929D02*
D03*
X400984D02*
D03*
X410039D02*
D03*
X423819D02*
D03*
X434449D02*
D03*
X443110D02*
D03*
Y46850D02*
D03*
X434449D02*
D03*
X423819D02*
D03*
X410039D02*
D03*
X400984D02*
D03*
X391929D02*
D03*
X381693D02*
D03*
X367913D02*
D03*
X358858D02*
D03*
X350197D02*
D03*
X339567D02*
D03*
X325787D02*
D03*
X316732D02*
D03*
X308071D02*
D03*
X297441D02*
D03*
X164764Y31890D02*
D03*
X131693Y46850D02*
D03*
X161221Y22835D02*
D03*
X111945Y20033D02*
D03*
X203346Y22835D02*
D03*
X113913Y22001D02*
D03*
X245472Y22835D02*
D03*
X111945Y23970D02*
D03*
X287598Y22835D02*
D03*
X114012Y26037D02*
D03*
X329724Y22835D02*
D03*
X112043Y28005D02*
D03*
X371850Y22835D02*
D03*
X108894Y31155D02*
D03*
X413976Y22835D02*
D03*
X149016Y51968D02*
D03*
X131693Y98819D02*
D03*
X161221Y74803D02*
D03*
X111945Y72001D02*
D03*
X203346Y74803D02*
D03*
X113913Y73970D02*
D03*
X245472Y74803D02*
D03*
X111945Y75938D02*
D03*
X287598Y74803D02*
D03*
X114012Y78005D02*
D03*
X329724Y74803D02*
D03*
X112043Y79974D02*
D03*
X371850Y74803D02*
D03*
X108894Y83123D02*
D03*
X413976Y74803D02*
D03*
X108894Y85879D02*
D03*
X149016Y103937D02*
D03*
X131693Y150787D02*
D03*
X161221Y126772D02*
D03*
X111945Y123970D02*
D03*
X203346Y126772D02*
D03*
X113913Y125938D02*
D03*
X245472Y126772D02*
D03*
X111945Y127907D02*
D03*
X287598Y126772D02*
D03*
X114012Y129974D02*
D03*
X329724Y126772D02*
D03*
X112043Y131942D02*
D03*
X371850Y126772D02*
D03*
X108894Y135092D02*
D03*
X413976Y126772D02*
D03*
X108894Y137848D02*
D03*
X149016Y155905D02*
D03*
X131693Y202756D02*
D03*
X161221Y178740D02*
D03*
X111945Y175938D02*
D03*
X203346Y178740D02*
D03*
X113913Y177907D02*
D03*
X245472Y178740D02*
D03*
X111945Y179875D02*
D03*
X287598Y178740D02*
D03*
X114012Y181942D02*
D03*
X329724Y178740D02*
D03*
X112043Y183911D02*
D03*
X371850Y178740D02*
D03*
X108894Y187060D02*
D03*
X413976Y178740D02*
D03*
X108894Y189816D02*
D03*
X149016Y207874D02*
D03*
X255315Y46850D02*
D03*
X223819D02*
D03*
X190354D02*
D03*
X157283D02*
D03*
X283661D02*
D03*
X274606D02*
D03*
X265945D02*
D03*
X241535D02*
D03*
X232480D02*
D03*
X213189D02*
D03*
X199409D02*
D03*
X181693D02*
D03*
X171063D02*
D03*
X148228D02*
D03*
X139567D02*
D03*
X126181D02*
D03*
X131299Y23228D02*
D03*
X161221Y47244D02*
D03*
X108465Y57874D02*
D03*
X203346Y47244D02*
D03*
X112008Y54724D02*
D03*
X245472Y47244D02*
D03*
X113976Y52756D02*
D03*
X287598Y47244D02*
D03*
X112008Y50787D02*
D03*
X329724Y47244D02*
D03*
X113976Y48819D02*
D03*
X371850Y47244D02*
D03*
X112008Y46850D02*
D03*
X413976Y47244D02*
D03*
X108465Y43701D02*
D03*
X149409Y18110D02*
D03*
X149016Y259842D02*
D03*
X131693Y254724D02*
D03*
X111945Y227907D02*
D03*
X113913Y229875D02*
D03*
X111945Y231844D02*
D03*
X108894Y241785D02*
D03*
X413976Y230709D02*
D03*
X108894Y239029D02*
D03*
X371850Y230709D02*
D03*
X112043Y235879D02*
D03*
X329724Y230709D02*
D03*
X114012Y233911D02*
D03*
X287598Y230709D02*
D03*
X245472D02*
D03*
X203346D02*
D03*
X161221D02*
D03*
D56*
X33268Y111024D02*
D03*
X28543D02*
D03*
X33268Y115748D02*
D03*
X28543D02*
D03*
D57*
X18307Y266929D02*
D03*
Y11024D02*
D03*
X471063Y266929D02*
D03*
Y11024D02*
D03*
D58*
X132874Y238189D02*
D03*
X126181Y231102D02*
D03*
X132874Y186221D02*
D03*
X126181Y179134D02*
D03*
X132874Y134252D02*
D03*
X126181Y127165D02*
D03*
X132874Y82284D02*
D03*
X126181Y75197D02*
D03*
X132874Y30315D02*
D03*
X126181Y23228D02*
D03*
D59*
X99606Y52854D02*
D03*
X103937D02*
D03*
X99606Y48524D02*
D03*
X103937D02*
D03*
X66339Y82677D02*
D03*
Y87008D02*
D03*
Y91339D02*
D03*
X70669Y82677D02*
D03*
Y87008D02*
D03*
Y91339D02*
D03*
X75000Y82677D02*
D03*
X75000Y87008D02*
D03*
X75000Y91339D02*
D03*
X99606Y104832D02*
D03*
X103937D02*
D03*
X99606Y100501D02*
D03*
X103937D02*
D03*
X99606Y156765D02*
D03*
X103937D02*
D03*
X99606Y152434D02*
D03*
X103937D02*
D03*
X66339Y186614D02*
D03*
Y190945D02*
D03*
Y195276D02*
D03*
X70669Y186614D02*
D03*
Y190945D02*
D03*
Y195276D02*
D03*
X75000Y186614D02*
D03*
Y190945D02*
D03*
Y195276D02*
D03*
X99606Y208740D02*
D03*
X103937D02*
D03*
X99606Y204409D02*
D03*
X103937D02*
D03*
X99606Y260667D02*
D03*
X103937D02*
D03*
X99606Y256336D02*
D03*
X103937D02*
D03*
X66339Y238583D02*
D03*
X66339Y242913D02*
D03*
X66339Y247244D02*
D03*
X70669Y238583D02*
D03*
Y242913D02*
D03*
Y247244D02*
D03*
X75000Y238583D02*
D03*
X75000Y242913D02*
D03*
X75000Y247244D02*
D03*
X99642Y234009D02*
D03*
X103972D02*
D03*
X99642Y229678D02*
D03*
X103972D02*
D03*
X99642Y182041D02*
D03*
X103972D02*
D03*
X99642Y177710D02*
D03*
X103972D02*
D03*
X66339Y134646D02*
D03*
X66339Y138976D02*
D03*
X66339Y143307D02*
D03*
X70669Y134646D02*
D03*
Y138976D02*
D03*
Y143307D02*
D03*
X75000Y134646D02*
D03*
X75000Y138976D02*
D03*
X75000Y143307D02*
D03*
X99642Y130072D02*
D03*
X103972Y130072D02*
D03*
X99642Y125741D02*
D03*
X103972Y125741D02*
D03*
X99642Y78104D02*
D03*
X103972D02*
D03*
X99642Y73773D02*
D03*
X103972D02*
D03*
X66339Y30709D02*
D03*
Y35039D02*
D03*
Y39370D02*
D03*
X70669Y30709D02*
D03*
Y35039D02*
D03*
Y39370D02*
D03*
X75000Y30709D02*
D03*
X75000Y35039D02*
D03*
X75000Y39370D02*
D03*
X99606Y26181D02*
D03*
X103937D02*
D03*
X99606Y21850D02*
D03*
X103937Y21850D02*
D03*
M02*
