M48
;Layer_Color=9474304
;FILE_FORMAT=2:5
INCH,LZ
;TYPE=PLATED
T1F00S00C0.00787
T2F00S00C0.01181
T3F00S00C0.01968
T4F00S00C0.03543
T5F00S00C0.06693
T6F00S00C0.07480
T7F00S00C0.11811
%
T01
X0038583Y0022835
X0037008Y0025197
X0035433Y0027559
Y005315
X0054331Y0037795
X0064173
X0069291
X0077559Y003189
Y0016929
X0069291Y0011024
X0054331
X0049213
Y0025984
X0054331
X0059449Y0022835
X0086614Y0047244
X0087402Y0051968
X0102362Y0047244
X0112205
X0112992Y0051968
X0127953Y0047244
X0125984Y0025984
X0131496
X0143341Y002869
X0151181Y0038583
X0161024
X0166142Y0026772
Y0023622
X017126Y0025984
Y0011811
X0156299
X0151181
X0146063
X0218504Y0114567
Y0120079
Y0125197
X0200394
X0200787Y0114961
X0127165Y0067716
X0127944Y0065281
X0125418Y0057337
X012126Y0070079
X011811Y0073622
X0112205Y0070472
X0108661Y0067716
X0104331
X0105118Y0070866
X0098032Y0070472
X009252Y0073622
X0088976Y0070472
X0083071Y0067716
X0102359Y0065281
X0099851Y0057481
X0101575Y0080709
X0105118
X0108661
X0077165Y0104331
X0118504Y0203937
X0114567Y021811
T02
X0084646Y0115748
X008937
X0086614Y0122047
Y0128347
Y0134646
Y0140945
Y0146457
Y0150394
X0088189Y0153543
Y0157087
X0083858
Y0153543
X0075984Y0162992
X0099606Y0162205
X0101969
Y0159843
X0099606
X0104331
X0101575Y0172835
X0126772Y0162992
X0134646Y0157087
Y0153543
X0138976
Y0157087
X0137402Y0150394
Y0146457
Y0140945
Y0134646
Y0128347
Y0122047
X0135433Y0115748
X0140157
X0148819Y0127559
Y0131102
X0152756
Y0127559
Y0159843
X0150394
Y0162205
X0152756
X0155118Y0159843
X0152362Y0172835
X0101969Y0131102
Y0127559
X0098032
Y0131102
X0116142Y0100787
Y0096457
X0120866
Y0100787
X0125591
Y0096457
T03
X0155905Y0130315
X0161417
X0035433Y0205709
Y021752
X0041339Y0211614
X0029528
Y0235827
X0035433Y0229921
X0041339Y0235827
X0035433Y0241732
X01Y0222047
X0105709Y0222244
X0111417Y0222047
X0170276Y0217717
X0176181Y0223622
X0182087Y0217717
X0176181Y0211811
X0200394
Y0223622
X0194488Y0217717
X0206299
T04
X0008898Y0033071
Y0043071
Y0053071
X0018898
Y0043071
Y0033071
X0046693Y0046063
X0056693
X0066693
X0076693
X0099055Y0018504
X0109055Y0019291
X0119055Y0018504
X0138661Y0046063
X0148661
X0158661
X0168661
X0178661
X0018898Y0063071
Y0073071
Y0083071
Y0093071
Y0103071
Y0113071
Y0123071
Y0133071
Y0143071
Y0153071
Y0163071
Y0173071
Y0183071
Y0193071
Y0203071
X0008898
Y0193071
Y0183071
Y0173071
Y0163071
Y0153071
Y0143071
Y0133071
Y0123071
Y0113071
Y0103071
Y0093071
Y0083071
Y0073071
Y0063071
Y0213071
Y0223071
X0018898
Y0213071
T05
X0200394Y0196063
X0057087Y0235827
T06
X0182677Y0196063
X0057087Y021811
T07
X001378Y001378
X0206693
X001378Y0242126
X0206693
M30
