G04*
G04 #@! TF.GenerationSoftware,Altium Limited,Altium Designer,20.0.9 (164)*
G04*
G04 Layer_Color=65535*
%FSLAX25Y25*%
%MOIN*%
G70*
G01*
G75*
%ADD10C,0.01000*%
%ADD11C,0.00984*%
%ADD12C,0.00787*%
D10*
X303682Y357382D02*
G03*
X303682Y357382I-139J0D01*
G01*
X318643Y347539D02*
G03*
X318643Y347539I-139J0D01*
G01*
X327895D02*
G03*
X327895Y347539I-139J0D01*
G01*
X342109Y359154D02*
G03*
X342109Y359154I-139J0D01*
G01*
X342068Y368209D02*
G03*
X342068Y368209I-139J0D01*
G01*
X285154Y405822D02*
Y401886D01*
X287121D01*
X287777Y402542D01*
Y405166D01*
X287121Y405822D01*
X285154D01*
X291057D02*
X289745D01*
X289089Y405166D01*
Y402542D01*
X289745Y401886D01*
X291057D01*
X291713Y402542D01*
Y405166D01*
X291057Y405822D01*
X293025D02*
Y402542D01*
X293681Y401886D01*
X294993D01*
X295649Y402542D01*
Y405822D01*
X296961D02*
X299585D01*
X298273D01*
Y401886D01*
X348441Y405822D02*
Y401886D01*
X350409D01*
X351065Y402542D01*
Y405166D01*
X350409Y405822D01*
X348441D01*
X352377D02*
X353689D01*
X353033D01*
Y401886D01*
X352377D01*
X353689D01*
X355657D02*
Y405822D01*
X358280Y401886D01*
Y405822D01*
D11*
X332185Y443898D02*
G03*
X332185Y443898I-492J0D01*
G01*
X315453Y355217D02*
G03*
X315453Y355217I-492J0D01*
G01*
X291339Y378150D02*
G03*
X291339Y378150I-492J0D01*
G01*
X324428Y386877D02*
G03*
X324428Y386877I-492J0D01*
G01*
D12*
X318406Y440748D02*
X318406Y437205D01*
X331004Y437205D02*
Y440748D01*
X318406Y437205D02*
X331004Y437205D01*
X318406Y440748D02*
X331004D01*
X331693Y357776D02*
Y358917D01*
X330551Y357776D02*
X331693D01*
Y373957D02*
Y375098D01*
X330551D02*
X331693D01*
X314370D02*
X315512D01*
X314370Y373957D02*
Y375098D01*
Y357776D02*
Y358917D01*
Y357776D02*
X315512D01*
X283957Y387795D02*
Y391043D01*
X287894D01*
X283957Y379232D02*
Y382480D01*
Y379232D02*
X287894D01*
X344429Y453957D02*
Y463957D01*
X304429Y453957D02*
X344429Y453957D01*
X304429Y463957D02*
X344429Y463957D01*
X304429Y453957D02*
Y463957D01*
M02*
