G04*
G04 #@! TF.GenerationSoftware,Altium Limited,Altium Designer,20.0.9 (164)*
G04*
G04 Layer_Color=16711935*
%FSLAX25Y25*%
%MOIN*%
G70*
G01*
G75*
%ADD12C,0.01000*%
%ADD13C,0.00197*%
D12*
X234659Y337386D02*
G03*
X235138Y364173I-27238J13885D01*
G01*
X247146Y342418D02*
G03*
X266434Y323130I394J-18895D01*
G01*
X288598Y310741D02*
G03*
X261811Y311221I-13885J-27238D01*
G01*
X234659Y433449D02*
G03*
X235138Y460236I-27238J13885D01*
G01*
X266336Y474901D02*
G03*
X247047Y455613I-18895J-394D01*
G01*
X261304Y487389D02*
G03*
X288090Y486909I13885J27238D01*
G01*
X357367Y486995D02*
G03*
X384154Y486516I13885J27238D01*
G01*
X398819Y455318D02*
G03*
X379531Y474606I-394J18895D01*
G01*
X411306Y460350D02*
G03*
X410827Y433563I27238J-13885D01*
G01*
X417488Y398949D02*
G03*
X417488Y398949I-94488J0D01*
G01*
X411306Y364779D02*
G03*
X410827Y337992I27238J-13885D01*
G01*
X379629Y323327D02*
G03*
X398917Y342615I18895J394D01*
G01*
X384661Y310840D02*
G03*
X357874Y311319I-13885J-27238D01*
G01*
X234659Y337386D02*
G03*
X235138Y364173I-27238J13885D01*
G01*
X247146Y342418D02*
G03*
X266434Y323130I394J-18895D01*
G01*
X288598Y310741D02*
G03*
X261811Y311221I-13885J-27238D01*
G01*
X234659Y433449D02*
G03*
X235138Y460236I-27238J13885D01*
G01*
X266336Y474901D02*
G03*
X247047Y455613I-18895J-394D01*
G01*
X261304Y487389D02*
G03*
X288090Y486909I13885J27238D01*
G01*
X357367Y486995D02*
G03*
X384154Y486516I13885J27238D01*
G01*
X398819Y455318D02*
G03*
X379531Y474606I-394J18895D01*
G01*
X411306Y460350D02*
G03*
X410827Y433563I27238J-13885D01*
G01*
X417488Y398949D02*
G03*
X417488Y398949I-94488J0D01*
G01*
X411306Y364779D02*
G03*
X410827Y337992I27238J-13885D01*
G01*
X379629Y323327D02*
G03*
X398917Y342615I18895J394D01*
G01*
X384661Y310840D02*
G03*
X357874Y311319I-13885J-27238D01*
G01*
D13*
X398030Y423029D02*
X398031Y423032D01*
X391338Y438088D02*
X391339Y438091D01*
X381693Y451474D02*
X381693Y451476D01*
X369390Y462500D02*
X369390Y462497D01*
X355118Y470768D02*
X355119Y470765D01*
X339469Y475984D02*
X339470Y475982D01*
X369387Y335237D02*
X369390Y335236D01*
X381592Y346260D02*
X381594Y346260D01*
X391336Y359645D02*
X391339Y359646D01*
X397931Y374704D02*
X397933Y374705D01*
X401376Y390845D02*
X401378Y390846D01*
X401278Y407380D02*
X401279Y407382D01*
X276574Y335337D02*
X276575Y335335D01*
X290845Y327069D02*
X290846Y327067D01*
X306593Y321853D02*
X306594Y321850D01*
X323030Y320179D02*
X323031Y320177D01*
X339466Y321950D02*
X339469Y321949D01*
X355116Y326970D02*
X355118Y326969D01*
X248031Y423130D02*
X248034Y423131D01*
X244685Y406988D02*
X244687Y406990D01*
X244587Y390945D02*
X244588Y390947D01*
X248031Y374902D02*
X248033Y374904D01*
X254626Y359744D02*
X254627Y359747D01*
X264272Y346457D02*
X264272Y346459D01*
X323031Y477658D02*
X323033Y477656D01*
X306594Y475886D02*
X306597Y475884D01*
X290945Y470768D02*
X290947Y470767D01*
X276673Y462500D02*
X276676Y462500D01*
X264469Y451476D02*
X264471Y451476D01*
X254724Y438189D02*
X254727Y438190D01*
X398030Y423029D02*
X398031Y423032D01*
X391338Y438088D02*
X391339Y438091D01*
X381693Y451474D02*
X381693Y451476D01*
X369390Y462500D02*
X369390Y462497D01*
X355118Y470768D02*
X355119Y470765D01*
X339469Y475984D02*
X339470Y475982D01*
X369387Y335237D02*
X369390Y335236D01*
X381592Y346260D02*
X381594Y346260D01*
X391336Y359645D02*
X391339Y359646D01*
X397931Y374704D02*
X397933Y374705D01*
X401376Y390845D02*
X401378Y390846D01*
X401278Y407380D02*
X401279Y407382D01*
X276574Y335337D02*
X276575Y335335D01*
X290845Y327069D02*
X290846Y327067D01*
X306593Y321853D02*
X306594Y321850D01*
X323030Y320179D02*
X323031Y320177D01*
X339466Y321950D02*
X339469Y321949D01*
X355116Y326970D02*
X355118Y326969D01*
X248031Y423130D02*
X248034Y423131D01*
X244685Y406988D02*
X244687Y406990D01*
X244587Y390945D02*
X244588Y390947D01*
X248031Y374902D02*
X248033Y374904D01*
X254626Y359744D02*
X254627Y359747D01*
X264272Y346457D02*
X264272Y346459D01*
X323031Y477658D02*
X323033Y477656D01*
X306594Y475886D02*
X306597Y475884D01*
X290945Y470768D02*
X290947Y470767D01*
X276673Y462500D02*
X276676Y462500D01*
X264469Y451476D02*
X264471Y451476D01*
X254724Y438189D02*
X254727Y438190D01*
M02*
