G04*
G04 #@! TF.GenerationSoftware,Altium Limited,Altium Designer,20.0.9 (164)*
G04*
G04 Layer_Physical_Order=1*
G04 Layer_Color=255*
%FSLAX25Y25*%
%MOIN*%
G70*
G01*
G75*
%ADD12C,0.00787*%
G04:AMPARAMS|DCode=13|XSize=20.47mil|YSize=22.05mil|CornerRadius=5.12mil|HoleSize=0mil|Usage=FLASHONLY|Rotation=0.000|XOffset=0mil|YOffset=0mil|HoleType=Round|Shape=RoundedRectangle|*
%AMROUNDEDRECTD13*
21,1,0.02047,0.01181,0,0,0.0*
21,1,0.01024,0.02205,0,0,0.0*
1,1,0.01024,0.00512,-0.00591*
1,1,0.01024,-0.00512,-0.00591*
1,1,0.01024,-0.00512,0.00591*
1,1,0.01024,0.00512,0.00591*
%
%ADD13ROUNDEDRECTD13*%
G04:AMPARAMS|DCode=14|XSize=20.47mil|YSize=22.05mil|CornerRadius=5.12mil|HoleSize=0mil|Usage=FLASHONLY|Rotation=270.000|XOffset=0mil|YOffset=0mil|HoleType=Round|Shape=RoundedRectangle|*
%AMROUNDEDRECTD14*
21,1,0.02047,0.01181,0,0,270.0*
21,1,0.01024,0.02205,0,0,270.0*
1,1,0.01024,-0.00591,-0.00512*
1,1,0.01024,-0.00591,0.00512*
1,1,0.01024,0.00591,0.00512*
1,1,0.01024,0.00591,-0.00512*
%
%ADD14ROUNDEDRECTD14*%
%ADD15R,0.02165X0.03150*%
%ADD16R,0.03543X0.02835*%
%ADD17R,0.11024X0.11024*%
%ADD18R,0.02520X0.00866*%
%ADD19R,0.00866X0.02520*%
%ADD20R,0.02756X0.02165*%
%ADD21R,0.09449X0.02992*%
%ADD22R,0.02835X0.03543*%
%ADD23R,0.03347X0.02756*%
%ADD24P,0.13919X4X180.0*%
G04:AMPARAMS|DCode=25|XSize=7.87mil|YSize=29.53mil|CornerRadius=0mil|HoleSize=0mil|Usage=FLASHONLY|Rotation=135.000|XOffset=0mil|YOffset=0mil|HoleType=Round|Shape=Round|*
%AMOVALD25*
21,1,0.02165,0.00787,0.00000,0.00000,225.0*
1,1,0.00787,0.00766,0.00766*
1,1,0.00787,-0.00766,-0.00766*
%
%ADD25OVALD25*%

G04:AMPARAMS|DCode=26|XSize=7.87mil|YSize=29.53mil|CornerRadius=0mil|HoleSize=0mil|Usage=FLASHONLY|Rotation=225.000|XOffset=0mil|YOffset=0mil|HoleType=Round|Shape=Round|*
%AMOVALD26*
21,1,0.02165,0.00787,0.00000,0.00000,315.0*
1,1,0.00787,-0.00766,0.00766*
1,1,0.00787,0.00766,-0.00766*
%
%ADD26OVALD26*%

%ADD27C,0.03937*%
%ADD28R,0.02500X0.02500*%
%ADD54C,0.01181*%
%ADD55C,0.01575*%
%ADD56C,0.00400*%
%ADD57C,0.09449*%
%ADD58C,0.08661*%
%ADD59C,0.05906*%
%ADD60R,0.05906X0.05906*%
%ADD61C,0.01772*%
%ADD62C,0.23622*%
%ADD63C,0.02362*%
%ADD64C,0.02756*%
%ADD65C,0.01968*%
%ADD66C,0.02598*%
G36*
X312539Y431147D02*
Y430649D01*
X312159Y429731D01*
X311455Y429027D01*
X310537Y428647D01*
X310039D01*
X309542D01*
X308623Y429027D01*
X307920Y429731D01*
X307539Y430649D01*
Y431147D01*
D01*
X312539D01*
D02*
G37*
G36*
Y431649D02*
Y432146D01*
X312159Y433065D01*
X311455Y433768D01*
X310537Y434149D01*
X310039D01*
X309542D01*
X308623Y433768D01*
X307920Y433065D01*
X307539Y432146D01*
Y431649D01*
D01*
X312539D01*
D02*
G37*
D12*
X347053Y318341D02*
G03*
X346671Y318039I274J-738D01*
G01*
X363120Y324371D02*
G03*
X365059Y327160I-1038J2790D01*
G01*
X328445Y433642D02*
Y434055D01*
X310531Y433890D02*
Y436614D01*
X310039Y433398D02*
X310531Y433890D01*
X326949Y425413D02*
Y429862D01*
X328445Y431358D02*
Y433642D01*
X326949Y429862D02*
X328445Y431358D01*
X327756Y421122D02*
X330906D01*
X323760D02*
X327741D01*
X326929Y425394D02*
X328351Y423972D01*
X326949Y425413D02*
X327716Y426181D01*
X326929Y425394D02*
X326949Y425413D01*
X326929Y421934D02*
Y425394D01*
Y421934D02*
X327741Y421122D01*
X327756D01*
X282579Y385138D02*
Y389370D01*
X273031Y398917D02*
X282579Y389370D01*
X296014Y381545D02*
Y382107D01*
X295079Y383042D02*
Y385276D01*
Y383042D02*
X296014Y382107D01*
X290846Y381398D02*
X290994Y381545D01*
X296014D01*
X296161Y381693D01*
X298268Y376378D02*
Y387795D01*
X295079Y388740D02*
X297323D01*
X298268Y387795D01*
X290846Y388878D02*
X290915Y388809D01*
X295010D01*
X295079Y388740D01*
X317520Y374016D02*
Y376279D01*
X316929Y376870D02*
X317520Y376279D01*
X330315Y384842D02*
X330551D01*
X332421Y386713D01*
X345453Y423605D02*
X345579Y423732D01*
X345453Y418858D02*
Y423605D01*
X309842Y433595D02*
X310039Y433398D01*
X309579Y433858D02*
X309842Y433595D01*
X360453Y433858D02*
X360630Y434035D01*
Y437402D01*
X309646Y409842D02*
X311850D01*
X300512Y433858D02*
X309579D01*
X295457Y373074D02*
X298113D01*
X298268Y373228D01*
X295571Y376378D02*
X298268D01*
X328351Y423972D02*
X329826D01*
X327716Y426181D02*
X329823D01*
X323130Y415846D02*
X323721Y416437D01*
X320472Y415846D02*
X323130D01*
X359370Y409941D02*
X360453D01*
X359339D02*
X359370D01*
X360453Y408858D01*
X359350Y409961D02*
X359370Y409941D01*
X354213Y409961D02*
X359350D01*
X354035Y410138D02*
X354213Y409961D01*
X314758Y410399D02*
X315315Y409842D01*
X314758Y410399D02*
Y411747D01*
X314272Y412234D02*
X314758Y411747D01*
X314272Y412234D02*
Y412500D01*
X340846Y388386D02*
X344488D01*
X315827Y383347D02*
X315846Y383327D01*
X313307Y383347D02*
X315827D01*
X313287Y383366D02*
X313307Y383347D01*
X311500Y376402D02*
Y389907D01*
X316110Y394517D01*
X319094Y383327D02*
X319094Y383327D01*
X315846Y383327D02*
X319094D01*
X315846Y383327D02*
X315846Y383327D01*
X315832Y379862D02*
X315846D01*
X315211Y379241D02*
X315832Y379862D01*
X315211Y379226D02*
Y379241D01*
X314862Y378878D02*
X315211Y379226D01*
X314862Y371988D02*
Y378878D01*
X319094Y383327D02*
X319114Y383347D01*
X301732Y373228D02*
X301880Y373376D01*
X304281D01*
X304429Y373524D01*
X301732Y376378D02*
X304528D01*
X298268Y366929D02*
Y370079D01*
X295965Y366929D02*
X298268D01*
X301732D02*
Y370079D01*
X309136Y366732D02*
X310254Y365614D01*
X295965Y370079D02*
X298268D01*
X330906Y414862D02*
Y417658D01*
X300500Y418902D02*
X307000D01*
X355129Y427866D02*
X358464D01*
X354260Y413934D02*
X359383D01*
X359425Y413976D01*
X346893Y408697D02*
X351672D01*
X345551Y410039D02*
X346893Y408697D01*
X348946Y433731D02*
X349019Y433803D01*
X351644D01*
X347736Y434941D02*
X348946Y433731D01*
X345453Y434941D02*
X347736D01*
X345579Y423732D02*
X351567D01*
X351613Y423778D01*
X345453Y423858D02*
X345579Y423732D01*
X354528Y422244D02*
X357224Y424941D01*
X354232Y422244D02*
X354528D01*
X326897Y407810D02*
X338189Y419102D01*
X324646Y444114D02*
X324715Y444183D01*
X324715Y447982D01*
X324783Y448051D01*
X324656Y443848D02*
X324705Y443898D01*
X324656Y440994D02*
Y443848D01*
X324606Y440945D02*
X324656Y440994D01*
X330709Y414665D02*
X330906Y414862D01*
X338189Y424902D02*
X339435Y426148D01*
X353412D01*
X311524Y421744D02*
X324606Y408661D01*
X311524Y421744D02*
Y423473D01*
X323721Y421161D02*
X323760Y421122D01*
X307382Y394587D02*
Y394685D01*
X294587Y407480D02*
Y413128D01*
X295498Y406568D02*
X307382Y394685D01*
X294587Y407480D02*
X294994Y407073D01*
Y407033D02*
X295459Y406568D01*
X294587Y413128D02*
X295048Y413589D01*
X300242D01*
X294994Y407033D02*
Y407073D01*
X295459Y406568D02*
X295498D01*
X300242Y413589D02*
X301024Y414370D01*
X306988D01*
X315315Y409842D02*
X317117D01*
X319900Y407060D01*
X319980Y426083D02*
X320079Y425984D01*
Y425886D02*
Y425984D01*
Y425886D02*
X320345D01*
X320837Y425394D02*
X323465D01*
X320345Y425886D02*
X320837Y425394D01*
X319193Y429528D02*
X322244D01*
X323465Y425394D02*
Y427854D01*
X322244Y429075D02*
X323465Y427854D01*
X322244Y429075D02*
Y429429D01*
X328425Y433642D02*
X328445Y433661D01*
X327654Y412201D02*
Y417555D01*
X327650Y417551D02*
X327654Y417555D01*
X327756Y417658D01*
X327551Y412098D02*
X327654Y412201D01*
X335886Y386713D02*
X338287D01*
X331547Y390354D02*
X333661D01*
X325823Y396079D02*
X331547Y390354D01*
X335728Y392520D02*
X336319Y391929D01*
X331887Y392520D02*
X335728D01*
X330687Y393720D02*
X331887Y392520D01*
X329914Y394541D02*
X330687Y393767D01*
Y393720D02*
Y393767D01*
X330785Y388659D02*
X331864Y387580D01*
X330785Y388659D02*
X330785D01*
X331864Y387270D02*
X332421Y386713D01*
X331864Y387270D02*
Y387580D01*
X327416Y392027D02*
X330785Y388659D01*
X298268Y373228D02*
Y376378D01*
X307000Y368868D02*
X309136Y366732D01*
X301732Y366929D02*
X301929Y366732D01*
X309136D01*
X301732Y376378D02*
X301782Y376329D01*
X324606Y408661D02*
X324933Y408335D01*
X330610Y417362D02*
X330906Y417658D01*
X300512Y408858D02*
X301614Y409961D01*
X306151D01*
X306919Y410728D01*
X307185D01*
X331940Y395020D02*
X346988D01*
X331174Y395785D02*
X331940Y395020D01*
X346988D02*
X358237Y406268D01*
Y408839D02*
X359339Y409941D01*
X358237Y406268D02*
Y408839D01*
X307000Y368868D02*
Y390418D01*
X309681Y422799D02*
X309744Y422736D01*
X320387Y409079D02*
X321152Y408313D01*
X320340Y409079D02*
X320387D01*
X306619Y422799D02*
X309681D01*
X306619D02*
X306662Y422756D01*
X320340Y409079D01*
X300512Y423858D02*
X301614Y422756D01*
X306662D01*
X357224Y424941D02*
X360453D01*
X313878Y389272D02*
Y389485D01*
X314618Y390504D02*
X317394Y393280D01*
X314618Y390225D02*
Y390504D01*
X313878Y389485D02*
X314618Y390225D01*
X285512Y408858D02*
X291437D01*
X285512D02*
Y413858D01*
X285555Y413902D01*
X291500D01*
X285512Y428858D02*
X285555Y428902D01*
X291500D01*
X285512Y428858D02*
Y433858D01*
X285555Y433902D01*
X291500D01*
X285512Y423858D02*
X285555Y423902D01*
X291500D01*
X285512Y418858D02*
X285555Y418902D01*
X291500D01*
X285512Y418858D02*
Y423858D01*
X353412Y426148D02*
X355129Y427866D01*
X345453Y409941D02*
X345551Y410039D01*
X314123Y402815D02*
X314881Y402057D01*
X310159Y402815D02*
X314123D01*
X310143Y402831D02*
X310159Y402815D01*
X317881Y406573D02*
X318639Y405815D01*
X317834Y406573D02*
X317881D01*
X317714Y406693D02*
X317834Y406573D01*
X324911Y389522D02*
X328113Y386319D01*
X345453Y409941D02*
Y414941D01*
Y429941D02*
Y434941D01*
X345387Y376069D02*
X365059Y356398D01*
Y327166D02*
Y356398D01*
X327447Y376069D02*
X345387D01*
X347053Y318341D02*
X363119Y324371D01*
X346654Y318012D02*
X346655Y318016D01*
X346671Y318039D01*
X363119Y324371D02*
X363120Y324371D01*
X365059Y327160D02*
X365059Y327166D01*
X378642Y334252D02*
Y355610D01*
X353433Y380819D02*
X378642Y355610D01*
X325480Y380819D02*
X353433D01*
X320669Y374016D02*
X320709Y374055D01*
Y376048D01*
X325480Y380819D01*
X322244Y374016D02*
X322284Y374055D01*
Y375943D01*
X325972Y379631D01*
X351569D01*
X359646Y371555D01*
X323819Y374016D02*
X323858Y374055D01*
Y375839D01*
X349656Y378444D02*
X356545Y371555D01*
X326464Y378444D02*
X349656D01*
X323858Y375839D02*
X326464Y378444D01*
X347743Y377257D02*
X353445Y371555D01*
X325433Y375734D02*
X326955Y377257D01*
X347743D01*
X325394Y374016D02*
X325433Y374055D01*
Y375734D01*
X326969Y374016D02*
X326969Y374016D01*
X326969Y374016D02*
Y375590D01*
X327447Y376069D01*
X343996Y374016D02*
X362992Y355020D01*
X328543Y374016D02*
X343996D01*
X362992Y326575D02*
Y355020D01*
X330610Y360890D02*
X331472D01*
X331476Y360886D01*
Y360668D02*
Y360886D01*
Y360668D02*
X333390Y358754D01*
Y357752D02*
X333563Y357579D01*
X315453Y367224D02*
X322244D01*
X312077D02*
X315453D01*
X311585Y367717D02*
X312077Y367224D01*
X311319Y367717D02*
X311585D01*
X313224Y368764D02*
X315421D01*
X311516Y370472D02*
X313224Y368764D01*
X309500Y375005D02*
X313295Y371210D01*
X309500Y375005D02*
Y390413D01*
X313295Y371153D02*
X314035Y370413D01*
X313295Y371153D02*
Y371210D01*
X317394Y404555D02*
X323031Y398917D01*
X352102Y418799D02*
X355398D01*
X359425Y413976D02*
X359500Y413902D01*
X360500Y414902D01*
X339921Y352953D02*
X340057Y353088D01*
X343575D01*
X343632Y356053D02*
X343711Y356132D01*
X339872Y356053D02*
X343632D01*
X339896Y359227D02*
X343779D01*
X339823Y359154D02*
X339896Y359227D01*
X339823Y353051D02*
X339921Y352953D01*
X339823Y356102D02*
X339872Y356053D01*
X314902Y371949D02*
X315453D01*
X314862Y371988D02*
X314902Y371949D01*
X325197Y364272D02*
X328543Y360925D01*
X323031Y366437D02*
X325197Y364272D01*
X328543Y360925D02*
X330610D01*
X322244Y367224D02*
X323031Y366437D01*
X320866Y368602D02*
X322244Y367224D01*
X317520Y371949D02*
X320866Y368602D01*
X317520Y371949D02*
Y374016D01*
X321555Y353110D02*
X321654Y353209D01*
Y355315D01*
X322244Y355906D02*
Y358858D01*
X321654Y355315D02*
X322244Y355906D01*
X315453Y353110D02*
X315846Y353504D01*
Y354331D01*
X319055Y358819D02*
X319094Y358858D01*
X319055Y357539D02*
Y358819D01*
X315846Y354331D02*
X319055Y357539D01*
X313714Y355840D02*
X315328D01*
X317520Y358032D02*
Y358858D01*
X315328Y355840D02*
X317520Y358032D01*
X312654Y353362D02*
Y354780D01*
X313714Y355840D01*
X312402Y353110D02*
X312654Y353362D01*
X318504Y353110D02*
Y355020D01*
X320630Y358819D02*
X320669Y358858D01*
X320630Y357146D02*
Y358819D01*
X318504Y355020D02*
X320630Y357146D01*
X324606Y353110D02*
Y355413D01*
X323819Y356201D02*
X324606Y355413D01*
X323819Y356201D02*
Y358858D01*
X327658Y353110D02*
Y354921D01*
X325433Y357146D02*
X327658Y354921D01*
X325394Y358858D02*
X325433Y358819D01*
Y357146D02*
Y358819D01*
X339823Y362205D02*
X343799D01*
X339823Y368209D02*
X343898D01*
X339921Y365256D02*
X343898D01*
X339823Y365158D02*
X339921Y365256D01*
X324606Y349646D02*
X324606Y349646D01*
Y339665D02*
Y349646D01*
Y339665D02*
X324606Y339665D01*
X327658Y349646D02*
X327756Y349547D01*
Y338090D02*
Y349547D01*
Y338090D02*
X327854Y337992D01*
X321555Y349646D02*
X321555Y349646D01*
X321555Y341634D02*
Y349646D01*
X321555Y341634D02*
X321555Y341634D01*
X312402Y346752D02*
X312402Y346752D01*
X312402Y346752D02*
Y349646D01*
X318504Y349646D02*
X318504Y349646D01*
Y343307D02*
Y349646D01*
Y343307D02*
X318504Y343307D01*
X315453Y349646D02*
X315453Y349646D01*
Y344980D02*
Y349646D01*
Y344980D02*
X315453Y344980D01*
X312402Y349646D02*
X312402Y349646D01*
X266339Y388917D02*
X273031D01*
X266339Y412992D02*
Y415492D01*
Y412992D02*
X266339Y412992D01*
Y382441D02*
Y384941D01*
X266301Y392420D02*
X266339Y392382D01*
X266301Y392420D02*
Y394821D01*
X266339Y402953D02*
Y405453D01*
X265748Y408917D02*
X273031D01*
X273031Y408917D01*
X265748Y418957D02*
X272992D01*
X273031Y418917D01*
X379724Y412598D02*
Y415197D01*
X379823Y402658D02*
Y404567D01*
X380512Y405256D01*
X379724Y392382D02*
Y394980D01*
Y382441D02*
Y384941D01*
X373031Y378917D02*
X380157D01*
X379665D02*
X379724Y378976D01*
X373031Y388917D02*
X380217D01*
X373031Y408917D02*
X380138D01*
X379646D02*
X379724Y408996D01*
X373031Y418917D02*
X380197D01*
X379705D02*
X379724Y418937D01*
X266004Y378917D02*
X273031D01*
X266535Y378976D02*
X266595Y378917D01*
X333390Y357752D02*
Y358754D01*
X331535Y353051D02*
X336358D01*
X327008Y357578D02*
X331535Y353051D01*
X327008Y357578D02*
Y358819D01*
X326969Y358858D02*
X327008Y358819D01*
X328543Y358032D02*
Y358858D01*
Y358032D02*
X331453Y355122D01*
X335393D01*
X336358Y356087D01*
Y356102D01*
X305748Y357382D02*
X305748Y357382D01*
X301378Y357382D02*
X305748D01*
X301378Y357382D02*
X301378Y357382D01*
X305748Y360433D02*
X305748Y360433D01*
X301378Y360433D02*
X305748D01*
X301378Y360433D02*
X301378Y360433D01*
X305686Y363546D02*
X305748Y363484D01*
X301416Y363546D02*
X305686D01*
X301354Y363609D02*
X301416Y363546D01*
X330610Y362500D02*
X332947D01*
X335658Y359789D01*
X335737D01*
X336358Y359168D01*
Y359154D02*
Y359168D01*
X330610Y364075D02*
X333051D01*
X334286Y362841D01*
X335737D01*
X336358Y362220D01*
Y362205D02*
Y362220D01*
X333833Y365158D02*
X336358D01*
X333341Y365650D02*
X333833Y365158D01*
X330610Y365650D02*
X333341D01*
X334079Y368209D02*
X336358D01*
X333095Y367224D02*
X334079Y368209D01*
X330610Y367224D02*
X333095D01*
X313022Y360890D02*
X315421D01*
X310170Y358037D02*
X313022Y360890D01*
X309853Y358037D02*
X310170D01*
X309232Y357416D02*
X309853Y358037D01*
X309232Y357401D02*
Y357416D01*
X312918Y362465D02*
X315421D01*
X311437Y360984D02*
X312918Y362465D01*
X309815Y360984D02*
X311437D01*
X309232Y360402D02*
X309815Y360984D01*
X309232Y363402D02*
X311905D01*
X312543Y364039D01*
X315421D01*
X355398Y418799D02*
X359398D01*
X352937Y416339D02*
X355398Y418799D01*
X300500Y418902D02*
X300500Y418902D01*
X324606Y408661D02*
Y408661D01*
X310039Y424958D02*
Y429398D01*
Y424958D02*
X311524Y423473D01*
X301000Y429402D02*
X310000D01*
X300500Y428902D02*
X301000Y429402D01*
X332396Y400807D02*
X342405D01*
X342500Y400902D01*
X328637Y404539D02*
X331000Y406902D01*
X338000D01*
X329890Y403286D02*
X331505Y404902D01*
X339500D01*
X332011Y402902D02*
X341000D01*
X331143Y402033D02*
X332011Y402902D01*
X307000Y390418D02*
X313604Y397022D01*
X315347Y370413D02*
X315421Y370339D01*
X310254Y365614D02*
X315421D01*
X309653Y406693D02*
X317714D01*
X309422Y406462D02*
X309653Y406693D01*
X309156Y406462D02*
X309422D01*
X307442Y404610D02*
X314786D01*
X316110Y403286D01*
X304000Y400902D02*
X313484D01*
X304000Y400902D02*
X304000Y400902D01*
X305821Y402831D02*
X310143D01*
X305724Y402734D02*
X305821Y402831D01*
X313484Y400902D02*
X313604Y400781D01*
X301602Y422799D02*
X306619D01*
X327385Y405792D02*
X337931Y416339D01*
X352937D01*
X338189Y419102D02*
Y424902D01*
X358464Y427866D02*
X359437Y428839D01*
X326897Y407810D02*
Y407810D01*
X326132Y407044D02*
X326897Y407810D01*
X314035Y370413D02*
X315347D01*
X309500Y390413D02*
X314857Y395770D01*
D13*
X339823Y356102D02*
D03*
X336358Y356102D02*
D03*
X301732Y366929D02*
D03*
X298268D02*
D03*
X326929Y425394D02*
D03*
X323465D02*
D03*
X315315Y409842D02*
D03*
X311850D02*
D03*
X332421Y386713D02*
D03*
X335886D02*
D03*
X328248Y448051D02*
D03*
X324783Y448051D02*
D03*
X301732Y370079D02*
D03*
X298268D02*
D03*
X298268Y373228D02*
D03*
X301732D02*
D03*
X298268Y376378D02*
D03*
X301732D02*
D03*
X339823Y365158D02*
D03*
X336358D02*
D03*
X339823Y368209D02*
D03*
X336358D02*
D03*
Y362205D02*
D03*
X339823D02*
D03*
X336358Y359154D02*
D03*
X339823D02*
D03*
X336358Y353051D02*
D03*
X339823D02*
D03*
X309213Y357382D02*
D03*
X305748Y357382D02*
D03*
X309213Y360433D02*
D03*
X305748D02*
D03*
X309213Y363484D02*
D03*
X305748Y363484D02*
D03*
D14*
X379724Y378976D02*
D03*
Y382441D02*
D03*
Y388917D02*
D03*
Y392382D02*
D03*
X319094Y379862D02*
D03*
Y383327D02*
D03*
X327756Y421122D02*
D03*
Y417658D02*
D03*
X330906Y421122D02*
D03*
Y417658D02*
D03*
X295079Y385276D02*
D03*
Y388740D02*
D03*
X327658Y353110D02*
D03*
X327658Y349646D02*
D03*
X324606Y353110D02*
D03*
X324606Y349646D02*
D03*
X321555Y353110D02*
D03*
X321555Y349646D02*
D03*
X318504Y353110D02*
D03*
X318504Y349646D02*
D03*
X315453Y353110D02*
D03*
X315453Y349646D02*
D03*
X312402Y353110D02*
D03*
X312402Y349646D02*
D03*
X379724Y405256D02*
D03*
Y408720D02*
D03*
Y415197D02*
D03*
Y418661D02*
D03*
X266339Y415492D02*
D03*
X266339Y418957D02*
D03*
Y405453D02*
D03*
Y408917D02*
D03*
Y392382D02*
D03*
Y388917D02*
D03*
Y382441D02*
D03*
X266338Y378976D02*
D03*
X315846Y379862D02*
D03*
X315846Y383327D02*
D03*
D15*
X320965Y434055D02*
D03*
X328445D02*
D03*
X320965Y443898D02*
D03*
X324705D02*
D03*
X328445D02*
D03*
D16*
X344488Y383661D02*
D03*
Y388386D02*
D03*
D17*
X323031Y366437D02*
D03*
D18*
X315453Y360925D02*
D03*
Y362500D02*
D03*
Y364075D02*
D03*
Y365650D02*
D03*
Y367224D02*
D03*
Y368799D02*
D03*
Y370374D02*
D03*
Y371949D02*
D03*
X330610D02*
D03*
Y370374D02*
D03*
Y368799D02*
D03*
Y367224D02*
D03*
Y365650D02*
D03*
Y364075D02*
D03*
Y362500D02*
D03*
Y360925D02*
D03*
D19*
X317520Y374016D02*
D03*
X319094D02*
D03*
X320669D02*
D03*
X322244D02*
D03*
X323819D02*
D03*
X325394D02*
D03*
X326969D02*
D03*
X328543D02*
D03*
Y358858D02*
D03*
X326969D02*
D03*
X325394D02*
D03*
X323819D02*
D03*
X322244D02*
D03*
X320669D02*
D03*
X319094D02*
D03*
X317520D02*
D03*
D20*
X282579Y385138D02*
D03*
X290846Y388878D02*
D03*
Y381398D02*
D03*
D21*
X345453Y433858D02*
D03*
X360453D02*
D03*
X345453Y428858D02*
D03*
X360453D02*
D03*
X345453Y423858D02*
D03*
X360453D02*
D03*
X345453Y418858D02*
D03*
X360453D02*
D03*
X345453Y413858D02*
D03*
X360453D02*
D03*
X345453Y408858D02*
D03*
X360453D02*
D03*
X285512Y433858D02*
D03*
X300512D02*
D03*
X285512Y428858D02*
D03*
X300512D02*
D03*
X285512Y423858D02*
D03*
X300512D02*
D03*
X285512Y418858D02*
D03*
X300512D02*
D03*
X285512Y413858D02*
D03*
X300512D02*
D03*
X285512Y408858D02*
D03*
X300512D02*
D03*
D22*
X326969Y429528D02*
D03*
X322244D02*
D03*
D23*
X323721Y421161D02*
D03*
Y416437D02*
D03*
D24*
X323031Y398917D02*
D03*
D25*
X321152Y389522D02*
D03*
X319900Y390774D02*
D03*
X318647Y392027D02*
D03*
X317394Y393280D02*
D03*
X316141Y394533D02*
D03*
X314889Y395785D02*
D03*
X313636Y397038D02*
D03*
X324911Y408313D02*
D03*
X326163Y407060D02*
D03*
X327416Y405807D02*
D03*
X328669Y404555D02*
D03*
X329922Y403302D02*
D03*
X331174Y402049D02*
D03*
X332427Y400796D02*
D03*
D26*
X313636D02*
D03*
X314889Y402049D02*
D03*
X316141Y403302D02*
D03*
X317394Y404555D02*
D03*
X318647Y405807D02*
D03*
X319900Y407060D02*
D03*
X321152Y408313D02*
D03*
X332427Y397038D02*
D03*
X331174Y395785D02*
D03*
X329922Y394533D02*
D03*
X328669Y393280D02*
D03*
X327416Y392027D02*
D03*
X326163Y390774D02*
D03*
X324911Y389522D02*
D03*
D27*
X337500Y391634D02*
D03*
D28*
X310039Y433398D02*
D03*
Y429398D02*
D03*
D54*
X328681Y450000D02*
Y458209D01*
Y448484D02*
Y450000D01*
X319429Y458957D02*
X319724D01*
X328681Y450000D01*
X328248Y448051D02*
X328681Y448484D01*
Y458209D02*
X329429Y458957D01*
X328346Y443996D02*
X328445Y443898D01*
X328346Y443996D02*
Y447953D01*
X328248Y448051D02*
X328346Y447953D01*
X323649Y450144D02*
X326234D01*
X328248Y448051D02*
Y448130D01*
X320965Y447459D02*
X323649Y450144D01*
X326234D02*
X328248Y448130D01*
X320965Y443898D02*
Y447459D01*
X319094Y374016D02*
Y379862D01*
D55*
X343465Y382638D02*
X344488Y383661D01*
X324626Y382638D02*
X343465D01*
X321831Y379842D02*
X324626Y382638D01*
X344488Y383661D02*
X348228Y383465D01*
X319094Y379862D02*
Y380512D01*
Y379862D02*
X319114Y379842D01*
X321831D01*
X321850Y379823D01*
D56*
X323008Y398894D02*
X325823Y396079D01*
X317363Y404539D02*
X317371Y404531D01*
D57*
X353031Y353917D02*
D03*
X293032D02*
D03*
Y443917D02*
D03*
X353031D02*
D03*
D58*
X373031Y398917D02*
D03*
X273031Y378917D02*
D03*
Y408917D02*
D03*
X373031Y388917D02*
D03*
Y408917D02*
D03*
X273031Y418917D02*
D03*
X373031D02*
D03*
X273031Y398917D02*
D03*
Y388917D02*
D03*
X373031Y378917D02*
D03*
D59*
X309429Y458957D02*
D03*
X319429D02*
D03*
X329429D02*
D03*
D60*
X339429D02*
D03*
D61*
X310531Y436614D02*
D03*
X296161Y381693D02*
D03*
X316929Y376870D02*
D03*
X330315Y384842D02*
D03*
X360630Y437402D02*
D03*
X393237Y447268D02*
D03*
X281693Y324213D02*
D03*
X309646Y409842D02*
D03*
X295457Y373074D02*
D03*
X295571Y376378D02*
D03*
X329826Y423972D02*
D03*
X329823Y426181D02*
D03*
X354035Y410138D02*
D03*
X314272Y412500D02*
D03*
X320472Y415846D02*
D03*
X340846Y388386D02*
D03*
X348228Y383465D02*
D03*
X313287Y383366D02*
D03*
X304429Y373524D02*
D03*
X304528Y376378D02*
D03*
X295965Y366929D02*
D03*
Y370079D02*
D03*
X354260Y413934D02*
D03*
X351672Y408697D02*
D03*
X351644Y433803D02*
D03*
X351613Y423778D02*
D03*
X354232Y422244D02*
D03*
X330709Y414665D02*
D03*
X306988Y414370D02*
D03*
X320079Y425886D02*
D03*
X319193Y429528D02*
D03*
X338287Y386713D02*
D03*
X333661Y390354D02*
D03*
X309500Y375005D02*
D03*
X327551Y412098D02*
D03*
X307185Y410728D02*
D03*
X324606Y440945D02*
D03*
X309744Y422736D02*
D03*
X307382Y394587D02*
D03*
X313878Y389272D02*
D03*
X328113Y386319D02*
D03*
X359646Y371555D02*
D03*
X356545D02*
D03*
X353445D02*
D03*
X362992Y326575D02*
D03*
X378642Y334252D02*
D03*
X333563Y357579D02*
D03*
X311319Y367717D02*
D03*
X311516Y370472D02*
D03*
X352102Y418799D02*
D03*
X381496Y459842D02*
D03*
X294882Y478346D02*
D03*
X311910Y482480D02*
D03*
X367126Y470571D02*
D03*
X278937D02*
D03*
X351181Y477953D02*
D03*
X264665Y459842D02*
D03*
X299114Y479724D02*
D03*
X240059Y414075D02*
D03*
X282874Y472835D02*
D03*
X238681Y396555D02*
D03*
X268307Y462795D02*
D03*
X240846Y379626D02*
D03*
X255906Y450098D02*
D03*
X246949Y362500D02*
D03*
X238583Y401083D02*
D03*
X239961Y384055D02*
D03*
X299016Y318209D02*
D03*
X245276Y367028D02*
D03*
X316339Y314862D02*
D03*
X253051Y351378D02*
D03*
X334055Y315354D02*
D03*
X294587Y319587D02*
D03*
X381004Y337894D02*
D03*
X311811Y315059D02*
D03*
X392618Y351279D02*
D03*
X329626Y314961D02*
D03*
X400787Y366831D02*
D03*
X346654Y318012D02*
D03*
X405807Y383465D02*
D03*
X405217Y379724D02*
D03*
X390059Y347539D02*
D03*
X406962Y396689D02*
D03*
X399114Y434842D02*
D03*
X399311Y362303D02*
D03*
X390059Y450000D02*
D03*
X378051Y463091D02*
D03*
X362992Y473228D02*
D03*
X343575Y353088D02*
D03*
X343711Y356132D02*
D03*
X343779Y359227D02*
D03*
X291437Y408858D02*
D03*
X343799Y362205D02*
D03*
X343898Y368209D02*
D03*
Y365256D02*
D03*
X327854Y337992D02*
D03*
X324606Y339665D02*
D03*
X312402Y346752D02*
D03*
X321555Y341634D02*
D03*
X318504Y343307D02*
D03*
X315453Y344980D02*
D03*
X266339Y412992D02*
D03*
Y384941D02*
D03*
X266301Y394821D02*
D03*
X266339Y402953D02*
D03*
X379724Y412598D02*
D03*
X379823Y402658D02*
D03*
X379724Y394980D02*
D03*
Y384941D02*
D03*
X301354Y357382D02*
D03*
Y360433D02*
D03*
Y363609D02*
D03*
X307000Y418902D02*
D03*
X338000Y406902D02*
D03*
X339500Y404902D02*
D03*
X341000Y402902D02*
D03*
X342500Y400902D02*
D03*
X311500Y376402D02*
D03*
X309156Y406462D02*
D03*
X307442Y404610D02*
D03*
X304000Y400902D02*
D03*
X305724Y402734D02*
D03*
X291500Y433902D02*
D03*
Y428902D02*
D03*
Y423902D02*
D03*
Y418902D02*
D03*
Y413902D02*
D03*
D62*
X398524Y323721D02*
D03*
X247539Y323524D02*
D03*
X247441Y474508D02*
D03*
X398425Y474213D02*
D03*
D63*
X367913Y350295D02*
D03*
X266339Y433268D02*
D03*
X277953Y446850D02*
D03*
X295472Y457087D02*
D03*
X350098Y457776D02*
D03*
X370472Y440354D02*
D03*
X381594Y423917D02*
D03*
X379429Y365158D02*
D03*
X342323Y336713D02*
D03*
X322933Y333661D02*
D03*
X301870Y336417D02*
D03*
X303839Y351378D02*
D03*
X261417Y369882D02*
D03*
X257382Y410433D02*
D03*
X257480Y388583D02*
D03*
X270472Y357776D02*
D03*
X285236Y357283D02*
D03*
D64*
X337500Y391634D02*
D03*
D65*
X325197Y368602D02*
D03*
Y364272D02*
D03*
X320866Y368602D02*
D03*
Y364272D02*
D03*
D66*
X323031Y402258D02*
D03*
X326372Y398917D02*
D03*
X319691D02*
D03*
X323031Y395577D02*
D03*
M02*
