G04*
G04 #@! TF.GenerationSoftware,Altium Limited,Altium Designer,20.0.9 (164)*
G04*
G04 Layer_Physical_Order=1*
G04 Layer_Color=255*
%FSLAX25Y25*%
%MOIN*%
G70*
G01*
G75*
%ADD12C,0.00787*%
G04:AMPARAMS|DCode=13|XSize=20.47mil|YSize=22.05mil|CornerRadius=5.12mil|HoleSize=0mil|Usage=FLASHONLY|Rotation=0.000|XOffset=0mil|YOffset=0mil|HoleType=Round|Shape=RoundedRectangle|*
%AMROUNDEDRECTD13*
21,1,0.02047,0.01181,0,0,0.0*
21,1,0.01024,0.02205,0,0,0.0*
1,1,0.01024,0.00512,-0.00591*
1,1,0.01024,-0.00512,-0.00591*
1,1,0.01024,-0.00512,0.00591*
1,1,0.01024,0.00512,0.00591*
%
%ADD13ROUNDEDRECTD13*%
G04:AMPARAMS|DCode=14|XSize=20.47mil|YSize=22.05mil|CornerRadius=5.12mil|HoleSize=0mil|Usage=FLASHONLY|Rotation=270.000|XOffset=0mil|YOffset=0mil|HoleType=Round|Shape=RoundedRectangle|*
%AMROUNDEDRECTD14*
21,1,0.02047,0.01181,0,0,270.0*
21,1,0.01024,0.02205,0,0,270.0*
1,1,0.01024,-0.00591,-0.00512*
1,1,0.01024,-0.00591,0.00512*
1,1,0.01024,0.00591,0.00512*
1,1,0.01024,0.00591,-0.00512*
%
%ADD14ROUNDEDRECTD14*%
%ADD15R,0.03150X0.02165*%
%ADD16R,0.03543X0.02835*%
%ADD17R,0.11024X0.11024*%
%ADD18R,0.02520X0.00866*%
%ADD19R,0.00866X0.02520*%
%ADD20R,0.02756X0.02165*%
%ADD21R,0.09449X0.02992*%
%ADD22R,0.03347X0.02756*%
%ADD23P,0.13919X4X180.0*%
G04:AMPARAMS|DCode=24|XSize=7.87mil|YSize=29.53mil|CornerRadius=0mil|HoleSize=0mil|Usage=FLASHONLY|Rotation=135.000|XOffset=0mil|YOffset=0mil|HoleType=Round|Shape=Round|*
%AMOVALD24*
21,1,0.02165,0.00787,0.00000,0.00000,225.0*
1,1,0.00787,0.00766,0.00766*
1,1,0.00787,-0.00766,-0.00766*
%
%ADD24OVALD24*%

G04:AMPARAMS|DCode=25|XSize=7.87mil|YSize=29.53mil|CornerRadius=0mil|HoleSize=0mil|Usage=FLASHONLY|Rotation=225.000|XOffset=0mil|YOffset=0mil|HoleType=Round|Shape=Round|*
%AMOVALD25*
21,1,0.02165,0.00787,0.00000,0.00000,315.0*
1,1,0.00787,-0.00766,0.00766*
1,1,0.00787,0.00766,-0.00766*
%
%ADD25OVALD25*%

%ADD26C,0.03937*%
%ADD27R,0.02500X0.02500*%
%ADD52C,0.01968*%
%ADD53C,0.01181*%
%ADD54C,0.01575*%
%ADD55C,0.00400*%
%ADD56C,0.05906*%
%ADD57R,0.05906X0.05906*%
%ADD58C,0.09449*%
%ADD59C,0.08661*%
%ADD60C,0.02362*%
%ADD61C,0.01772*%
%ADD62C,0.23622*%
%ADD63C,0.02756*%
%ADD64C,0.01968*%
%ADD65C,0.02598*%
G36*
X336614Y487795D02*
X353642Y483071D01*
X370669Y474606D01*
X385138Y462894D01*
X397539Y448819D01*
X406398Y431890D01*
X411221Y415059D01*
X412894Y396358D01*
X410532Y378051D01*
X404134Y361122D01*
X393996Y344094D01*
X381398Y331102D01*
X365354Y319882D01*
X348327Y312894D01*
X329232Y309252D01*
X310827Y310236D01*
X292028Y315059D01*
X274410Y323228D01*
X259055Y335531D01*
X247638Y349213D01*
X240059Y365846D01*
X234744Y383760D01*
X233661Y403150D01*
X236516Y422047D01*
X242421Y438583D01*
X252756Y455217D01*
X266929Y468898D01*
X282283Y478346D01*
X299803Y484842D01*
X322539Y488681D01*
X336614Y487795D01*
D02*
G37*
%LPC*%
G36*
X311910Y483893D02*
X311369Y483786D01*
X310910Y483479D01*
X310604Y483021D01*
X310496Y482480D01*
X310604Y481940D01*
X310910Y481481D01*
X311369Y481175D01*
X311910Y481067D01*
X312450Y481175D01*
X312909Y481481D01*
X313215Y481940D01*
X313322Y482480D01*
X313215Y483021D01*
X312909Y483479D01*
X312450Y483786D01*
X311910Y483893D01*
D02*
G37*
G36*
X299114Y481137D02*
X298573Y481030D01*
X298115Y480723D01*
X297809Y480265D01*
X297701Y479724D01*
X297809Y479184D01*
X298115Y478725D01*
X298573Y478419D01*
X299114Y478311D01*
X299655Y478419D01*
X300113Y478725D01*
X300420Y479184D01*
X300527Y479724D01*
X300420Y480265D01*
X300113Y480723D01*
X299655Y481030D01*
X299114Y481137D01*
D02*
G37*
G36*
X294882Y479759D02*
X294341Y479652D01*
X293883Y479346D01*
X293577Y478887D01*
X293469Y478346D01*
X293577Y477806D01*
X293883Y477347D01*
X294341Y477041D01*
X294882Y476933D01*
X295423Y477041D01*
X295881Y477347D01*
X296187Y477806D01*
X296295Y478346D01*
X296187Y478887D01*
X295881Y479346D01*
X295423Y479652D01*
X294882Y479759D01*
D02*
G37*
G36*
X351181Y479366D02*
X350640Y479258D01*
X350182Y478952D01*
X349876Y478493D01*
X349768Y477953D01*
X349876Y477412D01*
X350182Y476954D01*
X350640Y476647D01*
X351181Y476540D01*
X351722Y476647D01*
X352180Y476954D01*
X352486Y477412D01*
X352594Y477953D01*
X352486Y478493D01*
X352180Y478952D01*
X351722Y479258D01*
X351181Y479366D01*
D02*
G37*
G36*
X362992Y474641D02*
X362451Y474534D01*
X361993Y474228D01*
X361687Y473769D01*
X361579Y473228D01*
X361687Y472688D01*
X361993Y472229D01*
X362451Y471923D01*
X362992Y471815D01*
X363533Y471923D01*
X363991Y472229D01*
X364298Y472688D01*
X364405Y473228D01*
X364298Y473769D01*
X363991Y474228D01*
X363533Y474534D01*
X362992Y474641D01*
D02*
G37*
G36*
X282874Y474248D02*
X282333Y474140D01*
X281875Y473834D01*
X281569Y473375D01*
X281461Y472835D01*
X281569Y472294D01*
X281875Y471836D01*
X282333Y471529D01*
X282874Y471422D01*
X283415Y471529D01*
X283873Y471836D01*
X284179Y472294D01*
X284287Y472835D01*
X284179Y473375D01*
X283873Y473834D01*
X283415Y474140D01*
X282874Y474248D01*
D02*
G37*
G36*
X367126Y471984D02*
X366585Y471876D01*
X366127Y471570D01*
X365821Y471112D01*
X365713Y470571D01*
X365821Y470030D01*
X366127Y469572D01*
X366585Y469265D01*
X367126Y469158D01*
X367667Y469265D01*
X368125Y469572D01*
X368431Y470030D01*
X368539Y470571D01*
X368431Y471112D01*
X368125Y471570D01*
X367667Y471876D01*
X367126Y471984D01*
D02*
G37*
G36*
X278937D02*
X278396Y471876D01*
X277938Y471570D01*
X277632Y471112D01*
X277524Y470571D01*
X277632Y470030D01*
X277938Y469572D01*
X278396Y469265D01*
X278937Y469158D01*
X279478Y469265D01*
X279936Y469572D01*
X280242Y470030D01*
X280350Y470571D01*
X280242Y471112D01*
X279936Y471570D01*
X279478Y471876D01*
X278937Y471984D01*
D02*
G37*
G36*
X324705Y467462D02*
X324049Y467332D01*
X323493Y466960D01*
X323121Y466404D01*
X322991Y465748D01*
X323121Y465092D01*
X323493Y464536D01*
X324049Y464164D01*
X324705Y464034D01*
X325361Y464164D01*
X325917Y464536D01*
X326288Y465092D01*
X326419Y465748D01*
X326288Y466404D01*
X325917Y466960D01*
X325361Y467332D01*
X324705Y467462D01*
D02*
G37*
G36*
X378051Y464503D02*
X377510Y464396D01*
X377052Y464090D01*
X376746Y463631D01*
X376638Y463091D01*
X376746Y462550D01*
X377052Y462091D01*
X377510Y461785D01*
X378051Y461678D01*
X378592Y461785D01*
X379050Y462091D01*
X379357Y462550D01*
X379464Y463091D01*
X379357Y463631D01*
X379050Y464090D01*
X378592Y464396D01*
X378051Y464503D01*
D02*
G37*
G36*
X268307Y464208D02*
X267766Y464101D01*
X267308Y463794D01*
X267002Y463336D01*
X266894Y462795D01*
X267002Y462255D01*
X267308Y461796D01*
X267766Y461490D01*
X268307Y461382D01*
X268848Y461490D01*
X269306Y461796D01*
X269613Y462255D01*
X269720Y462795D01*
X269613Y463336D01*
X269306Y463794D01*
X268848Y464101D01*
X268307Y464208D01*
D02*
G37*
G36*
X343176Y462014D02*
X340023D01*
Y458861D01*
X343176D01*
Y462014D01*
D02*
G37*
G36*
X310023Y462017D02*
Y458861D01*
X313178D01*
X313089Y459537D01*
X312751Y460352D01*
X312214Y461053D01*
X311514Y461590D01*
X310698Y461928D01*
X310023Y462017D01*
D02*
G37*
G36*
X339623Y462014D02*
X336470D01*
Y458861D01*
X339623D01*
Y462014D01*
D02*
G37*
G36*
X309623Y462017D02*
X308948Y461928D01*
X308132Y461590D01*
X307432Y461053D01*
X306894Y460352D01*
X306556Y459537D01*
X306468Y458861D01*
X309623D01*
Y462017D01*
D02*
G37*
G36*
X381496Y461256D02*
X380955Y461148D01*
X380497Y460842D01*
X380191Y460383D01*
X380083Y459842D01*
X380191Y459302D01*
X380497Y458843D01*
X380955Y458537D01*
X381496Y458429D01*
X382037Y458537D01*
X382495Y458843D01*
X382802Y459302D01*
X382909Y459842D01*
X382802Y460383D01*
X382495Y460842D01*
X382037Y461148D01*
X381496Y461256D01*
D02*
G37*
G36*
X264665D02*
X264125Y461148D01*
X263666Y460842D01*
X263360Y460383D01*
X263252Y459842D01*
X263360Y459302D01*
X263666Y458843D01*
X264125Y458537D01*
X264665Y458429D01*
X265206Y458537D01*
X265665Y458843D01*
X265971Y459302D01*
X266078Y459842D01*
X265971Y460383D01*
X265665Y460842D01*
X265206Y461148D01*
X264665Y461256D01*
D02*
G37*
G36*
X343176Y458462D02*
X340023D01*
Y455309D01*
X343176D01*
Y458462D01*
D02*
G37*
G36*
X339623D02*
X336470D01*
Y455309D01*
X339623D01*
Y458462D01*
D02*
G37*
G36*
X313178D02*
X310023D01*
Y455306D01*
X310698Y455395D01*
X311514Y455733D01*
X312214Y456270D01*
X312751Y456971D01*
X313089Y457786D01*
X313178Y458462D01*
D02*
G37*
G36*
X309623D02*
X306468D01*
X306556Y457786D01*
X306894Y456971D01*
X307432Y456270D01*
X308132Y455733D01*
X308948Y455395D01*
X309623Y455306D01*
Y458462D01*
D02*
G37*
G36*
X329823Y462043D02*
X328948Y461928D01*
X328132Y461590D01*
X327432Y461053D01*
X326894Y460352D01*
X326556Y459537D01*
X326441Y458661D01*
X326556Y457786D01*
X326894Y456971D01*
X327432Y456270D01*
X328132Y455733D01*
X328392Y455625D01*
Y450395D01*
X328093Y450271D01*
X327392Y449734D01*
X326855Y449033D01*
X326739Y448754D01*
X322828D01*
X322712Y449033D01*
X322175Y449734D01*
X321474Y450271D01*
X321215Y450379D01*
Y455609D01*
X321514Y455733D01*
X322214Y456270D01*
X322751Y456971D01*
X323089Y457786D01*
X323204Y458661D01*
X323089Y459537D01*
X322751Y460352D01*
X322214Y461053D01*
X321514Y461590D01*
X320698Y461928D01*
X319823Y462043D01*
X318948Y461928D01*
X318132Y461590D01*
X317432Y461053D01*
X316894Y460352D01*
X316556Y459537D01*
X316441Y458661D01*
X316556Y457786D01*
X316894Y456971D01*
X317432Y456270D01*
X318132Y455733D01*
X318392Y455625D01*
Y450395D01*
X318093Y450271D01*
X317392Y449734D01*
X316855Y449033D01*
X316517Y448218D01*
X316402Y447342D01*
X316517Y446467D01*
X316667Y446104D01*
X315774Y445211D01*
X315468Y444753D01*
X315360Y444213D01*
Y440899D01*
X315330Y440748D01*
Y439567D01*
X315401Y439211D01*
X315602Y438910D01*
X315693Y438849D01*
Y436424D01*
X314659D01*
Y434887D01*
X313568Y433795D01*
X313090Y433611D01*
X312116Y433720D01*
X311887Y433949D01*
X311689Y435048D01*
X311854Y436161D01*
X311945Y436614D01*
X311837Y437155D01*
X311531Y437613D01*
X311072Y437920D01*
X310531Y438027D01*
X309991Y437920D01*
X309532Y437613D01*
X309226Y437155D01*
X309119Y436614D01*
X309195Y436229D01*
X309065Y435848D01*
X308491Y435048D01*
X308389D01*
Y434667D01*
X305636D01*
Y435754D01*
X295387D01*
Y431962D01*
X305636D01*
Y432128D01*
X305964Y432238D01*
X306533Y431945D01*
X306977Y431333D01*
X306659Y430563D01*
X305636Y430754D01*
Y430754D01*
X295387D01*
Y426962D01*
X305636D01*
Y428592D01*
X308389D01*
Y427748D01*
X309230D01*
Y424958D01*
X309230Y424958D01*
X309207Y424151D01*
X308745Y423735D01*
X308740Y423728D01*
X308608Y423608D01*
X306619D01*
X306619Y423608D01*
X305636Y424262D01*
Y425754D01*
X295387D01*
Y421962D01*
X301536D01*
X301614Y421947D01*
X301614Y421947D01*
X305483D01*
X305618Y421367D01*
X305247Y420754D01*
X295387D01*
Y416962D01*
X305636D01*
X305636Y416962D01*
X306817Y417525D01*
X307000Y417489D01*
X307541Y417596D01*
X307999Y417903D01*
X308280Y418323D01*
X308312Y418363D01*
X309564Y418710D01*
X313386Y414887D01*
X313412Y414805D01*
X313273Y413499D01*
X312966Y413041D01*
X312859Y412500D01*
X312865Y412467D01*
X312698Y412100D01*
X312141Y411464D01*
X312050Y411410D01*
Y409842D01*
X311850D01*
Y409643D01*
X310409D01*
Y409252D01*
X310480Y408896D01*
X310622Y408683D01*
X310599Y408584D01*
X309696Y407767D01*
X309156Y407875D01*
X308615Y407767D01*
X308156Y407461D01*
X307850Y407003D01*
X307442Y406023D01*
X306902Y405916D01*
X306443Y405609D01*
X306137Y405151D01*
X306029Y404610D01*
X305724Y404147D01*
X305183Y404039D01*
X305183D01*
X304724Y403733D01*
X304418Y403274D01*
X304000Y402315D01*
X303459Y402207D01*
X303001Y401901D01*
X302993Y401889D01*
X301761Y401629D01*
X301537Y401674D01*
X297340Y405871D01*
X297792Y406962D01*
X305636D01*
Y408183D01*
X306151Y409151D01*
X306461Y409213D01*
X306723Y409388D01*
X306739Y409404D01*
X307185Y409315D01*
X307726Y409423D01*
X308184Y409729D01*
X308490Y410188D01*
X308598Y410728D01*
X308490Y411269D01*
X308184Y411728D01*
X307838Y411959D01*
X307750Y412275D01*
X307740Y412381D01*
X307774Y413228D01*
X307987Y413371D01*
X308294Y413829D01*
X308401Y414370D01*
X308294Y414911D01*
X307987Y415369D01*
X307529Y415675D01*
X306988Y415783D01*
X306817Y415749D01*
X305636Y415754D01*
X305636Y415754D01*
X295387D01*
Y415484D01*
X295048Y414398D01*
X294738Y414337D01*
X294476Y414161D01*
X294476Y414161D01*
X294014Y413700D01*
X293839Y413437D01*
X293777Y413128D01*
X293777Y413128D01*
Y407480D01*
X293777Y407480D01*
X293839Y407171D01*
X294014Y406908D01*
X294341Y406581D01*
X294422Y406461D01*
X294886Y405996D01*
X294886Y405996D01*
X295006Y405916D01*
X306030Y394893D01*
X305969Y394587D01*
X306077Y394046D01*
X306383Y393587D01*
X306841Y393281D01*
X307014Y393247D01*
X307462Y392237D01*
X307479Y392042D01*
X306428Y390990D01*
X306252Y390728D01*
X306191Y390418D01*
X306191Y390418D01*
Y378347D01*
X305082Y377691D01*
X305010Y377695D01*
X304528Y377791D01*
X303987Y377683D01*
X302902Y377626D01*
X302600Y377827D01*
X302244Y377898D01*
X301220D01*
X300865Y377827D01*
X300692Y377712D01*
X300458Y377626D01*
X300170D01*
X299077Y378614D01*
Y387795D01*
X299077Y387795D01*
X299015Y388105D01*
X298840Y388368D01*
X298840Y388368D01*
X297895Y389312D01*
X297633Y389488D01*
X297323Y389549D01*
X296528Y389608D01*
X296327Y389909D01*
X296025Y390111D01*
X295669Y390182D01*
X294488D01*
X294132Y390111D01*
X293831Y389909D01*
X293806Y389872D01*
X292624Y390124D01*
Y390361D01*
X289069D01*
Y387395D01*
X292624D01*
Y387395D01*
X292650Y387400D01*
X293632Y386693D01*
X293777Y386403D01*
X293745Y386316D01*
X293629Y386143D01*
X293559Y385787D01*
Y384764D01*
X293629Y384408D01*
X293831Y384106D01*
X293881Y384073D01*
X293893Y383895D01*
X292777Y382859D01*
X292624Y382880D01*
Y382880D01*
X289069D01*
Y379915D01*
X292624D01*
Y380736D01*
X295134D01*
X295162Y380694D01*
X295621Y380387D01*
X296161Y380280D01*
X296277Y380303D01*
X297278Y379691D01*
X297459Y379472D01*
Y378521D01*
X296457Y377663D01*
X296112Y377683D01*
X295571Y377791D01*
X295030Y377683D01*
X294572Y377377D01*
X294266Y376919D01*
X294158Y376378D01*
X294266Y375837D01*
X294534Y375436D01*
X294568Y375340D01*
X294460Y374074D01*
X294458Y374073D01*
X294152Y373614D01*
X294044Y373074D01*
X294152Y372533D01*
X294458Y372074D01*
X294917Y371768D01*
X295457Y371660D01*
X295969Y371762D01*
X296213Y371591D01*
X296649Y371230D01*
X296879Y370936D01*
X296826Y370669D01*
Y370279D01*
X298268D01*
Y369879D01*
X296826D01*
Y369488D01*
X296897Y369132D01*
X296944Y368504D01*
X296897Y367876D01*
X296826Y367520D01*
Y367129D01*
X298268D01*
Y366929D01*
X298468D01*
Y365409D01*
X298780D01*
X299135Y365480D01*
X299888Y364944D01*
X300167Y364328D01*
X300048Y364149D01*
X299941Y363609D01*
X300048Y363068D01*
X300266Y362742D01*
X300355Y362579D01*
Y361462D01*
X300266Y361299D01*
X300048Y360974D01*
X299941Y360433D01*
X300048Y359892D01*
X300192Y359676D01*
X300355Y359418D01*
Y358397D01*
X300192Y358138D01*
X300048Y357923D01*
X299941Y357382D01*
X300048Y356841D01*
X300355Y356383D01*
X300813Y356077D01*
X301354Y355969D01*
X301894Y356077D01*
X302353Y356383D01*
X302480Y356573D01*
X304350D01*
X304377Y356435D01*
X304579Y356134D01*
X304880Y355932D01*
X305236Y355862D01*
X306260D01*
X306616Y355932D01*
X306788Y356048D01*
X307022Y356134D01*
X307938Y356134D01*
X308172Y356048D01*
X308345Y355932D01*
X308701Y355862D01*
X309724D01*
X310080Y355932D01*
X310382Y356134D01*
X310583Y356435D01*
X310654Y356791D01*
Y357406D01*
X310742Y357465D01*
X313357Y360081D01*
X315421D01*
X315480Y360092D01*
X316687D01*
Y358343D01*
X314993Y356649D01*
X313714D01*
X313404Y356587D01*
X313141Y356412D01*
X312082Y355352D01*
X311906Y355089D01*
X311844Y354780D01*
X311455Y354481D01*
X311154Y354279D01*
X310952Y353978D01*
X310881Y353622D01*
Y352598D01*
X310952Y352243D01*
X311068Y352070D01*
X311154Y351836D01*
X311154Y350920D01*
X311068Y350686D01*
X310952Y350513D01*
X310881Y350157D01*
Y349134D01*
X310952Y348778D01*
X311154Y348477D01*
X311096Y347293D01*
X310989Y346752D01*
X311096Y346211D01*
X311402Y345753D01*
X311861Y345446D01*
X312402Y345339D01*
X312942Y345446D01*
X313419Y345244D01*
X314076Y344799D01*
X314147Y344440D01*
X314454Y343981D01*
X314912Y343675D01*
X315453Y343567D01*
X315993Y343675D01*
X316297Y343573D01*
X317142Y343050D01*
X317198Y342766D01*
X317505Y342308D01*
X317963Y342002D01*
X318504Y341894D01*
X319045Y342002D01*
X319348Y341900D01*
X320193Y341377D01*
X320250Y341093D01*
X320556Y340635D01*
X321014Y340328D01*
X321555Y340221D01*
X322096Y340328D01*
X322125Y340348D01*
X323193Y339665D01*
X323301Y339125D01*
X323607Y338666D01*
X324066Y338360D01*
X324606Y338252D01*
X325147Y338360D01*
X325335Y338486D01*
X326258Y338074D01*
X326330Y338031D01*
X326455Y337922D01*
X326549Y337451D01*
X326855Y336993D01*
X327314Y336687D01*
X327854Y336579D01*
X328395Y336687D01*
X328854Y336993D01*
X329160Y337451D01*
X329267Y337992D01*
X329160Y338533D01*
X328854Y338991D01*
X328565Y339184D01*
Y348267D01*
X328604Y348275D01*
X328905Y348477D01*
X329107Y348778D01*
X329178Y349134D01*
Y350157D01*
X329107Y350513D01*
X328991Y350686D01*
X328905Y350920D01*
X328905Y351836D01*
X328991Y352070D01*
X329107Y352243D01*
X329178Y352598D01*
X330359Y353083D01*
X330963Y352479D01*
X330963Y352479D01*
X331225Y352304D01*
X331535Y352242D01*
X334960D01*
X334988Y352105D01*
X335189Y351803D01*
X335491Y351602D01*
X335846Y351531D01*
X336870D01*
X337226Y351602D01*
X337399Y351717D01*
X337632Y351803D01*
X338549D01*
X338782Y351717D01*
X338955Y351602D01*
X339311Y351531D01*
X340335D01*
X340690Y351602D01*
X340992Y351803D01*
X341194Y352105D01*
X341228Y352279D01*
X342449D01*
X342576Y352089D01*
X343035Y351783D01*
X343575Y351675D01*
X344116Y351783D01*
X344574Y352089D01*
X344881Y352547D01*
X344988Y353088D01*
X344881Y353629D01*
X344757Y353814D01*
X344611Y354106D01*
X344650Y354505D01*
X344783Y355241D01*
X345017Y355591D01*
X345124Y356132D01*
X345017Y356673D01*
X344855Y356915D01*
X344715Y357178D01*
X344718Y357228D01*
X344801Y358261D01*
X344907Y358420D01*
X345085Y358686D01*
X345190Y359214D01*
X345192Y359227D01*
X345192Y359227D01*
X345085Y359768D01*
X344861Y360727D01*
X345105Y361664D01*
X345212Y362205D01*
X345212Y362205D01*
X345209Y362219D01*
X345105Y362745D01*
X344949Y362979D01*
X344803Y363256D01*
X344897Y364257D01*
X345203Y364715D01*
X345311Y365256D01*
X345203Y365797D01*
X344897Y366255D01*
Y367210D01*
X345203Y367668D01*
X345311Y368209D01*
X345203Y368749D01*
X344897Y369208D01*
X344438Y369514D01*
X343898Y369622D01*
X343357Y369514D01*
X342899Y369208D01*
X342772Y369018D01*
X341221D01*
X341194Y369155D01*
X340992Y369457D01*
X340690Y369658D01*
X340335Y369729D01*
X340007D01*
X339819Y369972D01*
X339484Y370910D01*
X339674Y371195D01*
X339805Y371850D01*
X339770Y372025D01*
X340424Y373058D01*
X340627Y373206D01*
X343661D01*
X362183Y354684D01*
Y327701D01*
X361993Y327574D01*
X361687Y327116D01*
X361579Y326575D01*
X361687Y326034D01*
X361727Y325974D01*
X361502Y324795D01*
X361363Y324576D01*
X347250Y319280D01*
X347194Y319317D01*
X346654Y319425D01*
X346113Y319317D01*
X345654Y319011D01*
X345348Y318552D01*
X345241Y318012D01*
X345348Y317471D01*
X345654Y317013D01*
X346113Y316706D01*
X346654Y316599D01*
X347194Y316706D01*
X347653Y317013D01*
X347959Y317471D01*
X348033Y317845D01*
X363404Y323613D01*
X363472Y323655D01*
X363984Y323867D01*
X364772Y324472D01*
X365376Y325259D01*
X365703Y326048D01*
X365756Y326176D01*
X365885Y327160D01*
X365885D01*
X365868Y327166D01*
Y356398D01*
X365868Y356398D01*
X365807Y356707D01*
X365631Y356970D01*
X353603Y368998D01*
X353986Y370249D01*
X354007Y370264D01*
X354299Y370459D01*
X354463Y370556D01*
X355527D01*
X355692Y370459D01*
X356005Y370250D01*
X356545Y370142D01*
X357086Y370250D01*
X357399Y370459D01*
X357564Y370556D01*
X358627D01*
X358792Y370459D01*
X359105Y370250D01*
X359646Y370142D01*
X360186Y370250D01*
X360645Y370556D01*
X360739Y370698D01*
X361825Y370976D01*
X362145Y370963D01*
X377833Y355275D01*
Y335378D01*
X377643Y335251D01*
X377336Y334793D01*
X377229Y334252D01*
X377336Y333711D01*
X377643Y333253D01*
X378101Y332946D01*
X378642Y332839D01*
X379183Y332946D01*
X379641Y333253D01*
X379947Y333711D01*
X380055Y334252D01*
X379947Y334793D01*
X379641Y335251D01*
X380131Y336344D01*
X380163Y336368D01*
X380632Y336555D01*
X381004Y336481D01*
X381545Y336588D01*
X382003Y336895D01*
X382309Y337353D01*
X382417Y337894D01*
X382309Y338434D01*
X382003Y338893D01*
X381545Y339199D01*
X381004Y339307D01*
X380632Y339233D01*
X380163Y339420D01*
X379451Y339943D01*
Y355610D01*
X379451Y355610D01*
X379389Y355920D01*
X379214Y356183D01*
X354005Y381391D01*
X353743Y381567D01*
X353433Y381628D01*
X353433Y381628D01*
X349980D01*
X349904Y381713D01*
X349457Y382809D01*
X349534Y382924D01*
X349641Y383465D01*
X349534Y384005D01*
X349227Y384464D01*
X348769Y384770D01*
X348228Y384877D01*
X347841Y384801D01*
X347148Y385033D01*
X346660Y385270D01*
X346660Y385479D01*
Y386568D01*
X346660Y386660D01*
Y388186D01*
X344488D01*
X342317D01*
Y386660D01*
X342317Y386568D01*
Y385479D01*
X342317Y385387D01*
Y383849D01*
X333792D01*
X332973Y384665D01*
X332874Y385030D01*
X332994Y385205D01*
X333289Y385263D01*
X333462Y385379D01*
X333695Y385465D01*
X334612D01*
X334845Y385379D01*
X335018Y385263D01*
X335374Y385192D01*
X335686D01*
Y386713D01*
Y388233D01*
X335374D01*
X335018Y388162D01*
X334845Y388047D01*
X334612Y387961D01*
X333695D01*
X333462Y388047D01*
X333289Y388162D01*
X332933Y388233D01*
X332356D01*
X331357Y389231D01*
X331356Y389232D01*
X329977Y390610D01*
X329937Y390809D01*
X330194Y391903D01*
X331138Y391988D01*
X331315Y391947D01*
X331578Y391772D01*
X331887Y391710D01*
X335022D01*
X335085Y391634D01*
X335269Y390710D01*
X335792Y389926D01*
X336576Y389403D01*
X337500Y389219D01*
X338424Y389403D01*
X339208Y389926D01*
X339731Y390710D01*
X339915Y391634D01*
X339731Y392558D01*
X339416Y393029D01*
X339813Y394061D01*
X339939Y394211D01*
X346988D01*
X346988Y394211D01*
X347298Y394272D01*
X347561Y394448D01*
X358809Y405696D01*
X358809Y405696D01*
X358984Y405959D01*
X359046Y406268D01*
Y406962D01*
X365577D01*
Y410754D01*
X359429D01*
X359350Y410770D01*
X359350Y410770D01*
X356525D01*
X356517Y410781D01*
X357130Y411962D01*
X365577D01*
Y415754D01*
X355475D01*
X355135Y416174D01*
X355091Y416270D01*
X355629Y416962D01*
X365577D01*
Y420754D01*
X357560D01*
X357001Y421387D01*
X356881Y421935D01*
X356909Y421962D01*
X365577D01*
Y425754D01*
X357224D01*
X356593Y426935D01*
X356611Y426962D01*
X365577D01*
Y430754D01*
X355328D01*
Y429827D01*
X355129Y428675D01*
X354820Y428613D01*
X354557Y428438D01*
X353077Y426957D01*
X351756D01*
X350577Y426962D01*
X350577Y428138D01*
Y428658D01*
X340328D01*
X340328Y427585D01*
X339435Y426957D01*
X339126Y426896D01*
X338863Y426720D01*
X337617Y425474D01*
X337441Y425211D01*
X337380Y424902D01*
X337380Y424901D01*
Y419437D01*
X333348Y415405D01*
X332328Y415993D01*
X332224Y416594D01*
X332355Y416790D01*
X332426Y417146D01*
Y418169D01*
X332355Y418525D01*
X332239Y418698D01*
X332153Y418932D01*
Y419848D01*
X332239Y420082D01*
X332355Y420255D01*
X332426Y420610D01*
Y421634D01*
X332355Y421990D01*
X332153Y422291D01*
X332211Y423377D01*
X332318Y423917D01*
X332211Y424458D01*
X331905Y424916D01*
X331446Y425223D01*
X330906Y425330D01*
X330365Y425223D01*
X330063Y425021D01*
X329868Y424930D01*
X328748Y425104D01*
X328622Y425477D01*
X328451Y426067D01*
X328451Y426495D01*
Y427400D01*
X329128Y428301D01*
X329446Y428301D01*
X331099D01*
Y429918D01*
X329128D01*
Y429844D01*
X328451Y428943D01*
X328133Y428943D01*
X324502D01*
X324502Y426473D01*
X323907Y425677D01*
X323484Y425470D01*
X323180Y425321D01*
X322721Y425015D01*
X322415Y424556D01*
X322307Y424016D01*
X321647Y422939D01*
X321647D01*
Y419396D01*
X321647Y419383D01*
Y418215D01*
X321647Y418202D01*
Y418138D01*
X321537Y417968D01*
X320472Y417259D01*
X319932Y417152D01*
X319473Y416846D01*
X319379Y416704D01*
X318293Y416425D01*
X317973Y416439D01*
X312333Y422079D01*
Y423473D01*
X312333Y423473D01*
X312271Y423783D01*
X312096Y424046D01*
X312096Y424046D01*
X310849Y425293D01*
Y427748D01*
X311689D01*
Y428040D01*
X312783Y428903D01*
X313338Y428822D01*
X313377Y428795D01*
X313409Y428765D01*
X314659Y427515D01*
Y425978D01*
X318609D01*
Y428537D01*
X318609Y428943D01*
X318609D01*
X318609Y429718D01*
X318609D01*
Y431001D01*
X316634D01*
Y431401D01*
X318609D01*
Y432683D01*
X318609D01*
X318609Y433458D01*
X318609D01*
X318609Y433864D01*
Y436424D01*
X317713D01*
Y438757D01*
X317812Y438824D01*
X317845Y438835D01*
X318709Y438910D01*
X318962D01*
X319196Y438824D01*
X319369Y438708D01*
X319724Y438637D01*
X320036D01*
Y440158D01*
Y441678D01*
X319724D01*
X319369Y441607D01*
X319364Y441604D01*
X318366Y441978D01*
X318183Y442127D01*
Y443143D01*
X318369Y443383D01*
X319194Y444038D01*
X319783Y443961D01*
X320659Y444076D01*
X321474Y444414D01*
X322175Y444951D01*
X322712Y445652D01*
X322828Y445931D01*
X326739D01*
X326855Y445652D01*
X327392Y444951D01*
X328093Y444414D01*
X328908Y444076D01*
X329784Y443961D01*
X330659Y444076D01*
X331474Y444414D01*
X332175Y444951D01*
X332712Y445652D01*
X333050Y446467D01*
X333165Y447342D01*
X333050Y448218D01*
X332712Y449033D01*
X332175Y449734D01*
X331474Y450271D01*
X331214Y450379D01*
Y455609D01*
X331514Y455733D01*
X332214Y456270D01*
X332751Y456971D01*
X333089Y457786D01*
X333205Y458661D01*
X333089Y459537D01*
X332751Y460352D01*
X332214Y461053D01*
X331514Y461590D01*
X330698Y461928D01*
X329823Y462043D01*
D02*
G37*
G36*
X255906Y451511D02*
X255365Y451404D01*
X254906Y451097D01*
X254600Y450639D01*
X254492Y450098D01*
X254600Y449558D01*
X254906Y449099D01*
X255365Y448793D01*
X255906Y448686D01*
X256446Y448793D01*
X256905Y449099D01*
X257211Y449558D01*
X257318Y450098D01*
X257211Y450639D01*
X256905Y451097D01*
X256446Y451404D01*
X255906Y451511D01*
D02*
G37*
G36*
X390059Y451413D02*
X389518Y451305D01*
X389060Y450999D01*
X388754Y450541D01*
X388646Y450000D01*
X388754Y449459D01*
X389060Y449001D01*
X389518Y448695D01*
X390059Y448587D01*
X390600Y448695D01*
X391058Y449001D01*
X391365Y449459D01*
X391472Y450000D01*
X391365Y450541D01*
X391058Y450999D01*
X390600Y451305D01*
X390059Y451413D01*
D02*
G37*
G36*
X343136Y450695D02*
X339984D01*
Y447542D01*
X343136D01*
Y450695D01*
D02*
G37*
G36*
X309983Y450698D02*
Y447542D01*
X313139D01*
X313050Y448218D01*
X312712Y449033D01*
X312175Y449734D01*
X311474Y450271D01*
X310659Y450609D01*
X309983Y450698D01*
D02*
G37*
G36*
X339583Y450695D02*
X336431D01*
Y447542D01*
X339583D01*
Y450695D01*
D02*
G37*
G36*
X309583Y450698D02*
X308908Y450609D01*
X308093Y450271D01*
X307392Y449734D01*
X306855Y449033D01*
X306517Y448218D01*
X306428Y447542D01*
X309583D01*
Y450698D01*
D02*
G37*
G36*
X393237Y448681D02*
X392697Y448573D01*
X392238Y448267D01*
X391932Y447809D01*
X391824Y447268D01*
X391932Y446727D01*
X392238Y446269D01*
X392697Y445963D01*
X393237Y445855D01*
X393778Y445963D01*
X394236Y446269D01*
X394543Y446727D01*
X394650Y447268D01*
X394543Y447809D01*
X394236Y448267D01*
X393778Y448573D01*
X393237Y448681D01*
D02*
G37*
G36*
X343136Y447143D02*
X339984D01*
Y443990D01*
X343136D01*
Y447143D01*
D02*
G37*
G36*
X339583D02*
X336431D01*
Y443990D01*
X339583D01*
Y447143D01*
D02*
G37*
G36*
X313139D02*
X309983D01*
Y443987D01*
X310659Y444076D01*
X311474Y444414D01*
X312175Y444951D01*
X312712Y445652D01*
X313050Y446467D01*
X313139Y447143D01*
D02*
G37*
G36*
X309583D02*
X306428D01*
X306517Y446467D01*
X306855Y445652D01*
X307392Y444951D01*
X308093Y444414D01*
X308908Y444076D01*
X309583Y443987D01*
Y447143D01*
D02*
G37*
G36*
X320748Y441678D02*
X320436D01*
Y440357D01*
X321678D01*
Y440748D01*
X321607Y441104D01*
X321405Y441405D01*
X321104Y441607D01*
X320748Y441678D01*
D02*
G37*
G36*
X353031Y449086D02*
X351694Y448910D01*
X350447Y448393D01*
X349377Y447572D01*
X348555Y446502D01*
X348039Y445255D01*
X347863Y443917D01*
X348039Y442580D01*
X348555Y441333D01*
X349377Y440263D01*
X350447Y439441D01*
X351694Y438925D01*
X353031Y438749D01*
X354369Y438925D01*
X355616Y439441D01*
X356686Y440263D01*
X357508Y441333D01*
X358024Y442580D01*
X358200Y443917D01*
X358024Y445255D01*
X357508Y446502D01*
X356686Y447572D01*
X355616Y448393D01*
X354369Y448910D01*
X353031Y449086D01*
D02*
G37*
G36*
X293032D02*
X291694Y448910D01*
X290447Y448393D01*
X289377Y447572D01*
X288555Y446502D01*
X288039Y445255D01*
X287863Y443917D01*
X288039Y442580D01*
X288555Y441333D01*
X289377Y440263D01*
X290447Y439441D01*
X291694Y438925D01*
X293032Y438749D01*
X294369Y438925D01*
X295616Y439441D01*
X296686Y440263D01*
X297508Y441333D01*
X298024Y442580D01*
X298200Y443917D01*
X298024Y445255D01*
X297508Y446502D01*
X296686Y447572D01*
X295616Y448393D01*
X294369Y448910D01*
X293032Y449086D01*
D02*
G37*
G36*
X321678Y439958D02*
X320436D01*
Y438637D01*
X320748D01*
X321104Y438708D01*
X321405Y438910D01*
X321607Y439211D01*
X321678Y439567D01*
Y439958D01*
D02*
G37*
G36*
X338484Y436944D02*
X337944Y436837D01*
X337485Y436531D01*
X337316Y436278D01*
X337056Y436104D01*
X337023Y436071D01*
X336485D01*
X336478Y436075D01*
X336122Y436146D01*
X334941D01*
X334652Y436089D01*
X334561Y436087D01*
X333518Y436598D01*
X333471Y436643D01*
Y436660D01*
X329534D01*
X329128Y436660D01*
Y436660D01*
X328451Y436424D01*
X328451Y436424D01*
X324502D01*
Y433458D01*
X328451D01*
X329128Y433025D01*
Y431935D01*
X329128Y431844D01*
Y430318D01*
X331299D01*
Y430118D01*
X331499D01*
Y428301D01*
X333471D01*
Y429302D01*
X333518Y429346D01*
X334561Y429858D01*
X334652Y429856D01*
X334941Y429799D01*
X335332D01*
Y431240D01*
X335531D01*
Y431440D01*
X337166D01*
X337484Y431735D01*
X337917Y432026D01*
X338184Y432111D01*
X338484Y432052D01*
X339025Y432159D01*
X339147Y432241D01*
X340328Y431962D01*
X340568Y431962D01*
X345253D01*
Y433858D01*
Y435754D01*
X340890D01*
X340071Y435991D01*
X339483Y436531D01*
X339025Y436837D01*
X338484Y436944D01*
D02*
G37*
G36*
X345653Y435754D02*
Y434058D01*
X350577D01*
Y435754D01*
X345653D01*
D02*
G37*
G36*
X290636D02*
X285712D01*
Y434058D01*
X290636D01*
Y435754D01*
D02*
G37*
G36*
X285312D02*
X280387D01*
Y434058D01*
X285312D01*
Y435754D01*
D02*
G37*
G36*
X399114Y436256D02*
X398573Y436148D01*
X398115Y435842D01*
X397809Y435383D01*
X397701Y434842D01*
X397809Y434302D01*
X398115Y433843D01*
X398573Y433537D01*
X399114Y433429D01*
X399655Y433537D01*
X400113Y433843D01*
X400420Y434302D01*
X400527Y434842D01*
X400420Y435383D01*
X400113Y435842D01*
X399655Y436148D01*
X399114Y436256D01*
D02*
G37*
G36*
X360630Y438814D02*
X360089Y438707D01*
X359631Y438401D01*
X359325Y437942D01*
X359217Y437402D01*
X359310Y436935D01*
X359308Y436835D01*
X358643Y435754D01*
X355328D01*
Y431962D01*
X365577D01*
Y435754D01*
X362616D01*
X361951Y436835D01*
X361950Y436935D01*
X362043Y437402D01*
X361935Y437942D01*
X361629Y438401D01*
X361171Y438707D01*
X360630Y438814D01*
D02*
G37*
G36*
X350577Y433658D02*
X345653D01*
Y431962D01*
X350577D01*
Y433658D01*
D02*
G37*
G36*
X290636D02*
X285712D01*
Y431962D01*
X290636D01*
Y433658D01*
D02*
G37*
G36*
X285312D02*
X280387D01*
Y431962D01*
X285312D01*
Y433658D01*
D02*
G37*
G36*
X337052Y431040D02*
X335732D01*
Y429799D01*
X336122D01*
X336478Y429869D01*
X336779Y430071D01*
X336981Y430373D01*
X337052Y430728D01*
Y431040D01*
D02*
G37*
G36*
X350577Y430754D02*
X345653D01*
Y429058D01*
X350577D01*
Y430754D01*
D02*
G37*
G36*
X345253D02*
X340328D01*
Y429058D01*
X345253D01*
Y430754D01*
D02*
G37*
G36*
X290636D02*
X285712D01*
Y429058D01*
X290636D01*
Y430754D01*
D02*
G37*
G36*
X285312D02*
X280387D01*
Y429058D01*
X285312D01*
Y430754D01*
D02*
G37*
G36*
X290636Y428658D02*
X285712D01*
Y426962D01*
X290636D01*
Y428658D01*
D02*
G37*
G36*
X285312D02*
X280387D01*
Y426962D01*
X285312D01*
Y428658D01*
D02*
G37*
G36*
X290636Y425754D02*
X285712D01*
Y424058D01*
X290636D01*
Y425754D01*
D02*
G37*
G36*
X285312D02*
X280387D01*
Y424058D01*
X285312D01*
Y425754D01*
D02*
G37*
G36*
X290636Y423658D02*
X285712D01*
Y421962D01*
X290636D01*
Y423658D01*
D02*
G37*
G36*
X285312D02*
X280387D01*
Y421962D01*
X285312D01*
Y423658D01*
D02*
G37*
G36*
X273031Y423689D02*
X271796Y423526D01*
X270646Y423050D01*
X269657Y422291D01*
X268899Y421303D01*
X268639Y420676D01*
X268338Y420519D01*
X267397Y420311D01*
X267266Y420331D01*
X266929Y420398D01*
X265748D01*
X265392Y420327D01*
X265091Y420126D01*
X264889Y419824D01*
X264818Y419468D01*
Y418445D01*
X264889Y418089D01*
X265005Y417916D01*
X265091Y417682D01*
X265091Y416766D01*
X265005Y416533D01*
X264889Y416360D01*
X264818Y416004D01*
Y415692D01*
X266338D01*
X267859D01*
Y416004D01*
X267853Y416035D01*
X268899Y416532D01*
X269657Y415543D01*
X270646Y414785D01*
X271197Y414557D01*
Y413278D01*
X270646Y413050D01*
X269657Y412291D01*
X268899Y411303D01*
X268629Y410652D01*
X268336Y410493D01*
X267410Y410276D01*
X267250Y410295D01*
X266929Y410359D01*
X265748D01*
X265392Y410288D01*
X265091Y410086D01*
X264889Y409785D01*
X264818Y409429D01*
Y408405D01*
X264889Y408050D01*
X265005Y407877D01*
X265091Y407643D01*
Y406727D01*
X265005Y406493D01*
X264889Y406320D01*
X264818Y405965D01*
Y405653D01*
X266339D01*
X267859D01*
Y405965D01*
X267843Y406045D01*
X268899Y406532D01*
X269657Y405543D01*
X270646Y404785D01*
X271197Y404557D01*
Y403278D01*
X270646Y403050D01*
X269657Y402291D01*
X268899Y401303D01*
X268423Y400152D01*
X268260Y398917D01*
X268423Y397682D01*
X268899Y396532D01*
X269657Y395543D01*
X270646Y394785D01*
X271197Y394556D01*
Y393278D01*
X270646Y393050D01*
X269657Y392291D01*
X268899Y391303D01*
X267843Y391790D01*
X267859Y391870D01*
Y392182D01*
X266339D01*
X264818D01*
Y391870D01*
X264889Y391514D01*
X265005Y391341D01*
X265091Y391108D01*
Y390192D01*
X265005Y389958D01*
X264889Y389785D01*
X264818Y389429D01*
Y388405D01*
X264889Y388050D01*
X265091Y387748D01*
X265392Y387547D01*
X265748Y387476D01*
X266929D01*
X267250Y387540D01*
X267410Y387559D01*
X268336Y387342D01*
X268629Y387183D01*
X268899Y386532D01*
X269657Y385543D01*
X270646Y384785D01*
X271197Y384557D01*
Y383278D01*
X270646Y383050D01*
X269657Y382291D01*
X268899Y381303D01*
X267828Y381775D01*
X267859Y381929D01*
Y382241D01*
X266339D01*
X264818D01*
Y381929D01*
X264889Y381573D01*
X265005Y381400D01*
X265091Y381167D01*
X265091Y380251D01*
X265005Y380017D01*
X264889Y379844D01*
X264818Y379488D01*
Y378465D01*
X264889Y378109D01*
X265091Y377807D01*
X265392Y377606D01*
X265748Y377535D01*
X266929D01*
X267243Y377597D01*
X267419Y377614D01*
X268332Y377381D01*
X268614Y377220D01*
X268899Y376532D01*
X269657Y375543D01*
X270646Y374785D01*
X271796Y374308D01*
X273031Y374146D01*
X274267Y374308D01*
X275417Y374785D01*
X276406Y375543D01*
X277164Y376532D01*
X277640Y377682D01*
X277803Y378917D01*
X277640Y380152D01*
X277164Y381303D01*
X276406Y382291D01*
X275417Y383050D01*
X274866Y383278D01*
Y384557D01*
X275417Y384785D01*
X276406Y385543D01*
X277164Y386532D01*
X277640Y387682D01*
X277803Y388917D01*
X277640Y390152D01*
X277164Y391303D01*
X276406Y392291D01*
X275417Y393050D01*
X274914Y393258D01*
X274903Y394369D01*
X275904Y394900D01*
X281769Y389035D01*
Y386620D01*
X280801D01*
Y383655D01*
X284357D01*
Y386620D01*
X283388D01*
Y389370D01*
X283388Y389370D01*
X283326Y389680D01*
X283151Y389942D01*
X283151Y389942D01*
X276902Y396191D01*
X277164Y396532D01*
X277640Y397682D01*
X277803Y398917D01*
X277640Y400152D01*
X277164Y401303D01*
X276406Y402291D01*
X275417Y403050D01*
X274866Y403278D01*
Y404557D01*
X275417Y404785D01*
X276406Y405543D01*
X277164Y406532D01*
X277640Y407682D01*
X277803Y408917D01*
X277640Y410152D01*
X277164Y411303D01*
X276406Y412291D01*
X275417Y413050D01*
X274866Y413278D01*
Y414557D01*
X275417Y414785D01*
X276406Y415543D01*
X277164Y416532D01*
X277640Y417682D01*
X277803Y418917D01*
X277640Y420152D01*
X277164Y421303D01*
X276406Y422291D01*
X275417Y423050D01*
X274267Y423526D01*
X273031Y423689D01*
D02*
G37*
G36*
X290636Y420754D02*
X285712D01*
Y419058D01*
X290636D01*
Y420754D01*
D02*
G37*
G36*
X285312D02*
X280387D01*
Y419058D01*
X285312D01*
Y420754D01*
D02*
G37*
G36*
X290636Y418658D02*
X285712D01*
Y416962D01*
X290636D01*
Y418658D01*
D02*
G37*
G36*
X285312D02*
X280387D01*
Y416962D01*
X285312D01*
Y418658D01*
D02*
G37*
G36*
X373031Y423689D02*
X371796Y423526D01*
X370646Y423050D01*
X369657Y422291D01*
X368899Y421303D01*
X368423Y420152D01*
X368260Y418917D01*
X368423Y417682D01*
X368899Y416532D01*
X369657Y415543D01*
X370646Y414785D01*
X371197Y414557D01*
Y413278D01*
X370646Y413050D01*
X369657Y412291D01*
X368899Y411303D01*
X368423Y410152D01*
X368260Y408917D01*
X368423Y407682D01*
X368899Y406532D01*
X369657Y405543D01*
X370646Y404785D01*
X371197Y404557D01*
Y403278D01*
X370646Y403050D01*
X369657Y402291D01*
X368899Y401303D01*
X368423Y400152D01*
X368260Y398917D01*
X368423Y397682D01*
X368899Y396532D01*
X369657Y395543D01*
X370646Y394785D01*
X371197Y394556D01*
Y393278D01*
X370646Y393050D01*
X369657Y392291D01*
X368899Y391303D01*
X368423Y390152D01*
X368260Y388917D01*
X368423Y387682D01*
X368899Y386532D01*
X369657Y385543D01*
X370646Y384785D01*
X371197Y384557D01*
Y383278D01*
X370646Y383050D01*
X369657Y382291D01*
X368899Y381303D01*
X368423Y380152D01*
X368260Y378917D01*
X368423Y377682D01*
X368899Y376532D01*
X369657Y375543D01*
X370646Y374785D01*
X371796Y374308D01*
X373031Y374146D01*
X374267Y374308D01*
X375417Y374785D01*
X376406Y375543D01*
X377164Y376532D01*
X377449Y377220D01*
X377731Y377381D01*
X378644Y377614D01*
X378820Y377597D01*
X379134Y377535D01*
X380315D01*
X380671Y377606D01*
X380972Y377807D01*
X381174Y378109D01*
X381245Y378465D01*
Y379488D01*
X381174Y379844D01*
X381058Y380017D01*
X380972Y380251D01*
Y381167D01*
X381058Y381400D01*
X381174Y381573D01*
X381245Y381929D01*
Y382241D01*
X379724D01*
X378204D01*
Y381929D01*
X378235Y381775D01*
X377164Y381303D01*
X376406Y382291D01*
X375417Y383050D01*
X374866Y383278D01*
Y384557D01*
X375417Y384785D01*
X376406Y385543D01*
X377164Y386532D01*
X377434Y387183D01*
X377727Y387342D01*
X378653Y387559D01*
X378813Y387540D01*
X379134Y387476D01*
X380315D01*
X380671Y387547D01*
X380972Y387748D01*
X381174Y388050D01*
X381245Y388405D01*
Y389429D01*
X381174Y389785D01*
X381058Y389958D01*
X380972Y390192D01*
Y391108D01*
X381058Y391341D01*
X381174Y391514D01*
X381245Y391870D01*
Y392182D01*
X379724D01*
X378204D01*
Y391870D01*
X378220Y391790D01*
X377164Y391303D01*
X376406Y392291D01*
X375417Y393050D01*
X374866Y393278D01*
Y394556D01*
X375417Y394785D01*
X376406Y395543D01*
X377164Y396532D01*
X377640Y397682D01*
X377803Y398917D01*
X377640Y400152D01*
X377164Y401303D01*
X376406Y402291D01*
X375417Y403050D01*
X374866Y403278D01*
Y404557D01*
X375417Y404785D01*
X376406Y405543D01*
X376946Y406248D01*
X377920Y406255D01*
X378274Y406126D01*
X378275Y406123D01*
X378204Y405768D01*
Y405456D01*
X379724D01*
X381245D01*
Y405768D01*
X381174Y406123D01*
X381058Y406296D01*
X380972Y406530D01*
Y407446D01*
X381058Y407680D01*
X381174Y407853D01*
X381245Y408209D01*
Y409232D01*
X381174Y409588D01*
X380972Y409890D01*
X380671Y410091D01*
X380315Y410162D01*
X379134D01*
X378838Y410103D01*
X378697Y410096D01*
X378599Y410101D01*
X377742Y410364D01*
X377484Y410530D01*
X377164Y411303D01*
X376406Y412291D01*
X375417Y413050D01*
X374866Y413278D01*
Y414557D01*
X375417Y414785D01*
X376406Y415543D01*
X376946Y416247D01*
X377916Y416234D01*
X378262Y416098D01*
X378275Y416064D01*
X378204Y415709D01*
Y415397D01*
X379724D01*
X381245D01*
Y415709D01*
X381174Y416064D01*
X381058Y416237D01*
X380972Y416471D01*
Y417387D01*
X381058Y417621D01*
X381174Y417794D01*
X381245Y418150D01*
Y419173D01*
X381174Y419529D01*
X380972Y419831D01*
X380671Y420032D01*
X380315Y420103D01*
X379134D01*
X378846Y420046D01*
X378699Y420041D01*
X378571Y420054D01*
X377742Y420327D01*
X377500Y420491D01*
X377164Y421303D01*
X376406Y422291D01*
X375417Y423050D01*
X374267Y423526D01*
X373031Y423689D01*
D02*
G37*
G36*
X290636Y415754D02*
X285712D01*
Y414058D01*
X290636D01*
Y415754D01*
D02*
G37*
G36*
X285312D02*
X280387D01*
Y414058D01*
X285312D01*
Y415754D01*
D02*
G37*
G36*
X267859Y415292D02*
X266539D01*
Y414051D01*
X266929D01*
X267285Y414121D01*
X267586Y414323D01*
X267788Y414625D01*
X267859Y414980D01*
Y415292D01*
D02*
G37*
G36*
X266139D02*
X264818D01*
Y414980D01*
X264889Y414625D01*
X265091Y414323D01*
X265392Y414121D01*
X265748Y414051D01*
X266139D01*
Y415292D01*
D02*
G37*
G36*
X381245Y414997D02*
X379924D01*
Y413755D01*
X380315D01*
X380671Y413826D01*
X380972Y414028D01*
X381174Y414329D01*
X381245Y414685D01*
Y414997D01*
D02*
G37*
G36*
X379524D02*
X378204D01*
Y414685D01*
X378275Y414329D01*
X378477Y414028D01*
X378778Y413826D01*
X379134Y413755D01*
X379524D01*
Y414997D01*
D02*
G37*
G36*
X240059Y415488D02*
X239518Y415380D01*
X239060Y415074D01*
X238754Y414615D01*
X238646Y414075D01*
X238754Y413534D01*
X239060Y413076D01*
X239518Y412769D01*
X240059Y412662D01*
X240600Y412769D01*
X241058Y413076D01*
X241365Y413534D01*
X241472Y414075D01*
X241365Y414615D01*
X241058Y415074D01*
X240600Y415380D01*
X240059Y415488D01*
D02*
G37*
G36*
X290636Y413658D02*
X285712D01*
Y411962D01*
X290636D01*
Y413658D01*
D02*
G37*
G36*
X285312D02*
X280387D01*
Y411962D01*
X285312D01*
Y413658D01*
D02*
G37*
G36*
X311650Y411363D02*
X311339D01*
X310983Y411292D01*
X310681Y411090D01*
X310480Y410789D01*
X310409Y410433D01*
Y410042D01*
X311650D01*
Y411363D01*
D02*
G37*
G36*
X290636Y410754D02*
X285712D01*
Y409058D01*
X290636D01*
Y410754D01*
D02*
G37*
G36*
X285312D02*
X280387D01*
Y409058D01*
X285312D01*
Y410754D01*
D02*
G37*
G36*
X290636Y408658D02*
X285712D01*
Y406962D01*
X290636D01*
Y408658D01*
D02*
G37*
G36*
X285312D02*
X280387D01*
Y406962D01*
X285312D01*
Y408658D01*
D02*
G37*
G36*
X267859Y405253D02*
X266539D01*
Y404011D01*
X266929D01*
X267285Y404082D01*
X267586Y404284D01*
X267788Y404585D01*
X267859Y404941D01*
Y405253D01*
D02*
G37*
G36*
X266139D02*
X264818D01*
Y404941D01*
X264889Y404585D01*
X265091Y404284D01*
X265392Y404082D01*
X265748Y404011D01*
X266139D01*
Y405253D01*
D02*
G37*
G36*
X381245Y405056D02*
X379924D01*
Y403814D01*
X380315D01*
X380671Y403885D01*
X380972Y404087D01*
X381174Y404388D01*
X381245Y404744D01*
Y405056D01*
D02*
G37*
G36*
X379524D02*
X378204D01*
Y404744D01*
X378275Y404388D01*
X378477Y404087D01*
X378778Y403885D01*
X379134Y403814D01*
X379524D01*
Y405056D01*
D02*
G37*
G36*
X238583Y402496D02*
X238042Y402388D01*
X237584Y402082D01*
X237277Y401623D01*
X237170Y401083D01*
X237277Y400542D01*
X237584Y400084D01*
X238042Y399777D01*
X238583Y399670D01*
X239123Y399777D01*
X239582Y400084D01*
X239888Y400542D01*
X239996Y401083D01*
X239888Y401623D01*
X239582Y402082D01*
X239123Y402388D01*
X238583Y402496D01*
D02*
G37*
G36*
X406962Y398102D02*
X406422Y397995D01*
X405963Y397689D01*
X405657Y397230D01*
X405549Y396689D01*
X405657Y396149D01*
X405963Y395690D01*
X406422Y395384D01*
X406962Y395276D01*
X407503Y395384D01*
X407962Y395690D01*
X408268Y396149D01*
X408375Y396689D01*
X408268Y397230D01*
X407962Y397689D01*
X407503Y397995D01*
X406962Y398102D01*
D02*
G37*
G36*
X238681Y397968D02*
X238140Y397861D01*
X237682Y397554D01*
X237376Y397096D01*
X237268Y396555D01*
X237376Y396014D01*
X237682Y395556D01*
X238140Y395250D01*
X238681Y395142D01*
X239222Y395250D01*
X239680Y395556D01*
X239986Y396014D01*
X240094Y396555D01*
X239986Y397096D01*
X239680Y397554D01*
X239222Y397861D01*
X238681Y397968D01*
D02*
G37*
G36*
X298228Y397777D02*
X297572Y397646D01*
X297016Y397275D01*
X296645Y396719D01*
X296514Y396063D01*
X296645Y395407D01*
X297016Y394851D01*
X297572Y394479D01*
X298228Y394349D01*
X298884Y394479D01*
X299440Y394851D01*
X299812Y395407D01*
X299942Y396063D01*
X299812Y396719D01*
X299440Y397275D01*
X298884Y397646D01*
X298228Y397777D01*
D02*
G37*
G36*
X284547D02*
X283891Y397646D01*
X283335Y397275D01*
X282964Y396719D01*
X282833Y396063D01*
X282964Y395407D01*
X283335Y394851D01*
X283891Y394479D01*
X284547Y394349D01*
X285203Y394479D01*
X285759Y394851D01*
X286131Y395407D01*
X286261Y396063D01*
X286131Y396719D01*
X285759Y397275D01*
X285203Y397646D01*
X284547Y397777D01*
D02*
G37*
G36*
X380315Y393823D02*
X379924D01*
Y392582D01*
X381245D01*
Y392894D01*
X381174Y393250D01*
X380972Y393551D01*
X380671Y393753D01*
X380315Y393823D01*
D02*
G37*
G36*
X379524D02*
X379134D01*
X378778Y393753D01*
X378477Y393551D01*
X378275Y393250D01*
X378204Y392894D01*
Y392582D01*
X379524D01*
Y393823D01*
D02*
G37*
G36*
X266929D02*
X266539D01*
Y392582D01*
X267859D01*
Y392894D01*
X267788Y393250D01*
X267586Y393551D01*
X267285Y393753D01*
X266929Y393823D01*
D02*
G37*
G36*
X266139D02*
X265748D01*
X265392Y393753D01*
X265091Y393551D01*
X264889Y393250D01*
X264818Y392894D01*
Y392582D01*
X266139D01*
Y393823D01*
D02*
G37*
G36*
X346660Y390203D02*
X344688D01*
Y388586D01*
X346660D01*
Y390203D01*
D02*
G37*
G36*
X344288D02*
X342317D01*
Y388586D01*
X344288D01*
Y390203D01*
D02*
G37*
G36*
X356299Y390887D02*
X355643Y390757D01*
X355087Y390385D01*
X354716Y389829D01*
X354585Y389173D01*
X354716Y388517D01*
X355087Y387961D01*
X355643Y387590D01*
X356299Y387459D01*
X356955Y387590D01*
X357511Y387961D01*
X357883Y388517D01*
X358013Y389173D01*
X357883Y389829D01*
X357511Y390385D01*
X356955Y390757D01*
X356299Y390887D01*
D02*
G37*
G36*
X336398Y388233D02*
X336086D01*
Y386913D01*
X337327D01*
Y387303D01*
X337257Y387659D01*
X337055Y387961D01*
X336753Y388162D01*
X336398Y388233D01*
D02*
G37*
G36*
X337327Y386513D02*
X336086D01*
Y385192D01*
X336398D01*
X336753Y385263D01*
X337055Y385465D01*
X337257Y385766D01*
X337327Y386122D01*
Y386513D01*
D02*
G37*
G36*
X239961Y385468D02*
X239420Y385361D01*
X238962Y385054D01*
X238655Y384596D01*
X238548Y384055D01*
X238655Y383514D01*
X238962Y383056D01*
X239420Y382750D01*
X239961Y382642D01*
X240501Y382750D01*
X240960Y383056D01*
X241266Y383514D01*
X241374Y384055D01*
X241266Y384596D01*
X240960Y385054D01*
X240501Y385361D01*
X239961Y385468D01*
D02*
G37*
G36*
X380315Y383882D02*
X379924D01*
Y382641D01*
X381245D01*
Y382953D01*
X381174Y383309D01*
X380972Y383610D01*
X380671Y383812D01*
X380315Y383882D01*
D02*
G37*
G36*
X379524D02*
X379134D01*
X378778Y383812D01*
X378477Y383610D01*
X378275Y383309D01*
X378204Y382953D01*
Y382641D01*
X379524D01*
Y383882D01*
D02*
G37*
G36*
X266929Y383882D02*
X266539D01*
Y382641D01*
X267859D01*
Y382953D01*
X267788Y383309D01*
X267586Y383610D01*
X267285Y383812D01*
X266929Y383882D01*
D02*
G37*
G36*
X266139D02*
X265748D01*
X265392Y383812D01*
X265091Y383610D01*
X264889Y383309D01*
X264818Y382953D01*
Y382641D01*
X266139D01*
Y383882D01*
D02*
G37*
G36*
X405807Y384877D02*
X405266Y384770D01*
X404808Y384464D01*
X404502Y384005D01*
X404394Y383465D01*
X404502Y382924D01*
X404808Y382465D01*
X405094Y382274D01*
X405037Y381444D01*
X404920Y381078D01*
X404676Y381030D01*
X404217Y380724D01*
X403911Y380265D01*
X403804Y379724D01*
X403911Y379184D01*
X404217Y378725D01*
X404676Y378419D01*
X405217Y378311D01*
X405757Y378419D01*
X406216Y378725D01*
X406522Y379184D01*
X406630Y379724D01*
X406522Y380265D01*
X406216Y380724D01*
X405930Y380915D01*
X405987Y381745D01*
X406104Y382111D01*
X406348Y382159D01*
X406806Y382465D01*
X407113Y382924D01*
X407220Y383465D01*
X407113Y384005D01*
X406806Y384464D01*
X406348Y384770D01*
X405807Y384877D01*
D02*
G37*
G36*
X240846Y381039D02*
X240306Y380931D01*
X239847Y380625D01*
X239541Y380167D01*
X239434Y379626D01*
X239541Y379085D01*
X239847Y378627D01*
X240306Y378321D01*
X240846Y378213D01*
X241387Y378321D01*
X241846Y378627D01*
X242152Y379085D01*
X242259Y379626D01*
X242152Y380167D01*
X241846Y380625D01*
X241387Y380931D01*
X240846Y381039D01*
D02*
G37*
G36*
X282087Y373466D02*
X281431Y373336D01*
X280875Y372964D01*
X280503Y372408D01*
X280373Y371752D01*
X280503Y371096D01*
X280875Y370540D01*
X281431Y370168D01*
X282087Y370038D01*
X282743Y370168D01*
X283299Y370540D01*
X283670Y371096D01*
X283801Y371752D01*
X283670Y372408D01*
X283299Y372964D01*
X282743Y373336D01*
X282087Y373466D01*
D02*
G37*
G36*
X245276Y368441D02*
X244735Y368333D01*
X244276Y368027D01*
X243970Y367568D01*
X243863Y367028D01*
X243970Y366487D01*
X244276Y366028D01*
X244735Y365722D01*
X245276Y365615D01*
X245816Y365722D01*
X246275Y366028D01*
X246581Y366487D01*
X246689Y367028D01*
X246581Y367568D01*
X246275Y368027D01*
X245816Y368333D01*
X245276Y368441D01*
D02*
G37*
G36*
X400787Y368244D02*
X400247Y368136D01*
X399788Y367830D01*
X399482Y367371D01*
X399374Y366831D01*
X399482Y366290D01*
X399788Y365832D01*
X400247Y365525D01*
X400787Y365418D01*
X401328Y365525D01*
X401787Y365832D01*
X402093Y366290D01*
X402200Y366831D01*
X402093Y367371D01*
X401787Y367830D01*
X401328Y368136D01*
X400787Y368244D01*
D02*
G37*
G36*
X298068Y366729D02*
X296826D01*
Y366339D01*
X296897Y365983D01*
X297098Y365681D01*
X297400Y365480D01*
X297756Y365409D01*
X298068D01*
Y366729D01*
D02*
G37*
G36*
X246949Y363913D02*
X246408Y363805D01*
X245950Y363499D01*
X245643Y363041D01*
X245536Y362500D01*
X245643Y361959D01*
X245950Y361501D01*
X246408Y361195D01*
X246949Y361087D01*
X247490Y361195D01*
X247948Y361501D01*
X248254Y361959D01*
X248362Y362500D01*
X248254Y363041D01*
X247948Y363499D01*
X247490Y363805D01*
X246949Y363913D01*
D02*
G37*
G36*
X399311Y363716D02*
X398770Y363609D01*
X398312Y363302D01*
X398006Y362844D01*
X397898Y362303D01*
X398006Y361762D01*
X398312Y361304D01*
X398770Y360998D01*
X399311Y360890D01*
X399852Y360998D01*
X400310Y361304D01*
X400616Y361762D01*
X400724Y362303D01*
X400616Y362844D01*
X400310Y363302D01*
X399852Y363609D01*
X399311Y363716D01*
D02*
G37*
G36*
X253051Y352791D02*
X252510Y352683D01*
X252052Y352377D01*
X251746Y351919D01*
X251638Y351378D01*
X251746Y350837D01*
X252052Y350379D01*
X252510Y350073D01*
X253051Y349965D01*
X253592Y350073D01*
X254050Y350379D01*
X254357Y350837D01*
X254464Y351378D01*
X254357Y351919D01*
X254050Y352377D01*
X253592Y352683D01*
X253051Y352791D01*
D02*
G37*
G36*
X392618Y352693D02*
X392077Y352585D01*
X391619Y352279D01*
X391313Y351820D01*
X391205Y351279D01*
X391313Y350739D01*
X391619Y350280D01*
X392077Y349974D01*
X392618Y349867D01*
X393159Y349974D01*
X393617Y350280D01*
X393923Y350739D01*
X394031Y351279D01*
X393923Y351820D01*
X393617Y352279D01*
X393159Y352585D01*
X392618Y352693D01*
D02*
G37*
G36*
X349311Y362639D02*
X348655Y362509D01*
X348099Y362137D01*
X347727Y361581D01*
X347597Y360925D01*
X347727Y360269D01*
X348099Y359713D01*
X348655Y359342D01*
X349311Y359211D01*
X349664Y359281D01*
X350165Y358177D01*
X350022Y358067D01*
X349377Y357572D01*
X348555Y356502D01*
X348039Y355255D01*
X347863Y353917D01*
X348039Y352580D01*
X348555Y351333D01*
X349377Y350263D01*
X350447Y349441D01*
X351694Y348925D01*
X353031Y348749D01*
X354369Y348925D01*
X355616Y349441D01*
X356686Y350263D01*
X357508Y351333D01*
X358024Y352580D01*
X358200Y353917D01*
X358024Y355255D01*
X357508Y356502D01*
X356686Y357572D01*
X355616Y358394D01*
X354369Y358910D01*
X353031Y359086D01*
X351694Y358910D01*
X351218Y358713D01*
X351044Y358641D01*
X350495Y359667D01*
X350523Y359713D01*
X350629Y359872D01*
X350895Y360269D01*
X351025Y360925D01*
X350895Y361581D01*
X350523Y362137D01*
X349967Y362509D01*
X349311Y362639D01*
D02*
G37*
G36*
X293032Y359086D02*
X291694Y358910D01*
X290447Y358394D01*
X289377Y357572D01*
X288555Y356502D01*
X288039Y355255D01*
X287863Y353917D01*
X288039Y352580D01*
X288555Y351333D01*
X289377Y350263D01*
X290447Y349441D01*
X291694Y348925D01*
X293032Y348749D01*
X294369Y348925D01*
X295616Y349441D01*
X296686Y350263D01*
X297508Y351333D01*
X298024Y352580D01*
X298200Y353917D01*
X298024Y355255D01*
X297508Y356502D01*
X296686Y357572D01*
X295616Y358394D01*
X294369Y358910D01*
X293032Y359086D01*
D02*
G37*
G36*
X390059Y348952D02*
X389518Y348845D01*
X389060Y348538D01*
X388754Y348080D01*
X388646Y347539D01*
X388754Y346999D01*
X389060Y346540D01*
X389518Y346234D01*
X390059Y346126D01*
X390600Y346234D01*
X391058Y346540D01*
X391365Y346999D01*
X391472Y347539D01*
X391365Y348080D01*
X391058Y348538D01*
X390600Y348845D01*
X390059Y348952D01*
D02*
G37*
G36*
X281693Y325626D02*
X281152Y325518D01*
X280694Y325212D01*
X280387Y324753D01*
X280280Y324213D01*
X280387Y323672D01*
X280694Y323214D01*
X281152Y322907D01*
X281693Y322800D01*
X282234Y322907D01*
X282692Y323214D01*
X282998Y323672D01*
X283106Y324213D01*
X282998Y324753D01*
X282692Y325212D01*
X282234Y325518D01*
X281693Y325626D01*
D02*
G37*
G36*
X294587Y321000D02*
X294046Y320892D01*
X293587Y320586D01*
X293281Y320127D01*
X293174Y319587D01*
X293281Y319046D01*
X293587Y318587D01*
X294046Y318281D01*
X294587Y318174D01*
X295127Y318281D01*
X295586Y318587D01*
X295892Y319046D01*
X296000Y319587D01*
X295892Y320127D01*
X295586Y320586D01*
X295127Y320892D01*
X294587Y321000D01*
D02*
G37*
G36*
X299016Y319622D02*
X298475Y319514D01*
X298017Y319208D01*
X297710Y318749D01*
X297603Y318209D01*
X297710Y317668D01*
X298017Y317210D01*
X298475Y316903D01*
X299016Y316796D01*
X299556Y316903D01*
X300015Y317210D01*
X300321Y317668D01*
X300429Y318209D01*
X300321Y318749D01*
X300015Y319208D01*
X299556Y319514D01*
X299016Y319622D01*
D02*
G37*
G36*
X334055Y316767D02*
X333514Y316660D01*
X333056Y316354D01*
X332750Y315895D01*
X332642Y315354D01*
X332750Y314814D01*
X333056Y314355D01*
X333514Y314049D01*
X334055Y313941D01*
X334596Y314049D01*
X335054Y314355D01*
X335361Y314814D01*
X335468Y315354D01*
X335361Y315895D01*
X335054Y316354D01*
X334596Y316660D01*
X334055Y316767D01*
D02*
G37*
G36*
X311811Y316472D02*
X311270Y316365D01*
X310812Y316058D01*
X310506Y315600D01*
X310398Y315059D01*
X310506Y314518D01*
X310812Y314060D01*
X311270Y313754D01*
X311811Y313646D01*
X312352Y313754D01*
X312810Y314060D01*
X313116Y314518D01*
X313224Y315059D01*
X313116Y315600D01*
X312810Y316058D01*
X312352Y316365D01*
X311811Y316472D01*
D02*
G37*
G36*
X329626Y316374D02*
X329085Y316266D01*
X328627Y315960D01*
X328321Y315501D01*
X328213Y314961D01*
X328321Y314420D01*
X328627Y313962D01*
X329085Y313655D01*
X329626Y313548D01*
X330167Y313655D01*
X330625Y313962D01*
X330931Y314420D01*
X331039Y314961D01*
X330931Y315501D01*
X330625Y315960D01*
X330167Y316266D01*
X329626Y316374D01*
D02*
G37*
G36*
X316339Y316275D02*
X315798Y316168D01*
X315339Y315861D01*
X315033Y315403D01*
X314926Y314862D01*
X315033Y314321D01*
X315339Y313863D01*
X315798Y313557D01*
X316339Y313449D01*
X316879Y313557D01*
X317338Y313863D01*
X317644Y314321D01*
X317752Y314862D01*
X317644Y315403D01*
X317338Y315861D01*
X316879Y316168D01*
X316339Y316275D01*
D02*
G37*
%LPD*%
G36*
X311455Y433768D02*
X312159Y433065D01*
X312539Y432146D01*
Y431649D01*
X307539D01*
Y432146D01*
X307920Y433065D01*
X308623Y433768D01*
X309542Y434149D01*
X310537D01*
X311455Y433768D01*
D02*
G37*
G36*
X312539Y430649D02*
X312159Y429731D01*
X311455Y429027D01*
X310537Y428647D01*
X309542D01*
X308623Y429027D01*
X307920Y429731D01*
X307539Y430649D01*
Y431147D01*
X312539D01*
Y430649D01*
D02*
G37*
G36*
X354596Y425090D02*
X354915Y424836D01*
X354944Y424563D01*
X354232Y423657D01*
X353692Y423550D01*
X353233Y423243D01*
X352927Y422785D01*
X352819Y422244D01*
X352927Y421703D01*
X353233Y421245D01*
X353692Y420939D01*
X353823Y420205D01*
X352779Y420014D01*
X352643Y420105D01*
X352102Y420212D01*
X351758Y420144D01*
X351553Y420249D01*
X350577Y420754D01*
X350577Y420754D01*
X350577Y420754D01*
X345653D01*
Y418858D01*
X345453D01*
Y418658D01*
X340328D01*
Y417148D01*
X339050D01*
X338561Y418329D01*
X338761Y418529D01*
X338937Y418792D01*
X338998Y419102D01*
X338998Y419102D01*
Y423499D01*
X339147Y423598D01*
X340328Y422967D01*
Y421962D01*
X345253D01*
Y423858D01*
X345453D01*
Y424058D01*
X350577D01*
Y425339D01*
X353412D01*
X353412Y425339D01*
X353721Y425400D01*
X354596Y425090D01*
D02*
G37*
G36*
X352874Y414592D02*
X352929Y414348D01*
X352847Y413934D01*
X352954Y413393D01*
X353260Y412935D01*
X353645Y412677D01*
X353683Y412368D01*
X353559Y411456D01*
X353495Y411443D01*
X353036Y411137D01*
X352730Y410678D01*
X352623Y410138D01*
X352730Y409597D01*
X353036Y409139D01*
X353495Y408832D01*
X354035Y408725D01*
X354147Y408747D01*
X355150Y408132D01*
X355328Y407914D01*
Y406962D01*
X356116D01*
X356605Y405781D01*
X346653Y395829D01*
X335118D01*
X334002Y396273D01*
X333940Y396582D01*
X333765Y396845D01*
X332371Y398238D01*
X332359Y398271D01*
X332291Y398917D01*
X332359Y399564D01*
X332371Y399596D01*
X332772Y399997D01*
X341438D01*
X341501Y399902D01*
X341959Y399596D01*
X342500Y399489D01*
X343041Y399596D01*
X343499Y399902D01*
X343805Y400361D01*
X343913Y400902D01*
X343805Y401442D01*
X343499Y401901D01*
X343041Y402207D01*
X342499Y402320D01*
X342413Y402902D01*
X342305Y403442D01*
X341999Y403901D01*
X341541Y404207D01*
X340999Y404320D01*
X340913Y404902D01*
X340805Y405442D01*
X340579Y405781D01*
X340716Y406330D01*
X341036Y406962D01*
X345253D01*
Y408658D01*
X340328D01*
Y407893D01*
X339147Y407679D01*
X338999Y407901D01*
X338541Y408207D01*
X338000Y408315D01*
X337459Y408207D01*
X337001Y407901D01*
X336874Y407711D01*
X332119D01*
X331629Y408892D01*
X338267Y415529D01*
X340328D01*
Y414058D01*
X350577D01*
Y415529D01*
X352238D01*
X352874Y414592D01*
D02*
G37*
G36*
X317309Y390689D02*
X317309Y390689D01*
X317350Y390662D01*
X317573Y390513D01*
X317573Y390513D01*
X317573Y390513D01*
X317988Y390115D01*
X318003Y390099D01*
X318388Y389697D01*
X318537Y389473D01*
X318537Y389473D01*
X318562Y389437D01*
X318770Y389297D01*
X319075Y389010D01*
X319638Y388448D01*
X319815Y388184D01*
X320077Y388008D01*
X320077Y388008D01*
X320077Y388008D01*
X320387Y387947D01*
X320387Y387947D01*
X320696Y388008D01*
X320959Y388184D01*
X320959D01*
X321119Y388344D01*
X322353Y389577D01*
X322385Y389590D01*
X323031Y389658D01*
X323678Y389590D01*
X323710Y389577D01*
X326745Y386543D01*
X326700Y386319D01*
X326808Y385778D01*
X327114Y385320D01*
X327573Y385014D01*
X327376Y383849D01*
X324626D01*
X324163Y383756D01*
X323770Y383494D01*
X323770Y383494D01*
X321869Y381593D01*
X321426Y381669D01*
X321425Y381669D01*
X321243Y381833D01*
X320615Y382815D01*
Y383127D01*
X319094D01*
Y383327D01*
X318895D01*
Y384768D01*
X318504D01*
X318250Y384718D01*
X318138Y384696D01*
X318137Y384696D01*
X318137Y384696D01*
X317471Y384612D01*
X316803Y384696D01*
X316690Y384718D01*
X316437Y384768D01*
X316047D01*
Y383327D01*
X315846D01*
Y383127D01*
X314326D01*
Y382815D01*
X314397Y382459D01*
X314512Y382286D01*
X314598Y382053D01*
X314598Y381136D01*
X314513Y380903D01*
X314397Y380730D01*
X314326Y380374D01*
Y379486D01*
X314290Y379450D01*
X314115Y379188D01*
X314053Y378878D01*
X314053Y378878D01*
Y376744D01*
X312872Y376746D01*
X312834Y376801D01*
X312805Y376942D01*
X312499Y377401D01*
X312332Y377512D01*
X312309Y377545D01*
Y387233D01*
X313122Y387813D01*
X313490Y387936D01*
X313878Y387859D01*
X314419Y387966D01*
X314877Y388273D01*
X315183Y388731D01*
X315291Y389272D01*
X315209Y389682D01*
X315366Y389915D01*
X315413Y390154D01*
X315977Y390719D01*
X316264Y390776D01*
X317309Y390689D01*
D02*
G37*
%LPC*%
G36*
X350577Y423658D02*
X345653D01*
Y421962D01*
X350577D01*
Y423658D01*
D02*
G37*
G36*
X345253Y420754D02*
X340328D01*
Y419058D01*
X345253D01*
Y420754D01*
D02*
G37*
G36*
X350577Y413658D02*
X345653D01*
Y411962D01*
X350577D01*
Y413658D01*
D02*
G37*
G36*
X345253D02*
X340328D01*
Y411962D01*
X345253D01*
Y413658D01*
D02*
G37*
G36*
X350577Y410754D02*
X345653D01*
Y409058D01*
X350577D01*
Y410754D01*
D02*
G37*
G36*
X345253D02*
X340328D01*
Y409058D01*
X345253D01*
Y410754D01*
D02*
G37*
G36*
X350577Y408658D02*
X345653D01*
Y406962D01*
X350577D01*
Y408658D01*
D02*
G37*
G36*
X315647Y384768D02*
X315256D01*
X314900Y384698D01*
X314598Y384496D01*
X314397Y384194D01*
X314326Y383839D01*
Y383527D01*
X315647D01*
Y384768D01*
D02*
G37*
G36*
X319685Y384768D02*
X319295D01*
Y383527D01*
X320615D01*
Y383839D01*
X320544Y384194D01*
X320342Y384496D01*
X320041Y384698D01*
X319685Y384768D01*
D02*
G37*
%LPD*%
D12*
X347053Y318341D02*
G03*
X346671Y318039I274J-738D01*
G01*
X363120Y324371D02*
G03*
X365059Y327160I-1038J2790D01*
G01*
X317126Y431201D02*
X319587D01*
X320236Y440158D02*
X320285Y440207D01*
X322392D01*
X322441Y440256D01*
X326594Y434823D02*
X335413D01*
X335531Y434705D02*
X336088Y435262D01*
X337358D01*
X337628Y435532D01*
X338484D01*
X338218Y433465D02*
X338484D01*
X335531Y434705D02*
X336088Y434148D01*
X337535D01*
X338218Y433465D01*
X330906Y421122D02*
Y423917D01*
X327756Y421122D02*
Y424016D01*
X323721Y421161D02*
Y424016D01*
X327756Y421122D02*
X330906D01*
X323760D02*
X327756D01*
X323721Y421161D02*
X323760Y421122D01*
X335413Y434823D02*
X335531Y434705D01*
X326476Y434941D02*
X326594Y434823D01*
X320236Y434311D02*
Y440158D01*
X317126Y431201D02*
X320236Y434311D01*
X316634Y431201D02*
X317126D01*
X310531Y433890D02*
Y436614D01*
X310039Y433398D02*
X310531Y433890D01*
X282579Y385138D02*
Y389370D01*
X273031Y398917D02*
X282579Y389370D01*
X296014Y381545D02*
Y382107D01*
X295079Y383042D02*
Y385276D01*
Y383042D02*
X296014Y382107D01*
X290846Y381398D02*
X290994Y381545D01*
X296014D01*
X296161Y381693D01*
X298268Y376378D02*
Y387795D01*
X295079Y388740D02*
X297323D01*
X298268Y387795D01*
X290846Y388878D02*
X290915Y388809D01*
X295010D01*
X295079Y388740D01*
X317520Y374016D02*
Y376279D01*
X316929Y376870D02*
X317520Y376279D01*
X330315Y384842D02*
X330551D01*
X332421Y386713D01*
X345453Y423605D02*
X345579Y423732D01*
X345453Y418858D02*
Y423605D01*
X309842Y433595D02*
X310039Y433398D01*
X309579Y433858D02*
X309842Y433595D01*
X360453Y433858D02*
X360630Y434035D01*
Y437402D01*
X309646Y409842D02*
X311850D01*
X300512Y433858D02*
X309579D01*
X295457Y373074D02*
X298113D01*
X298268Y373228D01*
X295571Y376378D02*
X298268D01*
X323130Y415846D02*
X323721Y416437D01*
X320472Y415846D02*
X323130D01*
X359370Y409941D02*
X360453D01*
X359339D02*
X359370D01*
X360453Y408858D01*
X359350Y409961D02*
X359370Y409941D01*
X354213Y409961D02*
X359350D01*
X354035Y410138D02*
X354213Y409961D01*
X314758Y410399D02*
X315315Y409842D01*
X314758Y410399D02*
Y411747D01*
X314272Y412234D02*
X314758Y411747D01*
X314272Y412234D02*
Y412500D01*
X340846Y388386D02*
X344488D01*
X315827Y383347D02*
X315846Y383327D01*
X313307Y383347D02*
X315827D01*
X313287Y383366D02*
X313307Y383347D01*
X311500Y376402D02*
Y389907D01*
X316110Y394517D01*
X319094Y383327D02*
X319094Y383327D01*
X315846Y383327D02*
X319094D01*
X315846Y383327D02*
X315846Y383327D01*
X315832Y379862D02*
X315846D01*
X315211Y379241D02*
X315832Y379862D01*
X315211Y379226D02*
Y379241D01*
X314862Y378878D02*
X315211Y379226D01*
X314862Y371988D02*
Y378878D01*
X319094Y383327D02*
X319114Y383347D01*
X301732Y373228D02*
X301880Y373376D01*
X304281D01*
X304429Y373524D01*
X301732Y376378D02*
X304528D01*
X298268Y366929D02*
Y370079D01*
X295965Y366929D02*
X298268D01*
X301732D02*
Y370079D01*
X309136Y366732D02*
X310254Y365614D01*
X295965Y370079D02*
X298268D01*
X330906Y414862D02*
Y417658D01*
X300500Y418902D02*
X307000D01*
X355129Y427866D02*
X358464D01*
X354260Y413934D02*
X359383D01*
X359425Y413976D01*
X346893Y408697D02*
X351672D01*
X345551Y410039D02*
X346893Y408697D01*
X348946Y433731D02*
X349019Y433803D01*
X351644D01*
X347736Y434941D02*
X348946Y433731D01*
X345453Y434941D02*
X347736D01*
X345579Y423732D02*
X351567D01*
X351613Y423778D01*
X345453Y423858D02*
X345579Y423732D01*
X354528Y422244D02*
X357224Y424941D01*
X354232Y422244D02*
X354528D01*
X326897Y407810D02*
X338189Y419102D01*
X330709Y414665D02*
X330906Y414862D01*
X338189Y424902D02*
X339435Y426148D01*
X353412D01*
X311524Y421744D02*
X324606Y408661D01*
X311524Y421744D02*
Y423473D01*
X307382Y394587D02*
Y394685D01*
X294587Y407480D02*
Y413128D01*
X295498Y406568D02*
X307382Y394685D01*
X294587Y407480D02*
X294994Y407073D01*
Y407033D02*
X295459Y406568D01*
X294587Y413128D02*
X295048Y413589D01*
X300242D01*
X294994Y407033D02*
Y407073D01*
X295459Y406568D02*
X295498D01*
X300242Y413589D02*
X301024Y414370D01*
X306988D01*
X315315Y409842D02*
X317117D01*
X319900Y407060D01*
X327654Y412201D02*
Y417555D01*
X327650Y417551D02*
X327654Y417555D01*
X327756Y417658D01*
X327551Y412098D02*
X327654Y412201D01*
X335886Y386713D02*
X338287D01*
X331547Y390354D02*
X333661D01*
X325823Y396079D02*
X331547Y390354D01*
X335728Y392520D02*
X336319Y391929D01*
X331887Y392520D02*
X335728D01*
X330687Y393720D02*
X331887Y392520D01*
X329914Y394541D02*
X330687Y393767D01*
Y393720D02*
Y393767D01*
X330785Y388659D02*
X331864Y387580D01*
X330785Y388659D02*
X330785D01*
X331864Y387270D02*
X332421Y386713D01*
X331864Y387270D02*
Y387580D01*
X327416Y392027D02*
X330785Y388659D01*
X298268Y373228D02*
Y376378D01*
X307000Y368868D02*
X309136Y366732D01*
X301732Y366929D02*
X301929Y366732D01*
X309136D01*
X301732Y376378D02*
X301782Y376329D01*
X324606Y408661D02*
X324933Y408335D01*
X330610Y417362D02*
X330906Y417658D01*
X300512Y408858D02*
X301614Y409961D01*
X306151D01*
X306919Y410728D01*
X307185D01*
X331940Y395020D02*
X346988D01*
X331174Y395785D02*
X331940Y395020D01*
X346988D02*
X358237Y406268D01*
Y408839D02*
X359339Y409941D01*
X358237Y406268D02*
Y408839D01*
X307000Y368868D02*
Y390418D01*
X309681Y422799D02*
X309744Y422736D01*
X320387Y409079D02*
X321152Y408313D01*
X320340Y409079D02*
X320387D01*
X306619Y422799D02*
X309681D01*
X306619D02*
X306662Y422756D01*
X320340Y409079D01*
X300512Y423858D02*
X301614Y422756D01*
X306662D01*
X357224Y424941D02*
X360453D01*
X313878Y389272D02*
Y389485D01*
X314618Y390504D02*
X317394Y393280D01*
X314618Y390225D02*
Y390504D01*
X313878Y389485D02*
X314618Y390225D01*
X285512Y408858D02*
X291437D01*
X285512D02*
Y413858D01*
X285555Y413902D01*
X291500D01*
X285512Y428858D02*
X285555Y428902D01*
X291500D01*
X285512Y428858D02*
Y433858D01*
X285555Y433902D01*
X291500D01*
X285512Y423858D02*
X285555Y423902D01*
X291500D01*
X285512Y418858D02*
X285555Y418902D01*
X291500D01*
X285512Y418858D02*
Y423858D01*
X353412Y426148D02*
X355129Y427866D01*
X345453Y409941D02*
X345551Y410039D01*
X314123Y402815D02*
X314881Y402057D01*
X310159Y402815D02*
X314123D01*
X310143Y402831D02*
X310159Y402815D01*
X317881Y406573D02*
X318639Y405815D01*
X317834Y406573D02*
X317881D01*
X317714Y406693D02*
X317834Y406573D01*
X324911Y389522D02*
X328113Y386319D01*
X345453Y409941D02*
Y414941D01*
Y429941D02*
Y434941D01*
X345387Y376069D02*
X365059Y356398D01*
Y327166D02*
Y356398D01*
X327447Y376069D02*
X345387D01*
X347053Y318341D02*
X363119Y324371D01*
X346654Y318012D02*
X346655Y318016D01*
X346671Y318039D01*
X363119Y324371D02*
X363120Y324371D01*
X365059Y327160D02*
X365059Y327166D01*
X378642Y334252D02*
Y355610D01*
X353433Y380819D02*
X378642Y355610D01*
X325480Y380819D02*
X353433D01*
X320669Y374016D02*
X320709Y374055D01*
Y376048D01*
X325480Y380819D01*
X322244Y374016D02*
X322284Y374055D01*
Y375943D01*
X325972Y379631D01*
X351569D01*
X359646Y371555D01*
X323819Y374016D02*
X323858Y374055D01*
Y375839D01*
X349656Y378444D02*
X356545Y371555D01*
X326464Y378444D02*
X349656D01*
X323858Y375839D02*
X326464Y378444D01*
X347743Y377257D02*
X353445Y371555D01*
X325433Y375734D02*
X326955Y377257D01*
X347743D01*
X325394Y374016D02*
X325433Y374055D01*
Y375734D01*
X326969Y374016D02*
X326969Y374016D01*
X326969Y374016D02*
Y375590D01*
X327447Y376069D01*
X343996Y374016D02*
X362992Y355020D01*
X328543Y374016D02*
X343996D01*
X362992Y326575D02*
Y355020D01*
X330610Y360890D02*
X331472D01*
X331476Y360886D01*
Y360668D02*
Y360886D01*
Y360668D02*
X333390Y358754D01*
Y357752D02*
X333563Y357579D01*
X315453Y367224D02*
X322244D01*
X312077D02*
X315453D01*
X311585Y367717D02*
X312077Y367224D01*
X311319Y367717D02*
X311585D01*
X313224Y368764D02*
X315421D01*
X311516Y370472D02*
X313224Y368764D01*
X309500Y375005D02*
X313295Y371210D01*
X309500Y375005D02*
Y390413D01*
X313295Y371153D02*
X314035Y370413D01*
X313295Y371153D02*
Y371210D01*
X317394Y404555D02*
X323031Y398917D01*
X352102Y418799D02*
X355398D01*
X359425Y413976D02*
X359500Y413902D01*
X360500Y414902D01*
X339921Y352953D02*
X340057Y353088D01*
X343575D01*
X343632Y356053D02*
X343711Y356132D01*
X339872Y356053D02*
X343632D01*
X339896Y359227D02*
X343779D01*
X339823Y359154D02*
X339896Y359227D01*
X339823Y353051D02*
X339921Y352953D01*
X339823Y356102D02*
X339872Y356053D01*
X314902Y371949D02*
X315453D01*
X314862Y371988D02*
X314902Y371949D01*
X325197Y364272D02*
X328543Y360925D01*
X323031Y366437D02*
X325197Y364272D01*
X328543Y360925D02*
X330610D01*
X322244Y367224D02*
X323031Y366437D01*
X320866Y368602D02*
X322244Y367224D01*
X317520Y371949D02*
X320866Y368602D01*
X317520Y371949D02*
Y374016D01*
X321555Y353110D02*
X321654Y353209D01*
Y355315D01*
X322244Y355906D02*
Y358858D01*
X321654Y355315D02*
X322244Y355906D01*
X315453Y353110D02*
X315846Y353504D01*
Y354331D01*
X319055Y358819D02*
X319094Y358858D01*
X319055Y357539D02*
Y358819D01*
X315846Y354331D02*
X319055Y357539D01*
X313714Y355840D02*
X315328D01*
X317520Y358032D02*
Y358858D01*
X315328Y355840D02*
X317520Y358032D01*
X312654Y353362D02*
Y354780D01*
X313714Y355840D01*
X312402Y353110D02*
X312654Y353362D01*
X318504Y353110D02*
Y355020D01*
X320630Y358819D02*
X320669Y358858D01*
X320630Y357146D02*
Y358819D01*
X318504Y355020D02*
X320630Y357146D01*
X324606Y353110D02*
Y355413D01*
X323819Y356201D02*
X324606Y355413D01*
X323819Y356201D02*
Y358858D01*
X327658Y353110D02*
Y354921D01*
X325433Y357146D02*
X327658Y354921D01*
X325394Y358858D02*
X325433Y358819D01*
Y357146D02*
Y358819D01*
X339823Y362205D02*
X343799D01*
X339823Y368209D02*
X343898D01*
X339921Y365256D02*
X343898D01*
X339823Y365158D02*
X339921Y365256D01*
X324606Y349646D02*
X324606Y349646D01*
Y339665D02*
Y349646D01*
Y339665D02*
X324606Y339665D01*
X327658Y349646D02*
X327756Y349547D01*
Y338090D02*
Y349547D01*
Y338090D02*
X327854Y337992D01*
X321555Y349646D02*
X321555Y349646D01*
X321555Y341634D02*
Y349646D01*
X321555Y341634D02*
X321555Y341634D01*
X312402Y346752D02*
X312402Y346752D01*
X312402Y346752D02*
Y349646D01*
X318504Y349646D02*
X318504Y349646D01*
Y343307D02*
Y349646D01*
Y343307D02*
X318504Y343307D01*
X315453Y349646D02*
X315453Y349646D01*
Y344980D02*
Y349646D01*
Y344980D02*
X315453Y344980D01*
X312402Y349646D02*
X312402Y349646D01*
X266339Y388917D02*
X273031D01*
X266339Y412992D02*
Y415492D01*
Y412992D02*
X266339Y412992D01*
Y382441D02*
Y384941D01*
X266301Y392420D02*
X266339Y392382D01*
X266301Y392420D02*
Y394821D01*
X266339Y402953D02*
Y405453D01*
X265748Y408917D02*
X273031D01*
X273031Y408917D01*
X265748Y418957D02*
X272992D01*
X273031Y418917D01*
X379724Y412598D02*
Y415197D01*
X379823Y402658D02*
Y404567D01*
X380512Y405256D01*
X379724Y392382D02*
Y394980D01*
Y382441D02*
Y384941D01*
X373031Y378917D02*
X380157D01*
X379665D02*
X379724Y378976D01*
X373031Y388917D02*
X380217D01*
X373031Y408917D02*
X380138D01*
X379646D02*
X379724Y408996D01*
X373031Y418917D02*
X380197D01*
X379705D02*
X379724Y418937D01*
X266004Y378917D02*
X273031D01*
X266535Y378976D02*
X266595Y378917D01*
X333390Y357752D02*
Y358754D01*
X331535Y353051D02*
X336358D01*
X327008Y357578D02*
X331535Y353051D01*
X327008Y357578D02*
Y358819D01*
X326969Y358858D02*
X327008Y358819D01*
X328543Y358032D02*
Y358858D01*
Y358032D02*
X331453Y355122D01*
X335393D01*
X336358Y356087D01*
Y356102D01*
X305748Y357382D02*
X305748Y357382D01*
X301378Y357382D02*
X305748D01*
X301378Y357382D02*
X301378Y357382D01*
X305748Y360433D02*
X305748Y360433D01*
X301378Y360433D02*
X305748D01*
X301378Y360433D02*
X301378Y360433D01*
X305686Y363546D02*
X305748Y363484D01*
X301416Y363546D02*
X305686D01*
X301354Y363609D02*
X301416Y363546D01*
X330610Y362500D02*
X332947D01*
X335658Y359789D01*
X335737D01*
X336358Y359168D01*
Y359154D02*
Y359168D01*
X330610Y364075D02*
X333051D01*
X334286Y362841D01*
X335737D01*
X336358Y362220D01*
Y362205D02*
Y362220D01*
X333833Y365158D02*
X336358D01*
X333341Y365650D02*
X333833Y365158D01*
X330610Y365650D02*
X333341D01*
X334079Y368209D02*
X336358D01*
X333095Y367224D02*
X334079Y368209D01*
X330610Y367224D02*
X333095D01*
X313022Y360890D02*
X315421D01*
X310170Y358037D02*
X313022Y360890D01*
X309853Y358037D02*
X310170D01*
X309232Y357416D02*
X309853Y358037D01*
X309232Y357401D02*
Y357416D01*
X312918Y362465D02*
X315421D01*
X311437Y360984D02*
X312918Y362465D01*
X309815Y360984D02*
X311437D01*
X309232Y360402D02*
X309815Y360984D01*
X309232Y363402D02*
X311905D01*
X312543Y364039D01*
X315421D01*
X355398Y418799D02*
X359398D01*
X352937Y416339D02*
X355398Y418799D01*
X300500Y418902D02*
X300500Y418902D01*
X324606Y408661D02*
Y408661D01*
X310039Y424958D02*
Y429398D01*
Y424958D02*
X311524Y423473D01*
X301000Y429402D02*
X310000D01*
X300500Y428902D02*
X301000Y429402D01*
X332396Y400807D02*
X342405D01*
X342500Y400902D01*
X328637Y404539D02*
X331000Y406902D01*
X338000D01*
X329890Y403286D02*
X331505Y404902D01*
X339500D01*
X332011Y402902D02*
X341000D01*
X331143Y402033D02*
X332011Y402902D01*
X307000Y390418D02*
X313604Y397022D01*
X315347Y370413D02*
X315421Y370339D01*
X310254Y365614D02*
X315421D01*
X309653Y406693D02*
X317714D01*
X309422Y406462D02*
X309653Y406693D01*
X309156Y406462D02*
X309422D01*
X307442Y404610D02*
X314786D01*
X316110Y403286D01*
X304000Y400902D02*
X313484D01*
X304000Y400902D02*
X304000Y400902D01*
X305821Y402831D02*
X310143D01*
X305724Y402734D02*
X305821Y402831D01*
X313484Y400902D02*
X313604Y400781D01*
X301602Y422799D02*
X306619D01*
X327385Y405792D02*
X337931Y416339D01*
X352937D01*
X338189Y419102D02*
Y424902D01*
X358464Y427866D02*
X359437Y428839D01*
X326897Y407810D02*
Y407810D01*
X326132Y407044D02*
X326897Y407810D01*
X314035Y370413D02*
X315347D01*
X309500Y390413D02*
X314857Y395770D01*
D13*
X339823Y356102D02*
D03*
X336358Y356102D02*
D03*
X301732Y366929D02*
D03*
X298268D02*
D03*
X315315Y409842D02*
D03*
X311850D02*
D03*
X332421Y386713D02*
D03*
X335886D02*
D03*
X316772Y440158D02*
D03*
X320236Y440158D02*
D03*
X301732Y370079D02*
D03*
X298268D02*
D03*
X298268Y373228D02*
D03*
X301732D02*
D03*
X298268Y376378D02*
D03*
X301732D02*
D03*
X339823Y365158D02*
D03*
X336358D02*
D03*
X339823Y368209D02*
D03*
X336358D02*
D03*
Y362205D02*
D03*
X339823D02*
D03*
X336358Y359154D02*
D03*
X339823D02*
D03*
X336358Y353051D02*
D03*
X339823D02*
D03*
X309213Y357382D02*
D03*
X305748Y357382D02*
D03*
X309213Y360433D02*
D03*
X305748D02*
D03*
X309213Y363484D02*
D03*
X305748Y363484D02*
D03*
D14*
X379724Y378976D02*
D03*
Y382441D02*
D03*
Y388917D02*
D03*
Y392382D02*
D03*
X319094Y379862D02*
D03*
Y383327D02*
D03*
X335531Y434705D02*
D03*
Y431240D02*
D03*
X327756Y421122D02*
D03*
Y417658D02*
D03*
X330906Y421122D02*
D03*
Y417658D02*
D03*
X295079Y385276D02*
D03*
Y388740D02*
D03*
X327658Y353110D02*
D03*
X327658Y349646D02*
D03*
X324606Y353110D02*
D03*
X324606Y349646D02*
D03*
X321555Y353110D02*
D03*
X321555Y349646D02*
D03*
X318504Y353110D02*
D03*
X318504Y349646D02*
D03*
X315453Y353110D02*
D03*
X315453Y349646D02*
D03*
X312402Y353110D02*
D03*
X312402Y349646D02*
D03*
X379724Y405256D02*
D03*
Y408720D02*
D03*
Y415197D02*
D03*
Y418661D02*
D03*
X266339Y415492D02*
D03*
X266339Y418957D02*
D03*
Y405453D02*
D03*
Y408917D02*
D03*
Y392382D02*
D03*
Y388917D02*
D03*
Y382441D02*
D03*
X266338Y378976D02*
D03*
X315846Y379862D02*
D03*
X315846Y383327D02*
D03*
D15*
X326476Y427461D02*
D03*
Y434941D02*
D03*
X316634Y427461D02*
D03*
X316634Y431201D02*
D03*
X316634Y434941D02*
D03*
D16*
X344488Y383661D02*
D03*
Y388386D02*
D03*
X331299Y434842D02*
D03*
Y430118D02*
D03*
D17*
X323031Y366437D02*
D03*
D18*
X315453Y360925D02*
D03*
Y362500D02*
D03*
Y364075D02*
D03*
Y365650D02*
D03*
Y367224D02*
D03*
Y368799D02*
D03*
Y370374D02*
D03*
Y371949D02*
D03*
X330610D02*
D03*
Y370374D02*
D03*
Y368799D02*
D03*
Y367224D02*
D03*
Y365650D02*
D03*
Y364075D02*
D03*
Y362500D02*
D03*
Y360925D02*
D03*
D19*
X317520Y374016D02*
D03*
X319094D02*
D03*
X320669D02*
D03*
X322244D02*
D03*
X323819D02*
D03*
X325394D02*
D03*
X326969D02*
D03*
X328543D02*
D03*
Y358858D02*
D03*
X326969D02*
D03*
X325394D02*
D03*
X323819D02*
D03*
X322244D02*
D03*
X320669D02*
D03*
X319094D02*
D03*
X317520D02*
D03*
D20*
X282579Y385138D02*
D03*
X290846Y388878D02*
D03*
Y381398D02*
D03*
D21*
X345453Y433858D02*
D03*
X360453D02*
D03*
X345453Y428858D02*
D03*
X360453D02*
D03*
X345453Y423858D02*
D03*
X360453D02*
D03*
X345453Y418858D02*
D03*
X360453D02*
D03*
X345453Y413858D02*
D03*
X360453D02*
D03*
X345453Y408858D02*
D03*
X360453D02*
D03*
X285512Y433858D02*
D03*
X300512D02*
D03*
X285512Y428858D02*
D03*
X300512D02*
D03*
X285512Y423858D02*
D03*
X300512D02*
D03*
X285512Y418858D02*
D03*
X300512D02*
D03*
X285512Y413858D02*
D03*
X300512D02*
D03*
X285512Y408858D02*
D03*
X300512D02*
D03*
D22*
X323721Y421161D02*
D03*
Y416437D02*
D03*
D23*
X323031Y398917D02*
D03*
D24*
X321152Y389522D02*
D03*
X319900Y390774D02*
D03*
X318647Y392027D02*
D03*
X317394Y393280D02*
D03*
X316141Y394533D02*
D03*
X314889Y395785D02*
D03*
X313636Y397038D02*
D03*
X324911Y408313D02*
D03*
X326163Y407060D02*
D03*
X327416Y405807D02*
D03*
X328669Y404555D02*
D03*
X329922Y403302D02*
D03*
X331174Y402049D02*
D03*
X332427Y400796D02*
D03*
D25*
X313636D02*
D03*
X314889Y402049D02*
D03*
X316141Y403302D02*
D03*
X317394Y404555D02*
D03*
X318647Y405807D02*
D03*
X319900Y407060D02*
D03*
X321152Y408313D02*
D03*
X332427Y397038D02*
D03*
X331174Y395785D02*
D03*
X329922Y394533D02*
D03*
X328669Y393280D02*
D03*
X327416Y392027D02*
D03*
X326163Y390774D02*
D03*
X324911Y389522D02*
D03*
D26*
X337500Y391634D02*
D03*
D27*
X310039Y433398D02*
D03*
Y429398D02*
D03*
D52*
X329784Y447342D02*
X329803Y447362D01*
Y458642D01*
X329823Y458661D01*
X319803Y447342D02*
X329784D01*
X319783D02*
X319803D01*
Y458642D01*
Y447244D02*
Y447342D01*
Y458642D02*
X319823Y458661D01*
X319783Y447224D02*
X319803Y447244D01*
X316772Y440236D02*
Y444213D01*
X319783Y447224D02*
Y447342D01*
X316772Y444213D02*
X319783Y447224D01*
D53*
X316772Y440158D02*
Y440236D01*
X316703Y440089D02*
X316772Y440158D01*
X316703Y435010D02*
Y440089D01*
X316634Y434941D02*
X316703Y435010D01*
X316142Y434941D02*
X316634D01*
X314069Y432868D02*
X316142Y434941D01*
X314069Y429534D02*
Y432868D01*
Y429534D02*
X316142Y427461D01*
X316634D01*
X319094Y374016D02*
Y379862D01*
D54*
X343465Y382638D02*
X344488Y383661D01*
X324626Y382638D02*
X343465D01*
X321831Y379842D02*
X324626Y382638D01*
X344488Y383661D02*
X348228Y383465D01*
X319094Y379862D02*
Y380512D01*
Y379862D02*
X319114Y379842D01*
X321831D01*
X321850Y379823D01*
D55*
X323008Y398894D02*
X325823Y396079D01*
X317363Y404539D02*
X317371Y404531D01*
D56*
X309823Y458661D02*
D03*
X319823D02*
D03*
X329823D02*
D03*
X309784Y447342D02*
D03*
X319783D02*
D03*
X329784D02*
D03*
D57*
X339823Y458661D02*
D03*
X339784Y447342D02*
D03*
D58*
X353031Y353917D02*
D03*
X293032D02*
D03*
Y443917D02*
D03*
X353031D02*
D03*
D59*
X373031Y398917D02*
D03*
X273031Y378917D02*
D03*
Y408917D02*
D03*
X373031Y388917D02*
D03*
Y408917D02*
D03*
X273031Y418917D02*
D03*
X373031D02*
D03*
X273031Y398917D02*
D03*
Y388917D02*
D03*
X373031Y378917D02*
D03*
D60*
X324705Y465748D02*
D03*
X349311Y360925D02*
D03*
X338090Y371850D02*
D03*
X282087Y371752D02*
D03*
X298228Y396063D02*
D03*
X284547D02*
D03*
X356299Y389173D02*
D03*
X367913Y350295D02*
D03*
X266339Y433268D02*
D03*
X277953Y446850D02*
D03*
X295472Y457087D02*
D03*
X350098Y457776D02*
D03*
X370472Y440354D02*
D03*
X381594Y423917D02*
D03*
X379429Y365158D02*
D03*
X342323Y336713D02*
D03*
X322933Y333661D02*
D03*
X301870Y336417D02*
D03*
X303839Y351378D02*
D03*
X261417Y369882D02*
D03*
X257382Y410433D02*
D03*
X257480Y388583D02*
D03*
X270472Y357776D02*
D03*
X285236Y357283D02*
D03*
D61*
X348228Y383465D02*
D03*
X319587Y431201D02*
D03*
X322441Y440256D02*
D03*
X338484Y435532D02*
D03*
Y433465D02*
D03*
X330906Y423917D02*
D03*
X327756Y424016D02*
D03*
X323721D02*
D03*
X310531Y436614D02*
D03*
X296161Y381693D02*
D03*
X316929Y376870D02*
D03*
X330315Y384842D02*
D03*
X360630Y437402D02*
D03*
X393237Y447268D02*
D03*
X281693Y324213D02*
D03*
X309646Y409842D02*
D03*
X295457Y373074D02*
D03*
X295571Y376378D02*
D03*
X354035Y410138D02*
D03*
X314272Y412500D02*
D03*
X320472Y415846D02*
D03*
X340846Y388386D02*
D03*
X313287Y383366D02*
D03*
X304429Y373524D02*
D03*
X304528Y376378D02*
D03*
X295965Y366929D02*
D03*
Y370079D02*
D03*
X354260Y413934D02*
D03*
X351672Y408697D02*
D03*
X351644Y433803D02*
D03*
X351613Y423778D02*
D03*
X354232Y422244D02*
D03*
X330709Y414665D02*
D03*
X306988Y414370D02*
D03*
X338287Y386713D02*
D03*
X333661Y390354D02*
D03*
X309500Y375005D02*
D03*
X327551Y412098D02*
D03*
X307185Y410728D02*
D03*
X325000Y431890D02*
D03*
X309744Y422736D02*
D03*
X307382Y394587D02*
D03*
X313878Y389272D02*
D03*
X328113Y386319D02*
D03*
X359646Y371555D02*
D03*
X356545D02*
D03*
X353445D02*
D03*
X362992Y326575D02*
D03*
X378642Y334252D02*
D03*
X333563Y357579D02*
D03*
X311319Y367717D02*
D03*
X311516Y370472D02*
D03*
X352102Y418799D02*
D03*
X381496Y459842D02*
D03*
X294882Y478346D02*
D03*
X311910Y482480D02*
D03*
X367126Y470571D02*
D03*
X278937D02*
D03*
X351181Y477953D02*
D03*
X264665Y459842D02*
D03*
X299114Y479724D02*
D03*
X240059Y414075D02*
D03*
X282874Y472835D02*
D03*
X238681Y396555D02*
D03*
X268307Y462795D02*
D03*
X240846Y379626D02*
D03*
X255906Y450098D02*
D03*
X246949Y362500D02*
D03*
X238583Y401083D02*
D03*
X239961Y384055D02*
D03*
X299016Y318209D02*
D03*
X245276Y367028D02*
D03*
X316339Y314862D02*
D03*
X253051Y351378D02*
D03*
X334055Y315354D02*
D03*
X294587Y319587D02*
D03*
X381004Y337894D02*
D03*
X311811Y315059D02*
D03*
X392618Y351279D02*
D03*
X329626Y314961D02*
D03*
X400787Y366831D02*
D03*
X346654Y318012D02*
D03*
X405807Y383465D02*
D03*
X405217Y379724D02*
D03*
X390059Y347539D02*
D03*
X406962Y396689D02*
D03*
X399114Y434842D02*
D03*
X399311Y362303D02*
D03*
X390059Y450000D02*
D03*
X378051Y463091D02*
D03*
X362992Y473228D02*
D03*
X343575Y353088D02*
D03*
X343711Y356132D02*
D03*
X343779Y359227D02*
D03*
X291437Y408858D02*
D03*
X343799Y362205D02*
D03*
X343898Y368209D02*
D03*
Y365256D02*
D03*
X327854Y337992D02*
D03*
X324606Y339665D02*
D03*
X312402Y346752D02*
D03*
X321555Y341634D02*
D03*
X318504Y343307D02*
D03*
X315453Y344980D02*
D03*
X266339Y412992D02*
D03*
Y384941D02*
D03*
X266301Y394821D02*
D03*
X266339Y402953D02*
D03*
X379724Y412598D02*
D03*
X379823Y402658D02*
D03*
X379724Y394980D02*
D03*
Y384941D02*
D03*
X301354Y357382D02*
D03*
Y360433D02*
D03*
Y363609D02*
D03*
X307000Y418902D02*
D03*
X338000Y406902D02*
D03*
X339500Y404902D02*
D03*
X341000Y402902D02*
D03*
X342500Y400902D02*
D03*
X311500Y376402D02*
D03*
X309156Y406462D02*
D03*
X307442Y404610D02*
D03*
X304000Y400902D02*
D03*
X305724Y402734D02*
D03*
X291500Y433902D02*
D03*
Y428902D02*
D03*
Y423902D02*
D03*
Y418902D02*
D03*
Y413902D02*
D03*
D62*
X398524Y323721D02*
D03*
X247539Y323524D02*
D03*
X247441Y474508D02*
D03*
X398425Y474213D02*
D03*
D63*
X337500Y391634D02*
D03*
D64*
X325197Y368602D02*
D03*
Y364272D02*
D03*
X320866Y368602D02*
D03*
Y364272D02*
D03*
D65*
X323031Y402258D02*
D03*
X326372Y398917D02*
D03*
X319691D02*
D03*
X323031Y395577D02*
D03*
M02*
