G04*
G04 #@! TF.GenerationSoftware,Altium Limited,Altium Designer,20.0.9 (164)*
G04*
G04 Layer_Physical_Order=4*
G04 Layer_Color=16711680*
%FSLAX25Y25*%
%MOIN*%
G70*
G01*
G75*
%ADD12C,0.00787*%
%ADD57C,0.09449*%
%ADD58C,0.08661*%
%ADD59C,0.05906*%
%ADD60R,0.05906X0.05906*%
%ADD61C,0.01772*%
%ADD62C,0.23622*%
%ADD63C,0.02362*%
%ADD64C,0.02756*%
%ADD65C,0.01968*%
%ADD66C,0.02598*%
%ADD68C,0.00787*%
G04:AMPARAMS|DCode=69|XSize=55.12mil|YSize=19.68mil|CornerRadius=0mil|HoleSize=0mil|Usage=FLASHONLY|Rotation=198.000|XOffset=0mil|YOffset=0mil|HoleType=Round|Shape=Rectangle|*
%AMROTATEDRECTD69*
4,1,4,0.02317,0.01788,0.02925,-0.00084,-0.02317,-0.01788,-0.02925,0.00084,0.02317,0.01788,0.0*
%
%ADD69ROTATEDRECTD69*%

G04:AMPARAMS|DCode=70|XSize=55.12mil|YSize=19.68mil|CornerRadius=0mil|HoleSize=0mil|Usage=FLASHONLY|Rotation=210.000|XOffset=0mil|YOffset=0mil|HoleType=Round|Shape=Rectangle|*
%AMROTATEDRECTD70*
4,1,4,0.01895,0.02230,0.02879,0.00526,-0.01895,-0.02230,-0.02879,-0.00526,0.01895,0.02230,0.0*
%
%ADD70ROTATEDRECTD70*%

G04:AMPARAMS|DCode=71|XSize=55.12mil|YSize=19.68mil|CornerRadius=0mil|HoleSize=0mil|Usage=FLASHONLY|Rotation=222.000|XOffset=0mil|YOffset=0mil|HoleType=Round|Shape=Rectangle|*
%AMROTATEDRECTD71*
4,1,4,0.01390,0.02576,0.02707,0.01113,-0.01390,-0.02576,-0.02707,-0.01113,0.01390,0.02576,0.0*
%
%ADD71ROTATEDRECTD71*%

G04:AMPARAMS|DCode=72|XSize=55.12mil|YSize=19.68mil|CornerRadius=0mil|HoleSize=0mil|Usage=FLASHONLY|Rotation=234.000|XOffset=0mil|YOffset=0mil|HoleType=Round|Shape=Rectangle|*
%AMROTATEDRECTD72*
4,1,4,0.00824,0.02808,0.02416,0.01651,-0.00824,-0.02808,-0.02416,-0.01651,0.00824,0.02808,0.0*
%
%ADD72ROTATEDRECTD72*%

G04:AMPARAMS|DCode=73|XSize=55.12mil|YSize=19.68mil|CornerRadius=0mil|HoleSize=0mil|Usage=FLASHONLY|Rotation=246.000|XOffset=0mil|YOffset=0mil|HoleType=Round|Shape=Rectangle|*
%AMROTATEDRECTD73*
4,1,4,0.00222,0.02918,0.02020,0.02117,-0.00222,-0.02918,-0.02020,-0.02117,0.00222,0.02918,0.0*
%
%ADD73ROTATEDRECTD73*%

G04:AMPARAMS|DCode=74|XSize=55.12mil|YSize=19.68mil|CornerRadius=0mil|HoleSize=0mil|Usage=FLASHONLY|Rotation=258.000|XOffset=0mil|YOffset=0mil|HoleType=Round|Shape=Rectangle|*
%AMROTATEDRECTD74*
4,1,4,-0.00390,0.02900,0.01536,0.02491,0.00390,-0.02900,-0.01536,-0.02491,-0.00390,0.02900,0.0*
%
%ADD74ROTATEDRECTD74*%

G04:AMPARAMS|DCode=75|XSize=55.12mil|YSize=19.68mil|CornerRadius=0mil|HoleSize=0mil|Usage=FLASHONLY|Rotation=126.000|XOffset=0mil|YOffset=0mil|HoleType=Round|Shape=Rectangle|*
%AMROTATEDRECTD75*
4,1,4,0.02416,-0.01651,0.00824,-0.02808,-0.02416,0.01651,-0.00824,0.02808,0.02416,-0.01651,0.0*
%
%ADD75ROTATEDRECTD75*%

G04:AMPARAMS|DCode=76|XSize=55.12mil|YSize=19.68mil|CornerRadius=0mil|HoleSize=0mil|Usage=FLASHONLY|Rotation=138.000|XOffset=0mil|YOffset=0mil|HoleType=Round|Shape=Rectangle|*
%AMROTATEDRECTD76*
4,1,4,0.02707,-0.01113,0.01390,-0.02576,-0.02707,0.01113,-0.01390,0.02576,0.02707,-0.01113,0.0*
%
%ADD76ROTATEDRECTD76*%

G04:AMPARAMS|DCode=77|XSize=55.12mil|YSize=19.68mil|CornerRadius=0mil|HoleSize=0mil|Usage=FLASHONLY|Rotation=150.000|XOffset=0mil|YOffset=0mil|HoleType=Round|Shape=Rectangle|*
%AMROTATEDRECTD77*
4,1,4,0.02879,-0.00526,0.01895,-0.02230,-0.02879,0.00526,-0.01895,0.02230,0.02879,-0.00526,0.0*
%
%ADD77ROTATEDRECTD77*%

G04:AMPARAMS|DCode=78|XSize=55.12mil|YSize=19.68mil|CornerRadius=0mil|HoleSize=0mil|Usage=FLASHONLY|Rotation=162.000|XOffset=0mil|YOffset=0mil|HoleType=Round|Shape=Rectangle|*
%AMROTATEDRECTD78*
4,1,4,0.02925,0.00084,0.02317,-0.01788,-0.02925,-0.00084,-0.02317,0.01788,0.02925,0.00084,0.0*
%
%ADD78ROTATEDRECTD78*%

G04:AMPARAMS|DCode=79|XSize=55.12mil|YSize=19.68mil|CornerRadius=0mil|HoleSize=0mil|Usage=FLASHONLY|Rotation=174.000|XOffset=0mil|YOffset=0mil|HoleType=Round|Shape=Rectangle|*
%AMROTATEDRECTD79*
4,1,4,0.02844,0.00691,0.02638,-0.01267,-0.02844,-0.00691,-0.02638,0.01267,0.02844,0.00691,0.0*
%
%ADD79ROTATEDRECTD79*%

G04:AMPARAMS|DCode=80|XSize=55.12mil|YSize=19.68mil|CornerRadius=0mil|HoleSize=0mil|Usage=FLASHONLY|Rotation=186.000|XOffset=0mil|YOffset=0mil|HoleType=Round|Shape=Rectangle|*
%AMROTATEDRECTD80*
4,1,4,0.02638,0.01267,0.02844,-0.00691,-0.02638,-0.01267,-0.02844,0.00691,0.02638,0.01267,0.0*
%
%ADD80ROTATEDRECTD80*%

%ADD81R,0.01968X0.05512*%
G04:AMPARAMS|DCode=82|XSize=55.12mil|YSize=19.68mil|CornerRadius=0mil|HoleSize=0mil|Usage=FLASHONLY|Rotation=102.000|XOffset=0mil|YOffset=0mil|HoleType=Round|Shape=Rectangle|*
%AMROTATEDRECTD82*
4,1,4,0.01536,-0.02491,-0.00390,-0.02900,-0.01536,0.02491,0.00390,0.02900,0.01536,-0.02491,0.0*
%
%ADD82ROTATEDRECTD82*%

G04:AMPARAMS|DCode=83|XSize=55.12mil|YSize=19.68mil|CornerRadius=0mil|HoleSize=0mil|Usage=FLASHONLY|Rotation=114.000|XOffset=0mil|YOffset=0mil|HoleType=Round|Shape=Rectangle|*
%AMROTATEDRECTD83*
4,1,4,0.02020,-0.02117,0.00222,-0.02918,-0.02020,0.02117,-0.00222,0.02918,0.02020,-0.02117,0.0*
%
%ADD83ROTATEDRECTD83*%

G36*
X335098Y479121D02*
Y479121D01*
X337806Y478545D01*
Y478545D01*
X339462Y478193D01*
X341271Y477808D01*
X343081Y477424D01*
X344737Y477072D01*
X344737Y477072D01*
X346242Y477601D01*
X349438Y474989D01*
X349298Y473713D01*
X348909Y472880D01*
X344983Y471776D01*
X343840Y472848D01*
Y472848D01*
X341131Y473423D01*
Y473423D01*
X337666Y474160D01*
Y474160D01*
X335740Y474569D01*
X334200Y474897D01*
X332887Y468723D01*
X335153Y468241D01*
X335309Y467781D01*
X335313Y467775D01*
X335317Y467751D01*
X335332Y467675D01*
X335683Y467150D01*
X335921Y466991D01*
X335988Y466929D01*
X338832Y465181D01*
X338835Y465180D01*
X338894Y465134D01*
X339569Y464854D01*
X339690Y464838D01*
X339714Y464828D01*
X341646Y464418D01*
X341710Y464417D01*
X342219Y464350D01*
X342944Y464445D01*
X343022Y464477D01*
X343029Y464478D01*
X346683Y465587D01*
X347171Y465033D01*
Y465033D01*
X349288Y464091D01*
X349344Y463608D01*
X349344Y463608D01*
X349372Y463522D01*
X349441Y463176D01*
X349442Y463174D01*
X349792Y462650D01*
X349826Y462628D01*
X349831Y462634D01*
X352250Y460332D01*
Y460332D01*
X352774Y459930D01*
X352973Y459848D01*
X353034Y459807D01*
X353855Y459441D01*
X354837Y459004D01*
X354921Y458985D01*
X355247Y458850D01*
X355972Y458754D01*
X356180Y458782D01*
X356241Y458776D01*
X360079Y459148D01*
X360424Y458543D01*
Y458543D01*
X362298Y457182D01*
X362253Y456697D01*
X362256Y456674D01*
X362231Y456549D01*
X362354Y455930D01*
X362494Y455720D01*
X362527Y455643D01*
X364414Y452889D01*
X364472Y452832D01*
X364737Y452487D01*
X365012Y452276D01*
X365071Y452212D01*
X366669Y451052D01*
X366729Y451024D01*
X366909Y450885D01*
X367584Y450606D01*
X367927Y450561D01*
X368009Y450535D01*
X370463Y450270D01*
X372101Y449470D01*
X372101D01*
X372101D01*
X373651Y447749D01*
X373506Y447284D01*
Y447284D01*
X373498Y447212D01*
X373498Y447211D01*
X373418Y446807D01*
X373541Y446190D01*
X374306Y444376D01*
X374828Y443110D01*
X374872Y443043D01*
X374984Y442775D01*
X375298Y442365D01*
X375330Y442311D01*
X376651Y440844D01*
X376672Y440829D01*
X376746Y440732D01*
X377325Y440287D01*
X377764Y440106D01*
X377828Y440069D01*
X381469Y438833D01*
X381539Y438123D01*
Y438123D01*
X382697Y436116D01*
X382459Y435692D01*
X382447Y435654D01*
X382362Y435527D01*
X382238Y434907D01*
X382281Y434691D01*
X382280Y434618D01*
X382722Y432214D01*
X382722Y432214D01*
X382722Y432214D01*
X382884Y431334D01*
X382903Y431281D01*
X382925Y431114D01*
X383205Y430440D01*
X383205Y430440D01*
X383216Y430437D01*
X383988Y429086D01*
X384189Y428735D01*
X384189Y428735D01*
X384634Y428155D01*
X385201Y427720D01*
X385554Y427521D01*
X385554Y427521D01*
X387209Y426553D01*
X388453Y425100D01*
X388113Y423272D01*
X384356Y419515D01*
X384181Y419253D01*
X384119Y418943D01*
X384119Y418943D01*
Y380157D01*
X372980Y369018D01*
X361804D01*
X361456Y369480D01*
X360932Y370986D01*
X360951Y371014D01*
X361059Y371555D01*
X360951Y372096D01*
X360951D01*
X360645Y372554D01*
X360645D01*
X360186Y372861D01*
X360186D01*
X359646Y372968D01*
X359102Y372891D01*
X358673Y372860D01*
X356922Y372894D01*
X356545Y372968D01*
X356372Y372934D01*
X356372D01*
X356239Y372907D01*
X355528Y372857D01*
X353992Y372860D01*
X353445Y372968D01*
X352904Y372861D01*
X352904Y372861D01*
X352904Y372861D01*
X352446Y372554D01*
X352446Y372554D01*
X352139Y372096D01*
X352032Y371555D01*
X352032Y371555D01*
X352139Y371014D01*
X352139Y371014D01*
X352158Y370986D01*
X351635Y369480D01*
X351286Y369018D01*
X346923D01*
X346923Y369018D01*
Y369018D01*
X345024D01*
X344897Y369208D01*
X344897Y369208D01*
X344897Y369208D01*
X344438Y369514D01*
X344438D01*
X343898Y369622D01*
X343898Y369622D01*
X343357Y369514D01*
X343357Y369514D01*
X342899Y369208D01*
X342899Y369208D01*
Y369208D01*
X342592Y368749D01*
X342592Y368749D01*
X342592Y368749D01*
X342485Y368209D01*
X342485Y368209D01*
X342592Y367668D01*
X342599Y366732D01*
X342592Y365797D01*
X342543Y365549D01*
X342485Y365256D01*
X342592Y364715D01*
Y364715D01*
D01*
X342586Y362883D01*
X342494Y362745D01*
X342386Y362205D01*
X342494Y361664D01*
X342494Y361664D01*
X342800Y361199D01*
X342780Y360226D01*
X342474Y359768D01*
X342366Y359227D01*
X342474Y358686D01*
X342775Y358146D01*
X342712Y357132D01*
X342406Y356673D01*
X342298Y356132D01*
X342406Y355591D01*
X342406Y355591D01*
X342699Y355033D01*
X342576Y354087D01*
X342270Y353629D01*
X342162Y353088D01*
X342270Y352547D01*
X342576Y352089D01*
X342766Y351962D01*
Y351202D01*
X342766Y351202D01*
X342828Y350893D01*
X343003Y350630D01*
X351784Y341849D01*
X351784Y341849D01*
X352046Y341674D01*
X352356Y341612D01*
X358488D01*
X360459Y339640D01*
X360424Y339193D01*
Y339193D01*
X364134Y334087D01*
X364665Y334472D01*
X365467Y334820D01*
X366228Y334459D01*
X366595Y332107D01*
X366161Y331701D01*
X366153Y331690D01*
X366142Y331682D01*
X365865Y331406D01*
X365842Y331371D01*
X365810Y331344D01*
X363068Y327973D01*
X362992Y327988D01*
X362992Y327988D01*
X362451Y327880D01*
X362451Y327880D01*
X362305Y327782D01*
X360498Y327000D01*
X358836Y326260D01*
X357969Y325874D01*
X357969Y325874D01*
X354732Y324433D01*
X354732Y324433D01*
X353157Y323732D01*
X351495Y322992D01*
X351495D01*
X350061Y321701D01*
X346565Y321892D01*
X346123Y322443D01*
X345925Y322888D01*
X345735Y323909D01*
X348051Y327112D01*
X349738Y326937D01*
X349738Y326937D01*
X352268Y328063D01*
X352268Y328063D01*
X354066Y328863D01*
X355504Y329504D01*
X355504Y329504D01*
X358741Y330945D01*
X356174Y336711D01*
X354362Y335905D01*
X354058Y335769D01*
X353663Y336048D01*
X353595Y336079D01*
X353464Y336165D01*
X353354Y336237D01*
X352734Y336360D01*
X352622Y336338D01*
X352608Y336340D01*
X349288Y336083D01*
X349211Y336062D01*
X348773Y336004D01*
X348448Y335870D01*
X348364Y335850D01*
X346563Y335049D01*
X346509Y335011D01*
X346300Y334924D01*
X345720Y334479D01*
X345275Y333899D01*
X345238Y333810D01*
X345230Y333799D01*
X344622Y332644D01*
X344257Y331952D01*
X342527Y331259D01*
X341877Y331121D01*
X339939Y331131D01*
X339898Y331192D01*
X339373Y331543D01*
X339373Y331543D01*
X339048Y331608D01*
X338962Y331637D01*
X338962Y331637D01*
X338213Y331737D01*
X335657Y332077D01*
X335577Y332072D01*
X335287Y332110D01*
X334768Y332042D01*
X334712Y332042D01*
X334712Y332042D01*
X334708Y332040D01*
X334703Y332040D01*
X332782Y331631D01*
X332758Y331621D01*
X332638Y331605D01*
X331962Y331326D01*
X331557Y331015D01*
X331502Y330982D01*
X328580Y328370D01*
X327959Y328648D01*
Y328648D01*
X325642D01*
X325396Y329063D01*
X325396Y329063D01*
X325335Y329132D01*
X325160Y329393D01*
X325160Y329393D01*
X324635Y329743D01*
X324548Y329761D01*
X322832Y330370D01*
X322250Y330577D01*
X322250Y330577D01*
X322250Y330577D01*
X321413Y330875D01*
X321356Y330886D01*
X321197Y330951D01*
X320472Y331047D01*
X318892Y331038D01*
X318504Y331047D01*
X317780Y330951D01*
X317105Y330672D01*
X317105Y330672D01*
X317103Y330671D01*
X317103Y330670D01*
X316768Y330476D01*
X315516Y329749D01*
X313720Y328715D01*
X313176Y329112D01*
X313176Y329112D01*
X310883Y329599D01*
X310781Y329966D01*
X310761Y330004D01*
X310731Y330160D01*
X310380Y330685D01*
X310138Y330846D01*
X310072Y330908D01*
X307234Y332652D01*
X307230Y332653D01*
X307169Y332701D01*
X306494Y332980D01*
X306371Y332997D01*
X306347Y333007D01*
X305735Y333137D01*
X304425Y333415D01*
X304367Y333416D01*
X303844Y333485D01*
X303119Y333390D01*
X303046Y333359D01*
X303041Y333359D01*
X299290Y332237D01*
X298793Y332801D01*
Y332801D01*
X296677Y333744D01*
X296621Y334223D01*
X296621Y334223D01*
X296594Y334306D01*
X296524Y334659D01*
X296523Y334660D01*
X296173Y335184D01*
X296134Y335210D01*
X294720Y336546D01*
X293720Y337497D01*
X293720Y337498D01*
X293191Y337905D01*
X292986Y337989D01*
X292924Y338031D01*
X292910Y338037D01*
X293328Y340006D01*
X308444D01*
X311136Y337314D01*
X311399Y337138D01*
X311708Y337077D01*
X311708Y337077D01*
X324780D01*
X324780Y337076D01*
Y337077D01*
X326799D01*
X326855Y336993D01*
X326855Y336993D01*
X327314Y336687D01*
X327854Y336579D01*
X328395Y336687D01*
X328395D01*
X328854Y336993D01*
X329160Y337451D01*
X329160Y337451D01*
X329267Y337992D01*
X329160Y338533D01*
X328854Y338991D01*
Y338991D01*
X328395Y339298D01*
X328395Y339298D01*
X327854Y339405D01*
X326950Y339533D01*
X325954Y340179D01*
X325754Y340442D01*
X325605Y340664D01*
Y340665D01*
X325147Y340971D01*
X324606Y341078D01*
X323625Y341411D01*
X322861Y342175D01*
X322554Y342633D01*
X322096Y342939D01*
X321713Y343015D01*
X321555Y343047D01*
X321555D01*
X320689Y343184D01*
X319809Y343848D01*
X319503Y344306D01*
Y344306D01*
X319045Y344613D01*
X318662Y344689D01*
X318504Y344720D01*
X318504D01*
X317638Y344858D01*
X316758Y345521D01*
X316452Y345979D01*
Y345979D01*
X315993Y346286D01*
X315453Y346393D01*
X314546Y346592D01*
X313707Y347293D01*
X313401Y347751D01*
X313401Y347751D01*
X313401Y347751D01*
X312942Y348057D01*
X312402Y348165D01*
X312402Y348165D01*
X311861Y348057D01*
X311861Y348057D01*
X311402Y347751D01*
X311276Y347561D01*
X296684D01*
X295720Y349322D01*
X295731Y349530D01*
X296686Y350263D01*
X297508Y351333D01*
X298024Y352580D01*
X298200Y353917D01*
X298024Y355255D01*
X297508Y356502D01*
X296848Y357362D01*
X296962Y358316D01*
X297403Y359503D01*
X297982Y359633D01*
X298961Y358654D01*
X299989Y357626D01*
X299941Y357382D01*
X299941Y357382D01*
X299941Y357382D01*
X299967Y357252D01*
X300048Y356841D01*
X300048Y356841D01*
X300355Y356383D01*
X300813Y356077D01*
X300813Y356077D01*
X301354Y355969D01*
X301354Y355969D01*
X301894Y356077D01*
X302353Y356383D01*
X302353Y356383D01*
X302659Y356841D01*
X302659Y356841D01*
X302767Y357382D01*
X302659Y357923D01*
X302353Y358405D01*
Y359410D01*
X302659Y359892D01*
X302659Y359892D01*
X302693Y360064D01*
X302767Y360433D01*
X302659Y360974D01*
X302353Y361506D01*
Y362535D01*
X302659Y363068D01*
X302767Y363609D01*
X302767Y363609D01*
X302659Y364149D01*
X302659Y364149D01*
X302353Y364608D01*
X301894Y364914D01*
X301894Y364914D01*
X301354Y365022D01*
X301354Y365021D01*
X300813Y364914D01*
X300355Y364608D01*
X300355Y364608D01*
X298442Y364418D01*
X276699D01*
X263998Y377119D01*
Y436405D01*
X263998Y436405D01*
X263984Y436476D01*
X264524Y438221D01*
X266033Y439331D01*
X268286Y440053D01*
X268332Y440079D01*
X268836Y440287D01*
X269416Y440732D01*
X269490Y440829D01*
X269510Y440844D01*
X270828Y442307D01*
X270858Y442358D01*
X271178Y442775D01*
X271290Y443045D01*
X271334Y443112D01*
X272607Y446196D01*
X272621Y446190D01*
X272743Y446807D01*
X272662Y447218D01*
X272662Y447219D01*
X272654Y447287D01*
X272654Y447287D01*
X272511Y447749D01*
X274061Y449470D01*
X274061Y449470D01*
X274061Y449470D01*
X275778Y450076D01*
X277481Y450190D01*
X277553Y450209D01*
X278018Y450271D01*
X278691Y450550D01*
X278873Y450689D01*
X278933Y450717D01*
X280987Y452209D01*
X281046Y452272D01*
X281326Y452487D01*
X281594Y452837D01*
X281651Y452893D01*
X283536Y455643D01*
X283569Y455720D01*
X283709Y455930D01*
X283832Y456549D01*
X283807Y456675D01*
X283809Y456699D01*
X283765Y457182D01*
X285639Y458543D01*
X287366Y459139D01*
X289679Y458793D01*
X289764Y458798D01*
X290091Y458754D01*
X290816Y458850D01*
X291136Y458983D01*
X291221Y459002D01*
X294082Y460275D01*
X294082Y460275D01*
X294082Y460276D01*
X294083Y460276D01*
X294136Y460314D01*
X294343Y460399D01*
X294921Y460843D01*
X295133Y461118D01*
X295196Y461176D01*
X296420Y462848D01*
X296459Y462931D01*
X296622Y463176D01*
X296692Y463528D01*
X296719Y463611D01*
X296776Y464091D01*
X298243Y464745D01*
X298892Y465033D01*
X300697Y465560D01*
X302537Y464584D01*
X302566Y464576D01*
X303119Y464347D01*
X303844Y464251D01*
X304365Y464320D01*
X304424Y464321D01*
X306353Y464731D01*
X306376Y464740D01*
X306494Y464756D01*
X307169Y465035D01*
X307228Y465081D01*
X307231Y465082D01*
X310075Y466830D01*
X310142Y466892D01*
X310380Y467052D01*
X310731Y467577D01*
X310751Y467677D01*
X310754Y467684D01*
X310910Y468143D01*
X313176Y468625D01*
X313176Y468625D01*
X313752Y469049D01*
X316769Y467360D01*
X316769Y467360D01*
X316769Y467360D01*
X317139Y467148D01*
X317780Y466883D01*
X318504Y466788D01*
X318931Y466796D01*
X318931Y466796D01*
X318931Y466796D01*
X320472Y466788D01*
X321197Y466883D01*
X321352Y466948D01*
X321408Y466958D01*
X322250Y467257D01*
X322250Y467257D01*
X322250Y467257D01*
X322250Y467257D01*
X324553Y468076D01*
X324553Y468075D01*
X324635Y468091D01*
X325160Y468442D01*
X325160Y468442D01*
X325333Y468701D01*
X325395Y468770D01*
X325395Y468770D01*
X325642Y469187D01*
X325976Y469187D01*
X327959D01*
Y475498D01*
X326384D01*
X325191Y475498D01*
Y475498D01*
X324416D01*
Y475498D01*
X322841D01*
X321647Y475498D01*
Y475498D01*
X320872D01*
Y475498D01*
X318238D01*
X318123Y477467D01*
X327982Y478619D01*
X328039Y478638D01*
X328099Y478642D01*
X333934Y480222D01*
X335098Y479121D01*
D02*
G37*
G36*
X255652Y440177D02*
X255517Y439850D01*
X255495Y439684D01*
X255476Y439630D01*
X255313Y438743D01*
X254872Y436347D01*
X254873Y436273D01*
X254830Y436057D01*
X254953Y435438D01*
X255076Y435254D01*
X255103Y435186D01*
X255304Y434875D01*
X254130Y432842D01*
X259597Y429686D01*
X259919Y427809D01*
Y378320D01*
X257951Y377650D01*
X256675Y379307D01*
X256640Y379338D01*
X256548Y379476D01*
X256023Y379827D01*
X255815Y379868D01*
X255752Y379896D01*
X255281Y380002D01*
X254565Y382206D01*
X254565Y382206D01*
X254112Y382707D01*
X255638Y386157D01*
X255657Y386241D01*
X255790Y386561D01*
X255885Y387286D01*
X255855Y387514D01*
X255861Y387580D01*
X255656Y389532D01*
X255631Y389614D01*
X255584Y389968D01*
X255415Y390377D01*
X255395Y390454D01*
X254284Y392774D01*
X253958Y393455D01*
X253959Y393457D01*
X253655Y393912D01*
X253177Y394231D01*
X252940Y394946D01*
X252496Y396731D01*
X253223Y398398D01*
X254419Y399901D01*
X254458Y399977D01*
X254662Y400242D01*
X254942Y400917D01*
X254988Y401271D01*
X255014Y401353D01*
X255114Y402309D01*
X255126Y402424D01*
Y402424D01*
X255219Y403305D01*
X255214Y403380D01*
X255243Y403600D01*
X255156Y404260D01*
X254723Y406049D01*
X254373Y407499D01*
X254347Y407554D01*
X254310Y407743D01*
X253959Y408268D01*
X253807Y408369D01*
X253770Y408411D01*
X253382Y408699D01*
X253625Y411003D01*
X253625D01*
X253390Y411720D01*
X256187Y414266D01*
X256199Y414283D01*
X256287Y414351D01*
X256732Y414931D01*
X256935Y415421D01*
X256963Y415471D01*
X257569Y417337D01*
X257573Y417363D01*
X257620Y417478D01*
X257715Y418202D01*
X257705Y418280D01*
X257706Y418284D01*
X257614Y421606D01*
X257622Y421614D01*
X257507Y422191D01*
X257223Y422616D01*
X257214Y422632D01*
X256895Y422995D01*
X257611Y425199D01*
X251608Y427149D01*
X251316Y426251D01*
X250752Y424516D01*
X250219Y422876D01*
X249703Y421287D01*
X249093Y419411D01*
X248600Y417893D01*
X246692Y418390D01*
X248584Y427944D01*
X248584Y428000D01*
X248598Y428054D01*
X248929Y433777D01*
X250391Y435001D01*
Y435001D01*
X251245Y436481D01*
X252163Y438070D01*
Y438070D01*
X253080Y439658D01*
X253934Y441138D01*
X255652Y440177D01*
D02*
G37*
G36*
X386231Y373839D02*
X386203Y373750D01*
X386201Y373736D01*
X386194Y373723D01*
X386194Y373723D01*
X386193Y373710D01*
X386155Y373617D01*
X386059Y372893D01*
X386134Y372327D01*
X386135Y372285D01*
X386634Y370047D01*
X386466Y368148D01*
X385297Y366664D01*
X384825Y366149D01*
X384222Y366029D01*
X383853Y365782D01*
X383853Y365782D01*
X383802Y365754D01*
X383802Y365754D01*
X383222Y365260D01*
X381947Y364174D01*
X381263Y363592D01*
X381226Y363548D01*
X381090Y363444D01*
X380650Y362870D01*
X379891Y361541D01*
X379891Y361541D01*
X379891Y361540D01*
X379658Y361152D01*
X379382Y360485D01*
X379294Y359816D01*
X379286Y359363D01*
X379286Y359363D01*
X379285Y359300D01*
X379217Y355858D01*
X378597Y355590D01*
X378597D01*
X377029Y353849D01*
X376654Y353944D01*
X376562Y353949D01*
X376255Y354010D01*
X375636Y353887D01*
X375521Y353810D01*
X375492Y353801D01*
X372557Y352213D01*
X372555Y352211D01*
X372485Y352182D01*
X371905Y351738D01*
X371831Y351641D01*
X371811Y351626D01*
X370494Y350163D01*
X370463Y350112D01*
X370143Y349695D01*
X369864Y349020D01*
X369847Y348897D01*
X369837Y348872D01*
X369193Y345824D01*
X367056Y345231D01*
X366735Y345552D01*
X366472Y345728D01*
X366163Y345790D01*
X366163Y345790D01*
X353930D01*
X352943Y346990D01*
X353756Y348844D01*
X354369Y348925D01*
X355616Y349441D01*
X356686Y350263D01*
X357508Y351333D01*
X358024Y352580D01*
X358200Y353917D01*
X358024Y355255D01*
X357508Y356502D01*
X356686Y357572D01*
X355616Y358394D01*
X354369Y358910D01*
X353031Y359086D01*
X351694Y358910D01*
X350447Y358394D01*
X349377Y357572D01*
X349165Y357296D01*
X349070Y357262D01*
X348748Y357203D01*
X346953Y357269D01*
X346816Y357334D01*
X345148Y359003D01*
X345192Y359227D01*
X345192Y359227D01*
X345157Y359406D01*
X345085Y359768D01*
X345085Y359768D01*
X344778Y360233D01*
X344798Y361206D01*
X345105Y361664D01*
X345212Y362205D01*
X345200Y362264D01*
X346923Y363987D01*
X346923Y363987D01*
X348461Y365025D01*
X374298D01*
X374298Y365025D01*
X374608Y365086D01*
X374871Y365262D01*
X384505Y374896D01*
X386231Y373839D01*
D02*
G37*
G36*
X274920Y360550D02*
X274920Y360550D01*
X275182Y360374D01*
X275492Y360313D01*
X289937D01*
X290404Y358554D01*
X290383Y358344D01*
X289377Y357572D01*
X288555Y356502D01*
X288039Y355255D01*
X287863Y353917D01*
X288039Y352580D01*
X288555Y351333D01*
X289377Y350263D01*
X290332Y349530D01*
X290343Y349322D01*
X289379Y347561D01*
X286394D01*
X279551Y354404D01*
X279289Y354579D01*
X278979Y354641D01*
X278979Y354641D01*
X268763D01*
X267270Y355787D01*
X266666Y357505D01*
X266669Y359474D01*
X266670Y359840D01*
X266676Y359847D01*
X266678Y359858D01*
X266583Y360583D01*
X266303Y361258D01*
X266300Y361262D01*
X265321Y362958D01*
X265319Y362963D01*
X264877Y363538D01*
X264874Y363542D01*
X264737Y363648D01*
X264699Y363692D01*
X264028Y364264D01*
X262743Y365358D01*
X262164Y365851D01*
X262163Y365851D01*
X262114Y365879D01*
X262114Y365879D01*
X261743Y366127D01*
X261140Y366247D01*
X260667Y366762D01*
X259498Y368247D01*
X259314Y370139D01*
X259832Y372490D01*
X259833Y372537D01*
X259869Y372817D01*
X260640Y373306D01*
X261817Y373653D01*
X274920Y360550D01*
D02*
G37*
%LPC*%
G36*
X309629Y462312D02*
Y459157D01*
X312785D01*
X312696Y459832D01*
X312358Y460647D01*
X311820Y461348D01*
X311120Y461885D01*
X310304Y462223D01*
X309629Y462312D01*
D02*
G37*
G36*
X342782Y462309D02*
X339629D01*
Y459157D01*
X342782D01*
Y462309D01*
D02*
G37*
G36*
X339229D02*
X336076D01*
Y459157D01*
X339229D01*
Y462309D01*
D02*
G37*
G36*
X309229Y462312D02*
X308554Y462223D01*
X307738Y461885D01*
X307038Y461348D01*
X306501Y460647D01*
X306163Y459832D01*
X306074Y459157D01*
X309229D01*
Y462312D01*
D02*
G37*
G36*
X342782Y458757D02*
X339629D01*
Y455604D01*
X342782D01*
Y458757D01*
D02*
G37*
G36*
X339229D02*
X336076D01*
Y455604D01*
X339229D01*
Y458757D01*
D02*
G37*
G36*
X309229D02*
X306074D01*
X306163Y458081D01*
X306501Y457266D01*
X307038Y456566D01*
X307738Y456028D01*
X308554Y455690D01*
X309229Y455601D01*
Y458757D01*
D02*
G37*
G36*
X312785D02*
X309629D01*
Y455601D01*
X310304Y455690D01*
X311120Y456028D01*
X311820Y456566D01*
X312358Y457266D01*
X312696Y458081D01*
X312785Y458757D01*
D02*
G37*
G36*
X329429Y462338D02*
X328554Y462223D01*
X327738Y461885D01*
X327038Y461348D01*
X326501Y460647D01*
X326163Y459832D01*
X326047Y458957D01*
X326163Y458081D01*
X326501Y457266D01*
X327038Y456566D01*
X327738Y456028D01*
X328554Y455690D01*
X329429Y455575D01*
X330304Y455690D01*
X331120Y456028D01*
X331820Y456566D01*
X332358Y457266D01*
X332696Y458081D01*
X332811Y458957D01*
X332696Y459832D01*
X332358Y460647D01*
X331820Y461348D01*
X331120Y461885D01*
X330304Y462223D01*
X329429Y462338D01*
D02*
G37*
G36*
X319429D02*
X318554Y462223D01*
X317738Y461885D01*
X317038Y461348D01*
X316500Y460647D01*
X316163Y459832D01*
X316047Y458957D01*
X316163Y458081D01*
X316500Y457266D01*
X317038Y456566D01*
X317738Y456028D01*
X318554Y455690D01*
X319429Y455575D01*
X320304Y455690D01*
X321120Y456028D01*
X321820Y456566D01*
X322358Y457266D01*
X322696Y458081D01*
X322811Y458957D01*
X322696Y459832D01*
X322358Y460647D01*
X321820Y461348D01*
X321120Y461885D01*
X320304Y462223D01*
X319429Y462338D01*
D02*
G37*
G36*
X293032Y449086D02*
X291694Y448910D01*
X290447Y448393D01*
X289377Y447572D01*
X288555Y446502D01*
X288039Y445255D01*
X287863Y443917D01*
X288039Y442580D01*
X288555Y441333D01*
X289377Y440263D01*
X290447Y439441D01*
X291694Y438925D01*
X293032Y438749D01*
X294369Y438925D01*
X295616Y439441D01*
X296686Y440263D01*
X297508Y441333D01*
X298024Y442580D01*
X298200Y443917D01*
X298024Y445255D01*
X297508Y446502D01*
X296686Y447572D01*
X295616Y448393D01*
X294369Y448910D01*
X293032Y449086D01*
D02*
G37*
G36*
X353031D02*
X351694Y448910D01*
X350447Y448393D01*
X349377Y447572D01*
X348555Y446502D01*
X348039Y445255D01*
X347863Y443917D01*
X348039Y442580D01*
X348555Y441333D01*
X349377Y440263D01*
X349485Y440179D01*
X348936Y438561D01*
X348817Y438211D01*
X337380D01*
X336999Y438211D01*
X335858Y439352D01*
X335595Y439527D01*
X335285Y439589D01*
X335285Y439589D01*
X334597D01*
X313556D01*
X312697Y439589D01*
X312387Y439527D01*
X312125Y439352D01*
X310755Y437983D01*
X310531Y438027D01*
X310531Y438027D01*
X310353Y437992D01*
X309991Y437920D01*
X309532Y437613D01*
Y437613D01*
X309226Y437155D01*
X309226Y437155D01*
X309119Y436614D01*
X309226Y436073D01*
X309226Y436073D01*
X309532Y435615D01*
X309532Y435615D01*
X309991Y435309D01*
X310531Y435201D01*
X310531Y435201D01*
X311072Y435309D01*
X311072D01*
X311531Y435615D01*
X311837Y436073D01*
X311945Y436614D01*
X313331Y437970D01*
X313785Y437970D01*
X334411D01*
X334950Y437970D01*
X336091Y436829D01*
X336354Y436654D01*
X336663Y436592D01*
X336663D01*
X337546Y436592D01*
X348639D01*
X349073D01*
X351785Y436592D01*
X354278D01*
X356246Y436592D01*
X359504D01*
X359631Y436403D01*
X359631Y436402D01*
X360089Y436096D01*
X360630Y435989D01*
X361171Y436096D01*
X361171Y436096D01*
X361629Y436403D01*
X361935Y436861D01*
X362043Y437402D01*
X361935Y437942D01*
X361629Y438401D01*
X361171Y438707D01*
X361171Y438707D01*
X360630Y438814D01*
X360089Y438707D01*
X359782Y438502D01*
X359631Y438401D01*
X359631Y438401D01*
X359504Y438211D01*
X357246D01*
X357127Y438561D01*
X356578Y440179D01*
X356686Y440263D01*
X357508Y441333D01*
X358024Y442580D01*
X358200Y443917D01*
X358024Y445255D01*
X357508Y446502D01*
X356686Y447572D01*
X355616Y448393D01*
X354369Y448910D01*
X353031Y449086D01*
D02*
G37*
G36*
X329823Y427594D02*
X329823Y427594D01*
X329282Y427487D01*
X329282Y427487D01*
X328824Y427180D01*
X328517Y426722D01*
X328517Y426722D01*
X328517Y426722D01*
X328410Y426181D01*
X328410Y426181D01*
X328410Y426181D01*
X328517Y425640D01*
X328777Y425252D01*
X328824Y425182D01*
X328824Y425182D01*
X328823Y425181D01*
X327786Y423533D01*
X326750Y422808D01*
X311143D01*
X311050Y423277D01*
X311050Y423277D01*
X310743Y423735D01*
X310743Y423735D01*
X310285Y424042D01*
X309744Y424149D01*
X309744Y424149D01*
X309203Y424042D01*
X309203Y424042D01*
X308745Y423735D01*
X308745Y423735D01*
X308439Y423277D01*
X308439Y423277D01*
X308331Y422736D01*
X308331Y422736D01*
X308439Y422195D01*
X308375Y421688D01*
X307000Y420315D01*
X307000Y420315D01*
X306821Y420279D01*
X306459Y420207D01*
X306001Y419901D01*
Y419901D01*
X305695Y419442D01*
X305695Y419442D01*
X305695Y419442D01*
X305587Y418902D01*
X305695Y418361D01*
X305695Y418361D01*
X306001Y417903D01*
X306001Y417902D01*
X306355Y417666D01*
X306357Y417664D01*
X306455Y416935D01*
X306452Y416342D01*
X306351Y415611D01*
X305989Y415369D01*
X305989Y415369D01*
X305683Y414911D01*
X305683Y414911D01*
Y414911D01*
X305575Y414370D01*
X305683Y413829D01*
Y413829D01*
X305799Y413656D01*
X306001Y413267D01*
X306142Y412098D01*
X305880Y411269D01*
X305772Y410728D01*
X305880Y410188D01*
X305880Y410188D01*
X306186Y409729D01*
X307248Y408434D01*
X306551Y407168D01*
X306396Y407137D01*
X306133Y406962D01*
X306133Y406962D01*
X305778Y406607D01*
X280900D01*
X280187Y407320D01*
X279309Y408925D01*
D01*
Y413402D01*
X279248Y413711D01*
X279072Y413974D01*
X276882Y416164D01*
X277164Y416532D01*
X277640Y417682D01*
X277803Y418917D01*
X277640Y420152D01*
X277164Y421303D01*
X276406Y422291D01*
X275417Y423050D01*
X274267Y423526D01*
X273031Y423689D01*
X271796Y423526D01*
X270646Y423050D01*
X269657Y422291D01*
X268899Y421303D01*
X268423Y420152D01*
X268260Y418917D01*
X268423Y417682D01*
X268899Y416532D01*
X269657Y415543D01*
X270311Y415042D01*
X270500Y413917D01*
X270311Y412793D01*
X269657Y412291D01*
X268899Y411303D01*
X268423Y410152D01*
X268260Y408917D01*
X268423Y407682D01*
X268899Y406532D01*
X269657Y405543D01*
X270311Y405042D01*
X270500Y403917D01*
X270311Y402793D01*
X269657Y402291D01*
X268899Y401303D01*
X268423Y400152D01*
X268260Y398917D01*
X268423Y397682D01*
X268899Y396532D01*
X269657Y395543D01*
X270311Y395042D01*
X270500Y393917D01*
X270311Y392793D01*
X269657Y392291D01*
X268899Y391303D01*
X268423Y390152D01*
X268260Y388917D01*
X268423Y387682D01*
X268899Y386532D01*
X269657Y385543D01*
X270311Y385042D01*
X270500Y383917D01*
X270311Y382793D01*
X269657Y382291D01*
X268899Y381303D01*
X268423Y380152D01*
X268260Y378917D01*
X268423Y377682D01*
X268899Y376532D01*
X269657Y375543D01*
X270646Y374785D01*
X271796Y374308D01*
X273031Y374146D01*
X274267Y374308D01*
X275417Y374785D01*
X276406Y375543D01*
X277164Y376532D01*
X277640Y377682D01*
X277803Y378917D01*
X277640Y380152D01*
X277164Y381303D01*
X276896Y381653D01*
X280412Y385169D01*
X280587Y385432D01*
X280649Y385741D01*
X280649Y385741D01*
Y394633D01*
X280649D01*
X280649Y394633D01*
Y400727D01*
X281348Y401426D01*
X300749D01*
X302587Y400902D01*
X302695Y400361D01*
X302695Y400361D01*
X303001Y399902D01*
X303459Y399596D01*
X303459Y399596D01*
X304000Y399489D01*
X304000Y399489D01*
X304541Y399596D01*
X304999Y399902D01*
X304999Y399902D01*
X305305Y400361D01*
X305305Y400361D01*
X305423Y400632D01*
X305724Y401321D01*
X305724Y401321D01*
X306264Y401428D01*
X306723Y401734D01*
Y401735D01*
X307029Y402193D01*
X307029Y402193D01*
X307137Y402734D01*
X307442Y403197D01*
X307983Y403305D01*
X307983D01*
X308441Y403611D01*
X308748Y404070D01*
X309156Y405049D01*
X309156Y405049D01*
X309696Y405157D01*
X309696Y405157D01*
X310155Y405463D01*
X310155Y405463D01*
X310461Y405921D01*
X310461Y405921D01*
X310569Y406462D01*
X310569Y406462D01*
X310461Y407003D01*
Y407003D01*
X310461Y407003D01*
X310155Y407461D01*
Y407461D01*
X309696Y407767D01*
X309020Y408184D01*
X309020Y408184D01*
X308568Y408463D01*
X308380Y408650D01*
X308347Y408833D01*
X308357Y408926D01*
X308521Y410283D01*
X308737Y410953D01*
X310129Y412345D01*
X310993Y413208D01*
X312243Y412734D01*
X312893Y412325D01*
X312966Y411959D01*
X313273Y411501D01*
X313731Y411195D01*
X313731Y411195D01*
X314272Y411087D01*
X314272Y411087D01*
X314812Y411195D01*
X315119Y411400D01*
X315271Y411501D01*
X315271Y411501D01*
Y411501D01*
X315398Y411691D01*
X317126D01*
X317126Y411691D01*
X317326Y411730D01*
X317436Y411752D01*
X317698Y411928D01*
X317698Y411928D01*
X320249Y414478D01*
X320472Y414433D01*
X320472Y414433D01*
X320559Y414451D01*
X321013Y414541D01*
X321472Y414847D01*
X323305Y414933D01*
X323658Y414847D01*
X326183Y412322D01*
X326138Y412099D01*
X326138Y412098D01*
X326174Y411920D01*
X326246Y411558D01*
X326246Y411558D01*
X326552Y411099D01*
X326552Y411099D01*
X327010Y410793D01*
X327551Y410685D01*
X328092Y410793D01*
X328092Y410793D01*
X328550Y411099D01*
X328550Y411099D01*
X328677Y411289D01*
X330633D01*
X332601Y411289D01*
X334140D01*
X351099D01*
X352622Y410138D01*
X352646Y410021D01*
X352730Y409597D01*
X353036Y409139D01*
X353036Y409139D01*
X353495Y408832D01*
X353128Y406898D01*
X341164D01*
X340809Y407253D01*
X340547Y407429D01*
X340237Y407490D01*
X340237Y407490D01*
X339273D01*
X338999Y407901D01*
X338541Y408207D01*
X338000Y408315D01*
X337459Y408207D01*
X337001Y407901D01*
X336695Y407442D01*
X336587Y406902D01*
X336695Y406361D01*
X337001Y405902D01*
X337459Y405596D01*
X338001Y405483D01*
X338087Y404902D01*
X338195Y404361D01*
X338501Y403902D01*
X338959Y403596D01*
X339501Y403483D01*
X339587Y402902D01*
X339695Y402361D01*
X340001Y401902D01*
X340459Y401596D01*
X341001Y401483D01*
X341087Y400902D01*
X341195Y400361D01*
X341195Y400361D01*
X341501Y399902D01*
X341501Y399902D01*
X341959Y399596D01*
X341959D01*
X342500Y399489D01*
X342500Y399489D01*
X343041Y399596D01*
X343041D01*
X343041Y399596D01*
X343499Y399902D01*
X343499D01*
X343805Y400361D01*
X343805Y400361D01*
X343913Y400902D01*
X343913Y400902D01*
X345660Y401718D01*
X363860D01*
X365503Y400074D01*
Y394480D01*
X365503Y394480D01*
X365503D01*
Y385589D01*
X365503Y385589D01*
X365565Y385279D01*
X365740Y385017D01*
X369140Y381617D01*
X368899Y381303D01*
X368423Y380152D01*
X368260Y378917D01*
X368423Y377682D01*
X368899Y376532D01*
X369657Y375543D01*
X370646Y374785D01*
X371796Y374308D01*
X373031Y374146D01*
X374267Y374308D01*
X375417Y374785D01*
X376406Y375543D01*
X377164Y376532D01*
X377640Y377682D01*
X377803Y378917D01*
X377640Y380152D01*
X377164Y381303D01*
X376406Y382291D01*
X375752Y382793D01*
X375563Y383917D01*
X375752Y385042D01*
X376406Y385543D01*
X377164Y386532D01*
X377640Y387682D01*
X377803Y388917D01*
X377640Y390152D01*
X377164Y391303D01*
X376406Y392291D01*
X375752Y392793D01*
X375563Y393917D01*
X375752Y395042D01*
X376406Y395543D01*
X377164Y396532D01*
X377640Y397682D01*
X377803Y398917D01*
X377640Y400152D01*
X377164Y401303D01*
X376406Y402291D01*
X375752Y402793D01*
X375563Y403917D01*
X375752Y405042D01*
X376406Y405543D01*
X377164Y406532D01*
X377640Y407682D01*
X377803Y408917D01*
X377640Y410152D01*
X377164Y411303D01*
X376406Y412291D01*
X375752Y412793D01*
X375563Y413917D01*
X375752Y415042D01*
X376406Y415543D01*
X377164Y416532D01*
X377640Y417682D01*
X377803Y418917D01*
X377640Y420152D01*
X377164Y421303D01*
X376406Y422291D01*
X375417Y423050D01*
X374267Y423526D01*
X373031Y423689D01*
X371796Y423526D01*
X370646Y423050D01*
X369657Y422291D01*
X368899Y421303D01*
X368423Y420152D01*
X368260Y418917D01*
X368423Y417682D01*
X368899Y416532D01*
X369154Y416200D01*
X366428Y413474D01*
X366252Y413211D01*
X366191Y412902D01*
X366191Y412901D01*
Y407737D01*
X365352Y406898D01*
X354943D01*
X354576Y408832D01*
X355034Y409139D01*
X355341Y409597D01*
Y409597D01*
X355448Y410138D01*
X355341Y410678D01*
Y410678D01*
X355341Y410678D01*
X355284Y410764D01*
X355084Y411534D01*
X355248Y412846D01*
X355369Y413100D01*
X355565Y413393D01*
Y413393D01*
X355673Y413934D01*
X355565Y414474D01*
Y414474D01*
X355565Y414474D01*
X355259Y414933D01*
X355259Y414933D01*
X354800Y415239D01*
X354260Y415347D01*
X354260Y415347D01*
X353258Y416988D01*
X353101Y417800D01*
X353408Y418258D01*
X353408Y418258D01*
X353515Y418799D01*
X353481Y418974D01*
X353849Y419883D01*
X354692Y420923D01*
X354773Y420939D01*
X355231Y421245D01*
X355538Y421703D01*
X355645Y422244D01*
X355538Y422785D01*
X355231Y423243D01*
X354773Y423550D01*
X354232Y423657D01*
X353692Y423550D01*
X353233Y423243D01*
X352942Y422808D01*
X350012D01*
X350012Y422808D01*
Y422808D01*
X332902D01*
X331239Y423972D01*
X331131Y424513D01*
X331131Y424513D01*
X330825Y424971D01*
X331043Y425452D01*
X331128Y425640D01*
X331236Y426181D01*
X331128Y426722D01*
X330822Y427180D01*
X330363Y427487D01*
X330168Y427526D01*
X329823Y427594D01*
D02*
G37*
G36*
X337500Y393641D02*
X336732Y393488D01*
X336081Y393053D01*
X335646Y392402D01*
X335493Y391634D01*
X335646Y390866D01*
X336081Y390215D01*
X336732Y389780D01*
X337500Y389627D01*
X338268Y389780D01*
X338919Y390215D01*
X339354Y390866D01*
X339507Y391634D01*
X339354Y392402D01*
X338919Y393053D01*
X338268Y393488D01*
X337500Y393641D01*
D02*
G37*
G36*
X307382Y396000D02*
X306841Y395892D01*
X306383Y395586D01*
X306077Y395127D01*
X305969Y394587D01*
X306077Y394046D01*
X306077Y394046D01*
X306383Y393587D01*
Y393587D01*
X306841Y393281D01*
X307382Y393174D01*
X307606Y393218D01*
X310143Y390681D01*
X311936Y388888D01*
X311936Y388888D01*
X312199Y388712D01*
X312509Y388651D01*
X312626D01*
X312879Y388273D01*
X312879Y388273D01*
X313337Y387966D01*
X313337Y387966D01*
X313878Y387859D01*
X314419Y387966D01*
X314419D01*
X314877Y388273D01*
X314877Y388273D01*
X315183Y388731D01*
X315291Y389272D01*
X315183Y389812D01*
X314877Y390271D01*
X314419Y390577D01*
X314419Y390577D01*
X314419Y390577D01*
X313878Y390685D01*
X313337Y390577D01*
X312879Y390271D01*
X311546Y391567D01*
X308750Y394363D01*
X308795Y394586D01*
X308795Y394587D01*
X308759Y394765D01*
X308687Y395127D01*
X308687Y395127D01*
X308381Y395586D01*
X307923Y395892D01*
X307923Y395892D01*
X307598Y395956D01*
X307382Y396000D01*
D02*
G37*
G36*
X328113Y387732D02*
X328113Y387732D01*
X327573Y387624D01*
X327573Y387624D01*
X327114Y387318D01*
X327114Y387318D01*
X326808Y386860D01*
X326691Y386414D01*
X326557Y385907D01*
Y385907D01*
X326557Y385907D01*
Y385907D01*
X323046Y382396D01*
X322745Y382396D01*
X297358D01*
X297161Y382692D01*
X297161Y382692D01*
X296702Y382998D01*
X296161Y383106D01*
X295621Y382998D01*
X295621Y382998D01*
X295162Y382692D01*
X294856Y382234D01*
X294748Y381693D01*
X294748Y381693D01*
X294856Y381152D01*
X294856Y381152D01*
X295162Y380694D01*
X295621Y380387D01*
X295621Y380387D01*
X296161Y380280D01*
X296161Y380280D01*
X296702Y380387D01*
X297161Y380694D01*
X297216Y380777D01*
X322646D01*
X323381D01*
X323381Y380777D01*
X323691Y380839D01*
X323953Y381014D01*
X327042Y384103D01*
X327577Y384157D01*
X329316Y383843D01*
X329774Y383537D01*
X329774Y383537D01*
X329774D01*
X330315Y383430D01*
X330856Y383537D01*
X330856D01*
X331314Y383843D01*
X331314Y383843D01*
X331620Y384302D01*
X331620Y384302D01*
X331728Y384842D01*
X331620Y385383D01*
Y385383D01*
X331620Y385383D01*
X331314Y385842D01*
X331314Y385842D01*
X331314Y385842D01*
X330856Y386148D01*
X329902Y386620D01*
X329113Y387318D01*
X329113Y387318D01*
X329113Y387318D01*
X328654Y387624D01*
X328654Y387624D01*
X328654D01*
X328263Y387702D01*
X328263Y387702D01*
X328263D01*
X328114Y387732D01*
X328114Y387732D01*
X328113Y387732D01*
D02*
G37*
G36*
X348228Y384877D02*
X347688Y384770D01*
X347229Y384464D01*
X346923Y384005D01*
X346815Y383465D01*
X346923Y382924D01*
X347229Y382465D01*
X347688Y382159D01*
X348228Y382052D01*
X348769Y382159D01*
X349227Y382465D01*
X349534Y382924D01*
X349641Y383465D01*
X349534Y384005D01*
X349227Y384464D01*
X348769Y384770D01*
X348228Y384877D01*
D02*
G37*
G36*
X311500Y377815D02*
X310959Y377707D01*
X310959D01*
X310501Y377401D01*
X308989Y377057D01*
X308260Y377126D01*
X307950Y377187D01*
X307950Y377187D01*
X305654D01*
X305527Y377377D01*
X305527Y377377D01*
X305527Y377377D01*
X305068Y377683D01*
X305068D01*
X304528Y377791D01*
X304527Y377791D01*
X303987Y377683D01*
X303987Y377683D01*
X303528Y377377D01*
X303528Y377377D01*
Y377377D01*
X303222Y376919D01*
X303222Y376919D01*
X303222Y376919D01*
X303115Y376378D01*
X303115Y376378D01*
X303222Y375837D01*
X303222Y375837D01*
X303124Y374064D01*
X303085Y373868D01*
X303082Y373855D01*
Y373855D01*
X303016Y373524D01*
X303016Y373524D01*
X303124Y372983D01*
Y372983D01*
X303124Y372983D01*
X303430Y372524D01*
X303430Y372524D01*
X303430Y372524D01*
X303888Y372218D01*
X303889Y372218D01*
X304429Y372111D01*
X304970Y372218D01*
X304970D01*
X305262Y372414D01*
X305428Y372524D01*
X305428Y372524D01*
Y372524D01*
X305555Y372714D01*
X308129D01*
X308422Y372422D01*
X310147Y370696D01*
X310103Y370472D01*
X310103Y370472D01*
X310210Y369932D01*
X310210Y369932D01*
X310517Y369473D01*
X310975Y369167D01*
X310975Y369167D01*
X311516Y369059D01*
X311516Y369059D01*
X312056Y369167D01*
X312515Y369473D01*
X312515Y369473D01*
X312821Y369932D01*
X312821Y369932D01*
X312929Y370472D01*
X312929Y370472D01*
X312821Y371013D01*
Y371013D01*
X312515Y371472D01*
X312325Y371598D01*
Y375286D01*
X312499Y375402D01*
X312499Y375402D01*
X312805Y375861D01*
X312805Y375861D01*
X312913Y376402D01*
X312805Y376942D01*
X312805Y376942D01*
X312499Y377401D01*
X312499Y377401D01*
X312041Y377707D01*
X311500Y377815D01*
X311500Y377815D01*
D02*
G37*
G36*
X295571Y377791D02*
X295571Y377791D01*
X295030Y377683D01*
X294572Y377377D01*
X294572Y377377D01*
Y377377D01*
X294266Y376919D01*
X294265Y376919D01*
X294266Y376919D01*
X294158Y376378D01*
X294274Y375541D01*
X294206Y374336D01*
X294194Y374175D01*
X294122Y373517D01*
X294044Y373074D01*
X294152Y372533D01*
X294458Y372074D01*
X294917Y371768D01*
X294917D01*
X295457Y371660D01*
X295457Y371660D01*
X295998Y371768D01*
X296456Y372074D01*
X296456Y372074D01*
Y372074D01*
X296763Y372533D01*
X296763Y372533D01*
X296763Y372533D01*
X296870Y373074D01*
X296773Y373779D01*
X296808Y374622D01*
X296813Y374701D01*
X296839Y375047D01*
X296882Y375585D01*
X296877Y375546D01*
X296885Y375652D01*
X296890Y375692D01*
X296882Y375585D01*
X296979Y376353D01*
X296984Y376378D01*
X296876Y376919D01*
Y376919D01*
X296570Y377377D01*
Y377377D01*
X296112Y377683D01*
X295871Y377731D01*
X295571Y377791D01*
D02*
G37*
%LPD*%
D12*
X280451Y322083D02*
G03*
X280739Y321863I608J500D01*
G01*
X276187Y327672D02*
G03*
X276358Y327102I784J-76D01*
G01*
X311135Y477464D02*
G03*
X311134Y477464I420J-3134D01*
G01*
X311192Y477472D02*
G03*
X311135Y477464I362J-3141D01*
G01*
X267405Y455590D02*
G03*
X267319Y455518I1995J-2461D01*
G01*
X243496Y395911D02*
G03*
X243497Y395508I3162J-196D01*
G01*
X245938Y379493D02*
G03*
X245956Y379395I3128J505D01*
G01*
X311156Y320269D02*
G03*
X311398Y320248I399J3143D01*
G01*
X383649Y347638D02*
G03*
X383718Y347708I-2245J2237D01*
G01*
X373712Y337653D02*
G03*
X373796Y337735I-2164J2314D01*
G01*
X362992Y473228D02*
G03*
X360690Y474182I-2302J-2302D01*
G01*
X400287Y417501D02*
G03*
X400481Y417176I754J228D01*
G01*
X351521Y474333D02*
G03*
X351618Y474265I502J615D01*
G01*
X397842Y425584D02*
G03*
X397819Y425658I-3035J-910D01*
G01*
X367805Y464399D02*
G03*
X367673Y464500I-1990J-2466D01*
G01*
X380552Y453647D02*
G03*
X380430Y453790I-2473J-1981D01*
G01*
X390670Y440459D02*
G03*
X390584Y440616I-2827J-1431D01*
G01*
X366089Y465652D02*
G03*
X365836Y465818I-1866J-2561D01*
G01*
X379119Y455246D02*
G03*
X378744Y455601I-2357J-2118D01*
G01*
X389606Y442310D02*
G03*
X389324Y442722I-2747J-1578D01*
G01*
X397214Y427521D02*
G03*
X397020Y427989I-3015J-974D01*
G01*
X401836Y437599D02*
G03*
X401764Y437762I-752J-232D01*
G01*
X401991Y436980D02*
G03*
X401955Y437219I-787J0D01*
G01*
X400296Y440304D02*
G03*
X400294Y440309I-689J-394D01*
G01*
X398525Y443372D02*
G03*
X398522Y443377I-689J-394D01*
G01*
X285032Y337552D02*
G03*
X285149Y337561I0J787D01*
G01*
X339256Y465870D02*
G03*
X339882Y465620I1037J1688D01*
G01*
X341814Y465209D02*
G03*
X342794Y465253I405J1939D01*
G01*
X336076Y468040D02*
G03*
X336412Y467618I752J254D01*
G01*
X356788Y464471D02*
G03*
X356852Y464474I0J787D01*
G01*
X350750Y472080D02*
G03*
X349405Y472179I-809J-1808D01*
G01*
X355765Y468119D02*
G03*
X355522Y468606I-789J-89D01*
G01*
X353109Y470903D02*
G03*
X352542Y471282I-1369J-1432D01*
G01*
X339542Y467303D02*
G03*
X340129Y466781I752J254D01*
G01*
X342054Y466372D02*
G03*
X342653Y466484I165J776D01*
G01*
X352528Y469560D02*
G03*
X352062Y470196I-789J-89D01*
G01*
X350264Y470997D02*
G03*
X349506Y470935I-323J-725D01*
G01*
X365390Y464692D02*
G03*
X364061Y465065I-1167J-1601D01*
G01*
X367453Y463048D02*
G03*
X366977Y463538I-1638J-1115D01*
G01*
X369475Y459831D02*
G03*
X369335Y460302I-793J20D01*
G01*
X352807Y460919D02*
G03*
X353363Y460546I1366J1435D01*
G01*
X355166Y459743D02*
G03*
X356163Y459581I806J1810D01*
G01*
X350148Y463702D02*
G03*
X350389Y463220I788J93D01*
G01*
X355649Y460828D02*
G03*
X356263Y460815I323J725D01*
G01*
X353385Y462261D02*
G03*
X353850Y461629I788J93D01*
G01*
X364689Y463733D02*
G03*
X363929Y463828I-466J-642D01*
G01*
X366605Y461860D02*
G03*
X366282Y462576I-790J74D01*
G01*
X379912Y452417D02*
G03*
X379549Y452993I-1833J-752D01*
G01*
X381207Y448794D02*
G03*
X381183Y449337I-757J238D01*
G01*
X378236Y454453D02*
G03*
X376945Y455101I-1474J-1324D01*
G01*
X363059Y456622D02*
G03*
X363195Y456100I790J-73D01*
G01*
X365082Y453346D02*
G03*
X365547Y452867I1634J1120D01*
G01*
X367144Y451707D02*
G03*
X368096Y451340I1165J1603D01*
G01*
X365926Y454540D02*
G03*
X366250Y453824I790J-73D01*
G01*
X367842Y452667D02*
G03*
X368441Y452527I466J642D01*
G01*
X377351Y453660D02*
G03*
X376628Y453911I-590J-531D01*
G01*
X378836Y451427D02*
G03*
X378669Y452197I-757J238D01*
G01*
X388650Y433204D02*
G03*
X388507Y432751I644J-452D01*
G01*
X390263Y435500D02*
G03*
X390394Y436106I-648J458D01*
G01*
X388576Y441719D02*
G03*
X387532Y442595I-1718J-987D01*
G01*
X389792Y439381D02*
G03*
X389557Y440021I-1949J-353D01*
G01*
X377252Y441386D02*
G03*
X378088Y440835I1472J1326D01*
G01*
X375576Y443419D02*
G03*
X375932Y442853I1831J756D01*
G01*
X374279Y447043D02*
G03*
X374303Y446505I758J-236D01*
G01*
X388535Y438639D02*
G03*
X388530Y439424I-692J389D01*
G01*
X376650Y444410D02*
G03*
X376818Y443643I758J-236D01*
G01*
X378135Y442180D02*
G03*
X378687Y441919I590J531D01*
G01*
X387546Y441129D02*
G03*
X386893Y441525I-687J-397D01*
G01*
X396498Y420781D02*
G03*
X396695Y421283I-596J524D01*
G01*
X396084Y427155D02*
G03*
X395230Y428238I-1885J-608D01*
G01*
X396787Y424615D02*
G03*
X396690Y425290I-1980J60D01*
G01*
X383165Y435296D02*
G03*
X383076Y434764I692J-389D01*
G01*
X383680Y431481D02*
G03*
X383913Y430848I1948J358D01*
G01*
X384897Y429144D02*
G03*
X385613Y428424I1716J991D01*
G01*
X385925Y429737D02*
G03*
X386415Y429365I687J397D01*
G01*
X395401Y424149D02*
G03*
X395562Y424920I-594J526D01*
G01*
X384938Y432230D02*
G03*
X384941Y431442I691J-391D01*
G01*
X394953Y426792D02*
G03*
X394393Y427316I-755J-245D01*
G01*
X392677Y408155D02*
G03*
X392378Y407703I473J-638D01*
G01*
X391595Y404458D02*
G03*
X391549Y403793I1926J-465D01*
G01*
X391756Y401828D02*
G03*
X392126Y400868I1970J207D01*
G01*
X400887Y392804D02*
G03*
X401040Y393254I-1787J855D01*
G01*
X396364Y401873D02*
G03*
X396581Y401330I787J0D01*
G01*
X399062Y389414D02*
G03*
X399447Y389794I-332J721D01*
G01*
X401040Y393254D02*
G03*
X401071Y393454I-1939J404D01*
G01*
X401276Y395407D02*
G03*
X400734Y396990I-1970J209D01*
G01*
X395530Y390937D02*
G03*
X395807Y391117I-281J735D01*
G01*
X392937Y401953D02*
G03*
X393235Y401412I789J83D01*
G01*
X393048Y404631D02*
G03*
X392731Y403910I473J-637D01*
G01*
X399431Y392937D02*
G03*
X399890Y393576I-331J722D01*
G01*
X400096Y395534D02*
G03*
X399795Y396242I-789J83D01*
G01*
X397860Y376721D02*
G03*
X398174Y377317I-1570J1208D01*
G01*
X395370Y373785D02*
G03*
X395824Y374075I-174J774D01*
G01*
X398781Y379186D02*
G03*
X398728Y380560I-1883J615D01*
G01*
X393125Y393391D02*
G03*
X392738Y393012I329J-722D01*
G01*
X391297Y390000D02*
G03*
X391114Y389359I1787J-855D01*
G01*
X390907Y387388D02*
G03*
X391062Y386396I1971J-200D01*
G01*
X392800Y389886D02*
G03*
X392295Y389228I284J-741D01*
G01*
X392089Y387270D02*
G03*
X392265Y386683I789J-83D01*
G01*
X396464Y377155D02*
G03*
X397045Y377684I-174J774D01*
G01*
X397653Y379556D02*
G03*
X397510Y380307I-755J245D01*
G01*
X390390Y378910D02*
G03*
X389932Y378619I172J-775D01*
G01*
X387897Y375974D02*
G03*
X387582Y375377I1569J-1209D01*
G01*
X386972Y373500D02*
G03*
X386925Y372461I1886J-607D01*
G01*
X391783Y370196D02*
G03*
X391821Y369954I787J0D01*
G01*
X391684Y361631D02*
G03*
X392116Y362148I-1282J1510D01*
G01*
X388640Y359279D02*
G03*
X389145Y359469I-10J794D01*
G01*
X393103Y363858D02*
G03*
X393271Y365457I-1717J988D01*
G01*
X389294Y375540D02*
G03*
X388712Y375010I172J-775D01*
G01*
X388103Y373138D02*
G03*
X388159Y372517I755J-245D01*
G01*
X392073Y364449D02*
G03*
X392084Y365225I-687J397D01*
G01*
X390411Y362348D02*
G03*
X391089Y362744I-10J794D01*
G01*
X384833Y365327D02*
G03*
X384327Y365138I8J-794D01*
G01*
X380367Y360746D02*
G03*
X380104Y359800I1719J-986D01*
G01*
X379963Y352701D02*
G03*
X379963Y352685I787J-16D01*
G01*
X381788Y362976D02*
G03*
X381357Y362460I1281J-1511D01*
G01*
X378878Y346462D02*
G03*
X379412Y346543I156J778D01*
G01*
X382348Y348132D02*
G03*
X382877Y348548I-943J1742D01*
G01*
X384194Y350011D02*
G03*
X384702Y351273I-1472J1326D01*
G01*
X383061Y362259D02*
G03*
X382382Y361862I8J-794D01*
G01*
X381398Y360157D02*
G03*
X381319Y359553I687J-397D01*
G01*
X381249Y349096D02*
G03*
X381995Y349343I156J778D01*
G01*
X383312Y350806D02*
G03*
X383488Y351547I-590J531D01*
G01*
X376454Y353160D02*
G03*
X375877Y353090I-199J-768D01*
G01*
X372943Y351501D02*
G03*
X372412Y351084I942J-1743D01*
G01*
X371095Y349621D02*
G03*
X370629Y348705I1472J-1326D01*
G01*
X370516Y336910D02*
G03*
X371117Y337206I-560J1900D01*
G01*
X366775Y335999D02*
G03*
X367314Y335967I314J729D01*
G01*
X372718Y338369D02*
G03*
X373478Y339518I-1170J1599D01*
G01*
X371977Y348827D02*
G03*
X371775Y348241I590J-531D01*
G01*
X372016Y339326D02*
G03*
X372340Y340024I-467J642D01*
G01*
X369642Y338082D02*
G03*
X370422Y338168I314J729D01*
G01*
X374042Y350536D02*
G03*
X373294Y350290I-158J-778D01*
G01*
X349350Y335276D02*
G03*
X348693Y335111I148J-1976D01*
G01*
X346892Y334309D02*
G03*
X345946Y333422I807J-1809D01*
G01*
X344281Y330336D02*
G03*
X344424Y330530I-555J558D01*
G01*
X353196Y335388D02*
G03*
X352670Y335533I-461J-646D01*
G01*
X348676Y329340D02*
G03*
X348594Y329243I555J-558D01*
G01*
X343780Y323456D02*
G03*
X344970Y324232I-415J1937D01*
G01*
X332679Y325492D02*
G03*
X334898Y326411I0J3137D01*
G01*
X337390Y323709D02*
G03*
X337869Y323461I583J538D01*
G01*
X341178Y323020D02*
G03*
X341851Y323046I261J1964D01*
G01*
X349960Y333946D02*
G03*
X349175Y334026I-463J-645D01*
G01*
X347376Y333225D02*
G03*
X346955Y332776I323J-725D01*
G01*
X343530Y324617D02*
G03*
X344110Y325119I-165J776D01*
G01*
X340856Y324446D02*
G03*
X341605Y324208I583J538D01*
G01*
X335550Y331275D02*
G03*
X334871Y331248I-263J-1964D01*
G01*
X332950Y330840D02*
G03*
X332042Y330379I412J-1938D01*
G01*
X339339Y330583D02*
G03*
X338855Y330835I-586J-535D01*
G01*
X332679Y325492D02*
G03*
X332065Y325197I0J-787D01*
G01*
X321365Y322331D02*
G03*
X321781Y321988I683J405D01*
G01*
X327559Y320755D02*
G03*
X329106Y321499I0J1981D01*
G01*
X324927Y320870D02*
G03*
X325590Y320755I664J1867D01*
G01*
X333197Y329678D02*
G03*
X332692Y329327I165J-776D01*
G01*
X327559Y321942D02*
G03*
X328230Y322312I0J794D01*
G01*
X324908Y322331D02*
G03*
X325590Y321942I683J405D01*
G01*
X335873Y329847D02*
G03*
X335122Y330088I-586J-535D01*
G01*
X305412Y324304D02*
G03*
X305748Y323882I752J254D01*
G01*
X308592Y322134D02*
G03*
X309213Y321885I1037J1688D01*
G01*
X311150Y321473D02*
G03*
X312508Y321675I405J1939D01*
G01*
X321142Y330113D02*
G03*
X320472Y330229I-669J-1864D01*
G01*
X318504D02*
G03*
X317512Y329963I0J-1981D01*
G01*
X310654Y327402D02*
G03*
X310858Y327054I759J211D01*
G01*
X311165Y326312D02*
G03*
X310858Y327054I-1048J0D01*
G01*
X324700Y328650D02*
G03*
X324279Y328997I-684J-402D01*
G01*
X318504Y329042D02*
G03*
X317936Y328802I0J-794D01*
G01*
X321157Y328650D02*
G03*
X320472Y329042I-684J-402D01*
G01*
X311390Y322636D02*
G03*
X312123Y322858I165J776D01*
G01*
X308878Y323567D02*
G03*
X309465Y323045I752J254D01*
G01*
X289328Y333364D02*
G03*
X289262Y333361I0J-787D01*
G01*
X290216Y329622D02*
G03*
X290441Y329230I772J183D01*
G01*
X292860Y326929D02*
G03*
X293415Y326556I1366J1435D01*
G01*
X295218Y325753D02*
G03*
X296553Y325654I806J1810D01*
G01*
X304257Y332624D02*
G03*
X303274Y332583I-413J-1938D01*
G01*
X310001Y329749D02*
G03*
X309648Y330218I-766J-209D01*
G01*
X306810Y331963D02*
G03*
X306179Y332215I-1041J-1686D01*
G01*
X295701Y326838D02*
G03*
X296451Y326895I323J725D01*
G01*
X293437Y328271D02*
G03*
X293902Y327639I788J93D01*
G01*
X306522Y330529D02*
G03*
X305934Y331053I-753J-252D01*
G01*
X304009Y331463D02*
G03*
X303414Y331353I-165J-776D01*
G01*
X276492Y338057D02*
G03*
X276628Y337535I790J-73D01*
G01*
X280582Y333138D02*
G03*
X281901Y332769I1160J1606D01*
G01*
X278515Y334781D02*
G03*
X278980Y334301I1634J1120D01*
G01*
X295817Y334129D02*
G03*
X295573Y334616I-789J-89D01*
G01*
X293160Y336913D02*
G03*
X292595Y337292I-1369J-1432D01*
G01*
X290802Y338090D02*
G03*
X289695Y338240I-809J-1808D01*
G01*
X279359Y335974D02*
G03*
X279683Y335259I790J-73D01*
G01*
X281275Y334102D02*
G03*
X282034Y334006I466J642D01*
G01*
X292580Y335570D02*
G03*
X292114Y336206I-789J-89D01*
G01*
X290316Y337007D02*
G03*
X289700Y337019I-323J-725D01*
G01*
X265850Y352935D02*
G03*
X265850Y352937I-787J0D01*
G01*
X246327Y412649D02*
G03*
X245734Y411437I1376J-1425D01*
G01*
X245527Y409466D02*
G03*
X245572Y408801I1971J-200D01*
G01*
X246356Y405555D02*
G03*
X246653Y405105I771J186D01*
G01*
X255642Y414865D02*
G03*
X256193Y415721I-1334J1465D01*
G01*
X251281Y410895D02*
G03*
X251252Y410868I530J-583D01*
G01*
X256800Y417587D02*
G03*
X256897Y418262I-1883J615D01*
G01*
X256805Y421593D02*
G03*
X256606Y422098I-793J-21D01*
G01*
X254665Y415621D02*
G03*
X255063Y416085I-357J709D01*
G01*
X250269Y405714D02*
G03*
X250452Y405578I557J556D01*
G01*
X249971Y406433D02*
G03*
X250269Y405714I1016J0D01*
G01*
X247348Y411933D02*
G03*
X246914Y411306I355J-710D01*
G01*
X246708Y409349D02*
G03*
X247023Y408629I789J-83D01*
G01*
X255671Y417957D02*
G03*
X255511Y418728I-755J245D01*
G01*
X244894Y393550D02*
G03*
X245077Y392902I1970J207D01*
G01*
X244983Y396772D02*
G03*
X244688Y395508I1676J-1057D01*
G01*
X246519Y389891D02*
G03*
X246903Y389512I716J343D01*
G01*
X253786Y400406D02*
G03*
X254209Y401437I-1548J1236D01*
G01*
X253586Y407309D02*
G03*
X253286Y407762I-772J-185D01*
G01*
X254414Y403390D02*
G03*
X254369Y404068I-1970J209D01*
G01*
X252699Y400995D02*
G03*
X253028Y401559I-461J646D01*
G01*
X246198Y396361D02*
G03*
X245869Y395632I461J-646D01*
G01*
X250157Y391215D02*
G03*
X250433Y391036I558J555D01*
G01*
X246075Y393674D02*
G03*
X246533Y393036I789J83D01*
G01*
X253234Y403517D02*
G03*
X252818Y404299I-789J83D01*
G01*
X253324Y373204D02*
G03*
X253539Y373174I216J757D01*
G01*
X247790Y377514D02*
G03*
X248060Y376978I1884J612D01*
G01*
X250205Y374198D02*
G03*
X250552Y373993I564J558D01*
G01*
X247238Y380762D02*
G03*
X247180Y379392I1828J-764D01*
G01*
X254898Y386484D02*
G03*
X255056Y387496I-1812J802D01*
G01*
X253227Y393109D02*
G03*
X252839Y393490I-717J-341D01*
G01*
X254851Y389447D02*
G03*
X254665Y390104I-1971J-204D01*
G01*
X248458Y380508D02*
G03*
X248311Y379753I608J-510D01*
G01*
X248920Y377881D02*
G03*
X249500Y377352I755J245D01*
G01*
X253694Y386775D02*
G03*
X253876Y387369I-608J510D01*
G01*
X253670Y389327D02*
G03*
X253162Y389986I-789J-83D01*
G01*
X252693Y365552D02*
G03*
X252860Y363959I1886J-608D01*
G01*
X253851Y362243D02*
G03*
X254278Y361732I1712J997D01*
G01*
X256820Y359567D02*
G03*
X257325Y359378I515J604D01*
G01*
X254142Y370050D02*
G03*
X254181Y370294I-748J244D01*
G01*
X259041Y372664D02*
G03*
X258989Y373706I-1935J426D01*
G01*
X256034Y378814D02*
G03*
X255574Y379107I-630J-482D01*
G01*
X258383Y375570D02*
G03*
X258065Y376174I-1885J-608D01*
G01*
X253878Y365318D02*
G03*
X253891Y364548I700J-374D01*
G01*
X254875Y362843D02*
G03*
X255553Y362446I687J397D01*
G01*
X257806Y372715D02*
G03*
X257861Y373335I-700J375D01*
G01*
X257253Y375207D02*
G03*
X256670Y375737I-755J-245D01*
G01*
X266454Y346740D02*
G03*
X266988Y346659I378J698D01*
G01*
X262993Y348741D02*
G03*
X263518Y348328I1469J1330D01*
G01*
X261163Y351493D02*
G03*
X261668Y350212I1981J41D01*
G01*
X261639Y365235D02*
G03*
X261132Y365426I-515J-604D01*
G01*
X265860Y359850D02*
G03*
X265593Y360852I-1981J8D01*
G01*
X264613Y362550D02*
G03*
X264175Y363076I-1718J-987D01*
G01*
X263871Y349540D02*
G03*
X264617Y349292I590J531D01*
G01*
X262375Y351732D02*
G03*
X262554Y351003I768J-199D01*
G01*
X263582Y361960D02*
G03*
X262903Y362357I-687J-397D01*
G01*
X264633Y359609D02*
G03*
X264567Y360255I-753J250D01*
G01*
X257556Y432653D02*
G03*
X257427Y433084I-787J0D01*
G01*
X258558Y442703D02*
G03*
X257491Y441826I646J-1873D01*
G01*
X256502Y440111D02*
G03*
X256272Y439484I1719J-986D01*
G01*
X255668Y436201D02*
G03*
X255782Y435626I781J-144D01*
G01*
X271859Y446505D02*
G03*
X271882Y447047I-734J303D01*
G01*
X270226Y442848D02*
G03*
X270586Y443421I-1472J1326D01*
G01*
X268040Y440824D02*
G03*
X268909Y441386I-603J1887D01*
G01*
X257533Y439523D02*
G03*
X257528Y438737I687J-397D01*
G01*
X259180Y441624D02*
G03*
X258517Y441227I24J-793D01*
G01*
X267465Y441918D02*
G03*
X268027Y442180I-28J793D01*
G01*
X269344Y443643D02*
G03*
X269511Y444413I-590J531D01*
G01*
X269143Y455093D02*
G03*
X267928Y454454I257J-1964D01*
G01*
X266610Y452991D02*
G03*
X266251Y452421I1472J-1326D01*
G01*
X264978Y449335D02*
G03*
X264954Y448797I734J-303D01*
G01*
X282868Y456100D02*
G03*
X283004Y456624I-655J449D01*
G01*
X280511Y452864D02*
G03*
X280983Y453350I-1165J1603D01*
G01*
X277427Y450997D02*
G03*
X278457Y451371I-132J1970D01*
G01*
X267493Y452197D02*
G03*
X267325Y451430I590J-531D01*
G01*
X277112Y452202D02*
G03*
X277758Y452331I183J766D01*
G01*
X279814Y453825D02*
G03*
X280137Y454541I-467J642D01*
G01*
X269462Y453920D02*
G03*
X268810Y453660I-63J-791D01*
G01*
X289799Y459594D02*
G03*
X290892Y459741I293J1959D01*
G01*
X293753Y461015D02*
G03*
X294542Y461653I-807J1803D01*
G01*
X295767Y463326D02*
G03*
X295915Y463706I-640J469D01*
G01*
X285250Y460274D02*
G03*
X285131Y460283I-120J-778D01*
G01*
X276726Y460300D02*
G03*
X276591Y459778I655J-449D01*
G01*
X279083Y463537D02*
G03*
X278612Y463051I1165J-1603D01*
G01*
X282005Y465065D02*
G03*
X280676Y464694I-165J-1974D01*
G01*
X289363Y464474D02*
G03*
X289426Y464471I63J785D01*
G01*
X293267Y462098D02*
G03*
X293686Y463089I-320J719D01*
G01*
X279781Y462576D02*
G03*
X279457Y461861I466J-642D01*
G01*
X289801Y460814D02*
G03*
X290414Y460828I290J739D01*
G01*
X293107Y465912D02*
G03*
X293686Y463089I9632J506D01*
G01*
X282135Y463828D02*
G03*
X281374Y463733I-294J-737D01*
G01*
X302916Y465300D02*
G03*
X304256Y465112I928J1750D01*
G01*
X299215Y467261D02*
G03*
X298845Y467353I-370J-695D01*
G01*
X306185Y465522D02*
G03*
X306807Y465771I-415J1937D01*
G01*
X309651Y467520D02*
G03*
X309987Y467943I-416J676D01*
G01*
X320472Y467605D02*
G03*
X321136Y467720I0J1981D01*
G01*
X317536Y467858D02*
G03*
X318504Y467605I968J1729D01*
G01*
X324282Y468839D02*
G03*
X324699Y469183I-266J748D01*
G01*
X290539Y468605D02*
G03*
X290298Y468122I547J-575D01*
G01*
X293516Y471280D02*
G03*
X292958Y470906I807J-1809D01*
G01*
X296687Y472170D02*
G03*
X295317Y472082I-565J-1899D01*
G01*
X294001Y470196D02*
G03*
X293535Y469563I323J-725D01*
G01*
X296564Y470931D02*
G03*
X295799Y470997I-442J-659D01*
G01*
X303405Y466389D02*
G03*
X304009Y466274I439J661D01*
G01*
X308051Y471535D02*
G03*
X307699Y470687I848J-848D01*
G01*
X305934Y466683D02*
G03*
X306522Y467206I-165J776D01*
G01*
X305749Y473855D02*
G03*
X305412Y473432I415J-677D01*
G01*
X309219Y475853D02*
G03*
X308592Y475603I408J-1932D01*
G01*
X311556Y476305D02*
G03*
X311141Y476261I-2J-1975D01*
G01*
X312492Y476070D02*
G03*
X311556Y476305I-935J-1740D01*
G01*
X309468Y474692D02*
G03*
X309071Y474478I159J-771D01*
G01*
X311558Y475118D02*
G03*
X311392Y475101I-3J-787D01*
G01*
X320472Y468793D02*
G03*
X321156Y469183I0J794D01*
G01*
X317882Y469093D02*
G03*
X317899Y469073I622J494D01*
G01*
D02*
G03*
X318504Y468793I605J514D01*
G01*
X312117Y474885D02*
G03*
X311558Y475118I-559J-554D01*
G01*
X308051Y471535D02*
G03*
X308256Y471889I-555J559D01*
G01*
X312351Y474628D02*
G03*
X312390Y474586I596J515D01*
G01*
X309071Y474478D02*
G03*
X308861Y474117I551J-562D01*
G01*
X312225Y474774D02*
G03*
X312182Y474820I-599J-512D01*
G01*
X310531Y436614D02*
X312697Y438779D01*
X335285D02*
X336663Y437402D01*
X312697Y438779D02*
X335285D01*
X323381Y381587D02*
X328113Y386319D01*
X296268Y381587D02*
X323381D01*
X296161Y381693D02*
X296268Y381587D01*
X336663Y437402D02*
X360630D01*
X393237Y444749D02*
Y447268D01*
Y444749D02*
X394170Y443817D01*
X285448Y323653D02*
X285448Y323653D01*
X281959Y324213D02*
X282519Y323653D01*
X281693Y324213D02*
X281959D01*
X282519Y323653D02*
X285448D01*
X327551Y412098D02*
X352075D01*
X354035Y410138D01*
X317126Y412500D02*
X320472Y415846D01*
X314272Y412500D02*
X317126D01*
X304429Y373524D02*
X308465D01*
X311516Y370472D01*
X304528Y376378D02*
X307950D01*
X309323Y375005D01*
X309500D01*
X330712Y419624D02*
X348524D01*
X312242D02*
X330712D01*
X330709Y414665D02*
X330712Y414669D01*
Y419624D01*
X306988Y414370D02*
X312242Y419624D01*
X348524D02*
X354213Y413934D01*
X354260D01*
X307000Y418902D02*
X308909Y420811D01*
X350091D02*
X352102Y418799D01*
X308909Y420811D02*
X350091D01*
X353966Y422244D02*
X354232D01*
X353720Y421998D02*
X353966Y422244D01*
X310748Y421998D02*
X353720D01*
X310010Y422736D02*
X310748Y421998D01*
X309744Y422736D02*
X310010D01*
X321370Y418280D02*
X327551Y412098D01*
X307368Y410728D02*
X314919Y418280D01*
X321370D01*
X307185Y410728D02*
X307368D01*
X307382Y394587D02*
X312509Y389460D01*
X313690D02*
X313878Y389272D01*
X312509Y389460D02*
X313690D01*
X378632Y334278D02*
X384892Y336701D01*
X375380Y333019D02*
X378632Y334278D01*
X343898Y368209D02*
X373315D01*
X346844Y367021D02*
X373807D01*
X347625Y365834D02*
X374298D01*
X343996Y362205D02*
X347625Y365834D01*
X343799Y362205D02*
X343996D01*
X374298Y365834D02*
X387303Y378839D01*
X345162Y365339D02*
X346844Y367021D01*
X343981Y365339D02*
X345162D01*
X373807Y367021D02*
X386116Y379330D01*
X373315Y368209D02*
X384928Y379822D01*
X362981Y326584D02*
X366437Y330833D01*
X360517Y323554D02*
X362981Y326584D01*
X311516Y370472D02*
Y376386D01*
X311500Y376402D02*
X311516Y376386D01*
X381496Y459842D02*
X383272Y457666D01*
X292020Y477064D02*
X294882Y478346D01*
X308955Y481821D02*
X311910Y482480D01*
X367126Y470571D02*
X369647Y468883D01*
X276416Y468883D02*
X278937Y470571D01*
X351181Y477953D02*
X354043Y477064D01*
X262890Y457666D02*
X264665Y459842D01*
X311134Y477464D02*
X311135Y477464D01*
X311016Y477449D02*
X311134Y477464D01*
X259866Y449030D02*
X267319Y455518D01*
X251893Y443915D02*
X259866Y449030D01*
X267405Y455590D02*
X278310Y464442D01*
X280290Y465881D01*
X292832Y472275D01*
X295065Y473269D01*
X308628Y476941D01*
X311016Y477449D01*
X311192Y477472D02*
X327888Y479423D01*
X337108Y481920D01*
X245320Y439630D02*
X249363Y446633D01*
X244072Y428142D02*
X244677Y438516D01*
X245320Y439630D01*
X249363Y446633D02*
X254647Y453817D01*
X255570Y454841D01*
X260924Y460788D01*
X261172Y461035D01*
X267749Y466974D01*
X268304Y467377D02*
X275334Y472484D01*
X267749Y466974D02*
X268304Y467377D01*
X283069Y476965D02*
X283987Y477373D01*
X291630Y480776D01*
X275334Y472484D02*
X283069Y476965D01*
X300093Y483566D02*
X301282Y483819D01*
X291630Y480776D02*
X300093Y483566D01*
X301282Y483819D02*
X309262Y485515D01*
X309674D01*
X319488Y482972D01*
X299114Y479724D02*
X302024Y480348D01*
X239770Y411068D02*
X240059Y414075D01*
X282874Y472835D02*
X285546Y474182D01*
X238681Y396555D02*
X238930Y393913D01*
X268307Y462795D02*
X270683Y464717D01*
X240846Y379626D02*
X241882Y376629D01*
X255906Y450098D02*
X258148Y452400D01*
X246949Y362500D02*
X248251Y360155D01*
X243496Y395911D02*
X244339Y409528D01*
X243497Y395508D02*
X243501Y395446D01*
X243757Y393008D02*
X245938Y379493D01*
X245956Y379395D02*
X245993Y379204D01*
X247791Y428101D02*
X248350Y437778D01*
X244597Y411979D02*
X247791Y428101D01*
X243501Y395446D02*
X243757Y393008D01*
X245993Y379204D02*
X246749Y376876D01*
X251673Y363640D01*
X244339Y409528D02*
X244597Y411979D01*
X251673Y363640D02*
X255467Y354756D01*
X257951Y345533D01*
X235391Y403371D02*
X236262Y411651D01*
X236372Y412697D02*
X241882Y421402D01*
X236262Y411651D02*
X236372Y412697D01*
X235293Y394933D02*
X235391Y403371D01*
X235293Y394562D02*
Y394933D01*
X236133Y386571D02*
X236273Y385236D01*
X235293Y394562D02*
X236133Y386571D01*
X244579Y359417D02*
X245240Y358271D01*
X241059Y367675D02*
X244579Y359417D01*
X236273Y385236D02*
X238163Y376588D01*
X245240Y358271D02*
X249265Y351300D01*
X238163Y376588D02*
X241059Y367675D01*
X249265Y351300D02*
X254451Y344116D01*
X260727Y337145D01*
X260975Y336898D01*
X270584Y333118D01*
X238583Y401083D02*
X239029Y404020D01*
X239671Y386865D02*
X239961Y384055D01*
X299016Y318209D02*
X302024Y317388D01*
X244072Y369889D02*
X245276Y367028D01*
X316339Y314862D02*
X319488D01*
X251795Y354018D02*
X253051Y351378D01*
X334055Y315354D02*
X337108Y316013D01*
X311025Y320286D02*
X311156Y320269D01*
X311398Y320248D02*
X325099Y319568D01*
X262693Y340267D02*
X271666Y336719D01*
X280196Y331950D01*
X292731Y325561D01*
X294965Y324566D01*
X308622Y320796D01*
X311025Y320286D01*
X325099Y319568D02*
X328051D01*
X344346Y321181D01*
X344758D01*
X354043Y320672D01*
X276187Y327672D02*
X276188Y327676D01*
X276317Y328952D01*
X280739Y321863D02*
X291531Y317059D01*
X276358Y327102D02*
X280451Y322083D01*
X300093Y314170D02*
X308020Y312485D01*
X291531Y317059D02*
X300093Y314170D01*
X308020Y312485D02*
X309262Y312221D01*
X318175Y311313D02*
X327888D01*
X309262Y312221D02*
X318175Y311313D01*
X336801Y312319D02*
X337738Y312519D01*
X327888Y311313D02*
X336801Y312319D01*
X337738Y312519D02*
X345970Y314268D01*
X354433Y316960D01*
X362994Y320772D01*
X363331Y321108D01*
X369647Y328854D01*
X291922Y320770D02*
X294587Y319587D01*
X381004Y337894D02*
X383173Y340070D01*
X308955Y315915D02*
X311811Y315059D01*
X392618Y351279D02*
X394170Y353920D01*
X326575Y314862D02*
X329626Y314961D01*
X400787Y366831D02*
X401893Y369692D01*
X344039Y317487D02*
X346654Y318012D01*
X405807Y383465D02*
X406293Y386767D01*
X404083Y376432D02*
X405217Y379724D01*
X383718Y347708D02*
X383739Y347731D01*
X383649Y347637D02*
X383649Y347638D01*
X373796Y337735D02*
X383649Y347637D01*
X366714Y331110D02*
X373712Y337653D01*
X366437Y330833D02*
X366714Y331110D01*
X383739Y347731D02*
X385382Y349555D01*
X393066Y361419D01*
X394290Y363540D01*
X399215Y376679D01*
X399969Y378998D01*
X403636Y395444D01*
X406936Y404414D01*
X396700Y351202D02*
X398873Y354966D01*
X384892Y336701D02*
X385139Y336948D01*
X391416Y343919D02*
X396700Y351202D01*
X385139Y336948D02*
X391416Y343919D01*
X398873Y354966D02*
X401386Y359318D01*
X404906Y367478D01*
X407802Y376391D01*
X409691Y385138D01*
X410123Y389246D02*
X410672Y394464D01*
X409691Y385138D02*
X410123Y389246D01*
X410672Y394464D02*
Y394834D01*
X410573Y403764D02*
X410672Y394834D01*
X409593Y413091D02*
X410573Y403764D01*
X404181Y421304D02*
X409593Y413091D01*
X387915Y345337D02*
X390059Y347539D01*
X406962Y396689D02*
X407034Y393815D01*
X397713Y437679D02*
X399114Y434842D01*
X397713Y360057D02*
X399311Y362303D01*
X388014Y452400D02*
X390059Y450000D01*
X375380Y464717D02*
X378051Y463091D01*
X360517Y474182D02*
X360690D01*
X357280Y475623D02*
X360517Y474182D01*
X397552Y426480D02*
X397819Y425658D01*
X397842Y425584D02*
X400287Y417501D01*
X344039Y480446D02*
X351521Y474333D01*
X351618Y474265D02*
X365836Y465818D01*
X400481Y417176D02*
X406195Y411461D01*
X366089Y465652D02*
X367673Y464500D01*
X379119Y455246D02*
X380430Y453790D01*
X389606Y442310D02*
X390584Y440616D01*
X397214Y427521D02*
X397552Y426480D01*
X367805Y464399D02*
X378744Y455601D01*
X380552Y453647D02*
X389324Y442722D01*
X390670Y440459D02*
X397020Y427989D01*
X401836Y437599D02*
X401955Y437219D01*
X401991Y428044D02*
Y436980D01*
X400296Y440304D02*
X401764Y437762D01*
X397737Y444737D02*
X398522Y443377D01*
X398525Y443372D02*
X400294Y440309D01*
X362938Y476984D02*
X370867Y472378D01*
X376671Y468167D02*
X378263Y467010D01*
X385251Y460773D02*
X386568Y459310D01*
X386569Y459308D02*
X387621Y458141D01*
X387622Y458139D02*
X388939Y456676D01*
X342277Y484450D02*
X345737Y483714D01*
X345834Y483688D02*
X354517Y480735D01*
X361064Y477824D02*
X362858Y477025D01*
X370937Y472333D02*
X372530Y471176D01*
X372533Y471174D02*
X373801Y470252D01*
X375399Y469091D02*
X376668Y468169D01*
X389993Y455506D02*
X391310Y454043D01*
X396752Y446444D02*
X397736Y444739D01*
X336886Y485596D02*
X338805Y485188D01*
X378327Y466959D02*
X385188Y460835D01*
X391368Y453971D02*
X396708Y446512D01*
X326575Y482972D02*
X336514Y485587D01*
X338811Y485186D02*
X342271Y484451D01*
X354590Y480706D02*
X361059Y477826D01*
X373804Y470250D02*
X375396Y469093D01*
X388940Y456675D02*
X389992Y455508D01*
X386925Y372461D02*
X388507Y365372D01*
X343779Y359227D02*
X346654Y356353D01*
X352356Y342421D02*
X358823D01*
X343575Y351202D02*
Y353088D01*
X343711Y356132D02*
X345472Y354371D01*
X346660Y351476D02*
Y354863D01*
X366163Y344980D02*
X369132Y342011D01*
X346654Y354869D02*
X346660Y354863D01*
X353156Y344980D02*
X366163D01*
X346660Y351476D02*
X353156Y344980D01*
X369132Y341619D02*
Y342011D01*
X345472Y350984D02*
Y354371D01*
X358823Y342421D02*
X363399Y337845D01*
X369132Y341619D02*
X370629Y348705D01*
X345472Y350984D02*
X352756Y343701D01*
X343575Y351202D02*
X352356Y342421D01*
X388159Y372517D02*
X392084Y365225D01*
X366266Y339536D02*
Y339928D01*
X362493Y343701D02*
X366266Y339928D01*
X363399Y337453D02*
X366775Y335999D01*
X363399Y337453D02*
Y337845D01*
X248251Y360155D02*
X250023Y357087D01*
X251795Y354018D01*
X241882Y376629D02*
X242977Y373259D01*
X244072Y369889D01*
X238930Y393913D02*
X239301Y390389D01*
X239671Y386865D01*
X239399Y407544D02*
X239770Y411068D01*
X239029Y404020D02*
X239399Y407544D01*
X241882Y421402D02*
X242977Y424772D01*
X250121Y440846D02*
X251893Y443915D01*
X248350Y437778D02*
X250121Y440846D01*
X260519Y455033D02*
X262890Y457666D01*
X258148Y452400D02*
X260519Y455033D01*
X273549Y466800D02*
X276416Y468883D01*
X270683Y464717D02*
X273549Y466800D01*
X288783Y475623D02*
X292020Y477064D01*
X285546Y474182D02*
X288783Y475623D01*
X305489Y481085D02*
X308955Y481821D01*
X302024Y480348D02*
X305489Y481085D01*
X323031Y482972D02*
X326575D01*
X319488D02*
X323031D01*
X340574Y481183D02*
X344039Y480446D01*
X337108Y481920D02*
X340574Y481183D01*
X354043Y477064D02*
X357280Y475623D01*
X372514Y466800D02*
X375380Y464717D01*
X383272Y457666D02*
X385643Y455033D01*
X388014Y452400D01*
X394170Y443817D02*
X395941Y440748D01*
X397713Y437679D01*
X401991Y428044D02*
X403086Y424674D01*
X404181Y421304D01*
X406195Y411461D02*
X406565Y407937D01*
X406936Y404414D01*
X406664Y390291D02*
X407034Y393815D01*
X406293Y386767D02*
X406664Y390291D01*
X402988Y373062D02*
X404083Y376432D01*
X401893Y369692D02*
X402988Y373062D01*
X395941Y356988D02*
X397713Y360057D01*
X394170Y353920D02*
X395941Y356988D01*
X385544Y342703D02*
X387915Y345337D01*
X383173Y340070D02*
X385544Y342703D01*
X372514Y330936D02*
X375380Y333019D01*
X369647Y328854D02*
X372514Y330936D01*
X357280Y322113D02*
X360517Y323554D01*
X354043Y320672D02*
X357280Y322113D01*
X340574Y316750D02*
X344039Y317487D01*
X337108Y316013D02*
X340574Y316750D01*
X323031Y314862D02*
X326575D01*
X319488D02*
X323031D01*
X305489Y316652D02*
X308955Y315915D01*
X302024Y317388D02*
X305489Y316652D01*
X257951Y345533D02*
X260322Y342900D01*
X262693Y340267D01*
X288685Y322212D02*
X291922Y320770D01*
X285448Y323653D02*
X288685Y322212D01*
X273451Y331035D02*
X276317Y328952D01*
X270584Y333118D02*
X273451Y331035D01*
X343898Y365256D02*
X343981Y365339D01*
X285149Y337561D02*
X289695Y338240D01*
X282565Y337552D02*
X285032D01*
X327748Y337886D02*
X327854Y337992D01*
X311708Y337886D02*
X327748D01*
X308779Y340815D02*
X311708Y337886D01*
X285630Y340815D02*
X308779D01*
X282565Y337552D02*
Y337751D01*
X285630Y340815D01*
X283974Y343799D02*
X284583Y343190D01*
X279359Y335974D02*
X279699Y339634D01*
X311608Y339665D02*
X324606D01*
X282183Y342002D02*
X309271D01*
X311608Y339665D01*
X279815Y339634D02*
X282183Y342002D01*
X279699Y339634D02*
X279815D01*
X286059Y346752D02*
X312402D01*
X278979Y353832D02*
X286059Y346752D01*
X311622Y344972D02*
X315445D01*
X311030Y345565D02*
X311622Y344972D01*
X315445D02*
X315453Y344980D01*
X265996Y352792D02*
X267036Y353832D01*
X265850Y352646D02*
X265996Y352792D01*
X311524Y343201D02*
X318398D01*
X285075Y344377D02*
X310347D01*
X279933Y351199D02*
X285567Y345565D01*
X311030D01*
X276492Y338057D02*
X276832Y341717D01*
X321449Y341528D02*
X321555Y341634D01*
X309763Y343190D02*
X311425Y341528D01*
X321449D01*
X279316Y343799D02*
X283974D01*
X277234Y341717D02*
X279316Y343799D01*
X276832Y341717D02*
X277234D01*
X284583Y343190D02*
X309763D01*
X318398Y343201D02*
X318504Y343307D01*
X310347Y344377D02*
X311524Y343201D01*
X289328Y333364D02*
X289352Y333264D01*
X334898Y326411D02*
X337390Y323709D01*
X293415Y326556D02*
X295218Y325753D01*
X280887Y348565D02*
X285075Y344377D01*
X250552Y373993D02*
X253324Y373204D01*
X384941Y431442D02*
X385334Y430761D01*
X385613Y428424D02*
X391882Y424759D01*
X390744D02*
X391882D01*
X384928Y418943D02*
X390744Y424759D01*
X384928Y379822D02*
Y418943D01*
X392977Y421389D02*
X395401Y424148D01*
X366266Y458200D02*
X366605Y461860D01*
X391839Y421389D02*
X392977D01*
X386116Y415666D02*
X391839Y421389D01*
X386116Y379330D02*
Y415666D01*
X369544Y456112D02*
X369873Y455782D01*
X392934Y418019D02*
X394072D01*
X387303Y412388D02*
X392934Y418019D01*
X387303Y378839D02*
Y412388D01*
X349719Y467353D02*
X350148Y463702D01*
X374303Y446505D02*
X375576Y443419D01*
X342794Y465253D02*
X349719Y467353D01*
X339882Y465620D02*
X341814Y465209D01*
X334898Y471522D02*
X336076Y468040D01*
X356852Y464474D02*
X364061Y465065D01*
X356193Y464471D02*
X356788D01*
X355765Y468119D02*
X356193Y464471D01*
X341829Y470049D02*
X349405Y472179D01*
X350750Y472080D02*
X352542Y471282D01*
X353109Y470903D02*
X355522Y468606D01*
X338364Y470785D02*
X339542Y467303D01*
X340129Y466781D02*
X342054Y466372D01*
X342653Y466484D02*
X349506Y470935D01*
X352956Y465912D02*
X353385Y462261D01*
X350264Y470997D02*
X352062Y470196D01*
X352528Y469560D02*
X352956Y465912D01*
X369873Y455782D02*
X376945Y455101D01*
X369392Y456112D02*
X369475Y459831D01*
X369392Y456112D02*
X369544D01*
X394072Y418019D02*
X396498Y420781D01*
X367453Y463048D02*
X369335Y460302D01*
X365390Y464692D02*
X366977Y463538D01*
X363059Y456622D02*
X363399Y460283D01*
X363399D01*
X356163Y459581D02*
X363399Y460283D01*
X353363Y460546D02*
X355166Y459743D01*
X350389Y463220D02*
X352807Y460919D01*
X356263Y460815D02*
X363929Y463828D01*
X353850Y461629D02*
X355649Y460828D01*
X365926Y454540D02*
X366266Y458200D01*
X364689Y463733D02*
X365570Y463093D01*
X366282Y462576D01*
X380114Y445287D02*
X381207Y448794D01*
X378236Y454453D02*
X379549Y452993D01*
X379912Y452417D02*
X381183Y449337D01*
X336412Y467618D02*
X339256Y465870D01*
X365547Y452867D02*
X367144Y451707D01*
X374279Y447043D02*
X375372Y450553D01*
X368096Y451340D02*
X375372Y450553D01*
X366250Y453824D02*
X367842Y452667D01*
X368441Y452527D02*
X376628Y453911D01*
X376650Y444410D02*
X377743Y447920D01*
X377351Y453660D02*
X378669Y452197D01*
X377743Y447920D02*
X378836Y451427D01*
X388650Y433204D02*
X390263Y435500D01*
X388507Y432365D02*
Y432751D01*
X388576Y441719D02*
X389557Y440021D01*
X389792Y439381D02*
X390394Y436106D01*
X380114Y445287D02*
X387532Y442595D01*
X383165Y435296D02*
X384964Y438502D01*
X378088Y440835D02*
X384964Y438502D01*
X375932Y442853D02*
X377252Y441386D01*
X363195Y456100D02*
X365082Y453346D01*
X386736Y435433D02*
X388535Y438639D01*
X378687Y441919D02*
X386893Y441525D01*
X376818Y443643D02*
X378135Y442180D01*
X387546Y441129D02*
X388530Y439424D01*
X396695Y421283D02*
X396787Y424615D01*
X396084Y427155D02*
X396690Y425290D01*
X388507Y432365D02*
X395230Y428238D01*
X383076Y434764D02*
X383680Y431481D01*
X383913Y430848D02*
X384897Y429144D01*
X386415Y429365D02*
X394393Y427316D01*
X395401Y424148D02*
X395401Y424149D01*
X385334Y430761D02*
X385925Y429737D01*
X384938Y432230D02*
X386736Y435433D01*
X394953Y426792D02*
X395184Y426082D01*
X395562Y424920D01*
X392677Y408155D02*
X395623Y410350D01*
X391595Y404458D02*
X392378Y407703D01*
X392126Y400868D02*
X396462Y394926D01*
X391549Y403793D02*
X391756Y401828D01*
X396581Y401330D02*
X400734Y396990D01*
X396364Y401873D02*
Y403302D01*
X399447Y389794D02*
X400887Y392804D01*
X395722Y387878D02*
X399062Y389414D01*
X401071Y393454D02*
X401276Y395407D01*
X395722Y387878D02*
X398728Y380560D01*
X395807Y391117D02*
X396092Y391402D01*
X395807Y391117D02*
X395807Y391117D01*
X395530Y390937D02*
X395530Y390937D01*
X392800Y389886D02*
X395530Y390937D01*
X393235Y401412D02*
X399795Y396242D01*
X392831Y402960D02*
X392937Y401953D01*
X371775Y348241D02*
X372340Y340024D01*
X393048Y404631D02*
X395994Y406826D01*
X399890Y393576D02*
X400096Y395534D01*
X396092Y391402D02*
X399431Y392937D01*
X398174Y377317D02*
X398478Y378253D01*
X391783Y370196D02*
Y372977D01*
X395824Y374075D02*
X397860Y376721D01*
X391783Y372977D02*
X395370Y373785D01*
X398478Y378253D02*
X398781Y379186D01*
X391297Y390000D02*
X392738Y393012D01*
X391062Y386396D02*
X393973Y379717D01*
X393125Y393391D02*
X396462Y394926D01*
X390907Y387388D02*
X391114Y389359D01*
X392265Y386683D02*
X397510Y380307D01*
X392089Y387270D02*
X392294Y389228D01*
X392878Y376347D02*
X396464Y377155D01*
X397045Y377684D02*
X397653Y379556D01*
X387897Y375974D02*
X389932Y378619D01*
X346654Y354869D02*
Y356353D01*
X386972Y373500D02*
X387582Y375377D01*
X386972Y373500D02*
X386972Y373500D01*
X390390Y378910D02*
X393973Y379717D01*
X391821Y369954D02*
X393271Y365457D01*
X389145Y359469D02*
X391684Y361631D01*
X384964Y359234D02*
X388640Y359279D01*
X392116Y362148D02*
X393103Y363858D01*
X388103Y373138D02*
X388712Y375010D01*
X381319Y359553D02*
X383488Y351547D01*
X391089Y362744D02*
X392073Y364449D01*
X386736Y362303D02*
X390411Y362348D01*
X389294Y375540D02*
X392878Y376347D01*
X381788Y362976D02*
X384327Y365138D01*
X380367Y360746D02*
X381357Y362460D01*
X380367Y360746D02*
X380367Y360746D01*
X379963Y352701D02*
X380104Y359800D01*
X379963Y352449D02*
Y352685D01*
X384833Y365327D02*
X388507Y365372D01*
X375274Y347183D02*
X378878Y346462D01*
X379412Y346543D02*
X382348Y348132D01*
X382877Y348548D02*
X384194Y350011D01*
X384702Y351273D02*
X384964Y359234D01*
X377645Y349816D02*
X381249Y349096D01*
X381398Y360157D02*
X382382Y361862D01*
X352756Y343701D02*
X362493D01*
X381995Y349343D02*
X383312Y350806D01*
X383061Y362259D02*
X386736Y362303D01*
X372943Y351501D02*
X375877Y353090D01*
X371095Y349621D02*
X372412Y351084D01*
X376454Y353160D02*
X379818Y352305D01*
X379963Y352449D01*
X371117Y337206D02*
X372718Y338369D01*
X371117Y337206D02*
X371117Y337206D01*
X367314Y335967D02*
X370516Y336910D01*
X373478Y339518D02*
X375274Y347183D01*
X366266Y339536D02*
X369642Y338082D01*
X392731Y403910D02*
X392831Y402960D01*
X370422Y338169D02*
X372015Y339326D01*
X370422Y338168D02*
X370422Y338169D01*
X374042Y350536D02*
X377645Y349816D01*
X371977Y348827D02*
X373294Y350290D01*
X346892Y334309D02*
X348693Y335111D01*
X344424Y330530D02*
X345946Y333422D01*
X341829Y327884D02*
X344281Y330336D01*
X349350Y335276D02*
X352670Y335533D01*
X353196Y335388D02*
X356193Y333265D01*
X348676Y329340D02*
X349719Y330383D01*
X348676Y329340D02*
X348676Y329340D01*
X344970Y324232D02*
X348594Y329243D01*
X341851Y323046D02*
X343780Y323456D01*
X337869Y323461D02*
X341178Y323020D01*
X347376Y333225D02*
X349175Y334026D01*
X344110Y325119D02*
X346955Y332776D01*
X341605Y324208D02*
X343530Y324617D01*
X338364Y327148D02*
X340856Y324446D01*
X349960Y333946D02*
X352956Y331824D01*
X334871Y331248D02*
X334871Y331248D01*
X332950Y330840D02*
X334871Y331248D01*
X326575Y325492D02*
X332042Y330379D01*
X339339Y330583D02*
X341829Y327884D01*
X335550Y331275D02*
X338855Y330835D01*
X319488Y325492D02*
X321365Y322331D01*
X329106Y321499D02*
X332065Y325197D01*
X321781Y321988D02*
X324927Y320870D01*
X325590Y320755D02*
X327559D01*
X328230Y322312D02*
X332692Y329327D01*
X328230Y322312D02*
X328230Y322312D01*
X325590Y321942D02*
X327559D01*
X323031Y325492D02*
X324908Y322331D01*
X333197Y329678D02*
X335122Y330088D01*
X335873Y329847D02*
X338364Y327148D01*
X296553Y325654D02*
X304234Y327786D01*
X304234Y327786D02*
X305412Y324304D01*
X309213Y321885D02*
X311150Y321473D01*
X312508Y321675D02*
X319488Y325492D01*
X318504Y330229D02*
X320472D01*
X310001Y329749D02*
X310654Y327402D01*
X310858Y327054D02*
X310858Y327054D01*
X311165Y326312D02*
X317512Y329963D01*
X321142Y330113D02*
X324279Y328997D01*
X324700Y328650D02*
X326575Y325492D01*
X318504Y329042D02*
X320472D01*
X312123Y322858D02*
X317936Y328802D01*
X307699Y327049D02*
X308878Y323567D01*
X309465Y323045D02*
X311390Y322636D01*
X321157Y328650D02*
X323031Y325492D01*
X281901Y332769D02*
X289262Y333361D01*
X305748Y323882D02*
X308592Y322134D01*
X289352Y333264D02*
X290216Y329622D01*
X290441Y329230D02*
X292859Y326929D01*
X295817Y334129D02*
X296245Y330481D01*
X303273Y332583D02*
X303274Y332583D01*
X296245Y330481D02*
X303273Y332583D01*
X306810Y331963D02*
X309648Y330218D01*
X305567Y332345D02*
X306179Y332215D01*
X304257Y332624D02*
X305567Y332345D01*
X296451Y326895D02*
X303414Y331353D01*
X293902Y327639D02*
X295701Y326838D01*
X293008Y331922D02*
X293437Y328271D01*
X304009Y331463D02*
X305934Y331053D01*
X306522Y330529D02*
X307699Y327049D01*
X276628Y337535D02*
X278515Y334781D01*
X278980Y334301D02*
X280582Y333138D01*
X293160Y336913D02*
X295573Y334616D01*
X290802Y338090D02*
X292595Y337292D01*
X282034Y334006D02*
X289700Y337019D01*
X279683Y335259D02*
X281275Y334102D01*
X292580Y335570D02*
X293008Y331922D01*
X291453Y336501D02*
X292114Y336206D01*
X290316Y337007D02*
X291453Y336501D01*
X273000Y408902D02*
X275131D01*
X273000Y418902D02*
X278500Y413402D01*
X273000Y378902D02*
X279840Y385741D01*
X261687Y438789D02*
X268040Y440824D01*
X245869Y395632D02*
X246075Y393674D01*
X248311Y379753D02*
X248920Y377881D01*
X266988Y346659D02*
X270592Y347380D01*
Y347380D02*
X271778Y348565D01*
X280887D01*
X264617Y349292D02*
X268221Y350013D01*
X269407Y351199D01*
X279933D01*
X265850Y352646D02*
Y352935D01*
X267036Y353832D02*
X278979D01*
X246327Y412649D02*
X251991Y418118D01*
X246653Y405105D02*
X249601Y402909D01*
X245572Y408801D02*
X246356Y405555D01*
X245527Y409466D02*
X245734Y411437D01*
X251281Y410895D02*
X255642Y414865D01*
X250341Y409957D02*
X251252Y410868D01*
X256805Y421593D02*
X256897Y418262D01*
X256193Y415721D02*
X256800Y417587D01*
X254181Y424857D02*
X256606Y422098D01*
X250452Y405578D02*
X252818Y404299D01*
X247348Y411933D02*
X254665Y415621D01*
X247023Y408629D02*
X249971Y406433D01*
X246708Y409349D02*
X246914Y411306D01*
X253086Y421488D02*
X255511Y418728D01*
X255395Y417105D02*
X255671Y417957D01*
X255063Y416085D02*
X255395Y417105D01*
X247634Y400942D02*
X247637Y400945D01*
X244983Y396772D02*
X247531Y400811D01*
X244688Y395508D02*
X244829Y394167D01*
X244894Y393550D01*
X246903Y389512D02*
X250243Y387977D01*
X245077Y392902D02*
X246519Y389891D01*
X247637Y400945D02*
X249601Y402909D01*
X249502Y395024D02*
X253786Y400406D01*
X253586Y407309D02*
X254369Y404068D01*
X254209Y401437D02*
X254414Y403390D01*
X250341Y409957D02*
X253286Y407762D01*
X246198Y396361D02*
X252699Y400995D01*
X250433Y391036D02*
X253162Y389986D01*
X246533Y393036D02*
X249872Y391500D01*
X253161Y402822D02*
X253234Y403517D01*
X253028Y401559D02*
X253161Y402822D01*
X253539Y373174D02*
X254181D01*
X247180Y379392D02*
X247790Y377514D01*
X248060Y376978D02*
X249606Y374803D01*
X249606Y374803D02*
X250205Y374198D01*
X247238Y380762D02*
X250243Y387977D01*
X251991Y379914D02*
X254898Y386484D01*
X254851Y389447D02*
X255056Y387496D01*
X253227Y393109D02*
X254665Y390104D01*
X249502Y395024D02*
X252839Y393490D01*
X248458Y380508D02*
X253694Y386775D01*
X248458Y380508D02*
X248458Y380508D01*
X249500Y377352D02*
X253086Y376544D01*
X253670Y389327D02*
X253876Y387369D01*
X249872Y391500D02*
X250157Y391215D01*
X254278Y361732D02*
X256820Y359567D01*
X261000Y359333D02*
X261163Y351493D01*
X257325Y359378D02*
X261000Y359333D01*
X252693Y365552D02*
X254142Y370050D01*
X252860Y363959D02*
X253851Y362243D01*
X254181Y370294D02*
Y373174D01*
X257457Y365470D02*
X259041Y372664D01*
X258383Y375570D02*
X258989Y373706D01*
X256034Y378814D02*
X258065Y376174D01*
X251991Y379914D02*
X255574Y379107D01*
X253878Y365318D02*
X257806Y372715D01*
X253891Y364548D02*
X254875Y362843D01*
X255553Y362446D02*
X259229Y362402D01*
X257253Y375207D02*
X257861Y373335D01*
X253086Y376544D02*
X256670Y375737D01*
X263518Y348328D02*
X266454Y346740D01*
X261668Y350212D02*
X262993Y348741D01*
X264613Y362550D02*
X265593Y360852D01*
X261639Y365235D02*
X264175Y363076D01*
X265850Y352937D02*
X265860Y359850D01*
X257457Y365470D02*
X261132Y365426D01*
X263597Y356445D02*
X264633Y359609D01*
X262554Y351003D02*
X263871Y349540D01*
X262375Y351732D02*
X263583Y356398D01*
X259229Y362402D02*
X262903Y362357D01*
X263582Y361960D02*
X264567Y360255D01*
X255782Y435626D02*
X257427Y433084D01*
X257556Y432463D02*
Y432653D01*
X297638Y361122D02*
X301378Y357382D01*
X260728Y375886D02*
X275492Y361122D01*
X297638D01*
X258204Y432463D02*
X260728Y429939D01*
X257556Y432463D02*
X258204D01*
X260728Y375886D02*
Y429939D01*
X267325Y451430D02*
X268418Y447920D01*
X257528Y438737D02*
X259327Y435532D01*
X279457Y461861D02*
X279797Y458200D01*
X259327Y435532D02*
X259612D01*
X261916Y376378D02*
Y433227D01*
X259612Y435532D02*
X261916Y433227D01*
Y376378D02*
X275872Y362421D01*
X263189Y376784D02*
Y436405D01*
Y376784D02*
X276364Y363609D01*
X261747Y437847D02*
X263189Y436405D01*
X276364Y363609D02*
X301354D01*
X261747Y437847D02*
Y438600D01*
X261099D02*
X261747D01*
X264954Y448797D02*
X266047Y445287D01*
X258558Y442703D02*
X266047Y445287D01*
X256502Y440111D02*
X257491Y441826D01*
X256502Y440111D02*
X256502Y440111D01*
X255668Y436201D02*
X256272Y439484D01*
X270789Y450553D02*
X277427Y450997D01*
X270586Y443421D02*
X271859Y446505D01*
X268909Y441386D02*
X270226Y442848D01*
X270789Y450553D02*
X271882Y447047D01*
X257533Y439523D02*
X258517Y441227D01*
X259180Y441624D02*
X267465Y441918D01*
X299390Y362421D02*
X301378Y360433D01*
X268027Y442180D02*
X269344Y443643D01*
X268418Y447920D02*
X269511Y444413D01*
X266610Y452991D02*
X267928Y454454D01*
X264978Y449335D02*
X266251Y452421D01*
X276591Y459778D02*
X276931Y456117D01*
X269143Y455093D02*
X276878Y456117D01*
X276931D01*
X282664Y460283D02*
X285131D01*
X280983Y453350D02*
X282868Y456100D01*
X278457Y451371D02*
X280511Y452864D01*
X282664Y460283D02*
X283004Y456624D01*
X275872Y362421D02*
X299390D01*
X270267Y453857D02*
X270273Y453857D01*
X269462Y453920D02*
X270267Y453857D01*
X277758Y452331D02*
X279813Y453824D01*
X267493Y452197D02*
X268810Y453660D01*
X270394Y453837D02*
X277112Y452202D01*
X279797Y458200D02*
X280137Y454541D01*
X293753Y461015D02*
X293753Y461015D01*
X290892Y459741D02*
X293753Y461015D01*
X296344Y467353D02*
X298845D01*
X294543Y461654D02*
X295767Y463326D01*
X294542Y461653D02*
X294543Y461654D01*
X285250Y460274D02*
X289799Y459594D01*
X295915Y463706D02*
X296344Y467353D01*
X276726Y460300D02*
X278612Y463051D01*
X279083Y463537D02*
X280676Y464694D01*
X282005Y465065D02*
X289363Y464474D01*
X289870Y464471D02*
X290298Y468122D01*
X289426Y464471D02*
X289870D01*
X282135Y463828D02*
X289801Y460814D01*
X290414Y460828D02*
X293267Y462098D01*
X293107Y465912D02*
X293535Y469563D01*
X279781Y462576D02*
X281374Y463733D01*
X304256Y465112D02*
X306185Y465522D01*
X311165Y471424D02*
X317536Y467858D01*
X306807Y465771D02*
X309651Y467520D01*
X318504Y467605D02*
X320472D01*
X321136Y467720D02*
X324282Y468839D01*
X299215Y467261D02*
X302916Y465300D01*
X324699Y469183D02*
X324699Y469183D01*
X326575Y472342D01*
X309987Y467943D02*
X311165Y471424D01*
X290539Y468605D02*
X292958Y470906D01*
X293516Y471280D02*
X295317Y472082D01*
X304234Y469950D02*
X305412Y473432D01*
X296687Y472170D02*
X304234Y469950D01*
X294001Y470196D02*
X295799Y470997D01*
X296564Y470931D02*
X303405Y466389D01*
X304009Y466274D02*
X305934Y466683D01*
X306522Y467206D02*
X307699Y470687D01*
X305749Y473855D02*
X308592Y475603D01*
X309219Y475853D02*
X311141Y476261D01*
X312492Y476070D02*
X319488Y472342D01*
X312117Y474885D02*
X312182Y474820D01*
X308810Y473926D02*
X308861Y474117D01*
X308256Y471889D02*
X308780Y473815D01*
X321156Y469183D02*
X323031Y472342D01*
X321156Y469183D02*
X321156Y469183D01*
X317882Y469093D02*
X317882Y469093D01*
X312225Y474774D02*
X312351Y474628D01*
X318504Y468793D02*
X320472D01*
X312390Y474586D02*
X317882Y469093D01*
X308780Y473815D02*
X308808Y473919D01*
X309468Y474692D02*
X311392Y475101D01*
X339500Y404902D02*
X366517D01*
X370869Y408902D02*
X373000D01*
X369001Y407033D02*
X370869Y408902D01*
X368649Y407033D02*
X369001D01*
X338000Y406902D02*
X338188Y406713D01*
X338884D02*
X338916Y406681D01*
X365687Y406089D02*
X367000Y407402D01*
X340237Y406681D02*
X340829Y406089D01*
X367000Y407402D02*
Y412902D01*
X342500Y400902D02*
X344125Y402527D01*
X364687Y403714D02*
X367500Y400902D01*
X341000Y402902D02*
X341141D01*
X278500Y407863D02*
X280565Y405798D01*
X278500Y401402D02*
X280521Y403423D01*
X305459Y402734D02*
X305724D01*
X279422Y404610D02*
X307442D01*
X279840Y385741D02*
Y401062D01*
X281013Y402236D01*
X341141Y402902D02*
X341953Y403714D01*
X366517Y404902D02*
X368187Y406572D01*
X364196Y402527D02*
X366313Y400410D01*
X344125Y402527D02*
X364196D01*
X338188Y406713D02*
X338884D01*
X340829Y406089D02*
X365687D01*
X368187Y406572D02*
Y406572D01*
X341953Y403714D02*
X364687D01*
X367500Y394402D02*
Y400902D01*
Y394402D02*
X373000Y388902D01*
X366313Y385589D02*
Y400410D01*
Y385589D02*
X373000Y378902D01*
X306705Y406390D02*
X309084D01*
X309156Y406462D01*
X280565Y405798D02*
X306113D01*
X278500Y407863D02*
Y413402D01*
X306113Y405798D02*
X306705Y406390D01*
X303734Y400902D02*
X304000D01*
X281013Y402236D02*
X302400D01*
X303734Y400902D01*
X273000Y388902D02*
X278500Y394402D01*
X277175Y406857D02*
X279422Y404610D01*
X304770Y403423D02*
X305459Y402734D01*
X278500Y394402D02*
Y401402D01*
X277175Y406857D02*
X277175D01*
X275131Y408902D02*
X277175Y406857D01*
X280521Y403423D02*
X304770D01*
X368187Y406572D02*
X368649Y407033D01*
X338916Y406681D02*
X340237D01*
X367000Y412902D02*
X373000Y418902D01*
D57*
X353031Y353917D02*
D03*
X293032D02*
D03*
Y443917D02*
D03*
X353031D02*
D03*
D58*
X373031Y398917D02*
D03*
X273031Y378917D02*
D03*
Y408917D02*
D03*
X373031Y388917D02*
D03*
Y408917D02*
D03*
X273031Y418917D02*
D03*
X373031D02*
D03*
X273031Y398917D02*
D03*
Y388917D02*
D03*
X373031Y378917D02*
D03*
D59*
X309429Y458957D02*
D03*
X319429D02*
D03*
X329429D02*
D03*
D60*
X339429D02*
D03*
D61*
X310531Y436614D02*
D03*
X296161Y381693D02*
D03*
X316929Y376870D02*
D03*
X330315Y384842D02*
D03*
X360630Y437402D02*
D03*
X393237Y447268D02*
D03*
X281693Y324213D02*
D03*
X309646Y409842D02*
D03*
X295457Y373074D02*
D03*
X295571Y376378D02*
D03*
X329826Y423972D02*
D03*
X329823Y426181D02*
D03*
X354035Y410138D02*
D03*
X314272Y412500D02*
D03*
X320472Y415846D02*
D03*
X340846Y388386D02*
D03*
X348228Y383465D02*
D03*
X313287Y383366D02*
D03*
X304429Y373524D02*
D03*
X304528Y376378D02*
D03*
X295965Y366929D02*
D03*
Y370079D02*
D03*
X354260Y413934D02*
D03*
X351672Y408697D02*
D03*
X351644Y433803D02*
D03*
X351613Y423778D02*
D03*
X354232Y422244D02*
D03*
X330709Y414665D02*
D03*
X306988Y414370D02*
D03*
X320079Y425886D02*
D03*
X319193Y429528D02*
D03*
X338287Y386713D02*
D03*
X333661Y390354D02*
D03*
X309500Y375005D02*
D03*
X327551Y412098D02*
D03*
X307185Y410728D02*
D03*
X324606Y440945D02*
D03*
X309744Y422736D02*
D03*
X307382Y394587D02*
D03*
X313878Y389272D02*
D03*
X328113Y386319D02*
D03*
X359646Y371555D02*
D03*
X356545D02*
D03*
X353445D02*
D03*
X362992Y326575D02*
D03*
X378642Y334252D02*
D03*
X333563Y357579D02*
D03*
X311319Y367717D02*
D03*
X311516Y370472D02*
D03*
X352102Y418799D02*
D03*
X381496Y459842D02*
D03*
X294882Y478346D02*
D03*
X311910Y482480D02*
D03*
X367126Y470571D02*
D03*
X278937D02*
D03*
X351181Y477953D02*
D03*
X264665Y459842D02*
D03*
X299114Y479724D02*
D03*
X240059Y414075D02*
D03*
X282874Y472835D02*
D03*
X238681Y396555D02*
D03*
X268307Y462795D02*
D03*
X240846Y379626D02*
D03*
X255906Y450098D02*
D03*
X246949Y362500D02*
D03*
X238583Y401083D02*
D03*
X239961Y384055D02*
D03*
X299016Y318209D02*
D03*
X245276Y367028D02*
D03*
X316339Y314862D02*
D03*
X253051Y351378D02*
D03*
X334055Y315354D02*
D03*
X294587Y319587D02*
D03*
X381004Y337894D02*
D03*
X311811Y315059D02*
D03*
X392618Y351279D02*
D03*
X329626Y314961D02*
D03*
X400787Y366831D02*
D03*
X346654Y318012D02*
D03*
X405807Y383465D02*
D03*
X405217Y379724D02*
D03*
X390059Y347539D02*
D03*
X406962Y396689D02*
D03*
X399114Y434842D02*
D03*
X399311Y362303D02*
D03*
X390059Y450000D02*
D03*
X378051Y463091D02*
D03*
X362992Y473228D02*
D03*
X343575Y353088D02*
D03*
X343711Y356132D02*
D03*
X343779Y359227D02*
D03*
X291437Y408858D02*
D03*
X343799Y362205D02*
D03*
X343898Y368209D02*
D03*
Y365256D02*
D03*
X327854Y337992D02*
D03*
X324606Y339665D02*
D03*
X312402Y346752D02*
D03*
X321555Y341634D02*
D03*
X318504Y343307D02*
D03*
X315453Y344980D02*
D03*
X266339Y412992D02*
D03*
Y384941D02*
D03*
X266301Y394821D02*
D03*
X266339Y402953D02*
D03*
X379724Y412598D02*
D03*
X379823Y402658D02*
D03*
X379724Y394980D02*
D03*
Y384941D02*
D03*
X301354Y357382D02*
D03*
Y360433D02*
D03*
Y363609D02*
D03*
X307000Y418902D02*
D03*
X338000Y406902D02*
D03*
X339500Y404902D02*
D03*
X341000Y402902D02*
D03*
X342500Y400902D02*
D03*
X311500Y376402D02*
D03*
X309156Y406462D02*
D03*
X307442Y404610D02*
D03*
X304000Y400902D02*
D03*
X305724Y402734D02*
D03*
X291500Y433902D02*
D03*
Y428902D02*
D03*
Y423902D02*
D03*
Y418902D02*
D03*
Y413902D02*
D03*
D62*
X398524Y323721D02*
D03*
X247539Y323524D02*
D03*
X247441Y474508D02*
D03*
X398425Y474213D02*
D03*
D63*
X367913Y350295D02*
D03*
X266339Y433268D02*
D03*
X277953Y446850D02*
D03*
X295472Y457087D02*
D03*
X350098Y457776D02*
D03*
X370472Y440354D02*
D03*
X381594Y423917D02*
D03*
X379429Y365158D02*
D03*
X342323Y336713D02*
D03*
X322933Y333661D02*
D03*
X301870Y336417D02*
D03*
X303839Y351378D02*
D03*
X261417Y369882D02*
D03*
X257382Y410433D02*
D03*
X257480Y388583D02*
D03*
X270472Y357776D02*
D03*
X285236Y357283D02*
D03*
D64*
X337500Y391634D02*
D03*
D65*
X325197Y368602D02*
D03*
Y364272D02*
D03*
X320866Y368602D02*
D03*
Y364272D02*
D03*
D66*
X323031Y402258D02*
D03*
X326372Y398917D02*
D03*
X319691D02*
D03*
X323031Y395577D02*
D03*
D68*
X397552Y426480D02*
D03*
D69*
X401991Y428044D02*
D03*
X403086Y424674D02*
D03*
X391882Y424759D02*
D03*
X392977Y421389D02*
D03*
X404181Y421304D02*
D03*
X394072Y418019D02*
D03*
X251991Y379914D02*
D03*
X241882Y376629D02*
D03*
X253086Y376544D02*
D03*
X254181Y373174D02*
D03*
X242977Y373259D02*
D03*
X244072Y369889D02*
D03*
D70*
X388507Y432365D02*
D03*
X397713Y437679D02*
D03*
X386736Y435433D02*
D03*
X384964Y438502D02*
D03*
X395941Y440748D02*
D03*
X394170Y443817D02*
D03*
X251795Y354018D02*
D03*
X250023Y357087D02*
D03*
X261000Y359333D02*
D03*
X259229Y362402D02*
D03*
X248251Y360155D02*
D03*
X257457Y365470D02*
D03*
D71*
X383272Y457666D02*
D03*
X385643Y455033D02*
D03*
X375372Y450553D02*
D03*
X377743Y447920D02*
D03*
X388014Y452400D02*
D03*
X380114Y445287D02*
D03*
X265850Y352646D02*
D03*
X257951Y345533D02*
D03*
X268221Y350013D02*
D03*
X270592Y347380D02*
D03*
X260322Y342900D02*
D03*
X262693Y340267D02*
D03*
D72*
X369132Y456117D02*
D03*
X375380Y464717D02*
D03*
X366266Y458200D02*
D03*
X363399Y460283D02*
D03*
X372514Y466800D02*
D03*
X369647Y468883D02*
D03*
X276317Y328952D02*
D03*
X273451Y331035D02*
D03*
X282565Y337552D02*
D03*
X279699Y339634D02*
D03*
X270584Y333118D02*
D03*
X276832Y341717D02*
D03*
D73*
X354043Y477064D02*
D03*
X357280Y475623D02*
D03*
X349719Y467353D02*
D03*
X352956Y465912D02*
D03*
X360517Y474182D02*
D03*
X356193Y464471D02*
D03*
X289771Y333364D02*
D03*
X285448Y323653D02*
D03*
X293008Y331922D02*
D03*
X296245Y330481D02*
D03*
X288685Y322212D02*
D03*
X291922Y320770D02*
D03*
D74*
X341829Y470049D02*
D03*
X344039Y480446D02*
D03*
X338364Y470785D02*
D03*
X334898Y471522D02*
D03*
X340574Y481183D02*
D03*
X337108Y481920D02*
D03*
X308955Y315915D02*
D03*
X305489Y316652D02*
D03*
X311165Y326312D02*
D03*
X307699Y327049D02*
D03*
X302024Y317388D02*
D03*
X304234Y327786D02*
D03*
D75*
X375380Y333019D02*
D03*
X372514Y330936D02*
D03*
X369132Y341619D02*
D03*
X366266Y339536D02*
D03*
X369647Y328854D02*
D03*
X363399Y337453D02*
D03*
X282664Y460283D02*
D03*
X276416Y468883D02*
D03*
X279797Y458200D02*
D03*
X276931Y456117D02*
D03*
X273549Y466800D02*
D03*
X270683Y464717D02*
D03*
D76*
X375274Y347183D02*
D03*
X383173Y340070D02*
D03*
X377645Y349816D02*
D03*
X380016Y352449D02*
D03*
X385544Y342703D02*
D03*
X387915Y345337D02*
D03*
X258148Y452400D02*
D03*
X260519Y455033D02*
D03*
X266047Y445287D02*
D03*
X268418Y447920D02*
D03*
X262890Y457666D02*
D03*
X270789Y450553D02*
D03*
D77*
X397713Y360057D02*
D03*
X395941Y356988D02*
D03*
X388507Y365372D02*
D03*
X386736Y362303D02*
D03*
X394170Y353920D02*
D03*
X384964Y359234D02*
D03*
X261099Y438600D02*
D03*
X251893Y443915D02*
D03*
X259327Y435532D02*
D03*
X257556Y432463D02*
D03*
X250121Y440846D02*
D03*
X248350Y437778D02*
D03*
D78*
X391783Y372977D02*
D03*
X401893Y369692D02*
D03*
X392878Y376347D02*
D03*
X393973Y379717D02*
D03*
X402988Y373062D02*
D03*
X404083Y376432D02*
D03*
X241882Y421402D02*
D03*
X242977Y424772D02*
D03*
X251991Y418118D02*
D03*
X253086Y421488D02*
D03*
X244072Y428142D02*
D03*
X254181Y424857D02*
D03*
D79*
X407034Y393815D02*
D03*
X406664Y390291D02*
D03*
X396462Y394926D02*
D03*
X396092Y391402D02*
D03*
X406293Y386767D02*
D03*
X395722Y387878D02*
D03*
X250341Y409957D02*
D03*
X239770Y411068D02*
D03*
X249971Y406433D02*
D03*
X249601Y402909D02*
D03*
X239399Y407544D02*
D03*
X239029Y404020D02*
D03*
D80*
X396364Y403302D02*
D03*
X406936Y404414D02*
D03*
X395994Y406826D02*
D03*
X395623Y410350D02*
D03*
X406565Y407937D02*
D03*
X406195Y411461D02*
D03*
X239671Y386865D02*
D03*
X239301Y390389D02*
D03*
X250243Y387977D02*
D03*
X249872Y391500D02*
D03*
X238930Y393913D02*
D03*
X249502Y395024D02*
D03*
D81*
X319488Y325492D02*
D03*
Y314862D02*
D03*
X323031Y325492D02*
D03*
X326575D02*
D03*
X323031Y314862D02*
D03*
X326575D02*
D03*
X319488Y482972D02*
D03*
X323031D02*
D03*
X319488Y472342D02*
D03*
X323031D02*
D03*
X326575Y482972D02*
D03*
Y472342D02*
D03*
D82*
X344039Y317487D02*
D03*
X340574Y316750D02*
D03*
X341829Y327884D02*
D03*
X338364Y327148D02*
D03*
X337108Y316013D02*
D03*
X334898Y326411D02*
D03*
X311165Y471424D02*
D03*
X308955Y481821D02*
D03*
X307699Y470687D02*
D03*
X304234Y469950D02*
D03*
X305489Y481085D02*
D03*
X302024Y480348D02*
D03*
D83*
X349719Y330383D02*
D03*
X354043Y320672D02*
D03*
X352956Y331824D02*
D03*
X356193Y333265D02*
D03*
X357280Y322113D02*
D03*
X360517Y323554D02*
D03*
X285546Y474182D02*
D03*
X288783Y475623D02*
D03*
X289870Y464471D02*
D03*
X293107Y465912D02*
D03*
X292020Y477064D02*
D03*
X296344Y467353D02*
D03*
M02*
