G04*
G04 #@! TF.GenerationSoftware,Altium Limited,Altium Designer,20.0.9 (164)*
G04*
G04 Layer_Color=8388736*
%FSLAX25Y25*%
%MOIN*%
G70*
G01*
G75*
G04:AMPARAMS|DCode=28|XSize=26.38mil|YSize=27.95mil|CornerRadius=8.07mil|HoleSize=0mil|Usage=FLASHONLY|Rotation=0.000|XOffset=0mil|YOffset=0mil|HoleType=Round|Shape=RoundedRectangle|*
%AMROUNDEDRECTD28*
21,1,0.02638,0.01181,0,0,0.0*
21,1,0.01024,0.02795,0,0,0.0*
1,1,0.01614,0.00512,-0.00591*
1,1,0.01614,-0.00512,-0.00591*
1,1,0.01614,-0.00512,0.00591*
1,1,0.01614,0.00512,0.00591*
%
%ADD28ROUNDEDRECTD28*%
G04:AMPARAMS|DCode=29|XSize=26.38mil|YSize=27.95mil|CornerRadius=8.07mil|HoleSize=0mil|Usage=FLASHONLY|Rotation=270.000|XOffset=0mil|YOffset=0mil|HoleType=Round|Shape=RoundedRectangle|*
%AMROUNDEDRECTD29*
21,1,0.02638,0.01181,0,0,270.0*
21,1,0.01024,0.02795,0,0,270.0*
1,1,0.01614,-0.00591,-0.00512*
1,1,0.01614,-0.00591,0.00512*
1,1,0.01614,0.00591,0.00512*
1,1,0.01614,0.00591,-0.00512*
%
%ADD29ROUNDEDRECTD29*%
%ADD30R,0.03740X0.02756*%
%ADD31R,0.04134X0.03425*%
%ADD32R,0.11614X0.11614*%
%ADD33R,0.03110X0.01457*%
%ADD34R,0.01457X0.03110*%
%ADD35R,0.03347X0.02756*%
%ADD36R,0.10039X0.03583*%
%ADD37R,0.03937X0.03347*%
%ADD38P,0.14755X4X180.0*%
G04:AMPARAMS|DCode=39|XSize=13.78mil|YSize=35.43mil|CornerRadius=0mil|HoleSize=0mil|Usage=FLASHONLY|Rotation=135.000|XOffset=0mil|YOffset=0mil|HoleType=Round|Shape=Round|*
%AMOVALD39*
21,1,0.02165,0.01378,0.00000,0.00000,225.0*
1,1,0.01378,0.00766,0.00766*
1,1,0.01378,-0.00766,-0.00766*
%
%ADD39OVALD39*%

G04:AMPARAMS|DCode=40|XSize=13.78mil|YSize=35.43mil|CornerRadius=0mil|HoleSize=0mil|Usage=FLASHONLY|Rotation=225.000|XOffset=0mil|YOffset=0mil|HoleType=Round|Shape=Round|*
%AMOVALD40*
21,1,0.02165,0.01378,0.00000,0.00000,315.0*
1,1,0.01378,-0.00766,0.00766*
1,1,0.01378,0.00766,-0.00766*
%
%ADD40OVALD40*%

%ADD41C,0.04528*%
%ADD42R,0.03091X0.03091*%
%ADD43C,0.06496*%
%ADD44R,0.06496X0.06496*%
%ADD45C,0.10039*%
%ADD46C,0.09252*%
%ADD47C,0.02953*%
%ADD48C,0.02362*%
%ADD49C,0.24213*%
%ADD50C,0.03347*%
%ADD51C,0.02559*%
G36*
X310548Y434444D02*
X310560D01*
X310571Y434442D01*
X310583Y434441D01*
X310594Y434439D01*
X310606Y434437D01*
X310617Y434433D01*
X310628Y434430D01*
X310639Y434426D01*
X310650Y434422D01*
X311569Y434042D01*
X311579Y434036D01*
X311590Y434032D01*
X311600Y434026D01*
X311610Y434021D01*
X311620Y434014D01*
X311630Y434008D01*
X311638Y434000D01*
X311648Y433993D01*
X311656Y433985D01*
X311665Y433978D01*
X312368Y433274D01*
X312376Y433265D01*
X312384Y433257D01*
X312391Y433248D01*
X312398Y433239D01*
X312404Y433229D01*
X312411Y433219D01*
X312417Y433209D01*
X312423Y433199D01*
X312427Y433188D01*
X312432Y433178D01*
X312813Y432259D01*
X312817Y432248D01*
X312821Y432237D01*
X312824Y432226D01*
X312827Y432215D01*
X312829Y432204D01*
X312832Y432192D01*
X312833Y432181D01*
X312835Y432169D01*
Y432158D01*
X312836Y432146D01*
Y431649D01*
X312832Y431602D01*
X312821Y431557D01*
X312803Y431514D01*
X312779Y431474D01*
X312749Y431439D01*
X312714Y431409D01*
X312695Y431398D01*
X312714Y431386D01*
X312749Y431356D01*
X312779Y431321D01*
X312803Y431281D01*
X312821Y431238D01*
X312832Y431193D01*
X312836Y431147D01*
Y430649D01*
X312835Y430638D01*
Y430626D01*
X312833Y430615D01*
X312832Y430603D01*
X312829Y430592D01*
X312827Y430580D01*
X312824Y430569D01*
X312821Y430558D01*
X312817Y430547D01*
X312813Y430536D01*
X312432Y429617D01*
X312427Y429607D01*
X312423Y429596D01*
X312417Y429586D01*
X312411Y429576D01*
X312404Y429566D01*
X312398Y429556D01*
X312391Y429548D01*
X312384Y429538D01*
X312376Y429530D01*
X312368Y429521D01*
X311665Y428818D01*
X311656Y428810D01*
X311648Y428802D01*
X311638Y428795D01*
X311630Y428788D01*
X311620Y428782D01*
X311610Y428775D01*
X311600Y428769D01*
X311590Y428763D01*
X311579Y428759D01*
X311569Y428754D01*
X310650Y428373D01*
X310639Y428369D01*
X310628Y428365D01*
X310617Y428362D01*
X310606Y428359D01*
X310594Y428357D01*
X310583Y428354D01*
X310571Y428353D01*
X310560Y428351D01*
X310548D01*
X310537Y428350D01*
X309542D01*
X309530Y428351D01*
X309519D01*
X309507Y428353D01*
X309496Y428354D01*
X309484Y428357D01*
X309473Y428359D01*
X309462Y428362D01*
X309451Y428365D01*
X309440Y428369D01*
X309429Y428373D01*
X308510Y428754D01*
X308500Y428759D01*
X308489Y428763D01*
X308479Y428769D01*
X308469Y428775D01*
X308459Y428782D01*
X308449Y428788D01*
X308440Y428795D01*
X308431Y428802D01*
X308423Y428810D01*
X308414Y428818D01*
X307711Y429521D01*
X307703Y429530D01*
X307695Y429538D01*
X307688Y429548D01*
X307680Y429556D01*
X307674Y429566D01*
X307667Y429576D01*
X307662Y429586D01*
X307656Y429596D01*
X307652Y429607D01*
X307646Y429617D01*
X307266Y430536D01*
X307262Y430547D01*
X307258Y430558D01*
X307255Y430569D01*
X307251Y430580D01*
X307249Y430592D01*
X307247Y430603D01*
X307246Y430615D01*
X307244Y430626D01*
Y430638D01*
X307243Y430649D01*
Y431147D01*
X307247Y431193D01*
X307258Y431238D01*
X307276Y431281D01*
X307300Y431321D01*
X307330Y431356D01*
X307365Y431386D01*
X307384Y431398D01*
X307365Y431409D01*
X307330Y431439D01*
X307300Y431474D01*
X307276Y431514D01*
X307258Y431557D01*
X307247Y431602D01*
X307243Y431649D01*
Y432146D01*
X307244Y432158D01*
Y432169D01*
X307246Y432181D01*
X307247Y432192D01*
X307249Y432204D01*
X307251Y432215D01*
X307255Y432226D01*
X307258Y432237D01*
X307262Y432248D01*
X307266Y432259D01*
X307646Y433178D01*
X307652Y433188D01*
X307656Y433199D01*
X307662Y433209D01*
X307667Y433219D01*
X307674Y433229D01*
X307680Y433239D01*
X307688Y433248D01*
X307695Y433257D01*
X307703Y433265D01*
X307711Y433274D01*
X308414Y433978D01*
X308423Y433985D01*
X308431Y433993D01*
X308440Y434000D01*
X308449Y434008D01*
X308459Y434014D01*
X308469Y434021D01*
X308479Y434026D01*
X308489Y434032D01*
X308500Y434036D01*
X308510Y434042D01*
X309429Y434422D01*
X309440Y434426D01*
X309451Y434430D01*
X309462Y434433D01*
X309473Y434437D01*
X309484Y434439D01*
X309496Y434441D01*
X309507Y434442D01*
X309519Y434444D01*
X309530D01*
X309542Y434445D01*
X310537D01*
X310548Y434444D01*
D02*
G37*
D28*
X339823Y356102D02*
D03*
X336358Y356102D02*
D03*
X301732Y366929D02*
D03*
X298268D02*
D03*
X315315Y409842D02*
D03*
X311850D02*
D03*
X332421Y386713D02*
D03*
X335886D02*
D03*
X316772Y440158D02*
D03*
X320236Y440158D02*
D03*
X301732Y370079D02*
D03*
X298268D02*
D03*
X298268Y373228D02*
D03*
X301732D02*
D03*
X298268Y376378D02*
D03*
X301732D02*
D03*
X339823Y365158D02*
D03*
X336358D02*
D03*
X339823Y368209D02*
D03*
X336358D02*
D03*
Y362205D02*
D03*
X339823D02*
D03*
X336358Y359154D02*
D03*
X339823D02*
D03*
X336358Y353051D02*
D03*
X339823D02*
D03*
X309213Y357382D02*
D03*
X305748Y357382D02*
D03*
X309213Y360433D02*
D03*
X305748D02*
D03*
X309213Y363484D02*
D03*
X305748Y363484D02*
D03*
D29*
X379724Y378976D02*
D03*
Y382441D02*
D03*
Y388917D02*
D03*
Y392382D02*
D03*
X319094Y379862D02*
D03*
Y383327D02*
D03*
X335531Y434705D02*
D03*
Y431240D02*
D03*
X327756Y421122D02*
D03*
Y417658D02*
D03*
X330906Y421122D02*
D03*
Y417658D02*
D03*
X295079Y385276D02*
D03*
Y388740D02*
D03*
X327658Y353110D02*
D03*
X327658Y349646D02*
D03*
X324606Y353110D02*
D03*
X324606Y349646D02*
D03*
X321555Y353110D02*
D03*
X321555Y349646D02*
D03*
X318504Y353110D02*
D03*
X318504Y349646D02*
D03*
X315453Y353110D02*
D03*
X315453Y349646D02*
D03*
X312402Y353110D02*
D03*
X312402Y349646D02*
D03*
X379724Y405256D02*
D03*
Y408720D02*
D03*
Y415197D02*
D03*
Y418661D02*
D03*
X266339Y415492D02*
D03*
X266339Y418957D02*
D03*
Y405453D02*
D03*
Y408917D02*
D03*
Y392382D02*
D03*
Y388917D02*
D03*
Y382441D02*
D03*
X266338Y378976D02*
D03*
X315846Y379862D02*
D03*
X315846Y383327D02*
D03*
D30*
X326476Y427461D02*
D03*
Y434941D02*
D03*
X316634Y427461D02*
D03*
X316634Y431201D02*
D03*
X316634Y434941D02*
D03*
D31*
X344488Y383661D02*
D03*
Y388386D02*
D03*
X331299Y434842D02*
D03*
Y430118D02*
D03*
D32*
X323031Y366437D02*
D03*
D33*
X315453Y360925D02*
D03*
Y362500D02*
D03*
Y364075D02*
D03*
Y365650D02*
D03*
Y367224D02*
D03*
Y368799D02*
D03*
Y370374D02*
D03*
Y371949D02*
D03*
X330610D02*
D03*
Y370374D02*
D03*
Y368799D02*
D03*
Y367224D02*
D03*
Y365650D02*
D03*
Y364075D02*
D03*
Y362500D02*
D03*
Y360925D02*
D03*
D34*
X317520Y374016D02*
D03*
X319094D02*
D03*
X320669D02*
D03*
X322244D02*
D03*
X323819D02*
D03*
X325394D02*
D03*
X326969D02*
D03*
X328543D02*
D03*
Y358858D02*
D03*
X326969D02*
D03*
X325394D02*
D03*
X323819D02*
D03*
X322244D02*
D03*
X320669D02*
D03*
X319094D02*
D03*
X317520D02*
D03*
D35*
X282579Y385138D02*
D03*
X290846Y388878D02*
D03*
Y381398D02*
D03*
D36*
X345453Y433858D02*
D03*
X360453D02*
D03*
X345453Y428858D02*
D03*
X360453D02*
D03*
X345453Y423858D02*
D03*
X360453D02*
D03*
X345453Y418858D02*
D03*
X360453D02*
D03*
X345453Y413858D02*
D03*
X360453D02*
D03*
X345453Y408858D02*
D03*
X360453D02*
D03*
X285512Y433858D02*
D03*
X300512D02*
D03*
X285512Y428858D02*
D03*
X300512D02*
D03*
X285512Y423858D02*
D03*
X300512D02*
D03*
X285512Y418858D02*
D03*
X300512D02*
D03*
X285512Y413858D02*
D03*
X300512D02*
D03*
X285512Y408858D02*
D03*
X300512D02*
D03*
D37*
X323721Y421161D02*
D03*
Y416437D02*
D03*
D38*
X323031Y398917D02*
D03*
D39*
X321152Y389522D02*
D03*
X319900Y390774D02*
D03*
X318647Y392027D02*
D03*
X317394Y393280D02*
D03*
X316141Y394533D02*
D03*
X314889Y395785D02*
D03*
X313636Y397038D02*
D03*
X324911Y408313D02*
D03*
X326163Y407060D02*
D03*
X327416Y405807D02*
D03*
X328669Y404555D02*
D03*
X329922Y403302D02*
D03*
X331174Y402049D02*
D03*
X332427Y400796D02*
D03*
D40*
X313636D02*
D03*
X314889Y402049D02*
D03*
X316141Y403302D02*
D03*
X317394Y404555D02*
D03*
X318647Y405807D02*
D03*
X319900Y407060D02*
D03*
X321152Y408313D02*
D03*
X332427Y397038D02*
D03*
X331174Y395785D02*
D03*
X329922Y394533D02*
D03*
X328669Y393280D02*
D03*
X327416Y392027D02*
D03*
X326163Y390774D02*
D03*
X324911Y389522D02*
D03*
D41*
X337500Y391634D02*
D03*
D42*
X310039Y433398D02*
D03*
Y429398D02*
D03*
D43*
X309823Y458661D02*
D03*
X319823D02*
D03*
X329823D02*
D03*
X309784Y447342D02*
D03*
X319783D02*
D03*
X329784D02*
D03*
D44*
X339823Y458661D02*
D03*
X339784Y447342D02*
D03*
D45*
X353031Y353917D02*
D03*
X293032D02*
D03*
Y443917D02*
D03*
X353031D02*
D03*
D46*
X373031Y398917D02*
D03*
X273031Y378917D02*
D03*
Y408917D02*
D03*
X373031Y388917D02*
D03*
Y408917D02*
D03*
X273031Y418917D02*
D03*
X373031D02*
D03*
X273031Y398917D02*
D03*
Y388917D02*
D03*
X373031Y378917D02*
D03*
D47*
X324705Y465748D02*
D03*
X349311Y360925D02*
D03*
X338090Y371850D02*
D03*
X282087Y371752D02*
D03*
X298228Y396063D02*
D03*
X284547D02*
D03*
X356299Y389173D02*
D03*
X367913Y350295D02*
D03*
X266339Y433268D02*
D03*
X277953Y446850D02*
D03*
X295472Y457087D02*
D03*
X350098Y457776D02*
D03*
X370472Y440354D02*
D03*
X381594Y423917D02*
D03*
X379429Y365158D02*
D03*
X342323Y336713D02*
D03*
X322933Y333661D02*
D03*
X301870Y336417D02*
D03*
X303839Y351378D02*
D03*
X261417Y369882D02*
D03*
X257382Y410433D02*
D03*
X257480Y388583D02*
D03*
X270472Y357776D02*
D03*
X285236Y357283D02*
D03*
D48*
X348228Y383465D02*
D03*
X319587Y431201D02*
D03*
X322441Y440256D02*
D03*
X338484Y435532D02*
D03*
Y433465D02*
D03*
X330906Y423917D02*
D03*
X327756Y424016D02*
D03*
X323721D02*
D03*
X310531Y436614D02*
D03*
X296161Y381693D02*
D03*
X316929Y376870D02*
D03*
X330315Y384842D02*
D03*
X360630Y437402D02*
D03*
X393237Y447268D02*
D03*
X281693Y324213D02*
D03*
X309646Y409842D02*
D03*
X295457Y373074D02*
D03*
X295571Y376378D02*
D03*
X354035Y410138D02*
D03*
X314272Y412500D02*
D03*
X320472Y415846D02*
D03*
X340846Y388386D02*
D03*
X313287Y383366D02*
D03*
X304429Y373524D02*
D03*
X304528Y376378D02*
D03*
X295965Y366929D02*
D03*
Y370079D02*
D03*
X354260Y413934D02*
D03*
X351672Y408697D02*
D03*
X351644Y433803D02*
D03*
X351613Y423778D02*
D03*
X354232Y422244D02*
D03*
X330709Y414665D02*
D03*
X306988Y414370D02*
D03*
X338287Y386713D02*
D03*
X333661Y390354D02*
D03*
X309500Y375005D02*
D03*
X327551Y412098D02*
D03*
X307185Y410728D02*
D03*
X325000Y431890D02*
D03*
X309744Y422736D02*
D03*
X307382Y394587D02*
D03*
X313878Y389272D02*
D03*
X328113Y386319D02*
D03*
X359646Y371555D02*
D03*
X356545D02*
D03*
X353445D02*
D03*
X362992Y326575D02*
D03*
X378642Y334252D02*
D03*
X333563Y357579D02*
D03*
X311319Y367717D02*
D03*
X311516Y370472D02*
D03*
X352102Y418799D02*
D03*
X381496Y459842D02*
D03*
X294882Y478346D02*
D03*
X311910Y482480D02*
D03*
X367126Y470571D02*
D03*
X278937D02*
D03*
X351181Y477953D02*
D03*
X264665Y459842D02*
D03*
X299114Y479724D02*
D03*
X240059Y414075D02*
D03*
X282874Y472835D02*
D03*
X238681Y396555D02*
D03*
X268307Y462795D02*
D03*
X240846Y379626D02*
D03*
X255906Y450098D02*
D03*
X246949Y362500D02*
D03*
X238583Y401083D02*
D03*
X239961Y384055D02*
D03*
X299016Y318209D02*
D03*
X245276Y367028D02*
D03*
X316339Y314862D02*
D03*
X253051Y351378D02*
D03*
X334055Y315354D02*
D03*
X294587Y319587D02*
D03*
X381004Y337894D02*
D03*
X311811Y315059D02*
D03*
X392618Y351279D02*
D03*
X329626Y314961D02*
D03*
X400787Y366831D02*
D03*
X346654Y318012D02*
D03*
X405807Y383465D02*
D03*
X405217Y379724D02*
D03*
X390059Y347539D02*
D03*
X406962Y396689D02*
D03*
X399114Y434842D02*
D03*
X399311Y362303D02*
D03*
X390059Y450000D02*
D03*
X378051Y463091D02*
D03*
X362992Y473228D02*
D03*
X343575Y353088D02*
D03*
X343711Y356132D02*
D03*
X343779Y359227D02*
D03*
X291437Y408858D02*
D03*
X343799Y362205D02*
D03*
X343898Y368209D02*
D03*
Y365256D02*
D03*
X327854Y337992D02*
D03*
X324606Y339665D02*
D03*
X312402Y346752D02*
D03*
X321555Y341634D02*
D03*
X318504Y343307D02*
D03*
X315453Y344980D02*
D03*
X266339Y412992D02*
D03*
Y384941D02*
D03*
X266301Y394821D02*
D03*
X266339Y402953D02*
D03*
X379724Y412598D02*
D03*
X379823Y402658D02*
D03*
X379724Y394980D02*
D03*
Y384941D02*
D03*
X301354Y357382D02*
D03*
Y360433D02*
D03*
Y363609D02*
D03*
X307000Y418902D02*
D03*
X338000Y406902D02*
D03*
X339500Y404902D02*
D03*
X341000Y402902D02*
D03*
X342500Y400902D02*
D03*
X311500Y376402D02*
D03*
X309156Y406462D02*
D03*
X307442Y404610D02*
D03*
X304000Y400902D02*
D03*
X305724Y402734D02*
D03*
X291500Y433902D02*
D03*
Y428902D02*
D03*
Y423902D02*
D03*
Y418902D02*
D03*
Y413902D02*
D03*
D49*
X398524Y323721D02*
D03*
X247539Y323524D02*
D03*
X247441Y474508D02*
D03*
X398425Y474213D02*
D03*
D50*
X337500Y391634D02*
D03*
D51*
X325197Y368602D02*
D03*
Y364272D02*
D03*
X320866Y368602D02*
D03*
Y364272D02*
D03*
M02*
