G04*
G04 #@! TF.GenerationSoftware,Altium Limited,Altium Designer,20.0.9 (164)*
G04*
G04 Layer_Color=8421504*
%FSLAX25Y25*%
%MOIN*%
G70*
G01*
G75*
G04:AMPARAMS|DCode=13|XSize=20.47mil|YSize=22.05mil|CornerRadius=5.12mil|HoleSize=0mil|Usage=FLASHONLY|Rotation=0.000|XOffset=0mil|YOffset=0mil|HoleType=Round|Shape=RoundedRectangle|*
%AMROUNDEDRECTD13*
21,1,0.02047,0.01181,0,0,0.0*
21,1,0.01024,0.02205,0,0,0.0*
1,1,0.01024,0.00512,-0.00591*
1,1,0.01024,-0.00512,-0.00591*
1,1,0.01024,-0.00512,0.00591*
1,1,0.01024,0.00512,0.00591*
%
%ADD13ROUNDEDRECTD13*%
G04:AMPARAMS|DCode=14|XSize=20.47mil|YSize=22.05mil|CornerRadius=5.12mil|HoleSize=0mil|Usage=FLASHONLY|Rotation=270.000|XOffset=0mil|YOffset=0mil|HoleType=Round|Shape=RoundedRectangle|*
%AMROUNDEDRECTD14*
21,1,0.02047,0.01181,0,0,270.0*
21,1,0.01024,0.02205,0,0,270.0*
1,1,0.01024,-0.00591,-0.00512*
1,1,0.01024,-0.00591,0.00512*
1,1,0.01024,0.00591,0.00512*
1,1,0.01024,0.00591,-0.00512*
%
%ADD14ROUNDEDRECTD14*%
%ADD15R,0.02165X0.03150*%
%ADD16R,0.03543X0.02835*%
%ADD17R,0.11024X0.11024*%
%ADD18R,0.02520X0.00866*%
%ADD19R,0.00866X0.02520*%
%ADD20R,0.02756X0.02165*%
%ADD21R,0.09449X0.02992*%
%ADD22R,0.02835X0.03543*%
%ADD23R,0.03347X0.02756*%
%ADD24P,0.13919X4X180.0*%
G04:AMPARAMS|DCode=25|XSize=7.87mil|YSize=29.53mil|CornerRadius=0mil|HoleSize=0mil|Usage=FLASHONLY|Rotation=135.000|XOffset=0mil|YOffset=0mil|HoleType=Round|Shape=Round|*
%AMOVALD25*
21,1,0.02165,0.00787,0.00000,0.00000,225.0*
1,1,0.00787,0.00766,0.00766*
1,1,0.00787,-0.00766,-0.00766*
%
%ADD25OVALD25*%

G04:AMPARAMS|DCode=26|XSize=7.87mil|YSize=29.53mil|CornerRadius=0mil|HoleSize=0mil|Usage=FLASHONLY|Rotation=225.000|XOffset=0mil|YOffset=0mil|HoleType=Round|Shape=Round|*
%AMOVALD26*
21,1,0.02165,0.00787,0.00000,0.00000,315.0*
1,1,0.00787,-0.00766,0.00766*
1,1,0.00787,0.00766,-0.00766*
%
%ADD26OVALD26*%

%ADD27C,0.03937*%
%ADD28R,0.02500X0.02500*%
D13*
X339823Y356102D02*
D03*
X336358Y356102D02*
D03*
X301732Y366929D02*
D03*
X298268D02*
D03*
X326929Y425394D02*
D03*
X323465D02*
D03*
X315315Y409842D02*
D03*
X311850D02*
D03*
X332421Y386713D02*
D03*
X335886D02*
D03*
X328248Y448051D02*
D03*
X324783Y448051D02*
D03*
X301732Y370079D02*
D03*
X298268D02*
D03*
X298268Y373228D02*
D03*
X301732D02*
D03*
X298268Y376378D02*
D03*
X301732D02*
D03*
X339823Y365158D02*
D03*
X336358D02*
D03*
X339823Y368209D02*
D03*
X336358D02*
D03*
Y362205D02*
D03*
X339823D02*
D03*
X336358Y359154D02*
D03*
X339823D02*
D03*
X336358Y353051D02*
D03*
X339823D02*
D03*
X309213Y357382D02*
D03*
X305748Y357382D02*
D03*
X309213Y360433D02*
D03*
X305748D02*
D03*
X309213Y363484D02*
D03*
X305748Y363484D02*
D03*
D14*
X379724Y378976D02*
D03*
Y382441D02*
D03*
Y388917D02*
D03*
Y392382D02*
D03*
X319094Y379862D02*
D03*
Y383327D02*
D03*
X327756Y421122D02*
D03*
Y417658D02*
D03*
X330906Y421122D02*
D03*
Y417658D02*
D03*
X295079Y385276D02*
D03*
Y388740D02*
D03*
X327658Y353110D02*
D03*
X327658Y349646D02*
D03*
X324606Y353110D02*
D03*
X324606Y349646D02*
D03*
X321555Y353110D02*
D03*
X321555Y349646D02*
D03*
X318504Y353110D02*
D03*
X318504Y349646D02*
D03*
X315453Y353110D02*
D03*
X315453Y349646D02*
D03*
X312402Y353110D02*
D03*
X312402Y349646D02*
D03*
X379724Y405256D02*
D03*
Y408720D02*
D03*
Y415197D02*
D03*
Y418661D02*
D03*
X266339Y415492D02*
D03*
X266339Y418957D02*
D03*
Y405453D02*
D03*
Y408917D02*
D03*
Y392382D02*
D03*
Y388917D02*
D03*
Y382441D02*
D03*
X266338Y378976D02*
D03*
X315846Y379862D02*
D03*
X315846Y383327D02*
D03*
D15*
X320965Y434055D02*
D03*
X328445D02*
D03*
X320965Y443898D02*
D03*
X324705D02*
D03*
X328445D02*
D03*
D16*
X344488Y383661D02*
D03*
Y388386D02*
D03*
D17*
X323031Y366437D02*
D03*
D18*
X315453Y360925D02*
D03*
Y362500D02*
D03*
Y364075D02*
D03*
Y365650D02*
D03*
Y367224D02*
D03*
Y368799D02*
D03*
Y370374D02*
D03*
Y371949D02*
D03*
X330610D02*
D03*
Y370374D02*
D03*
Y368799D02*
D03*
Y367224D02*
D03*
Y365650D02*
D03*
Y364075D02*
D03*
Y362500D02*
D03*
Y360925D02*
D03*
D19*
X317520Y374016D02*
D03*
X319094D02*
D03*
X320669D02*
D03*
X322244D02*
D03*
X323819D02*
D03*
X325394D02*
D03*
X326969D02*
D03*
X328543D02*
D03*
Y358858D02*
D03*
X326969D02*
D03*
X325394D02*
D03*
X323819D02*
D03*
X322244D02*
D03*
X320669D02*
D03*
X319094D02*
D03*
X317520D02*
D03*
D20*
X282579Y385138D02*
D03*
X290846Y388878D02*
D03*
Y381398D02*
D03*
D21*
X345453Y433858D02*
D03*
X360453D02*
D03*
X345453Y428858D02*
D03*
X360453D02*
D03*
X345453Y423858D02*
D03*
X360453D02*
D03*
X345453Y418858D02*
D03*
X360453D02*
D03*
X345453Y413858D02*
D03*
X360453D02*
D03*
X345453Y408858D02*
D03*
X360453D02*
D03*
X285512Y433858D02*
D03*
X300512D02*
D03*
X285512Y428858D02*
D03*
X300512D02*
D03*
X285512Y423858D02*
D03*
X300512D02*
D03*
X285512Y418858D02*
D03*
X300512D02*
D03*
X285512Y413858D02*
D03*
X300512D02*
D03*
X285512Y408858D02*
D03*
X300512D02*
D03*
D22*
X326969Y429528D02*
D03*
X322244D02*
D03*
D23*
X323721Y421161D02*
D03*
Y416437D02*
D03*
D24*
X323031Y398917D02*
D03*
D25*
X321152Y389522D02*
D03*
X319900Y390774D02*
D03*
X318647Y392027D02*
D03*
X317394Y393280D02*
D03*
X316141Y394533D02*
D03*
X314889Y395785D02*
D03*
X313636Y397038D02*
D03*
X324911Y408313D02*
D03*
X326163Y407060D02*
D03*
X327416Y405807D02*
D03*
X328669Y404555D02*
D03*
X329922Y403302D02*
D03*
X331174Y402049D02*
D03*
X332427Y400796D02*
D03*
D26*
X313636D02*
D03*
X314889Y402049D02*
D03*
X316141Y403302D02*
D03*
X317394Y404555D02*
D03*
X318647Y405807D02*
D03*
X319900Y407060D02*
D03*
X321152Y408313D02*
D03*
X332427Y397038D02*
D03*
X331174Y395785D02*
D03*
X329922Y394533D02*
D03*
X328669Y393280D02*
D03*
X327416Y392027D02*
D03*
X326163Y390774D02*
D03*
X324911Y389522D02*
D03*
D27*
X337500Y391634D02*
D03*
D28*
X310039Y433398D02*
D03*
Y429398D02*
D03*
M02*
