G04*
G04 #@! TF.GenerationSoftware,Altium Limited,Altium Designer,20.0.9 (164)*
G04*
G04 Layer_Color=16711935*
%FSLAX25Y25*%
%MOIN*%
G70*
G01*
G75*
%ADD43R,0.06496X0.06496*%
%ADD44C,0.06496*%
%ADD45C,0.10039*%
%ADD46C,0.09252*%
%ADD47C,0.02362*%
%ADD48C,0.22244*%
%ADD49C,0.02559*%
%ADD50C,0.02953*%
%ADD51C,0.03347*%
G04:AMPARAMS|DCode=95|XSize=49.21mil|YSize=25.59mil|CornerRadius=0mil|HoleSize=0mil|Usage=FLASHONLY|Rotation=198.000|XOffset=0mil|YOffset=0mil|HoleType=Round|Shape=Rectangle|*
%AMROTATEDRECTD95*
4,1,4,0.01945,0.01977,0.02736,-0.00456,-0.01945,-0.01977,-0.02736,0.00456,0.01945,0.01977,0.0*
%
%ADD95ROTATEDRECTD95*%

G04:AMPARAMS|DCode=96|XSize=57.09mil|YSize=25.59mil|CornerRadius=0mil|HoleSize=0mil|Usage=FLASHONLY|Rotation=198.000|XOffset=0mil|YOffset=0mil|HoleType=Round|Shape=Rectangle|*
%AMROTATEDRECTD96*
4,1,4,0.02319,0.02099,0.03110,-0.00335,-0.02319,-0.02099,-0.03110,0.00335,0.02319,0.02099,0.0*
%
%ADD96ROTATEDRECTD96*%

G04:AMPARAMS|DCode=97|XSize=57.09mil|YSize=25.59mil|CornerRadius=0mil|HoleSize=0mil|Usage=FLASHONLY|Rotation=210.000|XOffset=0mil|YOffset=0mil|HoleType=Round|Shape=Rectangle|*
%AMROTATEDRECTD97*
4,1,4,0.01832,0.02535,0.03112,0.00319,-0.01832,-0.02535,-0.03112,-0.00319,0.01832,0.02535,0.0*
%
%ADD97ROTATEDRECTD97*%

G04:AMPARAMS|DCode=98|XSize=49.21mil|YSize=25.59mil|CornerRadius=0mil|HoleSize=0mil|Usage=FLASHONLY|Rotation=210.000|XOffset=0mil|YOffset=0mil|HoleType=Round|Shape=Rectangle|*
%AMROTATEDRECTD98*
4,1,4,0.01491,0.02338,0.02771,0.00122,-0.01491,-0.02338,-0.02771,-0.00122,0.01491,0.02338,0.0*
%
%ADD98ROTATEDRECTD98*%

G04:AMPARAMS|DCode=99|XSize=49.21mil|YSize=25.59mil|CornerRadius=0mil|HoleSize=0mil|Usage=FLASHONLY|Rotation=222.000|XOffset=0mil|YOffset=0mil|HoleType=Round|Shape=Rectangle|*
%AMROTATEDRECTD99*
4,1,4,0.00972,0.02597,0.02685,0.00696,-0.00972,-0.02597,-0.02685,-0.00696,0.00972,0.02597,0.0*
%
%ADD99ROTATEDRECTD99*%

G04:AMPARAMS|DCode=100|XSize=57.09mil|YSize=25.59mil|CornerRadius=0mil|HoleSize=0mil|Usage=FLASHONLY|Rotation=222.000|XOffset=0mil|YOffset=0mil|HoleType=Round|Shape=Rectangle|*
%AMROTATEDRECTD100*
4,1,4,0.01265,0.02861,0.02977,0.00959,-0.01265,-0.02861,-0.02977,-0.00959,0.01265,0.02861,0.0*
%
%ADD100ROTATEDRECTD100*%

G04:AMPARAMS|DCode=101|XSize=57.09mil|YSize=25.59mil|CornerRadius=0mil|HoleSize=0mil|Usage=FLASHONLY|Rotation=234.000|XOffset=0mil|YOffset=0mil|HoleType=Round|Shape=Rectangle|*
%AMROTATEDRECTD101*
4,1,4,0.00643,0.03061,0.02713,0.01557,-0.00643,-0.03061,-0.02713,-0.01557,0.00643,0.03061,0.0*
%
%ADD101ROTATEDRECTD101*%

G04:AMPARAMS|DCode=102|XSize=49.21mil|YSize=25.59mil|CornerRadius=0mil|HoleSize=0mil|Usage=FLASHONLY|Rotation=234.000|XOffset=0mil|YOffset=0mil|HoleType=Round|Shape=Rectangle|*
%AMROTATEDRECTD102*
4,1,4,0.00411,0.02743,0.02482,0.01239,-0.00411,-0.02743,-0.02482,-0.01239,0.00411,0.02743,0.0*
%
%ADD102ROTATEDRECTD102*%

G04:AMPARAMS|DCode=103|XSize=49.21mil|YSize=25.59mil|CornerRadius=0mil|HoleSize=0mil|Usage=FLASHONLY|Rotation=246.000|XOffset=0mil|YOffset=0mil|HoleType=Round|Shape=Rectangle|*
%AMROTATEDRECTD103*
4,1,4,-0.00168,0.02768,0.02170,0.01727,0.00168,-0.02768,-0.02170,-0.01727,-0.00168,0.02768,0.0*
%
%ADD103ROTATEDRECTD103*%

G04:AMPARAMS|DCode=104|XSize=57.09mil|YSize=25.59mil|CornerRadius=0mil|HoleSize=0mil|Usage=FLASHONLY|Rotation=246.000|XOffset=0mil|YOffset=0mil|HoleType=Round|Shape=Rectangle|*
%AMROTATEDRECTD104*
4,1,4,-0.00008,0.03128,0.02330,0.02087,0.00008,-0.03128,-0.02330,-0.02087,-0.00008,0.03128,0.0*
%
%ADD104ROTATEDRECTD104*%

G04:AMPARAMS|DCode=105|XSize=57.09mil|YSize=25.59mil|CornerRadius=0mil|HoleSize=0mil|Usage=FLASHONLY|Rotation=258.000|XOffset=0mil|YOffset=0mil|HoleType=Round|Shape=Rectangle|*
%AMROTATEDRECTD105*
4,1,4,-0.00658,0.03058,0.01845,0.02526,0.00658,-0.03058,-0.01845,-0.02526,-0.00658,0.03058,0.0*
%
%ADD105ROTATEDRECTD105*%

G04:AMPARAMS|DCode=106|XSize=49.21mil|YSize=25.59mil|CornerRadius=0mil|HoleSize=0mil|Usage=FLASHONLY|Rotation=258.000|XOffset=0mil|YOffset=0mil|HoleType=Round|Shape=Rectangle|*
%AMROTATEDRECTD106*
4,1,4,-0.00740,0.02673,0.01763,0.02141,0.00740,-0.02673,-0.01763,-0.02141,-0.00740,0.02673,0.0*
%
%ADD106ROTATEDRECTD106*%

G04:AMPARAMS|DCode=107|XSize=49.21mil|YSize=25.59mil|CornerRadius=0mil|HoleSize=0mil|Usage=FLASHONLY|Rotation=126.000|XOffset=0mil|YOffset=0mil|HoleType=Round|Shape=Rectangle|*
%AMROTATEDRECTD107*
4,1,4,0.02482,-0.01239,0.00411,-0.02743,-0.02482,0.01239,-0.00411,0.02743,0.02482,-0.01239,0.0*
%
%ADD107ROTATEDRECTD107*%

G04:AMPARAMS|DCode=108|XSize=57.09mil|YSize=25.59mil|CornerRadius=0mil|HoleSize=0mil|Usage=FLASHONLY|Rotation=126.000|XOffset=0mil|YOffset=0mil|HoleType=Round|Shape=Rectangle|*
%AMROTATEDRECTD108*
4,1,4,0.02713,-0.01557,0.00643,-0.03061,-0.02713,0.01557,-0.00643,0.03061,0.02713,-0.01557,0.0*
%
%ADD108ROTATEDRECTD108*%

G04:AMPARAMS|DCode=109|XSize=57.09mil|YSize=25.59mil|CornerRadius=0mil|HoleSize=0mil|Usage=FLASHONLY|Rotation=138.000|XOffset=0mil|YOffset=0mil|HoleType=Round|Shape=Rectangle|*
%AMROTATEDRECTD109*
4,1,4,0.02977,-0.00959,0.01265,-0.02861,-0.02977,0.00959,-0.01265,0.02861,0.02977,-0.00959,0.0*
%
%ADD109ROTATEDRECTD109*%

G04:AMPARAMS|DCode=110|XSize=49.21mil|YSize=25.59mil|CornerRadius=0mil|HoleSize=0mil|Usage=FLASHONLY|Rotation=138.000|XOffset=0mil|YOffset=0mil|HoleType=Round|Shape=Rectangle|*
%AMROTATEDRECTD110*
4,1,4,0.02685,-0.00696,0.00972,-0.02597,-0.02685,0.00696,-0.00972,0.02597,0.02685,-0.00696,0.0*
%
%ADD110ROTATEDRECTD110*%

G04:AMPARAMS|DCode=111|XSize=49.21mil|YSize=25.59mil|CornerRadius=0mil|HoleSize=0mil|Usage=FLASHONLY|Rotation=150.000|XOffset=0mil|YOffset=0mil|HoleType=Round|Shape=Rectangle|*
%AMROTATEDRECTD111*
4,1,4,0.02771,-0.00122,0.01491,-0.02338,-0.02771,0.00122,-0.01491,0.02338,0.02771,-0.00122,0.0*
%
%ADD111ROTATEDRECTD111*%

G04:AMPARAMS|DCode=112|XSize=57.09mil|YSize=25.59mil|CornerRadius=0mil|HoleSize=0mil|Usage=FLASHONLY|Rotation=150.000|XOffset=0mil|YOffset=0mil|HoleType=Round|Shape=Rectangle|*
%AMROTATEDRECTD112*
4,1,4,0.03112,-0.00319,0.01832,-0.02535,-0.03112,0.00319,-0.01832,0.02535,0.03112,-0.00319,0.0*
%
%ADD112ROTATEDRECTD112*%

G04:AMPARAMS|DCode=113|XSize=57.09mil|YSize=25.59mil|CornerRadius=0mil|HoleSize=0mil|Usage=FLASHONLY|Rotation=162.000|XOffset=0mil|YOffset=0mil|HoleType=Round|Shape=Rectangle|*
%AMROTATEDRECTD113*
4,1,4,0.03110,0.00335,0.02319,-0.02099,-0.03110,-0.00335,-0.02319,0.02099,0.03110,0.00335,0.0*
%
%ADD113ROTATEDRECTD113*%

G04:AMPARAMS|DCode=114|XSize=49.21mil|YSize=25.59mil|CornerRadius=0mil|HoleSize=0mil|Usage=FLASHONLY|Rotation=162.000|XOffset=0mil|YOffset=0mil|HoleType=Round|Shape=Rectangle|*
%AMROTATEDRECTD114*
4,1,4,0.02736,0.00456,0.01945,-0.01977,-0.02736,-0.00456,-0.01945,0.01977,0.02736,0.00456,0.0*
%
%ADD114ROTATEDRECTD114*%

G04:AMPARAMS|DCode=115|XSize=49.21mil|YSize=25.59mil|CornerRadius=0mil|HoleSize=0mil|Usage=FLASHONLY|Rotation=174.000|XOffset=0mil|YOffset=0mil|HoleType=Round|Shape=Rectangle|*
%AMROTATEDRECTD115*
4,1,4,0.02581,0.01015,0.02313,-0.01530,-0.02581,-0.01015,-0.02313,0.01530,0.02581,0.01015,0.0*
%
%ADD115ROTATEDRECTD115*%

G04:AMPARAMS|DCode=116|XSize=57.09mil|YSize=25.59mil|CornerRadius=0mil|HoleSize=0mil|Usage=FLASHONLY|Rotation=174.000|XOffset=0mil|YOffset=0mil|HoleType=Round|Shape=Rectangle|*
%AMROTATEDRECTD116*
4,1,4,0.02972,0.00974,0.02705,-0.01571,-0.02972,-0.00974,-0.02705,0.01571,0.02972,0.00974,0.0*
%
%ADD116ROTATEDRECTD116*%

G04:AMPARAMS|DCode=117|XSize=57.09mil|YSize=25.59mil|CornerRadius=0mil|HoleSize=0mil|Usage=FLASHONLY|Rotation=186.000|XOffset=0mil|YOffset=0mil|HoleType=Round|Shape=Rectangle|*
%AMROTATEDRECTD117*
4,1,4,0.02705,0.01571,0.02972,-0.00974,-0.02705,-0.01571,-0.02972,0.00974,0.02705,0.01571,0.0*
%
%ADD117ROTATEDRECTD117*%

G04:AMPARAMS|DCode=118|XSize=49.21mil|YSize=25.59mil|CornerRadius=0mil|HoleSize=0mil|Usage=FLASHONLY|Rotation=186.000|XOffset=0mil|YOffset=0mil|HoleType=Round|Shape=Rectangle|*
%AMROTATEDRECTD118*
4,1,4,0.02313,0.01530,0.02581,-0.01015,-0.02313,-0.01530,-0.02581,0.01015,0.02313,0.01530,0.0*
%
%ADD118ROTATEDRECTD118*%

%ADD119R,0.02559X0.05709*%
%ADD120R,0.02559X0.04921*%
G04:AMPARAMS|DCode=121|XSize=49.21mil|YSize=25.59mil|CornerRadius=0mil|HoleSize=0mil|Usage=FLASHONLY|Rotation=102.000|XOffset=0mil|YOffset=0mil|HoleType=Round|Shape=Rectangle|*
%AMROTATEDRECTD121*
4,1,4,0.01763,-0.02141,-0.00740,-0.02673,-0.01763,0.02141,0.00740,0.02673,0.01763,-0.02141,0.0*
%
%ADD121ROTATEDRECTD121*%

G04:AMPARAMS|DCode=122|XSize=57.09mil|YSize=25.59mil|CornerRadius=0mil|HoleSize=0mil|Usage=FLASHONLY|Rotation=102.000|XOffset=0mil|YOffset=0mil|HoleType=Round|Shape=Rectangle|*
%AMROTATEDRECTD122*
4,1,4,0.01845,-0.02526,-0.00658,-0.03058,-0.01845,0.02526,0.00658,0.03058,0.01845,-0.02526,0.0*
%
%ADD122ROTATEDRECTD122*%

G04:AMPARAMS|DCode=123|XSize=57.09mil|YSize=25.59mil|CornerRadius=0mil|HoleSize=0mil|Usage=FLASHONLY|Rotation=114.000|XOffset=0mil|YOffset=0mil|HoleType=Round|Shape=Rectangle|*
%AMROTATEDRECTD123*
4,1,4,0.02330,-0.02087,-0.00008,-0.03128,-0.02330,0.02087,0.00008,0.03128,0.02330,-0.02087,0.0*
%
%ADD123ROTATEDRECTD123*%

G04:AMPARAMS|DCode=124|XSize=49.21mil|YSize=25.59mil|CornerRadius=0mil|HoleSize=0mil|Usage=FLASHONLY|Rotation=114.000|XOffset=0mil|YOffset=0mil|HoleType=Round|Shape=Rectangle|*
%AMROTATEDRECTD124*
4,1,4,0.02170,-0.01727,-0.00168,-0.02768,-0.02170,0.01727,0.00168,0.02768,0.02170,-0.01727,0.0*
%
%ADD124ROTATEDRECTD124*%

%ADD125C,0.03398*%
D43*
X13823Y42779D02*
D03*
X13823Y52819D02*
D03*
D44*
X3823Y42779D02*
D03*
X-6177D02*
D03*
X-16177D02*
D03*
X3823Y52819D02*
D03*
X-6177D02*
D03*
X-16177D02*
D03*
D45*
X30031Y45031D02*
D03*
X-29969D02*
D03*
Y-44969D02*
D03*
X30031D02*
D03*
D46*
X50032Y-19969D02*
D03*
X-49968Y-9968D02*
D03*
Y32D02*
D03*
X50032Y20031D02*
D03*
X-49968D02*
D03*
X50032Y10031D02*
D03*
Y-9968D02*
D03*
X-49968Y10031D02*
D03*
Y-19969D02*
D03*
X50032Y32D02*
D03*
D47*
X49606Y32874D02*
D03*
X-10630Y-52854D02*
D03*
X-7579Y-54528D02*
D03*
X-4429Y-56299D02*
D03*
X56595Y19291D02*
D03*
X62500Y13681D02*
D03*
X24508Y-69784D02*
D03*
X38583Y-66043D02*
D03*
X10433Y22441D02*
D03*
X14469Y24114D02*
D03*
X-7677Y26772D02*
D03*
X-48917Y32480D02*
D03*
X-52165Y26280D02*
D03*
X-50492Y29232D02*
D03*
X-39075Y-11909D02*
D03*
X-22736Y-34547D02*
D03*
Y-31988D02*
D03*
X-22835Y-37205D02*
D03*
X-27461Y-23228D02*
D03*
X-18406Y-20079D02*
D03*
X-18307Y-23228D02*
D03*
X4724Y-52658D02*
D03*
X1445Y-54381D02*
D03*
X-1542Y-56235D02*
D03*
X-38091Y-63189D02*
D03*
X38484Y-63090D02*
D03*
X48524Y-55610D02*
D03*
X72047Y16634D02*
D03*
X68110Y28740D02*
D03*
X6102Y73622D02*
D03*
X-6299Y73524D02*
D03*
X-68307Y28445D02*
D03*
X-72146Y16634D02*
D03*
X-48425Y-56102D02*
D03*
X-21555Y70472D02*
D03*
X-72539Y13780D02*
D03*
X-73819Y1575D02*
D03*
X-35630Y-64764D02*
D03*
X-24508Y-69685D02*
D03*
X50591Y-53740D02*
D03*
X58957Y-44587D02*
D03*
X66831Y31398D02*
D03*
X60827Y42028D02*
D03*
X-9252Y73327D02*
D03*
X67028Y-31496D02*
D03*
X58858Y44685D02*
D03*
X50775Y53724D02*
D03*
X-24311Y69685D02*
D03*
X-35531Y64764D02*
D03*
X-73917Y-1476D02*
D03*
X-72539Y-13583D02*
D03*
X-21457Y-70768D02*
D03*
X-9252Y-73327D02*
D03*
X60827Y-41929D02*
D03*
X6201Y-73622D02*
D03*
X68012Y-28445D02*
D03*
X71949Y-16831D02*
D03*
X48327Y56004D02*
D03*
X38287Y62894D02*
D03*
X-38484Y63090D02*
D03*
X-48228Y56004D02*
D03*
X-72047Y-16831D02*
D03*
X-68110Y-27953D02*
D03*
X-6102Y-73622D02*
D03*
X31299Y33936D02*
D03*
X-9055Y35236D02*
D03*
X-1135Y28937D02*
D03*
X13336Y32385D02*
D03*
X15679Y32413D02*
D03*
X-16634Y25591D02*
D03*
X-36417Y-18012D02*
D03*
X-19783Y-5807D02*
D03*
X-3839Y21063D02*
D03*
X7185Y15059D02*
D03*
X1378Y12992D02*
D03*
X-56595Y-9744D02*
D03*
X56528Y1508D02*
D03*
X0Y0D02*
D03*
X16500Y6016D02*
D03*
X25228Y-15421D02*
D03*
X-18669Y-15323D02*
D03*
X-6071Y-22016D02*
D03*
X7315Y-14043D02*
D03*
X-13354Y10957D02*
D03*
X-27362Y-20079D02*
D03*
X31035Y11252D02*
D03*
X-8728Y13614D02*
D03*
X17846Y-10500D02*
D03*
X-9713Y-15520D02*
D03*
X-26992Y-29519D02*
D03*
Y-26369D02*
D03*
X31260Y15048D02*
D03*
X28672Y9811D02*
D03*
X28644Y34918D02*
D03*
X28613Y24892D02*
D03*
X31232Y23358D02*
D03*
X-16012Y15484D02*
D03*
X15287Y-12173D02*
D03*
X10661Y-8531D02*
D03*
X-13500Y-23881D02*
D03*
X4551Y13213D02*
D03*
X-15815Y11842D02*
D03*
X-15618Y-4299D02*
D03*
X-9122Y-9614D02*
D03*
X5113Y-12567D02*
D03*
X10563Y-41307D02*
D03*
X-11681Y-31169D02*
D03*
X-11484Y-28413D02*
D03*
X29102Y19913D02*
D03*
X20575Y-45798D02*
D03*
X20711Y-42754D02*
D03*
X20779Y-39659D02*
D03*
X-31563Y9972D02*
D03*
X20799Y-36681D02*
D03*
X20898Y-30677D02*
D03*
Y-33630D02*
D03*
X-56594Y9941D02*
D03*
X-56632Y-1242D02*
D03*
X-56595Y1280D02*
D03*
X56528Y10268D02*
D03*
Y-1150D02*
D03*
Y-9910D02*
D03*
X-16000Y20016D02*
D03*
X15000Y8016D02*
D03*
X18000Y4016D02*
D03*
X19500Y2016D02*
D03*
X-11500Y-22484D02*
D03*
X-13844Y7576D02*
D03*
X-15558Y5725D02*
D03*
X-19000Y2016D02*
D03*
X-17276Y3848D02*
D03*
X-31500Y35016D02*
D03*
Y30016D02*
D03*
Y25016D02*
D03*
Y20016D02*
D03*
Y15016D02*
D03*
D48*
X62992Y62992D02*
D03*
X-62992D02*
D03*
Y-62992D02*
D03*
X62992D02*
D03*
D49*
X-2134Y-34614D02*
D03*
Y-30283D02*
D03*
X2197Y-34614D02*
D03*
Y-30283D02*
D03*
D50*
X33299Y-9713D02*
D03*
D51*
X14500Y-7252D02*
D03*
D95*
X68988Y25938D02*
D03*
X70083Y22568D02*
D03*
X71178Y19198D02*
D03*
X-71206Y-19078D02*
D03*
X-70111Y-22448D02*
D03*
X-69016Y-25818D02*
D03*
D96*
X59627Y22897D02*
D03*
X60722Y19527D02*
D03*
X61817Y16157D02*
D03*
X-61845Y-16037D02*
D03*
X-60750Y-19407D02*
D03*
X-59655Y-22776D02*
D03*
D97*
X57107Y28661D02*
D03*
X55336Y31730D02*
D03*
X53564Y34798D02*
D03*
X-53579Y-34740D02*
D03*
X-55351Y-31672D02*
D03*
X-57123Y-28603D02*
D03*
D98*
X65631Y33582D02*
D03*
X63860Y36651D02*
D03*
X62088Y39720D02*
D03*
X-62103Y-39661D02*
D03*
X-63875Y-36593D02*
D03*
X-65647Y-33524D02*
D03*
D99*
X52461Y51778D02*
D03*
X54832Y49145D02*
D03*
X57203Y46512D02*
D03*
X-57274Y-46400D02*
D03*
X-54904Y-49033D02*
D03*
X-52533Y-51666D02*
D03*
D100*
X45147Y45192D02*
D03*
X47517Y42559D02*
D03*
X49888Y39926D02*
D03*
X-49960Y-39814D02*
D03*
X-47589Y-42447D02*
D03*
X-45218Y-45081D02*
D03*
D101*
X40461Y49455D02*
D03*
X37594Y51538D02*
D03*
X34728Y53620D02*
D03*
X-34756Y-53568D02*
D03*
X-37622Y-51486D02*
D03*
X-40489Y-49403D02*
D03*
D102*
X46246Y57418D02*
D03*
X43380Y59500D02*
D03*
X40513Y61583D02*
D03*
X-40541Y-61531D02*
D03*
X-43408Y-59448D02*
D03*
X-46274Y-57366D02*
D03*
D103*
X26798Y68674D02*
D03*
X30035Y67233D02*
D03*
X33272Y65792D02*
D03*
X-33302Y-65746D02*
D03*
X-30065Y-67188D02*
D03*
X-26828Y-68629D02*
D03*
D104*
X22794Y59682D02*
D03*
X26031Y58241D02*
D03*
X29268Y56800D02*
D03*
X-29299Y-56755D02*
D03*
X-26062Y-58196D02*
D03*
X-22825Y-59637D02*
D03*
D105*
X16798Y61650D02*
D03*
X13332Y62386D02*
D03*
X9866Y63123D02*
D03*
X-9816Y-63102D02*
D03*
X-13282Y-62365D02*
D03*
X-16748Y-61629D02*
D03*
D106*
X18844Y71277D02*
D03*
X15379Y72014D02*
D03*
X11913Y72750D02*
D03*
X-11863Y-72730D02*
D03*
X-15329Y-71993D02*
D03*
X-18794Y-71256D02*
D03*
D107*
X46219Y-57406D02*
D03*
X43352Y-59489D02*
D03*
X40485Y-61572D02*
D03*
X-40470Y61615D02*
D03*
X-43336Y59532D02*
D03*
X-46203Y57449D02*
D03*
D108*
X40433Y-49444D02*
D03*
X37567Y-51526D02*
D03*
X34700Y-53609D02*
D03*
X-34685Y53652D02*
D03*
X-37551Y51569D02*
D03*
X-40418Y49486D02*
D03*
D109*
X45080Y-45235D02*
D03*
X47451Y-42602D02*
D03*
X49822Y-39968D02*
D03*
X-49823Y39999D02*
D03*
X-47452Y42632D02*
D03*
X-45081Y45266D02*
D03*
D110*
X52394Y-51821D02*
D03*
X54765Y-49187D02*
D03*
X57136Y-46554D02*
D03*
X-57137Y46585D02*
D03*
X-54766Y49218D02*
D03*
X-52395Y51851D02*
D03*
D111*
X65605Y-33597D02*
D03*
X63833Y-36666D02*
D03*
X62061Y-39735D02*
D03*
X-62035Y39812D02*
D03*
X-63807Y36743D02*
D03*
X-65578Y33675D02*
D03*
D112*
X57081Y-28676D02*
D03*
X55309Y-31745D02*
D03*
X53537Y-34813D02*
D03*
X-53511Y34891D02*
D03*
X-55283Y31822D02*
D03*
X-57055Y28754D02*
D03*
D113*
X59602Y-22943D02*
D03*
X60697Y-19574D02*
D03*
X61792Y-16204D02*
D03*
X-61786Y16254D02*
D03*
X-60691Y19624D02*
D03*
X-59596Y22994D02*
D03*
D114*
X68963Y-25985D02*
D03*
X70057Y-22615D02*
D03*
X71152Y-19245D02*
D03*
X-71146Y19296D02*
D03*
X-70051Y22665D02*
D03*
X-68957Y26035D02*
D03*
D115*
X73606Y-3998D02*
D03*
X73235Y-7522D02*
D03*
X72865Y-11045D02*
D03*
X-72861Y11110D02*
D03*
X-73232Y7586D02*
D03*
X-73602Y4062D02*
D03*
D116*
X63817Y-2969D02*
D03*
X63447Y-6493D02*
D03*
X63076Y-10017D02*
D03*
X-63073Y10081D02*
D03*
X-63443Y6558D02*
D03*
X-63814Y3034D02*
D03*
D117*
X63777Y3377D02*
D03*
X63407Y6901D02*
D03*
X63036Y10425D02*
D03*
X-63085Y-9929D02*
D03*
X-63456Y-6405D02*
D03*
X-63826Y-2881D02*
D03*
D118*
X73566Y4406D02*
D03*
X73195Y7930D02*
D03*
X72825Y11454D02*
D03*
X-72874Y-10958D02*
D03*
X-73244Y-7434D02*
D03*
X-73615Y-3910D02*
D03*
D119*
X-3543Y-63764D02*
D03*
X-0D02*
D03*
X3543D02*
D03*
X-3543Y63795D02*
D03*
X0D02*
D03*
X3543D02*
D03*
D120*
X-3543Y-73606D02*
D03*
X0D02*
D03*
X3543D02*
D03*
X-3543Y73638D02*
D03*
X-0D02*
D03*
X3543D02*
D03*
D121*
X18875Y-71239D02*
D03*
X15409Y-71976D02*
D03*
X11943Y-72712D02*
D03*
X-11874Y72759D02*
D03*
X-15340Y72022D02*
D03*
X-18806Y71285D02*
D03*
D122*
X16829Y-61612D02*
D03*
X13363Y-62348D02*
D03*
X9897Y-63085D02*
D03*
X-9828Y63131D02*
D03*
X-13294Y62394D02*
D03*
X-16760Y61658D02*
D03*
D123*
X22771Y-59662D02*
D03*
X26008Y-58220D02*
D03*
X29244Y-56779D02*
D03*
X-29216Y56823D02*
D03*
X-25979Y58265D02*
D03*
X-22742Y59706D02*
D03*
D124*
X26774Y-68653D02*
D03*
X30011Y-67212D02*
D03*
X33248Y-65771D02*
D03*
X-33219Y65815D02*
D03*
X-29982Y67256D02*
D03*
X-26745Y68697D02*
D03*
D125*
X32Y3372D02*
D03*
X3372Y32D02*
D03*
X-3309D02*
D03*
X32Y-3309D02*
D03*
M02*
