G04*
G04 #@! TF.GenerationSoftware,Altium Limited,Altium Designer,20.0.9 (164)*
G04*
G04 Layer_Color=8421504*
%FSLAX25Y25*%
%MOIN*%
G70*
G01*
G75*
G04:AMPARAMS|DCode=13|XSize=20.47mil|YSize=22.05mil|CornerRadius=5.12mil|HoleSize=0mil|Usage=FLASHONLY|Rotation=0.000|XOffset=0mil|YOffset=0mil|HoleType=Round|Shape=RoundedRectangle|*
%AMROUNDEDRECTD13*
21,1,0.02047,0.01181,0,0,0.0*
21,1,0.01024,0.02205,0,0,0.0*
1,1,0.01024,0.00512,-0.00591*
1,1,0.01024,-0.00512,-0.00591*
1,1,0.01024,-0.00512,0.00591*
1,1,0.01024,0.00512,0.00591*
%
%ADD13ROUNDEDRECTD13*%
G04:AMPARAMS|DCode=14|XSize=20.47mil|YSize=22.05mil|CornerRadius=5.12mil|HoleSize=0mil|Usage=FLASHONLY|Rotation=90.000|XOffset=0mil|YOffset=0mil|HoleType=Round|Shape=RoundedRectangle|*
%AMROUNDEDRECTD14*
21,1,0.02047,0.01181,0,0,90.0*
21,1,0.01024,0.02205,0,0,90.0*
1,1,0.01024,0.00591,0.00512*
1,1,0.01024,0.00591,-0.00512*
1,1,0.01024,-0.00591,-0.00512*
1,1,0.01024,-0.00591,0.00512*
%
%ADD14ROUNDEDRECTD14*%
%ADD15R,0.00866X0.02520*%
%ADD16R,0.02520X0.00866*%
%ADD17R,0.11024X0.11024*%
%ADD18R,0.03150X0.02165*%
%ADD19R,0.02756X0.02165*%
%ADD20R,0.09449X0.02992*%
%ADD21R,0.03543X0.02835*%
%ADD22R,0.03347X0.02756*%
%ADD23P,0.13919X4X180.0*%
G04:AMPARAMS|DCode=24|XSize=7.87mil|YSize=29.53mil|CornerRadius=0mil|HoleSize=0mil|Usage=FLASHONLY|Rotation=135.000|XOffset=0mil|YOffset=0mil|HoleType=Round|Shape=Round|*
%AMOVALD24*
21,1,0.02165,0.00787,0.00000,0.00000,225.0*
1,1,0.00787,0.00766,0.00766*
1,1,0.00787,-0.00766,-0.00766*
%
%ADD24OVALD24*%

G04:AMPARAMS|DCode=25|XSize=7.87mil|YSize=29.53mil|CornerRadius=0mil|HoleSize=0mil|Usage=FLASHONLY|Rotation=225.000|XOffset=0mil|YOffset=0mil|HoleType=Round|Shape=Round|*
%AMOVALD25*
21,1,0.02165,0.00787,0.00000,0.00000,315.0*
1,1,0.00787,-0.00766,0.00766*
1,1,0.00787,0.00766,-0.00766*
%
%ADD25OVALD25*%

%ADD26C,0.03937*%
%ADD27R,0.02500X0.02500*%
D13*
X21910Y-3839D02*
D03*
X18445D02*
D03*
X16823Y-42783D02*
D03*
X13358Y-42783D02*
D03*
X-21224Y-29519D02*
D03*
X-24689D02*
D03*
X-7685Y10957D02*
D03*
X-11150D02*
D03*
X9421Y-12173D02*
D03*
X12886D02*
D03*
X-21224Y-26369D02*
D03*
X-24689D02*
D03*
X-24665Y-23228D02*
D03*
X-21201D02*
D03*
X-24665Y-20079D02*
D03*
X-21201D02*
D03*
X16823Y-33728D02*
D03*
X13358D02*
D03*
X16823Y-30677D02*
D03*
X13358D02*
D03*
Y-36681D02*
D03*
X16823D02*
D03*
X13358Y-39732D02*
D03*
X16823D02*
D03*
X13358Y-45835D02*
D03*
X16823D02*
D03*
X-16346Y-38945D02*
D03*
X-19811Y-38945D02*
D03*
X-16346Y-35894D02*
D03*
X-19811D02*
D03*
X-16346Y-32842D02*
D03*
X-19811Y-32842D02*
D03*
D14*
X-36417Y-12008D02*
D03*
Y-15472D02*
D03*
X56528Y-15874D02*
D03*
Y-12410D02*
D03*
Y-7213D02*
D03*
Y-3748D02*
D03*
X-3906Y-19024D02*
D03*
Y-15559D02*
D03*
X14469Y29980D02*
D03*
Y26516D02*
D03*
X-7677Y32441D02*
D03*
X-7677Y28976D02*
D03*
X4429Y20827D02*
D03*
Y17362D02*
D03*
X7480Y20827D02*
D03*
Y17362D02*
D03*
X-19752Y-11740D02*
D03*
Y-8276D02*
D03*
X4657Y-45776D02*
D03*
X4657Y-49240D02*
D03*
X1606Y-45776D02*
D03*
X1606Y-49240D02*
D03*
X-1445Y-45776D02*
D03*
X-1445Y-49240D02*
D03*
X-4496Y-45776D02*
D03*
X-4496Y-49240D02*
D03*
X-7547Y-45776D02*
D03*
X-7547Y-49240D02*
D03*
X-10598Y-45776D02*
D03*
X-10599Y-49240D02*
D03*
X56528Y4106D02*
D03*
Y7571D02*
D03*
Y12866D02*
D03*
Y16331D02*
D03*
X-56595Y12441D02*
D03*
X-56594Y15905D02*
D03*
X-56595Y3779D02*
D03*
Y7244D02*
D03*
Y-3681D02*
D03*
Y-7146D02*
D03*
X-56661Y-12410D02*
D03*
X-56661Y-15874D02*
D03*
X-7153Y-19024D02*
D03*
X-7154Y-15559D02*
D03*
D15*
X-5480Y-40028D02*
D03*
X-3906D02*
D03*
X-2331D02*
D03*
X-756D02*
D03*
X819D02*
D03*
X2394D02*
D03*
X3968D02*
D03*
X5543D02*
D03*
Y-24870D02*
D03*
X3968D02*
D03*
X2394D02*
D03*
X819D02*
D03*
X-756D02*
D03*
X-2331D02*
D03*
X-3906D02*
D03*
X-5480D02*
D03*
D16*
X7610Y-37961D02*
D03*
Y-36386D02*
D03*
Y-34811D02*
D03*
Y-33236D02*
D03*
Y-31661D02*
D03*
Y-30087D02*
D03*
Y-28512D02*
D03*
Y-26937D02*
D03*
X-7547D02*
D03*
Y-28512D02*
D03*
Y-30087D02*
D03*
Y-31661D02*
D03*
Y-33236D02*
D03*
Y-34811D02*
D03*
Y-36386D02*
D03*
Y-37961D02*
D03*
D17*
X32Y-32449D02*
D03*
D18*
X-3839Y32677D02*
D03*
Y28937D02*
D03*
Y25197D02*
D03*
X6004Y32677D02*
D03*
Y25197D02*
D03*
D19*
X-23984Y-15618D02*
D03*
Y-8138D02*
D03*
X-32252Y-11878D02*
D03*
D20*
X22453Y34972D02*
D03*
X37453D02*
D03*
X22453Y29972D02*
D03*
X37453D02*
D03*
X22453Y24972D02*
D03*
X37453D02*
D03*
X22453Y19972D02*
D03*
X37453D02*
D03*
X22453Y14972D02*
D03*
X37453D02*
D03*
X22453Y9972D02*
D03*
X37453D02*
D03*
X-37488Y34972D02*
D03*
X-22488D02*
D03*
X-37488Y29972D02*
D03*
X-22488D02*
D03*
X-37488Y24972D02*
D03*
X-22488D02*
D03*
X-37488Y19972D02*
D03*
X-22488D02*
D03*
X-37488Y14972D02*
D03*
X-22488D02*
D03*
X-37488Y9972D02*
D03*
X-22488D02*
D03*
D21*
X21488Y-15224D02*
D03*
Y-10500D02*
D03*
X10433Y29921D02*
D03*
Y25197D02*
D03*
D22*
X787Y20669D02*
D03*
Y15945D02*
D03*
D23*
X32Y32D02*
D03*
D24*
X-1848Y-9364D02*
D03*
X-3100Y-8111D02*
D03*
X-4353Y-6859D02*
D03*
X-5606Y-5606D02*
D03*
X-6859Y-4353D02*
D03*
X-8111Y-3100D02*
D03*
X-9364Y-1848D02*
D03*
X1911Y9427D02*
D03*
X3163Y8174D02*
D03*
X4416Y6922D02*
D03*
X5669Y5669D02*
D03*
X6922Y4416D02*
D03*
X8174Y3163D02*
D03*
X9427Y1911D02*
D03*
D25*
X-9364D02*
D03*
X-8111Y3163D02*
D03*
X-6859Y4416D02*
D03*
X-5606Y5669D02*
D03*
X-4353Y6922D02*
D03*
X-3100Y8174D02*
D03*
X-1848Y9427D02*
D03*
X9427Y-1848D02*
D03*
X8174Y-3100D02*
D03*
X6922Y-4353D02*
D03*
X5669Y-5606D02*
D03*
X4416Y-6859D02*
D03*
X3163Y-8111D02*
D03*
X1911Y-9364D02*
D03*
D26*
X14500Y-7252D02*
D03*
D27*
X-12961Y34512D02*
D03*
Y30512D02*
D03*
M02*
