G04*
G04 #@! TF.GenerationSoftware,Altium Limited,Altium Designer,20.0.9 (164)*
G04*
G04 Layer_Physical_Order=2*
G04 Layer_Color=36540*
%FSLAX25Y25*%
%MOIN*%
G70*
G01*
G75*
%ADD12C,0.00787*%
%ADD55R,0.05906X0.05906*%
%ADD56C,0.05906*%
%ADD58C,0.08661*%
%ADD59C,0.01772*%
%ADD61C,0.01968*%
%ADD62C,0.02362*%
%ADD64C,0.02598*%
G36*
X-10785Y73419D02*
X-10634Y73174D01*
X-10557Y72786D01*
X-10251Y72328D01*
X-9793Y72021D01*
X-9306Y71925D01*
X-6323Y67336D01*
X-6278Y67266D01*
X-6219Y67206D01*
X-6171Y67135D01*
X-5885Y66848D01*
X-5756Y66763D01*
X-5627Y66675D01*
X-5625Y66675D01*
X-5622Y66673D01*
X-5470Y66643D01*
X-5318Y66611D01*
X8563Y66514D01*
X22264Y63210D01*
X35197Y56890D01*
X35231Y56863D01*
X35231Y56863D01*
X46290Y48132D01*
X46481Y47912D01*
X46486Y47908D01*
X53576Y39819D01*
X53593Y39799D01*
X53614Y39783D01*
X53629Y39760D01*
X53878Y39511D01*
X53878Y39511D01*
X54141Y39336D01*
X54451Y39274D01*
X54902D01*
X55028Y39299D01*
X55155Y39315D01*
X60009Y40907D01*
X60286Y40722D01*
X60827Y40615D01*
X61367Y40722D01*
X61489Y40803D01*
X62686Y40718D01*
X62971Y40616D01*
X66910Y33939D01*
X66904Y33852D01*
X66290Y32703D01*
X65832Y32397D01*
X65525Y31938D01*
X65418Y31398D01*
X65525Y30857D01*
X65531Y30848D01*
X62077Y25338D01*
X62053Y25274D01*
X62015Y25218D01*
X61997Y25128D01*
X61965Y25043D01*
X61967Y24975D01*
X61953Y24908D01*
Y24572D01*
X61975Y24462D01*
X61984Y24350D01*
X64600Y15159D01*
X63515Y14657D01*
X63499Y14680D01*
X63041Y14987D01*
X62500Y15094D01*
X61959Y14987D01*
X61501Y14680D01*
X61195Y14222D01*
X61087Y13681D01*
X61195Y13140D01*
X61501Y12682D01*
X61959Y12376D01*
X62500Y12268D01*
X63041Y12376D01*
X63499Y12682D01*
X63805Y13140D01*
X63863Y13431D01*
X65038Y13620D01*
X65344Y12543D01*
X65348Y12504D01*
X65348Y12504D01*
X66804Y-1472D01*
X65445Y-13410D01*
X65388Y-13588D01*
Y-13588D01*
X60382Y-28990D01*
X54517Y-38578D01*
X54517Y-38579D01*
X54401Y-38768D01*
X54379Y-38827D01*
X54344Y-38880D01*
X54325Y-38974D01*
X54292Y-39064D01*
X54295Y-39127D01*
X54282Y-39190D01*
Y-39685D01*
X54304Y-39794D01*
X54313Y-39904D01*
X54335Y-39947D01*
X54344Y-39994D01*
X54406Y-40087D01*
X54456Y-40186D01*
X57621Y-44199D01*
X57544Y-44587D01*
X57651Y-45127D01*
X57958Y-45586D01*
X58201Y-46858D01*
X58161Y-47034D01*
X53014Y-52909D01*
X52855Y-52950D01*
X51590Y-52742D01*
X51590Y-52741D01*
X51131Y-52435D01*
X50591Y-52327D01*
X50050Y-52435D01*
X49804Y-52599D01*
X44647Y-50752D01*
X44518Y-50705D01*
X44381Y-50685D01*
X44246Y-50658D01*
X43865D01*
X43783Y-50674D01*
X43699Y-50675D01*
X43630Y-50705D01*
X43556Y-50720D01*
X43486Y-50766D01*
X43409Y-50799D01*
X32089Y-58539D01*
X19145Y-64087D01*
X5237Y-67005D01*
X4919Y-67000D01*
X-8945Y-66810D01*
X-19951Y-63919D01*
X-19951D01*
X-19951Y-63919D01*
X-20050Y-63893D01*
X-20154Y-63887D01*
X-20255Y-63866D01*
X-20683D01*
X-20683Y-63866D01*
X-20993Y-63928D01*
X-21256Y-64103D01*
X-21526Y-64374D01*
X-21558Y-64422D01*
X-21601Y-64460D01*
X-24466Y-68280D01*
X-24508Y-68272D01*
X-25049Y-68380D01*
X-25507Y-68686D01*
X-25813Y-69144D01*
X-26975Y-69765D01*
X-27050Y-69770D01*
X-34199Y-66895D01*
X-34341Y-66523D01*
X-34465Y-65515D01*
X-34324Y-65304D01*
X-34217Y-64764D01*
X-34324Y-64223D01*
X-34631Y-63765D01*
X-34837Y-63627D01*
X-34914Y-58235D01*
X-34918Y-57915D01*
X-34950Y-57767D01*
X-34980Y-57617D01*
X-34983Y-57612D01*
X-34984Y-57606D01*
X-35071Y-57481D01*
X-35155Y-57354D01*
X-35413Y-57097D01*
X-35451Y-57072D01*
X-35480Y-57037D01*
X-46382Y-48335D01*
X-55225Y-37839D01*
X-61550Y-25189D01*
X-65640Y-12044D01*
X-66760Y-562D01*
X-66760Y-562D01*
X-66787Y-281D01*
X-66822Y-167D01*
X-66845Y-50D01*
X-66867Y-17D01*
X-66879Y21D01*
X-66954Y114D01*
X-67020Y213D01*
X-67369Y561D01*
X-67412Y590D01*
X-67447Y630D01*
X-67543Y677D01*
X-67631Y736D01*
X-67683Y747D01*
X-67730Y770D01*
X-72502Y2058D01*
X-72514Y2115D01*
X-72820Y2574D01*
X-73278Y2880D01*
X-73819Y2988D01*
X-74605Y4029D01*
X-73817Y11546D01*
X-73679Y11719D01*
X-72543Y12367D01*
X-72539Y12367D01*
X-71999Y12474D01*
X-71540Y12780D01*
X-71234Y13239D01*
X-71208Y13370D01*
X-65683Y15212D01*
X-65658Y15226D01*
X-65629Y15232D01*
X-65522Y15304D01*
X-65409Y15368D01*
X-65391Y15391D01*
X-65367Y15407D01*
X-65108Y15666D01*
X-65095Y15686D01*
X-65076Y15700D01*
X-65007Y15817D01*
X-64932Y15929D01*
X-64928Y15952D01*
X-64916Y15973D01*
X-60388Y28978D01*
X-52992Y40753D01*
X-43556Y51356D01*
X-32008Y59216D01*
X-31879Y59264D01*
X-31879D01*
X-20823Y63352D01*
X-20810Y63360D01*
X-20794Y63363D01*
X-20676Y63442D01*
X-20554Y63517D01*
X-20545Y63530D01*
X-20532Y63539D01*
X-20179Y63891D01*
X-20179Y63891D01*
X-20004Y64154D01*
X-19942Y64464D01*
X-19942Y64464D01*
Y64846D01*
X-19953Y64902D01*
X-19950Y64960D01*
X-20592Y69450D01*
X-20556Y69473D01*
X-20250Y69932D01*
X-20142Y70472D01*
X-20250Y71013D01*
X-19548Y72089D01*
X-11703Y74117D01*
X-10785Y73419D01*
D02*
G37*
%LPC*%
G36*
X-15977Y56174D02*
Y53019D01*
X-12821D01*
X-12910Y53694D01*
X-13248Y54509D01*
X-13785Y55210D01*
X-14486Y55747D01*
X-15302Y56085D01*
X-15977Y56174D01*
D02*
G37*
G36*
X17176Y56171D02*
X14023D01*
Y53019D01*
X17176D01*
Y56171D01*
D02*
G37*
G36*
X13623D02*
X10471D01*
Y53019D01*
X13623D01*
Y56171D01*
D02*
G37*
G36*
X-16377Y56174D02*
X-17052Y56085D01*
X-17867Y55747D01*
X-18568Y55210D01*
X-19105Y54509D01*
X-19443Y53694D01*
X-19532Y53019D01*
X-16377D01*
Y56174D01*
D02*
G37*
G36*
X17176Y52619D02*
X14023D01*
Y49466D01*
X17176D01*
Y52619D01*
D02*
G37*
G36*
X13623D02*
X10471D01*
Y49466D01*
X13623D01*
Y52619D01*
D02*
G37*
G36*
X-12821D02*
X-15977D01*
Y49463D01*
X-15302Y49552D01*
X-14486Y49890D01*
X-13785Y50427D01*
X-13248Y51128D01*
X-12910Y51943D01*
X-12821Y52619D01*
D02*
G37*
G36*
X-16377D02*
X-19532D01*
X-19443Y51943D01*
X-19105Y51128D01*
X-18568Y50427D01*
X-17867Y49890D01*
X-17052Y49552D01*
X-16377Y49463D01*
Y52619D01*
D02*
G37*
G36*
X3823Y56200D02*
X2948Y56085D01*
X2132Y55747D01*
X1432Y55210D01*
X895Y54509D01*
X557Y53694D01*
X442Y52819D01*
X557Y51943D01*
X895Y51128D01*
X1432Y50427D01*
X2132Y49890D01*
X2948Y49552D01*
X3823Y49437D01*
X4699Y49552D01*
X5514Y49890D01*
X6214Y50427D01*
X6752Y51128D01*
X7090Y51943D01*
X7205Y52819D01*
X7090Y53694D01*
X6752Y54509D01*
X6214Y55210D01*
X5514Y55747D01*
X4699Y56085D01*
X3823Y56200D01*
D02*
G37*
G36*
X-6177D02*
X-7052Y56085D01*
X-7868Y55747D01*
X-8568Y55210D01*
X-9105Y54509D01*
X-9443Y53694D01*
X-9558Y52819D01*
X-9443Y51943D01*
X-9105Y51128D01*
X-8568Y50427D01*
X-7868Y49890D01*
X-7052Y49552D01*
X-6177Y49437D01*
X-5301Y49552D01*
X-4486Y49890D01*
X-3785Y50427D01*
X-3248Y51128D01*
X-2910Y51943D01*
X-2795Y52819D01*
X-2910Y53694D01*
X-3248Y54509D01*
X-3785Y55210D01*
X-4486Y55747D01*
X-5301Y56085D01*
X-6177Y56200D01*
D02*
G37*
G36*
X-15977Y46134D02*
Y42979D01*
X-12821D01*
X-12910Y43654D01*
X-13248Y44470D01*
X-13785Y45170D01*
X-14486Y45708D01*
X-15301Y46046D01*
X-15977Y46134D01*
D02*
G37*
G36*
X17176Y46132D02*
X14023D01*
Y42979D01*
X17176D01*
Y46132D01*
D02*
G37*
G36*
X13623D02*
X10471D01*
Y42979D01*
X13623D01*
Y46132D01*
D02*
G37*
G36*
X-16377Y46134D02*
X-17052Y46046D01*
X-17867Y45708D01*
X-18568Y45170D01*
X-19105Y44470D01*
X-19443Y43654D01*
X-19532Y42979D01*
X-16377D01*
Y46134D01*
D02*
G37*
G36*
X30031Y50200D02*
X28694Y50024D01*
X27447Y49508D01*
X26377Y48686D01*
X25555Y47616D01*
X25039Y46369D01*
X24863Y45031D01*
X25039Y43694D01*
X25555Y42447D01*
X26377Y41377D01*
X27447Y40555D01*
X28694Y40039D01*
X30031Y39863D01*
X31369Y40039D01*
X32616Y40555D01*
X33686Y41377D01*
X34508Y42447D01*
X35024Y43694D01*
X35200Y45031D01*
X35024Y46369D01*
X34508Y47616D01*
X33686Y48686D01*
X32616Y49508D01*
X31369Y50024D01*
X30031Y50200D01*
D02*
G37*
G36*
X-29969D02*
X-31306Y50024D01*
X-32553Y49508D01*
X-33623Y48686D01*
X-34445Y47616D01*
X-34961Y46369D01*
X-35137Y45031D01*
X-34961Y43694D01*
X-34445Y42447D01*
X-33623Y41377D01*
X-32553Y40555D01*
X-31306Y40039D01*
X-29969Y39863D01*
X-28631Y40039D01*
X-27384Y40555D01*
X-26314Y41377D01*
X-25492Y42447D01*
X-24976Y43694D01*
X-24800Y45031D01*
X-24976Y46369D01*
X-25492Y47616D01*
X-26314Y48686D01*
X-27384Y49508D01*
X-28631Y50024D01*
X-29969Y50200D01*
D02*
G37*
G36*
X17176Y42579D02*
X14023D01*
Y39426D01*
X17176D01*
Y42579D01*
D02*
G37*
G36*
X13623D02*
X10471D01*
Y39426D01*
X13623D01*
Y42579D01*
D02*
G37*
G36*
X-12821D02*
X-15977D01*
Y39424D01*
X-15301Y39513D01*
X-14486Y39851D01*
X-13785Y40388D01*
X-13248Y41088D01*
X-12910Y41904D01*
X-12821Y42579D01*
D02*
G37*
G36*
X-16377D02*
X-19532D01*
X-19443Y41904D01*
X-19105Y41088D01*
X-18568Y40388D01*
X-17867Y39851D01*
X-17052Y39513D01*
X-16377Y39424D01*
Y42579D01*
D02*
G37*
G36*
X3823Y46161D02*
X2948Y46046D01*
X2132Y45708D01*
X1432Y45170D01*
X895Y44470D01*
X557Y43654D01*
X442Y42779D01*
X557Y41904D01*
X895Y41088D01*
X1432Y40388D01*
X2132Y39851D01*
X2948Y39513D01*
X3823Y39397D01*
X4699Y39513D01*
X5514Y39851D01*
X6214Y40388D01*
X6752Y41088D01*
X7090Y41904D01*
X7205Y42779D01*
X7090Y43654D01*
X6752Y44470D01*
X6214Y45170D01*
X5514Y45708D01*
X4699Y46046D01*
X3823Y46161D01*
D02*
G37*
G36*
X-6177D02*
X-7052Y46046D01*
X-7868Y45708D01*
X-8568Y45170D01*
X-9105Y44470D01*
X-9443Y43654D01*
X-9558Y42779D01*
X-9443Y41904D01*
X-9105Y41088D01*
X-8568Y40388D01*
X-7868Y39851D01*
X-7052Y39513D01*
X-6177Y39397D01*
X-5301Y39513D01*
X-4486Y39851D01*
X-3785Y40388D01*
X-3248Y41088D01*
X-2910Y41904D01*
X-2795Y42779D01*
X-2910Y43654D01*
X-3248Y44470D01*
X-3785Y45170D01*
X-4486Y45708D01*
X-5301Y46046D01*
X-6177Y46161D01*
D02*
G37*
G36*
X-9055Y36649D02*
X-9596Y36542D01*
X-10054Y36235D01*
X-10361Y35777D01*
X-10468Y35236D01*
X-10361Y34696D01*
X-10054Y34237D01*
X-9596Y33931D01*
X-9055Y33823D01*
X-8514Y33931D01*
X-8056Y34237D01*
X-7750Y34696D01*
X-7642Y35236D01*
X-7750Y35777D01*
X-8056Y36235D01*
X-8514Y36542D01*
X-9055Y36649D01*
D02*
G37*
G36*
X15679Y33826D02*
X15138Y33719D01*
X14680Y33413D01*
X13876Y33691D01*
X13336Y33798D01*
X12795Y33691D01*
X12336Y33384D01*
X12030Y32926D01*
X11923Y32385D01*
X12030Y31844D01*
X12336Y31386D01*
X12795Y31080D01*
X13336Y30972D01*
X13876Y31080D01*
X14335Y31386D01*
X15138Y31108D01*
X15679Y31000D01*
X16219Y31108D01*
X16678Y31414D01*
X16984Y31873D01*
X17092Y32413D01*
X16984Y32954D01*
X16678Y33413D01*
X16219Y33719D01*
X15679Y33826D01*
D02*
G37*
G36*
X31299Y35349D02*
X30759Y35241D01*
X30300Y34935D01*
X29994Y34477D01*
X29886Y33936D01*
X29994Y33395D01*
X30300Y32937D01*
X30759Y32631D01*
X31299Y32523D01*
X31840Y32631D01*
X32298Y32937D01*
X32605Y33395D01*
X32712Y33936D01*
X32605Y34477D01*
X32298Y34935D01*
X31840Y35241D01*
X31299Y35349D01*
D02*
G37*
G36*
X49606Y34287D02*
X49066Y34179D01*
X48607Y33873D01*
X48301Y33415D01*
X48193Y32874D01*
X48301Y32333D01*
X48607Y31875D01*
X49066Y31569D01*
X49606Y31461D01*
X50147Y31569D01*
X50605Y31875D01*
X50912Y32333D01*
X51019Y32874D01*
X50912Y33415D01*
X50605Y33873D01*
X50147Y34179D01*
X49606Y34287D01*
D02*
G37*
G36*
X-16634Y27003D02*
X-17175Y26896D01*
X-17633Y26590D01*
X-17939Y26131D01*
X-18047Y25591D01*
X-17939Y25050D01*
X-17633Y24591D01*
X-17175Y24285D01*
X-16634Y24178D01*
X-16093Y24285D01*
X-15635Y24591D01*
X-15328Y25050D01*
X-15221Y25591D01*
X-15328Y26131D01*
X-15635Y26590D01*
X-16093Y26896D01*
X-16634Y27003D01*
D02*
G37*
G36*
X31232Y24771D02*
X30692Y24664D01*
X30233Y24357D01*
X29927Y23899D01*
X29819Y23358D01*
X29927Y22817D01*
X30233Y22359D01*
X30692Y22053D01*
X31232Y21945D01*
X31773Y22053D01*
X32231Y22359D01*
X32538Y22817D01*
X32645Y23358D01*
X32538Y23899D01*
X32231Y24357D01*
X31773Y24664D01*
X31232Y24771D01*
D02*
G37*
G36*
X-3839Y22476D02*
X-4379Y22368D01*
X-4838Y22062D01*
X-5144Y21604D01*
X-5252Y21063D01*
X-5144Y20522D01*
X-4838Y20064D01*
X-4379Y19758D01*
X-3839Y19650D01*
X-3298Y19758D01*
X-2840Y20064D01*
X-2533Y20522D01*
X-2426Y21063D01*
X-2533Y21604D01*
X-2840Y22062D01*
X-3298Y22368D01*
X-3839Y22476D01*
D02*
G37*
G36*
X-16000Y21429D02*
X-16541Y21321D01*
X-16999Y21015D01*
X-17305Y20557D01*
X-17413Y20016D01*
X-17305Y19475D01*
X-16999Y19017D01*
X-16541Y18710D01*
X-16000Y18603D01*
X-15459Y18710D01*
X-15001Y19017D01*
X-14695Y19475D01*
X-14587Y20016D01*
X-14695Y20557D01*
X-15001Y21015D01*
X-15459Y21321D01*
X-16000Y21429D01*
D02*
G37*
G36*
X29102Y21326D02*
X28562Y21219D01*
X28103Y20912D01*
X27797Y20454D01*
X27689Y19913D01*
X27797Y19373D01*
X28103Y18914D01*
X28562Y18608D01*
X29102Y18500D01*
X29643Y18608D01*
X30101Y18914D01*
X30408Y19373D01*
X30515Y19913D01*
X30408Y20454D01*
X30101Y20912D01*
X29643Y21219D01*
X29102Y21326D01*
D02*
G37*
G36*
X50032Y24803D02*
X48796Y24640D01*
X47646Y24164D01*
X46657Y23405D01*
X45899Y22417D01*
X45423Y21267D01*
X45260Y20031D01*
X45423Y18797D01*
X45899Y17646D01*
X46657Y16657D01*
X47646Y15899D01*
X48197Y15671D01*
Y14392D01*
X47646Y14164D01*
X46657Y13406D01*
X45899Y12417D01*
X45423Y11266D01*
X45260Y10031D01*
X45423Y8796D01*
X45899Y7646D01*
X46657Y6657D01*
X47646Y5899D01*
X48197Y5671D01*
Y4392D01*
X47646Y4164D01*
X46657Y3405D01*
X45899Y2417D01*
X45423Y1266D01*
X45260Y32D01*
X45423Y-1204D01*
X45899Y-2354D01*
X46657Y-3342D01*
X47646Y-4101D01*
X48197Y-4329D01*
Y-5608D01*
X47646Y-5836D01*
X46657Y-6594D01*
X45899Y-7583D01*
X45423Y-8733D01*
X45260Y-9968D01*
X45423Y-11203D01*
X45899Y-12354D01*
X46657Y-13342D01*
X47646Y-14101D01*
X48197Y-14329D01*
Y-15608D01*
X47646Y-15836D01*
X46657Y-16594D01*
X45899Y-17583D01*
X45423Y-18733D01*
X45260Y-19969D01*
X45423Y-21204D01*
X45899Y-22354D01*
X46657Y-23343D01*
X47646Y-24101D01*
X48796Y-24577D01*
X50032Y-24740D01*
X51266Y-24577D01*
X52417Y-24101D01*
X53405Y-23343D01*
X54164Y-22354D01*
X54640Y-21204D01*
X54803Y-19969D01*
X54640Y-18733D01*
X54164Y-17583D01*
X53405Y-16594D01*
X52417Y-15836D01*
X51866Y-15608D01*
Y-14329D01*
X52417Y-14101D01*
X53405Y-13342D01*
X54164Y-12354D01*
X54640Y-11203D01*
X54803Y-9968D01*
X54640Y-8733D01*
X54164Y-7583D01*
X53405Y-6594D01*
X52417Y-5836D01*
X51866Y-5608D01*
Y-4329D01*
X52417Y-4101D01*
X53405Y-3342D01*
X54164Y-2354D01*
X54640Y-1204D01*
X54803Y32D01*
X54640Y1266D01*
X54164Y2417D01*
X53405Y3405D01*
X52417Y4164D01*
X51866Y4392D01*
Y5671D01*
X52417Y5899D01*
X53405Y6657D01*
X54164Y7646D01*
X54640Y8796D01*
X54803Y10031D01*
X54640Y11266D01*
X54164Y12417D01*
X53405Y13406D01*
X52417Y14164D01*
X51866Y14392D01*
Y15671D01*
X52417Y15899D01*
X53405Y16657D01*
X54164Y17646D01*
X54333Y18055D01*
X55513Y18277D01*
X55685Y18232D01*
X56054Y17986D01*
X56595Y17878D01*
X57135Y17986D01*
X57594Y18292D01*
X57900Y18751D01*
X58008Y19291D01*
X57900Y19832D01*
X57594Y20290D01*
X57135Y20597D01*
X56595Y20704D01*
X56054Y20597D01*
X55931Y20515D01*
X54870Y20842D01*
X54677Y20989D01*
X54640Y21267D01*
X54164Y22417D01*
X53405Y23405D01*
X52417Y24164D01*
X51266Y24640D01*
X50032Y24803D01*
D02*
G37*
G36*
X7185Y16472D02*
X6644Y16364D01*
X6186Y16058D01*
X5880Y15600D01*
X5847Y15434D01*
X5419Y14915D01*
X4658Y14604D01*
X4551Y14626D01*
X4011Y14518D01*
X3620Y14257D01*
X3552Y14212D01*
X2496Y14014D01*
X2180Y14123D01*
X1919Y14298D01*
X1378Y14405D01*
X837Y14298D01*
X379Y13991D01*
X72Y13533D01*
X-35Y12992D01*
X72Y12451D01*
X379Y11993D01*
X837Y11687D01*
X1378Y11579D01*
X1919Y11687D01*
X2309Y11948D01*
X2377Y11993D01*
X3434Y12191D01*
X3749Y12082D01*
X4011Y11907D01*
X4551Y11800D01*
X5092Y11907D01*
X5550Y12213D01*
X5857Y12672D01*
X5889Y12837D01*
X6317Y13357D01*
X7078Y13667D01*
X7185Y13646D01*
X7726Y13754D01*
X8184Y14060D01*
X8490Y14518D01*
X8598Y15059D01*
X8490Y15600D01*
X8184Y16058D01*
X7726Y16364D01*
X7185Y16472D01*
D02*
G37*
G36*
X-8728Y15027D02*
X-9269Y14920D01*
X-9727Y14613D01*
X-10034Y14155D01*
X-10141Y13614D01*
X-10034Y13073D01*
X-9727Y12615D01*
X-9269Y12309D01*
X-8728Y12201D01*
X-8188Y12309D01*
X-7729Y12615D01*
X-7423Y13073D01*
X-7315Y13614D01*
X-7423Y14155D01*
X-7729Y14613D01*
X-8188Y14920D01*
X-8728Y15027D01*
D02*
G37*
G36*
X-16012Y16897D02*
X-16553Y16790D01*
X-17011Y16483D01*
X-17317Y16025D01*
X-17425Y15484D01*
X-17317Y14943D01*
X-17011Y14485D01*
X-16665Y14254D01*
X-16576Y13937D01*
X-16567Y13832D01*
X-16601Y12984D01*
X-16814Y12842D01*
X-17120Y12383D01*
X-17228Y11842D01*
X-17120Y11302D01*
X-16814Y10843D01*
X-16356Y10537D01*
X-15815Y10430D01*
X-15274Y10537D01*
X-14816Y10843D01*
X-14510Y11302D01*
X-14402Y11842D01*
X-14510Y12383D01*
X-14816Y12842D01*
X-15162Y13073D01*
X-15250Y13389D01*
X-15260Y13495D01*
X-15226Y14343D01*
X-15013Y14485D01*
X-14706Y14943D01*
X-14599Y15484D01*
X-14706Y16025D01*
X-15013Y16483D01*
X-15471Y16790D01*
X-16012Y16897D01*
D02*
G37*
G36*
X31260Y16461D02*
X30719Y16353D01*
X30261Y16047D01*
X29954Y15589D01*
X29847Y15048D01*
X29954Y14507D01*
X30261Y14049D01*
X30560Y13848D01*
X30645Y13792D01*
X30683Y13482D01*
X30559Y12571D01*
X30549Y12568D01*
X30495Y12557D01*
X30036Y12251D01*
X29730Y11793D01*
X29622Y11252D01*
X29730Y10711D01*
X30036Y10253D01*
X30495Y9947D01*
X31035Y9839D01*
X31576Y9947D01*
X32035Y10253D01*
X32341Y10711D01*
X32448Y11252D01*
X32341Y11793D01*
X32035Y12251D01*
X31735Y12451D01*
X31650Y12508D01*
X31612Y12818D01*
X31736Y13728D01*
X31746Y13732D01*
X31800Y13743D01*
X32259Y14049D01*
X32565Y14507D01*
X32673Y15048D01*
X32565Y15589D01*
X32259Y16047D01*
X31800Y16353D01*
X31260Y16461D01*
D02*
G37*
G36*
X15000Y9429D02*
X14459Y9321D01*
X14001Y9015D01*
X13695Y8557D01*
X13587Y8016D01*
X13695Y7475D01*
X14001Y7017D01*
X14459Y6710D01*
X15001Y6597D01*
X15087Y6016D01*
X15195Y5475D01*
X15501Y5017D01*
X15959Y4710D01*
X16501Y4597D01*
X16587Y4016D01*
X16695Y3475D01*
X17001Y3017D01*
X17459Y2710D01*
X18001Y2597D01*
X18087Y2016D01*
X18195Y1475D01*
X18501Y1017D01*
X18959Y710D01*
X19500Y603D01*
X20041Y710D01*
X20499Y1017D01*
X20805Y1475D01*
X20913Y2016D01*
X20805Y2557D01*
X20499Y3015D01*
X20041Y3321D01*
X19499Y3435D01*
X19413Y4016D01*
X19305Y4557D01*
X18999Y5015D01*
X18541Y5321D01*
X17999Y5435D01*
X17913Y6016D01*
X17805Y6556D01*
X17499Y7015D01*
X17041Y7321D01*
X16499Y7435D01*
X16413Y8016D01*
X16305Y8557D01*
X15999Y9015D01*
X15541Y9321D01*
X15000Y9429D01*
D02*
G37*
G36*
X-13844Y8989D02*
X-14385Y8882D01*
X-14843Y8575D01*
X-15150Y8117D01*
X-15558Y7137D01*
X-16098Y7030D01*
X-16557Y6724D01*
X-16863Y6265D01*
X-16971Y5725D01*
X-17276Y5261D01*
X-17817Y5153D01*
X-17817D01*
X-18276Y4847D01*
X-18582Y4389D01*
X-19000Y3429D01*
X-19541Y3321D01*
X-19999Y3015D01*
X-20305Y2557D01*
X-20413Y2016D01*
X-20305Y1475D01*
X-19999Y1017D01*
X-19541Y710D01*
X-19000Y603D01*
X-18459Y710D01*
X-18001Y1017D01*
X-17695Y1475D01*
X-17276Y2435D01*
X-16736Y2542D01*
X-16277Y2849D01*
X-15971Y3307D01*
X-15864Y3848D01*
X-15558Y4312D01*
X-15017Y4419D01*
X-15017D01*
X-14559Y4725D01*
X-14252Y5184D01*
X-13844Y6163D01*
X-13304Y6271D01*
X-12845Y6577D01*
X-12539Y7035D01*
X-12431Y7576D01*
X-12539Y8117D01*
X-12845Y8575D01*
X-13304Y8882D01*
X-13844Y8989D01*
D02*
G37*
G36*
X-15618Y-2886D02*
X-16159Y-2994D01*
X-16617Y-3300D01*
X-16924Y-3759D01*
X-17031Y-4299D01*
X-16924Y-4840D01*
X-16617Y-5298D01*
X-16159Y-5605D01*
X-15618Y-5712D01*
X-15077Y-5605D01*
X-14619Y-5298D01*
X-14313Y-4840D01*
X-14205Y-4299D01*
X-14313Y-3759D01*
X-14619Y-3300D01*
X-15077Y-2994D01*
X-15618Y-2886D01*
D02*
G37*
G36*
X-19783Y-4394D02*
X-20324Y-4502D01*
X-20783Y-4808D01*
X-21089Y-5266D01*
X-21196Y-5807D01*
X-21089Y-6348D01*
X-20783Y-6806D01*
X-20324Y-7113D01*
X-19783Y-7220D01*
X-19243Y-7113D01*
X-18784Y-6806D01*
X-18478Y-6348D01*
X-18371Y-5807D01*
X-18478Y-5266D01*
X-18784Y-4808D01*
X-19243Y-4502D01*
X-19783Y-4394D01*
D02*
G37*
G36*
X14500Y-5245D02*
X13732Y-5398D01*
X13081Y-5833D01*
X12646Y-6484D01*
X12493Y-7252D01*
X12646Y-8020D01*
X13081Y-8671D01*
X13732Y-9106D01*
X14500Y-9259D01*
X15268Y-9106D01*
X15919Y-8671D01*
X16354Y-8020D01*
X16507Y-7252D01*
X16354Y-6484D01*
X15919Y-5833D01*
X15268Y-5398D01*
X14500Y-5245D01*
D02*
G37*
G36*
X-9122Y-8201D02*
X-9663Y-8309D01*
X-10121Y-8615D01*
X-10428Y-9074D01*
X-10535Y-9614D01*
X-10428Y-10155D01*
X-10121Y-10613D01*
X-9663Y-10920D01*
X-9122Y-11027D01*
X-8581Y-10920D01*
X-8123Y-10613D01*
X-7817Y-10155D01*
X-7709Y-9614D01*
X-7817Y-9074D01*
X-8123Y-8615D01*
X-8581Y-8309D01*
X-9122Y-8201D01*
D02*
G37*
G36*
X-48917Y33893D02*
X-49458Y33786D01*
X-49916Y33479D01*
X-50223Y33021D01*
X-50330Y32480D01*
X-50223Y31940D01*
X-50112Y31774D01*
X-50330Y31127D01*
X-50525Y30761D01*
X-50649Y30614D01*
X-51033Y30538D01*
X-51491Y30231D01*
X-51797Y29773D01*
X-51905Y29232D01*
X-51825Y28829D01*
X-51923Y28503D01*
X-52505Y27625D01*
X-52706Y27585D01*
X-53164Y27279D01*
X-53471Y26820D01*
X-53578Y26280D01*
X-53471Y25739D01*
X-53164Y25280D01*
X-52947Y25135D01*
X-52792Y24187D01*
X-52834Y23795D01*
X-53342Y23405D01*
X-54101Y22417D01*
X-54577Y21267D01*
X-54740Y20031D01*
X-54577Y18797D01*
X-54101Y17646D01*
X-53342Y16657D01*
X-52354Y15899D01*
X-51803Y15671D01*
Y14392D01*
X-52354Y14164D01*
X-53342Y13406D01*
X-54101Y12417D01*
X-54577Y11266D01*
X-54740Y10031D01*
X-54577Y8796D01*
X-54101Y7646D01*
X-53342Y6657D01*
X-52354Y5899D01*
X-51803Y5671D01*
Y4392D01*
X-52354Y4164D01*
X-53342Y3405D01*
X-54101Y2417D01*
X-54577Y1266D01*
X-54740Y32D01*
X-54577Y-1204D01*
X-54101Y-2354D01*
X-53342Y-3342D01*
X-52354Y-4101D01*
X-51803Y-4329D01*
Y-5608D01*
X-52354Y-5836D01*
X-53342Y-6594D01*
X-54101Y-7583D01*
X-54577Y-8733D01*
X-54740Y-9968D01*
X-54577Y-11203D01*
X-54101Y-12354D01*
X-53342Y-13342D01*
X-52354Y-14101D01*
X-51803Y-14329D01*
Y-15608D01*
X-52354Y-15836D01*
X-53342Y-16594D01*
X-54101Y-17583D01*
X-54577Y-18733D01*
X-54740Y-19969D01*
X-54577Y-21204D01*
X-54101Y-22354D01*
X-53342Y-23343D01*
X-52354Y-24101D01*
X-51204Y-24577D01*
X-49968Y-24740D01*
X-48734Y-24577D01*
X-47583Y-24101D01*
X-46595Y-23343D01*
X-45836Y-22354D01*
X-45360Y-21204D01*
X-45197Y-19969D01*
X-45360Y-18733D01*
X-45836Y-17583D01*
X-46595Y-16594D01*
X-47583Y-15836D01*
X-48134Y-15608D01*
Y-14329D01*
X-47583Y-14101D01*
X-46595Y-13342D01*
X-45836Y-12354D01*
X-45360Y-11203D01*
X-45197Y-9968D01*
X-45360Y-8733D01*
X-45836Y-7583D01*
X-46595Y-6594D01*
X-47583Y-5836D01*
X-48134Y-5608D01*
Y-4329D01*
X-47583Y-4101D01*
X-46595Y-3342D01*
X-45836Y-2354D01*
X-45360Y-1204D01*
X-45303Y-778D01*
X-43083D01*
X-39884Y-3977D01*
Y-10784D01*
X-40074Y-10910D01*
X-40380Y-11369D01*
X-40488Y-11909D01*
X-40380Y-12450D01*
X-40074Y-12909D01*
X-39615Y-13215D01*
X-39075Y-13322D01*
X-38534Y-13215D01*
X-38076Y-12909D01*
X-37769Y-12450D01*
X-37662Y-11909D01*
X-37769Y-11369D01*
X-38076Y-10910D01*
X-38266Y-10784D01*
Y-3642D01*
X-38265Y-3642D01*
X-38327Y-3332D01*
X-38503Y-3070D01*
X-38503Y-3070D01*
X-42176Y604D01*
X-42438Y779D01*
X-42748Y841D01*
X-42748Y841D01*
X-45303D01*
X-45360Y1266D01*
X-45836Y2417D01*
X-46595Y3405D01*
X-47583Y4164D01*
X-48134Y4392D01*
Y5671D01*
X-47583Y5899D01*
X-46595Y6657D01*
X-45836Y7646D01*
X-45360Y8796D01*
X-45197Y10031D01*
X-45360Y11266D01*
X-45836Y12417D01*
X-46595Y13406D01*
X-47583Y14164D01*
X-48134Y14392D01*
Y15671D01*
X-47583Y15899D01*
X-46595Y16657D01*
X-45836Y17646D01*
X-45360Y18797D01*
X-45197Y20031D01*
X-45360Y21267D01*
X-45836Y22417D01*
X-46595Y23405D01*
X-47583Y24164D01*
X-48734Y24640D01*
X-49968Y24803D01*
X-50074Y24789D01*
X-50496Y25299D01*
X-50832Y25881D01*
X-50752Y26280D01*
X-50833Y26683D01*
X-50735Y27009D01*
X-50152Y27887D01*
X-49951Y27927D01*
X-49493Y28233D01*
X-49187Y28692D01*
X-49079Y29232D01*
X-49187Y29773D01*
X-49297Y29939D01*
X-49080Y30586D01*
X-48885Y30951D01*
X-48760Y31099D01*
X-48377Y31175D01*
X-47918Y31481D01*
X-47612Y31940D01*
X-47504Y32480D01*
X-47612Y33021D01*
X-47918Y33479D01*
X-48377Y33786D01*
X-48917Y33893D01*
D02*
G37*
G36*
X5113Y-11154D02*
X4573Y-11261D01*
X4114Y-11568D01*
X3808Y-12026D01*
X3700Y-12567D01*
X3808Y-13108D01*
X4114Y-13566D01*
X4573Y-13872D01*
X5113Y-13980D01*
X5733Y-14030D01*
X6010Y-14584D01*
X6316Y-15042D01*
X6774Y-15349D01*
X7315Y-15456D01*
X7856Y-15349D01*
X8314Y-15042D01*
X8620Y-14584D01*
X8728Y-14043D01*
X8620Y-13503D01*
X8314Y-13044D01*
X7856Y-12738D01*
X7315Y-12630D01*
X6696Y-12581D01*
X6419Y-12026D01*
X6113Y-11568D01*
X5654Y-11261D01*
X5113Y-11154D01*
D02*
G37*
G36*
X-18669Y-13910D02*
X-19210Y-14017D01*
X-19668Y-14324D01*
X-19975Y-14782D01*
X-20082Y-15323D01*
X-19975Y-15864D01*
X-19668Y-16322D01*
X-19210Y-16628D01*
X-18669Y-16736D01*
X-18129Y-16628D01*
X-17670Y-16322D01*
X-17364Y-15864D01*
X-17256Y-15323D01*
X-17364Y-14782D01*
X-17670Y-14324D01*
X-18129Y-14017D01*
X-18669Y-13910D01*
D02*
G37*
G36*
X25228Y-14008D02*
X24688Y-14116D01*
X24229Y-14422D01*
X23923Y-14881D01*
X23815Y-15421D01*
X23923Y-15962D01*
X24229Y-16420D01*
X24688Y-16727D01*
X25228Y-16834D01*
X25769Y-16727D01*
X26228Y-16420D01*
X26534Y-15962D01*
X26641Y-15421D01*
X26534Y-14881D01*
X26228Y-14422D01*
X25769Y-14116D01*
X25228Y-14008D01*
D02*
G37*
G36*
X-11500Y-21071D02*
X-12041Y-21179D01*
X-12499Y-21485D01*
X-12805Y-21944D01*
X-12937Y-22484D01*
X-13500Y-22468D01*
X-14041Y-22576D01*
X-14499Y-22882D01*
X-14805Y-23340D01*
X-14913Y-23881D01*
X-14805Y-24422D01*
X-14499Y-24880D01*
X-14041Y-25186D01*
X-13500Y-25294D01*
X-12959Y-25186D01*
X-12501Y-24880D01*
X-12195Y-24422D01*
X-12063Y-23882D01*
X-11500Y-23897D01*
X-10959Y-23790D01*
X-10501Y-23483D01*
X-10195Y-23025D01*
X-10087Y-22484D01*
X-10195Y-21944D01*
X-10501Y-21485D01*
X-10959Y-21179D01*
X-11500Y-21071D01*
D02*
G37*
G36*
X-18406Y-18666D02*
X-18946Y-18773D01*
X-19405Y-19080D01*
X-19711Y-19538D01*
X-19818Y-20079D01*
X-19818Y-20079D01*
X-19711Y-20619D01*
X-19497Y-20940D01*
X-19448Y-21014D01*
X-19317Y-22099D01*
X-19312Y-22166D01*
X-19422Y-22402D01*
X-19613Y-22688D01*
X-19720Y-23228D01*
X-19613Y-23769D01*
X-19306Y-24227D01*
X-18848Y-24534D01*
X-18307Y-24641D01*
X-17766Y-24534D01*
X-17308Y-24227D01*
X-17002Y-23769D01*
X-16894Y-23228D01*
X-16894Y-23228D01*
X-17002Y-22688D01*
X-17216Y-22367D01*
X-17265Y-22293D01*
X-17395Y-21208D01*
X-17401Y-21141D01*
X-17291Y-20905D01*
X-17100Y-20619D01*
X-16993Y-20079D01*
X-17100Y-19538D01*
X-17406Y-19080D01*
X-17865Y-18773D01*
X-18406Y-18666D01*
D02*
G37*
G36*
X-27362D02*
X-27903Y-18773D01*
X-28361Y-19080D01*
X-28668Y-19538D01*
X-28775Y-20079D01*
X-28668Y-20619D01*
X-28477Y-20905D01*
X-28367Y-21141D01*
X-28372Y-21208D01*
X-28503Y-22293D01*
X-28552Y-22367D01*
X-28766Y-22688D01*
X-28874Y-23228D01*
X-28874Y-23228D01*
X-28835Y-23424D01*
X-28766Y-23769D01*
X-28460Y-24227D01*
X-28001Y-24534D01*
X-27461Y-24641D01*
X-26920Y-24534D01*
X-26461Y-24227D01*
X-26155Y-23769D01*
X-26048Y-23228D01*
X-26155Y-22688D01*
X-26346Y-22402D01*
X-26456Y-22166D01*
X-26450Y-22099D01*
X-26320Y-21014D01*
X-26271Y-20940D01*
X-26057Y-20619D01*
X-25949Y-20079D01*
X-25949Y-20079D01*
X-25988Y-19883D01*
X-26057Y-19538D01*
X-26363Y-19080D01*
X-26822Y-18773D01*
X-27362Y-18666D01*
D02*
G37*
G36*
X-11484Y-27000D02*
X-12025Y-27108D01*
X-12483Y-27414D01*
X-12790Y-27873D01*
X-12897Y-28413D01*
X-12790Y-28954D01*
X-12483Y-29412D01*
X-12025Y-29719D01*
X-11484Y-29826D01*
X-10943Y-29719D01*
X-10485Y-29412D01*
X-10179Y-28954D01*
X-10071Y-28413D01*
X-10179Y-27873D01*
X-10485Y-27414D01*
X-10943Y-27108D01*
X-11484Y-27000D01*
D02*
G37*
G36*
X-22736Y-30575D02*
X-23277Y-30683D01*
X-23735Y-30989D01*
X-24042Y-31447D01*
X-24149Y-31988D01*
X-24042Y-32529D01*
X-23735Y-32987D01*
Y-33548D01*
X-24042Y-34007D01*
X-24149Y-34547D01*
X-24042Y-35088D01*
X-23735Y-35546D01*
X-23834Y-36206D01*
X-24140Y-36664D01*
X-24248Y-37205D01*
X-24140Y-37745D01*
X-23834Y-38204D01*
X-23375Y-38510D01*
X-22835Y-38618D01*
X-22294Y-38510D01*
X-21836Y-38204D01*
X-21529Y-37745D01*
X-21422Y-37205D01*
X-21529Y-36664D01*
X-21836Y-36206D01*
X-21737Y-35546D01*
X-21431Y-35088D01*
X-21323Y-34547D01*
X-21431Y-34007D01*
X-21737Y-33548D01*
Y-32987D01*
X-21431Y-32529D01*
X-21323Y-31988D01*
X-21431Y-31447D01*
X-21737Y-30989D01*
X-22196Y-30683D01*
X-22736Y-30575D01*
D02*
G37*
G36*
X20898Y-29264D02*
X20357Y-29372D01*
X19898Y-29678D01*
X19592Y-30136D01*
X19485Y-30677D01*
X19592Y-31218D01*
X19898Y-31676D01*
Y-32631D01*
X19592Y-33089D01*
X19485Y-33630D01*
X19592Y-34171D01*
X19725Y-34369D01*
X19865Y-34633D01*
X19838Y-35062D01*
X19739Y-35773D01*
X19494Y-36140D01*
X19389Y-36668D01*
X19386Y-36681D01*
X19386Y-36681D01*
X19494Y-37222D01*
X19718Y-38181D01*
X19474Y-39118D01*
X19366Y-39659D01*
X19366Y-39659D01*
X19369Y-39673D01*
X19474Y-40200D01*
X19693Y-41146D01*
X19702Y-41248D01*
X19690Y-41320D01*
X19406Y-42213D01*
X19298Y-42754D01*
X19298Y-42754D01*
X19299Y-42756D01*
X19406Y-43295D01*
X19530Y-43480D01*
X19675Y-43772D01*
X19637Y-44170D01*
X19504Y-44907D01*
X19270Y-45257D01*
X19162Y-45798D01*
X19270Y-46338D01*
X19576Y-46797D01*
X20034Y-47103D01*
X20575Y-47211D01*
X21116Y-47103D01*
X21574Y-46797D01*
X21881Y-46338D01*
X21988Y-45798D01*
X21881Y-45257D01*
X21757Y-45071D01*
X21611Y-44780D01*
X21650Y-44381D01*
X21783Y-43645D01*
X22017Y-43295D01*
X22124Y-42754D01*
X22017Y-42213D01*
X21855Y-41971D01*
X21715Y-41708D01*
X21718Y-41657D01*
X21801Y-40624D01*
X21907Y-40466D01*
X22085Y-40200D01*
X22190Y-39672D01*
X22192Y-39659D01*
X22192Y-39659D01*
X22085Y-39118D01*
X21861Y-38159D01*
X22105Y-37222D01*
X22212Y-36681D01*
X22212Y-36681D01*
X22209Y-36667D01*
X22105Y-36140D01*
X21972Y-35942D01*
X21832Y-35678D01*
X21859Y-35249D01*
X21958Y-34538D01*
X22203Y-34171D01*
X22311Y-33630D01*
X22203Y-33089D01*
X21897Y-32631D01*
Y-31676D01*
X22203Y-31218D01*
X22311Y-30677D01*
X22203Y-30136D01*
X21897Y-29678D01*
X21438Y-29372D01*
X20898Y-29264D01*
D02*
G37*
G36*
X30031Y-39800D02*
X28694Y-39976D01*
X27447Y-40492D01*
X26377Y-41314D01*
X25555Y-42384D01*
X25039Y-43631D01*
X24863Y-44969D01*
X25039Y-46306D01*
X25555Y-47553D01*
X26377Y-48623D01*
X27447Y-49445D01*
X28694Y-49961D01*
X30031Y-50137D01*
X31369Y-49961D01*
X32616Y-49445D01*
X33686Y-48623D01*
X34508Y-47553D01*
X35024Y-46306D01*
X35200Y-44969D01*
X35024Y-43631D01*
X34508Y-42384D01*
X33686Y-41314D01*
X32616Y-40492D01*
X31369Y-39976D01*
X30031Y-39800D01*
D02*
G37*
G36*
X-29969D02*
X-31306Y-39976D01*
X-32553Y-40492D01*
X-33623Y-41314D01*
X-34445Y-42384D01*
X-34961Y-43631D01*
X-35137Y-44969D01*
X-34961Y-46306D01*
X-34445Y-47553D01*
X-33623Y-48623D01*
X-32553Y-49445D01*
X-31306Y-49961D01*
X-29969Y-50137D01*
X-28631Y-49961D01*
X-27384Y-49445D01*
X-26314Y-48623D01*
X-25492Y-47553D01*
X-24976Y-46306D01*
X-24800Y-44969D01*
X-24976Y-43631D01*
X-25492Y-42384D01*
X-26314Y-41314D01*
X-27384Y-40492D01*
X-28631Y-39976D01*
X-29969Y-39800D01*
D02*
G37*
G36*
X4724Y-51244D02*
X4184Y-51352D01*
X3725Y-51658D01*
X3419Y-52117D01*
X3313Y-52650D01*
X3065Y-52859D01*
X2222Y-53234D01*
X1985Y-53076D01*
X1445Y-52968D01*
X904Y-53076D01*
X445Y-53382D01*
X139Y-53841D01*
X64Y-54220D01*
X-744Y-54793D01*
X-1001Y-54929D01*
X-1526Y-54825D01*
X-1542Y-54822D01*
X-1542Y-54822D01*
X-2082Y-54929D01*
X-2940Y-55178D01*
X-3888Y-54994D01*
X-4429Y-54886D01*
X-4429Y-54886D01*
X-4463Y-54893D01*
X-4970Y-54994D01*
X-5067Y-55059D01*
X-5843Y-54684D01*
X-6179Y-54460D01*
X-6273Y-53987D01*
X-6580Y-53528D01*
X-7038Y-53222D01*
X-7579Y-53115D01*
X-8119Y-53222D01*
X-8423Y-53120D01*
X-9268Y-52597D01*
X-9324Y-52314D01*
X-9631Y-51855D01*
X-10089Y-51549D01*
X-10630Y-51441D01*
X-11171Y-51549D01*
X-11629Y-51855D01*
X-11935Y-52314D01*
X-12043Y-52854D01*
X-11935Y-53395D01*
X-11629Y-53853D01*
X-11171Y-54160D01*
X-10630Y-54267D01*
X-10089Y-54160D01*
X-9786Y-54261D01*
X-8941Y-54785D01*
X-8884Y-55068D01*
X-8578Y-55527D01*
X-8119Y-55833D01*
X-7579Y-55941D01*
X-7038Y-55833D01*
X-6941Y-55768D01*
X-6165Y-56143D01*
X-5829Y-56367D01*
X-5734Y-56840D01*
X-5428Y-57298D01*
X-4970Y-57605D01*
X-4445Y-57709D01*
X-4429Y-57712D01*
X-4429Y-57712D01*
X-3888Y-57605D01*
X-3030Y-57355D01*
X-2082Y-57540D01*
X-1542Y-57648D01*
X-1542Y-57648D01*
X-1507Y-57641D01*
X-1001Y-57540D01*
X-543Y-57234D01*
X-236Y-56775D01*
X-161Y-56396D01*
X647Y-55823D01*
X904Y-55687D01*
X1445Y-55794D01*
X1985Y-55687D01*
X2444Y-55380D01*
X2750Y-54922D01*
X2856Y-54388D01*
X3104Y-54180D01*
X3947Y-53805D01*
X4184Y-53963D01*
X4724Y-54071D01*
X5265Y-53963D01*
X5723Y-53657D01*
X6030Y-53198D01*
X6137Y-52658D01*
X6030Y-52117D01*
X5723Y-51658D01*
X5265Y-51352D01*
X4724Y-51244D01*
D02*
G37*
%LPD*%
D12*
X-49968Y32D02*
X-42748D01*
X-39075Y-11909D02*
Y-3642D01*
X-42748Y32D02*
X-39075Y-3642D01*
X-37914Y-66273D02*
X-25405Y-71304D01*
X-38364Y-65172D02*
X-38091Y-63189D01*
X-38408Y-65488D02*
X-38364Y-65172D01*
X-38408Y-65868D02*
Y-65488D01*
Y-65868D02*
X-38063Y-66213D01*
X-37914Y-66273D01*
X-20501Y-72796D02*
X-15228Y-67977D01*
X-20726Y-73002D02*
X-20501Y-72796D01*
X-21184Y-73002D02*
X-20726D01*
X-21475Y-72885D02*
X-21184Y-73002D01*
X-25405Y-71304D02*
X-21475Y-72885D01*
X-14765Y-67993D02*
X-9350Y-69095D01*
X-14843Y-67977D02*
X-14765Y-67993D01*
X-15228Y-67977D02*
X-14843D01*
X-9279Y-69096D02*
X5099Y-69382D01*
X-9350Y-69095D02*
X-9279Y-69096D01*
X5605Y-69369D02*
X18996Y-66339D01*
X5520Y-69388D02*
X5605Y-69369D01*
X5424Y-69388D02*
X5520D01*
X5099Y-69382D02*
X5424Y-69388D01*
X19058Y-66313D02*
X32613Y-60697D01*
X18996Y-66339D02*
X19058Y-66313D01*
X33081Y-60762D02*
X38484Y-63090D01*
X32932Y-60697D02*
X33081Y-60762D01*
X32613Y-60697D02*
X32932D01*
X51657Y-55685D02*
X60736Y-45324D01*
X48524Y-55610D02*
X50696Y-55910D01*
X51011Y-55953D01*
X51391D01*
X51640Y-55704D01*
X51657Y-55685D01*
X59674Y-35948D02*
X63008Y-41740D01*
X63113Y-41922D01*
Y-42426D02*
Y-41922D01*
X60736Y-45324D02*
X63113Y-42426D01*
X59787Y-35331D02*
X62901Y-30171D01*
X59674Y-35519D02*
X59787Y-35331D01*
X59674Y-35948D02*
Y-35519D01*
X63019Y-29943D02*
X67822Y-16303D01*
X62992Y-30020D02*
X63019Y-29943D01*
X62901Y-30171D02*
X62992Y-30020D01*
X67923Y-15948D02*
X69288Y-1711D01*
X67913Y-16043D02*
X67923Y-15948D01*
X67822Y-16303D02*
X67913Y-16043D01*
X67946Y12353D02*
X69284Y-1598D01*
X69288Y-1636D01*
Y-1711D02*
Y-1636D01*
X68191Y12961D02*
X72047Y16634D01*
X68184Y12954D02*
X68191Y12961D01*
X67946Y12717D02*
X68184Y12954D01*
X67946Y12353D02*
Y12717D01*
X60358Y46636D02*
X69089Y31840D01*
X68110Y28740D02*
X69198Y31278D01*
Y31655D01*
X69089Y31840D02*
X69198Y31655D01*
X52926Y45378D02*
X59358Y47179D01*
X59462Y47208D01*
X59896D01*
X60198Y46907D01*
X60358Y46636D01*
X48480Y49818D02*
X52232Y45640D01*
X52246Y45624D01*
X52492Y45378D01*
X52926D01*
X36218Y59179D02*
X48168Y50144D01*
X48211Y50111D01*
X48265Y50058D01*
X48480Y49818D01*
X23622Y65748D02*
X36063Y59283D01*
X36122Y59252D01*
X36218Y59179D01*
X23527Y65771D02*
X23622Y65748D01*
X9377Y69319D02*
X9409Y69276D01*
X6102Y73622D02*
X9377Y69319D01*
X9604Y69081D02*
X23527Y65771D01*
X9409Y69276D02*
X9604Y69081D01*
X-22148Y72252D02*
X-9253Y75587D01*
X-8767Y75612D02*
X-6299Y73524D01*
X-9156Y75612D02*
X-8767D01*
X-9253Y75587D02*
X-9156Y75612D01*
X-27233Y64345D02*
X-26074Y70764D01*
X-26030Y71006D01*
X-25704Y71332D01*
X-25399Y71411D01*
X-22148Y72252D01*
X-33366Y61516D02*
X-27650Y64005D01*
X-27513Y64065D01*
X-27233Y64345D01*
X-45185Y53637D02*
X-33424Y61477D01*
X-33366Y61516D01*
X-54921Y42421D02*
X-45543Y53362D01*
X-45524Y53385D01*
X-45447Y53462D01*
X-45185Y53637D01*
X-62287Y30210D02*
X-54955Y42365D01*
X-54921Y42421D01*
X-68307Y28445D02*
X-62709Y29938D01*
X-62504Y29992D01*
X-62287Y30210D01*
X-75236Y-3717D02*
X-74973Y-3752D01*
X-75697Y-789D02*
X-75598Y2312D01*
X-73277Y15559D02*
X-72146Y16634D01*
X-74319Y14517D02*
X-73277Y15559D01*
X-75598Y2312D02*
X-74319Y14517D01*
X-75655Y-3298D02*
X-75236Y-3717D01*
X-74973Y-3752D02*
X-70289Y-4387D01*
X-75697Y-2214D02*
Y-789D01*
Y-2214D02*
X-75655Y-3298D01*
X-69882Y-4998D02*
X-68602Y-12402D01*
X-69925Y-4752D02*
X-69882Y-4998D01*
X-70289Y-4387D02*
X-69925Y-4752D01*
X-68590Y-12445D02*
X-64468Y-26476D01*
X-68602Y-12402D02*
X-68590Y-12445D01*
X-64425Y-26555D02*
X-57382Y-39075D01*
X-64468Y-26476D02*
X-64425Y-26555D01*
X-57340Y-39126D02*
X-48622Y-49902D01*
X-57382Y-39075D02*
X-57340Y-39126D01*
X-48614Y-50166D02*
X-48425Y-56102D01*
X-48622Y-49902D02*
X-48614Y-50166D01*
X-21555Y70472D02*
X-20751Y64846D01*
Y64464D02*
Y64846D01*
X-21104Y64111D02*
X-20751Y64464D01*
X-32159Y60023D02*
X-21266Y64051D01*
X-21104Y64111D01*
X-43813Y52160D02*
X-32462Y59887D01*
X-32382Y59941D01*
X-32159Y60023D01*
X-53642Y41240D02*
X-44159Y51896D01*
X-44144Y51913D01*
X-44075Y51982D01*
X-43813Y52160D01*
X-61122Y29331D02*
X-53677Y41185D01*
X-53642Y41240D01*
X-65680Y16239D02*
X-61151Y29246D01*
X-61122Y29331D01*
X-72539Y13780D02*
X-66115Y15921D01*
X-65939Y15980D01*
X-65680Y16239D01*
X-67565Y-640D02*
X-66437Y-12205D01*
X-73819Y1575D02*
X-67941Y-11D01*
X-67593Y-359D01*
X-67565Y-640D01*
X-66413Y-12282D02*
X-62303Y-25492D01*
X-66437Y-12205D02*
X-66413Y-12282D01*
X-62275Y-25549D02*
X-55905Y-38287D01*
X-62303Y-25492D02*
X-62275Y-25549D01*
X-55845Y-38359D02*
X-46977Y-48884D01*
X-55905Y-38287D02*
X-55845Y-38359D01*
X-46888Y-48966D02*
X-35985Y-57669D01*
X-46922Y-48938D02*
X-46888Y-48966D01*
X-46977Y-48884D02*
X-46922Y-48938D01*
X-35723Y-58246D02*
X-35630Y-64764D01*
X-35728Y-57926D02*
X-35723Y-58246D01*
X-35985Y-57669D02*
X-35728Y-57926D01*
X-20157Y-64701D02*
X-9055Y-67618D01*
X-24508Y-69685D02*
X-20954Y-64946D01*
X-20683Y-64676D01*
X-20255D01*
X-20157Y-64701D01*
X-8959Y-67619D02*
X4908Y-67809D01*
X-9055Y-67618D02*
X-8959Y-67619D01*
X5400Y-67797D02*
X19390Y-64862D01*
X5320Y-67814D02*
X5400Y-67797D01*
X5234Y-67814D02*
X5320D01*
X4908Y-67809D02*
X5234Y-67814D01*
X19462Y-64831D02*
X32480Y-59252D01*
X19390Y-64862D02*
X19462Y-64831D01*
X32544Y-59209D02*
X43865Y-51467D01*
X32480Y-59252D02*
X32544Y-59209D01*
X44374Y-51513D02*
X50591Y-53740D01*
X44246Y-51467D02*
X44374Y-51513D01*
X43865Y-51467D02*
X44246D01*
X55207Y-39001D02*
X61025Y-29490D01*
X55092Y-39685D02*
X58957Y-44587D01*
X55092Y-39685D02*
Y-39190D01*
X55207Y-39001D01*
X61151Y-29242D02*
X66157Y-13838D01*
X61122Y-29331D02*
X61151Y-29242D01*
X61025Y-29490D02*
X61122Y-29331D01*
X66249Y-13504D02*
X67613Y-1517D01*
X66240Y-13583D02*
X66249Y-13504D01*
X66157Y-13838D02*
X66240Y-13583D01*
X66153Y12588D02*
X67609Y-1391D01*
X67613Y-1432D01*
Y-1517D02*
Y-1432D01*
X62763Y24572D02*
X66123Y12763D01*
X66142Y12697D01*
X66153Y12588D01*
X62883Y25100D02*
X66831Y31398D01*
X62763Y24908D02*
X62883Y25100D01*
X62763Y24572D02*
Y24908D01*
X46881Y48685D02*
X54185Y40352D01*
X54902Y40084D02*
X60827Y42028D01*
X54451Y40084D02*
X54902D01*
X54202Y40333D02*
X54451Y40084D01*
X54185Y40352D02*
X54202Y40333D01*
X35732Y57498D02*
X46793Y48766D01*
X46829Y48738D01*
X46881Y48685D01*
X47092Y48443D01*
X22539Y63976D02*
X35554Y57616D01*
X35630Y57579D01*
X35732Y57498D01*
X8661Y67323D02*
X22456Y63997D01*
X22539Y63976D01*
X-5313Y67421D02*
X8571Y67323D01*
X8661Y67323D01*
X-9252Y73327D02*
X-5644Y67777D01*
X-5599Y67707D01*
X-5313Y67421D01*
D55*
X13823Y42779D02*
D03*
X13823Y52819D02*
D03*
D56*
X-16177Y42779D02*
D03*
X-16177Y52819D02*
D03*
D58*
X-49968Y32D02*
D03*
D59*
X10433Y22441D02*
D03*
X14469Y24114D02*
D03*
X-7677Y26772D02*
D03*
X-39075Y-11909D02*
D03*
X-38091Y-63189D02*
D03*
X38484Y-63090D02*
D03*
X48524Y-55610D02*
D03*
X72047Y16634D02*
D03*
X68110Y28740D02*
D03*
X6102Y73622D02*
D03*
X-6299Y73524D02*
D03*
X-68307Y28445D02*
D03*
X-72146Y16634D02*
D03*
X-48425Y-56102D02*
D03*
X-21555Y70472D02*
D03*
X-72539Y13780D02*
D03*
X-73819Y1575D02*
D03*
X-35630Y-64764D02*
D03*
X-24508Y-69685D02*
D03*
X50591Y-53740D02*
D03*
X58957Y-44587D02*
D03*
X66831Y31398D02*
D03*
X60827Y42028D02*
D03*
X-9252Y73327D02*
D03*
X-1135Y28937D02*
D03*
X-36417Y-18012D02*
D03*
X-56595Y-9744D02*
D03*
X56528Y1508D02*
D03*
X0Y0D02*
D03*
X-6071Y-22016D02*
D03*
X-13354Y10957D02*
D03*
X17846Y-10500D02*
D03*
X-9713Y-15520D02*
D03*
X-26992Y-29519D02*
D03*
Y-26369D02*
D03*
X28672Y9811D02*
D03*
X28644Y34918D02*
D03*
X28613Y24892D02*
D03*
X15287Y-12173D02*
D03*
X10661Y-8531D02*
D03*
X10563Y-41307D02*
D03*
X-11681Y-31169D02*
D03*
X-31563Y9972D02*
D03*
X-56594Y9941D02*
D03*
X-56632Y-1242D02*
D03*
X-56595Y1280D02*
D03*
X56528Y10268D02*
D03*
Y-1150D02*
D03*
Y-9910D02*
D03*
X-31500Y35016D02*
D03*
Y30016D02*
D03*
Y25016D02*
D03*
Y20016D02*
D03*
Y15016D02*
D03*
D61*
X-2134Y-34614D02*
D03*
Y-30283D02*
D03*
X2197Y-34614D02*
D03*
Y-30283D02*
D03*
D62*
X33299Y-9713D02*
D03*
D64*
X32Y3372D02*
D03*
X3372Y32D02*
D03*
X-3309D02*
D03*
X32Y-3309D02*
D03*
M02*
