G04*
G04 #@! TF.GenerationSoftware,Altium Limited,Altium Designer,20.0.9 (164)*
G04*
G04 Layer_Physical_Order=3*
G04 Layer_Color=16440176*
%FSLAX25Y25*%
%MOIN*%
G70*
G01*
G75*
%ADD12C,0.00787*%
%ADD54C,0.01575*%
%ADD56C,0.05906*%
%ADD59C,0.01772*%
G36*
X48821Y34016D02*
X48607Y33873D01*
X48301Y33415D01*
X48193Y32874D01*
X48238Y32650D01*
X41455Y25868D01*
X41280Y25605D01*
X41218Y25295D01*
X41218Y25295D01*
Y-9212D01*
X21122Y-29309D01*
X20898Y-29264D01*
X20357Y-29372D01*
X19898Y-29678D01*
X19592Y-30136D01*
X19485Y-30677D01*
X19592Y-31218D01*
X19898Y-31676D01*
X19904Y-31680D01*
Y-32627D01*
X19898Y-32631D01*
X19592Y-33089D01*
X19485Y-33630D01*
X19592Y-34171D01*
X19898Y-34629D01*
X19983Y-34685D01*
X19986Y-34695D01*
X19933Y-35593D01*
X19800Y-35682D01*
X19494Y-36140D01*
X19386Y-36681D01*
X19494Y-37222D01*
X19800Y-37680D01*
X19822Y-37695D01*
X19814Y-38637D01*
X19780Y-38660D01*
X19474Y-39118D01*
X19366Y-39659D01*
X19474Y-40200D01*
X19780Y-40658D01*
X19912Y-40746D01*
X19925Y-40781D01*
X19889Y-41636D01*
X19712Y-41755D01*
X19406Y-42213D01*
X19298Y-42754D01*
X19406Y-43295D01*
X19712Y-43753D01*
X19772Y-43793D01*
X19782Y-43820D01*
X19718Y-44704D01*
X19576Y-44799D01*
X19270Y-45257D01*
X19162Y-45798D01*
X19270Y-46338D01*
X19576Y-46797D01*
X20034Y-47103D01*
X20575Y-47211D01*
X21116Y-47103D01*
X21574Y-46797D01*
X21881Y-46338D01*
X21988Y-45798D01*
X21881Y-45257D01*
X21574Y-44799D01*
X21515Y-44759D01*
X21504Y-44732D01*
X21568Y-43848D01*
X21710Y-43753D01*
X22017Y-43295D01*
X22124Y-42754D01*
X22017Y-42213D01*
X21710Y-41755D01*
X21578Y-41666D01*
X21566Y-41632D01*
X21601Y-40776D01*
X21778Y-40658D01*
X22085Y-40200D01*
X22192Y-39659D01*
X22085Y-39118D01*
X21778Y-38660D01*
X21757Y-38645D01*
X21764Y-37703D01*
X21798Y-37680D01*
X22105Y-37222D01*
X22212Y-36681D01*
X22168Y-36457D01*
X31733Y-26892D01*
X53150D01*
X53150Y-26892D01*
X53459Y-26830D01*
X53722Y-26655D01*
X53899Y-26478D01*
X54626Y-26780D01*
Y-37912D01*
X52802Y-40841D01*
X43373Y-50755D01*
X31895Y-58440D01*
X19226Y-63897D01*
X7356Y-66936D01*
X7199Y-66976D01*
X7147Y-67001D01*
X7090Y-67012D01*
X7006Y-67069D01*
X6915Y-67112D01*
X6876Y-67156D01*
X6828Y-67188D01*
X6580Y-67435D01*
X6530Y-67511D01*
X6467Y-67577D01*
X6443Y-67641D01*
X6405Y-67698D01*
X6392Y-67760D01*
X-7998D01*
X-8204Y-67326D01*
X-8204Y-67326D01*
X-8204Y-67326D01*
X-8248Y-67235D01*
X-8330Y-67125D01*
X-8406Y-67010D01*
X-8595Y-66822D01*
X-8647Y-66787D01*
X-8689Y-66741D01*
X-8777Y-66700D01*
X-8857Y-66646D01*
X-8918Y-66634D01*
X-8975Y-66608D01*
X-22451Y-63311D01*
X-34904Y-56890D01*
X-46099Y-48519D01*
X-54414Y-38891D01*
Y-23240D01*
X-53626Y-22973D01*
X-53342Y-23343D01*
X-52354Y-24101D01*
X-51204Y-24577D01*
X-49968Y-24740D01*
X-48734Y-24577D01*
X-47583Y-24101D01*
X-46595Y-23343D01*
X-45836Y-22354D01*
X-45360Y-21204D01*
X-45197Y-19969D01*
X-45360Y-18733D01*
X-45836Y-17583D01*
X-46595Y-16594D01*
X-47583Y-15836D01*
X-48733Y-15360D01*
Y-14577D01*
X-47583Y-14101D01*
X-46595Y-13342D01*
X-45836Y-12354D01*
X-45360Y-11203D01*
X-45197Y-9968D01*
X-45360Y-8733D01*
X-45836Y-7583D01*
X-46595Y-6594D01*
X-47583Y-5836D01*
X-48733Y-5360D01*
Y-4578D01*
X-47583Y-4101D01*
X-46595Y-3342D01*
X-45836Y-2354D01*
X-45360Y-1204D01*
X-45197Y32D01*
X-45360Y1266D01*
X-45836Y2417D01*
X-46595Y3405D01*
X-47583Y4164D01*
X-48733Y4640D01*
Y5423D01*
X-47583Y5899D01*
X-46595Y6657D01*
X-45836Y7646D01*
X-45360Y8796D01*
X-45197Y10031D01*
X-45360Y11266D01*
X-45836Y12417D01*
X-46595Y13406D01*
X-47583Y14164D01*
X-48733Y14640D01*
Y15423D01*
X-47583Y15899D01*
X-46595Y16657D01*
X-45836Y17646D01*
X-45360Y18797D01*
X-45197Y20031D01*
X-45360Y21267D01*
X-45836Y22417D01*
X-46595Y23405D01*
X-47583Y24164D01*
X-48734Y24640D01*
X-49056Y24683D01*
X-49004Y25470D01*
X-46398D01*
X-44412Y23484D01*
Y-24606D01*
X-44412Y-24606D01*
X-44350Y-24916D01*
X-44175Y-25179D01*
X-31576Y-37777D01*
X-31576Y-37777D01*
X-31314Y-37952D01*
X-31004Y-38014D01*
X-31004Y-38014D01*
X-23961D01*
X-23834Y-38204D01*
X-23375Y-38510D01*
X-22835Y-38618D01*
X-22294Y-38510D01*
X-21836Y-38204D01*
X-21529Y-37745D01*
X-21422Y-37205D01*
X-21529Y-36664D01*
X-21836Y-36206D01*
X-21737Y-35546D01*
X-21668Y-35443D01*
X-21431Y-35088D01*
X-21323Y-34547D01*
X-21431Y-34007D01*
X-21737Y-33548D01*
Y-32987D01*
X-21431Y-32529D01*
X-21323Y-31988D01*
X-21431Y-31447D01*
X-21737Y-30989D01*
X-22196Y-30683D01*
X-22736Y-30575D01*
X-23277Y-30683D01*
X-23735Y-30989D01*
X-23862Y-31179D01*
X-25565D01*
X-25765Y-30869D01*
X-25908Y-30391D01*
X-25686Y-30059D01*
X-25579Y-29519D01*
X-25686Y-28978D01*
X-25993Y-28519D01*
X-26199Y-28381D01*
X-26217Y-28332D01*
Y-27556D01*
X-26199Y-27506D01*
X-25993Y-27368D01*
X-25686Y-26910D01*
X-25579Y-26369D01*
X-25686Y-25828D01*
X-25993Y-25370D01*
X-26451Y-25064D01*
X-26992Y-24956D01*
X-27533Y-25064D01*
X-27991Y-25370D01*
X-28297Y-25828D01*
X-28405Y-26369D01*
X-28297Y-26910D01*
X-27991Y-27368D01*
X-27784Y-27506D01*
X-27766Y-27556D01*
Y-28332D01*
X-27784Y-28381D01*
X-27991Y-28519D01*
X-28297Y-28978D01*
X-28405Y-29519D01*
X-28297Y-30059D01*
X-28075Y-30391D01*
X-28218Y-30869D01*
X-28419Y-31179D01*
X-31751D01*
X-40045Y-22885D01*
Y-13803D01*
X-39258Y-13286D01*
X-39075Y-13322D01*
X-38534Y-13215D01*
X-38076Y-12909D01*
X-37769Y-12450D01*
X-37662Y-11909D01*
X-37769Y-11369D01*
X-38076Y-10910D01*
X-38534Y-10604D01*
X-39075Y-10497D01*
X-39258Y-10533D01*
X-40045Y-10016D01*
Y26370D01*
X-40045Y26370D01*
X-40107Y26680D01*
X-40282Y26942D01*
X-46278Y32938D01*
X-46541Y33114D01*
X-46850Y33175D01*
X-46850Y33175D01*
X-47715D01*
X-47918Y33479D01*
X-48377Y33786D01*
X-48917Y33893D01*
X-49458Y33786D01*
X-49916Y33479D01*
X-50223Y33021D01*
X-50330Y32480D01*
X-50223Y31940D01*
X-49916Y31481D01*
X-49458Y31175D01*
X-48917Y31067D01*
X-48377Y31175D01*
X-47918Y31481D01*
X-47136Y31507D01*
X-46458Y30829D01*
X-46784Y30042D01*
X-49366D01*
X-49493Y30231D01*
X-49951Y30538D01*
X-50492Y30645D01*
X-51033Y30538D01*
X-51491Y30231D01*
X-51797Y29773D01*
X-51905Y29232D01*
X-51797Y28692D01*
X-51590Y28381D01*
X-51837Y27825D01*
X-51980Y27656D01*
X-52165Y27692D01*
X-52706Y27585D01*
X-53164Y27279D01*
X-53471Y26820D01*
X-53578Y26280D01*
X-53471Y25739D01*
X-53164Y25280D01*
X-52706Y24974D01*
X-52537Y24940D01*
X-52406Y24385D01*
X-52419Y24114D01*
X-53342Y23405D01*
X-53626Y23036D01*
X-54414Y23303D01*
Y34803D01*
X-32871D01*
X-32805Y34475D01*
X-32499Y34017D01*
X-32041Y33710D01*
X-31500Y33603D01*
X-30959Y33710D01*
X-30501Y34017D01*
X-30195Y34475D01*
X-30129Y34803D01*
X-10468D01*
X-10361Y34696D01*
X-10054Y34237D01*
X-9596Y33931D01*
X-9055Y33823D01*
X-8514Y33931D01*
X-8056Y34237D01*
X-7750Y34696D01*
X-7642Y34803D01*
X22086D01*
X23895Y34402D01*
X24016Y-14741D01*
X23923Y-14881D01*
X23815Y-15421D01*
X23923Y-15962D01*
X24229Y-16420D01*
X24688Y-16727D01*
X25228Y-16834D01*
X25769Y-16727D01*
X26228Y-16420D01*
X26534Y-15962D01*
X26641Y-15421D01*
X26534Y-14881D01*
X26437Y-14736D01*
X26318Y33736D01*
X26556Y34052D01*
X27059Y34355D01*
X27427Y34244D01*
X27645Y33918D01*
X28103Y33612D01*
X28644Y33505D01*
X29185Y33612D01*
X29994Y33395D01*
X30048Y33314D01*
X30300Y32937D01*
X30759Y32631D01*
X31299Y32523D01*
X31840Y32631D01*
X32298Y32937D01*
X32605Y33395D01*
X32712Y33936D01*
X32696Y34016D01*
X33261Y34803D01*
X48582D01*
X48821Y34016D01*
D02*
G37*
G36*
X22258Y63114D02*
X32926Y57827D01*
X33050Y57766D01*
X33077Y57759D01*
X33100Y57743D01*
X33229Y57718D01*
X33355Y57683D01*
X33383Y57687D01*
X33410Y57682D01*
X33789D01*
X33939Y57711D01*
X34091Y57740D01*
X34094Y57742D01*
X34099Y57743D01*
X34226Y57829D01*
X34355Y57912D01*
X38049Y61528D01*
X38287Y61481D01*
X38287Y61481D01*
X38828Y61588D01*
X39287Y61895D01*
X41056Y62465D01*
X41631Y62509D01*
X46572Y58866D01*
X47328Y57003D01*
Y57003D01*
X47021Y56545D01*
X47021Y56545D01*
Y56545D01*
X46914Y56004D01*
X47021Y55463D01*
Y55463D01*
X47266Y55097D01*
X45827Y49342D01*
X45822Y49243D01*
X45803Y49145D01*
Y48852D01*
X45828Y48724D01*
X45845Y48594D01*
X45859Y48570D01*
X45864Y48542D01*
X45937Y48434D01*
X46002Y48320D01*
X55136Y37826D01*
X55193Y37718D01*
X55615Y36923D01*
X54601Y35236D01*
X31848D01*
X31840Y35241D01*
X31299Y35349D01*
X29950Y35458D01*
X29950Y35458D01*
X29643Y35917D01*
X29643Y35917D01*
X29185Y36223D01*
X29185Y36223D01*
X28644Y36331D01*
X28644Y36331D01*
X28103Y36223D01*
X27645Y35917D01*
X27645Y35917D01*
X27339Y35458D01*
X27339Y35458D01*
X27294Y35236D01*
X-7642D01*
X-7642Y35236D01*
X-7750Y35777D01*
X-8056Y36235D01*
X-8056Y36235D01*
X-8514Y36542D01*
X-8514Y36542D01*
X-8514D01*
X-9055Y36649D01*
X-9596Y36542D01*
X-9596Y36542D01*
X-9596Y36542D01*
X-10054Y36235D01*
X-10054Y36235D01*
X-10361Y35777D01*
X-10468Y35236D01*
X-10468Y35236D01*
X-30131D01*
X-30195Y35557D01*
X-30195Y35557D01*
X-30501Y36015D01*
X-30501Y36015D01*
X-30959Y36321D01*
X-31500Y36429D01*
X-32041Y36321D01*
X-32041Y36321D01*
X-32499Y36015D01*
X-32805Y35557D01*
X-32805Y35557D01*
X-32869Y35236D01*
X-54414D01*
X-55369Y36957D01*
X-54087Y39015D01*
X-54053Y39069D01*
X-53038Y40610D01*
X-53017Y40661D01*
X-51758Y42108D01*
X-45447Y49168D01*
X-45378Y49285D01*
X-45302Y49398D01*
X-45298Y49420D01*
X-45286Y49440D01*
X-45267Y49575D01*
X-45241Y49707D01*
Y50037D01*
X-45268Y50176D01*
X-45290Y50315D01*
X-47082Y55225D01*
X-46923Y55463D01*
X-46923Y55463D01*
X-46815Y56004D01*
X-46815Y56004D01*
X-46923Y56545D01*
X-47229Y57003D01*
Y57003D01*
X-46342Y58777D01*
X-41735Y62242D01*
X-41317Y62308D01*
X-39483Y62091D01*
X-39483Y62091D01*
X-39025Y61785D01*
X-38484Y61678D01*
X-37944Y61785D01*
X-37944Y61785D01*
X-37927Y61796D01*
X-33113Y58828D01*
X-33052Y58805D01*
X-32998Y58769D01*
X-32905Y58750D01*
X-32817Y58717D01*
X-32752Y58720D01*
X-32688Y58707D01*
X-32408D01*
X-32260Y58737D01*
X-32111Y58764D01*
X-19163Y63885D01*
X-5337Y66514D01*
X8660D01*
X22258Y63114D01*
D02*
G37*
%LPC*%
G36*
X-31500Y31429D02*
X-32041Y31321D01*
X-32499Y31015D01*
X-32805Y30556D01*
X-32913Y30016D01*
X-32805Y29475D01*
X-32499Y29017D01*
X-32041Y28710D01*
X-31500Y28603D01*
X-30959Y28710D01*
X-30501Y29017D01*
X-30195Y29475D01*
X-30087Y30016D01*
X-30195Y30556D01*
X-30501Y31015D01*
X-30959Y31321D01*
X-31500Y31429D01*
D02*
G37*
G36*
X-1135Y30350D02*
X-1675Y30243D01*
X-2134Y29936D01*
X-2440Y29478D01*
X-2548Y28937D01*
X-2440Y28396D01*
X-2134Y27938D01*
X-1675Y27632D01*
X-1135Y27524D01*
X-594Y27632D01*
X-136Y27938D01*
X171Y28396D01*
X278Y28937D01*
X171Y29478D01*
X-136Y29936D01*
X-594Y30243D01*
X-1135Y30350D01*
D02*
G37*
G36*
X-7677Y28185D02*
X-8218Y28077D01*
X-8676Y27771D01*
X-8983Y27312D01*
X-9090Y26772D01*
X-8983Y26231D01*
X-8676Y25773D01*
X-8218Y25466D01*
X-7677Y25359D01*
X-7136Y25466D01*
X-6678Y25773D01*
X-6372Y26231D01*
X-6264Y26772D01*
X-6372Y27312D01*
X-6678Y27771D01*
X-7136Y28077D01*
X-7677Y28185D01*
D02*
G37*
G36*
X-16634Y27003D02*
X-17175Y26896D01*
X-17633Y26590D01*
X-17939Y26131D01*
X-18047Y25591D01*
X-17939Y25050D01*
X-17633Y24591D01*
X-17175Y24285D01*
X-16634Y24178D01*
X-16093Y24285D01*
X-15635Y24591D01*
X-15328Y25050D01*
X-15221Y25591D01*
X-15328Y26131D01*
X-15635Y26590D01*
X-16093Y26896D01*
X-16634Y27003D01*
D02*
G37*
G36*
X-31500Y26429D02*
X-32041Y26321D01*
X-32499Y26015D01*
X-32805Y25556D01*
X-32913Y25016D01*
X-32805Y24475D01*
X-32499Y24017D01*
X-32041Y23710D01*
X-31500Y23603D01*
X-30959Y23710D01*
X-30501Y24017D01*
X-30195Y24475D01*
X-30087Y25016D01*
X-30195Y25556D01*
X-30501Y26015D01*
X-30959Y26321D01*
X-31500Y26429D01*
D02*
G37*
G36*
X14469Y25527D02*
X13928Y25420D01*
X13469Y25113D01*
X13163Y24655D01*
X13056Y24114D01*
X13163Y23573D01*
X13469Y23115D01*
X13928Y22809D01*
X14469Y22701D01*
X15009Y22809D01*
X15468Y23115D01*
X15774Y23573D01*
X15881Y24114D01*
X15774Y24655D01*
X15468Y25113D01*
X15009Y25420D01*
X14469Y25527D01*
D02*
G37*
G36*
X28613Y26305D02*
X28073Y26197D01*
X27614Y25891D01*
X27308Y25433D01*
X27200Y24892D01*
X27308Y24351D01*
X27614Y23893D01*
X28073Y23587D01*
X28613Y23479D01*
X29058Y23568D01*
X29273Y23508D01*
X29868Y23116D01*
X29927Y22817D01*
X30233Y22359D01*
X30692Y22053D01*
X31232Y21945D01*
X31773Y22053D01*
X32231Y22359D01*
X32538Y22817D01*
X32645Y23358D01*
X32538Y23899D01*
X32231Y24357D01*
X31773Y24664D01*
X31232Y24771D01*
X30788Y24683D01*
X30573Y24742D01*
X29978Y25134D01*
X29919Y25433D01*
X29613Y25891D01*
X29154Y26197D01*
X28613Y26305D01*
D02*
G37*
G36*
X10433Y23854D02*
X9892Y23746D01*
X9434Y23440D01*
X9128Y22982D01*
X9020Y22441D01*
X9128Y21900D01*
X9434Y21442D01*
X9892Y21136D01*
X10433Y21028D01*
X10974Y21136D01*
X11432Y21442D01*
X11738Y21900D01*
X11846Y22441D01*
X11738Y22982D01*
X11432Y23440D01*
X10974Y23746D01*
X10433Y23854D01*
D02*
G37*
G36*
X-16000Y21429D02*
X-16541Y21321D01*
X-16999Y21015D01*
X-17305Y20557D01*
X-17413Y20016D01*
X-17305Y19475D01*
X-16999Y19017D01*
X-16541Y18710D01*
X-16000Y18603D01*
X-15459Y18710D01*
X-15001Y19017D01*
X-14695Y19475D01*
X-14587Y20016D01*
X-14695Y20557D01*
X-15001Y21015D01*
X-15459Y21321D01*
X-16000Y21429D01*
D02*
G37*
G36*
X-31500D02*
X-32041Y21321D01*
X-32499Y21015D01*
X-32805Y20557D01*
X-32913Y20016D01*
X-32805Y19475D01*
X-32499Y19017D01*
X-32041Y18710D01*
X-31500Y18603D01*
X-30959Y18710D01*
X-30501Y19017D01*
X-30195Y19475D01*
X-30087Y20016D01*
X-30195Y20557D01*
X-30501Y21015D01*
X-30959Y21321D01*
X-31500Y21429D01*
D02*
G37*
G36*
X29102Y21326D02*
X28562Y21219D01*
X28103Y20912D01*
X27797Y20454D01*
X27689Y19913D01*
X27797Y19373D01*
X28103Y18914D01*
X28562Y18608D01*
X29102Y18500D01*
X29643Y18608D01*
X30101Y18914D01*
X30408Y19373D01*
X30515Y19913D01*
X30408Y20454D01*
X30101Y20912D01*
X29643Y21219D01*
X29102Y21326D01*
D02*
G37*
G36*
X7185Y16472D02*
X6644Y16364D01*
X6186Y16058D01*
X5880Y15600D01*
X5772Y15059D01*
X5783Y15003D01*
X5092Y14518D01*
X4551Y14626D01*
X4011Y14518D01*
X3552Y14212D01*
X3350Y13909D01*
X2740Y13823D01*
X2464Y13861D01*
X2377Y13991D01*
X1919Y14298D01*
X1378Y14405D01*
X837Y14298D01*
X379Y13991D01*
X72Y13533D01*
X-35Y12992D01*
X72Y12451D01*
X379Y11993D01*
X837Y11687D01*
X1378Y11579D01*
X1919Y11687D01*
X2377Y11993D01*
X2579Y12295D01*
X3189Y12382D01*
X3465Y12344D01*
X3552Y12213D01*
X4011Y11907D01*
X4551Y11800D01*
X5092Y11907D01*
X5550Y12213D01*
X5857Y12672D01*
X5964Y13213D01*
X5953Y13269D01*
X6644Y13754D01*
X7185Y13646D01*
X7726Y13754D01*
X8184Y14060D01*
X8490Y14518D01*
X8598Y15059D01*
X8490Y15600D01*
X8184Y16058D01*
X7726Y16364D01*
X7185Y16472D01*
D02*
G37*
G36*
X-16012Y16897D02*
X-16553Y16790D01*
X-17011Y16483D01*
X-17317Y16025D01*
X-17425Y15484D01*
X-17317Y14943D01*
X-17011Y14485D01*
X-16553Y14179D01*
X-16012Y14071D01*
X-15471Y14179D01*
X-15013Y14485D01*
X-14706Y14943D01*
X-14599Y15484D01*
X-14706Y16025D01*
X-15013Y16483D01*
X-15471Y16790D01*
X-16012Y16897D01*
D02*
G37*
G36*
X31260Y16461D02*
X30719Y16353D01*
X30261Y16047D01*
X29954Y15589D01*
X29847Y15048D01*
X29954Y14507D01*
X30261Y14049D01*
X30719Y13743D01*
X31260Y13635D01*
X31800Y13743D01*
X32259Y14049D01*
X32565Y14507D01*
X32673Y15048D01*
X32565Y15589D01*
X32259Y16047D01*
X31800Y16353D01*
X31260Y16461D01*
D02*
G37*
G36*
X-31500Y16429D02*
X-32041Y16321D01*
X-32499Y16015D01*
X-32805Y15556D01*
X-32913Y15016D01*
X-32805Y14475D01*
X-32499Y14017D01*
X-32041Y13710D01*
X-31500Y13603D01*
X-30959Y13710D01*
X-30501Y14017D01*
X-30195Y14475D01*
X-30087Y15016D01*
X-30195Y15556D01*
X-30501Y16015D01*
X-30959Y16321D01*
X-31500Y16429D01*
D02*
G37*
G36*
X-8728Y15027D02*
X-9269Y14920D01*
X-9727Y14613D01*
X-10034Y14155D01*
X-10141Y13614D01*
X-10034Y13073D01*
X-9727Y12615D01*
X-9269Y12309D01*
X-8728Y12201D01*
X-8188Y12309D01*
X-7729Y12615D01*
X-7423Y13073D01*
X-7315Y13614D01*
X-7423Y14155D01*
X-7729Y14613D01*
X-8188Y14920D01*
X-8728Y15027D01*
D02*
G37*
G36*
X31035Y12665D02*
X30495Y12557D01*
X30036Y12251D01*
X29730Y11793D01*
X29717Y11727D01*
X29301Y11224D01*
X28868Y11185D01*
X28672Y11224D01*
X28131Y11117D01*
X27673Y10810D01*
X27367Y10352D01*
X27259Y9811D01*
X27367Y9271D01*
X27673Y8812D01*
X28131Y8506D01*
X28672Y8398D01*
X29213Y8506D01*
X29671Y8812D01*
X29977Y9271D01*
X29991Y9336D01*
X30406Y9840D01*
X30840Y9878D01*
X31035Y9839D01*
X31576Y9947D01*
X32035Y10253D01*
X32341Y10711D01*
X32448Y11252D01*
X32341Y11793D01*
X32035Y12251D01*
X31576Y12557D01*
X31035Y12665D01*
D02*
G37*
G36*
X-31563Y11385D02*
X-32104Y11278D01*
X-32562Y10972D01*
X-32868Y10513D01*
X-32976Y9972D01*
X-32868Y9432D01*
X-32562Y8973D01*
X-32104Y8667D01*
X-31563Y8559D01*
X-31022Y8667D01*
X-30564Y8973D01*
X-30258Y9432D01*
X-30150Y9972D01*
X-30258Y10513D01*
X-30564Y10972D01*
X-31022Y11278D01*
X-31563Y11385D01*
D02*
G37*
G36*
X32Y5207D02*
X-671Y5067D01*
X-1266Y4669D01*
X-1663Y4074D01*
X-1803Y3372D01*
X-1663Y2670D01*
X-1266Y2075D01*
X-1478Y1518D01*
X-2012Y1329D01*
X-2607Y1726D01*
X-3309Y1866D01*
X-4011Y1726D01*
X-4606Y1329D01*
X-5004Y734D01*
X-5144Y32D01*
X-5004Y-671D01*
X-4606Y-1266D01*
X-4011Y-1663D01*
X-3309Y-1803D01*
X-2607Y-1663D01*
X-2012Y-1266D01*
X-1495Y-1495D01*
X-1266Y-2012D01*
X-1663Y-2607D01*
X-1803Y-3309D01*
X-1663Y-4011D01*
X-1266Y-4606D01*
X-671Y-5004D01*
X32Y-5144D01*
X734Y-5004D01*
X1329Y-4606D01*
X1726Y-4011D01*
X1866Y-3309D01*
X1726Y-2607D01*
X1329Y-2012D01*
X1518Y-1478D01*
X2075Y-1266D01*
X2670Y-1663D01*
X3372Y-1803D01*
X4074Y-1663D01*
X4669Y-1266D01*
X5067Y-671D01*
X5207Y32D01*
X5067Y734D01*
X4669Y1329D01*
X4074Y1726D01*
X3372Y1866D01*
X2670Y1726D01*
X2075Y1329D01*
X1501Y1501D01*
X1329Y2075D01*
X1726Y2670D01*
X1866Y3372D01*
X1726Y4074D01*
X1329Y4669D01*
X734Y5067D01*
X32Y5207D01*
D02*
G37*
G36*
X15000Y9429D02*
X14459Y9321D01*
X14001Y9015D01*
X13695Y8557D01*
X13587Y8016D01*
X13695Y7475D01*
X14001Y7017D01*
X14459Y6710D01*
X14483Y6706D01*
X15001Y6597D01*
X15087Y6016D01*
X15195Y5475D01*
X15501Y5017D01*
X15959Y4710D01*
X15983Y4706D01*
X16501Y4597D01*
X16587Y4016D01*
X16695Y3475D01*
X17001Y3017D01*
X17459Y2710D01*
X17483Y2706D01*
X18001Y2597D01*
X18087Y2016D01*
X18195Y1475D01*
X18501Y1017D01*
X18959Y710D01*
X19500Y603D01*
X20041Y710D01*
X20499Y1017D01*
X20805Y1475D01*
X20913Y2016D01*
X20805Y2557D01*
X20499Y3015D01*
X20041Y3321D01*
X20017Y3326D01*
X19499Y3434D01*
X19413Y4016D01*
X19305Y4557D01*
X18999Y5015D01*
X18541Y5321D01*
X18517Y5326D01*
X17999Y5434D01*
X17913Y6016D01*
X17805Y6556D01*
X17499Y7015D01*
X17041Y7321D01*
X17017Y7326D01*
X16499Y7434D01*
X16413Y8016D01*
X16305Y8557D01*
X15999Y9015D01*
X15541Y9321D01*
X15000Y9429D01*
D02*
G37*
G36*
X-15815Y13255D02*
X-16356Y13148D01*
X-16814Y12842D01*
X-17120Y12383D01*
X-17228Y11842D01*
X-17120Y11302D01*
X-16814Y10843D01*
X-16356Y10537D01*
X-15815Y10430D01*
X-15479Y10497D01*
X-14660Y10416D01*
X-14354Y9958D01*
X-14046Y9752D01*
X-14064Y9131D01*
X-14129Y8933D01*
X-14385Y8882D01*
X-14843Y8575D01*
X-15150Y8117D01*
X-15199Y7869D01*
X-15558Y7137D01*
X-16098Y7030D01*
X-16557Y6724D01*
X-16863Y6265D01*
X-16971Y5725D01*
X-17276Y5261D01*
X-17817Y5153D01*
X-18276Y4847D01*
X-18582Y4389D01*
X-18628Y4157D01*
X-19000Y3429D01*
X-19541Y3321D01*
X-19999Y3015D01*
X-20305Y2557D01*
X-20413Y2016D01*
X-20305Y1475D01*
X-19999Y1017D01*
X-19541Y710D01*
X-19000Y603D01*
X-18459Y710D01*
X-18001Y1017D01*
X-17695Y1475D01*
X-17649Y1706D01*
X-17276Y2435D01*
X-16736Y2542D01*
X-16277Y2849D01*
X-15971Y3307D01*
X-15864Y3848D01*
X-15558Y4312D01*
X-15017Y4419D01*
X-14559Y4725D01*
X-14252Y5184D01*
X-14203Y5432D01*
X-13844Y6163D01*
X-13304Y6271D01*
X-12845Y6577D01*
X-12539Y7035D01*
X-12431Y7576D01*
X-12539Y8117D01*
X-12845Y8575D01*
X-13153Y8781D01*
X-13135Y9401D01*
X-13070Y9600D01*
X-12814Y9651D01*
X-12355Y9958D01*
X-12049Y10416D01*
X-11941Y10957D01*
X-12049Y11497D01*
X-12355Y11956D01*
X-12814Y12262D01*
X-13354Y12370D01*
X-13691Y12303D01*
X-14510Y12383D01*
X-14816Y12842D01*
X-15274Y13148D01*
X-15815Y13255D01*
D02*
G37*
G36*
X-15618Y-2886D02*
X-16159Y-2994D01*
X-16617Y-3300D01*
X-16924Y-3759D01*
X-17031Y-4299D01*
X-16924Y-4840D01*
X-16617Y-5298D01*
X-16159Y-5605D01*
X-15618Y-5712D01*
X-15077Y-5605D01*
X-14619Y-5298D01*
X-14313Y-4840D01*
X-14205Y-4299D01*
X-14313Y-3759D01*
X-14619Y-3300D01*
X-15077Y-2994D01*
X-15618Y-2886D01*
D02*
G37*
G36*
X14500Y-5245D02*
X13732Y-5398D01*
X13081Y-5833D01*
X12646Y-6484D01*
X12493Y-7252D01*
X12524Y-7407D01*
X11782Y-7714D01*
X11660Y-7532D01*
X11202Y-7226D01*
X10661Y-7119D01*
X10121Y-7226D01*
X9662Y-7532D01*
X9356Y-7991D01*
X9248Y-8531D01*
X9356Y-9072D01*
X9662Y-9531D01*
X10121Y-9837D01*
X10661Y-9945D01*
X11202Y-9837D01*
X11660Y-9531D01*
X11967Y-9072D01*
X12067Y-8571D01*
X12195Y-8494D01*
X12831Y-8297D01*
X13081Y-8671D01*
X13732Y-9106D01*
X14500Y-9259D01*
X15268Y-9106D01*
X15919Y-8671D01*
X16354Y-8020D01*
X16507Y-7252D01*
X16354Y-6484D01*
X15919Y-5833D01*
X15268Y-5398D01*
X14500Y-5245D01*
D02*
G37*
G36*
X17846Y-9087D02*
X17306Y-9195D01*
X16847Y-9501D01*
X16541Y-9959D01*
X16464Y-10346D01*
X16070Y-10669D01*
X15699Y-10842D01*
X15287Y-10760D01*
X14747Y-10868D01*
X14288Y-11174D01*
X13982Y-11632D01*
X13874Y-12173D01*
X13982Y-12714D01*
X14288Y-13172D01*
X14747Y-13479D01*
X15287Y-13586D01*
X15828Y-13479D01*
X16286Y-13172D01*
X16593Y-12714D01*
X16670Y-12327D01*
X17064Y-12004D01*
X17435Y-11831D01*
X17846Y-11913D01*
X18387Y-11805D01*
X18846Y-11499D01*
X19152Y-11041D01*
X19259Y-10500D01*
X19152Y-9959D01*
X18846Y-9501D01*
X18387Y-9195D01*
X17846Y-9087D01*
D02*
G37*
G36*
X-9122Y-8201D02*
X-9663Y-8309D01*
X-10121Y-8615D01*
X-10428Y-9074D01*
X-10535Y-9614D01*
X-10428Y-10155D01*
X-10121Y-10613D01*
X-9663Y-10920D01*
X-9122Y-11027D01*
X-8581Y-10920D01*
X-8123Y-10613D01*
X-7817Y-10155D01*
X-7709Y-9614D01*
X-7817Y-9074D01*
X-8123Y-8615D01*
X-8581Y-8309D01*
X-9122Y-8201D01*
D02*
G37*
G36*
X33299Y-7999D02*
X32643Y-8129D01*
X32087Y-8501D01*
X31716Y-9057D01*
X31585Y-9713D01*
X31716Y-10368D01*
X32087Y-10925D01*
X32643Y-11296D01*
X33299Y-11427D01*
X33955Y-11296D01*
X34511Y-10925D01*
X34883Y-10368D01*
X35013Y-9713D01*
X34883Y-9057D01*
X34511Y-8501D01*
X33955Y-8129D01*
X33299Y-7999D01*
D02*
G37*
G36*
X5113Y-11154D02*
X4573Y-11261D01*
X4114Y-11568D01*
X3808Y-12026D01*
X3700Y-12567D01*
X3808Y-13108D01*
X4114Y-13566D01*
X4573Y-13872D01*
X5113Y-13980D01*
X5654Y-13872D01*
X6113Y-13566D01*
X6419Y-13108D01*
X6526Y-12567D01*
X6419Y-12026D01*
X6113Y-11568D01*
X5654Y-11261D01*
X5113Y-11154D01*
D02*
G37*
G36*
X-18669Y-13910D02*
X-19210Y-14017D01*
X-19668Y-14324D01*
X-19975Y-14782D01*
X-20082Y-15323D01*
X-19975Y-15864D01*
X-19668Y-16322D01*
X-19210Y-16628D01*
X-18669Y-16736D01*
X-18129Y-16628D01*
X-17670Y-16322D01*
X-17364Y-15864D01*
X-17256Y-15323D01*
X-17364Y-14782D01*
X-17670Y-14324D01*
X-18129Y-14017D01*
X-18669Y-13910D01*
D02*
G37*
G36*
X-9713Y-14107D02*
X-10253Y-14214D01*
X-10712Y-14521D01*
X-11018Y-14979D01*
X-11126Y-15520D01*
X-11018Y-16060D01*
X-10712Y-16519D01*
X-10253Y-16825D01*
X-9713Y-16933D01*
X-9172Y-16825D01*
X-8714Y-16519D01*
X-8407Y-16060D01*
X-8300Y-15520D01*
X-8407Y-14979D01*
X-8714Y-14521D01*
X-9172Y-14214D01*
X-9713Y-14107D01*
D02*
G37*
G36*
X-36417Y-16599D02*
X-36958Y-16706D01*
X-37416Y-17013D01*
X-37723Y-17471D01*
X-37830Y-18012D01*
X-37723Y-18553D01*
X-37416Y-19011D01*
X-36958Y-19317D01*
X-36417Y-19425D01*
X-35877Y-19317D01*
X-35418Y-19011D01*
X-35112Y-18553D01*
X-35004Y-18012D01*
X-35112Y-17471D01*
X-35418Y-17013D01*
X-35877Y-16706D01*
X-36417Y-16599D01*
D02*
G37*
G36*
X-11500Y-21071D02*
X-12041Y-21179D01*
X-12499Y-21485D01*
X-12805Y-21944D01*
X-12937Y-22484D01*
X-13500Y-22468D01*
X-14041Y-22576D01*
X-14499Y-22882D01*
X-14805Y-23340D01*
X-14913Y-23881D01*
X-14805Y-24422D01*
X-14499Y-24880D01*
X-14041Y-25186D01*
X-13500Y-25294D01*
X-12959Y-25186D01*
X-12501Y-24880D01*
X-12195Y-24422D01*
X-12063Y-23882D01*
X-11500Y-23897D01*
X-10959Y-23790D01*
X-10501Y-23483D01*
X-10195Y-23025D01*
X-10087Y-22484D01*
X-10195Y-21944D01*
X-10501Y-21485D01*
X-10959Y-21179D01*
X-11500Y-21071D01*
D02*
G37*
G36*
X-6071Y-20603D02*
X-6612Y-20710D01*
X-7070Y-21017D01*
X-7376Y-21475D01*
X-7484Y-22016D01*
X-7376Y-22557D01*
X-7070Y-23015D01*
X-6612Y-23321D01*
X-6071Y-23429D01*
X-5530Y-23321D01*
X-5072Y-23015D01*
X-4766Y-22557D01*
X-4658Y-22016D01*
X-4766Y-21475D01*
X-5072Y-21017D01*
X-5530Y-20710D01*
X-6071Y-20603D01*
D02*
G37*
G36*
X-18406Y-18666D02*
X-18946Y-18773D01*
X-19405Y-19080D01*
X-19711Y-19538D01*
X-19818Y-20079D01*
X-19711Y-20619D01*
X-19405Y-21078D01*
X-19158Y-21243D01*
X-19111Y-21987D01*
X-19149Y-22124D01*
X-19306Y-22229D01*
X-19613Y-22688D01*
X-19720Y-23228D01*
X-19613Y-23769D01*
X-19306Y-24227D01*
X-18848Y-24534D01*
X-18307Y-24641D01*
X-17766Y-24534D01*
X-17308Y-24227D01*
X-17002Y-23769D01*
X-16894Y-23228D01*
X-17002Y-22688D01*
X-17308Y-22229D01*
X-17555Y-22064D01*
X-17602Y-21320D01*
X-17564Y-21183D01*
X-17406Y-21078D01*
X-17100Y-20619D01*
X-16993Y-20079D01*
X-17100Y-19538D01*
X-17406Y-19080D01*
X-17865Y-18773D01*
X-18406Y-18666D01*
D02*
G37*
G36*
X2197Y-28770D02*
X1618Y-28885D01*
X1127Y-29213D01*
X799Y-29704D01*
X684Y-30283D01*
X799Y-30863D01*
X1127Y-31354D01*
X1618Y-31682D01*
X2197Y-31797D01*
X2776Y-31682D01*
X3267Y-31354D01*
X3595Y-30863D01*
X3710Y-30283D01*
X3595Y-29704D01*
X3267Y-29213D01*
X2776Y-28885D01*
X2197Y-28770D01*
D02*
G37*
G36*
X-2134D02*
X-2713Y-28885D01*
X-3204Y-29213D01*
X-3532Y-29704D01*
X-3647Y-30283D01*
X-3532Y-30863D01*
X-3204Y-31354D01*
X-2713Y-31682D01*
X-2134Y-31797D01*
X-1555Y-31682D01*
X-1064Y-31354D01*
X-736Y-30863D01*
X-620Y-30283D01*
X-736Y-29704D01*
X-1064Y-29213D01*
X-1555Y-28885D01*
X-2134Y-28770D01*
D02*
G37*
G36*
X-11484Y-27000D02*
X-12025Y-27108D01*
X-12483Y-27414D01*
X-12790Y-27873D01*
X-12897Y-28413D01*
X-12790Y-28954D01*
X-12598Y-29241D01*
X-12487Y-29425D01*
X-12680Y-30170D01*
X-12987Y-30629D01*
X-13094Y-31169D01*
X-12987Y-31710D01*
X-12680Y-32168D01*
X-12222Y-32475D01*
X-11681Y-32582D01*
X-11140Y-32475D01*
X-10682Y-32168D01*
X-10376Y-31710D01*
X-10268Y-31169D01*
X-10376Y-30629D01*
X-10567Y-30342D01*
X-10679Y-30157D01*
X-10485Y-29412D01*
X-10179Y-28954D01*
X-10071Y-28413D01*
X-10179Y-27873D01*
X-10485Y-27414D01*
X-10943Y-27108D01*
X-11484Y-27000D01*
D02*
G37*
G36*
X2197Y-33101D02*
X1618Y-33216D01*
X1127Y-33544D01*
X799Y-34035D01*
X684Y-34614D01*
X799Y-35193D01*
X1127Y-35684D01*
X1618Y-36012D01*
X2197Y-36127D01*
X2776Y-36012D01*
X3267Y-35684D01*
X3595Y-35193D01*
X3710Y-34614D01*
X3595Y-34035D01*
X3267Y-33544D01*
X2776Y-33216D01*
X2197Y-33101D01*
D02*
G37*
G36*
X-2134D02*
X-2713Y-33216D01*
X-3204Y-33544D01*
X-3532Y-34035D01*
X-3647Y-34614D01*
X-3532Y-35193D01*
X-3204Y-35684D01*
X-2713Y-36012D01*
X-2134Y-36127D01*
X-1555Y-36012D01*
X-1064Y-35684D01*
X-736Y-35193D01*
X-620Y-34614D01*
X-736Y-34035D01*
X-1064Y-33544D01*
X-1555Y-33216D01*
X-2134Y-33101D01*
D02*
G37*
G36*
X10563Y-39894D02*
X10022Y-40002D01*
X9564Y-40308D01*
X9258Y-40766D01*
X9150Y-41307D01*
X9258Y-41848D01*
X9564Y-42306D01*
X10022Y-42612D01*
X10563Y-42720D01*
X11104Y-42612D01*
X11562Y-42306D01*
X11868Y-41848D01*
X11976Y-41307D01*
X11868Y-40766D01*
X11562Y-40308D01*
X11104Y-40002D01*
X10563Y-39894D01*
D02*
G37*
G36*
X30031Y-39800D02*
X28694Y-39976D01*
X27447Y-40492D01*
X26377Y-41314D01*
X25555Y-42384D01*
X25039Y-43631D01*
X24863Y-44969D01*
X25039Y-46306D01*
X25555Y-47553D01*
X26377Y-48623D01*
X27447Y-49445D01*
X28694Y-49961D01*
X30031Y-50137D01*
X31369Y-49961D01*
X32616Y-49445D01*
X33686Y-48623D01*
X34508Y-47553D01*
X35024Y-46306D01*
X35200Y-44969D01*
X35024Y-43631D01*
X34508Y-42384D01*
X33686Y-41314D01*
X32616Y-40492D01*
X31369Y-39976D01*
X30031Y-39800D01*
D02*
G37*
G36*
X-29969D02*
X-31306Y-39976D01*
X-32553Y-40492D01*
X-33623Y-41314D01*
X-34445Y-42384D01*
X-34961Y-43631D01*
X-35137Y-44969D01*
X-34961Y-46306D01*
X-34445Y-47553D01*
X-33623Y-48623D01*
X-32553Y-49445D01*
X-31306Y-49961D01*
X-29969Y-50137D01*
X-28631Y-49961D01*
X-27384Y-49445D01*
X-26314Y-48623D01*
X-25492Y-47553D01*
X-24976Y-46306D01*
X-24800Y-44969D01*
X-24976Y-43631D01*
X-25492Y-42384D01*
X-26314Y-41314D01*
X-27384Y-40492D01*
X-28631Y-39976D01*
X-29969Y-39800D01*
D02*
G37*
G36*
X4724Y-51244D02*
X4184Y-51352D01*
X3725Y-51658D01*
X3419Y-52117D01*
X3311Y-52658D01*
X3419Y-53198D01*
X3725Y-53657D01*
X4184Y-53963D01*
X4724Y-54071D01*
X5265Y-53963D01*
X5723Y-53657D01*
X6030Y-53198D01*
X6137Y-52658D01*
X6030Y-52117D01*
X5723Y-51658D01*
X5265Y-51352D01*
X4724Y-51244D01*
D02*
G37*
G36*
X1445Y-52968D02*
X904Y-53076D01*
X445Y-53382D01*
X139Y-53841D01*
X32Y-54381D01*
X139Y-54922D01*
X-535Y-55238D01*
X-543Y-55235D01*
X-704Y-55128D01*
X-1001Y-54929D01*
X-1542Y-54822D01*
X-2082Y-54929D01*
X-2531Y-55229D01*
X-2541Y-55235D01*
X-3430Y-55300D01*
X-3500Y-55253D01*
X-3888Y-54994D01*
X-4429Y-54886D01*
X-4970Y-54994D01*
X-5428Y-55300D01*
X-5734Y-55759D01*
X-5842Y-56299D01*
X-5734Y-56840D01*
X-5428Y-57298D01*
X-4970Y-57605D01*
X-4429Y-57712D01*
X-3888Y-57605D01*
X-3440Y-57305D01*
X-3430Y-57298D01*
X-2541Y-57234D01*
X-2471Y-57280D01*
X-2082Y-57540D01*
X-1542Y-57648D01*
X-1001Y-57540D01*
X-543Y-57234D01*
X-236Y-56775D01*
X-129Y-56235D01*
X-236Y-55694D01*
X438Y-55378D01*
X445Y-55380D01*
X607Y-55488D01*
X904Y-55687D01*
X1445Y-55794D01*
X1985Y-55687D01*
X2444Y-55380D01*
X2750Y-54922D01*
X2857Y-54381D01*
X2750Y-53841D01*
X2444Y-53382D01*
X1985Y-53076D01*
X1445Y-52968D01*
D02*
G37*
G36*
X-10630Y-51441D02*
X-11171Y-51549D01*
X-11629Y-51855D01*
X-11935Y-52314D01*
X-12043Y-52854D01*
X-11935Y-53395D01*
X-11629Y-53853D01*
X-11171Y-54160D01*
X-10630Y-54267D01*
X-10089Y-54160D01*
X-9665Y-53876D01*
X-9516Y-53914D01*
X-9041Y-54166D01*
Y-54166D01*
X-9041Y-54166D01*
X-8992Y-54528D01*
X-8884Y-55068D01*
X-8578Y-55527D01*
X-8119Y-55833D01*
X-7579Y-55941D01*
X-7038Y-55833D01*
X-6580Y-55527D01*
X-6273Y-55068D01*
X-6166Y-54528D01*
X-6273Y-53987D01*
X-6580Y-53528D01*
X-7038Y-53222D01*
X-7579Y-53115D01*
X-8119Y-53222D01*
X-8544Y-53506D01*
X-8692Y-53468D01*
X-9167Y-53216D01*
Y-53216D01*
X-9167Y-53216D01*
X-9217Y-52854D01*
X-9324Y-52314D01*
X-9631Y-51855D01*
X-10089Y-51549D01*
X-10630Y-51441D01*
D02*
G37*
G36*
X4023Y56174D02*
Y53019D01*
X7179D01*
X7090Y53694D01*
X6752Y54509D01*
X6214Y55210D01*
X5514Y55747D01*
X4699Y56085D01*
X4023Y56174D01*
D02*
G37*
G36*
X-5977D02*
Y53019D01*
X-2821D01*
X-2910Y53694D01*
X-3248Y54509D01*
X-3785Y55210D01*
X-4486Y55747D01*
X-5301Y56085D01*
X-5977Y56174D01*
D02*
G37*
G36*
X-6377D02*
X-7052Y56085D01*
X-7868Y55747D01*
X-8568Y55210D01*
X-9105Y54509D01*
X-9443Y53694D01*
X-9532Y53019D01*
X-6377D01*
Y56174D01*
D02*
G37*
G36*
X3623D02*
X2948Y56085D01*
X2132Y55747D01*
X1432Y55210D01*
X895Y54509D01*
X557Y53694D01*
X468Y53019D01*
X3623D01*
Y56174D01*
D02*
G37*
G36*
X17176Y56171D02*
X10471D01*
Y49466D01*
X17176D01*
Y56171D01*
D02*
G37*
G36*
X7179Y52619D02*
X4023D01*
Y49463D01*
X4699Y49552D01*
X5514Y49890D01*
X6214Y50427D01*
X6752Y51128D01*
X7090Y51943D01*
X7179Y52619D01*
D02*
G37*
G36*
X-2821D02*
X-5977D01*
Y49463D01*
X-5301Y49552D01*
X-4486Y49890D01*
X-3785Y50427D01*
X-3248Y51128D01*
X-2910Y51943D01*
X-2821Y52619D01*
D02*
G37*
G36*
X3623D02*
X468D01*
X557Y51943D01*
X895Y51128D01*
X1432Y50427D01*
X2132Y49890D01*
X2948Y49552D01*
X3623Y49463D01*
Y52619D01*
D02*
G37*
G36*
X-6377D02*
X-9532D01*
X-9443Y51943D01*
X-9105Y51128D01*
X-8568Y50427D01*
X-7868Y49890D01*
X-7052Y49552D01*
X-6377Y49463D01*
Y52619D01*
D02*
G37*
G36*
X-16177Y56200D02*
X-17052Y56085D01*
X-17867Y55747D01*
X-18568Y55210D01*
X-19105Y54509D01*
X-19443Y53694D01*
X-19558Y52819D01*
X-19443Y51943D01*
X-19105Y51128D01*
X-18568Y50427D01*
X-17867Y49890D01*
X-17052Y49552D01*
X-16177Y49437D01*
X-15302Y49552D01*
X-14486Y49890D01*
X-13785Y50427D01*
X-13248Y51128D01*
X-12910Y51943D01*
X-12795Y52819D01*
X-12910Y53694D01*
X-13248Y54509D01*
X-13785Y55210D01*
X-14486Y55747D01*
X-15302Y56085D01*
X-16177Y56200D01*
D02*
G37*
G36*
X4023Y46134D02*
Y42979D01*
X7179D01*
X7090Y43654D01*
X6752Y44470D01*
X6214Y45170D01*
X5514Y45708D01*
X4699Y46046D01*
X4023Y46134D01*
D02*
G37*
G36*
X-5977D02*
Y42979D01*
X-2821D01*
X-2910Y43654D01*
X-3248Y44470D01*
X-3785Y45170D01*
X-4486Y45708D01*
X-5301Y46046D01*
X-5977Y46134D01*
D02*
G37*
G36*
X-6377D02*
X-7052Y46046D01*
X-7868Y45708D01*
X-8568Y45170D01*
X-9105Y44470D01*
X-9443Y43654D01*
X-9532Y42979D01*
X-6377D01*
Y46134D01*
D02*
G37*
G36*
X3623D02*
X2948Y46046D01*
X2132Y45708D01*
X1432Y45170D01*
X895Y44470D01*
X557Y43654D01*
X468Y42979D01*
X3623D01*
Y46134D01*
D02*
G37*
G36*
X30031Y50200D02*
X28694Y50024D01*
X27447Y49508D01*
X26377Y48686D01*
X25555Y47616D01*
X25039Y46369D01*
X24863Y45031D01*
X25039Y43694D01*
X25555Y42447D01*
X26377Y41377D01*
X27447Y40555D01*
X28694Y40039D01*
X30031Y39863D01*
X31369Y40039D01*
X32616Y40555D01*
X33686Y41377D01*
X34508Y42447D01*
X35024Y43694D01*
X35200Y45031D01*
X35024Y46369D01*
X34508Y47616D01*
X33686Y48686D01*
X32616Y49508D01*
X31369Y50024D01*
X30031Y50200D01*
D02*
G37*
G36*
X-29969D02*
X-31306Y50024D01*
X-32553Y49508D01*
X-33623Y48686D01*
X-34445Y47616D01*
X-34961Y46369D01*
X-35137Y45031D01*
X-34961Y43694D01*
X-34445Y42447D01*
X-33623Y41377D01*
X-32553Y40555D01*
X-31306Y40039D01*
X-29969Y39863D01*
X-28631Y40039D01*
X-27384Y40555D01*
X-26314Y41377D01*
X-25492Y42447D01*
X-24976Y43694D01*
X-24800Y45031D01*
X-24976Y46369D01*
X-25492Y47616D01*
X-26314Y48686D01*
X-27384Y49508D01*
X-28631Y50024D01*
X-29969Y50200D01*
D02*
G37*
G36*
X17176Y46132D02*
X10471D01*
Y39426D01*
X17176D01*
Y46132D01*
D02*
G37*
G36*
X7179Y42579D02*
X4023D01*
Y39424D01*
X4699Y39513D01*
X5514Y39851D01*
X6214Y40388D01*
X6752Y41088D01*
X7090Y41904D01*
X7179Y42579D01*
D02*
G37*
G36*
X-2821D02*
X-5977D01*
Y39424D01*
X-5301Y39513D01*
X-4486Y39851D01*
X-3785Y40388D01*
X-3248Y41088D01*
X-2910Y41904D01*
X-2821Y42579D01*
D02*
G37*
G36*
X3623D02*
X468D01*
X557Y41904D01*
X895Y41088D01*
X1432Y40388D01*
X2132Y39851D01*
X2948Y39513D01*
X3623Y39424D01*
Y42579D01*
D02*
G37*
G36*
X-6377D02*
X-9532D01*
X-9443Y41904D01*
X-9105Y41088D01*
X-8568Y40388D01*
X-7868Y39851D01*
X-7052Y39513D01*
X-6377Y39424D01*
Y42579D01*
D02*
G37*
G36*
X-16177Y46161D02*
X-17052Y46046D01*
X-17867Y45708D01*
X-18568Y45170D01*
X-19105Y44470D01*
X-19443Y43654D01*
X-19558Y42779D01*
X-19443Y41904D01*
X-19105Y41088D01*
X-18568Y40388D01*
X-17867Y39851D01*
X-17052Y39513D01*
X-16177Y39397D01*
X-15301Y39513D01*
X-14486Y39851D01*
X-13785Y40388D01*
X-13248Y41088D01*
X-12910Y41904D01*
X-12795Y42779D01*
X-12910Y43654D01*
X-13248Y44470D01*
X-13785Y45170D01*
X-14486Y45708D01*
X-15301Y46046D01*
X-16177Y46161D01*
D02*
G37*
%LPD*%
D12*
X-7604Y-75140D02*
G03*
X-7014Y-75394I580J533D01*
G01*
X-6760Y-75401D02*
G03*
X-6730Y-75402I34J787D01*
G01*
X-5152Y-75370D02*
G03*
X-5220Y-75374I8J-787D01*
G01*
X5569Y-75372D02*
G03*
X5778Y-75402I213J758D01*
G01*
X7265Y-75230D02*
G03*
X7207Y-75247I192J-764D01*
G01*
X-6918Y-75394D02*
G03*
X-6965Y-75393I-36J-787D01*
G01*
X-5549Y-75402D02*
G03*
X-5473Y-75398I0J787D01*
G01*
X5200Y-75269D02*
G03*
X4971Y-75238I-217J-757D01*
G01*
X6615Y-75402D02*
G03*
X6863Y-75361I0J787D01*
G01*
X7444Y-75185D02*
G03*
X8021Y-74581I-194J763D01*
G01*
X39028Y65433D02*
G03*
X38303Y65418I-352J-474D01*
G01*
X50775Y56477D02*
G03*
X50532Y56951I-591J-3D01*
G01*
X-53662Y41205D02*
G03*
X-53736Y41109I427J-408D01*
G01*
X-6918Y-75394D02*
X-6760Y-75401D01*
X-5473Y-75398D02*
X-5220Y-75374D01*
X5200Y-75269D02*
X5569Y-75372D01*
X6863Y-75361D02*
X7207Y-75247D01*
X-9252Y-73327D02*
X-7607Y-75136D01*
X-7014Y-75394D02*
X-6965Y-75393D01*
X-6730Y-75402D02*
X-5549D01*
X-5152Y-75370D02*
X4971Y-75238D01*
X20799Y-36681D02*
X31398Y-26083D01*
X42028Y25295D02*
X49606Y32874D01*
X42028Y-9547D02*
Y25295D01*
X52854Y25394D02*
X56595Y21654D01*
Y19291D02*
Y21654D01*
X47047Y25394D02*
X52854D01*
X44193Y-10335D02*
Y22539D01*
X47047Y25394D01*
X20898Y-33630D02*
X44193Y-10335D01*
X31398Y-26083D02*
X53150D01*
X62500Y-16732D01*
Y13681D01*
X20898Y-30677D02*
X42028Y-9547D01*
X-48917Y32480D02*
X-48803Y32366D01*
X-46850D01*
X-40854Y26370D01*
Y-23221D02*
X-32087Y-31988D01*
X-40854Y-23221D02*
Y26370D01*
X-32087Y-31988D02*
X-22736D01*
X-52165Y26280D02*
X-46063D01*
X-42224Y-23917D02*
X-31594Y-34547D01*
X-50492Y29232D02*
X-46260D01*
X-43602Y-24606D02*
X-31004Y-37205D01*
X-42224Y-23917D02*
Y25197D01*
X-46063Y26280D02*
X-43602Y23819D01*
Y-24606D02*
Y23819D01*
X-46260Y29232D02*
X-42224Y25197D01*
X-31594Y-34547D02*
X-22736D01*
X-31004Y-37205D02*
X-22835D01*
X69200Y-30696D02*
X74179Y-16134D01*
X67028Y-31496D02*
X68940Y-31041D01*
X69156Y-30825D01*
X69200Y-30696D01*
X68580Y-12742D02*
X73863Y-15513D01*
X73942Y-15555D01*
X74179Y-15791D01*
Y-16134D02*
Y-15791D01*
X68346Y-12202D02*
X69387Y-1603D01*
X68343Y-12231D02*
X68346Y-12202D01*
X68343Y-12505D02*
Y-12231D01*
Y-12505D02*
X68580Y-12742D01*
X68020Y12518D02*
X69384Y-1517D01*
X69387Y-1546D01*
Y-1603D02*
Y-1546D01*
X64211Y26243D02*
X67998Y12648D01*
X68012Y12598D01*
X68020Y12518D01*
X57613Y39205D02*
X64146Y26431D01*
X64173Y26378D01*
X64211Y26243D01*
X57629Y39483D02*
X58858Y44685D01*
X57613Y39416D02*
X57629Y39483D01*
X57613Y39205D02*
Y39416D01*
X33487Y61515D02*
X38303Y65418D01*
X50775Y53724D02*
Y56474D01*
X50775Y56477D02*
X50775Y56474D01*
X39028Y65433D02*
X50532Y56951D01*
X23622Y65846D02*
X33034Y61568D01*
X33150Y61515D01*
X33487D01*
X9572Y69044D02*
X23563Y65860D01*
X23622Y65846D01*
X-5359Y69585D02*
X9294Y69096D01*
X9351Y69095D01*
X9572Y69044D01*
X-19615Y66960D02*
X-5476Y69575D01*
X-5423Y69585D01*
X-5359D01*
X-24311Y69685D02*
X-19976Y67046D01*
X-19835Y66960D01*
X-19615D01*
X-50051Y57000D02*
X-38906Y65382D01*
X-38478Y65500D02*
X-35531Y64764D01*
X-38748Y65500D02*
X-38478D01*
X-38906Y65382D02*
X-38748Y65500D01*
X-50390Y56161D02*
X-48223Y51481D01*
X-50445Y56279D02*
X-50390Y56161D01*
X-50445Y56279D02*
Y56654D01*
X-50242Y56856D01*
X-50051Y57000D01*
X-54823Y42323D02*
X-48341Y50998D01*
X-48223Y51155D01*
Y51481D01*
X-62500Y29823D02*
X-54837Y42300D01*
X-54823Y42323D01*
X-67224Y16142D02*
X-62521Y29762D01*
X-62500Y29823D01*
X-69481Y1916D02*
X-67233Y16091D01*
X-67224Y16142D01*
X-73917Y-1476D02*
X-69678Y1726D01*
X-69646Y1751D01*
X-69481Y1916D01*
X-74474Y-15558D02*
X-69775Y-29748D01*
X-74113Y-14781D02*
X-72539Y-13583D01*
X-74303Y-14926D02*
X-74113Y-14781D01*
X-74504Y-15127D02*
X-74303Y-14926D01*
X-74504Y-15467D02*
Y-15127D01*
Y-15467D02*
X-74474Y-15558D01*
X-69503Y-30020D02*
X-63365D01*
X-69775Y-29748D02*
X-69503Y-30020D01*
X-63113Y-30290D02*
X-57579Y-38878D01*
X-63147Y-30237D02*
X-63113Y-30290D01*
X-63365Y-30020D02*
X-63147Y-30237D01*
X-57558Y-38903D02*
X-48545Y-49973D01*
X-57579Y-38878D02*
X-57558Y-38903D01*
X-48473Y-50040D02*
X-36713Y-59350D01*
X-48500Y-50019D02*
X-48473Y-50040D01*
X-48545Y-49973D02*
X-48500Y-50019D01*
X-36648Y-59380D02*
X-23551Y-65395D01*
X-36713Y-59350D02*
X-36648Y-59380D01*
X-23340Y-65682D02*
X-21457Y-70768D01*
X-23385Y-65561D02*
X-23340Y-65682D01*
X-23551Y-65395D02*
X-23385Y-65561D01*
X-7607Y-75136D02*
X-7604Y-75140D01*
X8021Y-74580D02*
X9213Y-68794D01*
X8021Y-74581D02*
X8021Y-74580D01*
X7265Y-75230D02*
X7444Y-75185D01*
X5778Y-75402D02*
X6615D01*
X9613Y-68513D02*
X19587Y-66043D01*
X9454Y-68552D02*
X9613Y-68513D01*
X9213Y-68794D02*
X9454Y-68552D01*
X19628Y-66026D02*
X32874Y-60532D01*
X19587Y-66043D02*
X19628Y-66026D01*
X32923Y-60498D02*
X44979Y-52363D01*
X32874Y-60532D02*
X32923Y-60498D01*
X45021Y-52321D02*
X54764Y-42482D01*
X44979Y-52363D02*
X45021Y-52321D01*
X55144Y-42308D02*
X60827Y-41929D01*
X54923Y-42323D02*
X55144Y-42308D01*
X54764Y-42482D02*
X54923Y-42323D01*
X7557Y-67720D02*
X19488Y-64665D01*
X6201Y-73622D02*
X7152Y-68008D01*
X7400Y-67760D01*
X7557Y-67720D01*
X19531Y-64647D02*
X32283Y-59153D01*
X19488Y-64665D02*
X19531Y-64647D01*
X32329Y-59123D02*
X43891Y-51382D01*
X32283Y-59153D02*
X32329Y-59123D01*
X43943Y-51331D02*
X53445Y-41339D01*
X43938Y-51336D02*
X43943Y-51331D01*
X43891Y-51382D02*
X43938Y-51336D01*
X53477Y-41287D02*
X60812Y-29512D01*
X53445Y-41339D02*
X53477Y-41287D01*
X61204Y-29296D02*
X68012Y-28445D01*
X61003Y-29321D02*
X61204Y-29296D01*
X60812Y-29512D02*
X61003Y-29321D01*
X66191Y-13188D02*
X67614Y-1802D01*
X66417Y-13737D02*
X71949Y-16831D01*
X66186Y-13506D02*
X66417Y-13737D01*
X66186Y-13506D02*
Y-13225D01*
X66191Y-13188D01*
X66150Y12617D02*
X67611Y-1703D01*
X67614Y-1733D01*
Y-1802D02*
Y-1733D01*
X62539Y25549D02*
X66128Y12746D01*
X66142Y12697D01*
X66150Y12617D01*
X55908Y38098D02*
X62470Y25745D01*
X62500Y25689D01*
X62539Y25549D01*
X46612Y48852D02*
X55763Y38338D01*
X55807Y38287D01*
X55908Y38098D01*
X46630Y49216D02*
X48327Y56004D01*
X46612Y49145D02*
X46630Y49216D01*
X46612Y48852D02*
Y49145D01*
X33789Y58491D02*
X38287Y62894D01*
X33410Y58491D02*
X33789D01*
X22683Y63807D02*
X33286Y58552D01*
X33410Y58491D01*
X8760Y67323D02*
X22478Y63893D01*
X22539Y63878D01*
X22683Y63807D01*
X-5413Y67323D02*
X8760D01*
X-19280Y64686D02*
X-5468Y67312D01*
X-5413Y67323D01*
X-32408Y59516D02*
X-19442Y64645D01*
X-19390Y64665D01*
X-19280Y64686D01*
X-38484Y63090D02*
X-32831Y59604D01*
X-32688Y59516D01*
X-32408D01*
X-61319Y28937D02*
X-53736Y41109D01*
X-53736Y41109D02*
X-46200Y49539D01*
X-53736Y41109D02*
X-53736Y41109D01*
X-48228Y56004D02*
X-46050Y50037D01*
Y49707D02*
Y50037D01*
X-46200Y49539D02*
X-46050Y49707D01*
X-66043Y15551D02*
X-61340Y28876D01*
X-61319Y28937D01*
X-67781Y1743D02*
X-66051Y15488D01*
X-66043Y15551D01*
X-67808Y1410D02*
X-66466Y-11920D01*
X-67811Y1439D02*
X-67808Y1410D01*
X-67811Y1439D02*
Y1506D01*
X-67781Y1743D01*
X-72047Y-16831D02*
X-66681Y-12405D01*
X-66659Y-12387D01*
X-66466Y-12195D01*
Y-11920D01*
X-61354Y-28448D02*
X-56004Y-38287D01*
X-68110Y-27953D02*
X-61621Y-28146D01*
X-61395Y-28373D01*
X-61354Y-28448D01*
X-55962Y-38335D02*
X-46681Y-49082D01*
X-56004Y-38287D02*
X-55962Y-38335D01*
X-46602Y-49153D02*
X-35335Y-57579D01*
X-46636Y-49127D02*
X-46602Y-49153D01*
X-46681Y-49082D02*
X-46636Y-49127D01*
X-35291Y-57601D02*
X-22736Y-64075D01*
X-35335Y-57579D02*
X-35291Y-57601D01*
X-22668Y-64091D02*
X-9167Y-67394D01*
X-22736Y-64075D02*
X-22668Y-64091D01*
X-8935Y-67674D02*
X-6102Y-73622D01*
X-8978Y-67583D02*
X-8935Y-67674D01*
X-9167Y-67394D02*
X-8978Y-67583D01*
D54*
X3823Y42779D02*
X10379Y38639D01*
X25103Y35375D01*
X25228Y-15421D01*
D56*
X3823Y42779D02*
D03*
X-6177D02*
D03*
X3823Y52819D02*
D03*
X-6177D02*
D03*
D59*
X49606Y32874D02*
D03*
X56595Y19291D02*
D03*
X62500Y13681D02*
D03*
X-48917Y32480D02*
D03*
X-52165Y26280D02*
D03*
X-50492Y29232D02*
D03*
X-22736Y-34547D02*
D03*
Y-31988D02*
D03*
X-22835Y-37205D02*
D03*
X-27461Y-23228D02*
D03*
X67028Y-31496D02*
D03*
X58858Y44685D02*
D03*
X50775Y53724D02*
D03*
X-24311Y69685D02*
D03*
X-35531Y64764D02*
D03*
X-73917Y-1476D02*
D03*
X-72539Y-13583D02*
D03*
X-21457Y-70768D02*
D03*
X-9252Y-73327D02*
D03*
X60827Y-41929D02*
D03*
X6201Y-73622D02*
D03*
X68012Y-28445D02*
D03*
X71949Y-16831D02*
D03*
X48327Y56004D02*
D03*
X38287Y62894D02*
D03*
X-38484Y63090D02*
D03*
X-48228Y56004D02*
D03*
X-72047Y-16831D02*
D03*
X-68110Y-27953D02*
D03*
X-6102Y-73622D02*
D03*
X13336Y32385D02*
D03*
X15679Y32413D02*
D03*
X-19783Y-5807D02*
D03*
X-3839Y21063D02*
D03*
X25228Y-15421D02*
D03*
X7315Y-14043D02*
D03*
X-27362Y-20079D02*
D03*
X20799Y-36681D02*
D03*
X20898Y-30677D02*
D03*
Y-33630D02*
D03*
M02*
