G04*
G04 #@! TF.GenerationSoftware,Altium Limited,Altium Designer,20.0.9 (164)*
G04*
G04 Layer_Physical_Order=4*
G04 Layer_Color=16711680*
%FSLAX25Y25*%
%MOIN*%
G70*
G01*
G75*
%ADD12C,0.00787*%
%ADD52C,0.00591*%
%ADD55R,0.05906X0.05906*%
%ADD56C,0.05906*%
%ADD57C,0.09449*%
%ADD58C,0.08661*%
%ADD59C,0.01772*%
%ADD60C,0.21654*%
%ADD61C,0.01968*%
%ADD62C,0.02362*%
%ADD63C,0.02756*%
%ADD64C,0.02598*%
G04:AMPARAMS|DCode=65|XSize=43.31mil|YSize=19.68mil|CornerRadius=0mil|HoleSize=0mil|Usage=FLASHONLY|Rotation=198.000|XOffset=0mil|YOffset=0mil|HoleType=Round|Shape=Rectangle|*
%AMROTATEDRECTD65*
4,1,4,0.01755,0.01605,0.02364,-0.00267,-0.01755,-0.01605,-0.02364,0.00267,0.01755,0.01605,0.0*
%
%ADD65ROTATEDRECTD65*%

G04:AMPARAMS|DCode=66|XSize=51.18mil|YSize=19.68mil|CornerRadius=0mil|HoleSize=0mil|Usage=FLASHONLY|Rotation=198.000|XOffset=0mil|YOffset=0mil|HoleType=Round|Shape=Rectangle|*
%AMROTATEDRECTD66*
4,1,4,0.02130,0.01727,0.02738,-0.00145,-0.02130,-0.01727,-0.02738,0.00145,0.02130,0.01727,0.0*
%
%ADD66ROTATEDRECTD66*%

G04:AMPARAMS|DCode=67|XSize=51.18mil|YSize=19.68mil|CornerRadius=0mil|HoleSize=0mil|Usage=FLASHONLY|Rotation=210.000|XOffset=0mil|YOffset=0mil|HoleType=Round|Shape=Rectangle|*
%AMROTATEDRECTD67*
4,1,4,0.01724,0.02132,0.02708,0.00427,-0.01724,-0.02132,-0.02708,-0.00427,0.01724,0.02132,0.0*
%
%ADD67ROTATEDRECTD67*%

G04:AMPARAMS|DCode=68|XSize=43.31mil|YSize=19.68mil|CornerRadius=0mil|HoleSize=0mil|Usage=FLASHONLY|Rotation=210.000|XOffset=0mil|YOffset=0mil|HoleType=Round|Shape=Rectangle|*
%AMROTATEDRECTD68*
4,1,4,0.01383,0.01935,0.02367,0.00230,-0.01383,-0.01935,-0.02367,-0.00230,0.01383,0.01935,0.0*
%
%ADD68ROTATEDRECTD68*%

G04:AMPARAMS|DCode=69|XSize=43.31mil|YSize=19.68mil|CornerRadius=0mil|HoleSize=0mil|Usage=FLASHONLY|Rotation=222.000|XOffset=0mil|YOffset=0mil|HoleType=Round|Shape=Rectangle|*
%AMROTATEDRECTD69*
4,1,4,0.00951,0.02180,0.02268,0.00718,-0.00951,-0.02180,-0.02268,-0.00718,0.00951,0.02180,0.0*
%
%ADD69ROTATEDRECTD69*%

G04:AMPARAMS|DCode=70|XSize=51.18mil|YSize=19.68mil|CornerRadius=0mil|HoleSize=0mil|Usage=FLASHONLY|Rotation=222.000|XOffset=0mil|YOffset=0mil|HoleType=Round|Shape=Rectangle|*
%AMROTATEDRECTD70*
4,1,4,0.01243,0.02444,0.02560,0.00981,-0.01243,-0.02444,-0.02560,-0.00981,0.01243,0.02444,0.0*
%
%ADD70ROTATEDRECTD70*%

G04:AMPARAMS|DCode=71|XSize=51.18mil|YSize=19.68mil|CornerRadius=0mil|HoleSize=0mil|Usage=FLASHONLY|Rotation=234.000|XOffset=0mil|YOffset=0mil|HoleType=Round|Shape=Rectangle|*
%AMROTATEDRECTD71*
4,1,4,0.00708,0.02649,0.02300,0.01492,-0.00708,-0.02649,-0.02300,-0.01492,0.00708,0.02649,0.0*
%
%ADD71ROTATEDRECTD71*%

G04:AMPARAMS|DCode=72|XSize=43.31mil|YSize=19.68mil|CornerRadius=0mil|HoleSize=0mil|Usage=FLASHONLY|Rotation=234.000|XOffset=0mil|YOffset=0mil|HoleType=Round|Shape=Rectangle|*
%AMROTATEDRECTD72*
4,1,4,0.00477,0.02330,0.02069,0.01173,-0.00477,-0.02330,-0.02069,-0.01173,0.00477,0.02330,0.0*
%
%ADD72ROTATEDRECTD72*%

G04:AMPARAMS|DCode=73|XSize=43.31mil|YSize=19.68mil|CornerRadius=0mil|HoleSize=0mil|Usage=FLASHONLY|Rotation=246.000|XOffset=0mil|YOffset=0mil|HoleType=Round|Shape=Rectangle|*
%AMROTATEDRECTD73*
4,1,4,-0.00018,0.02378,0.01780,0.01578,0.00018,-0.02378,-0.01780,-0.01578,-0.00018,0.02378,0.0*
%
%ADD73ROTATEDRECTD73*%

G04:AMPARAMS|DCode=74|XSize=51.18mil|YSize=19.68mil|CornerRadius=0mil|HoleSize=0mil|Usage=FLASHONLY|Rotation=246.000|XOffset=0mil|YOffset=0mil|HoleType=Round|Shape=Rectangle|*
%AMROTATEDRECTD74*
4,1,4,0.00142,0.02738,0.01940,0.01938,-0.00142,-0.02738,-0.01940,-0.01938,0.00142,0.02738,0.0*
%
%ADD74ROTATEDRECTD74*%

G04:AMPARAMS|DCode=75|XSize=51.18mil|YSize=19.68mil|CornerRadius=0mil|HoleSize=0mil|Usage=FLASHONLY|Rotation=258.000|XOffset=0mil|YOffset=0mil|HoleType=Round|Shape=Rectangle|*
%AMROTATEDRECTD75*
4,1,4,-0.00431,0.02708,0.01495,0.02298,0.00431,-0.02708,-0.01495,-0.02298,-0.00431,0.02708,0.0*
%
%ADD75ROTATEDRECTD75*%

G04:AMPARAMS|DCode=76|XSize=43.31mil|YSize=19.68mil|CornerRadius=0mil|HoleSize=0mil|Usage=FLASHONLY|Rotation=258.000|XOffset=0mil|YOffset=0mil|HoleType=Round|Shape=Rectangle|*
%AMROTATEDRECTD76*
4,1,4,-0.00513,0.02323,0.01413,0.01913,0.00513,-0.02323,-0.01413,-0.01913,-0.00513,0.02323,0.0*
%
%ADD76ROTATEDRECTD76*%

G04:AMPARAMS|DCode=77|XSize=43.31mil|YSize=19.68mil|CornerRadius=0mil|HoleSize=0mil|Usage=FLASHONLY|Rotation=126.000|XOffset=0mil|YOffset=0mil|HoleType=Round|Shape=Rectangle|*
%AMROTATEDRECTD77*
4,1,4,0.02069,-0.01173,0.00477,-0.02330,-0.02069,0.01173,-0.00477,0.02330,0.02069,-0.01173,0.0*
%
%ADD77ROTATEDRECTD77*%

G04:AMPARAMS|DCode=78|XSize=51.18mil|YSize=19.68mil|CornerRadius=0mil|HoleSize=0mil|Usage=FLASHONLY|Rotation=126.000|XOffset=0mil|YOffset=0mil|HoleType=Round|Shape=Rectangle|*
%AMROTATEDRECTD78*
4,1,4,0.02300,-0.01492,0.00708,-0.02649,-0.02300,0.01492,-0.00708,0.02649,0.02300,-0.01492,0.0*
%
%ADD78ROTATEDRECTD78*%

G04:AMPARAMS|DCode=79|XSize=51.18mil|YSize=19.68mil|CornerRadius=0mil|HoleSize=0mil|Usage=FLASHONLY|Rotation=138.000|XOffset=0mil|YOffset=0mil|HoleType=Round|Shape=Rectangle|*
%AMROTATEDRECTD79*
4,1,4,0.02560,-0.00981,0.01243,-0.02444,-0.02560,0.00981,-0.01243,0.02444,0.02560,-0.00981,0.0*
%
%ADD79ROTATEDRECTD79*%

G04:AMPARAMS|DCode=80|XSize=43.31mil|YSize=19.68mil|CornerRadius=0mil|HoleSize=0mil|Usage=FLASHONLY|Rotation=138.000|XOffset=0mil|YOffset=0mil|HoleType=Round|Shape=Rectangle|*
%AMROTATEDRECTD80*
4,1,4,0.02268,-0.00718,0.00951,-0.02180,-0.02268,0.00718,-0.00951,0.02180,0.02268,-0.00718,0.0*
%
%ADD80ROTATEDRECTD80*%

G04:AMPARAMS|DCode=81|XSize=43.31mil|YSize=19.68mil|CornerRadius=0mil|HoleSize=0mil|Usage=FLASHONLY|Rotation=150.000|XOffset=0mil|YOffset=0mil|HoleType=Round|Shape=Rectangle|*
%AMROTATEDRECTD81*
4,1,4,0.02367,-0.00230,0.01383,-0.01935,-0.02367,0.00230,-0.01383,0.01935,0.02367,-0.00230,0.0*
%
%ADD81ROTATEDRECTD81*%

G04:AMPARAMS|DCode=82|XSize=51.18mil|YSize=19.68mil|CornerRadius=0mil|HoleSize=0mil|Usage=FLASHONLY|Rotation=150.000|XOffset=0mil|YOffset=0mil|HoleType=Round|Shape=Rectangle|*
%AMROTATEDRECTD82*
4,1,4,0.02708,-0.00427,0.01724,-0.02132,-0.02708,0.00427,-0.01724,0.02132,0.02708,-0.00427,0.0*
%
%ADD82ROTATEDRECTD82*%

G04:AMPARAMS|DCode=83|XSize=51.18mil|YSize=19.68mil|CornerRadius=0mil|HoleSize=0mil|Usage=FLASHONLY|Rotation=162.000|XOffset=0mil|YOffset=0mil|HoleType=Round|Shape=Rectangle|*
%AMROTATEDRECTD83*
4,1,4,0.02738,0.00145,0.02130,-0.01727,-0.02738,-0.00145,-0.02130,0.01727,0.02738,0.00145,0.0*
%
%ADD83ROTATEDRECTD83*%

G04:AMPARAMS|DCode=84|XSize=43.31mil|YSize=19.68mil|CornerRadius=0mil|HoleSize=0mil|Usage=FLASHONLY|Rotation=162.000|XOffset=0mil|YOffset=0mil|HoleType=Round|Shape=Rectangle|*
%AMROTATEDRECTD84*
4,1,4,0.02364,0.00267,0.01755,-0.01605,-0.02364,-0.00267,-0.01755,0.01605,0.02364,0.00267,0.0*
%
%ADD84ROTATEDRECTD84*%

G04:AMPARAMS|DCode=85|XSize=43.31mil|YSize=19.68mil|CornerRadius=0mil|HoleSize=0mil|Usage=FLASHONLY|Rotation=174.000|XOffset=0mil|YOffset=0mil|HoleType=Round|Shape=Rectangle|*
%AMROTATEDRECTD85*
4,1,4,0.02256,0.00753,0.02051,-0.01205,-0.02256,-0.00753,-0.02051,0.01205,0.02256,0.00753,0.0*
%
%ADD85ROTATEDRECTD85*%

G04:AMPARAMS|DCode=86|XSize=51.18mil|YSize=19.68mil|CornerRadius=0mil|HoleSize=0mil|Usage=FLASHONLY|Rotation=174.000|XOffset=0mil|YOffset=0mil|HoleType=Round|Shape=Rectangle|*
%AMROTATEDRECTD86*
4,1,4,0.02648,0.00711,0.02442,-0.01246,-0.02648,-0.00711,-0.02442,0.01246,0.02648,0.00711,0.0*
%
%ADD86ROTATEDRECTD86*%

G04:AMPARAMS|DCode=87|XSize=51.18mil|YSize=19.68mil|CornerRadius=0mil|HoleSize=0mil|Usage=FLASHONLY|Rotation=186.000|XOffset=0mil|YOffset=0mil|HoleType=Round|Shape=Rectangle|*
%AMROTATEDRECTD87*
4,1,4,0.02442,0.01246,0.02648,-0.00711,-0.02442,-0.01246,-0.02648,0.00711,0.02442,0.01246,0.0*
%
%ADD87ROTATEDRECTD87*%

G04:AMPARAMS|DCode=88|XSize=43.31mil|YSize=19.68mil|CornerRadius=0mil|HoleSize=0mil|Usage=FLASHONLY|Rotation=186.000|XOffset=0mil|YOffset=0mil|HoleType=Round|Shape=Rectangle|*
%AMROTATEDRECTD88*
4,1,4,0.02051,0.01205,0.02256,-0.00753,-0.02051,-0.01205,-0.02256,0.00753,0.02051,0.01205,0.0*
%
%ADD88ROTATEDRECTD88*%

%ADD89R,0.01968X0.05118*%
%ADD90R,0.01968X0.04331*%
G04:AMPARAMS|DCode=91|XSize=43.31mil|YSize=19.68mil|CornerRadius=0mil|HoleSize=0mil|Usage=FLASHONLY|Rotation=102.000|XOffset=0mil|YOffset=0mil|HoleType=Round|Shape=Rectangle|*
%AMROTATEDRECTD91*
4,1,4,0.01413,-0.01913,-0.00513,-0.02323,-0.01413,0.01913,0.00513,0.02323,0.01413,-0.01913,0.0*
%
%ADD91ROTATEDRECTD91*%

G04:AMPARAMS|DCode=92|XSize=51.18mil|YSize=19.68mil|CornerRadius=0mil|HoleSize=0mil|Usage=FLASHONLY|Rotation=102.000|XOffset=0mil|YOffset=0mil|HoleType=Round|Shape=Rectangle|*
%AMROTATEDRECTD92*
4,1,4,0.01495,-0.02298,-0.00431,-0.02708,-0.01495,0.02298,0.00431,0.02708,0.01495,-0.02298,0.0*
%
%ADD92ROTATEDRECTD92*%

G04:AMPARAMS|DCode=93|XSize=51.18mil|YSize=19.68mil|CornerRadius=0mil|HoleSize=0mil|Usage=FLASHONLY|Rotation=114.000|XOffset=0mil|YOffset=0mil|HoleType=Round|Shape=Rectangle|*
%AMROTATEDRECTD93*
4,1,4,0.01940,-0.01938,0.00142,-0.02738,-0.01940,0.01938,-0.00142,0.02738,0.01940,-0.01938,0.0*
%
%ADD93ROTATEDRECTD93*%

G04:AMPARAMS|DCode=94|XSize=43.31mil|YSize=19.68mil|CornerRadius=0mil|HoleSize=0mil|Usage=FLASHONLY|Rotation=114.000|XOffset=0mil|YOffset=0mil|HoleType=Round|Shape=Rectangle|*
%AMROTATEDRECTD94*
4,1,4,0.01780,-0.01578,-0.00018,-0.02378,-0.01780,0.01578,0.00018,0.02378,0.01780,-0.01578,0.0*
%
%ADD94ROTATEDRECTD94*%

G36*
X7337Y66087D02*
X8693Y64259D01*
X7897Y60516D01*
X8844Y60315D01*
X10487Y59528D01*
X10487Y59528D01*
X10559Y59421D01*
X10559Y59421D01*
X10628Y59312D01*
X10640Y59299D01*
X10641Y59298D01*
X10990Y58949D01*
X11655Y58140D01*
X10787Y56171D01*
X10471D01*
Y53019D01*
X13823D01*
X17176D01*
Y54817D01*
X17447Y55404D01*
X17481Y55467D01*
X18058Y56365D01*
X18243Y56621D01*
X18654Y56826D01*
X20326Y57542D01*
X20326Y57542D01*
X20326D01*
X22593Y56533D01*
X22696Y55901D01*
X22725Y55825D01*
X22741Y55744D01*
X22773Y55696D01*
X22794Y55642D01*
X22849Y55582D01*
X22895Y55515D01*
X23189Y55220D01*
X23212Y55205D01*
X23228Y55184D01*
X26055Y52752D01*
X26145Y52701D01*
X26229Y52642D01*
X28023Y51843D01*
X28212Y50896D01*
X28139Y50188D01*
X28058Y49760D01*
X27447Y49508D01*
X26377Y48686D01*
X25555Y47616D01*
X25039Y46369D01*
X24863Y45031D01*
X25039Y43694D01*
X25555Y42447D01*
X26377Y41377D01*
X27447Y40555D01*
X28694Y40039D01*
X30031Y39863D01*
X31369Y40039D01*
X32616Y40555D01*
X33686Y41377D01*
X34508Y42447D01*
X35024Y43694D01*
X35168Y44785D01*
X36043Y45406D01*
X37096Y45712D01*
X38700Y44547D01*
X38776Y44512D01*
X38845Y44465D01*
X38900Y44454D01*
X38951Y44431D01*
X39035Y44428D01*
X39117Y44411D01*
X40088D01*
X42021Y44241D01*
X43672Y42407D01*
X43577Y42048D01*
X43571Y41956D01*
X43553Y41866D01*
Y41311D01*
X43555Y41299D01*
X43553Y41288D01*
X43582Y41164D01*
X43607Y41040D01*
X43614Y41030D01*
X43616Y41018D01*
X44997Y37975D01*
X45060Y37887D01*
X45115Y37793D01*
X46623Y36119D01*
X46638Y36107D01*
X46649Y36092D01*
X47400Y35340D01*
X47614Y35080D01*
X48014Y34110D01*
X48224Y33028D01*
X48193Y32874D01*
X48301Y32333D01*
X48607Y31875D01*
X49066Y31569D01*
X49606Y31461D01*
X50466Y31198D01*
X51442Y30066D01*
X52022Y27482D01*
X52077Y27358D01*
X52131Y27233D01*
X52611Y26542D01*
X52633Y26503D01*
X52823Y26126D01*
X51395Y24587D01*
X51266Y24640D01*
X50032Y24803D01*
X48796Y24640D01*
X47646Y24164D01*
X46657Y23405D01*
X45899Y22417D01*
X45423Y21267D01*
X45260Y20031D01*
X45423Y18797D01*
X45899Y17646D01*
X46154Y17314D01*
X43428Y14588D01*
X43252Y14325D01*
X43191Y14016D01*
X43191Y14016D01*
Y8851D01*
X42352Y8012D01*
X31943D01*
X31576Y9947D01*
X32035Y10253D01*
X32035Y10253D01*
X32341Y10711D01*
Y10711D01*
X32448Y11252D01*
X32341Y11793D01*
Y11793D01*
X32341Y11793D01*
X32284Y11878D01*
X32084Y12648D01*
X32248Y13960D01*
X32370Y14215D01*
X32565Y14507D01*
Y14507D01*
X32673Y15048D01*
X32565Y15589D01*
Y15589D01*
X32565Y15589D01*
X32259Y16047D01*
X32259Y16047D01*
X31800Y16353D01*
X31260Y16461D01*
X31260Y16461D01*
X30263Y18076D01*
X30238Y18760D01*
X30250Y18854D01*
X30315Y19234D01*
X30408Y19373D01*
X30515Y19913D01*
X30481Y20088D01*
X30849Y20997D01*
X31692Y22037D01*
X31773Y22053D01*
X32231Y22359D01*
X32538Y22817D01*
X32645Y23358D01*
X32538Y23899D01*
X32231Y24357D01*
X31773Y24664D01*
X31232Y24771D01*
X30692Y24664D01*
X30233Y24357D01*
X29927Y23899D01*
X29819Y23358D01*
X28222Y22474D01*
X28056Y22441D01*
X27793Y22265D01*
X27793Y22265D01*
X25621Y20093D01*
X-633D01*
X-2426Y21063D01*
X-2533Y21604D01*
X-2533Y21604D01*
X-2839Y22062D01*
X-2839Y22062D01*
X-2840Y22062D01*
X-3298Y22368D01*
X-3298Y22368D01*
X-3839Y22476D01*
X-4379Y22368D01*
X-4379Y22368D01*
X-4838Y22062D01*
Y22062D01*
X-5144Y21604D01*
X-5144Y21604D01*
X-5252Y21063D01*
X-7044Y20093D01*
X-7677Y20093D01*
X-9189Y21194D01*
X-9189D01*
X-9189Y21194D01*
X-9189D01*
X-12389Y24395D01*
X-13835Y25840D01*
X-13835D01*
X-13835Y25840D01*
X-13835Y25840D01*
X-13835Y25840D01*
X-14157Y26163D01*
X-14420Y26338D01*
X-14730Y26400D01*
X-14874Y26400D01*
X-15068D01*
X-16093Y26896D01*
X-16634Y27003D01*
X-16634Y27003D01*
X-16800Y26970D01*
X-17175Y26896D01*
X-17175Y26896D01*
X-17633Y26590D01*
X-17939Y26131D01*
Y26131D01*
X-18047Y25591D01*
X-17939Y25050D01*
X-17939Y25050D01*
X-17633Y24591D01*
X-17633Y24591D01*
X-17175Y24285D01*
X-16634Y24178D01*
X-15936Y24212D01*
X-15034Y24256D01*
X-15034Y24256D01*
X-15034Y24256D01*
Y24256D01*
X-13911Y23628D01*
X-11929Y21645D01*
X-12570Y19503D01*
X-12846Y19446D01*
X-13139Y19569D01*
X-14695Y20557D01*
X-15001Y21015D01*
X-15001D01*
X-15459Y21321D01*
X-15459Y21321D01*
X-15459D01*
X-16000Y21429D01*
X-16541Y21321D01*
X-16541D01*
X-16999Y21015D01*
X-16999Y21015D01*
X-17305Y20557D01*
X-17413Y20016D01*
X-17413Y20016D01*
X-17305Y19475D01*
Y19475D01*
X-16999Y19017D01*
X-16643Y18779D01*
X-16545Y18049D01*
X-16548Y17457D01*
X-16649Y16725D01*
X-17011Y16483D01*
X-17011Y16483D01*
X-17317Y16025D01*
X-17317Y16025D01*
Y16025D01*
X-17425Y15484D01*
X-17317Y14944D01*
Y14943D01*
X-17201Y14770D01*
X-16998Y14381D01*
X-16858Y13212D01*
X-17120Y12383D01*
X-17228Y11842D01*
X-17120Y11302D01*
X-16814Y10843D01*
X-16356Y10537D01*
X-16185Y8502D01*
X-16295Y8313D01*
X-16295Y8313D01*
X-16604Y8252D01*
X-16867Y8076D01*
X-16867Y8076D01*
X-17222Y7721D01*
X-42100D01*
X-42813Y8434D01*
X-43691Y10039D01*
D01*
Y14516D01*
X-43752Y14825D01*
X-43928Y15088D01*
X-46118Y17278D01*
X-45836Y17646D01*
X-45360Y18797D01*
X-45197Y20031D01*
X-45360Y21267D01*
X-45836Y22417D01*
X-46595Y23405D01*
X-47583Y24164D01*
X-48734Y24640D01*
X-49212Y24703D01*
X-49496Y24882D01*
X-50630Y26144D01*
X-50738Y26362D01*
X-50609Y27125D01*
X-49951Y27927D01*
X-49493Y28233D01*
X-49187Y28692D01*
X-49079Y29232D01*
X-49003Y30090D01*
X-48422Y31096D01*
X-48072Y31378D01*
X-47918Y31481D01*
X-47612Y31940D01*
X-47504Y32480D01*
X-47612Y33021D01*
X-47718Y33180D01*
X-47738Y34113D01*
X-47380Y35368D01*
X-46583Y36165D01*
X-46573Y36181D01*
X-46558Y36192D01*
X-45050Y37867D01*
X-44994Y37960D01*
X-44931Y38048D01*
X-43550Y41092D01*
X-43548Y41103D01*
X-43541Y41113D01*
X-43516Y41238D01*
X-43488Y41361D01*
X-43489Y41373D01*
X-43487Y41385D01*
Y41939D01*
X-43505Y42030D01*
X-43511Y42122D01*
X-43606Y42481D01*
X-41955Y44314D01*
X-40002Y44443D01*
X-39074D01*
X-38992Y44459D01*
X-38908Y44462D01*
X-38857Y44486D01*
X-38802Y44497D01*
X-38733Y44543D01*
X-38657Y44578D01*
X-37026Y45763D01*
X-36079Y45504D01*
X-35111Y44831D01*
X-34961Y43694D01*
X-34445Y42447D01*
X-33623Y41377D01*
X-32553Y40555D01*
X-31306Y40039D01*
X-29969Y39863D01*
X-28631Y40039D01*
X-27384Y40555D01*
X-26314Y41377D01*
X-25492Y42447D01*
X-24976Y43694D01*
X-24800Y45031D01*
X-24976Y46369D01*
X-25492Y47616D01*
X-26314Y48686D01*
X-27384Y49508D01*
X-28035Y49777D01*
X-28178Y50601D01*
X-28198Y50952D01*
X-28024Y51843D01*
X-26177Y52665D01*
X-26092Y52724D01*
X-26003Y52775D01*
X-23176Y55207D01*
X-23159Y55228D01*
X-23137Y55243D01*
X-22842Y55538D01*
X-22797Y55606D01*
X-22741Y55665D01*
X-22721Y55720D01*
X-22689Y55768D01*
X-22673Y55848D01*
X-22644Y55924D01*
X-22605Y56161D01*
X-20798Y57092D01*
X-19504Y56559D01*
X-19008Y54636D01*
X-19105Y54509D01*
X-19443Y53694D01*
X-19532Y53019D01*
X-16177D01*
X-12821D01*
X-12910Y53694D01*
X-13248Y54509D01*
X-13785Y55210D01*
X-13797Y55219D01*
X-13808Y55253D01*
X-13878Y55623D01*
X-13657Y57321D01*
X-13598Y57432D01*
X-11104Y58842D01*
X-11032Y58904D01*
X-10952Y58957D01*
X-10603Y59307D01*
X-10597Y59315D01*
X-10589Y59320D01*
X-10520Y59429D01*
X-10449Y59537D01*
X-10447Y59546D01*
X-10442Y59554D01*
X-10266Y60013D01*
X-7859Y60525D01*
X-7859Y60525D01*
Y60524D01*
X-6315Y59500D01*
X-5661Y58991D01*
X-5576Y58948D01*
X-5497Y58895D01*
X-5454Y58887D01*
X-5414Y58867D01*
X-5319Y58860D01*
X-5226Y58842D01*
X-1861D01*
X-1755Y58863D01*
X-1647Y58874D01*
X8Y59398D01*
X1486Y59865D01*
X1513Y59880D01*
X1543Y59886D01*
X1616Y59930D01*
X1728Y59998D01*
X1774Y60040D01*
X2179Y60445D01*
X2181Y60447D01*
X2220Y60506D01*
X2273Y60560D01*
X2454Y60836D01*
X3112Y60836D01*
X4928D01*
Y64553D01*
X6521Y66116D01*
X7337Y66087D01*
D02*
G37*
G36*
X58335Y17296D02*
X58944Y15424D01*
X59430Y13926D01*
X59649Y13829D01*
X59786Y13455D01*
X59949Y11492D01*
X59949D01*
X60210Y9007D01*
X59990Y8824D01*
X59956Y8790D01*
X59940Y8779D01*
X59940Y8779D01*
X59562Y8402D01*
X59474Y8294D01*
X59434Y8219D01*
X59409Y8172D01*
X59395Y8103D01*
X59368Y8039D01*
X59061Y6497D01*
X58748Y4925D01*
X58748Y4855D01*
X58735Y4787D01*
Y3642D01*
X58742Y3605D01*
X58738Y3568D01*
X58974Y1329D01*
X59001Y1241D01*
X59017Y1150D01*
X59042Y1110D01*
X59056Y1065D01*
X59115Y994D01*
X59164Y916D01*
X59843Y198D01*
X61019Y-1283D01*
X61019D01*
X61019Y-1283D01*
X60761Y-3732D01*
X60394Y-3920D01*
X60307Y-3988D01*
X60215Y-4050D01*
X59837Y-4428D01*
X59764Y-4537D01*
X59689Y-4645D01*
X58328Y-7759D01*
X58305Y-7865D01*
X58273Y-7968D01*
X58038Y-10207D01*
X58041Y-10244D01*
X58034Y-10281D01*
Y-11426D01*
X58046Y-11488D01*
X58044Y-11550D01*
X58073Y-11622D01*
X58087Y-11698D01*
X58122Y-11750D01*
X58145Y-11808D01*
X58508Y-12376D01*
X59405Y-13973D01*
X59405D01*
Y-13973D01*
X58643Y-16319D01*
X58094Y-16467D01*
X58053Y-16488D01*
X58008Y-16497D01*
X57930Y-16548D01*
X57846Y-16590D01*
X57816Y-16625D01*
X57778Y-16650D01*
X57456Y-16972D01*
X57422Y-17023D01*
X57378Y-17065D01*
X56498Y-18314D01*
X56346Y-18348D01*
X54327Y-17977D01*
X54164Y-17583D01*
X53405Y-16594D01*
X52752Y-16093D01*
X52563Y-14968D01*
X52752Y-13844D01*
X53405Y-13342D01*
X54164Y-12354D01*
X54640Y-11203D01*
X54803Y-9968D01*
X54640Y-8733D01*
X54164Y-7583D01*
X53405Y-6594D01*
X52752Y-6093D01*
X52563Y-4969D01*
X52752Y-3844D01*
X53405Y-3342D01*
X54164Y-2354D01*
X54640Y-1204D01*
X54803Y32D01*
X54640Y1266D01*
X54164Y2417D01*
X53405Y3405D01*
X52752Y3907D01*
X52563Y5032D01*
X52752Y6156D01*
X53405Y6657D01*
X54164Y7646D01*
X54640Y8796D01*
X54803Y10031D01*
X54640Y11266D01*
X54164Y12417D01*
X53405Y13406D01*
X52752Y13907D01*
X52563Y15032D01*
X52752Y16156D01*
X53405Y16657D01*
X53894Y17295D01*
X54639Y17731D01*
X56054Y17986D01*
X56054Y17986D01*
X56595Y17878D01*
X57135Y17986D01*
X58335Y17296D01*
D02*
G37*
G36*
X-10997Y14099D02*
X-10141Y13614D01*
X-10034Y13073D01*
X-10034Y13073D01*
X-9727Y12615D01*
X-9269Y12309D01*
X-9269Y12309D01*
X-8728Y12201D01*
X-8728Y12201D01*
X-8188Y12309D01*
X-7881Y12514D01*
X-7729Y12615D01*
X-7729Y12615D01*
Y12615D01*
X-7602Y12805D01*
X2D01*
X72Y12451D01*
X379Y11993D01*
X837Y11687D01*
X1378Y11579D01*
X1919Y11687D01*
X2377Y11993D01*
X3354Y12176D01*
X4011Y11907D01*
X4551Y11800D01*
X5092Y11907D01*
X5427Y12131D01*
X7282Y12403D01*
Y12403D01*
X28099D01*
X29622Y11252D01*
X29646Y11135D01*
X29730Y10711D01*
X30036Y10253D01*
X30495Y9947D01*
X30495Y9947D01*
X30128Y8012D01*
X18164D01*
X17809Y8367D01*
X17547Y8543D01*
X17237Y8604D01*
X17237Y8604D01*
X16273D01*
X15999Y9015D01*
X15541Y9321D01*
X15000Y9429D01*
X14459Y9321D01*
X14001Y9015D01*
X13695Y8557D01*
X13587Y8016D01*
X13695Y7475D01*
X14001Y7017D01*
X14459Y6710D01*
X15001Y6597D01*
X15087Y6016D01*
X15195Y5475D01*
X15501Y5017D01*
X15959Y4710D01*
X16501Y4597D01*
X16587Y4016D01*
X16695Y3475D01*
X17001Y3017D01*
X17459Y2710D01*
X18001Y2597D01*
X18087Y2016D01*
X18195Y1475D01*
X18195Y1475D01*
X18501Y1017D01*
X18501Y1017D01*
X18959Y710D01*
X18959D01*
X19500Y603D01*
X19500Y603D01*
X20041Y710D01*
X20041D01*
X20041Y710D01*
X20499Y1017D01*
X20499D01*
X20805Y1475D01*
X20805Y1475D01*
X20913Y2016D01*
X20913Y2016D01*
X22660Y2832D01*
X40860D01*
X42503Y1189D01*
Y-4406D01*
X42503Y-4406D01*
X42503D01*
Y-13297D01*
X42503Y-13297D01*
X42565Y-13607D01*
X42740Y-13869D01*
X46140Y-17269D01*
X45899Y-17583D01*
X45423Y-18733D01*
X45260Y-19969D01*
X45423Y-21204D01*
X45899Y-22354D01*
X46657Y-23343D01*
X47646Y-24101D01*
X48796Y-24577D01*
X50032Y-24740D01*
X51266Y-24577D01*
X52417Y-24101D01*
X54288Y-24652D01*
X54323Y-24704D01*
X54947Y-26454D01*
X53959Y-28165D01*
X53252Y-28210D01*
X53148Y-28238D01*
X53042Y-28256D01*
X53015Y-28273D01*
X52985Y-28281D01*
X52899Y-28347D01*
X52808Y-28404D01*
X50626Y-30482D01*
X50621Y-30489D01*
X50614Y-30494D01*
X49765Y-31343D01*
X49714Y-31420D01*
X49653Y-31490D01*
X48529Y-33435D01*
X48514Y-33479D01*
X48488Y-33518D01*
X48470Y-33609D01*
X48441Y-33697D01*
X48444Y-33744D01*
X48434Y-33790D01*
Y-35084D01*
X48549Y-36960D01*
X46885Y-38808D01*
X46581Y-38762D01*
X46527Y-38764D01*
X46475Y-38754D01*
X45920D01*
X45871Y-38763D01*
X45820Y-38761D01*
X45736Y-38790D01*
X45649Y-38808D01*
X45607Y-38836D01*
X45559Y-38852D01*
X42778Y-40495D01*
X42711Y-40554D01*
X42637Y-40604D01*
X41840Y-41401D01*
X41830Y-41416D01*
X41815Y-41428D01*
X40307Y-43102D01*
X40258Y-43185D01*
X40199Y-43262D01*
X40188Y-43303D01*
X40166Y-43340D01*
X40152Y-43435D01*
X40127Y-43528D01*
X40114Y-43718D01*
X38107Y-44201D01*
X36304Y-41203D01*
X36292Y-41190D01*
X36133Y-40892D01*
X35220Y-39780D01*
X34108Y-38867D01*
X32840Y-38189D01*
X31463Y-37772D01*
X30031Y-37631D01*
X28986Y-37734D01*
X28955Y-37732D01*
X27757Y-37909D01*
X23602Y-38524D01*
X23083Y-38073D01*
X22200Y-36742D01*
X22212Y-36681D01*
X22212Y-36681D01*
X22211Y-36676D01*
X22184Y-36540D01*
X22106Y-36020D01*
X22114Y-35259D01*
X22203Y-34171D01*
X22294Y-33711D01*
X22311Y-33630D01*
X22311Y-33630D01*
X22203Y-33089D01*
X22198Y-32154D01*
X22203Y-31218D01*
X22311Y-30677D01*
X22311Y-30677D01*
X22311Y-30677D01*
X22304Y-30642D01*
X22203Y-30136D01*
X21897Y-29678D01*
X21897D01*
X21438Y-29372D01*
X21438Y-29372D01*
X20898Y-29264D01*
X20357Y-29372D01*
X20357Y-29372D01*
X19898Y-29678D01*
X19898D01*
X19592Y-30136D01*
X19492Y-30642D01*
X19485Y-30677D01*
X19485Y-30677D01*
X19485Y-30677D01*
X19592Y-31218D01*
X19597Y-32154D01*
X19592Y-33089D01*
X19485Y-33630D01*
X19485Y-33630D01*
X19492Y-33665D01*
X19513Y-33771D01*
X19591Y-34292D01*
X19583Y-35052D01*
X19494Y-36140D01*
X19402Y-36600D01*
X19386Y-36681D01*
X19386Y-36681D01*
X19494Y-37222D01*
X19497Y-38093D01*
X19474Y-39118D01*
X19366Y-39659D01*
X19366Y-39659D01*
X19367Y-39663D01*
X19474Y-40200D01*
X19775Y-40740D01*
X19712Y-41754D01*
X19406Y-42213D01*
X19298Y-42754D01*
X19406Y-43295D01*
X19406Y-43295D01*
X19699Y-43853D01*
X19576Y-44799D01*
X19270Y-45257D01*
Y-45257D01*
X19162Y-45798D01*
X19162Y-45798D01*
X19270Y-46338D01*
X19576Y-46797D01*
X19576Y-46797D01*
X20034Y-47103D01*
X20575Y-47211D01*
X21116Y-47103D01*
X21116Y-47103D01*
X21116Y-47103D01*
X21153Y-47078D01*
X25801Y-49819D01*
X25650Y-51725D01*
X25536Y-51949D01*
X5917D01*
X5724Y-51658D01*
X5723Y-51658D01*
X5265Y-51352D01*
X4724Y-51244D01*
X4184Y-51352D01*
X4184Y-51352D01*
X3725Y-51658D01*
X3544Y-51930D01*
X3385Y-52139D01*
X2378Y-52813D01*
X1445Y-52968D01*
X904Y-53076D01*
X904Y-53076D01*
X445Y-53382D01*
X139Y-53841D01*
X-617Y-54563D01*
X-1542Y-54822D01*
X-2082Y-54929D01*
X-2541Y-55236D01*
X-3430Y-55300D01*
X-3888Y-54994D01*
X-4429Y-54886D01*
X-5357Y-54695D01*
X-6273Y-53987D01*
X-6580Y-53528D01*
X-7038Y-53222D01*
X-7038Y-53222D01*
X-7421Y-53146D01*
X-7579Y-53115D01*
X-7579D01*
X-8445Y-52977D01*
X-9324Y-52314D01*
X-9631Y-51855D01*
X-10089Y-51549D01*
X-10089Y-51549D01*
X-10630Y-51441D01*
X-11171Y-51549D01*
X-11629Y-51855D01*
X-11629Y-51855D01*
X-11823Y-52145D01*
X-14753D01*
X-21031Y-45868D01*
Y-41932D01*
X-21084Y-41660D01*
X-21238Y-41431D01*
X-22175Y-40494D01*
X-22209Y-39932D01*
X-21836Y-38204D01*
X-21774Y-38111D01*
Y-38111D01*
X-21529Y-37745D01*
Y-37745D01*
X-21422Y-37205D01*
X-21422Y-37205D01*
X-21521Y-36704D01*
X-21529Y-36664D01*
X-21529Y-36664D01*
X-21431Y-35088D01*
X-21323Y-34547D01*
X-21431Y-34007D01*
X-21737Y-33548D01*
X-21737Y-32987D01*
X-21431Y-32529D01*
X-21323Y-31988D01*
X-21431Y-31447D01*
X-21737Y-30989D01*
X-22196Y-30683D01*
X-22736Y-30575D01*
X-23277Y-30683D01*
X-23735Y-30989D01*
X-24042Y-31447D01*
X-24149Y-31988D01*
X-24042Y-32529D01*
X-23735Y-32987D01*
X-23735Y-33548D01*
X-24042Y-34007D01*
Y-34007D01*
X-24149Y-34547D01*
X-24259Y-35366D01*
X-25296Y-36691D01*
X-25695Y-36793D01*
X-26025Y-36820D01*
X-26171Y-36791D01*
X-46760D01*
X-48425Y-35237D01*
X-48484Y-35077D01*
X-48476Y-35011D01*
Y-33716D01*
X-48485Y-33671D01*
X-48482Y-33624D01*
X-48512Y-33536D01*
X-48530Y-33445D01*
X-48556Y-33406D01*
X-48571Y-33362D01*
X-49694Y-31417D01*
X-49756Y-31347D01*
X-49807Y-31270D01*
X-50656Y-30421D01*
X-50663Y-30416D01*
X-50668Y-30409D01*
X-52850Y-28331D01*
X-52941Y-28273D01*
X-53027Y-28208D01*
X-53057Y-28200D01*
X-53084Y-28183D01*
X-53190Y-28165D01*
X-53294Y-28137D01*
X-54001Y-28092D01*
X-55091Y-26203D01*
X-54483Y-24648D01*
X-54380Y-24478D01*
X-52395Y-24069D01*
X-52354Y-24101D01*
X-51204Y-24577D01*
X-49968Y-24740D01*
X-48734Y-24577D01*
X-47583Y-24101D01*
X-46595Y-23343D01*
X-45836Y-22354D01*
X-45360Y-21204D01*
X-45197Y-19969D01*
X-45360Y-18733D01*
X-45836Y-17583D01*
X-46104Y-17233D01*
X-42588Y-13717D01*
X-42413Y-13454D01*
X-42355Y-13165D01*
X-42351Y-13145D01*
X-40637Y-12463D01*
X-40393Y-12439D01*
X-40380Y-12450D01*
X-40075Y-12907D01*
X-40074Y-12909D01*
X-40074Y-12909D01*
X-39615Y-13215D01*
X-39075Y-13322D01*
X-38534Y-13215D01*
X-38534Y-13215D01*
X-38076Y-12909D01*
X-37769Y-12450D01*
X-37662Y-11909D01*
X-37769Y-11369D01*
X-38076Y-10910D01*
X-38534Y-10604D01*
X-38534Y-10604D01*
X-39075Y-10497D01*
X-39615Y-10604D01*
X-40074Y-10910D01*
X-40074Y-10910D01*
X-40380Y-11369D01*
X-40393Y-11380D01*
X-42351Y-11187D01*
Y-4253D01*
X-42351D01*
X-42351Y-4253D01*
Y1841D01*
X-41652Y2540D01*
X-22251D01*
X-20413Y2016D01*
X-20305Y1475D01*
X-20305Y1475D01*
X-19999Y1017D01*
X-19541Y710D01*
X-19541Y710D01*
X-19000Y603D01*
X-19000Y603D01*
X-18459Y710D01*
X-18001Y1017D01*
X-18001Y1017D01*
X-17695Y1475D01*
X-17695Y1475D01*
X-17577Y1746D01*
X-17276Y2435D01*
X-17276Y2435D01*
X-16736Y2542D01*
X-16277Y2849D01*
Y2849D01*
X-15971Y3307D01*
X-15971Y3307D01*
X-15864Y3848D01*
X-15558Y4312D01*
X-15017Y4419D01*
X-15017D01*
X-14559Y4725D01*
X-14252Y5184D01*
X-13844Y6163D01*
X-13844Y6163D01*
X-13304Y6271D01*
X-13304Y6271D01*
X-12845Y6577D01*
X-12845Y6577D01*
X-12539Y7035D01*
X-12539Y7035D01*
X-12431Y7576D01*
X-12431Y7576D01*
X-12539Y8117D01*
X-12539Y8117D01*
X-12845Y8575D01*
X-12845Y8575D01*
X-13304Y8882D01*
X-13304Y8882D01*
X-13844Y8989D01*
X-13844Y8989D01*
X-14385Y8882D01*
X-15228Y10568D01*
X-14816Y10843D01*
X-14510Y11302D01*
X-14402Y11842D01*
X-14416Y11914D01*
X-12008Y14323D01*
X-10997Y14099D01*
D02*
G37*
G36*
X-54577Y18797D02*
X-54101Y17646D01*
X-53342Y16657D01*
X-52689Y16156D01*
X-52500Y15032D01*
X-52689Y13907D01*
X-53342Y13406D01*
X-54101Y12417D01*
X-54577Y11266D01*
X-54740Y10031D01*
X-54577Y8796D01*
X-54101Y7646D01*
X-53342Y6657D01*
X-52689Y6156D01*
X-52500Y5032D01*
X-52689Y3907D01*
X-53342Y3405D01*
X-54101Y2417D01*
X-54577Y1266D01*
X-54740Y32D01*
X-54577Y-1204D01*
X-54101Y-2354D01*
X-53342Y-3342D01*
X-52689Y-3844D01*
X-52500Y-4969D01*
X-52689Y-6093D01*
X-53342Y-6594D01*
X-54101Y-7583D01*
X-54577Y-8733D01*
X-54740Y-9968D01*
X-54577Y-11203D01*
X-54101Y-12354D01*
X-53342Y-13342D01*
X-52689Y-13844D01*
X-52500Y-14968D01*
X-52689Y-16093D01*
X-53342Y-16594D01*
X-54101Y-17583D01*
X-54264Y-17976D01*
X-56284Y-18347D01*
X-56435Y-18313D01*
X-57432Y-16898D01*
X-57476Y-16856D01*
X-57510Y-16805D01*
X-57832Y-16483D01*
X-57870Y-16457D01*
X-57900Y-16423D01*
X-57984Y-16381D01*
X-58061Y-16330D01*
X-58107Y-16320D01*
X-58148Y-16300D01*
X-58697Y-16152D01*
X-59459Y-13806D01*
Y-13806D01*
X-59459D01*
X-58494Y-12237D01*
X-58159Y-11728D01*
X-58134Y-11666D01*
X-58096Y-11610D01*
X-58082Y-11539D01*
X-58055Y-11472D01*
X-58056Y-11405D01*
X-58043Y-11338D01*
Y-10193D01*
X-58050Y-10157D01*
X-58047Y-10119D01*
X-58282Y-7880D01*
X-58314Y-7777D01*
X-58337Y-7671D01*
X-59698Y-4557D01*
X-59773Y-4449D01*
X-59846Y-4340D01*
X-60224Y-3962D01*
X-60316Y-3900D01*
X-60403Y-3832D01*
X-60770Y-3644D01*
X-61026Y-1209D01*
X-60186Y-414D01*
X-60180Y-405D01*
X-60172Y-400D01*
X-59214Y558D01*
X-59157Y643D01*
X-59092Y721D01*
X-59081Y757D01*
X-59060Y788D01*
X-59040Y888D01*
X-59010Y985D01*
X-58775Y3224D01*
X-58778Y3261D01*
X-58771Y3298D01*
Y4443D01*
X-58785Y4512D01*
X-58785Y4582D01*
X-59405Y7695D01*
X-59431Y7760D01*
X-59445Y7828D01*
X-59484Y7886D01*
X-59511Y7951D01*
X-59560Y8000D01*
X-59599Y8058D01*
X-59977Y8436D01*
X-60005Y8455D01*
X-60026Y8481D01*
X-60246Y8663D01*
X-59985Y11149D01*
X-58643Y12195D01*
X-58563Y12252D01*
X-58563Y12252D01*
X-58542Y12273D01*
X-58456Y12340D01*
X-57554Y13242D01*
X-57539Y13265D01*
X-57517Y13283D01*
X-57463Y13380D01*
X-57401Y13472D01*
X-57395Y13500D01*
X-57381Y13524D01*
X-56688Y15660D01*
X-56676Y15760D01*
X-56653Y15859D01*
X-56571Y18854D01*
X-54598Y18956D01*
X-54577Y18797D01*
D02*
G37*
%LPC*%
G36*
X17176Y52619D02*
X14023D01*
Y49466D01*
X17176D01*
Y52619D01*
D02*
G37*
G36*
X13623D02*
X10471D01*
Y49466D01*
X13623D01*
Y52619D01*
D02*
G37*
G36*
X-12821D02*
X-15977D01*
Y49463D01*
X-15302Y49552D01*
X-14486Y49890D01*
X-13785Y50427D01*
X-13248Y51128D01*
X-12910Y51943D01*
X-12821Y52619D01*
D02*
G37*
G36*
X-16377D02*
X-19532D01*
X-19443Y51943D01*
X-19105Y51128D01*
X-18568Y50427D01*
X-17867Y49890D01*
X-17052Y49552D01*
X-16377Y49463D01*
Y52619D01*
D02*
G37*
G36*
X3823Y56200D02*
X2948Y56085D01*
X2132Y55747D01*
X1432Y55210D01*
X895Y54509D01*
X557Y53694D01*
X442Y52819D01*
X557Y51943D01*
X895Y51128D01*
X1432Y50427D01*
X2132Y49890D01*
X2948Y49552D01*
X3823Y49437D01*
X4699Y49552D01*
X5514Y49890D01*
X6214Y50427D01*
X6752Y51128D01*
X7090Y51943D01*
X7205Y52819D01*
X7090Y53694D01*
X6752Y54509D01*
X6214Y55210D01*
X5514Y55747D01*
X4699Y56085D01*
X3823Y56200D01*
D02*
G37*
G36*
X-6177D02*
X-7052Y56085D01*
X-7868Y55747D01*
X-8568Y55210D01*
X-9105Y54509D01*
X-9443Y53694D01*
X-9558Y52819D01*
X-9443Y51943D01*
X-9105Y51128D01*
X-8568Y50427D01*
X-7868Y49890D01*
X-7052Y49552D01*
X-6177Y49437D01*
X-5301Y49552D01*
X-4486Y49890D01*
X-3785Y50427D01*
X-3248Y51128D01*
X-2910Y51943D01*
X-2795Y52819D01*
X-2910Y53694D01*
X-3248Y54509D01*
X-3785Y55210D01*
X-4486Y55747D01*
X-5301Y56085D01*
X-6177Y56200D01*
D02*
G37*
G36*
X-15977Y46134D02*
Y42979D01*
X-12821D01*
X-12910Y43654D01*
X-13248Y44470D01*
X-13785Y45170D01*
X-14486Y45708D01*
X-15301Y46046D01*
X-15977Y46134D01*
D02*
G37*
G36*
X17176Y46132D02*
X14023D01*
Y42979D01*
X17176D01*
Y46132D01*
D02*
G37*
G36*
X13623D02*
X10471D01*
Y42979D01*
X13623D01*
Y46132D01*
D02*
G37*
G36*
X-16377Y46134D02*
X-17052Y46046D01*
X-17867Y45708D01*
X-18568Y45170D01*
X-19105Y44470D01*
X-19443Y43654D01*
X-19532Y42979D01*
X-16377D01*
Y46134D01*
D02*
G37*
G36*
X17176Y42579D02*
X14023D01*
Y39426D01*
X17176D01*
Y42579D01*
D02*
G37*
G36*
X13623D02*
X10471D01*
Y39426D01*
X13623D01*
Y42579D01*
D02*
G37*
G36*
X-12821D02*
X-15977D01*
Y39424D01*
X-15301Y39513D01*
X-14486Y39851D01*
X-13785Y40388D01*
X-13248Y41088D01*
X-12910Y41904D01*
X-12821Y42579D01*
D02*
G37*
G36*
X-16377D02*
X-19532D01*
X-19443Y41904D01*
X-19105Y41088D01*
X-18568Y40388D01*
X-17867Y39851D01*
X-17052Y39513D01*
X-16377Y39424D01*
Y42579D01*
D02*
G37*
G36*
X3823Y46161D02*
X2948Y46046D01*
X2132Y45708D01*
X1432Y45170D01*
X895Y44470D01*
X557Y43654D01*
X442Y42779D01*
X557Y41904D01*
X895Y41088D01*
X1432Y40388D01*
X2132Y39851D01*
X2948Y39513D01*
X3823Y39397D01*
X4699Y39513D01*
X5514Y39851D01*
X6214Y40388D01*
X6752Y41088D01*
X7090Y41904D01*
X7205Y42779D01*
X7090Y43654D01*
X6752Y44470D01*
X6214Y45170D01*
X5514Y45708D01*
X4699Y46046D01*
X3823Y46161D01*
D02*
G37*
G36*
X-6177D02*
X-7052Y46046D01*
X-7868Y45708D01*
X-8568Y45170D01*
X-9105Y44470D01*
X-9443Y43654D01*
X-9558Y42779D01*
X-9443Y41904D01*
X-9105Y41088D01*
X-8568Y40388D01*
X-7868Y39851D01*
X-7052Y39513D01*
X-6177Y39397D01*
X-5301Y39513D01*
X-4486Y39851D01*
X-3785Y40388D01*
X-3248Y41088D01*
X-2910Y41904D01*
X-2795Y42779D01*
X-2910Y43654D01*
X-3248Y44470D01*
X-3785Y45170D01*
X-4486Y45708D01*
X-5301Y46046D01*
X-6177Y46161D01*
D02*
G37*
G36*
X-9055Y36649D02*
X-9596Y36542D01*
X-10054Y36235D01*
X-10361Y35777D01*
X-10468Y35236D01*
X-10361Y34696D01*
X-10054Y34237D01*
X-9596Y33931D01*
X-9055Y33823D01*
X-8693Y33895D01*
X-8674Y33877D01*
X-8674Y33877D01*
X-8411Y33701D01*
X-8102Y33640D01*
X9284D01*
X10318Y33639D01*
X10318Y33639D01*
X10764Y33292D01*
X10767Y33290D01*
X12030Y31844D01*
Y31844D01*
X12030Y31844D01*
X12336Y31386D01*
X12795Y31080D01*
X12795Y31080D01*
X12795Y31080D01*
X13336Y30972D01*
X13336Y30972D01*
X13876Y31080D01*
X14335Y31386D01*
X14335D01*
X15138Y31108D01*
X15679Y31000D01*
X16219Y31108D01*
X16678Y31414D01*
X16984Y31873D01*
X18250Y33290D01*
X18713Y33639D01*
X24763D01*
X26234Y32169D01*
X26234Y32169D01*
X26497Y31993D01*
X26806Y31932D01*
X26806Y31932D01*
X29838D01*
X29838Y31932D01*
X30147Y31993D01*
X30809Y32298D01*
X31840Y32631D01*
X31840Y32631D01*
X32298Y32937D01*
Y32937D01*
X32605Y33395D01*
X32605Y33395D01*
X32712Y33936D01*
X32712Y33936D01*
X32605Y34477D01*
X32605Y34477D01*
X32298Y34935D01*
X32298Y34935D01*
X31840Y35241D01*
X31840Y35241D01*
X31299Y35349D01*
X31299Y35349D01*
X30759Y35241D01*
X30759D01*
X30300Y34935D01*
X29994Y34477D01*
X29886Y33936D01*
X27956Y33550D01*
X27142Y33550D01*
X25671Y35021D01*
X25408Y35197D01*
X25098Y35258D01*
X25098Y35258D01*
X19269D01*
X17712D01*
X15493Y35258D01*
X15493Y35258D01*
X13563D01*
X13563Y35258D01*
X11283Y35258D01*
X9823D01*
X-7647Y35258D01*
X-7750Y35777D01*
X-8056Y36235D01*
X-8514Y36542D01*
X-9055Y36649D01*
D02*
G37*
G36*
X-15618Y-2886D02*
X-15618Y-2886D01*
X-16159Y-2994D01*
X-16617Y-3300D01*
X-16617D01*
X-16770Y-3528D01*
X-16924Y-3759D01*
X-16968Y-3983D01*
X-18174Y-4531D01*
X-18960Y-4690D01*
X-19243Y-4502D01*
X-19243Y-4502D01*
X-19423Y-4466D01*
X-19783Y-4394D01*
X-19783Y-4394D01*
X-20324Y-4502D01*
X-20783Y-4808D01*
X-20783D01*
X-21089Y-5266D01*
X-21089Y-5266D01*
X-21196Y-5807D01*
X-21089Y-6348D01*
X-20783Y-6806D01*
X-20324Y-7113D01*
X-19783Y-7220D01*
X-19783Y-7220D01*
X-19243Y-7113D01*
X-18784Y-6806D01*
X-18478Y-6348D01*
X-18478Y-6348D01*
X-18428Y-6121D01*
X-17228Y-5575D01*
X-16441Y-5416D01*
X-16159Y-5605D01*
X-16159Y-5605D01*
X-16020Y-5632D01*
X-15618Y-5712D01*
X-15618Y-5712D01*
X-15394Y-5668D01*
X-12857Y-8204D01*
X-11064Y-9998D01*
X-11064Y-9998D01*
X-10801Y-10174D01*
X-10782Y-10310D01*
X-10739Y-10608D01*
X-12300Y-12577D01*
X-15482D01*
X-16732Y-12577D01*
X-17042Y-12638D01*
X-17304Y-12814D01*
X-17694Y-13203D01*
X-19210Y-14017D01*
X-19210Y-14017D01*
X-19668Y-14324D01*
Y-14324D01*
X-19975Y-14782D01*
X-19975Y-14782D01*
X-20082Y-15323D01*
X-20082Y-15323D01*
X-19975Y-15864D01*
X-19975Y-15864D01*
X-19669Y-16322D01*
X-19668Y-16322D01*
X-19210Y-16628D01*
X-19210Y-16628D01*
X-18669Y-16736D01*
X-18669Y-16736D01*
X-18129Y-16628D01*
X-18129D01*
X-17670Y-16322D01*
X-17451Y-15993D01*
X-16305Y-14672D01*
X-14650Y-14195D01*
X-10507D01*
X-7480D01*
X3655D01*
X4160D01*
X5505Y-14478D01*
X6293Y-15008D01*
X6316Y-15042D01*
X6774Y-15349D01*
X7315Y-15456D01*
X7856Y-15349D01*
X8314Y-15042D01*
Y-15042D01*
X8620Y-14584D01*
X8620Y-14584D01*
X8728Y-14043D01*
X8620Y-13503D01*
X8620Y-13503D01*
X8620Y-13503D01*
X8314Y-13044D01*
X8314Y-13044D01*
X8314Y-13044D01*
X7856Y-12738D01*
X6902Y-12266D01*
X6113Y-11568D01*
X6113Y-11568D01*
X6112Y-11568D01*
X5654Y-11262D01*
X5654Y-11261D01*
X5654D01*
X5113Y-11154D01*
X5113Y-11154D01*
X4573Y-11261D01*
X4573Y-11261D01*
X4114Y-11568D01*
X4114Y-11568D01*
X3808Y-12026D01*
X3808Y-12026D01*
X3750Y-12319D01*
X3700Y-12567D01*
X3692Y-12577D01*
X-7589Y-12577D01*
X-7685Y-12227D01*
X-8123Y-10613D01*
X-7817Y-10155D01*
X-7709Y-9614D01*
X-7709Y-9614D01*
X-7817Y-9073D01*
X-7817Y-9073D01*
X-8123Y-8615D01*
X-8581Y-8309D01*
X-8581Y-8309D01*
X-8581Y-8309D01*
X-9122Y-8201D01*
X-9122Y-8201D01*
X-9663Y-8309D01*
X-10121Y-8615D01*
X-11454Y-7319D01*
X-14250Y-4523D01*
X-14205Y-4299D01*
X-14205Y-4299D01*
X-14241Y-4120D01*
X-14313Y-3759D01*
X-14619Y-3300D01*
X-14619Y-3300D01*
X-15077Y-2994D01*
X-15077Y-2994D01*
X-15315Y-2946D01*
Y-2946D01*
X-15379Y-2934D01*
X-15618Y-2886D01*
D02*
G37*
G36*
X14500Y-5245D02*
X13732Y-5398D01*
X13081Y-5833D01*
X12646Y-6484D01*
X12493Y-7252D01*
X12646Y-8020D01*
X13081Y-8671D01*
X13732Y-9106D01*
X14500Y-9259D01*
X15268Y-9106D01*
X15919Y-8671D01*
X16354Y-8020D01*
X16507Y-7252D01*
X16354Y-6484D01*
X15919Y-5833D01*
X15268Y-5398D01*
X14500Y-5245D01*
D02*
G37*
G36*
X25228Y-14008D02*
X24688Y-14116D01*
X24229Y-14422D01*
X23923Y-14881D01*
X23815Y-15421D01*
X23923Y-15962D01*
X24229Y-16420D01*
X24688Y-16727D01*
X25228Y-16834D01*
X25769Y-16727D01*
X26228Y-16420D01*
X26534Y-15962D01*
X26641Y-15421D01*
X26534Y-14881D01*
X26228Y-14422D01*
X25769Y-14116D01*
X25228Y-14008D01*
D02*
G37*
G36*
X-18406Y-18666D02*
X-18406Y-18666D01*
X-18946Y-18773D01*
X-18946D01*
X-19405Y-19080D01*
X-19405Y-19080D01*
X-19711Y-19538D01*
X-19711Y-19538D01*
X-19818Y-20079D01*
X-19818Y-20079D01*
X-19711Y-20619D01*
Y-20619D01*
X-19404Y-21083D01*
X-19317Y-22109D01*
X-19613Y-22688D01*
X-19720Y-23228D01*
X-19613Y-23769D01*
X-19613Y-23769D01*
X-19306Y-24227D01*
X-18848Y-24534D01*
X-18307Y-24641D01*
X-18307Y-24641D01*
X-18083Y-24597D01*
X-13883Y-28797D01*
X-13620Y-28973D01*
X-13310Y-29034D01*
X-13310Y-29034D01*
X-12736D01*
X-12483Y-29412D01*
X-12483Y-29412D01*
X-12025Y-29719D01*
X-11484Y-29826D01*
X-11484Y-29826D01*
X-10944Y-29719D01*
X-10943D01*
X-10485Y-29412D01*
X-10179Y-28954D01*
X-10179Y-28954D01*
X-10071Y-28413D01*
X-10071Y-28413D01*
X-10179Y-27873D01*
X-10422Y-27508D01*
X-10485Y-27414D01*
X-10485Y-27414D01*
X-10683Y-27282D01*
Y-23737D01*
X-10683D01*
X-10683Y-23737D01*
X-10501Y-23483D01*
X-10195Y-23026D01*
X-10195Y-23025D01*
X-10195Y-23025D01*
X-10087Y-22484D01*
X-10087Y-22484D01*
X-10195Y-21944D01*
X-10501Y-21485D01*
X-10501D01*
X-10959Y-21179D01*
X-11500Y-21071D01*
X-12041Y-21179D01*
X-12041D01*
X-12041Y-21179D01*
X-12499Y-21485D01*
X-14296Y-21616D01*
X-14712Y-21524D01*
X-16542Y-19695D01*
X-16804Y-19519D01*
X-17114Y-19458D01*
X-17114Y-19458D01*
X-17154D01*
X-17406Y-19080D01*
X-17406Y-19080D01*
X-17865Y-18773D01*
X-17865Y-18773D01*
X-18015Y-18744D01*
X-18406Y-18666D01*
D02*
G37*
G36*
X-27362Y-18666D02*
X-27903Y-18773D01*
X-28361Y-19080D01*
X-28668Y-19538D01*
X-28775Y-20079D01*
X-28727Y-20322D01*
X-28664Y-20767D01*
X-28646Y-21623D01*
X-28766Y-22688D01*
X-28874Y-23228D01*
X-28766Y-23769D01*
X-28460Y-24227D01*
X-28001Y-24534D01*
X-27461Y-24641D01*
X-26920Y-24534D01*
X-26461Y-24227D01*
X-26155Y-23769D01*
X-26048Y-23228D01*
X-26096Y-22985D01*
X-26158Y-22540D01*
X-26176Y-21684D01*
X-26057Y-20619D01*
X-25949Y-20079D01*
X-26057Y-19538D01*
X-26363Y-19080D01*
X-26822Y-18773D01*
X-27362Y-18666D01*
D02*
G37*
%LPD*%
D12*
X35352Y-43504D02*
G03*
X27980Y-39846I-5320J-1464D01*
G01*
X27228Y-49722D02*
G03*
X27489Y-49866I2803J4753D01*
G01*
X35352Y-43504D02*
X37567Y-51526D01*
X20711Y-42754D02*
X27980Y-39846D01*
X20575Y-45798D02*
X27228Y-49722D01*
X27489Y-49866D02*
X34700Y-53609D01*
X-53511Y34891D02*
X-48917Y32480D01*
X-57055Y28754D02*
X-52165Y26280D01*
X-55283Y31822D02*
X-50492Y29232D01*
X-17114Y-20267D02*
X-13500Y-23881D01*
X-18119Y-20267D02*
X-17114D01*
X-18307Y-20079D02*
X-18119Y-20267D01*
X-18307Y-23228D02*
X-13310Y-28225D01*
X-11673D01*
X-11492Y-28405D01*
X-11500Y-22484D02*
X-11492Y-22492D01*
Y-28405D02*
Y-22492D01*
Y-28405D02*
X-11484Y-28413D01*
X-40541Y-61531D02*
X-38091Y-63189D01*
X38484Y-63090D02*
X40485Y-61572D01*
X43352Y-59489D02*
X46219Y-57406D01*
X40485Y-61572D02*
X43352Y-59489D01*
X46219Y-57406D02*
X48524Y-55610D01*
X71178Y19198D02*
X72047Y16634D01*
X68110Y28740D02*
X68988Y25938D01*
X3543Y73638D02*
X6102Y73622D01*
X-6299Y73524D02*
X-3543Y73638D01*
X-68957Y26035D02*
X-68307Y28445D01*
X-72146Y16634D02*
X-71146Y19296D01*
X-48425Y-56102D02*
X-46274Y-57366D01*
X-43408Y-59448D02*
X-40541Y-61531D01*
X-46274Y-57366D02*
X-43408Y-59448D01*
X-21555Y70472D02*
X-18806Y71285D01*
X-72861Y11110D02*
X-72539Y13780D01*
X-73819Y1575D02*
X-73602Y4062D01*
X-35630Y-64764D02*
X-33302Y-65746D01*
X-26828Y-68629D02*
X-24508Y-69685D01*
X50591Y-53740D02*
X52394Y-51821D01*
X57136Y-46554D02*
X58957Y-44587D01*
X65631Y33582D02*
X66831Y31398D01*
X60827Y42028D02*
X62088Y39720D01*
X-11874Y72759D02*
X-9252Y73327D01*
X57203Y46512D02*
X58858Y44685D01*
X-26745Y68697D02*
X-24311Y69685D01*
X-73917Y-1476D02*
X-73615Y-3910D01*
X-21457Y-70768D02*
X-18794Y-71256D01*
X1772Y-73606D02*
X3543D01*
X0D02*
X1772D01*
X3543Y-73613D02*
X6201Y-73622D01*
X1772Y-73606D02*
X3543Y-73613D01*
X-40470Y61615D02*
X-38484Y63090D01*
X-6102Y-73622D02*
X-3543Y-73606D01*
X0D01*
X-15329Y-71993D02*
X-11863Y-72730D01*
X-18794Y-71256D02*
X-15329Y-71993D01*
X-30065Y-67188D02*
X-26828Y-68629D01*
X-33302Y-65746D02*
X-30065Y-67188D01*
X-71206Y-19078D02*
X-70111Y-22448D01*
X-69016Y-25818D01*
X-73615Y-3910D02*
X-73244Y-7434D01*
X-72874Y-10958D01*
X-73232Y7586D02*
X-72861Y11110D01*
X-73602Y4062D02*
X-73232Y7586D01*
X-70051Y22665D02*
X-68957Y26035D01*
X-71146Y19296D02*
X-70051Y22665D01*
X-43336Y59532D02*
X-40470Y61615D01*
X-46203Y57449D02*
X-43336Y59532D01*
X-29982Y67256D02*
X-26745Y68697D01*
X-33219Y65815D02*
X-29982Y67256D01*
X-15340Y72022D02*
X-11874Y72759D01*
X-18806Y71285D02*
X-15340Y72022D01*
X-0Y73638D02*
X3543D01*
X-3543D02*
X-0D01*
X43380Y59500D02*
X46246Y57418D01*
X40513Y61583D02*
X43380Y59500D01*
X52461Y51778D02*
X54832Y49145D01*
X57203Y46512D01*
X62088Y39720D02*
X63860Y36651D01*
X65631Y33582D01*
X68988Y25938D02*
X70083Y22568D01*
X71178Y19198D01*
X70057Y-22615D02*
X71152Y-19245D01*
X68963Y-25985D02*
X70057Y-22615D01*
X63833Y-36666D02*
X65605Y-33597D01*
X62061Y-39735D02*
X63833Y-36666D01*
X54765Y-49187D02*
X57136Y-46554D01*
X52394Y-51821D02*
X54765Y-49187D01*
X31033Y33936D02*
X31299D01*
X26806Y32741D02*
X29838D01*
X31033Y33936D01*
X-8102Y34449D02*
X25098D01*
X-9055Y35236D02*
X-8889D01*
X-8102Y34449D01*
X25098D02*
X26806Y32741D01*
X-14730Y25591D02*
X-8423Y19284D01*
X-16634Y25591D02*
X-14730D01*
X-18669Y-15323D02*
X-16732Y-13386D01*
X4160D01*
X4979Y-12567D01*
X5113D01*
X25956Y19284D02*
X28365Y21693D01*
X-8423Y19284D02*
X25956D01*
X27285Y18096D02*
X29102Y19913D01*
X-14080Y18096D02*
X27285D01*
X-16000Y20016D02*
X-14080Y18096D01*
X7185Y15059D02*
Y16501D01*
X7220Y16535D01*
X-16012Y15484D02*
X-14862Y16634D01*
X-7952Y15354D02*
X2409D01*
X4551Y13213D01*
X-7991Y15394D02*
X-7952Y15354D01*
X-14862Y16634D02*
X7318D01*
X28365Y21693D02*
X29301D01*
X-15632Y11842D02*
X-12120Y15354D01*
X-9505D01*
X-8728Y13614D02*
X756D01*
X1378Y12992D01*
X-50000Y20016D02*
X-44500Y14516D01*
X-50000Y10016D02*
X-47869D01*
X-50000Y-9984D02*
X-44500Y-4484D01*
X-50000Y-19984D02*
X-43160Y-13145D01*
X16500Y6016D02*
X43517D01*
X4551Y13213D02*
X29075D01*
X31035Y11252D01*
X7220Y16535D02*
X29726D01*
X31213Y15048D01*
X31260D01*
X30966Y23358D02*
X31232D01*
X29301Y21693D02*
X30966Y23358D01*
X-9505Y15354D02*
X-9465Y15394D01*
X-7991D01*
X-15815Y11842D02*
X-15632D01*
X-15618Y-4299D02*
X-10492Y-9426D01*
X-9310D02*
X-9122Y-9614D01*
X-10492Y-9426D02*
X-9310D01*
X47869Y10016D02*
X50000D01*
X46001Y8147D02*
X47869Y10016D01*
X45649Y8147D02*
X46001D01*
X15000Y8016D02*
X15188Y7827D01*
X15884D02*
X15916Y7795D01*
X42687Y7203D02*
X44000Y8516D01*
X17237Y7795D02*
X17829Y7203D01*
X44000Y8516D02*
Y14016D01*
X19500Y2016D02*
X21125Y3641D01*
X41687Y4828D02*
X44500Y2016D01*
X18000Y4016D02*
X18141D01*
X-44500Y8977D02*
X-42435Y6912D01*
X-44500Y2516D02*
X-42479Y4537D01*
X-17541Y3848D02*
X-17276D01*
X-43578Y5725D02*
X-15558D01*
X-43160Y-13145D02*
Y2176D01*
X-41987Y3350D01*
X18141Y4016D02*
X18953Y4828D01*
X43517Y6016D02*
X45187Y7686D01*
X41196Y3641D02*
X43313Y1524D01*
X21125Y3641D02*
X41196D01*
X15188Y7827D02*
X15884D01*
X17829Y7203D02*
X42687D01*
X45187Y7686D02*
Y7686D01*
X18953Y4828D02*
X41687D01*
X44500Y-4484D02*
Y2016D01*
Y-4484D02*
X50000Y-9984D01*
X43313Y-13297D02*
Y1524D01*
Y-13297D02*
X50000Y-19984D01*
X-16295Y7504D02*
X-13916D01*
X-13844Y7576D01*
X-42435Y6912D02*
X-16887D01*
X-44500Y8977D02*
Y14516D01*
X-16887Y6912D02*
X-16295Y7504D01*
X-19266Y2016D02*
X-19000D01*
X-41987Y3350D02*
X-20600D01*
X-19266Y2016D01*
X-45825Y7971D02*
X-43578Y5725D01*
X-18230Y4537D02*
X-17541Y3848D01*
X-44500Y-4484D02*
Y2516D01*
X-45825Y7971D02*
X-45825D01*
X-47869Y10016D02*
X-45825Y7971D01*
X-42479Y4537D02*
X-18230D01*
X45187Y7686D02*
X45649Y8147D01*
X15916Y7795D02*
X17237D01*
X44000Y14016D02*
X50000Y20016D01*
D52*
X35697Y-41569D02*
G03*
X29058Y-38434I-5665J-3400D01*
G01*
X-32370Y-61295D02*
G03*
X-32369Y-61295I234J542D01*
G01*
X-32410Y-61276D02*
G03*
X-32370Y-61295I274J523D01*
G01*
X-32533Y-61190D02*
G03*
X-32410Y-61276I398J436D01*
G01*
X52176Y34798D02*
X53564D01*
X50478Y33100D02*
X52176Y34798D01*
X49832Y33100D02*
X50478D01*
X49606Y32874D02*
X49832Y33100D01*
X-15046Y-52854D02*
X-10630D01*
X-21739Y-46161D02*
X-15046Y-52854D01*
X-26171Y-37500D02*
X-21739Y-41932D01*
Y-46161D02*
Y-41932D01*
X-49960Y-39814D02*
X-47646Y-37500D01*
X-26171D01*
X-43700Y-38558D02*
X-26514D01*
X-47589Y-42447D02*
X-43700Y-38558D01*
X-22730Y-48093D02*
Y-42342D01*
X-16288Y-54535D02*
X-7587D01*
X-26514Y-38558D02*
X-22730Y-42342D01*
X-7587Y-54535D02*
X-7579Y-54528D01*
X-22730Y-48093D02*
X-16288Y-54535D01*
X-17618Y-56299D02*
X-4429D01*
X-21358Y-52559D02*
X-17618Y-56299D01*
X-23720Y-50197D02*
X-21358Y-52559D01*
X-21358D01*
X-45218Y-45081D02*
X-42953Y-42815D01*
X-39686Y-39549D02*
X-26924D01*
X-42953Y-42815D02*
X-42952D01*
X-39686Y-39549D01*
X-26924D02*
X-23720Y-42752D01*
Y-50197D02*
Y-42752D01*
X-49960Y-39814D02*
X-49960D01*
X-57362Y15879D02*
X-57257Y19659D01*
X-58056Y13743D02*
X-57362Y15879D01*
X-58958Y12841D02*
X-58056Y13743D01*
X-59596Y22994D02*
X-57257Y20057D01*
X-63073Y10081D02*
X-58958Y12841D01*
X-57257Y19659D02*
Y20057D01*
X-67407Y8672D02*
Y9817D01*
X-67171Y12055D01*
X-66409Y5180D02*
X-63814Y3034D01*
X-67171Y12055D02*
X-66213Y13014D01*
X-66786Y5558D02*
X-66409Y5180D01*
X-66213Y13014D02*
X-61786Y16254D01*
X-67407Y8672D02*
X-66786Y5558D01*
X-59046Y14153D02*
X-58733Y15117D01*
X-60691Y19624D02*
X-58352Y16687D01*
Y16289D02*
Y16687D01*
X-58733Y15117D02*
X-58352Y16289D01*
X-66181Y11645D02*
X-65803Y12023D01*
X-59368Y13832D02*
X-59046Y14153D01*
X-66416Y9082D02*
Y9406D01*
Y9082D02*
X-66038Y8704D01*
X-66416Y9406D02*
X-66181Y11645D01*
X-65803Y12023D02*
X-59368Y13832D01*
X-66038Y8704D02*
X-63443Y6558D01*
X-59480Y3298D02*
Y4443D01*
X-60100Y7557D02*
X-59480Y4443D01*
X-63826Y-2881D02*
X-60673Y101D01*
X-60478Y7935D02*
X-60100Y7557D01*
X-60673Y101D02*
X-59715Y1059D01*
X-63073Y10081D02*
X-60478Y7935D01*
X-59715Y1059D02*
X-59480Y3298D01*
X-67924Y-4855D02*
X-66563Y-7969D01*
X-68160Y-2616D02*
X-67924Y-4855D01*
X-68160Y-2616D02*
Y-1471D01*
X-66186Y-8347D02*
X-63085Y-9929D01*
X-68160Y-1471D02*
X-63814Y3034D01*
X-66563Y-7969D02*
X-66186Y-8347D01*
X-60706Y1470D02*
X-60553Y2924D01*
X-63443Y6558D02*
X-60848Y4411D01*
X-60470Y4033D01*
Y3709D02*
Y4033D01*
X-60553Y2924D02*
X-60470Y3709D01*
X-67169Y-1882D02*
X-66791Y-1504D01*
X-61083Y1092D01*
X-60706Y1470D01*
X-67169Y-2206D02*
X-66934Y-4445D01*
X-67169Y-2206D02*
Y-1882D01*
X-66556Y-4823D02*
X-63456Y-6405D01*
X-66934Y-4445D02*
X-66556Y-4823D01*
X-51157Y-30922D02*
X-50309Y-31771D01*
X-49185Y-33716D01*
Y-35011D02*
Y-33716D01*
X-57123Y-28603D02*
X-53339Y-28844D01*
X-49960Y-39814D02*
X-49185Y-35011D01*
X-53339Y-28844D02*
X-51157Y-30922D01*
X-55232Y-23620D02*
Y-22401D01*
X-57123Y-28603D02*
X-55232Y-23620D01*
X-58011Y-17306D02*
X-55926Y-20266D01*
X-55232Y-22401D01*
X-58333Y-16984D02*
X-58011Y-17306D01*
X-61845Y-16037D02*
X-58333Y-16984D01*
X-58987Y-7955D02*
X-58751Y-10193D01*
X-60348Y-4841D02*
X-58987Y-7955D01*
X-60725Y-4463D02*
X-60348Y-4841D01*
X-61845Y-16037D02*
X-58751Y-11338D01*
X-63826Y-2881D02*
X-60725Y-4463D01*
X-58751Y-11338D02*
Y-10193D01*
X-65575Y-18547D02*
X-63490Y-21507D01*
X-66269Y-16412D02*
X-65575Y-18547D01*
X-66269Y-16412D02*
Y-15193D01*
X-63168Y-21829D02*
X-59655Y-22776D01*
X-66269Y-15193D02*
X-63085Y-9929D01*
X-63490Y-21507D02*
X-63168Y-21829D01*
X-59856Y-9518D02*
X-59742Y-10604D01*
X-63456Y-6405D02*
X-60355Y-7987D01*
X-59977Y-8365D01*
X-59856Y-9518D01*
X-64957Y-15282D02*
X-60120Y-11306D01*
X-59742Y-10928D01*
X-65279Y-16002D02*
X-64585Y-18137D01*
X-65279Y-16002D02*
Y-15603D01*
X-59742Y-10928D02*
Y-10604D01*
X-64585Y-18137D02*
X-64263Y-18459D01*
X-60750Y-19407D01*
X-65279Y-15603D02*
X-64957Y-15282D01*
X-60394Y-31572D02*
X-59545Y-32421D01*
X-61517Y-29627D02*
X-60394Y-31572D01*
X-61517Y-29627D02*
Y-28332D01*
X-57363Y-34499D02*
X-53579Y-34740D01*
X-61517Y-28332D02*
X-59655Y-22776D01*
X-59545Y-32421D02*
X-57363Y-34499D01*
X-56578Y-21717D02*
X-56222Y-22812D01*
X-60750Y-19407D02*
X-57238Y-20354D01*
X-56916Y-20676D01*
X-56578Y-21717D01*
X-60526Y-29217D02*
Y-28742D01*
X-56222Y-23210D01*
X-60526Y-29217D02*
X-59403Y-31162D01*
X-59135Y-31430D01*
X-55351Y-31672D01*
X-56222Y-23210D02*
Y-22812D01*
X-51902Y-43944D02*
X-49120Y-45586D01*
X-54206Y-41472D02*
X-52698Y-43147D01*
X-51902Y-43944D01*
X-54206Y-41472D02*
Y-40097D01*
X-49120Y-45586D02*
X-48565D01*
X-54206Y-40097D02*
X-53579Y-34740D01*
X-48565Y-45586D02*
X-45218Y-45081D01*
X-50745Y-33141D02*
X-50176Y-34127D01*
X-55351Y-31672D02*
X-51567Y-31913D01*
X-51299Y-32181D01*
X-50745Y-33141D01*
X-50176Y-34601D02*
Y-34127D01*
X-53216Y-40507D02*
X-50176Y-34601D01*
X-52603Y-41742D02*
X-51708Y-42737D01*
X-53216Y-41062D02*
X-52603Y-41742D01*
X-53216Y-41062D02*
Y-40507D01*
X-50936Y-42953D02*
X-47589Y-42447D01*
X-51491Y-42953D02*
X-50936D01*
X-51708Y-42737D02*
X-51491Y-42953D01*
X60361Y19166D02*
X60722Y19527D01*
X56720Y19166D02*
X60361D01*
X56595Y19291D02*
X56720Y19166D01*
X61817Y16157D02*
X62500Y15474D01*
Y13681D02*
Y15474D01*
X24508Y-69784D02*
X26774Y-68653D01*
X35638Y-62425D02*
X35690Y-65353D01*
X35723Y-67201D01*
X36380Y-66043D02*
X38583D01*
X35690Y-65353D02*
X36380Y-66043D01*
X20779Y-39659D02*
X29058Y-38434D01*
X35697Y-41569D02*
X40433Y-49444D01*
X-37254Y46474D02*
X-36432Y47296D01*
X-39074Y45152D02*
X-37254Y46474D01*
X-34685Y53652D02*
X-34555Y50303D01*
X-40408Y45152D02*
X-39074D01*
X-34555Y49789D02*
Y50303D01*
X-45081Y45266D02*
X-40408Y45152D01*
X-36432Y47296D02*
X-34555Y49789D01*
X-45501Y54423D02*
X-36761Y59967D01*
X-34252Y61417D01*
X-34219Y61432D01*
X-24362Y66011D01*
X-24067Y66111D02*
X-12892Y69024D01*
X-10701Y69506D01*
X-24362Y66011D02*
X-24067Y66111D01*
X-10701Y69506D02*
X6179Y70176D01*
X-8289Y68515D02*
X8322Y67733D01*
X8812Y67949D02*
X11913Y72750D01*
X8594Y67732D02*
X8812Y67949D01*
X8336Y67732D02*
X8594D01*
X8322Y67733D02*
X8336Y67732D01*
X-10291Y68515D02*
X-8289D01*
X-12480Y68090D02*
X-12407Y68109D01*
X-23852Y65120D02*
X-12480Y68090D01*
X-12407Y68109D02*
X-10291Y68515D01*
X-53175Y41654D02*
X-50317Y47304D01*
X-47432Y50386D02*
X-38258Y57655D01*
X-53391Y41437D02*
X-53175Y41654D01*
X-48809Y49009D02*
X-47432Y50386D01*
X-25860Y64207D02*
X-23852Y65120D01*
X-53543Y41339D02*
X-53391Y41437D01*
X-50155Y47497D02*
X-48809Y49009D01*
X-36439Y58977D02*
X-25860Y64207D01*
X-62035Y39812D02*
X-53661Y41317D01*
X-53543Y41339D01*
X-50317Y47304D02*
X-50155Y47497D01*
X-38258Y57655D02*
X-36439Y58977D01*
X1272Y60541D02*
X1680Y60948D01*
X-1861Y59550D02*
X1272Y60541D01*
X-5226Y59550D02*
X-1861D01*
X-9828Y63131D02*
X-5226Y59550D01*
X1680Y60948D02*
X3543Y63795D01*
X-15135Y65330D02*
X-12079Y67058D01*
X-9881Y67525D01*
X-8699D01*
X-16760Y61658D02*
X-15484Y64981D01*
X-8699Y67525D02*
X-3543Y63795D01*
X-15484Y64981D02*
X-15135Y65330D01*
X-11669Y66067D02*
X-9470Y66534D01*
X-9109D02*
X-8760Y66185D01*
X-2271Y60541D02*
X-1864Y60948D01*
X-12018Y65718D02*
X-11669Y66067D01*
X-9470Y66534D02*
X-9109D01*
X-5223Y60948D02*
X-4816Y60541D01*
X-2271D01*
X-1864Y60948D02*
X0Y63795D01*
X-13294Y62394D02*
X-12018Y65718D01*
X-8760Y66185D02*
X-5223Y60948D01*
X-38671Y55842D02*
X-37848Y56664D01*
X-36029Y57986D01*
X-40547Y52835D02*
X-40418Y49486D01*
X-36029Y57986D02*
X-34694D01*
X-40547Y52835D02*
Y53349D01*
X-34694Y57986D02*
X-29216Y56823D01*
X-40547Y53349D02*
X-38671Y55842D01*
X-28319Y60785D02*
X-25493Y63217D01*
X-23442Y64130D01*
X-22185D01*
X-29216Y56823D02*
X-28614Y60490D01*
X-22185Y64130D02*
X-16760Y61658D01*
X-28614Y60490D02*
X-28319Y60785D01*
X-14509Y57731D02*
X-11453Y59459D01*
X-16707Y57264D02*
X-14509Y57731D01*
X-17889Y57264D02*
X-16707D01*
X-11104Y59808D02*
X-9828Y63131D01*
X-22742Y59706D02*
X-17889Y57264D01*
X-11453Y59459D02*
X-11104Y59808D01*
X-14570Y59071D02*
X-13294Y62394D01*
X-17478Y58255D02*
X-17117D01*
X-23031Y63139D02*
X-22596D01*
X-17478Y58255D01*
X-14919Y58722D02*
X-14570Y59071D01*
X-25979Y58265D02*
X-25377Y61931D01*
X-25082Y62226D01*
X-23031Y63139D01*
X-17117Y58255D02*
X-14919Y58722D01*
X-50707Y43880D02*
X-49327Y46924D01*
X-47819Y48598D01*
X-47022Y49395D01*
X-50707Y43325D02*
X-49823Y39999D01*
X-47022Y49395D02*
X-40418Y49486D01*
X-50707Y43325D02*
Y43880D01*
X-26465Y53313D02*
X-23638Y55744D01*
X-28516Y52399D02*
X-26465Y53313D01*
X-29772Y52399D02*
X-28516D01*
X-23344Y56039D02*
X-22742Y59706D01*
X-34685Y53652D02*
X-29772Y52399D01*
X-23638Y55744D02*
X-23344Y56039D01*
X-28926Y53390D02*
X-28129Y53745D01*
X-26581Y54598D02*
X-25979Y58265D01*
X-26875Y54303D02*
X-26581Y54598D01*
X-28129Y53745D02*
X-26875Y54303D01*
X-29362Y53390D02*
X-28926D01*
X-36660Y56239D02*
X-35618Y56996D01*
X-35105D01*
X-29362Y53390D01*
X-37438Y55674D02*
X-36660Y56239D01*
X-37680Y54918D02*
X-37551Y51569D01*
X-37680Y54918D02*
Y55431D01*
X-37438Y55674D01*
X-37422Y47706D02*
Y48220D01*
X-37551Y51569D02*
X-37422Y48220D01*
X-48336Y46513D02*
X-46828Y48188D01*
X-46612Y48405D01*
X-46057D02*
X-39998Y46142D01*
X-39484D01*
X-48336Y45959D02*
Y46513D01*
X-39484Y46142D02*
X-37664Y47464D01*
X-48336Y45959D02*
X-47452Y42632D01*
X-46612Y48405D02*
X-46057D01*
X-37664Y47464D02*
X-37422Y47706D01*
X-45576Y38341D02*
X-44196Y41385D01*
X-47084Y36666D02*
X-45576Y38341D01*
X-47881Y35870D02*
X-47084Y36666D01*
X-45081Y45266D02*
X-44196Y41939D01*
X-53511Y34891D02*
X-47881Y35870D01*
X-44196Y41385D02*
Y41939D01*
X-56782Y37860D02*
X-55933Y38708D01*
X-57905Y35914D02*
X-56782Y37860D01*
X-58686Y31961D02*
Y32436D01*
X-55933Y38708D02*
X-49823Y39999D01*
X-58686Y32436D02*
X-57905Y35914D01*
X-58686Y31961D02*
X-57055Y28754D01*
X-48291Y36860D02*
X-48075Y37077D01*
X-46567Y38751D01*
Y39306D01*
X-55792Y37449D02*
X-55523Y37718D01*
X-55049D01*
X-48846Y36860D01*
X-56915Y35030D02*
Y35504D01*
X-55792Y37449D01*
X-48846Y36860D02*
X-48291D01*
X-56915Y35030D02*
X-55283Y31822D01*
X-47452Y42632D02*
X-46567Y39306D01*
X29244Y-56779D02*
Y-55981D01*
X25921Y-52658D02*
X29244Y-55981D01*
X4724Y-52658D02*
X25921D01*
X1445Y-54381D02*
X23476D01*
X26008Y-56913D01*
X20142Y-56235D02*
X22771Y-58863D01*
X-1542Y-56235D02*
X20142D01*
X26008Y-58220D02*
Y-56913D01*
X22771Y-59662D02*
Y-58863D01*
X16776Y-57218D02*
X17958D01*
X14578Y-57685D02*
X16776Y-57218D01*
X35840Y-61729D02*
X37721Y-60110D01*
X35823Y-61743D02*
X35840Y-61729D01*
X35634Y-61932D02*
X35823Y-61743D01*
X35634Y-62181D02*
Y-61932D01*
Y-62181D02*
X35638Y-62425D01*
X35723Y-67637D02*
Y-67201D01*
X68813Y17220D02*
X69580Y14886D01*
X69624Y14753D01*
X69845Y14532D01*
X75164Y13354D01*
X5948Y70167D02*
X6179Y70176D01*
X6355Y70353D01*
X6515Y70534D01*
X10763Y75419D01*
X11112Y75768D01*
X20603Y73828D02*
X26798Y68674D01*
X-52395Y51851D02*
X-45501Y54423D01*
X11473Y75768D02*
X20603Y73828D01*
X11112Y75768D02*
X11473D01*
X-32410Y-61276D02*
X-32410Y-61276D01*
X-32468Y-61248D02*
X-32410Y-61276D01*
X-32370Y-61295D02*
X-32369Y-61295D01*
X-32410Y-61276D02*
X-32370Y-61295D01*
X-32369Y-61295D02*
X-32369Y-61295D01*
X-32369D02*
X-32369Y-61295D01*
X-44786Y-50950D02*
X-32369Y-61295D01*
X-52533Y-51666D02*
X-45198Y-50813D01*
X-44950D01*
X-44786Y-50950D01*
X65605Y-33597D02*
X67028Y-31496D01*
X50775Y53464D02*
Y53724D01*
Y53464D02*
X52461Y51778D01*
X-35531Y64764D02*
X-33219Y65815D01*
X-72874Y-10958D02*
X-72539Y-13583D01*
X-11863Y-72730D02*
X-9252Y-73327D01*
X60827Y-41929D02*
X62061Y-39735D01*
X68012Y-28445D02*
X68963Y-25985D01*
X71152Y-19245D02*
X71949Y-16831D01*
X46246Y57418D02*
X48327Y56004D01*
X38287Y62894D02*
X40513Y61583D01*
X-48228Y56004D02*
X-46203Y57449D01*
X-72047Y-16831D02*
X-71206Y-19078D01*
X-69016Y-25818D02*
X-68110Y-27953D01*
X26903Y-71727D02*
X35428Y-67931D01*
X26467Y-71727D02*
X26903D01*
X35428Y-67931D02*
X35723Y-67637D01*
X44418Y-54437D02*
X46401Y-52454D01*
X18875Y-71239D02*
X26467Y-71727D01*
X37721Y-60110D02*
X37963Y-59868D01*
X44418Y-54437D01*
X51285Y-47440D02*
X54541Y-44122D01*
X51117Y-47613D02*
X51285Y-47440D01*
X46401Y-52454D02*
X51117Y-47613D01*
X56049Y-42417D02*
X62135Y-32664D01*
X63456Y-30375D02*
X68787Y-17266D01*
X62135Y-32664D02*
X62333Y-32341D01*
X68787Y-17266D02*
X72865Y-11045D01*
X63321Y-30656D02*
X63456Y-30375D01*
X62333Y-32341D02*
X63321Y-30656D01*
X55838Y-42659D02*
X56049Y-42417D01*
X54541Y-44122D02*
X55838Y-42659D01*
X33083Y-60437D02*
X42312Y-54644D01*
X32806Y-60964D02*
X33248Y-65771D01*
X32806Y-60964D02*
Y-60693D01*
X33026Y-60473D01*
X33083Y-60437D01*
X44007Y-53447D02*
X45410Y-52044D01*
X53087Y-44175D01*
X42312Y-54644D02*
X44007Y-53447D01*
X53087Y-44175D02*
X53551Y-43712D01*
X67206Y-16989D02*
X68906Y-5150D01*
X55059Y-42037D02*
X61342Y-32056D01*
X69003Y-4075D02*
X69018Y-3927D01*
X62466Y-30110D02*
X66512Y-19028D01*
X69018Y-3927D02*
X69075Y-3824D01*
X66512Y-19028D02*
X67206Y-16989D01*
X53551Y-43712D02*
X55059Y-42037D01*
X69075Y-3824D02*
X73566Y4406D01*
X68906Y-5150D02*
X69003Y-4075D01*
X61342Y-32056D02*
X62466Y-30110D01*
X61641Y33138D02*
X65217Y26349D01*
X75541Y12977D02*
X76517Y3690D01*
X65217Y26349D02*
X65338Y26061D01*
X73606Y-3998D02*
X76517Y3365D01*
X75164Y13354D02*
X75541Y12977D01*
X65338Y26061D02*
X68813Y17220D01*
X61599Y33219D02*
X61641Y33138D01*
X58816Y38588D02*
X61599Y33219D01*
X76517Y3365D02*
Y3690D01*
X37991Y59879D02*
X47909Y51303D01*
X51211Y47800D02*
X58816Y38588D01*
X37749Y60122D02*
X37991Y59879D01*
X33272Y65792D02*
X37749Y60122D01*
X47909Y51303D02*
X49866Y49345D01*
X51211Y47800D01*
X65030Y23694D02*
X67635Y13317D01*
X67895Y12938D02*
X72825Y11454D01*
X67675Y13159D02*
X67895Y12938D01*
X67635Y13317D02*
X67675Y13159D01*
X58862Y36319D02*
X64347Y25818D01*
X57536Y38468D02*
X57826Y38178D01*
X64347Y25818D02*
X65030Y23694D01*
X50220Y47423D02*
X57517Y38491D01*
X57536Y38468D01*
X57826Y38178D02*
X58862Y36319D01*
X36482Y58946D02*
X38302Y57624D01*
X27785Y62574D02*
X36482Y58946D01*
X48875Y48935D02*
X50220Y47423D01*
X27604Y62728D02*
X27785Y62574D01*
X47498Y50312D02*
X48875Y48935D01*
X18844Y71277D02*
X27590Y62742D01*
X27604Y62728D01*
X38302Y57624D02*
X47498Y50312D01*
X25545Y63193D02*
X28372Y60761D01*
X23494Y64106D02*
X25545Y63193D01*
X22238Y64106D02*
X23494D01*
X28666Y60467D02*
X29268Y56800D01*
X16798Y61650D02*
X22238Y64106D01*
X28372Y60761D02*
X28666Y60467D01*
X9866Y63123D02*
X11142Y59800D01*
X11491Y59451D02*
X14547Y57723D01*
X11142Y59800D02*
X11491Y59451D01*
X14547Y57723D02*
X16745Y57256D01*
X17927D02*
X22794Y59682D01*
X16745Y57256D02*
X17927D01*
X17156Y58246D02*
X17517D01*
X13332Y62386D02*
X14608Y59063D01*
X23084Y63116D02*
X25135Y62203D01*
Y62203D02*
X25429Y61908D01*
X17517Y58246D02*
X22648Y63116D01*
X25429Y61908D02*
X26031Y58241D01*
X22648Y63116D02*
X23084D01*
X14957Y58714D02*
X17156Y58246D01*
X14608Y59063D02*
X14957Y58714D01*
X34737Y57955D02*
X36072D01*
X37891Y56633D02*
X38714Y55810D01*
X29268Y56800D02*
X34737Y57955D01*
X40590Y52803D02*
Y53317D01*
X38714Y55810D02*
X40590Y53317D01*
X36072Y57955D02*
X37891Y56633D01*
X40461Y49455D02*
X40590Y52803D01*
X23691Y55721D02*
X26517Y53289D01*
X23396Y56016D02*
X23691Y55721D01*
X29825Y52376D02*
X34728Y53620D01*
X28568Y52376D02*
X29825D01*
X26517Y53289D02*
X28568Y52376D01*
X22794Y59682D02*
X23396Y56016D01*
X35661Y56964D02*
X37481Y55642D01*
X28979Y53367D02*
X29414D01*
X37481Y55642D02*
X37723Y55400D01*
X35148Y56964D02*
X35661D01*
X26031Y58241D02*
X26633Y54575D01*
X37723Y54886D02*
Y55400D01*
X29414Y53367D02*
X35148Y56964D01*
X26633Y54575D02*
X26928Y54280D01*
X37594Y51538D02*
X37723Y54886D01*
X26928Y54280D02*
X28979Y53367D01*
X49393Y46850D02*
X50773Y43807D01*
X47885Y48525D02*
X49393Y46850D01*
X47088Y49322D02*
X47885Y48525D01*
X50773Y43252D02*
Y43807D01*
X40461Y49455D02*
X47088Y49322D01*
X49888Y39926D02*
X50773Y43252D01*
X34598Y49758D02*
Y50272D01*
X36474Y47265D02*
X37297Y46442D01*
X34598Y49758D02*
X36474Y47265D01*
X34598Y50272D02*
X34728Y53620D01*
X39117Y45120D02*
X40451D01*
X45147Y45192D01*
X37297Y46442D02*
X39117Y45120D01*
X37465Y47675D02*
X37707Y47433D01*
X39527Y46111D01*
X46894Y48115D02*
X48402Y46440D01*
X46123Y48331D02*
X46678D01*
X40041Y46111D02*
X46123Y48331D01*
X39527Y46111D02*
X40041D01*
X37465Y47675D02*
Y48189D01*
X37594Y51538D01*
X47517Y42559D02*
X48402Y45885D01*
Y46440D01*
X46678Y48331D02*
X46894Y48115D01*
X49888Y39926D02*
X55986Y38616D01*
X58739Y31869D02*
Y32343D01*
X57958Y35822D02*
X58739Y32343D01*
X56835Y37767D02*
X57958Y35822D01*
X55986Y38616D02*
X56835Y37767D01*
X57107Y28661D02*
X58739Y31869D01*
X44262Y41311D02*
X45642Y38268D01*
X44262Y41311D02*
Y41866D01*
X47150Y36593D02*
X47947Y35796D01*
X44262Y41866D02*
X45147Y45192D01*
X47947Y35796D02*
X53564Y34798D01*
X45642Y38268D02*
X47150Y36593D01*
X47507Y37707D02*
X48141Y37003D01*
X46633Y39233D02*
X47517Y42559D01*
X46633Y38678D02*
Y39233D01*
Y38678D02*
X47507Y37707D01*
X48357Y36787D02*
X48912D01*
X48141Y37003D02*
X48357Y36787D01*
X55102Y37626D02*
X55576D01*
X48912Y36787D02*
X55102Y37626D01*
X56968Y34938D02*
Y35412D01*
X55845Y37357D02*
X56968Y35412D01*
X55576Y37626D02*
X55845Y37357D01*
X55336Y31730D02*
X56968Y34938D01*
X63676Y24177D02*
X64051Y23272D01*
X57107Y28661D02*
X62455Y26309D01*
X63357Y25408D01*
X63631Y24309D01*
X63667Y24198D01*
X63676Y24177D01*
X64051Y23272D02*
X64155Y19492D01*
Y19094D02*
Y19492D01*
X61817Y16157D02*
X64155Y19094D01*
X53257Y26841D02*
X53264Y26826D01*
X51932Y31116D02*
X52713Y27637D01*
X53210Y26922D02*
X53257Y26841D01*
X53264Y26826D02*
X53836Y25692D01*
X51932Y31591D02*
X53564Y34798D01*
X51932Y31116D02*
Y31591D01*
X52713Y27637D02*
X53210Y26922D01*
X53836Y25692D02*
X54685Y24844D01*
X59627Y22897D01*
X54526Y26624D02*
X54827Y26102D01*
X53704Y28522D02*
X55336Y31730D01*
X53704Y28048D02*
Y28522D01*
Y28048D02*
X54526Y26624D01*
X62045Y25319D02*
X62366Y24997D01*
X62725Y23892D02*
X63060Y22862D01*
X62366Y24997D02*
X62725Y23892D01*
X55095Y25834D02*
X62045Y25319D01*
X54827Y26102D02*
X55095Y25834D01*
X60722Y19527D02*
X63060Y22464D01*
Y22862D01*
X-68641Y33617D02*
X-64059Y24629D01*
X-68641Y33617D02*
Y34091D01*
X-63974Y42174D02*
X-63706Y42442D01*
X-68641Y34091D02*
X-63974Y42174D01*
X-63706Y42442D02*
X-57137Y46585D01*
X-69216Y12951D02*
X-64059Y24629D01*
X-69251Y12692D02*
X-69216Y12951D01*
X-69486Y10309D02*
X-69456Y10708D01*
X-69251Y12692D01*
X-69918Y3798D02*
X-69917Y3805D01*
X-70239Y-610D02*
X-69918Y3798D01*
X-69917Y3805D02*
X-69486Y10309D01*
X-68349Y-17002D02*
X-68287Y-17335D01*
X-65859Y-25959D01*
X-70239Y-3478D02*
Y-610D01*
X-65859Y-25959D02*
X-65647Y-33524D01*
X-69953Y-5564D02*
X-68349Y-17002D01*
X-70239Y-3478D02*
X-69953Y-5564D01*
X-68162Y12466D02*
X-61929Y26796D01*
X-65578Y33675D02*
X-61880Y27188D01*
Y26908D02*
Y27188D01*
X-61929Y26796D02*
X-61880Y26908D01*
X-68397Y10227D02*
X-68276Y11026D01*
X-68274Y11040D01*
X-68269Y11084D01*
X-68162Y12466D01*
X-69150Y-1061D02*
X-68397Y10227D01*
X-69150Y-3027D02*
Y-1061D01*
X-59955Y-33411D02*
X-58392Y-34887D01*
X-67260Y-16822D02*
X-66566Y-18861D01*
X-58392Y-34887D02*
X-58216Y-35055D01*
X-66566Y-18861D02*
X-62507Y-30037D01*
X-58216Y-35055D02*
X-58054Y-35216D01*
X-62507Y-30037D02*
X-61384Y-31982D01*
X-69150Y-3027D02*
X-68915Y-5062D01*
X-58039Y-35436D02*
X-57274Y-46400D01*
X-58054Y-35216D02*
X-58039Y-35436D01*
X-61384Y-31982D02*
X-59955Y-33411D01*
X-68915Y-5062D02*
X-67260Y-16822D01*
X-29013Y-63766D02*
X-29008Y-63768D01*
X-60237Y-47385D02*
X-53988Y-54325D01*
X-53771Y-54542D01*
X-53216D01*
X-46086Y-54340D02*
X-45572D01*
X-32844Y-62247D01*
X-29013Y-63766D01*
X-62103Y-39661D02*
X-60237Y-47385D01*
X-53216Y-54542D02*
X-46086Y-54340D01*
X-29008Y-63768D02*
X-19883Y-67473D01*
X-19601Y-67536D01*
X-6046Y-69990D02*
X4815Y-70746D01*
X-17689Y-67936D02*
X-17350Y-68003D01*
X4815Y-70746D02*
X11943Y-72712D01*
X-17350Y-68003D02*
X-6046Y-69990D01*
X-19601Y-67536D02*
X-17689Y-67936D01*
X-32369Y-61295D02*
X-30458Y-62120D01*
X-18186Y-66741D02*
X-18106Y-66758D01*
X-18086Y-66763D01*
X-19410Y-66546D02*
X-18186Y-66741D01*
X-18086Y-66763D02*
X-17211Y-67013D01*
X-30458Y-62120D02*
X-19410Y-66546D01*
X23016Y-65279D02*
X23259Y-65276D01*
X-5636Y-68999D02*
X-1450D01*
X23259Y-65276D02*
X23508D01*
X-1450Y-68999D02*
X10360Y-68469D01*
X23508Y-65276D02*
X23685Y-65453D01*
X10360Y-68469D02*
X12409Y-68002D01*
X23688Y-65456D02*
X26774Y-68653D01*
X23685Y-65453D02*
X23688Y-65456D01*
X12409Y-68002D02*
X23016Y-65279D01*
X-17211Y-67013D02*
X-5636Y-68999D01*
X59443Y4787D02*
X60064Y7900D01*
X60441Y8278D01*
X59443Y3642D02*
Y4787D01*
Y3642D02*
X59679Y1403D01*
X63817Y-2969D01*
X60441Y8278D02*
X63036Y10425D01*
X66554Y-8057D02*
X67915Y-4943D01*
X63076Y-10017D02*
X66177Y-8434D01*
X67915Y-4943D02*
X68151Y-2704D01*
X63777Y3377D02*
X68151Y-1559D01*
Y-2704D02*
Y-1559D01*
X66177Y-8434D02*
X66554Y-8057D01*
X60434Y4052D02*
X60669Y1813D01*
X60812Y4754D02*
X63407Y6901D01*
X67160Y-2294D02*
Y-1970D01*
X66782Y-1592D02*
X67160Y-1970D01*
X61047Y1436D02*
X66782Y-1592D01*
X60669Y1813D02*
X61047Y1436D01*
X60434Y4052D02*
Y4377D01*
X60812Y4754D01*
X63447Y-6493D02*
X66547Y-4910D01*
X66925Y-4533D01*
X67160Y-2294D01*
X55872Y-20433D02*
X57957Y-17473D01*
X55178Y-22568D02*
X55872Y-20433D01*
X55178Y-23787D02*
Y-22568D01*
X58279Y-17152D02*
X61792Y-16204D01*
X55178Y-23787D02*
X57081Y-28676D01*
X57957Y-17473D02*
X58279Y-17152D01*
X58742Y-10281D02*
X58978Y-8043D01*
X58742Y-11426D02*
X61792Y-16204D01*
X58978Y-8043D02*
X60339Y-4929D01*
X58742Y-11426D02*
Y-10281D01*
X60339Y-4929D02*
X60716Y-4551D01*
X63817Y-2969D01*
X65522Y-18714D02*
X66215Y-16579D01*
Y-15360D01*
X63436Y-21674D02*
X65522Y-18714D01*
X63076Y-10017D02*
X66215Y-15360D01*
X63114Y-21996D02*
X63436Y-21674D01*
X59602Y-22943D02*
X63114Y-21996D01*
X59733Y-10692D02*
X59862Y-9466D01*
X60346Y-8075D02*
X63447Y-6493D01*
X59968Y-8453D02*
X60346Y-8075D01*
X59862Y-9466D02*
X59968Y-8453D01*
X59733Y-11016D02*
Y-10692D01*
X65225Y-16169D02*
Y-15770D01*
X60111Y-11394D02*
X64903Y-15449D01*
X64967Y-16961D02*
X65225Y-16169D01*
X59733Y-11016D02*
X60111Y-11394D01*
X64531Y-18304D02*
X64967Y-16961D01*
X64903Y-15449D02*
X65225Y-15770D01*
X60697Y-19574D02*
X64209Y-18626D01*
X64531Y-18304D01*
X53537Y-34813D02*
X57321Y-34572D01*
X59503Y-32494D02*
X60352Y-31645D01*
X57321Y-34572D02*
X59503Y-32494D01*
X61475Y-29700D02*
Y-28405D01*
X59602Y-22943D02*
X61475Y-28405D01*
X60352Y-31645D02*
X61475Y-29700D01*
X56169Y-22979D02*
X56501Y-21955D01*
X57184Y-20521D02*
X60697Y-19574D01*
X56862Y-20843D02*
X57184Y-20521D01*
X56501Y-21955D02*
X56862Y-20843D01*
X56169Y-23377D02*
X60484Y-28815D01*
X56169Y-23377D02*
Y-22979D01*
X59883Y-30331D02*
X60484Y-29290D01*
Y-28815D01*
X59361Y-31235D02*
X59883Y-30331D01*
X55309Y-31745D02*
X59093Y-31503D01*
X59361Y-31235D01*
X49143Y-35084D02*
Y-33790D01*
Y-35084D02*
X49822Y-39968D01*
X49143Y-33790D02*
X50266Y-31844D01*
X51115Y-30996D02*
X53297Y-28918D01*
X57081Y-28676D01*
X50266Y-31844D02*
X51115Y-30996D01*
X45080Y-45235D02*
X48427Y-45741D01*
X52560Y-43301D02*
X54068Y-41627D01*
Y-40251D01*
X48982Y-45741D02*
X51763Y-44098D01*
X48427Y-45741D02*
X48982D01*
X53537Y-34813D02*
X54068Y-40251D01*
X51763Y-44098D02*
X52560Y-43301D01*
X50134Y-34200D02*
X50616Y-33365D01*
X51525Y-31986D02*
X55309Y-31745D01*
X51257Y-32254D02*
X51525Y-31986D01*
X50616Y-33365D02*
X51257Y-32254D01*
X50134Y-34674D02*
Y-34200D01*
Y-34674D02*
X53078Y-40661D01*
X50798Y-43108D02*
X51353D01*
X51570Y-42891D02*
X53078Y-41216D01*
Y-40661D01*
X47451Y-42602D02*
X50798Y-43108D01*
X51353D02*
X51570Y-42891D01*
X40834Y-43577D02*
X42342Y-41902D01*
X46475Y-39463D02*
X49822Y-39968D01*
X40433Y-49444D02*
X40834Y-43577D01*
X42342Y-41902D02*
X43139Y-41105D01*
X45920Y-39463D01*
X46475D01*
X37987Y-54870D02*
X38500D01*
X41777Y-53778D01*
X34700Y-53609D02*
X37987Y-54870D01*
X43597Y-52456D02*
X44420Y-51634D01*
X41777Y-53778D02*
X43597Y-52456D01*
X44420Y-51634D02*
X45080Y-45235D01*
X41824Y-43987D02*
X42354Y-43398D01*
X44104Y-42096D02*
X47451Y-42602D01*
X43549Y-42096D02*
X44104D01*
X43332Y-42312D02*
X43549Y-42096D01*
X42354Y-43398D02*
X43332Y-42312D01*
X41824Y-44542D02*
X43429Y-50709D01*
Y-51223D02*
Y-50709D01*
X41824Y-44542D02*
Y-43987D01*
X42236Y-52157D02*
X43187Y-51466D01*
X41367Y-52788D02*
X42236Y-52157D01*
X43187Y-51466D02*
X43429Y-51223D01*
X37567Y-51526D02*
X40853Y-52788D01*
X41367D01*
X-34756Y-53568D02*
X-32925Y-59390D01*
X-32050Y-60265D01*
X-26352Y-61629D02*
X-25916D01*
X-29999Y-61179D02*
X-26352Y-61629D01*
X-32050Y-60265D02*
X-29999Y-61179D01*
X-25916Y-61629D02*
X-22825Y-59637D01*
X-16801Y-66022D02*
X-15619D01*
X-19929Y-64626D02*
X-18999Y-65555D01*
X-15619Y-66022D02*
X-12563Y-65768D01*
X-22825Y-59637D02*
X-19929Y-64626D01*
X-12563Y-65768D02*
X-9816Y-63102D01*
X-18999Y-65555D02*
X-16801Y-66022D01*
X1272Y-67018D02*
X1680Y-66611D01*
X-1861Y-68009D02*
X1272Y-67018D01*
X1680Y-66611D02*
X3543Y-63764D01*
X-5226Y-68009D02*
X-1861D01*
X-6213Y-67021D02*
X-5226Y-68009D01*
X-9816Y-63102D02*
X-6213Y-67021D01*
X8768Y-67479D02*
X9950D01*
X15203Y-65284D02*
X15553Y-64935D01*
X12148Y-67011D02*
X15203Y-65284D01*
X3543Y-63764D02*
X8768Y-67479D01*
X15553Y-64935D02*
X16829Y-61612D01*
X9950Y-67479D02*
X12148Y-67011D01*
X-33412Y-49234D02*
X-31592Y-50556D01*
X-36689Y-48142D02*
X-33412Y-49234D01*
X-37202Y-48142D02*
X-36689D01*
X-30769Y-51378D02*
X-29299Y-56755D01*
X-40489Y-49403D02*
X-37202Y-48142D01*
X-31592Y-50556D02*
X-30769Y-51378D01*
X-29299Y-56755D02*
X-26208Y-54763D01*
X-20074Y-56126D02*
X-19199Y-57001D01*
X-26208Y-54763D02*
X-25773D01*
X-19199Y-57001D02*
X-16748Y-61629D01*
X-22125Y-55213D02*
X-20074Y-56126D01*
X-25773Y-54763D02*
X-22125Y-55213D01*
X5226Y-59519D02*
X9897Y-63085D01*
X-1272Y-60510D02*
X1861Y-59519D01*
X5226D01*
X-3543Y-63764D02*
X-1680Y-60917D01*
X-1272Y-60510D01*
X-9764Y-58709D02*
X-7565Y-59176D01*
X-10945Y-58709D02*
X-9764D01*
X-14001Y-58962D02*
X-10945Y-58709D01*
X-6636Y-60105D02*
X-3543Y-63764D01*
X-16748Y-61629D02*
X-14001Y-58962D01*
X-7565Y-59176D02*
X-6636Y-60105D01*
X-32893Y-50899D02*
X-32002Y-51546D01*
X-37622Y-51486D02*
X-34336Y-50224D01*
X-33822D01*
X-32893Y-50899D01*
X-31760Y-52302D02*
Y-51789D01*
X-31934Y-58980D02*
Y-58544D01*
X-31760Y-52302D01*
X-32002Y-51546D02*
X-31760Y-51789D01*
X-31934Y-58980D02*
X-31640Y-59275D01*
X-30303Y-59870D02*
X-29588Y-60188D01*
X-31640Y-59275D02*
X-30303Y-59870D01*
X-29153Y-60188D02*
X-26062Y-58196D01*
X-29588Y-60188D02*
X-29153D01*
X-21599Y-56621D02*
X-20485Y-57117D01*
X-26062Y-58196D02*
X-22971Y-56204D01*
X-22536D01*
X-21599Y-56621D01*
X-18938Y-64215D02*
X-18589Y-64565D01*
X-17321Y-64834D01*
X-16390Y-65032D01*
X-20190Y-57412D02*
X-18938Y-64215D01*
X-20485Y-57117D02*
X-20190Y-57412D01*
X-16029Y-65032D02*
X-13282Y-62365D01*
X-16390Y-65032D02*
X-16029D01*
X-1864Y-66611D02*
X-0Y-63764D01*
X-2271Y-67018D02*
X-1864Y-66611D01*
X-4816Y-67018D02*
X-2271D01*
X-7976Y-60166D02*
X-7626Y-60516D01*
X-9042Y-59940D02*
X-7976Y-60166D01*
X-5223Y-66611D02*
X-4816Y-67018D01*
X-10174Y-59699D02*
X-9042Y-59940D01*
X-7626Y-60516D02*
X-5223Y-66611D01*
X-13282Y-62365D02*
X-10535Y-59699D01*
X-10174D01*
X-0Y-63764D02*
X1864Y-60917D01*
X2271Y-60510D01*
X9178Y-66488D02*
X9539D01*
X8829Y-66139D02*
X9178Y-66488D01*
X9539D02*
X11738Y-66021D01*
X12087Y-65671D01*
X5223Y-60917D02*
X8829Y-66139D01*
X4815Y-60510D02*
X5223Y-60917D01*
X12087Y-65671D02*
X13363Y-62348D01*
X2271Y-60510D02*
X4815D01*
X28741Y-60487D02*
X29244Y-56779D01*
X23511Y-64184D02*
X25562Y-63271D01*
X22173Y-64184D02*
X23511D01*
X28405Y-60823D02*
X28741Y-60487D01*
X16829Y-61612D02*
X22173Y-64184D01*
X25562Y-63271D02*
X28405Y-60823D01*
X11522Y-59412D02*
X14578Y-57685D01*
X11173Y-59762D02*
X11522Y-59412D01*
X9897Y-63085D02*
X11173Y-59762D01*
X17958Y-57218D02*
X22771Y-59662D01*
X23060Y-63095D02*
X23823Y-62755D01*
X25406Y-61887D02*
X26008Y-58220D01*
X25111Y-62182D02*
X25406Y-61887D01*
X23823Y-62755D02*
X25111Y-62182D01*
X17547Y-58209D02*
X22624Y-63095D01*
X15901Y-58482D02*
X17186Y-58209D01*
X14988Y-58676D02*
X15901Y-58482D01*
X17186Y-58209D02*
X17547D01*
X22624Y-63095D02*
X23060D01*
X13363Y-62348D02*
X14638Y-59025D01*
X14988Y-58676D01*
X30011Y-67212D02*
X33248Y-65771D01*
X26774Y-68653D02*
X30011Y-67212D01*
X15409Y-71976D02*
X18875Y-71239D01*
X11943Y-72712D02*
X15409Y-71976D01*
X-57274Y-46400D02*
X-54904Y-49033D01*
X-52533Y-51666D01*
X-65647Y-33524D02*
X-63875Y-36593D01*
X-62103Y-39661D01*
X-63807Y36743D02*
X-62035Y39812D01*
X-65578Y33675D02*
X-63807Y36743D01*
X-54766Y49218D02*
X-52395Y51851D01*
X-57137Y46585D02*
X-54766Y49218D01*
X15379Y72014D02*
X18844Y71277D01*
X11913Y72750D02*
X15379Y72014D01*
X30035Y67233D02*
X33272Y65792D01*
X26798Y68674D02*
X30035Y67233D01*
X72825Y11454D02*
X73195Y7930D01*
X73566Y4406D01*
X73235Y-7522D02*
X73606Y-3998D01*
X72865Y-11045D02*
X73235Y-7522D01*
D55*
X13823Y42779D02*
D03*
X13823Y52819D02*
D03*
D56*
X3823Y42779D02*
D03*
X-6177D02*
D03*
X-16177D02*
D03*
X3823Y52819D02*
D03*
X-6177D02*
D03*
X-16177D02*
D03*
D57*
X30031Y45031D02*
D03*
X-29969D02*
D03*
Y-44969D02*
D03*
X30031D02*
D03*
D58*
X50032Y-19969D02*
D03*
X-49968Y-9968D02*
D03*
Y32D02*
D03*
X50032Y20031D02*
D03*
X-49968D02*
D03*
X50032Y10031D02*
D03*
Y-9968D02*
D03*
X-49968Y10031D02*
D03*
Y-19969D02*
D03*
X50032Y32D02*
D03*
D59*
X49606Y32874D02*
D03*
X-10630Y-52854D02*
D03*
X-7579Y-54528D02*
D03*
X-4429Y-56299D02*
D03*
X56595Y19291D02*
D03*
X62500Y13681D02*
D03*
X24508Y-69784D02*
D03*
X38583Y-66043D02*
D03*
X10433Y22441D02*
D03*
X14469Y24114D02*
D03*
X-7677Y26772D02*
D03*
X-48917Y32480D02*
D03*
X-52165Y26280D02*
D03*
X-50492Y29232D02*
D03*
X-39075Y-11909D02*
D03*
X-22736Y-34547D02*
D03*
Y-31988D02*
D03*
X-22835Y-37205D02*
D03*
X-27461Y-23228D02*
D03*
X-18406Y-20079D02*
D03*
X-18307Y-23228D02*
D03*
X4724Y-52658D02*
D03*
X1445Y-54381D02*
D03*
X-1542Y-56235D02*
D03*
X-38091Y-63189D02*
D03*
X38484Y-63090D02*
D03*
X48524Y-55610D02*
D03*
X72047Y16634D02*
D03*
X68110Y28740D02*
D03*
X6102Y73622D02*
D03*
X-6299Y73524D02*
D03*
X-68307Y28445D02*
D03*
X-72146Y16634D02*
D03*
X-48425Y-56102D02*
D03*
X-21555Y70472D02*
D03*
X-72539Y13780D02*
D03*
X-73819Y1575D02*
D03*
X-35630Y-64764D02*
D03*
X-24508Y-69685D02*
D03*
X50591Y-53740D02*
D03*
X58957Y-44587D02*
D03*
X66831Y31398D02*
D03*
X60827Y42028D02*
D03*
X-9252Y73327D02*
D03*
X67028Y-31496D02*
D03*
X58858Y44685D02*
D03*
X50775Y53724D02*
D03*
X-24311Y69685D02*
D03*
X-35531Y64764D02*
D03*
X-73917Y-1476D02*
D03*
X-72539Y-13583D02*
D03*
X-21457Y-70768D02*
D03*
X-9252Y-73327D02*
D03*
X60827Y-41929D02*
D03*
X6201Y-73622D02*
D03*
X68012Y-28445D02*
D03*
X71949Y-16831D02*
D03*
X48327Y56004D02*
D03*
X38287Y62894D02*
D03*
X-38484Y63090D02*
D03*
X-48228Y56004D02*
D03*
X-72047Y-16831D02*
D03*
X-68110Y-27953D02*
D03*
X-6102Y-73622D02*
D03*
X31299Y33936D02*
D03*
X-9055Y35236D02*
D03*
X-1135Y28937D02*
D03*
X13336Y32385D02*
D03*
X15679Y32413D02*
D03*
X-16634Y25591D02*
D03*
X-36417Y-18012D02*
D03*
X-19783Y-5807D02*
D03*
X-3839Y21063D02*
D03*
X7185Y15059D02*
D03*
X1378Y12992D02*
D03*
X-56595Y-9744D02*
D03*
X56528Y1508D02*
D03*
X0Y0D02*
D03*
X16500Y6016D02*
D03*
X25228Y-15421D02*
D03*
X-18669Y-15323D02*
D03*
X-6071Y-22016D02*
D03*
X7315Y-14043D02*
D03*
X-13354Y10957D02*
D03*
X-27362Y-20079D02*
D03*
X31035Y11252D02*
D03*
X-8728Y13614D02*
D03*
X17846Y-10500D02*
D03*
X-9713Y-15520D02*
D03*
X-26992Y-29519D02*
D03*
Y-26369D02*
D03*
X31260Y15048D02*
D03*
X28672Y9811D02*
D03*
X28644Y34918D02*
D03*
X28613Y24892D02*
D03*
X31232Y23358D02*
D03*
X-16012Y15484D02*
D03*
X15287Y-12173D02*
D03*
X10661Y-8531D02*
D03*
X-13500Y-23881D02*
D03*
X4551Y13213D02*
D03*
X-15815Y11842D02*
D03*
X-15618Y-4299D02*
D03*
X-9122Y-9614D02*
D03*
X5113Y-12567D02*
D03*
X10563Y-41307D02*
D03*
X-11681Y-31169D02*
D03*
X-11484Y-28413D02*
D03*
X29102Y19913D02*
D03*
X20575Y-45798D02*
D03*
X20711Y-42754D02*
D03*
X20779Y-39659D02*
D03*
X-31563Y9972D02*
D03*
X20799Y-36681D02*
D03*
X20898Y-30677D02*
D03*
Y-33630D02*
D03*
X-56594Y9941D02*
D03*
X-56632Y-1242D02*
D03*
X-56595Y1280D02*
D03*
X56528Y10268D02*
D03*
Y-1150D02*
D03*
Y-9910D02*
D03*
X-16000Y20016D02*
D03*
X15000Y8016D02*
D03*
X18000Y4016D02*
D03*
X19500Y2016D02*
D03*
X-11500Y-22484D02*
D03*
X-13844Y7576D02*
D03*
X-15558Y5725D02*
D03*
X-19000Y2016D02*
D03*
X-17276Y3848D02*
D03*
X-31500Y35016D02*
D03*
Y30016D02*
D03*
Y25016D02*
D03*
Y20016D02*
D03*
Y15016D02*
D03*
D60*
X62992Y62992D02*
D03*
X-62992D02*
D03*
Y-62992D02*
D03*
X62992D02*
D03*
D61*
X-2134Y-34614D02*
D03*
Y-30283D02*
D03*
X2197Y-34614D02*
D03*
Y-30283D02*
D03*
D62*
X33299Y-9713D02*
D03*
D63*
X14500Y-7252D02*
D03*
D64*
X32Y3372D02*
D03*
X3372Y32D02*
D03*
X-3309D02*
D03*
X32Y-3309D02*
D03*
D65*
X68988Y25938D02*
D03*
X70083Y22568D02*
D03*
X71178Y19198D02*
D03*
X-71206Y-19078D02*
D03*
X-70111Y-22448D02*
D03*
X-69016Y-25818D02*
D03*
D66*
X59627Y22897D02*
D03*
X60722Y19527D02*
D03*
X61817Y16157D02*
D03*
X-61845Y-16037D02*
D03*
X-60750Y-19407D02*
D03*
X-59655Y-22776D02*
D03*
D67*
X57107Y28661D02*
D03*
X55336Y31730D02*
D03*
X53564Y34798D02*
D03*
X-53579Y-34740D02*
D03*
X-55351Y-31672D02*
D03*
X-57123Y-28603D02*
D03*
D68*
X65631Y33582D02*
D03*
X63860Y36651D02*
D03*
X62088Y39720D02*
D03*
X-62103Y-39661D02*
D03*
X-63875Y-36593D02*
D03*
X-65647Y-33524D02*
D03*
D69*
X52461Y51778D02*
D03*
X54832Y49145D02*
D03*
X57203Y46512D02*
D03*
X-57274Y-46400D02*
D03*
X-54904Y-49033D02*
D03*
X-52533Y-51666D02*
D03*
D70*
X45147Y45192D02*
D03*
X47517Y42559D02*
D03*
X49888Y39926D02*
D03*
X-49960Y-39814D02*
D03*
X-47589Y-42447D02*
D03*
X-45218Y-45081D02*
D03*
D71*
X40461Y49455D02*
D03*
X37594Y51538D02*
D03*
X34728Y53620D02*
D03*
X-34756Y-53568D02*
D03*
X-37622Y-51486D02*
D03*
X-40489Y-49403D02*
D03*
D72*
X46246Y57418D02*
D03*
X43380Y59500D02*
D03*
X40513Y61583D02*
D03*
X-40541Y-61531D02*
D03*
X-43408Y-59448D02*
D03*
X-46274Y-57366D02*
D03*
D73*
X26798Y68674D02*
D03*
X30035Y67233D02*
D03*
X33272Y65792D02*
D03*
X-33302Y-65746D02*
D03*
X-30065Y-67188D02*
D03*
X-26828Y-68629D02*
D03*
D74*
X22794Y59682D02*
D03*
X26031Y58241D02*
D03*
X29268Y56800D02*
D03*
X-29299Y-56755D02*
D03*
X-26062Y-58196D02*
D03*
X-22825Y-59637D02*
D03*
D75*
X16798Y61650D02*
D03*
X13332Y62386D02*
D03*
X9866Y63123D02*
D03*
X-9816Y-63102D02*
D03*
X-13282Y-62365D02*
D03*
X-16748Y-61629D02*
D03*
D76*
X18844Y71277D02*
D03*
X15379Y72014D02*
D03*
X11913Y72750D02*
D03*
X-11863Y-72730D02*
D03*
X-15329Y-71993D02*
D03*
X-18794Y-71256D02*
D03*
D77*
X46219Y-57406D02*
D03*
X43352Y-59489D02*
D03*
X40485Y-61572D02*
D03*
X-40470Y61615D02*
D03*
X-43336Y59532D02*
D03*
X-46203Y57449D02*
D03*
D78*
X40433Y-49444D02*
D03*
X37567Y-51526D02*
D03*
X34700Y-53609D02*
D03*
X-34685Y53652D02*
D03*
X-37551Y51569D02*
D03*
X-40418Y49486D02*
D03*
D79*
X45080Y-45235D02*
D03*
X47451Y-42602D02*
D03*
X49822Y-39968D02*
D03*
X-49823Y39999D02*
D03*
X-47452Y42632D02*
D03*
X-45081Y45266D02*
D03*
D80*
X52394Y-51821D02*
D03*
X54765Y-49187D02*
D03*
X57136Y-46554D02*
D03*
X-57137Y46585D02*
D03*
X-54766Y49218D02*
D03*
X-52395Y51851D02*
D03*
D81*
X65605Y-33597D02*
D03*
X63833Y-36666D02*
D03*
X62061Y-39735D02*
D03*
X-62035Y39812D02*
D03*
X-63807Y36743D02*
D03*
X-65578Y33675D02*
D03*
D82*
X57081Y-28676D02*
D03*
X55309Y-31745D02*
D03*
X53537Y-34813D02*
D03*
X-53511Y34891D02*
D03*
X-55283Y31822D02*
D03*
X-57055Y28754D02*
D03*
D83*
X59602Y-22943D02*
D03*
X60697Y-19574D02*
D03*
X61792Y-16204D02*
D03*
X-61786Y16254D02*
D03*
X-60691Y19624D02*
D03*
X-59596Y22994D02*
D03*
D84*
X68963Y-25985D02*
D03*
X70057Y-22615D02*
D03*
X71152Y-19245D02*
D03*
X-71146Y19296D02*
D03*
X-70051Y22665D02*
D03*
X-68957Y26035D02*
D03*
D85*
X73606Y-3998D02*
D03*
X73235Y-7522D02*
D03*
X72865Y-11045D02*
D03*
X-72861Y11110D02*
D03*
X-73232Y7586D02*
D03*
X-73602Y4062D02*
D03*
D86*
X63817Y-2969D02*
D03*
X63447Y-6493D02*
D03*
X63076Y-10017D02*
D03*
X-63073Y10081D02*
D03*
X-63443Y6558D02*
D03*
X-63814Y3034D02*
D03*
D87*
X63777Y3377D02*
D03*
X63407Y6901D02*
D03*
X63036Y10425D02*
D03*
X-63085Y-9929D02*
D03*
X-63456Y-6405D02*
D03*
X-63826Y-2881D02*
D03*
D88*
X73566Y4406D02*
D03*
X73195Y7930D02*
D03*
X72825Y11454D02*
D03*
X-72874Y-10958D02*
D03*
X-73244Y-7434D02*
D03*
X-73615Y-3910D02*
D03*
D89*
X-3543Y-63764D02*
D03*
X-0D02*
D03*
X3543D02*
D03*
X-3543Y63795D02*
D03*
X0D02*
D03*
X3543D02*
D03*
D90*
X-3543Y-73606D02*
D03*
X0D02*
D03*
X3543D02*
D03*
X-3543Y73638D02*
D03*
X-0D02*
D03*
X3543D02*
D03*
D91*
X18875Y-71239D02*
D03*
X15409Y-71976D02*
D03*
X11943Y-72712D02*
D03*
X-11874Y72759D02*
D03*
X-15340Y72022D02*
D03*
X-18806Y71285D02*
D03*
D92*
X16829Y-61612D02*
D03*
X13363Y-62348D02*
D03*
X9897Y-63085D02*
D03*
X-9828Y63131D02*
D03*
X-13294Y62394D02*
D03*
X-16760Y61658D02*
D03*
D93*
X22771Y-59662D02*
D03*
X26008Y-58220D02*
D03*
X29244Y-56779D02*
D03*
X-29216Y56823D02*
D03*
X-25979Y58265D02*
D03*
X-22742Y59706D02*
D03*
D94*
X26774Y-68653D02*
D03*
X30011Y-67212D02*
D03*
X33248Y-65771D02*
D03*
X-33219Y65815D02*
D03*
X-29982Y67256D02*
D03*
X-26745Y68697D02*
D03*
M02*
