G04*
G04 #@! TF.GenerationSoftware,Altium Limited,Altium Designer,20.0.9 (164)*
G04*
G04 Layer_Physical_Order=1*
G04 Layer_Color=255*
%FSLAX25Y25*%
%MOIN*%
G70*
G01*
G75*
%ADD12C,0.00787*%
G04:AMPARAMS|DCode=13|XSize=20.47mil|YSize=22.05mil|CornerRadius=5.12mil|HoleSize=0mil|Usage=FLASHONLY|Rotation=0.000|XOffset=0mil|YOffset=0mil|HoleType=Round|Shape=RoundedRectangle|*
%AMROUNDEDRECTD13*
21,1,0.02047,0.01181,0,0,0.0*
21,1,0.01024,0.02205,0,0,0.0*
1,1,0.01024,0.00512,-0.00591*
1,1,0.01024,-0.00512,-0.00591*
1,1,0.01024,-0.00512,0.00591*
1,1,0.01024,0.00512,0.00591*
%
%ADD13ROUNDEDRECTD13*%
G04:AMPARAMS|DCode=14|XSize=20.47mil|YSize=22.05mil|CornerRadius=5.12mil|HoleSize=0mil|Usage=FLASHONLY|Rotation=90.000|XOffset=0mil|YOffset=0mil|HoleType=Round|Shape=RoundedRectangle|*
%AMROUNDEDRECTD14*
21,1,0.02047,0.01181,0,0,90.0*
21,1,0.01024,0.02205,0,0,90.0*
1,1,0.01024,0.00591,0.00512*
1,1,0.01024,0.00591,-0.00512*
1,1,0.01024,-0.00591,-0.00512*
1,1,0.01024,-0.00591,0.00512*
%
%ADD14ROUNDEDRECTD14*%
%ADD15R,0.00866X0.02520*%
%ADD16R,0.02520X0.00866*%
%ADD17R,0.11024X0.11024*%
%ADD18R,0.03150X0.02165*%
%ADD19R,0.02756X0.02165*%
%ADD20R,0.09449X0.02992*%
%ADD21R,0.03543X0.02835*%
%ADD22R,0.03347X0.02756*%
%ADD23P,0.13919X4X180.0*%
G04:AMPARAMS|DCode=24|XSize=7.87mil|YSize=29.53mil|CornerRadius=0mil|HoleSize=0mil|Usage=FLASHONLY|Rotation=135.000|XOffset=0mil|YOffset=0mil|HoleType=Round|Shape=Round|*
%AMOVALD24*
21,1,0.02165,0.00787,0.00000,0.00000,225.0*
1,1,0.00787,0.00766,0.00766*
1,1,0.00787,-0.00766,-0.00766*
%
%ADD24OVALD24*%

G04:AMPARAMS|DCode=25|XSize=7.87mil|YSize=29.53mil|CornerRadius=0mil|HoleSize=0mil|Usage=FLASHONLY|Rotation=225.000|XOffset=0mil|YOffset=0mil|HoleType=Round|Shape=Round|*
%AMOVALD25*
21,1,0.02165,0.00787,0.00000,0.00000,315.0*
1,1,0.00787,-0.00766,0.00766*
1,1,0.00787,0.00766,-0.00766*
%
%ADD25OVALD25*%

%ADD26C,0.03937*%
%ADD27R,0.02500X0.02500*%
%ADD52C,0.00591*%
%ADD53C,0.01181*%
%ADD54C,0.01575*%
%ADD55R,0.05906X0.05906*%
%ADD56C,0.05906*%
%ADD57C,0.09449*%
%ADD58C,0.08661*%
%ADD59C,0.01772*%
%ADD60C,0.21654*%
%ADD61C,0.01968*%
%ADD62C,0.02362*%
%ADD63C,0.02756*%
%ADD64C,0.02598*%
G36*
X2172Y76951D02*
X6522Y76702D01*
X10851Y76206D01*
X15145Y75467D01*
X19391Y74485D01*
X23574Y73265D01*
X27681Y71811D01*
X31700Y70126D01*
X33658Y69171D01*
X33679Y69166D01*
X33698Y69153D01*
X34594Y68775D01*
X34621Y68769D01*
X34645Y68755D01*
X36485Y68124D01*
X36522Y68119D01*
X36556Y68103D01*
X38446Y67642D01*
X38483Y67641D01*
X38518Y67628D01*
X40442Y67343D01*
X40479Y67345D01*
X40515Y67335D01*
X42457Y67227D01*
X42494Y67233D01*
X42531Y67227D01*
X44475Y67297D01*
X44511Y67305D01*
X44548Y67303D01*
X46478Y67551D01*
X46513Y67563D01*
X46550Y67564D01*
X48449Y67987D01*
X48483Y68002D01*
X48520Y68006D01*
X50371Y68602D01*
X50404Y68620D01*
X50440Y68628D01*
X52230Y69391D01*
X52260Y69412D01*
X52351Y69359D01*
X53088Y68508D01*
X52869Y68150D01*
X52186Y66503D01*
X51770Y64770D01*
X51630Y62992D01*
X51770Y61215D01*
X52186Y59481D01*
X52869Y57834D01*
X53800Y56314D01*
X54958Y54958D01*
X56314Y53800D01*
X57834Y52869D01*
X59481Y52186D01*
X61215Y51770D01*
X62992Y51630D01*
X64770Y51770D01*
X66503Y52186D01*
X68150Y52869D01*
X68771Y53249D01*
X68913Y53172D01*
X69442Y52811D01*
X69698Y52432D01*
X68694Y49908D01*
X68685Y49857D01*
X68663Y49811D01*
X67942Y47013D01*
X67939Y46962D01*
X67923Y46913D01*
X67560Y44047D01*
X67564Y43996D01*
X67554Y43945D01*
X67556Y41056D01*
X67566Y41006D01*
X67562Y40955D01*
X67928Y38088D01*
X67945Y38040D01*
X67948Y37989D01*
X68672Y35191D01*
X68689Y35157D01*
X68695Y35119D01*
X69188Y33760D01*
X69210Y33724D01*
X69221Y33683D01*
X70172Y31723D01*
X71851Y27702D01*
X73300Y23593D01*
X74514Y19408D01*
X75489Y15161D01*
X76222Y10866D01*
X76711Y6536D01*
X76955Y2186D01*
X76951Y-2172D01*
X76702Y-6522D01*
X76206Y-10851D01*
X75467Y-15145D01*
X74485Y-19391D01*
X73265Y-23574D01*
X71811Y-27681D01*
X70126Y-31700D01*
X69171Y-33658D01*
X69166Y-33679D01*
X69153Y-33698D01*
X68775Y-34594D01*
X68769Y-34621D01*
X68755Y-34645D01*
X68124Y-36485D01*
X68119Y-36522D01*
X68103Y-36556D01*
X67642Y-38446D01*
X67641Y-38483D01*
X67628Y-38518D01*
X67343Y-40442D01*
X67345Y-40479D01*
X67335Y-40515D01*
X67227Y-42457D01*
X67233Y-42494D01*
X67227Y-42531D01*
X67297Y-44475D01*
X67305Y-44511D01*
X67303Y-44548D01*
X67551Y-46477D01*
X67563Y-46513D01*
X67564Y-46550D01*
X67987Y-48449D01*
X68002Y-48483D01*
X68006Y-48520D01*
X68602Y-50371D01*
X68620Y-50404D01*
X68628Y-50440D01*
X69391Y-52229D01*
X69412Y-52260D01*
X69359Y-52351D01*
X68508Y-53088D01*
X68150Y-52869D01*
X66503Y-52186D01*
X64770Y-51770D01*
X62992Y-51630D01*
X61215Y-51770D01*
X59481Y-52186D01*
X57834Y-52869D01*
X56314Y-53800D01*
X54958Y-54958D01*
X53800Y-56314D01*
X52869Y-57834D01*
X52186Y-59481D01*
X51770Y-61215D01*
X51630Y-62992D01*
X51770Y-64770D01*
X52186Y-66503D01*
X52869Y-68150D01*
X53249Y-68771D01*
X53171Y-68913D01*
X52811Y-69442D01*
X52432Y-69698D01*
X49908Y-68694D01*
X49857Y-68685D01*
X49811Y-68663D01*
X47013Y-67942D01*
X46962Y-67939D01*
X46913Y-67923D01*
X44047Y-67560D01*
X43996Y-67564D01*
X43945Y-67554D01*
X42497Y-67555D01*
X42329Y-67324D01*
X42054Y-66374D01*
X42403Y-66025D01*
X42403Y-66025D01*
X42578Y-65763D01*
X42640Y-65453D01*
Y-42341D01*
X42824Y-42180D01*
X43749Y-41779D01*
X48908Y-46938D01*
X49171Y-47114D01*
X49480Y-47175D01*
X49480Y-47175D01*
X60586D01*
X60586Y-47175D01*
X60895Y-47114D01*
X61158Y-46938D01*
X64844Y-43252D01*
X64844Y-43252D01*
X65019Y-42990D01*
X65081Y-42680D01*
Y-33174D01*
X65425Y-32927D01*
X66262Y-32651D01*
X66487Y-32801D01*
X67028Y-32909D01*
X67568Y-32801D01*
X68027Y-32495D01*
X68333Y-32037D01*
X68441Y-31496D01*
X68333Y-30955D01*
X68527Y-29890D01*
X68751Y-29617D01*
X69011Y-29444D01*
X69317Y-28986D01*
X69425Y-28445D01*
X69317Y-27904D01*
X69011Y-27446D01*
X68553Y-27139D01*
X68012Y-27032D01*
X67471Y-27139D01*
X67013Y-27446D01*
X66706Y-27904D01*
X66621Y-28332D01*
X66617Y-28333D01*
X66354Y-28508D01*
X66354Y-28508D01*
X64392Y-30471D01*
X63211Y-29981D01*
Y6653D01*
X71823Y15265D01*
X72047Y15221D01*
X72588Y15328D01*
X73046Y15635D01*
X73353Y16093D01*
X73460Y16634D01*
X73353Y17175D01*
X73046Y17633D01*
X72588Y17939D01*
X72047Y18047D01*
X71507Y17939D01*
X71048Y17633D01*
X70742Y17175D01*
X70634Y16634D01*
X70679Y16410D01*
X61829Y7560D01*
X61654Y7298D01*
X61592Y6988D01*
X61592Y6988D01*
Y-32932D01*
X57736Y-36789D01*
X50488Y-36977D01*
X31005Y-17495D01*
X30743Y-17319D01*
X30433Y-17258D01*
X30433Y-17258D01*
X26980D01*
X26904Y-17173D01*
X26457Y-16077D01*
X26534Y-15962D01*
X26641Y-15421D01*
X26534Y-14881D01*
X26228Y-14422D01*
X25769Y-14116D01*
X25228Y-14008D01*
X24841Y-14085D01*
X24148Y-13853D01*
X23660Y-13616D01*
X23660Y-13407D01*
Y-12317D01*
X23660Y-12226D01*
Y-10700D01*
X21488D01*
X19317D01*
Y-12226D01*
X19317Y-12317D01*
Y-13407D01*
X19317Y-13498D01*
Y-15037D01*
X10792D01*
X9973Y-14221D01*
X9874Y-13856D01*
X9994Y-13681D01*
X10289Y-13623D01*
X10462Y-13507D01*
X10695Y-13421D01*
X11612D01*
X11845Y-13507D01*
X12018Y-13623D01*
X12374Y-13693D01*
X12686D01*
Y-12173D01*
Y-10653D01*
X12374D01*
X12018Y-10724D01*
X11845Y-10839D01*
X11612Y-10925D01*
X10695D01*
X10462Y-10839D01*
X10289Y-10724D01*
X9933Y-10653D01*
X9356D01*
X8357Y-9655D01*
X8355Y-9654D01*
X6978Y-8275D01*
X6937Y-8077D01*
X7194Y-6983D01*
X8138Y-6898D01*
X8315Y-6938D01*
X8578Y-7114D01*
X8887Y-7175D01*
X12022D01*
X12085Y-7252D01*
X12269Y-8176D01*
X12792Y-8960D01*
X13576Y-9483D01*
X14500Y-9667D01*
X15424Y-9483D01*
X16208Y-8960D01*
X16731Y-8176D01*
X16915Y-7252D01*
X16731Y-6328D01*
X17489Y-5336D01*
X17577Y-5288D01*
X17933Y-5359D01*
X18957D01*
X19312Y-5288D01*
X19485Y-5173D01*
X19719Y-5086D01*
X20635D01*
X20869Y-5173D01*
X21042Y-5288D01*
X21398Y-5359D01*
X22421D01*
X22777Y-5288D01*
X23079Y-5086D01*
X23280Y-4785D01*
X24016Y-4648D01*
X24325Y-4586D01*
X24588Y-4411D01*
X27688Y-1310D01*
X27688Y-1310D01*
X35809Y6810D01*
X35985Y7073D01*
X36046Y7383D01*
X36895Y8076D01*
X42577D01*
Y11868D01*
X36429D01*
X36350Y11884D01*
X36350Y11884D01*
X33525D01*
X33517Y11895D01*
X34130Y13076D01*
X42577D01*
Y16869D01*
X32475D01*
X32135Y17288D01*
X32091Y17384D01*
X32629Y18076D01*
X42577D01*
Y21869D01*
X34560D01*
X34001Y22501D01*
X33881Y23050D01*
X33909Y23076D01*
X42577D01*
Y26869D01*
X34224D01*
X33593Y28050D01*
X33611Y28076D01*
X42577D01*
Y31868D01*
X34176D01*
X33499Y33033D01*
X33583Y33076D01*
X42577D01*
Y36869D01*
X32328D01*
Y36257D01*
X32304Y36207D01*
X31299Y35349D01*
X30759Y35241D01*
X30300Y34935D01*
X29994Y34477D01*
X29886Y33936D01*
X29994Y33395D01*
X30300Y32937D01*
X30759Y32631D01*
X31299Y32523D01*
X31408Y32545D01*
X31434Y32544D01*
X32301Y31672D01*
X32328Y31615D01*
X32328Y30941D01*
X32315Y30865D01*
X32129Y29789D01*
X31820Y29727D01*
X31557Y29552D01*
X30077Y28071D01*
X28756D01*
X27577Y28076D01*
X27577Y29253D01*
Y29772D01*
X22453D01*
Y29972D01*
X22253D01*
Y31868D01*
X19095D01*
X18759Y32418D01*
X19155Y33076D01*
X22253D01*
Y34772D01*
X17328D01*
Y34398D01*
X16243Y33733D01*
X16147Y33733D01*
X15679Y33826D01*
X15138Y33719D01*
X14680Y33413D01*
X13876Y33691D01*
X13336Y33798D01*
X12795Y33691D01*
X12336Y33384D01*
X12030Y32926D01*
X11923Y32385D01*
X10847Y31739D01*
X8935D01*
X8261Y31739D01*
X7979Y32803D01*
Y34160D01*
X4029D01*
Y31194D01*
X4273D01*
X5195Y30610D01*
X5256Y30301D01*
X5432Y30038D01*
X6121Y29349D01*
X6121Y29349D01*
X6383Y29174D01*
X6693Y29112D01*
X7623D01*
X8258Y28109D01*
X8141Y26976D01*
X7219Y26680D01*
X4029D01*
Y23714D01*
X6935D01*
X7950Y22848D01*
X7859Y22268D01*
X6890D01*
X6534Y22197D01*
X6534Y22197D01*
X6232Y21996D01*
X5677D01*
X5376Y22197D01*
X5376Y22197D01*
X5020Y22268D01*
X3839D01*
X2861Y22447D01*
X2861Y22447D01*
X-1286D01*
Y21872D01*
X-2713D01*
X-2840Y22062D01*
X-3298Y22368D01*
X-3839Y22476D01*
X-4379Y22368D01*
X-4838Y22062D01*
X-5144Y21604D01*
X-5252Y21063D01*
X-5144Y20522D01*
X-4838Y20064D01*
X-4379Y19758D01*
X-3839Y19650D01*
X-3298Y19758D01*
X-2840Y20064D01*
X-2713Y20254D01*
X-1286D01*
Y18904D01*
X-1286Y18891D01*
Y17723D01*
X-1286Y17710D01*
Y15483D01*
X-2467Y14993D01*
X-12151Y24678D01*
Y28862D01*
X-11311D01*
Y29805D01*
X-11238Y29835D01*
X-10535Y30538D01*
X-10007Y30631D01*
X-9219Y30544D01*
X-8995Y30320D01*
X-8950Y30184D01*
X-9011Y30017D01*
X-9127Y29844D01*
X-9197Y29488D01*
Y29176D01*
X-7677D01*
Y28976D01*
X-7477D01*
Y27535D01*
X-7087D01*
X-6995Y27553D01*
X-5813Y27454D01*
Y26680D01*
X-5813Y26273D01*
Y23714D01*
X-1864D01*
Y24679D01*
X-1588D01*
X-1201Y24756D01*
X-874Y24975D01*
X1556Y27404D01*
X1775Y27732D01*
X1852Y28119D01*
Y29756D01*
X1775Y30142D01*
X1556Y30470D01*
X-874Y32899D01*
X-1201Y33118D01*
X-1588Y33195D01*
X-1864D01*
Y34160D01*
X-4340D01*
X-4570Y34357D01*
X-5167Y35320D01*
Y39568D01*
X-4486Y39851D01*
X-3785Y40388D01*
X-3248Y41088D01*
X-2966Y41769D01*
X613D01*
X895Y41088D01*
X1432Y40388D01*
X2132Y39851D01*
X2948Y39513D01*
X3823Y39397D01*
X4699Y39513D01*
X5514Y39851D01*
X6214Y40388D01*
X6752Y41088D01*
X7090Y41904D01*
X7205Y42779D01*
X7090Y43654D01*
X6752Y44470D01*
X6214Y45170D01*
X5514Y45708D01*
X4833Y45990D01*
Y49608D01*
X5514Y49890D01*
X6214Y50427D01*
X6752Y51128D01*
X7090Y51943D01*
X7205Y52819D01*
X7090Y53694D01*
X6752Y54509D01*
X6214Y55210D01*
X5514Y55747D01*
X4699Y56085D01*
X3823Y56200D01*
X2948Y56085D01*
X2132Y55747D01*
X1432Y55210D01*
X895Y54509D01*
X557Y53694D01*
X442Y52819D01*
X557Y51943D01*
X895Y51128D01*
X1432Y50427D01*
X2132Y49890D01*
X2813Y49608D01*
Y45990D01*
X2132Y45708D01*
X1432Y45170D01*
X895Y44470D01*
X613Y43789D01*
X-2966D01*
X-3248Y44470D01*
X-3785Y45170D01*
X-4486Y45708D01*
X-5167Y45990D01*
Y49608D01*
X-4486Y49890D01*
X-3785Y50427D01*
X-3248Y51128D01*
X-2910Y51943D01*
X-2795Y52819D01*
X-2910Y53694D01*
X-3248Y54509D01*
X-3785Y55210D01*
X-4486Y55747D01*
X-5301Y56085D01*
X-6177Y56200D01*
X-7052Y56085D01*
X-7868Y55747D01*
X-8568Y55210D01*
X-9105Y54509D01*
X-9443Y53694D01*
X-9558Y52819D01*
X-9443Y51943D01*
X-9105Y51128D01*
X-8568Y50427D01*
X-7868Y49890D01*
X-7187Y49608D01*
Y45990D01*
X-7868Y45708D01*
X-8568Y45170D01*
X-9105Y44470D01*
X-9443Y43654D01*
X-9558Y42779D01*
X-9443Y41904D01*
X-9105Y41088D01*
X-8568Y40388D01*
X-7868Y39851D01*
X-7187Y39568D01*
Y36967D01*
X-7337Y36841D01*
X-8368Y36444D01*
X-8514Y36542D01*
X-9055Y36649D01*
X-9596Y36542D01*
X-10054Y36235D01*
X-10181Y36046D01*
X-11311D01*
Y36162D01*
X-14611D01*
Y35782D01*
X-17364D01*
Y36869D01*
X-27613D01*
Y33076D01*
X-17364D01*
Y33242D01*
X-17036Y33353D01*
X-16467Y33059D01*
X-16023Y32448D01*
X-16341Y31677D01*
X-17364Y31868D01*
Y31868D01*
X-27613D01*
Y28076D01*
X-17364D01*
Y29706D01*
X-14611D01*
Y28862D01*
X-13770D01*
Y24342D01*
X-13770Y24342D01*
X-13708Y24033D01*
X-14671Y23348D01*
X-15572Y24249D01*
Y24686D01*
X-15328Y25050D01*
X-15221Y25591D01*
X-15328Y26131D01*
X-15635Y26590D01*
X-16093Y26896D01*
X-16634Y27003D01*
X-17364Y26869D01*
X-17364Y26869D01*
X-27613D01*
Y23076D01*
X-21464D01*
X-21386Y23061D01*
X-21386Y23061D01*
X-17517D01*
X-17382Y22481D01*
X-17753Y21869D01*
X-27613D01*
Y18076D01*
X-17364D01*
X-17364Y18076D01*
X-16183Y18639D01*
X-16000Y18603D01*
X-15459Y18710D01*
X-15001Y19017D01*
X-14720Y19437D01*
X-14688Y19477D01*
X-13436Y19824D01*
X-9614Y16002D01*
X-9588Y15919D01*
X-9727Y14613D01*
X-10034Y14155D01*
X-10141Y13614D01*
X-10135Y13581D01*
X-10302Y13215D01*
X-10859Y12578D01*
X-10950Y12524D01*
Y10957D01*
X-11150D01*
Y10757D01*
X-12591D01*
Y10366D01*
X-12520Y10010D01*
X-12378Y9797D01*
X-12401Y9699D01*
X-13304Y8882D01*
X-13844Y8989D01*
X-14385Y8882D01*
X-14843Y8575D01*
X-15150Y8117D01*
X-15558Y7137D01*
X-16098Y7030D01*
X-16557Y6724D01*
X-16863Y6265D01*
X-16971Y5725D01*
X-17276Y5261D01*
X-17817Y5153D01*
X-17817D01*
X-18276Y4847D01*
X-18582Y4389D01*
X-19000Y3429D01*
X-19541Y3321D01*
X-19999Y3015D01*
X-20007Y3003D01*
X-21239Y2744D01*
X-21463Y2788D01*
X-25660Y6985D01*
X-25208Y8076D01*
X-17364D01*
Y9297D01*
X-16849Y10266D01*
X-16539Y10327D01*
X-16277Y10503D01*
X-16261Y10518D01*
X-15815Y10430D01*
X-15274Y10537D01*
X-14816Y10843D01*
X-14510Y11302D01*
X-14402Y11842D01*
X-14510Y12383D01*
X-14816Y12842D01*
X-15162Y13073D01*
X-15250Y13389D01*
X-15260Y13495D01*
X-15226Y14343D01*
X-15013Y14485D01*
X-14706Y14943D01*
X-14599Y15484D01*
X-14706Y16025D01*
X-15013Y16483D01*
X-15471Y16790D01*
X-16012Y16897D01*
X-16183Y16863D01*
X-17364Y16869D01*
X-17364Y16869D01*
X-27613D01*
Y16598D01*
X-27952Y15512D01*
X-28262Y15451D01*
X-28524Y15275D01*
X-28524Y15275D01*
X-28986Y14814D01*
X-29161Y14552D01*
X-29223Y14242D01*
X-29223Y14242D01*
Y8595D01*
X-29223Y8595D01*
X-29161Y8285D01*
X-28986Y8022D01*
X-28659Y7695D01*
X-28578Y7575D01*
X-28114Y7111D01*
X-28114Y7110D01*
X-27994Y7030D01*
X-16970Y-3993D01*
X-17031Y-4299D01*
X-16924Y-4840D01*
X-16617Y-5298D01*
X-16159Y-5605D01*
X-15986Y-5639D01*
X-15538Y-6649D01*
X-15521Y-6844D01*
X-16566Y-7890D01*
X-16742Y-8152D01*
X-16803Y-8462D01*
X-16803Y-8462D01*
Y-12597D01*
X-17848Y-13164D01*
X-18303Y-12608D01*
X-18232Y-12252D01*
Y-11228D01*
X-18303Y-10873D01*
X-18418Y-10700D01*
X-18504Y-10466D01*
Y-9550D01*
X-18418Y-9316D01*
X-18303Y-9143D01*
X-18232Y-8787D01*
Y-7764D01*
X-18303Y-7408D01*
X-18504Y-7106D01*
X-18478Y-6348D01*
X-18371Y-5807D01*
X-18478Y-5266D01*
X-18784Y-4808D01*
X-19243Y-4502D01*
X-19783Y-4394D01*
X-20324Y-4502D01*
X-20783Y-4808D01*
X-21089Y-5266D01*
X-21196Y-5807D01*
X-21163Y-5977D01*
X-21587Y-6494D01*
X-22206Y-6655D01*
X-22206Y-6655D01*
X-22206Y-6655D01*
X-25762D01*
Y-9621D01*
X-22206D01*
Y-9621D01*
X-22181Y-9616D01*
X-21198Y-10323D01*
X-21054Y-10612D01*
X-21086Y-10700D01*
X-21201Y-10873D01*
X-21272Y-11228D01*
Y-12252D01*
X-21201Y-12608D01*
X-21000Y-12909D01*
X-20950Y-12943D01*
X-20938Y-13121D01*
X-22053Y-14157D01*
X-22206Y-14135D01*
Y-14135D01*
X-25762D01*
Y-17101D01*
X-22206D01*
Y-16280D01*
X-19697D01*
X-19668Y-16322D01*
X-19210Y-16628D01*
X-18669Y-16736D01*
X-18129Y-16628D01*
X-17985Y-16532D01*
X-16948Y-16933D01*
X-16905Y-16970D01*
X-16943Y-18156D01*
X-17764Y-18706D01*
X-17985Y-18749D01*
X-18406Y-18666D01*
X-18946Y-18773D01*
X-20032Y-18831D01*
X-20333Y-18629D01*
X-20689Y-18559D01*
X-21713D01*
X-22068Y-18629D01*
X-22241Y-18745D01*
X-22475Y-18831D01*
X-23391D01*
X-23625Y-18745D01*
X-23798Y-18629D01*
X-24153Y-18559D01*
X-25177D01*
X-25533Y-18629D01*
X-25835Y-18831D01*
X-26822Y-18773D01*
X-27362Y-18666D01*
X-27903Y-18773D01*
X-28361Y-19080D01*
X-28668Y-19538D01*
X-28775Y-20079D01*
X-28668Y-20619D01*
X-28477Y-20905D01*
X-28367Y-21141D01*
X-28372Y-21208D01*
X-28503Y-22293D01*
X-28552Y-22367D01*
X-28766Y-22688D01*
X-28874Y-23228D01*
X-28874Y-23228D01*
X-28835Y-23424D01*
X-28766Y-23769D01*
X-28460Y-24227D01*
X-28001Y-24534D01*
X-27461Y-24641D01*
X-26920Y-24534D01*
X-26877Y-24532D01*
X-26055Y-25371D01*
X-26059Y-25423D01*
X-26130Y-25778D01*
Y-26169D01*
X-24689D01*
Y-26569D01*
X-26130D01*
Y-26960D01*
X-26059Y-27315D01*
X-26012Y-27944D01*
X-26059Y-28572D01*
X-26130Y-28928D01*
Y-29319D01*
X-24689D01*
Y-29719D01*
X-26130D01*
Y-30109D01*
X-26059Y-30465D01*
X-25858Y-30767D01*
X-25556Y-30968D01*
X-25200Y-31039D01*
X-25081D01*
X-24149Y-31988D01*
X-24109Y-32192D01*
X-24042Y-32529D01*
X-23735Y-32987D01*
Y-33548D01*
X-24042Y-34007D01*
X-24149Y-34547D01*
X-24042Y-35088D01*
X-23735Y-35546D01*
X-23834Y-36206D01*
X-24140Y-36664D01*
X-24248Y-37205D01*
X-24140Y-37745D01*
X-23834Y-38204D01*
X-23375Y-38510D01*
X-22835Y-38618D01*
X-22391Y-38529D01*
X-22173Y-38594D01*
X-21252Y-39235D01*
Y-39535D01*
X-21182Y-39891D01*
X-20980Y-40193D01*
X-20679Y-40394D01*
X-20323Y-40465D01*
X-19299D01*
X-18944Y-40394D01*
X-18771Y-40279D01*
X-18537Y-40193D01*
X-17621Y-40193D01*
X-17387Y-40279D01*
X-17214Y-40394D01*
X-16858Y-40465D01*
X-15835D01*
X-15479Y-40394D01*
X-15177Y-40193D01*
X-14976Y-39891D01*
X-14905Y-39535D01*
Y-39294D01*
X-12992D01*
X-12992Y-39294D01*
X-12682Y-39232D01*
X-12420Y-39057D01*
X-12133Y-38770D01*
X-9207D01*
Y-38794D01*
X-6313D01*
Y-40543D01*
X-8007Y-42237D01*
X-9286D01*
X-9596Y-42298D01*
X-9859Y-42474D01*
X-10919Y-43534D01*
X-11094Y-43796D01*
X-11156Y-44106D01*
X-11545Y-44405D01*
X-11846Y-44606D01*
X-12048Y-44908D01*
X-12119Y-45264D01*
Y-46287D01*
X-12048Y-46643D01*
X-11932Y-46816D01*
X-11846Y-47050D01*
X-11846Y-47966D01*
X-11932Y-48200D01*
X-12048Y-48373D01*
X-12119Y-48728D01*
Y-49752D01*
X-12048Y-50108D01*
X-11846Y-50409D01*
X-11578Y-50589D01*
X-11549Y-50867D01*
X-11564Y-51811D01*
X-11629Y-51855D01*
X-11935Y-52314D01*
X-12043Y-52854D01*
X-11935Y-53395D01*
X-11629Y-53853D01*
X-11171Y-54160D01*
X-10630Y-54267D01*
X-10089Y-54160D01*
X-9786Y-54261D01*
X-8941Y-54785D01*
X-8884Y-55068D01*
X-8578Y-55527D01*
X-8119Y-55833D01*
X-7579Y-55941D01*
X-7038Y-55833D01*
X-6941Y-55768D01*
X-6165Y-56143D01*
X-5829Y-56367D01*
X-5734Y-56840D01*
X-5428Y-57298D01*
X-4970Y-57605D01*
X-4445Y-57709D01*
X-4429Y-57712D01*
X-4429Y-57712D01*
X-3888Y-57605D01*
X-3030Y-57355D01*
X-2082Y-57540D01*
X-1542Y-57648D01*
X-1542Y-57648D01*
X-1507Y-57641D01*
X-1001Y-57540D01*
X-543Y-57234D01*
X-236Y-56775D01*
X-161Y-56396D01*
X647Y-55823D01*
X904Y-55687D01*
X1445Y-55794D01*
X1985Y-55687D01*
X2444Y-55380D01*
X2750Y-54922D01*
X2856Y-54388D01*
X3104Y-54180D01*
X3947Y-53805D01*
X4184Y-53963D01*
X4724Y-54071D01*
X5265Y-53963D01*
X5723Y-53657D01*
X6030Y-53198D01*
X6137Y-52658D01*
X6030Y-52117D01*
X5802Y-51776D01*
X5749Y-51462D01*
X5882Y-50425D01*
X5905Y-50409D01*
X6107Y-50108D01*
X6178Y-49752D01*
Y-48728D01*
X6107Y-48373D01*
X5991Y-48200D01*
X5905Y-47966D01*
X5905Y-47050D01*
X5991Y-46816D01*
X6107Y-46643D01*
X6178Y-46287D01*
X7359Y-45803D01*
X7963Y-46407D01*
X7963Y-46407D01*
X8225Y-46582D01*
X8535Y-46644D01*
X11960D01*
X11988Y-46781D01*
X12189Y-47083D01*
X12491Y-47284D01*
X12846Y-47355D01*
X13870D01*
X14226Y-47284D01*
X14399Y-47169D01*
X14633Y-47083D01*
X15549D01*
X15782Y-47169D01*
X15955Y-47284D01*
X16311Y-47355D01*
X17335D01*
X17690Y-47284D01*
X17992Y-47083D01*
X18193Y-46781D01*
X18228Y-46607D01*
X19449D01*
X19576Y-46797D01*
X20034Y-47103D01*
X20575Y-47211D01*
X21116Y-47103D01*
X21574Y-46797D01*
X21881Y-46338D01*
X21988Y-45798D01*
X21881Y-45257D01*
X21708Y-44283D01*
X21704Y-44217D01*
X21805Y-43914D01*
X22017Y-43295D01*
X22124Y-42754D01*
X22124Y-42754D01*
X22121Y-42736D01*
X22017Y-42213D01*
X21855Y-41971D01*
X21715Y-41708D01*
X21718Y-41657D01*
X21801Y-40624D01*
X21907Y-40466D01*
X22085Y-40200D01*
X22192Y-39659D01*
X22085Y-39118D01*
X21986Y-38971D01*
X21878Y-38805D01*
X21833Y-38168D01*
X21904Y-37522D01*
X22105Y-37222D01*
X22212Y-36681D01*
X22105Y-36140D01*
X21948Y-35907D01*
X21803Y-35630D01*
X21897Y-34629D01*
X22203Y-34171D01*
X22311Y-33630D01*
X22203Y-33089D01*
X21897Y-32631D01*
Y-31676D01*
X22203Y-31218D01*
X22311Y-30677D01*
X22203Y-30136D01*
X21897Y-29678D01*
X21438Y-29372D01*
X20898Y-29264D01*
X20357Y-29372D01*
X19898Y-29678D01*
X19772Y-29868D01*
X18221D01*
X18193Y-29731D01*
X17992Y-29429D01*
X17690Y-29228D01*
X17335Y-29157D01*
X16311D01*
X15955Y-29228D01*
X15782Y-29343D01*
X15549Y-29429D01*
X14633D01*
X14399Y-29343D01*
X14226Y-29228D01*
X13870Y-29157D01*
X12846D01*
X12491Y-29228D01*
X12189Y-29429D01*
X11988Y-29731D01*
X11079Y-29868D01*
X10770Y-29930D01*
X10507Y-30105D01*
X10451Y-30161D01*
X9270Y-29672D01*
Y-26104D01*
X10247Y-25611D01*
X20401D01*
X39447Y-44657D01*
Y-53146D01*
X24152Y-68441D01*
X23967Y-68478D01*
X23509Y-68784D01*
X23202Y-69243D01*
X23095Y-69784D01*
X23202Y-70324D01*
X23509Y-70783D01*
X23967Y-71089D01*
X24508Y-71196D01*
X25049Y-71089D01*
X25507Y-70783D01*
X25813Y-70324D01*
X25921Y-69784D01*
X25813Y-69243D01*
X25744Y-69138D01*
X39840Y-55042D01*
X41021Y-55531D01*
Y-62688D01*
X39840Y-62805D01*
X39790Y-62550D01*
X39483Y-62091D01*
X39025Y-61785D01*
X38484Y-61678D01*
X37944Y-61785D01*
X37485Y-62091D01*
X37179Y-62550D01*
X37071Y-63090D01*
X37179Y-63631D01*
X37350Y-63888D01*
X37482Y-64540D01*
Y-64540D01*
X37482Y-64540D01*
X37477Y-65180D01*
X37352Y-65391D01*
X37277Y-65503D01*
X37170Y-66043D01*
X37277Y-66584D01*
X37464Y-66864D01*
X37331Y-67684D01*
X37141Y-68167D01*
X35191Y-68672D01*
X35157Y-68689D01*
X35119Y-68695D01*
X33760Y-69188D01*
X33724Y-69210D01*
X33683Y-69221D01*
X31723Y-70172D01*
X27702Y-71851D01*
X23593Y-73300D01*
X19408Y-74514D01*
X15161Y-75489D01*
X10866Y-76222D01*
X6536Y-76711D01*
X2186Y-76955D01*
X-2172Y-76951D01*
X-6522Y-76702D01*
X-10851Y-76206D01*
X-15145Y-75467D01*
X-19391Y-74485D01*
X-23574Y-73265D01*
X-27681Y-71811D01*
X-31700Y-70126D01*
X-33658Y-69171D01*
X-33679Y-69166D01*
X-33698Y-69153D01*
X-34594Y-68775D01*
X-34621Y-68769D01*
X-34645Y-68755D01*
X-36485Y-68124D01*
X-36522Y-68119D01*
X-36556Y-68103D01*
X-38446Y-67642D01*
X-38483Y-67641D01*
X-38518Y-67628D01*
X-40442Y-67343D01*
X-40479Y-67345D01*
X-40515Y-67335D01*
X-42457Y-67227D01*
X-42494Y-67233D01*
X-42531Y-67227D01*
X-44475Y-67297D01*
X-44511Y-67305D01*
X-44548Y-67303D01*
X-46478Y-67551D01*
X-46513Y-67563D01*
X-46550Y-67564D01*
X-48449Y-67987D01*
X-48483Y-68002D01*
X-48520Y-68006D01*
X-50371Y-68602D01*
X-50404Y-68620D01*
X-50440Y-68628D01*
X-52230Y-69391D01*
X-52260Y-69412D01*
X-52351Y-69359D01*
X-53088Y-68508D01*
X-52869Y-68150D01*
X-52186Y-66503D01*
X-51770Y-64770D01*
X-51630Y-62992D01*
X-51770Y-61215D01*
X-52186Y-59481D01*
X-52869Y-57834D01*
X-53800Y-56314D01*
X-54958Y-54958D01*
X-56314Y-53800D01*
X-57834Y-52869D01*
X-59481Y-52186D01*
X-61215Y-51770D01*
X-62992Y-51630D01*
X-64770Y-51770D01*
X-66503Y-52186D01*
X-68150Y-52869D01*
X-68771Y-53249D01*
X-68913Y-53172D01*
X-69442Y-52811D01*
X-69698Y-52432D01*
X-68694Y-49908D01*
X-68685Y-49857D01*
X-68663Y-49811D01*
X-67942Y-47013D01*
X-67939Y-46962D01*
X-67923Y-46913D01*
X-67560Y-44047D01*
X-67564Y-43996D01*
X-67554Y-43945D01*
X-67556Y-41056D01*
X-67566Y-41006D01*
X-67562Y-40955D01*
X-67928Y-38088D01*
X-67945Y-38040D01*
X-67948Y-37989D01*
X-68672Y-35191D01*
X-68689Y-35157D01*
X-68695Y-35119D01*
X-69188Y-33760D01*
X-69210Y-33724D01*
X-69221Y-33683D01*
X-70172Y-31723D01*
X-71851Y-27702D01*
X-73300Y-23593D01*
X-74514Y-19408D01*
X-75489Y-15161D01*
X-76222Y-10866D01*
X-76711Y-6536D01*
X-76955Y-2186D01*
X-76951Y2172D01*
X-76702Y6522D01*
X-76206Y10851D01*
X-75467Y15145D01*
X-74485Y19391D01*
X-73265Y23574D01*
X-71811Y27681D01*
X-70126Y31700D01*
X-69171Y33658D01*
X-69166Y33679D01*
X-69153Y33698D01*
X-68775Y34594D01*
X-68769Y34621D01*
X-68755Y34645D01*
X-68124Y36485D01*
X-68119Y36522D01*
X-68103Y36556D01*
X-67642Y38446D01*
X-67641Y38483D01*
X-67628Y38518D01*
X-67343Y40442D01*
X-67345Y40479D01*
X-67335Y40515D01*
X-67227Y42457D01*
X-67233Y42494D01*
X-67227Y42531D01*
X-67297Y44475D01*
X-67305Y44511D01*
X-67303Y44548D01*
X-67551Y46478D01*
X-67563Y46513D01*
X-67564Y46550D01*
X-67987Y48449D01*
X-68002Y48483D01*
X-68006Y48520D01*
X-68602Y50371D01*
X-68620Y50404D01*
X-68628Y50440D01*
X-69391Y52230D01*
X-69412Y52260D01*
X-69359Y52351D01*
X-68508Y53088D01*
X-68150Y52869D01*
X-66503Y52186D01*
X-64770Y51770D01*
X-62992Y51630D01*
X-61215Y51770D01*
X-59481Y52186D01*
X-57834Y52869D01*
X-56314Y53800D01*
X-54958Y54958D01*
X-53800Y56314D01*
X-52869Y57834D01*
X-52186Y59481D01*
X-51770Y61215D01*
X-51630Y62992D01*
X-51770Y64770D01*
X-52186Y66503D01*
X-52869Y68150D01*
X-53249Y68771D01*
X-53172Y68913D01*
X-52811Y69442D01*
X-52432Y69698D01*
X-49908Y68694D01*
X-49857Y68685D01*
X-49811Y68663D01*
X-47013Y67942D01*
X-46962Y67939D01*
X-46913Y67923D01*
X-44047Y67560D01*
X-43996Y67564D01*
X-43945Y67554D01*
X-41056Y67556D01*
X-41006Y67566D01*
X-40955Y67562D01*
X-38088Y67928D01*
X-38040Y67945D01*
X-37989Y67948D01*
X-35191Y68672D01*
X-35157Y68689D01*
X-35119Y68695D01*
X-33760Y69188D01*
X-33724Y69210D01*
X-33683Y69221D01*
X-31723Y70172D01*
X-27702Y71851D01*
X-23593Y73300D01*
X-19408Y74514D01*
X-15161Y75489D01*
X-10866Y76222D01*
X-6536Y76711D01*
X-2186Y76955D01*
X2172Y76951D01*
D02*
G37*
G36*
X-11545Y34882D02*
X-10841Y34179D01*
X-10461Y33260D01*
Y32763D01*
X-15461D01*
Y33260D01*
X-15080Y34179D01*
X-14377Y34882D01*
X-13458Y35263D01*
X-12463D01*
X-11545Y34882D01*
D02*
G37*
G36*
X-10461Y31763D02*
X-10841Y30845D01*
X-11545Y30141D01*
X-12463Y29761D01*
X-13458D01*
X-14377Y30141D01*
X-15080Y30845D01*
X-15461Y31763D01*
Y32261D01*
X-10461D01*
Y31763D01*
D02*
G37*
G36*
X31596Y26204D02*
X31915Y25950D01*
X31944Y25677D01*
X31232Y24771D01*
X30692Y24664D01*
X30233Y24357D01*
X29927Y23899D01*
X29819Y23358D01*
X29927Y22817D01*
X30233Y22359D01*
X30692Y22053D01*
X30823Y21319D01*
X29779Y21128D01*
X29643Y21219D01*
X29102Y21326D01*
X28758Y21258D01*
X28553Y21363D01*
X27577Y21869D01*
X27577Y21869D01*
X27577Y21869D01*
X22653D01*
Y19972D01*
X22253D01*
Y21869D01*
X19072D01*
X18465Y23050D01*
X18484Y23076D01*
X22253D01*
Y24972D01*
X22453D01*
Y25172D01*
X27577D01*
Y26453D01*
X30412D01*
X30412Y26453D01*
X30722Y26515D01*
X31596Y26204D01*
D02*
G37*
G36*
X14669Y25074D02*
X14840D01*
X15059Y25074D01*
X15911Y24334D01*
X16022Y24153D01*
Y22193D01*
X10078Y16250D01*
X8998Y16840D01*
X9001Y16850D01*
Y17874D01*
X8930Y18230D01*
X8814Y18403D01*
X8728Y18636D01*
Y19553D01*
X8814Y19786D01*
X8930Y19959D01*
X9001Y20315D01*
Y21339D01*
X8930Y21694D01*
X8728Y21996D01*
X8427Y22197D01*
X8422Y22198D01*
X8538Y23380D01*
X9021Y23380D01*
X10233D01*
Y25197D01*
X10633D01*
Y23380D01*
X12605D01*
Y24338D01*
X12930Y24624D01*
X13786Y25093D01*
X13878Y25074D01*
X14268D01*
Y26516D01*
X14669D01*
Y25074D01*
D02*
G37*
G36*
X29874Y15706D02*
X29929Y15462D01*
X29847Y15048D01*
X29954Y14507D01*
X30261Y14049D01*
X30645Y13792D01*
X30683Y13482D01*
X30559Y12570D01*
X30495Y12557D01*
X30036Y12251D01*
X29730Y11793D01*
X29622Y11252D01*
X29730Y10711D01*
X30036Y10253D01*
X30495Y9947D01*
X31035Y9839D01*
X31147Y9861D01*
X32150Y9246D01*
X32328Y9029D01*
Y8076D01*
X33116D01*
X33605Y6895D01*
X26544Y-166D01*
X26544Y-166D01*
X24297Y-2413D01*
X23079Y-2591D01*
X22777Y-2389D01*
X22421Y-2318D01*
X21398D01*
X21042Y-2389D01*
X20869Y-2505D01*
X20635Y-2591D01*
X19719D01*
X19485Y-2505D01*
X19312Y-2389D01*
X18957Y-2318D01*
X17933D01*
X17577Y-2389D01*
X17276Y-2591D01*
X17074Y-2892D01*
X17027Y-3128D01*
X12104D01*
X11002Y-2613D01*
X10940Y-2303D01*
X10765Y-2041D01*
X9371Y-648D01*
X9359Y-615D01*
X9291Y32D01*
X9359Y678D01*
X9371Y710D01*
X9772Y1111D01*
X18438D01*
X18501Y1017D01*
X18959Y710D01*
X19500Y603D01*
X20041Y710D01*
X20499Y1017D01*
X20805Y1475D01*
X20913Y2016D01*
X20805Y2557D01*
X20499Y3015D01*
X20041Y3321D01*
X19499Y3435D01*
X19413Y4016D01*
X19305Y4557D01*
X18999Y5015D01*
X18541Y5321D01*
X17999Y5435D01*
X17913Y6016D01*
X17805Y6556D01*
X17579Y6895D01*
X17716Y7444D01*
X18036Y8076D01*
X22253D01*
Y9772D01*
X17328D01*
Y9007D01*
X16147Y8793D01*
X15999Y9015D01*
X15541Y9321D01*
X15000Y9429D01*
X14459Y9321D01*
X14001Y9015D01*
X13874Y8825D01*
X9119D01*
X8629Y10006D01*
X15267Y16644D01*
X17328D01*
Y15172D01*
X27577D01*
Y16644D01*
X29239D01*
X29874Y15706D01*
D02*
G37*
G36*
X-5691Y-8196D02*
X-5691Y-8196D01*
X-5650Y-8223D01*
X-5427Y-8373D01*
X-5012Y-8771D01*
X-4997Y-8787D01*
X-4612Y-9189D01*
X-4463Y-9412D01*
X-4463Y-9412D01*
X-4438Y-9449D01*
X-4230Y-9589D01*
X-3924Y-9876D01*
X-3362Y-10438D01*
X-3185Y-10702D01*
X-2923Y-10877D01*
X-2923Y-10877D01*
X-2923Y-10877D01*
X-2613Y-10939D01*
X-2613Y-10939D01*
X-2303Y-10877D01*
X-2041Y-10702D01*
X-2041D01*
X-1881Y-10542D01*
X-648Y-9308D01*
X-615Y-9296D01*
X32Y-9228D01*
X678Y-9296D01*
X710Y-9308D01*
X3745Y-12343D01*
X3700Y-12567D01*
X3808Y-13108D01*
X4114Y-13566D01*
X4573Y-13872D01*
X4376Y-15037D01*
X1626D01*
X1163Y-15130D01*
X770Y-15392D01*
X770Y-15392D01*
X-1131Y-17293D01*
X-1574Y-17217D01*
X-1575Y-17217D01*
X-1757Y-17053D01*
X-2385Y-16071D01*
Y-15759D01*
X-3906D01*
Y-15559D01*
X-4106D01*
Y-14118D01*
X-4496D01*
X-4750Y-14168D01*
X-4862Y-14190D01*
X-4863Y-14190D01*
X-4863Y-14190D01*
X-5530Y-14273D01*
X-6197Y-14190D01*
X-6310Y-14168D01*
X-6563Y-14118D01*
X-6954D01*
Y-15559D01*
X-7153D01*
Y-15759D01*
X-8674D01*
Y-16071D01*
X-8603Y-16427D01*
X-8488Y-16600D01*
X-8401Y-16833D01*
X-8401Y-17750D01*
X-8488Y-17983D01*
X-8603Y-18156D01*
X-8674Y-18512D01*
Y-19399D01*
X-8710Y-19436D01*
X-8885Y-19698D01*
X-8947Y-20008D01*
X-8947Y-20008D01*
Y-22142D01*
X-10128Y-22139D01*
X-10166Y-22085D01*
X-10195Y-21944D01*
X-10501Y-21485D01*
X-10668Y-21374D01*
X-10691Y-21341D01*
Y-11653D01*
X-9878Y-11073D01*
X-9510Y-10950D01*
X-9122Y-11027D01*
X-8581Y-10920D01*
X-8123Y-10613D01*
X-7817Y-10155D01*
X-7709Y-9614D01*
X-7791Y-9204D01*
X-7635Y-8970D01*
X-7587Y-8732D01*
X-7023Y-8167D01*
X-6736Y-8110D01*
X-5691Y-8196D01*
D02*
G37*
%LPC*%
G36*
X-6299Y74937D02*
X-6299Y74937D01*
X-6840Y74829D01*
X-7665Y74511D01*
X-7719Y74514D01*
X-8592Y74618D01*
X-8748Y74639D01*
X-9252Y74740D01*
X-9793Y74632D01*
X-10251Y74326D01*
X-10557Y73867D01*
X-10665Y73327D01*
X-10557Y72786D01*
X-10251Y72328D01*
X-9793Y72021D01*
X-9252Y71914D01*
X-8711Y72021D01*
X-8409Y72223D01*
X-7898Y72362D01*
X-7226Y72427D01*
X-6934Y72281D01*
X-6840Y72218D01*
X-6299Y72111D01*
X-5759Y72218D01*
X-5300Y72524D01*
X-4994Y72983D01*
X-4886Y73524D01*
X-4994Y74064D01*
X-5300Y74523D01*
X-5759Y74829D01*
X-6254Y74928D01*
X-6299Y74937D01*
X-6299D01*
D02*
G37*
G36*
X6102Y75035D02*
X5562Y74928D01*
X5103Y74621D01*
X4797Y74163D01*
X4689Y73622D01*
X4797Y73081D01*
X5103Y72623D01*
X5562Y72317D01*
X6102Y72209D01*
X6643Y72317D01*
X7102Y72623D01*
X7408Y73081D01*
X7515Y73622D01*
X7408Y74163D01*
X7102Y74621D01*
X6643Y74928D01*
X6102Y75035D01*
D02*
G37*
G36*
X-21555Y71885D02*
X-21555Y71885D01*
X-22096Y71778D01*
X-22343Y71615D01*
X-22765Y71387D01*
X-22857Y71349D01*
X-23062Y71266D01*
X-23624Y71047D01*
X-24311Y71098D01*
X-24852Y70991D01*
X-24852D01*
X-24879Y70973D01*
X-25310Y70684D01*
X-25616Y70226D01*
X-25724Y69685D01*
X-25616Y69144D01*
X-25310Y68686D01*
X-24852Y68380D01*
X-24311Y68272D01*
X-24311Y68272D01*
X-23770Y68380D01*
X-23523Y68542D01*
X-23101Y68770D01*
X-23010Y68809D01*
X-22804Y68892D01*
X-22242Y69111D01*
X-21555Y69059D01*
X-21014Y69167D01*
X-21014D01*
X-20988Y69185D01*
X-20556Y69473D01*
X-20250Y69932D01*
X-20142Y70472D01*
X-20250Y71013D01*
X-20556Y71472D01*
X-21014Y71778D01*
X-21251Y71825D01*
X-21555Y71885D01*
D02*
G37*
G36*
X-35531Y66177D02*
X-36072Y66069D01*
X-36531Y65763D01*
X-36837Y65304D01*
X-36877Y65104D01*
X-37755Y64521D01*
X-38081Y64423D01*
X-38484Y64504D01*
X-39025Y64396D01*
X-39483Y64090D01*
X-39790Y63631D01*
X-39897Y63090D01*
X-39790Y62550D01*
X-39483Y62091D01*
X-39025Y61785D01*
X-38484Y61678D01*
X-37944Y61785D01*
X-37485Y62091D01*
X-37179Y62550D01*
X-37139Y62751D01*
X-36261Y63333D01*
X-35935Y63431D01*
X-35531Y63351D01*
X-34991Y63458D01*
X-34532Y63765D01*
X-34226Y64223D01*
X-34119Y64764D01*
X-34226Y65304D01*
X-34532Y65763D01*
X-34991Y66069D01*
X-35531Y66177D01*
D02*
G37*
G36*
X38287Y64307D02*
X37747Y64199D01*
X37288Y63893D01*
X36982Y63434D01*
X36874Y62894D01*
X36982Y62353D01*
X37288Y61895D01*
X37747Y61588D01*
X38287Y61481D01*
X38828Y61588D01*
X39287Y61895D01*
X39593Y62353D01*
X39700Y62894D01*
X39593Y63434D01*
X39287Y63893D01*
X38828Y64199D01*
X38287Y64307D01*
D02*
G37*
G36*
X-48228Y57417D02*
X-48769Y57309D01*
X-49227Y57003D01*
X-49534Y56545D01*
X-49641Y56004D01*
X-49534Y55463D01*
X-49227Y55005D01*
X-48769Y54698D01*
X-48228Y54591D01*
X-47688Y54698D01*
X-47229Y55005D01*
X-46923Y55463D01*
X-46815Y56004D01*
X-46923Y56545D01*
X-47229Y57003D01*
X-47688Y57309D01*
X-48228Y57417D01*
D02*
G37*
G36*
X-15977Y56174D02*
Y53019D01*
X-12821D01*
X-12910Y53694D01*
X-13248Y54509D01*
X-13785Y55210D01*
X-14486Y55747D01*
X-15302Y56085D01*
X-15977Y56174D01*
D02*
G37*
G36*
X17176Y56171D02*
X14023D01*
Y53019D01*
X17176D01*
Y56171D01*
D02*
G37*
G36*
X13623D02*
X10471D01*
Y53019D01*
X13623D01*
Y56171D01*
D02*
G37*
G36*
X-16377Y56174D02*
X-17052Y56085D01*
X-17867Y55747D01*
X-18568Y55210D01*
X-19105Y54509D01*
X-19443Y53694D01*
X-19532Y53019D01*
X-16377D01*
Y56174D01*
D02*
G37*
G36*
X48327Y57417D02*
X47786Y57309D01*
X47328Y57003D01*
X47021Y56545D01*
X46914Y56004D01*
X47021Y55463D01*
X47328Y55005D01*
X47786Y54698D01*
X48327Y54591D01*
X48383Y54602D01*
X49342Y53742D01*
X49370Y53686D01*
X49470Y53183D01*
X49776Y52725D01*
X50235Y52418D01*
X50775Y52311D01*
X51316Y52418D01*
X51774Y52725D01*
X52081Y53183D01*
X52188Y53724D01*
X52081Y54264D01*
X51774Y54723D01*
X51316Y55029D01*
X50775Y55137D01*
X50719Y55125D01*
X49760Y55986D01*
X49732Y56042D01*
X49632Y56545D01*
X49326Y57003D01*
X48867Y57309D01*
X48327Y57417D01*
D02*
G37*
G36*
X17176Y52619D02*
X14023D01*
Y49466D01*
X17176D01*
Y52619D01*
D02*
G37*
G36*
X13623D02*
X10471D01*
Y49466D01*
X13623D01*
Y52619D01*
D02*
G37*
G36*
X-12821D02*
X-15977D01*
Y49463D01*
X-15302Y49552D01*
X-14486Y49890D01*
X-13785Y50427D01*
X-13248Y51128D01*
X-12910Y51943D01*
X-12821Y52619D01*
D02*
G37*
G36*
X-16377D02*
X-19532D01*
X-19443Y51943D01*
X-19105Y51128D01*
X-18568Y50427D01*
X-17867Y49890D01*
X-17052Y49552D01*
X-16377Y49463D01*
Y52619D01*
D02*
G37*
G36*
X-15977Y46134D02*
Y42979D01*
X-12821D01*
X-12910Y43654D01*
X-13248Y44470D01*
X-13785Y45170D01*
X-14486Y45708D01*
X-15301Y46046D01*
X-15977Y46134D01*
D02*
G37*
G36*
X17176Y46132D02*
X14023D01*
Y42979D01*
X17176D01*
Y46132D01*
D02*
G37*
G36*
X13623D02*
X10471D01*
Y42979D01*
X13623D01*
Y46132D01*
D02*
G37*
G36*
X-16377Y46134D02*
X-17052Y46046D01*
X-17867Y45708D01*
X-18568Y45170D01*
X-19105Y44470D01*
X-19443Y43654D01*
X-19532Y42979D01*
X-16377D01*
Y46134D01*
D02*
G37*
G36*
X58858Y46098D02*
X58318Y45990D01*
X57859Y45684D01*
X57553Y45226D01*
X57445Y44685D01*
X57553Y44144D01*
X57859Y43686D01*
X58318Y43380D01*
X58605Y43323D01*
X59012Y42988D01*
X59445Y42184D01*
X59414Y42028D01*
X59521Y41487D01*
X59828Y41028D01*
X60286Y40722D01*
X60827Y40615D01*
X61367Y40722D01*
X61826Y41028D01*
X62132Y41487D01*
X62240Y42028D01*
X62132Y42568D01*
X61826Y43027D01*
X61367Y43333D01*
X61080Y43390D01*
X60673Y43725D01*
X60240Y44528D01*
X60271Y44685D01*
X60164Y45226D01*
X59857Y45684D01*
X59399Y45990D01*
X58858Y46098D01*
D02*
G37*
G36*
X30031Y50200D02*
X28694Y50024D01*
X27447Y49508D01*
X26377Y48686D01*
X25555Y47616D01*
X25039Y46369D01*
X24863Y45031D01*
X25039Y43694D01*
X25555Y42447D01*
X26377Y41377D01*
X27447Y40555D01*
X28694Y40039D01*
X30031Y39863D01*
X31369Y40039D01*
X32616Y40555D01*
X33686Y41377D01*
X34508Y42447D01*
X35024Y43694D01*
X35200Y45031D01*
X35024Y46369D01*
X34508Y47616D01*
X33686Y48686D01*
X32616Y49508D01*
X31369Y50024D01*
X30031Y50200D01*
D02*
G37*
G36*
X-29969D02*
X-31306Y50024D01*
X-32553Y49508D01*
X-33623Y48686D01*
X-34445Y47616D01*
X-34961Y46369D01*
X-35137Y45031D01*
X-34961Y43694D01*
X-34445Y42447D01*
X-33623Y41377D01*
X-32553Y40555D01*
X-31306Y40039D01*
X-29969Y39863D01*
X-28631Y40039D01*
X-27384Y40555D01*
X-26314Y41377D01*
X-25492Y42447D01*
X-24976Y43694D01*
X-24800Y45031D01*
X-24976Y46369D01*
X-25492Y47616D01*
X-26314Y48686D01*
X-27384Y49508D01*
X-28631Y50024D01*
X-29969Y50200D01*
D02*
G37*
G36*
X17176Y42579D02*
X14023D01*
Y39426D01*
X17176D01*
Y42579D01*
D02*
G37*
G36*
X13623D02*
X10471D01*
Y39426D01*
X13623D01*
Y42579D01*
D02*
G37*
G36*
X-12821D02*
X-15977D01*
Y39424D01*
X-15301Y39513D01*
X-14486Y39851D01*
X-13785Y40388D01*
X-13248Y41088D01*
X-12910Y41904D01*
X-12821Y42579D01*
D02*
G37*
G36*
X-16377D02*
X-19532D01*
X-19443Y41904D01*
X-19105Y41088D01*
X-18568Y40388D01*
X-17867Y39851D01*
X-17052Y39513D01*
X-16377Y39424D01*
Y42579D01*
D02*
G37*
G36*
X27577Y36869D02*
X22653D01*
Y35172D01*
X27577D01*
Y36869D01*
D02*
G37*
G36*
X22253D02*
X17328D01*
Y35172D01*
X22253D01*
Y36869D01*
D02*
G37*
G36*
X-32364D02*
X-37288D01*
Y35172D01*
X-32364D01*
Y36869D01*
D02*
G37*
G36*
X-37688D02*
X-42613D01*
Y35172D01*
X-37688D01*
Y36869D01*
D02*
G37*
G36*
X27577Y34772D02*
X22653D01*
Y33076D01*
X27577D01*
Y34772D01*
D02*
G37*
G36*
X-32364D02*
X-37288D01*
Y33076D01*
X-32364D01*
Y34772D01*
D02*
G37*
G36*
X-37688D02*
X-42613D01*
Y33076D01*
X-37688D01*
Y34772D01*
D02*
G37*
G36*
X49606Y34287D02*
X49066Y34179D01*
X48607Y33873D01*
X48301Y33415D01*
X48193Y32874D01*
X48301Y32333D01*
X48607Y31875D01*
X49066Y31569D01*
X49606Y31461D01*
X50147Y31569D01*
X50605Y31875D01*
X50912Y32333D01*
X51019Y32874D01*
X50912Y33415D01*
X50605Y33873D01*
X50147Y34179D01*
X49606Y34287D01*
D02*
G37*
G36*
X27577Y31868D02*
X22653D01*
Y30172D01*
X27577D01*
Y31868D01*
D02*
G37*
G36*
X-32364D02*
X-37288D01*
Y30172D01*
X-32364D01*
Y31868D01*
D02*
G37*
G36*
X-37688D02*
X-42613D01*
Y30172D01*
X-37688D01*
Y31868D01*
D02*
G37*
G36*
X-32364Y29772D02*
X-37288D01*
Y28076D01*
X-32364D01*
Y29772D01*
D02*
G37*
G36*
X-37688D02*
X-42613D01*
Y28076D01*
X-37688D01*
Y29772D01*
D02*
G37*
G36*
X-7877Y28776D02*
X-9197D01*
Y28465D01*
X-9127Y28109D01*
X-8925Y27807D01*
X-8624Y27606D01*
X-8268Y27535D01*
X-7877D01*
Y28776D01*
D02*
G37*
G36*
X66831Y32811D02*
X66290Y32703D01*
X65832Y32397D01*
X65525Y31938D01*
X65418Y31398D01*
X65525Y30857D01*
X65832Y30398D01*
X66113Y30210D01*
X66454Y29753D01*
X66748Y29143D01*
X66719Y28850D01*
X66697Y28740D01*
X66805Y28199D01*
X67111Y27741D01*
X67570Y27435D01*
X68110Y27327D01*
X68651Y27435D01*
X69109Y27741D01*
X69416Y28199D01*
X69523Y28740D01*
X69419Y29267D01*
X69416Y29281D01*
X69416Y29281D01*
X69109Y29739D01*
X68506Y30398D01*
X68271Y31295D01*
X68231Y31463D01*
X68136Y31938D01*
X67830Y32397D01*
X67371Y32703D01*
X66831Y32811D01*
D02*
G37*
G36*
X-68307Y29858D02*
X-68848Y29750D01*
X-69306Y29444D01*
X-69612Y28986D01*
X-69720Y28445D01*
X-69612Y27904D01*
X-69306Y27446D01*
X-68848Y27139D01*
X-68307Y27032D01*
X-67766Y27139D01*
X-67308Y27446D01*
X-67002Y27904D01*
X-66894Y28445D01*
X-67002Y28986D01*
X-67308Y29444D01*
X-67766Y29750D01*
X-68307Y29858D01*
D02*
G37*
G36*
X-32364Y26869D02*
X-37288D01*
Y25172D01*
X-32364D01*
Y26869D01*
D02*
G37*
G36*
X-37688D02*
X-42613D01*
Y25172D01*
X-37688D01*
Y26869D01*
D02*
G37*
G36*
X-32364Y24772D02*
X-37288D01*
Y23076D01*
X-32364D01*
Y24772D01*
D02*
G37*
G36*
X-37688D02*
X-42613D01*
Y23076D01*
X-37688D01*
Y24772D01*
D02*
G37*
G36*
X-32364Y21869D02*
X-37288D01*
Y20172D01*
X-32364D01*
Y21869D01*
D02*
G37*
G36*
X-37688D02*
X-42613D01*
Y20172D01*
X-37688D01*
Y21869D01*
D02*
G37*
G36*
X-32364Y19772D02*
X-37288D01*
Y18076D01*
X-32364D01*
Y19772D01*
D02*
G37*
G36*
X-37688D02*
X-42613D01*
Y18076D01*
X-37688D01*
Y19772D01*
D02*
G37*
G36*
X-48917Y33893D02*
X-49458Y33786D01*
X-49916Y33479D01*
X-50223Y33021D01*
X-50330Y32480D01*
X-50223Y31940D01*
X-50112Y31774D01*
X-50330Y31127D01*
X-50525Y30761D01*
X-50649Y30614D01*
X-51033Y30538D01*
X-51491Y30231D01*
X-51797Y29773D01*
X-51905Y29232D01*
X-51825Y28829D01*
X-51923Y28503D01*
X-52505Y27625D01*
X-52706Y27585D01*
X-53164Y27279D01*
X-53471Y26820D01*
X-53578Y26280D01*
X-53471Y25739D01*
X-53164Y25280D01*
X-52947Y25135D01*
X-52792Y24187D01*
X-52834Y23795D01*
X-53342Y23405D01*
X-54101Y22417D01*
X-54577Y21267D01*
X-54740Y20031D01*
X-54577Y18797D01*
X-54423Y18424D01*
X-54890Y17584D01*
X-55648Y17276D01*
X-56004Y17347D01*
X-57185D01*
X-57541Y17276D01*
X-57842Y17075D01*
X-58044Y16773D01*
X-58115Y16417D01*
Y15394D01*
X-58044Y15038D01*
X-57928Y14865D01*
X-57842Y14631D01*
X-57842Y13715D01*
X-57928Y13481D01*
X-58044Y13308D01*
X-58115Y12953D01*
Y12641D01*
X-56595D01*
Y12441D01*
X-56394D01*
Y11000D01*
X-56004D01*
X-55799Y11040D01*
X-55198Y10691D01*
X-54856Y10404D01*
X-54858Y9354D01*
X-55819Y8649D01*
X-56004Y8686D01*
X-57185D01*
X-57541Y8615D01*
X-57842Y8413D01*
X-58044Y8112D01*
X-58115Y7756D01*
Y6732D01*
X-58044Y6376D01*
X-57928Y6204D01*
X-57842Y5970D01*
Y5054D01*
X-57928Y4820D01*
X-58044Y4647D01*
X-58115Y4291D01*
Y3980D01*
X-56595D01*
Y3779D01*
X-56394D01*
Y2338D01*
X-56075D01*
X-56004Y2338D01*
X-56004Y2338D01*
X-55648Y2409D01*
X-55474Y2424D01*
X-54629Y1506D01*
X-54577Y1266D01*
X-54588Y1186D01*
X-54740Y32D01*
X-54577Y-1204D01*
X-54558Y-1250D01*
X-54553Y-1381D01*
X-55384Y-2343D01*
X-55574Y-2320D01*
X-55648Y-2310D01*
X-56004Y-2240D01*
X-56004Y-2240D01*
X-56081Y-2240D01*
X-56394D01*
Y-3681D01*
X-56595D01*
Y-3881D01*
X-58115D01*
Y-4193D01*
X-58044Y-4549D01*
X-57928Y-4722D01*
X-57842Y-4955D01*
Y-5872D01*
X-57928Y-6105D01*
X-58044Y-6278D01*
X-58115Y-6634D01*
Y-7658D01*
X-58044Y-8013D01*
X-57842Y-8315D01*
X-57541Y-8516D01*
X-57185Y-8587D01*
X-56004D01*
X-55648Y-8516D01*
X-54642Y-9225D01*
X-54740Y-9968D01*
X-54688Y-10362D01*
X-55699Y-11028D01*
X-55792Y-11023D01*
X-56071Y-10968D01*
X-56461D01*
Y-12410D01*
X-56661D01*
Y-12609D01*
X-58182D01*
Y-12921D01*
X-58111Y-13277D01*
X-57995Y-13450D01*
X-57909Y-13684D01*
X-57909Y-14600D01*
X-57995Y-14833D01*
X-58111Y-15007D01*
X-58182Y-15362D01*
Y-16386D01*
X-58111Y-16742D01*
X-57909Y-17043D01*
X-57608Y-17245D01*
X-57252Y-17315D01*
X-56071D01*
X-55715Y-17245D01*
X-54983Y-17464D01*
X-54444Y-18412D01*
X-54577Y-18733D01*
X-54740Y-19969D01*
X-54577Y-21204D01*
X-54101Y-22354D01*
X-53342Y-23343D01*
X-52354Y-24101D01*
X-51204Y-24577D01*
X-49968Y-24740D01*
X-48734Y-24577D01*
X-47583Y-24101D01*
X-46595Y-23343D01*
X-45836Y-22354D01*
X-45360Y-21204D01*
X-45197Y-19969D01*
X-45360Y-18733D01*
X-45836Y-17583D01*
X-46595Y-16594D01*
X-47583Y-15836D01*
X-48134Y-15608D01*
Y-14329D01*
X-47583Y-14101D01*
X-46595Y-13342D01*
X-45836Y-12354D01*
X-45360Y-11203D01*
X-45197Y-9968D01*
X-45360Y-8733D01*
X-45836Y-7583D01*
X-46595Y-6594D01*
X-47583Y-5836D01*
X-48134Y-5608D01*
Y-4329D01*
X-47583Y-4101D01*
X-46595Y-3342D01*
X-45836Y-2354D01*
X-45360Y-1204D01*
X-45197Y32D01*
X-45360Y1266D01*
X-45836Y2417D01*
X-46595Y3405D01*
X-47583Y4164D01*
X-48134Y4392D01*
Y5671D01*
X-47583Y5899D01*
X-46595Y6657D01*
X-45836Y7646D01*
X-45360Y8796D01*
X-45197Y10031D01*
X-45360Y11266D01*
X-45836Y12417D01*
X-46595Y13406D01*
X-47583Y14164D01*
X-48134Y14392D01*
Y15671D01*
X-47583Y15899D01*
X-46595Y16657D01*
X-45836Y17646D01*
X-45360Y18797D01*
X-45197Y20031D01*
X-45360Y21267D01*
X-45836Y22417D01*
X-46595Y23405D01*
X-47583Y24164D01*
X-48734Y24640D01*
X-49968Y24803D01*
X-50074Y24789D01*
X-50496Y25299D01*
X-50832Y25881D01*
X-50752Y26280D01*
X-50833Y26683D01*
X-50735Y27009D01*
X-50152Y27887D01*
X-49951Y27927D01*
X-49493Y28233D01*
X-49187Y28692D01*
X-49079Y29232D01*
X-49187Y29773D01*
X-49297Y29939D01*
X-49080Y30586D01*
X-48885Y30951D01*
X-48760Y31099D01*
X-48377Y31175D01*
X-47918Y31481D01*
X-47612Y31940D01*
X-47504Y32480D01*
X-47612Y33021D01*
X-47918Y33479D01*
X-48377Y33786D01*
X-48917Y33893D01*
D02*
G37*
G36*
X-32364Y16869D02*
X-37288D01*
Y15172D01*
X-32364D01*
Y16869D01*
D02*
G37*
G36*
X-37688D02*
X-42613D01*
Y15172D01*
X-37688D01*
Y16869D01*
D02*
G37*
G36*
X-32364Y14772D02*
X-37288D01*
Y13076D01*
X-32364D01*
Y14772D01*
D02*
G37*
G36*
X-37688D02*
X-42613D01*
Y13076D01*
X-37688D01*
Y14772D01*
D02*
G37*
G36*
X-72146Y18047D02*
X-72686Y17939D01*
X-73145Y17633D01*
X-73451Y17175D01*
X-73559Y16634D01*
X-73461Y16143D01*
X-73451Y16093D01*
X-73365Y15497D01*
X-73515Y14876D01*
X-73628Y14645D01*
X-73845Y14320D01*
X-73952Y13780D01*
X-73845Y13239D01*
X-73539Y12780D01*
X-73080Y12474D01*
X-72539Y12367D01*
X-71999Y12474D01*
X-71540Y12780D01*
X-71234Y13239D01*
X-71126Y13780D01*
X-71224Y14271D01*
X-71234Y14320D01*
X-71320Y14916D01*
X-71170Y15537D01*
X-71057Y15768D01*
X-70840Y16093D01*
X-70733Y16634D01*
X-70840Y17175D01*
X-71147Y17633D01*
X-71605Y17939D01*
X-72146Y18047D01*
D02*
G37*
G36*
X62500Y15094D02*
X61959Y14987D01*
X61501Y14680D01*
X61195Y14222D01*
X61087Y13681D01*
X61195Y13140D01*
X61501Y12682D01*
X61959Y12376D01*
X62500Y12268D01*
X63041Y12376D01*
X63499Y12682D01*
X63805Y13140D01*
X63913Y13681D01*
X63805Y14222D01*
X63499Y14680D01*
X63041Y14987D01*
X62500Y15094D01*
D02*
G37*
G36*
X58048Y12666D02*
X56728D01*
Y11425D01*
X57118D01*
X57474Y11495D01*
X57775Y11697D01*
X57977Y11999D01*
X58048Y12354D01*
Y12666D01*
D02*
G37*
G36*
X50032Y24803D02*
X48796Y24640D01*
X47646Y24164D01*
X46657Y23405D01*
X45899Y22417D01*
X45423Y21267D01*
X45260Y20031D01*
X45423Y18797D01*
X45899Y17646D01*
X46657Y16657D01*
X47646Y15899D01*
X48197Y15671D01*
Y14392D01*
X47646Y14164D01*
X46657Y13406D01*
X45899Y12417D01*
X45423Y11266D01*
X45260Y10031D01*
X45423Y8796D01*
X45899Y7646D01*
X46657Y6657D01*
X47646Y5899D01*
X48197Y5671D01*
Y4392D01*
X47646Y4164D01*
X46657Y3405D01*
X45899Y2417D01*
X45423Y1266D01*
X45260Y32D01*
X45423Y-1204D01*
X45899Y-2354D01*
X46657Y-3342D01*
X47646Y-4101D01*
X48197Y-4329D01*
Y-5608D01*
X47646Y-5836D01*
X46657Y-6594D01*
X45899Y-7583D01*
X45423Y-8733D01*
X45260Y-9968D01*
X45423Y-11203D01*
X45899Y-12354D01*
X46657Y-13342D01*
X47646Y-14101D01*
X48197Y-14329D01*
Y-15608D01*
X47646Y-15836D01*
X46657Y-16594D01*
X45899Y-17583D01*
X45423Y-18733D01*
X45260Y-19969D01*
X45423Y-21204D01*
X45899Y-22354D01*
X46657Y-23343D01*
X47646Y-24101D01*
X48796Y-24577D01*
X50032Y-24740D01*
X51266Y-24577D01*
X52417Y-24101D01*
X53405Y-23343D01*
X54164Y-22354D01*
X54640Y-21204D01*
X54803Y-19969D01*
X54640Y-18733D01*
X54554Y-18524D01*
X55151Y-17366D01*
X55581Y-17245D01*
X55937Y-17315D01*
X57118D01*
X57474Y-17245D01*
X57775Y-17043D01*
X57977Y-16742D01*
X58048Y-16386D01*
Y-15362D01*
X57977Y-15006D01*
X57862Y-14833D01*
X57775Y-14600D01*
Y-13684D01*
X57862Y-13450D01*
X57977Y-13277D01*
X58048Y-12921D01*
Y-12609D01*
X56528D01*
Y-12410D01*
X56327D01*
Y-10968D01*
X55937D01*
X55861Y-10983D01*
X55062Y-10466D01*
X54910Y-10300D01*
X55410Y-9256D01*
X55642Y-9210D01*
X55905Y-9034D01*
X56285Y-8654D01*
X57118D01*
X57474Y-8583D01*
X57775Y-8382D01*
X57977Y-8080D01*
X58048Y-7724D01*
Y-6701D01*
X57977Y-6345D01*
X57862Y-6172D01*
X57775Y-5938D01*
Y-5022D01*
X57862Y-4789D01*
X57977Y-4616D01*
X58048Y-4260D01*
Y-3948D01*
X56528D01*
Y-3748D01*
X56328D01*
Y-2307D01*
X55937D01*
X55581Y-2377D01*
X55577Y-2373D01*
X54694Y-1571D01*
X54568Y-1378D01*
X54640Y-1204D01*
X54803Y32D01*
X54640Y1266D01*
X54164Y2417D01*
X53405Y3405D01*
X52417Y4164D01*
X51866Y4392D01*
Y5671D01*
X52417Y5899D01*
X53405Y6657D01*
X53826Y7206D01*
X54491Y7123D01*
X55048Y6857D01*
X55078Y6703D01*
X55194Y6530D01*
X55280Y6297D01*
Y5381D01*
X55194Y5147D01*
X55078Y4974D01*
X55007Y4618D01*
Y4306D01*
X56528D01*
X58048D01*
Y4618D01*
X57977Y4974D01*
X57862Y5147D01*
X57775Y5381D01*
Y6297D01*
X57862Y6530D01*
X57977Y6703D01*
X58048Y7059D01*
Y8083D01*
X57977Y8438D01*
X57775Y8740D01*
X57474Y8942D01*
X57118Y9012D01*
X56186D01*
X56102Y9097D01*
X55839Y9273D01*
X55121Y10366D01*
X55275Y11127D01*
X55792Y11453D01*
X55937Y11425D01*
X56328D01*
Y12866D01*
X56528D01*
Y13066D01*
X58048D01*
Y13378D01*
X57977Y13734D01*
X57862Y13907D01*
X57775Y14140D01*
Y15056D01*
X57862Y15290D01*
X57977Y15463D01*
X58048Y15819D01*
Y16842D01*
X57977Y17198D01*
X57960Y17224D01*
X57794Y17707D01*
X57887Y18728D01*
X57890Y18736D01*
X57900Y18751D01*
X58008Y19291D01*
X57900Y19832D01*
X57594Y20290D01*
X57135Y20597D01*
X56595Y20704D01*
X56054Y20597D01*
X55931Y20515D01*
X54870Y20842D01*
X54677Y20989D01*
X54640Y21267D01*
X54164Y22417D01*
X53405Y23405D01*
X52417Y24164D01*
X51266Y24640D01*
X50032Y24803D01*
D02*
G37*
G36*
X-11350Y12477D02*
X-11661D01*
X-12017Y12406D01*
X-12319Y12205D01*
X-12520Y11903D01*
X-12591Y11547D01*
Y11157D01*
X-11350D01*
Y12477D01*
D02*
G37*
G36*
X-56795Y12241D02*
X-58115D01*
Y11929D01*
X-58044Y11573D01*
X-57842Y11272D01*
X-57541Y11070D01*
X-57185Y11000D01*
X-56795D01*
Y12241D01*
D02*
G37*
G36*
X-32364Y11868D02*
X-37288D01*
Y10172D01*
X-32364D01*
Y11868D01*
D02*
G37*
G36*
X-37688D02*
X-42613D01*
Y10172D01*
X-37688D01*
Y11868D01*
D02*
G37*
G36*
X-32364Y9772D02*
X-37288D01*
Y8076D01*
X-32364D01*
Y9772D01*
D02*
G37*
G36*
X-37688D02*
X-42613D01*
Y8076D01*
X-37688D01*
Y9772D01*
D02*
G37*
G36*
X58048Y3906D02*
X56728D01*
Y2665D01*
X57118D01*
X57474Y2736D01*
X57775Y2937D01*
X57977Y3239D01*
X58048Y3594D01*
Y3906D01*
D02*
G37*
G36*
X56328D02*
X55007D01*
Y3594D01*
X55078Y3239D01*
X55280Y2937D01*
X55581Y2736D01*
X55937Y2665D01*
X56328D01*
Y3906D01*
D02*
G37*
G36*
X-56795Y3579D02*
X-58115D01*
Y3268D01*
X-58044Y2912D01*
X-57842Y2610D01*
X-57541Y2409D01*
X-57185Y2338D01*
X-56795D01*
Y3579D01*
D02*
G37*
G36*
X-73819Y2988D02*
X-74360Y2880D01*
X-74818Y2574D01*
X-75124Y2115D01*
X-75232Y1575D01*
X-75124Y1034D01*
X-74927Y40D01*
X-74924Y-0D01*
X-75223Y-936D01*
X-75330Y-1476D01*
X-75330Y-1476D01*
X-75327Y-1490D01*
X-75223Y-2017D01*
X-74916Y-2475D01*
X-74458Y-2782D01*
X-73917Y-2889D01*
X-73377Y-2782D01*
X-72918Y-2475D01*
X-72612Y-2017D01*
X-72504Y-1476D01*
X-72612Y-936D01*
X-72809Y58D01*
X-72812Y99D01*
X-72514Y1034D01*
X-72406Y1575D01*
X-72406Y1575D01*
X-72409Y1589D01*
X-72514Y2115D01*
X-72820Y2574D01*
X-73278Y2880D01*
X-73819Y2988D01*
D02*
G37*
G36*
X-56795Y-2240D02*
X-57185D01*
X-57541Y-2310D01*
X-57842Y-2512D01*
X-58044Y-2813D01*
X-58115Y-3169D01*
Y-3481D01*
X-56795D01*
Y-2240D01*
D02*
G37*
G36*
X57118Y-2307D02*
X56728D01*
Y-3548D01*
X58048D01*
Y-3236D01*
X57977Y-2881D01*
X57775Y-2579D01*
X57474Y-2377D01*
X57118Y-2307D01*
D02*
G37*
G36*
X23660Y-8683D02*
X21688D01*
Y-10300D01*
X23660D01*
Y-8683D01*
D02*
G37*
G36*
X21288D02*
X19317D01*
Y-10300D01*
X21288D01*
Y-8683D01*
D02*
G37*
G36*
X-30474Y-10395D02*
X-34030D01*
Y-10431D01*
X-34947Y-10759D01*
X-35211Y-10811D01*
X-35471Y-10637D01*
X-35827Y-10566D01*
X-37008D01*
X-37364Y-10637D01*
X-37665Y-10839D01*
X-38534Y-10604D01*
X-39075Y-10497D01*
X-39615Y-10604D01*
X-40074Y-10910D01*
X-40380Y-11369D01*
X-40488Y-11909D01*
X-40380Y-12450D01*
X-40074Y-12909D01*
X-39615Y-13215D01*
X-39075Y-13322D01*
X-38844Y-13276D01*
X-38381Y-13540D01*
X-37867Y-14605D01*
X-37938Y-14961D01*
Y-15272D01*
X-36417D01*
X-34897D01*
Y-14961D01*
X-34968Y-14605D01*
X-35083Y-14432D01*
X-35091Y-14412D01*
X-34866Y-13975D01*
X-34035Y-13365D01*
X-33988Y-13361D01*
X-30474D01*
Y-10395D01*
D02*
G37*
G36*
X13398Y-10653D02*
X13086D01*
Y-11973D01*
X14327D01*
Y-11583D01*
X14256Y-11227D01*
X14055Y-10925D01*
X13753Y-10724D01*
X13398Y-10653D01*
D02*
G37*
G36*
X57118Y-10968D02*
X56727D01*
Y-12210D01*
X58048D01*
Y-11898D01*
X57977Y-11542D01*
X57775Y-11240D01*
X57474Y-11039D01*
X57118Y-10968D01*
D02*
G37*
G36*
X-56861D02*
X-57252D01*
X-57608Y-11039D01*
X-57909Y-11240D01*
X-58111Y-11542D01*
X-58182Y-11898D01*
Y-12210D01*
X-56861D01*
Y-10968D01*
D02*
G37*
G36*
X14327Y-12373D02*
X13086D01*
Y-13693D01*
X13398D01*
X13753Y-13623D01*
X14055Y-13421D01*
X14256Y-13120D01*
X14327Y-12764D01*
Y-12373D01*
D02*
G37*
G36*
X-34897Y-15672D02*
X-36217D01*
Y-16914D01*
X-35827D01*
X-35471Y-16843D01*
X-35169Y-16642D01*
X-34968Y-16340D01*
X-34897Y-15984D01*
Y-15672D01*
D02*
G37*
G36*
X-36617D02*
X-37938D01*
Y-15984D01*
X-37867Y-16340D01*
X-37665Y-16642D01*
X-37364Y-16843D01*
X-37008Y-16914D01*
X-36617D01*
Y-15672D01*
D02*
G37*
G36*
X71949Y-15418D02*
X71408Y-15525D01*
X70950Y-15832D01*
X70643Y-16290D01*
X70536Y-16831D01*
X70643Y-17371D01*
X70950Y-17830D01*
X71408Y-18136D01*
X71949Y-18244D01*
X72490Y-18136D01*
X72948Y-17830D01*
X73254Y-17371D01*
X73362Y-16831D01*
X73254Y-16290D01*
X72948Y-15832D01*
X72490Y-15525D01*
X71949Y-15418D01*
D02*
G37*
G36*
X-72539Y-12170D02*
X-73080Y-12277D01*
X-73539Y-12584D01*
X-73845Y-13042D01*
X-73952Y-13583D01*
X-73845Y-14123D01*
X-73539Y-14582D01*
X-73420Y-14661D01*
X-73146Y-15518D01*
X-73204Y-16068D01*
X-73353Y-16290D01*
X-73460Y-16831D01*
X-73353Y-17371D01*
X-73046Y-17830D01*
X-72588Y-18136D01*
X-72047Y-18244D01*
X-71507Y-18136D01*
X-71048Y-17830D01*
X-70742Y-17371D01*
X-70634Y-16831D01*
X-70742Y-16290D01*
X-71048Y-15832D01*
X-71166Y-15753D01*
X-71440Y-14895D01*
X-71382Y-14346D01*
X-71234Y-14123D01*
X-71126Y-13583D01*
X-71234Y-13042D01*
X-71540Y-12584D01*
X-71999Y-12277D01*
X-72539Y-12170D01*
D02*
G37*
G36*
X-68110Y-26540D02*
X-68651Y-26647D01*
X-69109Y-26954D01*
X-69416Y-27412D01*
X-69523Y-27953D01*
X-69416Y-28493D01*
X-69109Y-28952D01*
X-68651Y-29258D01*
X-68110Y-29366D01*
X-67570Y-29258D01*
X-67111Y-28952D01*
X-66805Y-28493D01*
X-66697Y-27953D01*
X-66805Y-27412D01*
X-67111Y-26954D01*
X-67570Y-26647D01*
X-68110Y-26540D01*
D02*
G37*
G36*
X30031Y-39800D02*
X28694Y-39976D01*
X27447Y-40492D01*
X26377Y-41314D01*
X25555Y-42384D01*
X25039Y-43631D01*
X24863Y-44969D01*
X25039Y-46306D01*
X25555Y-47553D01*
X26377Y-48623D01*
X27447Y-49445D01*
X28694Y-49961D01*
X30031Y-50137D01*
X31369Y-49961D01*
X32616Y-49445D01*
X33686Y-48623D01*
X34508Y-47553D01*
X35024Y-46306D01*
X35200Y-44969D01*
X35024Y-43631D01*
X34508Y-42384D01*
X33686Y-41314D01*
X32616Y-40492D01*
X31369Y-39976D01*
X30031Y-39800D01*
D02*
G37*
G36*
X-29969D02*
X-31306Y-39976D01*
X-32553Y-40492D01*
X-33623Y-41314D01*
X-34445Y-42384D01*
X-34961Y-43631D01*
X-35137Y-44969D01*
X-34961Y-46306D01*
X-34445Y-47553D01*
X-33623Y-48623D01*
X-32553Y-49445D01*
X-31306Y-49961D01*
X-29969Y-50137D01*
X-28631Y-49961D01*
X-27384Y-49445D01*
X-26314Y-48623D01*
X-25492Y-47553D01*
X-24976Y-46306D01*
X-24800Y-44969D01*
X-24976Y-43631D01*
X-25492Y-42384D01*
X-26314Y-41314D01*
X-27384Y-40492D01*
X-28631Y-39976D01*
X-29969Y-39800D01*
D02*
G37*
G36*
X50591Y-52327D02*
X50050Y-52435D01*
X49591Y-52741D01*
X49285Y-53199D01*
X49278Y-53235D01*
X49177Y-53741D01*
X48524Y-54197D01*
X47983Y-54305D01*
X47524Y-54611D01*
X47218Y-55070D01*
X47111Y-55610D01*
X47218Y-56151D01*
X47524Y-56609D01*
X47983Y-56916D01*
X48524Y-57023D01*
X49064Y-56916D01*
X49523Y-56609D01*
X49829Y-56151D01*
X49836Y-56116D01*
X49937Y-55610D01*
X50591Y-55153D01*
X51131Y-55046D01*
X51590Y-54739D01*
X51896Y-54281D01*
X52004Y-53740D01*
X51896Y-53199D01*
X51590Y-52741D01*
X51131Y-52435D01*
X50591Y-52327D01*
D02*
G37*
G36*
X-48425Y-54689D02*
X-48966Y-54797D01*
X-49424Y-55103D01*
X-49731Y-55562D01*
X-49838Y-56102D01*
X-49731Y-56643D01*
X-49424Y-57102D01*
X-48966Y-57408D01*
X-48425Y-57515D01*
X-47885Y-57408D01*
X-47426Y-57102D01*
X-47120Y-56643D01*
X-47012Y-56102D01*
X-47120Y-55562D01*
X-47426Y-55103D01*
X-47885Y-54797D01*
X-48425Y-54689D01*
D02*
G37*
G36*
X-38091Y-61776D02*
X-38631Y-61884D01*
X-39090Y-62190D01*
X-39396Y-62648D01*
X-39503Y-63189D01*
X-39396Y-63730D01*
X-39090Y-64188D01*
X-38631Y-64494D01*
X-38192Y-64582D01*
X-38091Y-64602D01*
X-37448Y-64805D01*
X-36955Y-65285D01*
X-36893Y-65368D01*
X-36843Y-65443D01*
X-36629Y-65763D01*
X-36171Y-66069D01*
X-35630Y-66177D01*
X-35089Y-66069D01*
X-34631Y-65763D01*
X-34324Y-65304D01*
X-34217Y-64764D01*
X-34324Y-64223D01*
X-34631Y-63765D01*
X-35089Y-63458D01*
X-35529Y-63371D01*
X-35630Y-63351D01*
X-36272Y-63148D01*
X-36765Y-62668D01*
X-36827Y-62585D01*
X-36877Y-62510D01*
X-37091Y-62190D01*
X-37550Y-61884D01*
X-38091Y-61776D01*
D02*
G37*
G36*
X-24508Y-68272D02*
X-25049Y-68380D01*
X-25507Y-68686D01*
X-25813Y-69144D01*
X-25921Y-69685D01*
X-25813Y-70226D01*
X-25507Y-70684D01*
X-25049Y-70990D01*
X-24508Y-71098D01*
X-24027Y-71002D01*
X-23967Y-70991D01*
X-22843Y-71287D01*
X-22675Y-71439D01*
X-22456Y-71767D01*
X-21997Y-72073D01*
X-21457Y-72181D01*
X-20916Y-72073D01*
X-20458Y-71767D01*
X-20151Y-71308D01*
X-20044Y-70768D01*
X-20151Y-70227D01*
X-20458Y-69769D01*
X-20916Y-69462D01*
X-21457Y-69355D01*
X-21937Y-69450D01*
X-21997Y-69462D01*
X-23122Y-69166D01*
X-23290Y-69014D01*
X-23509Y-68686D01*
X-23967Y-68380D01*
X-24508Y-68272D01*
D02*
G37*
G36*
X6201Y-72209D02*
X5660Y-72317D01*
X5202Y-72623D01*
X4895Y-73081D01*
X4788Y-73622D01*
X4895Y-74163D01*
X5202Y-74621D01*
X5660Y-74928D01*
X6201Y-75035D01*
X6741Y-74928D01*
X7200Y-74621D01*
X7506Y-74163D01*
X7614Y-73622D01*
X7506Y-73081D01*
X7200Y-72623D01*
X6741Y-72317D01*
X6201Y-72209D01*
D02*
G37*
G36*
X-9252Y-71914D02*
X-9793Y-72021D01*
X-10251Y-72328D01*
X-10557Y-72786D01*
X-10665Y-73327D01*
X-10557Y-73867D01*
X-10251Y-74326D01*
X-9793Y-74632D01*
X-9252Y-74740D01*
X-8711Y-74632D01*
X-8501Y-74491D01*
X-8089Y-74368D01*
X-7102Y-74621D01*
X-7052Y-74654D01*
X-6643Y-74928D01*
X-6102Y-75035D01*
X-5562Y-74928D01*
X-5103Y-74621D01*
X-4797Y-74163D01*
X-4689Y-73622D01*
X-4797Y-73081D01*
X-5103Y-72623D01*
X-5562Y-72317D01*
X-6102Y-72209D01*
X-6643Y-72317D01*
X-6854Y-72457D01*
X-7265Y-72581D01*
X-8253Y-72328D01*
X-8303Y-72294D01*
X-8711Y-72021D01*
X-9252Y-71914D01*
D02*
G37*
G36*
X27577Y24772D02*
X22653D01*
Y23076D01*
X27577D01*
Y24772D01*
D02*
G37*
G36*
Y14772D02*
X22653D01*
Y13076D01*
X27577D01*
Y14772D01*
D02*
G37*
G36*
X22253D02*
X17328D01*
Y13076D01*
X22253D01*
Y14772D01*
D02*
G37*
G36*
X27577Y11868D02*
X22653D01*
Y10172D01*
X27577D01*
Y11868D01*
D02*
G37*
G36*
X22253D02*
X17328D01*
Y10172D01*
X22253D01*
Y11868D01*
D02*
G37*
G36*
X27577Y9772D02*
X22653D01*
Y8076D01*
X27577D01*
Y9772D01*
D02*
G37*
G36*
X-7354Y-14118D02*
X-7744D01*
X-8100Y-14188D01*
X-8401Y-14390D01*
X-8603Y-14692D01*
X-8674Y-15047D01*
Y-15359D01*
X-7354D01*
Y-14118D01*
D02*
G37*
G36*
X-3315Y-14118D02*
X-3706D01*
Y-15359D01*
X-2385D01*
Y-15047D01*
X-2456Y-14692D01*
X-2658Y-14390D01*
X-2959Y-14188D01*
X-3315Y-14118D01*
D02*
G37*
%LPD*%
D12*
X18347Y-3937D02*
X18445Y-3839D01*
X8174Y-3100D02*
X9011Y-3937D01*
X18347D01*
X27116Y-738D02*
X35237Y7383D01*
X21325Y-3839D02*
X24016D01*
X27116Y-738D01*
X62402Y-33268D02*
Y6988D01*
X72047Y16634D01*
X32Y32D02*
X5669Y-5606D01*
X-5606Y5669D02*
X32Y32D01*
X5669Y-5606D02*
X8595Y-8531D01*
X10661D01*
X20736Y-24802D02*
X40256Y-44322D01*
Y-53482D02*
Y-44322D01*
X5543Y-24870D02*
Y-24841D01*
X5583Y-24802D01*
X20736D01*
X24696Y-69041D02*
X40256Y-53482D01*
X24696Y-69595D02*
Y-69041D01*
X24508Y-69784D02*
X24696Y-69595D01*
X38583Y-66043D02*
X41240D01*
X41831Y-65453D01*
Y-42260D01*
X22387Y-22817D02*
X41831Y-42260D01*
X50161Y-37795D02*
X58080Y-37589D01*
X62402Y-33268D01*
X30433Y-18067D02*
X50161Y-37795D01*
X10433Y25197D02*
X13150D01*
X13833Y25880D01*
Y25895D01*
X14454Y26516D01*
X14469D01*
X10433Y22441D02*
Y25197D01*
X14469Y24114D02*
Y26516D01*
X-7677Y26772D02*
Y28976D01*
X-7677Y26772D02*
X-7677Y26772D01*
X-3839Y28937D02*
Y28937D01*
X-3858Y28957D02*
X-3839Y28937D01*
X-7658Y28957D02*
X-3858D01*
X-7677Y28976D02*
X-7658Y28957D01*
X-37488Y29972D02*
Y34972D01*
X-37445Y35016D02*
X-31500D01*
X67746Y-28445D02*
X68012D01*
X67110Y-29081D02*
X67746Y-28445D01*
X66926Y-29081D02*
X67110D01*
X64272Y-31735D02*
X66926Y-29081D01*
X49480Y-46366D02*
X60586D01*
X64272Y-42680D01*
X30445Y-27331D02*
X49480Y-46366D01*
X64272Y-42680D02*
Y-31735D01*
X60874Y-44398D02*
X62606Y-42666D01*
Y-41192D01*
X60883Y-39469D02*
X62606Y-41192D01*
X48783Y-39469D02*
X60883D01*
X58957Y-44587D02*
X59145Y-44398D01*
X60874D01*
X33545Y-27331D02*
X48144Y-41929D01*
X60827D01*
X-39043Y-11878D02*
X-32252D01*
X-39075Y-11909D02*
X-39043Y-11878D01*
X-19811Y-35894D02*
Y-35879D01*
X-20432Y-35258D02*
X-19811Y-35879D01*
X-20447Y-35258D02*
X-20432D01*
X-20969Y-34736D02*
X-20447Y-35258D01*
X-22548Y-34736D02*
X-20969D01*
X-22736Y-34547D02*
X-22548Y-34736D01*
X-19811Y-38945D02*
Y-38930D01*
X-21348Y-37393D02*
X-19811Y-38930D01*
X-22646Y-37393D02*
X-21348D01*
X-22835Y-37205D02*
X-22646Y-37393D01*
X-20665Y-31988D02*
X-19811Y-32842D01*
X-22736Y-31988D02*
X-20665D01*
X-12468Y-37961D02*
X-7547D01*
X-12992Y-38484D02*
X-12468Y-37961D01*
X-16346Y-38945D02*
X-15886Y-38484D01*
X-12992D01*
X-16295Y-35894D02*
X-15744Y-35343D01*
X-16327Y-35925D02*
X-16295Y-35894D01*
X-12925D01*
X-16346D02*
X-16295D01*
X-12433Y-36386D02*
X-7547D01*
X-12925Y-35894D02*
X-12433Y-36386D01*
X-16346Y-32842D02*
X-14260D01*
X-12291Y-34811D01*
X-7547D01*
X-15994Y-29429D02*
Y-8462D01*
X-12152Y-33272D02*
X-7579D01*
X-21224Y-29519D02*
X-21135Y-29429D01*
X-15994Y-8462D02*
X-9396Y-1863D01*
X-21135Y-29429D02*
X-15994D01*
X-27461Y-23228D02*
X-24665D01*
X-21201D02*
X-18307D01*
X-21201Y-20079D02*
X-18406D01*
X-15994Y-29429D02*
X-12152Y-33272D01*
X36416Y33936D02*
X37453Y34972D01*
X31299Y33936D02*
X36416D01*
X-12701Y35236D02*
X-12468Y35004D01*
X-12701Y35236D02*
X-9055D01*
X-3838Y28937D02*
X-1135D01*
X-3839Y28937D02*
X-3838Y28937D01*
X6693Y29921D02*
X10433D01*
X6004Y30610D02*
X6693Y29921D01*
X6004Y30610D02*
Y32677D01*
X10492Y29980D02*
X14469D01*
X10433Y29921D02*
X10492Y29980D01*
X13998Y30450D02*
Y31456D01*
X13336Y32119D02*
X13998Y31456D01*
X13336Y32119D02*
Y32385D01*
X14951Y30463D02*
Y31460D01*
X14469Y29980D02*
X14951Y30463D01*
Y31460D02*
X15679Y32188D01*
Y32413D01*
X13998Y30450D02*
X14469Y29980D01*
X-16634Y25591D02*
X-16381Y25338D01*
Y23913D02*
Y25338D01*
X-36417Y-18012D02*
Y-15472D01*
X-19821Y-8207D02*
X-19768Y-8260D01*
X-19752Y-8276D01*
X-19768Y-8260D02*
Y-5823D01*
X-19783Y-5807D02*
X-19768Y-5823D01*
X-18817Y-15471D02*
Y-14909D01*
X-12961Y34512D02*
X-12468Y35004D01*
X394Y21063D02*
X787Y20669D01*
X-3839Y21063D02*
X394D01*
X4429Y20827D02*
X7480D01*
X945D02*
X4429D01*
X787Y20669D02*
X945Y20827D01*
X7333Y17215D02*
X7480Y17362D01*
X7333Y15207D02*
Y17215D01*
X7185Y15059D02*
X7333Y15207D01*
X787Y15945D02*
X1378Y15354D01*
Y12992D02*
Y15354D01*
X4429Y17362D02*
X4490Y17301D01*
Y13274D02*
Y17301D01*
Y13274D02*
X4551Y13213D01*
X-56594Y15905D02*
X-54094D01*
X-49968Y20031D01*
X-51524Y10031D02*
X-49968D01*
X-56595Y7244D02*
X-54311D01*
X-51524Y10031D01*
X-51488Y-9968D02*
X-49968D01*
X-54311Y-7146D02*
X-51488Y-9968D01*
X-56595Y-7146D02*
X-54311D01*
X-56661Y-12410D02*
X-56628Y-12376D01*
Y-9778D01*
X-56595Y-9744D01*
X-56661Y-15874D02*
X-54063D01*
X-49968Y-19969D01*
X56488Y16370D02*
X56528Y16331D01*
X54165Y16370D02*
X56488D01*
X50032Y20031D02*
X50504D01*
X54165Y16370D01*
X56528Y1508D02*
Y4106D01*
X50032Y-19969D02*
X54126Y-15874D01*
X56724D01*
X50032Y-9968D02*
X51538Y-8462D01*
X55332D01*
X56582Y-7213D01*
X56724D01*
X56449Y7768D02*
X56941D01*
X50032Y10031D02*
X51538Y8525D01*
X55529D01*
X56483Y7571D01*
X56626D01*
X8506Y6016D02*
X16500D01*
X-19752Y-13974D02*
Y-11740D01*
Y-13974D02*
X-18817Y-14909D01*
X-23984Y-15618D02*
X-23837Y-15471D01*
X-18817D01*
X-18669Y-15323D01*
X-23984Y-8138D02*
X-23915Y-8207D01*
X-19821D01*
X-5480Y-24870D02*
Y-22606D01*
X-6071Y-22016D02*
X-5480Y-22606D01*
X7315Y-14043D02*
X7551D01*
X9421Y-12173D01*
X22453Y24719D02*
X22579Y24846D01*
X22453Y19972D02*
Y24719D01*
X-13421Y34972D02*
X-12961Y34512D01*
X-13354Y10957D02*
X-11150D01*
X-22488Y34972D02*
X-13421D01*
X-27362Y-20079D02*
X-24665D01*
X36339Y11055D02*
X36370D01*
X37453Y9972D01*
X36350Y11075D02*
X36370Y11055D01*
X31213Y11075D02*
X36350D01*
X31035Y11252D02*
X31213Y11075D01*
X-8242Y11514D02*
X-7685Y10957D01*
X-8242Y11514D02*
Y12862D01*
X-8728Y13348D02*
X-8242Y12862D01*
X-8728Y13348D02*
Y13614D01*
X17846Y-10500D02*
X21488D01*
X-7173Y-15539D02*
X-7154Y-15559D01*
X-9693Y-15539D02*
X-7173D01*
X-9713Y-15520D02*
X-9693Y-15539D01*
X-11500Y-22484D02*
Y-8979D01*
X-6890Y-4369D01*
X-3906Y-15559D02*
X-3906Y-15559D01*
X-7153Y-15559D02*
X-3906D01*
X-7154Y-15559D02*
X-7153Y-15559D01*
X-7168Y-19024D02*
X-7153D01*
X-7789Y-19645D02*
X-7168Y-19024D01*
X-7789Y-19659D02*
Y-19645D01*
X-8138Y-20008D02*
X-7789Y-19659D01*
X-8138Y-26898D02*
Y-20008D01*
X-3906Y-15559D02*
X-3886Y-15539D01*
X-24689Y-29519D02*
Y-26369D01*
X-26992Y-29519D02*
X-24689D01*
X-21224D02*
Y-26369D01*
X-26992D02*
X-24689D01*
X-22500Y20016D02*
X-16000D01*
X32129Y28980D02*
X35464D01*
X31260Y15048D02*
X36383D01*
X36425Y15090D01*
X23893Y9811D02*
X28672D01*
X22551Y11153D02*
X23893Y9811D01*
X25946Y34845D02*
X26019Y34918D01*
X28644D01*
X24736Y36055D02*
X25946Y34845D01*
X22453Y36055D02*
X24736D01*
X22579Y24846D02*
X28567D01*
X28613Y24892D01*
X22453Y24972D02*
X22579Y24846D01*
X31528Y23358D02*
X34224Y26055D01*
X31232Y23358D02*
X31528D01*
X3897Y8924D02*
X16831Y21858D01*
Y26801D01*
X17292Y27262D02*
X30412D01*
X-15618Y-4299D02*
Y-4201D01*
X-28413Y8595D02*
Y14242D01*
X-27502Y7683D02*
X-15618Y-4201D01*
X-28413Y8595D02*
X-28006Y8187D01*
Y8148D02*
X-27541Y7683D01*
X-28413Y14242D02*
X-27952Y14703D01*
X-22758D01*
X-28006Y8148D02*
Y8187D01*
X-27541Y7683D02*
X-27502D01*
X-22758Y14703D02*
X-21976Y15484D01*
X-16012D01*
X-7685Y10957D02*
X-5883D01*
X-3100Y8174D01*
X4323Y17256D02*
X4429Y17362D01*
X4551Y13213D02*
X4654Y13315D01*
X12886Y-12173D02*
X15287D01*
X12728Y-6366D02*
X13319Y-6957D01*
X8887Y-6366D02*
X12728D01*
X7687Y-5166D02*
X8887Y-6366D01*
X6914Y-4345D02*
X7687Y-5119D01*
Y-5166D02*
Y-5119D01*
X7785Y-10227D02*
X8864Y-11306D01*
X7785Y-10227D02*
X7785D01*
X8864Y-11616D02*
X9421Y-12173D01*
X8864Y-11616D02*
Y-11306D01*
X4416Y-6859D02*
X7785Y-10227D01*
X-21201Y-20079D02*
X-21152Y-20128D01*
X-12961Y24342D02*
X1933Y9449D01*
X-22488Y9972D02*
X-21386Y11075D01*
X-16849D01*
X-16081Y11842D01*
X-15815D01*
X35237Y9953D02*
X36339Y11055D01*
X35237Y7383D02*
Y9953D01*
X-2613Y10193D02*
X-1848Y9427D01*
X-2661Y10193D02*
X-2613D01*
X-16381Y23913D02*
X-16338Y23870D01*
X-2661Y10193D01*
X-22488Y24972D02*
X-21386Y23870D01*
X-16338D01*
X34224Y26055D02*
X37453D01*
X-9122Y-9614D02*
Y-9401D01*
X-8382Y-8382D02*
X-5606Y-5606D01*
X-8382Y-8661D02*
Y-8382D01*
X-9122Y-9401D02*
X-8382Y-8661D01*
X-37488Y9972D02*
X-31563D01*
X-37488D02*
Y14972D01*
X-37445Y15016D01*
X-31500D01*
X-37488Y29972D02*
X-37445Y30016D01*
X-31500D01*
X-37488Y34972D02*
X-37445Y35016D01*
X-37488Y24972D02*
X-37445Y25016D01*
X-31500D01*
X-37488Y19972D02*
X-37445Y20016D01*
X-31500D01*
X-37488Y19972D02*
Y24972D01*
X30412Y27262D02*
X32129Y28980D01*
X22453Y11055D02*
X22551Y11153D01*
X-8877Y3929D02*
X-8119Y3171D01*
X-12841Y3929D02*
X-8877D01*
X-12857Y3945D02*
X-12841Y3929D01*
X-5119Y7687D02*
X-4361Y6929D01*
X-5166Y7687D02*
X-5119D01*
X-5286Y7807D02*
X-5166Y7687D01*
X1911Y-9364D02*
X5113Y-12567D01*
X22453Y11055D02*
Y16055D01*
Y31055D02*
Y36055D01*
X4447Y-22817D02*
X22387D01*
X2480Y-18067D02*
X30433D01*
X-2331Y-24870D02*
X-2291Y-24831D01*
Y-22838D01*
X2480Y-18067D01*
X-756Y-24870D02*
X-716Y-24831D01*
Y-22943D01*
X2972Y-19254D01*
X28569D01*
X48783Y-39469D01*
X819Y-24870D02*
X858Y-24831D01*
Y-23047D01*
X26656Y-20442D02*
X33545Y-27331D01*
X3464Y-20442D02*
X26656D01*
X858Y-23047D02*
X3464Y-20442D01*
X24743Y-21629D02*
X30445Y-27331D01*
X2433Y-23152D02*
X3955Y-21629D01*
X24743D01*
X2394Y-24870D02*
X2433Y-24831D01*
Y-23152D01*
X3968Y-24870D02*
X3968Y-24870D01*
X3968Y-24870D02*
Y-23295D01*
X4447Y-22817D01*
X7610Y-37996D02*
X8472D01*
X8476Y-38000D01*
Y-38218D02*
Y-38000D01*
Y-38218D02*
X10390Y-40132D01*
Y-41134D02*
X10563Y-41307D01*
X-7547Y-31661D02*
X-756D01*
X-10923D02*
X-7547D01*
X-11415Y-31169D02*
X-10923Y-31661D01*
X-11681Y-31169D02*
X-11415D01*
X-9776Y-30122D02*
X-7579D01*
X-11484Y-28413D02*
X-9776Y-30122D01*
X-13500Y-23881D02*
X-9705Y-27676D01*
X-13500Y-23881D02*
Y-8473D01*
X-9705Y-27732D02*
X-8965Y-28472D01*
X-9705Y-27732D02*
Y-27676D01*
X29102Y19913D02*
X32398D01*
X36425Y15090D02*
X36500Y15016D01*
X37500Y16016D01*
X16921Y-45933D02*
X17057Y-45798D01*
X20575D01*
X20632Y-42833D02*
X20711Y-42754D01*
X16872Y-42833D02*
X20632D01*
X16896Y-39659D02*
X20779D01*
X16823Y-39732D02*
X16896Y-39659D01*
X16823Y-45835D02*
X16921Y-45933D01*
X16823Y-42783D02*
X16872Y-42833D01*
X-8098Y-26937D02*
X-7547D01*
X-8138Y-26898D02*
X-8098Y-26937D01*
X2197Y-34614D02*
X5543Y-37961D01*
X32Y-32449D02*
X2197Y-34614D01*
X5543Y-37961D02*
X7610D01*
X-756Y-31661D02*
X32Y-32449D01*
X-2134Y-30283D02*
X-756Y-31661D01*
X-5480Y-26937D02*
X-2134Y-30283D01*
X-5480Y-26937D02*
Y-24870D01*
X-1445Y-45776D02*
X-1347Y-45677D01*
Y-43571D01*
X-756Y-42980D02*
Y-40028D01*
X-1347Y-43571D02*
X-756Y-42980D01*
X-7547Y-45776D02*
X-7153Y-45382D01*
Y-44555D01*
X-3945Y-40067D02*
X-3906Y-40028D01*
X-3945Y-41346D02*
Y-40067D01*
X-7153Y-44555D02*
X-3945Y-41346D01*
X-9286Y-43046D02*
X-7672D01*
X-5480Y-40854D02*
Y-40028D01*
X-7672Y-43046D02*
X-5480Y-40854D01*
X-10346Y-45523D02*
Y-44106D01*
X-9286Y-43046D01*
X-10598Y-45776D02*
X-10346Y-45523D01*
X-4496Y-45776D02*
Y-43866D01*
X-2370Y-40067D02*
X-2331Y-40028D01*
X-2370Y-41740D02*
Y-40067D01*
X-4496Y-43866D02*
X-2370Y-41740D01*
X1606Y-45776D02*
Y-43472D01*
X819Y-42685D02*
X1606Y-43472D01*
X819Y-42685D02*
Y-40028D01*
X4657Y-45776D02*
Y-43965D01*
X2433Y-41740D02*
X4657Y-43965D01*
X2394Y-40028D02*
X2433Y-40067D01*
Y-41740D02*
Y-40067D01*
X16823Y-36681D02*
X20799D01*
X16823Y-30677D02*
X20898D01*
X16921Y-33630D02*
X20898D01*
X16823Y-33728D02*
X16921Y-33630D01*
X-56595Y9941D02*
Y12441D01*
Y9941D02*
X-56594Y9941D01*
X-56632Y-3643D02*
X-56595Y-3681D01*
X-56632Y-3643D02*
Y-1242D01*
X-56595Y1280D02*
Y3779D01*
X-49968Y10031D02*
X-49968Y10031D01*
X56528Y10268D02*
Y12866D01*
Y-3748D02*
Y-1150D01*
Y-12410D02*
Y-9910D01*
X10390Y-41134D02*
Y-40132D01*
X8535Y-45835D02*
X13358D01*
X4008Y-41308D02*
X8535Y-45835D01*
X4008Y-41308D02*
Y-40067D01*
X3968Y-40028D02*
X4008Y-40067D01*
X5543Y-40854D02*
Y-40028D01*
Y-40854D02*
X8453Y-43764D01*
X12393D01*
X13358Y-42798D01*
Y-42783D01*
X7610Y-36386D02*
X9947D01*
X12657Y-39097D01*
X12737D01*
X13358Y-39718D01*
Y-39732D02*
Y-39718D01*
X7610Y-34811D02*
X10051D01*
X11286Y-36045D01*
X12737D01*
X13358Y-36666D01*
Y-36681D02*
Y-36666D01*
X10833Y-33728D02*
X13358D01*
X10341Y-33236D02*
X10833Y-33728D01*
X7610Y-33236D02*
X10341D01*
X11079Y-30677D02*
X13358D01*
X10095Y-31661D02*
X11079Y-30677D01*
X7610Y-31661D02*
X10095D01*
X32398Y19913D02*
X36398D01*
X29937Y17453D02*
X32398Y19913D01*
X-22500Y20016D02*
X-22500Y20016D01*
X-12961Y24342D02*
Y30512D01*
X-22000Y30516D02*
X-13000D01*
X-22500Y30016D02*
X-22000Y30516D01*
X9396Y1921D02*
X19405D01*
X19500Y2016D01*
X5637Y5653D02*
X8000Y8016D01*
X15000D01*
X6890Y4400D02*
X8506Y6016D01*
X9011Y4016D02*
X18000D01*
X8143Y3148D02*
X9011Y4016D01*
X-7654Y-28472D02*
X-7579Y-28547D01*
X-13347Y7807D02*
X-5286D01*
X-13578Y7576D02*
X-13347Y7807D01*
X-13844Y7576D02*
X-13578D01*
X-15558Y5725D02*
X-8214D01*
X-6890Y4400D01*
X-19000Y2016D02*
X-9516D01*
X-19000Y2016D02*
X-19000Y2016D01*
X-17179Y3945D02*
X-12857D01*
X-17276Y3848D02*
X-17179Y3945D01*
X-9516Y2016D02*
X-9396Y1895D01*
X-21398Y23913D02*
X-16381D01*
X4385Y6906D02*
X14931Y17453D01*
X29937D01*
X16831Y26801D02*
X17292Y27262D01*
X35464Y28980D02*
X36437Y29953D01*
X3897Y8924D02*
Y8924D01*
X3132Y8159D02*
X3897Y8924D01*
X-8965Y-28472D02*
X-7654D01*
X-13500Y-8473D02*
X-8143Y-3116D01*
D13*
X21910Y-3839D02*
D03*
X18445D02*
D03*
X16823Y-42783D02*
D03*
X13358Y-42783D02*
D03*
X-21224Y-29519D02*
D03*
X-24689D02*
D03*
X-7685Y10957D02*
D03*
X-11150D02*
D03*
X9421Y-12173D02*
D03*
X12886D02*
D03*
X-21224Y-26369D02*
D03*
X-24689D02*
D03*
X-24665Y-23228D02*
D03*
X-21201D02*
D03*
X-24665Y-20079D02*
D03*
X-21201D02*
D03*
X16823Y-33728D02*
D03*
X13358D02*
D03*
X16823Y-30677D02*
D03*
X13358D02*
D03*
Y-36681D02*
D03*
X16823D02*
D03*
X13358Y-39732D02*
D03*
X16823D02*
D03*
X13358Y-45835D02*
D03*
X16823D02*
D03*
X-16346Y-38945D02*
D03*
X-19811Y-38945D02*
D03*
X-16346Y-35894D02*
D03*
X-19811D02*
D03*
X-16346Y-32842D02*
D03*
X-19811Y-32842D02*
D03*
D14*
X-36417Y-12008D02*
D03*
Y-15472D02*
D03*
X56528Y-15874D02*
D03*
Y-12410D02*
D03*
Y-7213D02*
D03*
Y-3748D02*
D03*
X-3906Y-19024D02*
D03*
Y-15559D02*
D03*
X14469Y29980D02*
D03*
Y26516D02*
D03*
X-7677Y32441D02*
D03*
X-7677Y28976D02*
D03*
X4429Y20827D02*
D03*
Y17362D02*
D03*
X7480Y20827D02*
D03*
Y17362D02*
D03*
X-19752Y-11740D02*
D03*
Y-8276D02*
D03*
X4657Y-45776D02*
D03*
X4657Y-49240D02*
D03*
X1606Y-45776D02*
D03*
X1606Y-49240D02*
D03*
X-1445Y-45776D02*
D03*
X-1445Y-49240D02*
D03*
X-4496Y-45776D02*
D03*
X-4496Y-49240D02*
D03*
X-7547Y-45776D02*
D03*
X-7547Y-49240D02*
D03*
X-10598Y-45776D02*
D03*
X-10599Y-49240D02*
D03*
X56528Y4106D02*
D03*
Y7571D02*
D03*
Y12866D02*
D03*
Y16331D02*
D03*
X-56595Y12441D02*
D03*
X-56594Y15905D02*
D03*
X-56595Y3779D02*
D03*
Y7244D02*
D03*
Y-3681D02*
D03*
Y-7146D02*
D03*
X-56661Y-12410D02*
D03*
X-56661Y-15874D02*
D03*
X-7153Y-19024D02*
D03*
X-7154Y-15559D02*
D03*
D15*
X-5480Y-40028D02*
D03*
X-3906D02*
D03*
X-2331D02*
D03*
X-756D02*
D03*
X819D02*
D03*
X2394D02*
D03*
X3968D02*
D03*
X5543D02*
D03*
Y-24870D02*
D03*
X3968D02*
D03*
X2394D02*
D03*
X819D02*
D03*
X-756D02*
D03*
X-2331D02*
D03*
X-3906D02*
D03*
X-5480D02*
D03*
D16*
X7610Y-37961D02*
D03*
Y-36386D02*
D03*
Y-34811D02*
D03*
Y-33236D02*
D03*
Y-31661D02*
D03*
Y-30087D02*
D03*
Y-28512D02*
D03*
Y-26937D02*
D03*
X-7547D02*
D03*
Y-28512D02*
D03*
Y-30087D02*
D03*
Y-31661D02*
D03*
Y-33236D02*
D03*
Y-34811D02*
D03*
Y-36386D02*
D03*
Y-37961D02*
D03*
D17*
X32Y-32449D02*
D03*
D18*
X-3839Y32677D02*
D03*
Y28937D02*
D03*
Y25197D02*
D03*
X6004Y32677D02*
D03*
Y25197D02*
D03*
D19*
X-23984Y-15618D02*
D03*
Y-8138D02*
D03*
X-32252Y-11878D02*
D03*
D20*
X22453Y34972D02*
D03*
X37453D02*
D03*
X22453Y29972D02*
D03*
X37453D02*
D03*
X22453Y24972D02*
D03*
X37453D02*
D03*
X22453Y19972D02*
D03*
X37453D02*
D03*
X22453Y14972D02*
D03*
X37453D02*
D03*
X22453Y9972D02*
D03*
X37453D02*
D03*
X-37488Y34972D02*
D03*
X-22488D02*
D03*
X-37488Y29972D02*
D03*
X-22488D02*
D03*
X-37488Y24972D02*
D03*
X-22488D02*
D03*
X-37488Y19972D02*
D03*
X-22488D02*
D03*
X-37488Y14972D02*
D03*
X-22488D02*
D03*
X-37488Y9972D02*
D03*
X-22488D02*
D03*
D21*
X21488Y-15224D02*
D03*
Y-10500D02*
D03*
X10433Y29921D02*
D03*
Y25197D02*
D03*
D22*
X787Y20669D02*
D03*
Y15945D02*
D03*
D23*
X32Y32D02*
D03*
D24*
X-1848Y-9364D02*
D03*
X-3100Y-8111D02*
D03*
X-4353Y-6859D02*
D03*
X-5606Y-5606D02*
D03*
X-6859Y-4353D02*
D03*
X-8111Y-3100D02*
D03*
X-9364Y-1848D02*
D03*
X1911Y9427D02*
D03*
X3163Y8174D02*
D03*
X4416Y6922D02*
D03*
X5669Y5669D02*
D03*
X6922Y4416D02*
D03*
X8174Y3163D02*
D03*
X9427Y1911D02*
D03*
D25*
X-9364D02*
D03*
X-8111Y3163D02*
D03*
X-6859Y4416D02*
D03*
X-5606Y5669D02*
D03*
X-4353Y6922D02*
D03*
X-3100Y8174D02*
D03*
X-1848Y9427D02*
D03*
X9427Y-1848D02*
D03*
X8174Y-3100D02*
D03*
X6922Y-4353D02*
D03*
X5669Y-5606D02*
D03*
X4416Y-6859D02*
D03*
X3163Y-8111D02*
D03*
X1911Y-9364D02*
D03*
D26*
X14500Y-7252D02*
D03*
D27*
X-12961Y34512D02*
D03*
Y30512D02*
D03*
D52*
X-10614Y-49256D02*
X-10599Y-49240D01*
X-10614Y-52839D02*
Y-49256D01*
X-10630Y-52854D02*
X-10614Y-52839D01*
X-7563Y-49256D02*
X-7547Y-49240D01*
X-7563Y-54512D02*
Y-49256D01*
X-7579Y-54528D02*
X-7563Y-54512D01*
X-4496Y-49240D02*
X-4463Y-49274D01*
Y-56266D02*
Y-49274D01*
Y-56266D02*
X-4429Y-56299D01*
X4657Y-49240D02*
X4691Y-49274D01*
Y-52624D02*
Y-49274D01*
Y-52624D02*
X4724Y-52658D01*
X1445Y-49402D02*
X1606Y-49240D01*
X1445Y-54381D02*
Y-49402D01*
X-1542Y-49337D02*
X-1445Y-49240D01*
X-1542Y-56235D02*
Y-49337D01*
D53*
X-6177Y42779D02*
Y52819D01*
X3823Y42779D02*
Y52819D01*
X-6177Y42779D02*
X3823D01*
X-7480Y32559D02*
X-3957D01*
X-7559D02*
X-7480D01*
X-7165Y32874D01*
X-7598Y32441D02*
X-7480Y32559D01*
X-7677Y32441D02*
X-7598D01*
X-7165Y32874D02*
Y34331D01*
X-6177Y35320D01*
Y42779D01*
X-7677Y32441D02*
X-7559Y32559D01*
X-3957D02*
X-3839Y32677D01*
Y25197D02*
X-3347Y25689D01*
X-1588Y32185D02*
X842Y29756D01*
X-3839Y32677D02*
X-3347Y32185D01*
X842Y28119D02*
Y29756D01*
X-3347Y32185D02*
X-1588D01*
X-1588Y25689D02*
X842Y28119D01*
X-3347Y25689D02*
X-1588D01*
X-3906Y-24870D02*
Y-19024D01*
D54*
X20464Y-16248D02*
X21488Y-15224D01*
X1626Y-16248D02*
X20464D01*
X-1169Y-19043D02*
X1626Y-16248D01*
X21488Y-15224D02*
X25228Y-15421D01*
X-3906Y-19024D02*
Y-18374D01*
Y-19024D02*
X-3886Y-19043D01*
X-1169D01*
X-1150Y-19063D01*
D55*
X13823Y42779D02*
D03*
X13823Y52819D02*
D03*
D56*
X3823Y42779D02*
D03*
X-6177D02*
D03*
X-16177D02*
D03*
X3823Y52819D02*
D03*
X-6177D02*
D03*
X-16177D02*
D03*
D57*
X30031Y45031D02*
D03*
X-29969D02*
D03*
Y-44969D02*
D03*
X30031D02*
D03*
D58*
X50032Y-19969D02*
D03*
X-49968Y-9968D02*
D03*
Y32D02*
D03*
X50032Y20031D02*
D03*
X-49968D02*
D03*
X50032Y10031D02*
D03*
Y-9968D02*
D03*
X-49968Y10031D02*
D03*
Y-19969D02*
D03*
X50032Y32D02*
D03*
D59*
X49606Y32874D02*
D03*
X-10630Y-52854D02*
D03*
X-7579Y-54528D02*
D03*
X-4429Y-56299D02*
D03*
X56595Y19291D02*
D03*
X62500Y13681D02*
D03*
X24508Y-69784D02*
D03*
X38583Y-66043D02*
D03*
X10433Y22441D02*
D03*
X14469Y24114D02*
D03*
X-7677Y26772D02*
D03*
X-48917Y32480D02*
D03*
X-52165Y26280D02*
D03*
X-50492Y29232D02*
D03*
X-39075Y-11909D02*
D03*
X-22736Y-34547D02*
D03*
Y-31988D02*
D03*
X-22835Y-37205D02*
D03*
X-27461Y-23228D02*
D03*
X-18406Y-20079D02*
D03*
X-18307Y-23228D02*
D03*
X4724Y-52658D02*
D03*
X1445Y-54381D02*
D03*
X-1542Y-56235D02*
D03*
X-38091Y-63189D02*
D03*
X38484Y-63090D02*
D03*
X48524Y-55610D02*
D03*
X72047Y16634D02*
D03*
X68110Y28740D02*
D03*
X6102Y73622D02*
D03*
X-6299Y73524D02*
D03*
X-68307Y28445D02*
D03*
X-72146Y16634D02*
D03*
X-48425Y-56102D02*
D03*
X-21555Y70472D02*
D03*
X-72539Y13780D02*
D03*
X-73819Y1575D02*
D03*
X-35630Y-64764D02*
D03*
X-24508Y-69685D02*
D03*
X50591Y-53740D02*
D03*
X58957Y-44587D02*
D03*
X66831Y31398D02*
D03*
X60827Y42028D02*
D03*
X-9252Y73327D02*
D03*
X67028Y-31496D02*
D03*
X58858Y44685D02*
D03*
X50775Y53724D02*
D03*
X-24311Y69685D02*
D03*
X-35531Y64764D02*
D03*
X-73917Y-1476D02*
D03*
X-72539Y-13583D02*
D03*
X-21457Y-70768D02*
D03*
X-9252Y-73327D02*
D03*
X60827Y-41929D02*
D03*
X6201Y-73622D02*
D03*
X68012Y-28445D02*
D03*
X71949Y-16831D02*
D03*
X48327Y56004D02*
D03*
X38287Y62894D02*
D03*
X-38484Y63090D02*
D03*
X-48228Y56004D02*
D03*
X-72047Y-16831D02*
D03*
X-68110Y-27953D02*
D03*
X-6102Y-73622D02*
D03*
X31299Y33936D02*
D03*
X-9055Y35236D02*
D03*
X-1135Y28937D02*
D03*
X13336Y32385D02*
D03*
X15679Y32413D02*
D03*
X-16634Y25591D02*
D03*
X-36417Y-18012D02*
D03*
X-19783Y-5807D02*
D03*
X-3839Y21063D02*
D03*
X7185Y15059D02*
D03*
X1378Y12992D02*
D03*
X-56595Y-9744D02*
D03*
X56528Y1508D02*
D03*
X0Y0D02*
D03*
X16500Y6016D02*
D03*
X25228Y-15421D02*
D03*
X-18669Y-15323D02*
D03*
X-6071Y-22016D02*
D03*
X7315Y-14043D02*
D03*
X-13354Y10957D02*
D03*
X-27362Y-20079D02*
D03*
X31035Y11252D02*
D03*
X-8728Y13614D02*
D03*
X17846Y-10500D02*
D03*
X-9713Y-15520D02*
D03*
X-26992Y-29519D02*
D03*
Y-26369D02*
D03*
X31260Y15048D02*
D03*
X28672Y9811D02*
D03*
X28644Y34918D02*
D03*
X28613Y24892D02*
D03*
X31232Y23358D02*
D03*
X-16012Y15484D02*
D03*
X15287Y-12173D02*
D03*
X10661Y-8531D02*
D03*
X-13500Y-23881D02*
D03*
X4551Y13213D02*
D03*
X-15815Y11842D02*
D03*
X-15618Y-4299D02*
D03*
X-9122Y-9614D02*
D03*
X5113Y-12567D02*
D03*
X10563Y-41307D02*
D03*
X-11681Y-31169D02*
D03*
X-11484Y-28413D02*
D03*
X29102Y19913D02*
D03*
X20575Y-45798D02*
D03*
X20711Y-42754D02*
D03*
X20779Y-39659D02*
D03*
X-31563Y9972D02*
D03*
X20799Y-36681D02*
D03*
X20898Y-30677D02*
D03*
Y-33630D02*
D03*
X-56594Y9941D02*
D03*
X-56632Y-1242D02*
D03*
X-56595Y1280D02*
D03*
X56528Y10268D02*
D03*
Y-1150D02*
D03*
Y-9910D02*
D03*
X-16000Y20016D02*
D03*
X15000Y8016D02*
D03*
X18000Y4016D02*
D03*
X19500Y2016D02*
D03*
X-11500Y-22484D02*
D03*
X-13844Y7576D02*
D03*
X-15558Y5725D02*
D03*
X-19000Y2016D02*
D03*
X-17276Y3848D02*
D03*
X-31500Y35016D02*
D03*
Y30016D02*
D03*
Y25016D02*
D03*
Y20016D02*
D03*
Y15016D02*
D03*
D60*
X62992Y62992D02*
D03*
X-62992D02*
D03*
Y-62992D02*
D03*
X62992D02*
D03*
D61*
X-2134Y-34614D02*
D03*
Y-30283D02*
D03*
X2197Y-34614D02*
D03*
Y-30283D02*
D03*
D62*
X33299Y-9713D02*
D03*
D63*
X14500Y-7252D02*
D03*
D64*
X32Y3372D02*
D03*
X3372Y32D02*
D03*
X-3309D02*
D03*
X32Y-3309D02*
D03*
M02*
