G04*
G04 #@! TF.GenerationSoftware,Altium Limited,Altium Designer,20.0.9 (164)*
G04*
G04 Layer_Physical_Order=2*
G04 Layer_Color=36540*
%FSLAX25Y25*%
%MOIN*%
G70*
G01*
G75*
%ADD10C,0.00787*%
%ADD60C,0.05906*%
%ADD61R,0.05906X0.05906*%
%ADD62C,0.01772*%
%ADD66C,0.01968*%
G36*
X67113Y75780D02*
X68506Y75407D01*
X69840Y74855D01*
X71089Y74133D01*
X72234Y73255D01*
X73255Y72234D01*
X74133Y71090D01*
X74855Y69840D01*
X75407Y68507D01*
X75780Y67113D01*
X75969Y65682D01*
Y64961D01*
X75969Y-64961D01*
X75969Y-65682D01*
X75780Y-67113D01*
X75407Y-68507D01*
X74855Y-69840D01*
X74133Y-71090D01*
X73255Y-72234D01*
X72234Y-73255D01*
X71089Y-74133D01*
X69840Y-74855D01*
X68506Y-75407D01*
X67113Y-75780D01*
X65682Y-75969D01*
X64960Y-75969D01*
X0D01*
X-64961Y-75969D01*
X-65682D01*
X-67113Y-75780D01*
X-68507Y-75407D01*
X-69840Y-74855D01*
X-71090Y-74133D01*
X-72234Y-73255D01*
X-73255Y-72234D01*
X-74133Y-71090D01*
X-74855Y-69840D01*
X-75407Y-68507D01*
X-75780Y-67113D01*
X-75969Y-65682D01*
Y-64961D01*
Y64961D01*
Y65682D01*
X-75780Y67113D01*
X-75407Y68507D01*
X-74855Y69840D01*
X-74133Y71090D01*
X-73255Y72234D01*
X-72234Y73255D01*
X-71090Y74133D01*
X-69840Y74855D01*
X-68507Y75407D01*
X-67113Y75780D01*
X-65682Y75969D01*
X-64961Y75969D01*
X-12637Y75969D01*
X-12583Y75472D01*
X-20091Y73811D01*
X-20155Y73783D01*
X-20156Y73783D01*
X-20227Y73775D01*
X-26777Y71721D01*
X-26887Y71661D01*
X-27002Y71610D01*
X-27025Y71585D01*
X-27054Y71569D01*
X-27133Y71472D01*
X-27219Y71381D01*
X-27231Y71350D01*
X-27252Y71324D01*
X-27287Y71203D01*
X-27332Y71086D01*
X-28643Y63464D01*
X-36093Y58997D01*
X-36127Y58965D01*
X-36169Y58945D01*
X-47241Y50451D01*
X-47273Y50415D01*
X-47313Y50389D01*
X-47569Y50141D01*
X-47587Y50114D01*
X-47613Y50094D01*
X-56542Y39907D01*
X-56586Y39831D01*
X-56643Y39764D01*
X-62025Y30003D01*
X-62027Y30002D01*
X-67284Y29426D01*
X-67653Y29672D01*
X-68194Y29780D01*
X-68735Y29672D01*
X-69193Y29366D01*
X-69499Y28908D01*
X-69607Y28367D01*
X-69499Y27826D01*
X-69193Y27368D01*
X-68735Y27062D01*
X-68194Y26954D01*
X-67653Y27062D01*
X-67195Y27368D01*
X-66888Y27826D01*
X-66886Y27841D01*
X-61946Y28382D01*
X-61700Y28135D01*
X-61667Y28076D01*
X-61623Y27926D01*
X-62491Y26304D01*
X-62493Y26296D01*
X-62498Y26290D01*
X-62529Y26228D01*
X-62547Y26166D01*
X-62578Y26111D01*
X-62597Y26052D01*
X-66328Y14589D01*
X-69740D01*
X-69867Y14779D01*
X-70325Y15085D01*
X-70866Y15192D01*
X-71407Y15085D01*
X-71865Y14779D01*
X-72172Y14320D01*
X-72279Y13780D01*
X-72172Y13239D01*
X-71865Y12780D01*
X-71407Y12474D01*
X-70866Y12367D01*
X-70325Y12474D01*
X-69867Y12780D01*
X-69740Y12970D01*
X-65740D01*
X-65709Y12977D01*
X-65677Y12973D01*
X-65555Y13007D01*
X-65430Y13032D01*
X-65404Y13050D01*
X-65373Y13058D01*
X-65273Y13137D01*
X-65168Y13207D01*
X-65150Y13234D01*
X-65125Y13254D01*
X-65063Y13364D01*
X-64992Y13470D01*
X-64986Y13501D01*
X-64970Y13529D01*
X-61058Y25549D01*
X-54442Y37929D01*
X-45513Y48188D01*
X-34370Y56720D01*
X-22308Y62637D01*
X-22072Y62752D01*
X-21992Y62814D01*
X-21903Y62863D01*
X-21867Y62909D01*
X-21821Y62944D01*
X-21770Y63032D01*
X-21708Y63112D01*
X-21534Y63453D01*
X-21500Y63571D01*
X-21457Y63686D01*
X-20474Y69525D01*
X-20084Y69786D01*
X-19778Y70245D01*
X-19670Y70785D01*
X-19778Y71326D01*
X-19982Y71631D01*
X-19955Y71759D01*
X-19737Y72196D01*
X-19271Y72334D01*
X-19256Y72338D01*
X-11213Y74117D01*
X-11056Y73977D01*
X-10855Y73684D01*
X-10943Y73241D01*
X-10836Y72700D01*
X-10530Y72242D01*
X-10071Y71936D01*
X-9563Y71835D01*
X-6114Y66679D01*
X-6113Y66679D01*
X-6113Y66678D01*
X-6104Y66666D01*
X-6094Y66655D01*
X-6087Y66641D01*
X-5886Y66365D01*
X-5655Y66150D01*
X-5497Y66092D01*
X-5358Y66041D01*
X-4975Y65980D01*
X-4911Y65983D01*
X-4849Y65970D01*
X5431Y65965D01*
X19250Y63498D01*
X31766Y58176D01*
X43323Y50215D01*
X52678Y40572D01*
X52860Y40383D01*
X52944Y40326D01*
X53018Y40257D01*
X53073Y40237D01*
X53120Y40204D01*
X53219Y40183D01*
X53315Y40148D01*
X53693Y40088D01*
X53816Y40093D01*
X53939Y40086D01*
X59787Y40956D01*
X59807Y40926D01*
X60265Y40620D01*
X60806Y40512D01*
X61347Y40620D01*
X61805Y40926D01*
X61944Y41134D01*
X62537Y41155D01*
X62554Y41129D01*
X67007Y33561D01*
X66711Y33110D01*
X66171Y33002D01*
X65712Y32696D01*
X65406Y32237D01*
X65298Y31697D01*
X65376Y31308D01*
X61526Y26419D01*
X61526Y26419D01*
X61525Y26418D01*
X61516Y26406D01*
X61509Y26393D01*
X61498Y26382D01*
X61297Y26106D01*
X61297Y26106D01*
X61297Y26106D01*
X61212Y25921D01*
X61165Y25820D01*
Y25820D01*
X61165Y25819D01*
X61160Y25685D01*
X61153Y25504D01*
X61153Y25504D01*
X61213Y25121D01*
X61236Y25061D01*
X61243Y24998D01*
X64415Y15220D01*
X66339Y1315D01*
X65145Y-12233D01*
X61145Y-25685D01*
X54864Y-37562D01*
X54742Y-37794D01*
X54713Y-37891D01*
X54670Y-37983D01*
X54668Y-38041D01*
X54651Y-38096D01*
X54662Y-38197D01*
X54658Y-38299D01*
X54718Y-38677D01*
X54760Y-38793D01*
X54793Y-38911D01*
X57434Y-44220D01*
X57358Y-44333D01*
X57250Y-44874D01*
X57358Y-45415D01*
X57664Y-45873D01*
X58123Y-46180D01*
X58258Y-46206D01*
X58466Y-46758D01*
X58447Y-46782D01*
X52624Y-53357D01*
X52086Y-53211D01*
X52066Y-53111D01*
X51759Y-52652D01*
X51301Y-52346D01*
X50760Y-52238D01*
X50220Y-52346D01*
X49984Y-52503D01*
X44139Y-50351D01*
X44139Y-50351D01*
X44139Y-50351D01*
X44124Y-50346D01*
X44109Y-50343D01*
X44095Y-50335D01*
X43770Y-50230D01*
X43770Y-50230D01*
X43611Y-50211D01*
X43457Y-50193D01*
X43153Y-50279D01*
X43153Y-50279D01*
X42807Y-50455D01*
X42757Y-50494D01*
X42699Y-50521D01*
X34380Y-56559D01*
X21750Y-62686D01*
X8496Y-65737D01*
X-5533Y-66089D01*
X-18769Y-63786D01*
X-18769Y-63786D01*
X-19028Y-63741D01*
X-19129Y-63744D01*
X-19230Y-63732D01*
X-19286Y-63748D01*
X-19344Y-63749D01*
X-19436Y-63790D01*
X-19534Y-63818D01*
X-19876Y-63992D01*
X-19972Y-64068D01*
X-20075Y-64135D01*
X-24313Y-68293D01*
X-24550Y-68246D01*
X-25091Y-68354D01*
X-25549Y-68660D01*
X-25855Y-69118D01*
X-25963Y-69659D01*
X-25959Y-69679D01*
X-26394Y-70056D01*
X-26432Y-70043D01*
X-34471Y-66543D01*
X-34521Y-65975D01*
X-34341Y-65854D01*
X-34034Y-65396D01*
X-33927Y-64855D01*
X-34034Y-64314D01*
X-34341Y-63856D01*
X-34488Y-63758D01*
X-34247Y-57538D01*
X-34247Y-57538D01*
X-34247Y-57538D01*
X-34246Y-57522D01*
X-34249Y-57507D01*
X-34246Y-57491D01*
Y-57150D01*
X-34307Y-56840D01*
X-34483Y-56578D01*
X-34757Y-56303D01*
X-34810Y-56268D01*
X-34853Y-56221D01*
X-43167Y-50175D01*
X-52896Y-40056D01*
X-59894Y-28394D01*
X-64565Y-15161D01*
X-66391Y-2379D01*
X-66424Y-2283D01*
X-66444Y-2184D01*
X-66476Y-2136D01*
X-66495Y-2081D01*
X-66563Y-2006D01*
X-66619Y-1921D01*
X-70688Y2147D01*
X-70950Y2322D01*
X-71260Y2384D01*
X-71260Y2384D01*
X-71315D01*
X-71442Y2574D01*
X-71900Y2880D01*
X-72441Y2988D01*
X-72982Y2880D01*
X-73136Y2777D01*
X-73634Y3046D01*
X-73507Y15315D01*
X-72462Y15880D01*
X-72384Y15829D01*
X-71844Y15721D01*
X-71303Y15829D01*
X-70845Y16135D01*
X-70538Y16593D01*
X-70431Y17134D01*
X-70538Y17675D01*
X-70845Y18133D01*
X-71303Y18439D01*
X-71844Y18547D01*
X-72384Y18439D01*
X-72843Y18133D01*
X-73149Y17675D01*
X-73222Y17309D01*
X-74696Y16513D01*
X-74783Y16441D01*
X-74878Y16379D01*
X-74904Y16341D01*
X-74940Y16311D01*
X-74992Y16211D01*
X-75056Y16118D01*
X-75065Y16073D01*
X-75087Y16032D01*
X-75098Y15920D01*
X-75121Y15809D01*
X-75324Y-3915D01*
X-75301Y-4038D01*
X-75287Y-4163D01*
X-75272Y-4192D01*
X-75265Y-4225D01*
X-75197Y-4330D01*
X-75137Y-4440D01*
X-75111Y-4462D01*
X-75093Y-4489D01*
X-74989Y-4560D01*
X-74892Y-4639D01*
X-69209Y-7630D01*
X-67263Y-16095D01*
X-67243Y-16138D01*
X-67237Y-16184D01*
X-62580Y-29339D01*
X-62556Y-29380D01*
X-62544Y-29426D01*
X-62386Y-29746D01*
X-62366Y-29772D01*
X-62355Y-29803D01*
X-55426Y-41443D01*
X-55367Y-41508D01*
X-55321Y-41583D01*
X-47702Y-49718D01*
X-47701Y-49720D01*
X-48586Y-53979D01*
X-49096Y-53977D01*
X-49150Y-53706D01*
X-49457Y-53247D01*
X-49915Y-52941D01*
X-50456Y-52834D01*
X-50996Y-52941D01*
X-51455Y-53247D01*
X-51761Y-53706D01*
X-51869Y-54247D01*
X-51761Y-54787D01*
X-51455Y-55246D01*
X-50996Y-55552D01*
X-50456Y-55660D01*
X-50017Y-55572D01*
X-49713Y-55777D01*
X-49578Y-55928D01*
X-49584Y-55958D01*
X-49477Y-56499D01*
X-49170Y-56958D01*
X-48712Y-57264D01*
X-48171Y-57371D01*
X-47631Y-57264D01*
X-47172Y-56958D01*
X-46866Y-56499D01*
X-46758Y-55958D01*
X-46866Y-55418D01*
X-47145Y-55000D01*
X-46136Y-50144D01*
X-45824Y-49986D01*
X-45758Y-49973D01*
X-45602Y-49977D01*
X-44327Y-51304D01*
X-44320Y-51308D01*
X-44316Y-51315D01*
X-44267Y-51364D01*
X-44214Y-51400D01*
X-44170Y-51446D01*
X-35865Y-57487D01*
X-36105Y-63700D01*
X-36339Y-63856D01*
X-36645Y-64314D01*
X-36699Y-64585D01*
X-37187Y-64906D01*
X-37235Y-64912D01*
X-37337Y-64872D01*
X-37516Y-63891D01*
X-37277Y-63533D01*
X-37170Y-62992D01*
X-37277Y-62451D01*
X-37584Y-61993D01*
X-38042Y-61687D01*
X-38583Y-61579D01*
X-39123Y-61687D01*
X-39582Y-61993D01*
X-39888Y-62451D01*
X-39996Y-62992D01*
X-39888Y-63533D01*
X-39582Y-63991D01*
X-39123Y-64297D01*
X-39086Y-64305D01*
X-38879Y-65438D01*
X-38879Y-65438D01*
X-38822Y-65747D01*
X-38779Y-65856D01*
X-38747Y-65969D01*
X-38566Y-66323D01*
X-38493Y-66417D01*
X-38428Y-66518D01*
X-38396Y-66540D01*
X-38371Y-66571D01*
X-38267Y-66630D01*
X-38168Y-66698D01*
X-37910Y-66811D01*
X-37909Y-66811D01*
X-27052Y-71538D01*
X-27024Y-71544D01*
X-26999Y-71559D01*
X-26973Y-71568D01*
X-26972Y-71568D01*
X-26972Y-71568D01*
X-26070Y-71887D01*
X-26064Y-71888D01*
X-26059Y-71891D01*
X-20493Y-73763D01*
X-20369Y-73778D01*
X-20246Y-73805D01*
X-20213Y-73799D01*
X-20180Y-73803D01*
X-20059Y-73770D01*
X-19936Y-73747D01*
X-19908Y-73729D01*
X-19875Y-73720D01*
X-19776Y-73643D01*
X-19671Y-73575D01*
X-14130Y-68180D01*
X-5478Y-68944D01*
X-5431Y-68939D01*
X-5385Y-68947D01*
X8565Y-68584D01*
X8611Y-68573D01*
X8658Y-68576D01*
X9012Y-68525D01*
X9043Y-68514D01*
X9076Y-68513D01*
X22287Y-65520D01*
X22367Y-65484D01*
X22452Y-65463D01*
X32544Y-60731D01*
X32546Y-60730D01*
X37148Y-63360D01*
X37191Y-63573D01*
X37383Y-63860D01*
X37190Y-64363D01*
X37174Y-64380D01*
X36861Y-64443D01*
X36402Y-64749D01*
X36096Y-65207D01*
X35989Y-65748D01*
X36096Y-66289D01*
X36402Y-66747D01*
X36861Y-67053D01*
X37402Y-67161D01*
X37942Y-67053D01*
X38401Y-66747D01*
X38707Y-66289D01*
X38814Y-65748D01*
X38707Y-65207D01*
X38515Y-64920D01*
X38708Y-64417D01*
X38723Y-64401D01*
X39037Y-64338D01*
X39495Y-64032D01*
X39802Y-63573D01*
X39909Y-63033D01*
X39802Y-62492D01*
X39495Y-62034D01*
X39037Y-61727D01*
X38496Y-61620D01*
X37956Y-61727D01*
X37770Y-61851D01*
X33433Y-59373D01*
X33379Y-59028D01*
X33387Y-58961D01*
X33439Y-58814D01*
X35095Y-58011D01*
X35101Y-58006D01*
X35109Y-58004D01*
X35171Y-57973D01*
X35221Y-57933D01*
X35279Y-57906D01*
X35329Y-57870D01*
X35329Y-57870D01*
X43591Y-51874D01*
X49421Y-54021D01*
X49455Y-54192D01*
X49761Y-54650D01*
X50081Y-54865D01*
X50225Y-55336D01*
X50226Y-55468D01*
X50153Y-55555D01*
X49283Y-55439D01*
X49051Y-55091D01*
X48592Y-54785D01*
X48052Y-54677D01*
X47511Y-54785D01*
X47052Y-55091D01*
X46746Y-55550D01*
X46639Y-56090D01*
X46746Y-56631D01*
X47052Y-57090D01*
X47511Y-57396D01*
X48052Y-57503D01*
X48592Y-57396D01*
X49051Y-57090D01*
X49081Y-57045D01*
X50222Y-57197D01*
X50222D01*
X50533Y-57239D01*
X50650Y-57231D01*
X50767Y-57236D01*
X51160Y-57174D01*
X51272Y-57133D01*
X51387Y-57102D01*
X51419Y-57078D01*
X51456Y-57065D01*
X51543Y-56984D01*
X51639Y-56911D01*
X51826Y-56700D01*
X59677Y-47834D01*
X59692Y-47809D01*
X59713Y-47791D01*
X59730Y-47768D01*
X59730Y-47768D01*
X59731Y-47767D01*
X60312Y-47008D01*
X60315Y-47003D01*
X60320Y-46999D01*
X63819Y-42284D01*
X63873Y-42171D01*
X63936Y-42062D01*
X63940Y-42029D01*
X63955Y-41999D01*
X63961Y-41874D01*
X63977Y-41749D01*
X63969Y-41717D01*
X63970Y-41684D01*
X63928Y-41565D01*
X63896Y-41444D01*
X60476Y-34508D01*
X63877Y-26514D01*
X63887Y-26469D01*
X63908Y-26428D01*
X67874Y-13048D01*
X67878Y-13001D01*
X67895Y-12956D01*
X67956Y-12605D01*
X67955Y-12572D01*
X67964Y-12540D01*
X69200Y950D01*
X69191Y1037D01*
X69197Y1124D01*
X67815Y12184D01*
X67815Y12187D01*
X70632Y14745D01*
X71090Y14486D01*
X71028Y14173D01*
X71135Y13633D01*
X71442Y13174D01*
X71900Y12868D01*
X72441Y12760D01*
X72982Y12868D01*
X73440Y13174D01*
X73746Y13633D01*
X73854Y14173D01*
X73746Y14714D01*
X73440Y15172D01*
X72982Y15479D01*
X72811Y15513D01*
X72706Y16043D01*
X72843Y16135D01*
X73149Y16593D01*
X73257Y17134D01*
X73149Y17675D01*
X72843Y18133D01*
X72384Y18439D01*
X71844Y18547D01*
X71303Y18439D01*
X70845Y18133D01*
X70538Y17675D01*
X70431Y17134D01*
X70495Y16808D01*
X66799Y13450D01*
X66453Y13504D01*
X66392Y13533D01*
X66269Y13628D01*
X66017Y15451D01*
X66014Y15459D01*
X66014Y15466D01*
X66004Y15535D01*
X65982Y15595D01*
X65974Y15658D01*
X65955Y15717D01*
X62805Y25427D01*
X66640Y30298D01*
X66711Y30284D01*
X67252Y30391D01*
X67670Y30671D01*
X67737Y30696D01*
X68283Y30654D01*
X68347Y30557D01*
X67951Y29732D01*
X67653Y29672D01*
X67195Y29366D01*
X66888Y28908D01*
X66781Y28367D01*
X66888Y27826D01*
X67195Y27368D01*
X67653Y27062D01*
X68194Y26954D01*
X68735Y27062D01*
X69193Y27368D01*
X69499Y27826D01*
X69607Y28367D01*
X69499Y28908D01*
X69413Y29037D01*
X69917Y30088D01*
X70053Y30372D01*
X70082Y30485D01*
X70123Y30595D01*
X70185Y30988D01*
X70180Y31107D01*
X70187Y31227D01*
X70174Y31264D01*
X70172Y31303D01*
X70122Y31412D01*
X70083Y31525D01*
X69940Y31768D01*
X69940Y31768D01*
X63934Y41975D01*
X63915Y41996D01*
X63904Y42023D01*
X63888Y42046D01*
X63888Y42046D01*
X63887Y42046D01*
X63345Y42834D01*
X63341Y42838D01*
X63338Y42844D01*
X59936Y47629D01*
X59845Y47715D01*
X59761Y47809D01*
X59731Y47823D01*
X59706Y47846D01*
X59589Y47891D01*
X59476Y47945D01*
X59443Y47947D01*
X59411Y47958D01*
X59286Y47955D01*
X59161Y47961D01*
X51507Y46853D01*
X44956Y52557D01*
X44915Y52580D01*
X44883Y52614D01*
X33383Y60519D01*
X33340Y60538D01*
X33303Y60568D01*
X32987Y60735D01*
X32956Y60744D01*
X32929Y60763D01*
X20481Y66107D01*
X20395Y66125D01*
X20314Y66158D01*
X9368Y68261D01*
X9366Y68262D01*
X7201Y73067D01*
X7211Y73081D01*
X7318Y73622D01*
X7211Y74163D01*
X6905Y74621D01*
X6446Y74927D01*
X5906Y75035D01*
X5365Y74927D01*
X4906Y74621D01*
X4600Y74163D01*
X4493Y73622D01*
X4600Y73081D01*
X4906Y72623D01*
X5365Y72317D01*
X5803Y72229D01*
X7851Y67685D01*
X7692Y67374D01*
X7646Y67325D01*
X7517Y67237D01*
X5706Y67560D01*
X5698Y67560D01*
X5690Y67563D01*
X5622Y67574D01*
X5558Y67571D01*
X5495Y67584D01*
X5433Y67584D01*
X-4775Y67589D01*
X-8218Y72735D01*
X-8117Y73241D01*
X-8225Y73782D01*
X-8285Y73871D01*
X-8056Y74429D01*
X-7948Y74451D01*
X-7280Y73814D01*
X-7318Y73622D01*
X-7211Y73081D01*
X-6905Y72623D01*
X-6446Y72317D01*
X-5906Y72209D01*
X-5365Y72317D01*
X-4906Y72623D01*
X-4600Y73081D01*
X-4493Y73622D01*
X-4600Y74163D01*
X-4906Y74621D01*
X-5365Y74927D01*
X-5906Y75035D01*
X-6162Y74984D01*
X-6670Y75469D01*
X-6470Y75969D01*
X0D01*
X64960Y75969D01*
X65682D01*
X67113Y75780D01*
D02*
G37*
%LPC*%
G36*
X-35340Y66268D02*
X-35880Y66161D01*
X-36339Y65854D01*
X-36645Y65396D01*
X-36753Y64855D01*
X-36645Y64314D01*
X-36339Y63856D01*
X-35880Y63550D01*
X-35340Y63442D01*
X-34799Y63550D01*
X-34341Y63856D01*
X-34034Y64314D01*
X-33927Y64855D01*
X-34034Y65396D01*
X-34341Y65854D01*
X-34799Y66161D01*
X-35340Y66268D01*
D02*
G37*
G36*
X38496Y64446D02*
X37956Y64338D01*
X37497Y64032D01*
X37191Y63573D01*
X37083Y63033D01*
X37191Y62492D01*
X37497Y62033D01*
X37956Y61727D01*
X38496Y61620D01*
X39037Y61727D01*
X39495Y62033D01*
X39802Y62492D01*
X39909Y63033D01*
X39802Y63573D01*
X39495Y64032D01*
X39037Y64338D01*
X38496Y64446D01*
D02*
G37*
G36*
X-38496Y64446D02*
X-39037Y64338D01*
X-39495Y64032D01*
X-39802Y63573D01*
X-39909Y63033D01*
X-39802Y62492D01*
X-39495Y62033D01*
X-39037Y61727D01*
X-38496Y61620D01*
X-37956Y61727D01*
X-37497Y62033D01*
X-37191Y62492D01*
X-37083Y63033D01*
X-37191Y63573D01*
X-37497Y64032D01*
X-37956Y64338D01*
X-38496Y64446D01*
D02*
G37*
G36*
X19986Y61811D02*
X19741Y61763D01*
X19657Y61762D01*
X13554Y60477D01*
X13139Y60754D01*
X12598Y60862D01*
X12058Y60754D01*
X11599Y60448D01*
X11293Y59990D01*
X11194Y59494D01*
X11052Y59415D01*
X10700Y59325D01*
X10377Y59778D01*
X10468Y60236D01*
X10361Y60777D01*
X10054Y61235D01*
X9596Y61542D01*
X9055Y61649D01*
X8514Y61542D01*
X8056Y61235D01*
X7750Y60777D01*
X7642Y60236D01*
X7750Y59696D01*
X8056Y59237D01*
X8514Y58931D01*
X9055Y58823D01*
X9068Y58826D01*
X10103Y57377D01*
X10105Y57374D01*
X10153Y57329D01*
X10263Y57164D01*
X10786Y56814D01*
X11332Y56706D01*
X11499Y56473D01*
X11607Y56225D01*
X11608Y56217D01*
Y53167D01*
X14761D01*
Y56320D01*
X12796D01*
X12774Y56820D01*
X19905Y57440D01*
X19923Y57414D01*
X19946Y57405D01*
X19951Y57407D01*
X19977Y57425D01*
X20394Y57245D01*
X29059Y53432D01*
X29477Y53210D01*
X29876Y52943D01*
X29881Y52939D01*
X29893Y52930D01*
X40102Y44909D01*
X40097Y44893D01*
X40114Y44850D01*
X40121Y44847D01*
X40136Y44842D01*
Y-8288D01*
X40114Y-8297D01*
X40097Y-8339D01*
X40102Y-8353D01*
X39794Y-8678D01*
X20290Y-28550D01*
X20079Y-28508D01*
X19538Y-28616D01*
X19080Y-28922D01*
X18773Y-29381D01*
X18666Y-29921D01*
X18773Y-30462D01*
X19080Y-30920D01*
X19538Y-31227D01*
X19611Y-31241D01*
Y-31751D01*
X19538Y-31765D01*
X19080Y-32072D01*
X18773Y-32530D01*
X18666Y-33071D01*
X18773Y-33612D01*
X19080Y-34070D01*
X19538Y-34376D01*
X19611Y-34391D01*
Y-34901D01*
X19538Y-34915D01*
X19080Y-35221D01*
X18773Y-35680D01*
X18666Y-36220D01*
X18773Y-36761D01*
X19080Y-37220D01*
X19538Y-37526D01*
X19611Y-37540D01*
Y-38050D01*
X19538Y-38065D01*
X19080Y-38371D01*
X18773Y-38829D01*
X18666Y-39370D01*
X18773Y-39911D01*
X19080Y-40369D01*
X19538Y-40676D01*
X19611Y-40690D01*
Y-41200D01*
X19538Y-41214D01*
X19080Y-41521D01*
X18773Y-41979D01*
X18666Y-42520D01*
X18773Y-43060D01*
X19080Y-43519D01*
X19538Y-43825D01*
X19611Y-43840D01*
Y-44349D01*
X19538Y-44364D01*
X19080Y-44670D01*
X18773Y-45129D01*
X18666Y-45669D01*
X18773Y-46210D01*
X19080Y-46668D01*
X19538Y-46975D01*
X20079Y-47082D01*
X20619Y-46975D01*
X21078Y-46668D01*
X21384Y-46210D01*
X21492Y-45669D01*
X21384Y-45129D01*
X21078Y-44670D01*
X20619Y-44364D01*
X20547Y-44349D01*
Y-43840D01*
X20619Y-43825D01*
X21078Y-43519D01*
X21384Y-43060D01*
X21492Y-42520D01*
X21384Y-41979D01*
X21078Y-41521D01*
X20619Y-41214D01*
X20547Y-41200D01*
Y-40690D01*
X20619Y-40676D01*
X21078Y-40369D01*
X21384Y-39911D01*
X21492Y-39370D01*
X21384Y-38829D01*
X21078Y-38371D01*
X20619Y-38065D01*
X20547Y-38050D01*
Y-37540D01*
X20619Y-37526D01*
X21078Y-37220D01*
X21205Y-37030D01*
X45669D01*
X45669Y-37030D01*
X45979Y-36968D01*
X46242Y-36793D01*
X61202Y-21832D01*
X61258Y-21749D01*
X61325Y-21675D01*
X61344Y-21619D01*
X61378Y-21569D01*
X61397Y-21472D01*
X61431Y-21378D01*
X63399Y-7992D01*
X63396Y-7932D01*
X63408Y-7874D01*
Y12653D01*
X63598Y12780D01*
X63904Y13239D01*
X64011Y13780D01*
X63904Y14320D01*
X63598Y14779D01*
X63139Y15085D01*
X62598Y15192D01*
X62058Y15085D01*
X61599Y14779D01*
X61293Y14320D01*
X61185Y13780D01*
X61293Y13239D01*
X61599Y12780D01*
X61789Y12653D01*
Y-7815D01*
X59868Y-20877D01*
X45334Y-35411D01*
X21205D01*
X21078Y-35221D01*
X20619Y-34915D01*
X20547Y-34901D01*
Y-34391D01*
X20619Y-34376D01*
X21078Y-34070D01*
X21384Y-33612D01*
X21492Y-33071D01*
X21447Y-32847D01*
X44273Y-10021D01*
X44273Y-10021D01*
X44448Y-9759D01*
X44510Y-9449D01*
Y45834D01*
X44510Y45834D01*
X44526D01*
X44403Y46451D01*
X44054Y46973D01*
X44054Y46973D01*
X43689Y47301D01*
X41677Y49125D01*
X38842Y51227D01*
X37832Y51833D01*
X37813Y51853D01*
X37813Y51853D01*
X37811Y51854D01*
X37810Y51856D01*
X37806Y51858D01*
X37804Y51860D01*
X30993Y56807D01*
X30853Y56909D01*
X30591Y57067D01*
X30584Y57066D01*
X20658Y61647D01*
X20656Y61653D01*
X20603Y61689D01*
X20198Y61769D01*
X20197Y61769D01*
X20197D01*
X19986Y61811D01*
D02*
G37*
G36*
X48052Y57503D02*
X47511Y57396D01*
X47052Y57089D01*
X46746Y56631D01*
X46639Y56090D01*
X46746Y55550D01*
X47052Y55091D01*
X47511Y54785D01*
X48052Y54677D01*
X48592Y54785D01*
X49051Y55091D01*
X49357Y55550D01*
X49465Y56090D01*
X49357Y56631D01*
X49051Y57089D01*
X48592Y57396D01*
X48052Y57503D01*
D02*
G37*
G36*
X-48052Y57503D02*
X-48592Y57396D01*
X-49051Y57089D01*
X-49357Y56631D01*
X-49465Y56090D01*
X-49357Y55550D01*
X-49051Y55091D01*
X-48592Y54785D01*
X-48052Y54677D01*
X-47511Y54785D01*
X-47052Y55091D01*
X-46746Y55550D01*
X-46639Y56090D01*
X-46746Y56631D01*
X-47052Y57089D01*
X-47511Y57396D01*
X-48052Y57503D01*
D02*
G37*
G36*
X18313Y56320D02*
X15161D01*
Y53167D01*
X18313D01*
Y56320D01*
D02*
G37*
G36*
X-14839Y56323D02*
Y53167D01*
X-11684D01*
X-11773Y53843D01*
X-12111Y54658D01*
X-12648Y55359D01*
X-13349Y55896D01*
X-14164Y56234D01*
X-14839Y56323D01*
D02*
G37*
G36*
X-15239D02*
X-15915Y56234D01*
X-16730Y55896D01*
X-17431Y55359D01*
X-17968Y54658D01*
X-18306Y53843D01*
X-18395Y53167D01*
X-15239D01*
Y56323D01*
D02*
G37*
G36*
X50760Y55064D02*
X50220Y54957D01*
X49761Y54650D01*
X49455Y54192D01*
X49347Y53651D01*
X49455Y53111D01*
X49761Y52652D01*
X50220Y52346D01*
X50760Y52238D01*
X51301Y52346D01*
X51759Y52652D01*
X52066Y53111D01*
X52173Y53651D01*
X52066Y54192D01*
X51759Y54650D01*
X51301Y54957D01*
X50760Y55064D01*
D02*
G37*
G36*
X62992Y74946D02*
X61122Y74799D01*
X59298Y74361D01*
X57565Y73643D01*
X55966Y72663D01*
X54539Y71445D01*
X53321Y70019D01*
X52341Y68419D01*
X51623Y66686D01*
X51185Y64862D01*
X51038Y62992D01*
X51185Y61122D01*
X51623Y59298D01*
X52341Y57565D01*
X53321Y55966D01*
X54539Y54539D01*
X55966Y53321D01*
X57565Y52341D01*
X59298Y51623D01*
X61122Y51185D01*
X62992Y51038D01*
X64862Y51185D01*
X66686Y51623D01*
X68419Y52341D01*
X70019Y53321D01*
X71445Y54539D01*
X72663Y55966D01*
X73643Y57565D01*
X74361Y59298D01*
X74799Y61122D01*
X74946Y62992D01*
X74799Y64862D01*
X74361Y66686D01*
X73643Y68419D01*
X72663Y70019D01*
X71445Y71445D01*
X70019Y72663D01*
X68419Y73643D01*
X66686Y74361D01*
X64862Y74799D01*
X62992Y74946D01*
D02*
G37*
G36*
X-62991Y74945D02*
X-64861Y74798D01*
X-66685Y74360D01*
X-68418Y73642D01*
X-70017Y72662D01*
X-71444Y71444D01*
X-72662Y70017D01*
X-73642Y68418D01*
X-74360Y66685D01*
X-74798Y64861D01*
X-74945Y62991D01*
X-74798Y61121D01*
X-74360Y59297D01*
X-73642Y57564D01*
X-72662Y55964D01*
X-71444Y54538D01*
X-70017Y53320D01*
X-68418Y52340D01*
X-66685Y51622D01*
X-64861Y51184D01*
X-62991Y51037D01*
X-61121Y51184D01*
X-59297Y51622D01*
X-57564Y52340D01*
X-55964Y53320D01*
X-54538Y54538D01*
X-53320Y55964D01*
X-52340Y57564D01*
X-51622Y59297D01*
X-51184Y61121D01*
X-51037Y62991D01*
X-51184Y64861D01*
X-51622Y66685D01*
X-52340Y68418D01*
X-53320Y70017D01*
X-54538Y71444D01*
X-55964Y72662D01*
X-57564Y73642D01*
X-59297Y74360D01*
X-61121Y74798D01*
X-62991Y74945D01*
D02*
G37*
G36*
X18313Y52767D02*
X15161D01*
Y49615D01*
X18313D01*
Y52767D01*
D02*
G37*
G36*
X14761D02*
X11608D01*
Y49615D01*
X14761D01*
Y52767D01*
D02*
G37*
G36*
X-11684D02*
X-14839D01*
Y49612D01*
X-14164Y49701D01*
X-13349Y50039D01*
X-12648Y50576D01*
X-12111Y51277D01*
X-11773Y52092D01*
X-11684Y52767D01*
D02*
G37*
G36*
X-15239D02*
X-18395D01*
X-18306Y52092D01*
X-17968Y51277D01*
X-17431Y50576D01*
X-16730Y50039D01*
X-15915Y49701D01*
X-15239Y49612D01*
Y52767D01*
D02*
G37*
G36*
X4961Y56349D02*
X4085Y56234D01*
X3270Y55896D01*
X2569Y55359D01*
X2032Y54658D01*
X1694Y53843D01*
X1579Y52967D01*
X1694Y52092D01*
X2032Y51277D01*
X2569Y50576D01*
X3270Y50039D01*
X4085Y49701D01*
X4961Y49586D01*
X5836Y49701D01*
X6651Y50039D01*
X7352Y50576D01*
X7889Y51277D01*
X8227Y52092D01*
X8342Y52967D01*
X8227Y53843D01*
X7889Y54658D01*
X7352Y55359D01*
X6651Y55896D01*
X5836Y56234D01*
X4961Y56349D01*
D02*
G37*
G36*
X-5039D02*
X-5915Y56234D01*
X-6730Y55896D01*
X-7431Y55359D01*
X-7968Y54658D01*
X-8306Y53843D01*
X-8421Y52967D01*
X-8306Y52092D01*
X-7968Y51277D01*
X-7431Y50576D01*
X-6730Y50039D01*
X-5915Y49701D01*
X-5039Y49586D01*
X-4164Y49701D01*
X-3348Y50039D01*
X-2648Y50576D01*
X-2111Y51277D01*
X-1773Y52092D01*
X-1658Y52967D01*
X-1773Y53843D01*
X-2111Y54658D01*
X-2648Y55359D01*
X-3348Y55896D01*
X-4164Y56234D01*
X-5039Y56349D01*
D02*
G37*
G36*
X18313Y46084D02*
X15161D01*
Y42931D01*
X18313D01*
Y46084D01*
D02*
G37*
G36*
X14761D02*
X11608D01*
Y42931D01*
X14761D01*
Y46084D01*
D02*
G37*
G36*
X-14839Y46087D02*
Y42931D01*
X-11684D01*
X-11773Y43606D01*
X-12111Y44422D01*
X-12648Y45122D01*
X-13349Y45660D01*
X-14164Y45998D01*
X-14839Y46087D01*
D02*
G37*
G36*
X-15239D02*
X-15915Y45998D01*
X-16730Y45660D01*
X-17431Y45122D01*
X-17968Y44422D01*
X-18306Y43606D01*
X-18395Y42931D01*
X-15239D01*
Y46087D01*
D02*
G37*
G36*
X30000Y50169D02*
X28662Y49992D01*
X27416Y49476D01*
X26345Y48655D01*
X25524Y47584D01*
X25008Y46338D01*
X24831Y45000D01*
X25008Y43662D01*
X25524Y42416D01*
X26345Y41345D01*
X27416Y40524D01*
X28662Y40007D01*
X30000Y39831D01*
X31338Y40007D01*
X32584Y40524D01*
X33655Y41345D01*
X34476Y42416D01*
X34993Y43662D01*
X35169Y45000D01*
X34993Y46338D01*
X34476Y47584D01*
X33655Y48655D01*
X32584Y49476D01*
X31338Y49992D01*
X30000Y50169D01*
D02*
G37*
G36*
X-30000D02*
X-31338Y49992D01*
X-32584Y49476D01*
X-33655Y48655D01*
X-34476Y47584D01*
X-34993Y46338D01*
X-35169Y45000D01*
X-34993Y43662D01*
X-34476Y42416D01*
X-33655Y41345D01*
X-32584Y40524D01*
X-31338Y40007D01*
X-30000Y39831D01*
X-28662Y40007D01*
X-27416Y40524D01*
X-26345Y41345D01*
X-25524Y42416D01*
X-25008Y43662D01*
X-24831Y45000D01*
X-25008Y46338D01*
X-25524Y47584D01*
X-26345Y48655D01*
X-27416Y49476D01*
X-28662Y49992D01*
X-30000Y50169D01*
D02*
G37*
G36*
X18313Y42531D02*
X15161D01*
Y39378D01*
X18313D01*
Y42531D01*
D02*
G37*
G36*
X14761D02*
X11608D01*
Y39378D01*
X14761D01*
Y42531D01*
D02*
G37*
G36*
X-11684Y42531D02*
X-14839D01*
Y39376D01*
X-14164Y39465D01*
X-13349Y39803D01*
X-12648Y40340D01*
X-12111Y41040D01*
X-11773Y41856D01*
X-11684Y42531D01*
D02*
G37*
G36*
X-15239D02*
X-18395D01*
X-18306Y41856D01*
X-17968Y41040D01*
X-17431Y40340D01*
X-16730Y39803D01*
X-15915Y39465D01*
X-15239Y39376D01*
Y42531D01*
D02*
G37*
G36*
X4961Y46113D02*
X4085Y45998D01*
X3270Y45660D01*
X2569Y45122D01*
X2032Y44422D01*
X1694Y43606D01*
X1579Y42731D01*
X1694Y41856D01*
X2032Y41040D01*
X2569Y40340D01*
X3270Y39803D01*
X4085Y39465D01*
X4961Y39349D01*
X5836Y39465D01*
X6651Y39803D01*
X7352Y40340D01*
X7889Y41040D01*
X8227Y41856D01*
X8342Y42731D01*
X8227Y43606D01*
X7889Y44422D01*
X7352Y45122D01*
X6651Y45660D01*
X5836Y45998D01*
X4961Y46113D01*
D02*
G37*
G36*
X-5039D02*
X-5915Y45998D01*
X-6730Y45660D01*
X-7431Y45122D01*
X-7968Y44422D01*
X-8306Y43606D01*
X-8421Y42731D01*
X-8306Y41856D01*
X-7968Y41040D01*
X-7431Y40340D01*
X-6730Y39803D01*
X-5915Y39465D01*
X-5039Y39349D01*
X-4164Y39465D01*
X-3348Y39803D01*
X-2648Y40340D01*
X-2111Y41040D01*
X-1773Y41856D01*
X-1658Y42731D01*
X-1773Y43606D01*
X-2111Y44422D01*
X-2648Y45122D01*
X-3348Y45660D01*
X-4164Y45998D01*
X-5039Y46113D01*
D02*
G37*
G36*
X33071Y35665D02*
X32530Y35557D01*
X32072Y35251D01*
X31765Y34793D01*
X31751Y34720D01*
X31241D01*
X31227Y34793D01*
X30920Y35251D01*
X30462Y35557D01*
X29921Y35665D01*
X29381Y35557D01*
X28922Y35251D01*
X28616Y34793D01*
X28508Y34252D01*
X28616Y33711D01*
X28922Y33253D01*
X29381Y32947D01*
X29921Y32839D01*
X30462Y32947D01*
X30920Y33253D01*
X31227Y33711D01*
X31241Y33784D01*
X31751D01*
X31765Y33711D01*
X32072Y33253D01*
X32530Y32947D01*
X33071Y32839D01*
X33612Y32947D01*
X34070Y33253D01*
X34376Y33711D01*
X34484Y34252D01*
X34376Y34793D01*
X34070Y35251D01*
X33612Y35557D01*
X33071Y35665D01*
D02*
G37*
G36*
X-32677Y36059D02*
X-33218Y35951D01*
X-33676Y35645D01*
X-33983Y35186D01*
X-34090Y34646D01*
X-33983Y34105D01*
X-33676Y33647D01*
X-33218Y33340D01*
X-32677Y33233D01*
X-32136Y33340D01*
X-31678Y33647D01*
X-31372Y34105D01*
X-31264Y34646D01*
X-31372Y35186D01*
X-31678Y35645D01*
X-32136Y35951D01*
X-32677Y36059D01*
D02*
G37*
G36*
X-14567Y35240D02*
X-15108Y35132D01*
X-15566Y34826D01*
X-15872Y34367D01*
X-15980Y33827D01*
X-15872Y33286D01*
X-15566Y32828D01*
X-15108Y32521D01*
X-14567Y32414D01*
X-14026Y32521D01*
X-13568Y32828D01*
X-13262Y33286D01*
X-13154Y33827D01*
X-13262Y34367D01*
X-13568Y34826D01*
X-14026Y35132D01*
X-14567Y35240D01*
D02*
G37*
G36*
X-50000Y34484D02*
X-50541Y34376D01*
X-50999Y34070D01*
X-51305Y33612D01*
X-51413Y33071D01*
X-51305Y32530D01*
X-50999Y32072D01*
X-50541Y31765D01*
X-50000Y31658D01*
X-49459Y31765D01*
X-49001Y32072D01*
X-48695Y32530D01*
X-48587Y33071D01*
X-48695Y33612D01*
X-49001Y34070D01*
X-49459Y34376D01*
X-50000Y34484D01*
D02*
G37*
G36*
X-11024Y34090D02*
X-11564Y33983D01*
X-12023Y33676D01*
X-12329Y33218D01*
X-12437Y32677D01*
X-12329Y32136D01*
X-12023Y31678D01*
X-11564Y31372D01*
X-11024Y31264D01*
X-10483Y31372D01*
X-10024Y31678D01*
X-9718Y32136D01*
X-9611Y32677D01*
X-9718Y33218D01*
X-10024Y33676D01*
X-10483Y33983D01*
X-11024Y34090D01*
D02*
G37*
G36*
X33071Y30547D02*
X32530Y30439D01*
X32072Y30133D01*
X31765Y29675D01*
X31751Y29602D01*
X31241D01*
X31227Y29675D01*
X30920Y30133D01*
X30462Y30439D01*
X29921Y30547D01*
X29381Y30439D01*
X28922Y30133D01*
X28616Y29675D01*
X28508Y29134D01*
X28616Y28593D01*
X28922Y28135D01*
X29381Y27828D01*
X29921Y27721D01*
X30462Y27828D01*
X30920Y28135D01*
X31227Y28593D01*
X31241Y28666D01*
X31751D01*
X31765Y28593D01*
X32072Y28135D01*
X32530Y27828D01*
X33071Y27721D01*
X33612Y27828D01*
X34070Y28135D01*
X34376Y28593D01*
X34484Y29134D01*
X34376Y29675D01*
X34070Y30133D01*
X33612Y30439D01*
X33071Y30547D01*
D02*
G37*
G36*
X-29921D02*
X-30462Y30439D01*
X-30920Y30133D01*
X-31227Y29675D01*
X-31241Y29602D01*
X-31751D01*
X-31765Y29675D01*
X-32072Y30133D01*
X-32530Y30439D01*
X-33071Y30547D01*
X-33612Y30439D01*
X-34070Y30133D01*
X-34376Y29675D01*
X-34484Y29134D01*
X-34376Y28593D01*
X-34070Y28135D01*
X-33612Y27828D01*
X-33071Y27721D01*
X-32530Y27828D01*
X-32072Y28135D01*
X-31765Y28593D01*
X-31751Y28666D01*
X-31241D01*
X-31227Y28593D01*
X-30920Y28135D01*
X-30462Y27828D01*
X-29921Y27721D01*
X-29381Y27828D01*
X-28922Y28135D01*
X-28616Y28593D01*
X-28508Y29134D01*
X-28616Y29675D01*
X-28922Y30133D01*
X-29381Y30439D01*
X-29921Y30547D01*
D02*
G37*
G36*
X-51995Y31101D02*
X-52535Y30993D01*
X-52994Y30687D01*
X-53300Y30229D01*
X-53408Y29688D01*
X-53300Y29147D01*
X-52994Y28689D01*
X-52535Y28383D01*
X-51995Y28275D01*
X-51454Y28383D01*
X-50996Y28689D01*
X-50689Y29147D01*
X-50582Y29688D01*
X-50689Y30229D01*
X-50996Y30687D01*
X-51454Y30993D01*
X-51995Y31101D01*
D02*
G37*
G36*
X-53543Y28185D02*
X-54084Y28077D01*
X-54542Y27771D01*
X-54849Y27312D01*
X-54956Y26772D01*
X-54849Y26231D01*
X-54542Y25773D01*
X-54084Y25466D01*
X-53543Y25359D01*
X-53003Y25466D01*
X-52544Y25773D01*
X-52238Y26231D01*
X-52130Y26772D01*
X-52238Y27312D01*
X-52544Y27771D01*
X-53003Y28077D01*
X-53543Y28185D01*
D02*
G37*
G36*
X33071Y25822D02*
X32530Y25715D01*
X32072Y25409D01*
X31765Y24950D01*
X31658Y24409D01*
X31765Y23869D01*
X32072Y23410D01*
X32530Y23104D01*
X33071Y22997D01*
X33612Y23104D01*
X34070Y23410D01*
X34376Y23869D01*
X34484Y24409D01*
X34376Y24950D01*
X34070Y25409D01*
X33612Y25715D01*
X33071Y25822D01*
D02*
G37*
G36*
X-29921D02*
X-30462Y25715D01*
X-30920Y25409D01*
X-31227Y24950D01*
X-31334Y24409D01*
X-31227Y23869D01*
X-30920Y23410D01*
X-30462Y23104D01*
X-29921Y22997D01*
X-29381Y23104D01*
X-28922Y23410D01*
X-28616Y23869D01*
X-28508Y24409D01*
X-28616Y24950D01*
X-28922Y25409D01*
X-29381Y25715D01*
X-29921Y25822D01*
D02*
G37*
G36*
X-8661Y23854D02*
X-9202Y23746D01*
X-9661Y23440D01*
X-9967Y22982D01*
X-10074Y22441D01*
X-9967Y21900D01*
X-9661Y21442D01*
X-9202Y21136D01*
X-8661Y21028D01*
X-8121Y21136D01*
X-7662Y21442D01*
X-7356Y21900D01*
X-7248Y22441D01*
X-7356Y22982D01*
X-7662Y23440D01*
X-8121Y23746D01*
X-8661Y23854D01*
D02*
G37*
G36*
X12992Y25822D02*
X12451Y25715D01*
X11993Y25409D01*
X11687Y24950D01*
X11579Y24409D01*
X11687Y23869D01*
X11993Y23410D01*
X11716Y22994D01*
X11634Y22871D01*
X11527Y22330D01*
X11634Y21790D01*
X11941Y21331D01*
X12399Y21025D01*
X12940Y20917D01*
X13480Y21025D01*
X13939Y21331D01*
X14245Y21790D01*
X14353Y22330D01*
X14245Y22871D01*
X13939Y23329D01*
X14216Y23746D01*
X14298Y23869D01*
X14405Y24409D01*
X14298Y24950D01*
X13991Y25409D01*
X13533Y25715D01*
X12992Y25822D01*
D02*
G37*
G36*
X29921Y20704D02*
X29381Y20597D01*
X28922Y20290D01*
X28616Y19832D01*
X28508Y19291D01*
X28616Y18751D01*
X28922Y18292D01*
X29381Y17986D01*
X29921Y17878D01*
X30462Y17986D01*
X30920Y18292D01*
X31227Y18751D01*
X31334Y19291D01*
X31227Y19832D01*
X30920Y20290D01*
X30462Y20597D01*
X29921Y20704D01*
D02*
G37*
G36*
X-33071D02*
X-33612Y20597D01*
X-34070Y20290D01*
X-34376Y19832D01*
X-34484Y19291D01*
X-34376Y18751D01*
X-34070Y18292D01*
X-33612Y17986D01*
X-33071Y17878D01*
X-32530Y17986D01*
X-32072Y18292D01*
X-31765Y18751D01*
X-31658Y19291D01*
X-31765Y19832D01*
X-32072Y20290D01*
X-32530Y20597D01*
X-33071Y20704D01*
D02*
G37*
G36*
X-30315Y15980D02*
X-30856Y15872D01*
X-31314Y15566D01*
X-31392Y15449D01*
X-31994D01*
X-32072Y15566D01*
X-32530Y15872D01*
X-33071Y15980D01*
X-33612Y15872D01*
X-34070Y15566D01*
X-34376Y15108D01*
X-34484Y14567D01*
X-34376Y14026D01*
X-34070Y13568D01*
X-33612Y13262D01*
X-33071Y13154D01*
X-32530Y13262D01*
X-32072Y13568D01*
X-31994Y13685D01*
X-31392D01*
X-31314Y13568D01*
X-30856Y13262D01*
X-30315Y13154D01*
X-29774Y13262D01*
X-29316Y13568D01*
X-29010Y14026D01*
X-28902Y14567D01*
X-29010Y15108D01*
X-29316Y15566D01*
X-29774Y15872D01*
X-30315Y15980D01*
D02*
G37*
G36*
X3150Y15192D02*
X2609Y15085D01*
X2151Y14779D01*
X1844Y14320D01*
X1737Y13780D01*
X1844Y13239D01*
X2151Y12780D01*
X2609Y12474D01*
X3150Y12367D01*
X3690Y12474D01*
X4149Y12780D01*
X4455Y13239D01*
X4563Y13780D01*
X4455Y14320D01*
X4149Y14779D01*
X3690Y15085D01*
X3150Y15192D01*
D02*
G37*
G36*
X-13780Y14212D02*
X-14548Y14059D01*
X-15199Y13624D01*
X-15634Y12973D01*
X-15787Y12205D01*
X-15634Y11437D01*
X-15199Y10785D01*
X-14548Y10350D01*
X-13780Y10198D01*
X-13012Y10350D01*
X-12360Y10785D01*
X-11925Y11437D01*
X-11772Y12205D01*
X-11925Y12973D01*
X-12360Y13624D01*
X-13012Y14059D01*
X-13780Y14212D01*
D02*
G37*
G36*
X33071Y10862D02*
X32530Y10754D01*
X32072Y10448D01*
X31765Y9990D01*
X31751Y9917D01*
X31241D01*
X31227Y9990D01*
X30920Y10448D01*
X30462Y10754D01*
X29921Y10862D01*
X29381Y10754D01*
X28922Y10448D01*
X28616Y9990D01*
X28508Y9449D01*
X28616Y8908D01*
X28922Y8450D01*
X29381Y8143D01*
X29921Y8036D01*
X30462Y8143D01*
X30920Y8450D01*
X31227Y8908D01*
X31241Y8981D01*
X31751D01*
X31765Y8908D01*
X32072Y8450D01*
X32530Y8143D01*
X33071Y8036D01*
X33612Y8143D01*
X34070Y8450D01*
X34376Y8908D01*
X34484Y9449D01*
X34376Y9990D01*
X34070Y10448D01*
X33612Y10754D01*
X33071Y10862D01*
D02*
G37*
G36*
X7087Y11649D02*
X6546Y11542D01*
X6087Y11235D01*
X5781Y10777D01*
X5674Y10236D01*
X5781Y9696D01*
X6087Y9237D01*
X6546Y8931D01*
X7087Y8823D01*
X7627Y8931D01*
X8086Y9237D01*
X8392Y9696D01*
X8500Y10236D01*
X8392Y10777D01*
X8086Y11235D01*
X7627Y11542D01*
X7087Y11649D01*
D02*
G37*
G36*
X-17717Y10862D02*
X-18257Y10754D01*
X-18716Y10448D01*
X-19022Y9990D01*
X-19129Y9449D01*
X-19022Y8908D01*
X-18716Y8450D01*
X-18526Y8323D01*
Y7779D01*
X-19026Y7572D01*
X-21475Y10021D01*
X-21737Y10197D01*
X-22047Y10258D01*
X-22047Y10258D01*
X-31551D01*
X-31678Y10448D01*
X-32136Y10754D01*
X-32677Y10862D01*
X-33218Y10754D01*
X-33676Y10448D01*
X-33983Y9990D01*
X-34090Y9449D01*
X-33983Y8908D01*
X-33676Y8450D01*
X-33218Y8143D01*
X-32677Y8036D01*
X-32136Y8143D01*
X-31678Y8450D01*
X-31551Y8640D01*
X-22382D01*
X-11596Y-2147D01*
X-11596Y-2147D01*
X-11333Y-2322D01*
X-11024Y-2384D01*
X-3878D01*
X-2550Y-3713D01*
X-2594Y-3937D01*
X-2486Y-4478D01*
X-2180Y-4936D01*
X-2063Y-5014D01*
Y-5616D01*
X-2180Y-5694D01*
X-2486Y-6152D01*
X-2594Y-6693D01*
X-2486Y-7234D01*
X-2180Y-7692D01*
X-1722Y-7998D01*
X-1181Y-8106D01*
X-640Y-7998D01*
X-182Y-7692D01*
X124Y-7234D01*
X232Y-6693D01*
X187Y-6469D01*
X1360Y-5297D01*
X1535Y-5034D01*
X1597Y-4724D01*
X1597Y-4724D01*
Y-3543D01*
X1535Y-3234D01*
X1363Y-2977D01*
X1346Y-2890D01*
X1171Y-2628D01*
X1171Y-2628D01*
X-2029Y572D01*
X-2292Y748D01*
X-2602Y809D01*
X-2602Y809D01*
X-9901D01*
X-13828Y4736D01*
X-13581Y5197D01*
X-12992Y5080D01*
X-12224Y5232D01*
X-11573Y5667D01*
X-11138Y6318D01*
X-10985Y7087D01*
X-11138Y7855D01*
X-11573Y8506D01*
X-12224Y8941D01*
X-12992Y9094D01*
X-13760Y8941D01*
X-14411Y8506D01*
X-14846Y7855D01*
X-14999Y7087D01*
X-14882Y6497D01*
X-15343Y6251D01*
X-16907Y7816D01*
Y8323D01*
X-16717Y8450D01*
X-16411Y8908D01*
X-16304Y9449D01*
X-16411Y9990D01*
X-16717Y10448D01*
X-17176Y10754D01*
X-17717Y10862D01*
D02*
G37*
G36*
X3937Y5350D02*
X3396Y5242D01*
X2938Y4936D01*
X2860Y4819D01*
X2258D01*
X2180Y4936D01*
X1722Y5242D01*
X1181Y5350D01*
X640Y5242D01*
X182Y4936D01*
X-124Y4478D01*
X-232Y3937D01*
X-124Y3396D01*
X182Y2938D01*
X640Y2632D01*
X1181Y2524D01*
X1722Y2632D01*
X2180Y2938D01*
X2258Y3055D01*
X2860D01*
X2938Y2938D01*
X3055Y2860D01*
Y2258D01*
X2938Y2180D01*
X2632Y1722D01*
X2524Y1181D01*
X2632Y640D01*
X2938Y182D01*
X3396Y-124D01*
X3937Y-232D01*
X4478Y-124D01*
X4936Y182D01*
X5014Y299D01*
X5616D01*
X5694Y182D01*
X6152Y-124D01*
X6693Y-232D01*
X7234Y-124D01*
X7692Y182D01*
X7998Y640D01*
X8106Y1181D01*
X7998Y1722D01*
X7692Y2180D01*
X7234Y2486D01*
X6693Y2594D01*
X6152Y2486D01*
X5694Y2180D01*
X5616Y2063D01*
X5014D01*
X4936Y2180D01*
X4819Y2258D01*
Y2860D01*
X4936Y2938D01*
X5242Y3396D01*
X5350Y3937D01*
X5242Y4478D01*
X4936Y4936D01*
X4478Y5242D01*
X3937Y5350D01*
D02*
G37*
G36*
X-3937D02*
X-4478Y5242D01*
X-4936Y4936D01*
X-5242Y4478D01*
X-5350Y3937D01*
X-5242Y3396D01*
X-4936Y2938D01*
X-4478Y2632D01*
X-3937Y2524D01*
X-3396Y2632D01*
X-2938Y2938D01*
X-2632Y3396D01*
X-2524Y3937D01*
X-2632Y4478D01*
X-2938Y4936D01*
X-3396Y5242D01*
X-3937Y5350D01*
D02*
G37*
G36*
X-39370Y2594D02*
X-39911Y2486D01*
X-40369Y2180D01*
X-40676Y1722D01*
X-40783Y1181D01*
X-40676Y640D01*
X-40369Y182D01*
X-39911Y-124D01*
X-39370Y-232D01*
X-38829Y-124D01*
X-38371Y182D01*
X-38065Y640D01*
X-37957Y1181D01*
X-38065Y1722D01*
X-38371Y2180D01*
X-38829Y2486D01*
X-39370Y2594D01*
D02*
G37*
G36*
X-29134Y2200D02*
X-29675Y2093D01*
X-30133Y1787D01*
X-30439Y1328D01*
X-30547Y787D01*
X-30439Y247D01*
X-30133Y-212D01*
X-29675Y-518D01*
X-29134Y-626D01*
X-28593Y-518D01*
X-28135Y-212D01*
X-27828Y247D01*
X-27721Y787D01*
X-27828Y1328D01*
X-28135Y1787D01*
X-28593Y2093D01*
X-29134Y2200D01*
D02*
G37*
G36*
X-33071D02*
X-33612Y2093D01*
X-34070Y1787D01*
X-34376Y1328D01*
X-34484Y787D01*
X-34376Y247D01*
X-34070Y-212D01*
X-33612Y-518D01*
X-33071Y-626D01*
X-32530Y-518D01*
X-32072Y-212D01*
X-31765Y247D01*
X-31658Y787D01*
X-31765Y1328D01*
X-32072Y1787D01*
X-32530Y2093D01*
X-33071Y2200D01*
D02*
G37*
G36*
X74016Y1807D02*
X73475Y1699D01*
X73017Y1393D01*
X72710Y934D01*
X72603Y394D01*
X72710Y-147D01*
X73017Y-605D01*
X73475Y-912D01*
X74016Y-1019D01*
X74556Y-912D01*
X75015Y-605D01*
X75321Y-147D01*
X75429Y394D01*
X75321Y934D01*
X75015Y1393D01*
X74556Y1699D01*
X74016Y1807D01*
D02*
G37*
G36*
X14961Y-1737D02*
X14420Y-1844D01*
X13961Y-2151D01*
X13655Y-2609D01*
X13639Y-2689D01*
X13491Y-2774D01*
X13094Y-2865D01*
X12745Y-2632D01*
X12205Y-2524D01*
X11664Y-2632D01*
X11206Y-2938D01*
X10899Y-3396D01*
X10792Y-3937D01*
X10899Y-4478D01*
X11206Y-4936D01*
X11323Y-5014D01*
Y-5616D01*
X11206Y-5694D01*
X11127Y-5811D01*
X10526D01*
X10448Y-5694D01*
X9990Y-5387D01*
X9449Y-5280D01*
X8908Y-5387D01*
X8450Y-5694D01*
X8143Y-6152D01*
X8036Y-6693D01*
X8143Y-7234D01*
X8450Y-7692D01*
X8908Y-7998D01*
X9449Y-8106D01*
X9990Y-7998D01*
X10448Y-7692D01*
X10526Y-7575D01*
X11127D01*
X11206Y-7692D01*
X11664Y-7998D01*
X12205Y-8106D01*
X12745Y-7998D01*
X13204Y-7692D01*
X13510Y-7234D01*
X13618Y-6693D01*
X13510Y-6152D01*
X13204Y-5694D01*
X13087Y-5616D01*
Y-5014D01*
X13204Y-4936D01*
X13510Y-4478D01*
X13526Y-4397D01*
X13674Y-4313D01*
X14071Y-4222D01*
X14420Y-4455D01*
X14961Y-4563D01*
X15501Y-4455D01*
X15960Y-4149D01*
X16266Y-3690D01*
X16374Y-3150D01*
X16266Y-2609D01*
X15960Y-2151D01*
X15501Y-1844D01*
X14961Y-1737D01*
D02*
G37*
G36*
X-10630Y-3311D02*
X-11171Y-3419D01*
X-11629Y-3725D01*
X-11935Y-4184D01*
X-12043Y-4724D01*
X-11935Y-5265D01*
X-11629Y-5723D01*
X-11171Y-6030D01*
X-10630Y-6137D01*
X-10089Y-6030D01*
X-9631Y-5723D01*
X-9324Y-5265D01*
X-9217Y-4724D01*
X-9324Y-4184D01*
X-9631Y-3725D01*
X-10089Y-3419D01*
X-10630Y-3311D01*
D02*
G37*
G36*
X-21654Y-6067D02*
X-22194Y-6175D01*
X-22653Y-6481D01*
X-22959Y-6940D01*
X-23066Y-7480D01*
X-22959Y-8021D01*
X-22653Y-8479D01*
X-22194Y-8786D01*
X-21654Y-8893D01*
X-21113Y-8786D01*
X-20654Y-8479D01*
X-20348Y-8021D01*
X-20241Y-7480D01*
X-20348Y-6940D01*
X-20654Y-6481D01*
X-21113Y-6175D01*
X-21654Y-6067D01*
D02*
G37*
G36*
X-8661Y-6461D02*
X-9202Y-6569D01*
X-9661Y-6875D01*
X-9967Y-7333D01*
X-10074Y-7874D01*
X-9967Y-8415D01*
X-9661Y-8873D01*
X-9202Y-9179D01*
X-8661Y-9287D01*
X-8121Y-9179D01*
X-7662Y-8873D01*
X-7356Y-8415D01*
X-7248Y-7874D01*
X-7356Y-7333D01*
X-7662Y-6875D01*
X-8121Y-6569D01*
X-8661Y-6461D01*
D02*
G37*
G36*
X7831Y-9253D02*
X7290Y-9361D01*
X6832Y-9667D01*
X6768Y-9763D01*
X6260Y-9902D01*
X5801Y-9596D01*
X5261Y-9488D01*
X4720Y-9596D01*
X4262Y-9902D01*
X3955Y-10360D01*
X3848Y-10901D01*
X3955Y-11442D01*
X4262Y-11900D01*
X4207Y-12465D01*
X4196Y-12472D01*
X3890Y-12931D01*
X3782Y-13471D01*
X3890Y-14012D01*
X4196Y-14470D01*
X4655Y-14777D01*
X5195Y-14884D01*
X5736Y-14777D01*
X6195Y-14470D01*
X6501Y-14012D01*
X6608Y-13471D01*
X6501Y-12931D01*
X6195Y-12472D01*
X6249Y-11907D01*
X6260Y-11900D01*
X6324Y-11805D01*
X6832Y-11665D01*
X7290Y-11972D01*
X7831Y-12079D01*
X8372Y-11972D01*
X8830Y-11665D01*
X9136Y-11207D01*
X9244Y-10666D01*
X9136Y-10125D01*
X8830Y-9667D01*
X8372Y-9361D01*
X7831Y-9253D01*
D02*
G37*
G36*
X0Y-10398D02*
X-541Y-10506D01*
X-999Y-10812D01*
X-1305Y-11270D01*
X-1413Y-11811D01*
X-1305Y-12352D01*
X-999Y-12810D01*
X-541Y-13116D01*
X0Y-13224D01*
X541Y-13116D01*
X999Y-12810D01*
X1305Y-12352D01*
X1413Y-11811D01*
X1305Y-11270D01*
X999Y-10812D01*
X541Y-10506D01*
X0Y-10398D01*
D02*
G37*
G36*
X-72601Y-12156D02*
X-73142Y-12263D01*
X-73601Y-12570D01*
X-73907Y-13028D01*
X-74014Y-13569D01*
X-73907Y-14109D01*
X-73601Y-14568D01*
X-73142Y-14874D01*
X-72601Y-14982D01*
X-72061Y-14874D01*
X-71602Y-14568D01*
X-71296Y-14109D01*
X-71188Y-13569D01*
X-71296Y-13028D01*
X-71602Y-12570D01*
X-72061Y-12263D01*
X-72601Y-12156D01*
D02*
G37*
G36*
X20866Y-12459D02*
X20210Y-12590D01*
X19654Y-12961D01*
X19283Y-13517D01*
X19152Y-14173D01*
X19283Y-14829D01*
X19654Y-15385D01*
X20210Y-15757D01*
X20866Y-15887D01*
X21522Y-15757D01*
X22078Y-15385D01*
X22450Y-14829D01*
X22580Y-14173D01*
X22450Y-13517D01*
X22078Y-12961D01*
X21522Y-12590D01*
X20866Y-12459D01*
D02*
G37*
G36*
X-39370Y-15123D02*
X-39911Y-15230D01*
X-40369Y-15536D01*
X-40676Y-15995D01*
X-40783Y-16535D01*
X-40676Y-17076D01*
X-40369Y-17535D01*
X-39911Y-17841D01*
X-39370Y-17948D01*
X-38829Y-17841D01*
X-38371Y-17535D01*
X-38065Y-17076D01*
X-37957Y-16535D01*
X-38065Y-15995D01*
X-38371Y-15536D01*
X-38829Y-15230D01*
X-39370Y-15123D01*
D02*
G37*
G36*
X-71845Y-15709D02*
X-72386Y-15817D01*
X-72844Y-16123D01*
X-73150Y-16581D01*
X-73258Y-17122D01*
X-73150Y-17663D01*
X-72844Y-18121D01*
X-72386Y-18428D01*
X-71845Y-18535D01*
X-71304Y-18428D01*
X-70846Y-18121D01*
X-70539Y-17663D01*
X-70432Y-17122D01*
X-70539Y-16581D01*
X-70846Y-16123D01*
X-71304Y-15817D01*
X-71845Y-15709D01*
D02*
G37*
G36*
X71844Y-15721D02*
X71303Y-15829D01*
X70845Y-16135D01*
X70538Y-16593D01*
X70431Y-17134D01*
X70538Y-17675D01*
X70845Y-18133D01*
X71303Y-18439D01*
X71844Y-18547D01*
X72384Y-18439D01*
X72843Y-18133D01*
X73149Y-17675D01*
X73257Y-17134D01*
X73149Y-16593D01*
X72843Y-16135D01*
X72384Y-15829D01*
X71844Y-15721D01*
D02*
G37*
G36*
X-26149Y-16284D02*
X-26689Y-16392D01*
X-27148Y-16698D01*
X-27454Y-17156D01*
X-27562Y-17697D01*
X-27454Y-18238D01*
X-27319Y-18440D01*
X-27597Y-18768D01*
X-27667Y-18819D01*
X-28185Y-18716D01*
X-28618Y-18802D01*
X-28878Y-18533D01*
X-28949Y-18397D01*
X-28863Y-18269D01*
X-28756Y-17728D01*
X-28863Y-17188D01*
X-29170Y-16729D01*
X-29628Y-16423D01*
X-30169Y-16315D01*
X-30709Y-16423D01*
X-31168Y-16729D01*
X-31474Y-17188D01*
X-31582Y-17728D01*
X-31474Y-18269D01*
X-31393Y-18390D01*
X-31484Y-18555D01*
X-31724Y-18795D01*
X-32167Y-18707D01*
X-32708Y-18815D01*
X-33166Y-19121D01*
X-33472Y-19579D01*
X-33580Y-20120D01*
X-33472Y-20661D01*
X-33166Y-21119D01*
X-32708Y-21426D01*
X-32167Y-21533D01*
X-31626Y-21426D01*
X-31168Y-21119D01*
X-30861Y-20661D01*
X-30754Y-20120D01*
X-30861Y-19579D01*
X-30942Y-19458D01*
X-30852Y-19293D01*
X-30612Y-19053D01*
X-30169Y-19141D01*
X-29735Y-19055D01*
X-29476Y-19325D01*
X-29405Y-19460D01*
X-29491Y-19589D01*
X-29598Y-20129D01*
X-29491Y-20670D01*
X-29184Y-21128D01*
X-28726Y-21435D01*
X-28185Y-21542D01*
X-27644Y-21435D01*
X-27186Y-21128D01*
X-26880Y-20670D01*
X-26772Y-20129D01*
X-26880Y-19589D01*
X-27015Y-19387D01*
X-26737Y-19058D01*
X-26667Y-19007D01*
X-26149Y-19110D01*
X-25608Y-19003D01*
X-25150Y-18696D01*
X-24843Y-18238D01*
X-24736Y-17697D01*
X-24843Y-17156D01*
X-25150Y-16698D01*
X-25608Y-16392D01*
X-26149Y-16284D01*
D02*
G37*
G36*
X-18801Y-18125D02*
X-19342Y-18232D01*
X-19801Y-18538D01*
X-20107Y-18997D01*
X-20214Y-19537D01*
X-20107Y-20078D01*
X-19801Y-20537D01*
X-19342Y-20843D01*
X-18801Y-20951D01*
X-18261Y-20843D01*
X-17802Y-20537D01*
X-17496Y-20078D01*
X-17389Y-19537D01*
X-17496Y-18997D01*
X-17802Y-18538D01*
X-18261Y-18232D01*
X-18801Y-18125D01*
D02*
G37*
G36*
X50000Y24771D02*
X48765Y24609D01*
X47614Y24132D01*
X46626Y23374D01*
X45868Y22386D01*
X45391Y21235D01*
X45228Y20000D01*
X45391Y18765D01*
X45868Y17614D01*
X46626Y16626D01*
X47614Y15868D01*
X48765Y15391D01*
X49687Y15270D01*
X49820Y15252D01*
Y14748D01*
X49687Y14730D01*
X48765Y14609D01*
X47614Y14132D01*
X46626Y13374D01*
X45868Y12386D01*
X45391Y11235D01*
X45228Y10000D01*
X45391Y8765D01*
X45868Y7614D01*
X46626Y6626D01*
X47614Y5868D01*
X48765Y5391D01*
X49687Y5270D01*
X49820Y5252D01*
Y4748D01*
X49687Y4730D01*
X48765Y4609D01*
X47614Y4132D01*
X46626Y3374D01*
X45868Y2386D01*
X45391Y1235D01*
X45228Y0D01*
X45391Y-1235D01*
X45868Y-2386D01*
X46626Y-3374D01*
X47614Y-4132D01*
X48765Y-4609D01*
X49687Y-4730D01*
X49820Y-4748D01*
Y-5252D01*
X49687Y-5270D01*
X48765Y-5391D01*
X47614Y-5868D01*
X46626Y-6626D01*
X45868Y-7614D01*
X45391Y-8765D01*
X45228Y-10000D01*
X45391Y-11235D01*
X45868Y-12386D01*
X46626Y-13374D01*
X47614Y-14132D01*
X48765Y-14609D01*
X49687Y-14730D01*
X49820Y-14748D01*
Y-15252D01*
X49687Y-15270D01*
X48765Y-15391D01*
X47614Y-15868D01*
X46626Y-16626D01*
X45868Y-17614D01*
X45391Y-18765D01*
X45228Y-20000D01*
X45391Y-21235D01*
X45868Y-22386D01*
X46626Y-23374D01*
X47614Y-24132D01*
X48765Y-24609D01*
X50000Y-24771D01*
X51235Y-24609D01*
X52386Y-24132D01*
X53374Y-23374D01*
X54132Y-22386D01*
X54609Y-21235D01*
X54772Y-20000D01*
X54609Y-18765D01*
X54132Y-17614D01*
X53374Y-16626D01*
X52386Y-15868D01*
X51235Y-15391D01*
X50313Y-15270D01*
X50180Y-15252D01*
Y-14748D01*
X50313Y-14730D01*
X51235Y-14609D01*
X52386Y-14132D01*
X53374Y-13374D01*
X54132Y-12386D01*
X54609Y-11235D01*
X54772Y-10000D01*
X54609Y-8765D01*
X54132Y-7614D01*
X53374Y-6626D01*
X52386Y-5868D01*
X51235Y-5391D01*
X50313Y-5270D01*
X50180Y-5252D01*
Y-4748D01*
X50313Y-4730D01*
X51235Y-4609D01*
X52386Y-4132D01*
X53374Y-3374D01*
X54132Y-2386D01*
X54609Y-1235D01*
X54772Y0D01*
X54609Y1235D01*
X54132Y2386D01*
X53374Y3374D01*
X52386Y4132D01*
X51235Y4609D01*
X50313Y4730D01*
X50180Y4748D01*
Y5252D01*
X50313Y5270D01*
X51235Y5391D01*
X52386Y5868D01*
X53374Y6626D01*
X54132Y7614D01*
X54609Y8765D01*
X54772Y10000D01*
X54609Y11235D01*
X54132Y12386D01*
X53374Y13374D01*
X52386Y14132D01*
X51235Y14609D01*
X50313Y14730D01*
X50180Y14748D01*
Y15252D01*
X50313Y15270D01*
X51235Y15391D01*
X52386Y15868D01*
X53374Y16626D01*
X54132Y17614D01*
X54609Y18765D01*
X54772Y20000D01*
X54609Y21235D01*
X54132Y22386D01*
X53374Y23374D01*
X52386Y24132D01*
X51235Y24609D01*
X50000Y24771D01*
D02*
G37*
G36*
X-50000D02*
X-51235Y24609D01*
X-52386Y24132D01*
X-53374Y23374D01*
X-54132Y22386D01*
X-54609Y21235D01*
X-54772Y20000D01*
X-54609Y18765D01*
X-54132Y17614D01*
X-53374Y16626D01*
X-52386Y15868D01*
X-51235Y15391D01*
X-50313Y15270D01*
X-50180Y15252D01*
Y14748D01*
X-50313Y14730D01*
X-51235Y14609D01*
X-52386Y14132D01*
X-53374Y13374D01*
X-54132Y12386D01*
X-54609Y11235D01*
X-54772Y10000D01*
X-54609Y8765D01*
X-54132Y7614D01*
X-53374Y6626D01*
X-52386Y5868D01*
X-51235Y5391D01*
X-50313Y5270D01*
X-50180Y5252D01*
Y4748D01*
X-50313Y4730D01*
X-51235Y4609D01*
X-52386Y4132D01*
X-53374Y3374D01*
X-54132Y2386D01*
X-54609Y1235D01*
X-54772Y0D01*
X-54609Y-1235D01*
X-54132Y-2386D01*
X-53374Y-3374D01*
X-52386Y-4132D01*
X-51235Y-4609D01*
X-50313Y-4730D01*
X-50180Y-4748D01*
Y-5252D01*
X-50313Y-5270D01*
X-51235Y-5391D01*
X-52386Y-5868D01*
X-53374Y-6626D01*
X-54132Y-7614D01*
X-54609Y-8765D01*
X-54772Y-10000D01*
X-54609Y-11235D01*
X-54132Y-12386D01*
X-53374Y-13374D01*
X-52386Y-14132D01*
X-51235Y-14609D01*
X-50313Y-14730D01*
X-50180Y-14748D01*
Y-15252D01*
X-50313Y-15270D01*
X-51235Y-15391D01*
X-52386Y-15868D01*
X-53374Y-16626D01*
X-54132Y-17614D01*
X-54609Y-18765D01*
X-54772Y-20000D01*
X-54609Y-21235D01*
X-54132Y-22386D01*
X-53374Y-23374D01*
X-52386Y-24132D01*
X-51235Y-24609D01*
X-50000Y-24771D01*
X-48765Y-24609D01*
X-47614Y-24132D01*
X-46626Y-23374D01*
X-45868Y-22386D01*
X-45391Y-21235D01*
X-45228Y-20000D01*
X-45391Y-18765D01*
X-45868Y-17614D01*
X-46626Y-16626D01*
X-47614Y-15868D01*
X-48765Y-15391D01*
X-49687Y-15270D01*
X-49820Y-15252D01*
Y-14748D01*
X-49687Y-14730D01*
X-48765Y-14609D01*
X-47614Y-14132D01*
X-46626Y-13374D01*
X-45868Y-12386D01*
X-45391Y-11235D01*
X-45228Y-10000D01*
X-45391Y-8765D01*
X-45868Y-7614D01*
X-46626Y-6626D01*
X-47614Y-5868D01*
X-48765Y-5391D01*
X-49687Y-5270D01*
X-49820Y-5252D01*
Y-4748D01*
X-49687Y-4730D01*
X-48765Y-4609D01*
X-47614Y-4132D01*
X-46626Y-3374D01*
X-45868Y-2386D01*
X-45391Y-1235D01*
X-45228Y0D01*
X-45391Y1235D01*
X-45868Y2386D01*
X-46626Y3374D01*
X-47614Y4132D01*
X-48765Y4609D01*
X-49687Y4730D01*
X-49820Y4748D01*
Y5252D01*
X-49687Y5270D01*
X-48765Y5391D01*
X-47614Y5868D01*
X-46626Y6626D01*
X-45868Y7614D01*
X-45391Y8765D01*
X-45228Y10000D01*
X-45391Y11235D01*
X-45868Y12386D01*
X-46626Y13374D01*
X-47614Y14132D01*
X-48765Y14609D01*
X-49687Y14730D01*
X-49820Y14748D01*
Y15252D01*
X-49687Y15270D01*
X-48765Y15391D01*
X-47614Y15868D01*
X-46626Y16626D01*
X-45868Y17614D01*
X-45391Y18765D01*
X-45228Y20000D01*
X-45391Y21235D01*
X-45868Y22386D01*
X-46626Y23374D01*
X-47614Y24132D01*
X-48765Y24609D01*
X-50000Y24771D01*
D02*
G37*
G36*
X-24969Y-23619D02*
X-25510Y-23727D01*
X-25968Y-24033D01*
X-26274Y-24491D01*
X-26382Y-25032D01*
X-26274Y-25573D01*
X-25968Y-26031D01*
X-25510Y-26337D01*
X-24969Y-26445D01*
X-24428Y-26337D01*
X-23970Y-26031D01*
X-23663Y-25573D01*
X-23556Y-25032D01*
X-23663Y-24491D01*
X-23970Y-24033D01*
X-24428Y-23727D01*
X-24969Y-23619D01*
D02*
G37*
G36*
X-15354Y-26934D02*
X-15895Y-27041D01*
X-16353Y-27347D01*
X-16660Y-27806D01*
X-16674Y-27879D01*
X-17184D01*
X-17199Y-27806D01*
X-17505Y-27347D01*
X-17963Y-27041D01*
X-18504Y-26934D01*
X-19045Y-27041D01*
X-19503Y-27347D01*
X-19809Y-27806D01*
X-19917Y-28346D01*
X-19809Y-28887D01*
X-19503Y-29346D01*
X-19045Y-29652D01*
X-18504Y-29759D01*
X-17963Y-29652D01*
X-17505Y-29346D01*
X-17199Y-28887D01*
X-17184Y-28814D01*
X-16674D01*
X-16660Y-28887D01*
X-16353Y-29346D01*
X-15895Y-29652D01*
X-15354Y-29759D01*
X-14968Y-29683D01*
X-14640Y-30092D01*
X-14691Y-30168D01*
X-14799Y-30709D01*
X-14691Y-31249D01*
X-14385Y-31708D01*
X-13927Y-32014D01*
X-13386Y-32122D01*
X-12845Y-32014D01*
X-12387Y-31708D01*
X-12080Y-31249D01*
X-11973Y-30709D01*
X-12080Y-30168D01*
X-12387Y-29710D01*
X-12845Y-29403D01*
X-13386Y-29296D01*
X-13772Y-29373D01*
X-14100Y-28964D01*
X-14049Y-28887D01*
X-13941Y-28346D01*
X-14049Y-27806D01*
X-14355Y-27347D01*
X-14814Y-27041D01*
X-15354Y-26934D01*
D02*
G37*
G36*
X-68195Y-26942D02*
X-68736Y-27050D01*
X-69194Y-27356D01*
X-69500Y-27814D01*
X-69608Y-28355D01*
X-69500Y-28896D01*
X-69194Y-29354D01*
X-68736Y-29660D01*
X-68195Y-29768D01*
X-67654Y-29660D01*
X-67196Y-29354D01*
X-66890Y-28896D01*
X-66782Y-28355D01*
X-66890Y-27814D01*
X-67196Y-27356D01*
X-67654Y-27050D01*
X-68195Y-26942D01*
D02*
G37*
G36*
X68194Y-26954D02*
X67653Y-27062D01*
X67195Y-27368D01*
X66888Y-27826D01*
X66781Y-28367D01*
X66888Y-28908D01*
X67195Y-29366D01*
X67653Y-29672D01*
X68194Y-29780D01*
X68735Y-29672D01*
X69193Y-29366D01*
X69499Y-28908D01*
X69607Y-28367D01*
X69499Y-27826D01*
X69193Y-27368D01*
X68735Y-27062D01*
X68194Y-26954D01*
D02*
G37*
G36*
X66711Y-30284D02*
X66171Y-30391D01*
X65712Y-30698D01*
X65406Y-31156D01*
X65298Y-31697D01*
X65406Y-32237D01*
X65712Y-32696D01*
X66171Y-33002D01*
X66711Y-33110D01*
X67252Y-33002D01*
X67710Y-32696D01*
X68017Y-32237D01*
X68124Y-31697D01*
X68017Y-31156D01*
X67710Y-30698D01*
X67252Y-30391D01*
X66711Y-30284D01*
D02*
G37*
G36*
X-19685Y-34808D02*
X-20226Y-34915D01*
X-20684Y-35221D01*
X-20990Y-35680D01*
X-21098Y-36220D01*
X-20990Y-36761D01*
X-20684Y-37220D01*
X-20226Y-37526D01*
X-20153Y-37540D01*
Y-38050D01*
X-20226Y-38065D01*
X-20684Y-38371D01*
X-20990Y-38829D01*
X-21098Y-39370D01*
X-20990Y-39911D01*
X-20684Y-40369D01*
X-20226Y-40676D01*
X-20153Y-40690D01*
Y-41200D01*
X-20226Y-41214D01*
X-20684Y-41521D01*
X-20990Y-41979D01*
X-21098Y-42520D01*
X-20990Y-43060D01*
X-20684Y-43519D01*
X-20226Y-43825D01*
X-19685Y-43933D01*
X-19144Y-43825D01*
X-18686Y-43519D01*
X-18380Y-43060D01*
X-18272Y-42520D01*
X-18380Y-41979D01*
X-18686Y-41521D01*
X-19144Y-41214D01*
X-19217Y-41200D01*
Y-40690D01*
X-19144Y-40676D01*
X-18686Y-40369D01*
X-18380Y-39911D01*
X-18272Y-39370D01*
X-18380Y-38829D01*
X-18686Y-38371D01*
X-19144Y-38065D01*
X-19217Y-38050D01*
Y-37540D01*
X-19144Y-37526D01*
X-18686Y-37220D01*
X-18380Y-36761D01*
X-18272Y-36220D01*
X-18380Y-35680D01*
X-18686Y-35221D01*
X-19144Y-34915D01*
X-19685Y-34808D01*
D02*
G37*
G36*
X-59449Y-43075D02*
X-59990Y-43183D01*
X-60448Y-43489D01*
X-60754Y-43947D01*
X-60862Y-44488D01*
X-60754Y-45029D01*
X-60448Y-45487D01*
X-59990Y-45794D01*
X-59449Y-45901D01*
X-58908Y-45794D01*
X-58450Y-45487D01*
X-58143Y-45029D01*
X-58036Y-44488D01*
X-58143Y-43947D01*
X-58450Y-43489D01*
X-58908Y-43183D01*
X-59449Y-43075D01*
D02*
G37*
G36*
X30000Y-39831D02*
X28662Y-40007D01*
X27416Y-40524D01*
X26345Y-41345D01*
X25524Y-42416D01*
X25008Y-43662D01*
X24831Y-45000D01*
X25008Y-46338D01*
X25524Y-47584D01*
X26345Y-48655D01*
X27416Y-49476D01*
X28662Y-49992D01*
X30000Y-50169D01*
X31338Y-49992D01*
X32584Y-49476D01*
X33655Y-48655D01*
X34476Y-47584D01*
X34993Y-46338D01*
X35169Y-45000D01*
X34993Y-43662D01*
X34476Y-42416D01*
X33655Y-41345D01*
X32584Y-40524D01*
X31338Y-40007D01*
X30000Y-39831D01*
D02*
G37*
G36*
X-30000D02*
X-31338Y-40007D01*
X-32584Y-40524D01*
X-33655Y-41345D01*
X-34476Y-42416D01*
X-34993Y-43662D01*
X-35169Y-45000D01*
X-34993Y-46338D01*
X-34476Y-47584D01*
X-33655Y-48655D01*
X-32584Y-49476D01*
X-31338Y-49992D01*
X-30000Y-50169D01*
X-28662Y-49992D01*
X-27416Y-49476D01*
X-26345Y-48655D01*
X-25524Y-47584D01*
X-25008Y-46338D01*
X-24831Y-45000D01*
X-25008Y-43662D01*
X-25524Y-42416D01*
X-26345Y-41345D01*
X-27416Y-40524D01*
X-28662Y-40007D01*
X-30000Y-39831D01*
D02*
G37*
G36*
X6693Y-52524D02*
X6152Y-52632D01*
X5694Y-52938D01*
X5387Y-53396D01*
X5280Y-53937D01*
X5387Y-54478D01*
X5694Y-54936D01*
X6152Y-55242D01*
X6693Y-55350D01*
X7234Y-55242D01*
X7692Y-54936D01*
X7998Y-54478D01*
X8106Y-53937D01*
X7998Y-53396D01*
X7692Y-52938D01*
X7234Y-52632D01*
X6693Y-52524D01*
D02*
G37*
G36*
X-9055D02*
X-9596Y-52632D01*
X-10054Y-52938D01*
X-10361Y-53396D01*
X-10468Y-53937D01*
X-10361Y-54478D01*
X-10054Y-54936D01*
X-9596Y-55242D01*
X-9055Y-55350D01*
X-8514Y-55242D01*
X-8056Y-54936D01*
X-7750Y-54478D01*
X-7642Y-53937D01*
X-7750Y-53396D01*
X-8056Y-52938D01*
X-8514Y-52632D01*
X-9055Y-52524D01*
D02*
G37*
G36*
X406Y-54752D02*
X-135Y-54860D01*
X-593Y-55166D01*
X-900Y-55624D01*
X-934Y-55795D01*
X-1443D01*
X-1450Y-55759D01*
X-1757Y-55300D01*
X-2215Y-54994D01*
X-2756Y-54886D01*
X-3297Y-54994D01*
X-3755Y-55300D01*
X-4061Y-55759D01*
X-4169Y-56299D01*
X-4061Y-56840D01*
X-3755Y-57298D01*
X-3297Y-57605D01*
X-2756Y-57712D01*
X-2215Y-57605D01*
X-1757Y-57298D01*
X-1450Y-56840D01*
X-1417Y-56670D01*
X-907D01*
X-900Y-56706D01*
X-593Y-57164D01*
X-135Y-57471D01*
X406Y-57578D01*
X946Y-57471D01*
X1405Y-57164D01*
X1711Y-56706D01*
X1819Y-56165D01*
X1711Y-55624D01*
X1405Y-55166D01*
X946Y-54860D01*
X406Y-54752D01*
D02*
G37*
G36*
X3543Y-53705D02*
X3003Y-53813D01*
X2544Y-54119D01*
X2238Y-54577D01*
X2130Y-55118D01*
X2238Y-55659D01*
X2544Y-56117D01*
X3003Y-56423D01*
X3543Y-56531D01*
X4084Y-56423D01*
X4542Y-56117D01*
X4849Y-55659D01*
X4956Y-55118D01*
X4849Y-54577D01*
X4542Y-54119D01*
X4084Y-53813D01*
X3543Y-53705D01*
D02*
G37*
G36*
X-5906D02*
X-6446Y-53813D01*
X-6905Y-54119D01*
X-7211Y-54577D01*
X-7318Y-55118D01*
X-7211Y-55659D01*
X-6905Y-56117D01*
X-6446Y-56423D01*
X-5906Y-56531D01*
X-5365Y-56423D01*
X-4906Y-56117D01*
X-4600Y-55659D01*
X-4493Y-55118D01*
X-4600Y-54577D01*
X-4906Y-54119D01*
X-5365Y-53813D01*
X-5906Y-53705D01*
D02*
G37*
G36*
X24409Y-68272D02*
X23869Y-68380D01*
X23410Y-68686D01*
X23104Y-69144D01*
X22997Y-69685D01*
X23104Y-70226D01*
X23410Y-70684D01*
X23869Y-70990D01*
X24409Y-71098D01*
X24950Y-70990D01*
X25409Y-70684D01*
X25715Y-70226D01*
X25822Y-69685D01*
X25715Y-69144D01*
X25409Y-68686D01*
X24950Y-68380D01*
X24409Y-68272D01*
D02*
G37*
G36*
X-9530Y-71828D02*
X-10071Y-71936D01*
X-10530Y-72242D01*
X-10836Y-72700D01*
X-10943Y-73241D01*
X-10836Y-73782D01*
X-10530Y-74240D01*
X-10071Y-74546D01*
X-9530Y-74654D01*
X-8990Y-74546D01*
X-8531Y-74240D01*
X-8225Y-73782D01*
X-8117Y-73241D01*
X-8225Y-72700D01*
X-8531Y-72242D01*
X-8990Y-71936D01*
X-9530Y-71828D01*
D02*
G37*
G36*
X-62991Y-51037D02*
X-64861Y-51184D01*
X-66685Y-51622D01*
X-68418Y-52340D01*
X-70017Y-53320D01*
X-71444Y-54538D01*
X-72662Y-55964D01*
X-73642Y-57564D01*
X-74360Y-59297D01*
X-74798Y-61121D01*
X-74945Y-62991D01*
X-74798Y-64861D01*
X-74360Y-66685D01*
X-73642Y-68418D01*
X-72662Y-70017D01*
X-71444Y-71444D01*
X-70017Y-72662D01*
X-68418Y-73642D01*
X-66685Y-74360D01*
X-64861Y-74798D01*
X-62991Y-74945D01*
X-61121Y-74798D01*
X-59297Y-74360D01*
X-57564Y-73642D01*
X-55964Y-72662D01*
X-54538Y-71444D01*
X-53320Y-70017D01*
X-52340Y-68418D01*
X-51622Y-66685D01*
X-51184Y-64861D01*
X-51037Y-62991D01*
X-51184Y-61121D01*
X-51622Y-59297D01*
X-52340Y-57564D01*
X-53320Y-55964D01*
X-54538Y-54538D01*
X-55964Y-53320D01*
X-57564Y-52340D01*
X-59297Y-51622D01*
X-61121Y-51184D01*
X-62991Y-51037D01*
D02*
G37*
G36*
X62992Y-51038D02*
X61122Y-51185D01*
X59298Y-51623D01*
X57565Y-52341D01*
X55966Y-53321D01*
X54539Y-54539D01*
X53321Y-55966D01*
X52341Y-57565D01*
X51623Y-59298D01*
X51185Y-61122D01*
X51038Y-62992D01*
X51185Y-64862D01*
X51623Y-66686D01*
X52341Y-68419D01*
X53321Y-70019D01*
X54539Y-71445D01*
X55966Y-72663D01*
X57565Y-73643D01*
X59298Y-74361D01*
X61122Y-74799D01*
X62992Y-74946D01*
X64862Y-74799D01*
X66686Y-74361D01*
X68419Y-73643D01*
X70019Y-72663D01*
X71445Y-71445D01*
X72663Y-70019D01*
X73643Y-68419D01*
X74361Y-66686D01*
X74799Y-64862D01*
X74946Y-62992D01*
X74799Y-61122D01*
X74361Y-59298D01*
X73643Y-57565D01*
X72663Y-55966D01*
X71445Y-54539D01*
X70019Y-53321D01*
X68419Y-52341D01*
X66686Y-51623D01*
X64862Y-51185D01*
X62992Y-51038D01*
D02*
G37*
G36*
X5906Y-72209D02*
X5365Y-72317D01*
X4906Y-72623D01*
X4600Y-73081D01*
X4493Y-73622D01*
X4600Y-74163D01*
X4906Y-74621D01*
X5365Y-74927D01*
X5906Y-75035D01*
X6446Y-74927D01*
X6905Y-74621D01*
X7211Y-74163D01*
X7318Y-73622D01*
X7211Y-73081D01*
X6905Y-72623D01*
X6446Y-72317D01*
X5906Y-72209D01*
D02*
G37*
G36*
X-5906D02*
X-6446Y-72317D01*
X-6905Y-72623D01*
X-7211Y-73081D01*
X-7318Y-73622D01*
X-7211Y-74163D01*
X-6905Y-74621D01*
X-6446Y-74927D01*
X-5906Y-75035D01*
X-5365Y-74927D01*
X-4906Y-74621D01*
X-4600Y-74163D01*
X-4493Y-73622D01*
X-4600Y-73081D01*
X-4906Y-72623D01*
X-5365Y-72317D01*
X-5906Y-72209D01*
D02*
G37*
%LPD*%
D10*
X30000Y53875D02*
G03*
X29832Y53976I-487J-619D01*
G01*
X40945Y44893D02*
G03*
X40646Y45510I-787J0D01*
G01*
X40718Y-8892D02*
G03*
X40945Y-8340I-561J553D01*
G01*
X20263Y58187D02*
G03*
X19882Y58251I-317J-721D01*
G01*
X10764Y57844D02*
G03*
X11474Y57519I639J460D01*
G01*
X30378Y56254D02*
G03*
X30247Y56330I-463J-637D01*
G01*
X43470Y46390D02*
G03*
X37328Y51206I-24614J-25073D01*
G01*
X20316Y60914D02*
G03*
X19823Y60970I-330J-715D01*
G01*
X43701Y45834D02*
G03*
X43470Y46390I-787J0D01*
G01*
X-7732Y75363D02*
G03*
X-8445Y75558I-540J-573D01*
G01*
X-19916Y73021D02*
G03*
X-19985Y73003I167J-770D01*
G01*
X-32677Y9449D02*
X-22047D01*
X-11024Y-1575D01*
X-3543D02*
X-1181Y-3937D01*
X-11024Y-1575D02*
X-3543D01*
X-17717Y7480D02*
Y9449D01*
X-10236Y0D02*
X-2602D01*
X-17717Y7480D02*
X-10236Y0D01*
X598Y-3354D02*
X787Y-3543D01*
X598Y-3354D02*
Y-3200D01*
X-2602Y0D02*
X598Y-3200D01*
X-1181Y-6693D02*
X787Y-4724D01*
Y-3543D01*
X60630Y-21260D02*
X62598Y-7874D01*
X29830Y53977D02*
X29832Y53976D01*
X40644Y45512D02*
X40646Y45510D01*
X40945Y-8340D02*
Y44893D01*
X40945Y-8340D02*
X40945Y-8340D01*
X20079Y-29921D02*
X40718Y-8892D01*
X19878Y58250D02*
X19882Y58251D01*
X11474Y57519D02*
X19878Y58250D01*
X10762Y57846D02*
X10764Y57844D01*
X30000Y53875D02*
X40644Y45512D01*
X9055Y60236D02*
X10762Y57846D01*
X20263Y58187D02*
X29830Y53977D01*
X30245Y56332D02*
X30247Y56330D01*
X37328Y51206D02*
X37328Y51206D01*
X37240Y51235D02*
X37328Y51206D01*
X37328Y51206D02*
X37328Y51206D01*
X30378Y56254D02*
X37328Y51206D01*
X12598Y59449D02*
X19823Y60970D01*
X20316Y60914D02*
X30245Y56332D01*
X43701Y-9449D02*
Y45834D01*
X43470Y46390D02*
X43470Y46390D01*
X20079Y-33071D02*
X43701Y-9449D01*
X20079Y-36220D02*
X45669D01*
X60630Y-21260D01*
X62598Y-7874D02*
Y13780D01*
X-74515Y-3923D02*
X-74312Y15801D01*
X-74515Y-3923D02*
X-68718Y-6974D01*
X-74312Y15801D02*
X-71844Y17134D01*
X-65740Y13780D02*
X-61827Y25802D01*
X-70866Y13780D02*
X-65740D01*
X-67192Y-2493D02*
X-65354Y-15354D01*
X-72441Y1575D02*
X-71260D01*
X-67192Y-2493D01*
X-68718Y-6974D02*
X-68474Y-7218D01*
X-68423Y-7439D01*
X-66474Y-15914D02*
X-61817Y-29069D01*
X-61660Y-29389D01*
X-54731Y-41029D01*
X-47033Y-49248D02*
X-46890Y-49528D01*
Y-49798D02*
Y-49528D01*
X-46907Y-49877D02*
X-46890Y-49798D01*
X-37587Y-66069D02*
X-26729Y-70796D01*
X-48171Y-55958D02*
X-46907Y-49877D01*
X-68423Y-7439D02*
X-66474Y-15914D01*
X-54731Y-41029D02*
X-47033Y-49248D01*
X43175Y-51176D02*
X43520Y-51000D01*
X43845Y-51105D02*
X43859Y-51110D01*
X50760Y-53651D01*
X43520Y-51000D02*
X43845Y-51105D01*
X-7732Y75363D02*
X-7729Y75360D01*
X-5905Y73622D01*
X-19916Y73021D02*
X-8445Y75558D01*
X34742Y-57283D02*
X34804Y-57252D01*
X34854Y-57215D01*
X43175Y-51176D01*
X22021Y-63454D02*
X22101Y-63415D01*
X34742Y-57283D01*
X8598Y-66544D02*
X8675Y-66526D01*
X22021Y-63454D01*
X-5593Y-66900D02*
X-5515Y-66898D01*
X8598Y-66544D01*
X-19167Y-64539D02*
X-18908Y-64584D01*
X-19508Y-64713D02*
X-19167Y-64539D01*
X-24550Y-69659D02*
X-19508Y-64713D01*
X-18908Y-64584D02*
X-5593Y-66900D01*
X22108Y-64731D02*
X32304Y-59949D01*
X32941Y-60024D02*
X38334Y-63106D01*
X8897Y-67724D02*
X22108Y-64731D01*
X32871Y-59984D02*
X32941Y-60024D01*
X8544Y-67774D02*
X8897Y-67724D01*
X32614Y-59900D02*
X32871Y-59984D01*
X-5406Y-68138D02*
X8544Y-67774D01*
X32304Y-59949D02*
X32614Y-59900D01*
X-14603Y-67510D02*
X-14295Y-67353D01*
X-14069Y-67373D01*
X-5406Y-68138D01*
X-20235Y-72996D02*
X-14603Y-67510D01*
X-25801Y-71124D02*
X-20235Y-72996D01*
X-26729Y-70796D02*
X-26702Y-70805D01*
X-25801Y-71124D01*
X-37846Y-65956D02*
X-37587Y-66069D01*
X-38026Y-65602D02*
X-37846Y-65956D01*
X-38083Y-65293D02*
X-38026Y-65602D01*
X-38496Y-63033D02*
X-38083Y-65293D01*
X61952Y25631D02*
X62013Y25247D01*
X61952Y25631D02*
X62153Y25907D01*
X62162Y25919D01*
X66711Y31697D01*
X65204Y15409D02*
X65215Y15340D01*
X65185Y15467D02*
X65204Y15409D01*
X62013Y25247D02*
X65185Y15467D01*
X67141Y1423D02*
X67153Y1335D01*
X65215Y15340D02*
X67141Y1423D01*
X65944Y-12386D02*
X65951Y-12307D01*
X67153Y1335D01*
X61898Y-25992D02*
X61920Y-25918D01*
X65944Y-12386D01*
X55457Y-38172D02*
X55580Y-37940D01*
X55457Y-38172D02*
X55517Y-38551D01*
X58663Y-44874D01*
X55580Y-37940D02*
X61898Y-25992D01*
X66998Y12198D02*
X68395Y1024D01*
X67265Y12780D02*
X71863Y16957D01*
X67159Y-12466D02*
X68395Y1024D01*
X67206Y12726D02*
X67265Y12780D01*
X67098Y-12818D02*
X67159Y-12466D01*
X67047Y12508D02*
X67206Y12726D01*
X63133Y-26198D02*
X67098Y-12818D01*
X66998Y12198D02*
X67047Y12508D01*
X59639Y-34408D02*
X59693Y-34749D01*
X59639Y-34408D02*
X59728Y-34200D01*
X63133Y-26198D01*
X59693Y-34749D02*
X63170Y-41802D01*
X59670Y-46516D02*
X63170Y-41802D01*
X59071Y-47298D02*
X59088Y-47275D01*
X59670Y-46516D01*
X51033Y-56375D02*
X51220Y-56163D01*
X50640Y-56437D02*
X51033Y-56375D01*
X50329Y-56395D02*
X50640Y-56437D01*
X48052Y-56090D02*
X50329Y-56395D01*
X51220Y-56163D02*
X59071Y-47298D01*
X-5232Y66840D02*
X-4849Y66779D01*
X-5432Y67116D02*
X-5232Y66840D01*
X-5441Y67129D02*
X-5432Y67116D01*
X-9530Y73241D02*
X-5441Y67129D01*
X5495Y66774D02*
X5563Y66764D01*
X5433Y66774D02*
X5495Y66774D01*
X-4849Y66779D02*
X5433Y66774D01*
X19394Y64294D02*
X19482Y64279D01*
X5563Y66764D02*
X19394Y64294D01*
X32085Y58920D02*
X32158Y58889D01*
X19482Y64279D02*
X32085Y58920D01*
X43784Y50880D02*
X43848Y50836D01*
X32158Y58889D02*
X43784Y50880D01*
X53258Y41135D02*
X53441Y40947D01*
X53820Y40887D01*
X60806Y41925D01*
X43848Y50836D02*
X53258Y41135D01*
X9103Y67488D02*
X20162Y65363D01*
X6080Y73586D02*
X8631Y67923D01*
X20162Y65363D02*
X32609Y60019D01*
X8631Y67923D02*
X8664Y67849D01*
X32609Y60019D02*
X32925Y59853D01*
X8664Y67849D02*
X8823Y67630D01*
X32925Y59853D02*
X44424Y51947D01*
X8823Y67630D02*
X9103Y67488D01*
X51153Y46088D02*
X51495Y46033D01*
X50983Y46236D02*
X51153Y46088D01*
X44424Y51947D02*
X50983Y46236D01*
X51495Y46033D02*
X59276Y47161D01*
X62679Y42375D01*
X63221Y41587D02*
X63237Y41564D01*
X62679Y42375D02*
X63221Y41587D01*
X69242Y31358D02*
X69385Y31114D01*
X69323Y30722D02*
X69385Y31114D01*
X69187Y30439D02*
X69323Y30722D01*
X68194Y28367D02*
X69187Y30439D01*
X63237Y41564D02*
X69242Y31358D01*
X-61808Y25860D02*
X-61777Y25922D01*
X-61827Y25802D02*
X-61808Y25860D01*
X-55154Y38313D02*
X-55112Y38392D01*
X-61777Y25922D02*
X-55154Y38313D01*
X-46121Y48721D02*
X-46069Y48781D01*
X-55112Y38392D02*
X-46121Y48721D01*
X-34860Y57363D02*
X-34798Y57411D01*
X-46069Y48781D02*
X-34860Y57363D01*
X-22664Y63363D02*
X-22429Y63479D01*
X-22255Y63820D01*
X-21083Y70785D01*
X-34798Y57411D02*
X-22664Y63363D01*
X-61372Y29512D02*
X-55934Y39373D01*
X-68105Y28522D02*
X-61931Y29198D01*
X-55934Y39373D02*
X-47005Y49560D01*
X-61931Y29198D02*
X-61851Y29207D01*
X-47005Y49560D02*
X-46749Y49809D01*
X-61851Y29207D02*
X-61594Y29290D01*
X-46749Y49809D02*
X-35677Y58303D01*
X-61594Y29290D02*
X-61372Y29512D01*
X-28025Y62892D02*
X-27868Y63200D01*
X-28218Y62775D02*
X-28025Y62892D01*
X-35677Y58303D02*
X-28218Y62775D01*
X-27868Y63200D02*
X-26535Y70949D01*
X-19985Y73003D01*
X-65328Y-15428D02*
X-60630Y-28740D01*
X-65354Y-15354D02*
X-65328Y-15428D01*
X-60589Y-28808D02*
X-53543Y-40551D01*
X-60630Y-28740D02*
X-60589Y-28808D01*
X-53482Y-40615D02*
X-43744Y-50743D01*
X-53543Y-40551D02*
X-53482Y-40615D01*
X-43644Y-50828D02*
X-35329Y-56876D01*
X-43694Y-50792D02*
X-43644Y-50828D01*
X-43744Y-50743D02*
X-43694Y-50792D01*
X-35340Y-64855D02*
X-35056Y-57507D01*
X-35055Y-57491D01*
Y-57150D01*
X-35329Y-56876D02*
X-35055Y-57150D01*
D60*
X-15039Y42731D02*
D03*
X-15039Y52967D02*
D03*
D61*
X14961Y42731D02*
D03*
Y52967D02*
D03*
D62*
X-25984Y787D02*
D03*
X-29796Y19767D02*
D03*
X47244Y70866D02*
D03*
X70472Y47244D02*
D03*
X70866Y-47244D02*
D03*
X47244Y-70866D02*
D03*
X-45276D02*
D03*
X-70866Y-47244D02*
D03*
Y45276D02*
D03*
X-45276Y70866D02*
D03*
X12205Y7480D02*
D03*
X43307Y-17323D02*
D03*
Y-26772D02*
D03*
X12598Y59449D02*
D03*
X9055Y60236D02*
D03*
X62598Y13780D02*
D03*
X10236Y-15354D02*
D03*
X18110Y25197D02*
D03*
X32677Y2362D02*
D03*
X-17717Y9449D02*
D03*
X-32677D02*
D03*
X-1181Y-6693D02*
D03*
Y-3937D02*
D03*
X-33071Y24409D02*
D03*
X9843Y-40551D02*
D03*
X20079Y-36220D02*
D03*
Y-33071D02*
D03*
Y-29921D02*
D03*
X33071Y19291D02*
D03*
X-70866Y13780D02*
D03*
X-72441Y1575D02*
D03*
X50760Y-53651D02*
D03*
X12978Y26904D02*
D03*
X-37008Y-10630D02*
D03*
X-3937Y-3937D02*
D03*
X-10236Y-18898D02*
D03*
X-56693Y12992D02*
D03*
X56693Y-13780D02*
D03*
Y-4331D02*
D03*
Y13780D02*
D03*
Y4331D02*
D03*
X-56693Y-14567D02*
D03*
Y-4331D02*
D03*
X-39370Y-22835D02*
D03*
X-56693Y4331D02*
D03*
X-10837Y-32677D02*
D03*
X-19291Y-33071D02*
D03*
X48052Y-56090D02*
D03*
X38496Y-63033D02*
D03*
X58663Y-44874D02*
D03*
X68194Y28367D02*
D03*
X71844Y17134D02*
D03*
X60806Y41925D02*
D03*
X66711Y31697D02*
D03*
X-5906Y73622D02*
D03*
X5906D02*
D03*
X-21083Y70785D02*
D03*
X-9530Y73241D02*
D03*
X-71844Y17134D02*
D03*
X-68194Y28367D02*
D03*
X-24550Y-69659D02*
D03*
X-35340Y-64855D02*
D03*
X-48171Y-55958D02*
D03*
X-38583Y-62992D02*
D03*
D66*
X2165Y-31693D02*
D03*
Y-36024D02*
D03*
X-2165Y-31693D02*
D03*
Y-36024D02*
D03*
M02*
