G04*
G04 #@! TF.GenerationSoftware,Altium Limited,Altium Designer,20.0.9 (164)*
G04*
G04 Layer_Color=8421504*
%FSLAX25Y25*%
%MOIN*%
G70*
G01*
G75*
%ADD14R,0.09449X0.02992*%
%ADD15R,0.02500X0.02500*%
%ADD16R,0.03937X0.04921*%
G04:AMPARAMS|DCode=17|XSize=20.47mil|YSize=22.05mil|CornerRadius=5.12mil|HoleSize=0mil|Usage=FLASHONLY|Rotation=0.000|XOffset=0mil|YOffset=0mil|HoleType=Round|Shape=RoundedRectangle|*
%AMROUNDEDRECTD17*
21,1,0.02047,0.01181,0,0,0.0*
21,1,0.01024,0.02205,0,0,0.0*
1,1,0.01024,0.00512,-0.00591*
1,1,0.01024,-0.00512,-0.00591*
1,1,0.01024,-0.00512,0.00591*
1,1,0.01024,0.00512,0.00591*
%
%ADD17ROUNDEDRECTD17*%
%ADD18C,0.03937*%
G04:AMPARAMS|DCode=19|XSize=20.47mil|YSize=22.05mil|CornerRadius=5.12mil|HoleSize=0mil|Usage=FLASHONLY|Rotation=90.000|XOffset=0mil|YOffset=0mil|HoleType=Round|Shape=RoundedRectangle|*
%AMROUNDEDRECTD19*
21,1,0.02047,0.01181,0,0,90.0*
21,1,0.01024,0.02205,0,0,90.0*
1,1,0.01024,0.00591,0.00512*
1,1,0.01024,0.00591,-0.00512*
1,1,0.01024,-0.00591,-0.00512*
1,1,0.01024,-0.00591,0.00512*
%
%ADD19ROUNDEDRECTD19*%
%ADD20R,0.03543X0.02835*%
%ADD21R,0.03150X0.02165*%
G04:AMPARAMS|DCode=22|XSize=23.62mil|YSize=11.81mil|CornerRadius=0mil|HoleSize=0mil|Usage=FLASHONLY|Rotation=135.000|XOffset=0mil|YOffset=0mil|HoleType=Round|Shape=Rectangle|*
%AMROTATEDRECTD22*
4,1,4,0.01253,-0.00418,0.00418,-0.01253,-0.01253,0.00418,-0.00418,0.01253,0.01253,-0.00418,0.0*
%
%ADD22ROTATEDRECTD22*%

G04:AMPARAMS|DCode=23|XSize=23.62mil|YSize=11.81mil|CornerRadius=0mil|HoleSize=0mil|Usage=FLASHONLY|Rotation=45.000|XOffset=0mil|YOffset=0mil|HoleType=Round|Shape=Rectangle|*
%AMROTATEDRECTD23*
4,1,4,-0.00418,-0.01253,-0.01253,-0.00418,0.00418,0.01253,0.01253,0.00418,-0.00418,-0.01253,0.0*
%
%ADD23ROTATEDRECTD23*%

%ADD24R,0.09449X0.06693*%
%ADD25R,0.01181X0.03347*%
%ADD26R,0.11024X0.11024*%
%ADD27R,0.02520X0.00866*%
%ADD28R,0.00866X0.02520*%
%ADD29R,0.02835X0.03543*%
%ADD30R,0.02756X0.02165*%
D14*
X-24020Y9386D02*
D03*
X-39020D02*
D03*
X-24020Y14386D02*
D03*
X-39020D02*
D03*
X-24020Y19386D02*
D03*
X-39020D02*
D03*
X-24020Y24386D02*
D03*
X-39020D02*
D03*
X-24020Y29386D02*
D03*
X-39020D02*
D03*
X-24020Y34386D02*
D03*
X-39020D02*
D03*
X38980Y9386D02*
D03*
X23980D02*
D03*
X38980Y14386D02*
D03*
X23980D02*
D03*
X38980Y19386D02*
D03*
X23980D02*
D03*
X38980Y24386D02*
D03*
X23980D02*
D03*
X38980Y29386D02*
D03*
X23980D02*
D03*
X38980Y34386D02*
D03*
X23980D02*
D03*
D15*
X-14567Y27134D02*
D03*
Y31134D02*
D03*
D16*
X36220Y3051D02*
D03*
X36220Y-27461D02*
D03*
D17*
X17087Y-42520D02*
D03*
X13622D02*
D03*
X17087Y-39370D02*
D03*
X13622D02*
D03*
X17087Y-45669D02*
D03*
X13622D02*
D03*
X17087Y-36220D02*
D03*
X13622D02*
D03*
X17087Y-33071D02*
D03*
X13622D02*
D03*
X17087Y-29921D02*
D03*
X13622D02*
D03*
X-18661Y-25984D02*
D03*
X-15197D02*
D03*
X-18661Y-22835D02*
D03*
X-15197D02*
D03*
X-13622Y-33071D02*
D03*
X-17087D02*
D03*
X-13622Y-42520D02*
D03*
X-17087D02*
D03*
X-13622Y-39370D02*
D03*
X-17087D02*
D03*
X-13622Y-36220D02*
D03*
X-17087D02*
D03*
D18*
X-12992Y7087D02*
D03*
X-13780Y12205D02*
D03*
D19*
X-39370Y-2205D02*
D03*
Y-5669D02*
D03*
Y-13937D02*
D03*
Y-10472D02*
D03*
X10340Y23321D02*
D03*
Y26785D02*
D03*
X7191Y23321D02*
D03*
Y26785D02*
D03*
X11915Y33636D02*
D03*
Y30171D02*
D03*
X-10630Y-12047D02*
D03*
Y-15512D02*
D03*
X-7480D02*
D03*
Y-12047D02*
D03*
X-3937Y-22205D02*
D03*
Y-18740D02*
D03*
X-7480Y-22205D02*
D03*
Y-18740D02*
D03*
X6693Y-47874D02*
D03*
Y-51339D02*
D03*
X3543Y-47874D02*
D03*
Y-51339D02*
D03*
X394Y-47874D02*
D03*
Y-51339D02*
D03*
X-2756Y-47874D02*
D03*
Y-51339D02*
D03*
X-5906Y-47874D02*
D03*
Y-51339D02*
D03*
X-9055Y-47874D02*
D03*
Y-51339D02*
D03*
X-24016Y-32047D02*
D03*
Y-28583D02*
D03*
X56693Y-16220D02*
D03*
Y-19685D02*
D03*
Y-6535D02*
D03*
Y-10000D02*
D03*
Y6535D02*
D03*
Y10000D02*
D03*
Y16378D02*
D03*
Y19842D02*
D03*
X-39370Y-25039D02*
D03*
Y-28504D02*
D03*
X-56693Y16378D02*
D03*
Y19842D02*
D03*
Y6535D02*
D03*
Y10000D02*
D03*
Y-6535D02*
D03*
Y-10000D02*
D03*
Y-16772D02*
D03*
Y-20236D02*
D03*
D20*
X7978Y34896D02*
D03*
X7978Y30171D02*
D03*
D21*
X3431Y26037D02*
D03*
X3431Y29778D02*
D03*
X3431Y33518D02*
D03*
X-6412Y26037D02*
D03*
X-6412Y33518D02*
D03*
D22*
X-10022Y1670D02*
D03*
X-8630Y3062D02*
D03*
X-7238Y4454D02*
D03*
X-5846Y5846D02*
D03*
X-4454Y7238D02*
D03*
X-3062Y8630D02*
D03*
X-1670Y10022D02*
D03*
X10022Y-1670D02*
D03*
X8630Y-3062D02*
D03*
X7238Y-4454D02*
D03*
X5846Y-5846D02*
D03*
X4454Y-7238D02*
D03*
X3062Y-8630D02*
D03*
X1670Y-10022D02*
D03*
D23*
Y10022D02*
D03*
X3062Y8630D02*
D03*
X4454Y7238D02*
D03*
X5846Y5846D02*
D03*
X7238Y4454D02*
D03*
X8630Y3062D02*
D03*
X10022Y1670D02*
D03*
X-1670Y-10022D02*
D03*
X-3062Y-8630D02*
D03*
X-4454Y-7238D02*
D03*
X-5846Y-5846D02*
D03*
X-7238Y-4454D02*
D03*
X-8630Y-3062D02*
D03*
X-10022Y-1670D02*
D03*
D24*
X-30118Y-8268D02*
D03*
D25*
X-34055Y-2559D02*
D03*
X-32087D02*
D03*
X-30118D02*
D03*
X-28150D02*
D03*
X-26181D02*
D03*
Y-13976D02*
D03*
X-28150D02*
D03*
X-30118D02*
D03*
X-32087D02*
D03*
X-34055D02*
D03*
D26*
X0Y-33858D02*
D03*
D27*
X-7579Y-39370D02*
D03*
Y-37795D02*
D03*
Y-36220D02*
D03*
Y-34646D02*
D03*
Y-33071D02*
D03*
Y-31496D02*
D03*
Y-29921D02*
D03*
Y-28346D02*
D03*
X7579D02*
D03*
Y-29921D02*
D03*
Y-31496D02*
D03*
Y-33071D02*
D03*
Y-34646D02*
D03*
Y-36220D02*
D03*
Y-37795D02*
D03*
Y-39370D02*
D03*
D28*
X-5512Y-26280D02*
D03*
X-3937D02*
D03*
X-2362D02*
D03*
X-787D02*
D03*
X787D02*
D03*
X2362D02*
D03*
X3937D02*
D03*
X5512D02*
D03*
Y-41437D02*
D03*
X3937D02*
D03*
X2362D02*
D03*
X787D02*
D03*
X-787D02*
D03*
X-2362D02*
D03*
X-3937D02*
D03*
X-5512D02*
D03*
D29*
X17717Y-14173D02*
D03*
X12992Y-14173D02*
D03*
D30*
X-35630Y-28346D02*
D03*
X-27362Y-24606D02*
D03*
Y-32087D02*
D03*
M02*
