G04*
G04 #@! TF.GenerationSoftware,Altium Limited,Altium Designer,20.0.9 (164)*
G04*
G04 Layer_Color=16711935*
%FSLAX25Y25*%
%MOIN*%
G70*
G01*
G75*
%ADD10C,0.00787*%
%ADD100C,0.00197*%
D10*
X64960Y-76772D02*
G03*
X76771Y-64961I0J11811D01*
G01*
X-76772D02*
G03*
X-64961Y-76772I11811J0D01*
G01*
Y76772D02*
G03*
X-76772Y64961I0J-11811D01*
G01*
X76771D02*
G03*
X64960Y76772I-11811J0D01*
G01*
X0Y-76771D02*
X64960D01*
X76771Y64961D02*
X76771Y-64961D01*
X0Y76771D02*
X64960D01*
X-64961Y76771D02*
X0Y76771D01*
X-76772Y64961D02*
X-76771Y-64961D01*
X-64961Y-76771D02*
X0Y-76771D01*
D100*
Y68898D02*
X2Y68896D01*
X-65526Y21291D02*
X-65523Y21292D01*
X-40483Y-55707D02*
X-40482Y-55710D01*
X40494Y-55739D02*
X40497Y-55739D01*
X65524Y21288D02*
X65526Y21291D01*
X-14325Y67392D02*
X-14322Y67391D01*
X-68520Y7202D02*
X-68518Y7203D01*
X-28024Y-62939D02*
X-28023Y-62941D01*
X51198Y-46102D02*
X51201Y-46101D01*
X59666Y34446D02*
X59667Y34449D01*
X-28023Y62941D02*
X-28021Y62940D01*
X-68520Y-7202D02*
X-68519Y-7200D01*
X-14326Y-67390D02*
X-14325Y-67392D01*
X59664Y-34449D02*
X59667Y-34449D01*
X51201Y46099D02*
X51201Y46101D01*
X-40497Y55739D02*
X-40494Y55739D01*
X-65527Y-21280D02*
X-65525Y-21277D01*
X-2Y-68896D02*
X0Y-68898D01*
X65523Y-21292D02*
X65526Y-21291D01*
X40497Y55739D02*
X40497Y55737D01*
X-51201Y46101D02*
X-51198Y46102D01*
X-59667Y-34449D02*
X-59666Y-34446D01*
X14322Y-67391D02*
X14325Y-67392D01*
X68518Y-7203D02*
X68520Y-7202D01*
X28023Y62941D02*
X28024Y62939D01*
X-59667Y34449D02*
X-59664Y34449D01*
X-51201Y-46101D02*
X-51201Y-46099D01*
X28021Y-62940D02*
X28023Y-62941D01*
X68519Y7200D02*
X68520Y7202D01*
X14325Y67392D02*
X14326Y67390D01*
M02*
