G04*
G04 #@! TF.GenerationSoftware,Altium Limited,Altium Designer,20.0.9 (164)*
G04*
G04 Layer_Physical_Order=3*
G04 Layer_Color=16440176*
%FSLAX25Y25*%
%MOIN*%
G70*
G01*
G75*
%ADD10C,0.00787*%
%ADD57C,0.01181*%
%ADD60C,0.05906*%
%ADD62C,0.01772*%
%ADD64C,0.02362*%
%ADD67C,0.00591*%
G36*
X8359Y66106D02*
X22122Y62801D01*
X31827Y58452D01*
X31827Y58452D01*
X32104Y58328D01*
X32239Y58297D01*
X32372Y58260D01*
X32392Y58262D01*
X32412Y58258D01*
X32548Y58281D01*
X32685Y58297D01*
X33080Y58425D01*
X33179Y58481D01*
X33284Y58525D01*
X37997Y61719D01*
X38496Y61620D01*
X39037Y61727D01*
X39495Y62033D01*
X39802Y62492D01*
X39857Y62770D01*
X40498Y63124D01*
X40675Y63151D01*
X47546Y58205D01*
X47529Y57810D01*
X47413Y57331D01*
X47052Y57089D01*
X46746Y56631D01*
X46639Y56090D01*
X46746Y55550D01*
X46942Y55257D01*
X45124Y49466D01*
X45118Y49406D01*
X45097Y49350D01*
X45037Y48970D01*
X45037Y48970D01*
X45044Y48797D01*
X45049Y48655D01*
X45181Y48368D01*
X45181Y48368D01*
X45399Y48069D01*
X45432Y48038D01*
X45455Y48000D01*
X54723Y37828D01*
X54857Y37591D01*
X61459Y25914D01*
X65454Y12478D01*
X66563Y-1633D01*
X65426Y-12207D01*
X65394Y-12509D01*
X65406Y-12646D01*
X65412Y-12784D01*
X65420Y-12803D01*
X65422Y-12823D01*
X65486Y-12946D01*
X65544Y-13071D01*
X65788Y-13407D01*
X65871Y-13484D01*
X65946Y-13570D01*
X70444Y-17068D01*
X70431Y-17134D01*
X70538Y-17675D01*
X70845Y-18133D01*
X71303Y-18439D01*
X71844Y-18547D01*
X72013Y-18513D01*
X72637Y-19145D01*
X70049Y-27232D01*
X69193Y-27368D01*
X68735Y-27062D01*
X68194Y-26954D01*
X67653Y-27062D01*
X67195Y-27368D01*
X67060Y-27569D01*
X61047Y-27629D01*
X60989Y-27630D01*
X60930Y-27642D01*
X60870Y-27640D01*
X60491Y-27700D01*
X60194Y-27809D01*
X60092Y-27904D01*
X59963Y-28023D01*
X59963Y-28024D01*
X59745Y-28323D01*
X59726Y-28364D01*
X59697Y-28398D01*
X52887Y-40355D01*
X52703Y-40556D01*
X43638Y-50443D01*
X32094Y-58395D01*
X19017Y-63810D01*
X8608Y-65996D01*
X8608D01*
X8311Y-66059D01*
X8184Y-66113D01*
X8055Y-66161D01*
X8040Y-66175D01*
X8021Y-66183D01*
X7925Y-66281D01*
X7823Y-66375D01*
X7579Y-66711D01*
X7532Y-66814D01*
X7473Y-66911D01*
X5531Y-72284D01*
X5365Y-72317D01*
X4906Y-72623D01*
X4600Y-73081D01*
X4493Y-73622D01*
X4530Y-73808D01*
X4014Y-74596D01*
X-4014D01*
X-4530Y-73808D01*
X-4493Y-73622D01*
X-4600Y-73081D01*
X-4906Y-72623D01*
X-5365Y-72317D01*
X-5586Y-72273D01*
X-7757Y-67001D01*
X-7757Y-67001D01*
X-7757Y-67001D01*
X-7817Y-66855D01*
X-7817Y-66854D01*
X-7817Y-66854D01*
X-7906Y-66721D01*
X-7992Y-66592D01*
X-7992Y-66592D01*
X-7993Y-66591D01*
X-8266Y-66318D01*
X-8325Y-66278D01*
X-8374Y-66227D01*
X-8455Y-66191D01*
X-8529Y-66142D01*
X-8598Y-66128D01*
X-8663Y-66100D01*
X-19044Y-63793D01*
X-31883Y-58346D01*
X-43174Y-50170D01*
X-52896Y-40447D01*
X-59893Y-28398D01*
X-59930Y-28334D01*
X-59986Y-28270D01*
X-60029Y-28198D01*
X-60089Y-28153D01*
X-60139Y-28097D01*
X-60215Y-28060D01*
X-60283Y-28009D01*
X-60355Y-27991D01*
X-60422Y-27958D01*
X-60507Y-27953D01*
X-60589Y-27932D01*
X-67030Y-27604D01*
X-67196Y-27356D01*
X-67654Y-27050D01*
X-68195Y-26942D01*
X-68736Y-27050D01*
X-69055Y-27263D01*
X-69688Y-27204D01*
X-69980Y-27114D01*
X-71280Y-24143D01*
X-72576Y-19175D01*
X-71934Y-18517D01*
X-71845Y-18535D01*
X-71304Y-18428D01*
X-70846Y-18121D01*
X-70539Y-17663D01*
X-70432Y-17122D01*
X-70439Y-17087D01*
X-65629Y-13518D01*
X-65629Y-13518D01*
X-65583Y-13483D01*
X-65543Y-13439D01*
X-65493Y-13406D01*
X-65221Y-13134D01*
X-65046Y-12871D01*
X-64984Y-12562D01*
X-64984Y-12562D01*
Y-12192D01*
X-64993Y-12148D01*
X-64989Y-12103D01*
X-66509Y1574D01*
X-64954Y15171D01*
X-60289Y28390D01*
X-52893Y40458D01*
X-45757Y48344D01*
X-45757Y48344D01*
X-45554Y48569D01*
X-45483Y48687D01*
X-45406Y48802D01*
X-45402Y48823D01*
X-45392Y48840D01*
X-45372Y48977D01*
X-45345Y49112D01*
Y49527D01*
X-45367Y49639D01*
X-45377Y49752D01*
X-46960Y55229D01*
X-46746Y55550D01*
X-46639Y56090D01*
X-46746Y56631D01*
X-47052Y57089D01*
X-47386Y57312D01*
X-47510Y57862D01*
X-47509Y58198D01*
X-40677Y63209D01*
X-40415Y63148D01*
X-39868Y62826D01*
X-39802Y62492D01*
X-39495Y62033D01*
X-39037Y61727D01*
X-38496Y61620D01*
X-38035Y61711D01*
X-33101Y58201D01*
X-33046Y58177D01*
X-32999Y58140D01*
X-32656Y57965D01*
X-32353Y57880D01*
X-32039Y57917D01*
X-32039Y57917D01*
X-31687Y58031D01*
X-31648Y58053D01*
X-31604Y58063D01*
X-19067Y63735D01*
X-18800Y63789D01*
X-5654Y66459D01*
X8359Y66106D01*
D02*
G37*
%LPC*%
G36*
X9055Y61649D02*
X8514Y61542D01*
X8056Y61235D01*
X7750Y60777D01*
X7642Y60236D01*
X7750Y59696D01*
X8056Y59237D01*
X8514Y58931D01*
X9055Y58823D01*
X9596Y58931D01*
X10054Y59237D01*
X10361Y59696D01*
X10468Y60236D01*
X10361Y60777D01*
X10054Y61235D01*
X9596Y61542D01*
X9055Y61649D01*
D02*
G37*
G36*
X12598Y60862D02*
X12058Y60754D01*
X11599Y60448D01*
X11293Y59990D01*
X11186Y59449D01*
X11293Y58908D01*
X11599Y58450D01*
X12058Y58143D01*
X12598Y58036D01*
X13139Y58143D01*
X13598Y58450D01*
X13904Y58908D01*
X14011Y59449D01*
X13904Y59990D01*
X13598Y60448D01*
X13139Y60754D01*
X12598Y60862D01*
D02*
G37*
G36*
X18313Y56320D02*
X11608D01*
Y49615D01*
X18313D01*
Y56320D01*
D02*
G37*
G36*
X-15039Y56349D02*
X-15915Y56234D01*
X-16730Y55896D01*
X-17431Y55359D01*
X-17968Y54658D01*
X-18306Y53843D01*
X-18421Y52967D01*
X-18306Y52092D01*
X-17968Y51277D01*
X-17431Y50576D01*
X-16730Y50039D01*
X-15915Y49701D01*
X-15039Y49586D01*
X-14164Y49701D01*
X-13349Y50039D01*
X-12648Y50576D01*
X-12111Y51277D01*
X-11773Y52092D01*
X-11658Y52967D01*
X-11773Y53843D01*
X-12111Y54658D01*
X-12648Y55359D01*
X-13349Y55896D01*
X-14164Y56234D01*
X-15039Y56349D01*
D02*
G37*
G36*
X4961D02*
X4085Y56234D01*
X3270Y55896D01*
X2569Y55359D01*
X2032Y54658D01*
X1694Y53843D01*
X1579Y52967D01*
X1694Y52092D01*
X2032Y51277D01*
X2569Y50576D01*
X3270Y50039D01*
X3951Y49757D01*
Y45942D01*
X3270Y45660D01*
X2569Y45122D01*
X2032Y44422D01*
X1750Y43741D01*
X-1829D01*
X-2111Y44422D01*
X-2648Y45122D01*
X-3348Y45660D01*
X-4029Y45942D01*
Y49757D01*
X-3348Y50039D01*
X-2648Y50576D01*
X-2111Y51277D01*
X-1773Y52092D01*
X-1658Y52967D01*
X-1773Y53843D01*
X-2111Y54658D01*
X-2648Y55359D01*
X-3348Y55896D01*
X-4164Y56234D01*
X-5039Y56349D01*
X-5915Y56234D01*
X-6730Y55896D01*
X-7431Y55359D01*
X-7968Y54658D01*
X-8306Y53843D01*
X-8421Y52967D01*
X-8306Y52092D01*
X-7968Y51277D01*
X-7431Y50576D01*
X-6730Y50039D01*
X-6049Y49757D01*
Y46283D01*
X-6837Y45957D01*
X-9232Y48352D01*
X-9559Y48571D01*
X-9946Y48648D01*
X-21235D01*
X-25664Y53076D01*
X-25991Y53295D01*
X-26378Y53372D01*
X-33465D01*
X-33851Y53295D01*
X-34179Y53076D01*
X-40872Y46383D01*
X-41091Y46056D01*
X-41167Y45669D01*
Y26496D01*
X-41955Y26170D01*
X-48632Y32847D01*
X-48587Y33071D01*
X-48695Y33612D01*
X-49001Y34070D01*
X-49459Y34376D01*
X-50000Y34484D01*
X-50541Y34376D01*
X-50999Y34070D01*
X-51305Y33612D01*
X-51413Y33071D01*
X-51305Y32530D01*
X-50999Y32072D01*
X-50541Y31765D01*
X-50000Y31658D01*
X-49669Y31278D01*
X-50005Y30497D01*
X-50869D01*
X-50996Y30687D01*
X-51454Y30993D01*
X-51995Y31101D01*
X-52535Y30993D01*
X-52994Y30687D01*
X-53300Y30229D01*
X-53408Y29688D01*
X-53300Y29147D01*
X-53140Y28907D01*
X-53543Y28185D01*
X-54084Y28077D01*
X-54542Y27771D01*
X-54849Y27312D01*
X-54956Y26772D01*
X-54849Y26231D01*
X-54542Y25773D01*
X-54084Y25466D01*
X-53543Y25359D01*
X-53003Y25466D01*
X-52544Y25773D01*
X-52417Y25962D01*
X-48760D01*
X-47901Y25104D01*
X-48348Y24436D01*
X-48765Y24609D01*
X-50000Y24771D01*
X-51235Y24609D01*
X-52386Y24132D01*
X-53374Y23374D01*
X-54132Y22386D01*
X-54609Y21235D01*
X-54772Y20000D01*
X-54609Y18765D01*
X-54132Y17614D01*
X-53374Y16626D01*
X-52386Y15868D01*
X-51235Y15391D01*
Y14609D01*
X-52386Y14132D01*
X-53374Y13374D01*
X-54132Y12386D01*
X-54609Y11235D01*
X-54772Y10000D01*
X-54609Y8765D01*
X-54132Y7614D01*
X-53374Y6626D01*
X-52386Y5868D01*
X-51235Y5391D01*
Y4609D01*
X-52386Y4132D01*
X-53374Y3374D01*
X-54132Y2386D01*
X-54609Y1235D01*
X-54772Y0D01*
X-54609Y-1235D01*
X-54132Y-2386D01*
X-53374Y-3374D01*
X-52386Y-4132D01*
X-51235Y-4609D01*
Y-5391D01*
X-52386Y-5868D01*
X-53374Y-6626D01*
X-54132Y-7614D01*
X-54609Y-8765D01*
X-54772Y-10000D01*
X-54609Y-11235D01*
X-54132Y-12386D01*
X-53374Y-13374D01*
X-52386Y-14132D01*
X-51235Y-14609D01*
Y-15391D01*
X-52386Y-15868D01*
X-53374Y-16626D01*
X-54132Y-17614D01*
X-54609Y-18765D01*
X-54772Y-20000D01*
X-54609Y-21235D01*
X-54132Y-22386D01*
X-53374Y-23374D01*
X-52386Y-24132D01*
X-51235Y-24609D01*
X-50000Y-24771D01*
X-48765Y-24609D01*
X-47614Y-24132D01*
X-46626Y-23374D01*
X-46085Y-22669D01*
X-45297Y-22936D01*
Y-33071D01*
X-45297Y-33071D01*
X-45236Y-33381D01*
X-45060Y-33643D01*
X-39155Y-39549D01*
X-39155Y-39549D01*
X-38892Y-39724D01*
X-38583Y-39786D01*
X-38583Y-39786D01*
X-33172D01*
X-32647Y-40485D01*
X-32648Y-40573D01*
X-33655Y-41345D01*
X-34476Y-42416D01*
X-34993Y-43662D01*
X-35169Y-45000D01*
X-34993Y-46338D01*
X-34476Y-47584D01*
X-33655Y-48655D01*
X-32584Y-49476D01*
X-31338Y-49992D01*
X-30000Y-50169D01*
X-28662Y-49992D01*
X-27416Y-49476D01*
X-26345Y-48655D01*
X-25524Y-47584D01*
X-25008Y-46338D01*
X-24831Y-45000D01*
X-24987Y-43820D01*
X-24700Y-43366D01*
X-24398Y-43076D01*
X-24194Y-43092D01*
X-23932Y-43267D01*
X-23622Y-43329D01*
X-23622Y-43329D01*
X-20811D01*
X-20684Y-43519D01*
X-20226Y-43825D01*
X-19685Y-43933D01*
X-19144Y-43825D01*
X-18686Y-43519D01*
X-18380Y-43060D01*
X-18272Y-42520D01*
X-18380Y-41979D01*
X-18686Y-41521D01*
X-18893Y-41382D01*
X-18910Y-41333D01*
Y-40557D01*
X-18893Y-40507D01*
X-18686Y-40369D01*
X-18380Y-39911D01*
X-18272Y-39370D01*
X-18380Y-38829D01*
X-18686Y-38371D01*
X-18893Y-38233D01*
X-18910Y-38184D01*
Y-37407D01*
X-18893Y-37358D01*
X-18686Y-37220D01*
X-18380Y-36761D01*
X-18272Y-36220D01*
X-18380Y-35680D01*
X-18686Y-35221D01*
X-18749Y-35179D01*
X-18750Y-34806D01*
X-18642Y-34304D01*
X-18292Y-34070D01*
X-17986Y-33612D01*
X-17878Y-33071D01*
X-17986Y-32530D01*
X-18292Y-32072D01*
X-18751Y-31765D01*
X-19291Y-31658D01*
X-19832Y-31765D01*
X-20290Y-32072D01*
X-20597Y-32530D01*
X-20704Y-33071D01*
X-20597Y-33612D01*
X-20290Y-34070D01*
X-20227Y-34113D01*
X-20226Y-34485D01*
X-20334Y-34988D01*
X-20684Y-35221D01*
X-20811Y-35411D01*
X-37645D01*
X-41304Y-31752D01*
Y-23852D01*
X-40517Y-23613D01*
X-40369Y-23834D01*
X-39911Y-24140D01*
X-39370Y-24248D01*
X-38829Y-24140D01*
X-38371Y-23834D01*
X-38065Y-23375D01*
X-37957Y-22835D01*
X-38065Y-22294D01*
X-38371Y-21836D01*
X-38829Y-21529D01*
X-39370Y-21422D01*
X-39911Y-21529D01*
X-40369Y-21836D01*
X-40517Y-22056D01*
X-41304Y-21817D01*
Y164D01*
X-40517Y403D01*
X-40369Y182D01*
X-39911Y-124D01*
X-39370Y-232D01*
X-38829Y-124D01*
X-38371Y182D01*
X-38065Y640D01*
X-37957Y1181D01*
X-38065Y1722D01*
X-38360Y2164D01*
Y3309D01*
X-38437Y3696D01*
X-38656Y4024D01*
X-39147Y4515D01*
Y45251D01*
X-33046Y51352D01*
X-26796D01*
X-22368Y46924D01*
X-22040Y46705D01*
X-21654Y46628D01*
X-16451D01*
X-16294Y45840D01*
X-16730Y45660D01*
X-17431Y45122D01*
X-17968Y44422D01*
X-18306Y43606D01*
X-18421Y42731D01*
X-18306Y41856D01*
X-17968Y41040D01*
X-17431Y40340D01*
X-16730Y39803D01*
X-15915Y39465D01*
X-15039Y39350D01*
X-14164Y39465D01*
X-13349Y39803D01*
X-12648Y40340D01*
X-12111Y41040D01*
X-11773Y41856D01*
X-11658Y42731D01*
X-11773Y43606D01*
X-12111Y44422D01*
X-12648Y45122D01*
X-13349Y45660D01*
X-13784Y45840D01*
X-13628Y46628D01*
X-10364D01*
X-8024Y44287D01*
X-8306Y43606D01*
X-8421Y42731D01*
X-8306Y41856D01*
X-7968Y41040D01*
X-7431Y40340D01*
X-6730Y39803D01*
X-5915Y39465D01*
X-5039Y39349D01*
X-4164Y39465D01*
X-3348Y39803D01*
X-2648Y40340D01*
X-2111Y41040D01*
X-1829Y41721D01*
X1750D01*
X2032Y41040D01*
X2569Y40340D01*
X3270Y39803D01*
X4085Y39465D01*
X4961Y39349D01*
X5836Y39465D01*
X6651Y39803D01*
X7181Y40209D01*
X21431Y25960D01*
Y-11850D01*
X20866Y-12459D01*
X20210Y-12590D01*
X19654Y-12961D01*
X19283Y-13517D01*
X19152Y-14173D01*
X19283Y-14829D01*
X19654Y-15385D01*
X20210Y-15757D01*
X20866Y-15887D01*
X21522Y-15757D01*
X22078Y-15385D01*
X22450Y-14829D01*
X22580Y-14173D01*
X22533Y-13935D01*
X23155Y-13313D01*
X23374Y-12985D01*
X23451Y-12598D01*
Y26378D01*
X23374Y26764D01*
X23155Y27092D01*
X11656Y38591D01*
X11982Y39378D01*
X12240Y39378D01*
X18313D01*
Y46084D01*
X11608D01*
Y40033D01*
X11608Y39753D01*
X10820Y39427D01*
X8246Y42001D01*
X8342Y42731D01*
X8227Y43606D01*
X7889Y44422D01*
X7352Y45122D01*
X6651Y45660D01*
X5971Y45942D01*
Y49757D01*
X6651Y50039D01*
X7352Y50576D01*
X7889Y51277D01*
X8227Y52092D01*
X8342Y52967D01*
X8227Y53843D01*
X7889Y54658D01*
X7352Y55359D01*
X6651Y55896D01*
X5836Y56234D01*
X4961Y56349D01*
D02*
G37*
G36*
X30000Y50169D02*
X28662Y49992D01*
X27416Y49476D01*
X26345Y48655D01*
X25524Y47584D01*
X25008Y46338D01*
X24831Y45000D01*
X25008Y43662D01*
X25524Y42416D01*
X26345Y41345D01*
X27416Y40524D01*
X28662Y40007D01*
X30000Y39831D01*
X31338Y40007D01*
X32584Y40524D01*
X33655Y41345D01*
X34476Y42416D01*
X34993Y43662D01*
X35169Y45000D01*
X34993Y46338D01*
X34476Y47584D01*
X33655Y48655D01*
X32584Y49476D01*
X31338Y49992D01*
X30000Y50169D01*
D02*
G37*
G36*
X-30000D02*
X-31338Y49992D01*
X-32584Y49476D01*
X-33655Y48655D01*
X-34476Y47584D01*
X-34993Y46338D01*
X-35169Y45000D01*
X-34993Y43662D01*
X-34476Y42416D01*
X-33655Y41345D01*
X-32584Y40524D01*
X-31338Y40007D01*
X-30000Y39831D01*
X-28662Y40007D01*
X-27416Y40524D01*
X-26345Y41345D01*
X-25524Y42416D01*
X-25008Y43662D01*
X-24831Y45000D01*
X-25008Y46338D01*
X-25524Y47584D01*
X-26345Y48655D01*
X-27416Y49476D01*
X-28662Y49992D01*
X-30000Y50169D01*
D02*
G37*
G36*
X33071Y35665D02*
X32530Y35557D01*
X32072Y35251D01*
X31934Y35044D01*
X31884Y35027D01*
X31108D01*
X31059Y35044D01*
X30920Y35251D01*
X30462Y35557D01*
X29921Y35665D01*
X29381Y35557D01*
X28922Y35251D01*
X28616Y34793D01*
X28508Y34252D01*
X28616Y33711D01*
X28922Y33253D01*
X29381Y32947D01*
X29921Y32839D01*
X30462Y32947D01*
X30920Y33253D01*
X31059Y33460D01*
X31108Y33477D01*
X31884D01*
X31934Y33460D01*
X32072Y33253D01*
X32530Y32947D01*
X33071Y32839D01*
X33612Y32947D01*
X34070Y33253D01*
X34376Y33711D01*
X34484Y34252D01*
X34376Y34793D01*
X34070Y35251D01*
X33612Y35557D01*
X33071Y35665D01*
D02*
G37*
G36*
X-32677Y36059D02*
X-33218Y35951D01*
X-33676Y35645D01*
X-33983Y35186D01*
X-34090Y34646D01*
X-33983Y34105D01*
X-33676Y33647D01*
X-33218Y33340D01*
X-32677Y33233D01*
X-32136Y33340D01*
X-31678Y33647D01*
X-31372Y34105D01*
X-31264Y34646D01*
X-31372Y35186D01*
X-31678Y35645D01*
X-32136Y35951D01*
X-32677Y36059D01*
D02*
G37*
G36*
X-14567Y35240D02*
X-15108Y35132D01*
X-15566Y34826D01*
X-15872Y34367D01*
X-15980Y33827D01*
X-15872Y33286D01*
X-15566Y32828D01*
X-15108Y32521D01*
X-14567Y32414D01*
X-14026Y32521D01*
X-13568Y32828D01*
X-13262Y33286D01*
X-13154Y33827D01*
X-13262Y34367D01*
X-13568Y34826D01*
X-14026Y35132D01*
X-14567Y35240D01*
D02*
G37*
G36*
X-11024Y34090D02*
X-11564Y33983D01*
X-12023Y33676D01*
X-12329Y33218D01*
X-12437Y32677D01*
X-12329Y32136D01*
X-12023Y31678D01*
X-11564Y31372D01*
X-11024Y31264D01*
X-10483Y31372D01*
X-10024Y31678D01*
X-9718Y32136D01*
X-9611Y32677D01*
X-9718Y33218D01*
X-10024Y33676D01*
X-10483Y33983D01*
X-11024Y34090D01*
D02*
G37*
G36*
X33071Y30547D02*
X32530Y30439D01*
X32072Y30133D01*
X31934Y29926D01*
X31884Y29909D01*
X31108D01*
X31059Y29926D01*
X30920Y30133D01*
X30462Y30439D01*
X29921Y30547D01*
X29381Y30439D01*
X28922Y30133D01*
X28616Y29675D01*
X28508Y29134D01*
X28616Y28593D01*
X28922Y28135D01*
X29381Y27828D01*
X29921Y27721D01*
X30462Y27828D01*
X30920Y28135D01*
X31059Y28342D01*
X31108Y28359D01*
X31884D01*
X31934Y28342D01*
X32072Y28135D01*
X32530Y27828D01*
X33071Y27721D01*
X33612Y27828D01*
X34070Y28135D01*
X34376Y28593D01*
X34484Y29134D01*
X34376Y29675D01*
X34070Y30133D01*
X33612Y30439D01*
X33071Y30547D01*
D02*
G37*
G36*
X-29921D02*
X-30462Y30439D01*
X-30920Y30133D01*
X-31059Y29926D01*
X-31108Y29909D01*
X-31884D01*
X-31934Y29926D01*
X-32072Y30133D01*
X-32530Y30439D01*
X-33071Y30547D01*
X-33612Y30439D01*
X-34070Y30133D01*
X-34376Y29675D01*
X-34484Y29134D01*
X-34376Y28593D01*
X-34070Y28135D01*
X-33612Y27828D01*
X-33071Y27721D01*
X-32530Y27828D01*
X-32072Y28135D01*
X-31934Y28342D01*
X-31884Y28359D01*
X-31108D01*
X-31059Y28342D01*
X-30920Y28135D01*
X-30462Y27828D01*
X-29921Y27721D01*
X-29381Y27828D01*
X-28922Y28135D01*
X-28616Y28593D01*
X-28508Y29134D01*
X-28616Y29675D01*
X-28922Y30133D01*
X-29381Y30439D01*
X-29921Y30547D01*
D02*
G37*
G36*
X12978Y28317D02*
X12437Y28209D01*
X11979Y27903D01*
X11672Y27444D01*
X11565Y26904D01*
X11672Y26363D01*
X11979Y25904D01*
X12437Y25598D01*
X12978Y25491D01*
X13519Y25598D01*
X13977Y25904D01*
X14283Y26363D01*
X14391Y26904D01*
X14283Y27444D01*
X13977Y27903D01*
X13519Y28209D01*
X12978Y28317D01*
D02*
G37*
G36*
X-29921Y25822D02*
X-30462Y25715D01*
X-30920Y25409D01*
X-31059Y25202D01*
X-31108Y25184D01*
X-31884D01*
X-31934Y25202D01*
X-32072Y25409D01*
X-32530Y25715D01*
X-33071Y25822D01*
X-33612Y25715D01*
X-34070Y25409D01*
X-34376Y24950D01*
X-34484Y24409D01*
X-34376Y23869D01*
X-34070Y23410D01*
X-33612Y23104D01*
X-33071Y22997D01*
X-32530Y23104D01*
X-32072Y23410D01*
X-31934Y23617D01*
X-31884Y23635D01*
X-31108D01*
X-31059Y23617D01*
X-30920Y23410D01*
X-30462Y23104D01*
X-29921Y22997D01*
X-29697Y23041D01*
X-28931Y22275D01*
X-29021Y21653D01*
X-29733Y21167D01*
X-29796Y21180D01*
X-30337Y21072D01*
X-30795Y20766D01*
X-31102Y20308D01*
X-31110Y20266D01*
X-31946Y20102D01*
X-32072Y20290D01*
X-32530Y20597D01*
X-33071Y20704D01*
X-33612Y20597D01*
X-34070Y20290D01*
X-34376Y19832D01*
X-34484Y19291D01*
X-34376Y18751D01*
X-34070Y18292D01*
X-33612Y17986D01*
X-33071Y17878D01*
X-32530Y17986D01*
X-32072Y18292D01*
X-31765Y18751D01*
X-31757Y18792D01*
X-30922Y18957D01*
X-30795Y18768D01*
X-30337Y18462D01*
X-29796Y18354D01*
X-29549Y18403D01*
X-28876Y17987D01*
X-28762Y17844D01*
Y16071D01*
X-28811Y16026D01*
X-29549Y15722D01*
X-29774Y15872D01*
X-30315Y15980D01*
X-30856Y15872D01*
X-31314Y15566D01*
X-32072D01*
X-32530Y15872D01*
X-33071Y15980D01*
X-33612Y15872D01*
X-34070Y15566D01*
X-34376Y15108D01*
X-34484Y14567D01*
X-34376Y14026D01*
X-34070Y13568D01*
X-33612Y13262D01*
X-33071Y13154D01*
X-32530Y13262D01*
X-32072Y13568D01*
X-31314D01*
X-30856Y13262D01*
X-30315Y13154D01*
X-29774Y13262D01*
X-29549Y13412D01*
X-28811Y13107D01*
X-28762Y13063D01*
Y5720D01*
X-29706Y4776D01*
X-29882Y4513D01*
X-29943Y4203D01*
X-29943Y4203D01*
Y1913D01*
X-30133Y1787D01*
X-30439Y1328D01*
X-30547Y787D01*
X-30439Y247D01*
X-30133Y-212D01*
X-29675Y-518D01*
X-29134Y-626D01*
X-28593Y-518D01*
X-28135Y-212D01*
X-27997Y-5D01*
X-27947Y13D01*
X-27171D01*
X-27122Y-5D01*
X-26983Y-212D01*
X-26525Y-518D01*
X-25984Y-626D01*
X-25444Y-518D01*
X-24985Y-212D01*
X-24679Y247D01*
X-24571Y787D01*
X-24679Y1328D01*
X-24985Y1787D01*
X-25444Y2093D01*
X-25984Y2200D01*
X-26525Y2093D01*
X-26983Y1787D01*
X-26986Y1783D01*
X-27837Y1714D01*
X-28325Y2193D01*
Y3868D01*
X-27381Y4812D01*
X-27380Y4812D01*
X-27205Y5075D01*
X-27143Y5384D01*
X-27143Y5384D01*
Y22441D01*
X-27143Y22441D01*
X-27205Y22751D01*
X-27380Y23013D01*
X-28553Y24185D01*
X-28508Y24409D01*
X-28616Y24950D01*
X-28922Y25409D01*
X-29381Y25715D01*
X-29921Y25822D01*
D02*
G37*
G36*
X18110Y26610D02*
X17570Y26502D01*
X17111Y26196D01*
X16805Y25738D01*
X16697Y25197D01*
X16805Y24656D01*
X17111Y24198D01*
X17570Y23891D01*
X18110Y23784D01*
X18651Y23891D01*
X19109Y24198D01*
X19416Y24656D01*
X19523Y25197D01*
X19416Y25738D01*
X19109Y26196D01*
X18651Y26502D01*
X18110Y26610D01*
D02*
G37*
G36*
X33071Y25822D02*
X32530Y25715D01*
X32072Y25409D01*
X31765Y24950D01*
X31658Y24409D01*
X31765Y23869D01*
X32072Y23410D01*
X32530Y23104D01*
X33071Y22997D01*
X33612Y23104D01*
X34070Y23410D01*
X34376Y23869D01*
X34484Y24409D01*
X34376Y24950D01*
X34070Y25409D01*
X33612Y25715D01*
X33071Y25822D01*
D02*
G37*
G36*
X-8661Y23854D02*
X-9202Y23746D01*
X-9661Y23440D01*
X-9967Y22982D01*
X-10074Y22441D01*
X-9967Y21900D01*
X-9661Y21442D01*
X-9202Y21136D01*
X-8661Y21028D01*
X-8121Y21136D01*
X-7662Y21442D01*
X-7356Y21900D01*
X-7248Y22441D01*
X-7356Y22982D01*
X-7662Y23440D01*
X-8121Y23746D01*
X-8661Y23854D01*
D02*
G37*
G36*
X33071Y20704D02*
X32530Y20597D01*
X32072Y20290D01*
X31934Y20084D01*
X31884Y20066D01*
X31108D01*
X31059Y20084D01*
X30920Y20290D01*
X30462Y20597D01*
X29921Y20704D01*
X29381Y20597D01*
X28922Y20290D01*
X28616Y19832D01*
X28508Y19291D01*
X28616Y18751D01*
X28922Y18292D01*
X29381Y17986D01*
X29921Y17878D01*
X30462Y17986D01*
X30920Y18292D01*
X31059Y18499D01*
X31108Y18517D01*
X31884D01*
X31934Y18499D01*
X32072Y18292D01*
X32530Y17986D01*
X33071Y17878D01*
X33612Y17986D01*
X34070Y18292D01*
X34376Y18751D01*
X34484Y19291D01*
X34376Y19832D01*
X34070Y20290D01*
X33612Y20597D01*
X33071Y20704D01*
D02*
G37*
G36*
X62598Y15192D02*
X62058Y15085D01*
X61599Y14779D01*
X61293Y14320D01*
X61185Y13780D01*
X61293Y13239D01*
X61599Y12780D01*
X62058Y12474D01*
X62598Y12367D01*
X63139Y12474D01*
X63598Y12780D01*
X63904Y13239D01*
X64011Y13780D01*
X63904Y14320D01*
X63598Y14779D01*
X63139Y15085D01*
X62598Y15192D01*
D02*
G37*
G36*
X56693D02*
X56152Y15085D01*
X55694Y14779D01*
X55388Y14320D01*
X55280Y13780D01*
X55388Y13239D01*
X55694Y12780D01*
X56152Y12474D01*
X56693Y12367D01*
X57234Y12474D01*
X57692Y12780D01*
X57998Y13239D01*
X58106Y13780D01*
X57998Y14320D01*
X57692Y14779D01*
X57234Y15085D01*
X56693Y15192D01*
D02*
G37*
G36*
X3150D02*
X2609Y15085D01*
X2151Y14779D01*
X1844Y14320D01*
X1737Y13780D01*
X1844Y13239D01*
X2151Y12780D01*
X2609Y12474D01*
X3150Y12367D01*
X3690Y12474D01*
X4149Y12780D01*
X4455Y13239D01*
X4563Y13780D01*
X4455Y14320D01*
X4149Y14779D01*
X3690Y15085D01*
X3150Y15192D01*
D02*
G37*
G36*
X-56693Y14405D02*
X-57234Y14298D01*
X-57692Y13991D01*
X-57998Y13533D01*
X-58106Y12992D01*
X-57998Y12451D01*
X-57692Y11993D01*
X-57234Y11687D01*
X-56693Y11579D01*
X-56152Y11687D01*
X-55694Y11993D01*
X-55388Y12451D01*
X-55280Y12992D01*
X-55388Y13533D01*
X-55694Y13991D01*
X-56152Y14298D01*
X-56693Y14405D01*
D02*
G37*
G36*
X33071Y10862D02*
X32530Y10754D01*
X32072Y10448D01*
X31934Y10241D01*
X31884Y10224D01*
X31108D01*
X31059Y10241D01*
X30920Y10448D01*
X30462Y10754D01*
X29921Y10862D01*
X29381Y10754D01*
X28922Y10448D01*
X28616Y9990D01*
X28508Y9449D01*
X28616Y8908D01*
X28922Y8450D01*
X29381Y8143D01*
X29921Y8036D01*
X30462Y8143D01*
X30920Y8450D01*
X31059Y8657D01*
X31108Y8674D01*
X31884D01*
X31934Y8657D01*
X32072Y8450D01*
X32530Y8143D01*
X33071Y8036D01*
X33612Y8143D01*
X34070Y8450D01*
X34376Y8908D01*
X34484Y9449D01*
X34376Y9990D01*
X34070Y10448D01*
X33612Y10754D01*
X33071Y10862D01*
D02*
G37*
G36*
X-13780Y14212D02*
X-14548Y14059D01*
X-15199Y13624D01*
X-15634Y12973D01*
X-15787Y12205D01*
X-15634Y11437D01*
X-15199Y10785D01*
X-14548Y10350D01*
X-13780Y10198D01*
X-13012Y10350D01*
X-12360Y10785D01*
X-11925Y11437D01*
X-11772Y12205D01*
X-11925Y12973D01*
X-12360Y13624D01*
X-13012Y14059D01*
X-13780Y14212D01*
D02*
G37*
G36*
X7087Y11649D02*
X6546Y11542D01*
X6087Y11235D01*
X5781Y10777D01*
X5674Y10236D01*
X5781Y9696D01*
X6087Y9237D01*
X6546Y8931D01*
X7087Y8823D01*
X7627Y8931D01*
X8086Y9237D01*
X8392Y9696D01*
X8500Y10236D01*
X8392Y10777D01*
X8086Y11235D01*
X7627Y11542D01*
X7087Y11649D01*
D02*
G37*
G36*
X-17717Y10862D02*
X-18257Y10754D01*
X-18716Y10448D01*
X-19022Y9990D01*
X-19129Y9449D01*
X-19022Y8908D01*
X-18716Y8450D01*
X-18257Y8143D01*
X-17717Y8036D01*
X-17176Y8143D01*
X-16717Y8450D01*
X-16411Y8908D01*
X-16304Y9449D01*
X-16411Y9990D01*
X-16717Y10448D01*
X-17176Y10754D01*
X-17717Y10862D01*
D02*
G37*
G36*
X-32677D02*
X-33218Y10754D01*
X-33676Y10448D01*
X-33983Y9990D01*
X-34090Y9449D01*
X-33983Y8908D01*
X-33676Y8450D01*
X-33218Y8143D01*
X-32677Y8036D01*
X-32136Y8143D01*
X-31678Y8450D01*
X-31372Y8908D01*
X-31264Y9449D01*
X-31372Y9990D01*
X-31678Y10448D01*
X-32136Y10754D01*
X-32677Y10862D01*
D02*
G37*
G36*
X12205Y8893D02*
X11664Y8786D01*
X11206Y8479D01*
X10899Y8021D01*
X10792Y7480D01*
X10899Y6940D01*
X11206Y6481D01*
X11664Y6175D01*
X12205Y6067D01*
X12745Y6175D01*
X13204Y6481D01*
X13510Y6940D01*
X13618Y7480D01*
X13510Y8021D01*
X13204Y8479D01*
X12745Y8786D01*
X12205Y8893D01*
D02*
G37*
G36*
X-12992Y9094D02*
X-13760Y8941D01*
X-14411Y8506D01*
X-14846Y7855D01*
X-14999Y7087D01*
X-14846Y6318D01*
X-14411Y5667D01*
X-13760Y5232D01*
X-12992Y5080D01*
X-12224Y5232D01*
X-11573Y5667D01*
X-11138Y6318D01*
X-10985Y7087D01*
X-11138Y7855D01*
X-11573Y8506D01*
X-12224Y8941D01*
X-12992Y9094D01*
D02*
G37*
G36*
X3937Y5350D02*
X3396Y5242D01*
X2938Y4936D01*
X2180D01*
X1722Y5242D01*
X1181Y5350D01*
X640Y5242D01*
X182Y4936D01*
X-124Y4478D01*
X-232Y3937D01*
X-124Y3396D01*
X182Y2938D01*
X640Y2632D01*
X1181Y2524D01*
X1722Y2632D01*
X2063Y2860D01*
X2668Y2668D01*
X2860Y2063D01*
X2632Y1722D01*
X2524Y1181D01*
X2632Y640D01*
X2938Y182D01*
X3396Y-124D01*
X3937Y-232D01*
X4478Y-124D01*
X4936Y182D01*
X5694D01*
X6152Y-124D01*
X6693Y-232D01*
X7234Y-124D01*
X7692Y182D01*
X7998Y640D01*
X8106Y1181D01*
X7998Y1722D01*
X7692Y2180D01*
X7234Y2486D01*
X6693Y2594D01*
X6152Y2486D01*
X5811Y2259D01*
X5206Y2450D01*
X5014Y3055D01*
X5242Y3396D01*
X5350Y3937D01*
X5242Y4478D01*
X4936Y4936D01*
X4478Y5242D01*
X3937Y5350D01*
D02*
G37*
G36*
X56693Y5744D02*
X56152Y5636D01*
X55694Y5330D01*
X55388Y4871D01*
X55280Y4331D01*
X55388Y3790D01*
X55694Y3332D01*
X56152Y3025D01*
X56693Y2918D01*
X57234Y3025D01*
X57692Y3332D01*
X57998Y3790D01*
X58106Y4331D01*
X57998Y4871D01*
X57692Y5330D01*
X57234Y5636D01*
X56693Y5744D01*
D02*
G37*
G36*
X-56693D02*
X-57234Y5636D01*
X-57692Y5330D01*
X-57998Y4871D01*
X-58106Y4331D01*
X-57998Y3790D01*
X-57692Y3332D01*
X-57234Y3025D01*
X-56693Y2918D01*
X-56152Y3025D01*
X-55694Y3332D01*
X-55388Y3790D01*
X-55280Y4331D01*
X-55388Y4871D01*
X-55694Y5330D01*
X-56152Y5636D01*
X-56693Y5744D01*
D02*
G37*
G36*
X-3937Y5350D02*
X-4478Y5242D01*
X-4936Y4936D01*
X-5242Y4478D01*
X-5350Y3937D01*
X-5242Y3396D01*
X-4936Y2938D01*
X-4478Y2632D01*
X-3937Y2524D01*
X-3396Y2632D01*
X-2938Y2938D01*
X-2632Y3396D01*
X-2524Y3937D01*
X-2632Y4478D01*
X-2938Y4936D01*
X-3396Y5242D01*
X-3937Y5350D01*
D02*
G37*
G36*
X32677Y3775D02*
X32136Y3668D01*
X31678Y3361D01*
X31372Y2903D01*
X31264Y2362D01*
X31372Y1822D01*
X31678Y1363D01*
X32136Y1057D01*
X32677Y949D01*
X33218Y1057D01*
X33676Y1363D01*
X33983Y1822D01*
X34090Y2362D01*
X33983Y2903D01*
X33676Y3361D01*
X33218Y3668D01*
X32677Y3775D01*
D02*
G37*
G36*
X-33071Y2200D02*
X-33612Y2093D01*
X-34070Y1787D01*
X-34376Y1328D01*
X-34484Y787D01*
X-34376Y247D01*
X-34070Y-212D01*
X-33612Y-518D01*
X-33071Y-626D01*
X-32530Y-518D01*
X-32072Y-212D01*
X-31765Y247D01*
X-31658Y787D01*
X-31765Y1328D01*
X-32072Y1787D01*
X-32530Y2093D01*
X-33071Y2200D01*
D02*
G37*
G36*
X14961Y-1737D02*
X14420Y-1844D01*
X13961Y-2151D01*
X13768Y-2440D01*
X13566Y-2618D01*
X12836Y-2692D01*
X12745Y-2632D01*
X12205Y-2524D01*
X11664Y-2632D01*
X11206Y-2938D01*
X10899Y-3396D01*
X10792Y-3937D01*
X10899Y-4478D01*
X11127Y-4819D01*
X10936Y-5424D01*
X10331Y-5616D01*
X9990Y-5387D01*
X9449Y-5280D01*
X8908Y-5387D01*
X8450Y-5694D01*
X8143Y-6152D01*
X8036Y-6693D01*
X8143Y-7234D01*
X8450Y-7692D01*
X8908Y-7998D01*
X9449Y-8106D01*
X9990Y-7998D01*
X10448Y-7692D01*
X11206D01*
X11664Y-7998D01*
X12205Y-8106D01*
X12745Y-7998D01*
X13204Y-7692D01*
X13510Y-7234D01*
X13618Y-6693D01*
X13510Y-6152D01*
X13204Y-5694D01*
Y-4936D01*
X13397Y-4647D01*
X13599Y-4469D01*
X14330Y-4395D01*
X14420Y-4455D01*
X14961Y-4563D01*
X15501Y-4455D01*
X15960Y-4149D01*
X16266Y-3690D01*
X16374Y-3150D01*
X16266Y-2609D01*
X15960Y-2151D01*
X15501Y-1844D01*
X14961Y-1737D01*
D02*
G37*
G36*
X56693Y-2918D02*
X56152Y-3025D01*
X55694Y-3332D01*
X55388Y-3790D01*
X55280Y-4331D01*
X55388Y-4871D01*
X55694Y-5330D01*
X56152Y-5636D01*
X56693Y-5744D01*
X57234Y-5636D01*
X57692Y-5330D01*
X57998Y-4871D01*
X58106Y-4331D01*
X57998Y-3790D01*
X57692Y-3332D01*
X57234Y-3025D01*
X56693Y-2918D01*
D02*
G37*
G36*
X-56693D02*
X-57234Y-3025D01*
X-57692Y-3332D01*
X-57998Y-3790D01*
X-58106Y-4331D01*
X-57998Y-4871D01*
X-57692Y-5330D01*
X-57234Y-5636D01*
X-56693Y-5744D01*
X-56152Y-5636D01*
X-55694Y-5330D01*
X-55388Y-4871D01*
X-55280Y-4331D01*
X-55388Y-3790D01*
X-55694Y-3332D01*
X-56152Y-3025D01*
X-56693Y-2918D01*
D02*
G37*
G36*
X-10630Y-3311D02*
X-11171Y-3419D01*
X-11629Y-3725D01*
X-11935Y-4184D01*
X-12043Y-4724D01*
X-11935Y-5265D01*
X-11629Y-5723D01*
X-11171Y-6030D01*
X-10630Y-6137D01*
X-10089Y-6030D01*
X-9631Y-5723D01*
X-9324Y-5265D01*
X-9217Y-4724D01*
X-9324Y-4184D01*
X-9631Y-3725D01*
X-10089Y-3419D01*
X-10630Y-3311D01*
D02*
G37*
G36*
X-3937Y-2524D02*
X-4478Y-2632D01*
X-4936Y-2938D01*
X-5242Y-3396D01*
X-5350Y-3937D01*
X-5242Y-4478D01*
X-4936Y-4936D01*
X-4478Y-5242D01*
X-3937Y-5350D01*
X-3396Y-5242D01*
X-3055Y-5014D01*
X-2450Y-5206D01*
X-2258Y-5811D01*
X-2486Y-6152D01*
X-2594Y-6693D01*
X-2486Y-7234D01*
X-2180Y-7692D01*
X-1722Y-7998D01*
X-1181Y-8106D01*
X-640Y-7998D01*
X-182Y-7692D01*
X124Y-7234D01*
X232Y-6693D01*
X124Y-6152D01*
X-182Y-5694D01*
Y-4936D01*
X124Y-4478D01*
X232Y-3937D01*
X124Y-3396D01*
X-182Y-2938D01*
X-640Y-2632D01*
X-1181Y-2524D01*
X-1722Y-2632D01*
X-2180Y-2938D01*
X-2938Y-2938D01*
X-3396Y-2632D01*
X-3937Y-2524D01*
D02*
G37*
G36*
X-21654Y-6067D02*
X-22194Y-6175D01*
X-22653Y-6481D01*
X-22959Y-6940D01*
X-23066Y-7480D01*
X-22959Y-8021D01*
X-22653Y-8479D01*
X-22194Y-8786D01*
X-21654Y-8893D01*
X-21113Y-8786D01*
X-20654Y-8479D01*
X-20348Y-8021D01*
X-20241Y-7480D01*
X-20348Y-6940D01*
X-20654Y-6481D01*
X-21113Y-6175D01*
X-21654Y-6067D01*
D02*
G37*
G36*
X7831Y-9253D02*
X7290Y-9361D01*
X6832Y-9667D01*
X6260Y-9902D01*
X5801Y-9596D01*
X5261Y-9488D01*
X4720Y-9596D01*
X4262Y-9902D01*
X3955Y-10360D01*
X3848Y-10901D01*
X3955Y-11442D01*
X4262Y-11900D01*
X4196Y-12472D01*
X3890Y-12931D01*
X3782Y-13471D01*
X3890Y-14012D01*
X4196Y-14470D01*
X4655Y-14777D01*
X5195Y-14884D01*
X5736Y-14777D01*
X6195Y-14470D01*
X6501Y-14012D01*
X6608Y-13471D01*
X6501Y-12931D01*
X6362Y-12722D01*
X6515Y-12163D01*
X7175Y-11895D01*
X7290Y-11972D01*
X7831Y-12079D01*
X8372Y-11972D01*
X8830Y-11665D01*
X9136Y-11207D01*
X9244Y-10666D01*
X9136Y-10125D01*
X8830Y-9667D01*
X8372Y-9361D01*
X7831Y-9253D01*
D02*
G37*
G36*
X-37008Y-9217D02*
X-37549Y-9324D01*
X-38007Y-9631D01*
X-38313Y-10089D01*
X-38421Y-10630D01*
X-38313Y-11171D01*
X-38007Y-11629D01*
X-37549Y-11935D01*
X-37008Y-12043D01*
X-36467Y-11935D01*
X-36009Y-11629D01*
X-35702Y-11171D01*
X-35595Y-10630D01*
X-35702Y-10089D01*
X-36009Y-9631D01*
X-36467Y-9324D01*
X-37008Y-9217D01*
D02*
G37*
G36*
X0Y-10398D02*
X-541Y-10506D01*
X-999Y-10812D01*
X-1305Y-11270D01*
X-1413Y-11811D01*
X-1305Y-12352D01*
X-999Y-12810D01*
X-541Y-13116D01*
X0Y-13224D01*
X541Y-13116D01*
X999Y-12810D01*
X1305Y-12352D01*
X1413Y-11811D01*
X1305Y-11270D01*
X999Y-10812D01*
X541Y-10506D01*
X0Y-10398D01*
D02*
G37*
G36*
X56693Y-12366D02*
X56152Y-12474D01*
X55694Y-12780D01*
X55388Y-13239D01*
X55280Y-13780D01*
X55388Y-14320D01*
X55694Y-14779D01*
X56152Y-15085D01*
X56693Y-15192D01*
X57234Y-15085D01*
X57692Y-14779D01*
X57998Y-14320D01*
X58106Y-13780D01*
X57998Y-13239D01*
X57692Y-12780D01*
X57234Y-12474D01*
X56693Y-12366D01*
D02*
G37*
G36*
X-56693Y-13154D02*
X-57234Y-13262D01*
X-57692Y-13568D01*
X-57998Y-14026D01*
X-58106Y-14567D01*
X-57998Y-15108D01*
X-57692Y-15566D01*
X-57234Y-15872D01*
X-56693Y-15980D01*
X-56152Y-15872D01*
X-55694Y-15566D01*
X-55388Y-15108D01*
X-55280Y-14567D01*
X-55388Y-14026D01*
X-55694Y-13568D01*
X-56152Y-13262D01*
X-56693Y-13154D01*
D02*
G37*
G36*
X10236Y-13941D02*
X9696Y-14049D01*
X9237Y-14355D01*
X8931Y-14814D01*
X8823Y-15354D01*
X8931Y-15895D01*
X9237Y-16353D01*
X9696Y-16660D01*
X10236Y-16767D01*
X10777Y-16660D01*
X11235Y-16353D01*
X11542Y-15895D01*
X11649Y-15354D01*
X11542Y-14814D01*
X11235Y-14355D01*
X10777Y-14049D01*
X10236Y-13941D01*
D02*
G37*
G36*
X-26149Y-16284D02*
X-26689Y-16392D01*
X-27148Y-16698D01*
X-27454Y-17156D01*
X-27562Y-17697D01*
X-27552Y-17747D01*
X-28141Y-18389D01*
X-28177Y-18390D01*
X-28770Y-17799D01*
X-28756Y-17728D01*
X-28863Y-17188D01*
X-29170Y-16729D01*
X-29628Y-16423D01*
X-30169Y-16315D01*
X-30709Y-16423D01*
X-31168Y-16729D01*
X-31474Y-17188D01*
X-31582Y-17728D01*
X-31521Y-18033D01*
X-31928Y-18582D01*
X-32122Y-18716D01*
X-32167Y-18707D01*
X-32708Y-18815D01*
X-33166Y-19121D01*
X-33472Y-19579D01*
X-33580Y-20120D01*
X-33472Y-20661D01*
X-33166Y-21119D01*
X-32708Y-21426D01*
X-32167Y-21533D01*
X-31626Y-21426D01*
X-31168Y-21119D01*
X-30861Y-20661D01*
X-30754Y-20120D01*
X-30175Y-19605D01*
X-29598Y-20129D01*
X-29491Y-20670D01*
X-29184Y-21128D01*
X-28726Y-21435D01*
X-28185Y-21542D01*
X-27644Y-21435D01*
X-27186Y-21128D01*
X-26880Y-20670D01*
X-26772Y-20129D01*
X-26843Y-19775D01*
X-26490Y-19268D01*
X-26268Y-19086D01*
X-26149Y-19110D01*
X-25608Y-19003D01*
X-25150Y-18696D01*
X-24843Y-18238D01*
X-24736Y-17697D01*
X-24843Y-17156D01*
X-25150Y-16698D01*
X-25608Y-16392D01*
X-26149Y-16284D01*
D02*
G37*
G36*
X43307Y-15910D02*
X42766Y-16017D01*
X42308Y-16324D01*
X42002Y-16782D01*
X41894Y-17323D01*
X42002Y-17864D01*
X42308Y-18322D01*
X42766Y-18628D01*
X43307Y-18736D01*
X43848Y-18628D01*
X44306Y-18322D01*
X44613Y-17864D01*
X44720Y-17323D01*
X44613Y-16782D01*
X44306Y-16324D01*
X43848Y-16017D01*
X43307Y-15910D01*
D02*
G37*
G36*
X-10236Y-17485D02*
X-10777Y-17592D01*
X-11235Y-17898D01*
X-11542Y-18357D01*
X-11649Y-18898D01*
X-11542Y-19438D01*
X-11235Y-19897D01*
X-10777Y-20203D01*
X-10236Y-20311D01*
X-9696Y-20203D01*
X-9237Y-19897D01*
X-8931Y-19438D01*
X-8823Y-18898D01*
X-8931Y-18357D01*
X-9237Y-17898D01*
X-9696Y-17592D01*
X-10236Y-17485D01*
D02*
G37*
G36*
X-18801Y-18125D02*
X-19342Y-18232D01*
X-19801Y-18538D01*
X-20107Y-18997D01*
X-20214Y-19537D01*
X-20107Y-20078D01*
X-19801Y-20537D01*
X-19342Y-20843D01*
X-18801Y-20951D01*
X-18261Y-20843D01*
X-17802Y-20537D01*
X-17496Y-20078D01*
X-17389Y-19537D01*
X-17496Y-18997D01*
X-17802Y-18538D01*
X-18261Y-18232D01*
X-18801Y-18125D01*
D02*
G37*
G36*
X50000Y24771D02*
X48765Y24609D01*
X47614Y24132D01*
X46626Y23374D01*
X45868Y22386D01*
X45391Y21235D01*
X45228Y20000D01*
X45391Y18765D01*
X45868Y17614D01*
X46626Y16626D01*
X47614Y15868D01*
X48765Y15391D01*
Y14609D01*
X47614Y14132D01*
X46626Y13374D01*
X45868Y12386D01*
X45391Y11235D01*
X45228Y10000D01*
X45391Y8765D01*
X45868Y7614D01*
X46626Y6626D01*
X47614Y5868D01*
X48765Y5391D01*
Y4609D01*
X47614Y4132D01*
X46626Y3374D01*
X45868Y2386D01*
X45391Y1235D01*
X45228Y0D01*
X45391Y-1235D01*
X45868Y-2386D01*
X46626Y-3374D01*
X47614Y-4132D01*
X48765Y-4609D01*
Y-5391D01*
X47614Y-5868D01*
X46626Y-6626D01*
X45868Y-7614D01*
X45391Y-8765D01*
X45228Y-10000D01*
X45391Y-11235D01*
X45868Y-12386D01*
X46626Y-13374D01*
X47614Y-14132D01*
X48765Y-14609D01*
Y-15391D01*
X47614Y-15868D01*
X46626Y-16626D01*
X45868Y-17614D01*
X45391Y-18765D01*
X45228Y-20000D01*
X45391Y-21235D01*
X45868Y-22386D01*
X46626Y-23374D01*
X47614Y-24132D01*
X48765Y-24609D01*
X50000Y-24771D01*
X51235Y-24609D01*
X52386Y-24132D01*
X53374Y-23374D01*
X54132Y-22386D01*
X54609Y-21235D01*
X54772Y-20000D01*
X54609Y-18765D01*
X54132Y-17614D01*
X53374Y-16626D01*
X52386Y-15868D01*
X51235Y-15391D01*
Y-14609D01*
X52386Y-14132D01*
X53374Y-13374D01*
X54132Y-12386D01*
X54609Y-11235D01*
X54772Y-10000D01*
X54609Y-8765D01*
X54132Y-7614D01*
X53374Y-6626D01*
X52386Y-5868D01*
X51235Y-5391D01*
Y-4609D01*
X52386Y-4132D01*
X53374Y-3374D01*
X54132Y-2386D01*
X54609Y-1235D01*
X54772Y0D01*
X54609Y1235D01*
X54132Y2386D01*
X53374Y3374D01*
X52386Y4132D01*
X51235Y4609D01*
Y5391D01*
X52386Y5868D01*
X53374Y6626D01*
X54132Y7614D01*
X54609Y8765D01*
X54772Y10000D01*
X54609Y11235D01*
X54132Y12386D01*
X53374Y13374D01*
X52386Y14132D01*
X51235Y14609D01*
Y15391D01*
X52386Y15868D01*
X53374Y16626D01*
X54132Y17614D01*
X54609Y18765D01*
X54772Y20000D01*
X54609Y21235D01*
X54132Y22386D01*
X53374Y23374D01*
X52386Y24132D01*
X51235Y24609D01*
X50000Y24771D01*
D02*
G37*
G36*
X43307Y-25359D02*
X42766Y-25466D01*
X42308Y-25773D01*
X42002Y-26231D01*
X41894Y-26772D01*
X42002Y-27312D01*
X42308Y-27771D01*
X42766Y-28077D01*
X43307Y-28185D01*
X43848Y-28077D01*
X44306Y-27771D01*
X44613Y-27312D01*
X44720Y-26772D01*
X44613Y-26231D01*
X44306Y-25773D01*
X43848Y-25466D01*
X43307Y-25359D01*
D02*
G37*
G36*
X-15354Y-26934D02*
X-15895Y-27041D01*
X-16353Y-27347D01*
X-16660Y-27806D01*
X-16767Y-28346D01*
X-16660Y-28887D01*
X-16353Y-29346D01*
X-15895Y-29652D01*
X-15354Y-29759D01*
X-14814Y-29652D01*
X-14355Y-29346D01*
X-14049Y-28887D01*
X-13941Y-28346D01*
X-14049Y-27806D01*
X-14355Y-27347D01*
X-14814Y-27041D01*
X-15354Y-26934D01*
D02*
G37*
G36*
X2165Y-30180D02*
X1586Y-30295D01*
X1095Y-30623D01*
X767Y-31114D01*
X652Y-31693D01*
X767Y-32272D01*
X1095Y-32763D01*
X1586Y-33091D01*
X2165Y-33206D01*
X2744Y-33091D01*
X3235Y-32763D01*
X3563Y-32272D01*
X3679Y-31693D01*
X3563Y-31114D01*
X3235Y-30623D01*
X2744Y-30295D01*
X2165Y-30180D01*
D02*
G37*
G36*
X-2165D02*
X-2744Y-30295D01*
X-3235Y-30623D01*
X-3563Y-31114D01*
X-3679Y-31693D01*
X-3563Y-32272D01*
X-3235Y-32763D01*
X-2744Y-33091D01*
X-2165Y-33206D01*
X-1586Y-33091D01*
X-1095Y-32763D01*
X-767Y-32272D01*
X-652Y-31693D01*
X-767Y-31114D01*
X-1095Y-30623D01*
X-1586Y-30295D01*
X-2165Y-30180D01*
D02*
G37*
G36*
X-10837Y-31264D02*
X-11378Y-31371D01*
X-11837Y-31678D01*
X-12143Y-32136D01*
X-12250Y-32677D01*
X-12143Y-33217D01*
X-11837Y-33676D01*
X-11378Y-33982D01*
X-10837Y-34090D01*
X-10297Y-33982D01*
X-9838Y-33676D01*
X-9532Y-33217D01*
X-9425Y-32677D01*
X-9532Y-32136D01*
X-9838Y-31678D01*
X-10297Y-31371D01*
X-10837Y-31264D01*
D02*
G37*
G36*
X2165Y-34510D02*
X1586Y-34626D01*
X1095Y-34953D01*
X767Y-35445D01*
X652Y-36024D01*
X767Y-36603D01*
X1095Y-37094D01*
X1586Y-37422D01*
X2165Y-37537D01*
X2744Y-37422D01*
X3235Y-37094D01*
X3563Y-36603D01*
X3679Y-36024D01*
X3563Y-35445D01*
X3235Y-34953D01*
X2744Y-34626D01*
X2165Y-34510D01*
D02*
G37*
G36*
X-2165D02*
X-2744Y-34626D01*
X-3235Y-34953D01*
X-3563Y-35445D01*
X-3679Y-36024D01*
X-3563Y-36603D01*
X-3235Y-37094D01*
X-2744Y-37422D01*
X-2165Y-37537D01*
X-1586Y-37422D01*
X-1095Y-37094D01*
X-767Y-36603D01*
X-652Y-36024D01*
X-767Y-35445D01*
X-1095Y-34953D01*
X-1586Y-34626D01*
X-2165Y-34510D01*
D02*
G37*
G36*
X9843Y-39138D02*
X9302Y-39246D01*
X8843Y-39552D01*
X8537Y-40010D01*
X8429Y-40551D01*
X8537Y-41092D01*
X8843Y-41550D01*
X9302Y-41857D01*
X9843Y-41964D01*
X10383Y-41857D01*
X10842Y-41550D01*
X11148Y-41092D01*
X11255Y-40551D01*
X11148Y-40010D01*
X10842Y-39552D01*
X10383Y-39246D01*
X9843Y-39138D01*
D02*
G37*
G36*
X20079Y-28508D02*
X19538Y-28616D01*
X19080Y-28922D01*
X18773Y-29381D01*
X18666Y-29921D01*
X18773Y-30462D01*
X19080Y-30920D01*
X19286Y-31059D01*
X19304Y-31108D01*
Y-31884D01*
X19286Y-31934D01*
X19080Y-32072D01*
X18773Y-32530D01*
X18666Y-33071D01*
X18773Y-33612D01*
X19080Y-34070D01*
X19286Y-34208D01*
X19304Y-34257D01*
Y-35034D01*
X19286Y-35083D01*
X19080Y-35221D01*
X18773Y-35680D01*
X18666Y-36220D01*
X18773Y-36761D01*
X19080Y-37220D01*
X19286Y-37358D01*
X19304Y-37407D01*
Y-38184D01*
X19286Y-38233D01*
X19080Y-38371D01*
X18773Y-38829D01*
X18666Y-39370D01*
X18773Y-39911D01*
X19080Y-40369D01*
X19286Y-40507D01*
X19304Y-40557D01*
Y-41333D01*
X19286Y-41382D01*
X19080Y-41521D01*
X18773Y-41979D01*
X18666Y-42520D01*
X18773Y-43060D01*
X19080Y-43519D01*
X19286Y-43657D01*
X19304Y-43706D01*
Y-44483D01*
X19286Y-44532D01*
X19080Y-44670D01*
X18773Y-45129D01*
X18666Y-45669D01*
X18773Y-46210D01*
X19080Y-46668D01*
X19538Y-46975D01*
X20079Y-47082D01*
X20619Y-46975D01*
X21078Y-46668D01*
X21384Y-46210D01*
X21492Y-45669D01*
X21384Y-45129D01*
X21078Y-44670D01*
X20871Y-44532D01*
X20854Y-44483D01*
Y-43706D01*
X20871Y-43657D01*
X21078Y-43519D01*
X21384Y-43060D01*
X21492Y-42520D01*
X21384Y-41979D01*
X21078Y-41521D01*
X20871Y-41382D01*
X20854Y-41333D01*
Y-40557D01*
X20871Y-40507D01*
X21078Y-40369D01*
X21384Y-39911D01*
X21492Y-39370D01*
X21384Y-38829D01*
X21078Y-38371D01*
X20871Y-38233D01*
X20854Y-38184D01*
Y-37407D01*
X20871Y-37358D01*
X21078Y-37220D01*
X21384Y-36761D01*
X21492Y-36220D01*
X21384Y-35680D01*
X21078Y-35221D01*
X20871Y-35083D01*
X20854Y-35034D01*
Y-34257D01*
X20871Y-34208D01*
X21078Y-34070D01*
X21384Y-33612D01*
X21492Y-33071D01*
X21384Y-32530D01*
X21078Y-32072D01*
X20871Y-31934D01*
X20854Y-31884D01*
Y-31108D01*
X20871Y-31059D01*
X21078Y-30920D01*
X21384Y-30462D01*
X21492Y-29921D01*
X21384Y-29381D01*
X21078Y-28922D01*
X20619Y-28616D01*
X20079Y-28508D01*
D02*
G37*
G36*
X30000Y-39831D02*
X28662Y-40007D01*
X27416Y-40524D01*
X26345Y-41345D01*
X25524Y-42416D01*
X25008Y-43662D01*
X24831Y-45000D01*
X25008Y-46338D01*
X25524Y-47584D01*
X26345Y-48655D01*
X27416Y-49476D01*
X28662Y-49992D01*
X30000Y-50169D01*
X31338Y-49992D01*
X32584Y-49476D01*
X33655Y-48655D01*
X34476Y-47584D01*
X34993Y-46338D01*
X35169Y-45000D01*
X34993Y-43662D01*
X34476Y-42416D01*
X33655Y-41345D01*
X32584Y-40524D01*
X31338Y-40007D01*
X30000Y-39831D01*
D02*
G37*
G36*
X6693Y-52524D02*
X6152Y-52632D01*
X5694Y-52938D01*
X5387Y-53396D01*
X5300Y-53836D01*
X4961Y-54003D01*
X4509Y-54097D01*
X4084Y-53813D01*
X3543Y-53705D01*
X3003Y-53813D01*
X2544Y-54119D01*
X2238Y-54577D01*
X2174Y-54900D01*
X1468Y-55144D01*
X1453Y-55148D01*
X1382Y-55151D01*
X946Y-54860D01*
X406Y-54752D01*
X-135Y-54860D01*
X-593Y-55166D01*
X-773Y-55435D01*
X-1462Y-55494D01*
X-1657Y-55449D01*
X-1757Y-55300D01*
X-2215Y-54994D01*
X-2756Y-54886D01*
X-3297Y-54994D01*
X-3721Y-55278D01*
X-4174Y-55184D01*
X-4513Y-55017D01*
X-4600Y-54577D01*
X-4906Y-54119D01*
X-5365Y-53813D01*
X-5906Y-53705D01*
X-6446Y-53813D01*
X-6871Y-54097D01*
X-7323Y-54003D01*
X-7662Y-53836D01*
X-7750Y-53396D01*
X-8056Y-52938D01*
X-8514Y-52632D01*
X-9055Y-52524D01*
X-9596Y-52632D01*
X-10054Y-52938D01*
X-10361Y-53396D01*
X-10468Y-53937D01*
X-10361Y-54478D01*
X-10054Y-54936D01*
X-9596Y-55242D01*
X-9055Y-55350D01*
X-8514Y-55242D01*
X-8090Y-54959D01*
X-7637Y-55052D01*
X-7298Y-55220D01*
X-7211Y-55659D01*
X-6905Y-56117D01*
X-6446Y-56423D01*
X-5906Y-56531D01*
X-5365Y-56423D01*
X-4940Y-56140D01*
X-4488Y-56233D01*
X-4149Y-56401D01*
X-4061Y-56840D01*
X-3755Y-57298D01*
X-3297Y-57605D01*
X-2756Y-57712D01*
X-2215Y-57605D01*
X-1757Y-57298D01*
X-1577Y-57029D01*
X-888Y-56970D01*
X-693Y-57015D01*
X-593Y-57164D01*
X-135Y-57471D01*
X406Y-57578D01*
X946Y-57471D01*
X1405Y-57164D01*
X1711Y-56706D01*
X1775Y-56384D01*
X2481Y-56139D01*
X2496Y-56136D01*
X2567Y-56133D01*
X3003Y-56423D01*
X3543Y-56531D01*
X4084Y-56423D01*
X4542Y-56117D01*
X4849Y-55659D01*
X4936Y-55220D01*
X5275Y-55052D01*
X5727Y-54959D01*
X6152Y-55242D01*
X6693Y-55350D01*
X7234Y-55242D01*
X7692Y-54936D01*
X7998Y-54478D01*
X8106Y-53937D01*
X7998Y-53396D01*
X7692Y-52938D01*
X7234Y-52632D01*
X6693Y-52524D01*
D02*
G37*
%LPD*%
D10*
X-29134Y787D02*
Y4203D01*
X-27953Y5384D02*
Y22441D01*
X-29134Y4203D02*
X-27953Y5384D01*
X-29921Y24409D02*
X-27953Y22441D01*
X-71260Y-1575D02*
X-68939Y746D01*
X-66935Y15558D01*
X-66891Y15812D01*
X-62211Y29075D01*
X-72441Y-1575D02*
X-71260D01*
X-44193Y-51975D02*
X-32960Y-60058D01*
X-47294Y-48873D02*
X-44193Y-51975D01*
X-59272Y-34521D02*
X-59228Y-34588D01*
X-32960Y-60058D02*
X-32668Y-60242D01*
X-54731Y-41437D02*
X-47294Y-48873D01*
X-59228Y-34588D02*
X-54731Y-41437D01*
X-9525Y-73231D02*
X-7789Y-75405D01*
X7388D02*
X10593Y-67924D01*
X-7789Y-75405D02*
X7388D01*
X60806Y-41915D02*
X60812Y-41915D01*
X55086Y-41768D02*
X60806Y-41915D01*
X-74295Y-15794D02*
X-72047Y-24409D01*
X-73856Y-14808D02*
X-72601Y-13569D01*
X-74087Y-15036D02*
X-73856Y-14808D01*
X-74320Y-15269D02*
X-74087Y-15036D01*
X-74320Y-15696D02*
Y-15269D01*
Y-15696D02*
X-74295Y-15794D01*
X-72022Y-24466D02*
X-67906Y-33868D01*
X-72047Y-24409D02*
X-72022Y-24466D01*
X60400Y-28798D02*
X60617Y-28499D01*
X60997Y-28439D01*
X61055Y-28438D01*
X68194Y-28367D01*
X53300Y-41103D02*
X53516Y-40867D01*
X53568Y-40796D01*
X53589Y-40758D01*
X60400Y-28798D01*
X44172Y-51057D02*
X44232Y-50992D01*
X53300Y-41103D01*
X32482Y-59110D02*
X32551Y-59062D01*
X44172Y-51057D01*
X19257Y-64587D02*
X19324Y-64559D01*
X32482Y-59110D01*
X8478Y-66851D02*
X8775Y-66788D01*
X8234Y-67186D02*
X8478Y-66851D01*
X5911Y-73612D02*
X8234Y-67186D01*
X8775Y-66788D02*
X19257Y-64587D01*
X33002Y-60193D02*
X33246Y-60079D01*
X54756Y-41807D02*
X55014Y-41766D01*
X44827Y-52100D02*
X45013Y-51920D01*
X55014Y-41766D02*
X55086Y-41768D01*
X33246Y-60079D02*
X44827Y-52100D01*
X54502Y-41991D02*
X54756Y-41807D01*
X45013Y-51920D02*
X54502Y-41991D01*
X25024Y-63483D02*
X33002Y-60193D01*
X25020Y-63485D02*
X25024Y-63483D01*
X19581Y-65737D02*
X19948Y-65655D01*
X24818Y-63569D01*
X25020Y-63485D01*
X10593Y-67924D02*
X10823Y-67608D01*
X11118Y-67545D01*
X19581Y-65737D01*
X45836Y48844D02*
X46053Y48545D01*
X45836Y48844D02*
X45896Y49223D01*
X45914Y49279D01*
X48052Y56090D01*
X55405Y38268D02*
X55562Y37990D01*
X55352Y38339D02*
X55405Y38268D01*
X55323Y38372D02*
X55352Y38339D01*
X46053Y48545D02*
X55323Y38372D01*
X62164Y26310D02*
X62208Y26233D01*
X55562Y37990D02*
X62164Y26310D01*
X66230Y12706D02*
X66254Y12626D01*
X62208Y26233D02*
X66230Y12706D01*
X67370Y-1571D02*
X67376Y-1644D01*
X66254Y12626D02*
X67370Y-1571D01*
X66199Y-12595D02*
X66231Y-12294D01*
X66199Y-12595D02*
X66443Y-12931D01*
X71836Y-17125D01*
X66231Y-12294D02*
X67376Y-1644D01*
X67412Y13053D02*
X67445Y12786D01*
X56681Y39158D02*
X56722Y39415D01*
X56746Y39483D02*
X58655Y44883D01*
X63288Y26766D02*
X63402Y26534D01*
X56722Y39415D02*
X56746Y39483D01*
X63402Y26534D02*
X67412Y13053D01*
X56681Y39158D02*
X56778Y38859D01*
X63288Y26766D01*
X67445Y12786D02*
X68109Y4182D01*
X68110Y4178D01*
X68571Y-1691D02*
X68606Y-1316D01*
X68127Y3959D02*
X68606Y-1316D01*
X68110Y4178D02*
X68127Y3959D01*
X67643Y-10599D02*
X67873Y-10915D01*
X67643Y-10599D02*
X67675Y-10299D01*
X68571Y-1691D01*
X74080Y-17292D02*
X74177Y-16989D01*
X74237Y-16608D01*
X73994Y-16272D02*
X74237Y-16608D01*
X73927Y-16214D02*
X73994Y-16272D01*
X67873Y-10915D02*
X73927Y-16214D01*
X69889Y-30387D02*
X69968Y-30141D01*
X69595Y-30601D02*
X69889Y-30387D01*
X66703Y-31688D02*
X69595Y-30601D01*
X69968Y-30141D02*
X74080Y-17292D01*
X-32289Y58686D02*
X-31937Y58801D01*
X-32631Y58861D02*
X-32289Y58686D01*
X-32679Y58894D02*
X-32631Y58861D01*
X-38496Y63033D02*
X-32679Y58894D01*
X-19274Y64518D02*
X-18961Y64582D01*
X-19358Y64491D02*
X-19274Y64518D01*
X-19398Y64473D02*
X-19358Y64491D01*
X-31937Y58801D02*
X-19398Y64473D01*
X-5813Y67252D02*
X-5725Y67270D01*
X-18961Y64582D02*
X-5813Y67252D01*
X8382Y66915D02*
X8465Y66913D01*
X-5725Y67270D02*
X8382Y66915D01*
X22313Y63588D02*
X22384Y63570D01*
X8465Y66913D02*
X22313Y63588D01*
X32158Y59191D02*
X32435Y59066D01*
X32830Y59195D01*
X38485Y63028D01*
X22384Y63570D02*
X32158Y59191D01*
X8417Y68146D02*
X8681Y68096D01*
X-19958Y66126D02*
X-19726Y66007D01*
X-24561Y69654D02*
X-20015Y66170D01*
X-5899Y68462D02*
X-5643Y68498D01*
X-20015Y66170D02*
X-19958Y66126D01*
X-5643Y68498D02*
X8417Y68146D01*
X-19726Y66007D02*
X-19412Y66007D01*
X-5899Y68462D01*
X8681Y68096D02*
X17070Y66068D01*
X17074Y66067D01*
X22452Y64841D02*
X22798Y64692D01*
X17287Y66016D02*
X22452Y64841D01*
X17074Y66067D02*
X17287Y66016D01*
X30983Y61057D02*
X31354Y61178D01*
X30707Y61180D02*
X30983Y61057D01*
X22798Y64692D02*
X30707Y61180D01*
X39080Y65296D02*
X39338Y65111D01*
X38735Y65472D02*
X39080Y65296D01*
X38341Y65344D02*
X38735Y65472D01*
X38265Y65298D02*
X38341Y65344D01*
X31354Y61178D02*
X38265Y65298D01*
X50287Y57229D02*
X50497Y57079D01*
X50609Y56732D01*
X50749Y53646D01*
X39338Y65111D02*
X50287Y57229D01*
X-49769Y57545D02*
X-38890Y65523D01*
X-38318Y65675D02*
X-35340Y64855D01*
X-38682Y65675D02*
X-38318D01*
X-38890Y65523D02*
X-38682Y65675D01*
X-50279Y56583D02*
X-48496Y48737D01*
X-50299Y56669D02*
X-50279Y56583D01*
X-50299Y56669D02*
Y57083D01*
X-50025Y57357D01*
X-49769Y57545D01*
X-54482Y41685D02*
X-48698Y48122D01*
X-48496Y48346D01*
Y48737D01*
X-57559Y36666D02*
X-57444Y36852D01*
X-54731Y41402D01*
X-54482Y41685D01*
X-57561Y36662D02*
X-57559Y36666D01*
X-62081Y29311D02*
X-57561Y36662D01*
X-62211Y29075D02*
X-62081Y29311D01*
X-53543Y40945D02*
X-46357Y48887D01*
X-48052Y56090D02*
X-46154Y49527D01*
Y49112D02*
Y49527D01*
X-46357Y48887D02*
X-46154Y49112D01*
X-61024Y28740D02*
X-53582Y40882D01*
X-53543Y40945D01*
X-65748Y15354D02*
X-61051Y28662D01*
X-61024Y28740D01*
X-67282Y1936D02*
X-65758Y15266D01*
X-65748Y15354D01*
X-67313Y1487D02*
X-65793Y-12192D01*
X-67318Y1530D02*
X-67313Y1487D01*
X-67318Y1530D02*
Y1618D01*
X-67282Y1936D01*
X-71845Y-17122D02*
X-66111Y-12868D01*
X-66065Y-12833D01*
X-65793Y-12562D01*
Y-12192D01*
X-67601Y-33881D02*
X-59545Y-34248D01*
X-67906Y-33868D02*
X-67601Y-33881D01*
X-59545Y-34248D02*
X-59272Y-34521D01*
X-32668Y-60242D02*
X-23280Y-64280D01*
X-23015Y-64451D01*
X-22810Y-64656D01*
X-22754Y-64854D02*
X-21083Y-70785D01*
X-22810Y-64656D02*
X-22754Y-64854D01*
X-68195Y-28355D02*
X-60630Y-28740D01*
X-60593Y-28804D02*
X-53543Y-40945D01*
X-60630Y-28740D02*
X-60593Y-28804D01*
X-53543Y-40945D02*
X-43701Y-50787D01*
X-43650Y-50824D02*
X-32283Y-59055D01*
X-43701Y-50787D02*
X-43650Y-50824D01*
X-32201Y-59090D02*
X-19291Y-64567D01*
X-32283Y-59055D02*
X-32201Y-59090D01*
X-19221Y-64583D02*
X-8839Y-66890D01*
X-19291Y-64567D02*
X-19221Y-64583D01*
X-8505Y-67309D02*
X-5906Y-73622D01*
X-8565Y-67163D02*
X-8505Y-67309D01*
X-8839Y-66890D02*
X-8565Y-67163D01*
X-50000Y33071D02*
X-42113Y25184D01*
Y-32087D02*
Y25184D01*
Y-32087D02*
X-37980Y-36220D01*
X-19685D01*
X-51995Y29688D02*
X-48875D01*
X-45965Y26778D02*
X-45965D01*
X-48875Y29688D02*
X-45965Y26778D01*
X-45965D02*
X-43301Y24114D01*
Y-32579D02*
Y24114D01*
X-26864Y-37599D02*
X-25092Y-39370D01*
X-19685D01*
X-38281Y-37599D02*
X-26864D01*
X-43301Y-32579D02*
X-38281Y-37599D01*
X-44488Y-33071D02*
Y22835D01*
X-48425Y26772D02*
X-44488Y22835D01*
X-53543Y26772D02*
X-48425D01*
X-44488Y-33071D02*
X-38583Y-38976D01*
X-27165D01*
X-23622Y-42520D02*
X-19685D01*
X-27165Y-38976D02*
X-23622Y-42520D01*
D57*
X-5039Y42731D02*
Y52967D01*
Y42731D02*
X4961D01*
Y52967D01*
X22441Y-12598D02*
Y26378D01*
X6088Y42731D02*
X22441Y26378D01*
X20866Y-14173D02*
X22441Y-12598D01*
X4961Y42731D02*
X6088D01*
X-40157Y4097D02*
Y45669D01*
X-33465Y52362D02*
X-26378D01*
X-40157Y45669D02*
X-33465Y52362D01*
X-26378D02*
X-21654Y47638D01*
X-9946D01*
X-39370Y1181D02*
Y3309D01*
X-40157Y4097D02*
X-39370Y3309D01*
X-9946Y47638D02*
X-5039Y42731D01*
D60*
D03*
X4961D02*
D03*
X-5039Y52967D02*
D03*
X4961D02*
D03*
D62*
X-39370Y1181D02*
D03*
X12940Y22330D02*
D03*
X12992Y24409D02*
D03*
X-18504Y-28346D02*
D03*
X-13386Y-30709D02*
D03*
X-8661Y-7874D02*
D03*
X-72441Y-1575D02*
D03*
X-50456Y-54247D02*
D03*
X-59449Y-44488D02*
D03*
X74016Y394D02*
D03*
X72441Y14173D02*
D03*
X-29134Y787D02*
D03*
X-39370Y-16535D02*
D03*
X-29921Y24409D02*
D03*
X-50000Y33071D02*
D03*
X-51995Y29688D02*
D03*
X-53543Y26772D02*
D03*
X-19685Y-36220D02*
D03*
Y-39370D02*
D03*
Y-42520D02*
D03*
X66711Y-31697D02*
D03*
X60806Y-41925D02*
D03*
X71844Y-17134D02*
D03*
X68194Y-28367D02*
D03*
X50760Y53651D02*
D03*
X58663Y44874D02*
D03*
X38496Y63033D02*
D03*
X48052Y56090D02*
D03*
X-35340Y64855D02*
D03*
X-24550Y69659D02*
D03*
X-48052Y56090D02*
D03*
X-38496Y63033D02*
D03*
X-72601Y-13569D02*
D03*
X-68195Y-28355D02*
D03*
X-71845Y-17122D02*
D03*
X-9530Y-73241D02*
D03*
X-21083Y-70785D02*
D03*
X-5906Y-73622D02*
D03*
X5906D02*
D03*
X-24969Y-25032D02*
D03*
D64*
X20866Y-14173D02*
D03*
D67*
X-59449Y-44488D02*
X-50456Y-54247D01*
X72441Y14173D02*
X74016Y394D01*
M02*
