G04*
G04 #@! TF.GenerationSoftware,Altium Limited,Altium Designer,20.0.9 (164)*
G04*
G04 Layer_Color=65535*
%FSLAX25Y25*%
%MOIN*%
G70*
G01*
G75*
%ADD10C,0.00787*%
%ADD11C,0.00984*%
%ADD12C,0.00394*%
%ADD13C,0.01000*%
D10*
X31890Y4528D02*
G03*
X31890Y4134I0J-197D01*
G01*
X31762Y4181D02*
G03*
X31890Y4528I128J149D01*
G01*
D02*
G03*
X31890Y4134I0J-197D01*
G01*
X281Y23478D02*
Y36077D01*
X-3262Y23478D02*
Y36077D01*
Y23478D02*
X281Y23478D01*
X-3262Y36077D02*
X281Y36077D01*
X19961Y37731D02*
X19961Y47731D01*
X-20039Y37731D02*
X19961D01*
X-20039Y47731D02*
X-20039Y37731D01*
X19961Y47967D02*
X19961Y57967D01*
X-20039Y47967D02*
X19961D01*
X-20039Y57967D02*
X19961Y57967D01*
X-20039Y47967D02*
Y57967D01*
X8661Y-42520D02*
Y-41378D01*
X7520Y-42520D02*
X8661D01*
Y-26339D02*
Y-25197D01*
X7520D02*
X8661D01*
X-8661D02*
X-7520D01*
X-8661Y-26339D02*
Y-25197D01*
Y-42520D02*
Y-41378D01*
Y-42520D02*
X-7520D01*
X-34252Y-25689D02*
Y-22441D01*
X-30315Y-22441D01*
X-34252Y-31004D02*
X-34252Y-34252D01*
X-30315D01*
D11*
X3923Y22789D02*
G03*
X3923Y22789I-492J0D01*
G01*
X-12453Y-418D02*
G03*
X-12453Y-418I-492J0D01*
G01*
X-36122Y-15650D02*
G03*
X-36122Y-15650I-492J0D01*
G01*
X-10531Y-44488D02*
G03*
X-10531Y-44488I-492J0D01*
G01*
X-23524Y-34646D02*
G03*
X-23524Y-34646I-492J0D01*
G01*
D12*
X43504Y-24213D02*
X43504Y-197D01*
X28937Y-24213D02*
X43504Y-24213D01*
X28937Y-24213D02*
X28937Y-197D01*
X43504Y-197D01*
D13*
X-30890Y6117D02*
Y2181D01*
X-28922D01*
X-28266Y2837D01*
Y5461D01*
X-28922Y6117D01*
X-30890D01*
X-24986D02*
X-26298D01*
X-26954Y5461D01*
Y2837D01*
X-26298Y2181D01*
X-24986D01*
X-24330Y2837D01*
Y5461D01*
X-24986Y6117D01*
X-23018D02*
Y2837D01*
X-22362Y2181D01*
X-21050D01*
X-20394Y2837D01*
Y6117D01*
X-19083D02*
X-16459D01*
X-17771D01*
Y2181D01*
X19504Y6117D02*
Y2181D01*
X21472D01*
X22128Y2837D01*
Y5461D01*
X21472Y6117D01*
X19504D01*
X23440D02*
X24752D01*
X24096D01*
Y2181D01*
X23440D01*
X24752D01*
X26719D02*
Y6117D01*
X29343Y2181D01*
Y6117D01*
M02*
