M48
;Layer_Color=9474304
;FILE_FORMAT=2:5
INCH,LZ
;TYPE=PLATED
T1F00S00C0.00787
T2F00S00C0.01181
T3F00S00C0.01299
T4F00S00C0.01575
T5F00S00C0.02800
T6F00S00C0.03543
T7F00S00C0.11811
%
T01
X0342913Y0051968
X0351181Y0047244
X0101969Y0051575
X0103543Y0027559
X0066929Y0018898
X0063543Y004
X0058543Y0040039
X0053543Y004008
X0048543Y0040096
X0043601Y0046378
X0038583Y0046457
X0035433Y0018898
X0033465Y0076772
Y0079528
X0035433Y0082677
X003622Y0086832
X0046654Y0083268
X0049606Y0091339
Y0099129
X0052756Y0101575
X0056337Y0101538
X0064173Y0112598
X0068934Y0108766
X007874Y0107087
X0083071Y0107087
Y0111417
X0087402
X0087402Y0115748
X0083071Y0115748
X007874Y0115748
X007874Y0111417
X0087402Y0107087
X0078439Y0096483
X0078445Y0093307
X0076968Y0087205
X0073427Y0084447
X0073386Y0078583
X0069921Y0078583
X0076968Y007815
X0080512Y0076575
X0084055Y0073819
X0086024Y0072244
X0087992Y0073819
X0089961Y0072244
X0091929Y0073819
X0094882Y0077559
X0097859Y0082062
X0090158Y008189
X0090158Y0086221
X0085827
Y008189
X0105512Y0079528
X0111024
Y0090945
X0117323Y0094882
X0124803Y0095276
X0133465Y0107874
Y0112598
X0143307Y0125197
X0117323Y0125591
X0110236Y0125197
Y0129528
X0114567Y0136614
X0120079
X0110236Y0142913
X0098819Y0138976
X0098819Y0148031
X0095276Y0150394
X0091732Y015315
X0089764Y0154724
X0087795Y015315
X0085827Y0154724
X0083858Y015315
X0079921Y0149606
X0077559Y0144882
X008563Y0145079
X0089961Y0145079
X0089961Y0140748
X008563
X007559Y0129134
X0072441Y0126378
X0068996Y0121653
X0064272Y0121811
X0063779Y0129528
X0059055Y0126378
X005Y0129528
X0038976Y0145276
X0020079Y0145669
Y0134646
X0019685Y0105905
X0029134Y0100787
X0022441Y0082284
Y0077953
X0052756Y0070866
X0055512Y0068504
X0063386Y0071653
X0067323Y0188583
X0063574Y0196728
X0058661Y019685
X0053543
X0048425
X0043543Y0197008
X0038583Y019685
X0035039Y0188583
X0020079Y0176378
X017126Y0122047
X0167323Y0112992
Y0107874
X0157874Y0095276
X0195669Y0098425
X0200394Y0107874
Y0112598
X0204331Y0122047
X0237402Y0122047
X0249606Y0112598
Y0107874
X0261811Y0098425
X0270472Y0122047
X0303543
X0299606Y0112992
Y0107874
X0294882Y0098425
X022874
X0327953
X0348819Y0107874
Y0112992
X0336614Y0122047
X0361024Y0098425
X0352362Y0173228
X0342913Y0168504
T02
X0318504Y0049606
X0285433Y0049606
X0252362Y0051968
X0219291Y0051969
X021378
Y0044488
X0180709
X0180709Y0051968
X0186221
X015315
X0147638
Y0044488
X0120079Y0051968
Y0057874
X0129528Y0061811
X0138189Y0062205
Y0079528
X0129528
X0105118Y0061811
X011063Y0138189
X0111024Y0155118
X0120079Y0162598
Y0168504
X0129527Y0158661
X0138189Y0158268
Y0140945
X0129527
X0147638Y0168504
Y0175984
X015315Y0168504
Y0162598
X0162598Y0158661
X0171653Y0158268
Y0140945
X0162598
X0195669
X0204331Y0140945
X0204724Y0158661
X0195669
X0186221Y0162598
X0186221Y0168504
X0180709
Y0175984
X0213779
Y0168504
X0219291
Y0162598
X022874Y0158661
X0237402
X0252362Y0162598
X0252362Y0168504
X0261811Y0158661
X0270472Y0158661
X0285433Y0162598
Y0170866
X0294882Y0158661
X0303543
X022874Y0140945
X022874Y0079528
Y0061811
X0237402
X0252362Y0057874
X0261811Y0061811
X0270472Y0061811
X0285433Y0057874
X0294882Y0061811
X0303543
X0219291Y0057874
X0204724Y0061811
X0195669
X0186221Y0057874
X0171654Y0062205
X0162598Y0061811
X015315Y0057874
X0162599Y0079528
X0171654
X0195669
X0204331Y0079528
X0318504Y0057874
X0327953Y0061811
X0336614Y0061811
X0361024Y0061811
X0361024Y0158661
X0336614Y0158661
X0327953Y0158661
X0318504Y0162598
Y0170866
T03
X005502Y0080905
Y008563
X0059744
Y0080905
T04
X0105118Y0091339
X0138189
X0129527Y0129134
X0162598
X0195669
X022874
X0261811
X0294882
X0303543Y0091339
X0270472
X0237402Y0091339
X0204331Y0091339
X017126Y0091339
X0336614Y0091339
X0327953Y0129134
X0361024Y0129134
T05
X0031102Y0114173
Y0122047
Y0141339
Y0149213
T06
X0375827Y0000551
Y0010551
Y0020551
X0385827
Y0010551
Y0000551
Y0030551
X0375827Y0030551
Y0040551
Y0050551
X0385827
X0385827Y0040551
X0255512Y0011969
X0255512Y0001969
X0245512
X0235512
Y0011969
X0245512
X0225512
X0215512
X0205512
X0195512
Y0001969
X0205512
X0215512
X0225512
X0185512
Y0011969
X0175512
Y0001969
X0165512
X0155512
X0155512Y0011969
X0165512
X0145512
X0135512
X0135512Y0001969
X0145512
X0125512
Y0011969
X0115512
X0105512
Y0001969
X0115512
X0115118Y0208504
X0105118
X0125118
X0135118
X0145118
X0005906Y0175669
Y0165669
Y0155669
Y0145669
Y0134331
Y0124331
Y0114331
Y0104331
X0155118Y0208504
X0165118
X0175118
X0185118
X0195118
X0205118
X0215118
X0225118
X0235118
X0245118
X0255118
X0375827Y0209921
Y0199921
X0385827
X0385827Y0209921
X0385827Y0189921
X0385827Y0179921
X0375827Y0179921
Y0189921
X0375827Y0169921
X0385827
X0385827Y0159921
X0375827
Y0149921
X0385827
X0385827Y0139921
X0375827
Y0129921
X0385827Y0129921
Y0090551
X0375827
Y0080551
Y0070551
X0385827Y0070551
Y0060551
X0375827Y0060551
X0385827Y0080551
Y0219921
X0375827Y0219921
X0255118Y0218504
X0245118
X0235118
X0225118
X0215118Y0218504
X0205118Y0218504
X0195118
X0185118
X0175118
X0165118
X0155118
X0145118
X0135118
X0125118
X0115118
X0105118
T07
X0307874Y0011811
X0012598
Y0208661
X0307874
M30
