G04*
G04 #@! TF.GenerationSoftware,Altium Limited,Altium Designer,20.0.9 (164)*
G04*
G04 Layer_Color=8388736*
%FSLAX25Y25*%
%MOIN*%
G70*
G01*
G75*
%ADD25R,0.04528X0.02953*%
%ADD26R,0.10433X0.08071*%
%ADD27R,0.14370X0.08465*%
G04:AMPARAMS|DCode=28|XSize=31.1mil|YSize=29.53mil|CornerRadius=8.86mil|HoleSize=0mil|Usage=FLASHONLY|Rotation=90.000|XOffset=0mil|YOffset=0mil|HoleType=Round|Shape=RoundedRectangle|*
%AMROUNDEDRECTD28*
21,1,0.03110,0.01181,0,0,90.0*
21,1,0.01339,0.02953,0,0,90.0*
1,1,0.01772,0.00591,0.00669*
1,1,0.01772,0.00591,-0.00669*
1,1,0.01772,-0.00591,-0.00669*
1,1,0.01772,-0.00591,0.00669*
%
%ADD28ROUNDEDRECTD28*%
G04:AMPARAMS|DCode=29|XSize=26.38mil|YSize=27.95mil|CornerRadius=8.07mil|HoleSize=0mil|Usage=FLASHONLY|Rotation=180.000|XOffset=0mil|YOffset=0mil|HoleType=Round|Shape=RoundedRectangle|*
%AMROUNDEDRECTD29*
21,1,0.02638,0.01181,0,0,180.0*
21,1,0.01024,0.02795,0,0,180.0*
1,1,0.01614,-0.00512,0.00591*
1,1,0.01614,0.00512,0.00591*
1,1,0.01614,0.00512,-0.00591*
1,1,0.01614,-0.00512,-0.00591*
%
%ADD29ROUNDEDRECTD29*%
%ADD30R,0.03347X0.03937*%
%ADD31R,0.07284X0.04921*%
%ADD32R,0.04921X0.07284*%
%ADD33R,0.11024X0.05315*%
%ADD34R,0.05315X0.11024*%
%ADD35R,0.04921X0.04921*%
%ADD36C,0.04921*%
%ADD37C,0.10591*%
%ADD38C,0.06496*%
%ADD39R,0.06496X0.06496*%
%ADD40R,0.06496X0.06496*%
%ADD41C,0.02559*%
%ADD42C,0.04528*%
%ADD43C,0.25000*%
D25*
X376181Y406102D02*
D03*
Y409842D02*
D03*
Y413583D02*
D03*
X386024D02*
D03*
Y409842D02*
D03*
Y406102D02*
D03*
X297835Y406102D02*
D03*
Y409842D02*
D03*
Y413583D02*
D03*
X307677D02*
D03*
Y409842D02*
D03*
Y406102D02*
D03*
D26*
X369291Y388583D02*
D03*
Y371260D02*
D03*
X290945Y371260D02*
D03*
Y388583D02*
D03*
D27*
X369291Y362421D02*
D03*
Y397421D02*
D03*
X290945Y397421D02*
D03*
Y362421D02*
D03*
D28*
X411811Y430236D02*
D03*
Y426457D02*
D03*
D29*
X421102Y302362D02*
D03*
X424567D02*
D03*
X421102Y277953D02*
D03*
X424567Y277953D02*
D03*
X421102Y290551D02*
D03*
X424567Y290551D02*
D03*
X290394Y418504D02*
D03*
X293858D02*
D03*
X297874D02*
D03*
X301339D02*
D03*
X376220Y418504D02*
D03*
X379685D02*
D03*
X368740D02*
D03*
X372205D02*
D03*
D30*
X428346Y302362D02*
D03*
X433071D02*
D03*
X428346Y290551D02*
D03*
X433071D02*
D03*
X428346Y277953D02*
D03*
X433071Y277953D02*
D03*
D31*
X407087Y405512D02*
D03*
Y415748D02*
D03*
X328740Y405512D02*
D03*
Y415748D02*
D03*
X339370Y395669D02*
D03*
Y385433D02*
D03*
X417717Y395669D02*
D03*
Y385433D02*
D03*
D32*
X281102Y406299D02*
D03*
X291339D02*
D03*
X359449Y406299D02*
D03*
X369685D02*
D03*
D33*
X317717Y415748D02*
D03*
Y405512D02*
D03*
X317717Y385433D02*
D03*
Y395669D02*
D03*
X329134Y385433D02*
D03*
Y395669D02*
D03*
X396063Y385433D02*
D03*
Y395669D02*
D03*
X407480Y385433D02*
D03*
Y395669D02*
D03*
X396063Y415748D02*
D03*
Y405512D02*
D03*
D34*
X290945Y272047D02*
D03*
X280709D02*
D03*
X366929Y272441D02*
D03*
X356693D02*
D03*
D35*
X288150Y228740D02*
D03*
X367953D02*
D03*
D36*
X288150Y233740D02*
D03*
X293150Y228740D02*
D03*
Y233740D02*
D03*
X298150Y228740D02*
D03*
Y233740D02*
D03*
X303150Y228740D02*
D03*
Y233740D02*
D03*
X308150Y228740D02*
D03*
Y233740D02*
D03*
X313150Y228740D02*
D03*
Y233740D02*
D03*
X367953D02*
D03*
X372953Y228740D02*
D03*
Y233740D02*
D03*
X377953Y228740D02*
D03*
Y233740D02*
D03*
X382953Y228740D02*
D03*
Y233740D02*
D03*
X387953Y228740D02*
D03*
Y233740D02*
D03*
X392953Y228740D02*
D03*
Y233740D02*
D03*
D37*
X433465Y429055D02*
D03*
Y409055D02*
D03*
D38*
X237126Y435551D02*
D03*
X247126D02*
D03*
X237126Y425551D02*
D03*
X247126D02*
D03*
X237126Y415551D02*
D03*
X247126D02*
D03*
X237126Y405551D02*
D03*
X247126D02*
D03*
X237126Y395551D02*
D03*
X247126D02*
D03*
X237126Y385551D02*
D03*
X247126D02*
D03*
X237126Y375551D02*
D03*
X247126D02*
D03*
X237126Y365551D02*
D03*
X247126D02*
D03*
X237126Y355551D02*
D03*
X247126D02*
D03*
X237126Y345551D02*
D03*
X247126D02*
D03*
X237126Y335551D02*
D03*
X247126D02*
D03*
X237126Y325551D02*
D03*
X247126D02*
D03*
X237126Y315551D02*
D03*
X247126D02*
D03*
X237126Y305551D02*
D03*
X247126D02*
D03*
X237126Y295551D02*
D03*
X247126D02*
D03*
X237126Y285551D02*
D03*
X247126D02*
D03*
X237126Y275551D02*
D03*
X247126D02*
D03*
X237126Y265551D02*
D03*
X247126D02*
D03*
X237126Y255551D02*
D03*
X247126D02*
D03*
X237126Y245551D02*
D03*
X395276Y251969D02*
D03*
X385276D02*
D03*
X375276D02*
D03*
X316063Y252362D02*
D03*
X306063D02*
D03*
X296063D02*
D03*
D39*
X247126Y245551D02*
D03*
D40*
X365276Y251969D02*
D03*
X286063Y252362D02*
D03*
D41*
X402362Y291732D02*
D03*
X340945D02*
D03*
X260236Y411024D02*
D03*
X301575Y416142D02*
D03*
X303937D02*
D03*
X379921D02*
D03*
X388583Y416535D02*
D03*
X385433Y419685D02*
D03*
Y416535D02*
D03*
X388583Y419685D02*
D03*
X418110Y277953D02*
D03*
X277165Y360630D02*
D03*
Y352756D02*
D03*
Y321260D02*
D03*
Y329134D02*
D03*
Y305512D02*
D03*
Y313386D02*
D03*
Y297638D02*
D03*
X345669Y297638D02*
D03*
X355118Y293701D02*
D03*
X345669Y313386D02*
D03*
X355118Y309449D02*
D03*
Y301575D02*
D03*
X345669Y305512D02*
D03*
Y329134D02*
D03*
X355118Y325197D02*
D03*
Y317323D02*
D03*
X345669Y321260D02*
D03*
Y344882D02*
D03*
X355118Y340945D02*
D03*
Y333071D02*
D03*
X345669Y337008D02*
D03*
Y352756D02*
D03*
X355118Y348819D02*
D03*
Y356693D02*
D03*
X345669Y360630D02*
D03*
X416535Y405118D02*
D03*
X407087Y409449D02*
D03*
X417717Y391732D02*
D03*
X407480D02*
D03*
X396063D02*
D03*
X390551Y400394D02*
D03*
X264173Y321260D02*
D03*
X262205Y341339D02*
D03*
X256299Y350787D02*
D03*
X264173Y405905D02*
D03*
X261811Y425591D02*
D03*
X310236Y416535D02*
D03*
X307087D02*
D03*
Y419685D02*
D03*
X310236D02*
D03*
X339370Y391732D02*
D03*
X329134D02*
D03*
X317717D02*
D03*
X335039Y400787D02*
D03*
X323228D02*
D03*
X311024D02*
D03*
X418110Y290551D02*
D03*
X435827Y302362D02*
D03*
Y277953D02*
D03*
Y290551D02*
D03*
X304034Y418848D02*
D03*
Y412942D02*
D03*
X301672D02*
D03*
X293307Y411811D02*
D03*
X293404Y415305D02*
D03*
X289861D02*
D03*
X286317D02*
D03*
X282774D02*
D03*
X279231D02*
D03*
X275687D02*
D03*
X272538Y412155D02*
D03*
Y408612D02*
D03*
Y405068D02*
D03*
Y401525D02*
D03*
Y397982D02*
D03*
Y394438D02*
D03*
Y390895D02*
D03*
Y387352D02*
D03*
Y383808D02*
D03*
Y380265D02*
D03*
X272835Y377165D02*
D03*
X276378D02*
D03*
X279921D02*
D03*
X283465D02*
D03*
X287008D02*
D03*
X290551D02*
D03*
X294094D02*
D03*
X297638D02*
D03*
X301181D02*
D03*
X304724D02*
D03*
X308268D02*
D03*
X310333Y379872D02*
D03*
Y383415D02*
D03*
Y386958D02*
D03*
Y390501D02*
D03*
X289861Y411761D02*
D03*
X286317D02*
D03*
X282774D02*
D03*
X279231D02*
D03*
X276868Y408612D02*
D03*
Y405068D02*
D03*
Y401525D02*
D03*
Y397982D02*
D03*
Y394438D02*
D03*
Y390895D02*
D03*
Y387352D02*
D03*
Y383808D02*
D03*
X279624Y383021D02*
D03*
X283168D02*
D03*
X286711D02*
D03*
X290254D02*
D03*
X293797D02*
D03*
X297341D02*
D03*
X300884D02*
D03*
X304427D02*
D03*
X306396Y386958D02*
D03*
Y390501D02*
D03*
Y394045D02*
D03*
Y397588D02*
D03*
Y401131D02*
D03*
X286317Y421210D02*
D03*
X282774D02*
D03*
X279231D02*
D03*
X275687D02*
D03*
X272144D02*
D03*
X267420Y412155D02*
D03*
Y408612D02*
D03*
Y405068D02*
D03*
Y401525D02*
D03*
Y397982D02*
D03*
Y394438D02*
D03*
Y390895D02*
D03*
Y387352D02*
D03*
Y383808D02*
D03*
Y380265D02*
D03*
Y376722D02*
D03*
Y373179D02*
D03*
X270176Y371604D02*
D03*
X273719D02*
D03*
X277262D02*
D03*
X267420Y416092D02*
D03*
X269782Y418848D02*
D03*
X289861Y421210D02*
D03*
X293404D02*
D03*
X296947D02*
D03*
X309152Y403100D02*
D03*
X311811Y409166D02*
D03*
X314961D02*
D03*
X317717D02*
D03*
X390158Y409449D02*
D03*
X387402Y403150D02*
D03*
X393307Y409449D02*
D03*
X396063D02*
D03*
X375197Y421260D02*
D03*
X371654D02*
D03*
X368110D02*
D03*
X348031Y418898D02*
D03*
X345669Y416142D02*
D03*
X355512Y371654D02*
D03*
X351969D02*
D03*
X348425D02*
D03*
X345669Y373228D02*
D03*
Y376772D02*
D03*
Y380315D02*
D03*
Y383858D02*
D03*
Y387402D02*
D03*
Y390945D02*
D03*
Y394488D02*
D03*
Y398031D02*
D03*
Y401575D02*
D03*
Y405118D02*
D03*
Y408661D02*
D03*
Y412205D02*
D03*
X350394Y421260D02*
D03*
X353937D02*
D03*
X357480D02*
D03*
X361024D02*
D03*
X364567D02*
D03*
X384646Y401181D02*
D03*
Y397638D02*
D03*
Y394094D02*
D03*
Y390551D02*
D03*
Y387008D02*
D03*
X382677Y383071D02*
D03*
X379134D02*
D03*
X375591D02*
D03*
X372047D02*
D03*
X368504D02*
D03*
X364961D02*
D03*
X361417D02*
D03*
X357874D02*
D03*
X355118Y383858D02*
D03*
Y387402D02*
D03*
Y390945D02*
D03*
Y394488D02*
D03*
Y398031D02*
D03*
Y401575D02*
D03*
Y405118D02*
D03*
Y408661D02*
D03*
X357480Y411811D02*
D03*
X361024D02*
D03*
X364567D02*
D03*
X368110D02*
D03*
X388583Y390551D02*
D03*
Y387008D02*
D03*
Y383465D02*
D03*
Y379921D02*
D03*
X386221Y376772D02*
D03*
X382677D02*
D03*
X379134D02*
D03*
X375591D02*
D03*
X372047D02*
D03*
X368504D02*
D03*
X364961D02*
D03*
X361417D02*
D03*
X357874D02*
D03*
X354331D02*
D03*
X350787D02*
D03*
Y380315D02*
D03*
Y383858D02*
D03*
Y387402D02*
D03*
Y390945D02*
D03*
Y394488D02*
D03*
Y398031D02*
D03*
Y401575D02*
D03*
Y405118D02*
D03*
Y408661D02*
D03*
Y412205D02*
D03*
X353937Y415354D02*
D03*
X357480D02*
D03*
X361024D02*
D03*
X364567D02*
D03*
X368110D02*
D03*
X371654D02*
D03*
Y411811D02*
D03*
X379921Y412992D02*
D03*
X382283D02*
D03*
X382283Y416142D02*
D03*
X382283Y418898D02*
D03*
D42*
X351195Y270252D02*
D03*
X351181Y274803D02*
D03*
X274803Y274410D02*
D03*
Y269685D02*
D03*
D43*
X242126Y454724D02*
D03*
X435039D02*
D03*
Y226378D02*
D03*
X242126D02*
D03*
M02*
