G04*
G04 #@! TF.GenerationSoftware,Altium Limited,Altium Designer,20.0.9 (164)*
G04*
G04 Layer_Physical_Order=4*
G04 Layer_Color=16711680*
%FSLAX25Y25*%
%MOIN*%
G70*
G01*
G75*
%ADD44C,0.01181*%
%ADD49R,0.04331X0.04331*%
%ADD50C,0.04331*%
%ADD51C,0.10000*%
%ADD52C,0.05906*%
%ADD53R,0.05906X0.05906*%
%ADD54R,0.05906X0.05906*%
%ADD55C,0.01968*%
%ADD56C,0.03937*%
%ADD57C,0.24410*%
G36*
X264304Y466891D02*
X264657Y466537D01*
X264477Y409836D01*
X427742D01*
X428071Y409460D01*
X428044Y409255D01*
X433465D01*
X438885D01*
X438858Y409460D01*
X439187Y409836D01*
X447244D01*
X447244Y231419D01*
X446744Y231319D01*
X446394Y232164D01*
X445350Y233869D01*
X444051Y235389D01*
X442530Y236688D01*
X440825Y237733D01*
X438977Y238498D01*
X437033Y238965D01*
X435039Y239122D01*
X433046Y238965D01*
X431101Y238498D01*
X429254Y237733D01*
X427549Y236688D01*
X426028Y235389D01*
X424729Y233869D01*
X423684Y232164D01*
X422919Y230316D01*
X422452Y228372D01*
X422295Y226378D01*
X422452Y224384D01*
X422919Y222440D01*
X423684Y220592D01*
X424729Y218887D01*
X426028Y217367D01*
X427549Y216068D01*
X429254Y215023D01*
X430098Y214673D01*
X429999Y214173D01*
X247167Y214173D01*
X247067Y214673D01*
X247912Y215023D01*
X249617Y216068D01*
X251137Y217367D01*
X252436Y218887D01*
X253481Y220592D01*
X254246Y222440D01*
X254713Y224384D01*
X254870Y226378D01*
X254713Y228372D01*
X254246Y230316D01*
X253481Y232164D01*
X252436Y233869D01*
X251137Y235389D01*
X249617Y236688D01*
X247912Y237733D01*
X246064Y238498D01*
X244120Y238965D01*
X242126Y239122D01*
X240132Y238965D01*
X238188Y238498D01*
X236340Y237733D01*
X234635Y236688D01*
X233115Y235389D01*
X231816Y233869D01*
X230771Y232164D01*
X230421Y231319D01*
X229921Y231419D01*
X229921Y409836D01*
X229921Y449684D01*
X230421Y449783D01*
X230771Y448939D01*
X231816Y447234D01*
X233115Y445713D01*
X234635Y444414D01*
X236340Y443369D01*
X238188Y442604D01*
X240132Y442137D01*
X242126Y441980D01*
X244120Y442137D01*
X246064Y442604D01*
X247912Y443369D01*
X249617Y444414D01*
X251137Y445713D01*
X252436Y447234D01*
X253481Y448939D01*
X254246Y450786D01*
X254713Y452731D01*
X254870Y454724D01*
X254713Y456718D01*
X254246Y458663D01*
X253481Y460510D01*
X252436Y462215D01*
X251137Y463736D01*
X249617Y465034D01*
X247912Y466079D01*
X247158Y466392D01*
X247258Y466891D01*
X264304Y466891D01*
D02*
G37*
G36*
X429999Y466929D02*
X430098Y466429D01*
X429254Y466079D01*
X427549Y465034D01*
X426028Y463736D01*
X424729Y462215D01*
X423684Y460510D01*
X422919Y458663D01*
X422452Y456718D01*
X422295Y454724D01*
X422452Y452731D01*
X422919Y450786D01*
X423684Y448939D01*
X424729Y447234D01*
X426028Y445713D01*
X427549Y444414D01*
X429254Y443369D01*
X431101Y442604D01*
X433046Y442137D01*
X435039Y441980D01*
X437033Y442137D01*
X438977Y442604D01*
X440825Y443369D01*
X442530Y444414D01*
X444051Y445713D01*
X445350Y447234D01*
X446394Y448939D01*
X446744Y449783D01*
X447244Y449684D01*
X447244Y411424D01*
X438328D01*
X438181Y411778D01*
X437316Y412907D01*
X436188Y413772D01*
X434874Y414316D01*
X433465Y414502D01*
X432055Y414316D01*
X430741Y413772D01*
X429613Y412907D01*
X428748Y411778D01*
X428601Y411424D01*
X383671D01*
X383540Y411649D01*
X383464Y411924D01*
X383767Y412378D01*
X383889Y412992D01*
X383767Y413607D01*
X383419Y414127D01*
X383211Y414266D01*
Y414868D01*
X383419Y415006D01*
X383767Y415527D01*
X383889Y416142D01*
X383767Y416756D01*
X383419Y417277D01*
Y417762D01*
X383767Y418283D01*
X383889Y418898D01*
X383767Y419512D01*
X383419Y420033D01*
X382898Y420381D01*
X382283Y420503D01*
X381669Y420381D01*
X381148Y420033D01*
X380800Y419512D01*
X380678Y418898D01*
X380800Y418283D01*
X381082Y417862D01*
X380723Y417503D01*
X380704Y417513D01*
X380536Y417625D01*
X379921Y417747D01*
X379307Y417625D01*
X378786Y417277D01*
X378438Y416756D01*
X378316Y416142D01*
X378438Y415527D01*
X378786Y415006D01*
X378994Y414868D01*
Y414266D01*
X378786Y414127D01*
X378438Y413607D01*
X378316Y412992D01*
X378438Y412378D01*
X378741Y411924D01*
X378665Y411649D01*
X378534Y411424D01*
X373576D01*
X373259Y411810D01*
X373259Y411811D01*
X373137Y412426D01*
X372789Y412946D01*
X372268Y413294D01*
X372100Y413328D01*
Y413838D01*
X372268Y413871D01*
X372789Y414219D01*
X373137Y414740D01*
X373259Y415354D01*
X373137Y415969D01*
X372789Y416490D01*
X372268Y416838D01*
X371654Y416960D01*
X371039Y416838D01*
X370518Y416490D01*
X370170Y415969D01*
X370137Y415801D01*
X369627D01*
X369594Y415969D01*
X369246Y416490D01*
X368725Y416838D01*
X368110Y416960D01*
X367496Y416838D01*
X366975Y416490D01*
X366627Y415969D01*
X366594Y415801D01*
X366084D01*
X366050Y415969D01*
X365702Y416490D01*
X365181Y416838D01*
X364567Y416960D01*
X363952Y416838D01*
X363432Y416490D01*
X363084Y415969D01*
X363050Y415801D01*
X362540D01*
X362507Y415969D01*
X362159Y416490D01*
X361638Y416838D01*
X361024Y416960D01*
X360409Y416838D01*
X359888Y416490D01*
X359540Y415969D01*
X359507Y415801D01*
X358997D01*
X358964Y415969D01*
X358616Y416490D01*
X358095Y416838D01*
X357480Y416960D01*
X356866Y416838D01*
X356345Y416490D01*
X355997Y415969D01*
X355964Y415801D01*
X355454D01*
X355420Y415969D01*
X355072Y416490D01*
X354552Y416838D01*
X353937Y416960D01*
X353323Y416838D01*
X352802Y416490D01*
X352454Y415969D01*
X352331Y415354D01*
X352454Y414740D01*
X352802Y414219D01*
X353323Y413871D01*
X353937Y413749D01*
X354552Y413871D01*
X355072Y414219D01*
X355420Y414740D01*
X355454Y414907D01*
X355964D01*
X355997Y414740D01*
X356345Y414219D01*
X356866Y413871D01*
X357033Y413838D01*
Y413328D01*
X356866Y413294D01*
X356345Y412946D01*
X355997Y412426D01*
X355875Y411811D01*
X355875Y411810D01*
X355558Y411424D01*
X352715D01*
X352337Y411924D01*
X352393Y412205D01*
X352271Y412819D01*
X351923Y413340D01*
X351402Y413688D01*
X350787Y413810D01*
X350173Y413688D01*
X349652Y413340D01*
X349304Y412819D01*
X349182Y412205D01*
X349238Y411924D01*
X348860Y411424D01*
X347597D01*
X347219Y411924D01*
X347275Y412205D01*
X347153Y412819D01*
X346805Y413340D01*
X346284Y413688D01*
X345669Y413810D01*
X345055Y413688D01*
X344534Y413340D01*
X344186Y412819D01*
X344064Y412205D01*
X344120Y411924D01*
X343742Y411424D01*
X305469D01*
X305391Y411522D01*
X305247Y411924D01*
X305517Y412328D01*
X305639Y412942D01*
X305517Y413557D01*
X305169Y414078D01*
X304876Y414274D01*
X304849Y414857D01*
X305072Y415006D01*
X305420Y415527D01*
X305543Y416142D01*
X305420Y416756D01*
X305179Y417118D01*
X305169Y417712D01*
X305517Y418233D01*
X305639Y418848D01*
X305517Y419462D01*
X305169Y419983D01*
X304648Y420331D01*
X304034Y420454D01*
X303419Y420331D01*
X302898Y419983D01*
X302550Y419462D01*
X302428Y418848D01*
X302550Y418233D01*
X302396Y417581D01*
X302323Y417536D01*
X302189Y417625D01*
X301575Y417747D01*
X300960Y417625D01*
X300439Y417277D01*
X300091Y416756D01*
X299969Y416142D01*
X300091Y415527D01*
X300439Y415006D01*
X300733Y414810D01*
X300760Y414227D01*
X300536Y414078D01*
X300188Y413557D01*
X300066Y412942D01*
X300188Y412328D01*
X300458Y411924D01*
X300314Y411522D01*
X300237Y411424D01*
X295230D01*
X294913Y411810D01*
X294913Y411811D01*
X294791Y412426D01*
X294443Y412946D01*
X293924Y413293D01*
X293922Y413306D01*
X293928Y413803D01*
X294018Y413821D01*
X294539Y414169D01*
X294887Y414690D01*
X295009Y415305D01*
X294887Y415919D01*
X294539Y416440D01*
X294018Y416788D01*
X293404Y416910D01*
X292789Y416788D01*
X292268Y416440D01*
X291920Y415919D01*
X291887Y415752D01*
X291377D01*
X291344Y415919D01*
X290996Y416440D01*
X290475Y416788D01*
X289861Y416910D01*
X289246Y416788D01*
X288725Y416440D01*
X288377Y415919D01*
X288344Y415752D01*
X287834D01*
X287801Y415919D01*
X287453Y416440D01*
X286932Y416788D01*
X286317Y416910D01*
X285703Y416788D01*
X285182Y416440D01*
X284834Y415919D01*
X284800Y415752D01*
X284291D01*
X284257Y415919D01*
X283909Y416440D01*
X283388Y416788D01*
X282774Y416910D01*
X282159Y416788D01*
X281639Y416440D01*
X281291Y415919D01*
X281257Y415752D01*
X280747D01*
X280714Y415919D01*
X280366Y416440D01*
X279845Y416788D01*
X279231Y416910D01*
X278616Y416788D01*
X278095Y416440D01*
X277747Y415919D01*
X277714Y415752D01*
X277204D01*
X277171Y415919D01*
X276823Y416440D01*
X276302Y416788D01*
X275687Y416910D01*
X275073Y416788D01*
X274552Y416440D01*
X274204Y415919D01*
X274082Y415305D01*
X274204Y414690D01*
X274552Y414169D01*
X275073Y413821D01*
X275687Y413699D01*
X276302Y413821D01*
X276823Y414169D01*
X277171Y414690D01*
X277204Y414858D01*
X277714D01*
X277747Y414690D01*
X278095Y414169D01*
X278616Y413821D01*
X278784Y413788D01*
Y413278D01*
X278616Y413245D01*
X278095Y412897D01*
X277747Y412376D01*
X277625Y411761D01*
X277348Y411424D01*
X274499D01*
X274097Y411924D01*
X274143Y412155D01*
X274021Y412769D01*
X273673Y413290D01*
X273152Y413638D01*
X272538Y413761D01*
X271923Y413638D01*
X271402Y413290D01*
X271054Y412769D01*
X270932Y412155D01*
X270978Y411924D01*
X270577Y411424D01*
X269380D01*
X268979Y411924D01*
X269025Y412155D01*
X268903Y412769D01*
X268555Y413290D01*
X268034Y413638D01*
X267420Y413761D01*
X266805Y413638D01*
X266284Y413290D01*
X265936Y412769D01*
X265854Y412358D01*
X265354Y412407D01*
Y415346D01*
X265367Y415841D01*
X265367Y415841D01*
Y415841D01*
X265854Y415889D01*
X265869Y415817D01*
X265936Y415478D01*
X266284Y414957D01*
X266805Y414608D01*
X267420Y414486D01*
X268034Y414608D01*
X268555Y414957D01*
X268903Y415478D01*
X269025Y416092D01*
X268903Y416706D01*
X268621Y417128D01*
X268982Y417488D01*
X269167Y417364D01*
X269782Y417242D01*
X270396Y417364D01*
X270917Y417712D01*
X271265Y418233D01*
X271387Y418848D01*
X271297Y419302D01*
X271338Y419377D01*
X271615Y419654D01*
X271690Y419695D01*
X272144Y419604D01*
X272758Y419727D01*
X273279Y420075D01*
X273627Y420596D01*
X273661Y420763D01*
X274170D01*
X274204Y420596D01*
X274552Y420075D01*
X275073Y419727D01*
X275687Y419604D01*
X276302Y419727D01*
X276823Y420075D01*
X277171Y420596D01*
X277204Y420763D01*
X277714D01*
X277747Y420596D01*
X278095Y420075D01*
X278616Y419727D01*
X279231Y419604D01*
X279845Y419727D01*
X280366Y420075D01*
X280714Y420596D01*
X280747Y420763D01*
X281257D01*
X281291Y420596D01*
X281639Y420075D01*
X282159Y419727D01*
X282774Y419604D01*
X283388Y419727D01*
X283909Y420075D01*
X284257Y420596D01*
X284291Y420763D01*
X284800D01*
X284834Y420596D01*
X285182Y420075D01*
X285703Y419727D01*
X286317Y419604D01*
X286932Y419727D01*
X287453Y420075D01*
X287801Y420596D01*
X287834Y420763D01*
X288344D01*
X288377Y420596D01*
X288725Y420075D01*
X289246Y419727D01*
X289861Y419604D01*
X290475Y419727D01*
X290996Y420075D01*
X291344Y420596D01*
X291377Y420763D01*
X291887D01*
X291920Y420596D01*
X292268Y420075D01*
X292789Y419727D01*
X293404Y419604D01*
X294018Y419727D01*
X294539Y420075D01*
X294887Y420596D01*
X294921Y420763D01*
X295430D01*
X295464Y420596D01*
X295812Y420075D01*
X296333Y419727D01*
X296947Y419604D01*
X297562Y419727D01*
X298082Y420075D01*
X298430Y420596D01*
X298553Y421210D01*
X298430Y421825D01*
X298082Y422345D01*
X297562Y422693D01*
X296947Y422816D01*
X296333Y422693D01*
X295812Y422345D01*
X295464Y421825D01*
X295430Y421657D01*
X294921D01*
X294887Y421825D01*
X294539Y422345D01*
X294018Y422693D01*
X293404Y422816D01*
X292789Y422693D01*
X292268Y422345D01*
X291920Y421825D01*
X291887Y421657D01*
X291377D01*
X291344Y421825D01*
X290996Y422345D01*
X290475Y422693D01*
X289861Y422816D01*
X289246Y422693D01*
X288725Y422345D01*
X288377Y421825D01*
X288344Y421657D01*
X287834D01*
X287801Y421825D01*
X287453Y422345D01*
X286932Y422693D01*
X286317Y422816D01*
X285703Y422693D01*
X285182Y422345D01*
X284834Y421825D01*
X284800Y421657D01*
X284291D01*
X284257Y421825D01*
X283909Y422345D01*
X283388Y422693D01*
X282774Y422816D01*
X282159Y422693D01*
X281639Y422345D01*
X281291Y421825D01*
X281257Y421657D01*
X280747D01*
X280714Y421825D01*
X280366Y422345D01*
X279845Y422693D01*
X279231Y422816D01*
X278616Y422693D01*
X278095Y422345D01*
X277747Y421825D01*
X277714Y421657D01*
X277204D01*
X277171Y421825D01*
X276823Y422345D01*
X276302Y422693D01*
X275687Y422816D01*
X275073Y422693D01*
X274552Y422345D01*
X274204Y421825D01*
X274170Y421657D01*
X273661D01*
X273627Y421825D01*
X273279Y422345D01*
X272758Y422693D01*
X272144Y422816D01*
X271530Y422693D01*
X271009Y422345D01*
X270660Y421825D01*
X270538Y421210D01*
X270629Y420756D01*
X270588Y420681D01*
X270310Y420404D01*
X270236Y420363D01*
X269782Y420454D01*
X269167Y420331D01*
X268646Y419983D01*
X268298Y419462D01*
X268176Y418848D01*
X268298Y418233D01*
X268580Y417812D01*
X268219Y417451D01*
X268034Y417575D01*
X267420Y417698D01*
X266805Y417575D01*
X266284Y417227D01*
X265936Y416706D01*
X265869Y416367D01*
X265854Y416295D01*
X265367Y416343D01*
Y416343D01*
X265367Y416343D01*
X265354Y416838D01*
X265354Y466929D01*
X429999Y466929D01*
D02*
G37*
%LPC*%
G36*
X247326Y438906D02*
Y435751D01*
X250481D01*
X250392Y436426D01*
X250055Y437242D01*
X249517Y437942D01*
X248817Y438480D01*
X248001Y438818D01*
X247326Y438906D01*
D02*
G37*
G36*
X246926D02*
X246251Y438818D01*
X245435Y438480D01*
X244735Y437942D01*
X244197Y437242D01*
X243860Y436426D01*
X243771Y435751D01*
X246926D01*
Y438906D01*
D02*
G37*
G36*
X237126Y438933D02*
X236251Y438818D01*
X235435Y438480D01*
X234735Y437942D01*
X234197Y437242D01*
X233859Y436426D01*
X233744Y435551D01*
X233859Y434676D01*
X234197Y433860D01*
X234735Y433160D01*
X235435Y432623D01*
X236251Y432285D01*
X237126Y432169D01*
X238001Y432285D01*
X238682Y432567D01*
X241254Y429994D01*
X241582Y429776D01*
X241968Y429699D01*
X248401D01*
X249558Y428542D01*
X249227Y428165D01*
X248817Y428480D01*
X248001Y428818D01*
X247126Y428933D01*
X246251Y428818D01*
X245435Y428480D01*
X244735Y427942D01*
X244197Y427242D01*
X243860Y426426D01*
X243744Y425551D01*
X243860Y424676D01*
X244197Y423860D01*
X244735Y423160D01*
X245435Y422623D01*
X246251Y422285D01*
X247126Y422169D01*
X248001Y422285D01*
X248817Y422623D01*
X249517Y423160D01*
X250055Y423860D01*
X250392Y424676D01*
X250508Y425551D01*
X250392Y426426D01*
X250055Y427242D01*
X249740Y427653D01*
X250116Y427983D01*
X256856Y421243D01*
Y415752D01*
X256356Y415545D01*
X250714Y421187D01*
X250387Y421406D01*
X250000Y421482D01*
X242623D01*
X240110Y423995D01*
X240392Y424676D01*
X240508Y425551D01*
X240392Y426426D01*
X240055Y427242D01*
X239517Y427942D01*
X238817Y428480D01*
X238001Y428818D01*
X237126Y428933D01*
X236251Y428818D01*
X235435Y428480D01*
X234735Y427942D01*
X234197Y427242D01*
X233859Y426426D01*
X233744Y425551D01*
X233859Y424676D01*
X234197Y423860D01*
X234735Y423160D01*
X235435Y422623D01*
X236251Y422285D01*
X237126Y422169D01*
X238001Y422285D01*
X238682Y422567D01*
X241491Y419758D01*
X241818Y419539D01*
X242205Y419462D01*
X249582D01*
X254896Y414149D01*
Y409917D01*
X254396Y409710D01*
X250110Y413995D01*
X250392Y414676D01*
X250508Y415551D01*
X250392Y416426D01*
X250055Y417242D01*
X249517Y417942D01*
X248817Y418480D01*
X248001Y418818D01*
X247126Y418933D01*
X246251Y418818D01*
X245435Y418480D01*
X244735Y417942D01*
X244197Y417242D01*
X243860Y416426D01*
X243744Y415551D01*
X243860Y414676D01*
X244197Y413860D01*
X244735Y413160D01*
X245435Y412623D01*
X246251Y412285D01*
X247126Y412170D01*
X248001Y412285D01*
X248682Y412567D01*
X252927Y408322D01*
Y358268D01*
X253004Y357881D01*
X253223Y357554D01*
X292691Y318086D01*
Y295669D01*
X292768Y295283D01*
X292987Y294955D01*
X350815Y237126D01*
X351143Y236908D01*
X351529Y236831D01*
X363434D01*
X365571Y234694D01*
X365453Y234410D01*
X365365Y233740D01*
X365453Y233070D01*
X365712Y232446D01*
X366123Y231910D01*
X366260Y231805D01*
X366090Y231306D01*
X365387D01*
Y228940D01*
X367953D01*
Y228740D01*
X368153D01*
Y226175D01*
X370518D01*
Y226878D01*
X371018Y227047D01*
X371123Y226910D01*
X371659Y226499D01*
X372283Y226241D01*
X372753Y226179D01*
Y228740D01*
X373153D01*
Y226179D01*
X373622Y226241D01*
X374247Y226499D01*
X374782Y226910D01*
X375179Y227427D01*
X375305Y227446D01*
X375601D01*
X375727Y227427D01*
X376123Y226910D01*
X376659Y226499D01*
X377283Y226241D01*
X377753Y226179D01*
Y228740D01*
X378153D01*
Y226179D01*
X378622Y226241D01*
X379246Y226499D01*
X379782Y226910D01*
X380179Y227427D01*
X380305Y227446D01*
X380601D01*
X380727Y227427D01*
X381123Y226910D01*
X381659Y226499D01*
X382283Y226241D01*
X382753Y226179D01*
Y228740D01*
X383153D01*
Y226179D01*
X383622Y226241D01*
X384246Y226499D01*
X384782Y226910D01*
X385179Y227427D01*
X385305Y227446D01*
X385601D01*
X385727Y227427D01*
X386123Y226910D01*
X386659Y226499D01*
X387283Y226241D01*
X387753Y226179D01*
Y228740D01*
X388153D01*
Y226179D01*
X388622Y226241D01*
X389247Y226499D01*
X389782Y226910D01*
X390179Y227427D01*
X390305Y227446D01*
X390601D01*
X390727Y227427D01*
X391123Y226910D01*
X391659Y226499D01*
X392283Y226241D01*
X392753Y226179D01*
Y228740D01*
X392953D01*
Y228940D01*
X395514D01*
X395452Y229410D01*
X395194Y230034D01*
X394782Y230570D01*
X394266Y230966D01*
X394247Y231092D01*
Y231388D01*
X394266Y231514D01*
X394782Y231910D01*
X395194Y232446D01*
X395452Y233070D01*
X395540Y233740D01*
X395452Y234410D01*
X395194Y235034D01*
X394782Y235570D01*
X394247Y235981D01*
X393622Y236240D01*
X392953Y236328D01*
X392283Y236240D01*
X391971Y236110D01*
X379730Y248352D01*
X379402Y248571D01*
X379016Y248648D01*
X377277D01*
X377107Y249148D01*
X377667Y249577D01*
X378204Y250278D01*
X378542Y251093D01*
X378657Y251969D01*
X378542Y252844D01*
X378204Y253659D01*
X377667Y254360D01*
X376966Y254897D01*
X376151Y255235D01*
X375276Y255350D01*
X374400Y255235D01*
X373585Y254897D01*
X372884Y254360D01*
X372347Y253659D01*
X372009Y252844D01*
X371894Y251969D01*
X372009Y251093D01*
X372347Y250278D01*
X372884Y249577D01*
X373444Y249148D01*
X373274Y248648D01*
X368628D01*
Y251768D01*
X361923D01*
Y248648D01*
X355930D01*
X304691Y299887D01*
Y322101D01*
X304614Y322488D01*
X304395Y322815D01*
X264790Y362421D01*
Y404423D01*
X265309Y404770D01*
X265657Y405291D01*
X265779Y405905D01*
X265657Y406520D01*
X265309Y407041D01*
X264788Y407389D01*
X264173Y407511D01*
X263912Y407459D01*
X263411Y407846D01*
Y425000D01*
X263355Y425282D01*
X263417Y425591D01*
X263295Y426205D01*
X262946Y426726D01*
X262425Y427074D01*
X261811Y427196D01*
X261197Y427074D01*
X260676Y426726D01*
X260328Y426205D01*
X260205Y425591D01*
X260328Y424976D01*
X260676Y424455D01*
X261197Y424107D01*
X261392Y424068D01*
Y412747D01*
X260892Y412480D01*
X260851Y412507D01*
X260236Y412629D01*
X259622Y412507D01*
X259376Y412343D01*
X258876Y412610D01*
Y421661D01*
X258799Y422048D01*
X258580Y422376D01*
X249533Y431423D01*
X249205Y431642D01*
X248819Y431719D01*
X247532D01*
X247499Y432219D01*
X248001Y432285D01*
X248817Y432623D01*
X249517Y433160D01*
X250055Y433860D01*
X250392Y434676D01*
X250481Y435351D01*
X247126D01*
X243771D01*
X243860Y434676D01*
X244197Y433860D01*
X244735Y433160D01*
X245435Y432623D01*
X246251Y432285D01*
X246753Y432219D01*
X246720Y431719D01*
X242387D01*
X240110Y433995D01*
X240392Y434676D01*
X240508Y435551D01*
X240392Y436426D01*
X240055Y437242D01*
X239517Y437942D01*
X238817Y438480D01*
X238001Y438818D01*
X237126Y438933D01*
D02*
G37*
G36*
Y418933D02*
X236251Y418818D01*
X235435Y418480D01*
X234735Y417942D01*
X234197Y417242D01*
X233859Y416426D01*
X233744Y415551D01*
X233859Y414676D01*
X234197Y413860D01*
X234735Y413160D01*
X235435Y412623D01*
X236251Y412285D01*
X237126Y412170D01*
X238001Y412285D01*
X238817Y412623D01*
X239517Y413160D01*
X240055Y413860D01*
X240392Y414676D01*
X240508Y415551D01*
X240392Y416426D01*
X240055Y417242D01*
X239517Y417942D01*
X238817Y418480D01*
X238001Y418818D01*
X237126Y418933D01*
D02*
G37*
G36*
X237326Y408907D02*
Y405751D01*
X240481D01*
X240392Y406426D01*
X240055Y407242D01*
X239517Y407942D01*
X238817Y408480D01*
X238001Y408818D01*
X237326Y408907D01*
D02*
G37*
G36*
X236926D02*
X236251Y408818D01*
X235435Y408480D01*
X234735Y407942D01*
X234197Y407242D01*
X233859Y406426D01*
X233771Y405751D01*
X236926D01*
Y408907D01*
D02*
G37*
G36*
X433265Y408855D02*
X428044D01*
X428204Y407645D01*
X428748Y406332D01*
X429613Y405204D01*
X430741Y404338D01*
X432055Y403794D01*
X433265Y403635D01*
Y408855D01*
D02*
G37*
G36*
X438885D02*
X433665D01*
Y403635D01*
X434874Y403794D01*
X436188Y404338D01*
X437316Y405204D01*
X438181Y406332D01*
X438726Y407645D01*
X438885Y408855D01*
D02*
G37*
G36*
X240481Y405351D02*
X237326D01*
Y402196D01*
X238001Y402285D01*
X238817Y402623D01*
X239517Y403160D01*
X240055Y403860D01*
X240392Y404676D01*
X240481Y405351D01*
D02*
G37*
G36*
X236926D02*
X233771D01*
X233859Y404676D01*
X234197Y403860D01*
X234735Y403160D01*
X235435Y402623D01*
X236251Y402285D01*
X236926Y402196D01*
Y405351D01*
D02*
G37*
G36*
X247126Y408933D02*
X246251Y408818D01*
X245435Y408480D01*
X244735Y407942D01*
X244197Y407242D01*
X243860Y406426D01*
X243744Y405551D01*
X243860Y404676D01*
X244197Y403860D01*
X244735Y403160D01*
X245435Y402623D01*
X246251Y402285D01*
X247126Y402170D01*
X248001Y402285D01*
X248817Y402623D01*
X249517Y403160D01*
X250055Y403860D01*
X250392Y404676D01*
X250508Y405551D01*
X250392Y406426D01*
X250055Y407242D01*
X249517Y407942D01*
X248817Y408480D01*
X248001Y408818D01*
X247126Y408933D01*
D02*
G37*
G36*
Y398933D02*
X246251Y398818D01*
X245435Y398480D01*
X244735Y397942D01*
X244197Y397242D01*
X243860Y396426D01*
X243744Y395551D01*
X243860Y394676D01*
X244197Y393860D01*
X244735Y393160D01*
X245435Y392623D01*
X246251Y392285D01*
X247126Y392169D01*
X248001Y392285D01*
X248817Y392623D01*
X249517Y393160D01*
X250055Y393860D01*
X250392Y394676D01*
X250508Y395551D01*
X250392Y396426D01*
X250055Y397242D01*
X249517Y397942D01*
X248817Y398480D01*
X248001Y398818D01*
X247126Y398933D01*
D02*
G37*
G36*
X237126D02*
X236251Y398818D01*
X235435Y398480D01*
X234735Y397942D01*
X234197Y397242D01*
X233859Y396426D01*
X233744Y395551D01*
X233859Y394676D01*
X234197Y393860D01*
X234735Y393160D01*
X235435Y392623D01*
X236251Y392285D01*
X237126Y392169D01*
X238001Y392285D01*
X238817Y392623D01*
X239517Y393160D01*
X240055Y393860D01*
X240392Y394676D01*
X240508Y395551D01*
X240392Y396426D01*
X240055Y397242D01*
X239517Y397942D01*
X238817Y398480D01*
X238001Y398818D01*
X237126Y398933D01*
D02*
G37*
G36*
X237326Y388907D02*
Y385751D01*
X240481D01*
X240392Y386426D01*
X240055Y387242D01*
X239517Y387942D01*
X238817Y388480D01*
X238001Y388818D01*
X237326Y388907D01*
D02*
G37*
G36*
X236926D02*
X236251Y388818D01*
X235435Y388480D01*
X234735Y387942D01*
X234197Y387242D01*
X233859Y386426D01*
X233771Y385751D01*
X236926D01*
Y388907D01*
D02*
G37*
G36*
X240481Y385351D02*
X237326D01*
Y382196D01*
X238001Y382285D01*
X238817Y382623D01*
X239517Y383160D01*
X240055Y383860D01*
X240392Y384676D01*
X240481Y385351D01*
D02*
G37*
G36*
X236926D02*
X233771D01*
X233859Y384676D01*
X234197Y383860D01*
X234735Y383160D01*
X235435Y382623D01*
X236251Y382285D01*
X236926Y382196D01*
Y385351D01*
D02*
G37*
G36*
X247126Y388933D02*
X246251Y388818D01*
X245435Y388480D01*
X244735Y387942D01*
X244197Y387242D01*
X243860Y386426D01*
X243744Y385551D01*
X243860Y384676D01*
X244197Y383860D01*
X244735Y383160D01*
X245435Y382623D01*
X246251Y382285D01*
X247126Y382170D01*
X248001Y382285D01*
X248817Y382623D01*
X249517Y383160D01*
X250055Y383860D01*
X250392Y384676D01*
X250508Y385551D01*
X250392Y386426D01*
X250055Y387242D01*
X249517Y387942D01*
X248817Y388480D01*
X248001Y388818D01*
X247126Y388933D01*
D02*
G37*
G36*
Y378933D02*
X246251Y378818D01*
X245435Y378480D01*
X244735Y377942D01*
X244197Y377242D01*
X243860Y376426D01*
X243744Y375551D01*
X243860Y374676D01*
X244197Y373860D01*
X244735Y373160D01*
X245435Y372623D01*
X246251Y372285D01*
X247126Y372169D01*
X248001Y372285D01*
X248817Y372623D01*
X249517Y373160D01*
X250055Y373860D01*
X250392Y374676D01*
X250508Y375551D01*
X250392Y376426D01*
X250055Y377242D01*
X249517Y377942D01*
X248817Y378480D01*
X248001Y378818D01*
X247126Y378933D01*
D02*
G37*
G36*
X237126D02*
X236251Y378818D01*
X235435Y378480D01*
X234735Y377942D01*
X234197Y377242D01*
X233859Y376426D01*
X233744Y375551D01*
X233859Y374676D01*
X234197Y373860D01*
X234735Y373160D01*
X235435Y372623D01*
X236251Y372285D01*
X237126Y372169D01*
X238001Y372285D01*
X238817Y372623D01*
X239517Y373160D01*
X240055Y373860D01*
X240392Y374676D01*
X240508Y375551D01*
X240392Y376426D01*
X240055Y377242D01*
X239517Y377942D01*
X238817Y378480D01*
X238001Y378818D01*
X237126Y378933D01*
D02*
G37*
G36*
X247326Y368906D02*
Y365751D01*
X250481D01*
X250392Y366426D01*
X250055Y367242D01*
X249517Y367942D01*
X248817Y368480D01*
X248001Y368818D01*
X247326Y368906D01*
D02*
G37*
G36*
X246926D02*
X246251Y368818D01*
X245435Y368480D01*
X244735Y367942D01*
X244197Y367242D01*
X243860Y366426D01*
X243771Y365751D01*
X246926D01*
Y368906D01*
D02*
G37*
G36*
X250481Y365351D02*
X247326D01*
Y362196D01*
X248001Y362285D01*
X248817Y362623D01*
X249517Y363160D01*
X250055Y363860D01*
X250392Y364676D01*
X250481Y365351D01*
D02*
G37*
G36*
X246926D02*
X243771D01*
X243860Y364676D01*
X244197Y363860D01*
X244735Y363160D01*
X245435Y362623D01*
X246251Y362285D01*
X246926Y362196D01*
Y365351D01*
D02*
G37*
G36*
X237126Y368933D02*
X236251Y368818D01*
X235435Y368480D01*
X234735Y367942D01*
X234197Y367242D01*
X233859Y366426D01*
X233744Y365551D01*
X233859Y364676D01*
X234197Y363860D01*
X234735Y363160D01*
X235435Y362623D01*
X236251Y362285D01*
X237126Y362170D01*
X238001Y362285D01*
X238817Y362623D01*
X239517Y363160D01*
X240055Y363860D01*
X240392Y364676D01*
X240508Y365551D01*
X240392Y366426D01*
X240055Y367242D01*
X239517Y367942D01*
X238817Y368480D01*
X238001Y368818D01*
X237126Y368933D01*
D02*
G37*
G36*
Y358933D02*
X236251Y358818D01*
X235435Y358480D01*
X234735Y357942D01*
X234197Y357242D01*
X233859Y356426D01*
X233744Y355551D01*
X233859Y354676D01*
X234197Y353860D01*
X234735Y353160D01*
X235435Y352623D01*
X236251Y352285D01*
X237126Y352169D01*
X238001Y352285D01*
X238817Y352623D01*
X239517Y353160D01*
X240055Y353860D01*
X240392Y354676D01*
X240508Y355551D01*
X240392Y356426D01*
X240055Y357242D01*
X239517Y357942D01*
X238817Y358480D01*
X238001Y358818D01*
X237126Y358933D01*
D02*
G37*
G36*
X247126D02*
X246251Y358818D01*
X245435Y358480D01*
X244735Y357942D01*
X244197Y357242D01*
X243860Y356426D01*
X243744Y355551D01*
X243860Y354676D01*
X244197Y353860D01*
X244735Y353160D01*
X245435Y352623D01*
X246251Y352285D01*
X247126Y352169D01*
X248001Y352285D01*
X248682Y352567D01*
X256864Y344385D01*
Y329917D01*
X256364Y329710D01*
X250713Y335361D01*
X250501Y335503D01*
X250508Y335551D01*
X250392Y336426D01*
X250055Y337242D01*
X249517Y337942D01*
X248817Y338480D01*
X248001Y338818D01*
X247126Y338933D01*
X246251Y338818D01*
X245435Y338480D01*
X244735Y337942D01*
X244197Y337242D01*
X243860Y336426D01*
X243744Y335551D01*
X243860Y334676D01*
X244197Y333860D01*
X244735Y333160D01*
X245435Y332623D01*
X246251Y332285D01*
X247126Y332170D01*
X248001Y332285D01*
X248817Y332623D01*
X249517Y333160D01*
X249521Y333165D01*
X250020Y333197D01*
X252152Y331065D01*
X251834Y330677D01*
X251568Y330854D01*
X251181Y330931D01*
X244513D01*
X243136Y332308D01*
Y340133D01*
X245570Y342567D01*
X246251Y342285D01*
X247126Y342169D01*
X248001Y342285D01*
X248817Y342623D01*
X249517Y343160D01*
X250055Y343860D01*
X250392Y344676D01*
X250508Y345551D01*
X250392Y346426D01*
X250055Y347242D01*
X249517Y347942D01*
X248817Y348480D01*
X248001Y348818D01*
X247126Y348933D01*
X246251Y348818D01*
X245435Y348480D01*
X244735Y347942D01*
X244197Y347242D01*
X243860Y346426D01*
X243744Y345551D01*
X243860Y344676D01*
X244142Y343995D01*
X241412Y341265D01*
X241193Y340938D01*
X241116Y340551D01*
Y331890D01*
X241193Y331503D01*
X241412Y331176D01*
X243380Y329207D01*
X243708Y328988D01*
X244094Y328911D01*
X245213D01*
X245284Y328773D01*
X245346Y328411D01*
X244735Y327942D01*
X244197Y327242D01*
X243860Y326426D01*
X243744Y325551D01*
X243860Y324676D01*
X244197Y323860D01*
X244735Y323160D01*
X245435Y322623D01*
X246251Y322285D01*
X247126Y322169D01*
X248001Y322285D01*
X248817Y322623D01*
X249517Y323160D01*
X250055Y323860D01*
X250392Y324676D01*
X250508Y325551D01*
X250392Y326426D01*
X250055Y327242D01*
X249517Y327942D01*
X248906Y328411D01*
X248968Y328773D01*
X249039Y328911D01*
X250763D01*
X252927Y326747D01*
Y255906D01*
X253004Y255519D01*
X253223Y255191D01*
X271288Y237126D01*
X271615Y236908D01*
X272002Y236831D01*
X283631D01*
X285768Y234694D01*
X285650Y234410D01*
X285562Y233740D01*
X285650Y233070D01*
X285909Y232446D01*
X286320Y231910D01*
X286457Y231805D01*
X286287Y231306D01*
X285584D01*
Y228940D01*
X288150D01*
Y228740D01*
X288350D01*
Y226175D01*
X290715D01*
Y226878D01*
X291215Y227047D01*
X291320Y226910D01*
X291856Y226499D01*
X292480Y226241D01*
X292950Y226179D01*
Y228740D01*
X293350D01*
Y226179D01*
X293819Y226241D01*
X294443Y226499D01*
X294979Y226910D01*
X295376Y227427D01*
X295502Y227446D01*
X295798D01*
X295924Y227427D01*
X296320Y226910D01*
X296856Y226499D01*
X297480Y226241D01*
X297950Y226179D01*
Y228740D01*
X298350D01*
Y226179D01*
X298819Y226241D01*
X299443Y226499D01*
X299979Y226910D01*
X300376Y227427D01*
X300502Y227446D01*
X300798D01*
X300924Y227427D01*
X301320Y226910D01*
X301856Y226499D01*
X302480Y226241D01*
X302950Y226179D01*
Y228740D01*
X303350D01*
Y226179D01*
X303819Y226241D01*
X304443Y226499D01*
X304979Y226910D01*
X305376Y227427D01*
X305502Y227446D01*
X305798D01*
X305924Y227427D01*
X306320Y226910D01*
X306856Y226499D01*
X307480Y226241D01*
X307950Y226179D01*
Y228740D01*
X308350D01*
Y226179D01*
X308819Y226241D01*
X309443Y226499D01*
X309979Y226910D01*
X310376Y227427D01*
X310502Y227446D01*
X310798D01*
X310924Y227427D01*
X311320Y226910D01*
X311856Y226499D01*
X312480Y226241D01*
X312950Y226179D01*
Y228740D01*
X313150D01*
Y228940D01*
X315711D01*
X315649Y229410D01*
X315390Y230034D01*
X314979Y230570D01*
X314463Y230966D01*
X314443Y231092D01*
Y231388D01*
X314463Y231514D01*
X314979Y231910D01*
X315390Y232446D01*
X315649Y233070D01*
X315737Y233740D01*
X315649Y234410D01*
X315390Y235034D01*
X314979Y235570D01*
X314443Y235981D01*
X313819Y236240D01*
X313150Y236328D01*
X312480Y236240D01*
X312168Y236110D01*
X299927Y248352D01*
X299599Y248571D01*
X299213Y248648D01*
X297163D01*
X297064Y249148D01*
X297754Y249434D01*
X298454Y249971D01*
X298992Y250671D01*
X299329Y251487D01*
X299445Y252362D01*
X299329Y253237D01*
X298992Y254053D01*
X298454Y254753D01*
X297754Y255291D01*
X296938Y255629D01*
X296063Y255744D01*
X295188Y255629D01*
X294372Y255291D01*
X293672Y254753D01*
X293134Y254053D01*
X292796Y253237D01*
X292681Y252362D01*
X292796Y251487D01*
X293134Y250671D01*
X293672Y249971D01*
X294372Y249434D01*
X295062Y249148D01*
X294963Y248648D01*
X289750D01*
X289416Y249009D01*
X289416Y249148D01*
Y252162D01*
X282710D01*
Y249148D01*
X282710Y249009D01*
X282376Y248648D01*
X276403D01*
X264790Y260261D01*
Y319778D01*
X265309Y320125D01*
X265657Y320645D01*
X265779Y321260D01*
X265657Y321874D01*
X265309Y322395D01*
X264788Y322743D01*
X264173Y322866D01*
X263559Y322743D01*
X263321Y322584D01*
X262821Y322852D01*
Y339856D01*
X263340Y340203D01*
X263688Y340724D01*
X263810Y341339D01*
X263688Y341953D01*
X263340Y342474D01*
X262819Y342822D01*
X262205Y342944D01*
X261590Y342822D01*
X261352Y342663D01*
X260853Y342930D01*
Y347244D01*
X260776Y347631D01*
X260557Y347958D01*
X257875Y350640D01*
X257905Y350787D01*
X257783Y351402D01*
X257435Y351923D01*
X256914Y352271D01*
X256299Y352393D01*
X255685Y352271D01*
X255164Y351923D01*
X254816Y351402D01*
X254694Y350787D01*
X254816Y350173D01*
X255164Y349652D01*
X255685Y349304D01*
X256299Y349182D01*
X256447Y349211D01*
X258833Y346826D01*
Y345980D01*
X258333Y345773D01*
X250110Y353995D01*
X250392Y354676D01*
X250508Y355551D01*
X250392Y356426D01*
X250055Y357242D01*
X249517Y357942D01*
X248817Y358480D01*
X248001Y358818D01*
X247126Y358933D01*
D02*
G37*
G36*
X237126Y348933D02*
X236251Y348818D01*
X235435Y348480D01*
X234735Y347942D01*
X234197Y347242D01*
X233859Y346426D01*
X233744Y345551D01*
X233859Y344676D01*
X234197Y343860D01*
X234735Y343160D01*
X235435Y342623D01*
X236251Y342285D01*
X237126Y342169D01*
X238001Y342285D01*
X238817Y342623D01*
X239517Y343160D01*
X240055Y343860D01*
X240392Y344676D01*
X240508Y345551D01*
X240392Y346426D01*
X240055Y347242D01*
X239517Y347942D01*
X238817Y348480D01*
X238001Y348818D01*
X237126Y348933D01*
D02*
G37*
G36*
X237326Y338907D02*
Y335751D01*
X240481D01*
X240392Y336426D01*
X240055Y337242D01*
X239517Y337942D01*
X238817Y338480D01*
X238001Y338818D01*
X237326Y338907D01*
D02*
G37*
G36*
X236926D02*
X236251Y338818D01*
X235435Y338480D01*
X234735Y337942D01*
X234197Y337242D01*
X233859Y336426D01*
X233771Y335751D01*
X236926D01*
Y338907D01*
D02*
G37*
G36*
X240481Y335351D02*
X237326D01*
Y332196D01*
X238001Y332285D01*
X238817Y332623D01*
X239517Y333160D01*
X240055Y333860D01*
X240392Y334676D01*
X240481Y335351D01*
D02*
G37*
G36*
X236926D02*
X233771D01*
X233859Y334676D01*
X234197Y333860D01*
X234735Y333160D01*
X235435Y332623D01*
X236251Y332285D01*
X236926Y332196D01*
Y335351D01*
D02*
G37*
G36*
X237126Y328933D02*
X236251Y328818D01*
X235435Y328480D01*
X234735Y327942D01*
X234197Y327242D01*
X233859Y326426D01*
X233744Y325551D01*
X233859Y324676D01*
X234197Y323860D01*
X234735Y323160D01*
X235435Y322623D01*
X236251Y322285D01*
X237126Y322169D01*
X238001Y322285D01*
X238817Y322623D01*
X239517Y323160D01*
X240055Y323860D01*
X240392Y324676D01*
X240508Y325551D01*
X240392Y326426D01*
X240055Y327242D01*
X239517Y327942D01*
X238817Y328480D01*
X238001Y328818D01*
X237126Y328933D01*
D02*
G37*
G36*
X247126Y318933D02*
X246251Y318818D01*
X245435Y318480D01*
X244735Y317942D01*
X244197Y317242D01*
X243860Y316426D01*
X243744Y315551D01*
X243860Y314676D01*
X244197Y313860D01*
X244735Y313160D01*
X245435Y312623D01*
X246251Y312285D01*
X247126Y312170D01*
X248001Y312285D01*
X248817Y312623D01*
X249517Y313160D01*
X250055Y313860D01*
X250392Y314676D01*
X250508Y315551D01*
X250392Y316426D01*
X250055Y317242D01*
X249517Y317942D01*
X248817Y318480D01*
X248001Y318818D01*
X247126Y318933D01*
D02*
G37*
G36*
X237126D02*
X236251Y318818D01*
X235435Y318480D01*
X234735Y317942D01*
X234197Y317242D01*
X233859Y316426D01*
X233744Y315551D01*
X233859Y314676D01*
X234197Y313860D01*
X234735Y313160D01*
X235435Y312623D01*
X236251Y312285D01*
X237126Y312170D01*
X238001Y312285D01*
X238817Y312623D01*
X239517Y313160D01*
X240055Y313860D01*
X240392Y314676D01*
X240508Y315551D01*
X240392Y316426D01*
X240055Y317242D01*
X239517Y317942D01*
X238817Y318480D01*
X238001Y318818D01*
X237126Y318933D01*
D02*
G37*
G36*
X237326Y308907D02*
Y305751D01*
X240481D01*
X240392Y306426D01*
X240055Y307242D01*
X239517Y307942D01*
X238817Y308480D01*
X238001Y308818D01*
X237326Y308907D01*
D02*
G37*
G36*
X236926D02*
X236251Y308818D01*
X235435Y308480D01*
X234735Y307942D01*
X234197Y307242D01*
X233859Y306426D01*
X233771Y305751D01*
X236926D01*
Y308907D01*
D02*
G37*
G36*
X240481Y305351D02*
X237326D01*
Y302196D01*
X238001Y302285D01*
X238817Y302623D01*
X239517Y303160D01*
X240055Y303860D01*
X240392Y304676D01*
X240481Y305351D01*
D02*
G37*
G36*
X236926D02*
X233771D01*
X233859Y304676D01*
X234197Y303860D01*
X234735Y303160D01*
X235435Y302623D01*
X236251Y302285D01*
X236926Y302196D01*
Y305351D01*
D02*
G37*
G36*
X247126Y308933D02*
X246251Y308818D01*
X245435Y308480D01*
X244735Y307942D01*
X244197Y307242D01*
X243860Y306426D01*
X243744Y305551D01*
X243860Y304676D01*
X244197Y303860D01*
X244735Y303160D01*
X245435Y302623D01*
X246251Y302285D01*
X247126Y302169D01*
X248001Y302285D01*
X248817Y302623D01*
X249517Y303160D01*
X250055Y303860D01*
X250392Y304676D01*
X250508Y305551D01*
X250392Y306426D01*
X250055Y307242D01*
X249517Y307942D01*
X248817Y308480D01*
X248001Y308818D01*
X247126Y308933D01*
D02*
G37*
G36*
Y298933D02*
X246251Y298818D01*
X245435Y298480D01*
X244735Y297942D01*
X244197Y297242D01*
X243860Y296426D01*
X243744Y295551D01*
X243860Y294676D01*
X244197Y293860D01*
X244735Y293160D01*
X245435Y292623D01*
X246251Y292285D01*
X247126Y292169D01*
X248001Y292285D01*
X248817Y292623D01*
X249517Y293160D01*
X250055Y293860D01*
X250392Y294676D01*
X250508Y295551D01*
X250392Y296426D01*
X250055Y297242D01*
X249517Y297942D01*
X248817Y298480D01*
X248001Y298818D01*
X247126Y298933D01*
D02*
G37*
G36*
X237126D02*
X236251Y298818D01*
X235435Y298480D01*
X234735Y297942D01*
X234197Y297242D01*
X233859Y296426D01*
X233744Y295551D01*
X233859Y294676D01*
X234197Y293860D01*
X234735Y293160D01*
X235435Y292623D01*
X236251Y292285D01*
X237126Y292169D01*
X238001Y292285D01*
X238817Y292623D01*
X239517Y293160D01*
X240055Y293860D01*
X240392Y294676D01*
X240508Y295551D01*
X240392Y296426D01*
X240055Y297242D01*
X239517Y297942D01*
X238817Y298480D01*
X238001Y298818D01*
X237126Y298933D01*
D02*
G37*
G36*
X402362Y293338D02*
X401748Y293216D01*
X401227Y292868D01*
X400879Y292347D01*
X400757Y291732D01*
X400879Y291118D01*
X401227Y290597D01*
X401748Y290249D01*
X402362Y290127D01*
X402977Y290249D01*
X403498Y290597D01*
X403846Y291118D01*
X403968Y291732D01*
X403846Y292347D01*
X403498Y292868D01*
X402977Y293216D01*
X402362Y293338D01*
D02*
G37*
G36*
X340945D02*
X340330Y293216D01*
X339809Y292868D01*
X339461Y292347D01*
X339339Y291732D01*
X339461Y291118D01*
X339809Y290597D01*
X340330Y290249D01*
X340945Y290127D01*
X341559Y290249D01*
X342080Y290597D01*
X342428Y291118D01*
X342550Y291732D01*
X342428Y292347D01*
X342080Y292868D01*
X341559Y293216D01*
X340945Y293338D01*
D02*
G37*
G36*
X418110Y292157D02*
X417496Y292035D01*
X416975Y291687D01*
X416627Y291166D01*
X416505Y290551D01*
X416627Y289937D01*
X416975Y289416D01*
X417496Y289068D01*
X418110Y288946D01*
X418725Y289068D01*
X419246Y289416D01*
X419594Y289937D01*
X419716Y290551D01*
X419594Y291166D01*
X419246Y291687D01*
X418725Y292035D01*
X418110Y292157D01*
D02*
G37*
G36*
X247326Y288907D02*
Y285751D01*
X250481D01*
X250392Y286426D01*
X250055Y287242D01*
X249517Y287942D01*
X248817Y288480D01*
X248001Y288818D01*
X247326Y288907D01*
D02*
G37*
G36*
X246926D02*
X246251Y288818D01*
X245435Y288480D01*
X244735Y287942D01*
X244197Y287242D01*
X243860Y286426D01*
X243771Y285751D01*
X246926D01*
Y288907D01*
D02*
G37*
G36*
X250481Y285351D02*
X247326D01*
Y282196D01*
X248001Y282285D01*
X248817Y282623D01*
X249517Y283160D01*
X250055Y283860D01*
X250392Y284676D01*
X250481Y285351D01*
D02*
G37*
G36*
X246926D02*
X243771D01*
X243860Y284676D01*
X244197Y283860D01*
X244735Y283160D01*
X245435Y282623D01*
X246251Y282285D01*
X246926Y282196D01*
Y285351D01*
D02*
G37*
G36*
X237126Y288933D02*
X236251Y288818D01*
X235435Y288480D01*
X234735Y287942D01*
X234197Y287242D01*
X233859Y286426D01*
X233744Y285551D01*
X233859Y284676D01*
X234197Y283860D01*
X234735Y283160D01*
X235435Y282623D01*
X236251Y282285D01*
X237126Y282170D01*
X238001Y282285D01*
X238817Y282623D01*
X239517Y283160D01*
X240055Y283860D01*
X240392Y284676D01*
X240508Y285551D01*
X240392Y286426D01*
X240055Y287242D01*
X239517Y287942D01*
X238817Y288480D01*
X238001Y288818D01*
X237126Y288933D01*
D02*
G37*
G36*
X418110Y279558D02*
X417496Y279436D01*
X416975Y279088D01*
X416627Y278567D01*
X416505Y277953D01*
X416627Y277338D01*
X416975Y276817D01*
X417496Y276469D01*
X418110Y276347D01*
X418725Y276469D01*
X419246Y276817D01*
X419594Y277338D01*
X419716Y277953D01*
X419594Y278567D01*
X419246Y279088D01*
X418725Y279436D01*
X418110Y279558D01*
D02*
G37*
G36*
X247126Y278933D02*
X246251Y278818D01*
X245435Y278480D01*
X244735Y277942D01*
X244197Y277242D01*
X243860Y276426D01*
X243744Y275551D01*
X243860Y274676D01*
X244197Y273860D01*
X244735Y273160D01*
X245435Y272623D01*
X246251Y272285D01*
X247126Y272169D01*
X248001Y272285D01*
X248817Y272623D01*
X249517Y273160D01*
X250055Y273860D01*
X250392Y274676D01*
X250508Y275551D01*
X250392Y276426D01*
X250055Y277242D01*
X249517Y277942D01*
X248817Y278480D01*
X248001Y278818D01*
X247126Y278933D01*
D02*
G37*
G36*
X237126D02*
X236251Y278818D01*
X235435Y278480D01*
X234735Y277942D01*
X234197Y277242D01*
X233859Y276426D01*
X233744Y275551D01*
X233859Y274676D01*
X234197Y273860D01*
X234735Y273160D01*
X235435Y272623D01*
X236251Y272285D01*
X237126Y272169D01*
X238001Y272285D01*
X238817Y272623D01*
X239517Y273160D01*
X240055Y273860D01*
X240392Y274676D01*
X240508Y275551D01*
X240392Y276426D01*
X240055Y277242D01*
X239517Y277942D01*
X238817Y278480D01*
X238001Y278818D01*
X237126Y278933D01*
D02*
G37*
G36*
X237326Y268906D02*
Y265751D01*
X240481D01*
X240392Y266426D01*
X240055Y267242D01*
X239517Y267942D01*
X238817Y268480D01*
X238001Y268818D01*
X237326Y268906D01*
D02*
G37*
G36*
X236926D02*
X236251Y268818D01*
X235435Y268480D01*
X234735Y267942D01*
X234197Y267242D01*
X233859Y266426D01*
X233771Y265751D01*
X236926D01*
Y268906D01*
D02*
G37*
G36*
X240481Y265351D02*
X237326D01*
Y262196D01*
X238001Y262285D01*
X238817Y262623D01*
X239517Y263160D01*
X240055Y263860D01*
X240392Y264676D01*
X240481Y265351D01*
D02*
G37*
G36*
X236926D02*
X233771D01*
X233859Y264676D01*
X234197Y263860D01*
X234735Y263160D01*
X235435Y262623D01*
X236251Y262285D01*
X236926Y262196D01*
Y265351D01*
D02*
G37*
G36*
X247126Y268933D02*
X246251Y268818D01*
X245435Y268480D01*
X244735Y267942D01*
X244197Y267242D01*
X243860Y266426D01*
X243744Y265551D01*
X243860Y264676D01*
X244197Y263860D01*
X244735Y263160D01*
X245435Y262623D01*
X246251Y262285D01*
X247126Y262170D01*
X248001Y262285D01*
X248817Y262623D01*
X249517Y263160D01*
X250055Y263860D01*
X250392Y264676D01*
X250508Y265551D01*
X250392Y266426D01*
X250055Y267242D01*
X249517Y267942D01*
X248817Y268480D01*
X248001Y268818D01*
X247126Y268933D01*
D02*
G37*
G36*
X316263Y255717D02*
Y252562D01*
X319418D01*
X319329Y253237D01*
X318992Y254053D01*
X318454Y254753D01*
X317754Y255291D01*
X316938Y255629D01*
X316263Y255717D01*
D02*
G37*
G36*
X315863D02*
X315188Y255629D01*
X314372Y255291D01*
X313672Y254753D01*
X313134Y254053D01*
X312796Y253237D01*
X312708Y252562D01*
X315863D01*
Y255717D01*
D02*
G37*
G36*
X289416Y255715D02*
X286263D01*
Y252562D01*
X289416D01*
Y255715D01*
D02*
G37*
G36*
X285863D02*
X282710D01*
Y252562D01*
X285863D01*
Y255715D01*
D02*
G37*
G36*
X247126Y258933D02*
X246251Y258818D01*
X245435Y258480D01*
X244735Y257942D01*
X244197Y257242D01*
X243860Y256426D01*
X243744Y255551D01*
X243860Y254676D01*
X244197Y253860D01*
X244735Y253160D01*
X245435Y252623D01*
X246251Y252285D01*
X247126Y252169D01*
X248001Y252285D01*
X248817Y252623D01*
X249517Y253160D01*
X250055Y253860D01*
X250392Y254676D01*
X250508Y255551D01*
X250392Y256426D01*
X250055Y257242D01*
X249517Y257942D01*
X248817Y258480D01*
X248001Y258818D01*
X247126Y258933D01*
D02*
G37*
G36*
X237126D02*
X236251Y258818D01*
X235435Y258480D01*
X234735Y257942D01*
X234197Y257242D01*
X233859Y256426D01*
X233744Y255551D01*
X233859Y254676D01*
X234197Y253860D01*
X234735Y253160D01*
X235435Y252623D01*
X236251Y252285D01*
X237126Y252169D01*
X238001Y252285D01*
X238817Y252623D01*
X239517Y253160D01*
X240055Y253860D01*
X240392Y254676D01*
X240508Y255551D01*
X240392Y256426D01*
X240055Y257242D01*
X239517Y257942D01*
X238817Y258480D01*
X238001Y258818D01*
X237126Y258933D01*
D02*
G37*
G36*
X395476Y255324D02*
Y252168D01*
X398631D01*
X398542Y252844D01*
X398204Y253659D01*
X397667Y254360D01*
X396966Y254897D01*
X396151Y255235D01*
X395476Y255324D01*
D02*
G37*
G36*
X395076D02*
X394400Y255235D01*
X393585Y254897D01*
X392884Y254360D01*
X392347Y253659D01*
X392009Y252844D01*
X391920Y252168D01*
X395076D01*
Y255324D01*
D02*
G37*
G36*
X368628Y255321D02*
X365476D01*
Y252168D01*
X368628D01*
Y255321D01*
D02*
G37*
G36*
X365076D02*
X361923D01*
Y252168D01*
X365076D01*
Y255321D01*
D02*
G37*
G36*
X319418Y252162D02*
X316263D01*
Y249007D01*
X316938Y249096D01*
X317754Y249434D01*
X318454Y249971D01*
X318992Y250671D01*
X319329Y251487D01*
X319418Y252162D01*
D02*
G37*
G36*
X315863D02*
X312708D01*
X312796Y251487D01*
X313134Y250671D01*
X313672Y249971D01*
X314372Y249434D01*
X315188Y249096D01*
X315863Y249007D01*
Y252162D01*
D02*
G37*
G36*
X306063Y255744D02*
X305188Y255629D01*
X304372Y255291D01*
X303672Y254753D01*
X303134Y254053D01*
X302797Y253237D01*
X302681Y252362D01*
X302797Y251487D01*
X303134Y250671D01*
X303672Y249971D01*
X304372Y249434D01*
X305188Y249096D01*
X306063Y248980D01*
X306938Y249096D01*
X307754Y249434D01*
X308454Y249971D01*
X308992Y250671D01*
X309329Y251487D01*
X309445Y252362D01*
X309329Y253237D01*
X308992Y254053D01*
X308454Y254753D01*
X307754Y255291D01*
X306938Y255629D01*
X306063Y255744D01*
D02*
G37*
G36*
X398631Y251768D02*
X395476D01*
Y248613D01*
X396151Y248702D01*
X396966Y249040D01*
X397667Y249577D01*
X398204Y250278D01*
X398542Y251093D01*
X398631Y251768D01*
D02*
G37*
G36*
X395076D02*
X391920D01*
X392009Y251093D01*
X392347Y250278D01*
X392884Y249577D01*
X393585Y249040D01*
X394400Y248702D01*
X395076Y248613D01*
Y251768D01*
D02*
G37*
G36*
X385276Y255350D02*
X384400Y255235D01*
X383585Y254897D01*
X382884Y254360D01*
X382347Y253659D01*
X382009Y252844D01*
X381894Y251969D01*
X382009Y251093D01*
X382347Y250278D01*
X382884Y249577D01*
X383585Y249040D01*
X384400Y248702D01*
X385276Y248587D01*
X386151Y248702D01*
X386966Y249040D01*
X387667Y249577D01*
X388204Y250278D01*
X388542Y251093D01*
X388657Y251969D01*
X388542Y252844D01*
X388204Y253659D01*
X387667Y254360D01*
X386966Y254897D01*
X386151Y255235D01*
X385276Y255350D01*
D02*
G37*
G36*
X250479Y248904D02*
X243773D01*
Y242198D01*
X250479D01*
Y248904D01*
D02*
G37*
G36*
X237126Y248933D02*
X236251Y248818D01*
X235435Y248480D01*
X234735Y247942D01*
X234197Y247242D01*
X233859Y246426D01*
X233744Y245551D01*
X233859Y244676D01*
X234197Y243860D01*
X234735Y243160D01*
X235435Y242623D01*
X236251Y242285D01*
X237126Y242169D01*
X238001Y242285D01*
X238817Y242623D01*
X239517Y243160D01*
X240055Y243860D01*
X240392Y244676D01*
X240508Y245551D01*
X240392Y246426D01*
X240055Y247242D01*
X239517Y247942D01*
X238817Y248480D01*
X238001Y248818D01*
X237126Y248933D01*
D02*
G37*
G36*
X395514Y228540D02*
X393153D01*
Y226179D01*
X393622Y226241D01*
X394247Y226499D01*
X394782Y226910D01*
X395194Y227446D01*
X395452Y228070D01*
X395514Y228540D01*
D02*
G37*
G36*
X315711Y228540D02*
X313350D01*
Y226179D01*
X313819Y226241D01*
X314443Y226499D01*
X314979Y226910D01*
X315390Y227446D01*
X315649Y228070D01*
X315711Y228540D01*
D02*
G37*
G36*
X367753Y228540D02*
X365387D01*
Y226175D01*
X367753D01*
Y228540D01*
D02*
G37*
G36*
X287950Y228540D02*
X285584D01*
Y226175D01*
X287950D01*
Y228540D01*
D02*
G37*
G36*
X433465Y434502D02*
X432055Y434316D01*
X430741Y433772D01*
X429613Y432906D01*
X428748Y431778D01*
X428204Y430465D01*
X428018Y429055D01*
X428204Y427645D01*
X428748Y426332D01*
X429613Y425204D01*
X430741Y424338D01*
X432055Y423794D01*
X433465Y423608D01*
X434874Y423794D01*
X436188Y424338D01*
X437316Y425204D01*
X438181Y426332D01*
X438726Y427645D01*
X438911Y429055D01*
X438726Y430465D01*
X438181Y431778D01*
X437316Y432906D01*
X436188Y433772D01*
X434874Y434316D01*
X433465Y434502D01*
D02*
G37*
G36*
X375197Y422865D02*
X374582Y422743D01*
X374061Y422395D01*
X373713Y421874D01*
X373680Y421707D01*
X373170D01*
X373137Y421874D01*
X372789Y422395D01*
X372268Y422743D01*
X371654Y422865D01*
X371039Y422743D01*
X370518Y422395D01*
X370170Y421874D01*
X370137Y421707D01*
X369627D01*
X369594Y421874D01*
X369246Y422395D01*
X368725Y422743D01*
X368110Y422865D01*
X367496Y422743D01*
X366975Y422395D01*
X366627Y421874D01*
X366594Y421707D01*
X366084D01*
X366050Y421874D01*
X365702Y422395D01*
X365181Y422743D01*
X364567Y422865D01*
X363952Y422743D01*
X363432Y422395D01*
X363084Y421874D01*
X363050Y421707D01*
X362540D01*
X362507Y421874D01*
X362159Y422395D01*
X361638Y422743D01*
X361024Y422865D01*
X360409Y422743D01*
X359888Y422395D01*
X359540Y421874D01*
X359507Y421707D01*
X358997D01*
X358964Y421874D01*
X358616Y422395D01*
X358095Y422743D01*
X357480Y422865D01*
X356866Y422743D01*
X356345Y422395D01*
X355997Y421874D01*
X355964Y421707D01*
X355454D01*
X355420Y421874D01*
X355072Y422395D01*
X354552Y422743D01*
X353937Y422865D01*
X353323Y422743D01*
X352802Y422395D01*
X352454Y421874D01*
X352420Y421707D01*
X351910D01*
X351877Y421874D01*
X351529Y422395D01*
X351008Y422743D01*
X350394Y422865D01*
X349779Y422743D01*
X349258Y422395D01*
X348910Y421874D01*
X348788Y421260D01*
X348878Y420806D01*
X348837Y420731D01*
X348560Y420454D01*
X348485Y420413D01*
X348031Y420503D01*
X347417Y420381D01*
X346896Y420033D01*
X346548Y419512D01*
X346426Y418898D01*
X346548Y418283D01*
X346830Y417862D01*
X346469Y417501D01*
X346284Y417625D01*
X345669Y417747D01*
X345055Y417625D01*
X344534Y417277D01*
X344186Y416756D01*
X344064Y416142D01*
X344186Y415527D01*
X344534Y415006D01*
X345055Y414658D01*
X345669Y414536D01*
X346284Y414658D01*
X346805Y415006D01*
X347153Y415527D01*
X347275Y416142D01*
X347153Y416756D01*
X346871Y417178D01*
X347232Y417538D01*
X347417Y417414D01*
X348031Y417292D01*
X348646Y417414D01*
X349167Y417762D01*
X349515Y418283D01*
X349637Y418898D01*
X349547Y419352D01*
X349588Y419426D01*
X349865Y419704D01*
X349940Y419744D01*
X350394Y419654D01*
X351008Y419776D01*
X351529Y420124D01*
X351877Y420645D01*
X351910Y420813D01*
X352420D01*
X352454Y420645D01*
X352802Y420124D01*
X353323Y419776D01*
X353937Y419654D01*
X354552Y419776D01*
X355072Y420124D01*
X355420Y420645D01*
X355454Y420813D01*
X355964D01*
X355997Y420645D01*
X356345Y420124D01*
X356866Y419776D01*
X357480Y419654D01*
X358095Y419776D01*
X358616Y420124D01*
X358964Y420645D01*
X358997Y420813D01*
X359507D01*
X359540Y420645D01*
X359888Y420124D01*
X360409Y419776D01*
X361024Y419654D01*
X361638Y419776D01*
X362159Y420124D01*
X362507Y420645D01*
X362540Y420813D01*
X363050D01*
X363084Y420645D01*
X363432Y420124D01*
X363952Y419776D01*
X364567Y419654D01*
X365181Y419776D01*
X365702Y420124D01*
X366050Y420645D01*
X366084Y420813D01*
X366594D01*
X366627Y420645D01*
X366975Y420124D01*
X367496Y419776D01*
X368110Y419654D01*
X368725Y419776D01*
X369246Y420124D01*
X369594Y420645D01*
X369627Y420813D01*
X370137D01*
X370170Y420645D01*
X370518Y420124D01*
X371039Y419776D01*
X371654Y419654D01*
X372268Y419776D01*
X372789Y420124D01*
X373137Y420645D01*
X373170Y420813D01*
X373680D01*
X373713Y420645D01*
X374061Y420124D01*
X374582Y419776D01*
X375197Y419654D01*
X375811Y419776D01*
X376332Y420124D01*
X376680Y420645D01*
X376802Y421260D01*
X376680Y421874D01*
X376332Y422395D01*
X375811Y422743D01*
X375197Y422865D01*
D02*
G37*
%LPD*%
D44*
X259842Y360630D02*
X299744Y320728D01*
X260236Y410811D02*
Y411024D01*
X259842Y410417D02*
X260236Y410811D01*
X259842Y360630D02*
Y410417D01*
X262402Y407196D02*
Y425000D01*
X261811Y425591D02*
X262402Y425000D01*
X261811Y406606D02*
X262402Y407196D01*
X293701Y295669D02*
Y318504D01*
X253937Y358268D02*
Y408740D01*
Y358268D02*
X293701Y318504D01*
X295669Y296457D02*
Y319291D01*
X255906Y359055D02*
X295669Y319291D01*
X352368Y239757D02*
X366935D01*
X353150Y241732D02*
X370512D01*
X297772Y297110D02*
Y319945D01*
X257866Y359850D02*
X297772Y319945D01*
X257866Y359850D02*
Y421661D01*
X299744Y297894D02*
Y320728D01*
X353937Y243701D02*
X373504D01*
X301716Y298677D02*
Y321512D01*
X354724Y245669D02*
X376260D01*
X261811Y361417D02*
X301716Y321512D01*
X355512Y247638D02*
X379016D01*
X303681Y299468D02*
X355512Y247638D01*
X263779Y362003D02*
X303681Y322101D01*
X370512Y241732D02*
X377953Y234291D01*
X376260Y245669D02*
X386726Y235204D01*
X299744Y297894D02*
X353937Y243701D01*
X301716Y298677D02*
X354724Y245669D01*
X303681Y299468D02*
Y322101D01*
X297772Y297110D02*
X353150Y241732D01*
X373504Y243701D02*
X382953Y234252D01*
X379016Y247638D02*
X392913Y233740D01*
X295669Y296457D02*
X352368Y239757D01*
X366935D02*
X372953Y233740D01*
X293701Y295669D02*
X351529Y237841D01*
X363852D02*
X367953Y233740D01*
X351529Y237841D02*
X363852D01*
X242126Y340551D02*
X247126Y345551D01*
X242126Y331890D02*
Y340551D01*
X244094Y329921D02*
X251181D01*
X242126Y331890D02*
X244094Y329921D01*
X253937Y255906D02*
Y327165D01*
X251181Y329921D02*
X253937Y327165D01*
Y255906D02*
X272002Y237841D01*
X284049D02*
X288150Y233740D01*
X272002Y237841D02*
X284049D01*
X255906Y256693D02*
X272841Y239757D01*
X247126Y335551D02*
X248030Y334647D01*
X249998D02*
X255906Y328740D01*
X248030Y334647D02*
X249998D01*
X287132Y239757D02*
X293150Y233740D01*
X272841Y239757D02*
X287132D01*
X255906Y256693D02*
Y328740D01*
X299213Y247638D02*
X313110Y233740D01*
X313150D01*
X293701Y243701D02*
X303150Y234252D01*
Y233740D02*
Y234252D01*
X298150Y233740D02*
Y234291D01*
X273622Y241732D02*
X290709D01*
X263779Y259842D02*
X275984Y247638D01*
X264173Y321100D02*
Y321260D01*
X263779Y320706D02*
X264173Y321100D01*
X275984Y247638D02*
X299213D01*
X275197Y245669D02*
X296457D01*
X262205Y341179D02*
Y341339D01*
X261811Y259055D02*
Y340785D01*
X274410Y243701D02*
X293701D01*
X257874Y257480D02*
Y344803D01*
X247126Y355551D02*
X257874Y344803D01*
Y257480D02*
X273622Y241732D01*
X256299Y350787D02*
X259842Y347244D01*
Y258268D02*
Y347244D01*
X261811Y340785D02*
X262205Y341179D01*
X296457Y245669D02*
X306922Y235204D01*
X263779Y259842D02*
Y320706D01*
X261811Y259055D02*
X275197Y245669D01*
X259842Y258268D02*
X274410Y243701D01*
X263779Y362003D02*
Y405352D01*
X290709Y241732D02*
X298150Y234291D01*
X264173Y405746D02*
Y405905D01*
X263779Y405352D02*
X264173Y405746D01*
X261811Y361417D02*
Y406606D01*
X248819Y430709D02*
X257866Y421661D01*
X255906Y359055D02*
Y414567D01*
X242205Y420472D02*
X250000D01*
X255906Y414567D01*
X247126Y415551D02*
X253937Y408740D01*
X237126Y435551D02*
X241968Y430709D01*
X248819D01*
X237126Y425551D02*
X242205Y420472D01*
D49*
X288150Y228740D02*
D03*
X367953D02*
D03*
D50*
X288150Y233740D02*
D03*
X293150Y228740D02*
D03*
Y233740D02*
D03*
X298150Y228740D02*
D03*
Y233740D02*
D03*
X303150Y228740D02*
D03*
Y233740D02*
D03*
X308150Y228740D02*
D03*
Y233740D02*
D03*
X313150Y228740D02*
D03*
Y233740D02*
D03*
X367953D02*
D03*
X372953Y228740D02*
D03*
Y233740D02*
D03*
X377953Y228740D02*
D03*
Y233740D02*
D03*
X382953Y228740D02*
D03*
Y233740D02*
D03*
X387953Y228740D02*
D03*
Y233740D02*
D03*
X392953Y228740D02*
D03*
Y233740D02*
D03*
D51*
X433465Y429055D02*
D03*
Y409055D02*
D03*
D52*
X237126Y435551D02*
D03*
X247126D02*
D03*
X237126Y425551D02*
D03*
X247126D02*
D03*
X237126Y415551D02*
D03*
X247126D02*
D03*
X237126Y405551D02*
D03*
X247126D02*
D03*
X237126Y395551D02*
D03*
X247126D02*
D03*
X237126Y385551D02*
D03*
X247126D02*
D03*
X237126Y375551D02*
D03*
X247126D02*
D03*
X237126Y365551D02*
D03*
X247126D02*
D03*
X237126Y355551D02*
D03*
X247126D02*
D03*
X237126Y345551D02*
D03*
X247126D02*
D03*
X237126Y335551D02*
D03*
X247126D02*
D03*
X237126Y325551D02*
D03*
X247126D02*
D03*
X237126Y315551D02*
D03*
X247126D02*
D03*
X237126Y305551D02*
D03*
X247126D02*
D03*
X237126Y295551D02*
D03*
X247126D02*
D03*
X237126Y285551D02*
D03*
X247126D02*
D03*
X237126Y275551D02*
D03*
X247126D02*
D03*
X237126Y265551D02*
D03*
X247126D02*
D03*
X237126Y255551D02*
D03*
X247126D02*
D03*
X237126Y245551D02*
D03*
X395276Y251969D02*
D03*
X385276D02*
D03*
X375276D02*
D03*
X316063Y252362D02*
D03*
X306063D02*
D03*
X296063D02*
D03*
D53*
X247126Y245551D02*
D03*
D54*
X365276Y251969D02*
D03*
X286063Y252362D02*
D03*
D55*
X402362Y291732D02*
D03*
X340945D02*
D03*
X260236Y411024D02*
D03*
X301575Y416142D02*
D03*
X303937D02*
D03*
X379921D02*
D03*
X388583Y416535D02*
D03*
X385433Y419685D02*
D03*
Y416535D02*
D03*
X388583Y419685D02*
D03*
X418110Y277953D02*
D03*
X277165Y360630D02*
D03*
Y352756D02*
D03*
Y321260D02*
D03*
Y329134D02*
D03*
Y305512D02*
D03*
Y313386D02*
D03*
Y297638D02*
D03*
X345669Y297638D02*
D03*
X355118Y293701D02*
D03*
X345669Y313386D02*
D03*
X355118Y309449D02*
D03*
Y301575D02*
D03*
X345669Y305512D02*
D03*
Y329134D02*
D03*
X355118Y325197D02*
D03*
Y317323D02*
D03*
X345669Y321260D02*
D03*
Y344882D02*
D03*
X355118Y340945D02*
D03*
Y333071D02*
D03*
X345669Y337008D02*
D03*
Y352756D02*
D03*
X355118Y348819D02*
D03*
Y356693D02*
D03*
X345669Y360630D02*
D03*
X416535Y405118D02*
D03*
X407087Y409449D02*
D03*
X417717Y391732D02*
D03*
X407480D02*
D03*
X396063D02*
D03*
X390551Y400394D02*
D03*
X264173Y321260D02*
D03*
X262205Y341339D02*
D03*
X256299Y350787D02*
D03*
X264173Y405905D02*
D03*
X261811Y425591D02*
D03*
X310236Y416535D02*
D03*
X307087D02*
D03*
Y419685D02*
D03*
X310236D02*
D03*
X339370Y391732D02*
D03*
X329134D02*
D03*
X317717D02*
D03*
X335039Y400787D02*
D03*
X323228D02*
D03*
X311024D02*
D03*
X418110Y290551D02*
D03*
X435827Y302362D02*
D03*
Y277953D02*
D03*
Y290551D02*
D03*
X304034Y418848D02*
D03*
Y412942D02*
D03*
X301672D02*
D03*
X293307Y411811D02*
D03*
X293404Y415305D02*
D03*
X289861D02*
D03*
X286317D02*
D03*
X282774D02*
D03*
X279231D02*
D03*
X275687D02*
D03*
X272538Y412155D02*
D03*
Y408612D02*
D03*
Y405068D02*
D03*
Y401525D02*
D03*
Y397982D02*
D03*
Y394438D02*
D03*
Y390895D02*
D03*
Y387352D02*
D03*
Y383808D02*
D03*
Y380265D02*
D03*
X272835Y377165D02*
D03*
X276378D02*
D03*
X279921D02*
D03*
X283465D02*
D03*
X287008D02*
D03*
X290551D02*
D03*
X294094D02*
D03*
X297638D02*
D03*
X301181D02*
D03*
X304724D02*
D03*
X308268D02*
D03*
X310333Y379872D02*
D03*
Y383415D02*
D03*
Y386958D02*
D03*
Y390501D02*
D03*
X289861Y411761D02*
D03*
X286317D02*
D03*
X282774D02*
D03*
X279231D02*
D03*
X276868Y408612D02*
D03*
Y405068D02*
D03*
Y401525D02*
D03*
Y397982D02*
D03*
Y394438D02*
D03*
Y390895D02*
D03*
Y387352D02*
D03*
Y383808D02*
D03*
X279624Y383021D02*
D03*
X283168D02*
D03*
X286711D02*
D03*
X290254D02*
D03*
X293797D02*
D03*
X297341D02*
D03*
X300884D02*
D03*
X304427D02*
D03*
X306396Y386958D02*
D03*
Y390501D02*
D03*
Y394045D02*
D03*
Y397588D02*
D03*
Y401131D02*
D03*
X286317Y421210D02*
D03*
X282774D02*
D03*
X279231D02*
D03*
X275687D02*
D03*
X272144D02*
D03*
X267420Y412155D02*
D03*
Y408612D02*
D03*
Y405068D02*
D03*
Y401525D02*
D03*
Y397982D02*
D03*
Y394438D02*
D03*
Y390895D02*
D03*
Y387352D02*
D03*
Y383808D02*
D03*
Y380265D02*
D03*
Y376722D02*
D03*
Y373179D02*
D03*
X270176Y371604D02*
D03*
X273719D02*
D03*
X277262D02*
D03*
X267420Y416092D02*
D03*
X269782Y418848D02*
D03*
X289861Y421210D02*
D03*
X293404D02*
D03*
X296947D02*
D03*
X309152Y403100D02*
D03*
X311811Y409166D02*
D03*
X314961D02*
D03*
X317717D02*
D03*
X390158Y409449D02*
D03*
X387402Y403150D02*
D03*
X393307Y409449D02*
D03*
X396063D02*
D03*
X375197Y421260D02*
D03*
X371654D02*
D03*
X368110D02*
D03*
X348031Y418898D02*
D03*
X345669Y416142D02*
D03*
X355512Y371654D02*
D03*
X351969D02*
D03*
X348425D02*
D03*
X345669Y373228D02*
D03*
Y376772D02*
D03*
Y380315D02*
D03*
Y383858D02*
D03*
Y387402D02*
D03*
Y390945D02*
D03*
Y394488D02*
D03*
Y398031D02*
D03*
Y401575D02*
D03*
Y405118D02*
D03*
Y408661D02*
D03*
Y412205D02*
D03*
X350394Y421260D02*
D03*
X353937D02*
D03*
X357480D02*
D03*
X361024D02*
D03*
X364567D02*
D03*
X384646Y401181D02*
D03*
Y397638D02*
D03*
Y394094D02*
D03*
Y390551D02*
D03*
Y387008D02*
D03*
X382677Y383071D02*
D03*
X379134D02*
D03*
X375591D02*
D03*
X372047D02*
D03*
X368504D02*
D03*
X364961D02*
D03*
X361417D02*
D03*
X357874D02*
D03*
X355118Y383858D02*
D03*
Y387402D02*
D03*
Y390945D02*
D03*
Y394488D02*
D03*
Y398031D02*
D03*
Y401575D02*
D03*
Y405118D02*
D03*
Y408661D02*
D03*
X357480Y411811D02*
D03*
X361024D02*
D03*
X364567D02*
D03*
X368110D02*
D03*
X388583Y390551D02*
D03*
Y387008D02*
D03*
Y383465D02*
D03*
Y379921D02*
D03*
X386221Y376772D02*
D03*
X382677D02*
D03*
X379134D02*
D03*
X375591D02*
D03*
X372047D02*
D03*
X368504D02*
D03*
X364961D02*
D03*
X361417D02*
D03*
X357874D02*
D03*
X354331D02*
D03*
X350787D02*
D03*
Y380315D02*
D03*
Y383858D02*
D03*
Y387402D02*
D03*
Y390945D02*
D03*
Y394488D02*
D03*
Y398031D02*
D03*
Y401575D02*
D03*
Y405118D02*
D03*
Y408661D02*
D03*
Y412205D02*
D03*
X353937Y415354D02*
D03*
X357480D02*
D03*
X361024D02*
D03*
X364567D02*
D03*
X368110D02*
D03*
X371654D02*
D03*
Y411811D02*
D03*
X379921Y412992D02*
D03*
X382283D02*
D03*
X382283Y416142D02*
D03*
X382283Y418898D02*
D03*
D56*
X351195Y270252D02*
D03*
X351181Y274803D02*
D03*
X274803Y274410D02*
D03*
Y269685D02*
D03*
D57*
X242126Y454724D02*
D03*
X435039D02*
D03*
Y226378D02*
D03*
X242126D02*
D03*
M02*
