G04*
G04 #@! TF.GenerationSoftware,Altium Limited,Altium Designer,20.0.9 (164)*
G04*
G04 Layer_Color=128*
%FSLAX25Y25*%
%MOIN*%
G70*
G01*
G75*
%ADD18R,0.03150X0.05118*%
%ADD19R,0.02500X0.02500*%
%ADD20R,0.02756X0.06693*%
D18*
X143701Y275590D02*
D03*
X150394D02*
D03*
X133071Y233858D02*
D03*
X139764D02*
D03*
X185827Y275590D02*
D03*
X192520D02*
D03*
X175197Y233858D02*
D03*
X181890D02*
D03*
X227953Y275590D02*
D03*
X234646D02*
D03*
X217323Y233858D02*
D03*
X224016D02*
D03*
X270079Y275590D02*
D03*
X276772D02*
D03*
X259449Y233858D02*
D03*
X266142D02*
D03*
X312205Y275590D02*
D03*
X318898D02*
D03*
X301575Y233858D02*
D03*
X308268D02*
D03*
X354331Y275590D02*
D03*
X361024D02*
D03*
X343701Y233858D02*
D03*
X350394D02*
D03*
X396457Y275590D02*
D03*
X403150D02*
D03*
X385827Y233858D02*
D03*
X392520D02*
D03*
X438583Y275590D02*
D03*
X445276D02*
D03*
X427953Y233858D02*
D03*
X434646D02*
D03*
X143701Y223622D02*
D03*
X150394D02*
D03*
X133071Y181890D02*
D03*
X139764D02*
D03*
X185827Y223622D02*
D03*
X192520D02*
D03*
X175197Y181890D02*
D03*
X181890D02*
D03*
X227953Y223622D02*
D03*
X234646D02*
D03*
X217323Y181890D02*
D03*
X224016D02*
D03*
X270079Y223622D02*
D03*
X276772D02*
D03*
X259449Y181890D02*
D03*
X266142D02*
D03*
X312205Y223622D02*
D03*
X318898D02*
D03*
X301575Y181890D02*
D03*
X308268D02*
D03*
X354331Y223622D02*
D03*
X361024D02*
D03*
X343701Y181890D02*
D03*
X350394D02*
D03*
X396457Y223622D02*
D03*
X403150D02*
D03*
X385827Y181890D02*
D03*
X392520D02*
D03*
X438583Y223622D02*
D03*
X445276D02*
D03*
X427953Y181890D02*
D03*
X434646D02*
D03*
X143701Y171653D02*
D03*
X150394D02*
D03*
X133071Y129921D02*
D03*
X139764D02*
D03*
X185827Y171653D02*
D03*
X192520D02*
D03*
X175197Y129921D02*
D03*
X181890D02*
D03*
X227953Y171653D02*
D03*
X234646D02*
D03*
X217323Y129921D02*
D03*
X224016D02*
D03*
X270079Y171653D02*
D03*
X276772D02*
D03*
X259449Y129921D02*
D03*
X266142D02*
D03*
X312205Y171653D02*
D03*
X318898D02*
D03*
X301575Y129921D02*
D03*
X308268D02*
D03*
X354331Y171653D02*
D03*
X361024D02*
D03*
X343701Y129921D02*
D03*
X350394D02*
D03*
X396457Y171653D02*
D03*
X403150D02*
D03*
X385827Y129921D02*
D03*
X392520D02*
D03*
X438583Y171653D02*
D03*
X445276D02*
D03*
X427953Y129921D02*
D03*
X434646D02*
D03*
X143701Y119685D02*
D03*
X150394D02*
D03*
X133071Y77953D02*
D03*
X139764D02*
D03*
X185827Y119685D02*
D03*
X192520D02*
D03*
X175197Y77953D02*
D03*
X181890D02*
D03*
X227953Y119685D02*
D03*
X234646D02*
D03*
X217323Y77953D02*
D03*
X224016D02*
D03*
X270079Y119685D02*
D03*
X276772D02*
D03*
X259449Y77953D02*
D03*
X266142D02*
D03*
X312205Y119685D02*
D03*
X318898D02*
D03*
X301575Y77953D02*
D03*
X308268D02*
D03*
X354331Y119685D02*
D03*
X361024D02*
D03*
X343701Y77953D02*
D03*
X350394D02*
D03*
X396457Y119685D02*
D03*
X403150D02*
D03*
X385827Y77953D02*
D03*
X392520D02*
D03*
X438583Y119685D02*
D03*
X445276D02*
D03*
X427953Y77953D02*
D03*
X434646D02*
D03*
X354331Y67716D02*
D03*
X361024D02*
D03*
X438583D02*
D03*
X445276D02*
D03*
X396457D02*
D03*
X403150D02*
D03*
X312205D02*
D03*
X318898D02*
D03*
X270079D02*
D03*
X276772D02*
D03*
X227953D02*
D03*
X234646D02*
D03*
X185827D02*
D03*
X192520D02*
D03*
X143701D02*
D03*
X150394D02*
D03*
X427953Y25984D02*
D03*
X434646D02*
D03*
X385827D02*
D03*
X392520D02*
D03*
X343701D02*
D03*
X350394D02*
D03*
X301575D02*
D03*
X308268D02*
D03*
X259449D02*
D03*
X266142D02*
D03*
X217323D02*
D03*
X224016D02*
D03*
X175197D02*
D03*
X181890D02*
D03*
X133071D02*
D03*
X139764D02*
D03*
D19*
X131071Y275590D02*
D03*
X135071D02*
D03*
X131071Y223622D02*
D03*
X135071D02*
D03*
X131071Y171653D02*
D03*
X135071D02*
D03*
X131071Y119685D02*
D03*
X135071D02*
D03*
X131071Y67716D02*
D03*
X135071D02*
D03*
D20*
X415354Y266929D02*
D03*
X427953D02*
D03*
X436614D02*
D03*
X445276D02*
D03*
Y242520D02*
D03*
X436614D02*
D03*
X427953D02*
D03*
X415354D02*
D03*
X373228Y266929D02*
D03*
X385827D02*
D03*
X394488D02*
D03*
X403150D02*
D03*
Y242520D02*
D03*
X394488D02*
D03*
X385827D02*
D03*
X373228D02*
D03*
X331102Y266929D02*
D03*
X343701D02*
D03*
X352362D02*
D03*
X361024D02*
D03*
Y242520D02*
D03*
X352362D02*
D03*
X343701D02*
D03*
X331102D02*
D03*
X288976Y266929D02*
D03*
X301575D02*
D03*
X310236D02*
D03*
X318898D02*
D03*
Y242520D02*
D03*
X310236D02*
D03*
X301575D02*
D03*
X288976D02*
D03*
X246850Y266929D02*
D03*
X259449D02*
D03*
X268110D02*
D03*
X276772D02*
D03*
Y242520D02*
D03*
X268110D02*
D03*
X259449D02*
D03*
X246850D02*
D03*
X204724Y266929D02*
D03*
X217323D02*
D03*
X225984D02*
D03*
X234646D02*
D03*
Y242520D02*
D03*
X225984D02*
D03*
X217323D02*
D03*
X204724D02*
D03*
X162598Y266929D02*
D03*
X175197D02*
D03*
X183858D02*
D03*
X192520D02*
D03*
Y242520D02*
D03*
X183858D02*
D03*
X175197D02*
D03*
X162598D02*
D03*
X120472Y266929D02*
D03*
X133071D02*
D03*
X141732D02*
D03*
X150394D02*
D03*
Y242520D02*
D03*
X141732D02*
D03*
X133071D02*
D03*
X120472D02*
D03*
X415354Y214961D02*
D03*
X427953D02*
D03*
X436614D02*
D03*
X445276D02*
D03*
Y190551D02*
D03*
X436614D02*
D03*
X427953D02*
D03*
X415354D02*
D03*
X373228Y214961D02*
D03*
X385827D02*
D03*
X394488D02*
D03*
X403150D02*
D03*
Y190551D02*
D03*
X394488D02*
D03*
X385827D02*
D03*
X373228D02*
D03*
X331102Y214961D02*
D03*
X343701D02*
D03*
X352362D02*
D03*
X361024D02*
D03*
Y190551D02*
D03*
X352362D02*
D03*
X343701D02*
D03*
X331102D02*
D03*
X288976Y214961D02*
D03*
X301575D02*
D03*
X310236D02*
D03*
X318898D02*
D03*
Y190551D02*
D03*
X310236D02*
D03*
X301575D02*
D03*
X288976D02*
D03*
X246850Y214961D02*
D03*
X259449D02*
D03*
X268110D02*
D03*
X276772D02*
D03*
Y190551D02*
D03*
X268110D02*
D03*
X259449D02*
D03*
X246850D02*
D03*
X204724Y214961D02*
D03*
X217323D02*
D03*
X225984D02*
D03*
X234646D02*
D03*
Y190551D02*
D03*
X225984D02*
D03*
X217323D02*
D03*
X204724D02*
D03*
X162598Y214961D02*
D03*
X175197D02*
D03*
X183858D02*
D03*
X192520D02*
D03*
Y190551D02*
D03*
X183858D02*
D03*
X175197D02*
D03*
X162598D02*
D03*
X120472Y214961D02*
D03*
X133071D02*
D03*
X141732D02*
D03*
X150394D02*
D03*
Y190551D02*
D03*
X141732D02*
D03*
X133071D02*
D03*
X120472D02*
D03*
X415354Y162992D02*
D03*
X427953D02*
D03*
X436614D02*
D03*
X445276D02*
D03*
Y138583D02*
D03*
X436614D02*
D03*
X427953D02*
D03*
X415354D02*
D03*
X373228Y162992D02*
D03*
X385827D02*
D03*
X394488D02*
D03*
X403150D02*
D03*
Y138583D02*
D03*
X394488D02*
D03*
X385827D02*
D03*
X373228D02*
D03*
X331102Y162992D02*
D03*
X343701D02*
D03*
X352362D02*
D03*
X361024D02*
D03*
Y138583D02*
D03*
X352362D02*
D03*
X343701D02*
D03*
X331102D02*
D03*
X288976Y162992D02*
D03*
X301575D02*
D03*
X310236D02*
D03*
X318898D02*
D03*
Y138583D02*
D03*
X310236D02*
D03*
X301575D02*
D03*
X288976D02*
D03*
X246850Y162992D02*
D03*
X259449D02*
D03*
X268110D02*
D03*
X276772D02*
D03*
Y138583D02*
D03*
X268110D02*
D03*
X259449D02*
D03*
X246850D02*
D03*
X204724Y162992D02*
D03*
X217323D02*
D03*
X225984D02*
D03*
X234646D02*
D03*
Y138583D02*
D03*
X225984D02*
D03*
X217323D02*
D03*
X204724D02*
D03*
X162598Y162992D02*
D03*
X175197D02*
D03*
X183858D02*
D03*
X192520D02*
D03*
Y138583D02*
D03*
X183858D02*
D03*
X175197D02*
D03*
X162598D02*
D03*
X120472Y162992D02*
D03*
X133071D02*
D03*
X141732D02*
D03*
X150394D02*
D03*
Y138583D02*
D03*
X141732D02*
D03*
X133071D02*
D03*
X120472D02*
D03*
X415354Y111024D02*
D03*
X427953D02*
D03*
X436614D02*
D03*
X445276D02*
D03*
Y86614D02*
D03*
X436614D02*
D03*
X427953D02*
D03*
X415354D02*
D03*
X373228Y111024D02*
D03*
X385827D02*
D03*
X394488D02*
D03*
X403150D02*
D03*
Y86614D02*
D03*
X394488D02*
D03*
X385827D02*
D03*
X373228D02*
D03*
X331102Y111024D02*
D03*
X343701D02*
D03*
X352362D02*
D03*
X361024D02*
D03*
Y86614D02*
D03*
X352362D02*
D03*
X343701D02*
D03*
X331102D02*
D03*
X288976Y111024D02*
D03*
X301575D02*
D03*
X310236D02*
D03*
X318898D02*
D03*
Y86614D02*
D03*
X310236D02*
D03*
X301575D02*
D03*
X288976D02*
D03*
X246850Y111024D02*
D03*
X259449D02*
D03*
X268110D02*
D03*
X276772D02*
D03*
Y86614D02*
D03*
X268110D02*
D03*
X259449D02*
D03*
X246850D02*
D03*
X204724Y111024D02*
D03*
X217323D02*
D03*
X225984D02*
D03*
X234646D02*
D03*
Y86614D02*
D03*
X225984D02*
D03*
X217323D02*
D03*
X204724D02*
D03*
X162598Y111024D02*
D03*
X175197D02*
D03*
X183858D02*
D03*
X192520D02*
D03*
Y86614D02*
D03*
X183858D02*
D03*
X175197D02*
D03*
X162598D02*
D03*
X120472Y111024D02*
D03*
X133071D02*
D03*
X141732D02*
D03*
X150394D02*
D03*
Y86614D02*
D03*
X141732D02*
D03*
X133071D02*
D03*
X120472D02*
D03*
Y59055D02*
D03*
X133071D02*
D03*
X141732D02*
D03*
X150394D02*
D03*
X150394Y34646D02*
D03*
X141732D02*
D03*
X133071D02*
D03*
X120472D02*
D03*
X162598Y59055D02*
D03*
X175197Y59055D02*
D03*
X183858D02*
D03*
X192520D02*
D03*
Y34646D02*
D03*
X183858D02*
D03*
X175197Y34646D02*
D03*
X162598D02*
D03*
X246850Y59055D02*
D03*
X259449Y59055D02*
D03*
X268110D02*
D03*
X276772D02*
D03*
Y34646D02*
D03*
X268110D02*
D03*
X259449D02*
D03*
X246850D02*
D03*
X204725Y59055D02*
D03*
X217323Y59055D02*
D03*
X225984Y59055D02*
D03*
X234646D02*
D03*
Y34646D02*
D03*
X225984D02*
D03*
X217323Y34646D02*
D03*
X204725Y34646D02*
D03*
X288976Y59055D02*
D03*
X301575Y59055D02*
D03*
X310236Y59055D02*
D03*
X318898D02*
D03*
Y34646D02*
D03*
X310236D02*
D03*
X301575D02*
D03*
X288976D02*
D03*
X331102Y59055D02*
D03*
X343701Y59055D02*
D03*
X352362Y59055D02*
D03*
X361024Y59055D02*
D03*
Y34646D02*
D03*
X352362D02*
D03*
X343701D02*
D03*
X331102D02*
D03*
X373228Y59055D02*
D03*
X385827D02*
D03*
X394488Y59055D02*
D03*
X403150Y59055D02*
D03*
Y34646D02*
D03*
X394488Y34646D02*
D03*
X385827Y34646D02*
D03*
X373228D02*
D03*
X415354Y59055D02*
D03*
X427953Y59055D02*
D03*
X436614Y59055D02*
D03*
X445276D02*
D03*
Y34646D02*
D03*
X436614D02*
D03*
X427953D02*
D03*
X415354D02*
D03*
M02*
