G04*
G04 #@! TF.GenerationSoftware,Altium Limited,Altium Designer,20.0.9 (164)*
G04*
G04 Layer_Color=65535*
%FSLAX25Y25*%
%MOIN*%
G70*
G01*
G75*
%ADD10C,0.00787*%
%ADD11C,0.00984*%
%ADD12C,0.00394*%
%ADD13C,0.01000*%
%ADD14C,0.00800*%
G36*
X32283Y37402D02*
X23622D01*
Y40551D01*
X32283D01*
Y37402D01*
D02*
G37*
G36*
X32283Y230315D02*
X23622D01*
Y233465D01*
X32283D01*
Y230315D01*
D02*
G37*
G36*
X503922Y80709D02*
X500787D01*
Y90945D01*
X503922D01*
Y80709D01*
D02*
G37*
G36*
X503922Y210630D02*
X500787D01*
Y220866D01*
X503922D01*
Y210630D01*
D02*
G37*
D10*
X469049Y150787D02*
G03*
X469049Y150787I-2120J0D01*
G01*
X472835D02*
G03*
X472835Y150787I-5906J0D01*
G01*
X33858Y189370D02*
G03*
X33858Y189370I-9843J0D01*
G01*
Y213189D02*
G03*
X33858Y213189I-9843J0D01*
G01*
X-1181Y35827D02*
X1181D01*
X-1181D02*
Y79921D01*
X-787D01*
X-1181Y35827D02*
X8661D01*
Y79921D01*
X-1181D02*
X8661D01*
X472958Y55112D02*
X476895D01*
X472958Y53931D02*
Y55112D01*
X476895Y53931D02*
Y55112D01*
X472958Y53931D02*
X476895D01*
X473021Y45286D02*
X476958D01*
X473021Y44104D02*
Y45286D01*
X476958Y44104D02*
Y45286D01*
X473021Y44104D02*
X476958D01*
X465167Y44059D02*
X469104D01*
Y45240D01*
X465167Y44059D02*
Y45240D01*
X469104D01*
X12205Y40551D02*
X44882D01*
X24409Y233465D02*
X26378D01*
X12205D02*
X44882D01*
X478740Y75984D02*
Y95669D01*
X471260Y146457D02*
X474803D01*
Y147638D02*
X477165D01*
X474803Y150787D02*
X477165D01*
X474803Y153937D02*
X477165D01*
X474803Y146457D02*
Y155118D01*
X471260D02*
X474803D01*
X465551Y149409D02*
X468110Y151969D01*
X463386Y116142D02*
Y135039D01*
X478740D01*
Y115354D02*
Y135039D01*
X463386Y115354D02*
X478740D01*
X471063D02*
Y135039D01*
X463386Y125197D02*
X478740D01*
X463386Y115354D02*
Y118898D01*
Y95669D02*
Y99213D01*
X463386Y105512D02*
X478740D01*
X471063Y95669D02*
Y115354D01*
X463386Y95669D02*
X478740D01*
Y115354D01*
X463386D02*
X478740D01*
X463386Y96457D02*
Y115354D01*
X463386Y75984D02*
Y79528D01*
X463386Y85827D02*
X478740D01*
X471063Y75984D02*
Y95669D01*
X463386Y75984D02*
X478740D01*
X463386Y95669D02*
X478740D01*
X463386Y76772D02*
Y95669D01*
X463386Y56299D02*
Y59842D01*
X463386Y66142D02*
X478740D01*
X471063Y56299D02*
Y75984D01*
X463386Y56299D02*
X478740D01*
Y75984D01*
X463386D02*
X478740D01*
X463386Y57087D02*
Y75984D01*
X463386Y36614D02*
Y40157D01*
X463386Y46457D02*
X478740D01*
X471063Y36614D02*
Y56299D01*
X463386Y36614D02*
X478740D01*
Y56299D01*
X463386D02*
X478740D01*
X463386Y37402D02*
Y56299D01*
Y167323D02*
Y186221D01*
X478740D01*
Y166535D02*
Y186221D01*
X463386Y166535D02*
X478740D01*
X471063D02*
Y186221D01*
X463386Y176378D02*
X478740D01*
X463386Y166535D02*
Y170079D01*
X463386Y187008D02*
Y205906D01*
X478740D01*
Y186221D02*
Y205906D01*
X463386Y186221D02*
X478740D01*
X471063D02*
Y205906D01*
X463386Y196063D02*
X478740D01*
X463386Y186221D02*
Y189764D01*
X463386Y206693D02*
Y225590D01*
X478740D01*
Y205906D02*
Y225590D01*
X463386Y205906D02*
X478740D01*
X471063D02*
Y225590D01*
X463386Y215748D02*
X478740D01*
X463386Y205906D02*
Y209449D01*
X463386Y226378D02*
Y245276D01*
X478740D01*
Y225590D02*
Y245276D01*
X463386Y225590D02*
X478740D01*
X471063D02*
Y245276D01*
X463386Y235433D02*
X478740D01*
X463386Y225590D02*
Y229134D01*
Y245276D02*
Y248819D01*
X463386Y255118D02*
X478740D01*
X471063Y245276D02*
Y264961D01*
X463386Y245276D02*
X478740D01*
Y264961D01*
X463386D02*
X478740D01*
X463386Y246063D02*
Y264961D01*
X113779Y228346D02*
X452362D01*
X480827Y265866D02*
X500827Y265866D01*
X500827Y165866D02*
Y173366D01*
X480827Y165866D02*
X500827Y165866D01*
X480827Y165866D02*
X480827Y173366D01*
Y265866D01*
X500827Y265866D02*
X500827Y173366D01*
X113779Y280315D02*
X452362D01*
X113779D02*
X452362D01*
X113779D02*
X452362D01*
X113779D02*
X452362D01*
X113779D02*
X452362D01*
X113779D02*
X452362D01*
Y229134D02*
Y280315D01*
Y229134D02*
Y280315D01*
X452362Y229134D02*
Y280315D01*
X452362Y229134D02*
Y280315D01*
Y229134D02*
Y280315D01*
Y229134D02*
Y280315D01*
X113779Y229134D02*
Y280315D01*
Y229134D02*
Y280315D01*
X113779Y229134D02*
Y280315D01*
X113779Y229134D02*
Y280315D01*
Y229134D02*
Y280315D01*
Y229134D02*
Y280315D01*
X113779Y177165D02*
X452362D01*
X113779D02*
X452362D01*
X113779D02*
X452362D01*
X113779D02*
X452362D01*
X113779D02*
X452362D01*
X113779D02*
X452362D01*
Y228346D01*
Y177165D02*
Y228346D01*
X452362Y177165D02*
Y228346D01*
X452362Y177165D02*
Y228346D01*
Y177165D02*
Y228346D01*
Y177165D02*
Y228346D01*
X113779Y177165D02*
Y228346D01*
Y177165D02*
Y228346D01*
X113779Y177165D02*
Y228346D01*
X113779Y177165D02*
Y228346D01*
Y177165D02*
Y228346D01*
Y177165D02*
Y228346D01*
X113779Y125197D02*
X452362D01*
X113779D02*
X452362D01*
X113779D02*
X452362D01*
X113779D02*
X452362D01*
X113779D02*
X452362D01*
X113779D02*
X452362D01*
X113779Y176378D02*
X452362D01*
X113779D02*
X452362D01*
X113779D02*
X452362D01*
X113779D02*
X452362D01*
X113779D02*
X452362D01*
X113779D02*
X452362D01*
Y125197D02*
Y176378D01*
Y125197D02*
Y176378D01*
X452362Y125197D02*
Y176378D01*
X452362Y125197D02*
Y176378D01*
Y125197D02*
Y176378D01*
Y125197D02*
Y176378D01*
X113779Y125197D02*
Y176378D01*
Y125197D02*
Y176378D01*
X113779Y125197D02*
Y176378D01*
X113779Y125197D02*
Y176378D01*
Y125197D02*
Y176378D01*
Y125197D02*
Y176378D01*
Y73228D02*
X452362D01*
X113779D02*
X452362D01*
X113779D02*
X452362D01*
X113779D02*
X452362D01*
X113779D02*
X452362D01*
X113779D02*
X452362D01*
X113779Y124409D02*
X452362D01*
X113779D02*
X452362D01*
X113779D02*
X452362D01*
X113779D02*
X452362D01*
X113779D02*
X452362D01*
X113779D02*
X452362D01*
Y73228D02*
Y124409D01*
Y73228D02*
Y124409D01*
X452362Y73228D02*
Y124409D01*
X452362Y73228D02*
Y124409D01*
Y73228D02*
Y124409D01*
Y73228D02*
Y124409D01*
X113779Y73228D02*
Y124409D01*
Y73228D02*
Y124409D01*
X113779Y73228D02*
Y124409D01*
X113779Y73228D02*
Y124409D01*
Y73228D02*
Y124409D01*
Y73228D02*
Y124409D01*
Y280315D02*
X452362D01*
X113779D02*
X452362D01*
X113779D02*
X452362D01*
X113779D02*
X452362D01*
X113779D02*
X452362D01*
X113779D02*
X452362D01*
Y229134D02*
Y280315D01*
Y229134D02*
Y280315D01*
X452362Y229134D02*
Y280315D01*
X452362Y229134D02*
Y280315D01*
Y229134D02*
Y280315D01*
Y229134D02*
Y280315D01*
X113779Y229134D02*
Y280315D01*
Y229134D02*
Y280315D01*
X113779Y229134D02*
Y280315D01*
X113779Y229134D02*
Y280315D01*
Y229134D02*
Y280315D01*
Y229134D02*
Y280315D01*
X113779Y177165D02*
X452362D01*
X113779D02*
X452362D01*
X113779D02*
X452362D01*
X113779D02*
X452362D01*
X113779D02*
X452362D01*
X113779D02*
X452362D01*
Y228346D01*
Y177165D02*
Y228346D01*
X452362Y177165D02*
Y228346D01*
X452362Y177165D02*
Y228346D01*
Y177165D02*
Y228346D01*
Y177165D02*
Y228346D01*
X113779Y177165D02*
Y228346D01*
Y177165D02*
Y228346D01*
X113779Y177165D02*
Y228346D01*
X113779Y177165D02*
Y228346D01*
Y177165D02*
Y228346D01*
Y177165D02*
Y228346D01*
X113779Y125197D02*
X452362D01*
X113779D02*
X452362D01*
X113779D02*
X452362D01*
X113779D02*
X452362D01*
X113779D02*
X452362D01*
X113779D02*
X452362D01*
X113779Y176378D02*
X452362D01*
X113779D02*
X452362D01*
X113779D02*
X452362D01*
X113779D02*
X452362D01*
X113779D02*
X452362D01*
X113779D02*
X452362D01*
Y125197D02*
Y176378D01*
Y125197D02*
Y176378D01*
X452362Y125197D02*
Y176378D01*
X452362Y125197D02*
Y176378D01*
Y125197D02*
Y176378D01*
Y125197D02*
Y176378D01*
X113779Y125197D02*
Y176378D01*
Y125197D02*
Y176378D01*
X113779Y125197D02*
Y176378D01*
X113779Y125197D02*
Y176378D01*
Y125197D02*
Y176378D01*
Y125197D02*
Y176378D01*
Y73228D02*
X452362D01*
X113779D02*
X452362D01*
X113779D02*
X452362D01*
X113779D02*
X452362D01*
X113779D02*
X452362D01*
X113779D02*
X452362D01*
X113779Y124409D02*
X452362D01*
X113779D02*
X452362D01*
X113779D02*
X452362D01*
X113779D02*
X452362D01*
X113779D02*
X452362D01*
X113779D02*
X452362D01*
Y73228D02*
Y124409D01*
Y73228D02*
Y124409D01*
X452362Y73228D02*
Y124409D01*
X452362Y73228D02*
Y124409D01*
Y73228D02*
Y124409D01*
Y73228D02*
Y124409D01*
X113779Y73228D02*
Y124409D01*
Y73228D02*
Y124409D01*
X113779Y73228D02*
Y124409D01*
X113779Y73228D02*
Y124409D01*
Y73228D02*
Y124409D01*
Y73228D02*
Y124409D01*
X113779Y177165D02*
Y228346D01*
X113779Y177165D02*
Y228346D01*
X113779Y177165D02*
Y228346D01*
X113779Y177165D02*
X452362D01*
X113779Y72441D02*
X452362D01*
X113779D02*
X452362D01*
X113779D02*
X452362D01*
X113779D02*
X452362D01*
X113779D02*
X452362D01*
X113779D02*
X452362D01*
X113779Y21260D02*
X452362D01*
X113779D02*
X452362D01*
X113779D02*
X452362D01*
X113779D02*
X452362D01*
X113779D02*
X452362D01*
X113779D02*
X452362D01*
Y72441D01*
Y21260D02*
Y72441D01*
X452362Y21260D02*
Y72441D01*
X452362Y21260D02*
Y72441D01*
Y21260D02*
Y72441D01*
Y21260D02*
Y72441D01*
X113779Y21260D02*
Y72441D01*
Y21260D02*
Y72441D01*
X113779Y21260D02*
Y72441D01*
X113779Y21260D02*
Y72441D01*
Y21260D02*
Y72441D01*
Y21260D02*
Y72441D01*
X113779D02*
X452362D01*
X113779Y21260D02*
X452362D01*
Y72441D01*
X113779Y21260D02*
Y72441D01*
X452362D01*
X113779Y21260D02*
X452362D01*
Y72441D01*
X113779Y21260D02*
Y72441D01*
Y124409D02*
X452362D01*
X113779Y73228D02*
X452362D01*
Y124409D01*
X113779Y73228D02*
Y124409D01*
Y176378D02*
X452362D01*
X113779Y125197D02*
X452362D01*
Y176378D01*
X113779Y125197D02*
Y176378D01*
Y177165D02*
X452362D01*
Y228346D01*
X113779Y280315D02*
X452362D01*
X113779D02*
X452362D01*
X113779D02*
X452362D01*
X113779D02*
X452362D01*
Y229134D02*
Y280315D01*
Y229134D02*
Y280315D01*
X452362Y229134D02*
Y280315D01*
X452362Y229134D02*
Y280315D01*
X113779Y229134D02*
Y280315D01*
Y229134D02*
Y280315D01*
X113779Y229134D02*
Y280315D01*
X113779Y229134D02*
Y280315D01*
X113779Y177165D02*
X452362D01*
X113779D02*
X452362D01*
X113779D02*
X452362D01*
X113779D02*
X452362D01*
Y228346D01*
Y177165D02*
Y228346D01*
X452362Y177165D02*
Y228346D01*
X452362Y177165D02*
Y228346D01*
X113779Y177165D02*
Y228346D01*
Y177165D02*
Y228346D01*
X113779Y177165D02*
Y228346D01*
X113779Y177165D02*
Y228346D01*
X113779Y125197D02*
X452362D01*
X113779D02*
X452362D01*
X113779D02*
X452362D01*
X113779D02*
X452362D01*
X113779Y176378D02*
X452362D01*
X113779D02*
X452362D01*
X113779D02*
X452362D01*
X113779D02*
X452362D01*
Y125197D02*
Y176378D01*
Y125197D02*
Y176378D01*
X452362Y125197D02*
Y176378D01*
X452362Y125197D02*
Y176378D01*
X113779Y125197D02*
Y176378D01*
Y125197D02*
Y176378D01*
X113779Y125197D02*
Y176378D01*
X113779Y125197D02*
Y176378D01*
Y73228D02*
X452362D01*
X113779D02*
X452362D01*
X113779D02*
X452362D01*
X113779D02*
X452362D01*
X113779Y124409D02*
X452362D01*
X113779D02*
X452362D01*
X113779D02*
X452362D01*
X113779D02*
X452362D01*
Y73228D02*
Y124409D01*
Y73228D02*
Y124409D01*
X452362Y73228D02*
Y124409D01*
X452362Y73228D02*
Y124409D01*
X113779Y73228D02*
Y124409D01*
Y73228D02*
Y124409D01*
X113779Y73228D02*
Y124409D01*
X113779Y73228D02*
Y124409D01*
X113779Y72441D02*
X452362D01*
X113779Y21260D02*
X452362D01*
Y72441D01*
X113779Y21260D02*
Y72441D01*
Y124409D02*
X452362D01*
X113779Y73228D02*
X452362D01*
Y124409D01*
X113779Y73228D02*
Y124409D01*
Y176378D02*
X452362D01*
X113779Y125197D02*
X452362D01*
Y176378D01*
X113779Y125197D02*
Y176378D01*
Y177165D02*
X452362D01*
Y228346D01*
X113779Y21260D02*
X452362D01*
X113779Y72441D02*
X452362D01*
Y21260D02*
Y72441D01*
X113779Y21260D02*
Y72441D01*
Y73228D02*
X452362D01*
X113779Y124409D02*
X452362D01*
Y73228D02*
Y124409D01*
X113779Y73228D02*
Y124409D01*
Y125197D02*
X452362D01*
X113779Y176378D02*
X452362D01*
Y125197D02*
Y176378D01*
X113779Y125197D02*
Y176378D01*
Y177165D02*
X452362D01*
Y228346D01*
X113779Y280315D02*
X452362D01*
X113779D02*
X452362D01*
Y229134D02*
Y280315D01*
Y229134D02*
Y280315D01*
X113779Y229134D02*
Y280315D01*
Y229134D02*
Y280315D01*
X113779Y177165D02*
X452362D01*
X113779D02*
X452362D01*
Y228346D01*
Y177165D02*
Y228346D01*
X113779Y177165D02*
Y228346D01*
Y177165D02*
Y228346D01*
X113779Y176378D02*
X452362D01*
X113779D02*
X452362D01*
X113779Y125197D02*
X452362D01*
X113779D02*
X452362D01*
Y176378D01*
Y125197D02*
Y176378D01*
X113779Y125197D02*
Y176378D01*
Y125197D02*
Y176378D01*
Y72441D02*
X452362D01*
X113779D02*
X452362D01*
X113779Y21260D02*
X452362D01*
X113779D02*
X452362D01*
Y72441D01*
Y21260D02*
Y72441D01*
X113779Y21260D02*
Y72441D01*
Y21260D02*
Y72441D01*
X113779Y21260D02*
X452362D01*
X113779Y72441D02*
X452362D01*
Y21260D02*
Y72441D01*
X113779Y21260D02*
Y72441D01*
Y73228D02*
X452362D01*
X113779Y124409D02*
X452362D01*
Y73228D02*
Y124409D01*
X113779Y73228D02*
Y124409D01*
Y125197D02*
X452362D01*
X113779Y176378D02*
X452362D01*
Y125197D02*
Y176378D01*
X113779Y125197D02*
Y176378D01*
Y177165D02*
X452362D01*
Y228346D01*
X113779Y176378D02*
X452362D01*
X113779Y124409D02*
X452362D01*
X113779Y125197D02*
X452362D01*
X113779Y73228D02*
X452362D01*
Y124409D01*
X113779Y73228D02*
Y124409D01*
X452362Y125197D02*
Y176378D01*
X113779Y125197D02*
Y176378D01*
X452362Y177165D02*
Y228346D01*
X113779Y280315D02*
X452362D01*
Y229134D02*
Y280315D01*
X113779Y229134D02*
Y280315D01*
X113779Y177165D02*
X452362D01*
Y228346D01*
X113779Y177165D02*
Y228346D01*
X113779Y125197D02*
X452362D01*
X113779Y176378D02*
X452362D01*
Y125197D02*
Y176378D01*
X113779Y125197D02*
Y176378D01*
Y73228D02*
X452362D01*
X113779Y124409D02*
X452362D01*
Y73228D02*
Y124409D01*
X113779Y73228D02*
Y124409D01*
Y280315D02*
X452362D01*
X113779Y229134D02*
X452362D01*
Y280315D01*
X113779Y229134D02*
Y280315D01*
X113779Y177165D02*
X452362D01*
Y228346D01*
X113779Y177165D02*
Y228346D01*
X113779Y176378D02*
X452362D01*
X113779Y125197D02*
X452362D01*
Y176378D01*
X113779Y125197D02*
Y176378D01*
Y124409D02*
X452362D01*
X113779Y73228D02*
X452362D01*
Y124409D01*
X113779Y73228D02*
Y124409D01*
Y72441D02*
X452362D01*
X113779Y21260D02*
X452362D01*
Y72441D01*
X113779Y21260D02*
Y72441D01*
X146850Y236024D02*
X147244D01*
X146850Y231693D02*
X147244D01*
X188976Y236024D02*
X189370D01*
X188976Y231693D02*
X189370D01*
X231102Y236024D02*
X231496D01*
X231102Y231693D02*
X231496D01*
X273228Y236024D02*
X273622D01*
X273228Y231693D02*
X273622D01*
X315354Y236024D02*
X315748D01*
X315354Y231693D02*
X315748D01*
X357480Y236024D02*
X357874D01*
X357480Y231693D02*
X357874D01*
X399606Y236024D02*
X400000D01*
X399606Y231693D02*
X400000D01*
X441732Y236024D02*
X442126D01*
X441732Y231693D02*
X442126D01*
X136221Y277756D02*
X136614D01*
X136221Y273425D02*
X136614D01*
X178347Y277756D02*
X178740D01*
X178347Y273425D02*
X178740D01*
X220472Y277756D02*
X220866D01*
X220472Y273425D02*
X220866D01*
X262598Y277756D02*
X262992D01*
X262598Y273425D02*
X262992D01*
X304724Y277756D02*
X305118D01*
X304724Y273425D02*
X305118D01*
X346850Y277756D02*
X347244D01*
X346850Y273425D02*
X347244D01*
X388976Y277756D02*
X389370D01*
X388976Y273425D02*
X389370D01*
X431102Y277756D02*
X431496D01*
X431102Y273425D02*
X431496D01*
X146850Y184055D02*
X147244D01*
X146850Y179724D02*
X147244D01*
X188976Y184055D02*
X189370D01*
X188976Y179724D02*
X189370D01*
X231102Y184055D02*
X231496D01*
X231102Y179724D02*
X231496D01*
X273228Y184055D02*
X273622D01*
X273228Y179724D02*
X273622D01*
X315354Y184055D02*
X315748D01*
X315354Y179724D02*
X315748D01*
X357480Y184055D02*
X357874D01*
X357480Y179724D02*
X357874D01*
X399606Y184055D02*
X400000D01*
X399606Y179724D02*
X400000D01*
X441732Y184055D02*
X442126D01*
X441732Y179724D02*
X442126D01*
X136221Y225787D02*
X136614D01*
X136221Y221457D02*
X136614D01*
X178347Y225787D02*
X178740D01*
X178347Y221457D02*
X178740D01*
X220472Y225787D02*
X220866D01*
X220472Y221457D02*
X220866D01*
X262598Y225787D02*
X262992D01*
X262598Y221457D02*
X262992D01*
X304724Y225787D02*
X305118D01*
X304724Y221457D02*
X305118D01*
X346850Y225787D02*
X347244D01*
X346850Y221457D02*
X347244D01*
X388976Y225787D02*
X389370D01*
X388976Y221457D02*
X389370D01*
X431102Y225787D02*
X431496D01*
X431102Y221457D02*
X431496D01*
X146850Y132087D02*
X147244D01*
X146850Y127756D02*
X147244D01*
X188976Y132087D02*
X189370D01*
X188976Y127756D02*
X189370D01*
X231102Y132087D02*
X231496D01*
X231102Y127756D02*
X231496D01*
X273228Y132087D02*
X273622D01*
X273228Y127756D02*
X273622D01*
X315354Y132087D02*
X315748D01*
X315354Y127756D02*
X315748D01*
X357480Y132087D02*
X357874D01*
X357480Y127756D02*
X357874D01*
X399606Y132087D02*
X400000D01*
X399606Y127756D02*
X400000D01*
X441732Y132087D02*
X442126D01*
X441732Y127756D02*
X442126D01*
X136221Y173819D02*
X136614D01*
X136221Y169488D02*
X136614D01*
X178347Y173819D02*
X178740D01*
X178347Y169488D02*
X178740D01*
X220472Y173819D02*
X220866D01*
X220472Y169488D02*
X220866D01*
X262598Y173819D02*
X262992D01*
X262598Y169488D02*
X262992D01*
X304724Y173819D02*
X305118D01*
X304724Y169488D02*
X305118D01*
X346850Y173819D02*
X347244D01*
X346850Y169488D02*
X347244D01*
X388976Y173819D02*
X389370D01*
X388976Y169488D02*
X389370D01*
X431102Y173819D02*
X431496D01*
X431102Y169488D02*
X431496D01*
X146850Y80118D02*
X147244D01*
X146850Y75787D02*
X147244D01*
X188976Y80118D02*
X189370D01*
X188976Y75787D02*
X189370D01*
X231102Y80118D02*
X231496D01*
X231102Y75787D02*
X231496D01*
X273228Y80118D02*
X273622D01*
X273228Y75787D02*
X273622D01*
X315354Y80118D02*
X315748D01*
X315354Y75787D02*
X315748D01*
X357480Y80118D02*
X357874D01*
X357480Y75787D02*
X357874D01*
X399606Y80118D02*
X400000D01*
X399606Y75787D02*
X400000D01*
X441732Y80118D02*
X442126D01*
X441732Y75787D02*
X442126D01*
X136221Y121850D02*
X136614D01*
X136221Y117520D02*
X136614D01*
X178347Y121850D02*
X178740D01*
X178347Y117520D02*
X178740D01*
X220472Y121850D02*
X220866D01*
X220472Y117520D02*
X220866D01*
X262598Y121850D02*
X262992D01*
X262598Y117520D02*
X262992D01*
X304724Y121850D02*
X305118D01*
X304724Y117520D02*
X305118D01*
X346850Y121850D02*
X347244D01*
X346850Y117520D02*
X347244D01*
X388976Y121850D02*
X389370D01*
X388976Y117520D02*
X389370D01*
X431102Y121850D02*
X431496D01*
X431102Y117520D02*
X431496D01*
X146850Y28150D02*
X147244D01*
X146850Y23819D02*
X147244D01*
X188976Y28150D02*
X189370D01*
X188976Y23819D02*
X189370D01*
X231102Y28150D02*
X231496D01*
X231102Y23819D02*
X231496D01*
X273228Y28150D02*
X273622D01*
X273228Y23819D02*
X273622D01*
X315354Y28150D02*
X315748D01*
X315354Y23819D02*
X315748D01*
X357480Y28150D02*
X357874D01*
X357480Y23819D02*
X357874D01*
X399606Y28150D02*
X400000D01*
X399606Y23819D02*
X400000D01*
X441732Y28150D02*
X442126D01*
X441732Y23819D02*
X442126D01*
X136221Y69882D02*
X136614D01*
X136221Y65551D02*
X136614D01*
X178347Y69882D02*
X178740D01*
X178347Y65551D02*
X178740D01*
X220472Y69882D02*
X220866D01*
X220472Y65551D02*
X220866D01*
X262598Y69882D02*
X262992D01*
X262598Y65551D02*
X262992D01*
X304724Y69882D02*
X305118D01*
X304724Y65551D02*
X305118D01*
X346850Y69882D02*
X347244D01*
X346850Y65551D02*
X347244D01*
X388976Y69882D02*
X389370D01*
X388976Y65551D02*
X389370D01*
X431102Y69882D02*
X431496D01*
X431102Y65551D02*
X431496D01*
X90945Y68504D02*
Y71161D01*
X93602D01*
X105610D02*
X108268D01*
Y68504D02*
Y71161D01*
Y53839D02*
Y56496D01*
X105610Y53839D02*
X108268D01*
X90945D02*
Y56496D01*
Y53839D02*
X93602D01*
X56102Y108661D02*
Y111221D01*
X58661Y111221D01*
X56102Y86417D02*
X56102Y88976D01*
X56102Y86417D02*
X58661Y86417D01*
X78347Y86417D02*
X80905D01*
X80905Y88976D02*
X80905Y86417D01*
Y108661D02*
Y111221D01*
X78347D02*
X80905D01*
X90945Y120482D02*
Y123139D01*
X93602D01*
X105610D02*
X108268D01*
Y120482D02*
Y123139D01*
Y105816D02*
Y108474D01*
X105610Y105816D02*
X108268D01*
X90945D02*
Y108474D01*
Y105816D02*
X93602D01*
X90945Y172415D02*
Y175072D01*
X93602D01*
X105610D02*
X108268D01*
Y172415D02*
Y175072D01*
Y157749D02*
Y160407D01*
X105610Y157749D02*
X108268D01*
X90945D02*
Y160407D01*
Y157749D02*
X93602D01*
X56102Y212598D02*
Y215158D01*
X58661Y215158D01*
X56102Y190354D02*
X56102Y192913D01*
X56102Y190354D02*
X58661Y190354D01*
X78347D02*
X80905Y190354D01*
Y192913D01*
Y215158D02*
X80905Y212598D01*
X78347Y215158D02*
X80905Y215158D01*
X90945Y224390D02*
Y227047D01*
X93602D01*
X105610D02*
X108268D01*
Y224390D02*
Y227047D01*
Y209724D02*
Y212382D01*
X105610Y209724D02*
X108268D01*
X90945D02*
Y212382D01*
Y209724D02*
X93602D01*
X90945Y276317D02*
Y278974D01*
X93602D01*
X105610D02*
X108268D01*
Y276317D02*
Y278974D01*
Y261651D02*
Y264309D01*
X105610Y261651D02*
X108268D01*
X90945D02*
Y264309D01*
Y261651D02*
X93602D01*
X56102Y264567D02*
Y267126D01*
X58661Y267126D01*
X56102Y242323D02*
X56102Y244882D01*
X56102Y242323D02*
X58661Y242323D01*
X78347Y242323D02*
X80905D01*
Y244882D01*
X80905Y267126D02*
X80905Y264567D01*
X78347Y267126D02*
X80905Y267126D01*
X90980Y249659D02*
Y252316D01*
X93638D01*
X105646D02*
X108303D01*
Y249659D02*
Y252316D01*
Y234993D02*
Y237651D01*
X105646Y234993D02*
X108303D01*
X90980D02*
Y237651D01*
Y234993D02*
X93638D01*
X90980Y197690D02*
Y200348D01*
X93638D01*
X105646D02*
X108303D01*
Y197690D02*
Y200348D01*
Y183025D02*
Y185682D01*
X105646Y183025D02*
X108303D01*
X90980D02*
Y185682D01*
Y183025D02*
X93638D01*
X56102Y160630D02*
Y163189D01*
X58661Y163189D01*
X56102Y138386D02*
X56102Y140945D01*
X56102Y138386D02*
X58661Y138386D01*
X78347Y138386D02*
X80905D01*
X80905Y140945D02*
X80905Y138386D01*
Y160630D02*
Y163189D01*
X78347D02*
X80905D01*
X480827Y135709D02*
X500827D01*
Y35709D02*
Y43209D01*
X480827Y35709D02*
X500827D01*
X480827D02*
Y43209D01*
X480827Y135709D01*
X500827Y43209D02*
Y135709D01*
X-1063Y146024D02*
X8937D01*
X-1063D02*
Y186024D01*
X8937Y146024D02*
Y186024D01*
X-1063D02*
X8937D01*
X-1063Y187520D02*
X8937D01*
X-1063D02*
Y227520D01*
X8937Y187520D02*
Y227520D01*
X-1063D02*
X8937D01*
X90980Y145722D02*
Y148379D01*
X93638D01*
X105646D02*
X108303Y148379D01*
X108303Y145722D01*
X108303Y131056D02*
X108303Y133714D01*
X105646Y131056D02*
X108303Y131056D01*
X90980Y131056D02*
Y133714D01*
Y131056D02*
X93638D01*
X90980Y93753D02*
Y96411D01*
X93638D01*
X105646D02*
X108303D01*
Y93753D02*
Y96411D01*
Y79088D02*
Y81745D01*
X105646Y79088D02*
X108303D01*
X90980D02*
Y81745D01*
Y79088D02*
X93638D01*
X56102Y56693D02*
Y59252D01*
X58661D01*
X56102Y34449D02*
Y37008D01*
Y34449D02*
X58661Y34449D01*
X78347Y34449D02*
X80905D01*
Y37008D01*
Y56693D02*
X80905Y59252D01*
X78347D02*
X80905D01*
X16142Y169488D02*
X16142Y165945D01*
X28740Y169488D02*
X28740Y165945D01*
X16142Y165945D02*
X28740Y165945D01*
X16142Y169488D02*
X28740D01*
X90945Y41831D02*
X90945Y44488D01*
X93602Y44488D01*
X105610D02*
X108268Y44488D01*
X108268Y41831D01*
Y27165D02*
Y29823D01*
X105610Y27165D02*
X108268D01*
X90945Y29823D02*
X90945Y27165D01*
X93602Y27165D01*
X35434Y197244D02*
Y201180D01*
X33466Y199212D02*
X37402D01*
X35237Y221850D02*
Y225786D01*
X33269Y223818D02*
X37205D01*
D11*
X38386Y117323D02*
G03*
X38386Y117323I-492J0D01*
G01*
X88878Y70571D02*
G03*
X88878Y70571I-492J0D01*
G01*
X80807Y113779D02*
G03*
X80807Y113779I-492J0D01*
G01*
X88878Y122549D02*
G03*
X88878Y122549I-492J0D01*
G01*
Y174482D02*
G03*
X88878Y174482I-492J0D01*
G01*
X80807Y217717D02*
G03*
X80807Y217717I-492J0D01*
G01*
X88878Y226456D02*
G03*
X88878Y226456I-492J0D01*
G01*
X88878Y278384D02*
G03*
X88878Y278384I-492J0D01*
G01*
X80807Y269685D02*
G03*
X80807Y269685I-492J0D01*
G01*
X88913Y251726D02*
G03*
X88913Y251726I-492J0D01*
G01*
Y199757D02*
G03*
X88913Y199757I-492J0D01*
G01*
X80807Y165748D02*
G03*
X80807Y165748I-492J0D01*
G01*
X88913Y147789D02*
G03*
X88913Y147789I-492J0D01*
G01*
Y95820D02*
G03*
X88913Y95820I-492J0D01*
G01*
X80807Y61811D02*
G03*
X80807Y61811I-492J0D01*
G01*
X29921Y172638D02*
G03*
X29921Y172638I-492J0D01*
G01*
X88878Y43898D02*
G03*
X88878Y43898I-492J0D01*
G01*
D12*
X115748Y242913D02*
X118110D01*
X122835D02*
X130709D01*
X135433D02*
X139370D01*
X144095D02*
X148031D01*
X152756D02*
X155118D01*
X152756Y266535D02*
X155118D01*
X144095D02*
X148031D01*
X135433D02*
X139370D01*
X122835D02*
X130709D01*
X115748D02*
X118110D01*
X155118Y242913D02*
Y266535D01*
X133071Y256693D02*
Y262598D01*
Y256693D02*
X139370D01*
X141732Y260236D02*
Y262598D01*
X140102Y256323D02*
X141732Y260236D01*
X150000Y256693D02*
Y262598D01*
X143307Y256693D02*
X150000D01*
X143307Y252756D02*
X150000D01*
Y246850D02*
Y252756D01*
X140102Y253126D02*
X141732Y249213D01*
Y246850D02*
Y249213D01*
X133071Y252756D02*
X139370D01*
X133071Y246850D02*
Y252756D01*
X120472Y260630D02*
Y262598D01*
X119291Y248031D02*
X121653D01*
X120472Y246850D02*
Y249213D01*
X115748Y242913D02*
Y266535D01*
X157874Y242913D02*
X160236D01*
X164961D02*
X172835D01*
X177559D02*
X181496D01*
X186221D02*
X190157D01*
X194882D02*
X197244D01*
X194882Y266535D02*
X197244D01*
X186221D02*
X190157D01*
X177559D02*
X181496D01*
X164961D02*
X172835D01*
X157874D02*
X160236D01*
X197244Y242913D02*
Y266535D01*
X175197Y256693D02*
Y262598D01*
Y256693D02*
X181496D01*
X183858Y260236D02*
Y262598D01*
X182228Y256323D02*
X183858Y260236D01*
X192126Y256693D02*
Y262598D01*
X185433Y256693D02*
X192126D01*
X185433Y252756D02*
X192126D01*
Y246850D02*
Y252756D01*
X182228Y253126D02*
X183858Y249213D01*
Y246850D02*
Y249213D01*
X175197Y252756D02*
X181496D01*
X175197Y246850D02*
Y252756D01*
X162598Y260630D02*
Y262598D01*
X161417Y248031D02*
X163779D01*
X162598Y246850D02*
Y249213D01*
X157874Y242913D02*
Y266535D01*
X200000Y242913D02*
X202362D01*
X207087D02*
X214961D01*
X219685D02*
X223622D01*
X228346D02*
X232283D01*
X237008D02*
X239370D01*
X237008Y266535D02*
X239370D01*
X228346D02*
X232283D01*
X219685D02*
X223622D01*
X207087D02*
X214961D01*
X200000D02*
X202362D01*
X239370Y242913D02*
Y266535D01*
X217323Y256693D02*
Y262598D01*
Y256693D02*
X223622D01*
X225984Y260236D02*
Y262598D01*
X224354Y256323D02*
X225984Y260236D01*
X234252Y256693D02*
Y262598D01*
X227559Y256693D02*
X234252D01*
X227559Y252756D02*
X234252D01*
Y246850D02*
Y252756D01*
X224354Y253126D02*
X225984Y249213D01*
Y246850D02*
Y249213D01*
X217323Y252756D02*
X223622D01*
X217323Y246850D02*
Y252756D01*
X204724Y260630D02*
Y262598D01*
X203543Y248031D02*
X205906D01*
X204724Y246850D02*
Y249213D01*
X200000Y242913D02*
Y266535D01*
X242126Y242913D02*
X244488D01*
X249213D02*
X257087D01*
X261811D02*
X265748D01*
X270472D02*
X274409D01*
X279134D02*
X281496D01*
X279134Y266535D02*
X281496D01*
X270472D02*
X274409D01*
X261811D02*
X265748D01*
X249213D02*
X257087D01*
X242126D02*
X244488D01*
X281496Y242913D02*
Y266535D01*
X259449Y256693D02*
Y262598D01*
Y256693D02*
X265748D01*
X268110Y260236D02*
Y262598D01*
X266479Y256323D02*
X268110Y260236D01*
X276378Y256693D02*
Y262598D01*
X269685Y256693D02*
X276378D01*
X269685Y252756D02*
X276378D01*
Y246850D02*
Y252756D01*
X266479Y253126D02*
X268110Y249213D01*
Y246850D02*
Y249213D01*
X259449Y252756D02*
X265748D01*
X259449Y246850D02*
Y252756D01*
X246850Y260630D02*
Y262598D01*
X245669Y248031D02*
X248031D01*
X246850Y246850D02*
Y249213D01*
X242126Y242913D02*
Y266535D01*
X284252Y242913D02*
X286614D01*
X291339D02*
X299213D01*
X303937D02*
X307874D01*
X312598D02*
X316535D01*
X321260D02*
X323622D01*
X321260Y266535D02*
X323622D01*
X312598D02*
X316535D01*
X303937D02*
X307874D01*
X291339D02*
X299213D01*
X284252D02*
X286614D01*
X323622Y242913D02*
Y266535D01*
X301575Y256693D02*
Y262598D01*
Y256693D02*
X307874D01*
X310236Y260236D02*
Y262598D01*
X308606Y256323D02*
X310236Y260236D01*
X318504Y256693D02*
Y262598D01*
X311811Y256693D02*
X318504D01*
X311811Y252756D02*
X318504D01*
Y246850D02*
Y252756D01*
X308606Y253126D02*
X310236Y249213D01*
Y246850D02*
Y249213D01*
X301575Y252756D02*
X307874D01*
X301575Y246850D02*
Y252756D01*
X288976Y260630D02*
Y262598D01*
X287795Y248031D02*
X290158D01*
X288976Y246850D02*
Y249213D01*
X284252Y242913D02*
Y266535D01*
X326378Y242913D02*
X328740D01*
X333465D02*
X341339D01*
X346063D02*
X350000D01*
X354724D02*
X358661D01*
X363386D02*
X365748D01*
X363386Y266535D02*
X365748D01*
X354724D02*
X358661D01*
X346063D02*
X350000D01*
X333465D02*
X341339D01*
X326378D02*
X328740D01*
X365748Y242913D02*
Y266535D01*
X343701Y256693D02*
Y262598D01*
Y256693D02*
X350000D01*
X352362Y260236D02*
Y262598D01*
X350731Y256323D02*
X352362Y260236D01*
X360630Y256693D02*
Y262598D01*
X353937Y256693D02*
X360630D01*
X353937Y252756D02*
X360630D01*
Y246850D02*
Y252756D01*
X350731Y253126D02*
X352362Y249213D01*
Y246850D02*
Y249213D01*
X343701Y252756D02*
X350000D01*
X343701Y246850D02*
Y252756D01*
X331102Y260630D02*
Y262598D01*
X329921Y248031D02*
X332283D01*
X331102Y246850D02*
Y249213D01*
X326378Y242913D02*
Y266535D01*
X368504Y242913D02*
X370866D01*
X375590D02*
X383465D01*
X388189D02*
X392126D01*
X396850D02*
X400787D01*
X405512D02*
X407874D01*
X405512Y266535D02*
X407874D01*
X396850D02*
X400787D01*
X388189D02*
X392126D01*
X375590D02*
X383465D01*
X368504D02*
X370866D01*
X407874Y242913D02*
Y266535D01*
X385827Y256693D02*
Y262598D01*
Y256693D02*
X392126D01*
X394488Y260236D02*
Y262598D01*
X392858Y256323D02*
X394488Y260236D01*
X402756Y256693D02*
Y262598D01*
X396063Y256693D02*
X402756D01*
X396063Y252756D02*
X402756D01*
Y246850D02*
Y252756D01*
X392858Y253126D02*
X394488Y249213D01*
Y246850D02*
Y249213D01*
X385827Y252756D02*
X392126D01*
X385827Y246850D02*
Y252756D01*
X373228Y260630D02*
Y262598D01*
X372047Y248031D02*
X374410D01*
X373228Y246850D02*
Y249213D01*
X368504Y242913D02*
Y266535D01*
X410630Y242913D02*
X412992D01*
X417717D02*
X425591D01*
X430315D02*
X434252D01*
X438976D02*
X442913D01*
X447638D02*
X450000D01*
X447638Y266535D02*
X450000D01*
X438976D02*
X442913D01*
X430315D02*
X434252D01*
X417717D02*
X425591D01*
X410630D02*
X412992D01*
X450000Y242913D02*
Y266535D01*
X427953Y256693D02*
Y262598D01*
Y256693D02*
X434252D01*
X436614Y260236D02*
Y262598D01*
X434983Y256323D02*
X436614Y260236D01*
X444882Y256693D02*
Y262598D01*
X438189Y256693D02*
X444882D01*
X438189Y252756D02*
X444882D01*
Y246850D02*
Y252756D01*
X434983Y253126D02*
X436614Y249213D01*
Y246850D02*
Y249213D01*
X427953Y252756D02*
X434252D01*
X427953Y246850D02*
Y252756D01*
X415354Y260630D02*
Y262598D01*
X414173Y248031D02*
X416535D01*
X415354Y246850D02*
Y249213D01*
X410630Y242913D02*
Y266535D01*
X115748Y190945D02*
X118110D01*
X122835D02*
X130709D01*
X135433D02*
X139370D01*
X144095D02*
X148031D01*
X152756D02*
X155118D01*
X152756Y214567D02*
X155118D01*
X144095D02*
X148031D01*
X135433D02*
X139370D01*
X122835D02*
X130709D01*
X115748D02*
X118110D01*
X155118Y190945D02*
Y214567D01*
X133071Y204724D02*
Y210630D01*
Y204724D02*
X139370D01*
X141732Y208268D02*
Y210630D01*
X140102Y204354D02*
X141732Y208268D01*
X150000Y204724D02*
Y210630D01*
X143307Y204724D02*
X150000D01*
X143307Y200787D02*
X150000D01*
Y194882D02*
Y200787D01*
X140102Y201158D02*
X141732Y197244D01*
Y194882D02*
Y197244D01*
X133071Y200787D02*
X139370D01*
X133071Y194882D02*
Y200787D01*
X120473Y208661D02*
Y210630D01*
X119291Y196063D02*
X121653D01*
X120473Y194882D02*
Y197244D01*
X115748Y190945D02*
Y214567D01*
X157874Y190945D02*
X160236D01*
X164961D02*
X172835D01*
X177559D02*
X181496D01*
X186221D02*
X190157D01*
X194882D02*
X197244D01*
X194882Y214567D02*
X197244D01*
X186221D02*
X190157D01*
X177559D02*
X181496D01*
X164961D02*
X172835D01*
X157874D02*
X160236D01*
X197244Y190945D02*
Y214567D01*
X175197Y204724D02*
Y210630D01*
Y204724D02*
X181496D01*
X183858Y208268D02*
Y210630D01*
X182228Y204354D02*
X183858Y208268D01*
X192126Y204724D02*
Y210630D01*
X185433Y204724D02*
X192126D01*
X185433Y200787D02*
X192126D01*
Y194882D02*
Y200787D01*
X182228Y201158D02*
X183858Y197244D01*
Y194882D02*
Y197244D01*
X175197Y200787D02*
X181496D01*
X175197Y194882D02*
Y200787D01*
X162599Y208661D02*
Y210630D01*
X161417Y196063D02*
X163779D01*
X162599Y194882D02*
Y197244D01*
X157874Y190945D02*
Y214567D01*
X200000Y190945D02*
X202362D01*
X207087D02*
X214961D01*
X219685D02*
X223622D01*
X228346D02*
X232283D01*
X237008D02*
X239370D01*
X237008Y214567D02*
X239370D01*
X228346D02*
X232283D01*
X219685D02*
X223622D01*
X207087D02*
X214961D01*
X200000D02*
X202362D01*
X239370Y190945D02*
Y214567D01*
X217323Y204724D02*
Y210630D01*
Y204724D02*
X223622D01*
X225984Y208268D02*
Y210630D01*
X224354Y204354D02*
X225984Y208268D01*
X234252Y204724D02*
Y210630D01*
X227559Y204724D02*
X234252D01*
X227559Y200787D02*
X234252D01*
Y194882D02*
Y200787D01*
X224354Y201158D02*
X225984Y197244D01*
Y194882D02*
Y197244D01*
X217323Y200787D02*
X223622D01*
X217323Y194882D02*
Y200787D01*
X204724Y208661D02*
Y210630D01*
X203543Y196063D02*
X205906D01*
X204724Y194882D02*
Y197244D01*
X200000Y190945D02*
Y214567D01*
X242126Y190945D02*
X244488D01*
X249213D02*
X257087D01*
X261811D02*
X265748D01*
X270472D02*
X274410D01*
X279134D02*
X281496D01*
X279134Y214567D02*
X281496D01*
X270472D02*
X274410D01*
X261811D02*
X265748D01*
X249213D02*
X257087D01*
X242126D02*
X244488D01*
X281496Y190945D02*
Y214567D01*
X259449Y204724D02*
Y210630D01*
Y204724D02*
X265748D01*
X268110Y208268D02*
Y210630D01*
X266479Y204354D02*
X268110Y208268D01*
X276378Y204724D02*
Y210630D01*
X269685Y204724D02*
X276378D01*
X269685Y200787D02*
X276378D01*
Y194882D02*
Y200787D01*
X266479Y201158D02*
X268110Y197244D01*
Y194882D02*
Y197244D01*
X259449Y200787D02*
X265748D01*
X259449Y194882D02*
Y200787D01*
X246850Y208661D02*
Y210630D01*
X245669Y196063D02*
X248031D01*
X246850Y194882D02*
Y197244D01*
X242126Y190945D02*
Y214567D01*
X284252Y190945D02*
X286614D01*
X291339D02*
X299213D01*
X303937D02*
X307874D01*
X312598D02*
X316535D01*
X321260D02*
X323622D01*
X321260Y214567D02*
X323622D01*
X312598D02*
X316535D01*
X303937D02*
X307874D01*
X291339D02*
X299213D01*
X284252D02*
X286614D01*
X323622Y190945D02*
Y214567D01*
X301575Y204724D02*
Y210630D01*
Y204724D02*
X307874D01*
X310236Y208268D02*
Y210630D01*
X308606Y204354D02*
X310236Y208268D01*
X318504Y204724D02*
Y210630D01*
X311811Y204724D02*
X318504D01*
X311811Y200787D02*
X318504D01*
Y194882D02*
Y200787D01*
X308606Y201158D02*
X310236Y197244D01*
Y194882D02*
Y197244D01*
X301575Y200787D02*
X307874D01*
X301575Y194882D02*
Y200787D01*
X288976Y208661D02*
Y210630D01*
X287795Y196063D02*
X290158D01*
X288976Y194882D02*
Y197244D01*
X284252Y190945D02*
Y214567D01*
X326378Y190945D02*
X328740D01*
X333465D02*
X341339D01*
X346063D02*
X350000D01*
X354724D02*
X358661D01*
X363386D02*
X365748D01*
X363386Y214567D02*
X365748D01*
X354724D02*
X358661D01*
X346063D02*
X350000D01*
X333465D02*
X341339D01*
X326378D02*
X328740D01*
X365748Y190945D02*
Y214567D01*
X343701Y204724D02*
Y210630D01*
Y204724D02*
X350000D01*
X352362Y208268D02*
Y210630D01*
X350731Y204354D02*
X352362Y208268D01*
X360630Y204724D02*
Y210630D01*
X353937Y204724D02*
X360630D01*
X353937Y200787D02*
X360630D01*
Y194882D02*
Y200787D01*
X350731Y201158D02*
X352362Y197244D01*
Y194882D02*
Y197244D01*
X343701Y200787D02*
X350000D01*
X343701Y194882D02*
Y200787D01*
X331102Y208661D02*
Y210630D01*
X329921Y196063D02*
X332283D01*
X331102Y194882D02*
Y197244D01*
X326378Y190945D02*
Y214567D01*
X368504Y190945D02*
X370866D01*
X375591D02*
X383465D01*
X388189D02*
X392126D01*
X396850D02*
X400787D01*
X405512D02*
X407874D01*
X405512Y214567D02*
X407874D01*
X396850D02*
X400787D01*
X388189D02*
X392126D01*
X375591D02*
X383465D01*
X368504D02*
X370866D01*
X407874Y190945D02*
Y214567D01*
X385827Y204724D02*
Y210630D01*
Y204724D02*
X392126D01*
X394488Y208268D02*
Y210630D01*
X392858Y204354D02*
X394488Y208268D01*
X402756Y204724D02*
Y210630D01*
X396063Y204724D02*
X402756D01*
X396063Y200787D02*
X402756D01*
Y194882D02*
Y200787D01*
X392858Y201158D02*
X394488Y197244D01*
Y194882D02*
Y197244D01*
X385827Y200787D02*
X392126D01*
X385827Y194882D02*
Y200787D01*
X373228Y208661D02*
Y210630D01*
X372047Y196063D02*
X374410D01*
X373228Y194882D02*
Y197244D01*
X368504Y190945D02*
Y214567D01*
X410630Y190945D02*
X412992D01*
X417717D02*
X425591D01*
X430315D02*
X434252D01*
X438976D02*
X442913D01*
X447638D02*
X450000D01*
X447638Y214567D02*
X450000D01*
X438976D02*
X442913D01*
X430315D02*
X434252D01*
X417717D02*
X425591D01*
X410630D02*
X412992D01*
X450000Y190945D02*
Y214567D01*
X427953Y204724D02*
Y210630D01*
Y204724D02*
X434252D01*
X436614Y208268D02*
Y210630D01*
X434983Y204354D02*
X436614Y208268D01*
X444882Y204724D02*
Y210630D01*
X438189Y204724D02*
X444882D01*
X438189Y200787D02*
X444882D01*
Y194882D02*
Y200787D01*
X434983Y201158D02*
X436614Y197244D01*
Y194882D02*
Y197244D01*
X427953Y200787D02*
X434252D01*
X427953Y194882D02*
Y200787D01*
X415354Y208661D02*
Y210630D01*
X414173Y196063D02*
X416536D01*
X415354Y194882D02*
Y197244D01*
X410630Y190945D02*
Y214567D01*
X115748Y138976D02*
X118110D01*
X122835D02*
X130709D01*
X135433D02*
X139370D01*
X144095D02*
X148031D01*
X152756D02*
X155118D01*
X152756Y162598D02*
X155118D01*
X144095D02*
X148031D01*
X135433D02*
X139370D01*
X122835D02*
X130709D01*
X115748D02*
X118110D01*
X155118Y138976D02*
Y162598D01*
X133071Y152756D02*
Y158661D01*
Y152756D02*
X139370D01*
X141732Y156299D02*
Y158661D01*
X140102Y152385D02*
X141732Y156299D01*
X150000Y152756D02*
Y158661D01*
X143307Y152756D02*
X150000D01*
X143307Y148819D02*
X150000D01*
Y142913D02*
Y148819D01*
X140102Y149189D02*
X141732Y145276D01*
Y142913D02*
Y145276D01*
X133071Y148819D02*
X139370D01*
X133071Y142913D02*
Y148819D01*
X120472Y156693D02*
Y158661D01*
X119291Y144095D02*
X121653D01*
X120472Y142913D02*
Y145276D01*
X115748Y138976D02*
Y162598D01*
X157874Y138976D02*
X160236D01*
X164961D02*
X172835D01*
X177559D02*
X181496D01*
X186221D02*
X190157D01*
X194882D02*
X197244D01*
X194882Y162598D02*
X197244D01*
X186221D02*
X190157D01*
X177559D02*
X181496D01*
X164961D02*
X172835D01*
X157874D02*
X160236D01*
X197244Y138976D02*
Y162598D01*
X175197Y152756D02*
Y158661D01*
Y152756D02*
X181496D01*
X183858Y156299D02*
Y158661D01*
X182228Y152385D02*
X183858Y156299D01*
X192126Y152756D02*
Y158661D01*
X185433Y152756D02*
X192126D01*
X185433Y148819D02*
X192126D01*
Y142913D02*
Y148819D01*
X182228Y149189D02*
X183858Y145276D01*
Y142913D02*
Y145276D01*
X175197Y148819D02*
X181496D01*
X175197Y142913D02*
Y148819D01*
X162598Y156693D02*
Y158661D01*
X161417Y144095D02*
X163779D01*
X162598Y142913D02*
Y145276D01*
X157874Y138976D02*
Y162598D01*
X200000Y138976D02*
X202362D01*
X207087D02*
X214961D01*
X219685D02*
X223622D01*
X228346D02*
X232283D01*
X237008D02*
X239370D01*
X237008Y162598D02*
X239370D01*
X228346D02*
X232283D01*
X219685D02*
X223622D01*
X207087D02*
X214961D01*
X200000D02*
X202362D01*
X239370Y138976D02*
Y162598D01*
X217323Y152756D02*
Y158661D01*
Y152756D02*
X223622D01*
X225984Y156299D02*
Y158661D01*
X224354Y152385D02*
X225984Y156299D01*
X234252Y152756D02*
Y158661D01*
X227559Y152756D02*
X234252D01*
X227559Y148819D02*
X234252D01*
Y142913D02*
Y148819D01*
X224354Y149189D02*
X225984Y145276D01*
Y142913D02*
Y145276D01*
X217323Y148819D02*
X223622D01*
X217323Y142913D02*
Y148819D01*
X204724Y156693D02*
Y158661D01*
X203543Y144095D02*
X205906D01*
X204724Y142913D02*
Y145276D01*
X200000Y138976D02*
Y162598D01*
X242126Y138976D02*
X244488D01*
X249213D02*
X257087D01*
X261811D02*
X265748D01*
X270472D02*
X274409D01*
X279134D02*
X281496D01*
X279134Y162598D02*
X281496D01*
X270472D02*
X274409D01*
X261811D02*
X265748D01*
X249213D02*
X257087D01*
X242126D02*
X244488D01*
X281496Y138976D02*
Y162598D01*
X259449Y152756D02*
Y158661D01*
Y152756D02*
X265748D01*
X268110Y156299D02*
Y158661D01*
X266479Y152385D02*
X268110Y156299D01*
X276378Y152756D02*
Y158661D01*
X269685Y152756D02*
X276378D01*
X269685Y148819D02*
X276378D01*
Y142913D02*
Y148819D01*
X266479Y149189D02*
X268110Y145276D01*
Y142913D02*
Y145276D01*
X259449Y148819D02*
X265748D01*
X259449Y142913D02*
Y148819D01*
X246850Y156693D02*
Y158661D01*
X245669Y144095D02*
X248031D01*
X246850Y142913D02*
Y145276D01*
X242126Y138976D02*
Y162598D01*
X284252Y138976D02*
X286614D01*
X291339D02*
X299213D01*
X303937D02*
X307874D01*
X312598D02*
X316535D01*
X321260D02*
X323622D01*
X321260Y162598D02*
X323622D01*
X312598D02*
X316535D01*
X303937D02*
X307874D01*
X291339D02*
X299213D01*
X284252D02*
X286614D01*
X323622Y138976D02*
Y162598D01*
X301575Y152756D02*
Y158661D01*
Y152756D02*
X307874D01*
X310236Y156299D02*
Y158661D01*
X308606Y152385D02*
X310236Y156299D01*
X318504Y152756D02*
Y158661D01*
X311811Y152756D02*
X318504D01*
X311811Y148819D02*
X318504D01*
Y142913D02*
Y148819D01*
X308606Y149189D02*
X310236Y145276D01*
Y142913D02*
Y145276D01*
X301575Y148819D02*
X307874D01*
X301575Y142913D02*
Y148819D01*
X288976Y156693D02*
Y158661D01*
X287795Y144095D02*
X290158D01*
X288976Y142913D02*
Y145276D01*
X284252Y138976D02*
Y162598D01*
X326378Y138976D02*
X328740D01*
X333465D02*
X341339D01*
X346063D02*
X350000D01*
X354724D02*
X358661D01*
X363386D02*
X365748D01*
X363386Y162598D02*
X365748D01*
X354724D02*
X358661D01*
X346063D02*
X350000D01*
X333465D02*
X341339D01*
X326378D02*
X328740D01*
X365748Y138976D02*
Y162598D01*
X343701Y152756D02*
Y158661D01*
Y152756D02*
X350000D01*
X352362Y156299D02*
Y158661D01*
X350731Y152385D02*
X352362Y156299D01*
X360630Y152756D02*
Y158661D01*
X353937Y152756D02*
X360630D01*
X353937Y148819D02*
X360630D01*
Y142913D02*
Y148819D01*
X350731Y149189D02*
X352362Y145276D01*
Y142913D02*
Y145276D01*
X343701Y148819D02*
X350000D01*
X343701Y142913D02*
Y148819D01*
X331102Y156693D02*
Y158661D01*
X329921Y144095D02*
X332283D01*
X331102Y142913D02*
Y145276D01*
X326378Y138976D02*
Y162598D01*
X368504Y138976D02*
X370866D01*
X375590D02*
X383465D01*
X388189D02*
X392126D01*
X396850D02*
X400787D01*
X405512D02*
X407874D01*
X405512Y162598D02*
X407874D01*
X396850D02*
X400787D01*
X388189D02*
X392126D01*
X375590D02*
X383465D01*
X368504D02*
X370866D01*
X407874Y138976D02*
Y162598D01*
X385827Y152756D02*
Y158661D01*
Y152756D02*
X392126D01*
X394488Y156299D02*
Y158661D01*
X392858Y152385D02*
X394488Y156299D01*
X402756Y152756D02*
Y158661D01*
X396063Y152756D02*
X402756D01*
X396063Y148819D02*
X402756D01*
Y142913D02*
Y148819D01*
X392858Y149189D02*
X394488Y145276D01*
Y142913D02*
Y145276D01*
X385827Y148819D02*
X392126D01*
X385827Y142913D02*
Y148819D01*
X373228Y156693D02*
Y158661D01*
X372047Y144095D02*
X374410D01*
X373228Y142913D02*
Y145276D01*
X368504Y138976D02*
Y162598D01*
X410630Y138976D02*
X412992D01*
X417717D02*
X425591D01*
X430315D02*
X434252D01*
X438976D02*
X442913D01*
X447638D02*
X450000D01*
X447638Y162598D02*
X450000D01*
X438976D02*
X442913D01*
X430315D02*
X434252D01*
X417717D02*
X425591D01*
X410630D02*
X412992D01*
X450000Y138976D02*
Y162598D01*
X427953Y152756D02*
Y158661D01*
Y152756D02*
X434252D01*
X436614Y156299D02*
Y158661D01*
X434983Y152385D02*
X436614Y156299D01*
X444882Y152756D02*
Y158661D01*
X438189Y152756D02*
X444882D01*
X438189Y148819D02*
X444882D01*
Y142913D02*
Y148819D01*
X434983Y149189D02*
X436614Y145276D01*
Y142913D02*
Y145276D01*
X427953Y148819D02*
X434252D01*
X427953Y142913D02*
Y148819D01*
X415354Y156693D02*
Y158661D01*
X414173Y144095D02*
X416535D01*
X415354Y142913D02*
Y145276D01*
X410630Y138976D02*
Y162598D01*
X115748Y87008D02*
X118110D01*
X122835D02*
X130709D01*
X135433D02*
X139370D01*
X144095D02*
X148031D01*
X152756D02*
X155118D01*
X152756Y110630D02*
X155118D01*
X144095D02*
X148031D01*
X135433D02*
X139370D01*
X122835D02*
X130709D01*
X115748D02*
X118110D01*
X155118Y87008D02*
Y110630D01*
X133071Y100787D02*
Y106693D01*
Y100787D02*
X139370D01*
X141732Y104331D02*
Y106693D01*
X140102Y100417D02*
X141732Y104331D01*
X150000Y100787D02*
Y106693D01*
X143307Y100787D02*
X150000D01*
X143307Y96850D02*
X150000D01*
Y90945D02*
Y96850D01*
X140102Y97221D02*
X141732Y93307D01*
Y90945D02*
Y93307D01*
X133071Y96850D02*
X139370D01*
X133071Y90945D02*
Y96850D01*
X120472Y104724D02*
Y106693D01*
X119291Y92126D02*
X121653D01*
X120472Y90945D02*
Y93307D01*
X115748Y87008D02*
Y110630D01*
X157874Y87008D02*
X160236D01*
X164961D02*
X172835D01*
X177559D02*
X181496D01*
X186221D02*
X190157D01*
X194882D02*
X197244D01*
X194882Y110630D02*
X197244D01*
X186221D02*
X190157D01*
X177559D02*
X181496D01*
X164961D02*
X172835D01*
X157874D02*
X160236D01*
X197244Y87008D02*
Y110630D01*
X175197Y100787D02*
Y106693D01*
Y100787D02*
X181496D01*
X183858Y104331D02*
Y106693D01*
X182228Y100417D02*
X183858Y104331D01*
X192126Y100787D02*
Y106693D01*
X185433Y100787D02*
X192126D01*
X185433Y96850D02*
X192126D01*
Y90945D02*
Y96850D01*
X182228Y97221D02*
X183858Y93307D01*
Y90945D02*
Y93307D01*
X175197Y96850D02*
X181496D01*
X175197Y90945D02*
Y96850D01*
X162598Y104724D02*
Y106693D01*
X161417Y92126D02*
X163779D01*
X162598Y90945D02*
Y93307D01*
X157874Y87008D02*
Y110630D01*
X200000Y87008D02*
X202362D01*
X207087D02*
X214961D01*
X219685D02*
X223622D01*
X228346D02*
X232283D01*
X237008D02*
X239370D01*
X237008Y110630D02*
X239370D01*
X228346D02*
X232283D01*
X219685D02*
X223622D01*
X207087D02*
X214961D01*
X200000D02*
X202362D01*
X239370Y87008D02*
Y110630D01*
X217323Y100787D02*
Y106693D01*
Y100787D02*
X223622D01*
X225984Y104331D02*
Y106693D01*
X224354Y100417D02*
X225984Y104331D01*
X234252Y100787D02*
Y106693D01*
X227559Y100787D02*
X234252D01*
X227559Y96850D02*
X234252D01*
Y90945D02*
Y96850D01*
X224354Y97221D02*
X225984Y93307D01*
Y90945D02*
Y93307D01*
X217323Y96850D02*
X223622D01*
X217323Y90945D02*
Y96850D01*
X204724Y104724D02*
Y106693D01*
X203543Y92126D02*
X205906D01*
X204724Y90945D02*
Y93307D01*
X200000Y87008D02*
Y110630D01*
X242126Y87008D02*
X244488D01*
X249213D02*
X257087D01*
X261811D02*
X265748D01*
X270472D02*
X274409D01*
X279134D02*
X281496D01*
X279134Y110630D02*
X281496D01*
X270472D02*
X274409D01*
X261811D02*
X265748D01*
X249213D02*
X257087D01*
X242126D02*
X244488D01*
X281496Y87008D02*
Y110630D01*
X259449Y100787D02*
Y106693D01*
Y100787D02*
X265748D01*
X268110Y104331D02*
Y106693D01*
X266479Y100417D02*
X268110Y104331D01*
X276378Y100787D02*
Y106693D01*
X269685Y100787D02*
X276378D01*
X269685Y96850D02*
X276378D01*
Y90945D02*
Y96850D01*
X266479Y97221D02*
X268110Y93307D01*
Y90945D02*
Y93307D01*
X259449Y96850D02*
X265748D01*
X259449Y90945D02*
Y96850D01*
X246850Y104724D02*
Y106693D01*
X245669Y92126D02*
X248031D01*
X246850Y90945D02*
Y93307D01*
X242126Y87008D02*
Y110630D01*
X284252Y87008D02*
X286614D01*
X291339D02*
X299213D01*
X303937D02*
X307874D01*
X312598D02*
X316535D01*
X321260D02*
X323622D01*
X321260Y110630D02*
X323622D01*
X312598D02*
X316535D01*
X303937D02*
X307874D01*
X291339D02*
X299213D01*
X284252D02*
X286614D01*
X323622Y87008D02*
Y110630D01*
X301575Y100787D02*
Y106693D01*
Y100787D02*
X307874D01*
X310236Y104331D02*
Y106693D01*
X308606Y100417D02*
X310236Y104331D01*
X318504Y100787D02*
Y106693D01*
X311811Y100787D02*
X318504D01*
X311811Y96850D02*
X318504D01*
Y90945D02*
Y96850D01*
X308606Y97221D02*
X310236Y93307D01*
Y90945D02*
Y93307D01*
X301575Y96850D02*
X307874D01*
X301575Y90945D02*
Y96850D01*
X288976Y104724D02*
Y106693D01*
X287795Y92126D02*
X290158D01*
X288976Y90945D02*
Y93307D01*
X284252Y87008D02*
Y110630D01*
X326378Y87008D02*
X328740D01*
X333465D02*
X341339D01*
X346063D02*
X350000D01*
X354724D02*
X358661D01*
X363386D02*
X365748D01*
X363386Y110630D02*
X365748D01*
X354724D02*
X358661D01*
X346063D02*
X350000D01*
X333465D02*
X341339D01*
X326378D02*
X328740D01*
X365748Y87008D02*
Y110630D01*
X343701Y100787D02*
Y106693D01*
Y100787D02*
X350000D01*
X352362Y104331D02*
Y106693D01*
X350731Y100417D02*
X352362Y104331D01*
X360630Y100787D02*
Y106693D01*
X353937Y100787D02*
X360630D01*
X353937Y96850D02*
X360630D01*
Y90945D02*
Y96850D01*
X350731Y97221D02*
X352362Y93307D01*
Y90945D02*
Y93307D01*
X343701Y96850D02*
X350000D01*
X343701Y90945D02*
Y96850D01*
X331102Y104724D02*
Y106693D01*
X329921Y92126D02*
X332283D01*
X331102Y90945D02*
Y93307D01*
X326378Y87008D02*
Y110630D01*
X368504Y87008D02*
X370866D01*
X375590D02*
X383465D01*
X388189D02*
X392126D01*
X396850D02*
X400787D01*
X405512D02*
X407874D01*
X405512Y110630D02*
X407874D01*
X396850D02*
X400787D01*
X388189D02*
X392126D01*
X375590D02*
X383465D01*
X368504D02*
X370866D01*
X407874Y87008D02*
Y110630D01*
X385827Y100787D02*
Y106693D01*
Y100787D02*
X392126D01*
X394488Y104331D02*
Y106693D01*
X392858Y100417D02*
X394488Y104331D01*
X402756Y100787D02*
Y106693D01*
X396063Y100787D02*
X402756D01*
X396063Y96850D02*
X402756D01*
Y90945D02*
Y96850D01*
X392858Y97221D02*
X394488Y93307D01*
Y90945D02*
Y93307D01*
X385827Y96850D02*
X392126D01*
X385827Y90945D02*
Y96850D01*
X373228Y104724D02*
Y106693D01*
X372047Y92126D02*
X374410D01*
X373228Y90945D02*
Y93307D01*
X368504Y87008D02*
Y110630D01*
X410630Y87008D02*
X412992D01*
X417717D02*
X425591D01*
X430315D02*
X434252D01*
X438976D02*
X442913D01*
X447638D02*
X450000D01*
X447638Y110630D02*
X450000D01*
X438976D02*
X442913D01*
X430315D02*
X434252D01*
X417717D02*
X425591D01*
X410630D02*
X412992D01*
X450000Y87008D02*
Y110630D01*
X427953Y100787D02*
Y106693D01*
Y100787D02*
X434252D01*
X436614Y104331D02*
Y106693D01*
X434983Y100417D02*
X436614Y104331D01*
X444882Y100787D02*
Y106693D01*
X438189Y100787D02*
X444882D01*
X438189Y96850D02*
X444882D01*
Y90945D02*
Y96850D01*
X434983Y97221D02*
X436614Y93307D01*
Y90945D02*
Y93307D01*
X427953Y96850D02*
X434252D01*
X427953Y90945D02*
Y96850D01*
X415354Y104724D02*
Y106693D01*
X414173Y92126D02*
X416535D01*
X415354Y90945D02*
Y93307D01*
X410630Y87008D02*
Y110630D01*
X115748Y35039D02*
X118110D01*
X122835D02*
X130709D01*
X135433D02*
X139370D01*
X144095D02*
X148031D01*
X152756D02*
X155118D01*
X152756Y58661D02*
X155118D01*
X144095D02*
X148031D01*
X135433D02*
X139370D01*
X122835D02*
X130709D01*
X115748D02*
X118110D01*
X155118Y35039D02*
Y58661D01*
X133071Y48819D02*
Y54724D01*
Y48819D02*
X139370D01*
X141732Y52362D02*
Y54724D01*
X140102Y48449D02*
X141732Y52362D01*
X150000Y48819D02*
Y54724D01*
X143307Y48819D02*
X150000D01*
X143307Y44882D02*
X150000D01*
Y38976D02*
Y44882D01*
X140102Y45252D02*
X141732Y41339D01*
Y38976D02*
Y41339D01*
X133071Y44882D02*
X139370D01*
X133071Y38976D02*
Y44882D01*
X120472Y52756D02*
Y54724D01*
X119291Y40157D02*
X121653D01*
X120472Y38976D02*
Y41339D01*
X115748Y35039D02*
Y58661D01*
X157874Y35039D02*
X160236D01*
X164961D02*
X172835D01*
X177559D02*
X181496D01*
X186221D02*
X190157D01*
X194882D02*
X197244D01*
X194882Y58661D02*
X197244D01*
X186221D02*
X190157D01*
X177559D02*
X181496D01*
X164961D02*
X172835D01*
X157874D02*
X160236D01*
X197244Y35039D02*
Y58661D01*
X175197Y48819D02*
Y54724D01*
Y48819D02*
X181496D01*
X183858Y52362D02*
Y54724D01*
X182228Y48449D02*
X183858Y52362D01*
X192126Y48819D02*
Y54724D01*
X185433Y48819D02*
X192126D01*
X185433Y44882D02*
X192126D01*
Y38976D02*
Y44882D01*
X182228Y45252D02*
X183858Y41339D01*
Y38976D02*
Y41339D01*
X175197Y44882D02*
X181496D01*
X175197Y38976D02*
Y44882D01*
X162598Y52756D02*
Y54724D01*
X161417Y40157D02*
X163779D01*
X162598Y38976D02*
Y41339D01*
X157874Y35039D02*
Y58661D01*
X200000Y35039D02*
X202362D01*
X207087D02*
X214961D01*
X219685D02*
X223622D01*
X228346D02*
X232283D01*
X237008D02*
X239370D01*
X237008Y58661D02*
X239370D01*
X228346D02*
X232283D01*
X219685D02*
X223622D01*
X207087D02*
X214961D01*
X200000D02*
X202362D01*
X239370Y35039D02*
Y58661D01*
X217323Y48819D02*
Y54724D01*
Y48819D02*
X223622D01*
X225984Y52362D02*
Y54724D01*
X224354Y48449D02*
X225984Y52362D01*
X234252Y48819D02*
Y54724D01*
X227559Y48819D02*
X234252D01*
X227559Y44882D02*
X234252D01*
Y38976D02*
Y44882D01*
X224354Y45252D02*
X225984Y41339D01*
Y38976D02*
Y41339D01*
X217323Y44882D02*
X223622D01*
X217323Y38976D02*
Y44882D01*
X204724Y52756D02*
Y54724D01*
X203543Y40157D02*
X205906D01*
X204724Y38976D02*
Y41339D01*
X200000Y35039D02*
Y58661D01*
X242126Y35039D02*
X244488D01*
X249213D02*
X257087D01*
X261811D02*
X265748D01*
X270472D02*
X274409D01*
X279134D02*
X281496D01*
X279134Y58661D02*
X281496D01*
X270472D02*
X274409D01*
X261811D02*
X265748D01*
X249213D02*
X257087D01*
X242126D02*
X244488D01*
X281496Y35039D02*
Y58661D01*
X259449Y48819D02*
Y54724D01*
Y48819D02*
X265748D01*
X268110Y52362D02*
Y54724D01*
X266479Y48449D02*
X268110Y52362D01*
X276378Y48819D02*
Y54724D01*
X269685Y48819D02*
X276378D01*
X269685Y44882D02*
X276378D01*
Y38976D02*
Y44882D01*
X266479Y45252D02*
X268110Y41339D01*
Y38976D02*
Y41339D01*
X259449Y44882D02*
X265748D01*
X259449Y38976D02*
Y44882D01*
X246850Y52756D02*
Y54724D01*
X245669Y40157D02*
X248031D01*
X246850Y38976D02*
Y41339D01*
X242126Y35039D02*
Y58661D01*
X284252Y35039D02*
X286614D01*
X291339D02*
X299213D01*
X303937D02*
X307874D01*
X312598D02*
X316535D01*
X321260D02*
X323622D01*
X321260Y58661D02*
X323622D01*
X312598D02*
X316535D01*
X303937D02*
X307874D01*
X291339D02*
X299213D01*
X284252D02*
X286614D01*
X323622Y35039D02*
Y58661D01*
X301575Y48819D02*
Y54724D01*
Y48819D02*
X307874D01*
X310236Y52362D02*
Y54724D01*
X308606Y48449D02*
X310236Y52362D01*
X318504Y48819D02*
Y54724D01*
X311811Y48819D02*
X318504D01*
X311811Y44882D02*
X318504D01*
Y38976D02*
Y44882D01*
X308606Y45252D02*
X310236Y41339D01*
Y38976D02*
Y41339D01*
X301575Y44882D02*
X307874D01*
X301575Y38976D02*
Y44882D01*
X288976Y52756D02*
Y54724D01*
X287795Y40157D02*
X290158D01*
X288976Y38976D02*
Y41339D01*
X284252Y35039D02*
Y58661D01*
X326378Y35039D02*
X328740D01*
X333465D02*
X341339D01*
X346063D02*
X350000D01*
X354724D02*
X358661D01*
X363386D02*
X365748D01*
X363386Y58661D02*
X365748D01*
X354724D02*
X358661D01*
X346063D02*
X350000D01*
X333465D02*
X341339D01*
X326378D02*
X328740D01*
X365748Y35039D02*
Y58661D01*
X343701Y48819D02*
Y54724D01*
Y48819D02*
X350000D01*
X352362Y52362D02*
Y54724D01*
X350731Y48449D02*
X352362Y52362D01*
X360630Y48819D02*
Y54724D01*
X353937Y48819D02*
X360630D01*
X353937Y44882D02*
X360630D01*
Y38976D02*
Y44882D01*
X350731Y45252D02*
X352362Y41339D01*
Y38976D02*
Y41339D01*
X343701Y44882D02*
X350000D01*
X343701Y38976D02*
Y44882D01*
X331102Y52756D02*
Y54724D01*
X329921Y40157D02*
X332283D01*
X331102Y38976D02*
Y41339D01*
X326378Y35039D02*
Y58661D01*
X368504Y35039D02*
X370866D01*
X375590D02*
X383465D01*
X388189D02*
X392126D01*
X396850D02*
X400787D01*
X405512D02*
X407874D01*
X405512Y58661D02*
X407874D01*
X396850D02*
X400787D01*
X388189D02*
X392126D01*
X375590D02*
X383465D01*
X368504D02*
X370866D01*
X407874Y35039D02*
Y58661D01*
X385827Y48819D02*
Y54724D01*
Y48819D02*
X392126D01*
X394488Y52362D02*
Y54724D01*
X392858Y48449D02*
X394488Y52362D01*
X402756Y48819D02*
Y54724D01*
X396063Y48819D02*
X402756D01*
X396063Y44882D02*
X402756D01*
Y38976D02*
Y44882D01*
X392858Y45252D02*
X394488Y41339D01*
Y38976D02*
Y41339D01*
X385827Y44882D02*
X392126D01*
X385827Y38976D02*
Y44882D01*
X373228Y52756D02*
Y54724D01*
X372047Y40157D02*
X374410D01*
X373228Y38976D02*
Y41339D01*
X368504Y35039D02*
Y58661D01*
X410630Y35039D02*
X412992D01*
X417717D02*
X425591D01*
X430315D02*
X434252D01*
X438976D02*
X442913D01*
X447638D02*
X450000D01*
X447638Y58661D02*
X450000D01*
X438976D02*
X442913D01*
X430315D02*
X434252D01*
X417717D02*
X425591D01*
X410630D02*
X412992D01*
X450000Y35039D02*
Y58661D01*
X427953Y48819D02*
Y54724D01*
Y48819D02*
X434252D01*
X436614Y52362D02*
Y54724D01*
X434983Y48449D02*
X436614Y52362D01*
X444882Y48819D02*
Y54724D01*
X438189Y48819D02*
X444882D01*
X438189Y44882D02*
X444882D01*
Y38976D02*
Y44882D01*
X434983Y45252D02*
X436614Y41339D01*
Y38976D02*
Y41339D01*
X427953Y44882D02*
X434252D01*
X427953Y38976D02*
Y44882D01*
X415354Y52756D02*
Y54724D01*
X414173Y40157D02*
X416535D01*
X415354Y38976D02*
Y41339D01*
X410630Y35039D02*
Y58661D01*
D13*
X465143Y117142D02*
X469079D01*
Y119110D01*
X468423Y119765D01*
X467767D01*
X467111Y119110D01*
Y117142D01*
Y119110D01*
X466455Y119765D01*
X465799D01*
X465143Y119110D01*
Y117142D01*
Y123701D02*
X465799Y122389D01*
X467111Y121078D01*
X468423D01*
X469079Y121733D01*
Y123045D01*
X468423Y123701D01*
X467767D01*
X467111Y123045D01*
Y121078D01*
X465799Y129214D02*
X465143Y128558D01*
Y127246D01*
X465799Y126591D01*
X468423D01*
X469079Y127246D01*
Y128558D01*
X468423Y129214D01*
X467111D01*
Y127902D01*
X465143Y130526D02*
X469079D01*
Y132494D01*
X468423Y133150D01*
X465799D01*
X465143Y132494D01*
Y130526D01*
X476953Y58087D02*
X474329D01*
X473017Y59399D01*
X474329Y60710D01*
X476953D01*
X474985D01*
Y58087D01*
X476297Y62022D02*
X476953Y62678D01*
Y63990D01*
X476297Y64646D01*
X473673D01*
X473017Y63990D01*
Y62678D01*
X473673Y62022D01*
X474329D01*
X474985Y62678D01*
Y64646D01*
X465799Y50474D02*
X465143Y49818D01*
Y48506D01*
X465799Y47850D01*
X468423D01*
X469079Y48506D01*
Y49818D01*
X468423Y50474D01*
X467111D01*
Y49162D01*
X465143Y51786D02*
X469079D01*
Y53754D01*
X468423Y54410D01*
X465799D01*
X465143Y53754D01*
Y51786D01*
X481677Y142732D02*
X479053D01*
X477741Y144044D01*
X479053Y145356D01*
X481677D01*
X479709D01*
Y142732D01*
X473673Y70159D02*
X473017Y69503D01*
Y68191D01*
X473673Y67535D01*
X476297D01*
X476953Y68191D01*
Y69503D01*
X476297Y70159D01*
Y71471D02*
X476953Y72127D01*
Y73439D01*
X476297Y74095D01*
X473673D01*
X473017Y73439D01*
Y72127D01*
X473673Y71471D01*
X474329D01*
X474985Y72127D01*
Y74095D01*
X465799Y219766D02*
X465143Y219110D01*
Y217798D01*
X465799Y217142D01*
X468423D01*
X469079Y217798D01*
Y219110D01*
X468423Y219766D01*
X467111D01*
Y218454D01*
X465143Y221077D02*
X469079D01*
Y223045D01*
X468423Y223701D01*
X465799D01*
X465143Y223045D01*
Y221077D01*
X465799Y180395D02*
X465143Y179739D01*
Y178428D01*
X465799Y177772D01*
X468423D01*
X469079Y178428D01*
Y179739D01*
X468423Y180395D01*
X467111D01*
Y179084D01*
X465143Y181707D02*
X469079D01*
Y183675D01*
X468423Y184331D01*
X465799D01*
X465143Y183675D01*
Y181707D01*
X473673Y50474D02*
X473017Y49818D01*
Y48506D01*
X473673Y47850D01*
X476297D01*
X476953Y48506D01*
Y49818D01*
X476297Y50474D01*
X476953Y51786D02*
Y53098D01*
Y52442D01*
X473017D01*
X473673Y51786D01*
X465143Y97457D02*
X469079D01*
Y99424D01*
X468423Y100081D01*
X467767D01*
X467111Y99424D01*
Y97457D01*
Y99424D01*
X466455Y100081D01*
X465799D01*
X465143Y99424D01*
Y97457D01*
Y101392D02*
Y104016D01*
X465799D01*
X468423Y101392D01*
X469079D01*
X465143Y77772D02*
X469079D01*
Y79739D01*
X468423Y80396D01*
X467767D01*
X467111Y79739D01*
Y77772D01*
Y79739D01*
X466455Y80396D01*
X465799D01*
X465143Y79739D01*
Y77772D01*
X465799Y81707D02*
X465143Y82363D01*
Y83675D01*
X465799Y84331D01*
X466455D01*
X467111Y83675D01*
X467767Y84331D01*
X468423D01*
X469079Y83675D01*
Y82363D01*
X468423Y81707D01*
X467767D01*
X467111Y82363D01*
X466455Y81707D01*
X465799D01*
X467111Y82363D02*
Y83675D01*
X473673Y109529D02*
X473017Y108873D01*
Y107562D01*
X473673Y106905D01*
X476297D01*
X476953Y107562D01*
Y108873D01*
X476297Y109529D01*
X473017Y110841D02*
Y113465D01*
X473673D01*
X476297Y110841D01*
X476953D01*
X465799Y259136D02*
X465143Y258480D01*
Y257168D01*
X465799Y256512D01*
X468423D01*
X469079Y257168D01*
Y258480D01*
X468423Y259136D01*
X467111D01*
Y257824D01*
X465143Y260448D02*
X469079D01*
Y262415D01*
X468423Y263071D01*
X465799D01*
X465143Y262415D01*
Y260448D01*
X473279Y210317D02*
X472623Y209661D01*
Y208349D01*
X473279Y207693D01*
X475903D01*
X476559Y208349D01*
Y209661D01*
X475903Y210317D01*
X473279Y211629D02*
X472623Y212285D01*
Y213597D01*
X473279Y214252D01*
X473935D01*
X474591Y213597D01*
Y212941D01*
Y213597D01*
X475247Y214252D01*
X475903D01*
X476559Y213597D01*
Y212285D01*
X475903Y211629D01*
X465143Y58087D02*
X469079D01*
Y60054D01*
X468423Y60710D01*
X467767D01*
X467111Y60054D01*
Y58087D01*
Y60054D01*
X466455Y60710D01*
X465799D01*
X465143Y60054D01*
Y58087D01*
X468423Y62022D02*
X469079Y62678D01*
Y63990D01*
X468423Y64646D01*
X465799D01*
X465143Y63990D01*
Y62678D01*
X465799Y62022D01*
X466455D01*
X467111Y62678D01*
Y64646D01*
X473279Y230002D02*
X472623Y229346D01*
Y228034D01*
X473279Y227378D01*
X475903D01*
X476559Y228034D01*
Y229346D01*
X475903Y230002D01*
X476559Y233281D02*
X472623D01*
X474591Y231314D01*
Y233938D01*
X465143Y227378D02*
X469079D01*
Y229346D01*
X468423Y230002D01*
X467767D01*
X467111Y229346D01*
Y227378D01*
Y229346D01*
X466455Y230002D01*
X465799D01*
X465143Y229346D01*
Y227378D01*
X469079Y233282D02*
X465143D01*
X467111Y231314D01*
Y233938D01*
X465143Y38008D02*
X469079D01*
Y39976D01*
X468423Y40632D01*
X467767D01*
X467111Y39976D01*
Y38008D01*
Y39976D01*
X466455Y40632D01*
X465799D01*
X465143Y39976D01*
Y38008D01*
X469079Y41944D02*
Y43255D01*
Y42600D01*
X465143D01*
X465799Y41944D01*
Y239451D02*
X465143Y238795D01*
Y237483D01*
X465799Y236827D01*
X468423D01*
X469079Y237483D01*
Y238795D01*
X468423Y239451D01*
X467111D01*
Y238139D01*
X465143Y240762D02*
X469079D01*
Y242730D01*
X468423Y243386D01*
X465799D01*
X465143Y242730D01*
Y240762D01*
X1757Y39189D02*
X5037D01*
X5693Y39845D01*
Y41157D01*
X5037Y41813D01*
X1757D01*
X5693Y43125D02*
X1757D01*
X5693Y45748D01*
X1757D01*
Y47060D02*
Y48372D01*
Y47716D01*
X5693D01*
Y47060D01*
Y48372D01*
Y50340D02*
X1757D01*
Y52308D01*
X2413Y52964D01*
X3725D01*
X4381Y52308D01*
Y50340D01*
Y51652D02*
X5693Y52964D01*
X1757Y56900D02*
Y54276D01*
X5693D01*
Y56900D01*
X3725Y54276D02*
Y55588D01*
X1757Y58212D02*
X5693D01*
Y60835D01*
X3725Y62147D02*
Y64771D01*
X5693Y66083D02*
X1757D01*
Y68051D01*
X2413Y68707D01*
X3725D01*
X4381Y68051D01*
Y66083D01*
X1757Y71987D02*
Y70675D01*
X2413Y70019D01*
X5037D01*
X5693Y70675D01*
Y71987D01*
X5037Y72643D01*
X2413D01*
X1757Y71987D01*
Y73955D02*
Y76578D01*
Y75267D01*
X5693D01*
X465143Y207693D02*
X469079D01*
Y209661D01*
X468423Y210317D01*
X467767D01*
X467111Y209661D01*
Y207693D01*
Y209661D01*
X466455Y210317D01*
X465799D01*
X465143Y209661D01*
Y207693D01*
X465799Y211629D02*
X465143Y212285D01*
Y213597D01*
X465799Y214252D01*
X466455D01*
X467111Y213597D01*
Y212941D01*
Y213597D01*
X467767Y214252D01*
X468423D01*
X469079Y213597D01*
Y212285D01*
X468423Y211629D01*
X2151Y240370D02*
X4775D01*
X6087Y241682D01*
X4775Y242994D01*
X2151D01*
X6087Y244306D02*
Y245618D01*
Y244962D01*
X2151D01*
X2807Y244306D01*
X6087Y247586D02*
X5431D01*
Y248242D01*
X6087D01*
Y247586D01*
X2807Y250865D02*
X2151Y251521D01*
Y252833D01*
X2807Y253489D01*
X5431D01*
X6087Y252833D01*
Y251521D01*
X5431Y250865D01*
X2807D01*
X476559Y217142D02*
X473935D01*
X472623Y218454D01*
X473935Y219765D01*
X476559D01*
X474591D01*
Y217142D01*
X473279Y221077D02*
X472623Y221733D01*
Y223045D01*
X473279Y223701D01*
X473935D01*
X474591Y223045D01*
Y222389D01*
Y223045D01*
X475247Y223701D01*
X475903D01*
X476559Y223045D01*
Y221733D01*
X475903Y221077D01*
X476953Y97457D02*
X474329D01*
X473017Y98769D01*
X474329Y100081D01*
X476953D01*
X474985D01*
Y97457D01*
X473017Y101392D02*
Y104016D01*
X473673D01*
X476297Y101392D01*
X476953D01*
X473279Y190632D02*
X472623Y189976D01*
Y188664D01*
X473279Y188008D01*
X475903D01*
X476559Y188664D01*
Y189976D01*
X475903Y190632D01*
X476559Y194567D02*
Y191944D01*
X473935Y194567D01*
X473279D01*
X472623Y193912D01*
Y192599D01*
X473279Y191944D01*
X465799Y109529D02*
X465143Y108873D01*
Y107562D01*
X465799Y106905D01*
X468423D01*
X469079Y107562D01*
Y108873D01*
X468423Y109529D01*
X467111D01*
Y108217D01*
X465143Y110841D02*
X469079D01*
Y112809D01*
X468423Y113465D01*
X465799D01*
X465143Y112809D01*
Y110841D01*
X465799Y200080D02*
X465143Y199425D01*
Y198113D01*
X465799Y197457D01*
X468423D01*
X469079Y198113D01*
Y199425D01*
X468423Y200080D01*
X467111D01*
Y198769D01*
X465143Y201392D02*
X469079D01*
Y203360D01*
X468423Y204016D01*
X465799D01*
X465143Y203360D01*
Y201392D01*
Y188008D02*
X469079D01*
Y189976D01*
X468423Y190632D01*
X467767D01*
X467111Y189976D01*
Y188008D01*
Y189976D01*
X466455Y190632D01*
X465799D01*
X465143Y189976D01*
Y188008D01*
X469079Y194567D02*
Y191944D01*
X466455Y194567D01*
X465799D01*
X465143Y193912D01*
Y192600D01*
X465799Y191944D01*
X476953Y117142D02*
X474329D01*
X473017Y118454D01*
X474329Y119766D01*
X476953D01*
X474985D01*
Y117142D01*
X473017Y123701D02*
X473673Y122389D01*
X474985Y121078D01*
X476297D01*
X476953Y121733D01*
Y123045D01*
X476297Y123701D01*
X475641D01*
X474985Y123045D01*
Y121078D01*
X1364Y130921D02*
X5299D01*
Y133545D01*
X2019Y135513D02*
X2675D01*
Y134857D01*
Y136169D01*
Y135513D01*
X4643D01*
X5299Y136169D01*
X1364Y140761D02*
X5299D01*
Y138793D01*
X4643Y138137D01*
X3331D01*
X2675Y138793D01*
Y140761D01*
X5299Y142072D02*
X4643D01*
Y142728D01*
X5299D01*
Y142072D01*
X465799Y70159D02*
X465143Y69503D01*
Y68191D01*
X465799Y67535D01*
X468423D01*
X469079Y68191D01*
Y69503D01*
X468423Y70159D01*
X467111D01*
Y68847D01*
X465143Y71471D02*
X469079D01*
Y73439D01*
X468423Y74095D01*
X465799D01*
X465143Y73439D01*
Y71471D01*
X476953Y77772D02*
X474329D01*
X473017Y79084D01*
X474329Y80396D01*
X476953D01*
X474985D01*
Y77772D01*
X473673Y81707D02*
X473017Y82363D01*
Y83675D01*
X473673Y84331D01*
X474329D01*
X474985Y83675D01*
X475641Y84331D01*
X476297D01*
X476953Y83675D01*
Y82363D01*
X476297Y81707D01*
X475641D01*
X474985Y82363D01*
X474329Y81707D01*
X473673D01*
X474985Y82363D02*
Y83675D01*
X465143Y247063D02*
X469079D01*
Y249031D01*
X468423Y249687D01*
X467767D01*
X467111Y249031D01*
Y247063D01*
Y249031D01*
X466455Y249687D01*
X465799D01*
X465143Y249031D01*
Y247063D01*
Y253623D02*
Y250999D01*
X467111D01*
X466455Y252311D01*
Y252967D01*
X467111Y253623D01*
X468423D01*
X469079Y252967D01*
Y251655D01*
X468423Y250999D01*
X16716Y108348D02*
Y105724D01*
X14093Y108348D01*
X13437D01*
X12781Y107692D01*
Y106380D01*
X13437Y105724D01*
Y109660D02*
X12781Y110316D01*
Y111628D01*
X13437Y112284D01*
X16061D01*
X16716Y111628D01*
Y110316D01*
X16061Y109660D01*
X13437D01*
X16716Y116220D02*
Y113596D01*
X14093Y116220D01*
X13437D01*
X12781Y115564D01*
Y114252D01*
X13437Y113596D01*
Y117532D02*
X12781Y118188D01*
Y119500D01*
X13437Y120156D01*
X14093D01*
X14749Y119500D01*
Y118844D01*
Y119500D01*
X15405Y120156D01*
X16061D01*
X16716Y119500D01*
Y118188D01*
X16061Y117532D01*
X476559Y256512D02*
X473935D01*
X472623Y257824D01*
X473935Y259136D01*
X476559D01*
X474591D01*
Y256512D01*
X472623Y263071D02*
Y260448D01*
X474591D01*
X473935Y261759D01*
Y262415D01*
X474591Y263071D01*
X475903D01*
X476559Y262415D01*
Y261104D01*
X475903Y260448D01*
X476559Y177772D02*
X473935D01*
X472623Y179084D01*
X473935Y180395D01*
X476559D01*
X474591D01*
Y177772D01*
X476559Y181707D02*
Y183019D01*
Y182363D01*
X472623D01*
X473279Y181707D01*
X473673Y129214D02*
X473017Y128558D01*
Y127246D01*
X473673Y126591D01*
X476297D01*
X476953Y127246D01*
Y128558D01*
X476297Y129214D01*
X473017Y133150D02*
X473673Y131838D01*
X474985Y130526D01*
X476297D01*
X476953Y131182D01*
Y132494D01*
X476297Y133150D01*
X475641D01*
X474985Y132494D01*
Y130526D01*
X5299Y86170D02*
X3987Y84858D01*
X2675D01*
X1364Y86170D01*
X2675Y90762D02*
Y88794D01*
X3331Y88138D01*
X4643D01*
X5299Y88794D01*
Y90762D01*
Y92074D02*
X3987Y93386D01*
X2675D01*
X1364Y92074D01*
X465143Y168323D02*
X469079D01*
Y170291D01*
X468423Y170947D01*
X467767D01*
X467111Y170291D01*
Y168323D01*
Y170291D01*
X466455Y170947D01*
X465799D01*
X465143Y170291D01*
Y168323D01*
X469079Y172259D02*
Y173571D01*
Y172915D01*
X465143D01*
X465799Y172259D01*
X476559Y197457D02*
X473935D01*
X472623Y198769D01*
X473935Y200080D01*
X476559D01*
X474591D01*
Y197457D01*
X476559Y204016D02*
Y201392D01*
X473935Y204016D01*
X473279D01*
X472623Y203360D01*
Y202048D01*
X473279Y201392D01*
X479710Y149425D02*
X483646D01*
Y151393D01*
X482990Y152049D01*
X482334D01*
X481678Y151393D01*
Y149425D01*
Y151393D01*
X481022Y152049D01*
X480366D01*
X479710Y151393D01*
Y149425D01*
X478397Y158348D02*
X477741Y157692D01*
Y156380D01*
X478397Y155724D01*
X481021D01*
X481677Y156380D01*
Y157692D01*
X481021Y158348D01*
X473279Y249687D02*
X472623Y249031D01*
Y247719D01*
X473279Y247063D01*
X475903D01*
X476559Y247719D01*
Y249031D01*
X475903Y249687D01*
X472623Y253623D02*
Y250999D01*
X474591D01*
X473935Y252311D01*
Y252967D01*
X474591Y253623D01*
X475903D01*
X476559Y252967D01*
Y251655D01*
X475903Y250999D01*
X1626Y98638D02*
X5562D01*
Y100606D01*
X4906Y101262D01*
X2282D01*
X1626Y100606D01*
Y98638D01*
X5562Y102574D02*
Y103885D01*
Y103229D01*
X2938D01*
Y102574D01*
X5562Y105853D02*
Y107821D01*
X4906Y108477D01*
X4250Y107821D01*
Y106509D01*
X3594Y105853D01*
X2938Y106509D01*
Y108477D01*
X2282Y110445D02*
X2938D01*
Y109789D01*
Y111101D01*
Y110445D01*
X4906D01*
X5562Y111101D01*
Y113725D02*
Y115037D01*
X4906Y115693D01*
X3594D01*
X2938Y115037D01*
Y113725D01*
X3594Y113069D01*
X4906D01*
X5562Y113725D01*
X6874Y117005D02*
X2938D01*
Y118973D01*
X3594Y119628D01*
X4906D01*
X5562Y118973D01*
Y117005D01*
Y120940D02*
Y122252D01*
Y121596D01*
X2938D01*
Y120940D01*
X5562Y124220D02*
X1626D01*
X4250D02*
X2938Y126188D01*
X4250Y124220D02*
X5562Y126188D01*
X473673Y89844D02*
X473017Y89188D01*
Y87876D01*
X473673Y87221D01*
X476297D01*
X476953Y87876D01*
Y89188D01*
X476297Y89844D01*
X473673Y91156D02*
X473017Y91812D01*
Y93124D01*
X473673Y93780D01*
X474329D01*
X474985Y93124D01*
X475641Y93780D01*
X476297D01*
X476953Y93124D01*
Y91812D01*
X476297Y91156D01*
X475641D01*
X474985Y91812D01*
X474329Y91156D01*
X473673D01*
X474985Y91812D02*
Y93124D01*
X473279Y170947D02*
X472623Y170291D01*
Y168979D01*
X473279Y168323D01*
X475903D01*
X476559Y168979D01*
Y170291D01*
X475903Y170947D01*
X476559Y172258D02*
Y173571D01*
Y172915D01*
X472623D01*
X473279Y172258D01*
X476953Y38008D02*
X474329D01*
X473017Y39320D01*
X474329Y40632D01*
X476953D01*
X474985D01*
Y38008D01*
X476953Y41944D02*
Y43255D01*
Y42600D01*
X473017D01*
X473673Y41944D01*
X476559Y236827D02*
X473935D01*
X472623Y238139D01*
X473935Y239451D01*
X476559D01*
X474591D01*
Y236827D01*
X476559Y242730D02*
X472623D01*
X474591Y240762D01*
Y243386D01*
X465799Y89844D02*
X465143Y89188D01*
Y87876D01*
X465799Y87221D01*
X468423D01*
X469079Y87876D01*
Y89188D01*
X468423Y89844D01*
X467111D01*
Y88532D01*
X465143Y91156D02*
X469079D01*
Y93124D01*
X468423Y93780D01*
X465799D01*
X465143Y93124D01*
Y91156D01*
D14*
X487827Y164198D02*
Y160866D01*
X484494Y164198D01*
X483661D01*
X482828Y163365D01*
Y161699D01*
X483661Y160866D01*
X487827Y34041D02*
Y30709D01*
X484494Y34041D01*
X483661D01*
X482828Y33208D01*
Y31542D01*
X483661Y30709D01*
X497827Y160866D02*
Y162532D01*
Y161699D01*
X492828D01*
X493661Y160866D01*
X497827Y30709D02*
Y32375D01*
Y31542D01*
X492828D01*
X493661Y30709D01*
M02*
