G04*
G04 #@! TF.GenerationSoftware,Altium Limited,Altium Designer,20.0.9 (164)*
G04*
G04 Layer_Color=32896*
%FSLAX25Y25*%
%MOIN*%
G70*
G01*
G75*
%ADD10C,0.00787*%
%ADD12C,0.00394*%
D10*
X113779Y229134D02*
X452362D01*
X113779Y280315D02*
X452362D01*
Y229134D02*
Y280315D01*
X113779Y229134D02*
Y280315D01*
X113779Y177165D02*
X452362D01*
X113779Y228346D02*
X452362D01*
Y177165D02*
Y228346D01*
X113779Y177165D02*
Y228346D01*
X113779Y125197D02*
X452362D01*
X113779Y176378D02*
X452362D01*
Y125197D02*
Y176378D01*
X113779Y125197D02*
Y176378D01*
Y73228D02*
X452362D01*
X113779Y124409D02*
X452362D01*
Y73228D02*
Y124409D01*
X113779Y73228D02*
Y124409D01*
Y229134D02*
X452362D01*
X113779Y280315D02*
X452362D01*
Y229134D02*
Y280315D01*
X113779Y229134D02*
Y280315D01*
X113779Y177165D02*
X452362D01*
X113779Y228346D02*
X452362D01*
Y177165D02*
Y228346D01*
X113779Y177165D02*
Y228346D01*
X113779Y125197D02*
X452362D01*
X113779Y176378D02*
X452362D01*
Y125197D02*
Y176378D01*
X113779Y125197D02*
Y176378D01*
Y73228D02*
X452362D01*
X113779Y124409D02*
X452362D01*
Y73228D02*
Y124409D01*
X113779Y73228D02*
Y124409D01*
X113779Y72441D02*
X452362D01*
X113779Y21260D02*
X452362D01*
Y72441D01*
X113779Y21260D02*
Y72441D01*
Y124409D02*
X452362D01*
X113779Y73228D02*
X452362D01*
Y124409D01*
X113779Y73228D02*
Y124409D01*
Y176378D02*
X452362D01*
X113779Y125197D02*
X452362D01*
Y176378D01*
X113779Y125197D02*
Y176378D01*
Y228346D02*
X452362D01*
X113779Y177165D02*
X452362D01*
Y228346D01*
Y229134D02*
Y280315D01*
X113779Y229134D02*
X452362D01*
X113779Y280315D02*
X452362D01*
X113779Y229134D02*
Y280315D01*
X113779Y72441D02*
X452362D01*
X113779Y21260D02*
X452362D01*
Y72441D01*
X113779Y21260D02*
Y72441D01*
Y229134D02*
X452362D01*
X113779Y280315D02*
X452362D01*
Y229134D02*
Y280315D01*
X113779Y229134D02*
Y280315D01*
X113779Y177165D02*
X452362D01*
X113779Y228346D02*
X452362D01*
Y177165D02*
Y228346D01*
X113779Y177165D02*
Y228346D01*
X113779Y125197D02*
X452362D01*
X113779Y176378D02*
X452362D01*
Y125197D02*
Y176378D01*
X113779Y125197D02*
Y176378D01*
Y73228D02*
X452362D01*
X113779Y124409D02*
X452362D01*
Y73228D02*
Y124409D01*
X113779Y73228D02*
Y124409D01*
X452362Y21260D02*
Y72441D01*
X113779D02*
X452362D01*
X113779Y21260D02*
Y72441D01*
Y21260D02*
X452362D01*
X146850Y273425D02*
X147244D01*
X146850Y277756D02*
X147244D01*
X136221Y231693D02*
X136614D01*
X136221Y236024D02*
X136614D01*
X188976Y273425D02*
X189370D01*
X188976Y277756D02*
X189370D01*
X178346Y231693D02*
X178740D01*
X178346Y236024D02*
X178740D01*
X231102Y273425D02*
X231496D01*
X231102Y277756D02*
X231496D01*
X220472Y231693D02*
X220866D01*
X220472Y236024D02*
X220866D01*
X273228Y273425D02*
X273622D01*
X273228Y277756D02*
X273622D01*
X262598Y231693D02*
X262992D01*
X262598Y236024D02*
X262992D01*
X315354Y273425D02*
X315748D01*
X315354Y277756D02*
X315748D01*
X304724Y231693D02*
X305118D01*
X304724Y236024D02*
X305118D01*
X357480Y273425D02*
X357874D01*
X357480Y277756D02*
X357874D01*
X346850Y231693D02*
X347244D01*
X346850Y236024D02*
X347244D01*
X399606Y273425D02*
X400000D01*
X399606Y277756D02*
X400000D01*
X388976Y231693D02*
X389370D01*
X388976Y236024D02*
X389370D01*
X441732Y273425D02*
X442126D01*
X441732Y277756D02*
X442126D01*
X431102Y231693D02*
X431496D01*
X431102Y236024D02*
X431496D01*
X146850Y221457D02*
X147244D01*
X146850Y225787D02*
X147244D01*
X136221Y179724D02*
X136614D01*
X136221Y184055D02*
X136614D01*
X188976Y221457D02*
X189370D01*
X188976Y225787D02*
X189370D01*
X178346Y179724D02*
X178740D01*
X178346Y184055D02*
X178740D01*
X231102Y221457D02*
X231496D01*
X231102Y225787D02*
X231496D01*
X220472Y179724D02*
X220866D01*
X220472Y184055D02*
X220866D01*
X273228Y221457D02*
X273622D01*
X273228Y225787D02*
X273622D01*
X262598Y179724D02*
X262992D01*
X262598Y184055D02*
X262992D01*
X315354Y221457D02*
X315748D01*
X315354Y225787D02*
X315748D01*
X304724Y179724D02*
X305118D01*
X304724Y184055D02*
X305118D01*
X357480Y221457D02*
X357874D01*
X357480Y225787D02*
X357874D01*
X346850Y179724D02*
X347244D01*
X346850Y184055D02*
X347244D01*
X399606Y221457D02*
X400000D01*
X399606Y225787D02*
X400000D01*
X388976Y179724D02*
X389370D01*
X388976Y184055D02*
X389370D01*
X441732Y221457D02*
X442126D01*
X441732Y225787D02*
X442126D01*
X431102Y179724D02*
X431496D01*
X431102Y184055D02*
X431496D01*
X146850Y169488D02*
X147244D01*
X146850Y173819D02*
X147244D01*
X136221Y127756D02*
X136614D01*
X136221Y132087D02*
X136614D01*
X188976Y169488D02*
X189370D01*
X188976Y173819D02*
X189370D01*
X178346Y127756D02*
X178740D01*
X178346Y132087D02*
X178740D01*
X231102Y169488D02*
X231496D01*
X231102Y173819D02*
X231496D01*
X220472Y127756D02*
X220866D01*
X220472Y132087D02*
X220866D01*
X273228Y169488D02*
X273622D01*
X273228Y173819D02*
X273622D01*
X262598Y127756D02*
X262992D01*
X262598Y132087D02*
X262992D01*
X315354Y169488D02*
X315748D01*
X315354Y173819D02*
X315748D01*
X304724Y127756D02*
X305118D01*
X304724Y132087D02*
X305118D01*
X357480Y169488D02*
X357874D01*
X357480Y173819D02*
X357874D01*
X346850Y127756D02*
X347244D01*
X346850Y132087D02*
X347244D01*
X399606Y169488D02*
X400000D01*
X399606Y173819D02*
X400000D01*
X388976Y127756D02*
X389370D01*
X388976Y132087D02*
X389370D01*
X441732Y169488D02*
X442126D01*
X441732Y173819D02*
X442126D01*
X431102Y127756D02*
X431496D01*
X431102Y132087D02*
X431496D01*
X146850Y117520D02*
X147244D01*
X146850Y121850D02*
X147244D01*
X136221Y75787D02*
X136614D01*
X136221Y80118D02*
X136614D01*
X188976Y117520D02*
X189370D01*
X188976Y121850D02*
X189370D01*
X178346Y75787D02*
X178740D01*
X178346Y80118D02*
X178740D01*
X231102Y117520D02*
X231496D01*
X231102Y121850D02*
X231496D01*
X220472Y75787D02*
X220866D01*
X220472Y80118D02*
X220866D01*
X273228Y117520D02*
X273622D01*
X273228Y121850D02*
X273622D01*
X262598Y75787D02*
X262992D01*
X262598Y80118D02*
X262992D01*
X315354Y117520D02*
X315748D01*
X315354Y121850D02*
X315748D01*
X304724Y75787D02*
X305118D01*
X304724Y80118D02*
X305118D01*
X357480Y117520D02*
X357874D01*
X357480Y121850D02*
X357874D01*
X346850Y75787D02*
X347244D01*
X346850Y80118D02*
X347244D01*
X399606Y117520D02*
X400000D01*
X399606Y121850D02*
X400000D01*
X388976Y75787D02*
X389370D01*
X388976Y80118D02*
X389370D01*
X441732Y117520D02*
X442126D01*
X441732Y121850D02*
X442126D01*
X431102Y75787D02*
X431496D01*
X431102Y80118D02*
X431496D01*
X357480Y65551D02*
X357874D01*
X357480Y69882D02*
X357874Y69882D01*
X441732Y65551D02*
X442126D01*
X441732Y69882D02*
X442126Y69882D01*
X399606Y65551D02*
X400000D01*
X399606Y69882D02*
X400000D01*
X315354Y65551D02*
X315748D01*
X315354Y69882D02*
X315748Y69882D01*
X273228Y65551D02*
X273622D01*
X273228Y69882D02*
X273622D01*
X231102Y65551D02*
X231496D01*
X231102Y69882D02*
X231496D01*
X188976Y65551D02*
X189370D01*
X188976Y69882D02*
X189370D01*
X146850Y65551D02*
X147244D01*
X146850Y69882D02*
X147244D01*
X431102Y23819D02*
X431496D01*
X431102Y28150D02*
X431496Y28150D01*
X388976Y23819D02*
X389370D01*
X388976Y28150D02*
X389370D01*
X346850Y23819D02*
X347244D01*
X346850Y28150D02*
X347244Y28150D01*
X304724Y23819D02*
X305118D01*
X304724Y28150D02*
X305118Y28150D01*
X262598Y23819D02*
X262992D01*
X262598Y28150D02*
X262992Y28150D01*
X220472Y23819D02*
X220866D01*
X220472Y28150D02*
X220866D01*
X178346Y23819D02*
X178740D01*
X178346Y28150D02*
X178740D01*
X136221Y23819D02*
X136614D01*
X136221Y28150D02*
X136614D01*
D12*
X410630Y266535D02*
X412992D01*
X417717D02*
X425591D01*
X430315D02*
X434252D01*
X438976D02*
X442913D01*
X447638D02*
X450000D01*
X447638Y242913D02*
X450000D01*
X438976D02*
X442913D01*
X430315D02*
X434252D01*
X417717D02*
X425591D01*
X410630D02*
X412992D01*
X450000D02*
Y266535D01*
X427953Y246850D02*
Y252756D01*
X434252D01*
X436614Y246850D02*
Y249213D01*
X434983Y253126D02*
X436614Y249213D01*
X444882Y246850D02*
Y252756D01*
X438189D02*
X444882D01*
X438189Y256693D02*
X444882D01*
Y262598D01*
X434983Y256323D02*
X436614Y260236D01*
Y262598D01*
X427953Y256693D02*
X434252D01*
X427953D02*
Y262598D01*
X415354Y246850D02*
Y248819D01*
X414173Y261417D02*
X416535D01*
X415354Y260236D02*
Y262598D01*
X410630Y242913D02*
Y266535D01*
X368504D02*
X370866D01*
X375590D02*
X383465D01*
X388189D02*
X392126D01*
X396850D02*
X400787D01*
X405512D02*
X407874D01*
X405512Y242913D02*
X407874D01*
X396850D02*
X400787D01*
X388189D02*
X392126D01*
X375590D02*
X383465D01*
X368504D02*
X370866D01*
X407874D02*
Y266535D01*
X385827Y246850D02*
Y252756D01*
X392126D01*
X394488Y246850D02*
Y249213D01*
X392858Y253126D02*
X394488Y249213D01*
X402756Y246850D02*
Y252756D01*
X396063D02*
X402756D01*
X396063Y256693D02*
X402756D01*
Y262598D01*
X392858Y256323D02*
X394488Y260236D01*
Y262598D01*
X385827Y256693D02*
X392126D01*
X385827D02*
Y262598D01*
X373228Y246850D02*
Y248819D01*
X372047Y261417D02*
X374410D01*
X373228Y260236D02*
Y262598D01*
X368504Y242913D02*
Y266535D01*
X326378D02*
X328740D01*
X333465D02*
X341339D01*
X346063D02*
X350000D01*
X354724D02*
X358661D01*
X363386D02*
X365748D01*
X363386Y242913D02*
X365748D01*
X354724D02*
X358661D01*
X346063D02*
X350000D01*
X333465D02*
X341339D01*
X326378D02*
X328740D01*
X365748D02*
Y266535D01*
X343701Y246850D02*
Y252756D01*
X350000D01*
X352362Y246850D02*
Y249213D01*
X350731Y253126D02*
X352362Y249213D01*
X360630Y246850D02*
Y252756D01*
X353937D02*
X360630D01*
X353937Y256693D02*
X360630D01*
Y262598D01*
X350731Y256323D02*
X352362Y260236D01*
Y262598D01*
X343701Y256693D02*
X350000D01*
X343701D02*
Y262598D01*
X331102Y246850D02*
Y248819D01*
X329921Y261417D02*
X332283D01*
X331102Y260236D02*
Y262598D01*
X326378Y242913D02*
Y266535D01*
X284252D02*
X286614D01*
X291339D02*
X299213D01*
X303937D02*
X307874D01*
X312598D02*
X316535D01*
X321260D02*
X323622D01*
X321260Y242913D02*
X323622D01*
X312598D02*
X316535D01*
X303937D02*
X307874D01*
X291339D02*
X299213D01*
X284252D02*
X286614D01*
X323622D02*
Y266535D01*
X301575Y246850D02*
Y252756D01*
X307874D01*
X310236Y246850D02*
Y249213D01*
X308606Y253126D02*
X310236Y249213D01*
X318504Y246850D02*
Y252756D01*
X311811D02*
X318504D01*
X311811Y256693D02*
X318504D01*
Y262598D01*
X308606Y256323D02*
X310236Y260236D01*
Y262598D01*
X301575Y256693D02*
X307874D01*
X301575D02*
Y262598D01*
X288976Y246850D02*
Y248819D01*
X287795Y261417D02*
X290158D01*
X288976Y260236D02*
Y262598D01*
X284252Y242913D02*
Y266535D01*
X242126D02*
X244488D01*
X249213D02*
X257087D01*
X261811D02*
X265748D01*
X270472D02*
X274409D01*
X279134D02*
X281496D01*
X279134Y242913D02*
X281496D01*
X270472D02*
X274409D01*
X261811D02*
X265748D01*
X249213D02*
X257087D01*
X242126D02*
X244488D01*
X281496D02*
Y266535D01*
X259449Y246850D02*
Y252756D01*
X265748D01*
X268110Y246850D02*
Y249213D01*
X266479Y253126D02*
X268110Y249213D01*
X276378Y246850D02*
Y252756D01*
X269685D02*
X276378D01*
X269685Y256693D02*
X276378D01*
Y262598D01*
X266479Y256323D02*
X268110Y260236D01*
Y262598D01*
X259449Y256693D02*
X265748D01*
X259449D02*
Y262598D01*
X246850Y246850D02*
Y248819D01*
X245669Y261417D02*
X248031D01*
X246850Y260236D02*
Y262598D01*
X242126Y242913D02*
Y266535D01*
X200000D02*
X202362D01*
X207087D02*
X214961D01*
X219685D02*
X223622D01*
X228346D02*
X232283D01*
X237008D02*
X239370D01*
X237008Y242913D02*
X239370D01*
X228346D02*
X232283D01*
X219685D02*
X223622D01*
X207087D02*
X214961D01*
X200000D02*
X202362D01*
X239370D02*
Y266535D01*
X217323Y246850D02*
Y252756D01*
X223622D01*
X225984Y246850D02*
Y249213D01*
X224354Y253126D02*
X225984Y249213D01*
X234252Y246850D02*
Y252756D01*
X227559D02*
X234252D01*
X227559Y256693D02*
X234252D01*
Y262598D01*
X224354Y256323D02*
X225984Y260236D01*
Y262598D01*
X217323Y256693D02*
X223622D01*
X217323D02*
Y262598D01*
X204724Y246850D02*
Y248819D01*
X203543Y261417D02*
X205906D01*
X204724Y260236D02*
Y262598D01*
X200000Y242913D02*
Y266535D01*
X157874Y266535D02*
X160236D01*
X164961D02*
X172835D01*
X177559D02*
X181496D01*
X186221D02*
X190157D01*
X194882D02*
X197244D01*
X194882Y242913D02*
X197244D01*
X186221D02*
X190157D01*
X177559D02*
X181496D01*
X164961D02*
X172835D01*
X157874D02*
X160236D01*
X197244D02*
Y266535D01*
X175197Y246850D02*
Y252756D01*
X181496D01*
X183858Y246850D02*
Y249213D01*
X182228Y253126D02*
X183858Y249213D01*
X192126Y246850D02*
Y252756D01*
X185433D02*
X192126D01*
X185433Y256693D02*
X192126D01*
Y262598D01*
X182228Y256323D02*
X183858Y260236D01*
Y262598D01*
X175197Y256693D02*
X181496D01*
X175197D02*
Y262598D01*
X162598Y246850D02*
Y248819D01*
X161417Y261417D02*
X163779D01*
X162598Y260236D02*
Y262598D01*
X157874Y242913D02*
Y266535D01*
X115748Y266535D02*
X118110D01*
X122835D02*
X130709D01*
X135433D02*
X139370D01*
X144095D02*
X148031D01*
X152756D02*
X155118D01*
X152756Y242913D02*
X155118D01*
X144095D02*
X148031D01*
X135433D02*
X139370D01*
X122835D02*
X130709D01*
X115748D02*
X118110D01*
X155118D02*
Y266535D01*
X133071Y246850D02*
Y252756D01*
X139370D01*
X141732Y246850D02*
Y249213D01*
X140102Y253126D02*
X141732Y249213D01*
X150000Y246850D02*
Y252756D01*
X143307D02*
X150000D01*
X143307Y256693D02*
X150000D01*
Y262598D01*
X140102Y256323D02*
X141732Y260236D01*
Y262598D01*
X133071Y256693D02*
X139370D01*
X133071D02*
Y262598D01*
X120472Y246850D02*
Y248819D01*
X119291Y261417D02*
X121653D01*
X120472Y260236D02*
Y262598D01*
X115748Y242913D02*
Y266535D01*
X410630Y214567D02*
X412992D01*
X417717D02*
X425591D01*
X430315D02*
X434252D01*
X438976D02*
X442913D01*
X447638D02*
X450000D01*
X447638Y190945D02*
X450000D01*
X438976D02*
X442913D01*
X430315D02*
X434252D01*
X417717D02*
X425591D01*
X410630D02*
X412992D01*
X450000D02*
Y214567D01*
X427953Y194882D02*
Y200787D01*
X434252D01*
X436614Y194882D02*
Y197244D01*
X434983Y201158D02*
X436614Y197244D01*
X444882Y194882D02*
Y200787D01*
X438189D02*
X444882D01*
X438189Y204724D02*
X444882D01*
Y210630D01*
X434983Y204354D02*
X436614Y208268D01*
Y210630D01*
X427953Y204724D02*
X434252D01*
X427953D02*
Y210630D01*
X415354Y194882D02*
Y196850D01*
X414173Y209449D02*
X416535D01*
X415354Y208268D02*
Y210630D01*
X410630Y190945D02*
Y214567D01*
X368504D02*
X370866D01*
X375590D02*
X383465D01*
X388189D02*
X392126D01*
X396850D02*
X400787D01*
X405512D02*
X407874D01*
X405512Y190945D02*
X407874D01*
X396850D02*
X400787D01*
X388189D02*
X392126D01*
X375590D02*
X383465D01*
X368504D02*
X370866D01*
X407874D02*
Y214567D01*
X385827Y194882D02*
Y200787D01*
X392126D01*
X394488Y194882D02*
Y197244D01*
X392858Y201158D02*
X394488Y197244D01*
X402756Y194882D02*
Y200787D01*
X396063D02*
X402756D01*
X396063Y204724D02*
X402756D01*
Y210630D01*
X392858Y204354D02*
X394488Y208268D01*
Y210630D01*
X385827Y204724D02*
X392126D01*
X385827D02*
Y210630D01*
X373228Y194882D02*
Y196850D01*
X372047Y209449D02*
X374410D01*
X373228Y208268D02*
Y210630D01*
X368504Y190945D02*
Y214567D01*
X326378D02*
X328740D01*
X333465D02*
X341339D01*
X346063D02*
X350000D01*
X354724D02*
X358661D01*
X363386D02*
X365748D01*
X363386Y190945D02*
X365748D01*
X354724D02*
X358661D01*
X346063D02*
X350000D01*
X333465D02*
X341339D01*
X326378D02*
X328740D01*
X365748D02*
Y214567D01*
X343701Y194882D02*
Y200787D01*
X350000D01*
X352362Y194882D02*
Y197244D01*
X350731Y201158D02*
X352362Y197244D01*
X360630Y194882D02*
Y200787D01*
X353937D02*
X360630D01*
X353937Y204724D02*
X360630D01*
Y210630D01*
X350731Y204354D02*
X352362Y208268D01*
Y210630D01*
X343701Y204724D02*
X350000D01*
X343701D02*
Y210630D01*
X331102Y194882D02*
Y196850D01*
X329921Y209449D02*
X332283D01*
X331102Y208268D02*
Y210630D01*
X326378Y190945D02*
Y214567D01*
X284252D02*
X286614D01*
X291339D02*
X299213D01*
X303937D02*
X307874D01*
X312598D02*
X316535D01*
X321260D02*
X323622D01*
X321260Y190945D02*
X323622D01*
X312598D02*
X316535D01*
X303937D02*
X307874D01*
X291339D02*
X299213D01*
X284252D02*
X286614D01*
X323622D02*
Y214567D01*
X301575Y194882D02*
Y200787D01*
X307874D01*
X310236Y194882D02*
Y197244D01*
X308606Y201158D02*
X310236Y197244D01*
X318504Y194882D02*
Y200787D01*
X311811D02*
X318504D01*
X311811Y204724D02*
X318504D01*
Y210630D01*
X308606Y204354D02*
X310236Y208268D01*
Y210630D01*
X301575Y204724D02*
X307874D01*
X301575D02*
Y210630D01*
X288976Y194882D02*
Y196850D01*
X287795Y209449D02*
X290158D01*
X288976Y208268D02*
Y210630D01*
X284252Y190945D02*
Y214567D01*
X242126D02*
X244488D01*
X249213D02*
X257087D01*
X261811D02*
X265748D01*
X270472D02*
X274409D01*
X279134D02*
X281496D01*
X279134Y190945D02*
X281496D01*
X270472D02*
X274409D01*
X261811D02*
X265748D01*
X249213D02*
X257087D01*
X242126D02*
X244488D01*
X281496D02*
Y214567D01*
X259449Y194882D02*
Y200787D01*
X265748D01*
X268110Y194882D02*
Y197244D01*
X266479Y201158D02*
X268110Y197244D01*
X276378Y194882D02*
Y200787D01*
X269685D02*
X276378D01*
X269685Y204724D02*
X276378D01*
Y210630D01*
X266479Y204354D02*
X268110Y208268D01*
Y210630D01*
X259449Y204724D02*
X265748D01*
X259449D02*
Y210630D01*
X246850Y194882D02*
Y196850D01*
X245669Y209449D02*
X248031D01*
X246850Y208268D02*
Y210630D01*
X242126Y190945D02*
Y214567D01*
X200000D02*
X202362D01*
X207087D02*
X214961D01*
X219685D02*
X223622D01*
X228346D02*
X232283D01*
X237008D02*
X239370D01*
X237008Y190945D02*
X239370D01*
X228346D02*
X232283D01*
X219685D02*
X223622D01*
X207087D02*
X214961D01*
X200000D02*
X202362D01*
X239370D02*
Y214567D01*
X217323Y194882D02*
Y200787D01*
X223622D01*
X225984Y194882D02*
Y197244D01*
X224354Y201158D02*
X225984Y197244D01*
X234252Y194882D02*
Y200787D01*
X227559D02*
X234252D01*
X227559Y204724D02*
X234252D01*
Y210630D01*
X224354Y204354D02*
X225984Y208268D01*
Y210630D01*
X217323Y204724D02*
X223622D01*
X217323D02*
Y210630D01*
X204724Y194882D02*
Y196850D01*
X203543Y209449D02*
X205906D01*
X204724Y208268D02*
Y210630D01*
X200000Y190945D02*
Y214567D01*
X157874Y214567D02*
X160236D01*
X164961D02*
X172835D01*
X177559D02*
X181496D01*
X186221D02*
X190157D01*
X194882D02*
X197244D01*
X194882Y190945D02*
X197244D01*
X186221D02*
X190157D01*
X177559D02*
X181496D01*
X164961D02*
X172835D01*
X157874D02*
X160236D01*
X197244D02*
Y214567D01*
X175197Y194882D02*
Y200787D01*
X181496D01*
X183858Y194882D02*
Y197244D01*
X182228Y201158D02*
X183858Y197244D01*
X192126Y194882D02*
Y200787D01*
X185433D02*
X192126D01*
X185433Y204724D02*
X192126D01*
Y210630D01*
X182228Y204354D02*
X183858Y208268D01*
Y210630D01*
X175197Y204724D02*
X181496D01*
X175197D02*
Y210630D01*
X162598Y194882D02*
Y196850D01*
X161417Y209449D02*
X163779D01*
X162598Y208268D02*
Y210630D01*
X157874Y190945D02*
Y214567D01*
X115748Y214567D02*
X118110D01*
X122835D02*
X130709D01*
X135433D02*
X139370D01*
X144095D02*
X148031D01*
X152756D02*
X155118D01*
X152756Y190945D02*
X155118D01*
X144095D02*
X148031D01*
X135433D02*
X139370D01*
X122835D02*
X130709D01*
X115748D02*
X118110D01*
X155118D02*
Y214567D01*
X133071Y194882D02*
Y200787D01*
X139370D01*
X141732Y194882D02*
Y197244D01*
X140102Y201158D02*
X141732Y197244D01*
X150000Y194882D02*
Y200787D01*
X143307D02*
X150000D01*
X143307Y204724D02*
X150000D01*
Y210630D01*
X140102Y204354D02*
X141732Y208268D01*
Y210630D01*
X133071Y204724D02*
X139370D01*
X133071D02*
Y210630D01*
X120472Y194882D02*
Y196850D01*
X119291Y209449D02*
X121653D01*
X120472Y208268D02*
Y210630D01*
X115748Y190945D02*
Y214567D01*
X410630Y162598D02*
X412992D01*
X417717D02*
X425591D01*
X430315D02*
X434252D01*
X438976D02*
X442913D01*
X447638D02*
X450000D01*
X447638Y138976D02*
X450000D01*
X438976D02*
X442913D01*
X430315D02*
X434252D01*
X417717D02*
X425591D01*
X410630D02*
X412992D01*
X450000D02*
Y162598D01*
X427953Y142913D02*
Y148819D01*
X434252D01*
X436614Y142913D02*
Y145276D01*
X434983Y149189D02*
X436614Y145276D01*
X444882Y142913D02*
Y148819D01*
X438189D02*
X444882D01*
X438189Y152756D02*
X444882D01*
Y158661D01*
X434983Y152385D02*
X436614Y156299D01*
Y158661D01*
X427953Y152756D02*
X434252D01*
X427953D02*
Y158661D01*
X415354Y142913D02*
Y144882D01*
X414173Y157480D02*
X416535D01*
X415354Y156299D02*
Y158661D01*
X410630Y138976D02*
Y162598D01*
X368504D02*
X370866D01*
X375590D02*
X383465D01*
X388189D02*
X392126D01*
X396850D02*
X400787D01*
X405512D02*
X407874D01*
X405512Y138976D02*
X407874D01*
X396850D02*
X400787D01*
X388189D02*
X392126D01*
X375590D02*
X383465D01*
X368504D02*
X370866D01*
X407874D02*
Y162598D01*
X385827Y142913D02*
Y148819D01*
X392126D01*
X394488Y142913D02*
Y145276D01*
X392858Y149189D02*
X394488Y145276D01*
X402756Y142913D02*
Y148819D01*
X396063D02*
X402756D01*
X396063Y152756D02*
X402756D01*
Y158661D01*
X392858Y152385D02*
X394488Y156299D01*
Y158661D01*
X385827Y152756D02*
X392126D01*
X385827D02*
Y158661D01*
X373228Y142913D02*
Y144882D01*
X372047Y157480D02*
X374410D01*
X373228Y156299D02*
Y158661D01*
X368504Y138976D02*
Y162598D01*
X326378D02*
X328740D01*
X333465D02*
X341339D01*
X346063D02*
X350000D01*
X354724D02*
X358661D01*
X363386D02*
X365748D01*
X363386Y138976D02*
X365748D01*
X354724D02*
X358661D01*
X346063D02*
X350000D01*
X333465D02*
X341339D01*
X326378D02*
X328740D01*
X365748D02*
Y162598D01*
X343701Y142913D02*
Y148819D01*
X350000D01*
X352362Y142913D02*
Y145276D01*
X350731Y149189D02*
X352362Y145276D01*
X360630Y142913D02*
Y148819D01*
X353937D02*
X360630D01*
X353937Y152756D02*
X360630D01*
Y158661D01*
X350731Y152385D02*
X352362Y156299D01*
Y158661D01*
X343701Y152756D02*
X350000D01*
X343701D02*
Y158661D01*
X331102Y142913D02*
Y144882D01*
X329921Y157480D02*
X332283D01*
X331102Y156299D02*
Y158661D01*
X326378Y138976D02*
Y162598D01*
X284252D02*
X286614D01*
X291339D02*
X299213D01*
X303937D02*
X307874D01*
X312598D02*
X316535D01*
X321260D02*
X323622D01*
X321260Y138976D02*
X323622D01*
X312598D02*
X316535D01*
X303937D02*
X307874D01*
X291339D02*
X299213D01*
X284252D02*
X286614D01*
X323622D02*
Y162598D01*
X301575Y142913D02*
Y148819D01*
X307874D01*
X310236Y142913D02*
Y145276D01*
X308606Y149189D02*
X310236Y145276D01*
X318504Y142913D02*
Y148819D01*
X311811D02*
X318504D01*
X311811Y152756D02*
X318504D01*
Y158661D01*
X308606Y152385D02*
X310236Y156299D01*
Y158661D01*
X301575Y152756D02*
X307874D01*
X301575D02*
Y158661D01*
X288976Y142913D02*
Y144882D01*
X287795Y157480D02*
X290158D01*
X288976Y156299D02*
Y158661D01*
X284252Y138976D02*
Y162598D01*
X242126D02*
X244488D01*
X249213D02*
X257087D01*
X261811D02*
X265748D01*
X270472D02*
X274409D01*
X279134D02*
X281496D01*
X279134Y138976D02*
X281496D01*
X270472D02*
X274409D01*
X261811D02*
X265748D01*
X249213D02*
X257087D01*
X242126D02*
X244488D01*
X281496D02*
Y162598D01*
X259449Y142913D02*
Y148819D01*
X265748D01*
X268110Y142913D02*
Y145276D01*
X266479Y149189D02*
X268110Y145276D01*
X276378Y142913D02*
Y148819D01*
X269685D02*
X276378D01*
X269685Y152756D02*
X276378D01*
Y158661D01*
X266479Y152385D02*
X268110Y156299D01*
Y158661D01*
X259449Y152756D02*
X265748D01*
X259449D02*
Y158661D01*
X246850Y142913D02*
Y144882D01*
X245669Y157480D02*
X248031D01*
X246850Y156299D02*
Y158661D01*
X242126Y138976D02*
Y162598D01*
X200000D02*
X202362D01*
X207087D02*
X214961D01*
X219685D02*
X223622D01*
X228346D02*
X232283D01*
X237008D02*
X239370D01*
X237008Y138976D02*
X239370D01*
X228346D02*
X232283D01*
X219685D02*
X223622D01*
X207087D02*
X214961D01*
X200000D02*
X202362D01*
X239370D02*
Y162598D01*
X217323Y142913D02*
Y148819D01*
X223622D01*
X225984Y142913D02*
Y145276D01*
X224354Y149189D02*
X225984Y145276D01*
X234252Y142913D02*
Y148819D01*
X227559D02*
X234252D01*
X227559Y152756D02*
X234252D01*
Y158661D01*
X224354Y152385D02*
X225984Y156299D01*
Y158661D01*
X217323Y152756D02*
X223622D01*
X217323D02*
Y158661D01*
X204724Y142913D02*
Y144882D01*
X203543Y157480D02*
X205906D01*
X204724Y156299D02*
Y158661D01*
X200000Y138976D02*
Y162598D01*
X157874Y162598D02*
X160236D01*
X164961D02*
X172835D01*
X177559D02*
X181496D01*
X186221D02*
X190157D01*
X194882D02*
X197244D01*
X194882Y138976D02*
X197244D01*
X186221D02*
X190157D01*
X177559D02*
X181496D01*
X164961D02*
X172835D01*
X157874D02*
X160236D01*
X197244D02*
Y162598D01*
X175197Y142913D02*
Y148819D01*
X181496D01*
X183858Y142913D02*
Y145276D01*
X182228Y149189D02*
X183858Y145276D01*
X192126Y142913D02*
Y148819D01*
X185433D02*
X192126D01*
X185433Y152756D02*
X192126D01*
Y158661D01*
X182228Y152385D02*
X183858Y156299D01*
Y158661D01*
X175197Y152756D02*
X181496D01*
X175197D02*
Y158661D01*
X162598Y142913D02*
Y144882D01*
X161417Y157480D02*
X163779D01*
X162598Y156299D02*
Y158661D01*
X157874Y138976D02*
Y162598D01*
X115748Y162598D02*
X118110D01*
X122835D02*
X130709D01*
X135433D02*
X139370D01*
X144095D02*
X148031D01*
X152756D02*
X155118D01*
X152756Y138976D02*
X155118D01*
X144095D02*
X148031D01*
X135433D02*
X139370D01*
X122835D02*
X130709D01*
X115748D02*
X118110D01*
X155118D02*
Y162598D01*
X133071Y142913D02*
Y148819D01*
X139370D01*
X141732Y142913D02*
Y145276D01*
X140102Y149189D02*
X141732Y145276D01*
X150000Y142913D02*
Y148819D01*
X143307D02*
X150000D01*
X143307Y152756D02*
X150000D01*
Y158661D01*
X140102Y152385D02*
X141732Y156299D01*
Y158661D01*
X133071Y152756D02*
X139370D01*
X133071D02*
Y158661D01*
X120472Y142913D02*
Y144882D01*
X119291Y157480D02*
X121653D01*
X120472Y156299D02*
Y158661D01*
X115748Y138976D02*
Y162598D01*
X410630Y110630D02*
X412992D01*
X417717D02*
X425591D01*
X430315D02*
X434252D01*
X438976D02*
X442913D01*
X447638D02*
X450000D01*
X447638Y87008D02*
X450000D01*
X438976D02*
X442913D01*
X430315D02*
X434252D01*
X417717D02*
X425591D01*
X410630D02*
X412992D01*
X450000D02*
Y110630D01*
X427953Y90945D02*
Y96850D01*
X434252D01*
X436614Y90945D02*
Y93307D01*
X434983Y97221D02*
X436614Y93307D01*
X444882Y90945D02*
Y96850D01*
X438189D02*
X444882D01*
X438189Y100787D02*
X444882D01*
Y106693D01*
X434983Y100417D02*
X436614Y104331D01*
Y106693D01*
X427953Y100787D02*
X434252D01*
X427953D02*
Y106693D01*
X415354Y90945D02*
Y92913D01*
X414173Y105512D02*
X416535D01*
X415354Y104331D02*
Y106693D01*
X410630Y87008D02*
Y110630D01*
X368504D02*
X370866D01*
X375590D02*
X383465D01*
X388189D02*
X392126D01*
X396850D02*
X400787D01*
X405512D02*
X407874D01*
X405512Y87008D02*
X407874D01*
X396850D02*
X400787D01*
X388189D02*
X392126D01*
X375590D02*
X383465D01*
X368504D02*
X370866D01*
X407874D02*
Y110630D01*
X385827Y90945D02*
Y96850D01*
X392126D01*
X394488Y90945D02*
Y93307D01*
X392858Y97221D02*
X394488Y93307D01*
X402756Y90945D02*
Y96850D01*
X396063D02*
X402756D01*
X396063Y100787D02*
X402756D01*
Y106693D01*
X392858Y100417D02*
X394488Y104331D01*
Y106693D01*
X385827Y100787D02*
X392126D01*
X385827D02*
Y106693D01*
X373228Y90945D02*
Y92913D01*
X372047Y105512D02*
X374410D01*
X373228Y104331D02*
Y106693D01*
X368504Y87008D02*
Y110630D01*
X326378D02*
X328740D01*
X333465D02*
X341339D01*
X346063D02*
X350000D01*
X354724D02*
X358661D01*
X363386D02*
X365748D01*
X363386Y87008D02*
X365748D01*
X354724D02*
X358661D01*
X346063D02*
X350000D01*
X333465D02*
X341339D01*
X326378D02*
X328740D01*
X365748D02*
Y110630D01*
X343701Y90945D02*
Y96850D01*
X350000D01*
X352362Y90945D02*
Y93307D01*
X350731Y97221D02*
X352362Y93307D01*
X360630Y90945D02*
Y96850D01*
X353937D02*
X360630D01*
X353937Y100787D02*
X360630D01*
Y106693D01*
X350731Y100417D02*
X352362Y104331D01*
Y106693D01*
X343701Y100787D02*
X350000D01*
X343701D02*
Y106693D01*
X331102Y90945D02*
Y92913D01*
X329921Y105512D02*
X332283D01*
X331102Y104331D02*
Y106693D01*
X326378Y87008D02*
Y110630D01*
X284252D02*
X286614D01*
X291339D02*
X299213D01*
X303937D02*
X307874D01*
X312598D02*
X316535D01*
X321260D02*
X323622D01*
X321260Y87008D02*
X323622D01*
X312598D02*
X316535D01*
X303937D02*
X307874D01*
X291339D02*
X299213D01*
X284252D02*
X286614D01*
X323622D02*
Y110630D01*
X301575Y90945D02*
Y96850D01*
X307874D01*
X310236Y90945D02*
Y93307D01*
X308606Y97221D02*
X310236Y93307D01*
X318504Y90945D02*
Y96850D01*
X311811D02*
X318504D01*
X311811Y100787D02*
X318504D01*
Y106693D01*
X308606Y100417D02*
X310236Y104331D01*
Y106693D01*
X301575Y100787D02*
X307874D01*
X301575D02*
Y106693D01*
X288976Y90945D02*
Y92913D01*
X287795Y105512D02*
X290158D01*
X288976Y104331D02*
Y106693D01*
X284252Y87008D02*
Y110630D01*
X242126D02*
X244488D01*
X249213D02*
X257087D01*
X261811D02*
X265748D01*
X270472D02*
X274409D01*
X279134D02*
X281496D01*
X279134Y87008D02*
X281496D01*
X270472D02*
X274409D01*
X261811D02*
X265748D01*
X249213D02*
X257087D01*
X242126D02*
X244488D01*
X281496D02*
Y110630D01*
X259449Y90945D02*
Y96850D01*
X265748D01*
X268110Y90945D02*
Y93307D01*
X266479Y97221D02*
X268110Y93307D01*
X276378Y90945D02*
Y96850D01*
X269685D02*
X276378D01*
X269685Y100787D02*
X276378D01*
Y106693D01*
X266479Y100417D02*
X268110Y104331D01*
Y106693D01*
X259449Y100787D02*
X265748D01*
X259449D02*
Y106693D01*
X246850Y90945D02*
Y92913D01*
X245669Y105512D02*
X248031D01*
X246850Y104331D02*
Y106693D01*
X242126Y87008D02*
Y110630D01*
X200000D02*
X202362D01*
X207087D02*
X214961D01*
X219685D02*
X223622D01*
X228346D02*
X232283D01*
X237008D02*
X239370D01*
X237008Y87008D02*
X239370D01*
X228346D02*
X232283D01*
X219685D02*
X223622D01*
X207087D02*
X214961D01*
X200000D02*
X202362D01*
X239370D02*
Y110630D01*
X217323Y90945D02*
Y96850D01*
X223622D01*
X225984Y90945D02*
Y93307D01*
X224354Y97221D02*
X225984Y93307D01*
X234252Y90945D02*
Y96850D01*
X227559D02*
X234252D01*
X227559Y100787D02*
X234252D01*
Y106693D01*
X224354Y100417D02*
X225984Y104331D01*
Y106693D01*
X217323Y100787D02*
X223622D01*
X217323D02*
Y106693D01*
X204724Y90945D02*
Y92913D01*
X203543Y105512D02*
X205906D01*
X204724Y104331D02*
Y106693D01*
X200000Y87008D02*
Y110630D01*
X157874Y110630D02*
X160236D01*
X164961D02*
X172835D01*
X177559D02*
X181496D01*
X186221D02*
X190157D01*
X194882D02*
X197244D01*
X194882Y87008D02*
X197244D01*
X186221D02*
X190157D01*
X177559D02*
X181496D01*
X164961D02*
X172835D01*
X157874D02*
X160236D01*
X197244D02*
Y110630D01*
X175197Y90945D02*
Y96850D01*
X181496D01*
X183858Y90945D02*
Y93307D01*
X182228Y97221D02*
X183858Y93307D01*
X192126Y90945D02*
Y96850D01*
X185433D02*
X192126D01*
X185433Y100787D02*
X192126D01*
Y106693D01*
X182228Y100417D02*
X183858Y104331D01*
Y106693D01*
X175197Y100787D02*
X181496D01*
X175197D02*
Y106693D01*
X162598Y90945D02*
Y92913D01*
X161417Y105512D02*
X163779D01*
X162598Y104331D02*
Y106693D01*
X157874Y87008D02*
Y110630D01*
X115748Y110630D02*
X118110D01*
X122835D02*
X130709D01*
X135433D02*
X139370D01*
X144095D02*
X148031D01*
X152756D02*
X155118D01*
X152756Y87008D02*
X155118D01*
X144095D02*
X148031D01*
X135433D02*
X139370D01*
X122835D02*
X130709D01*
X115748D02*
X118110D01*
X155118D02*
Y110630D01*
X133071Y90945D02*
Y96850D01*
X139370D01*
X141732Y90945D02*
Y93307D01*
X140102Y97221D02*
X141732Y93307D01*
X150000Y90945D02*
Y96850D01*
X143307D02*
X150000D01*
X143307Y100787D02*
X150000D01*
Y106693D01*
X140102Y100417D02*
X141732Y104331D01*
Y106693D01*
X133071Y100787D02*
X139370D01*
X133071D02*
Y106693D01*
X120472Y90945D02*
Y92913D01*
X119291Y105512D02*
X121653D01*
X120472Y104331D02*
Y106693D01*
X115748Y87008D02*
Y110630D01*
Y58661D02*
X118110D01*
X122835D02*
X130709D01*
X135433D02*
X139370D01*
X144095D02*
X148031D01*
X152756D02*
X155118D01*
X152756Y35039D02*
X155118D01*
X144095Y35039D02*
X148031D01*
X135433Y35039D02*
X139370Y35039D01*
X122835Y35039D02*
X130709Y35039D01*
X115748Y35039D02*
X118110Y35039D01*
X155118Y35039D02*
Y58661D01*
X133071Y38976D02*
Y44882D01*
X139370D01*
X141732Y38976D02*
Y41339D01*
X140102Y45252D02*
X141732Y41339D01*
X150000Y38976D02*
X150000Y44882D01*
X143307D02*
X150000D01*
X143307Y48819D02*
X150000Y48819D01*
Y54724D01*
X140102Y48449D02*
X141732Y52362D01*
Y54724D01*
X133071Y48819D02*
X139370Y48819D01*
X133071Y48819D02*
X133071Y54724D01*
X120472Y38976D02*
Y40945D01*
X119291Y53543D02*
X121653D01*
X120472Y52362D02*
X120472Y54724D01*
X115748Y35039D02*
Y58661D01*
X157874Y58661D02*
X160236D01*
X164961D02*
X172835D01*
X177559Y58661D02*
X181496D01*
X186221D02*
X190157Y58661D01*
X194882D02*
X197244D01*
X194882Y35039D02*
X197244Y35039D01*
X186221D02*
X190157D01*
X177559D02*
X181496D01*
X164961D02*
X172835Y35039D01*
X157874Y35039D02*
X160236D01*
X197244D02*
Y58661D01*
X175197Y38976D02*
Y44882D01*
X181496D01*
X183858Y38976D02*
Y41339D01*
X182228Y45252D02*
X183858Y41339D01*
X192126Y38976D02*
X192126Y44882D01*
X185433D02*
X192126D01*
X185433Y48819D02*
X192126D01*
X192126Y54724D02*
X192126Y48819D01*
X182228Y48449D02*
X183858Y52362D01*
X183858Y54724D01*
X175197Y48819D02*
X181496D01*
X175197Y54724D02*
X175197Y48819D01*
X162599Y38976D02*
Y40945D01*
X161417Y53543D02*
X163779D01*
X162598Y52362D02*
X162599Y54724D01*
X157874Y35039D02*
Y58661D01*
X242126Y58661D02*
X244488Y58661D01*
X249213Y58661D02*
X257087D01*
X261811Y58661D02*
X265748D01*
X270473D02*
X274410Y58661D01*
X279134Y58661D02*
X281496D01*
X279134Y35039D02*
X281496Y35039D01*
X270473D02*
X274410D01*
X261811D02*
X265748Y35039D01*
X249213Y35039D02*
X257087D01*
X242126D02*
X244488Y35039D01*
X281496Y35039D02*
Y58661D01*
X259449Y44882D02*
X259449Y38976D01*
X259449Y44882D02*
X265748D01*
X268110Y38976D02*
Y41339D01*
X266479Y45252D02*
X268110Y41339D01*
X276378Y44882D02*
X276378Y38976D01*
X269685Y44882D02*
X276378D01*
X269685Y48819D02*
X276378D01*
Y54724D01*
X266479Y48449D02*
X268110Y52362D01*
Y54724D01*
X259449Y48819D02*
X265748D01*
X259449D02*
X259449Y54724D01*
X246850Y38976D02*
Y40945D01*
X245669Y53543D02*
X248031Y53543D01*
X246850Y54724D02*
X246850Y52362D01*
X242126Y58661D02*
X242126Y35039D01*
X200000Y58661D02*
X202362D01*
X207087D02*
X214961D01*
X219685Y58661D02*
X223622D01*
X228346D02*
X232283Y58661D01*
X237008D02*
X239370D01*
X237008Y35039D02*
X239370D01*
X228346Y35039D02*
X232283Y35039D01*
X219685Y35039D02*
X223622Y35039D01*
X207087Y35039D02*
X214961D01*
X200000D02*
X202362Y35039D01*
X239370Y58661D02*
X239370Y35039D01*
X217323Y38976D02*
Y44882D01*
X223622D01*
X225984Y38976D02*
Y41339D01*
X224354Y45252D02*
X225984Y41339D01*
X234252Y38976D02*
X234252Y44882D01*
X227559D02*
X234252D01*
X227559Y48819D02*
X234252Y48819D01*
Y54724D01*
X224354Y48449D02*
X225984Y52362D01*
X225984Y54724D02*
X225984Y52362D01*
X217323Y48819D02*
X223622Y48819D01*
X217323Y48819D02*
Y54724D01*
X204725Y38976D02*
Y40945D01*
X203543Y53543D02*
X205906D01*
X204724Y52362D02*
X204725Y54724D01*
X200000Y35039D02*
Y58661D01*
X284252D02*
X286614D01*
X291339D02*
X299213D01*
X303937Y58661D02*
X307874D01*
X312598D02*
X316535Y58661D01*
X321260D02*
X323622D01*
X321260Y35039D02*
X323622Y35039D01*
X312598Y35039D02*
X316535Y35039D01*
X303937Y35039D02*
X307874Y35039D01*
X291339Y35039D02*
X299213D01*
X284252D02*
X286614Y35039D01*
X323622Y35039D02*
Y58661D01*
X301575Y38976D02*
Y44882D01*
X307874D01*
X310236Y38976D02*
Y41339D01*
X308606Y45252D02*
X310236Y41339D01*
X318504Y38976D02*
X318504Y44882D01*
X311811D02*
X318504D01*
X311811Y48819D02*
X318504Y48819D01*
X318504Y54724D01*
X308606Y48449D02*
X310236Y52362D01*
X310236Y54724D02*
X310236Y52362D01*
X301575Y48819D02*
X307874Y48819D01*
X301575Y48819D02*
X301575Y54724D01*
X288976Y38976D02*
Y40945D01*
X287795Y53543D02*
X290158D01*
X288976Y52362D02*
Y54724D01*
X284252Y35039D02*
Y58661D01*
X326378D02*
X328740D01*
X333465D02*
X341339D01*
X346063Y58661D02*
X350000Y58661D01*
X354724Y58661D02*
X358661Y58661D01*
X363386D02*
X365748D01*
X363386Y35039D02*
X365748Y35039D01*
X354724Y35039D02*
X358661Y35039D01*
X346063Y35039D02*
X350000Y35039D01*
X333465Y35039D02*
X341339D01*
X326378D02*
X328740D01*
X365748Y35039D02*
Y58661D01*
X343701Y44882D02*
X343701Y38976D01*
X343701Y44882D02*
X350000Y44882D01*
X352362Y38976D02*
Y41339D01*
X350731Y45252D02*
X352362Y41339D01*
X360630Y38976D02*
Y44882D01*
X353937Y44882D02*
X360630Y44882D01*
X353937Y48819D02*
X360630Y48819D01*
X360630Y54724D01*
X350731Y48449D02*
X352362Y52362D01*
Y54724D01*
X343701Y48819D02*
X350000Y48819D01*
X343701Y48819D02*
X343701Y54724D01*
X331102Y38976D02*
Y40945D01*
X329921Y53543D02*
X332283D01*
X331102Y52362D02*
Y54724D01*
X326378Y35039D02*
Y58661D01*
X368504Y58661D02*
X370866Y58661D01*
X375590Y58661D02*
X383465Y58661D01*
X388189Y58661D02*
X392126Y58661D01*
X396850D02*
X400787Y58661D01*
X405512D02*
X407874Y58661D01*
X405512Y35039D02*
X407874D01*
X396850Y35039D02*
X400787D01*
X388189D02*
X392126D01*
X375590Y35039D02*
X383465Y35039D01*
X368504Y35039D02*
X370866Y35039D01*
X407874Y35039D02*
Y58661D01*
X385827Y38976D02*
Y44882D01*
X392126D01*
X394488Y41339D02*
X394488Y38976D01*
X392858Y45252D02*
X394488Y41339D01*
X402756Y38976D02*
X402756Y44882D01*
X396063D02*
X402756D01*
X396063Y48819D02*
X402756D01*
Y54724D01*
X392858Y48449D02*
X394488Y52362D01*
X394488Y54724D02*
X394488Y52362D01*
X385827Y48819D02*
X392126D01*
X385827D02*
Y54724D01*
X373228Y38976D02*
Y40945D01*
X372047Y53543D02*
X374410D01*
X373228Y54724D02*
X373228Y52362D01*
X368504Y35039D02*
Y58661D01*
X410630Y58661D02*
X412992D01*
X417717D02*
X425591D01*
X430315D02*
X434252Y58661D01*
X438976D02*
X442913Y58661D01*
X447638D02*
X450000D01*
X447638Y35039D02*
X450000Y35039D01*
X438976Y35039D02*
X442913Y35039D01*
X430315Y35039D02*
X434252Y35039D01*
X417717D02*
X425591D01*
X410630D02*
X412992Y35039D01*
X450000Y35039D02*
Y58661D01*
X427953Y38976D02*
Y44882D01*
X434252D01*
X436614Y38976D02*
Y41339D01*
X434983Y45252D02*
X436614Y41339D01*
X444882Y38976D02*
X444882Y44882D01*
X438189D02*
X444882D01*
X438189Y48819D02*
X444882Y48819D01*
X444882Y54724D01*
X434983Y48449D02*
X436614Y52362D01*
Y54724D01*
X427953Y48819D02*
X434252Y48819D01*
X427953Y48819D02*
X427953Y54724D01*
X415354Y38976D02*
Y40945D01*
X414173Y53543D02*
X416535D01*
X415354Y54724D02*
X415354Y52362D01*
X410630Y35039D02*
Y58661D01*
M02*
