G04*
G04 #@! TF.GenerationSoftware,Altium Limited,Altium Designer,21.7.2 (23)*
G04*
G04 Layer_Color=8388736*
%FSLAX25Y25*%
%MOIN*%
G70*
G04*
G04 #@! TF.SameCoordinates,72A3C6AD-17B6-4F61-9830-52E5D45F99D0*
G04*
G04*
G04 #@! TF.FilePolarity,Negative*
G04*
G01*
G75*
%ADD21R,0.03000X0.01500*%
G04:AMPARAMS|DCode=23|XSize=26.38mil|YSize=27.95mil|CornerRadius=8.07mil|HoleSize=0mil|Usage=FLASHONLY|Rotation=90.000|XOffset=0mil|YOffset=0mil|HoleType=Round|Shape=RoundedRectangle|*
%AMROUNDEDRECTD23*
21,1,0.02638,0.01181,0,0,90.0*
21,1,0.01024,0.02795,0,0,90.0*
1,1,0.01614,0.00591,0.00512*
1,1,0.01614,0.00591,-0.00512*
1,1,0.01614,-0.00591,-0.00512*
1,1,0.01614,-0.00591,0.00512*
%
%ADD23ROUNDEDRECTD23*%
G04:AMPARAMS|DCode=24|XSize=26.38mil|YSize=27.95mil|CornerRadius=8.07mil|HoleSize=0mil|Usage=FLASHONLY|Rotation=0.000|XOffset=0mil|YOffset=0mil|HoleType=Round|Shape=RoundedRectangle|*
%AMROUNDEDRECTD24*
21,1,0.02638,0.01181,0,0,0.0*
21,1,0.01024,0.02795,0,0,0.0*
1,1,0.01614,0.00512,-0.00591*
1,1,0.01614,-0.00512,-0.00591*
1,1,0.01614,-0.00512,0.00591*
1,1,0.01614,0.00512,0.00591*
%
%ADD24ROUNDEDRECTD24*%
%ADD25R,0.02953X0.01772*%
%ADD26R,0.01772X0.02953*%
%ADD27R,0.10039X0.07284*%
%ADD28R,0.01772X0.03937*%
%ADD29R,0.03347X0.03937*%
%ADD30C,0.06496*%
%ADD31R,0.06496X0.06496*%
%ADD32C,0.04921*%
%ADD33R,0.04921X0.04921*%
%ADD34R,0.06496X0.06496*%
%ADD35C,0.02362*%
%ADD36C,0.26772*%
G36*
X349638Y121651D02*
X349684Y121647D01*
X349729Y121636D01*
X349772Y121618D01*
X349812Y121594D01*
X349847Y121564D01*
X349877Y121528D01*
X349902Y121489D01*
X349920Y121446D01*
X349930Y121401D01*
X349934Y121354D01*
Y116854D01*
X349930Y116808D01*
X349920Y116763D01*
X349912Y116745D01*
X349902Y116720D01*
X349877Y116680D01*
X349847Y116645D01*
X349812Y116615D01*
X349772Y116590D01*
X349747Y116580D01*
X349729Y116573D01*
X349684Y116562D01*
X349638Y116558D01*
X349591Y116562D01*
X349546Y116573D01*
X349525Y116581D01*
X349503Y116590D01*
X349464Y116615D01*
X349428Y116645D01*
X347638Y118435D01*
X345847Y116645D01*
X345812Y116615D01*
X345772Y116590D01*
X345760Y116585D01*
X345729Y116573D01*
X345684Y116562D01*
X345638Y116558D01*
X345591Y116562D01*
X345546Y116573D01*
X345516Y116585D01*
X345503Y116590D01*
X345464Y116615D01*
X345428Y116645D01*
X345398Y116680D01*
X345374Y116720D01*
X345369Y116732D01*
X345356Y116763D01*
X345345Y116808D01*
X345342Y116854D01*
Y121354D01*
X345345Y121401D01*
X345356Y121446D01*
X345374Y121489D01*
X345398Y121528D01*
X345428Y121564D01*
X345464Y121594D01*
X345503Y121618D01*
X345546Y121636D01*
X345591Y121647D01*
X345638Y121651D01*
X349638Y121651D01*
D02*
G37*
G36*
X347684Y118147D02*
X347729Y118136D01*
X347772Y118118D01*
X347812Y118094D01*
X347847Y118064D01*
X349847Y116064D01*
X349877Y116028D01*
X349902Y115989D01*
X349907Y115976D01*
X349920Y115946D01*
X349930Y115901D01*
X349934Y115854D01*
Y113854D01*
X349930Y113808D01*
X349920Y113763D01*
X349902Y113720D01*
X349877Y113680D01*
X349847Y113645D01*
X349812Y113615D01*
X349772Y113590D01*
X349729Y113573D01*
X349684Y113562D01*
X349638Y113558D01*
X345638Y113558D01*
X345591Y113562D01*
X345546Y113573D01*
X345503Y113590D01*
X345464Y113615D01*
X345428Y113645D01*
X345398Y113680D01*
X345374Y113720D01*
X345356Y113763D01*
X345345Y113808D01*
X345342Y113854D01*
X345342Y115854D01*
X345345Y115901D01*
X345356Y115946D01*
X345369Y115976D01*
X345374Y115989D01*
X345398Y116028D01*
X345428Y116064D01*
X347428Y118064D01*
X347464Y118094D01*
X347503Y118118D01*
X347546Y118136D01*
X347591Y118147D01*
X347638Y118150D01*
X347684Y118147D01*
D02*
G37*
G36*
X405590Y121753D02*
X405635Y121742D01*
X405678Y121724D01*
X405717Y121700D01*
X405753Y121670D01*
X405783Y121635D01*
X405807Y121595D01*
X405825Y121552D01*
X405836Y121507D01*
X405839Y121461D01*
Y116961D01*
X405836Y116914D01*
X405825Y116869D01*
X405807Y116826D01*
X405783Y116787D01*
X405753Y116751D01*
X405717Y116721D01*
X405678Y116697D01*
X405635Y116679D01*
X405590Y116668D01*
X405543Y116664D01*
X405497Y116668D01*
X405452Y116679D01*
X405409Y116697D01*
X405369Y116721D01*
X405334Y116751D01*
X403543Y118542D01*
X401753Y116751D01*
X401717Y116721D01*
X401678Y116697D01*
X401665Y116692D01*
X401635Y116679D01*
X401590Y116668D01*
X401543Y116664D01*
X401497Y116668D01*
X401452Y116679D01*
X401421Y116692D01*
X401409Y116697D01*
X401369Y116721D01*
X401334Y116751D01*
X401304Y116787D01*
X401279Y116826D01*
X401274Y116839D01*
X401262Y116869D01*
X401251Y116914D01*
X401247Y116961D01*
Y121461D01*
X401251Y121507D01*
X401262Y121552D01*
X401279Y121595D01*
X401304Y121635D01*
X401334Y121670D01*
X401369Y121700D01*
X401409Y121724D01*
X401452Y121742D01*
X401497Y121753D01*
X401543Y121757D01*
X405543D01*
X405590Y121753D01*
D02*
G37*
G36*
X403590Y118253D02*
X403635Y118242D01*
X403678Y118225D01*
X403717Y118200D01*
X403753Y118170D01*
X405753Y116170D01*
X405783Y116135D01*
X405807Y116095D01*
X405812Y116083D01*
X405825Y116052D01*
X405836Y116007D01*
X405839Y115961D01*
Y113961D01*
X405836Y113914D01*
X405825Y113869D01*
X405807Y113826D01*
X405783Y113786D01*
X405753Y113751D01*
X405717Y113721D01*
X405678Y113697D01*
X405635Y113679D01*
X405590Y113668D01*
X405543Y113664D01*
X401543D01*
X401497Y113668D01*
X401452Y113679D01*
X401409Y113697D01*
X401369Y113721D01*
X401334Y113751D01*
X401304Y113786D01*
X401279Y113826D01*
X401262Y113869D01*
X401251Y113914D01*
X401247Y113961D01*
Y115961D01*
X401251Y116007D01*
X401262Y116052D01*
X401274Y116083D01*
X401279Y116095D01*
X401304Y116135D01*
X401334Y116170D01*
X403334Y118170D01*
X403369Y118200D01*
X403409Y118225D01*
X403452Y118242D01*
X403497Y118253D01*
X403543Y118257D01*
X403590Y118253D01*
D02*
G37*
D21*
X347638Y120354D02*
D03*
Y114854D02*
D03*
X403543Y120461D02*
D03*
X403543Y114961D02*
D03*
D23*
X376378Y196221D02*
D03*
Y192756D02*
D03*
X383260Y176549D02*
D03*
Y173084D02*
D03*
X360478Y177280D02*
D03*
Y173816D02*
D03*
X372441Y192756D02*
D03*
X372441Y196221D02*
D03*
X393307Y157795D02*
D03*
X393307Y154331D02*
D03*
Y165905D02*
D03*
Y162441D02*
D03*
X370472Y158189D02*
D03*
X370472Y154724D02*
D03*
Y165905D02*
D03*
Y162441D02*
D03*
X347638Y123622D02*
D03*
Y127087D02*
D03*
X403543Y123728D02*
D03*
Y127193D02*
D03*
D24*
X361181Y203150D02*
D03*
X357716D02*
D03*
X361181Y200000D02*
D03*
X357716D02*
D03*
X379921Y170472D02*
D03*
X376457D02*
D03*
X386614D02*
D03*
X390079D02*
D03*
X357244D02*
D03*
X353780D02*
D03*
X363622D02*
D03*
X367087D02*
D03*
X386850Y146850D02*
D03*
X390315Y146850D02*
D03*
X386850Y150000D02*
D03*
X390315D02*
D03*
X364016Y150000D02*
D03*
X367480D02*
D03*
X364016Y146850D02*
D03*
X367480D02*
D03*
X380157Y146850D02*
D03*
X383622D02*
D03*
X380157Y150000D02*
D03*
X383622D02*
D03*
X357323Y146850D02*
D03*
X360787D02*
D03*
X357323Y150000D02*
D03*
X360787D02*
D03*
X463020Y156827D02*
D03*
X466484D02*
D03*
X463020Y168551D02*
D03*
X466484D02*
D03*
D25*
X366142Y203150D02*
D03*
Y205118D02*
D03*
Y207087D02*
D03*
Y209055D02*
D03*
Y211024D02*
D03*
Y212992D02*
D03*
Y214961D02*
D03*
X382677D02*
D03*
Y212992D02*
D03*
Y211024D02*
D03*
Y209055D02*
D03*
Y207087D02*
D03*
Y205118D02*
D03*
Y203150D02*
D03*
D26*
X368504Y217323D02*
D03*
X370472D02*
D03*
X372441D02*
D03*
X374410D02*
D03*
X376378D02*
D03*
X378346D02*
D03*
X380315D02*
D03*
Y200787D02*
D03*
X378346D02*
D03*
X376378D02*
D03*
X374410D02*
D03*
X372441D02*
D03*
X370472D02*
D03*
X368504D02*
D03*
D27*
X384252Y160236D02*
D03*
X361417D02*
D03*
D28*
X388189Y154528D02*
D03*
X386221D02*
D03*
X384252D02*
D03*
X382283D02*
D03*
X380315D02*
D03*
Y165945D02*
D03*
X382283D02*
D03*
X384252D02*
D03*
X386221D02*
D03*
X388189D02*
D03*
X365354Y154528D02*
D03*
X363386D02*
D03*
X361417D02*
D03*
X359449D02*
D03*
X357480D02*
D03*
Y165945D02*
D03*
X359449D02*
D03*
X361417D02*
D03*
X363386D02*
D03*
X365354D02*
D03*
D29*
X469984Y156827D02*
D03*
X474709D02*
D03*
X469984Y168551D02*
D03*
X474709D02*
D03*
D30*
X340945Y185984D02*
D03*
Y175984D02*
D03*
X385591Y121260D02*
D03*
X375590Y122047D02*
D03*
X374410Y230709D02*
D03*
X384409Y229528D02*
D03*
X404016Y143307D02*
D03*
X414016D02*
D03*
X424016D02*
D03*
X434016D02*
D03*
X325590Y175984D02*
D03*
Y185984D02*
D03*
X312126Y143307D02*
D03*
X322126D02*
D03*
X332126D02*
D03*
X472047Y136063D02*
D03*
Y180315D02*
D03*
X274252Y325827D02*
D03*
X284252D02*
D03*
X274252Y315827D02*
D03*
X284252D02*
D03*
X274252Y305827D02*
D03*
X284252D02*
D03*
X274252Y295827D02*
D03*
X284252D02*
D03*
X274252Y285827D02*
D03*
X284252D02*
D03*
X274252Y275827D02*
D03*
X284252D02*
D03*
X274252Y265827D02*
D03*
X284252D02*
D03*
X274252Y255827D02*
D03*
X284252D02*
D03*
X274252Y245827D02*
D03*
X284252D02*
D03*
X274252Y235827D02*
D03*
X284252D02*
D03*
X274252Y225827D02*
D03*
X284252D02*
D03*
X274252Y215827D02*
D03*
X284252D02*
D03*
X274252Y205827D02*
D03*
X284252D02*
D03*
X274252Y195827D02*
D03*
X284252D02*
D03*
X274252Y185827D02*
D03*
X284252D02*
D03*
X274252Y175827D02*
D03*
X284252D02*
D03*
X274252Y165827D02*
D03*
X284252D02*
D03*
X274252Y155827D02*
D03*
X284252D02*
D03*
X274252Y145827D02*
D03*
X284252D02*
D03*
X274252Y135827D02*
D03*
D31*
X340945Y165984D02*
D03*
X325590D02*
D03*
X472047Y146063D02*
D03*
Y190315D02*
D03*
X284252Y135827D02*
D03*
D32*
X436614Y123898D02*
D03*
X436614Y118898D02*
D03*
X431614Y123898D02*
D03*
Y118898D02*
D03*
X426614Y123898D02*
D03*
X426614Y118898D02*
D03*
X421614Y123898D02*
D03*
Y118898D02*
D03*
X416614Y123898D02*
D03*
X416614Y118898D02*
D03*
X411614Y123898D02*
D03*
X314567Y123898D02*
D03*
X319567Y118898D02*
D03*
X319567Y123898D02*
D03*
X324567Y118898D02*
D03*
Y123898D02*
D03*
X329567Y118898D02*
D03*
X329567Y123898D02*
D03*
X334567Y118898D02*
D03*
Y123898D02*
D03*
X339567Y118898D02*
D03*
Y123898D02*
D03*
D33*
X411614Y118898D02*
D03*
X314567Y118898D02*
D03*
D34*
X365591Y121260D02*
D03*
X364409Y229528D02*
D03*
X444016Y143307D02*
D03*
X342126D02*
D03*
D35*
X361811Y217323D02*
D03*
X405118Y136614D02*
D03*
X401968Y134252D02*
D03*
X397244Y135827D02*
D03*
X405512Y107087D02*
D03*
X408661Y137008D02*
D03*
X393307Y198425D02*
D03*
X416535Y110236D02*
D03*
X389370Y201575D02*
D03*
X397376Y209116D02*
D03*
X354724Y200394D02*
D03*
X389370Y212992D02*
D03*
X393307Y211024D02*
D03*
X376378Y214961D02*
D03*
X431496Y130315D02*
D03*
X372441Y212205D02*
D03*
X370472Y214173D02*
D03*
X365748Y217323D02*
D03*
X379134Y203937D02*
D03*
X376378Y205118D02*
D03*
X357087Y176772D02*
D03*
X354331Y205512D02*
D03*
X363386Y212992D02*
D03*
X357087Y172835D02*
D03*
X353858Y172756D02*
D03*
X363779Y172835D02*
D03*
X357874Y197638D02*
D03*
X334646Y112598D02*
D03*
Y129528D02*
D03*
X371260Y207087D02*
D03*
X368898Y205118D02*
D03*
X383148Y178663D02*
D03*
X382677Y200787D02*
D03*
X374410Y203150D02*
D03*
X370079Y192913D02*
D03*
X361024Y197638D02*
D03*
X370079Y196063D02*
D03*
X376378Y190551D02*
D03*
X374016Y170472D02*
D03*
X379921Y172835D02*
D03*
X386422Y173198D02*
D03*
X392404Y170474D02*
D03*
X360438Y179385D02*
D03*
X367323Y172835D02*
D03*
X411417Y130315D02*
D03*
Y110236D02*
D03*
X400394Y125197D02*
D03*
X377933Y165905D02*
D03*
X462992Y154724D02*
D03*
X477165Y168504D02*
D03*
Y156693D02*
D03*
X400394Y129921D02*
D03*
X377559Y150000D02*
D03*
X390773Y160093D02*
D03*
Y164268D02*
D03*
X390551Y154331D02*
D03*
X378346Y154724D02*
D03*
X367929Y164251D02*
D03*
X367961Y160237D02*
D03*
X367717Y154331D02*
D03*
X354724Y150000D02*
D03*
X355512Y154724D02*
D03*
D36*
X472047Y344882D02*
D03*
X279134D02*
D03*
Y116535D02*
D03*
X472047D02*
D03*
M02*
