G04*
G04 #@! TF.GenerationSoftware,Altium Limited,Altium Designer,20.0.9 (164)*
G04*
G04 Layer_Physical_Order=3*
G04 Layer_Color=16440176*
%FSLAX25Y25*%
%MOIN*%
G70*
G01*
G75*
%ADD12C,0.00787*%
%ADD63C,0.01575*%
%ADD66C,0.05906*%
%ADD67R,0.05906X0.05906*%
%ADD69C,0.03937*%
%ADD70C,0.02756*%
%ADD71C,0.01772*%
%ADD72C,0.01968*%
%ADD73C,0.02362*%
G36*
X172047Y219440D02*
X171547Y219234D01*
X171044Y219571D01*
X170276Y219724D01*
X169508Y219571D01*
X168856Y219136D01*
X168421Y218485D01*
X168269Y217717D01*
X168421Y216949D01*
X168856Y216297D01*
X169508Y215862D01*
X170276Y215709D01*
X171044Y215862D01*
X171547Y216199D01*
X172047Y215993D01*
Y125591D01*
X146457D01*
Y154724D01*
X158661D01*
Y178740D01*
X119291D01*
Y125591D01*
X95669D01*
Y155512D01*
X106693D01*
Y178740D01*
X66535D01*
Y255103D01*
X172047D01*
Y219440D01*
D02*
G37*
G36*
X201099Y253134D02*
X201086Y253129D01*
X199434Y252117D01*
X197961Y250858D01*
X196702Y249385D01*
X195690Y247732D01*
X194948Y245942D01*
X194496Y244058D01*
X194344Y242126D01*
X194496Y240194D01*
X194948Y238310D01*
X195690Y236520D01*
X196702Y234867D01*
X197961Y233394D01*
X199434Y232135D01*
X201086Y231123D01*
X202877Y230381D01*
X204761Y229929D01*
X206693Y229777D01*
X208625Y229929D01*
X210509Y230381D01*
X212299Y231123D01*
X213951Y232135D01*
X215425Y233394D01*
X216684Y234867D01*
X217696Y236520D01*
X217701Y236532D01*
X219670Y236140D01*
Y42513D01*
X183901Y42513D01*
X182014Y44482D01*
Y45863D01*
X178661D01*
X175309D01*
Y44482D01*
X175309Y42710D01*
X173422Y42513D01*
X172645D01*
X171590Y44372D01*
X171928Y45188D01*
X172043Y46063D01*
X171928Y46938D01*
X171590Y47754D01*
X171053Y48454D01*
X170352Y48992D01*
X169537Y49329D01*
X168661Y49445D01*
X167786Y49329D01*
X166971Y48992D01*
X166270Y48454D01*
X165733Y47754D01*
X165395Y46938D01*
X165280Y46063D01*
X165395Y45188D01*
X165733Y44372D01*
X164678Y42513D01*
X162645D01*
X161590Y44372D01*
X161928Y45188D01*
X162043Y46063D01*
X161928Y46938D01*
X161590Y47754D01*
X161053Y48454D01*
X160352Y48992D01*
X159537Y49329D01*
X158661Y49445D01*
X157786Y49329D01*
X156971Y48992D01*
X156270Y48454D01*
X155733Y47754D01*
X155395Y46938D01*
X155280Y46063D01*
X155395Y45188D01*
X155733Y44372D01*
X154678Y42513D01*
X154472D01*
X154331Y42542D01*
X154331Y42542D01*
X152667D01*
X151590Y44372D01*
X151928Y45188D01*
X152043Y46063D01*
X151928Y46938D01*
X151590Y47754D01*
X151053Y48454D01*
X150352Y48992D01*
X149537Y49329D01*
X148661Y49445D01*
X147786Y49329D01*
X146971Y48992D01*
X146270Y48454D01*
X145733Y47754D01*
X145395Y46938D01*
X145280Y46063D01*
X145395Y45188D01*
X145733Y44372D01*
X144656Y42542D01*
X142667D01*
X141590Y44372D01*
X141928Y45188D01*
X142017Y45863D01*
X138661D01*
X135306D01*
X135349Y45536D01*
X134932Y44625D01*
X134018Y43515D01*
X132940Y43401D01*
X132068Y44273D01*
X131806Y44448D01*
X131496Y44510D01*
X131496Y44510D01*
X129899D01*
X129375Y45470D01*
X129108Y46479D01*
X129258Y46703D01*
X129366Y47244D01*
X129258Y47785D01*
X128952Y48243D01*
X128493Y48550D01*
X127953Y48657D01*
X127412Y48550D01*
X126954Y48243D01*
X126647Y47785D01*
X126540Y47244D01*
X126647Y46703D01*
X126798Y46479D01*
X126531Y45470D01*
X126007Y44510D01*
X114961D01*
Y69306D01*
X116929Y70115D01*
X117538Y69507D01*
X117538Y69507D01*
X117800Y69331D01*
X118110Y69270D01*
X118110Y69270D01*
X120134D01*
X120261Y69080D01*
X120261Y69080D01*
X120261Y69080D01*
X120719Y68773D01*
X121260Y68666D01*
X121800Y68773D01*
X121801Y68773D01*
X122259Y69080D01*
X122565Y69538D01*
X122673Y70079D01*
X122673Y70079D01*
X122565Y70619D01*
X122259Y71078D01*
X121801Y71384D01*
X121260Y71492D01*
X120719Y71384D01*
X120412Y71179D01*
X120261Y71078D01*
X118307Y71026D01*
X117501Y71832D01*
X117401Y71933D01*
X117401Y71933D01*
X115770Y73563D01*
X115770Y73717D01*
Y87795D01*
X115708Y88105D01*
X115533Y88367D01*
X115533Y88367D01*
X114961Y88940D01*
Y90945D01*
X112955D01*
X108053Y95848D01*
X107790Y96023D01*
X107480Y96085D01*
X107480Y96085D01*
X81831D01*
X76904Y101012D01*
X76981Y101568D01*
X77680Y103020D01*
X77706Y103025D01*
X77706Y103025D01*
X78164Y103332D01*
X78471Y103790D01*
X78578Y104331D01*
X78578Y104331D01*
X78534Y104555D01*
X81044Y107065D01*
X81745Y107065D01*
X163962D01*
X164961D01*
X164961Y107065D01*
X165270Y107126D01*
X165533Y107302D01*
X166023Y107792D01*
X182253Y124022D01*
X182619Y124388D01*
X199268Y124388D01*
X199395Y124198D01*
X199395Y124198D01*
X199853Y123891D01*
X200394Y123784D01*
X200934Y123891D01*
X200934Y123891D01*
X201393Y124198D01*
X201699Y124656D01*
Y124656D01*
X201807Y125197D01*
X201699Y125738D01*
X201393Y126196D01*
X201393Y126196D01*
X200934Y126502D01*
X200934Y126502D01*
X200394Y126610D01*
X199853Y126502D01*
X199853Y126502D01*
X199546Y126297D01*
X199395Y126196D01*
X199395Y126196D01*
X199268Y126006D01*
X182910D01*
X182283Y126006D01*
X181974Y125944D01*
X181711Y125769D01*
X181221Y125279D01*
X164991Y109049D01*
X164625Y108683D01*
X163925Y108683D01*
X81707D01*
X80709D01*
X80709Y108683D01*
X80399Y108622D01*
X80136Y108446D01*
X77389Y105699D01*
X77165Y105744D01*
X76986Y105708D01*
X76625Y105636D01*
X76166Y105330D01*
X75860Y104871D01*
X75860Y104871D01*
X75855Y104845D01*
X74403Y104146D01*
X73846Y104070D01*
X33880Y144036D01*
Y157087D01*
X33819Y157396D01*
X33643Y157659D01*
X33643Y157659D01*
X22603Y168699D01*
X22340Y168875D01*
X22205Y168902D01*
X21722Y169754D01*
X21462Y170905D01*
X21826Y171380D01*
X22164Y172196D01*
X22279Y173071D01*
X22164Y173946D01*
X21826Y174762D01*
X21289Y175462D01*
X20588Y175999D01*
X19773Y176337D01*
X18898Y176453D01*
X18022Y176337D01*
X17207Y175999D01*
X16506Y175462D01*
X15969Y174762D01*
X15631Y173946D01*
X15516Y173071D01*
X15631Y172196D01*
X15969Y171380D01*
X16334Y170905D01*
X16127Y169992D01*
X15545Y168936D01*
X13954D01*
X13954Y168936D01*
X13644Y168875D01*
X13382Y168699D01*
X13382Y168699D01*
X10780Y166098D01*
X9113Y167749D01*
X9773Y169804D01*
X10588Y170142D01*
X11289Y170680D01*
X11826Y171380D01*
X12164Y172196D01*
X12253Y172871D01*
X8898D01*
Y173071D01*
X8698D01*
Y176426D01*
X8022Y176337D01*
X7502Y176122D01*
X6463Y176532D01*
X5659Y177107D01*
Y179035D01*
X6463Y179610D01*
X7502Y180020D01*
X8022Y179804D01*
X8898Y179689D01*
X9773Y179804D01*
X10588Y180142D01*
X11289Y180680D01*
X11826Y181380D01*
X12164Y182196D01*
X12279Y183071D01*
X12164Y183946D01*
X11826Y184762D01*
X11289Y185462D01*
X10588Y186000D01*
X9773Y186337D01*
X8898Y186452D01*
X8022Y186337D01*
X7502Y186122D01*
X6463Y186532D01*
X5659Y187107D01*
Y189035D01*
X6463Y189610D01*
X7502Y190020D01*
X8022Y189804D01*
X8698Y189716D01*
Y193071D01*
X8898D01*
Y193271D01*
X12253D01*
X12164Y193946D01*
X11826Y194762D01*
X11449Y195254D01*
X11636Y196111D01*
X12057Y196901D01*
X12229Y197222D01*
X13858Y197222D01*
X13858Y197222D01*
X14168Y197284D01*
X14431Y197459D01*
X14479Y197507D01*
X14479D01*
X17136Y200164D01*
X17207Y200142D01*
X17437Y200047D01*
X18022Y199804D01*
X18898Y199689D01*
X19773Y199804D01*
X20588Y200142D01*
X21289Y200680D01*
X21826Y201380D01*
X22164Y202196D01*
X22279Y203071D01*
X22164Y203946D01*
X21826Y204762D01*
X21289Y205462D01*
X20588Y205999D01*
X19773Y206337D01*
X18898Y206452D01*
X18022Y206337D01*
X17207Y205999D01*
X16506Y205462D01*
X15969Y204762D01*
X15631Y203946D01*
X15516Y203071D01*
X15631Y202196D01*
X15870Y201619D01*
X15969Y201380D01*
X15991Y201309D01*
X13932Y199249D01*
X13489Y199302D01*
X12597Y199407D01*
X11826Y201380D01*
X12164Y202196D01*
X12279Y203071D01*
X12164Y203946D01*
X11826Y204762D01*
X11289Y205462D01*
X10588Y205999D01*
X9773Y206337D01*
X8898Y206452D01*
X8022Y206337D01*
X7207Y205999D01*
X6506Y205462D01*
X5969Y204762D01*
X5927Y204661D01*
X3959Y205053D01*
X3959Y207186D01*
X4823Y208797D01*
X6619Y210593D01*
X6899Y210378D01*
X7207Y210142D01*
X8022Y209804D01*
X8898Y209689D01*
X9773Y209804D01*
X10588Y210142D01*
X11289Y210680D01*
X11826Y211380D01*
X12164Y212196D01*
X12279Y213071D01*
X12164Y213946D01*
X11826Y214762D01*
X11289Y215462D01*
X10588Y216000D01*
X9773Y216337D01*
X8898Y216453D01*
X8022Y216337D01*
X7207Y216000D01*
X6506Y215462D01*
X5969Y214762D01*
X5631Y213946D01*
X5516Y213071D01*
X5631Y212196D01*
X5720Y211982D01*
X4353Y210615D01*
X4003Y210760D01*
X2384Y211431D01*
X2384Y214657D01*
X3242Y216270D01*
X3242Y216270D01*
X3242Y216270D01*
Y216270D01*
X7136Y220164D01*
X7207Y220142D01*
X7437Y220047D01*
X8022Y219804D01*
X8898Y219689D01*
X9773Y219804D01*
X10588Y220142D01*
X11289Y220680D01*
X11826Y221380D01*
X12164Y222196D01*
X12279Y223071D01*
X12164Y223946D01*
X11826Y224762D01*
X11289Y225462D01*
X10588Y225999D01*
X9773Y226337D01*
X8898Y226452D01*
X8022Y226337D01*
X7207Y225999D01*
X6506Y225462D01*
X5969Y224762D01*
X5631Y223946D01*
X5516Y223071D01*
X5631Y222196D01*
X5870Y221619D01*
X5969Y221380D01*
X5991Y221309D01*
X2771Y218089D01*
X2421Y218234D01*
X803Y218904D01*
Y236140D01*
X2771Y236532D01*
X2776Y236520D01*
X3789Y234867D01*
X5047Y233394D01*
X6521Y232135D01*
X8173Y231123D01*
X9963Y230381D01*
X11848Y229929D01*
X13780Y229777D01*
X15711Y229929D01*
X17596Y230381D01*
X19386Y231123D01*
X21038Y232135D01*
X22512Y233394D01*
X23770Y234867D01*
X24783Y236520D01*
X25524Y238310D01*
X25977Y240194D01*
X26129Y242126D01*
X25977Y244058D01*
X25524Y245942D01*
X24783Y247732D01*
X23770Y249385D01*
X22512Y250858D01*
X21038Y252117D01*
X19386Y253129D01*
X19374Y253134D01*
X19765Y255103D01*
X66102D01*
Y178740D01*
X66229Y178434D01*
X66535Y178307D01*
X106260D01*
Y155945D01*
X95669D01*
X95363Y155818D01*
X95236Y155512D01*
Y125591D01*
X95363Y125284D01*
X95669Y125158D01*
X119291D01*
X119597Y125284D01*
X119724Y125591D01*
Y178307D01*
X158229D01*
Y155157D01*
X146457D01*
X146151Y155031D01*
X146024Y154724D01*
Y125591D01*
X146151Y125284D01*
X146457Y125158D01*
X172047D01*
X172353Y125284D01*
X172480Y125591D01*
Y214949D01*
X172480Y215993D01*
X172480Y215993D01*
X172447Y216073D01*
X172447Y216160D01*
X172447Y216160D01*
X172386Y216220D01*
X172353Y216300D01*
X172353Y216300D01*
X172273Y216333D01*
X172212Y216394D01*
X172212Y216394D01*
X171712Y216599D01*
X171712Y216599D01*
X171674Y216599D01*
X171632Y216623D01*
X171507Y216599D01*
X171380Y216598D01*
X171380Y216598D01*
X171350Y216567D01*
X171307Y216559D01*
X170753Y216722D01*
X170288Y218724D01*
X170786Y219181D01*
X170875Y219163D01*
X171307Y218874D01*
X171350Y218866D01*
X171380Y218835D01*
X171507Y218834D01*
X171632Y218810D01*
X171674Y218834D01*
X171712Y218834D01*
X171712Y218834D01*
X172212Y219039D01*
X172212Y219039D01*
X172273Y219100D01*
X172353Y219133D01*
X172353Y219134D01*
X172386Y219213D01*
X172447Y219273D01*
X172447Y219273D01*
X172447Y219360D01*
X172480Y219440D01*
X172480Y219440D01*
X172480Y220392D01*
X172480Y220392D01*
X172480Y220484D01*
Y255103D01*
X200707D01*
X201099Y253134D01*
D02*
G37*
%LPC*%
G36*
X114567Y219523D02*
X114026Y219416D01*
X113568Y219109D01*
X113261Y218651D01*
X113154Y218110D01*
X113261Y217569D01*
X113568Y217111D01*
X114026Y216805D01*
X114567Y216697D01*
X115108Y216805D01*
X115566Y217111D01*
X115872Y217569D01*
X115980Y218110D01*
X115872Y218651D01*
X115566Y219109D01*
X115108Y219416D01*
X114567Y219523D01*
D02*
G37*
G36*
X118504Y205350D02*
X117963Y205242D01*
X117505Y204936D01*
X117199Y204478D01*
X117091Y203937D01*
X117199Y203396D01*
X117505Y202938D01*
X117963Y202632D01*
X118504Y202524D01*
X119045Y202632D01*
X119503Y202938D01*
X119809Y203396D01*
X119917Y203937D01*
X119809Y204478D01*
X119503Y204936D01*
X119045Y205242D01*
X118504Y205350D01*
D02*
G37*
G36*
X57087Y241293D02*
X55672Y241107D01*
X54353Y240561D01*
X53221Y239692D01*
X52352Y238560D01*
X51806Y237242D01*
X51620Y235827D01*
X51806Y234412D01*
X52352Y233094D01*
X53221Y231961D01*
X54353Y231093D01*
X55672Y230547D01*
X57087Y230360D01*
X58501Y230547D01*
X59820Y231093D01*
X60952Y231961D01*
X61821Y233094D01*
X62367Y234412D01*
X62553Y235827D01*
X62367Y237242D01*
X61821Y238560D01*
X60952Y239692D01*
X59820Y240561D01*
X58501Y241107D01*
X57087Y241293D01*
D02*
G37*
G36*
X19098Y226426D02*
Y223271D01*
X22253D01*
X22164Y223946D01*
X21826Y224762D01*
X21289Y225462D01*
X20588Y225999D01*
X19773Y226337D01*
X19098Y226426D01*
D02*
G37*
G36*
X18698D02*
X18022Y226337D01*
X17207Y225999D01*
X16506Y225462D01*
X15969Y224762D01*
X15631Y223946D01*
X15542Y223271D01*
X18698D01*
Y226426D01*
D02*
G37*
G36*
Y222871D02*
X15542D01*
X15631Y222196D01*
X15969Y221380D01*
X16506Y220680D01*
X17207Y220142D01*
X18022Y219804D01*
X18698Y219715D01*
Y222871D01*
D02*
G37*
G36*
X22253D02*
X19098D01*
Y219715D01*
X19773Y219804D01*
X20588Y220142D01*
X21289Y220680D01*
X21826Y221380D01*
X22164Y222196D01*
X22253Y222871D01*
D02*
G37*
G36*
X57087Y224149D02*
X55908Y224033D01*
X54776Y223690D01*
X53731Y223132D01*
X52816Y222381D01*
X52065Y221465D01*
X51507Y220421D01*
X51163Y219288D01*
X51047Y218110D01*
X51163Y216932D01*
X51507Y215799D01*
X52065Y214755D01*
X52816Y213840D01*
X53731Y213089D01*
X54776Y212531D01*
X55908Y212187D01*
X57087Y212071D01*
X58265Y212187D01*
X59398Y212531D01*
X60442Y213089D01*
X61357Y213840D01*
X62108Y214755D01*
X62666Y215799D01*
X63010Y216932D01*
X63126Y218110D01*
X63010Y219288D01*
X62666Y220421D01*
X62108Y221465D01*
X61357Y222381D01*
X60442Y223132D01*
X59398Y223690D01*
X58265Y224033D01*
X57087Y224149D01*
D02*
G37*
G36*
X18898Y216453D02*
X18022Y216337D01*
X17207Y216000D01*
X16506Y215462D01*
X15969Y214762D01*
X15631Y213946D01*
X15516Y213071D01*
X15631Y212196D01*
X15969Y211380D01*
X16506Y210680D01*
X17207Y210142D01*
X18022Y209804D01*
X18898Y209689D01*
X19773Y209804D01*
X20588Y210142D01*
X21289Y210680D01*
X21826Y211380D01*
X22164Y212196D01*
X22279Y213071D01*
X22164Y213946D01*
X21826Y214762D01*
X21289Y215462D01*
X20588Y216000D01*
X19773Y216337D01*
X18898Y216453D01*
D02*
G37*
G36*
X200394Y201529D02*
X198979Y201343D01*
X197661Y200797D01*
X196528Y199928D01*
X195660Y198796D01*
X195114Y197478D01*
X194927Y196063D01*
X195114Y194648D01*
X195660Y193330D01*
X196528Y192198D01*
X197661Y191329D01*
X198979Y190783D01*
X200394Y190596D01*
X201809Y190783D01*
X203127Y191329D01*
X204259Y192198D01*
X205128Y193330D01*
X205674Y194648D01*
X205860Y196063D01*
X205674Y197478D01*
X205128Y198796D01*
X204259Y199928D01*
X203127Y200797D01*
X201809Y201343D01*
X200394Y201529D01*
D02*
G37*
G36*
X182677Y202102D02*
X181499Y201986D01*
X180366Y201643D01*
X179322Y201084D01*
X178407Y200333D01*
X177656Y199418D01*
X177098Y198374D01*
X176754Y197241D01*
X176638Y196063D01*
X176754Y194885D01*
X177098Y193752D01*
X177656Y192708D01*
X178407Y191793D01*
X179322Y191042D01*
X180366Y190483D01*
X181499Y190140D01*
X182677Y190024D01*
X183855Y190140D01*
X184988Y190483D01*
X186032Y191042D01*
X186948Y191793D01*
X187699Y192708D01*
X188257Y193752D01*
X188600Y194885D01*
X188716Y196063D01*
X188600Y197241D01*
X188257Y198374D01*
X187699Y199418D01*
X186948Y200333D01*
X186032Y201084D01*
X184988Y201643D01*
X183855Y201986D01*
X182677Y202102D01*
D02*
G37*
G36*
X12253Y192871D02*
X9098D01*
Y189716D01*
X9773Y189804D01*
X10588Y190142D01*
X11289Y190680D01*
X11826Y191380D01*
X12164Y192196D01*
X12253Y192871D01*
D02*
G37*
G36*
X18898Y196452D02*
X18022Y196337D01*
X17207Y196000D01*
X16506Y195462D01*
X15969Y194762D01*
X15631Y193946D01*
X15516Y193071D01*
X15631Y192196D01*
X15969Y191380D01*
X16506Y190680D01*
X17207Y190142D01*
X18022Y189804D01*
X18898Y189689D01*
X19773Y189804D01*
X20588Y190142D01*
X21289Y190680D01*
X21826Y191380D01*
X22164Y192196D01*
X22279Y193071D01*
X22164Y193946D01*
X21826Y194762D01*
X21289Y195462D01*
X20588Y196000D01*
X19773Y196337D01*
X18898Y196452D01*
D02*
G37*
G36*
Y186452D02*
X18022Y186337D01*
X17207Y186000D01*
X16506Y185462D01*
X15969Y184762D01*
X15631Y183946D01*
X15516Y183071D01*
X15631Y182196D01*
X15969Y181380D01*
X16506Y180680D01*
X17207Y180142D01*
X18022Y179804D01*
X18898Y179689D01*
X19773Y179804D01*
X20588Y180142D01*
X21289Y180680D01*
X21826Y181380D01*
X22164Y182196D01*
X22279Y183071D01*
X22164Y183946D01*
X21826Y184762D01*
X21289Y185462D01*
X20588Y186000D01*
X19773Y186337D01*
X18898Y186452D01*
D02*
G37*
G36*
X152362Y174549D02*
X151706Y174418D01*
X151150Y174047D01*
X151149Y174045D01*
X136614D01*
X136614Y174045D01*
X136151Y173953D01*
X135758Y173691D01*
X135758Y173691D01*
X126773Y164706D01*
X126772Y164706D01*
X126772Y164706D01*
X126116Y164576D01*
X125613Y164240D01*
X125560Y164204D01*
Y164204D01*
X125188Y163648D01*
X125188Y163648D01*
X125177Y163590D01*
X125058Y162992D01*
X125058Y162992D01*
X125188Y162336D01*
X125188Y162336D01*
X125508Y161857D01*
X125560Y161780D01*
X125560Y161780D01*
X126116Y161408D01*
X126116D01*
X126772Y161278D01*
X126772Y161278D01*
X127428Y161408D01*
X127428Y161409D01*
X127984Y161780D01*
X127984D01*
X128355Y162336D01*
X128355Y162336D01*
X128368Y162399D01*
X128486Y162992D01*
X128486Y162992D01*
X128485Y162994D01*
X137116Y171624D01*
X151149D01*
X151150Y171623D01*
X151706Y171251D01*
X152362Y171121D01*
X153018Y171251D01*
X153574Y171623D01*
X153946Y172179D01*
X154076Y172835D01*
X153946Y173491D01*
X153574Y174047D01*
X153018Y174418D01*
X152362Y174549D01*
D02*
G37*
G36*
X101575D02*
X100919Y174418D01*
X100363Y174047D01*
X100362Y174045D01*
X85827D01*
X85827Y174045D01*
X85364Y173953D01*
X84971Y173691D01*
X84971Y173691D01*
X75986Y164706D01*
X75984Y164706D01*
X75984Y164706D01*
X75328Y164576D01*
X74825Y164240D01*
X74772Y164204D01*
Y164204D01*
X74401Y163648D01*
X74401Y163648D01*
X74389Y163590D01*
X74270Y162992D01*
X74270Y162992D01*
X74401Y162336D01*
X74401Y162336D01*
X74721Y161857D01*
X74772Y161780D01*
X74772Y161780D01*
X75328Y161408D01*
X75328D01*
X75984Y161278D01*
X75984Y161278D01*
X76640Y161408D01*
X76640Y161409D01*
X77196Y161780D01*
X77196D01*
X77568Y162336D01*
X77568Y162336D01*
X77580Y162399D01*
X77698Y162992D01*
X77698Y162992D01*
X77698Y162994D01*
X86328Y171624D01*
X100362D01*
X100363Y171623D01*
X100919Y171251D01*
X101575Y171121D01*
X102231Y171251D01*
X102787Y171623D01*
X103158Y172179D01*
X103289Y172835D01*
X103158Y173491D01*
X102787Y174047D01*
X102231Y174418D01*
X101575Y174549D01*
D02*
G37*
G36*
X9098Y176426D02*
Y173271D01*
X12253D01*
X12164Y173946D01*
X11826Y174762D01*
X11289Y175462D01*
X10588Y175999D01*
X9773Y176337D01*
X9098Y176426D01*
D02*
G37*
G36*
X200787Y116374D02*
X200247Y116266D01*
X200247Y116266D01*
X199940Y116061D01*
X199788Y115960D01*
X199788Y115960D01*
X199661Y115770D01*
X180549D01*
X179921Y115770D01*
X179612Y115708D01*
X179349Y115533D01*
X178858Y115042D01*
X165775Y101959D01*
X165413Y101597D01*
X164758Y101597D01*
X127295D01*
X126944D01*
X126726Y101923D01*
X126205Y102271D01*
X125591Y102393D01*
X124976Y102271D01*
X124455Y101923D01*
X124299Y101690D01*
X123228Y101532D01*
X122157Y101690D01*
X122002Y101923D01*
X122002Y101923D01*
X121481Y102271D01*
X120866Y102393D01*
X120252Y102271D01*
X120252Y102271D01*
X119731Y101923D01*
X119575Y101690D01*
X118504Y101532D01*
X117433Y101690D01*
X117277Y101923D01*
X117277Y101923D01*
X116756Y102271D01*
X116142Y102393D01*
X115527Y102271D01*
X115527Y102271D01*
X115006Y101923D01*
X114658Y101402D01*
X114658Y101402D01*
X114536Y100787D01*
X114536Y100787D01*
X114546Y100740D01*
X114658Y100173D01*
X114948Y99740D01*
X115006Y99558D01*
Y97687D01*
X114948Y97504D01*
X114761Y97224D01*
X114658Y97071D01*
X114658Y97071D01*
X114536Y96457D01*
X114536Y96457D01*
X114658Y95842D01*
X115006Y95321D01*
X115006Y95321D01*
X115527Y94973D01*
X115527Y94973D01*
X115708Y94937D01*
X116142Y94851D01*
X116756Y94973D01*
X116756Y94973D01*
X117277Y95321D01*
X117433Y95555D01*
X118504Y95713D01*
X119575Y95555D01*
X119731Y95321D01*
X119731Y95321D01*
X120252Y94973D01*
X120866Y94851D01*
X121481Y94973D01*
X121481Y94973D01*
X122002Y95321D01*
X122157Y95555D01*
X123228Y95713D01*
X124299Y95555D01*
X124455Y95321D01*
X124455Y95321D01*
X124823Y95076D01*
X124976Y94973D01*
X124976Y94973D01*
X125591Y94851D01*
X126205Y94973D01*
X126205Y94973D01*
X126573Y95219D01*
X126726Y95321D01*
Y95321D01*
X127074Y95842D01*
X127074Y95842D01*
X127196Y96457D01*
X127196Y96457D01*
X127160Y96637D01*
X127074Y97071D01*
X127074Y97071D01*
X126785Y97504D01*
X126726Y97687D01*
Y99558D01*
X126772Y99699D01*
X126785Y99740D01*
X126944Y99978D01*
X127335D01*
X164911D01*
X165748D01*
X165748Y99978D01*
X166058Y100040D01*
X166320Y100215D01*
X166802Y100697D01*
X179894Y113789D01*
X180256Y114151D01*
X199661Y114151D01*
X199788Y113962D01*
X199788Y113962D01*
X200247Y113655D01*
X200787Y113548D01*
X201328Y113655D01*
X201328Y113655D01*
X201786Y113962D01*
X202093Y114420D01*
Y114420D01*
X202200Y114961D01*
X202093Y115501D01*
X202093Y115501D01*
X201786Y115960D01*
X201786Y115960D01*
X201328Y116266D01*
X201328Y116266D01*
X200787Y116374D01*
X200787Y116374D01*
D02*
G37*
G36*
X127165Y69130D02*
X126625Y69022D01*
X126625Y69022D01*
X126166Y68716D01*
X126166Y68716D01*
X125860Y68257D01*
X125860Y68257D01*
X125752Y67717D01*
X125752Y67716D01*
X125752Y67716D01*
X125860Y67176D01*
X126166Y66717D01*
X126166Y66717D01*
X126166Y66717D01*
X126599Y66428D01*
X126625Y66411D01*
X126531Y65281D01*
X126639Y64741D01*
X126639Y64741D01*
X126639Y64740D01*
X126945Y64282D01*
X126945D01*
X127403Y63976D01*
X127944Y63868D01*
X127944Y63868D01*
X128485Y63976D01*
X128485Y63976D01*
X128943Y64282D01*
X128943Y64282D01*
X129250Y64741D01*
X129250Y64741D01*
X129357Y65281D01*
X129357Y65281D01*
X129357Y65281D01*
X129250Y65822D01*
X128943Y66280D01*
X128943Y66280D01*
X128943Y66280D01*
X128510Y66570D01*
X128485Y66587D01*
X128578Y67716D01*
X128471Y68257D01*
X128471Y68257D01*
X128471Y68257D01*
X128165Y68716D01*
X128165D01*
X127706Y69022D01*
X127165Y69130D01*
X127165Y69130D01*
D02*
G37*
G36*
X138861Y49418D02*
Y46263D01*
X142017D01*
X141928Y46938D01*
X141590Y47754D01*
X141053Y48454D01*
X140352Y48992D01*
X139537Y49329D01*
X138861Y49418D01*
D02*
G37*
G36*
X182014Y49416D02*
X178861D01*
Y46263D01*
X182014D01*
Y49416D01*
D02*
G37*
G36*
X178461D02*
X175309D01*
Y46263D01*
X178461D01*
Y49416D01*
D02*
G37*
G36*
X138461Y49418D02*
X137786Y49329D01*
X136971Y48992D01*
X136270Y48454D01*
X135733Y47754D01*
X135395Y46938D01*
X135306Y46263D01*
X138461D01*
Y49418D01*
D02*
G37*
%LPD*%
D12*
X171260Y11811D02*
Y13386D01*
X168110Y16535D02*
X171260Y13386D01*
X127165Y16535D02*
X168110D01*
X124016Y13386D02*
X127165Y16535D01*
X179921Y114961D02*
X200787D01*
X165748Y100787D02*
X179921Y114961D01*
X125591Y100787D02*
X165748D01*
X182283Y125197D02*
X200394D01*
X164961Y107874D02*
X182283Y125197D01*
X38583Y23031D02*
X39764Y24213D01*
X27953Y38189D02*
X39764Y26378D01*
Y24213D02*
Y26378D01*
X38583Y22835D02*
Y23031D01*
X4724Y39764D02*
X6299Y38189D01*
X27953D01*
X7447Y196817D02*
X8661Y198031D01*
X7346Y196817D02*
X7447D01*
X4724Y194196D02*
X7346Y196817D01*
X4724Y39764D02*
Y194196D01*
X13858Y198031D02*
X18898Y203071D01*
X8661Y198031D02*
X13858D01*
X7953Y213071D02*
X8898D01*
X3150Y208268D02*
X7953Y213071D01*
X3150Y30813D02*
Y208268D01*
Y30813D02*
X5216Y28747D01*
X35245Y27747D02*
X35433Y27559D01*
X33374Y27747D02*
X35245D01*
X32375Y28747D02*
X33374Y27747D01*
X5216Y28747D02*
X32375D01*
X1575Y30709D02*
Y215748D01*
X8898Y223071D01*
X4724Y27559D02*
X31883D01*
X1575Y30709D02*
X4724Y27559D01*
X31883D02*
X34246Y25197D01*
X37008D01*
X23622Y78347D02*
X40157Y61811D01*
X8898Y83071D02*
X13622Y78347D01*
X40157Y44094D02*
Y61811D01*
X13622Y78347D02*
X23622D01*
X40157Y44094D02*
X43701Y40551D01*
X51575D02*
X54331Y37795D01*
X43701Y40551D02*
X51575D01*
X18898Y53071D02*
X18937Y53110D01*
X35394D01*
X35433Y53150D01*
X15846Y48432D02*
X22828D01*
X14179Y50098D02*
Y67789D01*
Y50098D02*
X15846Y48432D01*
X8898Y73071D02*
X14179Y67789D01*
X38976Y32283D02*
X63779D01*
X22828Y48432D02*
X38976Y32283D01*
X63779D02*
X69291Y37795D01*
X8898Y62756D02*
Y63071D01*
X44882Y10236D02*
X47244Y7874D01*
X12992Y49606D02*
Y58661D01*
X8898Y62756D02*
X12992Y58661D01*
X15354Y47244D02*
X21654D01*
X12992Y49606D02*
X15354Y47244D01*
X44882Y10236D02*
Y24016D01*
X21654Y47244D02*
X44882Y24016D01*
X66142Y7874D02*
X69291Y11024D01*
X47244Y7874D02*
X66142D01*
X49213Y11024D02*
X53156Y14967D01*
X72933D01*
X77263Y10636D01*
X144622D02*
X145797Y11811D01*
X146063D01*
X77263Y10636D02*
X144622D01*
X56693Y83071D02*
X79134Y60630D01*
X18898Y83071D02*
X56693D01*
X85433Y60630D02*
X105905Y40157D01*
X79134Y60630D02*
X85433D01*
X105905Y40157D02*
X130315D01*
X131890Y38583D02*
X151181D01*
X130315Y40157D02*
X131890Y38583D01*
X133155Y40362D02*
X154022D01*
X18898Y93071D02*
X50132D01*
X80611Y62592D01*
X86516D01*
X97540Y51569D01*
X101870D01*
X110925Y42513D01*
X131004D01*
X166142Y26772D02*
Y28242D01*
X154022Y40362D02*
X166142Y28242D01*
X131004Y42513D02*
X133155Y40362D01*
X18898Y103071D02*
X41811D01*
X81102Y63779D01*
X87008D01*
X98032Y52756D01*
X102362D02*
X111417Y43701D01*
X98032Y52756D02*
X102362D01*
X111417Y43701D02*
X131496D01*
X133465Y41732D01*
X154331D02*
X168504Y27559D01*
X133465Y41732D02*
X154331D01*
X168504Y25984D02*
Y27559D01*
X166142Y23622D02*
X168504Y25984D01*
X135877Y28690D02*
X143341D01*
X129921Y34646D02*
X135877Y28690D01*
X72441Y34646D02*
X129921D01*
X68504Y30709D02*
X72441Y34646D01*
X53937Y30709D02*
X68504D01*
X49213Y25984D02*
X53937Y30709D01*
X77165Y104331D02*
X80709Y107874D01*
X164961D01*
X75103Y89858D02*
X98331D01*
X13386Y138583D02*
X21260D01*
X88976Y70472D02*
Y70739D01*
X22030Y168127D02*
X33071Y157087D01*
X28346Y142520D02*
X78347Y92520D01*
X18898Y163071D02*
X28346Y153622D01*
X18898Y163071D02*
Y163071D01*
X19655Y132313D02*
X22411D01*
X87402Y67323D01*
X18898Y133071D02*
X19655Y132313D01*
X87402Y67323D02*
X94882D01*
X98032Y70472D01*
X21260Y138583D02*
X88499Y71343D01*
Y71216D02*
X88976Y70739D01*
X88499Y71216D02*
Y71343D01*
X8898Y143071D02*
X13386Y138583D01*
X19537Y142431D02*
X22529D01*
X18898Y143071D02*
X19537Y142431D01*
X22529D02*
X75103Y89858D01*
X101575Y80709D02*
Y86614D01*
X98331Y89858D02*
X101575Y86614D01*
X114961Y73228D02*
Y87795D01*
X81496Y95276D02*
X107480D01*
X33071Y143701D02*
Y157087D01*
X8898Y163071D02*
X13954Y168127D01*
X107480Y95276D02*
X114961Y87795D01*
X13954Y168127D02*
X22030D01*
X118110Y70079D02*
X121260D01*
X33071Y143701D02*
X81496Y95276D01*
X114961Y73228D02*
X116929Y71260D01*
X116929D01*
X118110Y70079D01*
X112205Y70472D02*
Y87402D01*
X107087Y92520D02*
X112205Y87402D01*
X78347Y92520D02*
X107087D01*
X28346Y142520D02*
Y153622D01*
X77559Y16929D02*
X81102Y13386D01*
X103150D01*
X109055Y19291D01*
X54331Y11024D02*
X57087Y13780D01*
X72441D01*
X76772Y9449D01*
X148819D02*
X151181Y11811D01*
X76772Y9449D02*
X148819D01*
X109055Y19291D02*
X114961Y13386D01*
X124016D01*
X127165Y20472D02*
X167717D01*
X99055Y18504D02*
X104173Y23622D01*
X167717Y20472D02*
X171260Y24016D01*
X85669Y31890D02*
X99055Y18504D01*
X104173Y23622D02*
X124016D01*
X171260Y24016D02*
Y25984D01*
X124016Y23622D02*
X127165Y20472D01*
X77559Y31890D02*
X85669D01*
X125984Y25984D02*
X131496D01*
D63*
X136614Y172835D02*
X152362D01*
X126772Y162992D02*
X136614Y172835D01*
X85827D02*
X101575D01*
X75984Y162992D02*
X85827Y172835D01*
D66*
X109055Y19291D02*
D03*
X138661Y46063D02*
D03*
X8898Y223071D02*
D03*
X18898D02*
D03*
X8898Y213071D02*
D03*
X18898Y203071D02*
D03*
X8898Y193071D02*
D03*
Y173071D02*
D03*
Y163071D02*
D03*
X18898D02*
D03*
X8898Y143071D02*
D03*
X18898D02*
D03*
Y133071D02*
D03*
Y103071D02*
D03*
Y93071D02*
D03*
X8898Y83071D02*
D03*
X18898D02*
D03*
X8898Y73071D02*
D03*
Y63071D02*
D03*
X18898Y53071D02*
D03*
D67*
X99055Y18504D02*
D03*
X178661Y46063D02*
D03*
D69*
X111417Y222047D02*
D03*
X105709Y222244D02*
D03*
X100000Y222047D02*
D03*
D70*
X200394Y223622D02*
D03*
X206299Y217717D02*
D03*
X200394Y211811D02*
D03*
X194488Y217717D02*
D03*
X176181Y223622D02*
D03*
X182087Y217717D02*
D03*
X176181Y211811D02*
D03*
X170276Y217717D02*
D03*
X35433Y217520D02*
D03*
X41339Y211614D02*
D03*
X35433Y205709D02*
D03*
X29528Y211614D02*
D03*
Y235827D02*
D03*
X35433Y229921D02*
D03*
X41339Y235827D02*
D03*
X35433Y241732D02*
D03*
X161417Y130315D02*
D03*
X155905D02*
D03*
D71*
X171260Y11811D02*
D03*
X200787Y114961D02*
D03*
X200394Y125197D02*
D03*
X218504Y114567D02*
D03*
Y125197D02*
D03*
Y120079D02*
D03*
X38583Y22835D02*
D03*
X37008Y25197D02*
D03*
X35433Y27559D02*
D03*
Y53150D02*
D03*
X143341Y28690D02*
D03*
X77165Y104331D02*
D03*
X88976Y70472D02*
D03*
X121260Y70079D02*
D03*
X69291Y37795D02*
D03*
X54331D02*
D03*
Y11024D02*
D03*
X49213D02*
D03*
X101575Y80709D02*
D03*
X151181Y38583D02*
D03*
X146063Y11811D02*
D03*
X151181D02*
D03*
X98032Y70472D02*
D03*
X112205D02*
D03*
X49213Y25984D02*
D03*
X69291Y11024D02*
D03*
X166142Y23622D02*
D03*
Y26772D02*
D03*
X171260Y25984D02*
D03*
X77559Y16929D02*
D03*
Y31890D02*
D03*
X125984Y25984D02*
D03*
X131496D02*
D03*
X118110Y73622D02*
D03*
X125418Y57337D02*
D03*
D72*
X125591Y100787D02*
D03*
X101969Y162205D02*
D03*
X99606D02*
D03*
Y159843D02*
D03*
X101969D02*
D03*
X104331D02*
D03*
X98032Y131102D02*
D03*
X101969D02*
D03*
Y127559D02*
D03*
X98032D02*
D03*
X84646Y115748D02*
D03*
X89370D02*
D03*
X88189Y157087D02*
D03*
X83858D02*
D03*
X88189Y153543D02*
D03*
X83858D02*
D03*
X86614Y150394D02*
D03*
Y146457D02*
D03*
Y140945D02*
D03*
Y134646D02*
D03*
Y128347D02*
D03*
Y122047D02*
D03*
X148819Y127559D02*
D03*
X152756D02*
D03*
Y131102D02*
D03*
X148819D02*
D03*
X140157Y115748D02*
D03*
X135433D02*
D03*
X137402Y122047D02*
D03*
Y128347D02*
D03*
Y134646D02*
D03*
Y140945D02*
D03*
Y146457D02*
D03*
Y150394D02*
D03*
X134646Y153543D02*
D03*
X138976D02*
D03*
X134646Y157087D02*
D03*
X138976D02*
D03*
X155118Y159843D02*
D03*
X152756D02*
D03*
X150394D02*
D03*
Y162205D02*
D03*
X152756D02*
D03*
D73*
X152362Y172835D02*
D03*
X101575D02*
D03*
X75984Y162992D02*
D03*
X126772D02*
D03*
M02*
