G04*
G04 #@! TF.GenerationSoftware,Altium Limited,Altium Designer,20.0.9 (164)*
G04*
G04 Layer_Physical_Order=4*
G04 Layer_Color=16711680*
%FSLAX25Y25*%
%MOIN*%
G70*
G01*
G75*
%ADD61C,0.03937*%
%ADD65C,0.10039*%
%ADD66C,0.11221*%
%ADD67C,0.05906*%
%ADD68R,0.05906X0.05906*%
%ADD69R,0.05906X0.05906*%
%ADD70C,0.01772*%
%ADD71C,0.03937*%
%ADD72C,0.02756*%
%ADD73C,0.01968*%
%ADD74C,0.02362*%
%ADD75C,0.23622*%
G36*
X209502Y254887D02*
X211102Y254458D01*
X212633Y253824D01*
X214068Y252995D01*
X215382Y251987D01*
X216553Y250815D01*
X217562Y249501D01*
X218390Y248066D01*
X219025Y246535D01*
X219453Y244935D01*
X219670Y243292D01*
Y242464D01*
Y13442D01*
Y12613D01*
X219453Y10971D01*
X219025Y9370D01*
X218390Y7840D01*
X217562Y6405D01*
X216554Y5091D01*
X215382Y3919D01*
X214068Y2910D01*
X212633Y2082D01*
X211102Y1448D01*
X209502Y1019D01*
X207859Y803D01*
X12587D01*
X10948Y1018D01*
X9352Y1446D01*
X7824Y2079D01*
X6392Y2906D01*
X5081Y3912D01*
X3912Y5081D01*
X2906Y6392D01*
X2079Y7824D01*
X1446Y9352D01*
X1018Y10948D01*
X803Y12587D01*
Y13414D01*
Y242464D01*
Y243292D01*
X1019Y244935D01*
X1448Y246535D01*
X2082Y248066D01*
X2910Y249501D01*
X3919Y250815D01*
X5090Y251987D01*
X6405Y252995D01*
X7840Y253824D01*
X9370Y254458D01*
X10971Y254887D01*
X12613Y255103D01*
X207859D01*
X209502Y254887D01*
D02*
G37*
%LPC*%
G36*
X57087Y241293D02*
X55672Y241107D01*
X54353Y240561D01*
X53221Y239692D01*
X52352Y238560D01*
X51806Y237242D01*
X51620Y235827D01*
X51806Y234412D01*
X52352Y233094D01*
X53221Y231961D01*
X54353Y231093D01*
X55672Y230547D01*
X57087Y230360D01*
X58501Y230547D01*
X59820Y231093D01*
X60952Y231961D01*
X61821Y233094D01*
X62367Y234412D01*
X62553Y235827D01*
X62367Y237242D01*
X61821Y238560D01*
X60952Y239692D01*
X59820Y240561D01*
X58501Y241107D01*
X57087Y241293D01*
D02*
G37*
G36*
X206693Y254475D02*
X204761Y254323D01*
X202877Y253871D01*
X201086Y253129D01*
X199434Y252117D01*
X197961Y250858D01*
X196702Y249385D01*
X195690Y247732D01*
X194948Y245942D01*
X194496Y244058D01*
X194344Y242126D01*
X194496Y240194D01*
X194948Y238310D01*
X195690Y236520D01*
X196702Y234867D01*
X197961Y233394D01*
X199434Y232135D01*
X201086Y231123D01*
X202877Y230381D01*
X204761Y229929D01*
X206693Y229777D01*
X208625Y229929D01*
X210509Y230381D01*
X212299Y231123D01*
X213951Y232135D01*
X215425Y233394D01*
X216684Y234867D01*
X217696Y236520D01*
X218438Y238310D01*
X218890Y240194D01*
X219042Y242126D01*
X218890Y244058D01*
X218438Y245942D01*
X217696Y247732D01*
X216684Y249385D01*
X215425Y250858D01*
X213951Y252117D01*
X212299Y253129D01*
X210509Y253871D01*
X208625Y254323D01*
X206693Y254475D01*
D02*
G37*
G36*
X13780D02*
X11848Y254323D01*
X9963Y253871D01*
X8173Y253129D01*
X6521Y252117D01*
X5047Y250858D01*
X3789Y249385D01*
X2776Y247732D01*
X2035Y245942D01*
X1582Y244058D01*
X1430Y242126D01*
X1582Y240194D01*
X2035Y238310D01*
X2776Y236520D01*
X3789Y234867D01*
X5047Y233394D01*
X6521Y232135D01*
X8173Y231123D01*
X9963Y230381D01*
X11848Y229929D01*
X13780Y229777D01*
X15711Y229929D01*
X17596Y230381D01*
X19386Y231123D01*
X21038Y232135D01*
X22512Y233394D01*
X23770Y234867D01*
X24783Y236520D01*
X25524Y238310D01*
X25977Y240194D01*
X26129Y242126D01*
X25977Y244058D01*
X25524Y245942D01*
X24783Y247732D01*
X23770Y249385D01*
X22512Y250858D01*
X21038Y252117D01*
X19386Y253129D01*
X17596Y253871D01*
X15711Y254323D01*
X13780Y254475D01*
D02*
G37*
G36*
X19098Y226426D02*
Y223271D01*
X22253D01*
X22164Y223946D01*
X21826Y224762D01*
X21289Y225462D01*
X20588Y225999D01*
X19773Y226337D01*
X19098Y226426D01*
D02*
G37*
G36*
X18698D02*
X18022Y226337D01*
X17207Y225999D01*
X16506Y225462D01*
X15969Y224762D01*
X15631Y223946D01*
X15542Y223271D01*
X18698D01*
Y226426D01*
D02*
G37*
G36*
X105709Y224761D02*
X104745Y224569D01*
X103929Y224024D01*
X103383Y223207D01*
X103192Y222244D01*
X103383Y221281D01*
X103929Y220464D01*
X104745Y219919D01*
X105709Y219727D01*
X106672Y219919D01*
X107488Y220464D01*
X108034Y221281D01*
X108226Y222244D01*
X108034Y223207D01*
X107488Y224024D01*
X106672Y224569D01*
X105709Y224761D01*
D02*
G37*
G36*
X18698Y222871D02*
X15542D01*
X15631Y222196D01*
X15969Y221380D01*
X16506Y220680D01*
X17207Y220142D01*
X18022Y219804D01*
X18698Y219715D01*
Y222871D01*
D02*
G37*
G36*
X22253D02*
X19098D01*
Y219715D01*
X19773Y219804D01*
X20588Y220142D01*
X21289Y220680D01*
X21826Y221380D01*
X22164Y222196D01*
X22253Y222871D01*
D02*
G37*
G36*
X8898Y226452D02*
X8022Y226337D01*
X7207Y225999D01*
X6506Y225462D01*
X5969Y224762D01*
X5631Y223946D01*
X5516Y223071D01*
X5631Y222196D01*
X5969Y221380D01*
X6506Y220680D01*
X7207Y220142D01*
X8022Y219804D01*
X8898Y219689D01*
X9773Y219804D01*
X10588Y220142D01*
X11289Y220680D01*
X11826Y221380D01*
X12164Y222196D01*
X12279Y223071D01*
X12164Y223946D01*
X11826Y224762D01*
X11289Y225462D01*
X10588Y225999D01*
X9773Y226337D01*
X8898Y226452D01*
D02*
G37*
G36*
X111417Y224564D02*
X110454Y224373D01*
X109638Y223827D01*
X109092Y223010D01*
X108900Y222047D01*
X109092Y221084D01*
X109638Y220268D01*
X110454Y219722D01*
X111417Y219530D01*
X112381Y219722D01*
X113197Y220268D01*
X113743Y221084D01*
X113934Y222047D01*
X113743Y223010D01*
X113197Y223827D01*
X112381Y224373D01*
X111417Y224564D01*
D02*
G37*
G36*
X100000D02*
X99037Y224373D01*
X98220Y223827D01*
X97675Y223010D01*
X97483Y222047D01*
X97675Y221084D01*
X98220Y220268D01*
X99037Y219722D01*
X100000Y219530D01*
X100963Y219722D01*
X101780Y220268D01*
X102325Y221084D01*
X102517Y222047D01*
X102325Y223010D01*
X101780Y223827D01*
X100963Y224373D01*
X100000Y224564D01*
D02*
G37*
G36*
X57087Y224149D02*
X55908Y224033D01*
X54776Y223690D01*
X53731Y223132D01*
X52816Y222381D01*
X52065Y221465D01*
X51507Y220421D01*
X51163Y219288D01*
X51047Y218110D01*
X51163Y216932D01*
X51507Y215799D01*
X52065Y214755D01*
X52816Y213840D01*
X53731Y213089D01*
X54776Y212531D01*
X55908Y212187D01*
X57087Y212071D01*
X58265Y212187D01*
X59398Y212531D01*
X60442Y213089D01*
X61357Y213840D01*
X62108Y214755D01*
X62666Y215799D01*
X63010Y216932D01*
X63126Y218110D01*
X63010Y219288D01*
X62666Y220421D01*
X62108Y221465D01*
X61357Y222381D01*
X60442Y223132D01*
X59398Y223690D01*
X58265Y224033D01*
X57087Y224149D01*
D02*
G37*
G36*
X18898Y216453D02*
X18022Y216337D01*
X17207Y216000D01*
X16506Y215462D01*
X15969Y214762D01*
X15631Y213946D01*
X15516Y213071D01*
X15631Y212196D01*
X15969Y211380D01*
X16506Y210680D01*
X17207Y210142D01*
X18022Y209804D01*
X18898Y209689D01*
X19773Y209804D01*
X20588Y210142D01*
X21289Y210680D01*
X21826Y211380D01*
X22164Y212196D01*
X22279Y213071D01*
X22164Y213946D01*
X21826Y214762D01*
X21289Y215462D01*
X20588Y216000D01*
X19773Y216337D01*
X18898Y216453D01*
D02*
G37*
G36*
X8898D02*
X8022Y216337D01*
X7207Y216000D01*
X6506Y215462D01*
X5969Y214762D01*
X5631Y213946D01*
X5516Y213071D01*
X5631Y212196D01*
X5969Y211380D01*
X6506Y210680D01*
X7207Y210142D01*
X8022Y209804D01*
X8898Y209689D01*
X9773Y209804D01*
X10588Y210142D01*
X11289Y210680D01*
X11826Y211380D01*
X12164Y212196D01*
X12279Y213071D01*
X12164Y213946D01*
X11826Y214762D01*
X11289Y215462D01*
X10588Y216000D01*
X9773Y216337D01*
X8898Y216453D01*
D02*
G37*
G36*
X18898Y206452D02*
X18022Y206337D01*
X17207Y205999D01*
X16506Y205462D01*
X15969Y204762D01*
X15631Y203946D01*
X15516Y203071D01*
X15631Y202196D01*
X15969Y201380D01*
X16506Y200680D01*
X17207Y200142D01*
X18022Y199804D01*
X18898Y199689D01*
X19773Y199804D01*
X20588Y200142D01*
X21289Y200680D01*
X21826Y201380D01*
X22164Y202196D01*
X22279Y203071D01*
X22164Y203946D01*
X21826Y204762D01*
X21289Y205462D01*
X20588Y205999D01*
X19773Y206337D01*
X18898Y206452D01*
D02*
G37*
G36*
X8898D02*
X8022Y206337D01*
X7207Y205999D01*
X6506Y205462D01*
X5969Y204762D01*
X5631Y203946D01*
X5516Y203071D01*
X5631Y202196D01*
X5969Y201380D01*
X6506Y200680D01*
X7207Y200142D01*
X8022Y199804D01*
X8898Y199689D01*
X9773Y199804D01*
X10588Y200142D01*
X11289Y200680D01*
X11826Y201380D01*
X12164Y202196D01*
X12279Y203071D01*
X12164Y203946D01*
X11826Y204762D01*
X11289Y205462D01*
X10588Y205999D01*
X9773Y206337D01*
X8898Y206452D01*
D02*
G37*
G36*
X9098Y196426D02*
Y193271D01*
X12253D01*
X12164Y193946D01*
X11826Y194762D01*
X11289Y195462D01*
X10588Y196000D01*
X9773Y196337D01*
X9098Y196426D01*
D02*
G37*
G36*
X8698D02*
X8022Y196337D01*
X7207Y196000D01*
X6506Y195462D01*
X5969Y194762D01*
X5631Y193946D01*
X5542Y193271D01*
X8698D01*
Y196426D01*
D02*
G37*
G36*
X200394Y201529D02*
X198979Y201343D01*
X197661Y200797D01*
X196528Y199928D01*
X195660Y198796D01*
X195114Y197478D01*
X194927Y196063D01*
X195114Y194648D01*
X195660Y193330D01*
X196528Y192198D01*
X197661Y191329D01*
X198979Y190783D01*
X200394Y190596D01*
X201809Y190783D01*
X203127Y191329D01*
X204259Y192198D01*
X205128Y193330D01*
X205674Y194648D01*
X205860Y196063D01*
X205674Y197478D01*
X205128Y198796D01*
X204259Y199928D01*
X203127Y200797D01*
X201809Y201343D01*
X200394Y201529D01*
D02*
G37*
G36*
X182677Y202102D02*
X181499Y201986D01*
X180366Y201643D01*
X179322Y201084D01*
X178407Y200333D01*
X177656Y199418D01*
X177098Y198374D01*
X176754Y197241D01*
X176638Y196063D01*
X176754Y194885D01*
X177098Y193752D01*
X177656Y192708D01*
X178407Y191793D01*
X179322Y191042D01*
X180366Y190483D01*
X181499Y190140D01*
X182677Y190024D01*
X183855Y190140D01*
X184988Y190483D01*
X186032Y191042D01*
X186948Y191793D01*
X187699Y192708D01*
X188257Y193752D01*
X188600Y194885D01*
X188716Y196063D01*
X188600Y197241D01*
X188257Y198374D01*
X187699Y199418D01*
X186948Y200333D01*
X186032Y201084D01*
X184988Y201643D01*
X183855Y201986D01*
X182677Y202102D01*
D02*
G37*
G36*
X8698Y192871D02*
X5542D01*
X5631Y192196D01*
X5969Y191380D01*
X6506Y190680D01*
X7207Y190142D01*
X8022Y189804D01*
X8698Y189716D01*
Y192871D01*
D02*
G37*
G36*
X12253D02*
X9098D01*
Y189716D01*
X9773Y189804D01*
X10588Y190142D01*
X11289Y190680D01*
X11826Y191380D01*
X12164Y192196D01*
X12253Y192871D01*
D02*
G37*
G36*
X18898Y196452D02*
X18022Y196337D01*
X17207Y196000D01*
X16506Y195462D01*
X15969Y194762D01*
X15631Y193946D01*
X15516Y193071D01*
X15631Y192196D01*
X15969Y191380D01*
X16506Y190680D01*
X17207Y190142D01*
X18022Y189804D01*
X18898Y189689D01*
X19773Y189804D01*
X20588Y190142D01*
X21289Y190680D01*
X21826Y191380D01*
X22164Y192196D01*
X22279Y193071D01*
X22164Y193946D01*
X21826Y194762D01*
X21289Y195462D01*
X20588Y196000D01*
X19773Y196337D01*
X18898Y196452D01*
D02*
G37*
G36*
Y186452D02*
X18022Y186337D01*
X17207Y186000D01*
X16506Y185462D01*
X15969Y184762D01*
X15631Y183946D01*
X15516Y183071D01*
X15631Y182196D01*
X15969Y181380D01*
X16506Y180680D01*
X17207Y180142D01*
X18022Y179804D01*
X18898Y179689D01*
X19773Y179804D01*
X20588Y180142D01*
X21289Y180680D01*
X21826Y181380D01*
X22164Y182196D01*
X22279Y183071D01*
X22164Y183946D01*
X21826Y184762D01*
X21289Y185462D01*
X20588Y186000D01*
X19773Y186337D01*
X18898Y186452D01*
D02*
G37*
G36*
X8898D02*
X8022Y186337D01*
X7207Y186000D01*
X6506Y185462D01*
X5969Y184762D01*
X5631Y183946D01*
X5516Y183071D01*
X5631Y182196D01*
X5969Y181380D01*
X6506Y180680D01*
X7207Y180142D01*
X8022Y179804D01*
X8898Y179689D01*
X9773Y179804D01*
X10588Y180142D01*
X11289Y180680D01*
X11826Y181380D01*
X12164Y182196D01*
X12279Y183071D01*
X12164Y183946D01*
X11826Y184762D01*
X11289Y185462D01*
X10588Y186000D01*
X9773Y186337D01*
X8898Y186452D01*
D02*
G37*
G36*
X9098Y176426D02*
Y173271D01*
X12253D01*
X12164Y173946D01*
X11826Y174762D01*
X11289Y175462D01*
X10588Y175999D01*
X9773Y176337D01*
X9098Y176426D01*
D02*
G37*
G36*
X8698D02*
X8022Y176337D01*
X7207Y175999D01*
X6506Y175462D01*
X5969Y174762D01*
X5631Y173946D01*
X5542Y173271D01*
X8698D01*
Y176426D01*
D02*
G37*
G36*
X152362Y174549D02*
X151706Y174418D01*
X151150Y174047D01*
X150779Y173491D01*
X150648Y172835D01*
X150779Y172179D01*
X151150Y171623D01*
X151706Y171251D01*
X152362Y171121D01*
X153018Y171251D01*
X153574Y171623D01*
X153946Y172179D01*
X154076Y172835D01*
X153946Y173491D01*
X153574Y174047D01*
X153018Y174418D01*
X152362Y174549D01*
D02*
G37*
G36*
X101575D02*
X100919Y174418D01*
X100363Y174047D01*
X99991Y173491D01*
X99861Y172835D01*
X99991Y172179D01*
X100363Y171623D01*
X100919Y171251D01*
X101575Y171121D01*
X102231Y171251D01*
X102787Y171623D01*
X103158Y172179D01*
X103289Y172835D01*
X103158Y173491D01*
X102787Y174047D01*
X102231Y174418D01*
X101575Y174549D01*
D02*
G37*
G36*
X8698Y172871D02*
X5542D01*
X5631Y172196D01*
X5969Y171380D01*
X6506Y170680D01*
X7207Y170142D01*
X8022Y169804D01*
X8698Y169715D01*
Y172871D01*
D02*
G37*
G36*
X12253D02*
X9098D01*
Y169715D01*
X9773Y169804D01*
X10588Y170142D01*
X11289Y170680D01*
X11826Y171380D01*
X12164Y172196D01*
X12253Y172871D01*
D02*
G37*
G36*
X18898Y176453D02*
X18022Y176337D01*
X17207Y175999D01*
X16506Y175462D01*
X15969Y174762D01*
X15631Y173946D01*
X15516Y173071D01*
X15631Y172196D01*
X15969Y171380D01*
X16506Y170680D01*
X17207Y170142D01*
X18022Y169804D01*
X18898Y169689D01*
X19773Y169804D01*
X20588Y170142D01*
X21289Y170680D01*
X21826Y171380D01*
X22164Y172196D01*
X22279Y173071D01*
X22164Y173946D01*
X21826Y174762D01*
X21289Y175462D01*
X20588Y175999D01*
X19773Y176337D01*
X18898Y176453D01*
D02*
G37*
G36*
X126772Y164706D02*
X126116Y164576D01*
X125560Y164204D01*
X125188Y163648D01*
X125058Y162992D01*
X125188Y162336D01*
X125560Y161780D01*
X126116Y161409D01*
X126772Y161278D01*
X127428Y161409D01*
X127984Y161780D01*
X128355Y162336D01*
X128486Y162992D01*
X128355Y163648D01*
X127984Y164204D01*
X127428Y164576D01*
X126772Y164706D01*
D02*
G37*
G36*
X75984D02*
X75328Y164576D01*
X74772Y164204D01*
X74401Y163648D01*
X74270Y162992D01*
X74401Y162336D01*
X74772Y161780D01*
X75328Y161409D01*
X75984Y161278D01*
X76640Y161409D01*
X77196Y161780D01*
X77568Y162336D01*
X77698Y162992D01*
X77568Y163648D01*
X77196Y164204D01*
X76640Y164576D01*
X75984Y164706D01*
D02*
G37*
G36*
X18898Y166453D02*
X18022Y166337D01*
X17207Y165999D01*
X16506Y165462D01*
X15969Y164762D01*
X15631Y163946D01*
X15516Y163071D01*
X15631Y162196D01*
X15969Y161380D01*
X16506Y160680D01*
X17207Y160142D01*
X18022Y159804D01*
X18898Y159689D01*
X19773Y159804D01*
X20588Y160142D01*
X21289Y160680D01*
X21826Y161380D01*
X22164Y162196D01*
X22279Y163071D01*
X22164Y163946D01*
X21826Y164762D01*
X21289Y165462D01*
X20588Y165999D01*
X19773Y166337D01*
X18898Y166453D01*
D02*
G37*
G36*
X8898D02*
X8022Y166337D01*
X7207Y165999D01*
X6506Y165462D01*
X5969Y164762D01*
X5631Y163946D01*
X5516Y163071D01*
X5631Y162196D01*
X5969Y161380D01*
X6506Y160680D01*
X7207Y160142D01*
X8022Y159804D01*
X8898Y159689D01*
X9773Y159804D01*
X10588Y160142D01*
X11289Y160680D01*
X11826Y161380D01*
X12164Y162196D01*
X12279Y163071D01*
X12164Y163946D01*
X11826Y164762D01*
X11289Y165462D01*
X10588Y165999D01*
X9773Y166337D01*
X8898Y166453D01*
D02*
G37*
G36*
X19098Y156426D02*
Y153271D01*
X22253D01*
X22164Y153946D01*
X21826Y154762D01*
X21289Y155462D01*
X20588Y156000D01*
X19773Y156337D01*
X19098Y156426D01*
D02*
G37*
G36*
X18698D02*
X18022Y156337D01*
X17207Y156000D01*
X16506Y155462D01*
X15969Y154762D01*
X15631Y153946D01*
X15542Y153271D01*
X18698D01*
Y156426D01*
D02*
G37*
G36*
Y152871D02*
X15542D01*
X15631Y152196D01*
X15969Y151380D01*
X16506Y150680D01*
X17207Y150142D01*
X18022Y149804D01*
X18698Y149715D01*
Y152871D01*
D02*
G37*
G36*
X22253D02*
X19098D01*
Y149715D01*
X19773Y149804D01*
X20588Y150142D01*
X21289Y150680D01*
X21826Y151380D01*
X22164Y152196D01*
X22253Y152871D01*
D02*
G37*
G36*
X8898Y156453D02*
X8022Y156337D01*
X7207Y156000D01*
X6506Y155462D01*
X5969Y154762D01*
X5631Y153946D01*
X5516Y153071D01*
X5631Y152196D01*
X5969Y151380D01*
X6506Y150680D01*
X7207Y150142D01*
X8022Y149804D01*
X8898Y149689D01*
X9773Y149804D01*
X10588Y150142D01*
X11289Y150680D01*
X11826Y151380D01*
X12164Y152196D01*
X12279Y153071D01*
X12164Y153946D01*
X11826Y154762D01*
X11289Y155462D01*
X10588Y156000D01*
X9773Y156337D01*
X8898Y156453D01*
D02*
G37*
G36*
X18898Y146452D02*
X18022Y146337D01*
X17207Y146000D01*
X16506Y145462D01*
X15969Y144762D01*
X15631Y143946D01*
X15516Y143071D01*
X15631Y142196D01*
X15969Y141380D01*
X16506Y140680D01*
X17207Y140142D01*
X18022Y139804D01*
X18898Y139689D01*
X19773Y139804D01*
X20588Y140142D01*
X21289Y140680D01*
X21826Y141380D01*
X22164Y142196D01*
X22279Y143071D01*
X22164Y143946D01*
X21826Y144762D01*
X21289Y145462D01*
X20588Y146000D01*
X19773Y146337D01*
X18898Y146452D01*
D02*
G37*
G36*
X8898D02*
X8022Y146337D01*
X7207Y146000D01*
X6506Y145462D01*
X5969Y144762D01*
X5631Y143946D01*
X5516Y143071D01*
X5631Y142196D01*
X5969Y141380D01*
X6506Y140680D01*
X7207Y140142D01*
X8022Y139804D01*
X8898Y139689D01*
X9773Y139804D01*
X10588Y140142D01*
X11289Y140680D01*
X11826Y141380D01*
X12164Y142196D01*
X12279Y143071D01*
X12164Y143946D01*
X11826Y144762D01*
X11289Y145462D01*
X10588Y146000D01*
X9773Y146337D01*
X8898Y146452D01*
D02*
G37*
G36*
X35421Y140795D02*
X34881Y140687D01*
X34422Y140381D01*
X34116Y139923D01*
X34008Y139382D01*
X34116Y138841D01*
X34422Y138383D01*
X34881Y138076D01*
X35421Y137969D01*
X35962Y138076D01*
X36420Y138383D01*
X36727Y138841D01*
X36834Y139382D01*
X36727Y139923D01*
X36420Y140381D01*
X35962Y140687D01*
X35421Y140795D01*
D02*
G37*
G36*
X18898Y136452D02*
X18022Y136337D01*
X17207Y136000D01*
X16506Y135462D01*
X15969Y134762D01*
X15631Y133946D01*
X15516Y133071D01*
X15631Y132196D01*
X15969Y131380D01*
X16506Y130680D01*
X17207Y130142D01*
X18022Y129804D01*
X18898Y129689D01*
X19773Y129804D01*
X20588Y130142D01*
X21289Y130680D01*
X21826Y131380D01*
X22164Y132196D01*
X22279Y133071D01*
X22164Y133946D01*
X21826Y134762D01*
X21289Y135462D01*
X20588Y136000D01*
X19773Y136337D01*
X18898Y136452D01*
D02*
G37*
G36*
X8898D02*
X8022Y136337D01*
X7207Y136000D01*
X6506Y135462D01*
X5969Y134762D01*
X5631Y133946D01*
X5516Y133071D01*
X5631Y132196D01*
X5969Y131380D01*
X6506Y130680D01*
X7207Y130142D01*
X8022Y129804D01*
X8898Y129689D01*
X9773Y129804D01*
X10588Y130142D01*
X11289Y130680D01*
X11826Y131380D01*
X12164Y132196D01*
X12279Y133071D01*
X12164Y133946D01*
X11826Y134762D01*
X11289Y135462D01*
X10588Y136000D01*
X9773Y136337D01*
X8898Y136452D01*
D02*
G37*
G36*
X161417Y132322D02*
X160649Y132169D01*
X159998Y131734D01*
X159563Y131083D01*
X159410Y130315D01*
X159563Y129547D01*
X159998Y128896D01*
X160649Y128461D01*
X161417Y128308D01*
X162185Y128461D01*
X162837Y128896D01*
X163272Y129547D01*
X163424Y130315D01*
X163272Y131083D01*
X162837Y131734D01*
X162185Y132169D01*
X161417Y132322D01*
D02*
G37*
G36*
X152756Y132708D02*
X152141Y132586D01*
X151621Y132238D01*
X151272Y131717D01*
X151150Y131102D01*
X151272Y130488D01*
X151621Y129967D01*
X152141Y129619D01*
X152309Y129586D01*
Y129076D01*
X152141Y129042D01*
X151621Y128694D01*
X151272Y128173D01*
X151150Y127559D01*
X151272Y126945D01*
X151621Y126424D01*
X152141Y126076D01*
X152756Y125953D01*
X153370Y126076D01*
X153891Y126424D01*
X154239Y126945D01*
X154362Y127559D01*
X154239Y128173D01*
X153891Y128694D01*
X153496Y128959D01*
X153438Y129382D01*
X153468Y129533D01*
X153671Y129662D01*
X154051Y129547D01*
X154486Y128896D01*
X155137Y128461D01*
X155905Y128308D01*
X156674Y128461D01*
X157325Y128896D01*
X157760Y129547D01*
X157913Y130315D01*
X157760Y131083D01*
X157325Y131734D01*
X156674Y132169D01*
X155905Y132322D01*
X155137Y132169D01*
X154692Y131871D01*
X154674Y131865D01*
X154126Y131949D01*
X154056Y131991D01*
X153891Y132238D01*
X153370Y132586D01*
X152756Y132708D01*
D02*
G37*
G36*
X148819D02*
X148205Y132586D01*
X147684Y132238D01*
X147336Y131717D01*
X147213Y131102D01*
X147336Y130488D01*
X147684Y129967D01*
X148205Y129619D01*
X148372Y129586D01*
Y129076D01*
X148205Y129042D01*
X147684Y128694D01*
X147336Y128173D01*
X147213Y127559D01*
X147336Y126945D01*
X147684Y126424D01*
X148205Y126076D01*
X148819Y125953D01*
X149433Y126076D01*
X149954Y126424D01*
X150302Y126945D01*
X150425Y127559D01*
X150302Y128173D01*
X149954Y128694D01*
X149433Y129042D01*
X149266Y129076D01*
Y129586D01*
X149433Y129619D01*
X149954Y129967D01*
X150302Y130488D01*
X150425Y131102D01*
X150302Y131717D01*
X149954Y132238D01*
X149433Y132586D01*
X148819Y132708D01*
D02*
G37*
G36*
X101969D02*
X101354Y132586D01*
X100833Y132238D01*
X100485Y131717D01*
X100363Y131102D01*
X100485Y130488D01*
X100833Y129967D01*
X101354Y129619D01*
X101522Y129586D01*
Y129076D01*
X101354Y129042D01*
X100833Y128694D01*
X100485Y128173D01*
X100363Y127559D01*
X100485Y126945D01*
X100833Y126424D01*
X101354Y126076D01*
X101969Y125953D01*
X102583Y126076D01*
X103104Y126424D01*
X103452Y126945D01*
X103574Y127559D01*
X103452Y128173D01*
X103104Y128694D01*
X102583Y129042D01*
X102416Y129076D01*
Y129586D01*
X102583Y129619D01*
X103104Y129967D01*
X103452Y130488D01*
X103574Y131102D01*
X103452Y131717D01*
X103104Y132238D01*
X102583Y132586D01*
X101969Y132708D01*
D02*
G37*
G36*
X98032D02*
X97417Y132586D01*
X96896Y132238D01*
X96548Y131717D01*
X96426Y131102D01*
X96548Y130488D01*
X96896Y129967D01*
X97417Y129619D01*
X97585Y129586D01*
Y129076D01*
X97417Y129042D01*
X96896Y128694D01*
X96548Y128173D01*
X96426Y127559D01*
X96548Y126945D01*
X96896Y126424D01*
X97417Y126076D01*
X98032Y125953D01*
X98646Y126076D01*
X99167Y126424D01*
X99515Y126945D01*
X99637Y127559D01*
X99515Y128173D01*
X99167Y128694D01*
X98646Y129042D01*
X98479Y129076D01*
Y129586D01*
X98646Y129619D01*
X99167Y129967D01*
X99515Y130488D01*
X99637Y131102D01*
X99515Y131717D01*
X99167Y132238D01*
X98646Y132586D01*
X98032Y132708D01*
D02*
G37*
G36*
X200394Y126610D02*
X199853Y126502D01*
X199395Y126196D01*
X199088Y125738D01*
X198981Y125197D01*
X199088Y124656D01*
X199395Y124198D01*
X199853Y123891D01*
X200394Y123784D01*
X200934Y123891D01*
X201393Y124198D01*
X201699Y124656D01*
X201807Y125197D01*
X201699Y125738D01*
X201393Y126196D01*
X200934Y126502D01*
X200394Y126610D01*
D02*
G37*
G36*
X9098Y126426D02*
Y123271D01*
X12253D01*
X12164Y123946D01*
X11826Y124762D01*
X11289Y125462D01*
X10588Y125999D01*
X9773Y126337D01*
X9098Y126426D01*
D02*
G37*
G36*
X8698D02*
X8022Y126337D01*
X7207Y125999D01*
X6506Y125462D01*
X5969Y124762D01*
X5631Y123946D01*
X5542Y123271D01*
X8698D01*
Y126426D01*
D02*
G37*
G36*
Y122871D02*
X5542D01*
X5631Y122196D01*
X5969Y121380D01*
X6506Y120680D01*
X7207Y120142D01*
X8022Y119804D01*
X8698Y119715D01*
Y122871D01*
D02*
G37*
G36*
X12253D02*
X9098D01*
Y119715D01*
X9773Y119804D01*
X10588Y120142D01*
X11289Y120680D01*
X11826Y121380D01*
X12164Y122196D01*
X12253Y122871D01*
D02*
G37*
G36*
X18898Y126453D02*
X18022Y126337D01*
X17207Y125999D01*
X16506Y125462D01*
X15969Y124762D01*
X15631Y123946D01*
X15516Y123071D01*
X15631Y122196D01*
X15969Y121380D01*
X16506Y120680D01*
X17207Y120142D01*
X18022Y119804D01*
X18898Y119689D01*
X19773Y119804D01*
X20588Y120142D01*
X21289Y120680D01*
X21826Y121380D01*
X22164Y122196D01*
X22279Y123071D01*
X22164Y123946D01*
X21826Y124762D01*
X21289Y125462D01*
X20588Y125999D01*
X19773Y126337D01*
X18898Y126453D01*
D02*
G37*
G36*
X200787Y116374D02*
X200247Y116266D01*
X199788Y115960D01*
X199482Y115501D01*
X199374Y114961D01*
X199482Y114420D01*
X199788Y113962D01*
X200247Y113655D01*
X200787Y113548D01*
X201328Y113655D01*
X201786Y113962D01*
X202093Y114420D01*
X202200Y114961D01*
X202093Y115501D01*
X201786Y115960D01*
X201328Y116266D01*
X200787Y116374D01*
D02*
G37*
G36*
X8898Y116453D02*
X8022Y116337D01*
X7207Y115999D01*
X6506Y115462D01*
X5969Y114762D01*
X5631Y113946D01*
X5516Y113071D01*
X5631Y112196D01*
X5969Y111380D01*
X6506Y110680D01*
X7207Y110142D01*
X8022Y109804D01*
X8898Y109689D01*
X9773Y109804D01*
X10588Y110142D01*
X11289Y110680D01*
X11826Y111380D01*
X12164Y112196D01*
X12279Y113071D01*
X12164Y113946D01*
X11826Y114762D01*
X11289Y115462D01*
X10588Y115999D01*
X9773Y116337D01*
X8898Y116453D01*
D02*
G37*
G36*
X77165Y105744D02*
X76625Y105636D01*
X76166Y105330D01*
X75860Y104871D01*
X75752Y104331D01*
X75860Y103790D01*
X76166Y103332D01*
X76625Y103025D01*
X77165Y102918D01*
X77706Y103025D01*
X78164Y103332D01*
X78471Y103790D01*
X78578Y104331D01*
X78471Y104871D01*
X78164Y105330D01*
X77706Y105636D01*
X77165Y105744D01*
D02*
G37*
G36*
X18898Y106453D02*
X18022Y106337D01*
X17207Y106000D01*
X16506Y105462D01*
X15969Y104762D01*
X15631Y103946D01*
X15516Y103071D01*
X15631Y102196D01*
X15969Y101380D01*
X16506Y100680D01*
X17207Y100142D01*
X18022Y99804D01*
X18898Y99689D01*
X19773Y99804D01*
X20588Y100142D01*
X21289Y100680D01*
X21826Y101380D01*
X22164Y102196D01*
X22279Y103071D01*
X22164Y103946D01*
X21826Y104762D01*
X21289Y105462D01*
X20588Y106000D01*
X19773Y106337D01*
X18898Y106453D01*
D02*
G37*
G36*
X8898D02*
X8022Y106337D01*
X7207Y106000D01*
X6506Y105462D01*
X5969Y104762D01*
X5631Y103946D01*
X5516Y103071D01*
X5631Y102196D01*
X5969Y101380D01*
X6506Y100680D01*
X7207Y100142D01*
X8022Y99804D01*
X8898Y99689D01*
X9773Y99804D01*
X10588Y100142D01*
X11289Y100680D01*
X11826Y101380D01*
X12164Y102196D01*
X12279Y103071D01*
X12164Y103946D01*
X11826Y104762D01*
X11289Y105462D01*
X10588Y106000D01*
X9773Y106337D01*
X8898Y106453D01*
D02*
G37*
G36*
X9098Y96426D02*
Y93271D01*
X12253D01*
X12164Y93946D01*
X11826Y94762D01*
X11289Y95462D01*
X10588Y95999D01*
X9773Y96337D01*
X9098Y96426D01*
D02*
G37*
G36*
X8698D02*
X8022Y96337D01*
X7207Y95999D01*
X6506Y95462D01*
X5969Y94762D01*
X5631Y93946D01*
X5542Y93271D01*
X8698D01*
Y96426D01*
D02*
G37*
G36*
Y92871D02*
X5542D01*
X5631Y92196D01*
X5969Y91380D01*
X6506Y90680D01*
X7207Y90142D01*
X8022Y89804D01*
X8698Y89715D01*
Y92871D01*
D02*
G37*
G36*
X12253D02*
X9098D01*
Y89715D01*
X9773Y89804D01*
X10588Y90142D01*
X11289Y90680D01*
X11826Y91380D01*
X12164Y92196D01*
X12253Y92871D01*
D02*
G37*
G36*
X18898Y96452D02*
X18022Y96337D01*
X17207Y95999D01*
X16506Y95462D01*
X15969Y94762D01*
X15631Y93946D01*
X15516Y93071D01*
X15631Y92196D01*
X15969Y91380D01*
X16506Y90680D01*
X17207Y90142D01*
X18022Y89804D01*
X18898Y89689D01*
X19773Y89804D01*
X20588Y90142D01*
X21289Y90680D01*
X21826Y91380D01*
X22164Y92196D01*
X22279Y93071D01*
X22164Y93946D01*
X21826Y94762D01*
X21289Y95462D01*
X20588Y95999D01*
X19773Y96337D01*
X18898Y96452D01*
D02*
G37*
G36*
Y86453D02*
X18022Y86337D01*
X17207Y86000D01*
X16506Y85462D01*
X15969Y84762D01*
X15631Y83946D01*
X15516Y83071D01*
X15631Y82196D01*
X15969Y81380D01*
X16506Y80680D01*
X17207Y80142D01*
X18022Y79804D01*
X18898Y79689D01*
X19773Y79804D01*
X20588Y80142D01*
X21289Y80680D01*
X21826Y81380D01*
X22164Y82196D01*
X22279Y83071D01*
X22164Y83946D01*
X21826Y84762D01*
X21289Y85462D01*
X20588Y86000D01*
X19773Y86337D01*
X18898Y86453D01*
D02*
G37*
G36*
X8898D02*
X8022Y86337D01*
X7207Y86000D01*
X6506Y85462D01*
X5969Y84762D01*
X5631Y83946D01*
X5516Y83071D01*
X5631Y82196D01*
X5969Y81380D01*
X6506Y80680D01*
X7207Y80142D01*
X8022Y79804D01*
X8898Y79689D01*
X9773Y79804D01*
X10588Y80142D01*
X11289Y80680D01*
X11826Y81380D01*
X12164Y82196D01*
X12279Y83071D01*
X12164Y83946D01*
X11826Y84762D01*
X11289Y85462D01*
X10588Y86000D01*
X9773Y86337D01*
X8898Y86453D01*
D02*
G37*
G36*
X19098Y76426D02*
Y73271D01*
X22253D01*
X22164Y73946D01*
X21826Y74762D01*
X21289Y75462D01*
X20588Y75999D01*
X19773Y76337D01*
X19098Y76426D01*
D02*
G37*
G36*
X18698D02*
X18022Y76337D01*
X17207Y75999D01*
X16506Y75462D01*
X15969Y74762D01*
X15631Y73946D01*
X15542Y73271D01*
X18698D01*
Y76426D01*
D02*
G37*
G36*
Y72871D02*
X15542D01*
X15631Y72196D01*
X15969Y71380D01*
X16506Y70680D01*
X17207Y70142D01*
X18022Y69804D01*
X18698Y69715D01*
Y72871D01*
D02*
G37*
G36*
X22253D02*
X19098D01*
Y69715D01*
X19773Y69804D01*
X20588Y70142D01*
X21289Y70680D01*
X21826Y71380D01*
X22164Y72196D01*
X22253Y72871D01*
D02*
G37*
G36*
X8898Y76452D02*
X8022Y76337D01*
X7207Y75999D01*
X6506Y75462D01*
X5969Y74762D01*
X5631Y73946D01*
X5516Y73071D01*
X5631Y72196D01*
X5969Y71380D01*
X6506Y70680D01*
X7207Y70142D01*
X8022Y69804D01*
X8898Y69689D01*
X9773Y69804D01*
X10588Y70142D01*
X11289Y70680D01*
X11826Y71380D01*
X12164Y72196D01*
X12279Y73071D01*
X12164Y73946D01*
X11826Y74762D01*
X11289Y75462D01*
X10588Y75999D01*
X9773Y76337D01*
X8898Y76452D01*
D02*
G37*
G36*
X18898Y66452D02*
X18022Y66337D01*
X17207Y66000D01*
X16506Y65462D01*
X15969Y64762D01*
X15631Y63946D01*
X15516Y63071D01*
X15631Y62196D01*
X15969Y61380D01*
X16506Y60680D01*
X17207Y60142D01*
X18022Y59804D01*
X18898Y59689D01*
X19773Y59804D01*
X20588Y60142D01*
X21289Y60680D01*
X21826Y61380D01*
X22164Y62196D01*
X22279Y63071D01*
X22164Y63946D01*
X21826Y64762D01*
X21289Y65462D01*
X20588Y66000D01*
X19773Y66337D01*
X18898Y66452D01*
D02*
G37*
G36*
X8898D02*
X8022Y66337D01*
X7207Y66000D01*
X6506Y65462D01*
X5969Y64762D01*
X5631Y63946D01*
X5516Y63071D01*
X5631Y62196D01*
X5969Y61380D01*
X6506Y60680D01*
X7207Y60142D01*
X8022Y59804D01*
X8898Y59689D01*
X9773Y59804D01*
X10588Y60142D01*
X11289Y60680D01*
X11826Y61380D01*
X12164Y62196D01*
X12279Y63071D01*
X12164Y63946D01*
X11826Y64762D01*
X11289Y65462D01*
X10588Y66000D01*
X9773Y66337D01*
X8898Y66452D01*
D02*
G37*
G36*
X9098Y56426D02*
Y53271D01*
X12253D01*
X12164Y53946D01*
X11826Y54762D01*
X11289Y55462D01*
X10588Y55999D01*
X9773Y56337D01*
X9098Y56426D01*
D02*
G37*
G36*
X8698D02*
X8022Y56337D01*
X7207Y55999D01*
X6506Y55462D01*
X5969Y54762D01*
X5631Y53946D01*
X5542Y53271D01*
X8698D01*
Y56426D01*
D02*
G37*
G36*
X30630Y54484D02*
X30089Y54376D01*
X29631Y54070D01*
X29324Y53612D01*
X29217Y53071D01*
X29324Y52530D01*
X29631Y52072D01*
X30089Y51765D01*
X30630Y51658D01*
X31171Y51765D01*
X31629Y52072D01*
X31935Y52530D01*
X32043Y53071D01*
X31935Y53612D01*
X31629Y54070D01*
X31171Y54376D01*
X30630Y54484D01*
D02*
G37*
G36*
X8698Y52871D02*
X5542D01*
X5631Y52196D01*
X5969Y51380D01*
X6506Y50680D01*
X7207Y50142D01*
X8022Y49804D01*
X8698Y49716D01*
Y52871D01*
D02*
G37*
G36*
X12253D02*
X9098D01*
Y49716D01*
X9773Y49804D01*
X10588Y50142D01*
X11289Y50680D01*
X11826Y51380D01*
X12164Y52196D01*
X12253Y52871D01*
D02*
G37*
G36*
X18898Y56453D02*
X18022Y56337D01*
X17207Y55999D01*
X16506Y55462D01*
X15969Y54762D01*
X15631Y53946D01*
X15516Y53071D01*
X15631Y52196D01*
X15969Y51380D01*
X16506Y50680D01*
X17207Y50142D01*
X18022Y49804D01*
X18898Y49689D01*
X19773Y49804D01*
X20588Y50142D01*
X21289Y50680D01*
X21826Y51380D01*
X22164Y52196D01*
X22279Y53071D01*
X22164Y53946D01*
X21826Y54762D01*
X21289Y55462D01*
X20588Y55999D01*
X19773Y56337D01*
X18898Y56453D01*
D02*
G37*
G36*
Y46453D02*
X18022Y46337D01*
X17207Y46000D01*
X16506Y45462D01*
X15969Y44762D01*
X15631Y43946D01*
X15516Y43071D01*
X15631Y42196D01*
X15969Y41380D01*
X16506Y40680D01*
X17207Y40142D01*
X18022Y39804D01*
X18898Y39689D01*
X19773Y39804D01*
X20588Y40142D01*
X21289Y40680D01*
X21826Y41380D01*
X22164Y42196D01*
X22279Y43071D01*
X22164Y43946D01*
X21826Y44762D01*
X21289Y45462D01*
X20588Y46000D01*
X19773Y46337D01*
X18898Y46453D01*
D02*
G37*
G36*
X8898D02*
X8022Y46337D01*
X7207Y46000D01*
X6506Y45462D01*
X5969Y44762D01*
X5631Y43946D01*
X5516Y43071D01*
X5631Y42196D01*
X5969Y41380D01*
X6506Y40680D01*
X7207Y40142D01*
X8022Y39804D01*
X8898Y39689D01*
X9773Y39804D01*
X10588Y40142D01*
X11289Y40680D01*
X11826Y41380D01*
X12164Y42196D01*
X12279Y43071D01*
X12164Y43946D01*
X11826Y44762D01*
X11289Y45462D01*
X10588Y46000D01*
X9773Y46337D01*
X8898Y46453D01*
D02*
G37*
G36*
X18898Y116453D02*
X18022Y116337D01*
X17207Y115999D01*
X16506Y115462D01*
X15969Y114762D01*
X15631Y113946D01*
X15516Y113071D01*
X15631Y112196D01*
X15969Y111380D01*
X16506Y110680D01*
X17207Y110142D01*
X18022Y109804D01*
X18898Y109689D01*
X19773Y109804D01*
X20588Y110142D01*
X21258Y110656D01*
X23569D01*
Y35486D01*
X22250D01*
Y36424D01*
X15545D01*
Y29718D01*
X22250D01*
Y30656D01*
X25984D01*
X26908Y30840D01*
X27692Y31363D01*
X28215Y32147D01*
X28399Y33071D01*
Y61791D01*
X40419Y61844D01*
X40906Y61346D01*
X40906Y33858D01*
X41032Y33552D01*
X41339Y33425D01*
X76463Y33425D01*
X76614Y32925D01*
X76560Y32889D01*
X76254Y32430D01*
X76146Y31890D01*
X76254Y31349D01*
X76560Y30891D01*
X77018Y30584D01*
X77559Y30477D01*
X78100Y30584D01*
X78558Y30891D01*
X78865Y31349D01*
X78972Y31890D01*
X78865Y32430D01*
X78558Y32889D01*
X78504Y32925D01*
X78655Y33425D01*
X82344D01*
X85577D01*
X85675Y33466D01*
X85781Y33476D01*
X85822Y33527D01*
X85883Y33552D01*
X85923Y33650D01*
X85991Y33733D01*
X86143Y34233D01*
X86132Y34339D01*
X86153Y34443D01*
X86117Y34497D01*
X86110Y34562D01*
X86028Y34630D01*
X85969Y34718D01*
X85927Y34746D01*
X85717Y35061D01*
X85643Y35433D01*
X85717Y35805D01*
X85927Y36120D01*
X86242Y36331D01*
X86614Y36405D01*
X86986Y36331D01*
X87301Y36120D01*
X87512Y35805D01*
X87586Y35433D01*
X87512Y35061D01*
X87301Y34746D01*
X87260Y34718D01*
X87200Y34630D01*
X87118Y34562D01*
X87112Y34497D01*
X87075Y34443D01*
X87096Y34338D01*
X87086Y34233D01*
X87237Y33733D01*
X87305Y33650D01*
X87346Y33552D01*
X87406Y33527D01*
X87448Y33476D01*
X87554Y33466D01*
X87652Y33425D01*
X111167Y33425D01*
X111266Y33466D01*
X111371Y33476D01*
X111413Y33527D01*
X111473Y33552D01*
X111514Y33650D01*
X111582Y33733D01*
X111733Y34233D01*
X111723Y34339D01*
X111743Y34443D01*
X111707Y34497D01*
X111701Y34562D01*
X111618Y34630D01*
X111559Y34718D01*
X111518Y34746D01*
X111307Y35061D01*
X111233Y35433D01*
X111307Y35805D01*
X111518Y36120D01*
X111833Y36331D01*
X112205Y36405D01*
X112576Y36331D01*
X112892Y36120D01*
X113102Y35805D01*
X113176Y35433D01*
X113102Y35061D01*
X112892Y34746D01*
X112850Y34718D01*
X112791Y34630D01*
X112709Y34562D01*
X112702Y34497D01*
X112666Y34443D01*
X112687Y34339D01*
X112676Y34233D01*
X112828Y33733D01*
X112895Y33650D01*
X112936Y33552D01*
X112997Y33527D01*
X113038Y33476D01*
X113144Y33466D01*
X113242Y33425D01*
X183858D01*
X184164Y33552D01*
X184291Y33858D01*
X184291Y104724D01*
X184164Y105031D01*
X183858Y105157D01*
X113779Y105157D01*
X113473Y105031D01*
X113347Y104724D01*
Y91378D01*
X28399D01*
Y113071D01*
X28215Y113995D01*
X27692Y114778D01*
X26908Y115302D01*
X25984Y115486D01*
X21258D01*
X20588Y115999D01*
X19773Y116337D01*
X18898Y116453D01*
D02*
G37*
G36*
X8898Y36452D02*
X8022Y36337D01*
X7207Y36000D01*
X6506Y35462D01*
X5969Y34762D01*
X5631Y33946D01*
X5516Y33071D01*
X5631Y32196D01*
X5969Y31380D01*
X6506Y30680D01*
X7207Y30142D01*
X8022Y29804D01*
X8898Y29689D01*
X9773Y29804D01*
X10588Y30142D01*
X11289Y30680D01*
X11826Y31380D01*
X12164Y32196D01*
X12279Y33071D01*
X12164Y33946D01*
X11826Y34762D01*
X11289Y35462D01*
X10588Y36000D01*
X9773Y36337D01*
X8898Y36452D01*
D02*
G37*
G36*
X143341Y30103D02*
X142800Y29996D01*
X142341Y29689D01*
X142035Y29231D01*
X141928Y28690D01*
X142035Y28149D01*
X142341Y27691D01*
X142800Y27385D01*
X143341Y27277D01*
X143881Y27385D01*
X144340Y27691D01*
X144646Y28149D01*
X144753Y28690D01*
X144646Y29231D01*
X144340Y29689D01*
X143881Y29996D01*
X143341Y30103D01*
D02*
G37*
G36*
X171260Y27397D02*
X170719Y27290D01*
X170261Y26983D01*
X169954Y26525D01*
X169847Y25984D01*
X169954Y25444D01*
X170261Y24985D01*
X170719Y24679D01*
X171260Y24571D01*
X171801Y24679D01*
X172259Y24985D01*
X172565Y25444D01*
X172673Y25984D01*
X172565Y26525D01*
X172259Y26983D01*
X171801Y27290D01*
X171260Y27397D01*
D02*
G37*
G36*
X125984D02*
X125443Y27290D01*
X124985Y26983D01*
X124679Y26525D01*
X124571Y25984D01*
X124679Y25444D01*
X124985Y24985D01*
X125443Y24679D01*
X125984Y24571D01*
X126525Y24679D01*
X126983Y24985D01*
X127290Y25444D01*
X127397Y25984D01*
X127290Y26525D01*
X126983Y26983D01*
X126525Y27290D01*
X125984Y27397D01*
D02*
G37*
G36*
X119291D02*
X118751Y27290D01*
X118292Y26983D01*
X117986Y26525D01*
X117878Y25984D01*
X117986Y25444D01*
X118292Y24985D01*
X118751Y24679D01*
X119291Y24571D01*
X119832Y24679D01*
X120291Y24985D01*
X120597Y25444D01*
X120704Y25984D01*
X120597Y26525D01*
X120291Y26983D01*
X119832Y27290D01*
X119291Y27397D01*
D02*
G37*
G36*
X54331D02*
X53790Y27290D01*
X53332Y26983D01*
X53025Y26525D01*
X52918Y25984D01*
X53025Y25444D01*
X53332Y24985D01*
X53790Y24679D01*
X54331Y24571D01*
X54871Y24679D01*
X55330Y24985D01*
X55636Y25444D01*
X55744Y25984D01*
X55636Y26525D01*
X55330Y26983D01*
X54871Y27290D01*
X54331Y27397D01*
D02*
G37*
G36*
X49213D02*
X48672Y27290D01*
X48213Y26983D01*
X47907Y26525D01*
X47800Y25984D01*
X47907Y25444D01*
X48213Y24985D01*
X48672Y24679D01*
X49213Y24571D01*
X49753Y24679D01*
X50212Y24985D01*
X50518Y25444D01*
X50626Y25984D01*
X50518Y26525D01*
X50212Y26983D01*
X49753Y27290D01*
X49213Y27397D01*
D02*
G37*
G36*
X166142Y28185D02*
X165601Y28077D01*
X165143Y27771D01*
X164836Y27312D01*
X164729Y26772D01*
X164836Y26231D01*
X165143Y25773D01*
X165601Y25466D01*
X165674Y25452D01*
Y24942D01*
X165601Y24927D01*
X165143Y24621D01*
X164836Y24163D01*
X164729Y23622D01*
X164836Y23081D01*
X165143Y22623D01*
X165601Y22317D01*
X166142Y22209D01*
X166682Y22317D01*
X167141Y22623D01*
X167447Y23081D01*
X167555Y23622D01*
X167447Y24163D01*
X167141Y24621D01*
X166682Y24927D01*
X166610Y24942D01*
Y25452D01*
X166682Y25466D01*
X167141Y25773D01*
X167447Y26231D01*
X167555Y26772D01*
X167447Y27312D01*
X167141Y27771D01*
X166682Y28077D01*
X166142Y28185D01*
D02*
G37*
G36*
X35433Y28972D02*
X34892Y28864D01*
X34434Y28558D01*
X34128Y28100D01*
X34020Y27559D01*
X34128Y27018D01*
X34434Y26560D01*
X34892Y26254D01*
X35381Y26156D01*
X35557Y25927D01*
X35693Y25688D01*
X35595Y25197D01*
X35702Y24656D01*
X36009Y24198D01*
X36467Y23891D01*
X36956Y23794D01*
X37132Y23564D01*
X37267Y23326D01*
X37170Y22835D01*
X37277Y22294D01*
X37584Y21836D01*
X38042Y21529D01*
X38583Y21422D01*
X39123Y21529D01*
X39582Y21836D01*
X39888Y22294D01*
X39996Y22835D01*
X39888Y23375D01*
X39582Y23834D01*
X39123Y24140D01*
X38635Y24237D01*
X38458Y24467D01*
X38323Y24706D01*
X38421Y25197D01*
X38313Y25738D01*
X38007Y26196D01*
X37549Y26502D01*
X37060Y26599D01*
X36884Y26829D01*
X36748Y27068D01*
X36846Y27559D01*
X36738Y28100D01*
X36432Y28558D01*
X35974Y28864D01*
X35433Y28972D01*
D02*
G37*
G36*
X119255Y21859D02*
Y18704D01*
X122411D01*
X122322Y19379D01*
X121984Y20195D01*
X121446Y20895D01*
X120746Y21433D01*
X119930Y21770D01*
X119255Y21859D01*
D02*
G37*
G36*
X118855D02*
X118180Y21770D01*
X117364Y21433D01*
X116664Y20895D01*
X116127Y20195D01*
X115789Y19379D01*
X115700Y18704D01*
X118855D01*
Y21859D01*
D02*
G37*
G36*
X109055Y22673D02*
X108180Y22558D01*
X107364Y22220D01*
X106664Y21683D01*
X106126Y20982D01*
X105789Y20167D01*
X105673Y19291D01*
X105789Y18416D01*
X106126Y17601D01*
X106664Y16900D01*
X107364Y16363D01*
X108180Y16025D01*
X109055Y15910D01*
X109930Y16025D01*
X110746Y16363D01*
X111446Y16900D01*
X111984Y17601D01*
X112322Y18416D01*
X112437Y19291D01*
X112322Y20167D01*
X111984Y20982D01*
X111446Y21683D01*
X110746Y22220D01*
X109930Y22558D01*
X109055Y22673D01*
D02*
G37*
G36*
X77559Y18342D02*
X77018Y18235D01*
X76560Y17928D01*
X76254Y17470D01*
X76146Y16929D01*
X76254Y16388D01*
X76560Y15930D01*
X77018Y15624D01*
X77559Y15516D01*
X78100Y15624D01*
X78558Y15930D01*
X78865Y16388D01*
X78972Y16929D01*
X78865Y17470D01*
X78558Y17928D01*
X78100Y18235D01*
X77559Y18342D01*
D02*
G37*
G36*
X102408Y21857D02*
X95702D01*
Y15151D01*
X102408D01*
Y21857D01*
D02*
G37*
G36*
X122411Y18304D02*
X119255D01*
Y15149D01*
X119930Y15237D01*
X120746Y15575D01*
X121446Y16113D01*
X121984Y16813D01*
X122322Y17629D01*
X122411Y18304D01*
D02*
G37*
G36*
X118855D02*
X115700D01*
X115789Y17629D01*
X116127Y16813D01*
X116664Y16113D01*
X117364Y15575D01*
X118180Y15237D01*
X118855Y15149D01*
Y18304D01*
D02*
G37*
G36*
X171260Y13224D02*
X170719Y13116D01*
X170261Y12810D01*
X169954Y12352D01*
X169847Y11811D01*
X169954Y11270D01*
X170261Y10812D01*
X170719Y10506D01*
X171260Y10398D01*
X171801Y10506D01*
X172259Y10812D01*
X172565Y11270D01*
X172673Y11811D01*
X172565Y12352D01*
X172259Y12810D01*
X171801Y13116D01*
X171260Y13224D01*
D02*
G37*
G36*
X151181D02*
X150640Y13116D01*
X150182Y12810D01*
X149876Y12352D01*
X149768Y11811D01*
X149876Y11270D01*
X150182Y10812D01*
X150640Y10506D01*
X151181Y10398D01*
X151722Y10506D01*
X152180Y10812D01*
X152487Y11270D01*
X152594Y11811D01*
X152487Y12352D01*
X152180Y12810D01*
X151722Y13116D01*
X151181Y13224D01*
D02*
G37*
G36*
X146063D02*
X145522Y13116D01*
X145064Y12810D01*
X144758Y12352D01*
X144650Y11811D01*
X144758Y11270D01*
X145064Y10812D01*
X145522Y10506D01*
X146063Y10398D01*
X146604Y10506D01*
X147062Y10812D01*
X147368Y11270D01*
X147476Y11811D01*
X147368Y12352D01*
X147062Y12810D01*
X146604Y13116D01*
X146063Y13224D01*
D02*
G37*
G36*
X69291Y12437D02*
X68751Y12329D01*
X68292Y12023D01*
X67986Y11564D01*
X67878Y11024D01*
X67986Y10483D01*
X68292Y10024D01*
X68751Y9718D01*
X69291Y9611D01*
X69832Y9718D01*
X70290Y10024D01*
X70597Y10483D01*
X70704Y11024D01*
X70597Y11564D01*
X70290Y12023D01*
X69832Y12329D01*
X69291Y12437D01*
D02*
G37*
G36*
X54331D02*
X53790Y12329D01*
X53332Y12023D01*
X53025Y11564D01*
X52918Y11024D01*
X53025Y10483D01*
X53332Y10024D01*
X53790Y9718D01*
X54331Y9611D01*
X54871Y9718D01*
X55330Y10024D01*
X55636Y10483D01*
X55744Y11024D01*
X55636Y11564D01*
X55330Y12023D01*
X54871Y12329D01*
X54331Y12437D01*
D02*
G37*
G36*
X49213D02*
X48672Y12329D01*
X48213Y12023D01*
X47907Y11564D01*
X47800Y11024D01*
X47907Y10483D01*
X48213Y10024D01*
X48672Y9718D01*
X49213Y9611D01*
X49753Y9718D01*
X50212Y10024D01*
X50518Y10483D01*
X50626Y11024D01*
X50518Y11564D01*
X50212Y12023D01*
X49753Y12329D01*
X49213Y12437D01*
D02*
G37*
G36*
X206693Y26129D02*
X204761Y25977D01*
X202877Y25524D01*
X201086Y24783D01*
X199434Y23770D01*
X197961Y22512D01*
X196702Y21038D01*
X195690Y19386D01*
X194948Y17596D01*
X194496Y15711D01*
X194344Y13780D01*
X194496Y11848D01*
X194948Y9963D01*
X195690Y8173D01*
X196702Y6521D01*
X197961Y5047D01*
X199434Y3789D01*
X201086Y2776D01*
X202877Y2035D01*
X204761Y1582D01*
X206693Y1430D01*
X208625Y1582D01*
X210509Y2035D01*
X212299Y2776D01*
X213951Y3789D01*
X215425Y5047D01*
X216684Y6521D01*
X217696Y8173D01*
X218438Y9963D01*
X218890Y11848D01*
X219042Y13780D01*
X218890Y15711D01*
X218438Y17596D01*
X217696Y19386D01*
X216684Y21038D01*
X215425Y22512D01*
X213951Y23770D01*
X212299Y24783D01*
X210509Y25524D01*
X208625Y25977D01*
X206693Y26129D01*
D02*
G37*
G36*
X13780D02*
X11848Y25977D01*
X9963Y25524D01*
X8173Y24783D01*
X6521Y23770D01*
X5047Y22512D01*
X3789Y21038D01*
X2776Y19386D01*
X2035Y17596D01*
X1582Y15711D01*
X1430Y13780D01*
X1582Y11848D01*
X2035Y9963D01*
X2776Y8173D01*
X3789Y6521D01*
X5047Y5047D01*
X6521Y3789D01*
X8173Y2776D01*
X9963Y2035D01*
X11848Y1582D01*
X13780Y1430D01*
X15711Y1582D01*
X17596Y2035D01*
X19386Y2776D01*
X21038Y3789D01*
X22512Y5047D01*
X23770Y6521D01*
X24783Y8173D01*
X25524Y9963D01*
X25977Y11848D01*
X26129Y13780D01*
X25977Y15711D01*
X25524Y17596D01*
X24783Y19386D01*
X23770Y21038D01*
X22512Y22512D01*
X21038Y23770D01*
X19386Y24783D01*
X17596Y25524D01*
X15711Y25977D01*
X13780Y26129D01*
D02*
G37*
%LPD*%
G36*
X137008Y62205D02*
X129921D01*
Y51968D01*
X75848D01*
Y62434D01*
X24370Y62206D01*
X24016Y62559D01*
Y90945D01*
X137008D01*
Y62205D01*
D02*
G37*
G36*
X183858Y104724D02*
X183858Y33858D01*
X133118D01*
X113242D01*
X113091Y34358D01*
X113204Y34434D01*
X113510Y34892D01*
X113618Y35433D01*
X113510Y35974D01*
X113204Y36432D01*
X112745Y36738D01*
X112205Y36846D01*
X111664Y36738D01*
X111206Y36432D01*
X110899Y35974D01*
X110792Y35433D01*
X110899Y34892D01*
X111206Y34434D01*
X111319Y34358D01*
X111167Y33858D01*
X87652Y33858D01*
X87500Y34358D01*
X87613Y34434D01*
X87920Y34892D01*
X88027Y35433D01*
X87920Y35974D01*
X87613Y36432D01*
X87155Y36738D01*
X86614Y36846D01*
X86073Y36738D01*
X85615Y36432D01*
X85309Y35974D01*
X85201Y35433D01*
X85309Y34892D01*
X85615Y34434D01*
X85728Y34358D01*
X85577Y33858D01*
X82344D01*
X41339Y33858D01*
X41339Y61811D01*
X75415D01*
Y51968D01*
X75541Y51662D01*
X75848Y51535D01*
X129921D01*
X130227Y51662D01*
X130354Y51968D01*
Y61772D01*
X137008D01*
X137314Y61899D01*
X137441Y62205D01*
Y90945D01*
X137314Y91251D01*
X137008Y91378D01*
X113779D01*
Y104724D01*
X183858Y104724D01*
D02*
G37*
%LPC*%
G36*
X67402Y86767D02*
X66861Y86660D01*
X66403Y86353D01*
X66096Y85895D01*
X65989Y85354D01*
X66096Y84814D01*
X66403Y84355D01*
X66861Y84049D01*
X67402Y83941D01*
X67942Y84049D01*
X68401Y84355D01*
X68707Y84814D01*
X68815Y85354D01*
X68707Y85895D01*
X68401Y86353D01*
X67942Y86660D01*
X67402Y86767D01*
D02*
G37*
G36*
X120059Y84504D02*
X119518Y84396D01*
X119060Y84090D01*
X118754Y83631D01*
X118646Y83091D01*
X118754Y82550D01*
X119060Y82091D01*
X119518Y81785D01*
X120059Y81678D01*
X120600Y81785D01*
X121058Y82091D01*
X121364Y82550D01*
X121472Y83091D01*
X121364Y83631D01*
X121058Y84090D01*
X120600Y84396D01*
X120059Y84504D01*
D02*
G37*
G36*
X67638Y80074D02*
X67097Y79967D01*
X66639Y79660D01*
X66332Y79202D01*
X66225Y78661D01*
X66332Y78121D01*
X66639Y77662D01*
X67097Y77356D01*
X67638Y77248D01*
X68178Y77356D01*
X68637Y77662D01*
X68943Y78121D01*
X69051Y78661D01*
X68943Y79202D01*
X68637Y79660D01*
X68178Y79967D01*
X67638Y80074D01*
D02*
G37*
G36*
X93425Y79641D02*
X92884Y79534D01*
X92426Y79228D01*
X92120Y78769D01*
X92012Y78228D01*
X92120Y77688D01*
X92426Y77229D01*
X92884Y76923D01*
X93425Y76815D01*
X93966Y76923D01*
X94424Y77229D01*
X94731Y77688D01*
X94838Y78228D01*
X94731Y78769D01*
X94424Y79228D01*
X93966Y79534D01*
X93425Y79641D01*
D02*
G37*
G36*
X93583Y69641D02*
X93042Y69534D01*
X92584Y69227D01*
X92277Y68769D01*
X92170Y68228D01*
X92277Y67688D01*
X92584Y67229D01*
X93042Y66923D01*
X93583Y66815D01*
X94123Y66923D01*
X94582Y67229D01*
X94888Y67688D01*
X94996Y68228D01*
X94888Y68769D01*
X94582Y69227D01*
X94123Y69534D01*
X93583Y69641D01*
D02*
G37*
G36*
X111811Y63406D02*
X111270Y63298D01*
X110812Y62992D01*
X110506Y62534D01*
X110398Y61993D01*
X110506Y61452D01*
X110812Y60994D01*
X111270Y60688D01*
X111811Y60580D01*
X112352Y60688D01*
X112810Y60994D01*
X113116Y61452D01*
X113224Y61993D01*
X113116Y62534D01*
X112810Y62992D01*
X112352Y63298D01*
X111811Y63406D01*
D02*
G37*
G36*
X118110Y63224D02*
X117569Y63116D01*
X117111Y62810D01*
X116805Y62352D01*
X116697Y61811D01*
X116805Y61270D01*
X117111Y60812D01*
X117569Y60506D01*
X118110Y60398D01*
X118651Y60506D01*
X119109Y60812D01*
X119416Y61270D01*
X119523Y61811D01*
X119416Y62352D01*
X119109Y62810D01*
X118651Y63116D01*
X118110Y63224D01*
D02*
G37*
G36*
X92520D02*
X91979Y63116D01*
X91521Y62810D01*
X91214Y62352D01*
X91107Y61811D01*
X91214Y61270D01*
X91521Y60812D01*
X91979Y60506D01*
X92520Y60398D01*
X93060Y60506D01*
X93519Y60812D01*
X93825Y61270D01*
X93933Y61811D01*
X93825Y62352D01*
X93519Y62810D01*
X93060Y63116D01*
X92520Y63224D01*
D02*
G37*
G36*
X83858Y60468D02*
X83318Y60360D01*
X82859Y60054D01*
X82553Y59596D01*
X82445Y59055D01*
X82553Y58514D01*
X82859Y58056D01*
X83318Y57750D01*
X83858Y57642D01*
X84399Y57750D01*
X84857Y58056D01*
X85164Y58514D01*
X85271Y59055D01*
X85164Y59596D01*
X84857Y60054D01*
X84399Y60360D01*
X83858Y60468D01*
D02*
G37*
G36*
X112205Y60074D02*
X111664Y59967D01*
X111206Y59661D01*
X110899Y59202D01*
X110792Y58661D01*
X110899Y58121D01*
X111206Y57662D01*
X111664Y57356D01*
X112205Y57248D01*
X112745Y57356D01*
X113204Y57662D01*
X113510Y58121D01*
X113618Y58661D01*
X113510Y59202D01*
X113204Y59661D01*
X112745Y59967D01*
X112205Y60074D01*
D02*
G37*
G36*
X98032D02*
X97491Y59967D01*
X97032Y59661D01*
X96726Y59202D01*
X96618Y58661D01*
X96726Y58121D01*
X97032Y57662D01*
X97491Y57356D01*
X98032Y57248D01*
X98572Y57356D01*
X99031Y57662D01*
X99337Y58121D01*
X99445Y58661D01*
X99337Y59202D01*
X99031Y59661D01*
X98572Y59967D01*
X98032Y60074D01*
D02*
G37*
G36*
X88976D02*
X88436Y59967D01*
X87977Y59661D01*
X87671Y59202D01*
X87563Y58661D01*
X87671Y58121D01*
X87977Y57662D01*
X88436Y57356D01*
X88976Y57248D01*
X89517Y57356D01*
X89976Y57662D01*
X90282Y58121D01*
X90389Y58661D01*
X90282Y59202D01*
X89976Y59661D01*
X89517Y59967D01*
X88976Y60074D01*
D02*
G37*
G36*
X121260Y59681D02*
X120719Y59573D01*
X120261Y59267D01*
X119954Y58808D01*
X119847Y58268D01*
X119954Y57727D01*
X120261Y57269D01*
X120719Y56962D01*
X121260Y56855D01*
X121801Y56962D01*
X122259Y57269D01*
X122565Y57727D01*
X122673Y58268D01*
X122565Y58808D01*
X122259Y59267D01*
X121801Y59573D01*
X121260Y59681D01*
D02*
G37*
G36*
X145984Y73933D02*
X145443Y73825D01*
X144985Y73519D01*
X144679Y73060D01*
X144571Y72520D01*
X144679Y71979D01*
X144985Y71521D01*
X145443Y71214D01*
X145984Y71107D01*
X146525Y71214D01*
X146983Y71521D01*
X147290Y71979D01*
X147397Y72520D01*
X147290Y73060D01*
X146983Y73519D01*
X146525Y73825D01*
X145984Y73933D01*
D02*
G37*
G36*
Y67240D02*
X145443Y67132D01*
X144985Y66826D01*
X144679Y66368D01*
X144571Y65827D01*
X144679Y65286D01*
X144985Y64828D01*
X145443Y64521D01*
X145984Y64414D01*
X146525Y64521D01*
X146983Y64828D01*
X147290Y65286D01*
X147397Y65827D01*
X147290Y66368D01*
X146983Y66826D01*
X146525Y67132D01*
X145984Y67240D01*
D02*
G37*
G36*
X158861Y49418D02*
Y46263D01*
X162017D01*
X161928Y46938D01*
X161590Y47754D01*
X161053Y48454D01*
X160352Y48992D01*
X159537Y49329D01*
X158861Y49418D01*
D02*
G37*
G36*
X66893D02*
Y46263D01*
X70048D01*
X69959Y46938D01*
X69621Y47754D01*
X69084Y48454D01*
X68384Y48992D01*
X67568Y49329D01*
X66893Y49418D01*
D02*
G37*
G36*
X56893D02*
Y46263D01*
X60048D01*
X59959Y46938D01*
X59622Y47754D01*
X59084Y48454D01*
X58384Y48992D01*
X57568Y49329D01*
X56893Y49418D01*
D02*
G37*
G36*
X66493D02*
X65818Y49329D01*
X65002Y48992D01*
X64302Y48454D01*
X63764Y47754D01*
X63427Y46938D01*
X63338Y46263D01*
X66493D01*
Y49418D01*
D02*
G37*
G36*
X56493D02*
X55818Y49329D01*
X55002Y48992D01*
X54302Y48454D01*
X53764Y47754D01*
X53426Y46938D01*
X53338Y46263D01*
X56493D01*
Y49418D01*
D02*
G37*
G36*
X158461D02*
X157786Y49329D01*
X156971Y48992D01*
X156270Y48454D01*
X155733Y47754D01*
X155395Y46938D01*
X155306Y46263D01*
X158461D01*
Y49418D01*
D02*
G37*
G36*
X99851Y47083D02*
X99310Y46975D01*
X98852Y46669D01*
X98545Y46211D01*
X98438Y45670D01*
X98545Y45129D01*
X98852Y44671D01*
X99310Y44365D01*
X99851Y44257D01*
X100392Y44365D01*
X100850Y44671D01*
X101156Y45129D01*
X101264Y45670D01*
X101156Y46211D01*
X100850Y46669D01*
X100392Y46975D01*
X99851Y47083D01*
D02*
G37*
G36*
X125418Y46939D02*
X124878Y46832D01*
X124419Y46525D01*
X124113Y46067D01*
X124005Y45526D01*
X124113Y44986D01*
X124419Y44527D01*
X124878Y44221D01*
X125418Y44113D01*
X125959Y44221D01*
X126417Y44527D01*
X126724Y44986D01*
X126831Y45526D01*
X126724Y46067D01*
X126417Y46525D01*
X125959Y46832D01*
X125418Y46939D01*
D02*
G37*
G36*
X182014Y49416D02*
X175309D01*
Y42710D01*
X182014D01*
Y49416D01*
D02*
G37*
G36*
X80046D02*
X73340D01*
Y42710D01*
X80046D01*
Y49416D01*
D02*
G37*
G36*
X162017Y45863D02*
X158861D01*
Y42708D01*
X159537Y42796D01*
X160352Y43134D01*
X161053Y43672D01*
X161590Y44372D01*
X161928Y45188D01*
X162017Y45863D01*
D02*
G37*
G36*
X70048D02*
X66893D01*
Y42708D01*
X67568Y42796D01*
X68384Y43134D01*
X69084Y43672D01*
X69621Y44372D01*
X69959Y45188D01*
X70048Y45863D01*
D02*
G37*
G36*
X60048D02*
X56893D01*
Y42708D01*
X57568Y42796D01*
X58384Y43134D01*
X59084Y43672D01*
X59622Y44372D01*
X59959Y45188D01*
X60048Y45863D01*
D02*
G37*
G36*
X66493D02*
X63338D01*
X63427Y45188D01*
X63764Y44372D01*
X64302Y43672D01*
X65002Y43134D01*
X65818Y42796D01*
X66493Y42708D01*
Y45863D01*
D02*
G37*
G36*
X56493D02*
X53338D01*
X53426Y45188D01*
X53764Y44372D01*
X54302Y43672D01*
X55002Y43134D01*
X55818Y42796D01*
X56493Y42708D01*
Y45863D01*
D02*
G37*
G36*
X158461D02*
X155306D01*
X155395Y45188D01*
X155733Y44372D01*
X156270Y43672D01*
X156971Y43134D01*
X157786Y42796D01*
X158461Y42708D01*
Y45863D01*
D02*
G37*
G36*
X168661Y49445D02*
X167786Y49329D01*
X166971Y48992D01*
X166270Y48454D01*
X165733Y47754D01*
X165395Y46938D01*
X165280Y46063D01*
X165395Y45188D01*
X165733Y44372D01*
X166270Y43672D01*
X166971Y43134D01*
X167786Y42796D01*
X168661Y42681D01*
X169537Y42796D01*
X170352Y43134D01*
X171053Y43672D01*
X171590Y44372D01*
X171928Y45188D01*
X172043Y46063D01*
X171928Y46938D01*
X171590Y47754D01*
X171053Y48454D01*
X170352Y48992D01*
X169537Y49329D01*
X168661Y49445D01*
D02*
G37*
G36*
X148661D02*
X147786Y49329D01*
X146971Y48992D01*
X146270Y48454D01*
X145733Y47754D01*
X145395Y46938D01*
X145280Y46063D01*
X145395Y45188D01*
X145733Y44372D01*
X146270Y43672D01*
X146971Y43134D01*
X147786Y42796D01*
X148661Y42681D01*
X149537Y42796D01*
X150352Y43134D01*
X151053Y43672D01*
X151590Y44372D01*
X151928Y45188D01*
X152043Y46063D01*
X151928Y46938D01*
X151590Y47754D01*
X151053Y48454D01*
X150352Y48992D01*
X149537Y49329D01*
X148661Y49445D01*
D02*
G37*
G36*
X138661D02*
X137786Y49329D01*
X136971Y48992D01*
X136270Y48454D01*
X135733Y47754D01*
X135395Y46938D01*
X135280Y46063D01*
X135395Y45188D01*
X135733Y44372D01*
X136270Y43672D01*
X136971Y43134D01*
X137786Y42796D01*
X138661Y42681D01*
X139537Y42796D01*
X140352Y43134D01*
X141053Y43672D01*
X141590Y44372D01*
X141928Y45188D01*
X142043Y46063D01*
X141928Y46938D01*
X141590Y47754D01*
X141053Y48454D01*
X140352Y48992D01*
X139537Y49329D01*
X138661Y49445D01*
D02*
G37*
G36*
X46693D02*
X45818Y49329D01*
X45002Y48992D01*
X44302Y48454D01*
X43764Y47754D01*
X43426Y46938D01*
X43311Y46063D01*
X43426Y45188D01*
X43764Y44372D01*
X44302Y43672D01*
X45002Y43134D01*
X45818Y42796D01*
X46693Y42681D01*
X47568Y42796D01*
X48384Y43134D01*
X49084Y43672D01*
X49621Y44372D01*
X49959Y45188D01*
X50075Y46063D01*
X49959Y46938D01*
X49621Y47754D01*
X49084Y48454D01*
X48384Y48992D01*
X47568Y49329D01*
X46693Y49445D01*
D02*
G37*
G36*
X112992Y41570D02*
X112451Y41463D01*
X111993Y41157D01*
X111687Y40698D01*
X111579Y40157D01*
X111687Y39617D01*
X111993Y39158D01*
X112451Y38852D01*
X112992Y38745D01*
X113533Y38852D01*
X113991Y39158D01*
X114297Y39617D01*
X114405Y40157D01*
X114297Y40698D01*
X113991Y41157D01*
X113533Y41463D01*
X112992Y41570D01*
D02*
G37*
G36*
X87402D02*
X86861Y41463D01*
X86402Y41157D01*
X86096Y40698D01*
X85989Y40157D01*
X86096Y39617D01*
X86402Y39158D01*
X86861Y38852D01*
X87402Y38745D01*
X87942Y38852D01*
X88401Y39158D01*
X88707Y39617D01*
X88815Y40157D01*
X88707Y40698D01*
X88401Y41157D01*
X87942Y41463D01*
X87402Y41570D01*
D02*
G37*
G36*
X161024Y39996D02*
X160483Y39888D01*
X160024Y39582D01*
X159718Y39123D01*
X159611Y38583D01*
X159718Y38042D01*
X160024Y37584D01*
X160483Y37277D01*
X161024Y37170D01*
X161564Y37277D01*
X162023Y37584D01*
X162329Y38042D01*
X162437Y38583D01*
X162329Y39123D01*
X162023Y39582D01*
X161564Y39888D01*
X161024Y39996D01*
D02*
G37*
G36*
X151181D02*
X150640Y39888D01*
X150182Y39582D01*
X149876Y39123D01*
X149768Y38583D01*
X149876Y38042D01*
X150182Y37584D01*
X150640Y37277D01*
X151181Y37170D01*
X151722Y37277D01*
X152180Y37584D01*
X152487Y38042D01*
X152594Y38583D01*
X152487Y39123D01*
X152180Y39582D01*
X151722Y39888D01*
X151181Y39996D01*
D02*
G37*
G36*
X69291Y39208D02*
X68751Y39101D01*
X68292Y38794D01*
X67986Y38336D01*
X67878Y37795D01*
X67986Y37255D01*
X68292Y36796D01*
X68751Y36490D01*
X69291Y36382D01*
X69832Y36490D01*
X70290Y36796D01*
X70597Y37255D01*
X70704Y37795D01*
X70597Y38336D01*
X70290Y38794D01*
X69832Y39101D01*
X69291Y39208D01*
D02*
G37*
G36*
X64173D02*
X63633Y39101D01*
X63174Y38794D01*
X62868Y38336D01*
X62760Y37795D01*
X62868Y37255D01*
X63174Y36796D01*
X63633Y36490D01*
X64173Y36382D01*
X64714Y36490D01*
X65172Y36796D01*
X65479Y37255D01*
X65586Y37795D01*
X65479Y38336D01*
X65172Y38794D01*
X64714Y39101D01*
X64173Y39208D01*
D02*
G37*
G36*
X54331D02*
X53790Y39101D01*
X53332Y38794D01*
X53025Y38336D01*
X52918Y37795D01*
X53025Y37255D01*
X53332Y36796D01*
X53790Y36490D01*
X54331Y36382D01*
X54871Y36490D01*
X55330Y36796D01*
X55636Y37255D01*
X55744Y37795D01*
X55636Y38336D01*
X55330Y38794D01*
X54871Y39101D01*
X54331Y39208D01*
D02*
G37*
%LPD*%
D61*
X18898Y113071D02*
X25984D01*
Y33071D02*
Y113071D01*
X18898Y33071D02*
X25984D01*
D65*
X57087Y235827D02*
D03*
X200394Y196063D02*
D03*
D66*
X57087Y218110D02*
D03*
X182677Y196063D02*
D03*
D67*
X119055Y18504D02*
D03*
X109055Y19291D02*
D03*
X138661Y46063D02*
D03*
X148661D02*
D03*
X158661D02*
D03*
X168661D02*
D03*
X46693D02*
D03*
X56693D02*
D03*
X66693D02*
D03*
X8898Y223071D02*
D03*
X18898D02*
D03*
X8898Y213071D02*
D03*
X18898D02*
D03*
X8898Y203071D02*
D03*
X18898D02*
D03*
X8898Y193071D02*
D03*
X18898D02*
D03*
X8898Y183071D02*
D03*
X18898D02*
D03*
X8898Y173071D02*
D03*
X18898D02*
D03*
X8898Y163071D02*
D03*
X18898D02*
D03*
X8898Y153071D02*
D03*
X18898D02*
D03*
X8898Y143071D02*
D03*
X18898D02*
D03*
X8898Y133071D02*
D03*
X18898D02*
D03*
X8898Y123071D02*
D03*
X18898D02*
D03*
X8898Y113071D02*
D03*
X18898D02*
D03*
X8898Y103071D02*
D03*
X18898D02*
D03*
X8898Y93071D02*
D03*
X18898D02*
D03*
X8898Y83071D02*
D03*
X18898D02*
D03*
X8898Y73071D02*
D03*
X18898D02*
D03*
X8898Y63071D02*
D03*
X18898D02*
D03*
X8898Y53071D02*
D03*
X18898D02*
D03*
X8898Y43071D02*
D03*
X18898D02*
D03*
X8898Y33071D02*
D03*
D68*
X99055Y18504D02*
D03*
X178661Y46063D02*
D03*
X76693D02*
D03*
D69*
X18898Y33071D02*
D03*
D70*
X215354Y128347D02*
D03*
Y111811D02*
D03*
X83858Y59055D02*
D03*
X67402Y85354D02*
D03*
X67638Y78661D02*
D03*
X35421Y139382D02*
D03*
X111811Y61993D02*
D03*
X30630Y53071D02*
D03*
X120059Y83091D02*
D03*
X93583Y68228D02*
D03*
X93150Y83228D02*
D03*
X80433Y68228D02*
D03*
X93425Y78228D02*
D03*
X145984Y65827D02*
D03*
Y72520D02*
D03*
X133051Y83091D02*
D03*
X120453Y68090D02*
D03*
X119291Y25984D02*
D03*
X125984D02*
D03*
X171260Y11811D02*
D03*
X200787Y114961D02*
D03*
X200394Y125197D02*
D03*
X38583Y22835D02*
D03*
X37008Y25197D02*
D03*
X35433Y27559D02*
D03*
X143341Y28690D02*
D03*
X77165Y104331D02*
D03*
X92520Y61811D02*
D03*
X104331Y55905D02*
D03*
X88976Y58661D02*
D03*
X121260Y58268D02*
D03*
X69291Y37795D02*
D03*
X54331D02*
D03*
Y11024D02*
D03*
X49213D02*
D03*
X151181Y38583D02*
D03*
X146063Y11811D02*
D03*
X151181D02*
D03*
X98032Y58661D02*
D03*
X112205D02*
D03*
X49213Y25984D02*
D03*
X54331D02*
D03*
X69291Y11024D02*
D03*
X156299Y11811D02*
D03*
X161024Y38583D02*
D03*
X166142Y23622D02*
D03*
Y26772D02*
D03*
X171260Y25984D02*
D03*
X77559Y16929D02*
D03*
Y31890D02*
D03*
X64173Y37795D02*
D03*
X59449Y22835D02*
D03*
X127953Y35433D02*
D03*
X102362Y35433D02*
D03*
X127944Y53470D02*
D03*
X102359Y53470D02*
D03*
X114567Y218110D02*
D03*
X118504Y203937D02*
D03*
X112992Y40157D02*
D03*
X118110Y61811D02*
D03*
X127165Y55905D02*
D03*
X83071D02*
D03*
X108661D02*
D03*
X112205Y35433D02*
D03*
X125418Y45526D02*
D03*
X99851Y45670D02*
D03*
X86614Y35433D02*
D03*
X87402Y40157D02*
D03*
D71*
X111417Y222047D02*
D03*
X105709Y222244D02*
D03*
X100000Y222047D02*
D03*
D72*
X200394Y223622D02*
D03*
X206299Y217717D02*
D03*
X200394Y211811D02*
D03*
X194488Y217717D02*
D03*
X176181Y223622D02*
D03*
X182087Y217717D02*
D03*
X176181Y211811D02*
D03*
X170276Y217717D02*
D03*
X35433Y217520D02*
D03*
X41339Y211614D02*
D03*
X35433Y205709D02*
D03*
X29528Y211614D02*
D03*
Y235827D02*
D03*
X35433Y229921D02*
D03*
X41339Y235827D02*
D03*
X35433Y241732D02*
D03*
X161417Y130315D02*
D03*
X155905D02*
D03*
D73*
X125591Y96457D02*
D03*
X120866D02*
D03*
X116142D02*
D03*
Y100787D02*
D03*
X120866D02*
D03*
X125591D02*
D03*
X101969Y162205D02*
D03*
X99606D02*
D03*
Y159843D02*
D03*
X101969D02*
D03*
X104331D02*
D03*
X98032Y131102D02*
D03*
X101969D02*
D03*
Y127559D02*
D03*
X98032D02*
D03*
X84646Y115748D02*
D03*
X89370D02*
D03*
X88189Y157087D02*
D03*
X83858D02*
D03*
X88189Y153543D02*
D03*
X83858D02*
D03*
X86614Y150394D02*
D03*
Y146457D02*
D03*
Y140945D02*
D03*
Y134646D02*
D03*
Y128347D02*
D03*
Y122047D02*
D03*
X148819Y127559D02*
D03*
X152756D02*
D03*
Y131102D02*
D03*
X148819D02*
D03*
X140157Y115748D02*
D03*
X135433D02*
D03*
X137402Y122047D02*
D03*
Y128347D02*
D03*
Y134646D02*
D03*
Y140945D02*
D03*
Y146457D02*
D03*
Y150394D02*
D03*
X134646Y153543D02*
D03*
X138976D02*
D03*
X134646Y157087D02*
D03*
X138976D02*
D03*
X155118Y159843D02*
D03*
X152756D02*
D03*
X150394D02*
D03*
Y162205D02*
D03*
X152756D02*
D03*
D74*
X152362Y172835D02*
D03*
X101575D02*
D03*
X75984Y162992D02*
D03*
X126772D02*
D03*
D75*
X206693Y242126D02*
D03*
X13780D02*
D03*
Y13780D02*
D03*
X206693D02*
D03*
M02*
