G04*
G04 #@! TF.GenerationSoftware,Altium Limited,Altium Designer,21.7.2 (23)*
G04*
G04 Layer_Physical_Order=2*
G04 Layer_Color=36540*
%FSLAX25Y25*%
%MOIN*%
G70*
G04*
G04 #@! TF.SameCoordinates,72A3C6AD-17B6-4F61-9830-52E5D45F99D0*
G04*
G04*
G04 #@! TF.FilePolarity,Positive*
G04*
G01*
G75*
%ADD11C,0.00787*%
%ADD39C,0.05906*%
%ADD41C,0.04331*%
%ADD43R,0.05906X0.05906*%
%ADD44C,0.01772*%
G36*
X474856Y357642D02*
X476456Y357214D01*
X477987Y356579D01*
X479422Y355751D01*
X480736Y354743D01*
X481908Y353571D01*
X482916Y352257D01*
X483745Y350822D01*
X484379Y349291D01*
X484808Y347691D01*
X485024Y346048D01*
Y345220D01*
Y116198D01*
Y115369D01*
X484808Y113727D01*
X484379Y112126D01*
X483745Y110596D01*
X482916Y109161D01*
X481908Y107846D01*
X480736Y106675D01*
X479422Y105666D01*
X477987Y104838D01*
X476456Y104204D01*
X474856Y103775D01*
X473213Y103559D01*
X277942D01*
X276303Y103774D01*
X274706Y104202D01*
X273179Y104835D01*
X271747Y105661D01*
X270435Y106668D01*
X269266Y107837D01*
X268260Y109148D01*
X267433Y110580D01*
X266801Y112107D01*
X266373Y113704D01*
X266157Y115343D01*
Y116170D01*
Y345220D01*
Y346048D01*
X266373Y347691D01*
X266802Y349291D01*
X267436Y350822D01*
X268265Y352256D01*
X269273Y353571D01*
X270445Y354743D01*
X271759Y355751D01*
X273194Y356579D01*
X274725Y357214D01*
X276325Y357642D01*
X277968Y357859D01*
X473213D01*
X474856Y357642D01*
D02*
G37*
%LPC*%
G36*
X472047Y357231D02*
X470115Y357079D01*
X468231Y356627D01*
X466441Y355885D01*
X464789Y354872D01*
X463315Y353614D01*
X462057Y352140D01*
X461044Y350488D01*
X460303Y348698D01*
X459850Y346814D01*
X459698Y344882D01*
X459850Y342950D01*
X460303Y341066D01*
X461044Y339276D01*
X462057Y337623D01*
X463315Y336150D01*
X464789Y334891D01*
X466441Y333879D01*
X468231Y333137D01*
X470115Y332685D01*
X472047Y332533D01*
X473979Y332685D01*
X475863Y333137D01*
X477654Y333879D01*
X479306Y334891D01*
X480779Y336150D01*
X482038Y337623D01*
X483050Y339276D01*
X483792Y341066D01*
X484244Y342950D01*
X484396Y344882D01*
X484244Y346814D01*
X483792Y348698D01*
X483050Y350488D01*
X482038Y352140D01*
X480779Y353614D01*
X479306Y354872D01*
X477654Y355885D01*
X475863Y356627D01*
X473979Y357079D01*
X472047Y357231D01*
D02*
G37*
G36*
X279134D02*
X277202Y357079D01*
X275318Y356627D01*
X273528Y355885D01*
X271875Y354872D01*
X270402Y353614D01*
X269143Y352140D01*
X268131Y350488D01*
X267389Y348698D01*
X266937Y346814D01*
X266785Y344882D01*
X266937Y342950D01*
X267389Y341066D01*
X268131Y339276D01*
X269143Y337623D01*
X270402Y336150D01*
X271875Y334891D01*
X273528Y333879D01*
X275318Y333137D01*
X277202Y332685D01*
X279134Y332533D01*
X281066Y332685D01*
X282950Y333137D01*
X284740Y333879D01*
X286392Y334891D01*
X287866Y336150D01*
X289124Y337623D01*
X290137Y339276D01*
X290879Y341066D01*
X291331Y342950D01*
X291483Y344882D01*
X291331Y346814D01*
X290879Y348698D01*
X290137Y350488D01*
X289124Y352140D01*
X287866Y353614D01*
X286392Y354872D01*
X284740Y355885D01*
X282950Y356627D01*
X281066Y357079D01*
X279134Y357231D01*
D02*
G37*
G36*
X284452Y329182D02*
Y326027D01*
X287607D01*
X287518Y326702D01*
X287181Y327518D01*
X286643Y328218D01*
X285943Y328755D01*
X285127Y329093D01*
X284452Y329182D01*
D02*
G37*
G36*
X284052D02*
X283377Y329093D01*
X282561Y328755D01*
X281861Y328218D01*
X281323Y327518D01*
X280985Y326702D01*
X280897Y326027D01*
X284052D01*
Y329182D01*
D02*
G37*
G36*
Y325627D02*
X280897D01*
X280985Y324952D01*
X281323Y324136D01*
X281861Y323436D01*
X282561Y322898D01*
X283377Y322560D01*
X284052Y322471D01*
Y325627D01*
D02*
G37*
G36*
X287607D02*
X284452D01*
Y322471D01*
X285127Y322560D01*
X285943Y322898D01*
X286643Y323436D01*
X287181Y324136D01*
X287518Y324952D01*
X287607Y325627D01*
D02*
G37*
G36*
X274252Y329208D02*
X273377Y329093D01*
X272561Y328755D01*
X271861Y328218D01*
X271323Y327518D01*
X270986Y326702D01*
X270870Y325827D01*
X270986Y324952D01*
X271323Y324136D01*
X271861Y323436D01*
X272561Y322898D01*
X273377Y322560D01*
X274252Y322445D01*
X275127Y322560D01*
X275943Y322898D01*
X276643Y323436D01*
X277181Y324136D01*
X277518Y324952D01*
X277634Y325827D01*
X277518Y326702D01*
X277181Y327518D01*
X276643Y328218D01*
X275943Y328755D01*
X275127Y329093D01*
X274252Y329208D01*
D02*
G37*
G36*
X284252Y319208D02*
X283377Y319093D01*
X282561Y318755D01*
X281861Y318218D01*
X281323Y317518D01*
X280985Y316702D01*
X280870Y315827D01*
X280985Y314951D01*
X281323Y314136D01*
X281861Y313436D01*
X282561Y312898D01*
X283377Y312560D01*
X284252Y312445D01*
X285127Y312560D01*
X285943Y312898D01*
X286643Y313436D01*
X287181Y314136D01*
X287518Y314951D01*
X287634Y315827D01*
X287518Y316702D01*
X287181Y317518D01*
X286643Y318218D01*
X285943Y318755D01*
X285127Y319093D01*
X284252Y319208D01*
D02*
G37*
G36*
X274252D02*
X273377Y319093D01*
X272561Y318755D01*
X271861Y318218D01*
X271323Y317518D01*
X270986Y316702D01*
X270870Y315827D01*
X270986Y314951D01*
X271323Y314136D01*
X271861Y313436D01*
X272561Y312898D01*
X273377Y312560D01*
X274252Y312445D01*
X275127Y312560D01*
X275943Y312898D01*
X276643Y313436D01*
X277181Y314136D01*
X277518Y314951D01*
X277634Y315827D01*
X277518Y316702D01*
X277181Y317518D01*
X276643Y318218D01*
X275943Y318755D01*
X275127Y319093D01*
X274252Y319208D01*
D02*
G37*
G36*
X284252Y309208D02*
X283377Y309093D01*
X282561Y308755D01*
X281861Y308218D01*
X281323Y307518D01*
X280985Y306702D01*
X280870Y305827D01*
X280985Y304952D01*
X281323Y304136D01*
X281861Y303436D01*
X282561Y302898D01*
X283377Y302560D01*
X284252Y302445D01*
X285127Y302560D01*
X285943Y302898D01*
X286643Y303436D01*
X287181Y304136D01*
X287518Y304952D01*
X287634Y305827D01*
X287518Y306702D01*
X287181Y307518D01*
X286643Y308218D01*
X285943Y308755D01*
X285127Y309093D01*
X284252Y309208D01*
D02*
G37*
G36*
X274252D02*
X273377Y309093D01*
X272561Y308755D01*
X271861Y308218D01*
X271323Y307518D01*
X270986Y306702D01*
X270870Y305827D01*
X270986Y304952D01*
X271323Y304136D01*
X271861Y303436D01*
X272561Y302898D01*
X273377Y302560D01*
X274252Y302445D01*
X275127Y302560D01*
X275943Y302898D01*
X276643Y303436D01*
X277181Y304136D01*
X277518Y304952D01*
X277634Y305827D01*
X277518Y306702D01*
X277181Y307518D01*
X276643Y308218D01*
X275943Y308755D01*
X275127Y309093D01*
X274252Y309208D01*
D02*
G37*
G36*
X274452Y299182D02*
Y296027D01*
X277607D01*
X277518Y296702D01*
X277181Y297518D01*
X276643Y298218D01*
X275943Y298755D01*
X275127Y299093D01*
X274452Y299182D01*
D02*
G37*
G36*
X274052D02*
X273377Y299093D01*
X272561Y298755D01*
X271861Y298218D01*
X271323Y297518D01*
X270986Y296702D01*
X270897Y296027D01*
X274052D01*
Y299182D01*
D02*
G37*
G36*
Y295627D02*
X270897D01*
X270986Y294952D01*
X271323Y294136D01*
X271861Y293436D01*
X272561Y292898D01*
X273377Y292560D01*
X274052Y292471D01*
Y295627D01*
D02*
G37*
G36*
X277607D02*
X274452D01*
Y292471D01*
X275127Y292560D01*
X275943Y292898D01*
X276643Y293436D01*
X277181Y294136D01*
X277518Y294952D01*
X277607Y295627D01*
D02*
G37*
G36*
X284252Y299208D02*
X283377Y299093D01*
X282561Y298755D01*
X281861Y298218D01*
X281323Y297518D01*
X280985Y296702D01*
X280870Y295827D01*
X280985Y294952D01*
X281323Y294136D01*
X281861Y293436D01*
X282561Y292898D01*
X283377Y292560D01*
X284252Y292445D01*
X285127Y292560D01*
X285943Y292898D01*
X286643Y293436D01*
X287181Y294136D01*
X287518Y294952D01*
X287634Y295827D01*
X287518Y296702D01*
X287181Y297518D01*
X286643Y298218D01*
X285943Y298755D01*
X285127Y299093D01*
X284252Y299208D01*
D02*
G37*
G36*
Y289208D02*
X283377Y289093D01*
X282561Y288755D01*
X281861Y288218D01*
X281323Y287518D01*
X280985Y286702D01*
X280870Y285827D01*
X280985Y284951D01*
X281323Y284136D01*
X281861Y283436D01*
X282561Y282898D01*
X283377Y282560D01*
X284252Y282445D01*
X285127Y282560D01*
X285943Y282898D01*
X286643Y283436D01*
X287181Y284136D01*
X287518Y284951D01*
X287634Y285827D01*
X287518Y286702D01*
X287181Y287518D01*
X286643Y288218D01*
X285943Y288755D01*
X285127Y289093D01*
X284252Y289208D01*
D02*
G37*
G36*
X274252D02*
X273377Y289093D01*
X272561Y288755D01*
X271861Y288218D01*
X271323Y287518D01*
X270986Y286702D01*
X270870Y285827D01*
X270986Y284951D01*
X271323Y284136D01*
X271861Y283436D01*
X272561Y282898D01*
X273377Y282560D01*
X274252Y282445D01*
X275127Y282560D01*
X275943Y282898D01*
X276643Y283436D01*
X277181Y284136D01*
X277518Y284951D01*
X277634Y285827D01*
X277518Y286702D01*
X277181Y287518D01*
X276643Y288218D01*
X275943Y288755D01*
X275127Y289093D01*
X274252Y289208D01*
D02*
G37*
G36*
X274452Y279182D02*
Y276027D01*
X277607D01*
X277518Y276702D01*
X277181Y277518D01*
X276643Y278218D01*
X275943Y278755D01*
X275127Y279093D01*
X274452Y279182D01*
D02*
G37*
G36*
X274052D02*
X273377Y279093D01*
X272561Y278755D01*
X271861Y278218D01*
X271323Y277518D01*
X270986Y276702D01*
X270897Y276027D01*
X274052D01*
Y279182D01*
D02*
G37*
G36*
Y275627D02*
X270897D01*
X270986Y274952D01*
X271323Y274136D01*
X271861Y273436D01*
X272561Y272898D01*
X273377Y272560D01*
X274052Y272471D01*
Y275627D01*
D02*
G37*
G36*
X277607D02*
X274452D01*
Y272471D01*
X275127Y272560D01*
X275943Y272898D01*
X276643Y273436D01*
X277181Y274136D01*
X277518Y274952D01*
X277607Y275627D01*
D02*
G37*
G36*
X284252Y279208D02*
X283377Y279093D01*
X282561Y278755D01*
X281861Y278218D01*
X281323Y277518D01*
X280985Y276702D01*
X280870Y275827D01*
X280985Y274952D01*
X281323Y274136D01*
X281861Y273436D01*
X282561Y272898D01*
X283377Y272560D01*
X284252Y272445D01*
X285127Y272560D01*
X285943Y272898D01*
X286643Y273436D01*
X287181Y274136D01*
X287518Y274952D01*
X287634Y275827D01*
X287518Y276702D01*
X287181Y277518D01*
X286643Y278218D01*
X285943Y278755D01*
X285127Y279093D01*
X284252Y279208D01*
D02*
G37*
G36*
Y269208D02*
X283377Y269093D01*
X282561Y268755D01*
X281861Y268218D01*
X281323Y267518D01*
X280985Y266702D01*
X280870Y265827D01*
X280985Y264951D01*
X281323Y264136D01*
X281861Y263436D01*
X282561Y262898D01*
X283377Y262560D01*
X284252Y262445D01*
X285127Y262560D01*
X285943Y262898D01*
X286643Y263436D01*
X287181Y264136D01*
X287518Y264951D01*
X287634Y265827D01*
X287518Y266702D01*
X287181Y267518D01*
X286643Y268218D01*
X285943Y268755D01*
X285127Y269093D01*
X284252Y269208D01*
D02*
G37*
G36*
X274252D02*
X273377Y269093D01*
X272561Y268755D01*
X271861Y268218D01*
X271323Y267518D01*
X270986Y266702D01*
X270870Y265827D01*
X270986Y264951D01*
X271323Y264136D01*
X271861Y263436D01*
X272561Y262898D01*
X273377Y262560D01*
X274252Y262445D01*
X275127Y262560D01*
X275943Y262898D01*
X276643Y263436D01*
X277181Y264136D01*
X277518Y264951D01*
X277634Y265827D01*
X277518Y266702D01*
X277181Y267518D01*
X276643Y268218D01*
X275943Y268755D01*
X275127Y269093D01*
X274252Y269208D01*
D02*
G37*
G36*
X284452Y259182D02*
Y256027D01*
X287607D01*
X287518Y256702D01*
X287181Y257518D01*
X286643Y258218D01*
X285943Y258755D01*
X285127Y259093D01*
X284452Y259182D01*
D02*
G37*
G36*
X284052D02*
X283377Y259093D01*
X282561Y258755D01*
X281861Y258218D01*
X281323Y257518D01*
X280985Y256702D01*
X280897Y256027D01*
X284052D01*
Y259182D01*
D02*
G37*
G36*
Y255627D02*
X280897D01*
X280985Y254952D01*
X281323Y254136D01*
X281861Y253436D01*
X282561Y252898D01*
X283377Y252560D01*
X284052Y252471D01*
Y255627D01*
D02*
G37*
G36*
X287607D02*
X284452D01*
Y252471D01*
X285127Y252560D01*
X285943Y252898D01*
X286643Y253436D01*
X287181Y254136D01*
X287518Y254952D01*
X287607Y255627D01*
D02*
G37*
G36*
X274252Y259208D02*
X273377Y259093D01*
X272561Y258755D01*
X271861Y258218D01*
X271323Y257518D01*
X270986Y256702D01*
X270870Y255827D01*
X270986Y254952D01*
X271323Y254136D01*
X271861Y253436D01*
X272561Y252898D01*
X273377Y252560D01*
X274252Y252445D01*
X275127Y252560D01*
X275943Y252898D01*
X276643Y253436D01*
X277181Y254136D01*
X277518Y254952D01*
X277634Y255827D01*
X277518Y256702D01*
X277181Y257518D01*
X276643Y258218D01*
X275943Y258755D01*
X275127Y259093D01*
X274252Y259208D01*
D02*
G37*
G36*
X284252Y249208D02*
X283377Y249093D01*
X282561Y248755D01*
X281861Y248218D01*
X281323Y247518D01*
X280985Y246702D01*
X280870Y245827D01*
X280985Y244952D01*
X281323Y244136D01*
X281861Y243436D01*
X282561Y242898D01*
X283377Y242560D01*
X284252Y242445D01*
X285127Y242560D01*
X285943Y242898D01*
X286643Y243436D01*
X287181Y244136D01*
X287518Y244952D01*
X287634Y245827D01*
X287518Y246702D01*
X287181Y247518D01*
X286643Y248218D01*
X285943Y248755D01*
X285127Y249093D01*
X284252Y249208D01*
D02*
G37*
G36*
X274252D02*
X273377Y249093D01*
X272561Y248755D01*
X271861Y248218D01*
X271323Y247518D01*
X270986Y246702D01*
X270870Y245827D01*
X270986Y244952D01*
X271323Y244136D01*
X271861Y243436D01*
X272561Y242898D01*
X273377Y242560D01*
X274252Y242445D01*
X275127Y242560D01*
X275943Y242898D01*
X276643Y243436D01*
X277181Y244136D01*
X277518Y244952D01*
X277634Y245827D01*
X277518Y246702D01*
X277181Y247518D01*
X276643Y248218D01*
X275943Y248755D01*
X275127Y249093D01*
X274252Y249208D01*
D02*
G37*
G36*
X284252Y239208D02*
X283377Y239093D01*
X282561Y238755D01*
X281861Y238218D01*
X281323Y237518D01*
X280985Y236702D01*
X280870Y235827D01*
X280985Y234951D01*
X281323Y234136D01*
X281861Y233436D01*
X282561Y232898D01*
X283377Y232560D01*
X284252Y232445D01*
X285127Y232560D01*
X285943Y232898D01*
X286643Y233436D01*
X287181Y234136D01*
X287518Y234951D01*
X287634Y235827D01*
X287518Y236702D01*
X287181Y237518D01*
X286643Y238218D01*
X285943Y238755D01*
X285127Y239093D01*
X284252Y239208D01*
D02*
G37*
G36*
X274252D02*
X273377Y239093D01*
X272561Y238755D01*
X271861Y238218D01*
X271323Y237518D01*
X270986Y236702D01*
X270870Y235827D01*
X270986Y234951D01*
X271323Y234136D01*
X271861Y233436D01*
X272561Y232898D01*
X273377Y232560D01*
X274252Y232445D01*
X275127Y232560D01*
X275943Y232898D01*
X276643Y233436D01*
X277181Y234136D01*
X277518Y234951D01*
X277634Y235827D01*
X277518Y236702D01*
X277181Y237518D01*
X276643Y238218D01*
X275943Y238755D01*
X275127Y239093D01*
X274252Y239208D01*
D02*
G37*
G36*
X384610Y232883D02*
Y229728D01*
X387765D01*
X387676Y230403D01*
X387338Y231218D01*
X386801Y231919D01*
X386100Y232456D01*
X385285Y232794D01*
X384610Y232883D01*
D02*
G37*
G36*
X384209D02*
X383534Y232794D01*
X382719Y232456D01*
X382018Y231919D01*
X381481Y231218D01*
X381143Y230403D01*
X381054Y229728D01*
X384209D01*
Y232883D01*
D02*
G37*
G36*
X374410Y234090D02*
X373534Y233975D01*
X372719Y233637D01*
X372018Y233100D01*
X371481Y232400D01*
X371143Y231584D01*
X371028Y230709D01*
X371143Y229833D01*
X371481Y229018D01*
X372018Y228317D01*
X372719Y227780D01*
X373534Y227442D01*
X374410Y227327D01*
X375285Y227442D01*
X376100Y227780D01*
X376801Y228317D01*
X377338Y229018D01*
X377676Y229833D01*
X377791Y230709D01*
X377676Y231584D01*
X377338Y232400D01*
X376801Y233100D01*
X376100Y233637D01*
X375285Y233975D01*
X374410Y234090D01*
D02*
G37*
G36*
X367762Y232880D02*
X361057D01*
Y226175D01*
X367762D01*
Y232880D01*
D02*
G37*
G36*
X387765Y229328D02*
X384610D01*
Y226172D01*
X385285Y226261D01*
X386100Y226599D01*
X386801Y227136D01*
X387338Y227837D01*
X387676Y228652D01*
X387765Y229328D01*
D02*
G37*
G36*
X384209D02*
X381054D01*
X381143Y228652D01*
X381481Y227837D01*
X382018Y227136D01*
X382719Y226599D01*
X383534Y226261D01*
X384209Y226172D01*
Y229328D01*
D02*
G37*
G36*
X274452Y229182D02*
Y226027D01*
X277607D01*
X277518Y226702D01*
X277181Y227518D01*
X276643Y228218D01*
X275943Y228755D01*
X275127Y229093D01*
X274452Y229182D01*
D02*
G37*
G36*
X274052D02*
X273377Y229093D01*
X272561Y228755D01*
X271861Y228218D01*
X271323Y227518D01*
X270986Y226702D01*
X270897Y226027D01*
X274052D01*
Y229182D01*
D02*
G37*
G36*
Y225627D02*
X270897D01*
X270986Y224952D01*
X271323Y224136D01*
X271861Y223436D01*
X272561Y222898D01*
X273377Y222560D01*
X274052Y222471D01*
Y225627D01*
D02*
G37*
G36*
X277607D02*
X274452D01*
Y222471D01*
X275127Y222560D01*
X275943Y222898D01*
X276643Y223436D01*
X277181Y224136D01*
X277518Y224952D01*
X277607Y225627D01*
D02*
G37*
G36*
X284252Y229208D02*
X283377Y229093D01*
X282561Y228755D01*
X281861Y228218D01*
X281323Y227518D01*
X280985Y226702D01*
X280870Y225827D01*
X280985Y224952D01*
X281323Y224136D01*
X281861Y223436D01*
X282561Y222898D01*
X283377Y222560D01*
X284252Y222445D01*
X285127Y222560D01*
X285943Y222898D01*
X286643Y223436D01*
X287181Y224136D01*
X287518Y224952D01*
X287634Y225827D01*
X287518Y226702D01*
X287181Y227518D01*
X286643Y228218D01*
X285943Y228755D01*
X285127Y229093D01*
X284252Y229208D01*
D02*
G37*
G36*
X371654Y220494D02*
X371654Y220494D01*
X364173D01*
X364173Y220494D01*
X363863Y220433D01*
X363601Y220257D01*
X362035Y218691D01*
X361811Y218736D01*
X361270Y218628D01*
X360812Y218322D01*
X360506Y217863D01*
X360398Y217323D01*
X360506Y216782D01*
X360812Y216324D01*
X361270Y216017D01*
X361811Y215910D01*
X362352Y216017D01*
X362810Y216324D01*
X363116Y216782D01*
X363224Y217323D01*
X363179Y217547D01*
X364237Y218605D01*
X364322Y218584D01*
X364543Y218013D01*
X364443Y217863D01*
X364335Y217323D01*
X364443Y216782D01*
X364749Y216324D01*
X365207Y216017D01*
X365748Y215910D01*
X366289Y216017D01*
X366747Y216324D01*
X367053Y216782D01*
X367161Y217323D01*
X367053Y217863D01*
X366747Y218322D01*
X366667Y218376D01*
X366818Y218876D01*
X371318D01*
X375009Y215185D01*
X374965Y214961D01*
X375073Y214420D01*
X375379Y213962D01*
X375837Y213655D01*
X376378Y213548D01*
X376919Y213655D01*
X377377Y213962D01*
X377683Y214420D01*
X377791Y214961D01*
X377683Y215501D01*
X377377Y215960D01*
X376919Y216266D01*
X376378Y216374D01*
X376154Y216329D01*
X372226Y220257D01*
X371963Y220433D01*
X371912Y220443D01*
X371654Y220494D01*
D02*
G37*
G36*
X284252Y219208D02*
X283377Y219093D01*
X282561Y218755D01*
X281861Y218218D01*
X281323Y217518D01*
X280985Y216702D01*
X280870Y215827D01*
X280985Y214951D01*
X281323Y214136D01*
X281861Y213436D01*
X282561Y212898D01*
X283377Y212560D01*
X284252Y212445D01*
X285127Y212560D01*
X285943Y212898D01*
X286643Y213436D01*
X287181Y214136D01*
X287518Y214951D01*
X287634Y215827D01*
X287518Y216702D01*
X287181Y217518D01*
X286643Y218218D01*
X285943Y218755D01*
X285127Y219093D01*
X284252Y219208D01*
D02*
G37*
G36*
X274252D02*
X273377Y219093D01*
X272561Y218755D01*
X271861Y218218D01*
X271323Y217518D01*
X270986Y216702D01*
X270870Y215827D01*
X270986Y214951D01*
X271323Y214136D01*
X271861Y213436D01*
X272561Y212898D01*
X273377Y212560D01*
X274252Y212445D01*
X275127Y212560D01*
X275943Y212898D01*
X276643Y213436D01*
X277181Y214136D01*
X277518Y214951D01*
X277634Y215827D01*
X277518Y216702D01*
X277181Y217518D01*
X276643Y218218D01*
X275943Y218755D01*
X275127Y219093D01*
X274252Y219208D01*
D02*
G37*
G36*
X363386Y214405D02*
X362845Y214298D01*
X362387Y213991D01*
X362080Y213533D01*
X361973Y212992D01*
X362080Y212451D01*
X362387Y211993D01*
X362845Y211687D01*
X363386Y211579D01*
X363927Y211687D01*
X364385Y211993D01*
X364691Y212451D01*
X364799Y212992D01*
X364691Y213533D01*
X364385Y213991D01*
X363927Y214298D01*
X363386Y214405D01*
D02*
G37*
G36*
X370472Y215586D02*
X369932Y215479D01*
X369473Y215172D01*
X369167Y214714D01*
X369059Y214173D01*
X369167Y213632D01*
X369473Y213174D01*
X369932Y212868D01*
X370472Y212760D01*
X370635Y212793D01*
X371060Y212367D01*
X371028Y212205D01*
X371135Y211664D01*
X371442Y211206D01*
X371900Y210899D01*
X372441Y210792D01*
X372982Y210899D01*
X373440Y211206D01*
X373746Y211664D01*
X373854Y212205D01*
X373746Y212745D01*
X373440Y213204D01*
X372982Y213510D01*
X372441Y213618D01*
X372278Y213585D01*
X371853Y214011D01*
X371885Y214173D01*
X371778Y214714D01*
X371472Y215172D01*
X371013Y215479D01*
X370472Y215586D01*
D02*
G37*
G36*
X397376Y210529D02*
X396836Y210421D01*
X396377Y210115D01*
X396071Y209656D01*
X395964Y209116D01*
X396071Y208575D01*
X396377Y208117D01*
X396836Y207810D01*
X397376Y207703D01*
X397917Y207810D01*
X398376Y208117D01*
X398682Y208575D01*
X398789Y209116D01*
X398682Y209656D01*
X398376Y210115D01*
X397917Y210421D01*
X397376Y210529D01*
D02*
G37*
G36*
X371260Y208500D02*
X370719Y208392D01*
X370261Y208086D01*
X369954Y207627D01*
X369847Y207087D01*
X369924Y206701D01*
X369515Y206372D01*
X369438Y206423D01*
X368898Y206531D01*
X368357Y206423D01*
X367899Y206117D01*
X367592Y205659D01*
X367485Y205118D01*
X367592Y204577D01*
X367899Y204119D01*
X368357Y203813D01*
X368898Y203705D01*
X369438Y203813D01*
X369897Y204119D01*
X370203Y204577D01*
X370311Y205118D01*
X370234Y205504D01*
X370643Y205832D01*
X370719Y205781D01*
X371260Y205674D01*
X371801Y205781D01*
X372259Y206087D01*
X372565Y206546D01*
X372673Y207087D01*
X372565Y207627D01*
X372259Y208086D01*
X371801Y208392D01*
X371260Y208500D01*
D02*
G37*
G36*
X354331Y206925D02*
X353790Y206817D01*
X353332Y206511D01*
X353025Y206052D01*
X352918Y205512D01*
X353025Y204971D01*
X353332Y204513D01*
X353790Y204206D01*
X354331Y204099D01*
X354871Y204206D01*
X355330Y204513D01*
X355636Y204971D01*
X355744Y205512D01*
X355636Y206052D01*
X355330Y206511D01*
X354871Y206817D01*
X354331Y206925D01*
D02*
G37*
G36*
X376378Y206531D02*
X375837Y206423D01*
X375379Y206117D01*
X375073Y205659D01*
X374965Y205118D01*
X375073Y204577D01*
X375379Y204119D01*
X375837Y203813D01*
X376378Y203705D01*
X376908Y203811D01*
X376920Y203812D01*
X377444Y203562D01*
X377463Y203411D01*
X375255Y201203D01*
X355850D01*
X355724Y201393D01*
X355265Y201699D01*
X354724Y201807D01*
X354184Y201699D01*
X353725Y201393D01*
X353419Y200934D01*
X353311Y200394D01*
X353419Y199853D01*
X353725Y199395D01*
X354184Y199088D01*
X354724Y198981D01*
X355265Y199088D01*
X355724Y199395D01*
X355850Y199584D01*
X375590D01*
X375590Y199584D01*
X375900Y199646D01*
X376163Y199821D01*
X378910Y202569D01*
X379134Y202524D01*
X379675Y202632D01*
X380133Y202938D01*
X380439Y203396D01*
X380547Y203937D01*
X380439Y204478D01*
X380133Y204936D01*
X379675Y205242D01*
X379134Y205350D01*
X378593Y205242D01*
X378279Y205032D01*
X378123Y205060D01*
X377821Y205199D01*
X377766Y205245D01*
X377683Y205659D01*
X377377Y206117D01*
X376919Y206423D01*
X376378Y206531D01*
D02*
G37*
G36*
X284252Y209208D02*
X283377Y209093D01*
X282561Y208755D01*
X281861Y208218D01*
X281323Y207518D01*
X280985Y206702D01*
X280870Y205827D01*
X280985Y204952D01*
X281323Y204136D01*
X281861Y203436D01*
X282561Y202898D01*
X283377Y202560D01*
X284252Y202445D01*
X285127Y202560D01*
X285943Y202898D01*
X286643Y203436D01*
X287181Y204136D01*
X287518Y204952D01*
X287634Y205827D01*
X287518Y206702D01*
X287181Y207518D01*
X286643Y208218D01*
X285943Y208755D01*
X285127Y209093D01*
X284252Y209208D01*
D02*
G37*
G36*
X274252D02*
X273377Y209093D01*
X272561Y208755D01*
X271861Y208218D01*
X271323Y207518D01*
X270986Y206702D01*
X270870Y205827D01*
X270986Y204952D01*
X271323Y204136D01*
X271861Y203436D01*
X272561Y202898D01*
X273377Y202560D01*
X274252Y202445D01*
X275127Y202560D01*
X275943Y202898D01*
X276643Y203436D01*
X277181Y204136D01*
X277518Y204952D01*
X277634Y205827D01*
X277518Y206702D01*
X277181Y207518D01*
X276643Y208218D01*
X275943Y208755D01*
X275127Y209093D01*
X274252Y209208D01*
D02*
G37*
G36*
X389370Y214405D02*
X388829Y214298D01*
X388371Y213991D01*
X388065Y213533D01*
X387957Y212992D01*
X388065Y212451D01*
X388371Y211993D01*
X388561Y211866D01*
Y202701D01*
X388371Y202574D01*
X388065Y202116D01*
X387957Y201575D01*
X388065Y201034D01*
X388371Y200576D01*
X388829Y200269D01*
X389370Y200162D01*
X389911Y200269D01*
X390369Y200576D01*
X390675Y201034D01*
X390783Y201575D01*
X390675Y202116D01*
X390369Y202574D01*
X390179Y202701D01*
Y211866D01*
X390369Y211993D01*
X390675Y212451D01*
X390783Y212992D01*
X390675Y213533D01*
X390369Y213991D01*
X389911Y214298D01*
X389370Y214405D01*
D02*
G37*
G36*
X382677Y202200D02*
X382137Y202093D01*
X381678Y201786D01*
X381372Y201328D01*
X381264Y200787D01*
X381372Y200247D01*
X381678Y199788D01*
X382137Y199482D01*
X382677Y199374D01*
X383218Y199482D01*
X383676Y199788D01*
X383983Y200247D01*
X384090Y200787D01*
X383983Y201328D01*
X383676Y201786D01*
X383218Y202093D01*
X382677Y202200D01*
D02*
G37*
G36*
X361024Y199051D02*
X360483Y198943D01*
X360024Y198637D01*
X359718Y198179D01*
X359704Y198106D01*
X359194D01*
X359179Y198179D01*
X358873Y198637D01*
X358415Y198943D01*
X357874Y199051D01*
X357333Y198943D01*
X356875Y198637D01*
X356569Y198179D01*
X356461Y197638D01*
X356569Y197097D01*
X356875Y196639D01*
X357333Y196332D01*
X357874Y196225D01*
X358415Y196332D01*
X358873Y196639D01*
X359179Y197097D01*
X359194Y197170D01*
X359704D01*
X359718Y197097D01*
X360024Y196639D01*
X360483Y196332D01*
X361024Y196225D01*
X361564Y196332D01*
X362023Y196639D01*
X362329Y197097D01*
X362437Y197638D01*
X362329Y198179D01*
X362023Y198637D01*
X361564Y198943D01*
X361024Y199051D01*
D02*
G37*
G36*
X393307Y212437D02*
X392766Y212329D01*
X392308Y212023D01*
X392002Y211564D01*
X391894Y211024D01*
X392002Y210483D01*
X392308Y210024D01*
X392498Y209898D01*
Y199551D01*
X392308Y199424D01*
X392002Y198966D01*
X391894Y198425D01*
X392002Y197885D01*
X392308Y197426D01*
X392766Y197120D01*
X393307Y197012D01*
X393848Y197120D01*
X394306Y197426D01*
X394613Y197885D01*
X394720Y198425D01*
X394613Y198966D01*
X394306Y199424D01*
X394116Y199551D01*
Y209898D01*
X394306Y210024D01*
X394613Y210483D01*
X394720Y211024D01*
X394613Y211564D01*
X394306Y212023D01*
X393848Y212329D01*
X393307Y212437D01*
D02*
G37*
G36*
X274452Y199182D02*
Y196027D01*
X277607D01*
X277518Y196702D01*
X277181Y197518D01*
X276643Y198218D01*
X275943Y198755D01*
X275127Y199093D01*
X274452Y199182D01*
D02*
G37*
G36*
X274052D02*
X273377Y199093D01*
X272561Y198755D01*
X271861Y198218D01*
X271323Y197518D01*
X270986Y196702D01*
X270897Y196027D01*
X274052D01*
Y199182D01*
D02*
G37*
G36*
X370079Y197476D02*
X369538Y197368D01*
X369080Y197062D01*
X368773Y196604D01*
X368666Y196063D01*
X368773Y195522D01*
X369080Y195064D01*
X369538Y194758D01*
X370079Y194650D01*
X370620Y194758D01*
X371078Y195064D01*
X371384Y195522D01*
X371492Y196063D01*
X371384Y196604D01*
X371078Y197062D01*
X370620Y197368D01*
X370079Y197476D01*
D02*
G37*
G36*
X274052Y195627D02*
X270897D01*
X270986Y194951D01*
X271323Y194136D01*
X271861Y193436D01*
X272561Y192898D01*
X273377Y192560D01*
X274052Y192471D01*
Y195627D01*
D02*
G37*
G36*
X277607D02*
X274452D01*
Y192471D01*
X275127Y192560D01*
X275943Y192898D01*
X276643Y193436D01*
X277181Y194136D01*
X277518Y194951D01*
X277607Y195627D01*
D02*
G37*
G36*
X284252Y199208D02*
X283377Y199093D01*
X282561Y198755D01*
X281861Y198218D01*
X281323Y197518D01*
X280985Y196702D01*
X280870Y195827D01*
X280985Y194951D01*
X281323Y194136D01*
X281861Y193436D01*
X282561Y192898D01*
X283377Y192560D01*
X284252Y192445D01*
X285127Y192560D01*
X285943Y192898D01*
X286643Y193436D01*
X287181Y194136D01*
X287518Y194951D01*
X287634Y195827D01*
X287518Y196702D01*
X287181Y197518D01*
X286643Y198218D01*
X285943Y198755D01*
X285127Y199093D01*
X284252Y199208D01*
D02*
G37*
G36*
X376378Y191964D02*
X375837Y191857D01*
X375379Y191550D01*
X375073Y191092D01*
X374965Y190551D01*
X375073Y190010D01*
X375379Y189552D01*
X375837Y189246D01*
X376378Y189138D01*
X376919Y189246D01*
X377377Y189552D01*
X377683Y190010D01*
X377791Y190551D01*
X377683Y191092D01*
X377377Y191550D01*
X376919Y191857D01*
X376378Y191964D01*
D02*
G37*
G36*
X475400Y193668D02*
X468694D01*
Y186962D01*
X475400D01*
Y193668D01*
D02*
G37*
G36*
X340945Y189366D02*
X340070Y189251D01*
X339254Y188913D01*
X338554Y188375D01*
X338016Y187675D01*
X337678Y186860D01*
X337563Y185984D01*
X337678Y185109D01*
X338016Y184293D01*
X338554Y183593D01*
X339254Y183056D01*
X340070Y182718D01*
X340945Y182603D01*
X341820Y182718D01*
X342636Y183056D01*
X343336Y183593D01*
X343874Y184293D01*
X344211Y185109D01*
X344327Y185984D01*
X344211Y186860D01*
X343874Y187675D01*
X343336Y188375D01*
X342636Y188913D01*
X341820Y189251D01*
X340945Y189366D01*
D02*
G37*
G36*
X325590D02*
X324715Y189251D01*
X323900Y188913D01*
X323199Y188375D01*
X322662Y187675D01*
X322324Y186860D01*
X322209Y185984D01*
X322324Y185109D01*
X322662Y184293D01*
X323199Y183593D01*
X323900Y183056D01*
X324715Y182718D01*
X325590Y182603D01*
X326466Y182718D01*
X327281Y183056D01*
X327982Y183593D01*
X328519Y184293D01*
X328857Y185109D01*
X328972Y185984D01*
X328857Y186860D01*
X328519Y187675D01*
X327982Y188375D01*
X327281Y188913D01*
X326466Y189251D01*
X325590Y189366D01*
D02*
G37*
G36*
X284252Y189208D02*
X283377Y189093D01*
X282561Y188755D01*
X281861Y188218D01*
X281323Y187518D01*
X280985Y186702D01*
X280870Y185827D01*
X280985Y184951D01*
X281323Y184136D01*
X281861Y183436D01*
X282561Y182898D01*
X283377Y182560D01*
X284252Y182445D01*
X285127Y182560D01*
X285943Y182898D01*
X286643Y183436D01*
X287181Y184136D01*
X287518Y184951D01*
X287634Y185827D01*
X287518Y186702D01*
X287181Y187518D01*
X286643Y188218D01*
X285943Y188755D01*
X285127Y189093D01*
X284252Y189208D01*
D02*
G37*
G36*
X274252D02*
X273377Y189093D01*
X272561Y188755D01*
X271861Y188218D01*
X271323Y187518D01*
X270986Y186702D01*
X270870Y185827D01*
X270986Y184951D01*
X271323Y184136D01*
X271861Y183436D01*
X272561Y182898D01*
X273377Y182560D01*
X274252Y182445D01*
X275127Y182560D01*
X275943Y182898D01*
X276643Y183436D01*
X277181Y184136D01*
X277518Y184951D01*
X277634Y185827D01*
X277518Y186702D01*
X277181Y187518D01*
X276643Y188218D01*
X275943Y188755D01*
X275127Y189093D01*
X274252Y189208D01*
D02*
G37*
G36*
X472247Y183670D02*
Y180515D01*
X475403D01*
X475314Y181190D01*
X474976Y182006D01*
X474438Y182706D01*
X473738Y183244D01*
X472923Y183581D01*
X472247Y183670D01*
D02*
G37*
G36*
X471847D02*
X471172Y183581D01*
X470356Y183244D01*
X469656Y182706D01*
X469119Y182006D01*
X468781Y181190D01*
X468692Y180515D01*
X471847D01*
Y183670D01*
D02*
G37*
G36*
X475403Y180115D02*
X472247D01*
Y176960D01*
X472923Y177049D01*
X473738Y177386D01*
X474438Y177924D01*
X474976Y178624D01*
X475314Y179440D01*
X475403Y180115D01*
D02*
G37*
G36*
X471847D02*
X468692D01*
X468781Y179440D01*
X469119Y178624D01*
X469656Y177924D01*
X470356Y177386D01*
X471172Y177049D01*
X471847Y176960D01*
Y180115D01*
D02*
G37*
G36*
X284452Y179182D02*
Y176027D01*
X287607D01*
X287518Y176702D01*
X287181Y177518D01*
X286643Y178218D01*
X285943Y178755D01*
X285127Y179093D01*
X284452Y179182D01*
D02*
G37*
G36*
X284052D02*
X283377Y179093D01*
X282561Y178755D01*
X281861Y178218D01*
X281323Y177518D01*
X280985Y176702D01*
X280897Y176027D01*
X284052D01*
Y179182D01*
D02*
G37*
G36*
X357087Y178185D02*
X356546Y178077D01*
X356087Y177771D01*
X355781Y177312D01*
X355674Y176772D01*
X355781Y176231D01*
X356087Y175773D01*
X356546Y175466D01*
X357087Y175359D01*
X357627Y175466D01*
X358086Y175773D01*
X358392Y176231D01*
X358500Y176772D01*
X358392Y177312D01*
X358086Y177771D01*
X357627Y178077D01*
X357087Y178185D01*
D02*
G37*
G36*
Y174248D02*
X356546Y174140D01*
X356087Y173834D01*
X355781Y173375D01*
X355719Y173065D01*
X355210D01*
X355164Y173297D01*
X354857Y173755D01*
X354399Y174061D01*
X353858Y174169D01*
X353317Y174061D01*
X352859Y173755D01*
X352553Y173297D01*
X352445Y172756D01*
X352553Y172215D01*
X352859Y171757D01*
X353317Y171450D01*
X353858Y171343D01*
X354399Y171450D01*
X354857Y171757D01*
X355164Y172215D01*
X355225Y172525D01*
X355735D01*
X355781Y172294D01*
X356087Y171835D01*
X356546Y171529D01*
X357087Y171422D01*
X357627Y171529D01*
X358086Y171835D01*
X358392Y172294D01*
X358500Y172835D01*
X358392Y173375D01*
X358086Y173834D01*
X357627Y174140D01*
X357087Y174248D01*
D02*
G37*
G36*
X340945Y179366D02*
X340070Y179251D01*
X339254Y178913D01*
X338554Y178375D01*
X338016Y177675D01*
X337678Y176859D01*
X337563Y175984D01*
X337678Y175109D01*
X338016Y174293D01*
X338554Y173593D01*
X339254Y173056D01*
X340070Y172718D01*
X340945Y172603D01*
X341820Y172718D01*
X342636Y173056D01*
X343336Y173593D01*
X343874Y174293D01*
X344211Y175109D01*
X344327Y175984D01*
X344211Y176859D01*
X343874Y177675D01*
X343336Y178375D01*
X342636Y178913D01*
X341820Y179251D01*
X340945Y179366D01*
D02*
G37*
G36*
X325590D02*
X324715Y179251D01*
X323900Y178913D01*
X323199Y178375D01*
X322662Y177675D01*
X322324Y176859D01*
X322209Y175984D01*
X322324Y175109D01*
X322662Y174293D01*
X323199Y173593D01*
X323900Y173056D01*
X324715Y172718D01*
X325590Y172603D01*
X326466Y172718D01*
X327281Y173056D01*
X327982Y173593D01*
X328519Y174293D01*
X328857Y175109D01*
X328972Y175984D01*
X328857Y176859D01*
X328519Y177675D01*
X327982Y178375D01*
X327281Y178913D01*
X326466Y179251D01*
X325590Y179366D01*
D02*
G37*
G36*
X284052Y175627D02*
X280897D01*
X280985Y174952D01*
X281323Y174136D01*
X281861Y173436D01*
X282561Y172898D01*
X283377Y172560D01*
X284052Y172471D01*
Y175627D01*
D02*
G37*
G36*
X287607D02*
X284452D01*
Y172471D01*
X285127Y172560D01*
X285943Y172898D01*
X286643Y173436D01*
X287181Y174136D01*
X287518Y174952D01*
X287607Y175627D01*
D02*
G37*
G36*
X274252Y179208D02*
X273377Y179093D01*
X272561Y178755D01*
X271861Y178218D01*
X271323Y177518D01*
X270986Y176702D01*
X270870Y175827D01*
X270986Y174952D01*
X271323Y174136D01*
X271861Y173436D01*
X272561Y172898D01*
X273377Y172560D01*
X274252Y172445D01*
X275127Y172560D01*
X275943Y172898D01*
X276643Y173436D01*
X277181Y174136D01*
X277518Y174952D01*
X277634Y175827D01*
X277518Y176702D01*
X277181Y177518D01*
X276643Y178218D01*
X275943Y178755D01*
X275127Y179093D01*
X274252Y179208D01*
D02*
G37*
G36*
X386422Y174611D02*
X385881Y174503D01*
X385423Y174197D01*
X385117Y173738D01*
X385009Y173198D01*
X385117Y172657D01*
X385423Y172198D01*
X385881Y171892D01*
X386422Y171785D01*
X386963Y171892D01*
X387421Y172198D01*
X387728Y172657D01*
X387835Y173198D01*
X387728Y173738D01*
X387421Y174197D01*
X386963Y174503D01*
X386422Y174611D01*
D02*
G37*
G36*
X379921Y174248D02*
X379380Y174140D01*
X378922Y173834D01*
X378616Y173375D01*
X378508Y172835D01*
X378616Y172294D01*
X378922Y171835D01*
X379380Y171529D01*
X379921Y171422D01*
X380462Y171529D01*
X380920Y171835D01*
X381227Y172294D01*
X381334Y172835D01*
X381227Y173375D01*
X380920Y173834D01*
X380462Y174140D01*
X379921Y174248D01*
D02*
G37*
G36*
X367323D02*
X366782Y174140D01*
X366324Y173834D01*
X366017Y173375D01*
X365910Y172835D01*
X366017Y172294D01*
X366324Y171835D01*
X366782Y171529D01*
X367323Y171422D01*
X367863Y171529D01*
X368322Y171835D01*
X368628Y172294D01*
X368736Y172835D01*
X368628Y173375D01*
X368322Y173834D01*
X367863Y174140D01*
X367323Y174248D01*
D02*
G37*
G36*
X363779D02*
X363239Y174140D01*
X362780Y173834D01*
X362474Y173375D01*
X362367Y172835D01*
X362474Y172294D01*
X362780Y171835D01*
X363239Y171529D01*
X363779Y171422D01*
X364320Y171529D01*
X364779Y171835D01*
X365085Y172294D01*
X365193Y172835D01*
X365085Y173375D01*
X364779Y173834D01*
X364320Y174140D01*
X363779Y174248D01*
D02*
G37*
G36*
X392404Y171887D02*
X391863Y171779D01*
X391405Y171473D01*
X391098Y171014D01*
X390991Y170474D01*
X391098Y169933D01*
X391405Y169474D01*
X391863Y169168D01*
X392404Y169061D01*
X392945Y169168D01*
X393403Y169474D01*
X393709Y169933D01*
X393817Y170474D01*
X393709Y171014D01*
X393403Y171473D01*
X392945Y171779D01*
X392404Y171887D01*
D02*
G37*
G36*
X374016Y171885D02*
X373475Y171778D01*
X373017Y171472D01*
X372710Y171013D01*
X372603Y170472D01*
X372710Y169932D01*
X373017Y169473D01*
X373475Y169167D01*
X374016Y169060D01*
X374556Y169167D01*
X375015Y169473D01*
X375321Y169932D01*
X375429Y170472D01*
X375321Y171013D01*
X375015Y171472D01*
X374556Y171778D01*
X374016Y171885D01*
D02*
G37*
G36*
X377933Y167318D02*
X377392Y167211D01*
X376934Y166905D01*
X376628Y166446D01*
X376520Y165905D01*
X376628Y165365D01*
X376934Y164906D01*
X377392Y164600D01*
X377933Y164492D01*
X378474Y164600D01*
X378932Y164906D01*
X379239Y165365D01*
X379346Y165905D01*
X379239Y166446D01*
X378932Y166905D01*
X378474Y167211D01*
X377933Y167318D01*
D02*
G37*
G36*
X390773Y165681D02*
X390232Y165573D01*
X389774Y165267D01*
X389467Y164809D01*
X389360Y164268D01*
X389467Y163727D01*
X389774Y163269D01*
X390232Y162962D01*
X390773Y162855D01*
X391313Y162962D01*
X391772Y163269D01*
X392078Y163727D01*
X392185Y164268D01*
X392078Y164809D01*
X391772Y165267D01*
X391313Y165573D01*
X390773Y165681D01*
D02*
G37*
G36*
X367929Y165664D02*
X367388Y165556D01*
X366930Y165250D01*
X366623Y164791D01*
X366516Y164251D01*
X366623Y163710D01*
X366930Y163251D01*
X367388Y162945D01*
X367929Y162838D01*
X368470Y162945D01*
X368928Y163251D01*
X369234Y163710D01*
X369342Y164251D01*
X369234Y164791D01*
X368928Y165250D01*
X368470Y165556D01*
X367929Y165664D01*
D02*
G37*
G36*
X344298Y169337D02*
X337592D01*
Y162631D01*
X344298D01*
Y169337D01*
D02*
G37*
G36*
X328943D02*
X322238D01*
Y162631D01*
X328943D01*
Y169337D01*
D02*
G37*
G36*
X284252Y169208D02*
X283377Y169093D01*
X282561Y168755D01*
X281861Y168218D01*
X281323Y167518D01*
X280985Y166702D01*
X280870Y165827D01*
X280985Y164952D01*
X281323Y164136D01*
X281861Y163436D01*
X282561Y162898D01*
X283377Y162560D01*
X284252Y162445D01*
X285127Y162560D01*
X285943Y162898D01*
X286643Y163436D01*
X287181Y164136D01*
X287518Y164952D01*
X287634Y165827D01*
X287518Y166702D01*
X287181Y167518D01*
X286643Y168218D01*
X285943Y168755D01*
X285127Y169093D01*
X284252Y169208D01*
D02*
G37*
G36*
X274252D02*
X273377Y169093D01*
X272561Y168755D01*
X271861Y168218D01*
X271323Y167518D01*
X270986Y166702D01*
X270870Y165827D01*
X270986Y164952D01*
X271323Y164136D01*
X271861Y163436D01*
X272561Y162898D01*
X273377Y162560D01*
X274252Y162445D01*
X275127Y162560D01*
X275943Y162898D01*
X276643Y163436D01*
X277181Y164136D01*
X277518Y164952D01*
X277634Y165827D01*
X277518Y166702D01*
X277181Y167518D01*
X276643Y168218D01*
X275943Y168755D01*
X275127Y169093D01*
X274252Y169208D01*
D02*
G37*
G36*
X274452Y159182D02*
Y156027D01*
X277607D01*
X277518Y156702D01*
X277181Y157518D01*
X276643Y158218D01*
X275943Y158755D01*
X275127Y159093D01*
X274452Y159182D01*
D02*
G37*
G36*
X274052D02*
X273377Y159093D01*
X272561Y158755D01*
X271861Y158218D01*
X271323Y157518D01*
X270986Y156702D01*
X270897Y156027D01*
X274052D01*
Y159182D01*
D02*
G37*
G36*
X462992Y156137D02*
X462451Y156030D01*
X461993Y155724D01*
X461687Y155265D01*
X461579Y154724D01*
X461687Y154184D01*
X461993Y153725D01*
X462451Y153419D01*
X462992Y153311D01*
X463533Y153419D01*
X463991Y153725D01*
X464297Y154184D01*
X464405Y154724D01*
X464297Y155265D01*
X463991Y155724D01*
X463533Y156030D01*
X462992Y156137D01*
D02*
G37*
G36*
X390551Y155744D02*
X390010Y155636D01*
X389552Y155330D01*
X389246Y154871D01*
X389138Y154331D01*
X389246Y153790D01*
X389552Y153332D01*
X390010Y153025D01*
X390551Y152918D01*
X391092Y153025D01*
X391550Y153332D01*
X391857Y153790D01*
X391964Y154331D01*
X391857Y154871D01*
X391550Y155330D01*
X391092Y155636D01*
X390551Y155744D01*
D02*
G37*
G36*
X367717D02*
X367176Y155636D01*
X366717Y155330D01*
X366411Y154871D01*
X366304Y154331D01*
X366411Y153790D01*
X366717Y153332D01*
X367176Y153025D01*
X367717Y152918D01*
X368257Y153025D01*
X368716Y153332D01*
X369022Y153790D01*
X369129Y154331D01*
X369022Y154871D01*
X368716Y155330D01*
X368257Y155636D01*
X367717Y155744D01*
D02*
G37*
G36*
X274052Y155627D02*
X270897D01*
X270986Y154952D01*
X271323Y154136D01*
X271861Y153436D01*
X272561Y152898D01*
X273377Y152560D01*
X274052Y152471D01*
Y155627D01*
D02*
G37*
G36*
X277607D02*
X274452D01*
Y152471D01*
X275127Y152560D01*
X275943Y152898D01*
X276643Y153436D01*
X277181Y154136D01*
X277518Y154952D01*
X277607Y155627D01*
D02*
G37*
G36*
X284252Y159208D02*
X283377Y159093D01*
X282561Y158755D01*
X281861Y158218D01*
X281323Y157518D01*
X280985Y156702D01*
X280870Y155827D01*
X280985Y154952D01*
X281323Y154136D01*
X281861Y153436D01*
X282561Y152898D01*
X283377Y152560D01*
X284252Y152445D01*
X285127Y152560D01*
X285943Y152898D01*
X286643Y153436D01*
X287181Y154136D01*
X287518Y154952D01*
X287634Y155827D01*
X287518Y156702D01*
X287181Y157518D01*
X286643Y158218D01*
X285943Y158755D01*
X285127Y159093D01*
X284252Y159208D01*
D02*
G37*
G36*
X345479Y146660D02*
X342326D01*
Y143507D01*
X345479D01*
Y146660D01*
D02*
G37*
G36*
X404216Y146662D02*
Y143507D01*
X407371D01*
X407282Y144182D01*
X406944Y144998D01*
X406407Y145698D01*
X405707Y146236D01*
X404891Y146573D01*
X404216Y146662D01*
D02*
G37*
G36*
X447368Y146660D02*
X444216D01*
Y143507D01*
X447368D01*
Y146660D01*
D02*
G37*
G36*
X312326Y146662D02*
Y143507D01*
X315481D01*
X315392Y144182D01*
X315055Y144998D01*
X314517Y145698D01*
X313817Y146236D01*
X313001Y146573D01*
X312326Y146662D01*
D02*
G37*
G36*
X443816Y146660D02*
X440663D01*
Y143507D01*
X443816D01*
Y146660D01*
D02*
G37*
G36*
X341926D02*
X338773D01*
Y143507D01*
X341926D01*
Y146660D01*
D02*
G37*
G36*
X311926Y146662D02*
X311251Y146573D01*
X310435Y146236D01*
X309735Y145698D01*
X309197Y144998D01*
X308859Y144182D01*
X308771Y143507D01*
X311926D01*
Y146662D01*
D02*
G37*
G36*
X403816D02*
X403140Y146573D01*
X402325Y146236D01*
X401624Y145698D01*
X401087Y144998D01*
X400749Y144182D01*
X400660Y143507D01*
X403816D01*
Y146662D01*
D02*
G37*
G36*
X475400Y149416D02*
X468694D01*
Y142710D01*
X475400D01*
Y149416D01*
D02*
G37*
G36*
X284252Y149208D02*
X283377Y149093D01*
X282561Y148755D01*
X281861Y148218D01*
X281323Y147518D01*
X280985Y146702D01*
X280870Y145827D01*
X280985Y144951D01*
X281323Y144136D01*
X281861Y143436D01*
X282561Y142898D01*
X283377Y142560D01*
X284252Y142445D01*
X285127Y142560D01*
X285943Y142898D01*
X286643Y143436D01*
X287181Y144136D01*
X287518Y144951D01*
X287634Y145827D01*
X287518Y146702D01*
X287181Y147518D01*
X286643Y148218D01*
X285943Y148755D01*
X285127Y149093D01*
X284252Y149208D01*
D02*
G37*
G36*
X274252D02*
X273377Y149093D01*
X272561Y148755D01*
X271861Y148218D01*
X271323Y147518D01*
X270986Y146702D01*
X270870Y145827D01*
X270986Y144951D01*
X271323Y144136D01*
X271861Y143436D01*
X272561Y142898D01*
X273377Y142560D01*
X274252Y142445D01*
X275127Y142560D01*
X275943Y142898D01*
X276643Y143436D01*
X277181Y144136D01*
X277518Y144951D01*
X277634Y145827D01*
X277518Y146702D01*
X277181Y147518D01*
X276643Y148218D01*
X275943Y148755D01*
X275127Y149093D01*
X274252Y149208D01*
D02*
G37*
G36*
X447368Y143107D02*
X444216D01*
Y139954D01*
X447368D01*
Y143107D01*
D02*
G37*
G36*
X443816D02*
X440663D01*
Y139954D01*
X443816D01*
Y143107D01*
D02*
G37*
G36*
X345479D02*
X342326D01*
Y139954D01*
X345479D01*
Y143107D01*
D02*
G37*
G36*
X341926D02*
X338773D01*
Y139954D01*
X341926D01*
Y143107D01*
D02*
G37*
G36*
X407371D02*
X404216D01*
Y139952D01*
X404891Y140041D01*
X405707Y140378D01*
X406407Y140916D01*
X406944Y141616D01*
X407282Y142432D01*
X407371Y143107D01*
D02*
G37*
G36*
X311926D02*
X308771D01*
X308859Y142432D01*
X309197Y141616D01*
X309735Y140916D01*
X310435Y140378D01*
X311251Y140041D01*
X311926Y139952D01*
Y143107D01*
D02*
G37*
G36*
X315481D02*
X312326D01*
Y139952D01*
X313001Y140041D01*
X313817Y140378D01*
X314517Y140916D01*
X315055Y141616D01*
X315392Y142432D01*
X315481Y143107D01*
D02*
G37*
G36*
X403816D02*
X400660D01*
X400749Y142432D01*
X401087Y141616D01*
X401624Y140916D01*
X402325Y140378D01*
X403140Y140041D01*
X403816Y139952D01*
Y143107D01*
D02*
G37*
G36*
X434016Y146689D02*
X433141Y146573D01*
X432325Y146236D01*
X431625Y145698D01*
X431087Y144998D01*
X430749Y144182D01*
X430634Y143307D01*
X430749Y142432D01*
X431087Y141616D01*
X431625Y140916D01*
X432325Y140378D01*
X433141Y140041D01*
X434016Y139925D01*
X434891Y140041D01*
X435707Y140378D01*
X436407Y140916D01*
X436944Y141616D01*
X437282Y142432D01*
X437397Y143307D01*
X437282Y144182D01*
X436944Y144998D01*
X436407Y145698D01*
X435707Y146236D01*
X434891Y146573D01*
X434016Y146689D01*
D02*
G37*
G36*
X424016D02*
X423140Y146573D01*
X422325Y146236D01*
X421625Y145698D01*
X421087Y144998D01*
X420749Y144182D01*
X420634Y143307D01*
X420749Y142432D01*
X421087Y141616D01*
X421625Y140916D01*
X422325Y140378D01*
X423140Y140041D01*
X424016Y139925D01*
X424891Y140041D01*
X425707Y140378D01*
X426407Y140916D01*
X426944Y141616D01*
X427282Y142432D01*
X427397Y143307D01*
X427282Y144182D01*
X426944Y144998D01*
X426407Y145698D01*
X425707Y146236D01*
X424891Y146573D01*
X424016Y146689D01*
D02*
G37*
G36*
X414016D02*
X413140Y146573D01*
X412325Y146236D01*
X411624Y145698D01*
X411087Y144998D01*
X410749Y144182D01*
X410634Y143307D01*
X410749Y142432D01*
X411087Y141616D01*
X411624Y140916D01*
X412325Y140378D01*
X413140Y140041D01*
X414016Y139925D01*
X414891Y140041D01*
X415707Y140378D01*
X416407Y140916D01*
X416944Y141616D01*
X417282Y142432D01*
X417397Y143307D01*
X417282Y144182D01*
X416944Y144998D01*
X416407Y145698D01*
X415707Y146236D01*
X414891Y146573D01*
X414016Y146689D01*
D02*
G37*
G36*
X332126D02*
X331251Y146573D01*
X330435Y146236D01*
X329735Y145698D01*
X329197Y144998D01*
X328859Y144182D01*
X328744Y143307D01*
X328859Y142432D01*
X329197Y141616D01*
X329735Y140916D01*
X330435Y140378D01*
X331251Y140041D01*
X332126Y139925D01*
X333001Y140041D01*
X333817Y140378D01*
X334517Y140916D01*
X335055Y141616D01*
X335392Y142432D01*
X335508Y143307D01*
X335392Y144182D01*
X335055Y144998D01*
X334517Y145698D01*
X333817Y146236D01*
X333001Y146573D01*
X332126Y146689D01*
D02*
G37*
G36*
X322126D02*
X321251Y146573D01*
X320435Y146236D01*
X319735Y145698D01*
X319197Y144998D01*
X318860Y144182D01*
X318744Y143307D01*
X318860Y142432D01*
X319197Y141616D01*
X319735Y140916D01*
X320435Y140378D01*
X321251Y140041D01*
X322126Y139925D01*
X323001Y140041D01*
X323817Y140378D01*
X324517Y140916D01*
X325055Y141616D01*
X325392Y142432D01*
X325508Y143307D01*
X325392Y144182D01*
X325055Y144998D01*
X324517Y145698D01*
X323817Y146236D01*
X323001Y146573D01*
X322126Y146689D01*
D02*
G37*
G36*
X472247Y139418D02*
Y136263D01*
X475403D01*
X475314Y136938D01*
X474976Y137754D01*
X474438Y138454D01*
X473738Y138992D01*
X472923Y139329D01*
X472247Y139418D01*
D02*
G37*
G36*
X471847D02*
X471172Y139329D01*
X470356Y138992D01*
X469656Y138454D01*
X469119Y137754D01*
X468781Y136938D01*
X468692Y136263D01*
X471847D01*
Y139418D01*
D02*
G37*
G36*
X408661Y138421D02*
X408121Y138313D01*
X407662Y138007D01*
X407356Y137549D01*
X407248Y137008D01*
X407356Y136467D01*
X407662Y136009D01*
X408121Y135703D01*
X408661Y135595D01*
X409202Y135703D01*
X409660Y136009D01*
X409967Y136467D01*
X410074Y137008D01*
X409967Y137549D01*
X409660Y138007D01*
X409202Y138313D01*
X408661Y138421D01*
D02*
G37*
G36*
X397244Y137240D02*
X396703Y137132D01*
X396245Y136826D01*
X395939Y136367D01*
X395831Y135827D01*
X395939Y135286D01*
X396245Y134828D01*
X396703Y134521D01*
X397244Y134414D01*
X397785Y134521D01*
X398243Y134828D01*
X398550Y135286D01*
X398657Y135827D01*
X398550Y136367D01*
X398243Y136826D01*
X397785Y137132D01*
X397244Y137240D01*
D02*
G37*
G36*
X401968Y135665D02*
X401428Y135557D01*
X400969Y135251D01*
X400663Y134793D01*
X400556Y134252D01*
X400663Y133711D01*
X400969Y133253D01*
X401428Y132947D01*
X401968Y132839D01*
X402509Y132947D01*
X402968Y133253D01*
X403274Y133711D01*
X403381Y134252D01*
X403274Y134793D01*
X402968Y135251D01*
X402509Y135557D01*
X401968Y135665D01*
D02*
G37*
G36*
X475403Y135863D02*
X472247D01*
Y132708D01*
X472923Y132797D01*
X473738Y133134D01*
X474438Y133672D01*
X474976Y134372D01*
X475314Y135188D01*
X475403Y135863D01*
D02*
G37*
G36*
X471847D02*
X468692D01*
X468781Y135188D01*
X469119Y134372D01*
X469656Y133672D01*
X470356Y133134D01*
X471172Y132797D01*
X471847Y132708D01*
Y135863D01*
D02*
G37*
G36*
X287605Y139180D02*
X280899D01*
Y132474D01*
X287605D01*
Y139180D01*
D02*
G37*
G36*
X274252Y139208D02*
X273377Y139093D01*
X272561Y138755D01*
X271861Y138218D01*
X271323Y137518D01*
X270986Y136702D01*
X270870Y135827D01*
X270986Y134951D01*
X271323Y134136D01*
X271861Y133436D01*
X272561Y132898D01*
X273377Y132560D01*
X274252Y132445D01*
X275127Y132560D01*
X275943Y132898D01*
X276643Y133436D01*
X277181Y134136D01*
X277518Y134951D01*
X277634Y135827D01*
X277518Y136702D01*
X277181Y137518D01*
X276643Y138218D01*
X275943Y138755D01*
X275127Y139093D01*
X274252Y139208D01*
D02*
G37*
G36*
X431496Y131728D02*
X430955Y131620D01*
X430497Y131314D01*
X430191Y130856D01*
X430083Y130315D01*
X430191Y129774D01*
X430497Y129316D01*
X430955Y129009D01*
X431496Y128902D01*
X432037Y129009D01*
X432495Y129316D01*
X432801Y129774D01*
X432909Y130315D01*
X432801Y130856D01*
X432495Y131314D01*
X432037Y131620D01*
X431496Y131728D01*
D02*
G37*
G36*
X411417D02*
X410877Y131620D01*
X410418Y131314D01*
X410112Y130856D01*
X410004Y130315D01*
X410112Y129774D01*
X410418Y129316D01*
X410877Y129009D01*
X411417Y128902D01*
X411958Y129009D01*
X412416Y129316D01*
X412723Y129774D01*
X412830Y130315D01*
X412723Y130856D01*
X412416Y131314D01*
X411958Y131620D01*
X411417Y131728D01*
D02*
G37*
G36*
X334646Y130940D02*
X334105Y130833D01*
X333646Y130527D01*
X333340Y130068D01*
X333233Y129528D01*
X333340Y128987D01*
X333646Y128528D01*
X334105Y128222D01*
X334646Y128115D01*
X335186Y128222D01*
X335645Y128528D01*
X335951Y128987D01*
X336059Y129528D01*
X335951Y130068D01*
X335645Y130527D01*
X335186Y130833D01*
X334646Y130940D01*
D02*
G37*
G36*
X339567Y126485D02*
X338897Y126397D01*
X338273Y126138D01*
X337737Y125727D01*
X337341Y125211D01*
X337215Y125191D01*
X336919D01*
X336793Y125211D01*
X336397Y125727D01*
X335861Y126138D01*
X335237Y126397D01*
X334567Y126485D01*
X333897Y126397D01*
X333273Y126138D01*
X332737Y125727D01*
X332341Y125211D01*
X332215Y125191D01*
X331919D01*
X331793Y125211D01*
X331397Y125727D01*
X330861Y126138D01*
X330237Y126397D01*
X329767Y126459D01*
Y123898D01*
X329367D01*
Y126459D01*
X328897Y126397D01*
X328273Y126138D01*
X327737Y125727D01*
X327341Y125211D01*
X327215Y125191D01*
X326919D01*
X326793Y125211D01*
X326397Y125727D01*
X325861Y126138D01*
X325237Y126397D01*
X324567Y126485D01*
X323897Y126397D01*
X323273Y126138D01*
X322737Y125727D01*
X322341Y125211D01*
X322215Y125191D01*
X321919D01*
X321793Y125211D01*
X321397Y125727D01*
X320861Y126138D01*
X320237Y126397D01*
X319567Y126485D01*
X318897Y126397D01*
X318273Y126138D01*
X317737Y125727D01*
X317341Y125211D01*
X317215Y125191D01*
X316919D01*
X316793Y125211D01*
X316397Y125727D01*
X315861Y126138D01*
X315237Y126397D01*
X314567Y126485D01*
X313897Y126397D01*
X313273Y126138D01*
X312737Y125727D01*
X312326Y125191D01*
X312068Y124567D01*
X311979Y123898D01*
X312068Y123228D01*
X312326Y122604D01*
X312737Y122068D01*
X312874Y121963D01*
X312704Y121463D01*
X312002D01*
Y116332D01*
X317132D01*
Y117035D01*
X317632Y117205D01*
X317737Y117068D01*
X318273Y116657D01*
X318897Y116398D01*
X319567Y116310D01*
X320237Y116398D01*
X320861Y116657D01*
X321397Y117068D01*
X321793Y117585D01*
X321919Y117604D01*
X322215D01*
X322341Y117585D01*
X322737Y117068D01*
X323273Y116657D01*
X323897Y116398D01*
X324367Y116337D01*
Y118898D01*
X324767D01*
Y116337D01*
X325237Y116398D01*
X325861Y116657D01*
X326397Y117068D01*
X326793Y117585D01*
X326919Y117604D01*
X327215D01*
X327341Y117585D01*
X327737Y117068D01*
X328273Y116657D01*
X328897Y116398D01*
X329567Y116310D01*
X330237Y116398D01*
X330861Y116657D01*
X331397Y117068D01*
X331793Y117585D01*
X331919Y117604D01*
X332215D01*
X332341Y117585D01*
X332737Y117068D01*
X333273Y116657D01*
X333897Y116398D01*
X334567Y116310D01*
X335237Y116398D01*
X335861Y116657D01*
X336397Y117068D01*
X336793Y117585D01*
X336919Y117604D01*
X337215D01*
X337341Y117585D01*
X337737Y117068D01*
X338273Y116657D01*
X338897Y116398D01*
X339567Y116310D01*
X340237Y116398D01*
X340861Y116657D01*
X341397Y117068D01*
X341808Y117604D01*
X342066Y118228D01*
X342154Y118898D01*
X342066Y119567D01*
X341808Y120191D01*
X341397Y120727D01*
X340880Y121124D01*
X340861Y121250D01*
Y121546D01*
X340880Y121672D01*
X341397Y122068D01*
X341808Y122604D01*
X342066Y123228D01*
X342154Y123898D01*
X342066Y124567D01*
X341808Y125191D01*
X341397Y125727D01*
X340861Y126138D01*
X340237Y126397D01*
X339567Y126485D01*
D02*
G37*
G36*
X405118Y138027D02*
X404577Y137920D01*
X404119Y137613D01*
X403813Y137155D01*
X403705Y136614D01*
X403813Y136074D01*
X404119Y135615D01*
X404577Y135309D01*
X405118Y135201D01*
X405342Y135246D01*
X406892Y133695D01*
X407155Y133520D01*
X407465Y133458D01*
X413035D01*
X415805Y130688D01*
Y126339D01*
X415320Y126138D01*
X414785Y125727D01*
X414388Y125211D01*
X414262Y125191D01*
X413966D01*
X413840Y125211D01*
X413444Y125727D01*
X412908Y126138D01*
X412284Y126397D01*
X411614Y126485D01*
X410945Y126397D01*
X410320Y126138D01*
X409785Y125727D01*
X409373Y125191D01*
X409115Y124567D01*
X409027Y123898D01*
X409115Y123228D01*
X409373Y122604D01*
X409785Y122068D01*
X409921Y121963D01*
X409752Y121463D01*
X409049D01*
Y116332D01*
X414180D01*
Y117035D01*
X414679Y117205D01*
X414785Y117068D01*
X415320Y116657D01*
X415944Y116398D01*
X416614Y116310D01*
X417284Y116398D01*
X417908Y116657D01*
X418444Y117068D01*
X418840Y117585D01*
X418966Y117604D01*
X419262D01*
X419388Y117585D01*
X419785Y117068D01*
X420320Y116657D01*
X420944Y116398D01*
X421414Y116337D01*
Y118898D01*
X421814D01*
Y116337D01*
X422284Y116398D01*
X422908Y116657D01*
X423444Y117068D01*
X423840Y117585D01*
X423966Y117604D01*
X424262Y117604D01*
X424388Y117585D01*
X424785Y117068D01*
X425320Y116657D01*
X425945Y116398D01*
X426614Y116310D01*
X427284Y116398D01*
X427908Y116657D01*
X428444Y117068D01*
X428840Y117585D01*
X428966Y117604D01*
X429262D01*
X429388Y117585D01*
X429785Y117068D01*
X430320Y116657D01*
X430944Y116398D01*
X431614Y116310D01*
X432284Y116398D01*
X432908Y116657D01*
X433444Y117068D01*
X433840Y117585D01*
X433966Y117604D01*
X434262D01*
X434388Y117585D01*
X434785Y117068D01*
X435320Y116657D01*
X435945Y116398D01*
X436614Y116310D01*
X437284Y116398D01*
X437908Y116657D01*
X438444Y117068D01*
X438855Y117604D01*
X439114Y118228D01*
X439202Y118898D01*
X439114Y119567D01*
X438855Y120191D01*
X438444Y120727D01*
X437927Y121124D01*
X437908Y121250D01*
X437908Y121546D01*
X437927Y121672D01*
X438444Y122068D01*
X438855Y122604D01*
X439114Y123228D01*
X439202Y123898D01*
X439114Y124567D01*
X438855Y125191D01*
X438444Y125727D01*
X437908Y126138D01*
X437284Y126397D01*
X436614Y126485D01*
X435945Y126397D01*
X435320Y126138D01*
X434785Y125727D01*
X434388Y125211D01*
X434262Y125191D01*
X433966D01*
X433840Y125211D01*
X433444Y125727D01*
X432908Y126138D01*
X432284Y126397D01*
X431614Y126485D01*
X430944Y126397D01*
X430320Y126138D01*
X429785Y125727D01*
X429388Y125211D01*
X429262Y125191D01*
X428966D01*
X428840Y125211D01*
X428444Y125727D01*
X427908Y126138D01*
X427284Y126397D01*
X426814Y126459D01*
Y123898D01*
X426414D01*
Y126459D01*
X425945Y126397D01*
X425320Y126138D01*
X424785Y125727D01*
X424388Y125211D01*
X424262Y125191D01*
X423966D01*
X423840Y125211D01*
X423444Y125727D01*
X422908Y126138D01*
X422284Y126397D01*
X421614Y126485D01*
X420944Y126397D01*
X420320Y126138D01*
X419785Y125727D01*
X419388Y125211D01*
X419262Y125191D01*
X418966D01*
X418840Y125211D01*
X418444Y125727D01*
X417908Y126138D01*
X417423Y126339D01*
Y131024D01*
X417362Y131333D01*
X417186Y131596D01*
X417186Y131596D01*
X413942Y134840D01*
X413680Y135015D01*
X413370Y135077D01*
X413370Y135077D01*
X407800D01*
X406487Y136390D01*
X406531Y136614D01*
X406424Y137155D01*
X406117Y137613D01*
X405659Y137920D01*
X405118Y138027D01*
D02*
G37*
G36*
X400394Y131334D02*
X399853Y131227D01*
X399395Y130920D01*
X399088Y130462D01*
X398981Y129921D01*
X399088Y129381D01*
X399395Y128922D01*
X399585Y128795D01*
Y126323D01*
X399395Y126196D01*
X399088Y125738D01*
X398981Y125197D01*
X399088Y124656D01*
X399395Y124198D01*
X399853Y123891D01*
X400394Y123784D01*
X400934Y123891D01*
X401393Y124198D01*
X401699Y124656D01*
X401807Y125197D01*
X401699Y125738D01*
X401393Y126196D01*
X401203Y126323D01*
Y128795D01*
X401393Y128922D01*
X401699Y129381D01*
X401807Y129921D01*
X401699Y130462D01*
X401393Y130920D01*
X400934Y131227D01*
X400394Y131334D01*
D02*
G37*
G36*
X385790Y124615D02*
Y121460D01*
X388946D01*
X388857Y122135D01*
X388519Y122951D01*
X387982Y123651D01*
X387281Y124188D01*
X386466Y124526D01*
X385790Y124615D01*
D02*
G37*
G36*
X385390D02*
X384715Y124526D01*
X383900Y124188D01*
X383199Y123651D01*
X382662Y122951D01*
X382324Y122135D01*
X382235Y121460D01*
X385390D01*
Y124615D01*
D02*
G37*
G36*
X375590Y125429D02*
X374715Y125314D01*
X373900Y124976D01*
X373199Y124438D01*
X372662Y123738D01*
X372324Y122923D01*
X372209Y122047D01*
X372324Y121172D01*
X372662Y120356D01*
X373199Y119656D01*
X373900Y119119D01*
X374715Y118781D01*
X375590Y118666D01*
X376466Y118781D01*
X377281Y119119D01*
X377982Y119656D01*
X378519Y120356D01*
X378857Y121172D01*
X378972Y122047D01*
X378857Y122923D01*
X378519Y123738D01*
X377982Y124438D01*
X377281Y124976D01*
X376466Y125314D01*
X375590Y125429D01*
D02*
G37*
G36*
X368943Y124613D02*
X362238D01*
Y117907D01*
X368943D01*
Y124613D01*
D02*
G37*
G36*
X388946Y121060D02*
X385790D01*
Y117904D01*
X386466Y117993D01*
X387281Y118331D01*
X387982Y118869D01*
X388519Y119569D01*
X388857Y120385D01*
X388946Y121060D01*
D02*
G37*
G36*
X385390D02*
X382235D01*
X382324Y120385D01*
X382662Y119569D01*
X383199Y118869D01*
X383900Y118331D01*
X384715Y117993D01*
X385390Y117904D01*
Y121060D01*
D02*
G37*
G36*
X334646Y114011D02*
X334105Y113904D01*
X333646Y113598D01*
X333340Y113139D01*
X333233Y112598D01*
X333340Y112058D01*
X333646Y111599D01*
X334105Y111293D01*
X334646Y111186D01*
X335186Y111293D01*
X335645Y111599D01*
X335951Y112058D01*
X336059Y112598D01*
X335951Y113139D01*
X335645Y113598D01*
X335186Y113904D01*
X334646Y114011D01*
D02*
G37*
G36*
X416535Y111649D02*
X415995Y111542D01*
X415536Y111235D01*
X415230Y110777D01*
X415123Y110236D01*
X415230Y109695D01*
X415536Y109237D01*
X415995Y108931D01*
X416535Y108823D01*
X417076Y108931D01*
X417535Y109237D01*
X417841Y109695D01*
X417948Y110236D01*
X417841Y110777D01*
X417535Y111235D01*
X417076Y111542D01*
X416535Y111649D01*
D02*
G37*
G36*
X411417D02*
X410877Y111542D01*
X410418Y111235D01*
X410112Y110777D01*
X410004Y110236D01*
X410112Y109695D01*
X410418Y109237D01*
X410877Y108931D01*
X411417Y108823D01*
X411958Y108931D01*
X412416Y109237D01*
X412723Y109695D01*
X412830Y110236D01*
X412723Y110777D01*
X412416Y111235D01*
X411958Y111542D01*
X411417Y111649D01*
D02*
G37*
G36*
X405512Y108500D02*
X404971Y108392D01*
X404513Y108086D01*
X404206Y107627D01*
X404099Y107087D01*
X404206Y106546D01*
X404513Y106088D01*
X404971Y105781D01*
X405512Y105674D01*
X406052Y105781D01*
X406511Y106088D01*
X406817Y106546D01*
X406925Y107087D01*
X406817Y107627D01*
X406511Y108086D01*
X406052Y108392D01*
X405512Y108500D01*
D02*
G37*
G36*
X472047Y128884D02*
X470115Y128733D01*
X468231Y128280D01*
X466441Y127539D01*
X464789Y126526D01*
X463315Y125268D01*
X462057Y123794D01*
X461044Y122142D01*
X460303Y120352D01*
X459850Y118467D01*
X459698Y116535D01*
X459850Y114604D01*
X460303Y112719D01*
X461044Y110929D01*
X462057Y109277D01*
X463315Y107803D01*
X464789Y106545D01*
X466441Y105532D01*
X468231Y104791D01*
X470115Y104338D01*
X472047Y104186D01*
X473979Y104338D01*
X475863Y104791D01*
X477654Y105532D01*
X479306Y106545D01*
X480779Y107803D01*
X482038Y109277D01*
X483050Y110929D01*
X483792Y112719D01*
X484244Y114604D01*
X484396Y116535D01*
X484244Y118467D01*
X483792Y120352D01*
X483050Y122142D01*
X482038Y123794D01*
X480779Y125268D01*
X479306Y126526D01*
X477654Y127539D01*
X475863Y128280D01*
X473979Y128733D01*
X472047Y128884D01*
D02*
G37*
G36*
X279134D02*
X277202Y128733D01*
X275318Y128280D01*
X273528Y127539D01*
X271875Y126526D01*
X270402Y125268D01*
X269143Y123794D01*
X268131Y122142D01*
X267389Y120352D01*
X266937Y118467D01*
X266785Y116535D01*
X266937Y114604D01*
X267389Y112719D01*
X268131Y110929D01*
X269143Y109277D01*
X270402Y107803D01*
X271875Y106545D01*
X273528Y105532D01*
X275318Y104791D01*
X277202Y104338D01*
X279134Y104186D01*
X281066Y104338D01*
X282950Y104791D01*
X284740Y105532D01*
X286392Y106545D01*
X287866Y107803D01*
X289124Y109277D01*
X290137Y110929D01*
X290879Y112719D01*
X291331Y114604D01*
X291483Y116535D01*
X291331Y118467D01*
X290879Y120352D01*
X290137Y122142D01*
X289124Y123794D01*
X287866Y125268D01*
X286392Y126526D01*
X284740Y127539D01*
X282950Y128280D01*
X281066Y128733D01*
X279134Y128884D01*
D02*
G37*
%LPD*%
D11*
X361811Y217323D02*
X364173Y219685D01*
X371654D02*
X376378Y214961D01*
X364173Y219685D02*
X371654D01*
X407465Y134268D02*
X413370D01*
X405118Y136614D02*
X407465Y134268D01*
X413370D02*
X416614Y131024D01*
X393307Y198425D02*
Y211024D01*
X389370Y201575D02*
Y212992D01*
X354724Y200394D02*
X375590D01*
X379134Y203937D01*
X416614Y123898D02*
Y131024D01*
X400394Y125197D02*
Y129921D01*
D39*
X385591Y121260D02*
D03*
X384409Y229528D02*
D03*
X404016Y143307D02*
D03*
X312126D02*
D03*
X472047Y136063D02*
D03*
Y180315D02*
D03*
X284252Y325827D02*
D03*
X274252Y295827D02*
D03*
Y275827D02*
D03*
X284252Y255827D02*
D03*
X274252Y225827D02*
D03*
Y195827D02*
D03*
X284252Y175827D02*
D03*
X274252Y155827D02*
D03*
D41*
X426614Y123898D02*
D03*
X421614Y118898D02*
D03*
X416614Y123898D02*
D03*
X324567Y118898D02*
D03*
X329567Y123898D02*
D03*
D43*
X444016Y143307D02*
D03*
X342126D02*
D03*
D44*
X361811Y217323D02*
D03*
X405118Y136614D02*
D03*
X393307Y198425D02*
D03*
X389370Y201575D02*
D03*
X354724Y200394D02*
D03*
X389370Y212992D02*
D03*
X393307Y211024D02*
D03*
X376378Y214961D02*
D03*
X379134Y203937D02*
D03*
X383148Y178663D02*
D03*
X374410Y203150D02*
D03*
X370079Y192913D02*
D03*
X360438Y179385D02*
D03*
X400394Y125197D02*
D03*
X477165Y168504D02*
D03*
Y156693D02*
D03*
X400394Y129921D02*
D03*
X377559Y150000D02*
D03*
X390773Y160093D02*
D03*
X378346Y154724D02*
D03*
X367961Y160237D02*
D03*
X354724Y150000D02*
D03*
X355512Y154724D02*
D03*
M02*
