G04*
G04 #@! TF.GenerationSoftware,Altium Limited,Altium Designer,20.0.9 (164)*
G04*
G04 Layer_Color=16711935*
%FSLAX25Y25*%
%MOIN*%
G70*
G01*
G75*
%ADD48C,0.10630*%
%ADD49C,0.11811*%
%ADD50C,0.06496*%
%ADD51R,0.06496X0.06496*%
%ADD52R,0.06496X0.06496*%
%ADD53C,0.04528*%
%ADD54C,0.03347*%
%ADD55C,0.02362*%
%ADD56C,0.02559*%
%ADD57C,0.02953*%
%ADD58C,0.26772*%
D48*
X57087Y235827D02*
D03*
X200394Y196063D02*
D03*
D49*
X57087Y218110D02*
D03*
X182677Y196063D02*
D03*
D50*
X119055Y18504D02*
D03*
X109055Y19291D02*
D03*
X138661Y46063D02*
D03*
X148661D02*
D03*
X158661D02*
D03*
X168661D02*
D03*
X46693D02*
D03*
X56693D02*
D03*
X66693D02*
D03*
X8898Y223071D02*
D03*
X18898D02*
D03*
X8898Y213071D02*
D03*
X18898D02*
D03*
X8898Y203071D02*
D03*
X18898D02*
D03*
X8898Y193071D02*
D03*
X18898D02*
D03*
X8898Y183071D02*
D03*
X18898D02*
D03*
X8898Y173071D02*
D03*
X18898D02*
D03*
X8898Y163071D02*
D03*
X18898D02*
D03*
X8898Y153071D02*
D03*
X18898D02*
D03*
X8898Y143071D02*
D03*
X18898D02*
D03*
X8898Y133071D02*
D03*
X18898D02*
D03*
X8898Y123071D02*
D03*
X18898D02*
D03*
X8898Y113071D02*
D03*
X18898D02*
D03*
X8898Y103071D02*
D03*
X18898D02*
D03*
X8898Y93071D02*
D03*
X18898D02*
D03*
X8898Y83071D02*
D03*
X18898D02*
D03*
X8898Y73071D02*
D03*
X18898D02*
D03*
X8898Y63071D02*
D03*
X18898D02*
D03*
X8898Y53071D02*
D03*
X18898D02*
D03*
X8898Y43071D02*
D03*
X18898D02*
D03*
X8898Y33071D02*
D03*
D51*
X99055Y18504D02*
D03*
X178661Y46063D02*
D03*
X76693D02*
D03*
D52*
X18898Y33071D02*
D03*
D53*
X111417Y222047D02*
D03*
X105709Y222244D02*
D03*
X100000Y222047D02*
D03*
D54*
X200394Y223622D02*
D03*
X206299Y217717D02*
D03*
X200394Y211811D02*
D03*
X194488Y217717D02*
D03*
X176181Y223622D02*
D03*
X182087Y217717D02*
D03*
X176181Y211811D02*
D03*
X170276Y217717D02*
D03*
X35433Y217520D02*
D03*
X41339Y211614D02*
D03*
X35433Y205709D02*
D03*
X29528Y211614D02*
D03*
Y235827D02*
D03*
X35433Y229921D02*
D03*
X41339Y235827D02*
D03*
X35433Y241732D02*
D03*
X161417Y130315D02*
D03*
X155905D02*
D03*
D55*
X171260Y11811D02*
D03*
X200787Y114961D02*
D03*
X200394Y125197D02*
D03*
X218504Y114567D02*
D03*
Y125197D02*
D03*
Y120079D02*
D03*
X38583Y22835D02*
D03*
X37008Y25197D02*
D03*
X35433Y27559D02*
D03*
Y53150D02*
D03*
X143341Y28690D02*
D03*
X77165Y104331D02*
D03*
X92520Y73622D02*
D03*
X104331Y67716D02*
D03*
X88976Y70472D02*
D03*
X121260Y70079D02*
D03*
X69291Y37795D02*
D03*
X54331D02*
D03*
Y11024D02*
D03*
X49213D02*
D03*
X108661Y80709D02*
D03*
X101575D02*
D03*
X105118Y70866D02*
D03*
Y80709D02*
D03*
X151181Y38583D02*
D03*
X146063Y11811D02*
D03*
X151181D02*
D03*
X98032Y70472D02*
D03*
X112205D02*
D03*
X49213Y25984D02*
D03*
X54331D02*
D03*
X69291Y11024D02*
D03*
X156299Y11811D02*
D03*
X161024Y38583D02*
D03*
X166142Y23622D02*
D03*
Y26772D02*
D03*
X171260Y25984D02*
D03*
X77559Y16929D02*
D03*
Y31890D02*
D03*
X125984Y25984D02*
D03*
X131496D02*
D03*
X64173Y37795D02*
D03*
X59449Y22835D02*
D03*
X127953Y47244D02*
D03*
X102362Y47244D02*
D03*
X127944Y65281D02*
D03*
X102359Y65281D02*
D03*
X114567Y218110D02*
D03*
X118504Y203937D02*
D03*
X112992Y51968D02*
D03*
X118110Y73622D02*
D03*
X127165Y67716D02*
D03*
X83071D02*
D03*
X108661D02*
D03*
X112205Y47244D02*
D03*
X125418Y57337D02*
D03*
X99851Y57481D02*
D03*
X86614Y47244D02*
D03*
X87402Y51968D02*
D03*
D56*
X125591Y96457D02*
D03*
X120866D02*
D03*
X116142D02*
D03*
Y100787D02*
D03*
X120866D02*
D03*
X125591D02*
D03*
X101969Y162205D02*
D03*
X99606D02*
D03*
Y159843D02*
D03*
X101969D02*
D03*
X104331D02*
D03*
X98032Y131102D02*
D03*
X101969D02*
D03*
Y127559D02*
D03*
X98032D02*
D03*
X84646Y115748D02*
D03*
X89370D02*
D03*
X88189Y157087D02*
D03*
X83858D02*
D03*
X88189Y153543D02*
D03*
X83858D02*
D03*
X86614Y150394D02*
D03*
Y146457D02*
D03*
Y140945D02*
D03*
Y134646D02*
D03*
Y128347D02*
D03*
Y122047D02*
D03*
X148819Y127559D02*
D03*
X152756D02*
D03*
Y131102D02*
D03*
X148819D02*
D03*
X140157Y115748D02*
D03*
X135433D02*
D03*
X137402Y122047D02*
D03*
Y128347D02*
D03*
Y134646D02*
D03*
Y140945D02*
D03*
Y146457D02*
D03*
Y150394D02*
D03*
X134646Y153543D02*
D03*
X138976D02*
D03*
X134646Y157087D02*
D03*
X138976D02*
D03*
X155118Y159843D02*
D03*
X152756D02*
D03*
X150394D02*
D03*
Y162205D02*
D03*
X152756D02*
D03*
D57*
X152362Y172835D02*
D03*
X101575D02*
D03*
X75984Y162992D02*
D03*
X126772D02*
D03*
D58*
X206693Y242126D02*
D03*
X13780D02*
D03*
Y13780D02*
D03*
X206693D02*
D03*
M02*
