G04*
G04 #@! TF.GenerationSoftware,Altium Limited,Altium Designer,21.7.2 (23)*
G04*
G04 Layer_Physical_Order=4*
G04 Layer_Color=16711680*
%FSLAX25Y25*%
%MOIN*%
G70*
G04*
G04 #@! TF.SameCoordinates,72A3C6AD-17B6-4F61-9830-52E5D45F99D0*
G04*
G04*
G04 #@! TF.FilePolarity,Positive*
G04*
G01*
G75*
%ADD11C,0.00787*%
%ADD39C,0.05906*%
%ADD40R,0.05906X0.05906*%
%ADD41C,0.04331*%
%ADD42R,0.04331X0.04331*%
%ADD43R,0.05906X0.05906*%
%ADD44C,0.01772*%
%ADD45C,0.23622*%
G36*
X474856Y357642D02*
X476456Y357214D01*
X477987Y356579D01*
X479422Y355751D01*
X480736Y354743D01*
X481908Y353571D01*
X482916Y352257D01*
X483745Y350822D01*
X484379Y349291D01*
X484808Y347691D01*
X485024Y346048D01*
Y345220D01*
Y116198D01*
Y115369D01*
X484808Y113727D01*
X484379Y112126D01*
X483745Y110596D01*
X482916Y109161D01*
X481908Y107846D01*
X480736Y106675D01*
X479422Y105666D01*
X477987Y104838D01*
X476456Y104204D01*
X474856Y103775D01*
X473213Y103559D01*
X277942D01*
X276303Y103774D01*
X274706Y104202D01*
X273179Y104835D01*
X271747Y105661D01*
X270435Y106668D01*
X269266Y107837D01*
X268260Y109148D01*
X267433Y110580D01*
X266801Y112107D01*
X266373Y113704D01*
X266157Y115343D01*
Y116170D01*
Y345220D01*
Y346048D01*
X266373Y347691D01*
X266802Y349291D01*
X267436Y350822D01*
X268265Y352256D01*
X269273Y353571D01*
X270445Y354743D01*
X271759Y355751D01*
X273194Y356579D01*
X274725Y357214D01*
X276325Y357642D01*
X277968Y357859D01*
X473213D01*
X474856Y357642D01*
D02*
G37*
%LPC*%
G36*
X472047Y357231D02*
X470115Y357079D01*
X468231Y356627D01*
X466441Y355885D01*
X464789Y354872D01*
X463315Y353614D01*
X462057Y352140D01*
X461044Y350488D01*
X460303Y348698D01*
X459850Y346814D01*
X459698Y344882D01*
X459850Y342950D01*
X460303Y341066D01*
X461044Y339276D01*
X462057Y337623D01*
X463315Y336150D01*
X464789Y334891D01*
X466441Y333879D01*
X468231Y333137D01*
X470115Y332685D01*
X472047Y332533D01*
X473979Y332685D01*
X475863Y333137D01*
X477654Y333879D01*
X479306Y334891D01*
X480779Y336150D01*
X482038Y337623D01*
X483050Y339276D01*
X483792Y341066D01*
X484244Y342950D01*
X484396Y344882D01*
X484244Y346814D01*
X483792Y348698D01*
X483050Y350488D01*
X482038Y352140D01*
X480779Y353614D01*
X479306Y354872D01*
X477654Y355885D01*
X475863Y356627D01*
X473979Y357079D01*
X472047Y357231D01*
D02*
G37*
G36*
X279134D02*
X277202Y357079D01*
X275318Y356627D01*
X273528Y355885D01*
X271875Y354872D01*
X270402Y353614D01*
X269143Y352140D01*
X268131Y350488D01*
X267389Y348698D01*
X266937Y346814D01*
X266785Y344882D01*
X266937Y342950D01*
X267389Y341066D01*
X268131Y339276D01*
X269143Y337623D01*
X270402Y336150D01*
X271875Y334891D01*
X273528Y333879D01*
X275318Y333137D01*
X277202Y332685D01*
X279134Y332533D01*
X281066Y332685D01*
X282950Y333137D01*
X284740Y333879D01*
X286392Y334891D01*
X287866Y336150D01*
X289124Y337623D01*
X290137Y339276D01*
X290879Y341066D01*
X291331Y342950D01*
X291483Y344882D01*
X291331Y346814D01*
X290879Y348698D01*
X290137Y350488D01*
X289124Y352140D01*
X287866Y353614D01*
X286392Y354872D01*
X284740Y355885D01*
X282950Y356627D01*
X281066Y357079D01*
X279134Y357231D01*
D02*
G37*
G36*
X284452Y329182D02*
Y326027D01*
X287607D01*
X287518Y326702D01*
X287181Y327518D01*
X286643Y328218D01*
X285943Y328755D01*
X285127Y329093D01*
X284452Y329182D01*
D02*
G37*
G36*
X284052D02*
X283377Y329093D01*
X282561Y328755D01*
X281861Y328218D01*
X281323Y327518D01*
X280985Y326702D01*
X280897Y326027D01*
X284052D01*
Y329182D01*
D02*
G37*
G36*
Y325627D02*
X280897D01*
X280985Y324952D01*
X281323Y324136D01*
X281861Y323436D01*
X282561Y322898D01*
X283377Y322560D01*
X284052Y322471D01*
Y325627D01*
D02*
G37*
G36*
X287607D02*
X284452D01*
Y322471D01*
X285127Y322560D01*
X285943Y322898D01*
X286643Y323436D01*
X287181Y324136D01*
X287518Y324952D01*
X287607Y325627D01*
D02*
G37*
G36*
X274252Y329208D02*
X273377Y329093D01*
X272561Y328755D01*
X271861Y328218D01*
X271323Y327518D01*
X270986Y326702D01*
X270870Y325827D01*
X270986Y324952D01*
X271323Y324136D01*
X271861Y323436D01*
X272561Y322898D01*
X273377Y322560D01*
X274252Y322445D01*
X275127Y322560D01*
X275943Y322898D01*
X276643Y323436D01*
X277181Y324136D01*
X277518Y324952D01*
X277634Y325827D01*
X277518Y326702D01*
X277181Y327518D01*
X276643Y328218D01*
X275943Y328755D01*
X275127Y329093D01*
X274252Y329208D01*
D02*
G37*
G36*
X284252Y319208D02*
X283377Y319093D01*
X282561Y318755D01*
X281861Y318218D01*
X281323Y317518D01*
X280985Y316702D01*
X280870Y315827D01*
X280985Y314951D01*
X281323Y314136D01*
X281861Y313436D01*
X282561Y312898D01*
X283377Y312560D01*
X284252Y312445D01*
X285127Y312560D01*
X285943Y312898D01*
X286643Y313436D01*
X287181Y314136D01*
X287518Y314951D01*
X287634Y315827D01*
X287518Y316702D01*
X287181Y317518D01*
X286643Y318218D01*
X285943Y318755D01*
X285127Y319093D01*
X284252Y319208D01*
D02*
G37*
G36*
X274252D02*
X273377Y319093D01*
X272561Y318755D01*
X271861Y318218D01*
X271323Y317518D01*
X270986Y316702D01*
X270870Y315827D01*
X270986Y314951D01*
X271323Y314136D01*
X271861Y313436D01*
X272561Y312898D01*
X273377Y312560D01*
X274252Y312445D01*
X275127Y312560D01*
X275943Y312898D01*
X276643Y313436D01*
X277181Y314136D01*
X277518Y314951D01*
X277634Y315827D01*
X277518Y316702D01*
X277181Y317518D01*
X276643Y318218D01*
X275943Y318755D01*
X275127Y319093D01*
X274252Y319208D01*
D02*
G37*
G36*
X284252Y309208D02*
X283377Y309093D01*
X282561Y308755D01*
X281861Y308218D01*
X281323Y307518D01*
X280985Y306702D01*
X280870Y305827D01*
X280985Y304952D01*
X281323Y304136D01*
X281861Y303436D01*
X282561Y302898D01*
X283377Y302560D01*
X284252Y302445D01*
X285127Y302560D01*
X285943Y302898D01*
X286643Y303436D01*
X287181Y304136D01*
X287518Y304952D01*
X287634Y305827D01*
X287518Y306702D01*
X287181Y307518D01*
X286643Y308218D01*
X285943Y308755D01*
X285127Y309093D01*
X284252Y309208D01*
D02*
G37*
G36*
X274252D02*
X273377Y309093D01*
X272561Y308755D01*
X271861Y308218D01*
X271323Y307518D01*
X270986Y306702D01*
X270870Y305827D01*
X270986Y304952D01*
X271323Y304136D01*
X271861Y303436D01*
X272561Y302898D01*
X273377Y302560D01*
X274252Y302445D01*
X275127Y302560D01*
X275943Y302898D01*
X276643Y303436D01*
X277181Y304136D01*
X277518Y304952D01*
X277634Y305827D01*
X277518Y306702D01*
X277181Y307518D01*
X276643Y308218D01*
X275943Y308755D01*
X275127Y309093D01*
X274252Y309208D01*
D02*
G37*
G36*
X274452Y299182D02*
Y296027D01*
X277607D01*
X277518Y296702D01*
X277181Y297518D01*
X276643Y298218D01*
X275943Y298755D01*
X275127Y299093D01*
X274452Y299182D01*
D02*
G37*
G36*
X274052D02*
X273377Y299093D01*
X272561Y298755D01*
X271861Y298218D01*
X271323Y297518D01*
X270986Y296702D01*
X270897Y296027D01*
X274052D01*
Y299182D01*
D02*
G37*
G36*
Y295627D02*
X270897D01*
X270986Y294952D01*
X271323Y294136D01*
X271861Y293436D01*
X272561Y292898D01*
X273377Y292560D01*
X274052Y292471D01*
Y295627D01*
D02*
G37*
G36*
X277607D02*
X274452D01*
Y292471D01*
X275127Y292560D01*
X275943Y292898D01*
X276643Y293436D01*
X277181Y294136D01*
X277518Y294952D01*
X277607Y295627D01*
D02*
G37*
G36*
X284252Y299208D02*
X283377Y299093D01*
X282561Y298755D01*
X281861Y298218D01*
X281323Y297518D01*
X280985Y296702D01*
X280870Y295827D01*
X280985Y294952D01*
X281323Y294136D01*
X281861Y293436D01*
X282561Y292898D01*
X283377Y292560D01*
X284252Y292445D01*
X285127Y292560D01*
X285943Y292898D01*
X286643Y293436D01*
X287181Y294136D01*
X287518Y294952D01*
X287634Y295827D01*
X287518Y296702D01*
X287181Y297518D01*
X286643Y298218D01*
X285943Y298755D01*
X285127Y299093D01*
X284252Y299208D01*
D02*
G37*
G36*
Y289208D02*
X283377Y289093D01*
X282561Y288755D01*
X281861Y288218D01*
X281323Y287518D01*
X280985Y286702D01*
X280870Y285827D01*
X280985Y284951D01*
X281323Y284136D01*
X281861Y283436D01*
X282561Y282898D01*
X283377Y282560D01*
X284252Y282445D01*
X285127Y282560D01*
X285943Y282898D01*
X286643Y283436D01*
X287181Y284136D01*
X287518Y284951D01*
X287634Y285827D01*
X287518Y286702D01*
X287181Y287518D01*
X286643Y288218D01*
X285943Y288755D01*
X285127Y289093D01*
X284252Y289208D01*
D02*
G37*
G36*
X274252D02*
X273377Y289093D01*
X272561Y288755D01*
X271861Y288218D01*
X271323Y287518D01*
X270986Y286702D01*
X270870Y285827D01*
X270986Y284951D01*
X271323Y284136D01*
X271861Y283436D01*
X272561Y282898D01*
X273377Y282560D01*
X274252Y282445D01*
X275127Y282560D01*
X275943Y282898D01*
X276643Y283436D01*
X277181Y284136D01*
X277518Y284951D01*
X277634Y285827D01*
X277518Y286702D01*
X277181Y287518D01*
X276643Y288218D01*
X275943Y288755D01*
X275127Y289093D01*
X274252Y289208D01*
D02*
G37*
G36*
X274452Y279182D02*
Y276027D01*
X277607D01*
X277518Y276702D01*
X277181Y277518D01*
X276643Y278218D01*
X275943Y278755D01*
X275127Y279093D01*
X274452Y279182D01*
D02*
G37*
G36*
X274052D02*
X273377Y279093D01*
X272561Y278755D01*
X271861Y278218D01*
X271323Y277518D01*
X270986Y276702D01*
X270897Y276027D01*
X274052D01*
Y279182D01*
D02*
G37*
G36*
Y275627D02*
X270897D01*
X270986Y274952D01*
X271323Y274136D01*
X271861Y273436D01*
X272561Y272898D01*
X273377Y272560D01*
X274052Y272471D01*
Y275627D01*
D02*
G37*
G36*
X277607D02*
X274452D01*
Y272471D01*
X275127Y272560D01*
X275943Y272898D01*
X276643Y273436D01*
X277181Y274136D01*
X277518Y274952D01*
X277607Y275627D01*
D02*
G37*
G36*
X284252Y279208D02*
X283377Y279093D01*
X282561Y278755D01*
X281861Y278218D01*
X281323Y277518D01*
X280985Y276702D01*
X280870Y275827D01*
X280985Y274952D01*
X281323Y274136D01*
X281861Y273436D01*
X282561Y272898D01*
X283377Y272560D01*
X284252Y272445D01*
X285127Y272560D01*
X285943Y272898D01*
X286643Y273436D01*
X287181Y274136D01*
X287518Y274952D01*
X287634Y275827D01*
X287518Y276702D01*
X287181Y277518D01*
X286643Y278218D01*
X285943Y278755D01*
X285127Y279093D01*
X284252Y279208D01*
D02*
G37*
G36*
Y269208D02*
X283377Y269093D01*
X282561Y268755D01*
X281861Y268218D01*
X281323Y267518D01*
X280985Y266702D01*
X280870Y265827D01*
X280985Y264951D01*
X281323Y264136D01*
X281861Y263436D01*
X282561Y262898D01*
X283377Y262560D01*
X284252Y262445D01*
X285127Y262560D01*
X285943Y262898D01*
X286643Y263436D01*
X287181Y264136D01*
X287518Y264951D01*
X287634Y265827D01*
X287518Y266702D01*
X287181Y267518D01*
X286643Y268218D01*
X285943Y268755D01*
X285127Y269093D01*
X284252Y269208D01*
D02*
G37*
G36*
X274252D02*
X273377Y269093D01*
X272561Y268755D01*
X271861Y268218D01*
X271323Y267518D01*
X270986Y266702D01*
X270870Y265827D01*
X270986Y264951D01*
X271323Y264136D01*
X271861Y263436D01*
X272561Y262898D01*
X273377Y262560D01*
X274252Y262445D01*
X275127Y262560D01*
X275943Y262898D01*
X276643Y263436D01*
X277181Y264136D01*
X277518Y264951D01*
X277634Y265827D01*
X277518Y266702D01*
X277181Y267518D01*
X276643Y268218D01*
X275943Y268755D01*
X275127Y269093D01*
X274252Y269208D01*
D02*
G37*
G36*
X284452Y259182D02*
Y256027D01*
X287607D01*
X287518Y256702D01*
X287181Y257518D01*
X286643Y258218D01*
X285943Y258755D01*
X285127Y259093D01*
X284452Y259182D01*
D02*
G37*
G36*
X284052D02*
X283377Y259093D01*
X282561Y258755D01*
X281861Y258218D01*
X281323Y257518D01*
X280985Y256702D01*
X280897Y256027D01*
X284052D01*
Y259182D01*
D02*
G37*
G36*
Y255627D02*
X280897D01*
X280985Y254952D01*
X281323Y254136D01*
X281861Y253436D01*
X282561Y252898D01*
X283377Y252560D01*
X284052Y252471D01*
Y255627D01*
D02*
G37*
G36*
X287607D02*
X284452D01*
Y252471D01*
X285127Y252560D01*
X285943Y252898D01*
X286643Y253436D01*
X287181Y254136D01*
X287518Y254952D01*
X287607Y255627D01*
D02*
G37*
G36*
X274252Y259208D02*
X273377Y259093D01*
X272561Y258755D01*
X271861Y258218D01*
X271323Y257518D01*
X270986Y256702D01*
X270870Y255827D01*
X270986Y254952D01*
X271323Y254136D01*
X271861Y253436D01*
X272561Y252898D01*
X273377Y252560D01*
X274252Y252445D01*
X275127Y252560D01*
X275943Y252898D01*
X276643Y253436D01*
X277181Y254136D01*
X277518Y254952D01*
X277634Y255827D01*
X277518Y256702D01*
X277181Y257518D01*
X276643Y258218D01*
X275943Y258755D01*
X275127Y259093D01*
X274252Y259208D01*
D02*
G37*
G36*
Y249208D02*
X273377Y249093D01*
X272561Y248755D01*
X271861Y248218D01*
X271323Y247518D01*
X270986Y246702D01*
X270870Y245827D01*
X270986Y244952D01*
X271323Y244136D01*
X271861Y243436D01*
X272561Y242898D01*
X273377Y242560D01*
X274252Y242445D01*
X275127Y242560D01*
X275943Y242898D01*
X276643Y243436D01*
X277181Y244136D01*
X277518Y244952D01*
X277634Y245827D01*
X277518Y246702D01*
X277181Y247518D01*
X276643Y248218D01*
X275943Y248755D01*
X275127Y249093D01*
X274252Y249208D01*
D02*
G37*
G36*
Y239208D02*
X273377Y239093D01*
X272561Y238755D01*
X271861Y238218D01*
X271323Y237518D01*
X270986Y236702D01*
X270870Y235827D01*
X270986Y234951D01*
X271323Y234136D01*
X271861Y233436D01*
X272561Y232898D01*
X273377Y232560D01*
X274252Y232445D01*
X275127Y232560D01*
X275943Y232898D01*
X276643Y233436D01*
X277181Y234136D01*
X277518Y234951D01*
X277634Y235827D01*
X277518Y236702D01*
X277181Y237518D01*
X276643Y238218D01*
X275943Y238755D01*
X275127Y239093D01*
X274252Y239208D01*
D02*
G37*
G36*
X384610Y232883D02*
Y229728D01*
X387765D01*
X387676Y230403D01*
X387338Y231218D01*
X386801Y231919D01*
X386100Y232456D01*
X385285Y232794D01*
X384610Y232883D01*
D02*
G37*
G36*
X384209D02*
X383534Y232794D01*
X382719Y232456D01*
X382018Y231919D01*
X381481Y231218D01*
X381143Y230403D01*
X381054Y229728D01*
X384209D01*
Y232883D01*
D02*
G37*
G36*
X387765Y229328D02*
X384610D01*
Y226172D01*
X385285Y226261D01*
X386100Y226599D01*
X386801Y227136D01*
X387338Y227837D01*
X387676Y228652D01*
X387765Y229328D01*
D02*
G37*
G36*
X384209D02*
X381054D01*
X381143Y228652D01*
X381481Y227837D01*
X382018Y227136D01*
X382719Y226599D01*
X383534Y226261D01*
X384209Y226172D01*
Y229328D01*
D02*
G37*
G36*
X274452Y229182D02*
Y226027D01*
X277607D01*
X277518Y226702D01*
X277181Y227518D01*
X276643Y228218D01*
X275943Y228755D01*
X275127Y229093D01*
X274452Y229182D01*
D02*
G37*
G36*
X274052D02*
X273377Y229093D01*
X272561Y228755D01*
X271861Y228218D01*
X271323Y227518D01*
X270986Y226702D01*
X270897Y226027D01*
X274052D01*
Y229182D01*
D02*
G37*
G36*
X284252Y249208D02*
X283377Y249093D01*
X282561Y248755D01*
X281861Y248218D01*
X281323Y247518D01*
X280985Y246702D01*
X280870Y245827D01*
X280985Y244952D01*
X281323Y244136D01*
X281861Y243436D01*
X282561Y242898D01*
X283377Y242560D01*
X284252Y242445D01*
X285127Y242560D01*
X285943Y242898D01*
X285996Y242939D01*
X312184Y216751D01*
X312446Y216575D01*
X312756Y216514D01*
X312756Y216514D01*
X360495D01*
X360683Y216270D01*
X360437Y215770D01*
X305453D01*
X287140Y234083D01*
X287181Y234136D01*
X287518Y234951D01*
X287634Y235827D01*
X287518Y236702D01*
X287181Y237518D01*
X286643Y238218D01*
X285943Y238755D01*
X285127Y239093D01*
X284252Y239208D01*
X283377Y239093D01*
X282561Y238755D01*
X281861Y238218D01*
X281323Y237518D01*
X280985Y236702D01*
X280870Y235827D01*
X280985Y234951D01*
X281323Y234136D01*
X281861Y233436D01*
X282561Y232898D01*
X283377Y232560D01*
X284252Y232445D01*
X285127Y232560D01*
X285943Y232898D01*
X285996Y232939D01*
X304546Y214388D01*
X304546Y214388D01*
X304808Y214213D01*
X305118Y214151D01*
X305118Y214151D01*
X361892D01*
X362160Y213651D01*
X362080Y213533D01*
X361973Y212992D01*
X362080Y212451D01*
X362387Y211993D01*
X362577Y211866D01*
Y199012D01*
X362077Y198766D01*
X361833Y198954D01*
Y204331D01*
X361833Y204331D01*
X361771Y204640D01*
X361596Y204903D01*
X361596Y204903D01*
X358446Y208052D01*
X358184Y208228D01*
X357874Y208290D01*
X357874Y208290D01*
X302304D01*
X288368Y222226D01*
X288105Y222401D01*
X287795Y222463D01*
X287795Y222463D01*
X286161D01*
X286078Y222629D01*
X286027Y222963D01*
X286643Y223436D01*
X287181Y224136D01*
X287518Y224952D01*
X287634Y225827D01*
X287518Y226702D01*
X287181Y227518D01*
X286643Y228218D01*
X285943Y228755D01*
X285127Y229093D01*
X284252Y229208D01*
X283377Y229093D01*
X282561Y228755D01*
X281861Y228218D01*
X281323Y227518D01*
X280985Y226702D01*
X280870Y225827D01*
X280985Y224952D01*
X281323Y224136D01*
X281861Y223436D01*
X282477Y222963D01*
X282426Y222629D01*
X282343Y222463D01*
X276161D01*
X276078Y222629D01*
X276027Y222963D01*
X276643Y223436D01*
X277181Y224136D01*
X277518Y224952D01*
X277607Y225627D01*
X274252D01*
X270897D01*
X270986Y224952D01*
X271323Y224136D01*
X271861Y223436D01*
X272477Y222963D01*
X272426Y222629D01*
X272343Y222463D01*
X271513D01*
X271513Y222463D01*
X271203Y222401D01*
X270941Y222226D01*
X267245Y218530D01*
X267069Y218267D01*
X267007Y217957D01*
X267007Y217957D01*
Y153837D01*
X267007Y153837D01*
X267069Y153527D01*
X267245Y153265D01*
X270294Y150215D01*
X270294Y150215D01*
X270556Y150040D01*
X270866Y149978D01*
X270866Y149978D01*
X278956D01*
X281364Y147570D01*
X281323Y147518D01*
X280985Y146702D01*
X280870Y145827D01*
X280985Y144951D01*
X281323Y144136D01*
X281861Y143436D01*
X282561Y142898D01*
X283377Y142560D01*
X284252Y142445D01*
X285127Y142560D01*
X285943Y142898D01*
X286643Y143436D01*
X287181Y144136D01*
X287518Y144951D01*
X287634Y145827D01*
X287518Y146702D01*
X287181Y147518D01*
X286643Y148218D01*
X285943Y148755D01*
X285127Y149093D01*
X284252Y149208D01*
X283377Y149093D01*
X282561Y148755D01*
X282508Y148715D01*
X279864Y151360D01*
X279601Y151535D01*
X279291Y151597D01*
X279291Y151597D01*
X271201D01*
X268626Y154172D01*
Y161873D01*
X269126Y162081D01*
X270927Y160280D01*
X270927Y160280D01*
X271189Y160104D01*
X271499Y160043D01*
X278891D01*
X281364Y157570D01*
X281323Y157518D01*
X280985Y156702D01*
X280870Y155827D01*
X280985Y154952D01*
X281323Y154136D01*
X281861Y153436D01*
X282561Y152898D01*
X283377Y152560D01*
X284252Y152445D01*
X285127Y152560D01*
X285943Y152898D01*
X286643Y153436D01*
X287181Y154136D01*
X287518Y154952D01*
X287634Y155827D01*
X287518Y156702D01*
X287181Y157518D01*
X286643Y158218D01*
X285943Y158755D01*
X285127Y159093D01*
X284252Y159208D01*
X283377Y159093D01*
X282561Y158755D01*
X282508Y158715D01*
X279799Y161424D01*
X279536Y161600D01*
X279227Y161661D01*
X279227Y161661D01*
X271834D01*
X270101Y163395D01*
Y216799D01*
X270756Y217454D01*
X271180Y217171D01*
X270986Y216702D01*
X270870Y215827D01*
X270986Y214951D01*
X271323Y214136D01*
X271861Y213436D01*
X272561Y212898D01*
X273377Y212560D01*
X274252Y212445D01*
X275127Y212560D01*
X275943Y212898D01*
X276643Y213436D01*
X277181Y214136D01*
X277518Y214951D01*
X277634Y215827D01*
X277518Y216702D01*
X277181Y217518D01*
X276643Y218218D01*
X275943Y218755D01*
X275909Y218770D01*
X276008Y219269D01*
X282496D01*
X282595Y218770D01*
X282561Y218755D01*
X281861Y218218D01*
X281323Y217518D01*
X280985Y216702D01*
X280870Y215827D01*
X280985Y214951D01*
X281323Y214136D01*
X281861Y213436D01*
X282561Y212898D01*
X283377Y212560D01*
X284252Y212445D01*
X285127Y212560D01*
X285943Y212898D01*
X286643Y213436D01*
X287181Y214136D01*
X287518Y214951D01*
X287634Y215827D01*
X287518Y216702D01*
X287181Y217518D01*
X286643Y218218D01*
X285943Y218755D01*
X285909Y218770D01*
X286008Y219269D01*
X286673D01*
X301003Y204940D01*
X301265Y204764D01*
X301575Y204702D01*
X301575Y204703D01*
X353205D01*
X353332Y204513D01*
X353790Y204206D01*
X354331Y204099D01*
X354871Y204206D01*
X355330Y204513D01*
X355636Y204971D01*
X355744Y205512D01*
X355636Y206052D01*
X355557Y206171D01*
X355824Y206671D01*
X357539D01*
X360214Y203995D01*
Y198764D01*
X360024Y198637D01*
X359718Y198179D01*
X359704Y198106D01*
X359194D01*
X359179Y198179D01*
X358873Y198637D01*
X358415Y198943D01*
X357874Y199051D01*
X357333Y198943D01*
X356875Y198637D01*
X356569Y198179D01*
X356461Y197638D01*
X356569Y197097D01*
X356875Y196639D01*
X357333Y196332D01*
X357874Y196225D01*
X358415Y196332D01*
X358873Y196639D01*
X359179Y197097D01*
X359194Y197170D01*
X359704D01*
X359718Y197097D01*
X360024Y196639D01*
X360483Y196332D01*
X361024Y196225D01*
X361564Y196332D01*
X362023Y196639D01*
X362077Y196719D01*
X362577Y196568D01*
Y191280D01*
X357087Y185790D01*
X346478Y196399D01*
X346215Y196574D01*
X345905Y196636D01*
X345905Y196636D01*
X287527D01*
X287518Y196702D01*
X287181Y197518D01*
X286643Y198218D01*
X285943Y198755D01*
X285127Y199093D01*
X284252Y199208D01*
X283377Y199093D01*
X282561Y198755D01*
X281861Y198218D01*
X281323Y197518D01*
X280985Y196702D01*
X280870Y195827D01*
X280985Y194951D01*
X281323Y194136D01*
X281861Y193436D01*
X282561Y192898D01*
X283377Y192560D01*
X284252Y192445D01*
X285127Y192560D01*
X285943Y192898D01*
X286643Y193436D01*
X287181Y194136D01*
X287518Y194951D01*
X287527Y195018D01*
X345570D01*
X356277Y184310D01*
Y177898D01*
X356087Y177771D01*
X355781Y177312D01*
X355674Y176772D01*
X355781Y176231D01*
X356087Y175773D01*
X356546Y175466D01*
X357087Y175359D01*
X357627Y175466D01*
X358086Y175773D01*
X358392Y176231D01*
X358500Y176772D01*
X358392Y177312D01*
X358086Y177771D01*
X357896Y177898D01*
Y184310D01*
X363801Y190215D01*
X364301Y190008D01*
Y178437D01*
X359507Y173644D01*
X358213D01*
X358086Y173834D01*
X357627Y174140D01*
X357087Y174248D01*
X356863Y174203D01*
X345149Y185917D01*
X344886Y186092D01*
X344577Y186154D01*
X344259Y186497D01*
X344211Y186860D01*
X343874Y187675D01*
X343336Y188375D01*
X342636Y188913D01*
X341820Y189251D01*
X340945Y189366D01*
X340070Y189251D01*
X339254Y188913D01*
X338554Y188375D01*
X338016Y187675D01*
X337678Y186860D01*
X337563Y185984D01*
X337678Y185109D01*
X338016Y184293D01*
X338554Y183593D01*
X339254Y183056D01*
X340070Y182718D01*
X340945Y182603D01*
X341820Y182718D01*
X342636Y183056D01*
X343336Y183593D01*
X343853Y184266D01*
X343920Y184297D01*
X344435Y184342D01*
X354158Y174619D01*
X353911Y174158D01*
X353858Y174169D01*
X353317Y174061D01*
X352859Y173755D01*
X352553Y173297D01*
X352445Y172756D01*
X352553Y172215D01*
X352718Y171969D01*
X352329Y171650D01*
X342577Y181403D01*
X342314Y181578D01*
X342004Y181640D01*
X342004Y181640D01*
X337796D01*
X332879Y186556D01*
X332616Y186732D01*
X332307Y186793D01*
X332307Y186793D01*
X328866D01*
X328857Y186860D01*
X328519Y187675D01*
X327982Y188375D01*
X327281Y188913D01*
X326466Y189251D01*
X325590Y189366D01*
X324715Y189251D01*
X323900Y188913D01*
X323199Y188375D01*
X322662Y187675D01*
X322324Y186860D01*
X322209Y185984D01*
X322324Y185109D01*
X322662Y184293D01*
X323199Y183593D01*
X323900Y183056D01*
X324715Y182718D01*
X325590Y182603D01*
X326466Y182718D01*
X327281Y183056D01*
X327982Y183593D01*
X328519Y184293D01*
X328857Y185109D01*
X328866Y185175D01*
X331972D01*
X336888Y180258D01*
X336888Y180258D01*
X337151Y180083D01*
X337460Y180021D01*
X337460Y180021D01*
X341634D01*
X341913Y179685D01*
X341656Y179272D01*
X340945Y179366D01*
X340070Y179251D01*
X339254Y178913D01*
X338554Y178375D01*
X338016Y177675D01*
X337678Y176859D01*
X337563Y175984D01*
X337678Y175109D01*
X338016Y174293D01*
X338554Y173593D01*
X339254Y173056D01*
X340070Y172718D01*
X340945Y172603D01*
X341820Y172718D01*
X342636Y173056D01*
X343336Y173593D01*
X343874Y174293D01*
X344211Y175109D01*
X344327Y175984D01*
X344225Y176759D01*
X344479Y176951D01*
X344673Y177017D01*
X351790Y169900D01*
X351790Y169900D01*
X352052Y169725D01*
X352362Y169663D01*
X352362Y169663D01*
X361417D01*
X361417Y169663D01*
X361727Y169725D01*
X361990Y169900D01*
X363556Y171466D01*
X363779Y171422D01*
X364320Y171529D01*
X364779Y171835D01*
X365085Y172294D01*
X365193Y172835D01*
X365148Y173059D01*
X365518Y173429D01*
X365979Y173183D01*
X365910Y172835D01*
X366017Y172294D01*
X366324Y171835D01*
X366782Y171529D01*
X367323Y171422D01*
X367863Y171529D01*
X368322Y171835D01*
X368628Y172294D01*
X368736Y172835D01*
X368628Y173375D01*
X368322Y173834D01*
X367863Y174140D01*
X367323Y174248D01*
X366975Y174178D01*
X366728Y174639D01*
X367501Y175412D01*
X367501Y175412D01*
X367677Y175675D01*
X367738Y175984D01*
X367738Y175984D01*
Y202814D01*
X368674Y203750D01*
X368898Y203705D01*
X369438Y203813D01*
X369897Y204119D01*
X370203Y204577D01*
X370311Y205118D01*
X370234Y205504D01*
X370643Y205832D01*
X370719Y205781D01*
X371260Y205674D01*
X371801Y205781D01*
X372259Y206087D01*
X372565Y206546D01*
X372654Y206991D01*
X372935Y207142D01*
X373162Y207189D01*
X375009Y205342D01*
X374965Y205118D01*
X375073Y204577D01*
X375379Y204119D01*
X375837Y203813D01*
X376378Y203705D01*
X376919Y203813D01*
X377233Y204023D01*
X377389Y203995D01*
X377691Y203856D01*
X377746Y203810D01*
X377829Y203396D01*
X378135Y202938D01*
X378593Y202632D01*
X379134Y202524D01*
X379675Y202632D01*
X380133Y202938D01*
X380439Y203396D01*
X380547Y203937D01*
X380439Y204478D01*
X380360Y204596D01*
X380627Y205096D01*
X390610D01*
X427143Y168562D01*
Y145560D01*
X426644Y145390D01*
X426407Y145698D01*
X425707Y146236D01*
X424891Y146573D01*
X424016Y146689D01*
X423140Y146573D01*
X422325Y146236D01*
X421625Y145698D01*
X421087Y144998D01*
X420749Y144182D01*
X420634Y143307D01*
X420749Y142432D01*
X421087Y141616D01*
X421625Y140916D01*
X422325Y140378D01*
X423140Y140041D01*
X424016Y139925D01*
X424891Y140041D01*
X425707Y140378D01*
X426407Y140916D01*
X426644Y141224D01*
X427143Y141054D01*
Y130709D01*
X427143Y130709D01*
X427205Y130399D01*
X427381Y130136D01*
X430530Y126987D01*
X430734Y126851D01*
X430769Y126589D01*
X430740Y126312D01*
X430320Y126138D01*
X429785Y125727D01*
X429388Y125211D01*
X429262Y125191D01*
X428966D01*
X428840Y125211D01*
X428444Y125727D01*
X427908Y126138D01*
X427284Y126397D01*
X426814Y126459D01*
Y123898D01*
X426414D01*
Y126459D01*
X425945Y126397D01*
X425320Y126138D01*
X424785Y125727D01*
X424388Y125211D01*
X424262Y125191D01*
X423966D01*
X423840Y125211D01*
X423444Y125727D01*
X422908Y126138D01*
X422284Y126397D01*
X421614Y126485D01*
X420944Y126397D01*
X420320Y126138D01*
X419785Y125727D01*
X419388Y125211D01*
X419262Y125191D01*
X418966D01*
X418840Y125211D01*
X418444Y125727D01*
X417908Y126138D01*
X417284Y126397D01*
X416614Y126485D01*
X415944Y126397D01*
X415320Y126138D01*
X414785Y125727D01*
X414388Y125211D01*
X414262Y125191D01*
X413966D01*
X413840Y125211D01*
X413444Y125727D01*
X412908Y126138D01*
X412325Y126380D01*
Y129255D01*
X412416Y129316D01*
X412723Y129774D01*
X412830Y130315D01*
X412723Y130856D01*
X412416Y131314D01*
X411958Y131620D01*
X411417Y131728D01*
X410877Y131620D01*
X410418Y131314D01*
X410112Y130856D01*
X410004Y130315D01*
X410112Y129774D01*
X410418Y129316D01*
X410707Y129123D01*
Y126298D01*
X410320Y126138D01*
X409964Y125865D01*
X409464Y126097D01*
Y135878D01*
X409660Y136009D01*
X409967Y136467D01*
X410074Y137008D01*
X409967Y137549D01*
X409660Y138007D01*
X409202Y138313D01*
X408661Y138421D01*
X408121Y138313D01*
X407662Y138007D01*
X407356Y137549D01*
X407248Y137008D01*
X407356Y136467D01*
X407662Y136009D01*
X407846Y135886D01*
Y108274D01*
X407846Y108274D01*
X407907Y107964D01*
X408083Y107702D01*
X409338Y106447D01*
X409600Y106271D01*
X409910Y106210D01*
X415680D01*
X415681Y106210D01*
X415990Y106271D01*
X416253Y106447D01*
X417108Y107302D01*
X417108Y107302D01*
X417283Y107564D01*
X417345Y107874D01*
Y109110D01*
X417535Y109237D01*
X417841Y109695D01*
X417948Y110236D01*
X417841Y110777D01*
X417535Y111235D01*
X417384Y111336D01*
Y116440D01*
X417908Y116657D01*
X418444Y117068D01*
X418840Y117585D01*
X418966Y117604D01*
X419262D01*
X419388Y117585D01*
X419785Y117068D01*
X420320Y116657D01*
X420944Y116398D01*
X421414Y116337D01*
Y118898D01*
X421814D01*
Y116337D01*
X422284Y116398D01*
X422908Y116657D01*
X423444Y117068D01*
X423840Y117585D01*
X423966Y117604D01*
X424262Y117604D01*
X424388Y117585D01*
X424785Y117068D01*
X425320Y116657D01*
X425945Y116398D01*
X426614Y116310D01*
X427284Y116398D01*
X427908Y116657D01*
X428444Y117068D01*
X428840Y117585D01*
X428966Y117604D01*
X429262D01*
X429388Y117585D01*
X429785Y117068D01*
X430320Y116657D01*
X430944Y116398D01*
X431614Y116310D01*
X431885Y116346D01*
X432019Y116145D01*
X433776Y114388D01*
X434038Y114213D01*
X434348Y114151D01*
X434348Y114151D01*
X438189D01*
X438189Y114151D01*
X438499Y114213D01*
X438761Y114388D01*
X440730Y116357D01*
X440905Y116619D01*
X440967Y116929D01*
X440967Y116929D01*
Y125197D01*
X440967Y125197D01*
X440905Y125506D01*
X440730Y125769D01*
X440730Y125769D01*
X438368Y128131D01*
X438105Y128307D01*
X437795Y128368D01*
X437795Y128368D01*
X431895D01*
X431811Y128419D01*
X431793Y128451D01*
X432037Y129009D01*
X432495Y129316D01*
X432801Y129774D01*
X432909Y130315D01*
X432801Y130856D01*
X432495Y131314D01*
X432037Y131620D01*
X431496Y131728D01*
X431272Y131683D01*
X430730Y132225D01*
Y141260D01*
X431230Y141429D01*
X431625Y140916D01*
X432325Y140378D01*
X433141Y140041D01*
X434016Y139925D01*
X434891Y140041D01*
X435707Y140378D01*
X436407Y140916D01*
X436944Y141616D01*
X437282Y142432D01*
X437397Y143307D01*
X437282Y144182D01*
X436944Y144998D01*
X436407Y145698D01*
X435707Y146236D01*
X434891Y146573D01*
X434016Y146689D01*
X433141Y146573D01*
X432325Y146236D01*
X431625Y145698D01*
X431230Y145185D01*
X430730Y145354D01*
Y169685D01*
X430730Y169685D01*
X430669Y169995D01*
X430493Y170257D01*
X392714Y208037D01*
X392451Y208212D01*
X392142Y208274D01*
X392142Y208274D01*
X379724D01*
X377187Y210811D01*
Y213835D01*
X377377Y213962D01*
X377683Y214420D01*
X377791Y214961D01*
X377683Y215501D01*
X377377Y215960D01*
X376919Y216266D01*
X376378Y216374D01*
X375837Y216266D01*
X375379Y215960D01*
X375073Y215501D01*
X374965Y214961D01*
X375073Y214420D01*
X375379Y213962D01*
X375569Y213835D01*
Y210929D01*
X375069Y210721D01*
X373809Y211981D01*
X373854Y212205D01*
X373746Y212745D01*
X373440Y213204D01*
X372982Y213510D01*
X372441Y213618D01*
X372278Y213585D01*
X371853Y214011D01*
X371885Y214173D01*
X371778Y214714D01*
X371472Y215172D01*
X371282Y215299D01*
Y226436D01*
X372666Y227821D01*
X372719Y227780D01*
X373534Y227442D01*
X374410Y227327D01*
X375285Y227442D01*
X376100Y227780D01*
X376801Y228317D01*
X377338Y229018D01*
X377676Y229833D01*
X377791Y230709D01*
X377676Y231584D01*
X377338Y232400D01*
X376801Y233100D01*
X376100Y233637D01*
X375285Y233975D01*
X374410Y234090D01*
X373534Y233975D01*
X372719Y233637D01*
X372018Y233100D01*
X371481Y232400D01*
X371143Y231584D01*
X371028Y230709D01*
X371143Y229833D01*
X371481Y229018D01*
X371521Y228965D01*
X369900Y227344D01*
X369725Y227081D01*
X369663Y226772D01*
X369663Y226772D01*
Y215299D01*
X369473Y215172D01*
X369167Y214714D01*
X369078Y214269D01*
X368798Y214118D01*
X368570Y214070D01*
X367108Y215533D01*
X366845Y215708D01*
X366753Y215726D01*
X366648Y216257D01*
X366747Y216324D01*
X367053Y216782D01*
X367161Y217323D01*
X367053Y217863D01*
X366747Y218322D01*
X366557Y218449D01*
Y226175D01*
X367762D01*
Y232880D01*
X361057D01*
Y226175D01*
X364939D01*
Y218449D01*
X364749Y218322D01*
X364443Y217863D01*
X364335Y217323D01*
X364443Y216782D01*
X364749Y216324D01*
X364829Y216270D01*
X364678Y215770D01*
X362881D01*
X362730Y216270D01*
X362810Y216324D01*
X363116Y216782D01*
X363224Y217323D01*
X363116Y217863D01*
X362810Y218322D01*
X362352Y218628D01*
X361811Y218736D01*
X361270Y218628D01*
X360812Y218322D01*
X360685Y218132D01*
X313091D01*
X287140Y244083D01*
X287181Y244136D01*
X287518Y244952D01*
X287634Y245827D01*
X287518Y246702D01*
X287181Y247518D01*
X286643Y248218D01*
X285943Y248755D01*
X285127Y249093D01*
X284252Y249208D01*
D02*
G37*
G36*
X389370Y214405D02*
X388829Y214298D01*
X388371Y213991D01*
X388065Y213533D01*
X387957Y212992D01*
X388065Y212451D01*
X388371Y211993D01*
X388829Y211687D01*
X389370Y211579D01*
X389911Y211687D01*
X390369Y211993D01*
X390675Y212451D01*
X390783Y212992D01*
X390675Y213533D01*
X390369Y213991D01*
X389911Y214298D01*
X389370Y214405D01*
D02*
G37*
G36*
X393307Y212437D02*
X392766Y212329D01*
X392308Y212023D01*
X392002Y211564D01*
X391894Y211024D01*
X392002Y210483D01*
X392308Y210024D01*
X392766Y209718D01*
X393307Y209611D01*
X393848Y209718D01*
X394306Y210024D01*
X394613Y210483D01*
X394720Y211024D01*
X394613Y211564D01*
X394306Y212023D01*
X393848Y212329D01*
X393307Y212437D01*
D02*
G37*
G36*
X397376Y210529D02*
X396836Y210421D01*
X396377Y210115D01*
X396071Y209656D01*
X395964Y209116D01*
X396071Y208575D01*
X396377Y208117D01*
X396836Y207810D01*
X397376Y207703D01*
X397917Y207810D01*
X398376Y208117D01*
X398682Y208575D01*
X398789Y209116D01*
X398682Y209656D01*
X398376Y210115D01*
X397917Y210421D01*
X397376Y210529D01*
D02*
G37*
G36*
X274252Y209208D02*
X273377Y209093D01*
X272561Y208755D01*
X271861Y208218D01*
X271323Y207518D01*
X270986Y206702D01*
X270870Y205827D01*
X270986Y204952D01*
X271323Y204136D01*
X271861Y203436D01*
X272561Y202898D01*
X273377Y202560D01*
X274252Y202445D01*
X275127Y202560D01*
X275943Y202898D01*
X276643Y203436D01*
X277181Y204136D01*
X277518Y204952D01*
X277634Y205827D01*
X277518Y206702D01*
X277181Y207518D01*
X276643Y208218D01*
X275943Y208755D01*
X275127Y209093D01*
X274252Y209208D01*
D02*
G37*
G36*
X389370Y202988D02*
X388829Y202880D01*
X388371Y202574D01*
X388065Y202116D01*
X387957Y201575D01*
X388065Y201034D01*
X388371Y200576D01*
X388829Y200269D01*
X389370Y200162D01*
X389911Y200269D01*
X390369Y200576D01*
X390675Y201034D01*
X390783Y201575D01*
X390675Y202116D01*
X390369Y202574D01*
X389911Y202880D01*
X389370Y202988D01*
D02*
G37*
G36*
X284252Y209208D02*
X283377Y209093D01*
X282561Y208755D01*
X281861Y208218D01*
X281323Y207518D01*
X280985Y206702D01*
X280870Y205827D01*
X280985Y204952D01*
X281323Y204136D01*
X281861Y203436D01*
X282561Y202898D01*
X283377Y202560D01*
X284252Y202445D01*
X285127Y202560D01*
X285943Y202898D01*
X285996Y202939D01*
X289113Y199821D01*
X289375Y199646D01*
X289685Y199584D01*
X353598D01*
X353725Y199395D01*
X354184Y199088D01*
X354724Y198981D01*
X355265Y199088D01*
X355724Y199395D01*
X356030Y199853D01*
X356137Y200394D01*
X356030Y200934D01*
X355724Y201393D01*
X355265Y201699D01*
X354724Y201807D01*
X354184Y201699D01*
X353725Y201393D01*
X353598Y201203D01*
X290020D01*
X287140Y204083D01*
X287181Y204136D01*
X287518Y204952D01*
X287634Y205827D01*
X287518Y206702D01*
X287181Y207518D01*
X286643Y208218D01*
X285943Y208755D01*
X285127Y209093D01*
X284252Y209208D01*
D02*
G37*
G36*
X393307Y199838D02*
X392766Y199731D01*
X392308Y199424D01*
X392002Y198966D01*
X391894Y198425D01*
X392002Y197885D01*
X392308Y197426D01*
X392766Y197120D01*
X393307Y197012D01*
X393848Y197120D01*
X394306Y197426D01*
X394613Y197885D01*
X394720Y198425D01*
X394613Y198966D01*
X394306Y199424D01*
X393848Y199731D01*
X393307Y199838D01*
D02*
G37*
G36*
X274452Y199182D02*
Y196027D01*
X277607D01*
X277518Y196702D01*
X277181Y197518D01*
X276643Y198218D01*
X275943Y198755D01*
X275127Y199093D01*
X274452Y199182D01*
D02*
G37*
G36*
X274052D02*
X273377Y199093D01*
X272561Y198755D01*
X271861Y198218D01*
X271323Y197518D01*
X270986Y196702D01*
X270897Y196027D01*
X274052D01*
Y199182D01*
D02*
G37*
G36*
X370079Y197476D02*
X369538Y197368D01*
X369080Y197062D01*
X368773Y196604D01*
X368666Y196063D01*
X368773Y195522D01*
X369080Y195064D01*
X369538Y194758D01*
X370079Y194650D01*
X370620Y194758D01*
X371078Y195064D01*
X371384Y195522D01*
X371492Y196063D01*
X371384Y196604D01*
X371078Y197062D01*
X370620Y197368D01*
X370079Y197476D01*
D02*
G37*
G36*
X274052Y195627D02*
X270897D01*
X270986Y194951D01*
X271323Y194136D01*
X271861Y193436D01*
X272561Y192898D01*
X273377Y192560D01*
X274052Y192471D01*
Y195627D01*
D02*
G37*
G36*
X277607D02*
X274452D01*
Y192471D01*
X275127Y192560D01*
X275943Y192898D01*
X276643Y193436D01*
X277181Y194136D01*
X277518Y194951D01*
X277607Y195627D01*
D02*
G37*
G36*
X376378Y191964D02*
X375837Y191857D01*
X375379Y191550D01*
X375073Y191092D01*
X374965Y190551D01*
X375073Y190010D01*
X375379Y189552D01*
X375837Y189246D01*
X376378Y189138D01*
X376919Y189246D01*
X377377Y189552D01*
X377683Y190010D01*
X377791Y190551D01*
X377683Y191092D01*
X377377Y191550D01*
X376919Y191857D01*
X376378Y191964D01*
D02*
G37*
G36*
X475400Y193668D02*
X468694D01*
Y186962D01*
X475400D01*
Y193668D01*
D02*
G37*
G36*
X472247Y183670D02*
Y180515D01*
X475403D01*
X475314Y181190D01*
X474976Y182006D01*
X474438Y182706D01*
X473738Y183244D01*
X472923Y183581D01*
X472247Y183670D01*
D02*
G37*
G36*
X471847D02*
X471172Y183581D01*
X470356Y183244D01*
X469656Y182706D01*
X469119Y182006D01*
X468781Y181190D01*
X468692Y180515D01*
X471847D01*
Y183670D01*
D02*
G37*
G36*
X475403Y180115D02*
X472247D01*
Y176960D01*
X472923Y177049D01*
X473738Y177386D01*
X474438Y177924D01*
X474976Y178624D01*
X475314Y179440D01*
X475403Y180115D01*
D02*
G37*
G36*
X471847D02*
X468692D01*
X468781Y179440D01*
X469119Y178624D01*
X469656Y177924D01*
X470356Y177386D01*
X471172Y177049D01*
X471847Y176960D01*
Y180115D01*
D02*
G37*
G36*
X284452Y179182D02*
Y176027D01*
X287607D01*
X287518Y176702D01*
X287181Y177518D01*
X286643Y178218D01*
X285943Y178755D01*
X285127Y179093D01*
X284452Y179182D01*
D02*
G37*
G36*
X284052D02*
X283377Y179093D01*
X282561Y178755D01*
X281861Y178218D01*
X281323Y177518D01*
X280985Y176702D01*
X280897Y176027D01*
X284052D01*
Y179182D01*
D02*
G37*
G36*
X325590Y179366D02*
X324715Y179251D01*
X323900Y178913D01*
X323199Y178375D01*
X322662Y177675D01*
X322324Y176859D01*
X322209Y175984D01*
X322324Y175109D01*
X322662Y174293D01*
X323199Y173593D01*
X323900Y173056D01*
X324715Y172718D01*
X325590Y172603D01*
X326466Y172718D01*
X327281Y173056D01*
X327982Y173593D01*
X328519Y174293D01*
X328857Y175109D01*
X328972Y175984D01*
X328857Y176859D01*
X328519Y177675D01*
X327982Y178375D01*
X327281Y178913D01*
X326466Y179251D01*
X325590Y179366D01*
D02*
G37*
G36*
X284052Y175627D02*
X280897D01*
X280985Y174952D01*
X281323Y174136D01*
X281861Y173436D01*
X282561Y172898D01*
X283377Y172560D01*
X284052Y172471D01*
Y175627D01*
D02*
G37*
G36*
X287607D02*
X284452D01*
Y172471D01*
X285127Y172560D01*
X285943Y172898D01*
X286643Y173436D01*
X287181Y174136D01*
X287518Y174952D01*
X287607Y175627D01*
D02*
G37*
G36*
X274252Y179208D02*
X273377Y179093D01*
X272561Y178755D01*
X271861Y178218D01*
X271323Y177518D01*
X270986Y176702D01*
X270870Y175827D01*
X270986Y174952D01*
X271323Y174136D01*
X271861Y173436D01*
X272561Y172898D01*
X273377Y172560D01*
X274252Y172445D01*
X275127Y172560D01*
X275943Y172898D01*
X276643Y173436D01*
X277181Y174136D01*
X277518Y174952D01*
X277634Y175827D01*
X277518Y176702D01*
X277181Y177518D01*
X276643Y178218D01*
X275943Y178755D01*
X275127Y179093D01*
X274252Y179208D01*
D02*
G37*
G36*
X382677Y202200D02*
X382137Y202093D01*
X381678Y201786D01*
X381372Y201328D01*
X381264Y200787D01*
X381372Y200247D01*
X381678Y199788D01*
X381868Y199661D01*
Y182225D01*
X379349Y179706D01*
X379174Y179444D01*
X379112Y179134D01*
X379112Y179134D01*
Y173961D01*
X378922Y173834D01*
X378616Y173375D01*
X378508Y172835D01*
X378616Y172294D01*
X378922Y171835D01*
X379380Y171529D01*
X379921Y171422D01*
X380462Y171529D01*
X380920Y171835D01*
X381227Y172294D01*
X381334Y172835D01*
X381227Y173375D01*
X380920Y173834D01*
X380731Y173961D01*
Y178799D01*
X383249Y181317D01*
X383249Y181317D01*
X383425Y181580D01*
X383486Y181890D01*
X383486Y181890D01*
Y199661D01*
X383676Y199788D01*
X383983Y200247D01*
X384090Y200787D01*
X383983Y201328D01*
X383676Y201786D01*
X383218Y202093D01*
X382677Y202200D01*
D02*
G37*
G36*
X392404Y171887D02*
X391863Y171779D01*
X391405Y171473D01*
X391098Y171014D01*
X390991Y170474D01*
X391098Y169933D01*
X391405Y169474D01*
X391863Y169168D01*
X392404Y169061D01*
X392945Y169168D01*
X393403Y169474D01*
X393709Y169933D01*
X393817Y170474D01*
X393709Y171014D01*
X393403Y171473D01*
X392945Y171779D01*
X392404Y171887D01*
D02*
G37*
G36*
X386422Y174611D02*
X385881Y174503D01*
X385423Y174197D01*
X385117Y173738D01*
X385009Y173198D01*
X385117Y172657D01*
X385423Y172198D01*
X385610Y172074D01*
Y170613D01*
X383978Y168980D01*
X375177D01*
X375015Y169473D01*
X375321Y169932D01*
X375429Y170472D01*
X375321Y171013D01*
X375015Y171472D01*
X374556Y171778D01*
X374016Y171885D01*
X373475Y171778D01*
X373017Y171472D01*
X372710Y171013D01*
X372603Y170472D01*
X372710Y169932D01*
X373017Y169473D01*
X372854Y168980D01*
X350274D01*
X347423Y171832D01*
X347160Y172008D01*
X346850Y172069D01*
X346850Y172069D01*
X330866D01*
X330557Y172008D01*
X330294Y171832D01*
X330294Y171832D01*
X327799Y169337D01*
X322238D01*
Y162631D01*
X328943D01*
Y168193D01*
X331201Y170451D01*
X346515D01*
X349284Y167682D01*
X349207Y167358D01*
X349091Y167182D01*
X344298D01*
Y169337D01*
X337592D01*
Y162631D01*
X344298D01*
Y165564D01*
X366568D01*
X366806Y165064D01*
X366623Y164791D01*
X366516Y164251D01*
X366623Y163710D01*
X366930Y163251D01*
X367388Y162945D01*
X367929Y162838D01*
X368470Y162945D01*
X368928Y163251D01*
X369234Y163710D01*
X369342Y164251D01*
X369234Y164791D01*
X369052Y165064D01*
X369290Y165564D01*
X376588D01*
X376628Y165365D01*
X376934Y164906D01*
X377392Y164600D01*
X377933Y164492D01*
X378474Y164600D01*
X378932Y164906D01*
X379239Y165365D01*
X379346Y165905D01*
X379239Y166446D01*
X378961Y166862D01*
X379010Y167070D01*
X379148Y167362D01*
X384313D01*
X384313Y167362D01*
X384623Y167423D01*
X384885Y167599D01*
X386991Y169705D01*
X386991Y169705D01*
X387167Y169968D01*
X387228Y170278D01*
X387228Y170278D01*
Y172070D01*
X387421Y172198D01*
X387728Y172657D01*
X387835Y173198D01*
X387728Y173738D01*
X387421Y174197D01*
X386963Y174503D01*
X386422Y174611D01*
D02*
G37*
G36*
X390773Y165681D02*
X390232Y165573D01*
X389774Y165267D01*
X389467Y164809D01*
X389360Y164268D01*
X389467Y163727D01*
X389774Y163269D01*
X390232Y162962D01*
X390773Y162855D01*
X391313Y162962D01*
X391772Y163269D01*
X392078Y163727D01*
X392185Y164268D01*
X392078Y164809D01*
X391772Y165267D01*
X391313Y165573D01*
X390773Y165681D01*
D02*
G37*
G36*
X284252Y169208D02*
X283377Y169093D01*
X282561Y168755D01*
X281861Y168218D01*
X281323Y167518D01*
X280985Y166702D01*
X280870Y165827D01*
X280985Y164952D01*
X281323Y164136D01*
X281861Y163436D01*
X282561Y162898D01*
X283377Y162560D01*
X284252Y162445D01*
X285127Y162560D01*
X285943Y162898D01*
X286643Y163436D01*
X287181Y164136D01*
X287518Y164952D01*
X287634Y165827D01*
X287518Y166702D01*
X287181Y167518D01*
X286643Y168218D01*
X285943Y168755D01*
X285127Y169093D01*
X284252Y169208D01*
D02*
G37*
G36*
X274252D02*
X273377Y169093D01*
X272561Y168755D01*
X271861Y168218D01*
X271323Y167518D01*
X270986Y166702D01*
X270870Y165827D01*
X270986Y164952D01*
X271323Y164136D01*
X271861Y163436D01*
X272561Y162898D01*
X273377Y162560D01*
X274252Y162445D01*
X275127Y162560D01*
X275943Y162898D01*
X276643Y163436D01*
X277181Y164136D01*
X277518Y164952D01*
X277634Y165827D01*
X277518Y166702D01*
X277181Y167518D01*
X276643Y168218D01*
X275943Y168755D01*
X275127Y169093D01*
X274252Y169208D01*
D02*
G37*
G36*
X274452Y159182D02*
Y156027D01*
X277607D01*
X277518Y156702D01*
X277181Y157518D01*
X276643Y158218D01*
X275943Y158755D01*
X275127Y159093D01*
X274452Y159182D01*
D02*
G37*
G36*
X274052D02*
X273377Y159093D01*
X272561Y158755D01*
X271861Y158218D01*
X271323Y157518D01*
X270986Y156702D01*
X270897Y156027D01*
X274052D01*
Y159182D01*
D02*
G37*
G36*
X462992Y156137D02*
X462451Y156030D01*
X461993Y155724D01*
X461687Y155265D01*
X461579Y154724D01*
X461687Y154184D01*
X461993Y153725D01*
X462451Y153419D01*
X462992Y153311D01*
X463533Y153419D01*
X463991Y153725D01*
X464297Y154184D01*
X464405Y154724D01*
X464297Y155265D01*
X463991Y155724D01*
X463533Y156030D01*
X462992Y156137D01*
D02*
G37*
G36*
X390551Y155744D02*
X390010Y155636D01*
X389552Y155330D01*
X389246Y154871D01*
X389138Y154331D01*
X389246Y153790D01*
X389552Y153332D01*
X390010Y153025D01*
X390551Y152918D01*
X391092Y153025D01*
X391550Y153332D01*
X391857Y153790D01*
X391964Y154331D01*
X391857Y154871D01*
X391550Y155330D01*
X391092Y155636D01*
X390551Y155744D01*
D02*
G37*
G36*
X367717D02*
X367176Y155636D01*
X366717Y155330D01*
X366411Y154871D01*
X366304Y154331D01*
X366411Y153790D01*
X366717Y153332D01*
X367176Y153025D01*
X367717Y152918D01*
X368257Y153025D01*
X368716Y153332D01*
X369022Y153790D01*
X369129Y154331D01*
X369022Y154871D01*
X368716Y155330D01*
X368257Y155636D01*
X367717Y155744D01*
D02*
G37*
G36*
X274052Y155627D02*
X270897D01*
X270986Y154952D01*
X271323Y154136D01*
X271861Y153436D01*
X272561Y152898D01*
X273377Y152560D01*
X274052Y152471D01*
Y155627D01*
D02*
G37*
G36*
X277607D02*
X274452D01*
Y152471D01*
X275127Y152560D01*
X275943Y152898D01*
X276643Y153436D01*
X277181Y154136D01*
X277518Y154952D01*
X277607Y155627D01*
D02*
G37*
G36*
X345479Y146660D02*
X342326D01*
Y143507D01*
X345479D01*
Y146660D01*
D02*
G37*
G36*
X404216Y146662D02*
Y143507D01*
X407371D01*
X407282Y144182D01*
X406944Y144998D01*
X406407Y145698D01*
X405707Y146236D01*
X404891Y146573D01*
X404216Y146662D01*
D02*
G37*
G36*
X447368Y146660D02*
X444216D01*
Y143507D01*
X447368D01*
Y146660D01*
D02*
G37*
G36*
X312326Y146662D02*
Y143507D01*
X315481D01*
X315392Y144182D01*
X315055Y144998D01*
X314517Y145698D01*
X313817Y146236D01*
X313001Y146573D01*
X312326Y146662D01*
D02*
G37*
G36*
X443816Y146660D02*
X440663D01*
Y143507D01*
X443816D01*
Y146660D01*
D02*
G37*
G36*
X341926D02*
X338773D01*
Y143507D01*
X341926D01*
Y146660D01*
D02*
G37*
G36*
X311926Y146662D02*
X311251Y146573D01*
X310435Y146236D01*
X309735Y145698D01*
X309197Y144998D01*
X308859Y144182D01*
X308771Y143507D01*
X311926D01*
Y146662D01*
D02*
G37*
G36*
X403816D02*
X403140Y146573D01*
X402325Y146236D01*
X401624Y145698D01*
X401087Y144998D01*
X400749Y144182D01*
X400660Y143507D01*
X403816D01*
Y146662D01*
D02*
G37*
G36*
X475400Y149416D02*
X468694D01*
Y142710D01*
X475400D01*
Y149416D01*
D02*
G37*
G36*
X274252Y149208D02*
X273377Y149093D01*
X272561Y148755D01*
X271861Y148218D01*
X271323Y147518D01*
X270986Y146702D01*
X270870Y145827D01*
X270986Y144951D01*
X271323Y144136D01*
X271861Y143436D01*
X272561Y142898D01*
X273377Y142560D01*
X274252Y142445D01*
X275127Y142560D01*
X275943Y142898D01*
X276643Y143436D01*
X277181Y144136D01*
X277518Y144951D01*
X277634Y145827D01*
X277518Y146702D01*
X277181Y147518D01*
X276643Y148218D01*
X275943Y148755D01*
X275127Y149093D01*
X274252Y149208D01*
D02*
G37*
G36*
X447368Y143107D02*
X444216D01*
Y139954D01*
X447368D01*
Y143107D01*
D02*
G37*
G36*
X443816D02*
X440663D01*
Y139954D01*
X443816D01*
Y143107D01*
D02*
G37*
G36*
X407371D02*
X404216D01*
Y139952D01*
X404891Y140041D01*
X405707Y140378D01*
X406407Y140916D01*
X406944Y141616D01*
X407282Y142432D01*
X407371Y143107D01*
D02*
G37*
G36*
X403816D02*
X400660D01*
X400749Y142432D01*
X401087Y141616D01*
X401624Y140916D01*
X402325Y140378D01*
X403140Y140041D01*
X403816Y139952D01*
Y143107D01*
D02*
G37*
G36*
X414016Y146689D02*
X413140Y146573D01*
X412325Y146236D01*
X411624Y145698D01*
X411087Y144998D01*
X410749Y144182D01*
X410634Y143307D01*
X410749Y142432D01*
X411087Y141616D01*
X411624Y140916D01*
X412325Y140378D01*
X413140Y140041D01*
X414016Y139925D01*
X414891Y140041D01*
X415707Y140378D01*
X416407Y140916D01*
X416944Y141616D01*
X417282Y142432D01*
X417397Y143307D01*
X417282Y144182D01*
X416944Y144998D01*
X416407Y145698D01*
X415707Y146236D01*
X414891Y146573D01*
X414016Y146689D01*
D02*
G37*
G36*
X472247Y139418D02*
Y136263D01*
X475403D01*
X475314Y136938D01*
X474976Y137754D01*
X474438Y138454D01*
X473738Y138992D01*
X472923Y139329D01*
X472247Y139418D01*
D02*
G37*
G36*
X471847D02*
X471172Y139329D01*
X470356Y138992D01*
X469656Y138454D01*
X469119Y137754D01*
X468781Y136938D01*
X468692Y136263D01*
X471847D01*
Y139418D01*
D02*
G37*
G36*
X284252Y189208D02*
X283377Y189093D01*
X282561Y188755D01*
X281861Y188218D01*
X281323Y187518D01*
X280985Y186702D01*
X280870Y185827D01*
X280985Y184951D01*
X281323Y184136D01*
X281861Y183436D01*
X282561Y182898D01*
X283377Y182560D01*
X284252Y182445D01*
X285127Y182560D01*
X285943Y182898D01*
X286643Y183436D01*
X287181Y184136D01*
X287518Y184951D01*
X287527Y185018D01*
X289429D01*
X295647Y178799D01*
Y144882D01*
X295647Y144882D01*
X295709Y144572D01*
X295884Y144310D01*
X301206Y138988D01*
X301206Y138988D01*
X301468Y138813D01*
X301778Y138751D01*
X301778Y138751D01*
X399474D01*
X402071Y136154D01*
X402011Y135868D01*
X401944Y135721D01*
X401890Y135649D01*
X401428Y135557D01*
X400969Y135251D01*
X400663Y134793D01*
X400556Y134252D01*
X400663Y133711D01*
X400969Y133253D01*
X401243Y133070D01*
Y132987D01*
X401243Y132987D01*
X401304Y132678D01*
X401480Y132415D01*
X404703Y129192D01*
Y108213D01*
X404513Y108086D01*
X404206Y107627D01*
X404099Y107087D01*
X404206Y106546D01*
X404513Y106088D01*
X404971Y105781D01*
X405512Y105674D01*
X406052Y105781D01*
X406511Y106088D01*
X406817Y106546D01*
X406925Y107087D01*
X406817Y107627D01*
X406511Y108086D01*
X406321Y108213D01*
Y129528D01*
X406259Y129837D01*
X406084Y130100D01*
X406084Y130100D01*
X402964Y133220D01*
X402968Y133253D01*
X403274Y133711D01*
X403381Y134252D01*
X403274Y134793D01*
X402968Y135251D01*
X402887Y135305D01*
X403039Y135805D01*
X403992D01*
X404119Y135615D01*
X404577Y135309D01*
X405118Y135201D01*
X405659Y135309D01*
X406117Y135615D01*
X406424Y136074D01*
X406531Y136614D01*
X406424Y137155D01*
X406117Y137613D01*
X405659Y137920D01*
X405118Y138027D01*
X404577Y137920D01*
X404119Y137613D01*
X403992Y137423D01*
X403091D01*
X400382Y140133D01*
X400119Y140308D01*
X399810Y140370D01*
X399809Y140370D01*
X345479D01*
Y143107D01*
X342126D01*
X338773D01*
Y140370D01*
X334627D01*
X334457Y140870D01*
X334517Y140916D01*
X335055Y141616D01*
X335392Y142432D01*
X335508Y143307D01*
X335392Y144182D01*
X335055Y144998D01*
X334517Y145698D01*
X333817Y146236D01*
X333001Y146573D01*
X332126Y146689D01*
X331251Y146573D01*
X330435Y146236D01*
X329735Y145698D01*
X329197Y144998D01*
X328859Y144182D01*
X328744Y143307D01*
X328859Y142432D01*
X329197Y141616D01*
X329735Y140916D01*
X329795Y140870D01*
X329625Y140370D01*
X324627D01*
X324457Y140870D01*
X324517Y140916D01*
X325055Y141616D01*
X325392Y142432D01*
X325508Y143307D01*
X325392Y144182D01*
X325055Y144998D01*
X324517Y145698D01*
X323817Y146236D01*
X323001Y146573D01*
X322126Y146689D01*
X321251Y146573D01*
X320435Y146236D01*
X319735Y145698D01*
X319197Y144998D01*
X318860Y144182D01*
X318744Y143307D01*
X318860Y142432D01*
X319197Y141616D01*
X319735Y140916D01*
X319795Y140870D01*
X319625Y140370D01*
X314627D01*
X314457Y140870D01*
X314517Y140916D01*
X315055Y141616D01*
X315392Y142432D01*
X315481Y143107D01*
X312126D01*
X308771D01*
X308859Y142432D01*
X309197Y141616D01*
X309735Y140916D01*
X309795Y140870D01*
X309625Y140370D01*
X302113D01*
X297266Y145217D01*
Y179134D01*
X297204Y179444D01*
X297029Y179706D01*
X297029Y179706D01*
X290336Y186399D01*
X290073Y186574D01*
X289764Y186636D01*
X289764Y186636D01*
X287527D01*
X287518Y186702D01*
X287181Y187518D01*
X286643Y188218D01*
X285943Y188755D01*
X285127Y189093D01*
X284252Y189208D01*
D02*
G37*
G36*
X397244Y137240D02*
X396703Y137132D01*
X396245Y136826D01*
X395939Y136367D01*
X395831Y135827D01*
X395939Y135286D01*
X396245Y134828D01*
X396703Y134521D01*
X397244Y134414D01*
X397785Y134521D01*
X398243Y134828D01*
X398550Y135286D01*
X398657Y135827D01*
X398550Y136367D01*
X398243Y136826D01*
X397785Y137132D01*
X397244Y137240D01*
D02*
G37*
G36*
X475403Y135863D02*
X472247D01*
Y132708D01*
X472923Y132797D01*
X473738Y133134D01*
X474438Y133672D01*
X474976Y134372D01*
X475314Y135188D01*
X475403Y135863D01*
D02*
G37*
G36*
X471847D02*
X468692D01*
X468781Y135188D01*
X469119Y134372D01*
X469656Y133672D01*
X470356Y133134D01*
X471172Y132797D01*
X471847Y132708D01*
Y135863D01*
D02*
G37*
G36*
X287605Y139180D02*
X280899D01*
Y132474D01*
X287605D01*
Y139180D01*
D02*
G37*
G36*
X274252Y139208D02*
X273377Y139093D01*
X272561Y138755D01*
X271861Y138218D01*
X271323Y137518D01*
X270986Y136702D01*
X270870Y135827D01*
X270986Y134951D01*
X271323Y134136D01*
X271861Y133436D01*
X272561Y132898D01*
X273377Y132560D01*
X274252Y132445D01*
X275127Y132560D01*
X275943Y132898D01*
X276643Y133436D01*
X277181Y134136D01*
X277518Y134951D01*
X277634Y135827D01*
X277518Y136702D01*
X277181Y137518D01*
X276643Y138218D01*
X275943Y138755D01*
X275127Y139093D01*
X274252Y139208D01*
D02*
G37*
G36*
X400394Y131334D02*
X399853Y131227D01*
X399395Y130920D01*
X399088Y130462D01*
X398981Y129921D01*
X399088Y129381D01*
X399395Y128922D01*
X399853Y128616D01*
X400394Y128508D01*
X400934Y128616D01*
X401393Y128922D01*
X401699Y129381D01*
X401807Y129921D01*
X401699Y130462D01*
X401393Y130920D01*
X400934Y131227D01*
X400394Y131334D01*
D02*
G37*
G36*
X274252Y189208D02*
X273377Y189093D01*
X272561Y188755D01*
X271861Y188218D01*
X271323Y187518D01*
X270986Y186702D01*
X270870Y185827D01*
X270986Y184951D01*
X271323Y184136D01*
X271861Y183436D01*
X272561Y182898D01*
X273377Y182560D01*
X274252Y182445D01*
X275127Y182560D01*
X275943Y182898D01*
X275996Y182939D01*
X278798Y180136D01*
X279060Y179961D01*
X279370Y179899D01*
X279370Y179899D01*
X287460D01*
X292892Y174468D01*
Y144095D01*
X292892Y144095D01*
X292953Y143785D01*
X293129Y143522D01*
X306121Y130530D01*
X306121Y130530D01*
X306383Y130355D01*
X306693Y130293D01*
X306693Y130293D01*
X312027D01*
X315466Y126854D01*
X315251Y126432D01*
X315213Y126400D01*
X314567Y126485D01*
X313897Y126397D01*
X313273Y126138D01*
X312737Y125727D01*
X312326Y125191D01*
X312068Y124567D01*
X311979Y123898D01*
X312068Y123228D01*
X312326Y122604D01*
X312737Y122068D01*
X312874Y121963D01*
X312704Y121463D01*
X312002D01*
Y116332D01*
X317132D01*
Y117035D01*
X317632Y117205D01*
X317737Y117068D01*
X318273Y116657D01*
X318897Y116398D01*
X319567Y116310D01*
X320237Y116398D01*
X320861Y116657D01*
X321397Y117068D01*
X321793Y117585D01*
X321919Y117604D01*
X322215D01*
X322341Y117585D01*
X322737Y117068D01*
X323273Y116657D01*
X323897Y116398D01*
X324367Y116337D01*
Y118898D01*
X324767D01*
Y116337D01*
X325237Y116398D01*
X325861Y116657D01*
X326397Y117068D01*
X326793Y117585D01*
X326919Y117604D01*
X327215D01*
X327341Y117585D01*
X327737Y117068D01*
X328273Y116657D01*
X328897Y116398D01*
X329567Y116310D01*
X330237Y116398D01*
X330861Y116657D01*
X331397Y117068D01*
X331793Y117585D01*
X331919Y117604D01*
X332215D01*
X332341Y117585D01*
X332737Y117068D01*
X333273Y116657D01*
X333797Y116440D01*
Y113698D01*
X333646Y113598D01*
X333340Y113139D01*
X333233Y112598D01*
X333340Y112058D01*
X333646Y111599D01*
X334105Y111293D01*
X334646Y111186D01*
X335186Y111293D01*
X335645Y111599D01*
X335951Y112058D01*
X336059Y112598D01*
X335951Y113139D01*
X335645Y113598D01*
X335416Y113751D01*
Y116472D01*
X335861Y116657D01*
X336397Y117068D01*
X336793Y117585D01*
X336919Y117604D01*
X337215D01*
X337341Y117585D01*
X337737Y117068D01*
X338273Y116657D01*
X338897Y116398D01*
X339567Y116310D01*
X340237Y116398D01*
X340861Y116657D01*
X341397Y117068D01*
X341808Y117604D01*
X342066Y118228D01*
X342154Y118898D01*
X342066Y119567D01*
X341808Y120191D01*
X341397Y120727D01*
X340880Y121124D01*
X340861Y121250D01*
Y121546D01*
X340880Y121672D01*
X341397Y122068D01*
X341808Y122604D01*
X342066Y123228D01*
X342154Y123898D01*
X342066Y124567D01*
X341808Y125191D01*
X341397Y125727D01*
X340861Y126138D01*
X340237Y126397D01*
X339567Y126485D01*
X338897Y126397D01*
X338273Y126138D01*
X337737Y125727D01*
X337341Y125211D01*
X337215Y125191D01*
X336919D01*
X336793Y125211D01*
X336397Y125727D01*
X335861Y126138D01*
X335416Y126323D01*
Y128375D01*
X335645Y128528D01*
X335951Y128987D01*
X336059Y129528D01*
X335951Y130068D01*
X335645Y130527D01*
X335186Y130833D01*
X334646Y130940D01*
X334105Y130833D01*
X333646Y130527D01*
X333340Y130068D01*
X333233Y129528D01*
X333340Y128987D01*
X333646Y128528D01*
X333797Y128428D01*
Y126356D01*
X333273Y126138D01*
X332737Y125727D01*
X332341Y125211D01*
X332215Y125191D01*
X331919D01*
X331793Y125211D01*
X331397Y125727D01*
X330861Y126138D01*
X330237Y126397D01*
X329767Y126459D01*
Y123898D01*
X329367D01*
Y126459D01*
X328897Y126397D01*
X328273Y126138D01*
X327737Y125727D01*
X327341Y125211D01*
X327215Y125191D01*
X326919D01*
X326793Y125211D01*
X326397Y125727D01*
X325861Y126138D01*
X325237Y126397D01*
X324567Y126485D01*
X323897Y126397D01*
X323273Y126138D01*
X322737Y125727D01*
X322341Y125211D01*
X322215Y125191D01*
X321919D01*
X321793Y125211D01*
X321397Y125727D01*
X320861Y126138D01*
X320237Y126397D01*
X319567Y126485D01*
X318897Y126397D01*
X318413Y126196D01*
X312934Y131675D01*
X312672Y131850D01*
X312362Y131912D01*
X312362Y131912D01*
X307028D01*
X294510Y144430D01*
Y174803D01*
X294448Y175113D01*
X294273Y175375D01*
X294273Y175375D01*
X288368Y181281D01*
X288105Y181456D01*
X287795Y181518D01*
X287795Y181518D01*
X279705D01*
X277140Y184083D01*
X277181Y184136D01*
X277518Y184951D01*
X277634Y185827D01*
X277518Y186702D01*
X277181Y187518D01*
X276643Y188218D01*
X275943Y188755D01*
X275127Y189093D01*
X274252Y189208D01*
D02*
G37*
G36*
X400394Y126610D02*
X399853Y126502D01*
X399395Y126196D01*
X399088Y125738D01*
X398981Y125197D01*
X399088Y124656D01*
X399395Y124198D01*
X399853Y123891D01*
X400394Y123784D01*
X400934Y123891D01*
X401393Y124198D01*
X401699Y124656D01*
X401807Y125197D01*
X401699Y125738D01*
X401393Y126196D01*
X400934Y126502D01*
X400394Y126610D01*
D02*
G37*
G36*
X385790Y124615D02*
Y121460D01*
X388946D01*
X388857Y122135D01*
X388519Y122951D01*
X387982Y123651D01*
X387281Y124188D01*
X386466Y124526D01*
X385790Y124615D01*
D02*
G37*
G36*
X385390D02*
X384715Y124526D01*
X383900Y124188D01*
X383199Y123651D01*
X382662Y122951D01*
X382324Y122135D01*
X382235Y121460D01*
X385390D01*
Y124615D01*
D02*
G37*
G36*
X375590Y125429D02*
X374715Y125314D01*
X373900Y124976D01*
X373199Y124438D01*
X372662Y123738D01*
X372324Y122923D01*
X372209Y122047D01*
X372324Y121172D01*
X372662Y120356D01*
X373199Y119656D01*
X373900Y119119D01*
X374715Y118781D01*
X375590Y118666D01*
X376466Y118781D01*
X377281Y119119D01*
X377982Y119656D01*
X378519Y120356D01*
X378857Y121172D01*
X378972Y122047D01*
X378857Y122923D01*
X378519Y123738D01*
X377982Y124438D01*
X377281Y124976D01*
X376466Y125314D01*
X375590Y125429D01*
D02*
G37*
G36*
X368943Y124613D02*
X362238D01*
Y117907D01*
X368943D01*
Y124613D01*
D02*
G37*
G36*
X388946Y121060D02*
X385790D01*
Y117904D01*
X386466Y117993D01*
X387281Y118331D01*
X387982Y118869D01*
X388519Y119569D01*
X388857Y120385D01*
X388946Y121060D01*
D02*
G37*
G36*
X385390D02*
X382235D01*
X382324Y120385D01*
X382662Y119569D01*
X383199Y118869D01*
X383900Y118331D01*
X384715Y117993D01*
X385390Y117904D01*
Y121060D01*
D02*
G37*
G36*
X472047Y128884D02*
X470115Y128733D01*
X468231Y128280D01*
X466441Y127539D01*
X464789Y126526D01*
X463315Y125268D01*
X462057Y123794D01*
X461044Y122142D01*
X460303Y120352D01*
X459850Y118467D01*
X459698Y116535D01*
X459850Y114604D01*
X460303Y112719D01*
X461044Y110929D01*
X462057Y109277D01*
X463315Y107803D01*
X464789Y106545D01*
X466441Y105532D01*
X468231Y104791D01*
X470115Y104338D01*
X472047Y104186D01*
X473979Y104338D01*
X475863Y104791D01*
X477654Y105532D01*
X479306Y106545D01*
X480779Y107803D01*
X482038Y109277D01*
X483050Y110929D01*
X483792Y112719D01*
X484244Y114604D01*
X484396Y116535D01*
X484244Y118467D01*
X483792Y120352D01*
X483050Y122142D01*
X482038Y123794D01*
X480779Y125268D01*
X479306Y126526D01*
X477654Y127539D01*
X475863Y128280D01*
X473979Y128733D01*
X472047Y128884D01*
D02*
G37*
G36*
X279134D02*
X277202Y128733D01*
X275318Y128280D01*
X273528Y127539D01*
X271875Y126526D01*
X270402Y125268D01*
X269143Y123794D01*
X268131Y122142D01*
X267389Y120352D01*
X266937Y118467D01*
X266785Y116535D01*
X266937Y114604D01*
X267389Y112719D01*
X268131Y110929D01*
X269143Y109277D01*
X270402Y107803D01*
X271875Y106545D01*
X273528Y105532D01*
X275318Y104791D01*
X277202Y104338D01*
X279134Y104186D01*
X281066Y104338D01*
X282950Y104791D01*
X284740Y105532D01*
X286392Y106545D01*
X287866Y107803D01*
X289124Y109277D01*
X290137Y110929D01*
X290879Y112719D01*
X291331Y114604D01*
X291483Y116535D01*
X291331Y118467D01*
X290879Y120352D01*
X290137Y122142D01*
X289124Y123794D01*
X287866Y125268D01*
X286392Y126526D01*
X284740Y127539D01*
X282950Y128280D01*
X281066Y128733D01*
X279134Y128884D01*
D02*
G37*
%LPD*%
D11*
X284252Y245827D02*
X312756Y217323D01*
X361811D01*
X305118Y214961D02*
X366535D01*
X376378Y205118D01*
X284252Y235827D02*
X305118Y214961D01*
X402756Y136614D02*
X405118D01*
X399810Y139561D02*
X402756Y136614D01*
X301778Y139561D02*
X399810D01*
X296457Y144882D02*
X301778Y139561D01*
X401968Y134252D02*
X402052Y134168D01*
Y132987D02*
X405512Y129528D01*
X402052Y132987D02*
Y134168D01*
X405512Y107087D02*
Y129528D01*
X416535Y107874D02*
Y110236D01*
X415681Y107019D02*
X416535Y107874D01*
X409910Y107019D02*
X415681D01*
X416535Y110236D02*
X416575Y110276D01*
X408655Y108274D02*
X409910Y107019D01*
X408655Y108274D02*
Y137002D01*
X408661Y137008D01*
X416575Y110276D02*
Y118858D01*
X416614Y118898D01*
X289685Y200394D02*
X354724D01*
X284252Y205827D02*
X289685Y200394D01*
X284252Y195827D02*
X345905D01*
X357087Y176772D02*
Y184646D01*
X345905Y195827D02*
X357087Y184646D01*
X427953Y130709D02*
Y168898D01*
X431102Y127559D02*
X437795D01*
X427953Y130709D02*
X431102Y127559D01*
X431614Y117939D02*
Y118898D01*
Y117939D02*
X432591Y116962D01*
Y116717D02*
Y116962D01*
X434348Y114961D02*
X438189D01*
X432591Y116717D02*
X434348Y114961D01*
X438189D02*
X440158Y116929D01*
Y125197D01*
X437795Y127559D02*
X440158Y125197D01*
X429921Y131890D02*
Y169685D01*
Y131890D02*
X431496Y130315D01*
X390945Y205906D02*
X427953Y168898D01*
X378740Y205906D02*
X390945D01*
X372441Y212205D02*
X378740Y205906D01*
X372441Y212205D02*
X372441D01*
X376378Y210475D02*
Y214961D01*
Y210475D02*
X379389Y207465D01*
X392142D01*
X429921Y169685D01*
X364409Y229528D02*
X365748Y228189D01*
Y217323D02*
Y228189D01*
X370472Y214173D02*
Y226772D01*
X374410Y230709D01*
X361024Y197638D02*
Y204331D01*
X301969Y207480D02*
X357874D01*
X361024Y204331D01*
X365110Y204553D02*
X367643Y207087D01*
X359842Y172835D02*
X365110Y178102D01*
Y204553D01*
X363386Y190945D02*
Y212992D01*
X357087Y184646D02*
X363386Y190945D01*
X344577Y185345D02*
X357087Y172835D01*
X341584Y185345D02*
X344577D01*
X340945Y185984D02*
X341584Y185345D01*
X357087Y172835D02*
X359842D01*
X301575Y205512D02*
X354331D01*
X287008Y220079D02*
X301575Y205512D01*
X342004Y180830D02*
X352362Y170472D01*
X332307Y185984D02*
X337460Y180830D01*
X342004D01*
X352362Y170472D02*
X361417D01*
X363779Y172835D01*
X366929Y175984D01*
X325590Y185984D02*
X332307D01*
X334567Y118898D02*
X334606Y118858D01*
Y112638D02*
Y118858D01*
Y112638D02*
X334646Y112598D01*
X334606Y129488D02*
X334646Y129528D01*
X334567Y123898D02*
X334606Y123937D01*
Y129488D01*
X366929Y175984D02*
Y203150D01*
X368898Y205118D01*
X367643Y207087D02*
X371260D01*
X382677Y181890D02*
Y200787D01*
X379921Y172835D02*
Y179134D01*
X382677Y181890D01*
X269291Y217134D02*
X272236Y220079D01*
X287008D01*
X287795Y221654D02*
X301969Y207480D01*
X271513Y221654D02*
X287795D01*
X325591Y165984D02*
Y165984D01*
X328150Y168543D01*
X328150D02*
X330866Y171260D01*
X346850D01*
X328150Y168543D02*
X328150D01*
X346850Y171260D02*
X349939Y168171D01*
X384313D02*
X386419Y170278D01*
X349939Y168171D02*
X384313D01*
X377667Y165905D02*
X377933D01*
X377199Y166373D02*
X377667Y165905D01*
X340945Y165984D02*
X341334Y166373D01*
X377199D01*
X386419Y170278D02*
Y173195D01*
X386422Y173198D01*
X293701Y144095D02*
X306693Y131102D01*
X312362D02*
X319567Y123898D01*
X306693Y131102D02*
X312362D01*
X289764Y185827D02*
X296457Y179134D01*
X284252Y185827D02*
X289764D01*
X296457Y144882D02*
Y179134D01*
X293701Y144095D02*
Y174803D01*
X287795Y180709D02*
X293701Y174803D01*
X279370Y180709D02*
X287795D01*
X274252Y185827D02*
X279370Y180709D01*
X411516Y123996D02*
Y130217D01*
X411417Y130315D02*
X411516Y130217D01*
Y123996D02*
X411614Y123898D01*
X267817Y153837D02*
Y217957D01*
X271513Y221654D01*
X267817Y153837D02*
X270866Y150787D01*
X269291Y163060D02*
Y217134D01*
Y163060D02*
X271499Y160852D01*
X279227D02*
X284252Y155827D01*
X271499Y160852D02*
X279227D01*
X279291Y150787D02*
X284252Y145827D01*
X270866Y150787D02*
X279291D01*
X411417Y110236D02*
Y118701D01*
X411614Y118898D01*
D39*
X340945Y185984D02*
D03*
Y175984D02*
D03*
X385591Y121260D02*
D03*
X375590Y122047D02*
D03*
X374410Y230709D02*
D03*
X384409Y229528D02*
D03*
X404016Y143307D02*
D03*
X414016D02*
D03*
X424016D02*
D03*
X434016D02*
D03*
X325590Y175984D02*
D03*
Y185984D02*
D03*
X312126Y143307D02*
D03*
X322126D02*
D03*
X332126D02*
D03*
X472047Y136063D02*
D03*
Y180315D02*
D03*
X274252Y325827D02*
D03*
X284252D02*
D03*
X274252Y315827D02*
D03*
X284252D02*
D03*
X274252Y305827D02*
D03*
X284252D02*
D03*
X274252Y295827D02*
D03*
X284252D02*
D03*
X274252Y285827D02*
D03*
X284252D02*
D03*
X274252Y275827D02*
D03*
X284252D02*
D03*
X274252Y265827D02*
D03*
X284252D02*
D03*
X274252Y255827D02*
D03*
X284252D02*
D03*
X274252Y245827D02*
D03*
X284252D02*
D03*
X274252Y235827D02*
D03*
X284252D02*
D03*
X274252Y225827D02*
D03*
X284252D02*
D03*
X274252Y215827D02*
D03*
X284252D02*
D03*
X274252Y205827D02*
D03*
X284252D02*
D03*
X274252Y195827D02*
D03*
X284252D02*
D03*
X274252Y185827D02*
D03*
X284252D02*
D03*
X274252Y175827D02*
D03*
X284252D02*
D03*
X274252Y165827D02*
D03*
X284252D02*
D03*
X274252Y155827D02*
D03*
X284252D02*
D03*
X274252Y145827D02*
D03*
X284252D02*
D03*
X274252Y135827D02*
D03*
D40*
X340945Y165984D02*
D03*
X325590D02*
D03*
X472047Y146063D02*
D03*
Y190315D02*
D03*
X284252Y135827D02*
D03*
D41*
X436614Y123898D02*
D03*
X436614Y118898D02*
D03*
X431614Y123898D02*
D03*
Y118898D02*
D03*
X426614Y123898D02*
D03*
X426614Y118898D02*
D03*
X421614Y123898D02*
D03*
Y118898D02*
D03*
X416614Y123898D02*
D03*
X416614Y118898D02*
D03*
X411614Y123898D02*
D03*
X314567Y123898D02*
D03*
X319567Y118898D02*
D03*
X319567Y123898D02*
D03*
X324567Y118898D02*
D03*
Y123898D02*
D03*
X329567Y118898D02*
D03*
X329567Y123898D02*
D03*
X334567Y118898D02*
D03*
Y123898D02*
D03*
X339567Y118898D02*
D03*
Y123898D02*
D03*
D42*
X411614Y118898D02*
D03*
X314567Y118898D02*
D03*
D43*
X365591Y121260D02*
D03*
X364409Y229528D02*
D03*
X444016Y143307D02*
D03*
X342126D02*
D03*
D44*
X361811Y217323D02*
D03*
X405118Y136614D02*
D03*
X401968Y134252D02*
D03*
X397244Y135827D02*
D03*
X405512Y107087D02*
D03*
X408661Y137008D02*
D03*
X393307Y198425D02*
D03*
X416535Y110236D02*
D03*
X389370Y201575D02*
D03*
X397376Y209116D02*
D03*
X354724Y200394D02*
D03*
X389370Y212992D02*
D03*
X393307Y211024D02*
D03*
X376378Y214961D02*
D03*
X431496Y130315D02*
D03*
X372441Y212205D02*
D03*
X370472Y214173D02*
D03*
X365748Y217323D02*
D03*
X379134Y203937D02*
D03*
X376378Y205118D02*
D03*
X357087Y176772D02*
D03*
X354331Y205512D02*
D03*
X363386Y212992D02*
D03*
X357087Y172835D02*
D03*
X353858Y172756D02*
D03*
X363779Y172835D02*
D03*
X357874Y197638D02*
D03*
X334646Y112598D02*
D03*
Y129528D02*
D03*
X371260Y207087D02*
D03*
X368898Y205118D02*
D03*
X383148Y178663D02*
D03*
X382677Y200787D02*
D03*
X374410Y203150D02*
D03*
X370079Y192913D02*
D03*
X361024Y197638D02*
D03*
X370079Y196063D02*
D03*
X376378Y190551D02*
D03*
X374016Y170472D02*
D03*
X379921Y172835D02*
D03*
X386422Y173198D02*
D03*
X392404Y170474D02*
D03*
X360438Y179385D02*
D03*
X367323Y172835D02*
D03*
X411417Y130315D02*
D03*
Y110236D02*
D03*
X400394Y125197D02*
D03*
X377933Y165905D02*
D03*
X462992Y154724D02*
D03*
X477165Y168504D02*
D03*
Y156693D02*
D03*
X400394Y129921D02*
D03*
X377559Y150000D02*
D03*
X390773Y160093D02*
D03*
Y164268D02*
D03*
X390551Y154331D02*
D03*
X378346Y154724D02*
D03*
X367929Y164251D02*
D03*
X367961Y160237D02*
D03*
X367717Y154331D02*
D03*
X354724Y150000D02*
D03*
X355512Y154724D02*
D03*
D45*
X472047Y344882D02*
D03*
X279134D02*
D03*
Y116535D02*
D03*
X472047D02*
D03*
M02*
