G04*
G04 #@! TF.GenerationSoftware,Altium Limited,Altium Designer,21.7.2 (23)*
G04*
G04 Layer_Color=65535*
%FSLAX25Y25*%
%MOIN*%
G70*
G04*
G04 #@! TF.SameCoordinates,72A3C6AD-17B6-4F61-9830-52E5D45F99D0*
G04*
G04*
G04 #@! TF.FilePolarity,Positive*
G04*
G01*
G75*
%ADD10C,0.00984*%
%ADD11C,0.00787*%
%ADD12C,0.01000*%
%ADD13C,0.00800*%
%ADD14C,0.00394*%
G36*
X472051Y155646D02*
X472642Y156827D01*
X472051Y158008D01*
Y155646D01*
D02*
G37*
G36*
Y167370D02*
X472642Y168551D01*
X472051Y169732D01*
Y167370D01*
D02*
G37*
D10*
X366043Y199606D02*
G03*
X366043Y199606I-492J0D01*
G01*
X391240Y167618D02*
G03*
X391240Y167618I-492J0D01*
G01*
X368406D02*
G03*
X368406Y167618I-492J0D01*
G01*
D11*
X335945Y160984D02*
X345945D01*
X335945D02*
Y190984D01*
X345945D01*
Y160984D02*
Y190984D01*
X406614Y128898D02*
X406614Y113898D01*
X441614D01*
X441614Y128898D02*
X441614Y113898D01*
X406614Y128898D02*
X441614Y128898D01*
X360591Y116260D02*
Y126260D01*
X390591D01*
Y116260D02*
Y126260D01*
X360591Y116260D02*
X390591D01*
X347244Y340158D02*
X347244Y356102D01*
X303150Y340158D02*
X347244D01*
X303150D02*
Y356102D01*
X347244Y355709D02*
Y356102D01*
X303150D02*
X347244D01*
X303150Y353740D02*
Y356102D01*
X426772Y111417D02*
Y113583D01*
X421654Y111417D02*
X426772D01*
X421654D02*
Y113779D01*
X324410Y111417D02*
Y113779D01*
Y111417D02*
X329528D01*
Y113583D01*
X309567Y128898D02*
X344567Y128898D01*
X344567Y113898D01*
X309567D02*
X344567D01*
X309567D02*
Y128898D01*
X359409Y224528D02*
X389409D01*
Y234528D01*
X359409D02*
X389409D01*
X359409Y224528D02*
Y234528D01*
X449016Y138307D02*
Y148307D01*
X399016Y138307D02*
X449016D01*
X399016Y148307D02*
X449016D01*
X399016Y138307D02*
Y148307D01*
X330591Y190984D02*
X330591Y160984D01*
X320591Y190984D02*
X330591D01*
X320590Y160984D02*
X320591Y190984D01*
X320590Y160984D02*
X330591D01*
X347126Y138307D02*
Y148307D01*
X307126Y138307D02*
X347126Y138307D01*
X307126Y148307D02*
X347126Y148307D01*
X307126Y138307D02*
Y148307D01*
X467047Y131063D02*
X477047D01*
X467047D02*
Y151063D01*
X477047D01*
Y131063D02*
Y151063D01*
X467047Y175315D02*
X477047D01*
X467047D02*
Y195315D01*
X477047D01*
Y175315D02*
Y195315D01*
X289252Y130827D02*
Y330827D01*
X269252Y130827D02*
Y330827D01*
Y130827D02*
X289252D01*
X269252Y330827D02*
X289252D01*
D12*
X318703Y349855D02*
Y353791D01*
X320671D01*
X321327Y353135D01*
Y351823D01*
X320671Y351167D01*
X318703D01*
X322639Y349855D02*
X323951D01*
X323295D01*
Y352479D01*
X322639D01*
X325919Y353791D02*
Y351167D01*
X327230Y349855D01*
X328542Y351167D01*
Y353791D01*
X331822D02*
X330510D01*
X329854Y353135D01*
Y350511D01*
X330510Y349855D01*
X331822D01*
X332478Y350511D01*
Y353135D01*
X331822Y353791D01*
X308536Y346668D02*
Y342732D01*
X310504D01*
X311159Y343388D01*
Y346012D01*
X310504Y346668D01*
X308536D01*
X315095D02*
X312471D01*
Y342732D01*
X315095D01*
X312471Y344700D02*
X313783D01*
X316407Y346668D02*
Y344044D01*
X317719Y342732D01*
X319031Y344044D01*
Y346668D01*
X320343Y344700D02*
X322967D01*
X324279Y346668D02*
Y342732D01*
X326247D01*
X326903Y343388D01*
Y344044D01*
X326247Y344700D01*
X324279D01*
X326247D01*
X326903Y345356D01*
Y346012D01*
X326247Y346668D01*
X324279D01*
X330182D02*
X328870D01*
X328214Y346012D01*
Y343388D01*
X328870Y342732D01*
X330182D01*
X330838Y343388D01*
Y346012D01*
X330182Y346668D01*
X332150Y342732D02*
Y345356D01*
X333462Y346668D01*
X334774Y345356D01*
Y342732D01*
Y344700D01*
X332150D01*
X336086Y342732D02*
Y346668D01*
X338054D01*
X338710Y346012D01*
Y344700D01*
X338054Y344044D01*
X336086D01*
X337398D02*
X338710Y342732D01*
X340022Y346668D02*
Y342732D01*
X341989D01*
X342645Y343388D01*
Y346012D01*
X341989Y346668D01*
X340022D01*
X409268Y353295D02*
Y349359D01*
X411236D01*
X411892Y350015D01*
Y352639D01*
X411236Y353295D01*
X409268D01*
X413203Y349359D02*
X414515D01*
X413859D01*
Y351983D01*
X413203D01*
X416483Y349359D02*
X418451D01*
X419107Y350015D01*
X418451Y350671D01*
X417139D01*
X416483Y351327D01*
X417139Y351983D01*
X419107D01*
X421075Y352639D02*
Y351983D01*
X420419D01*
X421731D01*
X421075D01*
Y350015D01*
X421731Y349359D01*
X424355D02*
X425667D01*
X426323Y350015D01*
Y351327D01*
X425667Y351983D01*
X424355D01*
X423699Y351327D01*
Y350015D01*
X424355Y349359D01*
X427634Y348047D02*
Y351983D01*
X429602D01*
X430258Y351327D01*
Y350015D01*
X429602Y349359D01*
X427634D01*
X431570D02*
X432882D01*
X432226D01*
Y351983D01*
X431570D01*
X434850Y349359D02*
Y353295D01*
Y350671D02*
X436818Y351983D01*
X434850Y350671D02*
X436818Y349359D01*
X366748Y353361D02*
Y350737D01*
X368060Y349425D01*
X369372Y350737D01*
Y353361D01*
X370684Y349425D02*
X371996D01*
X371340D01*
Y353361D01*
X370684Y352705D01*
X373963Y349425D02*
Y350081D01*
X374620D01*
Y349425D01*
X373963D01*
X377243Y352705D02*
X377899Y353361D01*
X379211D01*
X379867Y352705D01*
Y350081D01*
X379211Y349425D01*
X377899D01*
X377243Y350081D01*
Y352705D01*
X441551Y353558D02*
Y349622D01*
X444175D01*
X446143Y352902D02*
Y352246D01*
X445487D01*
X446799D01*
X446143D01*
Y350278D01*
X446799Y349622D01*
X451391Y353558D02*
Y349622D01*
X449423D01*
X448767Y350278D01*
Y351590D01*
X449423Y352246D01*
X451391D01*
X452703Y349622D02*
Y350278D01*
X453358D01*
Y349622D01*
X452703D01*
X418978Y338205D02*
X416354D01*
X418978Y340829D01*
Y341484D01*
X418322Y342141D01*
X417010D01*
X416354Y341484D01*
X420290D02*
X420946Y342141D01*
X422258D01*
X422914Y341484D01*
Y338861D01*
X422258Y338205D01*
X420946D01*
X420290Y338861D01*
Y341484D01*
X426850Y338205D02*
X424226D01*
X426850Y340829D01*
Y341484D01*
X426194Y342141D01*
X424882D01*
X424226Y341484D01*
X428161D02*
X428818Y342141D01*
X430129D01*
X430785Y341484D01*
Y340829D01*
X430129Y340173D01*
X429473D01*
X430129D01*
X430785Y339517D01*
Y338861D01*
X430129Y338205D01*
X428818D01*
X428161Y338861D01*
X396800Y349622D02*
X395488Y350934D01*
Y352246D01*
X396800Y353558D01*
X401392Y352246D02*
X399424D01*
X398768Y351590D01*
Y350278D01*
X399424Y349622D01*
X401392D01*
X402704D02*
X404016Y350934D01*
Y352246D01*
X402704Y353558D01*
X308087Y163205D02*
Y165829D01*
X309399Y167140D01*
X310710Y165829D01*
Y163205D01*
Y165173D01*
X308087D01*
X312022Y167140D02*
Y163205D01*
Y164517D01*
X314646Y167140D01*
X312678Y165173D01*
X314646Y163205D01*
X315958Y167140D02*
X318582D01*
X317270D01*
Y163205D01*
X312811Y187613D02*
Y184333D01*
X313467Y183677D01*
X314779D01*
X315435Y184333D01*
Y187613D01*
X316747D02*
X318059D01*
X317403D01*
Y183677D01*
X316747D01*
X318059D01*
X337614Y196668D02*
X340238D01*
X338926D01*
Y192732D01*
X341550Y196668D02*
X344174Y192732D01*
Y196668D02*
X341550Y192732D01*
X322260D02*
Y196668D01*
X324228D01*
X324884Y196012D01*
Y194700D01*
X324228Y194044D01*
X322260D01*
X323572D02*
X324884Y192732D01*
X326196Y196668D02*
X328819Y192732D01*
Y196668D02*
X326196Y192732D01*
X321079Y201394D02*
Y205329D01*
X323047D01*
X323703Y204674D01*
Y203362D01*
X323047Y202706D01*
X321079D01*
X322391D02*
X323703Y201394D01*
X327638Y204674D02*
X326982Y205329D01*
X325670D01*
X325014Y204674D01*
Y204017D01*
X325670Y203362D01*
X326982D01*
X327638Y202706D01*
Y202050D01*
X326982Y201394D01*
X325670D01*
X325014Y202050D01*
X332886Y205329D02*
Y201394D01*
X335510D01*
X336822Y205329D02*
X338134D01*
X337478D01*
Y201394D01*
X336822D01*
X338134D01*
X340102D02*
Y205329D01*
X342725Y201394D01*
Y205329D01*
X346661D02*
X344037D01*
Y201394D01*
X346661D01*
X344037Y203362D02*
X345349D01*
X366748Y236433D02*
Y240369D01*
X368716D01*
X369372Y239713D01*
Y238401D01*
X368716Y237745D01*
X366748D01*
X370684Y236433D02*
Y240369D01*
X372652D01*
X373308Y239713D01*
Y238401D01*
X372652Y237745D01*
X370684D01*
X371996D02*
X373308Y236433D01*
X376587Y240369D02*
X375275D01*
X374620Y239713D01*
Y237089D01*
X375275Y236433D01*
X376587D01*
X377243Y237089D01*
Y239713D01*
X376587Y240369D01*
X381179Y239713D02*
X380523Y240369D01*
X379211D01*
X378555Y239713D01*
Y237089D01*
X379211Y236433D01*
X380523D01*
X381179Y237089D01*
Y238401D01*
X379867D01*
X382491Y236433D02*
Y237089D01*
X383147D01*
Y236433D01*
X382491D01*
X365041Y131445D02*
X364385Y132101D01*
X363073D01*
X362417Y131445D01*
Y128821D01*
X363073Y128165D01*
X364385D01*
X365041Y128821D01*
X374224Y132101D02*
Y128165D01*
X376192D01*
X376848Y128821D01*
Y131445D01*
X376192Y132101D01*
X374224D01*
X388656Y131445D02*
X388000Y132101D01*
X386688D01*
X386032Y131445D01*
Y128821D01*
X386688Y128165D01*
X388000D01*
X388656Y128821D01*
Y130133D01*
X387344D01*
X479972Y136301D02*
X479316Y135645D01*
Y134333D01*
X479972Y133677D01*
X482596D01*
X483252Y134333D01*
Y135645D01*
X482596Y136301D01*
X481284D01*
Y134989D01*
Y141549D02*
Y144173D01*
X479972Y142861D02*
X482596D01*
X479316Y148108D02*
Y145484D01*
X481284D01*
X480628Y146796D01*
Y147452D01*
X481284Y148108D01*
X482596D01*
X483252Y147452D01*
Y146140D01*
X482596Y145484D01*
X479972Y179214D02*
X479316Y178558D01*
Y177246D01*
X479972Y176591D01*
X482596D01*
X483252Y177246D01*
Y178558D01*
X482596Y179214D01*
X481284D01*
Y177902D01*
Y184462D02*
Y187086D01*
X479972Y185774D02*
X482596D01*
X483252Y188398D02*
Y189710D01*
Y189054D01*
X479316D01*
X479972Y188398D01*
X483252Y194301D02*
Y191677D01*
X480628Y194301D01*
X479972D01*
X479316Y193645D01*
Y192333D01*
X479972Y191677D01*
X368323Y108087D02*
Y112022D01*
X370291D01*
X370947Y111366D01*
Y110055D01*
X370291Y109398D01*
X368323D01*
X372259Y108087D02*
Y112022D01*
X374226D01*
X374882Y111366D01*
Y110055D01*
X374226Y109398D01*
X372259D01*
X373570D02*
X374882Y108087D01*
X378162Y112022D02*
X376850D01*
X376194Y111366D01*
Y108743D01*
X376850Y108087D01*
X378162D01*
X378818Y108743D01*
Y111366D01*
X378162Y112022D01*
X382754Y111366D02*
X382098Y112022D01*
X380786D01*
X380130Y111366D01*
Y108743D01*
X380786Y108087D01*
X382098D01*
X382754Y108743D01*
Y110055D01*
X381442D01*
X384066Y108087D02*
Y108743D01*
X384722D01*
Y108087D01*
X384066D01*
X430528Y153362D02*
X433151D01*
X431840Y154674D02*
Y152050D01*
X434463Y151394D02*
X435775D01*
X435119D01*
Y155329D01*
X434463Y154674D01*
X440367Y151394D02*
X437743D01*
X440367Y154017D01*
Y154674D01*
X439711Y155329D01*
X438399D01*
X437743Y154674D01*
X446931D02*
X446275Y155329D01*
X444963D01*
X444307Y154674D01*
Y152050D01*
X444963Y151394D01*
X446275D01*
X446931Y152050D01*
Y153362D01*
X445619D01*
X404017Y154674D02*
X403362Y155329D01*
X402050D01*
X401394Y154674D01*
Y152050D01*
X402050Y151394D01*
X403362D01*
X404017Y152050D01*
Y153362D01*
X402706D01*
X407299D02*
X409923D01*
X408611Y154674D02*
Y152050D01*
X411235Y151394D02*
X412547D01*
X411891D01*
Y155329D01*
X411235Y154674D01*
X417139Y151394D02*
X414515D01*
X417139Y154017D01*
Y154674D01*
X416483Y155329D01*
X415171D01*
X414515Y154674D01*
X420685Y153362D02*
X423309D01*
X421997Y154674D02*
Y152050D01*
X427245Y155329D02*
X424621D01*
Y153362D01*
X425933Y154017D01*
X426589D01*
X427245Y153362D01*
Y152050D01*
X426589Y151394D01*
X425277D01*
X424621Y152050D01*
X312695Y154280D02*
X312039Y154936D01*
X310727D01*
X310071Y154280D01*
Y151656D01*
X310727Y151000D01*
X312039D01*
X312695Y151656D01*
Y152968D01*
X311383D01*
X317943D02*
X320566D01*
X319254Y154280D02*
Y151656D01*
X324502Y154936D02*
X321878D01*
Y152968D01*
X323190Y153624D01*
X323846D01*
X324502Y152968D01*
Y151656D01*
X323846Y151000D01*
X322534D01*
X321878Y151656D01*
X329750Y152968D02*
X332374D01*
X331062Y154280D02*
Y151656D01*
X336309Y154936D02*
X333686D01*
Y152968D01*
X334998Y153624D01*
X335653D01*
X336309Y152968D01*
Y151656D01*
X335653Y151000D01*
X334342D01*
X333686Y151656D01*
X344181Y154280D02*
X343525Y154936D01*
X342213D01*
X341557Y154280D01*
Y151656D01*
X342213Y151000D01*
X343525D01*
X344181Y151656D01*
Y152968D01*
X342869D01*
X408874Y104937D02*
Y107561D01*
X410186Y108873D01*
X411498Y107561D01*
Y104937D01*
Y106905D01*
X408874D01*
X415434Y108217D02*
X414778Y108873D01*
X413466D01*
X412810Y108217D01*
Y105593D01*
X413466Y104937D01*
X414778D01*
X415434Y105593D01*
X416746Y108873D02*
X419369D01*
X418057D01*
Y104937D01*
X420681Y108873D02*
Y105593D01*
X421337Y104937D01*
X422649D01*
X423305Y105593D01*
Y108873D01*
X424617Y104937D02*
Y107561D01*
X425929Y108873D01*
X427241Y107561D01*
Y104937D01*
Y106905D01*
X424617D01*
X428553Y108873D02*
X431177D01*
X429865D01*
Y104937D01*
X434456Y108873D02*
X433144D01*
X432488Y108217D01*
Y105593D01*
X433144Y104937D01*
X434456D01*
X435112Y105593D01*
Y108217D01*
X434456Y108873D01*
X436424Y104937D02*
Y108873D01*
X438392D01*
X439048Y108217D01*
Y106905D01*
X438392Y106249D01*
X436424D01*
X437736D02*
X439048Y104937D01*
X324622Y108873D02*
Y105593D01*
X325278Y104937D01*
X326590D01*
X327246Y105593D01*
Y108873D01*
X328558D02*
X329870D01*
X329214D01*
Y104937D01*
X328558D01*
X329870D01*
D13*
X269685Y129789D02*
Y127165D01*
X267061Y129789D01*
X266405D01*
X265749Y129133D01*
Y127821D01*
X266405Y127165D01*
X270079Y331889D02*
X266143D01*
X268111Y329921D01*
Y332545D01*
X266799Y333857D02*
X266143Y334513D01*
Y335825D01*
X266799Y336481D01*
X269423D01*
X270079Y335825D01*
Y334513D01*
X269423Y333857D01*
X266799D01*
X294504Y128410D02*
Y130076D01*
Y129243D01*
X289506D01*
X290339Y128410D01*
X291208Y329921D02*
X290552Y330577D01*
Y331889D01*
X291208Y332545D01*
X291864D01*
X292520Y331889D01*
Y331233D01*
Y331889D01*
X293176Y332545D01*
X293832D01*
X294488Y331889D01*
Y330577D01*
X293832Y329921D01*
Y333857D02*
X294488Y334513D01*
Y335825D01*
X293832Y336481D01*
X291208D01*
X290552Y335825D01*
Y334513D01*
X291208Y333857D01*
X291864D01*
X292520Y334513D01*
Y336481D01*
D14*
X478740Y157480D02*
Y155512D01*
Y156168D01*
X480052Y157480D01*
X479068Y156496D01*
X480052Y155512D01*
X478740Y169684D02*
Y167717D01*
Y168372D01*
X480052Y169684D01*
X479068Y168701D01*
X480052Y167717D01*
M02*
