G04*
G04 #@! TF.GenerationSoftware,Altium Limited,Altium Designer,20.0.9 (164)*
G04*
G04 Layer_Color=8421504*
%FSLAX25Y25*%
%MOIN*%
G70*
G01*
G75*
%ADD14R,0.01968X0.04921*%
%ADD15R,0.03937X0.01575*%
%ADD16R,0.05118X0.02362*%
%ADD17R,0.07874X0.07874*%
%ADD18R,0.02992X0.09449*%
G04:AMPARAMS|DCode=19|XSize=20.47mil|YSize=22.05mil|CornerRadius=5.12mil|HoleSize=0mil|Usage=FLASHONLY|Rotation=0.000|XOffset=0mil|YOffset=0mil|HoleType=Round|Shape=RoundedRectangle|*
%AMROUNDEDRECTD19*
21,1,0.02047,0.01181,0,0,0.0*
21,1,0.01024,0.02205,0,0,0.0*
1,1,0.01024,0.00512,-0.00591*
1,1,0.01024,-0.00512,-0.00591*
1,1,0.01024,-0.00512,0.00591*
1,1,0.01024,0.00512,0.00591*
%
%ADD19ROUNDEDRECTD19*%
%ADD20R,0.07874X0.07874*%
%ADD21R,0.02362X0.03937*%
%ADD22R,0.06693X0.04331*%
%ADD23R,0.09843X0.07480*%
%ADD24R,0.04724X0.10433*%
%ADD25R,0.04331X0.06693*%
G04:AMPARAMS|DCode=26|XSize=20.47mil|YSize=22.05mil|CornerRadius=5.12mil|HoleSize=0mil|Usage=FLASHONLY|Rotation=90.000|XOffset=0mil|YOffset=0mil|HoleType=Round|Shape=RoundedRectangle|*
%AMROUNDEDRECTD26*
21,1,0.02047,0.01181,0,0,90.0*
21,1,0.01024,0.02205,0,0,90.0*
1,1,0.01024,0.00591,0.00512*
1,1,0.01024,0.00591,-0.00512*
1,1,0.01024,-0.00591,-0.00512*
1,1,0.01024,-0.00591,0.00512*
%
%ADD26ROUNDEDRECTD26*%
%ADD27R,0.08661X0.08465*%
%ADD28R,0.02756X0.03347*%
%ADD29R,0.09449X0.06693*%
%ADD30R,0.01181X0.03347*%
D14*
X108858Y84449D02*
D03*
X105118Y84449D02*
D03*
X101378Y84449D02*
D03*
Y74606D02*
D03*
X105118Y74606D02*
D03*
X108858Y74606D02*
D03*
D15*
X112598Y213583D02*
D03*
X120472D02*
D03*
Y211024D02*
D03*
Y208465D02*
D03*
X112598D02*
D03*
Y211024D02*
D03*
D16*
X105709Y207677D02*
D03*
Y215158D02*
D03*
X97441Y211417D02*
D03*
D17*
X78740Y235827D02*
D03*
X78740Y211614D02*
D03*
X35433Y235827D02*
D03*
Y211614D02*
D03*
D18*
X49311Y16909D02*
D03*
Y31909D02*
D03*
X54311Y16909D02*
D03*
Y31909D02*
D03*
X59311Y16909D02*
D03*
Y31909D02*
D03*
X64311Y16909D02*
D03*
Y31909D02*
D03*
X69311Y16909D02*
D03*
Y31909D02*
D03*
X74311Y16909D02*
D03*
Y31909D02*
D03*
X146161Y17697D02*
D03*
Y32697D02*
D03*
X151161Y17697D02*
D03*
Y32697D02*
D03*
X156161Y17697D02*
D03*
Y32697D02*
D03*
X161161Y17697D02*
D03*
Y32697D02*
D03*
X166161Y17697D02*
D03*
Y32697D02*
D03*
X171161Y17697D02*
D03*
Y32697D02*
D03*
D19*
X88976Y67716D02*
D03*
X85512D02*
D03*
X120472Y218110D02*
D03*
X117008D02*
D03*
X112598Y203937D02*
D03*
X116063D02*
D03*
X203780Y125197D02*
D03*
X207244D02*
D03*
X114567Y67716D02*
D03*
X111102D02*
D03*
X121260D02*
D03*
X124724D02*
D03*
X95669D02*
D03*
X99134D02*
D03*
X121496Y44094D02*
D03*
X124961Y44094D02*
D03*
X121496Y47244D02*
D03*
X124961D02*
D03*
X95906Y47244D02*
D03*
X99370D02*
D03*
X95906Y44094D02*
D03*
X99370D02*
D03*
X114803Y44094D02*
D03*
X118268D02*
D03*
X114803Y47244D02*
D03*
X118268D02*
D03*
X89213Y44094D02*
D03*
X92677D02*
D03*
X89213Y47244D02*
D03*
X92677D02*
D03*
X96063Y40551D02*
D03*
X92598D02*
D03*
X121653Y40157D02*
D03*
X118189D02*
D03*
X203780Y114961D02*
D03*
X207244D02*
D03*
X203780Y120079D02*
D03*
X207244D02*
D03*
D20*
X200394Y174409D02*
D03*
X176181D02*
D03*
X200394Y217717D02*
D03*
X176181D02*
D03*
D21*
X142913Y166142D02*
D03*
X146654Y166142D02*
D03*
X150394Y166142D02*
D03*
Y156299D02*
D03*
X146654Y156299D02*
D03*
X142913Y156299D02*
D03*
X92126Y166142D02*
D03*
X95866Y166142D02*
D03*
X99606Y166142D02*
D03*
Y156299D02*
D03*
X95866Y156299D02*
D03*
X92126Y156299D02*
D03*
D22*
X142913Y181890D02*
D03*
Y171653D02*
D03*
X92126Y181890D02*
D03*
Y171653D02*
D03*
D23*
X126772Y174803D02*
D03*
Y157480D02*
D03*
X75984Y174803D02*
D03*
Y157480D02*
D03*
D24*
X151575Y137795D02*
D03*
X141339Y137795D02*
D03*
X123228Y137795D02*
D03*
X133465D02*
D03*
X123228Y125197D02*
D03*
X133465D02*
D03*
X100787Y137795D02*
D03*
X90551D02*
D03*
X72441Y125197D02*
D03*
X82677D02*
D03*
X72441Y137795D02*
D03*
X82677D02*
D03*
D25*
X141339Y148425D02*
D03*
X151575D02*
D03*
X133465D02*
D03*
X123228D02*
D03*
X90551D02*
D03*
X100787D02*
D03*
X82677D02*
D03*
X72441D02*
D03*
D26*
X155118Y172598D02*
D03*
X155118Y169134D02*
D03*
X155118Y165905D02*
D03*
X155118Y162441D02*
D03*
X104331Y172598D02*
D03*
Y169134D02*
D03*
Y165905D02*
D03*
Y162441D02*
D03*
X117913Y71181D02*
D03*
Y67716D02*
D03*
X92323Y71181D02*
D03*
Y67716D02*
D03*
X127953Y55276D02*
D03*
X127953Y51811D02*
D03*
X127953Y63150D02*
D03*
Y59685D02*
D03*
X102345Y55046D02*
D03*
X102345Y51582D02*
D03*
X102362Y63150D02*
D03*
Y59685D02*
D03*
D27*
X120473Y109843D02*
D03*
X137795D02*
D03*
X69685D02*
D03*
X87008D02*
D03*
D28*
X211024Y125197D02*
D03*
X215748D02*
D03*
X211024Y114961D02*
D03*
X215748D02*
D03*
X211024Y120079D02*
D03*
X215748D02*
D03*
D29*
X118898Y57480D02*
D03*
X93307D02*
D03*
D30*
X122835Y51772D02*
D03*
X120866D02*
D03*
X118898D02*
D03*
X116929D02*
D03*
X114961D02*
D03*
Y63189D02*
D03*
X116929D02*
D03*
X118898D02*
D03*
X120866D02*
D03*
X122835D02*
D03*
X97244Y51772D02*
D03*
X95276D02*
D03*
X93307D02*
D03*
X91339D02*
D03*
X89370D02*
D03*
Y63189D02*
D03*
X91339D02*
D03*
X93307D02*
D03*
X95276D02*
D03*
X97244D02*
D03*
M02*
