G04*
G04 #@! TF.GenerationSoftware,Altium Limited,Altium Designer,20.0.9 (164)*
G04*
G04 Layer_Physical_Order=1*
G04 Layer_Color=255*
%FSLAX25Y25*%
%MOIN*%
G70*
G01*
G75*
%ADD12C,0.00787*%
%ADD14R,0.01968X0.04921*%
%ADD15R,0.03937X0.01575*%
%ADD16R,0.05118X0.02362*%
%ADD17R,0.07874X0.07874*%
%ADD18R,0.02992X0.09449*%
G04:AMPARAMS|DCode=19|XSize=20.47mil|YSize=22.05mil|CornerRadius=5.12mil|HoleSize=0mil|Usage=FLASHONLY|Rotation=0.000|XOffset=0mil|YOffset=0mil|HoleType=Round|Shape=RoundedRectangle|*
%AMROUNDEDRECTD19*
21,1,0.02047,0.01181,0,0,0.0*
21,1,0.01024,0.02205,0,0,0.0*
1,1,0.01024,0.00512,-0.00591*
1,1,0.01024,-0.00512,-0.00591*
1,1,0.01024,-0.00512,0.00591*
1,1,0.01024,0.00512,0.00591*
%
%ADD19ROUNDEDRECTD19*%
%ADD20R,0.07874X0.07874*%
%ADD21R,0.02362X0.03937*%
%ADD22R,0.06693X0.04331*%
%ADD23R,0.09843X0.07480*%
%ADD24R,0.04724X0.10433*%
%ADD25R,0.04331X0.06693*%
G04:AMPARAMS|DCode=26|XSize=20.47mil|YSize=22.05mil|CornerRadius=5.12mil|HoleSize=0mil|Usage=FLASHONLY|Rotation=90.000|XOffset=0mil|YOffset=0mil|HoleType=Round|Shape=RoundedRectangle|*
%AMROUNDEDRECTD26*
21,1,0.02047,0.01181,0,0,90.0*
21,1,0.01024,0.02205,0,0,90.0*
1,1,0.01024,0.00591,0.00512*
1,1,0.01024,0.00591,-0.00512*
1,1,0.01024,-0.00591,-0.00512*
1,1,0.01024,-0.00591,0.00512*
%
%ADD26ROUNDEDRECTD26*%
%ADD27R,0.08661X0.08465*%
%ADD28R,0.02756X0.03347*%
%ADD29R,0.09449X0.06693*%
%ADD30R,0.01181X0.03347*%
%ADD59C,0.03937*%
%ADD60C,0.02756*%
%ADD61C,0.07874*%
%ADD62C,0.01181*%
%ADD63C,0.01575*%
%ADD64C,0.10039*%
%ADD65C,0.11221*%
%ADD66C,0.05906*%
%ADD67R,0.05906X0.05906*%
%ADD68R,0.05906X0.05906*%
%ADD69C,0.03937*%
%ADD70C,0.02756*%
%ADD71C,0.01772*%
%ADD72C,0.01968*%
%ADD73C,0.02362*%
%ADD74C,0.23622*%
G36*
X201099Y253134D02*
X201086Y253129D01*
X199434Y252117D01*
X197961Y250858D01*
X196702Y249385D01*
X195690Y247732D01*
X194948Y245942D01*
X194496Y244058D01*
X194344Y242126D01*
X194496Y240194D01*
X194948Y238310D01*
X195690Y236520D01*
X196702Y234867D01*
X197961Y233394D01*
X199434Y232135D01*
X201086Y231123D01*
X202877Y230381D01*
X204761Y229929D01*
X206693Y229777D01*
X208625Y229929D01*
X210509Y230381D01*
X212299Y231123D01*
X213951Y232135D01*
X215425Y233394D01*
X216684Y234867D01*
X217696Y236520D01*
X217701Y236532D01*
X219670Y236140D01*
Y19765D01*
X217701Y19374D01*
X217696Y19386D01*
X216684Y21038D01*
X215425Y22512D01*
X213951Y23770D01*
X212299Y24783D01*
X210509Y25524D01*
X208625Y25977D01*
X206693Y26129D01*
X204761Y25977D01*
X202877Y25524D01*
X201086Y24783D01*
X199434Y23770D01*
X197961Y22512D01*
X196702Y21038D01*
X195690Y19386D01*
X194948Y17596D01*
X194496Y15711D01*
X194344Y13780D01*
X194496Y11848D01*
X194948Y9963D01*
X195690Y8173D01*
X196702Y6521D01*
X197961Y5047D01*
X199434Y3789D01*
X201086Y2776D01*
X201099Y2771D01*
X200707Y803D01*
X19765D01*
X19374Y2771D01*
X19386Y2776D01*
X21038Y3789D01*
X22512Y5047D01*
X23770Y6521D01*
X24783Y8173D01*
X25524Y9963D01*
X25977Y11848D01*
X26129Y13780D01*
X25977Y15711D01*
X25524Y17596D01*
X24783Y19386D01*
X23770Y21038D01*
X22512Y22512D01*
X21038Y23770D01*
X19386Y24783D01*
X17596Y25524D01*
X15711Y25977D01*
X13780Y26129D01*
X11848Y25977D01*
X9963Y25524D01*
X8173Y24783D01*
X6521Y23770D01*
X5047Y22512D01*
X3789Y21038D01*
X2776Y19386D01*
X2771Y19374D01*
X803Y19765D01*
Y236140D01*
X2771Y236532D01*
X2776Y236520D01*
X3789Y234867D01*
X5047Y233394D01*
X6521Y232135D01*
X8173Y231123D01*
X9963Y230381D01*
X11848Y229929D01*
X13780Y229777D01*
X15711Y229929D01*
X17596Y230381D01*
X19386Y231123D01*
X21038Y232135D01*
X22512Y233394D01*
X23770Y234867D01*
X24783Y236520D01*
X25524Y238310D01*
X25977Y240194D01*
X26129Y242126D01*
X25977Y244058D01*
X25524Y245942D01*
X24783Y247732D01*
X23770Y249385D01*
X22512Y250858D01*
X21038Y252117D01*
X19386Y253129D01*
X19374Y253134D01*
X19765Y255103D01*
X200707D01*
X201099Y253134D01*
D02*
G37*
%LPC*%
G36*
X39770Y240164D02*
X35633D01*
Y236027D01*
X39770D01*
Y240164D01*
D02*
G37*
G36*
X35233D02*
X31096D01*
Y236027D01*
X35233D01*
Y240164D01*
D02*
G37*
G36*
X39770Y235627D02*
X35633D01*
Y231490D01*
X39770D01*
Y235627D01*
D02*
G37*
G36*
X35233D02*
X31096D01*
Y231490D01*
X35233D01*
Y235627D01*
D02*
G37*
G36*
X57087Y241293D02*
X55672Y241107D01*
X54353Y240561D01*
X53221Y239692D01*
X52352Y238560D01*
X51806Y237242D01*
X51620Y235827D01*
X51806Y234412D01*
X52352Y233094D01*
X53221Y231961D01*
X54353Y231093D01*
X55672Y230547D01*
X57087Y230360D01*
X58501Y230547D01*
X59820Y231093D01*
X60952Y231961D01*
X61821Y233094D01*
X62367Y234412D01*
X62553Y235827D01*
X62367Y237242D01*
X61821Y238560D01*
X60952Y239692D01*
X59820Y240561D01*
X58501Y241107D01*
X57087Y241293D01*
D02*
G37*
G36*
X19098Y226426D02*
Y223271D01*
X22253D01*
X22164Y223946D01*
X21826Y224762D01*
X21289Y225462D01*
X20588Y225999D01*
X19773Y226337D01*
X19098Y226426D01*
D02*
G37*
G36*
X18698D02*
X18022Y226337D01*
X17207Y225999D01*
X16506Y225462D01*
X15969Y224762D01*
X15631Y223946D01*
X15542Y223271D01*
X18698D01*
Y226426D01*
D02*
G37*
G36*
Y222871D02*
X15542D01*
X15631Y222196D01*
X15969Y221380D01*
X16506Y220680D01*
X17207Y220142D01*
X18022Y219804D01*
X18698Y219715D01*
Y222871D01*
D02*
G37*
G36*
X22253D02*
X19098D01*
Y219715D01*
X19773Y219804D01*
X20588Y220142D01*
X21289Y220680D01*
X21826Y221380D01*
X22164Y222196D01*
X22253Y222871D01*
D02*
G37*
G36*
X8898Y226452D02*
X8022Y226337D01*
X7207Y225999D01*
X6506Y225462D01*
X5969Y224762D01*
X5631Y223946D01*
X5516Y223071D01*
X5631Y222196D01*
X5969Y221380D01*
X6506Y220680D01*
X7207Y220142D01*
X8022Y219804D01*
X8898Y219689D01*
X9773Y219804D01*
X10588Y220142D01*
X11289Y220680D01*
X11826Y221380D01*
X12164Y222196D01*
X12279Y223071D01*
X12164Y223946D01*
X11826Y224762D01*
X11289Y225462D01*
X10588Y225999D01*
X9773Y226337D01*
X8898Y226452D01*
D02*
G37*
G36*
X116808Y219631D02*
X116496D01*
X116140Y219560D01*
X115839Y219358D01*
X115637Y219057D01*
X115566Y218701D01*
Y218310D01*
X116808D01*
Y219631D01*
D02*
G37*
G36*
X180518Y222054D02*
X176381D01*
Y217916D01*
X180518D01*
Y222054D01*
D02*
G37*
G36*
X204731D02*
X200594D01*
Y217916D01*
X204731D01*
Y222054D01*
D02*
G37*
G36*
X175981D02*
X171844D01*
Y217916D01*
X175981D01*
Y222054D01*
D02*
G37*
G36*
X200194D02*
X196057D01*
Y217916D01*
X200194D01*
Y222054D01*
D02*
G37*
G36*
X116808Y217910D02*
X115566D01*
Y217520D01*
X115637Y217164D01*
X115839Y216862D01*
X116140Y216661D01*
X116496Y216590D01*
X116808D01*
Y217910D01*
D02*
G37*
G36*
X204731Y217516D02*
X200594D01*
Y213380D01*
X204731D01*
Y217516D01*
D02*
G37*
G36*
X200194D02*
X196057D01*
Y213380D01*
X200194D01*
Y217516D01*
D02*
G37*
G36*
X180518D02*
X176381D01*
Y213380D01*
X180518D01*
Y217516D01*
D02*
G37*
G36*
X175981D02*
X171844D01*
Y213380D01*
X175981D01*
Y217516D01*
D02*
G37*
G36*
X57087Y224149D02*
X55908Y224033D01*
X54776Y223690D01*
X53731Y223132D01*
X52816Y222381D01*
X52065Y221465D01*
X51507Y220421D01*
X51163Y219288D01*
X51047Y218110D01*
X51163Y216932D01*
X51507Y215799D01*
X52065Y214755D01*
X52816Y213840D01*
X53731Y213089D01*
X54776Y212531D01*
X55908Y212187D01*
X57087Y212071D01*
X58265Y212187D01*
X59398Y212531D01*
X60442Y213089D01*
X61357Y213840D01*
X62108Y214755D01*
X62666Y215799D01*
X63010Y216932D01*
X63126Y218110D01*
X63010Y219288D01*
X62666Y220421D01*
X62108Y221465D01*
X61357Y222381D01*
X60442Y223132D01*
X59398Y223690D01*
X58265Y224033D01*
X57087Y224149D01*
D02*
G37*
G36*
X39770Y215951D02*
X35633D01*
Y211814D01*
X39770D01*
Y215951D01*
D02*
G37*
G36*
X35233D02*
X31096D01*
Y211814D01*
X35233D01*
Y215951D01*
D02*
G37*
G36*
X18898Y216453D02*
X18022Y216337D01*
X17207Y216000D01*
X16506Y215462D01*
X15969Y214762D01*
X15631Y213946D01*
X15516Y213071D01*
X15631Y212196D01*
X15969Y211380D01*
X16506Y210680D01*
X17207Y210142D01*
X18022Y209804D01*
X18898Y209689D01*
X19773Y209804D01*
X20588Y210142D01*
X21289Y210680D01*
X21826Y211380D01*
X22164Y212196D01*
X22279Y213071D01*
X22164Y213946D01*
X21826Y214762D01*
X21289Y215462D01*
X20588Y216000D01*
X19773Y216337D01*
X18898Y216453D01*
D02*
G37*
G36*
X8898D02*
X8022Y216337D01*
X7207Y216000D01*
X6506Y215462D01*
X5969Y214762D01*
X5631Y213946D01*
X5516Y213071D01*
X5631Y212196D01*
X5969Y211380D01*
X6506Y210680D01*
X7207Y210142D01*
X8022Y209804D01*
X8898Y209689D01*
X9773Y209804D01*
X10588Y210142D01*
X11289Y210680D01*
X11826Y211380D01*
X12164Y212196D01*
X12279Y213071D01*
X12164Y213946D01*
X11826Y214762D01*
X11289Y215462D01*
X10588Y216000D01*
X9773Y216337D01*
X8898Y216453D01*
D02*
G37*
G36*
X78740Y240201D02*
X78456Y240164D01*
X74403D01*
Y236111D01*
X74366Y235827D01*
X74366Y235827D01*
Y205512D01*
X74515Y204380D01*
X74952Y203325D01*
X75647Y202419D01*
X85489Y192576D01*
X86396Y191881D01*
X87450Y191444D01*
X88583Y191295D01*
X161180D01*
X171807Y180668D01*
Y174409D01*
X171844Y174125D01*
Y170072D01*
X175897D01*
X176181Y170035D01*
X200394D01*
X200678Y170072D01*
X204731D01*
Y174125D01*
X204768Y174409D01*
X204731Y174694D01*
Y178746D01*
X200678D01*
X200394Y178784D01*
X180555D01*
Y182480D01*
X180406Y183613D01*
X179970Y184668D01*
X179274Y185573D01*
X166085Y198763D01*
X165179Y199458D01*
X164124Y199895D01*
X162992Y200044D01*
X90395D01*
X85116Y205323D01*
X85869Y207141D01*
X96693D01*
X97441Y207043D01*
X98573Y207192D01*
X99628Y207629D01*
X100534Y208324D01*
X100781Y208646D01*
X102750Y207978D01*
Y206096D01*
X108668D01*
Y206096D01*
X109880Y206140D01*
X111017Y204704D01*
X111157Y204405D01*
Y203346D01*
X111228Y202991D01*
X111429Y202689D01*
X111731Y202488D01*
X112087Y202417D01*
X112888D01*
X113110Y202417D01*
X113758Y202488D01*
X114903D01*
X115551Y202417D01*
X115773Y202417D01*
X115863D01*
Y203937D01*
Y205457D01*
X115773D01*
X115551Y205457D01*
X115454Y205510D01*
X114967Y207277D01*
X115381Y209031D01*
X116535Y209699D01*
X118104Y208791D01*
X118104Y207277D01*
X122841D01*
X122841Y209652D01*
X122841Y212211D01*
X122841D01*
Y212395D01*
X122841D01*
Y214770D01*
X121482D01*
Y216756D01*
X121642Y216862D01*
X121843Y217164D01*
X121914Y217520D01*
Y218701D01*
X121843Y219057D01*
X121642Y219358D01*
X121340Y219560D01*
X120984Y219631D01*
X120182D01*
X119961Y219631D01*
X119313Y219560D01*
X118168D01*
X117520Y219631D01*
X117298Y219631D01*
X117208D01*
Y218110D01*
Y216590D01*
X117298D01*
X117520Y216590D01*
X117617Y216537D01*
X118104Y214770D01*
X117690Y213016D01*
X116535Y212349D01*
X114967Y213256D01*
Y214770D01*
X111323D01*
X110508Y216739D01*
X113125Y219355D01*
X113648Y220139D01*
X113832Y221063D01*
Y221535D01*
X113934Y222047D01*
X113743Y223010D01*
X113197Y223827D01*
X112381Y224373D01*
X111417Y224564D01*
X110454Y224373D01*
X109755Y223905D01*
X109576Y223833D01*
X107488Y224024D01*
X106672Y224569D01*
X105709Y224761D01*
X104745Y224569D01*
X103929Y224024D01*
X101842Y223833D01*
X101663Y223905D01*
X100963Y224373D01*
X100000Y224564D01*
X99037Y224373D01*
X98220Y223827D01*
X97675Y223010D01*
X97483Y222047D01*
X97585Y221535D01*
Y221063D01*
X97769Y220139D01*
X98292Y219355D01*
X100960Y216688D01*
X99659Y215205D01*
X99530Y215304D01*
X98475Y215741D01*
X97342Y215890D01*
X83115D01*
Y235827D01*
X83077Y236111D01*
Y240164D01*
X79024D01*
X78740Y240201D01*
D02*
G37*
G36*
X39770Y211414D02*
X35633D01*
Y207277D01*
X39770D01*
Y211414D01*
D02*
G37*
G36*
X35233D02*
X31096D01*
Y207277D01*
X35233D01*
Y211414D01*
D02*
G37*
G36*
X116263Y205457D02*
Y204137D01*
X117505D01*
Y204528D01*
X117434Y204883D01*
X117232Y205185D01*
X116931Y205386D01*
X116575Y205457D01*
X116263D01*
D02*
G37*
G36*
X117505Y203737D02*
X116263D01*
Y202417D01*
X116575D01*
X116931Y202488D01*
X117232Y202689D01*
X117434Y202991D01*
X117505Y203346D01*
Y203737D01*
D02*
G37*
G36*
X18898Y206452D02*
X18022Y206337D01*
X17207Y205999D01*
X16506Y205462D01*
X15969Y204762D01*
X15631Y203946D01*
X15516Y203071D01*
X15631Y202196D01*
X15969Y201380D01*
X16506Y200680D01*
X17207Y200142D01*
X18022Y199804D01*
X18898Y199689D01*
X19773Y199804D01*
X20588Y200142D01*
X21289Y200680D01*
X21826Y201380D01*
X22164Y202196D01*
X22279Y203071D01*
X22164Y203946D01*
X21826Y204762D01*
X21289Y205462D01*
X20588Y205999D01*
X19773Y206337D01*
X18898Y206452D01*
D02*
G37*
G36*
X8898D02*
X8022Y206337D01*
X7207Y205999D01*
X6506Y205462D01*
X5969Y204762D01*
X5631Y203946D01*
X5516Y203071D01*
X5631Y202196D01*
X5969Y201380D01*
X6506Y200680D01*
X7207Y200142D01*
X8022Y199804D01*
X8898Y199689D01*
X9773Y199804D01*
X10588Y200142D01*
X11289Y200680D01*
X11826Y201380D01*
X12164Y202196D01*
X12279Y203071D01*
X12164Y203946D01*
X11826Y204762D01*
X11289Y205462D01*
X10588Y205999D01*
X9773Y206337D01*
X8898Y206452D01*
D02*
G37*
G36*
X9098Y196426D02*
Y193271D01*
X12253D01*
X12164Y193946D01*
X11826Y194762D01*
X11289Y195462D01*
X10588Y196000D01*
X9773Y196337D01*
X9098Y196426D01*
D02*
G37*
G36*
X8698D02*
X8022Y196337D01*
X7207Y196000D01*
X6506Y195462D01*
X5969Y194762D01*
X5631Y193946D01*
X5542Y193271D01*
X8698D01*
Y196426D01*
D02*
G37*
G36*
X200394Y201529D02*
X198979Y201343D01*
X197661Y200797D01*
X196528Y199928D01*
X195660Y198796D01*
X195114Y197478D01*
X194927Y196063D01*
X195114Y194648D01*
X195660Y193330D01*
X196528Y192198D01*
X197661Y191329D01*
X198979Y190783D01*
X200394Y190596D01*
X201809Y190783D01*
X203127Y191329D01*
X204259Y192198D01*
X205128Y193330D01*
X205674Y194648D01*
X205860Y196063D01*
X205674Y197478D01*
X205128Y198796D01*
X204259Y199928D01*
X203127Y200797D01*
X201809Y201343D01*
X200394Y201529D01*
D02*
G37*
G36*
X182677Y202102D02*
X181499Y201986D01*
X180366Y201643D01*
X179322Y201084D01*
X178407Y200333D01*
X177656Y199418D01*
X177098Y198374D01*
X176754Y197241D01*
X176638Y196063D01*
X176754Y194885D01*
X177098Y193752D01*
X177656Y192708D01*
X178407Y191793D01*
X179322Y191042D01*
X180366Y190483D01*
X181499Y190140D01*
X182677Y190024D01*
X183855Y190140D01*
X184988Y190483D01*
X186032Y191042D01*
X186948Y191793D01*
X187699Y192708D01*
X188257Y193752D01*
X188600Y194885D01*
X188716Y196063D01*
X188600Y197241D01*
X188257Y198374D01*
X187699Y199418D01*
X186948Y200333D01*
X186032Y201084D01*
X184988Y201643D01*
X183855Y201986D01*
X182677Y202102D01*
D02*
G37*
G36*
X8698Y192871D02*
X5542D01*
X5631Y192196D01*
X5969Y191380D01*
X6506Y190680D01*
X7207Y190142D01*
X8022Y189804D01*
X8698Y189716D01*
Y192871D01*
D02*
G37*
G36*
X12253D02*
X9098D01*
Y189716D01*
X9773Y189804D01*
X10588Y190142D01*
X11289Y190680D01*
X11826Y191380D01*
X12164Y192196D01*
X12253Y192871D01*
D02*
G37*
G36*
X18898Y196452D02*
X18022Y196337D01*
X17207Y196000D01*
X16506Y195462D01*
X15969Y194762D01*
X15631Y193946D01*
X15516Y193071D01*
X15631Y192196D01*
X15969Y191380D01*
X16506Y190680D01*
X17207Y190142D01*
X18022Y189804D01*
X18898Y189689D01*
X19773Y189804D01*
X20588Y190142D01*
X21289Y190680D01*
X21826Y191380D01*
X22164Y192196D01*
X22279Y193071D01*
X22164Y193946D01*
X21826Y194762D01*
X21289Y195462D01*
X20588Y196000D01*
X19773Y196337D01*
X18898Y196452D01*
D02*
G37*
G36*
Y186452D02*
X18022Y186337D01*
X17207Y186000D01*
X16506Y185462D01*
X15969Y184762D01*
X15631Y183946D01*
X15516Y183071D01*
X15631Y182196D01*
X15969Y181380D01*
X16506Y180680D01*
X17207Y180142D01*
X18022Y179804D01*
X18898Y179689D01*
X19773Y179804D01*
X20588Y180142D01*
X21289Y180680D01*
X21826Y181380D01*
X22164Y182196D01*
X22279Y183071D01*
X22164Y183946D01*
X21826Y184762D01*
X21289Y185462D01*
X20588Y186000D01*
X19773Y186337D01*
X18898Y186452D01*
D02*
G37*
G36*
X8898D02*
X8022Y186337D01*
X7207Y186000D01*
X6506Y185462D01*
X5969Y184762D01*
X5631Y183946D01*
X5516Y183071D01*
X5631Y182196D01*
X5969Y181380D01*
X6506Y180680D01*
X7207Y180142D01*
X8022Y179804D01*
X8898Y179689D01*
X9773Y179804D01*
X10588Y180142D01*
X11289Y180680D01*
X11826Y181380D01*
X12164Y182196D01*
X12279Y183071D01*
X12164Y183946D01*
X11826Y184762D01*
X11289Y185462D01*
X10588Y186000D01*
X9773Y186337D01*
X8898Y186452D01*
D02*
G37*
G36*
X9098Y176426D02*
Y173271D01*
X12253D01*
X12164Y173946D01*
X11826Y174762D01*
X11289Y175462D01*
X10588Y175999D01*
X9773Y176337D01*
X9098Y176426D01*
D02*
G37*
G36*
X8698D02*
X8022Y176337D01*
X7207Y175999D01*
X6506Y175462D01*
X5969Y174762D01*
X5631Y173946D01*
X5542Y173271D01*
X8698D01*
Y176426D01*
D02*
G37*
G36*
Y172871D02*
X5542D01*
X5631Y172196D01*
X5969Y171380D01*
X6506Y170680D01*
X7207Y170142D01*
X8022Y169804D01*
X8698Y169715D01*
Y172871D01*
D02*
G37*
G36*
X12253D02*
X9098D01*
Y169715D01*
X9773Y169804D01*
X10588Y170142D01*
X11289Y170680D01*
X11826Y171380D01*
X12164Y172196D01*
X12253Y172871D01*
D02*
G37*
G36*
X18898Y176453D02*
X18022Y176337D01*
X17207Y175999D01*
X16506Y175462D01*
X15969Y174762D01*
X15631Y173946D01*
X15516Y173071D01*
X15631Y172196D01*
X15969Y171380D01*
X16506Y170680D01*
X17207Y170142D01*
X18022Y169804D01*
X18898Y169689D01*
X19773Y169804D01*
X20588Y170142D01*
X21289Y170680D01*
X21826Y171380D01*
X22164Y172196D01*
X22279Y173071D01*
X22164Y173946D01*
X21826Y174762D01*
X21289Y175462D01*
X20588Y175999D01*
X19773Y176337D01*
X18898Y176453D01*
D02*
G37*
G36*
X146457Y185472D02*
X145657Y185472D01*
X118898Y185472D01*
X118591Y185345D01*
X115836Y182590D01*
X115709Y182283D01*
X115709Y168110D01*
X115836Y167804D01*
X116536Y167104D01*
X116536Y164392D01*
X115836Y163692D01*
X115709Y163386D01*
X115709Y117502D01*
X113473Y115267D01*
X113347Y114961D01*
X113347Y95276D01*
X113473Y94969D01*
X113473Y94969D01*
X114654Y93788D01*
X114654Y93788D01*
X114961Y93662D01*
X127165Y93661D01*
X127471Y93788D01*
X128653Y94969D01*
X128779Y95276D01*
X128779Y151002D01*
X130494Y152717D01*
X131890D01*
X132196Y152843D01*
X132323Y153150D01*
X132323Y159950D01*
X134291Y160766D01*
X135914Y159143D01*
X136221Y159016D01*
X144309Y159016D01*
X144598Y158727D01*
Y153937D01*
X144725Y153631D01*
X145031Y153504D01*
X145077D01*
X146896Y153055D01*
X146896Y152462D01*
Y126284D01*
X147022Y125978D01*
X147328Y125851D01*
X154040D01*
X154346Y125978D01*
X156246Y125421D01*
Y120079D01*
Y67142D01*
X146954Y57849D01*
X146430Y57066D01*
X146247Y56142D01*
Y48423D01*
X145733Y47754D01*
X145395Y46938D01*
X145280Y46063D01*
X145395Y45188D01*
X145733Y44372D01*
X146270Y43672D01*
X146971Y43134D01*
X147786Y42796D01*
X148661Y42681D01*
X149537Y42796D01*
X150352Y43134D01*
X151053Y43672D01*
X151590Y44372D01*
X151928Y45188D01*
X152043Y46063D01*
X151928Y46938D01*
X151590Y47754D01*
X151076Y48423D01*
Y55141D01*
X158661Y62726D01*
X166246Y55141D01*
Y48423D01*
X165733Y47754D01*
X165395Y46938D01*
X165280Y46063D01*
X165395Y45188D01*
X165733Y44372D01*
X166270Y43672D01*
X166971Y43134D01*
X167786Y42796D01*
X168661Y42681D01*
X169537Y42796D01*
X170352Y43134D01*
X171053Y43672D01*
X171590Y44372D01*
X171928Y45188D01*
X172043Y46063D01*
X171928Y46938D01*
X171590Y47754D01*
X171076Y48423D01*
Y56142D01*
X170893Y57066D01*
X170369Y57849D01*
X161076Y67142D01*
Y117301D01*
X162900Y119270D01*
X202370D01*
X202393Y119189D01*
X202409Y119132D01*
X202610Y118831D01*
X202912Y118629D01*
X203268Y118559D01*
X204070D01*
X204291Y118559D01*
X204940Y118629D01*
X206084D01*
X206732Y118559D01*
X207340Y117587D01*
X206908Y116802D01*
X205885Y116410D01*
X204940D01*
X204291Y116481D01*
X204070Y116481D01*
X203268D01*
X202912Y116410D01*
X202610Y116209D01*
X201328Y116266D01*
X200787Y116374D01*
X200247Y116266D01*
X199788Y115960D01*
X199482Y115501D01*
X199374Y114961D01*
X199482Y114420D01*
X199788Y113962D01*
X200247Y113655D01*
X200787Y113548D01*
X201328Y113655D01*
X202610Y113713D01*
X202912Y113511D01*
X203268Y113440D01*
X204070D01*
X204291Y113440D01*
X204940Y113511D01*
X206084D01*
X206732Y113440D01*
X206954Y113440D01*
X207506D01*
X209246Y112887D01*
Y112887D01*
X212002D01*
X213970Y112887D01*
X214770Y112887D01*
X215548D01*
Y114961D01*
X215748D01*
Y115161D01*
X217526D01*
Y116037D01*
X217526Y117034D01*
X217526Y119002D01*
Y119879D01*
X215748D01*
Y120279D01*
X217526D01*
X217526Y122638D01*
X217526Y124120D01*
Y124997D01*
X215748D01*
Y125197D01*
X215548D01*
Y127270D01*
X214770D01*
X212802Y127270D01*
X212002Y127270D01*
X209246D01*
Y127270D01*
X207756Y126717D01*
X206954D01*
X206732Y126717D01*
X206084Y126646D01*
X204940D01*
X204291Y126717D01*
X204070Y126717D01*
X203268D01*
X202912Y126646D01*
X202610Y126445D01*
X200934Y126502D01*
X200394Y126610D01*
X199853Y126502D01*
X199395Y126196D01*
X199088Y125738D01*
X198981Y125197D01*
X199088Y124656D01*
X199395Y124198D01*
X199853Y123891D01*
X200394Y123784D01*
X200934Y123891D01*
X202610Y123949D01*
X202912Y123747D01*
X203268Y123677D01*
X204070D01*
X204291Y123677D01*
X204940Y123747D01*
X206084D01*
X206732Y123677D01*
X207340Y122706D01*
X206908Y121920D01*
X205885Y121528D01*
X204940D01*
X204291Y121599D01*
X204070Y121599D01*
X203268D01*
X202912Y121528D01*
X202610Y121327D01*
X202409Y121025D01*
X202393Y120969D01*
X202370Y120888D01*
X162900D01*
X161076Y122856D01*
Y126559D01*
X163125Y128607D01*
X163648Y129391D01*
X163832Y130315D01*
X163648Y131239D01*
X163125Y132023D01*
X162341Y132546D01*
X161417Y132730D01*
X160493Y132546D01*
X159710Y132023D01*
X158661Y130974D01*
X157613Y132023D01*
X156830Y132546D01*
X155905Y132730D01*
X154473Y134394D01*
Y158105D01*
X154346Y158411D01*
X154040Y158537D01*
X151975D01*
Y158668D01*
X148858D01*
Y161805D01*
X148858Y163386D01*
X150677Y163773D01*
X151975D01*
Y164299D01*
X153943Y164688D01*
X154172Y164535D01*
X154528Y164464D01*
X155709D01*
X156064Y164535D01*
X156366Y164736D01*
X156568Y165038D01*
X156638Y165394D01*
Y166417D01*
X156568Y166773D01*
X156366Y167075D01*
X156366Y167965D01*
X156568Y168266D01*
X156638Y168622D01*
X156638Y168622D01*
X156638Y169424D01*
X156638Y169424D01*
X156638Y169646D01*
X156593Y170866D01*
X156638Y172087D01*
X156638Y172308D01*
X156638Y172308D01*
Y173110D01*
X156638Y173110D01*
X156638Y173110D01*
X156568Y173466D01*
X156366Y173768D01*
X156064Y173969D01*
X155709Y174040D01*
X155709Y174040D01*
X154528Y174040D01*
X154172Y173969D01*
X154109Y173927D01*
X153654D01*
X153574Y174047D01*
X153018Y174418D01*
X152362Y174549D01*
X151706Y174418D01*
X151150Y174047D01*
X150779Y173491D01*
X150648Y172835D01*
X150779Y172179D01*
X151150Y171623D01*
X151706Y171251D01*
X152086Y171176D01*
X152401Y170942D01*
X152494Y170413D01*
X152399Y169333D01*
X152189Y168901D01*
X151852Y168518D01*
X151721Y168510D01*
X150203D01*
X148235Y168510D01*
X146890Y169291D01*
Y174016D01*
X146763Y174322D01*
X146599Y175928D01*
X146639Y176342D01*
X147157Y176859D01*
X147283Y177165D01*
X147283Y183846D01*
X147283Y184646D01*
X147283Y184646D01*
X147157Y184952D01*
X146763Y185345D01*
X146457Y185472D01*
X146457Y185472D01*
D02*
G37*
G36*
X95669D02*
X94870Y185472D01*
X68110Y185472D01*
X67804Y185345D01*
X65048Y182590D01*
X64921Y182283D01*
X64921Y168110D01*
X65048Y167804D01*
X65749Y167104D01*
X65749Y164392D01*
X65048Y163692D01*
X64921Y163386D01*
X64921Y117502D01*
X62686Y115267D01*
X62559Y114961D01*
Y105905D01*
X62686Y105599D01*
X64261Y104025D01*
X64567Y103898D01*
X68266D01*
Y91735D01*
X67713Y91183D01*
X30315D01*
X29621Y91045D01*
X29033Y90652D01*
X26277Y87896D01*
X25884Y87308D01*
X25746Y86614D01*
Y50397D01*
X25194Y49844D01*
X23129D01*
X22581Y50490D01*
X22005Y51813D01*
X22164Y52196D01*
X22279Y53071D01*
X22164Y53946D01*
X21826Y54762D01*
X21289Y55462D01*
X20588Y55999D01*
X19773Y56337D01*
X18898Y56453D01*
X18022Y56337D01*
X17207Y55999D01*
X16506Y55462D01*
X15969Y54762D01*
X15631Y53946D01*
X15516Y53071D01*
X15631Y52196D01*
X15790Y51813D01*
X15214Y50490D01*
X14666Y49844D01*
X14132D01*
X13959Y49844D01*
X13959Y49844D01*
X13815Y49816D01*
X12553Y50566D01*
X12039Y51894D01*
X12164Y52196D01*
X12253Y52871D01*
X9098D01*
Y49716D01*
X9648Y49788D01*
X9773Y49804D01*
X10181Y49913D01*
X10730Y49956D01*
X10778Y49929D01*
X11161Y47797D01*
X9709Y46346D01*
X8898Y46453D01*
X8022Y46337D01*
X7207Y46000D01*
X6506Y45462D01*
X5969Y44762D01*
X5631Y43946D01*
X5516Y43071D01*
X5631Y42196D01*
X5969Y41380D01*
X6506Y40680D01*
X7085Y40236D01*
Y35906D01*
X6506Y35462D01*
X5969Y34762D01*
X5631Y33946D01*
X5516Y33071D01*
X5631Y32196D01*
X5969Y31380D01*
X6506Y30680D01*
X7207Y30142D01*
X8022Y29804D01*
X8898Y29689D01*
X9773Y29804D01*
X10588Y30142D01*
X11289Y30680D01*
X11826Y31380D01*
X12164Y32196D01*
X12279Y33071D01*
X12164Y33946D01*
X11826Y34762D01*
X11289Y35462D01*
X10710Y35906D01*
Y40236D01*
X11289Y40680D01*
X11826Y41380D01*
X12164Y42196D01*
X12279Y43071D01*
X12196Y43701D01*
X13559Y44981D01*
X13892Y44892D01*
X15631Y43946D01*
X15516Y43071D01*
X15631Y42196D01*
X15969Y41380D01*
X16506Y40680D01*
X17207Y40142D01*
X18022Y39804D01*
X18898Y39689D01*
X19773Y39804D01*
X20588Y40142D01*
X21289Y40680D01*
X21826Y41380D01*
X22164Y42196D01*
X22279Y43071D01*
X22164Y43946D01*
X22038Y44250D01*
X22702Y45698D01*
X23189Y46219D01*
X25945D01*
X26638Y46357D01*
X27226Y46750D01*
X28841Y48364D01*
X29234Y48952D01*
X29372Y49646D01*
Y85863D01*
X31066Y87557D01*
X68464D01*
X69158Y87695D01*
X69746Y88088D01*
X71361Y89703D01*
X71754Y90291D01*
X71891Y90984D01*
Y103898D01*
X75590D01*
X75629Y103914D01*
X75860Y103790D01*
X76166Y103332D01*
X76166Y103332D01*
X76625Y103025D01*
X76625Y103025D01*
X77165Y102918D01*
X77706Y103025D01*
X77706Y103025D01*
X78164Y103332D01*
X78164D01*
X78471Y103790D01*
X78578Y104331D01*
X78578Y104331D01*
X78471Y104871D01*
X78164Y105330D01*
X77865Y105993D01*
X77992Y106299D01*
Y151002D01*
X79707Y152717D01*
X81102D01*
X81409Y152843D01*
X81535Y153150D01*
X81535Y159950D01*
X83504Y160766D01*
X85127Y159143D01*
X85433Y159016D01*
X93521Y159016D01*
X93810Y158727D01*
Y153937D01*
X93937Y153631D01*
X94243Y153504D01*
X94289D01*
X96108Y153055D01*
X96108Y152462D01*
Y126284D01*
X96235Y125978D01*
X96541Y125851D01*
X103253D01*
X103559Y125978D01*
X103686Y126284D01*
Y158105D01*
X103559Y158411D01*
X103253Y158537D01*
X101187D01*
Y158668D01*
X98071D01*
Y161805D01*
X98071Y163386D01*
X99889Y163773D01*
X101187D01*
Y164299D01*
X103156Y164688D01*
X103384Y164535D01*
X103740Y164464D01*
X104921D01*
X105277Y164535D01*
X105579Y164736D01*
X105780Y165038D01*
X105851Y165394D01*
Y166417D01*
X105780Y166773D01*
X105579Y167075D01*
Y167965D01*
X105780Y168266D01*
X105851Y168622D01*
Y169424D01*
X105851Y169646D01*
X105780Y170294D01*
Y171438D01*
X105851Y172087D01*
X105851Y172308D01*
Y173110D01*
X105780Y173466D01*
X105579Y173768D01*
X105277Y173969D01*
X104921Y174040D01*
X103740D01*
X103384Y173969D01*
X103322Y173927D01*
X102867D01*
X102787Y174047D01*
X102231Y174418D01*
X101575Y174549D01*
X100919Y174418D01*
X100919Y174418D01*
X100363Y174047D01*
X100027Y173544D01*
X99991Y173491D01*
X99991Y173491D01*
X99861Y172835D01*
X99861Y172835D01*
X99873Y172772D01*
X99991Y172179D01*
X100363Y171623D01*
Y171623D01*
X100919Y171251D01*
X100919Y171251D01*
X100982Y171239D01*
X101298Y171176D01*
X101613Y170942D01*
X101707Y170413D01*
X101612Y169333D01*
X101402Y168901D01*
X101064Y168518D01*
X100934Y168510D01*
X99416D01*
X97447Y168510D01*
X96102Y169291D01*
Y174016D01*
X95976Y174322D01*
X95812Y175928D01*
X95852Y176342D01*
X96369Y176859D01*
X96496Y177165D01*
X96496Y183846D01*
X96496Y184646D01*
X96496Y184646D01*
X96369Y184952D01*
X95975Y185345D01*
X95669Y185472D01*
X95669Y185472D01*
D02*
G37*
G36*
X18898Y166453D02*
X18022Y166337D01*
X17207Y165999D01*
X16506Y165462D01*
X15969Y164762D01*
X15631Y163946D01*
X15516Y163071D01*
X15631Y162196D01*
X15969Y161380D01*
X16506Y160680D01*
X17207Y160142D01*
X18022Y159804D01*
X18898Y159689D01*
X19773Y159804D01*
X20588Y160142D01*
X21289Y160680D01*
X21826Y161380D01*
X22164Y162196D01*
X22279Y163071D01*
X22164Y163946D01*
X21826Y164762D01*
X21289Y165462D01*
X20588Y165999D01*
X19773Y166337D01*
X18898Y166453D01*
D02*
G37*
G36*
X8898D02*
X8022Y166337D01*
X7207Y165999D01*
X6506Y165462D01*
X5969Y164762D01*
X5631Y163946D01*
X5516Y163071D01*
X5631Y162196D01*
X5969Y161380D01*
X6506Y160680D01*
X7207Y160142D01*
X8022Y159804D01*
X8898Y159689D01*
X9773Y159804D01*
X10588Y160142D01*
X11289Y160680D01*
X11826Y161380D01*
X12164Y162196D01*
X12279Y163071D01*
X12164Y163946D01*
X11826Y164762D01*
X11289Y165462D01*
X10588Y165999D01*
X9773Y166337D01*
X8898Y166453D01*
D02*
G37*
G36*
X19098Y156426D02*
Y153271D01*
X22253D01*
X22164Y153946D01*
X21826Y154762D01*
X21289Y155462D01*
X20588Y156000D01*
X19773Y156337D01*
X19098Y156426D01*
D02*
G37*
G36*
X18698D02*
X18022Y156337D01*
X17207Y156000D01*
X16506Y155462D01*
X15969Y154762D01*
X15631Y153946D01*
X15542Y153271D01*
X18698D01*
Y156426D01*
D02*
G37*
G36*
Y152871D02*
X15542D01*
X15631Y152196D01*
X15969Y151380D01*
X16506Y150680D01*
X17207Y150142D01*
X18022Y149804D01*
X18698Y149715D01*
Y152871D01*
D02*
G37*
G36*
X22253D02*
X19098D01*
Y149715D01*
X19773Y149804D01*
X20588Y150142D01*
X21289Y150680D01*
X21826Y151380D01*
X22164Y152196D01*
X22253Y152871D01*
D02*
G37*
G36*
X8898Y156453D02*
X8022Y156337D01*
X7207Y156000D01*
X6506Y155462D01*
X5969Y154762D01*
X5631Y153946D01*
X5516Y153071D01*
X5631Y152196D01*
X5969Y151380D01*
X6506Y150680D01*
X7207Y150142D01*
X8022Y149804D01*
X8898Y149689D01*
X9773Y149804D01*
X10588Y150142D01*
X11289Y150680D01*
X11826Y151380D01*
X12164Y152196D01*
X12279Y153071D01*
X12164Y153946D01*
X11826Y154762D01*
X11289Y155462D01*
X10588Y156000D01*
X9773Y156337D01*
X8898Y156453D01*
D02*
G37*
G36*
X18898Y146452D02*
X18022Y146337D01*
X17207Y146000D01*
X16506Y145462D01*
X15969Y144762D01*
X15631Y143946D01*
X15516Y143071D01*
X15631Y142196D01*
X15969Y141380D01*
X16506Y140680D01*
X17207Y140142D01*
X18022Y139804D01*
X18898Y139689D01*
X19773Y139804D01*
X20588Y140142D01*
X21289Y140680D01*
X21826Y141380D01*
X22164Y142196D01*
X22279Y143071D01*
X22164Y143946D01*
X21826Y144762D01*
X21289Y145462D01*
X20588Y146000D01*
X19773Y146337D01*
X18898Y146452D01*
D02*
G37*
G36*
X8898D02*
X8022Y146337D01*
X7207Y146000D01*
X6506Y145462D01*
X5969Y144762D01*
X5631Y143946D01*
X5516Y143071D01*
X5631Y142196D01*
X5969Y141380D01*
X6506Y140680D01*
X7207Y140142D01*
X8022Y139804D01*
X8898Y139689D01*
X9773Y139804D01*
X10588Y140142D01*
X11289Y140680D01*
X11826Y141380D01*
X12164Y142196D01*
X12279Y143071D01*
X12164Y143946D01*
X11826Y144762D01*
X11289Y145462D01*
X10588Y146000D01*
X9773Y146337D01*
X8898Y146452D01*
D02*
G37*
G36*
X18898Y136452D02*
X18022Y136337D01*
X17207Y136000D01*
X16506Y135462D01*
X15969Y134762D01*
X15631Y133946D01*
X15516Y133071D01*
X15631Y132196D01*
X15969Y131380D01*
X16506Y130680D01*
X17207Y130142D01*
X18022Y129804D01*
X18898Y129689D01*
X19773Y129804D01*
X20588Y130142D01*
X21289Y130680D01*
X21826Y131380D01*
X22164Y132196D01*
X22279Y133071D01*
X22164Y133946D01*
X21826Y134762D01*
X21289Y135462D01*
X20588Y136000D01*
X19773Y136337D01*
X18898Y136452D01*
D02*
G37*
G36*
X8898D02*
X8022Y136337D01*
X7207Y136000D01*
X6506Y135462D01*
X5969Y134762D01*
X5631Y133946D01*
X5516Y133071D01*
X5631Y132196D01*
X5969Y131380D01*
X6506Y130680D01*
X7207Y130142D01*
X8022Y129804D01*
X8898Y129689D01*
X9773Y129804D01*
X10588Y130142D01*
X11289Y130680D01*
X11826Y131380D01*
X12164Y132196D01*
X12279Y133071D01*
X12164Y133946D01*
X11826Y134762D01*
X11289Y135462D01*
X10588Y136000D01*
X9773Y136337D01*
X8898Y136452D01*
D02*
G37*
G36*
X215948Y127270D02*
Y125397D01*
X217526D01*
Y127270D01*
X215948D01*
D02*
G37*
G36*
X9098Y126426D02*
Y123271D01*
X12253D01*
X12164Y123946D01*
X11826Y124762D01*
X11289Y125462D01*
X10588Y125999D01*
X9773Y126337D01*
X9098Y126426D01*
D02*
G37*
G36*
X8698D02*
X8022Y126337D01*
X7207Y125999D01*
X6506Y125462D01*
X5969Y124762D01*
X5631Y123946D01*
X5542Y123271D01*
X8698D01*
Y126426D01*
D02*
G37*
G36*
Y122871D02*
X5542D01*
X5631Y122196D01*
X5969Y121380D01*
X6506Y120680D01*
X7207Y120142D01*
X8022Y119804D01*
X8698Y119715D01*
Y122871D01*
D02*
G37*
G36*
X12253D02*
X9098D01*
Y119715D01*
X9773Y119804D01*
X10588Y120142D01*
X11289Y120680D01*
X11826Y121380D01*
X12164Y122196D01*
X12253Y122871D01*
D02*
G37*
G36*
X18898Y126453D02*
X18022Y126337D01*
X17207Y125999D01*
X16506Y125462D01*
X15969Y124762D01*
X15631Y123946D01*
X15516Y123071D01*
X15631Y122196D01*
X15969Y121380D01*
X16506Y120680D01*
X17207Y120142D01*
X18022Y119804D01*
X18898Y119689D01*
X19773Y119804D01*
X20588Y120142D01*
X21289Y120680D01*
X21826Y121380D01*
X22164Y122196D01*
X22279Y123071D01*
X22164Y123946D01*
X21826Y124762D01*
X21289Y125462D01*
X20588Y125999D01*
X19773Y126337D01*
X18898Y126453D01*
D02*
G37*
G36*
X217526Y114761D02*
X215948D01*
Y112887D01*
X217526D01*
Y114761D01*
D02*
G37*
G36*
X18898Y116453D02*
X18022Y116337D01*
X17207Y115999D01*
X16506Y115462D01*
X15969Y114762D01*
X15631Y113946D01*
X15516Y113071D01*
X15631Y112196D01*
X15969Y111380D01*
X16506Y110680D01*
X17207Y110142D01*
X18022Y109804D01*
X18898Y109689D01*
X19773Y109804D01*
X20588Y110142D01*
X21289Y110680D01*
X21826Y111380D01*
X22164Y112196D01*
X22279Y113071D01*
X22164Y113946D01*
X21826Y114762D01*
X21289Y115462D01*
X20588Y115999D01*
X19773Y116337D01*
X18898Y116453D01*
D02*
G37*
G36*
X8898D02*
X8022Y116337D01*
X7207Y115999D01*
X6506Y115462D01*
X5969Y114762D01*
X5631Y113946D01*
X5516Y113071D01*
X5631Y112196D01*
X5969Y111380D01*
X6506Y110680D01*
X7207Y110142D01*
X8022Y109804D01*
X8898Y109689D01*
X9773Y109804D01*
X10588Y110142D01*
X11289Y110680D01*
X11826Y111380D01*
X12164Y112196D01*
X12279Y113071D01*
X12164Y113946D01*
X11826Y114762D01*
X11289Y115462D01*
X10588Y115999D01*
X9773Y116337D01*
X8898Y116453D01*
D02*
G37*
G36*
X18898Y106453D02*
X18022Y106337D01*
X17207Y106000D01*
X16506Y105462D01*
X15969Y104762D01*
X15631Y103946D01*
X15516Y103071D01*
X15631Y102196D01*
X15969Y101380D01*
X16506Y100680D01*
X17207Y100142D01*
X18022Y99804D01*
X18898Y99689D01*
X19773Y99804D01*
X20588Y100142D01*
X21289Y100680D01*
X21826Y101380D01*
X22164Y102196D01*
X22279Y103071D01*
X22164Y103946D01*
X21826Y104762D01*
X21289Y105462D01*
X20588Y106000D01*
X19773Y106337D01*
X18898Y106453D01*
D02*
G37*
G36*
X8898D02*
X8022Y106337D01*
X7207Y106000D01*
X6506Y105462D01*
X5969Y104762D01*
X5631Y103946D01*
X5516Y103071D01*
X5631Y102196D01*
X5969Y101380D01*
X6506Y100680D01*
X7207Y100142D01*
X8022Y99804D01*
X8898Y99689D01*
X9773Y99804D01*
X10588Y100142D01*
X11289Y100680D01*
X11826Y101380D01*
X12164Y102196D01*
X12279Y103071D01*
X12164Y103946D01*
X11826Y104762D01*
X11289Y105462D01*
X10588Y106000D01*
X9773Y106337D01*
X8898Y106453D01*
D02*
G37*
G36*
X9098Y96426D02*
Y93271D01*
X12253D01*
X12164Y93946D01*
X11826Y94762D01*
X11289Y95462D01*
X10588Y95999D01*
X9773Y96337D01*
X9098Y96426D01*
D02*
G37*
G36*
X8698D02*
X8022Y96337D01*
X7207Y95999D01*
X6506Y95462D01*
X5969Y94762D01*
X5631Y93946D01*
X5542Y93271D01*
X8698D01*
Y96426D01*
D02*
G37*
G36*
Y92871D02*
X5542D01*
X5631Y92196D01*
X5969Y91380D01*
X6506Y90680D01*
X7207Y90142D01*
X8022Y89804D01*
X8698Y89715D01*
Y92871D01*
D02*
G37*
G36*
X12253D02*
X9098D01*
Y89715D01*
X9773Y89804D01*
X10588Y90142D01*
X11289Y90680D01*
X11826Y91380D01*
X12164Y92196D01*
X12253Y92871D01*
D02*
G37*
G36*
X18898Y96452D02*
X18022Y96337D01*
X17207Y95999D01*
X16506Y95462D01*
X15969Y94762D01*
X15631Y93946D01*
X15516Y93071D01*
X15631Y92196D01*
X15969Y91380D01*
X16506Y90680D01*
X17207Y90142D01*
X18022Y89804D01*
X18898Y89689D01*
X19773Y89804D01*
X20588Y90142D01*
X21289Y90680D01*
X21826Y91380D01*
X22164Y92196D01*
X22279Y93071D01*
X22164Y93946D01*
X21826Y94762D01*
X21289Y95462D01*
X20588Y95999D01*
X19773Y96337D01*
X18898Y96452D01*
D02*
G37*
G36*
X106502Y87309D02*
X105506Y87309D01*
X105318D01*
Y84449D01*
X104918D01*
Y87309D01*
X103734Y87309D01*
X101765Y87309D01*
X99994D01*
Y81588D01*
X99994D01*
X100162Y80709D01*
Y80709D01*
X99044Y79471D01*
X98934Y79350D01*
X98616Y79156D01*
X97495D01*
X61450D01*
X60630D01*
X60630Y79156D01*
X60320Y79094D01*
X60058Y78919D01*
X59375Y78236D01*
X35657Y54518D01*
X35433Y54563D01*
X35254Y54527D01*
X34892Y54455D01*
X34892Y54455D01*
X34434Y54149D01*
Y54149D01*
X34128Y53690D01*
X34128Y53690D01*
X34020Y53150D01*
X34020Y53150D01*
X34128Y52609D01*
X34128Y52609D01*
X34434Y52150D01*
X34434Y52150D01*
X34892Y51844D01*
X34892Y51844D01*
X35433Y51737D01*
X35974Y51844D01*
X35974Y51844D01*
X36432Y52150D01*
X36738Y52609D01*
X36846Y53150D01*
X36846Y53150D01*
X36801Y53374D01*
X60567Y77140D01*
X60965Y77537D01*
X61598Y77537D01*
X96959D01*
X97704D01*
X99647Y77479D01*
X99648Y77479D01*
X99994Y75654D01*
Y73387D01*
X99994Y73349D01*
X97799D01*
X97799Y73349D01*
X97798Y73349D01*
X97224Y73349D01*
X96915Y73287D01*
X96915D01*
X96652Y73112D01*
X96652D01*
X95748Y72207D01*
X95068Y72153D01*
X93571Y72350D01*
X93269Y72552D01*
X92913Y72623D01*
X92523D01*
Y71181D01*
X92123D01*
Y72623D01*
X91732D01*
X91377Y72552D01*
X91075Y72350D01*
X89624Y71817D01*
X88976Y71885D01*
X88436Y71778D01*
X87977Y71472D01*
X87671Y71013D01*
X87611Y70711D01*
X87168Y70155D01*
X86150Y69338D01*
X85948Y69237D01*
X85802Y69237D01*
X85000D01*
X84644Y69166D01*
X84343Y68964D01*
X83612Y69022D01*
X83071Y69130D01*
X82530Y69022D01*
X82530Y69022D01*
X82530Y69022D01*
X82072Y68716D01*
X81766Y68257D01*
X81765Y68257D01*
X81658Y67716D01*
X81765Y67176D01*
X81766Y67176D01*
X82072Y66717D01*
X82530Y66411D01*
X82530Y66411D01*
X82530Y66411D01*
X83071Y66304D01*
X83612Y66411D01*
X84343Y66469D01*
X84644Y66267D01*
X85000Y66196D01*
X85802D01*
X86024Y66196D01*
X86577Y66257D01*
X87428Y65998D01*
X88364Y64417D01*
X88364Y63386D01*
X88372Y63343D01*
X88374Y63195D01*
X88183Y61227D01*
X88183D01*
Y57680D01*
X93307D01*
Y57280D01*
X88183D01*
Y53734D01*
X88380D01*
Y51972D01*
X89370D01*
Y51572D01*
X88380D01*
Y50555D01*
X88374Y50249D01*
X88243Y49556D01*
X87842Y48190D01*
X87771Y47835D01*
Y47444D01*
X89213D01*
Y47044D01*
X87771D01*
Y46737D01*
X87771Y45669D01*
X87771Y44685D01*
Y44295D01*
X89213D01*
Y44094D01*
X89413D01*
Y42574D01*
X89588Y42574D01*
X90129Y42219D01*
X90802Y41546D01*
X91157Y41005D01*
Y39961D01*
X91228Y39605D01*
X91429Y39303D01*
X91731Y39102D01*
X92087Y39031D01*
X92892D01*
Y33406D01*
X85098Y25612D01*
X77690D01*
X76207Y26785D01*
X76207Y27581D01*
Y28891D01*
X76257Y28996D01*
X77559Y30477D01*
X78100Y30584D01*
X78100Y30584D01*
X78558Y30891D01*
Y30891D01*
X78865Y31349D01*
X78972Y31890D01*
X78972Y31890D01*
X78865Y32430D01*
X78865Y32430D01*
X78558Y32889D01*
X78558Y32889D01*
X78100Y33195D01*
X78100Y33195D01*
X77559Y33303D01*
X76257Y34783D01*
X76207Y34888D01*
Y37034D01*
X72560Y37034D01*
X70928Y37456D01*
X70704Y37795D01*
X70597Y38336D01*
X70597Y38336D01*
X70290Y38794D01*
X69832Y39101D01*
X69832D01*
X69291Y39208D01*
X69291Y39208D01*
X68751Y39101D01*
X68292Y38794D01*
X68292Y38794D01*
Y38794D01*
X67986Y38336D01*
X67986Y38336D01*
X67878Y37795D01*
X67808Y37679D01*
X66023Y37034D01*
X65447Y37034D01*
X64511D01*
Y31909D01*
X64111D01*
Y37034D01*
X61207Y37034D01*
X60447Y37034D01*
X57599Y37034D01*
X55814Y37679D01*
X55744Y37795D01*
X55636Y38336D01*
X55636Y38336D01*
X55330Y38794D01*
X55330Y38794D01*
X55330Y38794D01*
X54871Y39101D01*
X54871Y39101D01*
X54331Y39208D01*
X53790Y39101D01*
X53790Y39101D01*
X53332Y38794D01*
Y38794D01*
X53025Y38336D01*
X53025Y38336D01*
X52918Y37795D01*
X52694Y37456D01*
X51062Y37034D01*
X50446Y37034D01*
X47415D01*
Y28388D01*
X37391D01*
X36546D01*
X36432Y28558D01*
X36432Y28558D01*
X35974Y28864D01*
X35433Y28972D01*
X35433Y28972D01*
X34892Y28864D01*
X34892D01*
X34434Y28558D01*
X34128Y28100D01*
X34128Y28100D01*
X34020Y27559D01*
X34020Y27559D01*
X34128Y27018D01*
X34434Y26560D01*
X35153Y25654D01*
X35702Y24656D01*
X36009Y24198D01*
X36728Y23292D01*
X37277Y22294D01*
X37584Y21836D01*
X38042Y21529D01*
X38042Y21529D01*
X38583Y21422D01*
X38583Y21422D01*
X39123Y21529D01*
X39430Y21734D01*
X39582Y21836D01*
X39582Y21836D01*
Y21836D01*
X39709Y22025D01*
X45334D01*
X46722Y20637D01*
X46722Y20637D01*
X46985Y20461D01*
X47295Y20400D01*
X47415D01*
X47415Y20148D01*
Y11785D01*
X47415Y11785D01*
X47907Y10483D01*
X48213Y10024D01*
X48213Y10024D01*
X48213Y10024D01*
X48672Y9718D01*
X48672Y9718D01*
X49213Y9611D01*
X49213Y9611D01*
X49753Y9718D01*
X49753Y9718D01*
X50212Y10024D01*
Y10024D01*
X50518Y10483D01*
X51005Y10731D01*
X53025Y10483D01*
X53025Y10483D01*
X53332Y10024D01*
X53332Y10024D01*
X53332Y10024D01*
X53790Y9718D01*
X53790Y9718D01*
X54331Y9611D01*
X54871Y9718D01*
X54871Y9718D01*
X55330Y10024D01*
Y10024D01*
X55636Y10483D01*
X55636Y10483D01*
X55744Y11024D01*
X55814Y11140D01*
X57599Y11785D01*
X58176Y11785D01*
X59111D01*
Y16909D01*
X59511D01*
Y11785D01*
X62415Y11785D01*
X63176Y11785D01*
X66023Y11785D01*
X67808Y11140D01*
X67878Y11024D01*
X67986Y10483D01*
X67986Y10483D01*
X68292Y10024D01*
X68292Y10024D01*
X68292Y10024D01*
X68751Y9718D01*
X69291Y9611D01*
X69291Y9611D01*
X69832Y9718D01*
X69832Y9718D01*
X70290Y10024D01*
X70597Y10483D01*
X70597Y10483D01*
X70704Y11024D01*
X70928Y11363D01*
X72560Y11785D01*
X73176Y11785D01*
X76207D01*
Y13931D01*
X76257Y14036D01*
X77559Y15516D01*
X78100Y15624D01*
X78100Y15624D01*
X78558Y15930D01*
Y15930D01*
X78865Y16388D01*
X78972Y16929D01*
X78972Y16929D01*
X78865Y17470D01*
X78865Y17470D01*
X78558Y17928D01*
X78558Y17928D01*
X78100Y18235D01*
X78100Y18235D01*
X77559Y18342D01*
X76257Y19823D01*
X76207Y19928D01*
X76207Y22034D01*
X77855Y22806D01*
X85925D01*
X85925Y22806D01*
X86235Y22868D01*
X86497Y23043D01*
X95454Y32000D01*
X95454Y32000D01*
X95630Y32263D01*
X95691Y32573D01*
X95691Y32573D01*
Y32652D01*
X95697Y32684D01*
Y39031D01*
X96575D01*
X96931Y39102D01*
X97232Y39303D01*
X97434Y39605D01*
X97505Y39961D01*
Y40989D01*
X97758Y41410D01*
X98084Y41755D01*
X98574Y42246D01*
X99074Y42574D01*
X99882D01*
X100238Y42645D01*
X100539Y42847D01*
X100741Y43148D01*
X100812Y43504D01*
Y44285D01*
X101017Y44622D01*
X102027Y45584D01*
X102286Y45775D01*
X102435Y45846D01*
X102903Y45939D01*
X102903Y45939D01*
X103361Y46245D01*
X103361Y46245D01*
X103668Y46703D01*
X103668Y46703D01*
X103775Y47244D01*
X103775Y47244D01*
X103668Y47785D01*
X103668Y47785D01*
X103446Y48116D01*
X103361Y48243D01*
X103361Y48243D01*
X103258Y48312D01*
X103276Y50206D01*
X103292Y50211D01*
X103593Y50412D01*
X103795Y50714D01*
X103866Y51070D01*
X103866Y51070D01*
X103866Y51872D01*
X103866Y51872D01*
X103866Y52093D01*
X103821Y53314D01*
X103866Y54534D01*
X103866Y54756D01*
X103866Y54756D01*
Y54846D01*
X102345D01*
Y55246D01*
X103866D01*
Y55558D01*
X103866Y55558D01*
X103866Y55558D01*
X103795Y55914D01*
X103622Y56474D01*
X103345Y57371D01*
X103346Y57473D01*
X103611Y58239D01*
X103812Y58817D01*
X103882Y59173D01*
Y59485D01*
X102362D01*
Y59885D01*
X103882D01*
Y59975D01*
X103882Y60197D01*
X103812Y60845D01*
Y61990D01*
X103882Y62638D01*
X103882Y62860D01*
Y63661D01*
X103812Y64017D01*
X103666Y64235D01*
X104225Y66095D01*
X104871Y66411D01*
X105210Y66637D01*
X107056Y66934D01*
X108121Y66411D01*
X108661Y66304D01*
X108661Y66304D01*
X108773Y66326D01*
X109202Y66411D01*
X109933Y66469D01*
X110235Y66267D01*
X110591Y66196D01*
X111614D01*
X111970Y66267D01*
X112040Y66296D01*
X113070Y65983D01*
X113954Y65444D01*
Y63386D01*
X113954Y63386D01*
X113970Y63308D01*
Y61227D01*
X113773D01*
Y57680D01*
X118898D01*
Y57280D01*
X113773D01*
Y53734D01*
X113970D01*
Y51972D01*
X114961D01*
Y51572D01*
X113970D01*
Y50555D01*
X113964Y50249D01*
X113834Y49556D01*
X113432Y48190D01*
X113362Y47835D01*
Y47444D01*
X114803D01*
Y47044D01*
X113362D01*
Y46737D01*
Y45641D01*
X113362Y44685D01*
Y44295D01*
X114803D01*
Y44094D01*
X115003D01*
Y42574D01*
X115093D01*
X115315Y42574D01*
X115594Y42605D01*
X115902Y42316D01*
X116805Y41035D01*
X116747Y40748D01*
Y39567D01*
X116818Y39211D01*
X117020Y38910D01*
X117321Y38708D01*
X117677Y38637D01*
X118476D01*
Y33760D01*
X118476Y33760D01*
X118537Y33450D01*
X118713Y33188D01*
X124958Y26943D01*
X124679Y26525D01*
X124679Y26525D01*
X124571Y25984D01*
X124679Y25444D01*
X124679Y25444D01*
X124985Y24985D01*
X124985Y24985D01*
X125443Y24679D01*
X125984Y24571D01*
X125984Y24571D01*
X126525Y24679D01*
X126525Y24679D01*
X126983Y24985D01*
X127950Y24800D01*
X129585Y23994D01*
X129586Y23994D01*
X130136Y23444D01*
X130399Y23268D01*
X130399Y23268D01*
X130709Y23207D01*
X130709Y23207D01*
X131228Y23207D01*
X142456D01*
X144265Y22821D01*
X144265Y21238D01*
Y12573D01*
X144265Y12572D01*
X144758Y11270D01*
X145064Y10812D01*
X145064Y10812D01*
X145064Y10812D01*
X145522Y10506D01*
X145522Y10506D01*
X146063Y10398D01*
X146063Y10398D01*
X146604Y10506D01*
X146604Y10506D01*
X147062Y10812D01*
Y10812D01*
X147368Y11270D01*
X147856Y11518D01*
X149876Y11270D01*
X150182Y10812D01*
X150640Y10506D01*
X151181Y10398D01*
X151722Y10506D01*
X152180Y10812D01*
X152487Y11270D01*
X152594Y11811D01*
X152665Y11927D01*
X154450Y12572D01*
X155026Y12572D01*
X155961D01*
Y17697D01*
X156361D01*
Y12572D01*
X159265Y12572D01*
X160026Y12572D01*
X164265Y12572D01*
X165026Y12572D01*
X167297D01*
X169265Y12572D01*
X169847Y11811D01*
X169954Y11270D01*
X169954Y11270D01*
X170261Y10812D01*
X170261Y10812D01*
X170261Y10812D01*
X170719Y10506D01*
X170719Y10506D01*
X171260Y10398D01*
X171800Y10506D01*
X171801Y10506D01*
X172259Y10812D01*
Y10812D01*
X172565Y11270D01*
X173057Y12572D01*
X173057Y12573D01*
Y22821D01*
X173057D01*
X172834Y23191D01*
X172259Y24985D01*
X172565Y25444D01*
X172565Y25444D01*
X172673Y25984D01*
X173057Y27572D01*
X173057Y27573D01*
Y37821D01*
X170026D01*
X169265Y37821D01*
X167297Y37821D01*
X163057Y37821D01*
X162297Y37821D01*
X161361D01*
Y32697D01*
X160961D01*
Y37821D01*
X158057Y37821D01*
X157297Y37821D01*
X154450Y37821D01*
X152665Y38467D01*
X152594Y38583D01*
X152487Y39123D01*
X152487Y39123D01*
X152180Y39582D01*
X152180D01*
X151722Y39888D01*
X151181Y39996D01*
X151181Y39996D01*
X150640Y39888D01*
X150640Y39888D01*
X150182Y39582D01*
X150182Y39582D01*
X149876Y39123D01*
X149876Y39123D01*
X149768Y38583D01*
X149544Y38244D01*
X147913Y37821D01*
X147297Y37821D01*
X144265D01*
Y31926D01*
X143341Y30103D01*
X142800Y29996D01*
X142800Y29996D01*
X142341Y29689D01*
X142341D01*
X142341Y29689D01*
X142035Y29231D01*
X141928Y28690D01*
X141928Y28690D01*
X142035Y28149D01*
X142035Y28149D01*
X142148Y27981D01*
X141819Y26840D01*
X141310Y26012D01*
X132903D01*
X132801Y26525D01*
X132801Y26525D01*
X132495Y26983D01*
X132495Y26983D01*
X132037Y27290D01*
X131496Y27397D01*
X131496Y27397D01*
X130955Y27290D01*
X130955Y27290D01*
X130497Y26983D01*
X128504Y27365D01*
X127895Y27974D01*
X126503Y29366D01*
X121282Y34587D01*
Y37754D01*
X122165Y38637D01*
X122165Y38637D01*
X122521Y38708D01*
X122521Y38708D01*
X122823Y38910D01*
X122840Y38935D01*
X122862Y38949D01*
X123037Y39212D01*
X123099Y39522D01*
X123099Y39522D01*
X123092Y39553D01*
X123095Y39567D01*
X123095Y39567D01*
X123095Y40748D01*
X123045Y40999D01*
X123638Y41930D01*
X124292Y42591D01*
X124449Y42574D01*
X124671Y42574D01*
X125472D01*
X125828Y42645D01*
X126130Y42847D01*
X126331Y43148D01*
X126402Y43504D01*
X126402Y44285D01*
X126608Y44622D01*
X127618Y45584D01*
X127877Y45775D01*
X128025Y45846D01*
X128493Y45939D01*
X128494Y45939D01*
X128952Y46245D01*
X128952Y46245D01*
X129258Y46703D01*
X129258Y46703D01*
X129366Y47244D01*
X129366Y47244D01*
X129288Y47634D01*
X129258Y47785D01*
X129258Y47785D01*
X129056Y48401D01*
X128762Y49296D01*
X129402Y50943D01*
X129412Y50995D01*
X129473Y51299D01*
Y52101D01*
X129473Y52323D01*
X129423Y52778D01*
X129413Y53543D01*
X129423Y54308D01*
X129473Y54764D01*
X129473Y54986D01*
Y55076D01*
X127953D01*
Y55476D01*
X129473D01*
Y55787D01*
X129402Y56143D01*
X129201Y56445D01*
X129114Y56983D01*
Y57978D01*
X129201Y58516D01*
X129402Y58817D01*
X129473Y59173D01*
Y59485D01*
X127953D01*
Y59885D01*
X129473D01*
Y59975D01*
X129473Y60197D01*
X129402Y60845D01*
Y61990D01*
X129473Y62638D01*
X129473Y62860D01*
Y63661D01*
X129402Y64017D01*
X129201Y64319D01*
X129147Y64587D01*
X129250Y64741D01*
X129250Y64741D01*
X129357Y65281D01*
X129357Y65281D01*
X129250Y65822D01*
X128943Y66280D01*
X128943Y66280D01*
X128485Y66587D01*
X128578Y67716D01*
X128471Y68257D01*
X128471Y68257D01*
X128471Y68257D01*
X128165Y68716D01*
X127706Y69022D01*
X127706Y69022D01*
X127165Y69130D01*
X127165Y69130D01*
X126625Y69022D01*
X125894Y68964D01*
X125592Y69166D01*
X125236Y69237D01*
X124512D01*
X123788Y69568D01*
X122845Y70305D01*
X122565Y70619D01*
X122565Y70619D01*
X122565Y70619D01*
X122259Y71078D01*
X121801Y71384D01*
X121801Y71384D01*
X121260Y71492D01*
X121260Y71492D01*
X120971Y71523D01*
X120391Y71587D01*
X119161Y72350D01*
X118860Y72552D01*
X118504Y72623D01*
X118113D01*
Y71181D01*
X117713D01*
Y72623D01*
X117323D01*
X116967Y72552D01*
X116665Y72350D01*
X115168Y72153D01*
X114488Y72207D01*
X113584Y73112D01*
X113584D01*
X113321Y73287D01*
X113012Y73349D01*
X112761Y73349D01*
X112438D01*
X112438Y73349D01*
X112437Y73349D01*
X110242D01*
X110242Y73387D01*
Y77467D01*
X109558D01*
X109202Y79403D01*
X109660Y79710D01*
Y79710D01*
X109967Y80168D01*
X109968Y80172D01*
X110074Y80709D01*
X110243Y81588D01*
X110242D01*
Y87309D01*
X107511Y87309D01*
X106502Y87309D01*
D02*
G37*
G36*
X18898Y86453D02*
X18022Y86337D01*
X17207Y86000D01*
X16506Y85462D01*
X15969Y84762D01*
X15631Y83946D01*
X15516Y83071D01*
X15631Y82196D01*
X15969Y81380D01*
X16506Y80680D01*
X17207Y80142D01*
X18022Y79804D01*
X18898Y79689D01*
X19773Y79804D01*
X20588Y80142D01*
X21289Y80680D01*
X21826Y81380D01*
X22164Y82196D01*
X22279Y83071D01*
X22164Y83946D01*
X21826Y84762D01*
X21289Y85462D01*
X20588Y86000D01*
X19773Y86337D01*
X18898Y86453D01*
D02*
G37*
G36*
X8898D02*
X8022Y86337D01*
X7207Y86000D01*
X6506Y85462D01*
X5969Y84762D01*
X5631Y83946D01*
X5516Y83071D01*
X5631Y82196D01*
X5969Y81380D01*
X6506Y80680D01*
X7207Y80142D01*
X8022Y79804D01*
X8898Y79689D01*
X9773Y79804D01*
X10588Y80142D01*
X11289Y80680D01*
X11826Y81380D01*
X12164Y82196D01*
X12279Y83071D01*
X12164Y83946D01*
X11826Y84762D01*
X11289Y85462D01*
X10588Y86000D01*
X9773Y86337D01*
X8898Y86453D01*
D02*
G37*
G36*
X19098Y76426D02*
Y73271D01*
X22253D01*
X22164Y73946D01*
X21826Y74762D01*
X21289Y75462D01*
X20588Y75999D01*
X19773Y76337D01*
X19098Y76426D01*
D02*
G37*
G36*
X18698D02*
X18022Y76337D01*
X17207Y75999D01*
X16506Y75462D01*
X15969Y74762D01*
X15631Y73946D01*
X15542Y73271D01*
X18698D01*
Y76426D01*
D02*
G37*
G36*
Y72871D02*
X15542D01*
X15631Y72196D01*
X15969Y71380D01*
X16506Y70680D01*
X17207Y70142D01*
X18022Y69804D01*
X18698Y69715D01*
Y72871D01*
D02*
G37*
G36*
X22253D02*
X19098D01*
Y69715D01*
X19773Y69804D01*
X20588Y70142D01*
X21289Y70680D01*
X21826Y71380D01*
X22164Y72196D01*
X22253Y72871D01*
D02*
G37*
G36*
X8898Y76452D02*
X8022Y76337D01*
X7207Y75999D01*
X6506Y75462D01*
X5969Y74762D01*
X5631Y73946D01*
X5516Y73071D01*
X5631Y72196D01*
X5969Y71380D01*
X6506Y70680D01*
X7207Y70142D01*
X8022Y69804D01*
X8898Y69689D01*
X9773Y69804D01*
X10588Y70142D01*
X11289Y70680D01*
X11826Y71380D01*
X12164Y72196D01*
X12279Y73071D01*
X12164Y73946D01*
X11826Y74762D01*
X11289Y75462D01*
X10588Y75999D01*
X9773Y76337D01*
X8898Y76452D01*
D02*
G37*
G36*
X18898Y66452D02*
X18022Y66337D01*
X17207Y66000D01*
X16506Y65462D01*
X15969Y64762D01*
X15631Y63946D01*
X15516Y63071D01*
X15631Y62196D01*
X15969Y61380D01*
X16506Y60680D01*
X17207Y60142D01*
X18022Y59804D01*
X18898Y59689D01*
X19773Y59804D01*
X20588Y60142D01*
X21289Y60680D01*
X21826Y61380D01*
X22164Y62196D01*
X22279Y63071D01*
X22164Y63946D01*
X21826Y64762D01*
X21289Y65462D01*
X20588Y66000D01*
X19773Y66337D01*
X18898Y66452D01*
D02*
G37*
G36*
X8898D02*
X8022Y66337D01*
X7207Y66000D01*
X6506Y65462D01*
X5969Y64762D01*
X5631Y63946D01*
X5516Y63071D01*
X5631Y62196D01*
X5969Y61380D01*
X6506Y60680D01*
X7207Y60142D01*
X8022Y59804D01*
X8898Y59689D01*
X9773Y59804D01*
X10588Y60142D01*
X11289Y60680D01*
X11826Y61380D01*
X12164Y62196D01*
X12279Y63071D01*
X12164Y63946D01*
X11826Y64762D01*
X11289Y65462D01*
X10588Y66000D01*
X9773Y66337D01*
X8898Y66452D01*
D02*
G37*
G36*
X9098Y56426D02*
Y53271D01*
X12253D01*
X12164Y53946D01*
X11826Y54762D01*
X11289Y55462D01*
X10588Y55999D01*
X9773Y56337D01*
X9098Y56426D01*
D02*
G37*
G36*
X8698D02*
X8022Y56337D01*
X7207Y55999D01*
X6506Y55462D01*
X5969Y54762D01*
X5631Y53946D01*
X5542Y53271D01*
X8698D01*
Y56426D01*
D02*
G37*
G36*
Y52871D02*
X5542D01*
X5631Y52196D01*
X5969Y51380D01*
X6506Y50680D01*
X7207Y50142D01*
X8022Y49804D01*
X8698Y49716D01*
Y52871D01*
D02*
G37*
G36*
X138861Y49418D02*
Y46263D01*
X142017D01*
X141928Y46938D01*
X141590Y47754D01*
X141053Y48454D01*
X140352Y48992D01*
X139537Y49329D01*
X138861Y49418D01*
D02*
G37*
G36*
X182014Y49416D02*
X178861D01*
Y46263D01*
X182014D01*
Y49416D01*
D02*
G37*
G36*
X46893Y49418D02*
Y46263D01*
X50048D01*
X49959Y46938D01*
X49621Y47754D01*
X49084Y48454D01*
X48384Y48992D01*
X47568Y49329D01*
X46893Y49418D01*
D02*
G37*
G36*
X80046Y49416D02*
X76893D01*
Y46263D01*
X80046D01*
Y49416D01*
D02*
G37*
G36*
X76493D02*
X73340D01*
Y46263D01*
X76493D01*
Y49416D01*
D02*
G37*
G36*
X178461D02*
X175309D01*
Y46263D01*
X178461D01*
Y49416D01*
D02*
G37*
G36*
X138461Y49418D02*
X137786Y49329D01*
X136971Y48992D01*
X136270Y48454D01*
X135733Y47754D01*
X135395Y46938D01*
X135306Y46263D01*
X138461D01*
Y49418D01*
D02*
G37*
G36*
X46493D02*
X45818Y49329D01*
X45002Y48992D01*
X44302Y48454D01*
X43764Y47754D01*
X43426Y46938D01*
X43338Y46263D01*
X46493D01*
Y49418D01*
D02*
G37*
G36*
X182014Y45863D02*
X178861D01*
Y42710D01*
X182014D01*
Y45863D01*
D02*
G37*
G36*
X178461D02*
X175309D01*
Y42710D01*
X178461D01*
Y45863D01*
D02*
G37*
G36*
X80046D02*
X76893D01*
Y42710D01*
X80046D01*
Y45863D01*
D02*
G37*
G36*
X76493D02*
X73340D01*
Y42710D01*
X76493D01*
Y45863D01*
D02*
G37*
G36*
X50048D02*
X46893D01*
Y42708D01*
X47568Y42796D01*
X48384Y43134D01*
X49084Y43672D01*
X49621Y44372D01*
X49959Y45188D01*
X50048Y45863D01*
D02*
G37*
G36*
X142017D02*
X138861D01*
Y42708D01*
X139537Y42796D01*
X140352Y43134D01*
X141053Y43672D01*
X141590Y44372D01*
X141928Y45188D01*
X142017Y45863D01*
D02*
G37*
G36*
X138461D02*
X135306D01*
X135395Y45188D01*
X135733Y44372D01*
X136270Y43672D01*
X136971Y43134D01*
X137786Y42796D01*
X138461Y42708D01*
Y45863D01*
D02*
G37*
G36*
X46493D02*
X43338D01*
X43426Y45188D01*
X43764Y44372D01*
X44302Y43672D01*
X45002Y43134D01*
X45818Y42796D01*
X46493Y42708D01*
Y45863D01*
D02*
G37*
G36*
X158661Y49445D02*
X157786Y49329D01*
X156971Y48992D01*
X156270Y48454D01*
X155733Y47754D01*
X155395Y46938D01*
X155280Y46063D01*
X155395Y45188D01*
X155733Y44372D01*
X156270Y43672D01*
X156971Y43134D01*
X157786Y42796D01*
X158661Y42681D01*
X159537Y42796D01*
X160352Y43134D01*
X161053Y43672D01*
X161590Y44372D01*
X161928Y45188D01*
X162043Y46063D01*
X161928Y46938D01*
X161590Y47754D01*
X161053Y48454D01*
X160352Y48992D01*
X159537Y49329D01*
X158661Y49445D01*
D02*
G37*
G36*
X66693D02*
X65818Y49329D01*
X65002Y48992D01*
X64302Y48454D01*
X63764Y47754D01*
X63427Y46938D01*
X63311Y46063D01*
X63427Y45188D01*
X63764Y44372D01*
X64302Y43672D01*
X65002Y43134D01*
X65818Y42796D01*
X66693Y42681D01*
X67568Y42796D01*
X68384Y43134D01*
X69084Y43672D01*
X69621Y44372D01*
X69959Y45188D01*
X70075Y46063D01*
X69959Y46938D01*
X69621Y47754D01*
X69084Y48454D01*
X68384Y48992D01*
X67568Y49329D01*
X66693Y49445D01*
D02*
G37*
G36*
X56693D02*
X55818Y49329D01*
X55002Y48992D01*
X54302Y48454D01*
X53764Y47754D01*
X53426Y46938D01*
X53311Y46063D01*
X53426Y45188D01*
X53764Y44372D01*
X54302Y43672D01*
X55002Y43134D01*
X55818Y42796D01*
X56693Y42681D01*
X57568Y42796D01*
X58384Y43134D01*
X59084Y43672D01*
X59622Y44372D01*
X59959Y45188D01*
X60075Y46063D01*
X59959Y46938D01*
X59622Y47754D01*
X59084Y48454D01*
X58384Y48992D01*
X57568Y49329D01*
X56693Y49445D01*
D02*
G37*
G36*
X114603Y43894D02*
X113362D01*
Y43504D01*
X113432Y43148D01*
X113634Y42847D01*
X113936Y42645D01*
X114291Y42574D01*
X114603D01*
Y43894D01*
D02*
G37*
G36*
X89013D02*
X87771D01*
Y43504D01*
X87842Y43148D01*
X88043Y42847D01*
X88345Y42645D01*
X88701Y42574D01*
X89013D01*
Y43894D01*
D02*
G37*
G36*
X22250Y36424D02*
X15545D01*
Y29718D01*
X22250D01*
Y36424D01*
D02*
G37*
G36*
X119255Y21859D02*
Y18704D01*
X122411D01*
X122322Y19379D01*
X121984Y20195D01*
X121446Y20895D01*
X120746Y21433D01*
X119930Y21770D01*
X119255Y21859D01*
D02*
G37*
G36*
X118855D02*
X118180Y21770D01*
X117364Y21433D01*
X116664Y20895D01*
X116127Y20195D01*
X115789Y19379D01*
X115700Y18704D01*
X118855D01*
Y21859D01*
D02*
G37*
G36*
X109055Y22673D02*
X108180Y22558D01*
X107364Y22220D01*
X106664Y21683D01*
X106126Y20982D01*
X105789Y20167D01*
X105673Y19291D01*
X105789Y18416D01*
X106126Y17601D01*
X106664Y16900D01*
X107364Y16363D01*
X108180Y16025D01*
X109055Y15910D01*
X109930Y16025D01*
X110746Y16363D01*
X111446Y16900D01*
X111984Y17601D01*
X112322Y18416D01*
X112437Y19291D01*
X112322Y20167D01*
X111984Y20982D01*
X111446Y21683D01*
X110746Y22220D01*
X109930Y22558D01*
X109055Y22673D01*
D02*
G37*
G36*
X102408Y21857D02*
X95702D01*
Y15151D01*
X102408D01*
Y21857D01*
D02*
G37*
G36*
X122411Y18304D02*
X119255D01*
Y15149D01*
X119930Y15237D01*
X120746Y15575D01*
X121446Y16113D01*
X121984Y16813D01*
X122322Y17629D01*
X122411Y18304D01*
D02*
G37*
G36*
X118855D02*
X115700D01*
X115789Y17629D01*
X116127Y16813D01*
X116664Y16113D01*
X117364Y15575D01*
X118180Y15237D01*
X118855Y15149D01*
Y18304D01*
D02*
G37*
%LPD*%
G36*
X146457Y169291D02*
X144882D01*
Y164173D01*
X141339D01*
Y169291D01*
X139370D01*
Y174016D01*
X146457D01*
Y169291D01*
D02*
G37*
G36*
X146850Y184646D02*
X146850Y177165D01*
X146063Y176378D01*
X138189Y176378D01*
X138189Y166535D01*
X141339Y163386D01*
X148425Y163386D01*
X148425Y153937D01*
X145031D01*
Y158906D01*
X144488Y159449D01*
X136221Y159449D01*
X129528Y166142D01*
X118110Y166142D01*
X116142Y168110D01*
X116142Y182283D01*
X118898Y185039D01*
X146457Y185039D01*
X146850Y184646D01*
D02*
G37*
G36*
X154040Y126284D02*
X147328D01*
Y153055D01*
X149297D01*
Y158105D01*
X154040D01*
Y126284D01*
D02*
G37*
G36*
X131890Y162598D02*
X131890Y153150D01*
X130315D01*
X128347Y151181D01*
X128346Y95276D01*
X127165Y94094D01*
X114961Y94095D01*
X113779Y95276D01*
X113779Y114961D01*
X116142Y117323D01*
X116142Y163386D01*
X118110Y165354D01*
X129134Y165354D01*
X131890Y162598D01*
D02*
G37*
G36*
X95669Y169291D02*
X94095D01*
Y164173D01*
X90551D01*
Y169291D01*
X88583D01*
Y174016D01*
X95669D01*
Y169291D01*
D02*
G37*
G36*
X96063Y184646D02*
X96063Y177165D01*
X95276Y176378D01*
X87402Y176378D01*
X87401Y166535D01*
X90551Y163386D01*
X97638Y163386D01*
X97638Y153937D01*
X94243D01*
Y158906D01*
X93701Y159449D01*
X85433Y159449D01*
X78740Y166142D01*
X67323Y166142D01*
X65354Y168110D01*
X65354Y182283D01*
X68110Y185039D01*
X95669Y185039D01*
X96063Y184646D01*
D02*
G37*
G36*
X103253Y126284D02*
X96541D01*
Y153055D01*
X98510D01*
Y158105D01*
X103253D01*
Y126284D01*
D02*
G37*
G36*
X81102Y162598D02*
X81102Y153150D01*
X79528D01*
X77559Y151181D01*
Y106299D01*
X75590Y104331D01*
X64567D01*
X62992Y105905D01*
Y114961D01*
X65354Y117323D01*
X65354Y163386D01*
X67323Y165354D01*
X78347Y165354D01*
X81102Y162598D01*
D02*
G37*
D12*
X171260Y11811D02*
Y17598D01*
X171161Y17697D02*
X171260Y17598D01*
X200787Y114961D02*
X203780D01*
X158661Y120079D02*
X203780D01*
X200394Y125197D02*
X203780D01*
X207244D02*
X211024D01*
X207244Y120079D02*
X211024D01*
X207244Y114961D02*
X211024D01*
X215748D02*
X216142Y114567D01*
X218504D01*
X215748Y125197D02*
X218504D01*
X215748Y120079D02*
X218504D01*
X38583Y22835D02*
X45669D01*
X47295Y21209D01*
X48209D01*
X49311Y20107D01*
X37008Y25197D02*
X46063D01*
X48031Y23228D01*
X49311Y16909D02*
Y20107D01*
X49213Y16811D02*
X49311Y16909D01*
X49213Y11024D02*
Y16811D01*
X48031Y23228D02*
X53850D01*
X54311Y16909D02*
Y22767D01*
X49213Y28583D02*
Y31811D01*
Y25984D02*
Y28583D01*
X49311Y28681D01*
X48209Y27579D02*
X49213Y28583D01*
X49311Y28681D02*
Y31909D01*
X35453Y27579D02*
X48209D01*
X35433Y27559D02*
X35453Y27579D01*
X53850Y23228D02*
X54311Y22767D01*
X35433Y53150D02*
X60630Y78347D01*
X106299D02*
X108661Y80709D01*
X60630Y78347D02*
X106299D01*
X145009Y28690D02*
X146161Y29842D01*
X143341Y28690D02*
X145009D01*
X146161Y29842D02*
Y32697D01*
X74410Y107087D02*
X77165Y104331D01*
X92421Y73524D02*
X92520Y73622D01*
X92421Y71280D02*
Y73524D01*
X99134Y67716D02*
X104331D01*
X88976Y67729D02*
Y70472D01*
X88970Y67723D02*
X88976Y67729D01*
X114567Y67716D02*
X114764Y67520D01*
Y63386D02*
Y67520D01*
Y63386D02*
X114961Y63189D01*
X121260Y67716D02*
Y70079D01*
X64311Y23155D02*
X64772Y23616D01*
X85925D01*
X69291Y31929D02*
Y37795D01*
Y31929D02*
X69311Y31909D01*
X95276Y41481D02*
Y44094D01*
Y47244D02*
Y51772D01*
X85433Y24803D02*
X93701Y33071D01*
X93307Y44094D02*
Y47244D01*
Y51772D01*
X60778Y24803D02*
X85433D01*
X49213Y32008D02*
X49311Y31909D01*
X54311Y31909D02*
X54331Y31929D01*
Y37795D01*
X54311Y16909D02*
X54331Y16890D01*
Y11024D02*
Y16890D01*
X108760Y84350D02*
X108858Y84449D01*
X108760Y80807D02*
Y84350D01*
X108661Y80709D02*
X108760Y80807D01*
X101378Y84449D02*
X101476Y84350D01*
Y80807D02*
Y84350D01*
Y80807D02*
X101575Y80709D01*
X105118Y70866D02*
Y74606D01*
Y80709D02*
Y84449D01*
X151161Y32697D02*
X151181Y32717D01*
Y38583D01*
X146063Y17598D02*
X146161Y17697D01*
X146063Y11811D02*
Y17598D01*
X151161Y17697D02*
X151181Y17677D01*
Y11811D02*
Y17677D01*
X98032Y70221D02*
Y70472D01*
X95669Y67716D02*
Y67859D01*
X98032Y70221D01*
X112205D02*
X114567Y67859D01*
Y67716D02*
Y67859D01*
X112205Y70221D02*
Y70472D01*
X109449Y72539D02*
X113012D01*
X117835Y67716D01*
X108858Y73130D02*
Y74606D01*
Y73130D02*
X109449Y72539D01*
X117835Y67716D02*
X117913D01*
X92402D02*
X92461D01*
X92402D02*
X97224Y72539D01*
X101378Y73130D02*
Y74606D01*
X100787Y72539D02*
X101378Y73130D01*
X97224Y72539D02*
X100787D01*
X92323Y67716D02*
X92402D01*
X95472Y63386D02*
Y67520D01*
X95276Y63189D02*
X95472Y63386D01*
Y67520D02*
X95669Y67716D01*
X94882Y32573D02*
Y32677D01*
X59311Y26270D02*
X60778Y24803D01*
X93307Y41403D02*
Y44094D01*
X85925Y23616D02*
X94882Y32573D01*
X74331Y16929D02*
X77559D01*
X74311Y16909D02*
X74331Y16929D01*
X74311Y31909D02*
X74331Y31890D01*
X77559D01*
X49213Y31811D02*
X49311Y31909D01*
X54331Y25984D02*
Y31890D01*
X54311Y31909D02*
X54331Y31890D01*
X69291Y16890D02*
X69311Y16909D01*
X69291Y11024D02*
Y16890D01*
X156299Y11811D02*
Y17559D01*
X156161Y17697D02*
X156299Y17559D01*
X161024Y32835D02*
X161161Y32697D01*
X161024Y32835D02*
Y38583D01*
X166142Y17717D02*
Y23622D01*
Y17717D02*
X166161Y17697D01*
X166142Y26772D02*
Y32677D01*
X166161Y32697D01*
X171161Y32697D02*
X171260Y32598D01*
Y25984D02*
Y32598D01*
X95276Y44094D02*
Y47244D01*
X64311Y16909D02*
Y23155D01*
X125848Y26120D02*
Y27197D01*
X119285Y33760D02*
X125848Y27197D01*
Y26120D02*
X125984Y25984D01*
X119285Y33760D02*
Y38988D01*
X118189Y40084D02*
Y40300D01*
Y40084D02*
X119285Y38988D01*
X118898Y41009D02*
Y51772D01*
X120960Y39449D02*
X121653Y40143D01*
X120472Y34252D02*
X130709Y24016D01*
X121653Y40143D02*
Y40300D01*
X120472Y34252D02*
Y38976D01*
X120945Y39449D02*
X120960D01*
X120472Y38976D02*
X120945Y39449D01*
X131668Y25984D02*
X132449Y25203D01*
X154731D01*
X131496Y25984D02*
X131668D01*
X120866Y41087D02*
Y51772D01*
X130709Y24016D02*
X158071D01*
X154731Y25203D02*
X156161Y26634D01*
Y32697D01*
X161161Y17697D02*
Y20925D01*
X158071Y24016D02*
X161161Y20925D01*
X121653Y40143D02*
X122274Y39522D01*
X122289D01*
X59311Y26270D02*
Y31909D01*
X64173Y32047D02*
Y37795D01*
Y32047D02*
X64311Y31909D01*
X94888Y32684D02*
Y39376D01*
X95369Y39843D02*
X96063Y40536D01*
X95354Y39843D02*
X95369D01*
X94888Y39376D02*
X95354Y39843D01*
X96063Y40536D02*
Y40551D01*
X92598Y40484D02*
X93701Y39381D01*
Y33175D02*
Y39381D01*
X92598Y40484D02*
Y40551D01*
X59311Y16909D02*
X59449Y17047D01*
Y22835D01*
X120866Y41087D02*
X121653Y40300D01*
X118189D02*
X118898Y41009D01*
X95276Y41481D02*
X96063Y40694D01*
X92598D02*
X93307Y41403D01*
X122835Y51772D02*
X127953D01*
Y47244D02*
Y51772D01*
X124961Y47244D02*
X127953D01*
X97434Y51582D02*
X102345D01*
X97244Y51772D02*
X97434Y51582D01*
X99370Y47244D02*
X102362D01*
X102345Y51582D02*
X102354Y51573D01*
X102157Y47449D02*
X102354Y47646D01*
Y51573D01*
X99370Y44094D02*
Y47244D01*
X127948Y63154D02*
X127953Y63150D01*
X127948Y63154D02*
Y65277D01*
X127944Y65281D02*
X127948Y65277D01*
X122835Y63189D02*
X122874Y63150D01*
X127953D01*
X102361Y63151D02*
Y65280D01*
Y63151D02*
X102362Y63150D01*
X102359Y65281D02*
X102361Y65280D01*
X97244Y63189D02*
X97284Y63150D01*
X102362D01*
X114567Y218110D02*
X117008D01*
X116063Y203937D02*
X118504D01*
X112992Y51968D02*
X114764D01*
X117913Y71181D02*
X118012Y71280D01*
Y73524D01*
X118110Y73622D01*
X121063Y67520D02*
X121260Y67716D01*
X121063Y63386D02*
Y67520D01*
X120866Y63189D02*
X121063Y63386D01*
X92323Y71181D02*
X92421Y71280D01*
X88970Y67723D02*
X88976Y67716D01*
X92308D02*
X92323D01*
X124724D02*
X127165D01*
X83071D02*
X85512D01*
X108661D02*
X111102D01*
X93110Y63386D02*
X93307Y63189D01*
X91339D02*
X91535Y63386D01*
X92323D02*
Y67716D01*
X91535Y63386D02*
X92323D01*
X93110D01*
X88976Y67716D02*
X89173Y67520D01*
Y63386D02*
Y67520D01*
Y63386D02*
X89370Y63189D01*
X117913Y63386D02*
X118701D01*
X117126D02*
X117913D01*
Y67716D01*
X116929Y63189D02*
X117126Y63386D01*
X118701D02*
X118898Y63189D01*
X112205Y47244D02*
X114803D01*
X112205Y47244D02*
X112205Y47244D01*
X114961Y51772D02*
Y54527D01*
X117913Y57480D01*
X118898D01*
X127953Y57362D02*
Y59685D01*
Y55039D02*
Y57362D01*
X125418Y57337D02*
X125443Y57362D01*
X127953D01*
X118898Y57480D02*
X119041Y57337D01*
X125418D01*
X127953Y55039D02*
X127953Y55039D01*
X114764Y51968D02*
X114961Y51772D01*
X114803Y44094D02*
Y47244D01*
X114803Y44094D02*
X114803Y44094D01*
X89370Y51772D02*
Y54527D01*
X92323Y57480D01*
X93307D01*
X99929Y57559D02*
X102362D01*
X99851Y57481D02*
X99929Y57559D01*
X93308Y57481D02*
X99851D01*
X93307Y57480D02*
X93308Y57481D01*
X102362Y57559D02*
Y59685D01*
Y55433D02*
Y57559D01*
X102362Y55433D02*
X102362Y55433D01*
X86614Y47244D02*
X89213D01*
X86614Y47244D02*
X86614Y47244D01*
X89213Y44094D02*
Y47244D01*
X89173Y51968D02*
X89370Y51772D01*
X87402Y51968D02*
X89173D01*
D14*
X108858Y84449D02*
D03*
X105118Y84449D02*
D03*
X101378Y84449D02*
D03*
Y74606D02*
D03*
X105118Y74606D02*
D03*
X108858Y74606D02*
D03*
D15*
X112598Y213583D02*
D03*
X120472D02*
D03*
Y211024D02*
D03*
Y208465D02*
D03*
X112598D02*
D03*
Y211024D02*
D03*
D16*
X105709Y207677D02*
D03*
Y215158D02*
D03*
X97441Y211417D02*
D03*
D17*
X78740Y235827D02*
D03*
X78740Y211614D02*
D03*
X35433Y235827D02*
D03*
Y211614D02*
D03*
D18*
X49311Y16909D02*
D03*
Y31909D02*
D03*
X54311Y16909D02*
D03*
Y31909D02*
D03*
X59311Y16909D02*
D03*
Y31909D02*
D03*
X64311Y16909D02*
D03*
Y31909D02*
D03*
X69311Y16909D02*
D03*
Y31909D02*
D03*
X74311Y16909D02*
D03*
Y31909D02*
D03*
X146161Y17697D02*
D03*
Y32697D02*
D03*
X151161Y17697D02*
D03*
Y32697D02*
D03*
X156161Y17697D02*
D03*
Y32697D02*
D03*
X161161Y17697D02*
D03*
Y32697D02*
D03*
X166161Y17697D02*
D03*
Y32697D02*
D03*
X171161Y17697D02*
D03*
Y32697D02*
D03*
D19*
X88976Y67716D02*
D03*
X85512D02*
D03*
X120472Y218110D02*
D03*
X117008D02*
D03*
X112598Y203937D02*
D03*
X116063D02*
D03*
X203780Y125197D02*
D03*
X207244D02*
D03*
X114567Y67716D02*
D03*
X111102D02*
D03*
X121260D02*
D03*
X124724D02*
D03*
X95669D02*
D03*
X99134D02*
D03*
X121496Y44094D02*
D03*
X124961Y44094D02*
D03*
X121496Y47244D02*
D03*
X124961D02*
D03*
X95906Y47244D02*
D03*
X99370D02*
D03*
X95906Y44094D02*
D03*
X99370D02*
D03*
X114803Y44094D02*
D03*
X118268D02*
D03*
X114803Y47244D02*
D03*
X118268D02*
D03*
X89213Y44094D02*
D03*
X92677D02*
D03*
X89213Y47244D02*
D03*
X92677D02*
D03*
X96063Y40551D02*
D03*
X92598D02*
D03*
X121653Y40157D02*
D03*
X118189D02*
D03*
X203780Y114961D02*
D03*
X207244D02*
D03*
X203780Y120079D02*
D03*
X207244D02*
D03*
D20*
X200394Y174409D02*
D03*
X176181D02*
D03*
X200394Y217717D02*
D03*
X176181D02*
D03*
D21*
X142913Y166142D02*
D03*
X146654Y166142D02*
D03*
X150394Y166142D02*
D03*
Y156299D02*
D03*
X146654Y156299D02*
D03*
X142913Y156299D02*
D03*
X92126Y166142D02*
D03*
X95866Y166142D02*
D03*
X99606Y166142D02*
D03*
Y156299D02*
D03*
X95866Y156299D02*
D03*
X92126Y156299D02*
D03*
D22*
X142913Y181890D02*
D03*
Y171653D02*
D03*
X92126Y181890D02*
D03*
Y171653D02*
D03*
D23*
X126772Y174803D02*
D03*
Y157480D02*
D03*
X75984Y174803D02*
D03*
Y157480D02*
D03*
D24*
X151575Y137795D02*
D03*
X141339Y137795D02*
D03*
X123228Y137795D02*
D03*
X133465D02*
D03*
X123228Y125197D02*
D03*
X133465D02*
D03*
X100787Y137795D02*
D03*
X90551D02*
D03*
X72441Y125197D02*
D03*
X82677D02*
D03*
X72441Y137795D02*
D03*
X82677D02*
D03*
D25*
X141339Y148425D02*
D03*
X151575D02*
D03*
X133465D02*
D03*
X123228D02*
D03*
X90551D02*
D03*
X100787D02*
D03*
X82677D02*
D03*
X72441D02*
D03*
D26*
X155118Y172598D02*
D03*
X155118Y169134D02*
D03*
X155118Y165905D02*
D03*
X155118Y162441D02*
D03*
X104331Y172598D02*
D03*
Y169134D02*
D03*
Y165905D02*
D03*
Y162441D02*
D03*
X117913Y71181D02*
D03*
Y67716D02*
D03*
X92323Y71181D02*
D03*
Y67716D02*
D03*
X127953Y55276D02*
D03*
X127953Y51811D02*
D03*
X127953Y63150D02*
D03*
Y59685D02*
D03*
X102345Y55046D02*
D03*
X102345Y51582D02*
D03*
X102362Y63150D02*
D03*
Y59685D02*
D03*
D27*
X120473Y109843D02*
D03*
X137795D02*
D03*
X69685D02*
D03*
X87008D02*
D03*
D28*
X211024Y125197D02*
D03*
X215748D02*
D03*
X211024Y114961D02*
D03*
X215748D02*
D03*
X211024Y120079D02*
D03*
X215748D02*
D03*
D29*
X118898Y57480D02*
D03*
X93307D02*
D03*
D30*
X122835Y51772D02*
D03*
X120866D02*
D03*
X118898D02*
D03*
X116929D02*
D03*
X114961D02*
D03*
Y63189D02*
D03*
X116929D02*
D03*
X118898D02*
D03*
X120866D02*
D03*
X122835D02*
D03*
X97244Y51772D02*
D03*
X95276D02*
D03*
X93307D02*
D03*
X91339D02*
D03*
X89370D02*
D03*
Y63189D02*
D03*
X91339D02*
D03*
X93307D02*
D03*
X95276D02*
D03*
X97244D02*
D03*
D59*
X105709Y215354D02*
Y222244D01*
Y215158D02*
Y215354D01*
X111417Y221063D01*
Y222047D01*
X100000Y221063D02*
X105709Y215354D01*
X100000Y221063D02*
Y222047D01*
X158661Y120079D02*
Y127559D01*
Y66142D02*
Y120079D01*
X155905Y130315D02*
X155905D01*
X158661Y127559D01*
X161417Y130315D01*
X168661Y46063D02*
Y56142D01*
X158661Y66142D02*
X168661Y56142D01*
X148661Y46063D02*
Y56142D01*
X158661Y66142D01*
D60*
X27559Y86614D02*
X30315Y89370D01*
X69685Y109843D02*
X70079Y109449D01*
X68464Y89370D02*
X70079Y90984D01*
X13959Y48031D02*
X25945D01*
X27559Y49646D02*
Y86614D01*
X30315Y89370D02*
X68464D01*
X70079Y90984D02*
Y109449D01*
X25945Y48031D02*
X27559Y49646D01*
X8998Y43071D02*
X13959Y48031D01*
X8898Y43071D02*
X8998D01*
X8898Y33071D02*
Y43071D01*
D61*
X88583Y195669D02*
X162992D01*
X78740Y205512D02*
X88583Y195669D01*
X78740Y205512D02*
Y235827D01*
X176181Y174409D02*
Y182480D01*
X162992Y195669D02*
X176181Y182480D01*
X78740Y235827D02*
X78740Y235827D01*
X176181Y174409D02*
X200394D01*
X78839Y211516D02*
X97342D01*
X97441Y211417D01*
D62*
X112598Y211024D02*
X120472D01*
Y213583D02*
Y218110D01*
Y211024D02*
Y213583D01*
X112598Y208465D02*
X112598Y208465D01*
Y203937D02*
Y208465D01*
X110630Y207677D02*
X111417Y208465D01*
X112598D01*
X105709Y207677D02*
X110630D01*
X112402Y213386D02*
X112598Y213583D01*
X110236Y213386D02*
X112402D01*
X108366Y211516D02*
X110236Y213386D01*
X97342Y211516D02*
X108366D01*
D63*
X152480Y172716D02*
X155000D01*
X152362Y172835D02*
X152480Y172716D01*
X155000D02*
X155118Y172598D01*
X101693Y172716D02*
X104213D01*
X104331Y172598D01*
X101575Y172835D02*
X101693Y172716D01*
X92126Y166142D02*
Y171653D01*
X92126Y171653D02*
X92126Y171653D01*
X99724Y166024D02*
X104213D01*
X99606Y166142D02*
X99724Y166024D01*
X104331Y165905D02*
Y169134D01*
X104213Y166024D02*
X104331Y165905D01*
X104331Y165905D01*
X142913Y171653D02*
X142913Y171653D01*
Y166142D02*
Y171653D01*
X155118Y165905D02*
X155118Y165905D01*
X155000Y166024D02*
X155118Y165905D01*
Y169134D01*
X150394Y166142D02*
X150512Y166024D01*
X155000D01*
D64*
X57087Y235827D02*
D03*
X200394Y196063D02*
D03*
D65*
X57087Y218110D02*
D03*
X182677Y196063D02*
D03*
D66*
X119055Y18504D02*
D03*
X109055Y19291D02*
D03*
X138661Y46063D02*
D03*
X148661D02*
D03*
X158661D02*
D03*
X168661D02*
D03*
X46693D02*
D03*
X56693D02*
D03*
X66693D02*
D03*
X8898Y223071D02*
D03*
X18898D02*
D03*
X8898Y213071D02*
D03*
X18898D02*
D03*
X8898Y203071D02*
D03*
X18898D02*
D03*
X8898Y193071D02*
D03*
X18898D02*
D03*
X8898Y183071D02*
D03*
X18898D02*
D03*
X8898Y173071D02*
D03*
X18898D02*
D03*
X8898Y163071D02*
D03*
X18898D02*
D03*
X8898Y153071D02*
D03*
X18898D02*
D03*
X8898Y143071D02*
D03*
X18898D02*
D03*
X8898Y133071D02*
D03*
X18898D02*
D03*
X8898Y123071D02*
D03*
X18898D02*
D03*
X8898Y113071D02*
D03*
X18898D02*
D03*
X8898Y103071D02*
D03*
X18898D02*
D03*
X8898Y93071D02*
D03*
X18898D02*
D03*
X8898Y83071D02*
D03*
X18898D02*
D03*
X8898Y73071D02*
D03*
X18898D02*
D03*
X8898Y63071D02*
D03*
X18898D02*
D03*
X8898Y53071D02*
D03*
X18898D02*
D03*
X8898Y43071D02*
D03*
X18898D02*
D03*
X8898Y33071D02*
D03*
D67*
X99055Y18504D02*
D03*
X178661Y46063D02*
D03*
X76693D02*
D03*
D68*
X18898Y33071D02*
D03*
D69*
X111417Y222047D02*
D03*
X105709Y222244D02*
D03*
X100000Y222047D02*
D03*
D70*
X200394Y223622D02*
D03*
X206299Y217717D02*
D03*
X200394Y211811D02*
D03*
X194488Y217717D02*
D03*
X176181Y223622D02*
D03*
X182087Y217717D02*
D03*
X176181Y211811D02*
D03*
X170276Y217717D02*
D03*
X35433Y217520D02*
D03*
X41339Y211614D02*
D03*
X35433Y205709D02*
D03*
X29528Y211614D02*
D03*
Y235827D02*
D03*
X35433Y229921D02*
D03*
X41339Y235827D02*
D03*
X35433Y241732D02*
D03*
X161417Y130315D02*
D03*
X155905D02*
D03*
D71*
X171260Y11811D02*
D03*
X200787Y114961D02*
D03*
X200394Y125197D02*
D03*
X218504Y114567D02*
D03*
Y125197D02*
D03*
Y120079D02*
D03*
X38583Y22835D02*
D03*
X37008Y25197D02*
D03*
X35433Y27559D02*
D03*
Y53150D02*
D03*
X143341Y28690D02*
D03*
X77165Y104331D02*
D03*
X92520Y73622D02*
D03*
X104331Y67716D02*
D03*
X88976Y70472D02*
D03*
X121260Y70079D02*
D03*
X69291Y37795D02*
D03*
X54331D02*
D03*
Y11024D02*
D03*
X49213D02*
D03*
X108661Y80709D02*
D03*
X101575D02*
D03*
X105118Y70866D02*
D03*
Y80709D02*
D03*
X151181Y38583D02*
D03*
X146063Y11811D02*
D03*
X151181D02*
D03*
X98032Y70472D02*
D03*
X112205D02*
D03*
X49213Y25984D02*
D03*
X54331D02*
D03*
X69291Y11024D02*
D03*
X156299Y11811D02*
D03*
X161024Y38583D02*
D03*
X166142Y23622D02*
D03*
Y26772D02*
D03*
X171260Y25984D02*
D03*
X77559Y16929D02*
D03*
Y31890D02*
D03*
X125984Y25984D02*
D03*
X131496D02*
D03*
X64173Y37795D02*
D03*
X59449Y22835D02*
D03*
X127953Y47244D02*
D03*
X102362Y47244D02*
D03*
X127944Y65281D02*
D03*
X102359Y65281D02*
D03*
X114567Y218110D02*
D03*
X118504Y203937D02*
D03*
X112992Y51968D02*
D03*
X118110Y73622D02*
D03*
X127165Y67716D02*
D03*
X83071D02*
D03*
X108661D02*
D03*
X112205Y47244D02*
D03*
X125418Y57337D02*
D03*
X99851Y57481D02*
D03*
X86614Y47244D02*
D03*
X87402Y51968D02*
D03*
D72*
X125591Y96457D02*
D03*
X120866D02*
D03*
X116142D02*
D03*
Y100787D02*
D03*
X120866D02*
D03*
X125591D02*
D03*
X101969Y162205D02*
D03*
X99606D02*
D03*
Y159843D02*
D03*
X101969D02*
D03*
X104331D02*
D03*
X98032Y131102D02*
D03*
X101969D02*
D03*
Y127559D02*
D03*
X98032D02*
D03*
X84646Y115748D02*
D03*
X89370D02*
D03*
X88189Y157087D02*
D03*
X83858D02*
D03*
X88189Y153543D02*
D03*
X83858D02*
D03*
X86614Y150394D02*
D03*
Y146457D02*
D03*
Y140945D02*
D03*
Y134646D02*
D03*
Y128347D02*
D03*
Y122047D02*
D03*
X148819Y127559D02*
D03*
X152756D02*
D03*
Y131102D02*
D03*
X148819D02*
D03*
X140157Y115748D02*
D03*
X135433D02*
D03*
X137402Y122047D02*
D03*
Y128347D02*
D03*
Y134646D02*
D03*
Y140945D02*
D03*
Y146457D02*
D03*
Y150394D02*
D03*
X134646Y153543D02*
D03*
X138976D02*
D03*
X134646Y157087D02*
D03*
X138976D02*
D03*
X155118Y159843D02*
D03*
X152756D02*
D03*
X150394D02*
D03*
Y162205D02*
D03*
X152756D02*
D03*
D73*
X152362Y172835D02*
D03*
X101575D02*
D03*
X75984Y162992D02*
D03*
X126772D02*
D03*
D74*
X206693Y242126D02*
D03*
X13780D02*
D03*
Y13780D02*
D03*
X206693D02*
D03*
M02*
