G04*
G04 #@! TF.GenerationSoftware,Altium Limited,Altium Designer,20.0.9 (164)*
G04*
G04 Layer_Color=65535*
%FSLAX25Y25*%
%MOIN*%
G70*
G01*
G75*
%ADD10C,0.01000*%
%ADD11C,0.00984*%
%ADD12C,0.00787*%
%ADD13C,0.00800*%
G36*
X213090Y113779D02*
X213681Y114961D01*
X213090Y116142D01*
Y113779D01*
D02*
G37*
G36*
Y118898D02*
X213681Y120079D01*
X213090Y121260D01*
Y118898D01*
D02*
G37*
G36*
Y124016D02*
X213681Y125197D01*
X213090Y126378D01*
Y124016D01*
D02*
G37*
D10*
X85084Y241635D02*
G03*
X85084Y241635I-471J0D01*
G01*
X206673Y168537D02*
G03*
X206673Y168537I-471J0D01*
G01*
X39370Y255512D02*
X74803D01*
Y241722D02*
Y255512D01*
X39370Y242160D02*
Y255512D01*
Y197638D02*
X74803D01*
Y206361D01*
X39370Y197638D02*
Y206273D01*
X39370Y230256D02*
X39370Y217476D01*
X74803Y217677D02*
Y230457D01*
X220079Y178347D02*
Y213779D01*
X206289Y178347D02*
X220079D01*
X206727Y213779D02*
X220079D01*
X162205Y178347D02*
Y213779D01*
Y178347D02*
X170928D01*
X162205Y213779D02*
X170840D01*
X182043D02*
X194823D01*
X182244Y178347D02*
X195024Y178347D01*
X102181Y235644D02*
Y233021D01*
X103493Y231709D01*
X104805Y233021D01*
Y235644D01*
X106117Y231709D02*
X107429D01*
X106773D01*
Y235644D01*
X106117Y234988D01*
X109397Y231709D02*
Y232365D01*
X110053D01*
Y231709D01*
X109397D01*
X112676D02*
X113988D01*
X113332D01*
Y235644D01*
X112676Y234988D01*
X101380Y248674D02*
Y252610D01*
X103348D01*
X104004Y251954D01*
Y250642D01*
X103348Y249986D01*
X101380D01*
X105316Y248674D02*
X106628D01*
X105972D01*
Y251298D01*
X105316D01*
X108596Y252610D02*
Y249986D01*
X109908Y248674D01*
X111220Y249986D01*
Y252610D01*
X114499D02*
X113187D01*
X112531Y251954D01*
Y249330D01*
X113187Y248674D01*
X114499D01*
X115155Y249330D01*
Y251954D01*
X114499Y252610D01*
X91213Y245487D02*
Y241551D01*
X93181D01*
X93837Y242207D01*
Y244831D01*
X93181Y245487D01*
X91213D01*
X97772D02*
X95149D01*
Y241551D01*
X97772D01*
X95149Y243519D02*
X96460D01*
X99084Y245487D02*
Y242863D01*
X100396Y241551D01*
X101708Y242863D01*
Y245487D01*
X103020Y243519D02*
X105644D01*
X106956Y245487D02*
Y241551D01*
X108924D01*
X109580Y242207D01*
Y242863D01*
X108924Y243519D01*
X106956D01*
X108924D01*
X109580Y244175D01*
Y244831D01*
X108924Y245487D01*
X106956D01*
X112859D02*
X111548D01*
X110892Y244831D01*
Y242207D01*
X111548Y241551D01*
X112859D01*
X113515Y242207D01*
Y244831D01*
X112859Y245487D01*
X114827Y241551D02*
Y244175D01*
X116139Y245487D01*
X117451Y244175D01*
Y241551D01*
Y243519D01*
X114827D01*
X118763Y241551D02*
Y245487D01*
X120731D01*
X121387Y244831D01*
Y243519D01*
X120731Y242863D01*
X118763D01*
X120075D02*
X121387Y241551D01*
X122699Y245487D02*
Y241551D01*
X124667D01*
X125323Y242207D01*
Y244831D01*
X124667Y245487D01*
X122699D01*
X133277Y248805D02*
X131965Y250117D01*
Y251429D01*
X133277Y252741D01*
X137869Y251429D02*
X135901D01*
X135245Y250773D01*
Y249461D01*
X135901Y248805D01*
X137869D01*
X139181D02*
X140492Y250117D01*
Y251429D01*
X139181Y252741D01*
X146396D02*
Y248805D01*
X148364D01*
X149020Y249461D01*
Y252085D01*
X148364Y252741D01*
X146396D01*
X150332Y248805D02*
X151644D01*
X150988D01*
Y251429D01*
X150332D01*
X153612Y248805D02*
X155579D01*
X156235Y249461D01*
X155579Y250117D01*
X154268D01*
X153612Y250773D01*
X154268Y251429D01*
X156235D01*
X158203Y252085D02*
Y251429D01*
X157547D01*
X158859D01*
X158203D01*
Y249461D01*
X158859Y248805D01*
X161483D02*
X162795D01*
X163451Y249461D01*
Y250773D01*
X162795Y251429D01*
X161483D01*
X160827Y250773D01*
Y249461D01*
X161483Y248805D01*
X164763Y247493D02*
Y251429D01*
X166731D01*
X167387Y250773D01*
Y249461D01*
X166731Y248805D01*
X164763D01*
X168699D02*
X170010D01*
X169354D01*
Y251429D01*
X168699D01*
X171978Y248805D02*
Y252741D01*
Y250117D02*
X173946Y251429D01*
X171978Y250117D02*
X173946Y248805D01*
X179850Y252741D02*
Y248805D01*
X182474D01*
X184441Y252085D02*
Y251429D01*
X183786D01*
X185098D01*
X184441D01*
Y249461D01*
X185098Y248805D01*
X189689Y252741D02*
Y248805D01*
X187721D01*
X187065Y249461D01*
Y250773D01*
X187721Y251429D01*
X189689D01*
X191001Y248805D02*
Y249461D01*
X191657D01*
Y248805D01*
X191001D01*
X157219Y240370D02*
X154595D01*
X157219Y242994D01*
Y243650D01*
X156563Y244306D01*
X155252D01*
X154595Y243650D01*
X158531D02*
X159187Y244306D01*
X160499D01*
X161155Y243650D01*
Y241026D01*
X160499Y240370D01*
X159187D01*
X158531Y241026D01*
Y243650D01*
X165091Y240370D02*
X162467D01*
X165091Y242994D01*
Y243650D01*
X164435Y244306D01*
X163123D01*
X162467Y243650D01*
X166403D02*
X167059Y244306D01*
X168371D01*
X169027Y243650D01*
Y242994D01*
X168371Y242338D01*
X167715D01*
X168371D01*
X169027Y241682D01*
Y241026D01*
X168371Y240370D01*
X167059D01*
X166403Y241026D01*
X98506Y28689D02*
X97850Y29345D01*
X96538D01*
X95882Y28689D01*
Y26065D01*
X96538Y25409D01*
X97850D01*
X98506Y26065D01*
X107689Y29345D02*
Y25409D01*
X109657D01*
X110313Y26065D01*
Y28689D01*
X109657Y29345D01*
X107689D01*
X122120Y28689D02*
X121464Y29345D01*
X120152D01*
X119496Y28689D01*
Y26065D01*
X120152Y25409D01*
X121464D01*
X122120Y26065D01*
Y27377D01*
X120808D01*
X101787Y5331D02*
Y9267D01*
X103755D01*
X104411Y8610D01*
Y7299D01*
X103755Y6643D01*
X101787D01*
X105723Y5331D02*
Y9267D01*
X107691D01*
X108347Y8610D01*
Y7299D01*
X107691Y6643D01*
X105723D01*
X107035D02*
X108347Y5331D01*
X111627Y9267D02*
X110315D01*
X109659Y8610D01*
Y5987D01*
X110315Y5331D01*
X111627D01*
X112283Y5987D01*
Y8610D01*
X111627Y9267D01*
X116218Y8610D02*
X115562Y9267D01*
X114251D01*
X113595Y8610D01*
Y5987D01*
X114251Y5331D01*
X115562D01*
X116218Y5987D01*
Y7299D01*
X114907D01*
X117530Y5331D02*
Y5987D01*
X118186D01*
Y5331D01*
X117530D01*
X165173Y55724D02*
X167797D01*
X166485Y57036D02*
Y54412D01*
X169109Y53756D02*
X170421D01*
X169765D01*
Y57692D01*
X169109Y57036D01*
X175013Y53756D02*
X172389D01*
X175013Y56380D01*
Y57036D01*
X174357Y57692D01*
X173045D01*
X172389Y57036D01*
X181577D02*
X180921Y57692D01*
X179609D01*
X178953Y57036D01*
Y54412D01*
X179609Y53756D01*
X180921D01*
X181577Y54412D01*
Y55724D01*
X180265D01*
X138663Y57036D02*
X138007Y57692D01*
X136695D01*
X136039Y57036D01*
Y54412D01*
X136695Y53756D01*
X138007D01*
X138663Y54412D01*
Y55724D01*
X137351D01*
X141945D02*
X144569D01*
X143257Y57036D02*
Y54412D01*
X145881Y53756D02*
X147193D01*
X146537D01*
Y57692D01*
X145881Y57036D01*
X151784Y53756D02*
X149160D01*
X151784Y56380D01*
Y57036D01*
X151128Y57692D01*
X149816D01*
X149160Y57036D01*
X155331Y55724D02*
X157955D01*
X156643Y57036D02*
Y54412D01*
X161890Y57692D02*
X159266D01*
Y55724D01*
X160578Y56380D01*
X161234D01*
X161890Y55724D01*
Y54412D01*
X161234Y53756D01*
X159922D01*
X159266Y54412D01*
X47262Y56642D02*
X46606Y57298D01*
X45294D01*
X44638Y56642D01*
Y54018D01*
X45294Y53362D01*
X46606D01*
X47262Y54018D01*
Y55330D01*
X45950D01*
X52509D02*
X55133D01*
X53821Y56642D02*
Y54018D01*
X59069Y57298D02*
X56445D01*
Y55330D01*
X57757Y55986D01*
X58413D01*
X59069Y55330D01*
Y54018D01*
X58413Y53362D01*
X57101D01*
X56445Y54018D01*
X64317Y55330D02*
X66941D01*
X65629Y56642D02*
Y54018D01*
X70876Y57298D02*
X68252D01*
Y55330D01*
X69564Y55986D01*
X70220D01*
X70876Y55330D01*
Y54018D01*
X70220Y53362D01*
X68908D01*
X68252Y54018D01*
X78748Y56642D02*
X78092Y57298D01*
X76780D01*
X76124Y56642D01*
Y54018D01*
X76780Y53362D01*
X78092D01*
X78748Y54018D01*
Y55330D01*
X77436D01*
X143520Y2181D02*
Y4805D01*
X144832Y6117D01*
X146143Y4805D01*
Y2181D01*
Y4149D01*
X143520D01*
X150079Y5461D02*
X149423Y6117D01*
X148111D01*
X147455Y5461D01*
Y2837D01*
X148111Y2181D01*
X149423D01*
X150079Y2837D01*
X151391Y6117D02*
X154015D01*
X152703D01*
Y2181D01*
X155327Y6117D02*
Y2837D01*
X155983Y2181D01*
X157295D01*
X157951Y2837D01*
Y6117D01*
X159263Y2181D02*
Y4805D01*
X160575Y6117D01*
X161887Y4805D01*
Y2181D01*
Y4149D01*
X159263D01*
X163198Y6117D02*
X165822D01*
X164510D01*
Y2181D01*
X169102Y6117D02*
X167790D01*
X167134Y5461D01*
Y2837D01*
X167790Y2181D01*
X169102D01*
X169758Y2837D01*
Y5461D01*
X169102Y6117D01*
X171070Y2181D02*
Y6117D01*
X173038D01*
X173694Y5461D01*
Y4149D01*
X173038Y3493D01*
X171070D01*
X172382D02*
X173694Y2181D01*
X59268Y6117D02*
Y2837D01*
X59924Y2181D01*
X61236D01*
X61892Y2837D01*
Y6117D01*
X63204D02*
X64515D01*
X63859D01*
Y2181D01*
X63204D01*
X64515D01*
D11*
X139862Y156299D02*
G03*
X139862Y156299I-492J0D01*
G01*
X89075D02*
G03*
X89075Y156299I-492J0D01*
G01*
X125886Y64862D02*
G03*
X125886Y64862I-492J0D01*
G01*
X100295D02*
G03*
X100295Y64862I-492J0D01*
G01*
D12*
X110827Y78445D02*
Y80610D01*
X99410Y78445D02*
X110827D01*
X99410D02*
Y80610D01*
X110827D01*
X111221Y81988D02*
Y86909D01*
X110630Y215748D02*
X114567D01*
X101378Y205669D02*
X101772D01*
X101378D02*
Y217165D01*
X101772D01*
Y205669D02*
Y217165D01*
X103150Y205512D02*
X108268D01*
X140551Y162992D02*
X152756D01*
X140551Y159449D02*
X152756D01*
Y162992D01*
X140551Y159449D02*
Y162992D01*
X145866Y175394D02*
Y178150D01*
X139961Y175394D02*
Y178150D01*
X132772Y155512D02*
X137272D01*
X116272D02*
X120772D01*
X116272Y176772D02*
X120772D01*
X132772D02*
X137272D01*
Y155512D02*
Y176772D01*
X116272Y155512D02*
Y176772D01*
X145276Y132973D02*
X147638Y132972D01*
X145276Y142618D02*
X147638Y142618D01*
X145079Y151378D02*
X147835Y151378D01*
X145079Y145473D02*
X147835D01*
X126969Y145473D02*
X129724D01*
X126969Y151378D02*
X129724D01*
X127165Y142618D02*
X129528D01*
X127165Y132973D02*
X129528D01*
X127165Y130020D02*
X129528Y130020D01*
X127165Y120374D02*
X129528Y120374D01*
X116240Y116969D02*
X139764D01*
X118504Y102717D02*
X139764D01*
X89764Y162992D02*
X101969D01*
X89764Y159449D02*
X101969D01*
Y162992D01*
X89764Y159449D02*
Y162992D01*
X95079Y175394D02*
Y178150D01*
X89173Y175394D02*
Y178150D01*
X81984Y155512D02*
X86484D01*
X65484D02*
X69984D01*
X65484Y176772D02*
X69984D01*
X81984D02*
X86484D01*
Y155512D02*
Y176772D01*
X65484Y155512D02*
Y176772D01*
X94488Y132972D02*
X96850D01*
X94488Y142618D02*
X96850D01*
X94291Y151378D02*
X97047D01*
X94291Y145472D02*
X97047D01*
X76181Y145473D02*
X78937D01*
X76181Y151378D02*
X78937D01*
X76378Y130020D02*
X78740D01*
X76378Y120374D02*
X78740D01*
X76378Y142618D02*
X78740D01*
X76378Y132973D02*
X78740D01*
X65453Y116969D02*
X88976Y116969D01*
X67716Y102717D02*
X88976D01*
X94055Y13504D02*
Y23504D01*
X124055D01*
Y13504D02*
Y23504D01*
X94055Y13504D02*
X124055D01*
X129921Y238976D02*
X129921Y254921D01*
X85827Y238976D02*
X129921D01*
X85827D02*
Y254921D01*
X129921Y254528D02*
Y254921D01*
X85827D02*
X129921D01*
X85827Y252559D02*
Y254921D01*
X161417Y8661D02*
Y10827D01*
X156299Y8661D02*
X161417D01*
X156299D02*
Y11024D01*
X183661Y41063D02*
Y51063D01*
X133661Y41063D02*
X183661D01*
X133661Y51063D02*
X183661D01*
X133661Y41063D02*
Y51063D01*
X81693Y41063D02*
Y51063D01*
X41693Y41063D02*
X81693Y41063D01*
X41693Y51063D02*
X81693Y51063D01*
X41693Y41063D02*
Y51063D01*
X23898Y28071D02*
Y228071D01*
X3898Y28071D02*
Y228071D01*
Y28071D02*
X23898D01*
X3898Y228071D02*
X23898D01*
D13*
X4331Y27033D02*
Y24409D01*
X1707Y27033D01*
X1051D01*
X395Y26377D01*
Y25065D01*
X1051Y24409D01*
X4724Y229133D02*
X789D01*
X2757Y227165D01*
Y229789D01*
X1445Y231101D02*
X789Y231757D01*
Y233069D01*
X1445Y233725D01*
X4068D01*
X4724Y233069D01*
Y231757D01*
X4068Y231101D01*
X1445D01*
X29150Y25654D02*
Y27320D01*
Y26487D01*
X24152D01*
X24985Y25654D01*
X25854Y227165D02*
X25198Y227821D01*
Y229133D01*
X25854Y229789D01*
X26510D01*
X27166Y229133D01*
Y228477D01*
Y229133D01*
X27822Y229789D01*
X28478D01*
X29134Y229133D01*
Y227821D01*
X28478Y227165D01*
Y231101D02*
X29134Y231757D01*
Y233069D01*
X28478Y233725D01*
X25854D01*
X25198Y233069D01*
Y231757D01*
X25854Y231101D01*
X26510D01*
X27166Y231757D01*
Y233725D01*
M02*
