M48
;Layer_Color=9474304
;FILE_FORMAT=2:5
INCH,LZ
;TYPE=PLATED
T1F00S00C0.00787
T2F00S00C0.01968
T3F00S00C0.03543
T4F00S00C0.04724
T5F00S00C0.13780
%
T01
X-002455Y-0069659
X-0021083Y-0070785
X-000953Y-0073241
X-0005906Y-0073622
X0005906
X0006693Y-0053937
X0003543Y-0055118
X0000406Y-0056165
X-0002756Y-0056299
X-0005906Y-0055118
X-0009055Y-0053937
X-0019685Y-004252
Y-003937
Y-003622
X-0019291Y-0033071
X-0018504Y-0028346
X-0015354
X-0013386Y-0030709
X-0010837Y-0032677
X-0002165Y-0031693
X0002165
Y-0036024
X-0002165
X0009843Y-0040551
X0020079Y-003937
Y-004252
Y-0045669
Y-003622
Y-0033071
Y-0029921
X0043307Y-0026772
X0068194Y-0028367
X0066711Y-0031697
X0060806Y-0041925
X0058663Y-0044874
X0070866Y-0047244
X005076Y-0053651
X0048052Y-005609
X0047244Y-0070866
X0037402Y-0065748
X0038496Y-0063033
X0024409Y-0069685
X-0024969Y-0025032
X-0068195Y-0028355
X-0070866Y-0047244
X-0059449Y-0044488
X-0050456Y-0054247
X-0048171Y-0055958
X-0038583Y-0062992
X-003534Y-0064855
X-0045276Y-0070866
X-003937Y-0022835
X-003937Y-0016535
X-0037008Y-001063
X-0030169Y-0017728
X-0032167Y-002012
X-0033071Y0000787
X-003937Y0001181
X-0032677Y0009449
X-0033071Y0014567
X-0030315
X-0033071Y0019291
Y0024409
Y0029134
X-0032677Y0034646
X-005Y0033071
X-0051995Y0029688
X-0053543Y0026772
X-0068194Y0028367
X-0071844Y0017134
X-0070866Y001378
X-0072441Y0001575
Y-0001575
X-0072601Y-0013569
X-0071845Y-0017122
X-0056693Y-0014567
Y-0004331
Y0004331
Y0012992
X-0070866Y0045276
X-0048052Y005609
X-0038496Y0063033
X-003534Y0064855
X-0045276Y0070866
X-002455Y0069659
X-0021083Y0070785
X-000953Y0073241
X-0005906Y0073622
X0005906
X0009055Y0060236
X0012598Y0059449
X0038496Y0063033
X0048052Y005609
X005076Y0053651
X0058663Y0044874
X0060806Y0041925
X0070472Y0047244
X0066711Y0031697
X0068194Y0028367
X0071844Y0017134
X0072441Y0014173
X0062598Y001378
X0056693
Y0004331
Y-0004331
Y-001378
X0043307Y-0017323
X0020866Y-0014173
X0010236Y-0015354
X0005195Y-0013471
X0005261Y-0010901
X0007831Y-0010666
X0009449Y-0006693
X0012205
Y-0003937
X0014961Y-000315
X0006693Y0001181
X0003937
Y0003937
X0001181
X-0003937
Y-0003937
X-0001181Y-0003937
Y-0006693
X0Y-0011811
X-0008661Y-0007874
X-001063Y-0004724
X-0021654Y-000748
X-0025984Y0000787
X-0029134
X-0029796Y0019767
X-0029921Y0024409
Y0029134
X-0014567Y0033827
X-0011024Y0032677
X-0008661Y0022441
X000315Y001378
X0007087Y0010236
X0012205Y000748
X001294Y002233
X0012992Y0024409
X0012978Y0026904
X001811Y0025197
X0029921Y0029134
X0033071
Y0024409
Y0019291
X0029921
Y0009449
X0033071
X0032677Y0002362
X0033071Y0034252
X0029921
X0047244Y0070866
X0074016Y0000394
X0071844Y-0017134
X-0010236Y-0018898
X-0018801Y-0019537
X-0026149Y-0017697
X-0028185Y-0020129
X-0017717Y0009449
T02
X-0012992Y0007087
X-001378Y0012205
T03
X-0015039Y0042731
X-0005039Y0042731
X0004961
X0014961
Y0052967
X0004961
X-0005039
X-0015039
T04
X-003Y-0045
X003
X-005Y-002
Y-001
Y0
Y001
Y002
X-003Y0045
X003
X005Y002
Y001
Y0
Y-001
Y-002
T05
X0062992Y-0062992
X-0062991Y-0062991
Y0062991
X0062992Y0062992
M30
