M48
;Layer_Color=9474304
;FILE_FORMAT=2:5
INCH,LZ
;TYPE=PLATED
T1F00S00C0.00787
T2F00S00C0.01181
T3F00S00C0.01299
T4F00S00C0.03543
T5F00S00C0.03937
T6F00S00C0.05512
T7F00S00C0.11614
%
T01
X0170783Y01256
X01689Y0127634
X0168517Y0130379
Y0133151
Y0135923
Y0138694
Y0141466
Y0144238
Y0147009
Y0149781
Y0152552
Y0155324
X0173215Y0154179
Y0151408
Y0148636
Y0145864
Y0143093
Y0140321
Y0137549
Y0134778
Y0132006
X0173742Y0129285
X0175701Y0127325
X0177661Y0125365
X0179621Y0123405
X0181581Y0121446
X0183541Y0119486
X0185501Y0117526
X0187461Y0115566
X018942Y0113606
X019138Y0111646
X0194053Y0110912
X0196825
X0199596
X0202368
X0205139
X0207911
X0210683
X0213455
X0216226
X0218998
X0221769
X0224541
X0227313
X022687Y0106201
X0223907Y0106214
X0221135
X0218364
X0215592
X021282
X0210049
X0207277
X0204505
X0201734
X0198962
X0196191
X0193419
X0190649Y0106312
X0188421Y0107961
X0186462Y0109921
X0184502Y0111881
X0182542Y0113841
X0180582Y0115801
X0178622Y0117761
X0176662Y0119721
X0174703Y012168
X0172743Y012364
X0178829Y0131038
X0177572Y0133508
Y013628
Y0139052
Y0141823
Y0144595
Y0147367
Y0150138
Y015291
Y0155682
X018227Y0153836
Y0151064
Y0148293
Y0145521
Y0142749
Y0139978
Y0137206
Y0134434
X0184131Y013238
X0186091Y013042
X018805Y012846
X019001Y01265
X019197Y0124541
X019393Y0122581
X019624Y012105
X0199012
X0201784
X0204555
X0207327
X0210099
X021287
X0215642
X0218414
X0221185
X0223957
X0226729
X02295
X0232272
X0235044
X0237815
X0240587
X0243358
X024613
X0248902
X0251673
X0254445
X0257217
X0259988
X026276
X0265291Y011992
X0267251Y0117961
X0269211Y0116001
X0263881Y0114687
X0261665Y0116352
X0258893
X0256122
X025335
X0250578
X0247807
X0245035
X0242264
X0239492
X023672
X0233948
X0231177
X0228405
X0225634
X0222862
X022009
X0217319
X0214547
X0211775
X0209004
X0206232
X020346
X0200689
X0197917
X0195145
X0192548Y0117319
X0190588Y0119279
X0188628Y0121239
X0186669Y0123199
X0184709Y0125159
X0182749Y0127118
X0180789Y0129078
X0242028Y0111516
X024498
X0247638Y011063
X0265841Y0112727
X018227Y0156607
Y0159379
Y0162151
Y0164922
Y0167694
Y0170466
Y0173237
Y0176009
Y0178781
Y0181552
Y0184324
Y0187096
Y0189867
Y0192639
Y0195411
Y0198182
Y0200954
Y0203726
Y0206497
Y0209269
Y021204
Y0214812
Y0217584
Y0220356
Y0223127
Y0225899
Y022867
Y0231442
Y0234214
Y0236985
Y0239757
Y0242529
Y02453
Y0248072
Y0250844
Y0253615
Y0256387
Y0259159
Y026193
Y0264702
Y0267474
Y0270245
Y0273017
Y0275788
Y027856
Y0281332
Y0284103
X0183167Y0286726
X0185939
X0188711
X0191482
X0194254
X0197146Y0286713
X0199917
X0202689
X020561
X0208382
X0211154
X021309Y0289075
X021505Y0291035
X021701Y0292994
X0206693Y0293012
X0208653Y0294972
X0204331Y0291437
X0201311
X0198539
X0195768
X0192973Y0291424
X0190201
X0187429
X0184658
X0181886
X0179144Y0291018
X0177594Y0288721
X0177572Y0285949
Y0283177
Y0280406
Y0277634
Y0274863
Y0272091
Y0269319
Y0266548
Y0263776
Y0261004
Y0258233
Y0255461
Y0252689
Y0249918
Y0247146
Y0244374
Y0241603
Y0238831
Y0236059
Y0233288
Y0230516
Y0227745
Y0224973
Y0222201
Y021943
Y0216658
Y0213886
Y0211115
Y0208343
Y0205571
Y02028
Y0200028
Y0197256
Y0194485
Y0191713
Y0188941
Y018617
Y0183398
Y0180626
Y0177855
Y0175083
Y0172311
Y016954
Y0166768
Y0163997
Y0161225
Y0158453
X0173215Y0159723
Y0156951
Y0162494
Y0165266
Y0168038
Y0170809
Y0173581
Y0176353
Y0179124
Y0181896
Y0184668
Y0187439
Y0190211
Y0192982
Y0195754
Y0198526
Y0201297
Y0204069
Y0206841
Y0209612
Y0212384
Y0215156
Y0217927
Y0220699
Y0223471
Y0226242
Y0229014
Y0231785
Y0234557
Y0237329
Y0240101
Y0242872
Y0245644
Y0248415
Y0251187
Y0253959
Y025673
Y0259502
Y0262274
Y0265045
Y0267817
Y0270589
Y027336
Y0276132
Y0278904
Y0281675
Y0284447
Y0287218
Y028999
X0173249Y0292762
X0175209Y0294722
X0177899Y0295387
X0180671
X0183442
X0186214
X0188986
X0191757
X0194529
X0197343Y0295472
X0193576Y0300085
X0190805
X0188033
X0185261
X018249
X0179718
X0176946
X0174178Y0299941
X0172032Y0298188
X0170072Y0296228
X0168558Y0293906
X0168517Y0291135
Y0288363
Y0285592
Y028282
Y0280048
Y0277277
Y0274505
Y0271733
Y0268962
Y026619
Y0263419
Y0260647
Y0257875
Y0255104
Y0252332
Y024956
Y0246789
Y0244017
Y0241245
Y0238474
Y0235702
Y023293
Y0230159
Y0227387
Y0224615
Y0221844
Y0219072
Y0216301
Y0213529
Y0210757
Y0207985
Y0205214
Y0202442
Y0199671
Y0196899
Y0194127
Y0191356
Y0188584
Y0185812
Y0183041
Y0180269
Y0177497
Y0174726
Y0171954
Y0169182
Y0166411
Y0163639
Y0160868
Y0158096
T02
X024124Y0190847
X0244783
X0244227Y0200275
X0247215Y0200295
X0256988Y0197835
X0257579Y0207283
X0261122
X0256406Y0212953
X0267913Y0221358
X0287572Y0222638
Y0217717
X0290592Y0217702
X0287572Y0212647
X0292008Y0203299
X0301673Y0203445
X03024Y0222569
X0302264Y0237697
X028809Y0234842
X0287572Y0230118
X0290256Y0227659
X0274667Y0239446
X0271719Y0241532
X0271588Y0250263
X0274606Y0250354
X0274311Y0256988
X0274424Y0277151
X0290256Y0272244
Y0267224
X0303051Y0262303
Y0277264
X0257382Y0251969
X0253642
X0249902
Y0242126
X0250787Y0237992
X0260925Y0236811
Y0239567
X0246865Y0228435
X0242235
X0242815Y022313
X023937Y0224213
X0236713Y0222342
X0232283Y0217126
X0226619Y021351
X0227384Y0206063
X022185Y0241437
Y0245472
X0210728Y0243602
X0207087Y0251279
X020689Y0257382
X0213779Y0255315
X0220499Y0259143
X0220498Y0262601
X0220374Y0267028
X0225886Y0264665
X0231102
X0209842
X0204429Y0268817
X0195472Y0258465
X0195374Y0255315
X0199705Y0249902
X0199902Y0245768
T03
X0242421Y0209547
Y0214272
X0247146
X0247146Y0209547
T04
X0200728Y0300197
X0210728
X0220728
X0242126
X0252126
X0262126
X0272126
Y0288779
X0262126
X0252126
X0242126
T05
X0188189Y0276969
X0248524Y027687
T06
X0235433Y0107087
X0255118
X0274803
Y0126772
X0255118
X0235433
T07
X0209842Y0192913
X0282677
M30
