M48
;Layer_Color=9474304
;FILE_FORMAT=2:5
INCH,LZ
;TYPE=PLATED
T1F00S00C0.00787
T2F00S00C0.01181
T3F00S00C0.01299
T4F00S00C0.03543
T5F00S00C0.03937
T6F00S00C0.05512
T7F00S00C0.11614
%
T01
X0166535Y0152756
X0188189Y0155905
X0240945Y0148031
X0267323Y0143307
X0268898Y0140551
X0269291Y0137795
X025748Y016063
X0259055Y0162992
X0270472Y0175197
X0235039Y0164961
X0233071Y0162598
X0227953Y0161024
X0229134Y0157087
X0234646Y0156693
X0209842Y0161024
X0188189
Y0166142
Y0170866
Y0175984
Y0181102
X0166535Y0184646
X0247638Y0231102
Y0240945
X0243701Y0249213
X0292913
Y0244488
Y023937
X0292274Y0254213
X0292126Y0259449
X0284252Y0262598
Y0231102
T02
X0244856Y0142465
X0252303Y0143231
X0267913Y015315
X0264213Y017815
X026437Y0181496
X0268406Y0190354
Y019311
X0258268Y0191535
X0257382Y0195669
Y0205512
X0261122
X0264862
X025374Y0233858
Y0237894
X0242618Y0236024
X0238976Y0243701
X0238779Y0249803
X0241732Y0257087
X0236319Y0261238
X0252264Y0259449
X0252387Y0255023
X0252389Y0251564
X0227362Y0250886
X0227264Y0247736
X0231594Y0242323
X0231791Y0238189
X0245413Y0172253
X0251083Y0173425
Y0176969
T03
X0244094Y0158268
Y0162992
X0248819Y0162992
X0248819Y0158268
T04
X019811Y0310236
X020811
X021811
X0235669
X0245669
X0255669
X0265669
X0265748Y0299213
X0255748
X0245748
X0235748
T05
X0233858Y0276772
X0248524Y027687
T06
X0235433Y0107087
X0255118
X0274803
Y0126772
X0255118
X0235433
T07
X0209842Y0192913
X0282677
M30
