G04*
G04 #@! TF.GenerationSoftware,Altium Limited,Altium Designer,20.0.9 (164)*
G04*
G04 Layer_Physical_Order=2*
G04 Layer_Color=36540*
%FSLAX25Y25*%
%MOIN*%
G70*
G01*
G75*
%ADD10C,0.00787*%
%ADD60C,0.01181*%
%ADD61C,0.01575*%
%ADD63C,0.05000*%
%ADD65C,0.05906*%
%ADD66C,0.07400*%
%ADD67C,0.01772*%
%ADD70C,0.03150*%
G36*
X111811Y278589D02*
X111337Y278309D01*
X111311Y278311D01*
X111024Y278368D01*
X111024Y278368D01*
X107425D01*
X107298Y278558D01*
X106840Y278865D01*
X106299Y278972D01*
X105759Y278865D01*
X105300Y278558D01*
X104994Y278100D01*
X104886Y277559D01*
X104994Y277018D01*
X105300Y276560D01*
X105759Y276254D01*
X106299Y276146D01*
X106840Y276254D01*
X107298Y276560D01*
X107425Y276750D01*
X110688D01*
X111720Y275719D01*
X111590Y275219D01*
X110968D01*
X110842Y275409D01*
X110383Y275715D01*
X109843Y275822D01*
X109302Y275715D01*
X108843Y275409D01*
X108537Y274950D01*
X108430Y274410D01*
X108537Y273869D01*
X108843Y273410D01*
X109302Y273104D01*
X109843Y272996D01*
X109925Y273013D01*
X110307Y272675D01*
X110307Y272207D01*
X109925Y271869D01*
X109843Y271885D01*
X109302Y271778D01*
X108843Y271472D01*
X108537Y271013D01*
X108430Y270472D01*
X108537Y269932D01*
X108843Y269473D01*
X109302Y269167D01*
X109843Y269059D01*
X109925Y269076D01*
X110307Y268738D01*
X110307Y268270D01*
X109925Y267932D01*
X109843Y267948D01*
X109302Y267841D01*
X108843Y267534D01*
X108537Y267076D01*
X108430Y266535D01*
X108537Y265995D01*
X108843Y265536D01*
X109302Y265230D01*
X109843Y265123D01*
X110383Y265230D01*
X110842Y265536D01*
X110894Y265614D01*
X111424Y265649D01*
X111811Y265263D01*
Y264195D01*
X107425D01*
X107298Y264385D01*
X106840Y264691D01*
X106299Y264799D01*
X105759Y264691D01*
X105300Y264385D01*
X104994Y263927D01*
X104886Y263386D01*
X104994Y262845D01*
X105300Y262387D01*
X105759Y262080D01*
X106299Y261973D01*
X106840Y262080D01*
X107298Y262387D01*
X107425Y262577D01*
X111811D01*
Y247682D01*
X111767Y247664D01*
X111746Y247665D01*
X111232Y247984D01*
X111183Y248231D01*
X110877Y248689D01*
X110419Y248995D01*
X109878Y249103D01*
X109337Y248995D01*
X108879Y248689D01*
X108572Y248231D01*
X108465Y247690D01*
X108572Y247149D01*
X108879Y246691D01*
X109337Y246385D01*
X109878Y246277D01*
X110041Y246309D01*
X110466Y245884D01*
X110433Y245722D01*
X110498Y245397D01*
X110104Y245003D01*
X109780Y245068D01*
X109239Y244960D01*
X108780Y244654D01*
X108474Y244195D01*
X108367Y243655D01*
X108474Y243114D01*
X108780Y242656D01*
X109239Y242349D01*
X109780Y242242D01*
X109862Y242258D01*
X110244Y241920D01*
Y241452D01*
X109862Y241114D01*
X109780Y241131D01*
X109239Y241023D01*
X108780Y240717D01*
X108474Y240258D01*
X108367Y239718D01*
X108474Y239177D01*
X108780Y238719D01*
X109239Y238412D01*
X109780Y238305D01*
X110320Y238412D01*
X110779Y238719D01*
X111085Y239177D01*
X111160Y239553D01*
X111546Y239840D01*
X111669Y239883D01*
X111811Y239824D01*
Y226620D01*
X111337Y226341D01*
X111311Y226343D01*
X111024Y226400D01*
X111024Y226400D01*
X107425D01*
X107298Y226590D01*
X106840Y226896D01*
X106299Y227004D01*
X105759Y226896D01*
X105300Y226590D01*
X104994Y226131D01*
X104886Y225591D01*
X104994Y225050D01*
X105300Y224591D01*
X105759Y224285D01*
X106299Y224178D01*
X106840Y224285D01*
X107298Y224591D01*
X107425Y224781D01*
X110688D01*
X111720Y223750D01*
X111590Y223250D01*
X110968D01*
X110842Y223440D01*
X110383Y223746D01*
X109843Y223854D01*
X109302Y223746D01*
X108843Y223440D01*
X108537Y222982D01*
X108430Y222441D01*
X108537Y221900D01*
X108843Y221442D01*
X109302Y221136D01*
X109843Y221028D01*
X109925Y221044D01*
X110307Y220706D01*
X110307Y220238D01*
X109925Y219900D01*
X109843Y219917D01*
X109302Y219809D01*
X108843Y219503D01*
X108537Y219045D01*
X108430Y218504D01*
X108537Y217963D01*
X108843Y217505D01*
X109302Y217198D01*
X109843Y217091D01*
X109925Y217108D01*
X110307Y216769D01*
X110307Y216301D01*
X109925Y215963D01*
X109843Y215980D01*
X109302Y215872D01*
X108843Y215566D01*
X108537Y215108D01*
X108430Y214567D01*
X108537Y214026D01*
X108843Y213568D01*
X109302Y213262D01*
X109843Y213154D01*
X110383Y213262D01*
X110842Y213568D01*
X110894Y213646D01*
X111424Y213681D01*
X111811Y213294D01*
Y212227D01*
X107425D01*
X107298Y212416D01*
X106840Y212723D01*
X106299Y212830D01*
X105759Y212723D01*
X105300Y212416D01*
X104994Y211958D01*
X104886Y211417D01*
X104994Y210877D01*
X105300Y210418D01*
X105759Y210112D01*
X106299Y210004D01*
X106840Y210112D01*
X107298Y210418D01*
X107425Y210608D01*
X111811D01*
Y195714D01*
X111767Y195695D01*
X111746Y195696D01*
X111232Y196015D01*
X111183Y196262D01*
X110877Y196721D01*
X110419Y197027D01*
X109878Y197135D01*
X109337Y197027D01*
X108879Y196721D01*
X108572Y196262D01*
X108465Y195722D01*
X108572Y195181D01*
X108879Y194722D01*
X109337Y194416D01*
X109878Y194309D01*
X110041Y194341D01*
X110466Y193916D01*
X110433Y193753D01*
X110498Y193428D01*
X110104Y193035D01*
X109780Y193099D01*
X109239Y192992D01*
X108780Y192685D01*
X108474Y192227D01*
X108367Y191686D01*
X108474Y191146D01*
X108780Y190687D01*
X109239Y190381D01*
X109780Y190273D01*
X109862Y190290D01*
X110244Y189952D01*
Y189484D01*
X109862Y189146D01*
X109780Y189162D01*
X109239Y189055D01*
X108780Y188748D01*
X108474Y188290D01*
X108367Y187749D01*
X108474Y187208D01*
X108780Y186750D01*
X109239Y186444D01*
X109780Y186336D01*
X110320Y186444D01*
X110779Y186750D01*
X111085Y187208D01*
X111160Y187584D01*
X111546Y187872D01*
X111669Y187914D01*
X111811Y187856D01*
Y174652D01*
X111337Y174372D01*
X111311Y174374D01*
X111024Y174431D01*
X111024Y174431D01*
X107425D01*
X107298Y174621D01*
X106840Y174927D01*
X106299Y175035D01*
X105759Y174927D01*
X105300Y174621D01*
X104994Y174163D01*
X104886Y173622D01*
X104994Y173081D01*
X105300Y172623D01*
X105759Y172317D01*
X106299Y172209D01*
X106840Y172317D01*
X107298Y172623D01*
X107425Y172813D01*
X110688D01*
X111720Y171782D01*
X111590Y171282D01*
X110968D01*
X110842Y171472D01*
X110383Y171778D01*
X109843Y171885D01*
X109302Y171778D01*
X108843Y171472D01*
X108537Y171013D01*
X108430Y170473D01*
X108537Y169932D01*
X108843Y169473D01*
X109302Y169167D01*
X109843Y169060D01*
X110005Y169092D01*
X110430Y168667D01*
X110398Y168504D01*
X110430Y168341D01*
X110005Y167916D01*
X109843Y167948D01*
X109302Y167841D01*
X108843Y167535D01*
X108537Y167076D01*
X108430Y166535D01*
X108537Y165995D01*
X108843Y165536D01*
X109302Y165230D01*
X109843Y165122D01*
X110005Y165155D01*
X110430Y164730D01*
X110398Y164567D01*
X110430Y164404D01*
X110005Y163979D01*
X109843Y164011D01*
X109302Y163904D01*
X108843Y163598D01*
X108537Y163139D01*
X108430Y162598D01*
X108537Y162058D01*
X108843Y161599D01*
X109302Y161293D01*
X109843Y161186D01*
X110383Y161293D01*
X110842Y161599D01*
X110894Y161677D01*
X111424Y161712D01*
X111811Y161326D01*
Y160258D01*
X107425D01*
X107298Y160448D01*
X106840Y160754D01*
X106299Y160862D01*
X105759Y160754D01*
X105300Y160448D01*
X104994Y159990D01*
X104886Y159449D01*
X104994Y158908D01*
X105300Y158450D01*
X105759Y158143D01*
X106299Y158036D01*
X106840Y158143D01*
X107298Y158450D01*
X107425Y158640D01*
X111811D01*
Y143745D01*
X111767Y143727D01*
X111746Y143728D01*
X111232Y144047D01*
X111183Y144294D01*
X110877Y144752D01*
X110419Y145059D01*
X109878Y145166D01*
X109337Y145059D01*
X108879Y144752D01*
X108572Y144294D01*
X108465Y143753D01*
X108572Y143212D01*
X108879Y142754D01*
X109337Y142448D01*
X109878Y142340D01*
X110041Y142373D01*
X110466Y141947D01*
X110433Y141785D01*
X110498Y141460D01*
X110104Y141066D01*
X109780Y141131D01*
X109239Y141023D01*
X108780Y140717D01*
X108474Y140258D01*
X108367Y139718D01*
X108474Y139177D01*
X108780Y138719D01*
X109239Y138412D01*
X109780Y138305D01*
X109862Y138321D01*
X110244Y137983D01*
Y137515D01*
X109862Y137177D01*
X109780Y137194D01*
X109239Y137086D01*
X108780Y136780D01*
X108474Y136321D01*
X108367Y135781D01*
X108474Y135240D01*
X108780Y134782D01*
X109239Y134475D01*
X109780Y134368D01*
X110320Y134475D01*
X110779Y134782D01*
X111085Y135240D01*
X111160Y135616D01*
X111546Y135903D01*
X111669Y135946D01*
X111811Y135887D01*
Y122683D01*
X111337Y122404D01*
X111311Y122406D01*
X111024Y122463D01*
X111024Y122463D01*
X107425D01*
X107298Y122653D01*
X106840Y122959D01*
X106299Y123066D01*
X105759Y122959D01*
X105300Y122653D01*
X104994Y122194D01*
X104886Y121653D01*
X104994Y121113D01*
X105300Y120654D01*
X105759Y120348D01*
X106299Y120241D01*
X106840Y120348D01*
X107298Y120654D01*
X107425Y120844D01*
X110688D01*
X111720Y119813D01*
X111590Y119313D01*
X110968D01*
X110842Y119503D01*
X110383Y119809D01*
X109843Y119917D01*
X109302Y119809D01*
X108843Y119503D01*
X108537Y119045D01*
X108430Y118504D01*
X108537Y117963D01*
X108843Y117505D01*
X109302Y117199D01*
X109843Y117091D01*
X110005Y117123D01*
X110430Y116698D01*
X110398Y116535D01*
X110430Y116373D01*
X110005Y115948D01*
X109843Y115980D01*
X109302Y115872D01*
X108843Y115566D01*
X108537Y115108D01*
X108430Y114567D01*
X108537Y114026D01*
X108843Y113568D01*
X109302Y113261D01*
X109843Y113154D01*
X110005Y113186D01*
X110430Y112761D01*
X110398Y112598D01*
X110430Y112436D01*
X110005Y112011D01*
X109843Y112043D01*
X109302Y111935D01*
X108843Y111629D01*
X108537Y111171D01*
X108430Y110630D01*
X108537Y110089D01*
X108843Y109631D01*
X109302Y109325D01*
X109843Y109217D01*
X110383Y109325D01*
X110842Y109631D01*
X110894Y109709D01*
X111424Y109744D01*
X111811Y109357D01*
Y108290D01*
X107425D01*
X107298Y108479D01*
X106840Y108786D01*
X106299Y108893D01*
X105759Y108786D01*
X105300Y108479D01*
X104994Y108021D01*
X104886Y107480D01*
X104994Y106940D01*
X105300Y106481D01*
X105759Y106175D01*
X106299Y106067D01*
X106840Y106175D01*
X107298Y106481D01*
X107425Y106671D01*
X111811D01*
Y91777D01*
X111767Y91758D01*
X111746Y91760D01*
X111232Y92078D01*
X111183Y92325D01*
X110877Y92784D01*
X110419Y93090D01*
X109878Y93198D01*
X109337Y93090D01*
X108879Y92784D01*
X108572Y92325D01*
X108465Y91785D01*
X108572Y91244D01*
X108879Y90785D01*
X109337Y90479D01*
X109878Y90372D01*
X110041Y90404D01*
X110466Y89979D01*
X110433Y89816D01*
X110498Y89491D01*
X110104Y89097D01*
X109780Y89162D01*
X109239Y89055D01*
X108780Y88748D01*
X108474Y88290D01*
X108367Y87749D01*
X108474Y87208D01*
X108780Y86750D01*
X109239Y86444D01*
X109780Y86336D01*
X109942Y86369D01*
X110367Y85943D01*
X110335Y85781D01*
X110367Y85618D01*
X109942Y85193D01*
X109780Y85225D01*
X109239Y85118D01*
X108780Y84811D01*
X108474Y84353D01*
X108367Y83812D01*
X108474Y83271D01*
X108780Y82813D01*
X109239Y82507D01*
X109780Y82399D01*
X110320Y82507D01*
X110779Y82813D01*
X111085Y83271D01*
X111160Y83647D01*
X111546Y83935D01*
X111669Y83977D01*
X111811Y83919D01*
Y70715D01*
X111337Y70435D01*
X111311Y70437D01*
X111024Y70494D01*
X111024Y70494D01*
X107425D01*
X107298Y70684D01*
X106840Y70990D01*
X106299Y71098D01*
X105759Y70990D01*
X105300Y70684D01*
X104994Y70226D01*
X104886Y69685D01*
X104994Y69144D01*
X105300Y68686D01*
X105759Y68380D01*
X106299Y68272D01*
X106840Y68380D01*
X107298Y68686D01*
X107425Y68876D01*
X110688D01*
X111720Y67845D01*
X111590Y67345D01*
X110968D01*
X110842Y67535D01*
X110383Y67841D01*
X109843Y67948D01*
X109302Y67841D01*
X108843Y67535D01*
X108537Y67076D01*
X108430Y66535D01*
X108537Y65995D01*
X108843Y65536D01*
X109302Y65230D01*
X109843Y65122D01*
X110005Y65155D01*
X110430Y64730D01*
X110398Y64567D01*
X110430Y64404D01*
X110005Y63979D01*
X109843Y64011D01*
X109302Y63904D01*
X108843Y63598D01*
X108537Y63139D01*
X108430Y62598D01*
X108537Y62058D01*
X108843Y61599D01*
X109302Y61293D01*
X109843Y61185D01*
X110005Y61218D01*
X110430Y60793D01*
X110398Y60630D01*
X110430Y60467D01*
X110005Y60042D01*
X109843Y60074D01*
X109302Y59967D01*
X108843Y59661D01*
X108537Y59202D01*
X108430Y58661D01*
X108537Y58121D01*
X108843Y57662D01*
X109302Y57356D01*
X109843Y57249D01*
X110383Y57356D01*
X110842Y57662D01*
X110894Y57740D01*
X111424Y57775D01*
X111811Y57389D01*
Y56321D01*
X107425D01*
X107298Y56511D01*
X106840Y56817D01*
X106299Y56925D01*
X105759Y56817D01*
X105300Y56511D01*
X104994Y56053D01*
X104886Y55512D01*
X104994Y54971D01*
X105300Y54513D01*
X105759Y54206D01*
X106299Y54099D01*
X106840Y54206D01*
X107298Y54513D01*
X107425Y54703D01*
X111811D01*
Y39808D01*
X111767Y39790D01*
X111746Y39791D01*
X111232Y40110D01*
X111183Y40357D01*
X110877Y40815D01*
X110419Y41122D01*
X109878Y41229D01*
X109337Y41122D01*
X108879Y40815D01*
X108572Y40357D01*
X108465Y39816D01*
X108572Y39275D01*
X108879Y38817D01*
X109337Y38511D01*
X109878Y38403D01*
X110041Y38436D01*
X110466Y38010D01*
X110433Y37848D01*
X110498Y37523D01*
X110104Y37129D01*
X109780Y37194D01*
X109239Y37086D01*
X108780Y36780D01*
X108474Y36321D01*
X108367Y35781D01*
X108474Y35240D01*
X108780Y34782D01*
X109239Y34475D01*
X109780Y34368D01*
X109942Y34400D01*
X110367Y33975D01*
X110335Y33812D01*
X110367Y33650D01*
X109942Y33224D01*
X109780Y33257D01*
X109239Y33149D01*
X108780Y32843D01*
X108474Y32384D01*
X108367Y31844D01*
X108474Y31303D01*
X108780Y30845D01*
X109239Y30538D01*
X109780Y30431D01*
X110320Y30538D01*
X110779Y30845D01*
X111085Y31303D01*
X111160Y31679D01*
X111546Y31966D01*
X111669Y32009D01*
X111811Y31950D01*
Y12614D01*
X16254D01*
X16154Y13114D01*
X17811Y13800D01*
X19463Y14812D01*
X20937Y16071D01*
X22195Y17545D01*
X23208Y19197D01*
X23949Y20987D01*
X24402Y22871D01*
X24554Y24803D01*
X24402Y26735D01*
X23949Y28619D01*
X23208Y30410D01*
X22195Y32062D01*
X20937Y33535D01*
X19463Y34794D01*
X17811Y35806D01*
X16021Y36548D01*
X14137Y37000D01*
X12205Y37152D01*
X10273Y37000D01*
X8389Y36548D01*
X6598Y35806D01*
X4946Y34794D01*
X3473Y33535D01*
X2214Y32062D01*
X1202Y30410D01*
X460Y28619D01*
X8Y26735D01*
X-144Y24803D01*
X8Y22871D01*
X460Y20987D01*
X1202Y19197D01*
X2214Y17545D01*
X3473Y16071D01*
X4946Y14812D01*
X6598Y13800D01*
X8255Y13114D01*
X8156Y12614D01*
X-1363D01*
X-1363Y288961D01*
X8156D01*
X8255Y288461D01*
X6598Y287775D01*
X4946Y286762D01*
X3473Y285504D01*
X2214Y284030D01*
X1202Y282378D01*
X460Y280588D01*
X8Y278703D01*
X-144Y276772D01*
X8Y274840D01*
X460Y272956D01*
X1202Y271165D01*
X2214Y269513D01*
X3473Y268039D01*
X4946Y266781D01*
X6598Y265769D01*
X8389Y265027D01*
X10273Y264575D01*
X12205Y264423D01*
X14137Y264575D01*
X16021Y265027D01*
X17811Y265769D01*
X19463Y266781D01*
X20937Y268039D01*
X22195Y269513D01*
X23208Y271165D01*
X23949Y272956D01*
X24402Y274840D01*
X24554Y276772D01*
X24402Y278703D01*
X23949Y280588D01*
X23208Y282378D01*
X22195Y284030D01*
X20937Y285504D01*
X19463Y286762D01*
X17811Y287775D01*
X16154Y288461D01*
X16254Y288961D01*
X111811D01*
Y278589D01*
D02*
G37*
G36*
X503922Y257087D02*
X503922Y12614D01*
X472947D01*
X472847Y13114D01*
X474504Y13800D01*
X476156Y14812D01*
X477630Y16071D01*
X478888Y17545D01*
X479901Y19197D01*
X480642Y20987D01*
X481095Y22871D01*
X481247Y24803D01*
X481095Y26735D01*
X480642Y28619D01*
X479901Y30410D01*
X478888Y32062D01*
X477630Y33535D01*
X476156Y34794D01*
X474504Y35806D01*
X472714Y36548D01*
X470829Y37000D01*
X468898Y37152D01*
X466966Y37000D01*
X465082Y36548D01*
X463291Y35806D01*
X461639Y34794D01*
X460166Y33535D01*
X458907Y32062D01*
X457895Y30410D01*
X457153Y28619D01*
X456701Y26735D01*
X456549Y24803D01*
X456701Y22871D01*
X457153Y20987D01*
X457895Y19197D01*
X458907Y17545D01*
X460166Y16071D01*
X461639Y14812D01*
X463291Y13800D01*
X464948Y13114D01*
X464849Y12614D01*
X113779D01*
Y53088D01*
X114242Y53279D01*
X120099Y47422D01*
X120361Y47246D01*
X120671Y47184D01*
X120671Y47185D01*
X360303D01*
X360303Y47184D01*
X360493Y47222D01*
X400787D01*
X400787Y47222D01*
X401097Y47284D01*
X401360Y47459D01*
X411587Y57687D01*
X411811Y57642D01*
X412352Y57750D01*
X412810Y58056D01*
X413116Y58514D01*
X413224Y59055D01*
X413116Y59596D01*
X412810Y60054D01*
X412352Y60360D01*
X411811Y60468D01*
X411270Y60360D01*
X410812Y60054D01*
X410506Y59596D01*
X410398Y59055D01*
X410443Y58831D01*
X400452Y48841D01*
X361268D01*
X361077Y49303D01*
X369461Y57687D01*
X369685Y57642D01*
X370226Y57750D01*
X370684Y58056D01*
X370990Y58514D01*
X371098Y59055D01*
X370990Y59596D01*
X370684Y60054D01*
X370226Y60360D01*
X369685Y60468D01*
X369144Y60360D01*
X368686Y60054D01*
X368380Y59596D01*
X368272Y59055D01*
X368317Y58831D01*
X359507Y50022D01*
X320323D01*
X320132Y50484D01*
X327335Y57687D01*
X327559Y57642D01*
X328100Y57750D01*
X328558Y58056D01*
X328865Y58514D01*
X328972Y59055D01*
X328865Y59596D01*
X328558Y60054D01*
X328100Y60360D01*
X327559Y60468D01*
X327018Y60360D01*
X326560Y60054D01*
X326254Y59596D01*
X326146Y59055D01*
X326191Y58831D01*
X318562Y51203D01*
X279379D01*
X279187Y51665D01*
X285209Y57687D01*
X285433Y57642D01*
X285974Y57750D01*
X286432Y58056D01*
X286738Y58514D01*
X286846Y59055D01*
X286738Y59596D01*
X286432Y60054D01*
X285974Y60360D01*
X285433Y60468D01*
X284892Y60360D01*
X284434Y60054D01*
X284128Y59596D01*
X284020Y59055D01*
X284065Y58831D01*
X277599Y52365D01*
X238415D01*
X238224Y52827D01*
X243083Y57687D01*
X243307Y57642D01*
X243848Y57750D01*
X244306Y58056D01*
X244613Y58514D01*
X244720Y59055D01*
X244613Y59596D01*
X244306Y60054D01*
X243848Y60360D01*
X243307Y60468D01*
X242766Y60360D01*
X242308Y60054D01*
X242002Y59596D01*
X241894Y59055D01*
X241939Y58831D01*
X236673Y53565D01*
X197489D01*
X197298Y54027D01*
X200957Y57687D01*
X201181Y57642D01*
X201722Y57750D01*
X202180Y58056D01*
X202486Y58514D01*
X202594Y59055D01*
X202486Y59596D01*
X202180Y60054D01*
X201722Y60360D01*
X201181Y60468D01*
X200640Y60360D01*
X200182Y60054D01*
X199876Y59596D01*
X199768Y59055D01*
X199813Y58831D01*
X195728Y54746D01*
X156544D01*
X156353Y55208D01*
X158831Y57687D01*
X159055Y57642D01*
X159596Y57750D01*
X160054Y58056D01*
X160361Y58514D01*
X160468Y59055D01*
X160361Y59596D01*
X160054Y60054D01*
X159596Y60360D01*
X159055Y60468D01*
X158514Y60360D01*
X158056Y60054D01*
X157750Y59596D01*
X157642Y59055D01*
X157687Y58831D01*
X154783Y55927D01*
X123957D01*
X121017Y58868D01*
Y60501D01*
X120955Y60811D01*
X120780Y61074D01*
X113779Y68074D01*
Y105056D01*
X114242Y105247D01*
X120099Y99390D01*
X120361Y99215D01*
X120671Y99153D01*
X120671Y99153D01*
X360303D01*
X360303Y99153D01*
X360493Y99191D01*
X400787D01*
X400787Y99191D01*
X401097Y99252D01*
X401360Y99428D01*
X411587Y109655D01*
X411811Y109611D01*
X412352Y109718D01*
X412810Y110024D01*
X413116Y110483D01*
X413224Y111024D01*
X413116Y111564D01*
X412810Y112023D01*
X412352Y112329D01*
X411811Y112437D01*
X411270Y112329D01*
X410812Y112023D01*
X410506Y111564D01*
X410398Y111024D01*
X410443Y110800D01*
X400452Y100809D01*
X361268D01*
X361077Y101271D01*
X369461Y109655D01*
X369685Y109611D01*
X370226Y109718D01*
X370684Y110024D01*
X370990Y110483D01*
X371098Y111024D01*
X370990Y111564D01*
X370684Y112023D01*
X370226Y112329D01*
X369685Y112437D01*
X369144Y112329D01*
X368686Y112023D01*
X368380Y111564D01*
X368272Y111024D01*
X368317Y110800D01*
X359507Y101990D01*
X320323D01*
X320132Y102452D01*
X327335Y109655D01*
X327559Y109611D01*
X328100Y109718D01*
X328558Y110024D01*
X328865Y110483D01*
X328972Y111024D01*
X328865Y111564D01*
X328558Y112023D01*
X328100Y112329D01*
X327559Y112437D01*
X327018Y112329D01*
X326560Y112023D01*
X326254Y111564D01*
X326146Y111024D01*
X326191Y110800D01*
X318562Y103172D01*
X279379D01*
X279187Y103633D01*
X285209Y109655D01*
X285433Y109611D01*
X285974Y109718D01*
X286432Y110024D01*
X286738Y110483D01*
X286846Y111024D01*
X286738Y111564D01*
X286432Y112023D01*
X285974Y112329D01*
X285433Y112437D01*
X284892Y112329D01*
X284434Y112023D01*
X284128Y111564D01*
X284020Y111024D01*
X284065Y110800D01*
X277599Y104334D01*
X238415D01*
X238224Y104796D01*
X243083Y109655D01*
X243307Y109611D01*
X243848Y109718D01*
X244306Y110024D01*
X244613Y110483D01*
X244720Y111024D01*
X244613Y111564D01*
X244306Y112023D01*
X243848Y112329D01*
X243307Y112437D01*
X242766Y112329D01*
X242308Y112023D01*
X242002Y111564D01*
X241894Y111024D01*
X241939Y110800D01*
X236673Y105534D01*
X197489D01*
X197298Y105996D01*
X200957Y109655D01*
X201181Y109611D01*
X201722Y109718D01*
X202180Y110024D01*
X202486Y110483D01*
X202594Y111024D01*
X202486Y111564D01*
X202180Y112023D01*
X201722Y112329D01*
X201181Y112437D01*
X200640Y112329D01*
X200182Y112023D01*
X199876Y111564D01*
X199768Y111024D01*
X199813Y110800D01*
X195728Y106715D01*
X156544D01*
X156353Y107177D01*
X158831Y109655D01*
X159055Y109611D01*
X159596Y109718D01*
X160054Y110024D01*
X160361Y110483D01*
X160468Y111024D01*
X160361Y111564D01*
X160054Y112023D01*
X159596Y112329D01*
X159055Y112437D01*
X158514Y112329D01*
X158056Y112023D01*
X157750Y111564D01*
X157642Y111024D01*
X157687Y110800D01*
X154783Y107896D01*
X123957D01*
X121017Y110837D01*
Y112470D01*
X120955Y112779D01*
X120780Y113042D01*
X113779Y120042D01*
X113779Y157025D01*
X114242Y157216D01*
X120099Y151358D01*
X120361Y151183D01*
X120671Y151121D01*
X120671Y151121D01*
X360303D01*
X360303Y151121D01*
X360493Y151159D01*
X400787D01*
X400787Y151159D01*
X401097Y151221D01*
X401360Y151396D01*
X411587Y161624D01*
X411811Y161579D01*
X412352Y161687D01*
X412810Y161993D01*
X413116Y162451D01*
X413224Y162992D01*
X413116Y163533D01*
X412810Y163991D01*
X412352Y164297D01*
X411811Y164405D01*
X411270Y164297D01*
X410812Y163991D01*
X410506Y163533D01*
X410398Y162992D01*
X410443Y162768D01*
X400452Y152778D01*
X361268D01*
X361077Y153240D01*
X369461Y161624D01*
X369685Y161579D01*
X370226Y161687D01*
X370684Y161993D01*
X370990Y162451D01*
X371098Y162992D01*
X370990Y163533D01*
X370684Y163991D01*
X370226Y164297D01*
X369685Y164405D01*
X369144Y164297D01*
X368686Y163991D01*
X368380Y163533D01*
X368272Y162992D01*
X368317Y162768D01*
X359507Y153959D01*
X320323D01*
X320132Y154421D01*
X327335Y161624D01*
X327559Y161579D01*
X328100Y161687D01*
X328558Y161993D01*
X328865Y162451D01*
X328972Y162992D01*
X328865Y163533D01*
X328558Y163991D01*
X328100Y164297D01*
X327559Y164405D01*
X327018Y164297D01*
X326560Y163991D01*
X326254Y163533D01*
X326146Y162992D01*
X326191Y162768D01*
X318562Y155140D01*
X279379D01*
X279187Y155602D01*
X285209Y161624D01*
X285433Y161579D01*
X285974Y161687D01*
X286432Y161993D01*
X286738Y162451D01*
X286846Y162992D01*
X286738Y163533D01*
X286432Y163991D01*
X285974Y164297D01*
X285433Y164405D01*
X284892Y164297D01*
X284434Y163991D01*
X284128Y163533D01*
X284020Y162992D01*
X284065Y162768D01*
X277599Y156302D01*
X238415D01*
X238224Y156764D01*
X243083Y161624D01*
X243307Y161579D01*
X243848Y161687D01*
X244306Y161993D01*
X244613Y162451D01*
X244720Y162992D01*
X244613Y163533D01*
X244306Y163991D01*
X243848Y164297D01*
X243307Y164405D01*
X242766Y164297D01*
X242308Y163991D01*
X242002Y163533D01*
X241894Y162992D01*
X241939Y162768D01*
X236673Y157502D01*
X197489D01*
X197298Y157964D01*
X200957Y161624D01*
X201181Y161579D01*
X201722Y161687D01*
X202180Y161993D01*
X202486Y162451D01*
X202594Y162992D01*
X202486Y163533D01*
X202180Y163991D01*
X201722Y164297D01*
X201181Y164405D01*
X200640Y164297D01*
X200182Y163991D01*
X199876Y163533D01*
X199768Y162992D01*
X199813Y162768D01*
X195728Y158683D01*
X156544D01*
X156353Y159145D01*
X158831Y161624D01*
X159055Y161579D01*
X159596Y161687D01*
X160054Y161993D01*
X160361Y162451D01*
X160468Y162992D01*
X160361Y163533D01*
X160054Y163991D01*
X159596Y164297D01*
X159055Y164405D01*
X158514Y164297D01*
X158056Y163991D01*
X157750Y163533D01*
X157642Y162992D01*
X157687Y162768D01*
X154783Y159864D01*
X123957D01*
X121017Y162805D01*
Y164438D01*
X120955Y164748D01*
X120780Y165011D01*
X113779Y172011D01*
Y208993D01*
X114242Y209184D01*
X120099Y203327D01*
X120361Y203152D01*
X120671Y203090D01*
X120671Y203090D01*
X360303D01*
X360303Y203090D01*
X360493Y203128D01*
X400787D01*
X400787Y203128D01*
X401097Y203189D01*
X401360Y203365D01*
X411587Y213592D01*
X411811Y213548D01*
X412352Y213655D01*
X412810Y213962D01*
X413116Y214420D01*
X413224Y214961D01*
X413116Y215501D01*
X412810Y215960D01*
X412352Y216266D01*
X411811Y216374D01*
X411270Y216266D01*
X410812Y215960D01*
X410506Y215501D01*
X410398Y214961D01*
X410443Y214737D01*
X400452Y204746D01*
X361268D01*
X361077Y205208D01*
X369461Y213592D01*
X369685Y213548D01*
X370226Y213655D01*
X370684Y213962D01*
X370990Y214420D01*
X371098Y214961D01*
X370990Y215501D01*
X370684Y215960D01*
X370226Y216266D01*
X369685Y216374D01*
X369144Y216266D01*
X368686Y215960D01*
X368380Y215501D01*
X368272Y214961D01*
X368317Y214737D01*
X359507Y205927D01*
X320323D01*
X320132Y206389D01*
X327335Y213592D01*
X327559Y213548D01*
X328100Y213655D01*
X328558Y213962D01*
X328865Y214420D01*
X328972Y214961D01*
X328865Y215501D01*
X328558Y215960D01*
X328100Y216266D01*
X327559Y216374D01*
X327018Y216266D01*
X326560Y215960D01*
X326254Y215501D01*
X326146Y214961D01*
X326191Y214737D01*
X318562Y207108D01*
X279379D01*
X279187Y207570D01*
X285209Y213592D01*
X285433Y213548D01*
X285974Y213655D01*
X286432Y213962D01*
X286738Y214420D01*
X286846Y214961D01*
X286738Y215501D01*
X286432Y215960D01*
X285974Y216266D01*
X285433Y216374D01*
X284892Y216266D01*
X284434Y215960D01*
X284128Y215501D01*
X284020Y214961D01*
X284065Y214737D01*
X277599Y208271D01*
X238415D01*
X238224Y208733D01*
X243083Y213592D01*
X243307Y213548D01*
X243848Y213655D01*
X244306Y213962D01*
X244613Y214420D01*
X244720Y214961D01*
X244613Y215501D01*
X244306Y215960D01*
X243848Y216266D01*
X243307Y216374D01*
X242766Y216266D01*
X242308Y215960D01*
X242002Y215501D01*
X241894Y214961D01*
X241939Y214737D01*
X236673Y209471D01*
X197489D01*
X197298Y209933D01*
X200957Y213592D01*
X201181Y213548D01*
X201722Y213655D01*
X202180Y213962D01*
X202486Y214420D01*
X202594Y214961D01*
X202486Y215501D01*
X202180Y215960D01*
X201722Y216266D01*
X201181Y216374D01*
X200640Y216266D01*
X200182Y215960D01*
X199876Y215501D01*
X199768Y214961D01*
X199813Y214737D01*
X195728Y210652D01*
X156544D01*
X156353Y211114D01*
X158831Y213592D01*
X159055Y213548D01*
X159596Y213655D01*
X160054Y213962D01*
X160361Y214420D01*
X160468Y214961D01*
X160361Y215501D01*
X160054Y215960D01*
X159596Y216266D01*
X159055Y216374D01*
X158514Y216266D01*
X158056Y215960D01*
X157750Y215501D01*
X157642Y214961D01*
X157687Y214737D01*
X154783Y211833D01*
X123957D01*
X121017Y214774D01*
Y216407D01*
X120955Y216717D01*
X120780Y216979D01*
X113779Y223979D01*
Y260962D01*
X114242Y261153D01*
X120099Y255295D01*
X120361Y255120D01*
X120671Y255059D01*
X120671Y255059D01*
X360303D01*
X360303Y255059D01*
X360493Y255096D01*
X400787D01*
X400787Y255096D01*
X401097Y255158D01*
X401360Y255333D01*
X411587Y265561D01*
X411811Y265516D01*
X412352Y265624D01*
X412810Y265930D01*
X413116Y266388D01*
X413224Y266929D01*
X413116Y267470D01*
X412810Y267928D01*
X412352Y268234D01*
X411811Y268342D01*
X411270Y268234D01*
X410812Y267928D01*
X410506Y267470D01*
X410398Y266929D01*
X410443Y266705D01*
X400452Y256715D01*
X361268D01*
X361077Y257177D01*
X369461Y265561D01*
X369685Y265516D01*
X370226Y265624D01*
X370684Y265930D01*
X370990Y266388D01*
X371098Y266929D01*
X370990Y267470D01*
X370684Y267928D01*
X370226Y268234D01*
X369685Y268342D01*
X369144Y268234D01*
X368686Y267928D01*
X368380Y267470D01*
X368272Y266929D01*
X368317Y266705D01*
X359507Y257896D01*
X320323D01*
X320132Y258358D01*
X327335Y265561D01*
X327559Y265516D01*
X328100Y265624D01*
X328558Y265930D01*
X328865Y266388D01*
X328972Y266929D01*
X328865Y267470D01*
X328558Y267928D01*
X328100Y268234D01*
X327559Y268342D01*
X327018Y268234D01*
X326560Y267928D01*
X326254Y267470D01*
X326146Y266929D01*
X326191Y266705D01*
X318562Y259077D01*
X279379D01*
X279187Y259539D01*
X285209Y265561D01*
X285433Y265516D01*
X285974Y265624D01*
X286432Y265930D01*
X286738Y266388D01*
X286846Y266929D01*
X286738Y267470D01*
X286432Y267928D01*
X285974Y268234D01*
X285433Y268342D01*
X284892Y268234D01*
X284434Y267928D01*
X284128Y267470D01*
X284020Y266929D01*
X284065Y266705D01*
X277599Y260239D01*
X238415D01*
X238224Y260701D01*
X243083Y265561D01*
X243307Y265516D01*
X243848Y265624D01*
X244306Y265930D01*
X244613Y266388D01*
X244720Y266929D01*
X244613Y267470D01*
X244306Y267928D01*
X243848Y268234D01*
X243307Y268342D01*
X242766Y268234D01*
X242308Y267928D01*
X242002Y267470D01*
X241894Y266929D01*
X241939Y266705D01*
X236673Y261439D01*
X197489D01*
X197298Y261901D01*
X200957Y265561D01*
X201181Y265516D01*
X201722Y265624D01*
X202180Y265930D01*
X202486Y266388D01*
X202594Y266929D01*
X202486Y267470D01*
X202180Y267928D01*
X201722Y268234D01*
X201181Y268342D01*
X200640Y268234D01*
X200182Y267928D01*
X199876Y267470D01*
X199768Y266929D01*
X199813Y266705D01*
X195728Y262620D01*
X156544D01*
X156353Y263082D01*
X158831Y265561D01*
X159055Y265516D01*
X159596Y265624D01*
X160054Y265930D01*
X160361Y266388D01*
X160468Y266929D01*
X160361Y267470D01*
X160054Y267928D01*
X159596Y268234D01*
X159055Y268342D01*
X158514Y268234D01*
X158056Y267928D01*
X157750Y267470D01*
X157642Y266929D01*
X157687Y266705D01*
X154783Y263801D01*
X123957D01*
X121017Y266742D01*
Y268375D01*
X120955Y268685D01*
X120780Y268948D01*
X113779Y275948D01*
Y288961D01*
X464849D01*
X464948Y288461D01*
X463291Y287775D01*
X461639Y286762D01*
X460166Y285504D01*
X458907Y284030D01*
X457895Y282378D01*
X457153Y280588D01*
X456701Y278703D01*
X456549Y276772D01*
X456701Y274840D01*
X457153Y272956D01*
X457895Y271165D01*
X458907Y269513D01*
X460166Y268039D01*
X461639Y266781D01*
X463291Y265769D01*
X465082Y265027D01*
X466966Y264575D01*
X468898Y264423D01*
X470829Y264575D01*
X472714Y265027D01*
X474504Y265769D01*
X476156Y266781D01*
X477630Y268039D01*
X478888Y269513D01*
X479901Y271165D01*
X480642Y272956D01*
X481095Y274840D01*
X481247Y276772D01*
X481095Y278703D01*
X480642Y280588D01*
X479901Y282378D01*
X478888Y284030D01*
X477630Y285504D01*
X476156Y286762D01*
X474504Y287775D01*
X472847Y288461D01*
X472947Y288961D01*
X503922D01*
Y257087D01*
D02*
G37*
%LPC*%
G36*
X101772Y273991D02*
X101192Y273876D01*
X100702Y273548D01*
X100373Y273057D01*
X100258Y272478D01*
X100373Y271899D01*
X100702Y271408D01*
X101192Y271080D01*
X101772Y270965D01*
X102351Y271080D01*
X102842Y271408D01*
X103170Y271899D01*
X103285Y272478D01*
X103170Y273057D01*
X102842Y273548D01*
X102351Y273876D01*
X101772Y273991D01*
D02*
G37*
G36*
X97441D02*
X96862Y273876D01*
X96371Y273548D01*
X96043Y273057D01*
X95928Y272478D01*
X96043Y271899D01*
X96371Y271408D01*
X96862Y271080D01*
X97441Y270965D01*
X98020Y271080D01*
X98511Y271408D01*
X98839Y271899D01*
X98954Y272478D01*
X98839Y273057D01*
X98511Y273548D01*
X98020Y273876D01*
X97441Y273991D01*
D02*
G37*
G36*
X59423Y271043D02*
X58882Y270935D01*
X58424Y270629D01*
X58118Y270171D01*
X58010Y269630D01*
X58118Y269089D01*
X58424Y268631D01*
X58882Y268324D01*
X59423Y268217D01*
X59964Y268324D01*
X60422Y268631D01*
X60728Y269089D01*
X60836Y269630D01*
X60728Y270171D01*
X60422Y270629D01*
X59964Y270935D01*
X59423Y271043D01*
D02*
G37*
G36*
X101772Y269661D02*
X101192Y269546D01*
X100702Y269218D01*
X100373Y268727D01*
X100258Y268147D01*
X100373Y267568D01*
X100702Y267077D01*
X101192Y266749D01*
X101772Y266634D01*
X102351Y266749D01*
X102842Y267077D01*
X103170Y267568D01*
X103285Y268147D01*
X103170Y268727D01*
X102842Y269218D01*
X102351Y269546D01*
X101772Y269661D01*
D02*
G37*
G36*
X97441D02*
X96862Y269546D01*
X96371Y269218D01*
X96043Y268727D01*
X95928Y268147D01*
X96043Y267568D01*
X96371Y267077D01*
X96862Y266749D01*
X97441Y266634D01*
X98020Y266749D01*
X98511Y267077D01*
X98839Y267568D01*
X98954Y268147D01*
X98839Y268727D01*
X98511Y269218D01*
X98020Y269546D01*
X97441Y269661D01*
D02*
G37*
G36*
X51968Y263618D02*
X51428Y263510D01*
X50969Y263204D01*
X50663Y262745D01*
X50555Y262205D01*
X50663Y261664D01*
X50969Y261206D01*
X51428Y260899D01*
X51968Y260792D01*
X52509Y260899D01*
X52622Y260975D01*
X52983Y260614D01*
X52828Y260383D01*
X52721Y259842D01*
X52828Y259302D01*
X53135Y258843D01*
X53593Y258537D01*
X54134Y258430D01*
X54675Y258537D01*
X55133Y258843D01*
X55439Y259302D01*
X55547Y259842D01*
X55439Y260383D01*
X55133Y260842D01*
X54675Y261148D01*
X54134Y261256D01*
X53593Y261148D01*
X53480Y261072D01*
X53119Y261433D01*
X53274Y261664D01*
X53382Y262205D01*
X53274Y262745D01*
X52968Y263204D01*
X52509Y263510D01*
X51968Y263618D01*
D02*
G37*
G36*
X105512Y260862D02*
X104971Y260754D01*
X104513Y260448D01*
X104206Y259990D01*
X104099Y259449D01*
X104206Y258908D01*
X104513Y258450D01*
X104971Y258143D01*
X105512Y258036D01*
X106052Y258143D01*
X106511Y258450D01*
X106817Y258908D01*
X106925Y259449D01*
X106817Y259990D01*
X106511Y260448D01*
X106052Y260754D01*
X105512Y260862D01*
D02*
G37*
G36*
X72835Y260568D02*
X72255Y260453D01*
X71765Y260125D01*
X71437Y259634D01*
X71321Y259055D01*
X71437Y258476D01*
X71765Y257985D01*
X72255Y257657D01*
X72835Y257542D01*
X73414Y257657D01*
X73905Y257985D01*
X74233Y258476D01*
X74348Y259055D01*
X74233Y259634D01*
X73905Y260125D01*
X73414Y260453D01*
X72835Y260568D01*
D02*
G37*
G36*
X64173D02*
X63594Y260453D01*
X63103Y260125D01*
X62775Y259634D01*
X62660Y259055D01*
X62775Y258476D01*
X63103Y257985D01*
X63594Y257657D01*
X64173Y257542D01*
X64752Y257657D01*
X65243Y257985D01*
X65571Y258476D01*
X65687Y259055D01*
X65571Y259634D01*
X65243Y260125D01*
X64752Y260453D01*
X64173Y260568D01*
D02*
G37*
G36*
X68504Y260568D02*
X67925Y260453D01*
X67434Y260125D01*
X67106Y259634D01*
X66991Y259055D01*
X67106Y258476D01*
X67434Y257985D01*
X67925Y257657D01*
X68504Y257542D01*
X69083Y257657D01*
X69574Y257985D01*
X69902Y258476D01*
X70017Y259055D01*
X69902Y259634D01*
X69574Y260125D01*
X69083Y260453D01*
X68504Y260568D01*
D02*
G37*
G36*
X99213Y258106D02*
X98672Y257998D01*
X98213Y257692D01*
X97907Y257234D01*
X97800Y256693D01*
X97907Y256152D01*
X98213Y255694D01*
X98672Y255387D01*
X99213Y255280D01*
X99753Y255387D01*
X100212Y255694D01*
X100518Y256152D01*
X100626Y256693D01*
X100518Y257234D01*
X100212Y257692D01*
X99753Y257998D01*
X99213Y258106D01*
D02*
G37*
G36*
X49409Y256137D02*
X48869Y256030D01*
X48410Y255724D01*
X48104Y255265D01*
X47997Y254724D01*
X48104Y254184D01*
X48410Y253725D01*
X48869Y253419D01*
X49409Y253311D01*
X49950Y253419D01*
X50409Y253725D01*
X50715Y254184D01*
X50822Y254724D01*
X50715Y255265D01*
X50409Y255724D01*
X49950Y256030D01*
X49409Y256137D01*
D02*
G37*
G36*
X72835Y256238D02*
X72255Y256122D01*
X71765Y255795D01*
X71437Y255304D01*
X71321Y254724D01*
X71437Y254145D01*
X71765Y253654D01*
X72255Y253326D01*
X72835Y253211D01*
X73414Y253326D01*
X73905Y253654D01*
X74233Y254145D01*
X74348Y254724D01*
X74233Y255304D01*
X73905Y255795D01*
X73414Y256122D01*
X72835Y256238D01*
D02*
G37*
G36*
X68504D02*
X67925Y256122D01*
X67434Y255795D01*
X67106Y255304D01*
X66991Y254724D01*
X67106Y254145D01*
X67434Y253654D01*
X67925Y253326D01*
X68504Y253211D01*
X69083Y253326D01*
X69574Y253654D01*
X69902Y254145D01*
X70017Y254724D01*
X69902Y255304D01*
X69574Y255795D01*
X69083Y256122D01*
X68504Y256238D01*
D02*
G37*
G36*
X64173D02*
X63594Y256122D01*
X63103Y255795D01*
X62775Y255304D01*
X62660Y254724D01*
X62775Y254145D01*
X63103Y253654D01*
X63594Y253326D01*
X64173Y253211D01*
X64752Y253326D01*
X65243Y253654D01*
X65571Y254145D01*
X65687Y254724D01*
X65571Y255304D01*
X65243Y255795D01*
X64752Y256122D01*
X64173Y256238D01*
D02*
G37*
G36*
X106728Y255009D02*
X106188Y254901D01*
X105729Y254595D01*
X105423Y254136D01*
X105315Y253596D01*
X105423Y253055D01*
X105729Y252596D01*
X105846Y252518D01*
Y251917D01*
X105729Y251839D01*
X105423Y251380D01*
X105315Y250840D01*
X105423Y250299D01*
X105729Y249841D01*
X106188Y249534D01*
X106728Y249427D01*
X107269Y249534D01*
X107727Y249841D01*
X108034Y250299D01*
X108141Y250840D01*
X108034Y251380D01*
X107727Y251839D01*
X107610Y251917D01*
Y252518D01*
X107727Y252596D01*
X108034Y253055D01*
X108141Y253596D01*
X108034Y254136D01*
X107727Y254595D01*
X107269Y254901D01*
X106728Y255009D01*
D02*
G37*
G36*
X68504Y251907D02*
X67925Y251792D01*
X67434Y251464D01*
X67106Y250973D01*
X66991Y250394D01*
X67106Y249815D01*
X67434Y249324D01*
X67925Y248996D01*
X68504Y248880D01*
X69083Y248996D01*
X69574Y249324D01*
X69902Y249815D01*
X70017Y250394D01*
X69902Y250973D01*
X69574Y251464D01*
X69083Y251792D01*
X68504Y251907D01*
D02*
G37*
G36*
X72835Y251907D02*
X72255Y251792D01*
X71765Y251464D01*
X71437Y250973D01*
X71321Y250394D01*
X71437Y249815D01*
X71765Y249324D01*
X72255Y248996D01*
X72835Y248880D01*
X73414Y248996D01*
X73905Y249324D01*
X74233Y249815D01*
X74348Y250394D01*
X74233Y250973D01*
X73905Y251464D01*
X73414Y251792D01*
X72835Y251907D01*
D02*
G37*
G36*
X64173D02*
X63594Y251792D01*
X63103Y251464D01*
X62775Y250973D01*
X62660Y250394D01*
X62775Y249815D01*
X63103Y249324D01*
X63594Y248996D01*
X64173Y248880D01*
X64752Y248996D01*
X65243Y249324D01*
X65571Y249815D01*
X65687Y250394D01*
X65571Y250973D01*
X65243Y251464D01*
X64752Y251792D01*
X64173Y251907D01*
D02*
G37*
G36*
X49409Y251019D02*
X48869Y250912D01*
X48410Y250605D01*
X48104Y250147D01*
X47997Y249606D01*
X48104Y249066D01*
X48410Y248607D01*
X48869Y248301D01*
X49409Y248193D01*
X49950Y248301D01*
X50409Y248607D01*
X50715Y249066D01*
X50822Y249606D01*
X50715Y250147D01*
X50409Y250605D01*
X49950Y250912D01*
X49409Y251019D01*
D02*
G37*
G36*
X40748Y249445D02*
X40207Y249337D01*
X39749Y249031D01*
X39443Y248572D01*
X39335Y248031D01*
X39443Y247491D01*
X39749Y247032D01*
X40207Y246726D01*
X40748Y246619D01*
X41289Y246726D01*
X41747Y247032D01*
X42053Y247491D01*
X42161Y248031D01*
X42053Y248572D01*
X41747Y249031D01*
X41289Y249337D01*
X40748Y249445D01*
D02*
G37*
G36*
X35827D02*
X35286Y249337D01*
X34828Y249031D01*
X34521Y248572D01*
X34414Y248031D01*
X34521Y247491D01*
X34828Y247032D01*
X35286Y246726D01*
X35827Y246619D01*
X36367Y246726D01*
X36826Y247032D01*
X37132Y247491D01*
X37240Y248031D01*
X37132Y248572D01*
X36826Y249031D01*
X36367Y249337D01*
X35827Y249445D01*
D02*
G37*
G36*
X30709Y249248D02*
X30168Y249140D01*
X29710Y248834D01*
X29403Y248375D01*
X29296Y247835D01*
X29403Y247294D01*
X29710Y246835D01*
X30168Y246529D01*
X30709Y246422D01*
X31249Y246529D01*
X31708Y246835D01*
X32014Y247294D01*
X32122Y247835D01*
X32014Y248375D01*
X31708Y248834D01*
X31249Y249140D01*
X30709Y249248D01*
D02*
G37*
G36*
X25787D02*
X25247Y249140D01*
X24788Y248834D01*
X24482Y248375D01*
X24374Y247835D01*
X24482Y247294D01*
X24788Y246835D01*
X25247Y246529D01*
X25787Y246422D01*
X26328Y246529D01*
X26787Y246835D01*
X27093Y247294D01*
X27200Y247835D01*
X27093Y248375D01*
X26787Y248834D01*
X26328Y249140D01*
X25787Y249248D01*
D02*
G37*
G36*
X20669D02*
X20129Y249140D01*
X19670Y248834D01*
X19364Y248375D01*
X19256Y247835D01*
X19364Y247294D01*
X19670Y246835D01*
X20129Y246529D01*
X20669Y246422D01*
X21210Y246529D01*
X21668Y246835D01*
X21975Y247294D01*
X22082Y247835D01*
X21975Y248375D01*
X21668Y248834D01*
X21210Y249140D01*
X20669Y249248D01*
D02*
G37*
G36*
X15748Y248854D02*
X15207Y248746D01*
X14749Y248440D01*
X14443Y247982D01*
X14335Y247441D01*
X14443Y246900D01*
X14749Y246442D01*
X15207Y246135D01*
X15748Y246028D01*
X16289Y246135D01*
X16747Y246442D01*
X17053Y246900D01*
X17161Y247441D01*
X17053Y247982D01*
X16747Y248440D01*
X16289Y248746D01*
X15748Y248854D01*
D02*
G37*
G36*
X101807Y247333D02*
X101228Y247218D01*
X100737Y246890D01*
X100409Y246399D01*
X100294Y245820D01*
X100409Y245241D01*
X100737Y244750D01*
X101228Y244422D01*
X101807Y244307D01*
X102386Y244422D01*
X102877Y244750D01*
X103205Y245241D01*
X103320Y245820D01*
X103205Y246399D01*
X102877Y246890D01*
X102386Y247218D01*
X101807Y247333D01*
D02*
G37*
G36*
X97476D02*
X96897Y247218D01*
X96406Y246890D01*
X96078Y246399D01*
X95963Y245820D01*
X96078Y245241D01*
X96406Y244750D01*
X96897Y244422D01*
X97476Y244307D01*
X98055Y244422D01*
X98546Y244750D01*
X98874Y245241D01*
X98990Y245820D01*
X98874Y246399D01*
X98546Y246890D01*
X98055Y247218D01*
X97476Y247333D01*
D02*
G37*
G36*
X101807Y243003D02*
X101228Y242887D01*
X100737Y242559D01*
X100409Y242069D01*
X100294Y241489D01*
X100409Y240910D01*
X100737Y240419D01*
X101228Y240091D01*
X101807Y239976D01*
X102386Y240091D01*
X102877Y240419D01*
X103205Y240910D01*
X103320Y241489D01*
X103205Y242069D01*
X102877Y242559D01*
X102386Y242887D01*
X101807Y243003D01*
D02*
G37*
G36*
X97476D02*
X96897Y242887D01*
X96406Y242559D01*
X96078Y242069D01*
X95963Y241489D01*
X96078Y240910D01*
X96406Y240419D01*
X96897Y240091D01*
X97476Y239976D01*
X98055Y240091D01*
X98546Y240419D01*
X98874Y240910D01*
X98990Y241489D01*
X98874Y242069D01*
X98546Y242559D01*
X98055Y242887D01*
X97476Y243003D01*
D02*
G37*
G36*
X63189Y241177D02*
X62648Y241069D01*
X62190Y240763D01*
X61884Y240304D01*
X61776Y239764D01*
X61884Y239223D01*
X62190Y238765D01*
X62648Y238458D01*
X63189Y238351D01*
X63730Y238458D01*
X64188Y238765D01*
X64494Y239223D01*
X64602Y239764D01*
X64494Y240304D01*
X64188Y240763D01*
X63730Y241069D01*
X63189Y241177D01*
D02*
G37*
G36*
X44291D02*
X43751Y241069D01*
X43292Y240763D01*
X42986Y240304D01*
X42878Y239764D01*
X42986Y239223D01*
X43292Y238765D01*
X43751Y238458D01*
X44291Y238351D01*
X44832Y238458D01*
X45290Y238765D01*
X45597Y239223D01*
X45704Y239764D01*
X45597Y240304D01*
X45290Y240763D01*
X44832Y241069D01*
X44291Y241177D01*
D02*
G37*
G36*
X12205D02*
X11664Y241069D01*
X11206Y240763D01*
X10899Y240304D01*
X10792Y239764D01*
X10899Y239223D01*
X11206Y238765D01*
X11664Y238458D01*
X12205Y238351D01*
X12745Y238458D01*
X13204Y238765D01*
X13510Y239223D01*
X13618Y239764D01*
X13510Y240304D01*
X13204Y240763D01*
X12745Y241069D01*
X12205Y241177D01*
D02*
G37*
G36*
X105512Y234090D02*
X104971Y233983D01*
X104513Y233676D01*
X104206Y233218D01*
X104099Y232677D01*
X104206Y232137D01*
X104513Y231678D01*
X104971Y231372D01*
X105512Y231264D01*
X106052Y231372D01*
X106511Y231678D01*
X106817Y232137D01*
X106925Y232677D01*
X106817Y233218D01*
X106511Y233676D01*
X106052Y233983D01*
X105512Y234090D01*
D02*
G37*
G36*
X96457D02*
X95916Y233983D01*
X95458Y233676D01*
X95151Y233218D01*
X95044Y232677D01*
X95151Y232137D01*
X95458Y231678D01*
X95916Y231372D01*
X96457Y231264D01*
X96997Y231372D01*
X97456Y231678D01*
X97762Y232137D01*
X97870Y232677D01*
X97762Y233218D01*
X97456Y233676D01*
X96997Y233983D01*
X96457Y234090D01*
D02*
G37*
G36*
X46850Y227791D02*
X46310Y227683D01*
X45851Y227377D01*
X45545Y226919D01*
X45437Y226378D01*
X45545Y225837D01*
X45851Y225379D01*
X46310Y225073D01*
X46850Y224965D01*
X47391Y225073D01*
X47850Y225379D01*
X48156Y225837D01*
X48263Y226378D01*
X48156Y226919D01*
X47850Y227377D01*
X47391Y227683D01*
X46850Y227791D01*
D02*
G37*
G36*
X38780D02*
X38239Y227683D01*
X37780Y227377D01*
X37474Y226919D01*
X37367Y226378D01*
X37474Y225837D01*
X37780Y225379D01*
X38239Y225073D01*
X38780Y224965D01*
X39320Y225073D01*
X39779Y225379D01*
X40085Y225837D01*
X40192Y226378D01*
X40085Y226919D01*
X39779Y227377D01*
X39320Y227683D01*
X38780Y227791D01*
D02*
G37*
G36*
X30315D02*
X29774Y227683D01*
X29316Y227377D01*
X29010Y226919D01*
X28902Y226378D01*
X29010Y225837D01*
X29316Y225379D01*
X29774Y225073D01*
X30315Y224965D01*
X30856Y225073D01*
X31314Y225379D01*
X31620Y225837D01*
X31728Y226378D01*
X31620Y226919D01*
X31314Y227377D01*
X30856Y227683D01*
X30315Y227791D01*
D02*
G37*
G36*
X23228D02*
X22688Y227683D01*
X22229Y227377D01*
X21923Y226919D01*
X21815Y226378D01*
X21923Y225837D01*
X22229Y225379D01*
X22688Y225073D01*
X23228Y224965D01*
X23769Y225073D01*
X24227Y225379D01*
X24534Y225837D01*
X24641Y226378D01*
X24534Y226919D01*
X24227Y227377D01*
X23769Y227683D01*
X23228Y227791D01*
D02*
G37*
G36*
X12205D02*
X11664Y227683D01*
X11206Y227377D01*
X10899Y226919D01*
X10792Y226378D01*
X10899Y225837D01*
X11206Y225379D01*
X11664Y225073D01*
X12205Y224965D01*
X12745Y225073D01*
X13204Y225379D01*
X13510Y225837D01*
X13618Y226378D01*
X13510Y226919D01*
X13204Y227377D01*
X12745Y227683D01*
X12205Y227791D01*
D02*
G37*
G36*
X3937Y225901D02*
X3062Y225786D01*
X2246Y225448D01*
X1546Y224911D01*
X1008Y224211D01*
X671Y223395D01*
X555Y222520D01*
X671Y221644D01*
X1008Y220829D01*
X1546Y220128D01*
X2246Y219591D01*
X3062Y219253D01*
X3937Y219138D01*
X4812Y219253D01*
X5628Y219591D01*
X6328Y220128D01*
X6866Y220829D01*
X7203Y221644D01*
X7319Y222520D01*
X7203Y223395D01*
X6866Y224211D01*
X6328Y224911D01*
X5628Y225448D01*
X4812Y225786D01*
X3937Y225901D01*
D02*
G37*
G36*
X101772Y222064D02*
X101192Y221949D01*
X100702Y221621D01*
X100373Y221130D01*
X100258Y220551D01*
X100373Y219972D01*
X100702Y219481D01*
X101192Y219153D01*
X101772Y219038D01*
X102351Y219153D01*
X102842Y219481D01*
X103170Y219972D01*
X103285Y220551D01*
X103170Y221130D01*
X102842Y221621D01*
X102351Y221949D01*
X101772Y222064D01*
D02*
G37*
G36*
X97441D02*
X96862Y221949D01*
X96371Y221621D01*
X96043Y221130D01*
X95928Y220551D01*
X96043Y219972D01*
X96371Y219481D01*
X96862Y219153D01*
X97441Y219038D01*
X98020Y219153D01*
X98511Y219481D01*
X98839Y219972D01*
X98954Y220551D01*
X98839Y221130D01*
X98511Y221621D01*
X98020Y221949D01*
X97441Y222064D01*
D02*
G37*
G36*
X59449Y219129D02*
X58908Y219022D01*
X58450Y218716D01*
X58143Y218257D01*
X58036Y217717D01*
X58143Y217176D01*
X58450Y216717D01*
X58908Y216411D01*
X59449Y216304D01*
X59990Y216411D01*
X60448Y216717D01*
X60754Y217176D01*
X60862Y217717D01*
X60754Y218257D01*
X60448Y218716D01*
X59990Y219022D01*
X59449Y219129D01*
D02*
G37*
G36*
X101772Y217734D02*
X101192Y217618D01*
X100702Y217290D01*
X100373Y216799D01*
X100258Y216220D01*
X100373Y215641D01*
X100702Y215150D01*
X101192Y214822D01*
X101772Y214707D01*
X102351Y214822D01*
X102842Y215150D01*
X103170Y215641D01*
X103285Y216220D01*
X103170Y216799D01*
X102842Y217290D01*
X102351Y217618D01*
X101772Y217734D01*
D02*
G37*
G36*
X97441D02*
X96862Y217618D01*
X96371Y217290D01*
X96043Y216799D01*
X95928Y216220D01*
X96043Y215641D01*
X96371Y215150D01*
X96862Y214822D01*
X97441Y214707D01*
X98020Y214822D01*
X98511Y215150D01*
X98839Y215641D01*
X98954Y216220D01*
X98839Y216799D01*
X98511Y217290D01*
X98020Y217618D01*
X97441Y217734D01*
D02*
G37*
G36*
X46654Y217358D02*
X46113Y217250D01*
X45654Y216944D01*
X45348Y216486D01*
X45241Y215945D01*
X45348Y215404D01*
X45654Y214946D01*
X46113Y214639D01*
X46654Y214532D01*
X47194Y214639D01*
X47653Y214946D01*
X47959Y215404D01*
X48066Y215945D01*
X47959Y216486D01*
X47653Y216944D01*
X47194Y217250D01*
X46654Y217358D01*
D02*
G37*
G36*
X38189D02*
X37648Y217250D01*
X37190Y216944D01*
X36884Y216486D01*
X36776Y215945D01*
X36884Y215404D01*
X37190Y214946D01*
X37648Y214639D01*
X38189Y214532D01*
X38730Y214639D01*
X39188Y214946D01*
X39494Y215404D01*
X39602Y215945D01*
X39494Y216486D01*
X39188Y216944D01*
X38730Y217250D01*
X38189Y217358D01*
D02*
G37*
G36*
X24016Y220051D02*
X23259Y219951D01*
X22553Y219659D01*
X21948Y219194D01*
X21483Y218588D01*
X21190Y217883D01*
X21091Y217126D01*
X21190Y216369D01*
X21483Y215664D01*
X21948Y215058D01*
X22553Y214593D01*
X23259Y214301D01*
X24016Y214201D01*
X24773Y214301D01*
X25478Y214593D01*
X26084Y215058D01*
X26549Y215664D01*
X26841Y216369D01*
X26941Y217126D01*
X26841Y217883D01*
X26549Y218588D01*
X26084Y219194D01*
X25478Y219659D01*
X24773Y219951D01*
X24016Y220051D01*
D02*
G37*
G36*
X3937Y215901D02*
X3062Y215786D01*
X2246Y215448D01*
X1546Y214911D01*
X1008Y214211D01*
X671Y213395D01*
X555Y212520D01*
X671Y211644D01*
X1008Y210829D01*
X1546Y210128D01*
X2246Y209591D01*
X3062Y209253D01*
X3937Y209138D01*
X4812Y209253D01*
X5628Y209591D01*
X6328Y210128D01*
X6866Y210829D01*
X7203Y211644D01*
X7319Y212520D01*
X7203Y213395D01*
X6866Y214211D01*
X6328Y214911D01*
X5628Y215448D01*
X4812Y215786D01*
X3937Y215901D01*
D02*
G37*
G36*
X51968Y211649D02*
X51428Y211542D01*
X50969Y211235D01*
X50663Y210777D01*
X50555Y210236D01*
X50663Y209696D01*
X50969Y209237D01*
X51428Y208931D01*
X51968Y208823D01*
X52509Y208931D01*
X52622Y209007D01*
X52983Y208646D01*
X52828Y208415D01*
X52721Y207874D01*
X52828Y207333D01*
X53135Y206875D01*
X53593Y206569D01*
X54134Y206461D01*
X54675Y206569D01*
X55133Y206875D01*
X55439Y207333D01*
X55547Y207874D01*
X55439Y208415D01*
X55133Y208873D01*
X54675Y209179D01*
X54134Y209287D01*
X53593Y209179D01*
X53480Y209104D01*
X53119Y209464D01*
X53274Y209696D01*
X53382Y210236D01*
X53274Y210777D01*
X52968Y211235D01*
X52509Y211542D01*
X51968Y211649D01*
D02*
G37*
G36*
X24016Y212177D02*
X23259Y212077D01*
X22553Y211785D01*
X21948Y211320D01*
X21483Y210715D01*
X21190Y210009D01*
X21091Y209252D01*
X21190Y208495D01*
X21483Y207789D01*
X21948Y207184D01*
X22553Y206719D01*
X23259Y206427D01*
X24016Y206327D01*
X24773Y206427D01*
X25478Y206719D01*
X26084Y207184D01*
X26549Y207789D01*
X26841Y208495D01*
X26941Y209252D01*
X26841Y210009D01*
X26549Y210715D01*
X26084Y211320D01*
X25478Y211785D01*
X24773Y212077D01*
X24016Y212177D01*
D02*
G37*
G36*
X105512Y208893D02*
X104971Y208786D01*
X104513Y208479D01*
X104206Y208021D01*
X104099Y207480D01*
X104206Y206940D01*
X104513Y206481D01*
X104971Y206175D01*
X105512Y206067D01*
X106052Y206175D01*
X106511Y206481D01*
X106817Y206940D01*
X106925Y207480D01*
X106817Y208021D01*
X106511Y208479D01*
X106052Y208786D01*
X105512Y208893D01*
D02*
G37*
G36*
X68504Y208600D02*
X67925Y208485D01*
X67434Y208157D01*
X67106Y207666D01*
X66991Y207087D01*
X67106Y206507D01*
X67434Y206016D01*
X67925Y205689D01*
X68504Y205573D01*
X69083Y205689D01*
X69574Y206016D01*
X69902Y206507D01*
X70017Y207087D01*
X69902Y207666D01*
X69574Y208157D01*
X69083Y208485D01*
X68504Y208600D01*
D02*
G37*
G36*
X72835Y208600D02*
X72255Y208485D01*
X71765Y208157D01*
X71437Y207666D01*
X71321Y207087D01*
X71437Y206507D01*
X71765Y206016D01*
X72255Y205689D01*
X72835Y205573D01*
X73414Y205689D01*
X73905Y206016D01*
X74233Y206507D01*
X74348Y207087D01*
X74233Y207666D01*
X73905Y208157D01*
X73414Y208485D01*
X72835Y208600D01*
D02*
G37*
G36*
X64173D02*
X63594Y208485D01*
X63103Y208157D01*
X62775Y207666D01*
X62660Y207087D01*
X62775Y206507D01*
X63103Y206016D01*
X63594Y205689D01*
X64173Y205573D01*
X64752Y205689D01*
X65243Y206016D01*
X65571Y206507D01*
X65687Y207087D01*
X65571Y207666D01*
X65243Y208157D01*
X64752Y208485D01*
X64173Y208600D01*
D02*
G37*
G36*
X99213Y206137D02*
X98672Y206030D01*
X98213Y205724D01*
X97907Y205265D01*
X97800Y204724D01*
X97907Y204184D01*
X98174Y203785D01*
X98095Y203559D01*
X97926Y203324D01*
X97638Y203381D01*
X97097Y203274D01*
X96639Y202968D01*
X96512Y202778D01*
X88976D01*
X88976Y202778D01*
X88667Y202716D01*
X88404Y202541D01*
X78955Y193092D01*
X78780Y192829D01*
X78718Y192520D01*
X78718Y192520D01*
Y177500D01*
X67998Y166781D01*
X67871Y166590D01*
X67842Y166584D01*
X67383Y166278D01*
X67077Y165820D01*
X66969Y165279D01*
X67077Y164738D01*
X67383Y164280D01*
X67842Y163974D01*
X68382Y163866D01*
X68923Y163974D01*
X69381Y164280D01*
X69460Y164397D01*
X70061D01*
X70139Y164280D01*
X70598Y163974D01*
X71138Y163866D01*
X71679Y163974D01*
X72137Y164280D01*
X72216Y164397D01*
X72817D01*
X72895Y164280D01*
X73353Y163974D01*
X73894Y163866D01*
X74435Y163974D01*
X74893Y164280D01*
X75257D01*
X75716Y163974D01*
X76256Y163866D01*
X76797Y163974D01*
X77256Y164280D01*
X77562Y164738D01*
X77669Y165279D01*
X77562Y165820D01*
X77259Y166272D01*
X84505Y173518D01*
X85005Y173311D01*
Y160165D01*
X84603Y159763D01*
X84070Y159660D01*
X83612Y159967D01*
X83071Y160074D01*
X82530Y159967D01*
X82072Y159660D01*
X81766Y159202D01*
X81658Y158661D01*
X81766Y158121D01*
X82072Y157662D01*
X82189Y157584D01*
Y156983D01*
X82072Y156905D01*
X81766Y156446D01*
X81658Y155905D01*
X81766Y155365D01*
X82072Y154906D01*
X82189Y154828D01*
Y154227D01*
X82072Y154149D01*
X81766Y153690D01*
X81658Y153150D01*
X81766Y152609D01*
X82072Y152150D01*
Y151786D01*
X81766Y151328D01*
X81658Y150787D01*
X81766Y150247D01*
X82072Y149788D01*
X82530Y149482D01*
X83071Y149374D01*
X83612Y149482D01*
X84070Y149788D01*
X84197Y149978D01*
X87008D01*
X87008Y149978D01*
X87318Y150040D01*
X87580Y150215D01*
X89942Y152577D01*
X89942Y152577D01*
X90118Y152840D01*
X90179Y153150D01*
X90179Y153150D01*
Y154201D01*
X90186Y154233D01*
X90186Y154233D01*
Y174474D01*
X95445Y179734D01*
X95669Y179689D01*
X96210Y179797D01*
X96668Y180103D01*
X96975Y180562D01*
X97082Y181102D01*
X96975Y181643D01*
X96668Y182102D01*
X96210Y182408D01*
X95669Y182515D01*
X95129Y182408D01*
X94670Y182102D01*
X94364Y181643D01*
X94256Y181102D01*
X94301Y180878D01*
X89460Y176038D01*
X88998Y176229D01*
Y180767D01*
X92296Y184065D01*
X92520Y184020D01*
X93060Y184128D01*
X93519Y184434D01*
X93825Y184892D01*
X93933Y185433D01*
X93825Y185974D01*
X93519Y186432D01*
X93060Y186739D01*
X92520Y186846D01*
X91979Y186739D01*
X91521Y186432D01*
X91214Y185974D01*
X91107Y185433D01*
X91151Y185209D01*
X88273Y182331D01*
X87811Y182522D01*
Y187060D01*
X89146Y188395D01*
X89370Y188351D01*
X89911Y188458D01*
X90369Y188765D01*
X90675Y189223D01*
X90783Y189764D01*
X90675Y190305D01*
X90369Y190763D01*
X89911Y191069D01*
X89370Y191177D01*
X89287Y191160D01*
X88906Y191498D01*
Y191966D01*
X89287Y192304D01*
X89370Y192288D01*
X89911Y192395D01*
X90369Y192702D01*
X90675Y193160D01*
X90783Y193701D01*
X90675Y194241D01*
X90369Y194700D01*
X89911Y195006D01*
X89370Y195114D01*
X89207Y195081D01*
X88782Y195507D01*
X88815Y195669D01*
X88707Y196210D01*
X88401Y196668D01*
X88002Y196935D01*
X87849Y197282D01*
X87801Y197441D01*
X88370Y198010D01*
X91394D01*
X91521Y197820D01*
X91979Y197513D01*
X92520Y197406D01*
X93060Y197513D01*
X93519Y197820D01*
X93825Y198278D01*
X93933Y198819D01*
X93825Y199360D01*
X93519Y199818D01*
X93060Y200124D01*
X92520Y200232D01*
X91979Y200124D01*
X91521Y199818D01*
X91394Y199628D01*
X88488D01*
X88280Y200128D01*
X89312Y201159D01*
X96512D01*
X96639Y200969D01*
X97097Y200663D01*
X97638Y200555D01*
X98178Y200663D01*
X98637Y200969D01*
X98943Y201428D01*
X99051Y201969D01*
X98943Y202509D01*
X98677Y202908D01*
X98756Y203133D01*
X98924Y203369D01*
X99213Y203311D01*
X99753Y203419D01*
X100212Y203725D01*
X100518Y204184D01*
X100626Y204724D01*
X100518Y205265D01*
X100212Y205724D01*
X99753Y206030D01*
X99213Y206137D01*
D02*
G37*
G36*
X72835Y204269D02*
X72255Y204154D01*
X71765Y203826D01*
X71437Y203335D01*
X71321Y202756D01*
X71437Y202177D01*
X71765Y201686D01*
X72255Y201358D01*
X72835Y201243D01*
X73414Y201358D01*
X73905Y201686D01*
X74233Y202177D01*
X74348Y202756D01*
X74233Y203335D01*
X73905Y203826D01*
X73414Y204154D01*
X72835Y204269D01*
D02*
G37*
G36*
X68504D02*
X67925Y204154D01*
X67434Y203826D01*
X67106Y203335D01*
X66991Y202756D01*
X67106Y202177D01*
X67434Y201686D01*
X67925Y201358D01*
X68504Y201243D01*
X69083Y201358D01*
X69574Y201686D01*
X69902Y202177D01*
X70017Y202756D01*
X69902Y203335D01*
X69574Y203826D01*
X69083Y204154D01*
X68504Y204269D01*
D02*
G37*
G36*
X64173D02*
X63594Y204154D01*
X63103Y203826D01*
X62775Y203335D01*
X62660Y202756D01*
X62775Y202177D01*
X63103Y201686D01*
X63594Y201358D01*
X64173Y201243D01*
X64752Y201358D01*
X65243Y201686D01*
X65571Y202177D01*
X65687Y202756D01*
X65571Y203335D01*
X65243Y203826D01*
X64752Y204154D01*
X64173Y204269D01*
D02*
G37*
G36*
X106728Y203040D02*
X106188Y202933D01*
X105729Y202626D01*
X105423Y202168D01*
X105315Y201627D01*
X105423Y201086D01*
X105729Y200628D01*
X105846Y200550D01*
Y199949D01*
X105729Y199870D01*
X105423Y199412D01*
X105315Y198871D01*
X105423Y198330D01*
X105729Y197872D01*
X106188Y197566D01*
X106728Y197458D01*
X107269Y197566D01*
X107727Y197872D01*
X108034Y198330D01*
X108141Y198871D01*
X108034Y199412D01*
X107727Y199870D01*
X107610Y199949D01*
Y200550D01*
X107727Y200628D01*
X108034Y201086D01*
X108141Y201627D01*
X108034Y202168D01*
X107727Y202626D01*
X107269Y202933D01*
X106728Y203040D01*
D02*
G37*
G36*
X72835Y199938D02*
X72255Y199823D01*
X71765Y199495D01*
X71437Y199004D01*
X71321Y198425D01*
X71437Y197846D01*
X71765Y197355D01*
X72255Y197027D01*
X72835Y196912D01*
X73414Y197027D01*
X73905Y197355D01*
X74233Y197846D01*
X74348Y198425D01*
X74233Y199004D01*
X73905Y199495D01*
X73414Y199823D01*
X72835Y199938D01*
D02*
G37*
G36*
X68504D02*
X67925Y199823D01*
X67434Y199495D01*
X67106Y199004D01*
X66991Y198425D01*
X67106Y197846D01*
X67434Y197355D01*
X67925Y197027D01*
X68504Y196912D01*
X69083Y197027D01*
X69574Y197355D01*
X69902Y197846D01*
X70017Y198425D01*
X69902Y199004D01*
X69574Y199495D01*
X69083Y199823D01*
X68504Y199938D01*
D02*
G37*
G36*
X64173D02*
X63594Y199823D01*
X63103Y199495D01*
X62775Y199004D01*
X62660Y198425D01*
X62775Y197846D01*
X63103Y197355D01*
X63594Y197027D01*
X64173Y196912D01*
X64752Y197027D01*
X65243Y197355D01*
X65571Y197846D01*
X65687Y198425D01*
X65571Y199004D01*
X65243Y199495D01*
X64752Y199823D01*
X64173Y199938D01*
D02*
G37*
G36*
X49606Y198854D02*
X49066Y198746D01*
X48607Y198440D01*
X48301Y197982D01*
X48193Y197441D01*
X48301Y196900D01*
X48607Y196442D01*
X49066Y196135D01*
X49606Y196028D01*
X50147Y196135D01*
X50605Y196442D01*
X50912Y196900D01*
X51019Y197441D01*
X50912Y197982D01*
X50605Y198440D01*
X50147Y198746D01*
X49606Y198854D01*
D02*
G37*
G36*
X101807Y195365D02*
X101228Y195250D01*
X100737Y194922D01*
X100409Y194431D01*
X100294Y193851D01*
X100409Y193272D01*
X100737Y192781D01*
X101228Y192453D01*
X101807Y192338D01*
X102386Y192453D01*
X102877Y192781D01*
X103205Y193272D01*
X103320Y193851D01*
X103205Y194431D01*
X102877Y194922D01*
X102386Y195250D01*
X101807Y195365D01*
D02*
G37*
G36*
X97476D02*
X96897Y195250D01*
X96406Y194922D01*
X96078Y194431D01*
X95963Y193851D01*
X96078Y193272D01*
X96406Y192781D01*
X96897Y192453D01*
X97476Y192338D01*
X98055Y192453D01*
X98546Y192781D01*
X98874Y193272D01*
X98990Y193851D01*
X98874Y194431D01*
X98546Y194922D01*
X98055Y195250D01*
X97476Y195365D01*
D02*
G37*
G36*
X3937Y205901D02*
X3062Y205786D01*
X2246Y205448D01*
X1546Y204911D01*
X1008Y204210D01*
X671Y203395D01*
X555Y202520D01*
X671Y201644D01*
X1008Y200829D01*
X1546Y200129D01*
X2246Y199591D01*
X3062Y199253D01*
X3937Y199138D01*
X4812Y199253D01*
X5628Y199591D01*
X6328Y200129D01*
X6866Y200829D01*
X7148Y201510D01*
X8873D01*
X10407Y199975D01*
Y192717D01*
Y163804D01*
X8637Y162034D01*
X7148D01*
X6866Y162715D01*
X6328Y163415D01*
X5628Y163952D01*
X4812Y164290D01*
X3937Y164405D01*
X3062Y164290D01*
X2246Y163952D01*
X1546Y163415D01*
X1008Y162715D01*
X671Y161899D01*
X555Y161024D01*
X671Y160148D01*
X1008Y159333D01*
X1546Y158632D01*
X2246Y158095D01*
X3062Y157757D01*
X3937Y157642D01*
X4812Y157757D01*
X5628Y158095D01*
X6328Y158632D01*
X6866Y159333D01*
X7148Y160014D01*
X9055D01*
X9442Y160090D01*
X9769Y160310D01*
X12132Y162672D01*
X12350Y162999D01*
X12427Y163386D01*
Y191707D01*
X21588D01*
X21948Y191239D01*
X22553Y190774D01*
X23259Y190482D01*
X24016Y190382D01*
X24773Y190482D01*
X25478Y190774D01*
X26084Y191239D01*
X26549Y191845D01*
X26841Y192550D01*
X26941Y193307D01*
X26841Y194064D01*
X26549Y194770D01*
X26084Y195375D01*
X25478Y195840D01*
X24773Y196132D01*
X24016Y196232D01*
X23259Y196132D01*
X22553Y195840D01*
X21948Y195375D01*
X21483Y194770D01*
X21190Y194064D01*
X21146Y193727D01*
X12427D01*
Y200394D01*
X12350Y200780D01*
X12132Y201108D01*
X10006Y203234D01*
X9678Y203453D01*
X9291Y203530D01*
X7148D01*
X6866Y204210D01*
X6328Y204911D01*
X5628Y205448D01*
X4812Y205786D01*
X3937Y205901D01*
D02*
G37*
G36*
X7290Y195872D02*
X584D01*
Y189167D01*
X7290D01*
Y195872D01*
D02*
G37*
G36*
X101807Y191034D02*
X101228Y190919D01*
X100737Y190591D01*
X100409Y190100D01*
X100294Y189521D01*
X100409Y188942D01*
X100737Y188451D01*
X101228Y188123D01*
X101807Y188007D01*
X102386Y188123D01*
X102877Y188451D01*
X103205Y188942D01*
X103320Y189521D01*
X103205Y190100D01*
X102877Y190591D01*
X102386Y190919D01*
X101807Y191034D01*
D02*
G37*
G36*
X97476D02*
X96897Y190919D01*
X96406Y190591D01*
X96078Y190100D01*
X95963Y189521D01*
X96078Y188942D01*
X96406Y188451D01*
X96897Y188123D01*
X97476Y188007D01*
X98055Y188123D01*
X98546Y188451D01*
X98874Y188942D01*
X98990Y189521D01*
X98874Y190100D01*
X98546Y190591D01*
X98055Y190919D01*
X97476Y191034D01*
D02*
G37*
G36*
X62917Y189053D02*
X62377Y188946D01*
X61918Y188639D01*
X61612Y188181D01*
X61504Y187640D01*
X61612Y187100D01*
X61918Y186641D01*
X62377Y186335D01*
X62917Y186227D01*
X63458Y186335D01*
X63916Y186641D01*
X64223Y187100D01*
X64330Y187640D01*
X64223Y188181D01*
X63916Y188639D01*
X63458Y188946D01*
X62917Y189053D01*
D02*
G37*
G36*
X24016Y188358D02*
X23259Y188258D01*
X22553Y187966D01*
X21948Y187501D01*
X21483Y186896D01*
X21190Y186190D01*
X21091Y185433D01*
X21190Y184676D01*
X21483Y183971D01*
X21948Y183365D01*
X22553Y182900D01*
X23259Y182608D01*
X24016Y182508D01*
X24773Y182608D01*
X25478Y182900D01*
X26084Y183365D01*
X26549Y183971D01*
X26841Y184676D01*
X26941Y185433D01*
X26841Y186190D01*
X26549Y186896D01*
X26084Y187501D01*
X25478Y187966D01*
X24773Y188258D01*
X24016Y188358D01*
D02*
G37*
G36*
X105118Y182122D02*
X104577Y182014D01*
X104119Y181708D01*
X103813Y181249D01*
X103705Y180709D01*
X103813Y180168D01*
X104119Y179709D01*
X104577Y179403D01*
X105118Y179296D01*
X105659Y179403D01*
X106117Y179709D01*
X106423Y180168D01*
X106531Y180709D01*
X106423Y181249D01*
X106117Y181708D01*
X105659Y182014D01*
X105118Y182122D01*
D02*
G37*
G36*
X22047Y180744D02*
X21507Y180636D01*
X21048Y180330D01*
X20742Y179871D01*
X20634Y179331D01*
X20742Y178790D01*
X21048Y178332D01*
X21507Y178025D01*
X22047Y177918D01*
X22588Y178025D01*
X23046Y178332D01*
X23353Y178790D01*
X23460Y179331D01*
X23353Y179871D01*
X23046Y180330D01*
X22588Y180636D01*
X22047Y180744D01*
D02*
G37*
G36*
X3937Y184405D02*
X3062Y184290D01*
X2246Y183952D01*
X1546Y183415D01*
X1008Y182714D01*
X671Y181899D01*
X555Y181024D01*
X671Y180148D01*
X1008Y179333D01*
X1546Y178632D01*
X2246Y178095D01*
X3062Y177757D01*
X3937Y177642D01*
X4812Y177757D01*
X5628Y178095D01*
X6328Y178632D01*
X6866Y179333D01*
X7203Y180148D01*
X7319Y181024D01*
X7203Y181899D01*
X6866Y182714D01*
X6328Y183415D01*
X5628Y183952D01*
X4812Y184290D01*
X3937Y184405D01*
D02*
G37*
G36*
X99016Y179563D02*
X98475Y179455D01*
X98017Y179149D01*
X97710Y178690D01*
X97603Y178150D01*
X97710Y177609D01*
X98017Y177150D01*
X98475Y176844D01*
X99016Y176737D01*
X99556Y176844D01*
X100015Y177150D01*
X100321Y177609D01*
X100429Y178150D01*
X100321Y178690D01*
X100015Y179149D01*
X99556Y179455D01*
X99016Y179563D01*
D02*
G37*
G36*
X3937Y174405D02*
X3062Y174290D01*
X2246Y173952D01*
X1546Y173415D01*
X1008Y172714D01*
X671Y171899D01*
X555Y171024D01*
X671Y170148D01*
X1008Y169333D01*
X1546Y168632D01*
X2246Y168095D01*
X3062Y167757D01*
X3937Y167642D01*
X4812Y167757D01*
X5628Y168095D01*
X6328Y168632D01*
X6866Y169333D01*
X7203Y170148D01*
X7319Y171024D01*
X7203Y171899D01*
X6866Y172714D01*
X6328Y173415D01*
X5628Y173952D01*
X4812Y174290D01*
X3937Y174405D01*
D02*
G37*
G36*
X101772Y170089D02*
X101192Y169974D01*
X100702Y169646D01*
X100373Y169155D01*
X100258Y168576D01*
X100373Y167997D01*
X100702Y167506D01*
X101192Y167178D01*
X101772Y167063D01*
X102351Y167178D01*
X102842Y167506D01*
X103170Y167997D01*
X103285Y168576D01*
X103170Y169155D01*
X102842Y169646D01*
X102351Y169974D01*
X101772Y170089D01*
D02*
G37*
G36*
X97441D02*
X96862Y169974D01*
X96371Y169646D01*
X96043Y169155D01*
X95928Y168576D01*
X96043Y167997D01*
X96371Y167506D01*
X96862Y167178D01*
X97441Y167063D01*
X98020Y167178D01*
X98511Y167506D01*
X98839Y167997D01*
X98954Y168576D01*
X98839Y169155D01*
X98511Y169646D01*
X98020Y169974D01*
X97441Y170089D01*
D02*
G37*
G36*
X59842Y167161D02*
X59302Y167053D01*
X58843Y166747D01*
X58537Y166289D01*
X58429Y165748D01*
X58537Y165207D01*
X58843Y164749D01*
X59302Y164443D01*
X59842Y164335D01*
X60383Y164443D01*
X60842Y164749D01*
X61148Y165207D01*
X61256Y165748D01*
X61148Y166289D01*
X60842Y166747D01*
X60383Y167053D01*
X59842Y167161D01*
D02*
G37*
G36*
X101772Y165759D02*
X101192Y165644D01*
X100702Y165316D01*
X100373Y164825D01*
X100258Y164245D01*
X100373Y163666D01*
X100702Y163175D01*
X101192Y162847D01*
X101772Y162732D01*
X102351Y162847D01*
X102842Y163175D01*
X103170Y163666D01*
X103285Y164245D01*
X103170Y164825D01*
X102842Y165316D01*
X102351Y165644D01*
X101772Y165759D01*
D02*
G37*
G36*
X97441D02*
X96862Y165644D01*
X96371Y165316D01*
X96043Y164825D01*
X95928Y164245D01*
X96043Y163666D01*
X96371Y163175D01*
X96862Y162847D01*
X97441Y162732D01*
X98020Y162847D01*
X98511Y163175D01*
X98839Y163666D01*
X98954Y164245D01*
X98839Y164825D01*
X98511Y165316D01*
X98020Y165644D01*
X97441Y165759D01*
D02*
G37*
G36*
X18307Y159681D02*
X17766Y159573D01*
X17308Y159267D01*
X17002Y158808D01*
X16894Y158268D01*
X17002Y157727D01*
X17308Y157269D01*
X17766Y156962D01*
X18307Y156855D01*
X18848Y156962D01*
X19306Y157269D01*
X19613Y157727D01*
X19720Y158268D01*
X19613Y158808D01*
X19306Y159267D01*
X18848Y159573D01*
X18307Y159681D01*
D02*
G37*
G36*
X51968D02*
X51428Y159573D01*
X50969Y159267D01*
X50663Y158808D01*
X50555Y158268D01*
X50663Y157727D01*
X50969Y157269D01*
X51428Y156962D01*
X51968Y156855D01*
X52509Y156962D01*
X52622Y157038D01*
X52983Y156677D01*
X52828Y156446D01*
X52721Y155905D01*
X52828Y155365D01*
X53135Y154906D01*
X53593Y154600D01*
X54134Y154492D01*
X54675Y154600D01*
X55133Y154906D01*
X55439Y155365D01*
X55547Y155905D01*
X55439Y156446D01*
X55133Y156905D01*
X54675Y157211D01*
X54134Y157318D01*
X53593Y157211D01*
X53480Y157135D01*
X53119Y157496D01*
X53274Y157727D01*
X53382Y158268D01*
X53274Y158808D01*
X52968Y159267D01*
X52509Y159573D01*
X51968Y159681D01*
D02*
G37*
G36*
X72835Y156631D02*
X72255Y156516D01*
X71765Y156188D01*
X71437Y155697D01*
X71321Y155118D01*
X71437Y154539D01*
X71765Y154048D01*
X72255Y153720D01*
X72835Y153605D01*
X73414Y153720D01*
X73905Y154048D01*
X74233Y154539D01*
X74348Y155118D01*
X74233Y155697D01*
X73905Y156188D01*
X73414Y156516D01*
X72835Y156631D01*
D02*
G37*
G36*
X64173D02*
X63594Y156516D01*
X63103Y156188D01*
X62775Y155697D01*
X62660Y155118D01*
X62775Y154539D01*
X63103Y154048D01*
X63594Y153720D01*
X64173Y153605D01*
X64752Y153720D01*
X65243Y154048D01*
X65571Y154539D01*
X65687Y155118D01*
X65571Y155697D01*
X65243Y156188D01*
X64752Y156516D01*
X64173Y156631D01*
D02*
G37*
G36*
X68504Y156631D02*
X67925Y156516D01*
X67434Y156188D01*
X67106Y155697D01*
X66991Y155118D01*
X67106Y154539D01*
X67434Y154048D01*
X67925Y153720D01*
X68504Y153605D01*
X69083Y153720D01*
X69574Y154048D01*
X69902Y154539D01*
X70017Y155118D01*
X69902Y155697D01*
X69574Y156188D01*
X69083Y156516D01*
X68504Y156631D01*
D02*
G37*
G36*
X104724Y156137D02*
X104184Y156030D01*
X103725Y155724D01*
X103419Y155265D01*
X103311Y154724D01*
X103419Y154184D01*
X103725Y153725D01*
X104184Y153419D01*
X104724Y153311D01*
X105265Y153419D01*
X105724Y153725D01*
X106030Y154184D01*
X106137Y154724D01*
X106030Y155265D01*
X105724Y155724D01*
X105265Y156030D01*
X104724Y156137D01*
D02*
G37*
G36*
X19882Y155547D02*
X19341Y155439D01*
X18883Y155133D01*
X18576Y154675D01*
X18469Y154134D01*
X18576Y153593D01*
X18883Y153135D01*
X19341Y152828D01*
X19882Y152721D01*
X20423Y152828D01*
X20881Y153135D01*
X21187Y153593D01*
X21295Y154134D01*
X21187Y154675D01*
X20881Y155133D01*
X20423Y155439D01*
X19882Y155547D01*
D02*
G37*
G36*
X98634Y153529D02*
X98093Y153421D01*
X97635Y153115D01*
X97329Y152657D01*
X97221Y152116D01*
X97329Y151575D01*
X97635Y151117D01*
X98093Y150811D01*
X98634Y150703D01*
X99175Y150811D01*
X99633Y151117D01*
X99939Y151575D01*
X100047Y152116D01*
X99939Y152657D01*
X99633Y153115D01*
X99175Y153421D01*
X98634Y153529D01*
D02*
G37*
G36*
X64173Y152301D02*
X63594Y152185D01*
X63103Y151857D01*
X62775Y151366D01*
X62660Y150787D01*
X62775Y150208D01*
X63103Y149717D01*
X63594Y149389D01*
X64173Y149274D01*
X64752Y149389D01*
X65243Y149717D01*
X65571Y150208D01*
X65687Y150787D01*
X65571Y151366D01*
X65243Y151857D01*
X64752Y152185D01*
X64173Y152301D01*
D02*
G37*
G36*
X72835Y152301D02*
X72255Y152185D01*
X71764Y151857D01*
X71437Y151366D01*
X71321Y150787D01*
X71437Y150208D01*
X71764Y149717D01*
X72255Y149389D01*
X72835Y149274D01*
X73414Y149389D01*
X73905Y149717D01*
X74233Y150208D01*
X74348Y150787D01*
X74233Y151366D01*
X73905Y151857D01*
X73414Y152185D01*
X72835Y152301D01*
D02*
G37*
G36*
X68504D02*
X67925Y152185D01*
X67434Y151857D01*
X67106Y151366D01*
X66991Y150787D01*
X67106Y150208D01*
X67434Y149717D01*
X67925Y149389D01*
X68504Y149274D01*
X69083Y149389D01*
X69574Y149717D01*
X69902Y150208D01*
X70017Y150787D01*
X69902Y151366D01*
X69574Y151857D01*
X69083Y152185D01*
X68504Y152301D01*
D02*
G37*
G36*
X7290Y154376D02*
X584D01*
Y147671D01*
X7290D01*
Y154376D01*
D02*
G37*
G36*
X106728Y151072D02*
X106188Y150964D01*
X105729Y150658D01*
X105423Y150199D01*
X105315Y149659D01*
X105423Y149118D01*
X105729Y148660D01*
X105846Y148581D01*
Y147980D01*
X105729Y147902D01*
X105423Y147443D01*
X105315Y146903D01*
X105423Y146362D01*
X105729Y145904D01*
X106188Y145597D01*
X106728Y145490D01*
X107269Y145597D01*
X107727Y145904D01*
X108034Y146362D01*
X108141Y146903D01*
X108034Y147443D01*
X107727Y147902D01*
X107610Y147980D01*
Y148581D01*
X107727Y148660D01*
X108034Y149118D01*
X108141Y149659D01*
X108034Y150199D01*
X107727Y150658D01*
X107269Y150964D01*
X106728Y151072D01*
D02*
G37*
G36*
X68504Y147970D02*
X67925Y147855D01*
X67434Y147527D01*
X67106Y147036D01*
X66991Y146457D01*
X67106Y145878D01*
X67434Y145387D01*
X67925Y145059D01*
X68504Y144943D01*
X69083Y145059D01*
X69574Y145387D01*
X69902Y145878D01*
X70017Y146457D01*
X69902Y147036D01*
X69574Y147527D01*
X69083Y147855D01*
X68504Y147970D01*
D02*
G37*
G36*
X72835Y147970D02*
X72255Y147855D01*
X71765Y147527D01*
X71437Y147036D01*
X71321Y146457D01*
X71437Y145878D01*
X71765Y145387D01*
X72255Y145059D01*
X72835Y144943D01*
X73414Y145059D01*
X73905Y145387D01*
X74233Y145878D01*
X74348Y146457D01*
X74233Y147036D01*
X73905Y147527D01*
X73414Y147855D01*
X72835Y147970D01*
D02*
G37*
G36*
X64173D02*
X63594Y147855D01*
X63103Y147527D01*
X62775Y147036D01*
X62660Y146457D01*
X62775Y145878D01*
X63103Y145387D01*
X63594Y145059D01*
X64173Y144943D01*
X64752Y145059D01*
X65243Y145387D01*
X65571Y145878D01*
X65687Y146457D01*
X65571Y147036D01*
X65243Y147527D01*
X64752Y147855D01*
X64173Y147970D01*
D02*
G37*
G36*
X49606Y147082D02*
X49066Y146975D01*
X48607Y146668D01*
X48301Y146210D01*
X48193Y145669D01*
X48301Y145129D01*
X48607Y144670D01*
X49066Y144364D01*
X49606Y144256D01*
X50147Y144364D01*
X50605Y144670D01*
X50912Y145129D01*
X51019Y145669D01*
X50912Y146210D01*
X50605Y146668D01*
X50147Y146975D01*
X49606Y147082D01*
D02*
G37*
G36*
X22047Y144720D02*
X21507Y144613D01*
X21048Y144306D01*
X20742Y143848D01*
X20634Y143307D01*
X20742Y142766D01*
X21048Y142308D01*
X21507Y142002D01*
X22047Y141894D01*
X22588Y142002D01*
X23046Y142308D01*
X23353Y142766D01*
X23460Y143307D01*
X23353Y143848D01*
X23046Y144306D01*
X22588Y144613D01*
X22047Y144720D01*
D02*
G37*
G36*
X97476Y143396D02*
X96897Y143281D01*
X96406Y142953D01*
X96078Y142462D01*
X95963Y141883D01*
X96078Y141304D01*
X96406Y140813D01*
X96897Y140485D01*
X97476Y140370D01*
X98055Y140485D01*
X98546Y140813D01*
X98874Y141304D01*
X98990Y141883D01*
X98874Y142462D01*
X98546Y142953D01*
X98055Y143281D01*
X97476Y143396D01*
D02*
G37*
G36*
X101807Y143396D02*
X101228Y143281D01*
X100737Y142953D01*
X100409Y142462D01*
X100294Y141883D01*
X100409Y141304D01*
X100737Y140813D01*
X101228Y140485D01*
X101807Y140370D01*
X102386Y140485D01*
X102877Y140813D01*
X103205Y141304D01*
X103320Y141883D01*
X103205Y142462D01*
X102877Y142953D01*
X102386Y143281D01*
X101807Y143396D01*
D02*
G37*
G36*
X29724Y142358D02*
X29184Y142250D01*
X28725Y141944D01*
X28419Y141486D01*
X28311Y140945D01*
X28419Y140404D01*
X28725Y139946D01*
X29184Y139639D01*
X29724Y139532D01*
X30265Y139639D01*
X30724Y139946D01*
X31030Y140404D01*
X31137Y140945D01*
X31030Y141486D01*
X30724Y141944D01*
X30265Y142250D01*
X29724Y142358D01*
D02*
G37*
G36*
X101807Y139066D02*
X101228Y138951D01*
X100737Y138622D01*
X100409Y138131D01*
X100294Y137552D01*
X100409Y136973D01*
X100737Y136482D01*
X101228Y136154D01*
X101807Y136039D01*
X102386Y136154D01*
X102877Y136482D01*
X103205Y136973D01*
X103320Y137552D01*
X103205Y138131D01*
X102877Y138622D01*
X102386Y138951D01*
X101807Y139066D01*
D02*
G37*
G36*
X97476Y139066D02*
X96897Y138951D01*
X96406Y138622D01*
X96078Y138131D01*
X95963Y137552D01*
X96078Y136973D01*
X96406Y136482D01*
X96897Y136154D01*
X97476Y136039D01*
X98055Y136154D01*
X98546Y136482D01*
X98874Y136973D01*
X98990Y137552D01*
X98874Y138131D01*
X98546Y138622D01*
X98055Y138951D01*
X97476Y139066D01*
D02*
G37*
G36*
X63189Y137043D02*
X62648Y136935D01*
X62190Y136629D01*
X61884Y136171D01*
X61776Y135630D01*
X61884Y135089D01*
X62190Y134631D01*
X62648Y134325D01*
X63189Y134217D01*
X63730Y134325D01*
X64188Y134631D01*
X64494Y135089D01*
X64602Y135630D01*
X64494Y136171D01*
X64188Y136629D01*
X63730Y136935D01*
X63189Y137043D01*
D02*
G37*
G36*
X12992Y135862D02*
X12451Y135754D01*
X11993Y135448D01*
X11687Y134990D01*
X11579Y134449D01*
X11687Y133908D01*
X11993Y133450D01*
X12451Y133143D01*
X12992Y133036D01*
X13533Y133143D01*
X13991Y133450D01*
X14298Y133908D01*
X14405Y134449D01*
X14298Y134990D01*
X13991Y135448D01*
X13533Y135754D01*
X12992Y135862D01*
D02*
G37*
G36*
X21138Y134619D02*
X20597Y134511D01*
X20139Y134205D01*
X19833Y133747D01*
X19725Y133206D01*
X19833Y132665D01*
X20139Y132207D01*
X20597Y131901D01*
X21138Y131793D01*
X21679Y131901D01*
X22137Y132207D01*
X22444Y132665D01*
X22551Y133206D01*
X22444Y133747D01*
X22137Y134205D01*
X21679Y134511D01*
X21138Y134619D01*
D02*
G37*
G36*
X105118Y130153D02*
X104577Y130046D01*
X104119Y129739D01*
X103813Y129281D01*
X103705Y128740D01*
X103813Y128199D01*
X104119Y127741D01*
X104577Y127435D01*
X105118Y127327D01*
X105659Y127435D01*
X106117Y127741D01*
X106423Y128199D01*
X106531Y128740D01*
X106423Y129281D01*
X106117Y129739D01*
X105659Y130046D01*
X105118Y130153D01*
D02*
G37*
G36*
X47047D02*
X46507Y130046D01*
X46048Y129739D01*
X45742Y129281D01*
X45634Y128740D01*
X45742Y128199D01*
X46048Y127741D01*
X46507Y127435D01*
X47047Y127327D01*
X47588Y127435D01*
X48046Y127741D01*
X48353Y128199D01*
X48460Y128740D01*
X48353Y129281D01*
X48046Y129739D01*
X47588Y130046D01*
X47047Y130153D01*
D02*
G37*
G36*
X10591D02*
X10050Y130046D01*
X9591Y129739D01*
X9285Y129281D01*
X9178Y128740D01*
X9285Y128199D01*
X9591Y127741D01*
X10050Y127435D01*
X10591Y127327D01*
X11131Y127435D01*
X11590Y127741D01*
X11896Y128199D01*
X12004Y128740D01*
X11896Y129281D01*
X11590Y129739D01*
X11131Y130046D01*
X10591Y130153D01*
D02*
G37*
G36*
X31102Y129393D02*
X30400Y129254D01*
X29805Y128856D01*
X29408Y128261D01*
X29268Y127559D01*
X29408Y126857D01*
X29805Y126262D01*
X30400Y125864D01*
X31102Y125725D01*
X31804Y125864D01*
X32399Y126262D01*
X32797Y126857D01*
X32937Y127559D01*
X32797Y128261D01*
X32399Y128856D01*
X31804Y129254D01*
X31102Y129393D01*
D02*
G37*
G36*
X26378D02*
X25676Y129254D01*
X25081Y128856D01*
X24683Y128261D01*
X24543Y127559D01*
X24683Y126857D01*
X25081Y126262D01*
X25676Y125864D01*
X26378Y125725D01*
X27080Y125864D01*
X27675Y126262D01*
X28073Y126857D01*
X28212Y127559D01*
X28073Y128261D01*
X27675Y128856D01*
X27080Y129254D01*
X26378Y129393D01*
D02*
G37*
G36*
X98920Y127714D02*
X98379Y127606D01*
X97921Y127300D01*
X97615Y126841D01*
X97507Y126301D01*
X97615Y125760D01*
X97921Y125301D01*
X98379Y124995D01*
X98920Y124888D01*
X99461Y124995D01*
X99919Y125301D01*
X100226Y125760D01*
X100333Y126301D01*
X100226Y126841D01*
X99919Y127300D01*
X99461Y127606D01*
X98920Y127714D01*
D02*
G37*
G36*
X47047Y124838D02*
X46507Y124731D01*
X46048Y124424D01*
X45742Y123966D01*
X45634Y123425D01*
X45742Y122885D01*
X46048Y122426D01*
X46507Y122120D01*
X47047Y122012D01*
X47588Y122120D01*
X48046Y122426D01*
X48353Y122885D01*
X48460Y123425D01*
X48353Y123966D01*
X48046Y124424D01*
X47588Y124731D01*
X47047Y124838D01*
D02*
G37*
G36*
X31102Y124669D02*
X30400Y124530D01*
X29805Y124132D01*
X29408Y123537D01*
X29268Y122835D01*
X29408Y122133D01*
X29805Y121537D01*
X30400Y121140D01*
X31102Y121000D01*
X31804Y121140D01*
X32399Y121537D01*
X32797Y122133D01*
X32937Y122835D01*
X32797Y123537D01*
X32399Y124132D01*
X31804Y124530D01*
X31102Y124669D01*
D02*
G37*
G36*
X26378D02*
X25676Y124530D01*
X25081Y124132D01*
X24683Y123537D01*
X24543Y122835D01*
X24683Y122133D01*
X25081Y121537D01*
X25676Y121140D01*
X26378Y121000D01*
X27080Y121140D01*
X27675Y121537D01*
X28073Y122133D01*
X28212Y122835D01*
X28073Y123537D01*
X27675Y124132D01*
X27080Y124530D01*
X26378Y124669D01*
D02*
G37*
G36*
X101772Y118156D02*
X101192Y118041D01*
X100702Y117713D01*
X100373Y117222D01*
X100258Y116643D01*
X100373Y116064D01*
X100702Y115573D01*
X101192Y115245D01*
X101772Y115130D01*
X102351Y115245D01*
X102842Y115573D01*
X103170Y116064D01*
X103285Y116643D01*
X103170Y117222D01*
X102842Y117713D01*
X102351Y118041D01*
X101772Y118156D01*
D02*
G37*
G36*
X97441D02*
X96862Y118041D01*
X96371Y117713D01*
X96043Y117222D01*
X95928Y116643D01*
X96043Y116064D01*
X96371Y115573D01*
X96862Y115245D01*
X97441Y115130D01*
X98020Y115245D01*
X98511Y115573D01*
X98839Y116064D01*
X98954Y116643D01*
X98839Y117222D01*
X98511Y117713D01*
X98020Y118041D01*
X97441Y118156D01*
D02*
G37*
G36*
X60184Y115241D02*
X59643Y115133D01*
X59184Y114827D01*
X58878Y114369D01*
X58771Y113828D01*
X58878Y113287D01*
X59184Y112829D01*
X59643Y112523D01*
X60184Y112415D01*
X60724Y112523D01*
X61183Y112829D01*
X61489Y113287D01*
X61597Y113828D01*
X61489Y114369D01*
X61183Y114827D01*
X60724Y115133D01*
X60184Y115241D01*
D02*
G37*
G36*
X33858Y115192D02*
X33318Y115085D01*
X32859Y114779D01*
X32553Y114320D01*
X32445Y113779D01*
X32553Y113239D01*
X32859Y112780D01*
X33318Y112474D01*
X33858Y112367D01*
X34399Y112474D01*
X34857Y112780D01*
X35164Y113239D01*
X35271Y113779D01*
X35164Y114320D01*
X34857Y114779D01*
X34399Y115085D01*
X33858Y115192D01*
D02*
G37*
G36*
X101772Y113826D02*
X101192Y113710D01*
X100702Y113382D01*
X100373Y112891D01*
X100258Y112312D01*
X100373Y111733D01*
X100702Y111242D01*
X101192Y110914D01*
X101772Y110799D01*
X102351Y110914D01*
X102842Y111242D01*
X103170Y111733D01*
X103285Y112312D01*
X103170Y112891D01*
X102842Y113382D01*
X102351Y113710D01*
X101772Y113826D01*
D02*
G37*
G36*
X97441D02*
X96862Y113710D01*
X96371Y113382D01*
X96043Y112891D01*
X95928Y112312D01*
X96043Y111733D01*
X96371Y111242D01*
X96862Y110914D01*
X97441Y110799D01*
X98020Y110914D01*
X98511Y111242D01*
X98839Y111733D01*
X98954Y112312D01*
X98839Y112891D01*
X98511Y113382D01*
X98020Y113710D01*
X97441Y113826D01*
D02*
G37*
G36*
X34252Y107909D02*
X33711Y107801D01*
X33253Y107495D01*
X32947Y107037D01*
X32839Y106496D01*
X32947Y105955D01*
X33253Y105497D01*
X33711Y105191D01*
X34252Y105083D01*
X34793Y105191D01*
X35251Y105497D01*
X35557Y105955D01*
X35665Y106496D01*
X35557Y107037D01*
X35251Y107495D01*
X34793Y107801D01*
X34252Y107909D01*
D02*
G37*
G36*
X51968Y107712D02*
X51428Y107605D01*
X50969Y107298D01*
X50663Y106840D01*
X50555Y106299D01*
X50663Y105759D01*
X50969Y105300D01*
X51428Y104994D01*
X51968Y104886D01*
X52509Y104994D01*
X52622Y105069D01*
X52983Y104709D01*
X52828Y104478D01*
X52721Y103937D01*
X52828Y103396D01*
X53135Y102938D01*
X53593Y102632D01*
X54134Y102524D01*
X54675Y102632D01*
X55133Y102938D01*
X55439Y103396D01*
X55547Y103937D01*
X55439Y104478D01*
X55133Y104936D01*
X54675Y105242D01*
X54134Y105350D01*
X53593Y105242D01*
X53480Y105167D01*
X53119Y105527D01*
X53274Y105759D01*
X53382Y106299D01*
X53274Y106840D01*
X52968Y107298D01*
X52509Y107605D01*
X51968Y107712D01*
D02*
G37*
G36*
X105118Y104956D02*
X104577Y104849D01*
X104119Y104542D01*
X103813Y104084D01*
X103705Y103543D01*
X103813Y103003D01*
X104119Y102544D01*
X104577Y102238D01*
X105118Y102130D01*
X105659Y102238D01*
X106117Y102544D01*
X106423Y103003D01*
X106531Y103543D01*
X106423Y104084D01*
X106117Y104542D01*
X105659Y104849D01*
X105118Y104956D01*
D02*
G37*
G36*
X39370Y104563D02*
X38829Y104455D01*
X38371Y104149D01*
X38065Y103690D01*
X37957Y103150D01*
X38065Y102609D01*
X38371Y102150D01*
X38829Y101844D01*
X39370Y101737D01*
X39911Y101844D01*
X40369Y102150D01*
X40676Y102609D01*
X40783Y103150D01*
X40676Y103690D01*
X40369Y104149D01*
X39911Y104455D01*
X39370Y104563D01*
D02*
G37*
G36*
X72835Y104663D02*
X72255Y104548D01*
X71765Y104220D01*
X71437Y103729D01*
X71321Y103150D01*
X71437Y102570D01*
X71765Y102079D01*
X72255Y101751D01*
X72835Y101636D01*
X73414Y101751D01*
X73905Y102079D01*
X74233Y102570D01*
X74348Y103150D01*
X74233Y103729D01*
X73905Y104220D01*
X73414Y104548D01*
X72835Y104663D01*
D02*
G37*
G36*
X64173D02*
X63594Y104548D01*
X63103Y104220D01*
X62775Y103729D01*
X62660Y103150D01*
X62775Y102570D01*
X63103Y102079D01*
X63594Y101751D01*
X64173Y101636D01*
X64752Y101751D01*
X65243Y102079D01*
X65571Y102570D01*
X65687Y103150D01*
X65571Y103729D01*
X65243Y104220D01*
X64752Y104548D01*
X64173Y104663D01*
D02*
G37*
G36*
X68504Y104663D02*
X67925Y104548D01*
X67434Y104220D01*
X67106Y103729D01*
X66991Y103150D01*
X67106Y102570D01*
X67434Y102079D01*
X67925Y101751D01*
X68504Y101636D01*
X69083Y101751D01*
X69574Y102079D01*
X69902Y102570D01*
X70017Y103150D01*
X69902Y103729D01*
X69574Y104220D01*
X69083Y104548D01*
X68504Y104663D01*
D02*
G37*
G36*
X98819Y102200D02*
X98278Y102093D01*
X97820Y101786D01*
X97514Y101328D01*
X97406Y100787D01*
X97514Y100247D01*
X97723Y99932D01*
X97696Y99777D01*
X97557Y99475D01*
X97511Y99419D01*
X97097Y99337D01*
X96639Y99031D01*
X96512Y98841D01*
X88976D01*
X88976Y98841D01*
X88667Y98779D01*
X88404Y98604D01*
X78955Y89155D01*
X78780Y88892D01*
X78718Y88583D01*
X78718Y88583D01*
Y73563D01*
X67998Y62844D01*
X67871Y62653D01*
X67842Y62647D01*
X67383Y62341D01*
X67077Y61883D01*
X66969Y61342D01*
X67077Y60801D01*
X67383Y60343D01*
X67842Y60037D01*
X68382Y59929D01*
X68923Y60037D01*
X69381Y60343D01*
X69460Y60460D01*
X70061D01*
X70139Y60343D01*
X70598Y60037D01*
X71138Y59929D01*
X71679Y60037D01*
X72137Y60343D01*
X72216Y60460D01*
X72817D01*
X72895Y60343D01*
X73353Y60037D01*
X73894Y59929D01*
X74435Y60037D01*
X74893Y60343D01*
X75257D01*
X75716Y60037D01*
X76256Y59929D01*
X76797Y60037D01*
X77256Y60343D01*
X77562Y60801D01*
X77669Y61342D01*
X77562Y61883D01*
X77259Y62335D01*
X84505Y69581D01*
X85005Y69374D01*
Y56228D01*
X84603Y55826D01*
X84070Y55724D01*
X83612Y56030D01*
X83071Y56137D01*
X82530Y56030D01*
X82072Y55724D01*
X81766Y55265D01*
X81658Y54724D01*
X81766Y54184D01*
X82072Y53725D01*
X82189Y53647D01*
Y53046D01*
X82072Y52968D01*
X81766Y52509D01*
X81658Y51968D01*
X81766Y51428D01*
X82072Y50969D01*
X82189Y50891D01*
Y50290D01*
X82072Y50212D01*
X81766Y49753D01*
X81658Y49213D01*
X81766Y48672D01*
X82072Y48213D01*
Y47850D01*
X81766Y47391D01*
X81658Y46850D01*
X81766Y46310D01*
X82072Y45851D01*
X82530Y45545D01*
X83071Y45437D01*
X83612Y45545D01*
X84070Y45851D01*
X84197Y46041D01*
X87008D01*
X87008Y46041D01*
X87318Y46103D01*
X87580Y46278D01*
X89942Y48640D01*
X89942Y48640D01*
X90118Y48903D01*
X90179Y49213D01*
X90179Y49213D01*
Y50264D01*
X90186Y50296D01*
X90186Y50296D01*
Y70537D01*
X95445Y75797D01*
X95669Y75752D01*
X96210Y75860D01*
X96668Y76166D01*
X96975Y76625D01*
X97082Y77165D01*
X96975Y77706D01*
X96668Y78164D01*
X96210Y78471D01*
X95669Y78578D01*
X95129Y78471D01*
X94670Y78164D01*
X94364Y77706D01*
X94256Y77165D01*
X94301Y76941D01*
X89460Y72101D01*
X88998Y72292D01*
Y76830D01*
X92296Y80128D01*
X92520Y80083D01*
X93060Y80191D01*
X93519Y80497D01*
X93825Y80955D01*
X93933Y81496D01*
X93825Y82037D01*
X93519Y82495D01*
X93060Y82802D01*
X92520Y82909D01*
X91979Y82802D01*
X91521Y82495D01*
X91214Y82037D01*
X91107Y81496D01*
X91151Y81272D01*
X88273Y78394D01*
X87811Y78585D01*
Y83123D01*
X89146Y84458D01*
X89370Y84414D01*
X89911Y84521D01*
X90369Y84828D01*
X90675Y85286D01*
X90783Y85827D01*
X90675Y86367D01*
X90369Y86826D01*
X89911Y87132D01*
X89370Y87240D01*
X89287Y87223D01*
X88906Y87561D01*
Y88029D01*
X89287Y88367D01*
X89370Y88351D01*
X89911Y88458D01*
X90369Y88765D01*
X90675Y89223D01*
X90783Y89764D01*
X90675Y90304D01*
X90369Y90763D01*
X89911Y91069D01*
X89370Y91177D01*
X89207Y91144D01*
X88782Y91570D01*
X88815Y91732D01*
X88707Y92273D01*
X88401Y92731D01*
X88002Y92998D01*
X87849Y93345D01*
X87801Y93504D01*
X88370Y94073D01*
X91394D01*
X91521Y93883D01*
X91979Y93577D01*
X92520Y93469D01*
X93060Y93577D01*
X93519Y93883D01*
X93825Y94341D01*
X93933Y94882D01*
X93825Y95423D01*
X93519Y95881D01*
X93060Y96187D01*
X92520Y96295D01*
X91979Y96187D01*
X91521Y95881D01*
X91394Y95691D01*
X88488D01*
X88280Y96191D01*
X89312Y97222D01*
X96512D01*
X96639Y97032D01*
X97097Y96726D01*
X97638Y96618D01*
X98178Y96726D01*
X98637Y97032D01*
X98943Y97491D01*
X99051Y98032D01*
X98943Y98572D01*
X98733Y98886D01*
X98761Y99042D01*
X98900Y99344D01*
X98946Y99400D01*
X99360Y99482D01*
X99818Y99788D01*
X100124Y100247D01*
X100232Y100787D01*
X100124Y101328D01*
X99818Y101786D01*
X99360Y102093D01*
X98819Y102200D01*
D02*
G37*
G36*
X49409Y100232D02*
X48869Y100124D01*
X48410Y99818D01*
X48104Y99360D01*
X47997Y98819D01*
X48104Y98278D01*
X48410Y97820D01*
X48869Y97514D01*
X49409Y97406D01*
X49950Y97514D01*
X50409Y97820D01*
X50715Y98278D01*
X50822Y98819D01*
X50715Y99360D01*
X50409Y99818D01*
X49950Y100124D01*
X49409Y100232D01*
D02*
G37*
G36*
X72835Y100332D02*
X72255Y100217D01*
X71764Y99889D01*
X71437Y99398D01*
X71321Y98819D01*
X71437Y98240D01*
X71764Y97749D01*
X72255Y97421D01*
X72835Y97306D01*
X73414Y97421D01*
X73905Y97749D01*
X74233Y98240D01*
X74348Y98819D01*
X74233Y99398D01*
X73905Y99889D01*
X73414Y100217D01*
X72835Y100332D01*
D02*
G37*
G36*
X68504D02*
X67925Y100217D01*
X67434Y99889D01*
X67106Y99398D01*
X66991Y98819D01*
X67106Y98240D01*
X67434Y97749D01*
X67925Y97421D01*
X68504Y97306D01*
X69083Y97421D01*
X69574Y97749D01*
X69902Y98240D01*
X70017Y98819D01*
X69902Y99398D01*
X69574Y99889D01*
X69083Y100217D01*
X68504Y100332D01*
D02*
G37*
G36*
X64173D02*
X63594Y100217D01*
X63103Y99889D01*
X62775Y99398D01*
X62660Y98819D01*
X62775Y98240D01*
X63103Y97749D01*
X63594Y97421D01*
X64173Y97306D01*
X64752Y97421D01*
X65243Y97749D01*
X65571Y98240D01*
X65687Y98819D01*
X65571Y99398D01*
X65243Y99889D01*
X64752Y100217D01*
X64173Y100332D01*
D02*
G37*
G36*
X106728Y99103D02*
X106188Y98996D01*
X105729Y98689D01*
X105423Y98231D01*
X105315Y97690D01*
X105423Y97149D01*
X105729Y96691D01*
X105846Y96613D01*
Y96012D01*
X105729Y95933D01*
X105423Y95475D01*
X105315Y94934D01*
X105423Y94393D01*
X105729Y93935D01*
X106188Y93629D01*
X106728Y93521D01*
X107269Y93629D01*
X107727Y93935D01*
X108034Y94393D01*
X108141Y94934D01*
X108034Y95475D01*
X107727Y95933D01*
X107610Y96012D01*
Y96613D01*
X107727Y96691D01*
X108034Y97149D01*
X108141Y97690D01*
X108034Y98231D01*
X107727Y98689D01*
X107269Y98996D01*
X106728Y99103D01*
D02*
G37*
G36*
X72835Y96001D02*
X72255Y95886D01*
X71765Y95558D01*
X71437Y95067D01*
X71321Y94488D01*
X71437Y93909D01*
X71765Y93418D01*
X72255Y93090D01*
X72835Y92975D01*
X73414Y93090D01*
X73905Y93418D01*
X74233Y93909D01*
X74348Y94488D01*
X74233Y95067D01*
X73905Y95558D01*
X73414Y95886D01*
X72835Y96001D01*
D02*
G37*
G36*
X68504D02*
X67925Y95886D01*
X67434Y95558D01*
X67106Y95067D01*
X66991Y94488D01*
X67106Y93909D01*
X67434Y93418D01*
X67925Y93090D01*
X68504Y92975D01*
X69083Y93090D01*
X69574Y93418D01*
X69902Y93909D01*
X70017Y94488D01*
X69902Y95067D01*
X69574Y95558D01*
X69083Y95886D01*
X68504Y96001D01*
D02*
G37*
G36*
X64173D02*
X63594Y95886D01*
X63103Y95558D01*
X62775Y95067D01*
X62660Y94488D01*
X62775Y93909D01*
X63103Y93418D01*
X63594Y93090D01*
X64173Y92975D01*
X64752Y93090D01*
X65243Y93418D01*
X65571Y93909D01*
X65687Y94488D01*
X65571Y95067D01*
X65243Y95558D01*
X64752Y95886D01*
X64173Y96001D01*
D02*
G37*
G36*
X101807Y91428D02*
X101228Y91313D01*
X100737Y90985D01*
X100409Y90494D01*
X100294Y89915D01*
X100409Y89335D01*
X100737Y88844D01*
X101228Y88516D01*
X101807Y88401D01*
X102386Y88516D01*
X102877Y88844D01*
X103205Y89335D01*
X103320Y89915D01*
X103205Y90494D01*
X102877Y90985D01*
X102386Y91313D01*
X101807Y91428D01*
D02*
G37*
G36*
X97476D02*
X96897Y91313D01*
X96406Y90985D01*
X96078Y90494D01*
X95963Y89915D01*
X96078Y89335D01*
X96406Y88844D01*
X96897Y88516D01*
X97476Y88401D01*
X98055Y88516D01*
X98546Y88844D01*
X98874Y89335D01*
X98990Y89915D01*
X98874Y90494D01*
X98546Y90985D01*
X98055Y91313D01*
X97476Y91428D01*
D02*
G37*
G36*
X45472Y90193D02*
X44932Y90085D01*
X44473Y89779D01*
X44167Y89320D01*
X44060Y88779D01*
X44167Y88239D01*
X44473Y87780D01*
X44932Y87474D01*
X45472Y87367D01*
X46013Y87474D01*
X46472Y87780D01*
X46778Y88239D01*
X46885Y88779D01*
X46778Y89320D01*
X46472Y89779D01*
X46013Y90085D01*
X45472Y90193D01*
D02*
G37*
G36*
X38386D02*
X37845Y90085D01*
X37387Y89779D01*
X37080Y89320D01*
X36973Y88779D01*
X37080Y88239D01*
X37387Y87780D01*
X37845Y87474D01*
X38386Y87367D01*
X38927Y87474D01*
X39385Y87780D01*
X39691Y88239D01*
X39799Y88779D01*
X39691Y89320D01*
X39385Y89779D01*
X38927Y90085D01*
X38386Y90193D01*
D02*
G37*
G36*
X32874D02*
X32333Y90085D01*
X31875Y89779D01*
X31569Y89320D01*
X31461Y88779D01*
X31569Y88239D01*
X31875Y87780D01*
X32333Y87474D01*
X32874Y87367D01*
X33415Y87474D01*
X33873Y87780D01*
X34179Y88239D01*
X34287Y88779D01*
X34179Y89320D01*
X33873Y89779D01*
X33415Y90085D01*
X32874Y90193D01*
D02*
G37*
G36*
X28346D02*
X27806Y90085D01*
X27347Y89779D01*
X27041Y89320D01*
X26934Y88779D01*
X27041Y88239D01*
X27347Y87780D01*
X27806Y87474D01*
X28346Y87367D01*
X28887Y87474D01*
X29346Y87780D01*
X29652Y88239D01*
X29759Y88779D01*
X29652Y89320D01*
X29346Y89779D01*
X28887Y90085D01*
X28346Y90193D01*
D02*
G37*
G36*
X23425D02*
X22885Y90085D01*
X22426Y89779D01*
X22120Y89320D01*
X22012Y88779D01*
X22120Y88239D01*
X22426Y87780D01*
X22885Y87474D01*
X23425Y87367D01*
X23966Y87474D01*
X24424Y87780D01*
X24731Y88239D01*
X24838Y88779D01*
X24731Y89320D01*
X24424Y89779D01*
X23966Y90085D01*
X23425Y90193D01*
D02*
G37*
G36*
X18898D02*
X18357Y90085D01*
X17898Y89779D01*
X17592Y89320D01*
X17485Y88779D01*
X17592Y88239D01*
X17898Y87780D01*
X18357Y87474D01*
X18898Y87367D01*
X19438Y87474D01*
X19897Y87780D01*
X20203Y88239D01*
X20311Y88779D01*
X20203Y89320D01*
X19897Y89779D01*
X19438Y90085D01*
X18898Y90193D01*
D02*
G37*
G36*
X14173D02*
X13633Y90085D01*
X13174Y89779D01*
X12868Y89320D01*
X12760Y88779D01*
X12868Y88239D01*
X13174Y87780D01*
X13633Y87474D01*
X14173Y87367D01*
X14714Y87474D01*
X15172Y87780D01*
X15479Y88239D01*
X15586Y88779D01*
X15479Y89320D01*
X15172Y89779D01*
X14714Y90085D01*
X14173Y90193D01*
D02*
G37*
G36*
X101807Y87097D02*
X101228Y86982D01*
X100737Y86654D01*
X100409Y86163D01*
X100294Y85584D01*
X100409Y85005D01*
X100737Y84514D01*
X101228Y84186D01*
X101807Y84070D01*
X102386Y84186D01*
X102877Y84514D01*
X103205Y85005D01*
X103320Y85584D01*
X103205Y86163D01*
X102877Y86654D01*
X102386Y86982D01*
X101807Y87097D01*
D02*
G37*
G36*
X97476D02*
X96897Y86982D01*
X96406Y86654D01*
X96078Y86163D01*
X95963Y85584D01*
X96078Y85005D01*
X96406Y84514D01*
X96897Y84186D01*
X97476Y84070D01*
X98055Y84186D01*
X98546Y84514D01*
X98874Y85005D01*
X98990Y85584D01*
X98874Y86163D01*
X98546Y86654D01*
X98055Y86982D01*
X97476Y87097D01*
D02*
G37*
G36*
X62992Y84878D02*
X62451Y84770D01*
X61993Y84464D01*
X61687Y84005D01*
X61579Y83465D01*
X61687Y82924D01*
X61993Y82465D01*
X62451Y82159D01*
X62992Y82052D01*
X63533Y82159D01*
X63991Y82465D01*
X64297Y82924D01*
X64405Y83465D01*
X64297Y84005D01*
X63991Y84464D01*
X63533Y84770D01*
X62992Y84878D01*
D02*
G37*
G36*
X105118Y78185D02*
X104577Y78077D01*
X104119Y77771D01*
X103813Y77312D01*
X103705Y76772D01*
X103813Y76231D01*
X104119Y75773D01*
X104577Y75466D01*
X105118Y75359D01*
X105659Y75466D01*
X106117Y75773D01*
X106423Y76231D01*
X106531Y76772D01*
X106423Y77312D01*
X106117Y77771D01*
X105659Y78077D01*
X105118Y78185D01*
D02*
G37*
G36*
X21063Y77397D02*
X20522Y77290D01*
X20064Y76983D01*
X19758Y76525D01*
X19650Y75984D01*
X19758Y75444D01*
X20064Y74985D01*
X20522Y74679D01*
X21063Y74571D01*
X21604Y74679D01*
X22062Y74985D01*
X22368Y75444D01*
X22476Y75984D01*
X22368Y76525D01*
X22062Y76983D01*
X21604Y77290D01*
X21063Y77397D01*
D02*
G37*
G36*
X16929D02*
X16388Y77290D01*
X15930Y76983D01*
X15624Y76525D01*
X15516Y75984D01*
X15624Y75444D01*
X15930Y74985D01*
X16388Y74679D01*
X16929Y74571D01*
X17470Y74679D01*
X17928Y74985D01*
X18235Y75444D01*
X18342Y75984D01*
X18235Y76525D01*
X17928Y76983D01*
X17470Y77290D01*
X16929Y77397D01*
D02*
G37*
G36*
X99055Y75586D02*
X98514Y75479D01*
X98056Y75172D01*
X97750Y74714D01*
X97642Y74173D01*
X97750Y73633D01*
X98056Y73174D01*
X98514Y72868D01*
X99055Y72760D01*
X99596Y72868D01*
X100054Y73174D01*
X100361Y73633D01*
X100468Y74173D01*
X100361Y74714D01*
X100054Y75172D01*
X99596Y75479D01*
X99055Y75586D01*
D02*
G37*
G36*
X40748Y70311D02*
X40207Y70203D01*
X39749Y69897D01*
X39443Y69438D01*
X39335Y68898D01*
X39443Y68357D01*
X39749Y67898D01*
X40207Y67592D01*
X40748Y67485D01*
X41289Y67592D01*
X41747Y67898D01*
X42053Y68357D01*
X42161Y68898D01*
X42053Y69438D01*
X41747Y69897D01*
X41289Y70203D01*
X40748Y70311D01*
D02*
G37*
G36*
X35827D02*
X35286Y70203D01*
X34828Y69897D01*
X34521Y69438D01*
X34414Y68898D01*
X34521Y68357D01*
X34828Y67898D01*
X35286Y67592D01*
X35827Y67485D01*
X36367Y67592D01*
X36826Y67898D01*
X37132Y68357D01*
X37240Y68898D01*
X37132Y69438D01*
X36826Y69897D01*
X36367Y70203D01*
X35827Y70311D01*
D02*
G37*
G36*
X30709D02*
X30168Y70203D01*
X29710Y69897D01*
X29403Y69438D01*
X29296Y68898D01*
X29403Y68357D01*
X29710Y67898D01*
X30168Y67592D01*
X30709Y67485D01*
X31249Y67592D01*
X31708Y67898D01*
X32014Y68357D01*
X32122Y68898D01*
X32014Y69438D01*
X31708Y69897D01*
X31249Y70203D01*
X30709Y70311D01*
D02*
G37*
G36*
X25984D02*
X25444Y70203D01*
X24985Y69897D01*
X24679Y69438D01*
X24571Y68898D01*
X24679Y68357D01*
X24985Y67898D01*
X25444Y67592D01*
X25984Y67485D01*
X26525Y67592D01*
X26983Y67898D01*
X27290Y68357D01*
X27397Y68898D01*
X27290Y69438D01*
X26983Y69897D01*
X26525Y70203D01*
X25984Y70311D01*
D02*
G37*
G36*
X101772Y66179D02*
X101192Y66063D01*
X100702Y65735D01*
X100373Y65245D01*
X100258Y64665D01*
X100373Y64086D01*
X100702Y63595D01*
X101192Y63267D01*
X101772Y63152D01*
X102351Y63267D01*
X102842Y63595D01*
X103170Y64086D01*
X103285Y64665D01*
X103170Y65245D01*
X102842Y65735D01*
X102351Y66063D01*
X101772Y66179D01*
D02*
G37*
G36*
X97441D02*
X96862Y66063D01*
X96371Y65735D01*
X96043Y65245D01*
X95928Y64665D01*
X96043Y64086D01*
X96371Y63595D01*
X96862Y63267D01*
X97441Y63152D01*
X98020Y63267D01*
X98511Y63595D01*
X98839Y64086D01*
X98954Y64665D01*
X98839Y65245D01*
X98511Y65735D01*
X98020Y66063D01*
X97441Y66179D01*
D02*
G37*
G36*
X59449Y63224D02*
X58908Y63116D01*
X58450Y62810D01*
X58143Y62352D01*
X58036Y61811D01*
X58143Y61270D01*
X58450Y60812D01*
X58908Y60506D01*
X59449Y60398D01*
X59990Y60506D01*
X60448Y60812D01*
X60754Y61270D01*
X60862Y61811D01*
X60754Y62352D01*
X60448Y62810D01*
X59990Y63116D01*
X59449Y63224D01*
D02*
G37*
G36*
X101772Y61848D02*
X101192Y61733D01*
X100702Y61405D01*
X100373Y60914D01*
X100258Y60335D01*
X100373Y59755D01*
X100702Y59265D01*
X101192Y58937D01*
X101772Y58821D01*
X102351Y58937D01*
X102842Y59265D01*
X103170Y59755D01*
X103285Y60335D01*
X103170Y60914D01*
X102842Y61405D01*
X102351Y61733D01*
X101772Y61848D01*
D02*
G37*
G36*
X97441D02*
X96862Y61733D01*
X96371Y61405D01*
X96043Y60914D01*
X95928Y60335D01*
X96043Y59755D01*
X96371Y59265D01*
X96862Y58937D01*
X97441Y58821D01*
X98020Y58937D01*
X98511Y59265D01*
X98839Y59755D01*
X98954Y60335D01*
X98839Y60914D01*
X98511Y61405D01*
X98020Y61733D01*
X97441Y61848D01*
D02*
G37*
G36*
X51968Y55744D02*
X51428Y55636D01*
X50969Y55330D01*
X50663Y54871D01*
X50555Y54331D01*
X50663Y53790D01*
X50969Y53332D01*
X51428Y53025D01*
X51968Y52918D01*
X52509Y53025D01*
X52622Y53101D01*
X52983Y52741D01*
X52828Y52509D01*
X52721Y51968D01*
X52828Y51428D01*
X53135Y50969D01*
X53593Y50663D01*
X54134Y50555D01*
X54675Y50663D01*
X55133Y50969D01*
X55439Y51428D01*
X55547Y51968D01*
X55439Y52509D01*
X55133Y52968D01*
X54675Y53274D01*
X54134Y53382D01*
X53593Y53274D01*
X53480Y53198D01*
X53119Y53559D01*
X53274Y53790D01*
X53382Y54331D01*
X53274Y54871D01*
X52968Y55330D01*
X52509Y55636D01*
X51968Y55744D01*
D02*
G37*
G36*
X105118Y52988D02*
X104577Y52880D01*
X104119Y52574D01*
X103813Y52115D01*
X103705Y51575D01*
X103813Y51034D01*
X104119Y50576D01*
X104577Y50269D01*
X105118Y50162D01*
X105659Y50269D01*
X106117Y50576D01*
X106423Y51034D01*
X106531Y51575D01*
X106423Y52115D01*
X106117Y52574D01*
X105659Y52880D01*
X105118Y52988D01*
D02*
G37*
G36*
X72835Y52694D02*
X72255Y52579D01*
X71765Y52251D01*
X71437Y51760D01*
X71321Y51181D01*
X71437Y50602D01*
X71765Y50111D01*
X72255Y49783D01*
X72835Y49668D01*
X73414Y49783D01*
X73905Y50111D01*
X74233Y50602D01*
X74348Y51181D01*
X74233Y51760D01*
X73905Y52251D01*
X73414Y52579D01*
X72835Y52694D01*
D02*
G37*
G36*
X64173D02*
X63594Y52579D01*
X63103Y52251D01*
X62775Y51760D01*
X62660Y51181D01*
X62775Y50602D01*
X63103Y50111D01*
X63594Y49783D01*
X64173Y49668D01*
X64752Y49783D01*
X65243Y50111D01*
X65571Y50602D01*
X65687Y51181D01*
X65571Y51760D01*
X65243Y52251D01*
X64752Y52579D01*
X64173Y52694D01*
D02*
G37*
G36*
X68504Y52694D02*
X67925Y52579D01*
X67434Y52251D01*
X67106Y51760D01*
X66991Y51181D01*
X67106Y50602D01*
X67434Y50111D01*
X67925Y49783D01*
X68504Y49668D01*
X69083Y49783D01*
X69574Y50111D01*
X69902Y50602D01*
X70017Y51181D01*
X69902Y51760D01*
X69574Y52251D01*
X69083Y52579D01*
X68504Y52694D01*
D02*
G37*
G36*
X99045Y50096D02*
X98504Y49988D01*
X98046Y49682D01*
X97739Y49224D01*
X97632Y48683D01*
X97739Y48142D01*
X98046Y47684D01*
X98504Y47378D01*
X99045Y47270D01*
X99586Y47378D01*
X100044Y47684D01*
X100350Y48142D01*
X100458Y48683D01*
X100350Y49224D01*
X100044Y49682D01*
X99586Y49988D01*
X99045Y50096D01*
D02*
G37*
G36*
X43701Y48263D02*
X43160Y48156D01*
X42702Y47850D01*
X42395Y47391D01*
X42288Y46850D01*
X42395Y46310D01*
X42702Y45851D01*
X43160Y45545D01*
X43701Y45437D01*
X44241Y45545D01*
X44700Y45851D01*
X45006Y46310D01*
X45114Y46850D01*
X45006Y47391D01*
X44700Y47850D01*
X44241Y48156D01*
X43701Y48263D01*
D02*
G37*
G36*
X12992D02*
X12451Y48156D01*
X11993Y47850D01*
X11687Y47391D01*
X11579Y46850D01*
X11687Y46310D01*
X11993Y45851D01*
X12451Y45545D01*
X12992Y45437D01*
X13533Y45545D01*
X13991Y45851D01*
X14298Y46310D01*
X14405Y46850D01*
X14298Y47391D01*
X13991Y47850D01*
X13533Y48156D01*
X12992Y48263D01*
D02*
G37*
G36*
X72835Y48364D02*
X72255Y48248D01*
X71764Y47921D01*
X71437Y47429D01*
X71321Y46850D01*
X71437Y46271D01*
X71764Y45780D01*
X72255Y45452D01*
X72835Y45337D01*
X73414Y45452D01*
X73905Y45780D01*
X74233Y46271D01*
X74348Y46850D01*
X74233Y47429D01*
X73905Y47921D01*
X73414Y48248D01*
X72835Y48364D01*
D02*
G37*
G36*
X68504D02*
X67925Y48248D01*
X67434Y47921D01*
X67106Y47429D01*
X66991Y46850D01*
X67106Y46271D01*
X67434Y45780D01*
X67925Y45452D01*
X68504Y45337D01*
X69083Y45452D01*
X69574Y45780D01*
X69902Y46271D01*
X70017Y46850D01*
X69902Y47429D01*
X69574Y47921D01*
X69083Y48248D01*
X68504Y48364D01*
D02*
G37*
G36*
X64173D02*
X63594Y48248D01*
X63103Y47921D01*
X62775Y47429D01*
X62660Y46850D01*
X62775Y46271D01*
X63103Y45780D01*
X63594Y45452D01*
X64173Y45337D01*
X64752Y45452D01*
X65243Y45780D01*
X65571Y46271D01*
X65687Y46850D01*
X65571Y47429D01*
X65243Y47921D01*
X64752Y48248D01*
X64173Y48364D01*
D02*
G37*
G36*
X49606Y48066D02*
X49066Y47959D01*
X48607Y47653D01*
X48301Y47194D01*
X48193Y46654D01*
X48301Y46113D01*
X48607Y45654D01*
X49066Y45348D01*
X49606Y45241D01*
X50147Y45348D01*
X50605Y45654D01*
X50912Y46113D01*
X51019Y46654D01*
X50912Y47194D01*
X50605Y47653D01*
X50147Y47959D01*
X49606Y48066D01*
D02*
G37*
G36*
X106693Y47082D02*
X106152Y46975D01*
X105694Y46668D01*
X105387Y46210D01*
X105280Y45669D01*
X105387Y45129D01*
X105694Y44670D01*
X105789Y44606D01*
Y44005D01*
X105729Y43965D01*
X105423Y43506D01*
X105315Y42966D01*
X105423Y42425D01*
X105729Y41967D01*
X106188Y41660D01*
X106728Y41553D01*
X107269Y41660D01*
X107727Y41967D01*
X108034Y42425D01*
X108141Y42966D01*
X108034Y43506D01*
X107727Y43965D01*
X107632Y44029D01*
Y44630D01*
X107692Y44670D01*
X107998Y45129D01*
X108106Y45669D01*
X107998Y46210D01*
X107692Y46668D01*
X107234Y46975D01*
X106693Y47082D01*
D02*
G37*
G36*
X72835Y44033D02*
X72255Y43918D01*
X71765Y43590D01*
X71437Y43099D01*
X71321Y42520D01*
X71437Y41941D01*
X71765Y41450D01*
X72255Y41122D01*
X72835Y41006D01*
X73414Y41122D01*
X73905Y41450D01*
X74233Y41941D01*
X74348Y42520D01*
X74233Y43099D01*
X73905Y43590D01*
X73414Y43918D01*
X72835Y44033D01*
D02*
G37*
G36*
X68504D02*
X67925Y43918D01*
X67434Y43590D01*
X67106Y43099D01*
X66991Y42520D01*
X67106Y41941D01*
X67434Y41450D01*
X67925Y41122D01*
X68504Y41006D01*
X69083Y41122D01*
X69574Y41450D01*
X69902Y41941D01*
X70017Y42520D01*
X69902Y43099D01*
X69574Y43590D01*
X69083Y43918D01*
X68504Y44033D01*
D02*
G37*
G36*
X64173D02*
X63594Y43918D01*
X63103Y43590D01*
X62775Y43099D01*
X62660Y42520D01*
X62775Y41941D01*
X63103Y41450D01*
X63594Y41122D01*
X64173Y41006D01*
X64752Y41122D01*
X65243Y41450D01*
X65571Y41941D01*
X65687Y42520D01*
X65571Y43099D01*
X65243Y43590D01*
X64752Y43918D01*
X64173Y44033D01*
D02*
G37*
G36*
X101772Y39505D02*
X101192Y39390D01*
X100701Y39062D01*
X100373Y38571D01*
X100258Y37992D01*
X100373Y37413D01*
X100701Y36922D01*
X101192Y36594D01*
X101772Y36479D01*
X102351Y36594D01*
X102842Y36922D01*
X103170Y37413D01*
X103285Y37992D01*
X103170Y38571D01*
X102842Y39062D01*
X102351Y39390D01*
X101772Y39505D01*
D02*
G37*
G36*
X97441D02*
X96862Y39390D01*
X96371Y39062D01*
X96043Y38571D01*
X95928Y37992D01*
X96043Y37413D01*
X96371Y36922D01*
X96862Y36594D01*
X97441Y36479D01*
X98020Y36594D01*
X98511Y36922D01*
X98839Y37413D01*
X98954Y37992D01*
X98839Y38571D01*
X98511Y39062D01*
X98020Y39390D01*
X97441Y39505D01*
D02*
G37*
G36*
Y35175D02*
X96862Y35060D01*
X96371Y34732D01*
X96043Y34241D01*
X95928Y33661D01*
X96043Y33082D01*
X96371Y32591D01*
X96862Y32263D01*
X97441Y32148D01*
X98020Y32263D01*
X98511Y32591D01*
X98839Y33082D01*
X98954Y33661D01*
X98839Y34241D01*
X98511Y34732D01*
X98020Y35060D01*
X97441Y35175D01*
D02*
G37*
G36*
X101772Y35175D02*
X101192Y35059D01*
X100702Y34732D01*
X100373Y34240D01*
X100258Y33661D01*
X100373Y33082D01*
X100702Y32591D01*
X101192Y32263D01*
X101772Y32148D01*
X102351Y32263D01*
X102842Y32591D01*
X103170Y33082D01*
X103285Y33661D01*
X103170Y34240D01*
X102842Y34732D01*
X102351Y35059D01*
X101772Y35175D01*
D02*
G37*
G36*
X63189Y32909D02*
X62648Y32801D01*
X62190Y32495D01*
X61884Y32037D01*
X61776Y31496D01*
X61884Y30955D01*
X62190Y30497D01*
X62648Y30191D01*
X63189Y30083D01*
X63730Y30191D01*
X64188Y30497D01*
X64494Y30955D01*
X64602Y31496D01*
X64494Y32037D01*
X64188Y32495D01*
X63730Y32801D01*
X63189Y32909D01*
D02*
G37*
G36*
X105512Y26216D02*
X104971Y26109D01*
X104513Y25802D01*
X104206Y25344D01*
X104099Y24803D01*
X104206Y24262D01*
X104513Y23804D01*
X104971Y23498D01*
X105512Y23390D01*
X106052Y23498D01*
X106511Y23804D01*
X106817Y24262D01*
X106925Y24803D01*
X106817Y25344D01*
X106511Y25802D01*
X106052Y26109D01*
X105512Y26216D01*
D02*
G37*
G36*
X99091Y23555D02*
X98550Y23448D01*
X98092Y23141D01*
X97786Y22683D01*
X97678Y22142D01*
X97786Y21602D01*
X98092Y21143D01*
X98550Y20837D01*
X99091Y20729D01*
X99632Y20837D01*
X100090Y21143D01*
X100397Y21602D01*
X100504Y22142D01*
X100397Y22683D01*
X100090Y23141D01*
X99632Y23448D01*
X99091Y23555D01*
D02*
G37*
G36*
X146850Y273066D02*
X146310Y272959D01*
X145851Y272653D01*
X145545Y272194D01*
X145437Y271654D01*
X145545Y271113D01*
X145851Y270654D01*
X146310Y270348D01*
X146850Y270241D01*
X147391Y270348D01*
X147850Y270654D01*
X148156Y271113D01*
X148263Y271654D01*
X148156Y272194D01*
X147850Y272653D01*
X147391Y272959D01*
X146850Y273066D01*
D02*
G37*
G36*
X129528Y267948D02*
X128987Y267841D01*
X128528Y267534D01*
X128222Y267076D01*
X128115Y266535D01*
X128222Y265995D01*
X128528Y265536D01*
X128987Y265230D01*
X129528Y265123D01*
X130068Y265230D01*
X130527Y265536D01*
X130833Y265995D01*
X130940Y266535D01*
X130833Y267076D01*
X130527Y267534D01*
X130068Y267841D01*
X129528Y267948D01*
D02*
G37*
G36*
X124016D02*
X123475Y267841D01*
X123017Y267534D01*
X122710Y267076D01*
X122603Y266535D01*
X122710Y265995D01*
X123017Y265536D01*
X123475Y265230D01*
X124016Y265123D01*
X124557Y265230D01*
X125015Y265536D01*
X125321Y265995D01*
X125429Y266535D01*
X125321Y267076D01*
X125015Y267534D01*
X124557Y267841D01*
X124016Y267948D01*
D02*
G37*
G36*
X486027Y264222D02*
Y261066D01*
X489182D01*
X489093Y261741D01*
X488755Y262557D01*
X488218Y263257D01*
X487518Y263795D01*
X486702Y264133D01*
X486027Y264222D01*
D02*
G37*
G36*
X485627D02*
X484951Y264133D01*
X484136Y263795D01*
X483436Y263257D01*
X482898Y262557D01*
X482560Y261741D01*
X482471Y261066D01*
X485627D01*
Y264222D01*
D02*
G37*
G36*
X422638Y263027D02*
X422097Y262920D01*
X421639Y262613D01*
X421332Y262155D01*
X421225Y261614D01*
X421332Y261073D01*
X421639Y260615D01*
X422097Y260309D01*
X422638Y260201D01*
X423178Y260309D01*
X423637Y260615D01*
X423943Y261073D01*
X424051Y261614D01*
X423943Y262155D01*
X423637Y262613D01*
X423178Y262920D01*
X422638Y263027D01*
D02*
G37*
G36*
X457087Y266340D02*
X456016Y266199D01*
X455019Y265786D01*
X454163Y265129D01*
X453505Y264272D01*
X453092Y263275D01*
X452951Y262205D01*
X453092Y261134D01*
X453505Y260137D01*
X454163Y259281D01*
X455019Y258623D01*
X456016Y258210D01*
X457087Y258069D01*
X458157Y258210D01*
X459154Y258623D01*
X460011Y259281D01*
X460668Y260137D01*
X461081Y261134D01*
X461222Y262205D01*
X461081Y263275D01*
X460668Y264272D01*
X460011Y265129D01*
X459154Y265786D01*
X458157Y266199D01*
X457087Y266340D01*
D02*
G37*
G36*
X485627Y260666D02*
X482471D01*
X482560Y259991D01*
X482898Y259175D01*
X483436Y258475D01*
X484136Y257938D01*
X484951Y257600D01*
X485627Y257511D01*
Y260666D01*
D02*
G37*
G36*
X489182D02*
X486027D01*
Y257511D01*
X486702Y257600D01*
X487518Y257938D01*
X488218Y258475D01*
X488755Y259175D01*
X489093Y259991D01*
X489182Y260666D01*
D02*
G37*
G36*
X495827Y264248D02*
X494951Y264133D01*
X494136Y263795D01*
X493436Y263257D01*
X492898Y262557D01*
X492560Y261741D01*
X492445Y260866D01*
X492560Y259991D01*
X492898Y259175D01*
X493436Y258475D01*
X494136Y257938D01*
X494951Y257600D01*
X495827Y257485D01*
X496702Y257600D01*
X497518Y257938D01*
X498218Y258475D01*
X498755Y259175D01*
X499093Y259991D01*
X499208Y260866D01*
X499093Y261741D01*
X498755Y262557D01*
X498218Y263257D01*
X497518Y263795D01*
X496702Y264133D01*
X495827Y264248D01*
D02*
G37*
G36*
X162598Y252988D02*
X162058Y252880D01*
X161599Y252574D01*
X161293Y252116D01*
X161186Y251575D01*
X161293Y251034D01*
X161599Y250576D01*
X162058Y250269D01*
X162598Y250162D01*
X163139Y250269D01*
X163598Y250576D01*
X163904Y251034D01*
X164011Y251575D01*
X163904Y252116D01*
X163598Y252574D01*
X163139Y252880D01*
X162598Y252988D01*
D02*
G37*
G36*
X130709Y252116D02*
X129899Y251954D01*
X129213Y251496D01*
X128754Y250810D01*
X128593Y250000D01*
X128660Y249664D01*
X124024Y245027D01*
X124016Y245029D01*
X123206Y244868D01*
X122520Y244409D01*
X122061Y243723D01*
X121900Y242913D01*
X122061Y242104D01*
X122520Y241418D01*
X123206Y240959D01*
X124016Y240798D01*
X124825Y240959D01*
X125512Y241418D01*
X125970Y242104D01*
X126131Y242913D01*
X125999Y243578D01*
X130372Y247952D01*
X130709Y247884D01*
X131518Y248046D01*
X132204Y248504D01*
X132663Y249190D01*
X132824Y250000D01*
X132663Y250810D01*
X132204Y251496D01*
X131518Y251954D01*
X130709Y252116D01*
D02*
G37*
G36*
X495827Y254248D02*
X494951Y254133D01*
X494136Y253795D01*
X493436Y253257D01*
X492898Y252557D01*
X492560Y251741D01*
X492445Y250866D01*
X492560Y249991D01*
X492898Y249175D01*
X493436Y248475D01*
X494136Y247937D01*
X494951Y247600D01*
X495827Y247484D01*
X496702Y247600D01*
X497518Y247937D01*
X498218Y248475D01*
X498755Y249175D01*
X499093Y249991D01*
X499208Y250866D01*
X499093Y251741D01*
X498755Y252557D01*
X498218Y253257D01*
X497518Y253795D01*
X496702Y254133D01*
X495827Y254248D01*
D02*
G37*
G36*
X485827D02*
X484951Y254133D01*
X484136Y253795D01*
X483436Y253257D01*
X482898Y252557D01*
X482560Y251741D01*
X482445Y250866D01*
X482560Y249991D01*
X482898Y249175D01*
X483436Y248475D01*
X484136Y247937D01*
X484951Y247600D01*
X485827Y247484D01*
X486702Y247600D01*
X487518Y247937D01*
X488218Y248475D01*
X488755Y249175D01*
X489093Y249991D01*
X489208Y250866D01*
X489093Y251741D01*
X488755Y252557D01*
X488218Y253257D01*
X487518Y253795D01*
X486702Y254133D01*
X485827Y254248D01*
D02*
G37*
G36*
X422835Y249445D02*
X422294Y249337D01*
X421836Y249031D01*
X421529Y248572D01*
X421422Y248031D01*
X421466Y247808D01*
X415019Y241360D01*
X413305D01*
X413037Y241860D01*
X413116Y241979D01*
X413224Y242520D01*
X413116Y243060D01*
X412810Y243519D01*
X412352Y243825D01*
X411811Y243933D01*
X411270Y243825D01*
X410812Y243519D01*
X410506Y243060D01*
X410398Y242520D01*
X410506Y241979D01*
X410585Y241860D01*
X410318Y241360D01*
X371179D01*
X370911Y241860D01*
X370990Y241979D01*
X371098Y242520D01*
X370990Y243060D01*
X370684Y243519D01*
X370226Y243825D01*
X369685Y243933D01*
X369144Y243825D01*
X368686Y243519D01*
X368380Y243060D01*
X368272Y242520D01*
X368380Y241979D01*
X368459Y241860D01*
X368192Y241360D01*
X329052D01*
X328785Y241860D01*
X328865Y241979D01*
X328972Y242520D01*
X328865Y243060D01*
X328558Y243519D01*
X328100Y243825D01*
X327559Y243933D01*
X327018Y243825D01*
X326560Y243519D01*
X326254Y243060D01*
X326146Y242520D01*
X326254Y241979D01*
X326333Y241860D01*
X326066Y241360D01*
X286927D01*
X286659Y241860D01*
X286738Y241979D01*
X286846Y242520D01*
X286738Y243060D01*
X286432Y243519D01*
X285974Y243825D01*
X285433Y243933D01*
X284892Y243825D01*
X284434Y243519D01*
X284128Y243060D01*
X284020Y242520D01*
X284128Y241979D01*
X284207Y241860D01*
X283940Y241360D01*
X244801D01*
X244533Y241860D01*
X244613Y241979D01*
X244720Y242520D01*
X244613Y243060D01*
X244306Y243519D01*
X243848Y243825D01*
X243307Y243933D01*
X242766Y243825D01*
X242308Y243519D01*
X242002Y243060D01*
X241894Y242520D01*
X242002Y241979D01*
X242081Y241860D01*
X241814Y241360D01*
X202675D01*
X202407Y241860D01*
X202486Y241979D01*
X202594Y242520D01*
X202486Y243060D01*
X202180Y243519D01*
X201722Y243825D01*
X201181Y243933D01*
X200640Y243825D01*
X200182Y243519D01*
X199876Y243060D01*
X199768Y242520D01*
X199876Y241979D01*
X199955Y241860D01*
X199688Y241360D01*
X160549D01*
X160281Y241860D01*
X160361Y241979D01*
X160468Y242520D01*
X160361Y243060D01*
X160054Y243519D01*
X159596Y243825D01*
X159055Y243933D01*
X158514Y243825D01*
X158056Y243519D01*
X157750Y243060D01*
X157642Y242520D01*
X157750Y241979D01*
X157829Y241860D01*
X157562Y241360D01*
X131831D01*
X130502Y242689D01*
X130547Y242913D01*
X130439Y243454D01*
X130133Y243913D01*
X129675Y244219D01*
X129134Y244326D01*
X128593Y244219D01*
X128135Y243913D01*
X127828Y243454D01*
X127721Y242913D01*
X127828Y242373D01*
X128135Y241914D01*
X128593Y241608D01*
X129134Y241500D01*
X129358Y241545D01*
X130924Y239979D01*
X130924Y239979D01*
X131186Y239804D01*
X131496Y239742D01*
X131496Y239742D01*
X415354D01*
X415354Y239742D01*
X415664Y239804D01*
X415927Y239979D01*
X422611Y246663D01*
X422835Y246619D01*
X423375Y246726D01*
X423834Y247032D01*
X424140Y247491D01*
X424248Y248031D01*
X424140Y248572D01*
X423834Y249031D01*
X423375Y249337D01*
X422835Y249445D01*
D02*
G37*
G36*
X457087Y251379D02*
X456016Y251239D01*
X455019Y250825D01*
X454163Y250168D01*
X453505Y249312D01*
X453092Y248314D01*
X452951Y247244D01*
X453092Y246174D01*
X453505Y245176D01*
X453666Y244968D01*
X446122Y237423D01*
X149069D01*
X148657Y237795D01*
X148549Y238336D01*
X148243Y238794D01*
X147785Y239101D01*
X147244Y239208D01*
X146703Y239101D01*
X146245Y238794D01*
X145939Y238336D01*
X145831Y237795D01*
X145939Y237255D01*
X146245Y236796D01*
X146703Y236490D01*
X147244Y236382D01*
X147468Y236427D01*
X147853Y236042D01*
X147853Y236042D01*
X148116Y235866D01*
X148425Y235805D01*
X148425Y235805D01*
X446457D01*
X446457Y235805D01*
X446766Y235866D01*
X447029Y236042D01*
X454810Y243823D01*
X455019Y243663D01*
X456016Y243250D01*
X457087Y243109D01*
X458157Y243250D01*
X459154Y243663D01*
X460011Y244320D01*
X460668Y245176D01*
X461081Y246174D01*
X461222Y247244D01*
X461081Y248314D01*
X460668Y249312D01*
X460011Y250168D01*
X459154Y250825D01*
X458157Y251239D01*
X457087Y251379D01*
D02*
G37*
G36*
X486027Y244221D02*
Y241066D01*
X489182D01*
X489093Y241741D01*
X488755Y242557D01*
X488218Y243257D01*
X487518Y243795D01*
X486702Y244133D01*
X486027Y244221D01*
D02*
G37*
G36*
X485627D02*
X484951Y244133D01*
X484136Y243795D01*
X483436Y243257D01*
X482898Y242557D01*
X482560Y241741D01*
X482471Y241066D01*
X485627D01*
Y244221D01*
D02*
G37*
G36*
X489182Y240666D02*
X486027D01*
Y237511D01*
X486702Y237600D01*
X487518Y237937D01*
X488218Y238475D01*
X488755Y239175D01*
X489093Y239991D01*
X489182Y240666D01*
D02*
G37*
G36*
X485627D02*
X482471D01*
X482560Y239991D01*
X482898Y239175D01*
X483436Y238475D01*
X484136Y237937D01*
X484951Y237600D01*
X485627Y237511D01*
Y240666D01*
D02*
G37*
G36*
X495827Y244248D02*
X494951Y244133D01*
X494136Y243795D01*
X493436Y243257D01*
X492898Y242557D01*
X492560Y241741D01*
X492445Y240866D01*
X492560Y239991D01*
X492898Y239175D01*
X493436Y238475D01*
X494136Y237937D01*
X494951Y237600D01*
X495827Y237485D01*
X496702Y237600D01*
X497518Y237937D01*
X498218Y238475D01*
X498755Y239175D01*
X499093Y239991D01*
X499208Y240866D01*
X499093Y241741D01*
X498755Y242557D01*
X498218Y243257D01*
X497518Y243795D01*
X496702Y244133D01*
X495827Y244248D01*
D02*
G37*
G36*
X120472Y238421D02*
X119932Y238313D01*
X119473Y238007D01*
X119167Y237549D01*
X119060Y237008D01*
X119167Y236467D01*
X119473Y236009D01*
X119932Y235702D01*
X120472Y235595D01*
X121013Y235702D01*
X121472Y236009D01*
X121778Y236467D01*
X121885Y237008D01*
X121778Y237549D01*
X121472Y238007D01*
X121013Y238313D01*
X120472Y238421D01*
D02*
G37*
G36*
X495827Y234248D02*
X494951Y234133D01*
X494136Y233795D01*
X493436Y233257D01*
X492898Y232557D01*
X492560Y231741D01*
X492445Y230866D01*
X492560Y229991D01*
X492898Y229175D01*
X493436Y228475D01*
X494136Y227938D01*
X494951Y227600D01*
X495827Y227484D01*
X496702Y227600D01*
X497518Y227938D01*
X498218Y228475D01*
X498755Y229175D01*
X499093Y229991D01*
X499208Y230866D01*
X499093Y231741D01*
X498755Y232557D01*
X498218Y233257D01*
X497518Y233795D01*
X496702Y234133D01*
X495827Y234248D01*
D02*
G37*
G36*
X485827Y234248D02*
X484951Y234133D01*
X484136Y233795D01*
X483436Y233257D01*
X482898Y232557D01*
X482560Y231741D01*
X482445Y230866D01*
X482560Y229991D01*
X482898Y229175D01*
X483436Y228475D01*
X484136Y227938D01*
X484951Y227600D01*
X485827Y227484D01*
X486702Y227600D01*
X487518Y227938D01*
X488218Y228475D01*
X488755Y229175D01*
X489093Y229991D01*
X489208Y230866D01*
X489093Y231741D01*
X488755Y232557D01*
X488218Y233257D01*
X487518Y233795D01*
X486702Y234133D01*
X485827Y234248D01*
D02*
G37*
G36*
X486027Y224221D02*
Y221066D01*
X489182D01*
X489093Y221741D01*
X488755Y222557D01*
X488218Y223257D01*
X487518Y223795D01*
X486702Y224133D01*
X486027Y224221D01*
D02*
G37*
G36*
X485627Y224221D02*
X484951Y224133D01*
X484136Y223795D01*
X483436Y223257D01*
X482898Y222557D01*
X482560Y221741D01*
X482471Y221066D01*
X485627D01*
Y224221D01*
D02*
G37*
G36*
X146850Y221098D02*
X146310Y220990D01*
X145851Y220684D01*
X145545Y220226D01*
X145437Y219685D01*
X145545Y219144D01*
X145851Y218686D01*
X146310Y218380D01*
X146850Y218272D01*
X147391Y218380D01*
X147850Y218686D01*
X148156Y219144D01*
X148263Y219685D01*
X148156Y220226D01*
X147850Y220684D01*
X147391Y220990D01*
X146850Y221098D01*
D02*
G37*
G36*
X485627Y220666D02*
X482471D01*
X482560Y219991D01*
X482898Y219175D01*
X483436Y218475D01*
X484136Y217937D01*
X484951Y217600D01*
X485627Y217511D01*
Y220666D01*
D02*
G37*
G36*
X489182D02*
X486027D01*
Y217511D01*
X486702Y217600D01*
X487518Y217937D01*
X488218Y218475D01*
X488755Y219175D01*
X489093Y219991D01*
X489182Y220666D01*
D02*
G37*
G36*
X495827Y224248D02*
X494951Y224133D01*
X494136Y223795D01*
X493436Y223257D01*
X492898Y222557D01*
X492560Y221741D01*
X492445Y220866D01*
X492560Y219991D01*
X492898Y219175D01*
X493436Y218475D01*
X494136Y217937D01*
X494951Y217600D01*
X495827Y217484D01*
X496702Y217600D01*
X497518Y217937D01*
X498218Y218475D01*
X498755Y219175D01*
X499093Y219991D01*
X499208Y220866D01*
X499093Y221741D01*
X498755Y222557D01*
X498218Y223257D01*
X497518Y223795D01*
X496702Y224133D01*
X495827Y224248D01*
D02*
G37*
G36*
X124016Y215980D02*
X123475Y215872D01*
X123017Y215566D01*
X122710Y215108D01*
X122603Y214567D01*
X122710Y214026D01*
X123017Y213568D01*
X123475Y213262D01*
X124016Y213154D01*
X124557Y213262D01*
X125015Y213568D01*
X125321Y214026D01*
X125429Y214567D01*
X125321Y215108D01*
X125015Y215566D01*
X124557Y215872D01*
X124016Y215980D01*
D02*
G37*
G36*
X129528Y215980D02*
X128987Y215872D01*
X128528Y215566D01*
X128222Y215108D01*
X128115Y214567D01*
X128222Y214026D01*
X128528Y213568D01*
X128987Y213262D01*
X129528Y213154D01*
X130068Y213262D01*
X130527Y213568D01*
X130833Y214026D01*
X130940Y214567D01*
X130833Y215108D01*
X130527Y215566D01*
X130068Y215872D01*
X129528Y215980D01*
D02*
G37*
G36*
X422441Y211256D02*
X421900Y211148D01*
X421442Y210842D01*
X421136Y210383D01*
X421028Y209842D01*
X421136Y209302D01*
X421442Y208843D01*
X421900Y208537D01*
X422441Y208430D01*
X422982Y208537D01*
X423440Y208843D01*
X423746Y209302D01*
X423854Y209842D01*
X423746Y210383D01*
X423440Y210842D01*
X422982Y211148D01*
X422441Y211256D01*
D02*
G37*
G36*
X485827Y214248D02*
X484951Y214133D01*
X484136Y213795D01*
X483436Y213257D01*
X482898Y212557D01*
X482560Y211741D01*
X482445Y210866D01*
X482560Y209991D01*
X482898Y209175D01*
X483436Y208475D01*
X484136Y207938D01*
X484951Y207600D01*
X485827Y207485D01*
X486702Y207600D01*
X487518Y207938D01*
X488218Y208475D01*
X488755Y209175D01*
X489093Y209991D01*
X489208Y210866D01*
X489093Y211741D01*
X488755Y212557D01*
X488218Y213257D01*
X487518Y213795D01*
X486702Y214133D01*
X485827Y214248D01*
D02*
G37*
G36*
X495827Y214248D02*
X494951Y214133D01*
X494136Y213795D01*
X493436Y213257D01*
X492898Y212557D01*
X492560Y211741D01*
X492445Y210866D01*
X492560Y209991D01*
X492898Y209175D01*
X493436Y208475D01*
X494136Y207938D01*
X494951Y207600D01*
X495827Y207485D01*
X496702Y207600D01*
X497518Y207938D01*
X498218Y208475D01*
X498755Y209175D01*
X499093Y209991D01*
X499208Y210866D01*
X499093Y211741D01*
X498755Y212557D01*
X498218Y213257D01*
X497518Y213795D01*
X496702Y214133D01*
X495827Y214248D01*
D02*
G37*
G36*
X457087Y214372D02*
X456016Y214231D01*
X455019Y213818D01*
X454163Y213160D01*
X453505Y212304D01*
X453092Y211307D01*
X452951Y210236D01*
X453092Y209166D01*
X453505Y208169D01*
X454163Y207312D01*
X455019Y206655D01*
X456016Y206242D01*
X457087Y206101D01*
X458157Y206242D01*
X459154Y206655D01*
X460011Y207312D01*
X460668Y208169D01*
X461081Y209166D01*
X461222Y210236D01*
X461081Y211307D01*
X460668Y212304D01*
X460011Y213160D01*
X459154Y213818D01*
X458157Y214231D01*
X457087Y214372D01*
D02*
G37*
G36*
X486027Y204222D02*
Y201066D01*
X489182D01*
X489093Y201741D01*
X488755Y202557D01*
X488218Y203257D01*
X487518Y203795D01*
X486702Y204133D01*
X486027Y204222D01*
D02*
G37*
G36*
X485627D02*
X484951Y204133D01*
X484136Y203795D01*
X483436Y203257D01*
X482898Y202557D01*
X482560Y201741D01*
X482471Y201066D01*
X485627D01*
Y204222D01*
D02*
G37*
G36*
X162598Y201019D02*
X162058Y200912D01*
X161599Y200605D01*
X161293Y200147D01*
X161186Y199606D01*
X161293Y199066D01*
X161599Y198607D01*
X162058Y198301D01*
X162598Y198193D01*
X163139Y198301D01*
X163598Y198607D01*
X163904Y199066D01*
X164011Y199606D01*
X163904Y200147D01*
X163598Y200605D01*
X163139Y200912D01*
X162598Y201019D01*
D02*
G37*
G36*
X485627Y200666D02*
X482471D01*
X482560Y199991D01*
X482898Y199175D01*
X483436Y198475D01*
X484136Y197938D01*
X484951Y197600D01*
X485627Y197511D01*
Y200666D01*
D02*
G37*
G36*
X489182D02*
X486027D01*
Y197511D01*
X486702Y197600D01*
X487518Y197938D01*
X488218Y198475D01*
X488755Y199175D01*
X489093Y199991D01*
X489182Y200666D01*
D02*
G37*
G36*
X495827Y204248D02*
X494951Y204133D01*
X494136Y203795D01*
X493436Y203257D01*
X492898Y202557D01*
X492560Y201741D01*
X492445Y200866D01*
X492560Y199991D01*
X492898Y199175D01*
X493436Y198475D01*
X494136Y197938D01*
X494951Y197600D01*
X495827Y197484D01*
X496702Y197600D01*
X497518Y197938D01*
X498218Y198475D01*
X498755Y199175D01*
X499093Y199991D01*
X499208Y200866D01*
X499093Y201741D01*
X498755Y202557D01*
X498218Y203257D01*
X497518Y203795D01*
X496702Y204133D01*
X495827Y204248D01*
D02*
G37*
G36*
X130709Y200147D02*
X129899Y199986D01*
X129213Y199527D01*
X128754Y198841D01*
X128593Y198031D01*
X128660Y197695D01*
X124024Y193059D01*
X124016Y193060D01*
X123206Y192899D01*
X122520Y192441D01*
X122061Y191754D01*
X121900Y190945D01*
X122061Y190135D01*
X122520Y189449D01*
X123206Y188990D01*
X124016Y188829D01*
X124825Y188990D01*
X125512Y189449D01*
X125970Y190135D01*
X126131Y190945D01*
X125999Y191610D01*
X130372Y195983D01*
X130709Y195916D01*
X131518Y196077D01*
X132204Y196536D01*
X132663Y197222D01*
X132824Y198031D01*
X132663Y198841D01*
X132204Y199527D01*
X131518Y199986D01*
X130709Y200147D01*
D02*
G37*
G36*
X422441Y197082D02*
X421900Y196975D01*
X421442Y196668D01*
X421136Y196210D01*
X421028Y195669D01*
X421072Y195445D01*
X415019Y189392D01*
X413305D01*
X413037Y189892D01*
X413116Y190010D01*
X413224Y190551D01*
X413116Y191092D01*
X412810Y191550D01*
X412352Y191857D01*
X411811Y191964D01*
X411270Y191857D01*
X410812Y191550D01*
X410506Y191092D01*
X410398Y190551D01*
X410506Y190010D01*
X410585Y189892D01*
X410318Y189392D01*
X371179D01*
X370911Y189892D01*
X370990Y190010D01*
X371098Y190551D01*
X370990Y191092D01*
X370684Y191550D01*
X370226Y191857D01*
X369685Y191964D01*
X369144Y191857D01*
X368686Y191550D01*
X368380Y191092D01*
X368272Y190551D01*
X368380Y190010D01*
X368459Y189892D01*
X368192Y189392D01*
X329052D01*
X328785Y189892D01*
X328865Y190010D01*
X328972Y190551D01*
X328865Y191092D01*
X328558Y191550D01*
X328100Y191857D01*
X327559Y191964D01*
X327018Y191857D01*
X326560Y191550D01*
X326254Y191092D01*
X326146Y190551D01*
X326254Y190010D01*
X326333Y189892D01*
X326066Y189392D01*
X286927D01*
X286659Y189892D01*
X286738Y190010D01*
X286846Y190551D01*
X286738Y191092D01*
X286432Y191550D01*
X285974Y191857D01*
X285433Y191964D01*
X284892Y191857D01*
X284434Y191550D01*
X284128Y191092D01*
X284020Y190551D01*
X284128Y190010D01*
X284207Y189892D01*
X283940Y189392D01*
X244801D01*
X244533Y189892D01*
X244613Y190010D01*
X244720Y190551D01*
X244613Y191092D01*
X244306Y191550D01*
X243848Y191857D01*
X243307Y191964D01*
X242766Y191857D01*
X242308Y191550D01*
X242002Y191092D01*
X241894Y190551D01*
X242002Y190010D01*
X242081Y189892D01*
X241814Y189392D01*
X202675D01*
X202407Y189892D01*
X202486Y190010D01*
X202594Y190551D01*
X202486Y191092D01*
X202180Y191550D01*
X201722Y191857D01*
X201181Y191964D01*
X200640Y191857D01*
X200182Y191550D01*
X199876Y191092D01*
X199768Y190551D01*
X199876Y190010D01*
X199955Y189892D01*
X199688Y189392D01*
X160549D01*
X160281Y189892D01*
X160361Y190010D01*
X160468Y190551D01*
X160361Y191092D01*
X160054Y191550D01*
X159596Y191857D01*
X159055Y191964D01*
X158514Y191857D01*
X158056Y191550D01*
X157750Y191092D01*
X157642Y190551D01*
X157750Y190010D01*
X157829Y189892D01*
X157562Y189392D01*
X131831D01*
X130502Y190721D01*
X130547Y190945D01*
X130439Y191486D01*
X130133Y191944D01*
X129675Y192250D01*
X129134Y192358D01*
X128593Y192250D01*
X128135Y191944D01*
X127829Y191486D01*
X127721Y190945D01*
X127829Y190404D01*
X128135Y189946D01*
X128593Y189639D01*
X129134Y189532D01*
X129358Y189576D01*
X130924Y188011D01*
X130924Y188011D01*
X131186Y187835D01*
X131496Y187773D01*
X131496Y187773D01*
X415354D01*
X415354Y187773D01*
X415664Y187835D01*
X415927Y188011D01*
X422217Y194301D01*
X422441Y194256D01*
X422982Y194364D01*
X423440Y194670D01*
X423746Y195129D01*
X423854Y195669D01*
X423746Y196210D01*
X423440Y196668D01*
X422982Y196975D01*
X422441Y197082D01*
D02*
G37*
G36*
X457087Y199411D02*
X456016Y199270D01*
X455019Y198857D01*
X454163Y198200D01*
X453505Y197343D01*
X453092Y196346D01*
X452951Y195276D01*
X453092Y194205D01*
X453505Y193208D01*
X453666Y192999D01*
X446122Y185455D01*
X149069D01*
X148657Y185827D01*
X148549Y186367D01*
X148243Y186826D01*
X147785Y187132D01*
X147244Y187240D01*
X146703Y187132D01*
X146245Y186826D01*
X145939Y186367D01*
X145831Y185827D01*
X145939Y185286D01*
X146245Y184828D01*
X146703Y184521D01*
X147244Y184414D01*
X147468Y184458D01*
X147853Y184073D01*
X147853Y184073D01*
X148116Y183898D01*
X148425Y183836D01*
X148425Y183836D01*
X446457D01*
X446457Y183836D01*
X446766Y183898D01*
X447029Y184073D01*
X454810Y191855D01*
X455019Y191694D01*
X456016Y191281D01*
X457087Y191140D01*
X458157Y191281D01*
X459154Y191694D01*
X460011Y192351D01*
X460668Y193208D01*
X461081Y194205D01*
X461222Y195276D01*
X461081Y196346D01*
X460668Y197343D01*
X460011Y198200D01*
X459154Y198857D01*
X458157Y199270D01*
X457087Y199411D01*
D02*
G37*
G36*
X485827Y194248D02*
X484951Y194133D01*
X484136Y193795D01*
X483436Y193257D01*
X482898Y192557D01*
X482560Y191741D01*
X482445Y190866D01*
X482560Y189991D01*
X482898Y189175D01*
X483436Y188475D01*
X484136Y187937D01*
X484951Y187600D01*
X485827Y187484D01*
X486702Y187600D01*
X487518Y187937D01*
X488218Y188475D01*
X488755Y189175D01*
X489093Y189991D01*
X489208Y190866D01*
X489093Y191741D01*
X488755Y192557D01*
X488218Y193257D01*
X487518Y193795D01*
X486702Y194133D01*
X485827Y194248D01*
D02*
G37*
G36*
X495827Y194248D02*
X494951Y194133D01*
X494136Y193795D01*
X493436Y193257D01*
X492898Y192557D01*
X492560Y191741D01*
X492445Y190866D01*
X492560Y189991D01*
X492898Y189175D01*
X493436Y188475D01*
X494136Y187937D01*
X494951Y187600D01*
X495827Y187484D01*
X496702Y187600D01*
X497518Y187937D01*
X498218Y188475D01*
X498755Y189175D01*
X499093Y189991D01*
X499208Y190866D01*
X499093Y191741D01*
X498755Y192557D01*
X498218Y193257D01*
X497518Y193795D01*
X496702Y194133D01*
X495827Y194248D01*
D02*
G37*
G36*
X120472Y186452D02*
X119932Y186345D01*
X119473Y186038D01*
X119167Y185580D01*
X119060Y185039D01*
X119167Y184499D01*
X119473Y184040D01*
X119932Y183734D01*
X120472Y183626D01*
X121013Y183734D01*
X121472Y184040D01*
X121778Y184499D01*
X121885Y185039D01*
X121778Y185580D01*
X121472Y186038D01*
X121013Y186345D01*
X120472Y186452D01*
D02*
G37*
G36*
X486027Y184221D02*
Y181066D01*
X489182D01*
X489093Y181741D01*
X488755Y182557D01*
X488218Y183257D01*
X487518Y183795D01*
X486702Y184133D01*
X486027Y184221D01*
D02*
G37*
G36*
X485627D02*
X484951Y184133D01*
X484136Y183795D01*
X483436Y183257D01*
X482898Y182557D01*
X482560Y181741D01*
X482471Y181066D01*
X485627D01*
Y184221D01*
D02*
G37*
G36*
Y180666D02*
X482471D01*
X482560Y179991D01*
X482898Y179175D01*
X483436Y178475D01*
X484136Y177937D01*
X484951Y177600D01*
X485627Y177511D01*
Y180666D01*
D02*
G37*
G36*
X489182D02*
X486027D01*
Y177511D01*
X486702Y177600D01*
X487518Y177937D01*
X488218Y178475D01*
X488755Y179175D01*
X489093Y179991D01*
X489182Y180666D01*
D02*
G37*
G36*
X495827Y184248D02*
X494951Y184133D01*
X494136Y183795D01*
X493436Y183257D01*
X492898Y182557D01*
X492560Y181741D01*
X492445Y180866D01*
X492560Y179991D01*
X492898Y179175D01*
X493436Y178475D01*
X494136Y177937D01*
X494951Y177600D01*
X495827Y177484D01*
X496702Y177600D01*
X497518Y177937D01*
X498218Y178475D01*
X498755Y179175D01*
X499093Y179991D01*
X499208Y180866D01*
X499093Y181741D01*
X498755Y182557D01*
X498218Y183257D01*
X497518Y183795D01*
X496702Y184133D01*
X495827Y184248D01*
D02*
G37*
G36*
X452362Y178185D02*
X451822Y178077D01*
X451363Y177771D01*
X451057Y177312D01*
X450949Y176772D01*
X451057Y176231D01*
X451363Y175773D01*
X451822Y175466D01*
X452362Y175359D01*
X452903Y175466D01*
X453361Y175773D01*
X453668Y176231D01*
X453775Y176772D01*
X453668Y177312D01*
X453361Y177771D01*
X452903Y178077D01*
X452362Y178185D01*
D02*
G37*
G36*
X499180Y174219D02*
X492474D01*
Y167513D01*
X499180D01*
Y174219D01*
D02*
G37*
G36*
X485827Y174248D02*
X484951Y174133D01*
X484136Y173795D01*
X483436Y173257D01*
X482898Y172557D01*
X482560Y171741D01*
X482445Y170866D01*
X482560Y169991D01*
X482898Y169175D01*
X483436Y168475D01*
X484136Y167938D01*
X484951Y167600D01*
X485827Y167484D01*
X486702Y167600D01*
X487518Y167938D01*
X488218Y168475D01*
X488755Y169175D01*
X489093Y169991D01*
X489208Y170866D01*
X489093Y171741D01*
X488755Y172557D01*
X488218Y173257D01*
X487518Y173795D01*
X486702Y174133D01*
X485827Y174248D01*
D02*
G37*
G36*
X146850Y169130D02*
X146310Y169022D01*
X145851Y168716D01*
X145545Y168257D01*
X145437Y167717D01*
X145545Y167176D01*
X145851Y166717D01*
X146310Y166411D01*
X146850Y166304D01*
X147391Y166411D01*
X147850Y166717D01*
X148156Y167176D01*
X148263Y167717D01*
X148156Y168257D01*
X147850Y168716D01*
X147391Y169022D01*
X146850Y169130D01*
D02*
G37*
G36*
X129528Y164011D02*
X128987Y163904D01*
X128528Y163598D01*
X128222Y163139D01*
X128115Y162598D01*
X128222Y162058D01*
X128528Y161599D01*
X128987Y161293D01*
X129528Y161186D01*
X130068Y161293D01*
X130527Y161599D01*
X130833Y162058D01*
X130940Y162598D01*
X130833Y163139D01*
X130527Y163598D01*
X130068Y163904D01*
X129528Y164011D01*
D02*
G37*
G36*
X124016D02*
X123475Y163904D01*
X123017Y163598D01*
X122710Y163139D01*
X122603Y162598D01*
X122710Y162058D01*
X123017Y161599D01*
X123475Y161293D01*
X124016Y161186D01*
X124557Y161293D01*
X125015Y161599D01*
X125321Y162058D01*
X125429Y162598D01*
X125321Y163139D01*
X125015Y163598D01*
X124557Y163904D01*
X124016Y164011D01*
D02*
G37*
G36*
X422047Y159681D02*
X421507Y159573D01*
X421048Y159267D01*
X420742Y158808D01*
X420634Y158268D01*
X420742Y157727D01*
X421048Y157269D01*
X421507Y156962D01*
X422047Y156855D01*
X422588Y156962D01*
X423046Y157269D01*
X423353Y157727D01*
X423460Y158268D01*
X423353Y158808D01*
X423046Y159267D01*
X422588Y159573D01*
X422047Y159681D01*
D02*
G37*
G36*
X457087Y162403D02*
X456016Y162262D01*
X455019Y161849D01*
X454163Y161192D01*
X453505Y160335D01*
X453092Y159338D01*
X452951Y158268D01*
X453092Y157197D01*
X453505Y156200D01*
X454163Y155344D01*
X455019Y154686D01*
X456016Y154273D01*
X457087Y154132D01*
X458157Y154273D01*
X459154Y154686D01*
X460011Y155344D01*
X460668Y156200D01*
X461081Y157197D01*
X461222Y158268D01*
X461081Y159338D01*
X460668Y160335D01*
X460011Y161192D01*
X459154Y161849D01*
X458157Y162262D01*
X457087Y162403D01*
D02*
G37*
G36*
X162598Y149051D02*
X162058Y148943D01*
X161599Y148637D01*
X161293Y148179D01*
X161186Y147638D01*
X161293Y147097D01*
X161599Y146639D01*
X162058Y146332D01*
X162598Y146225D01*
X163139Y146332D01*
X163598Y146639D01*
X163904Y147097D01*
X164011Y147638D01*
X163904Y148179D01*
X163598Y148637D01*
X163139Y148943D01*
X162598Y149051D01*
D02*
G37*
G36*
X130709Y148178D02*
X129899Y148017D01*
X129213Y147559D01*
X128754Y146873D01*
X128593Y146063D01*
X128660Y145727D01*
X124024Y141090D01*
X124016Y141092D01*
X123206Y140931D01*
X122520Y140472D01*
X122061Y139786D01*
X121900Y138976D01*
X122061Y138167D01*
X122520Y137480D01*
X123206Y137022D01*
X124016Y136861D01*
X124825Y137022D01*
X125512Y137480D01*
X125970Y138167D01*
X126131Y138976D01*
X125999Y139641D01*
X130372Y144015D01*
X130709Y143948D01*
X131518Y144109D01*
X132204Y144567D01*
X132663Y145253D01*
X132824Y146063D01*
X132663Y146873D01*
X132204Y147559D01*
X131518Y148017D01*
X130709Y148178D01*
D02*
G37*
G36*
X422047Y144720D02*
X421507Y144613D01*
X421048Y144306D01*
X420742Y143848D01*
X420634Y143307D01*
X420679Y143083D01*
X415019Y137423D01*
X413305D01*
X413037Y137923D01*
X413116Y138042D01*
X413224Y138583D01*
X413116Y139123D01*
X412810Y139582D01*
X412352Y139888D01*
X411811Y139996D01*
X411270Y139888D01*
X410812Y139582D01*
X410506Y139123D01*
X410398Y138583D01*
X410506Y138042D01*
X410585Y137923D01*
X410318Y137423D01*
X371179D01*
X370911Y137923D01*
X370990Y138042D01*
X371098Y138583D01*
X370990Y139123D01*
X370684Y139582D01*
X370226Y139888D01*
X369685Y139996D01*
X369144Y139888D01*
X368686Y139582D01*
X368380Y139123D01*
X368272Y138583D01*
X368380Y138042D01*
X368459Y137923D01*
X368192Y137423D01*
X329052D01*
X328785Y137923D01*
X328865Y138042D01*
X328972Y138583D01*
X328865Y139123D01*
X328558Y139582D01*
X328100Y139888D01*
X327559Y139996D01*
X327018Y139888D01*
X326560Y139582D01*
X326254Y139123D01*
X326146Y138583D01*
X326254Y138042D01*
X326333Y137923D01*
X326066Y137423D01*
X286927D01*
X286659Y137923D01*
X286738Y138042D01*
X286846Y138583D01*
X286738Y139123D01*
X286432Y139582D01*
X285974Y139888D01*
X285433Y139996D01*
X284892Y139888D01*
X284434Y139582D01*
X284128Y139123D01*
X284020Y138583D01*
X284128Y138042D01*
X284207Y137923D01*
X283940Y137423D01*
X244801D01*
X244533Y137923D01*
X244613Y138042D01*
X244720Y138583D01*
X244613Y139123D01*
X244306Y139582D01*
X243848Y139888D01*
X243307Y139996D01*
X242766Y139888D01*
X242308Y139582D01*
X242002Y139123D01*
X241894Y138583D01*
X242002Y138042D01*
X242081Y137923D01*
X241814Y137423D01*
X202675D01*
X202407Y137923D01*
X202486Y138042D01*
X202594Y138583D01*
X202486Y139123D01*
X202180Y139582D01*
X201722Y139888D01*
X201181Y139996D01*
X200640Y139888D01*
X200182Y139582D01*
X199876Y139123D01*
X199768Y138583D01*
X199876Y138042D01*
X199955Y137923D01*
X199688Y137423D01*
X160549D01*
X160281Y137923D01*
X160361Y138042D01*
X160468Y138583D01*
X160361Y139123D01*
X160054Y139582D01*
X159596Y139888D01*
X159055Y139996D01*
X158514Y139888D01*
X158056Y139582D01*
X157750Y139123D01*
X157642Y138583D01*
X157750Y138042D01*
X157829Y137923D01*
X157562Y137423D01*
X131831D01*
X130502Y138752D01*
X130547Y138976D01*
X130439Y139517D01*
X130133Y139976D01*
X129675Y140282D01*
X129134Y140389D01*
X128593Y140282D01*
X128135Y139976D01*
X127828Y139517D01*
X127721Y138976D01*
X127828Y138436D01*
X128135Y137977D01*
X128593Y137671D01*
X129134Y137563D01*
X129358Y137608D01*
X130924Y136042D01*
X130924Y136042D01*
X131186Y135866D01*
X131496Y135805D01*
X131496Y135805D01*
X415354D01*
X415354Y135805D01*
X415664Y135866D01*
X415927Y136042D01*
X421823Y141939D01*
X422047Y141894D01*
X422588Y142002D01*
X423046Y142308D01*
X423353Y142766D01*
X423460Y143307D01*
X423353Y143848D01*
X423046Y144306D01*
X422588Y144613D01*
X422047Y144720D01*
D02*
G37*
G36*
X457087Y147442D02*
X456016Y147302D01*
X455019Y146888D01*
X454163Y146231D01*
X453505Y145375D01*
X453092Y144377D01*
X452951Y143307D01*
X453092Y142237D01*
X453505Y141239D01*
X453666Y141031D01*
X446122Y133486D01*
X149069D01*
X148657Y133858D01*
X148549Y134399D01*
X148243Y134857D01*
X147785Y135164D01*
X147244Y135271D01*
X146703Y135164D01*
X146245Y134857D01*
X145939Y134399D01*
X145831Y133858D01*
X145939Y133318D01*
X146245Y132859D01*
X146703Y132553D01*
X147244Y132445D01*
X147468Y132490D01*
X147853Y132105D01*
X147853Y132105D01*
X148116Y131930D01*
X148425Y131868D01*
X148425Y131868D01*
X446457D01*
X446457Y131868D01*
X446766Y131930D01*
X447029Y132105D01*
X454810Y139886D01*
X455019Y139726D01*
X456016Y139313D01*
X457087Y139172D01*
X458157Y139313D01*
X459154Y139726D01*
X460011Y140383D01*
X460668Y141239D01*
X461081Y142237D01*
X461222Y143307D01*
X461081Y144377D01*
X460668Y145375D01*
X460011Y146231D01*
X459154Y146888D01*
X458157Y147302D01*
X457087Y147442D01*
D02*
G37*
G36*
X120472Y134878D02*
X119932Y134770D01*
X119473Y134464D01*
X119167Y134005D01*
X119060Y133465D01*
X119167Y132924D01*
X119473Y132466D01*
X119932Y132159D01*
X120472Y132052D01*
X121013Y132159D01*
X121472Y132466D01*
X121778Y132924D01*
X121885Y133465D01*
X121778Y134005D01*
X121472Y134464D01*
X121013Y134770D01*
X120472Y134878D01*
D02*
G37*
G36*
X486027Y134064D02*
Y130909D01*
X489182D01*
X489093Y131584D01*
X488755Y132399D01*
X488218Y133100D01*
X487518Y133637D01*
X486702Y133975D01*
X486027Y134064D01*
D02*
G37*
G36*
X485627D02*
X484951Y133975D01*
X484136Y133637D01*
X483435Y133100D01*
X482898Y132399D01*
X482560Y131584D01*
X482471Y130909D01*
X485627D01*
Y134064D01*
D02*
G37*
G36*
X489182Y130509D02*
X486027D01*
Y127353D01*
X486702Y127442D01*
X487518Y127780D01*
X488218Y128317D01*
X488755Y129018D01*
X489093Y129833D01*
X489182Y130509D01*
D02*
G37*
G36*
X485627D02*
X482471D01*
X482560Y129833D01*
X482898Y129018D01*
X483435Y128317D01*
X484136Y127780D01*
X484951Y127442D01*
X485627Y127353D01*
Y130509D01*
D02*
G37*
G36*
X495827Y134090D02*
X494951Y133975D01*
X494136Y133637D01*
X493436Y133100D01*
X492898Y132399D01*
X492560Y131584D01*
X492445Y130709D01*
X492560Y129833D01*
X492898Y129018D01*
X493436Y128317D01*
X494136Y127780D01*
X494951Y127442D01*
X495827Y127327D01*
X496702Y127442D01*
X497518Y127780D01*
X498218Y128317D01*
X498755Y129018D01*
X499093Y129833D01*
X499208Y130709D01*
X499093Y131584D01*
X498755Y132399D01*
X498218Y133100D01*
X497518Y133637D01*
X496702Y133975D01*
X495827Y134090D01*
D02*
G37*
G36*
Y124090D02*
X494951Y123975D01*
X494136Y123637D01*
X493436Y123100D01*
X492898Y122399D01*
X492560Y121584D01*
X492445Y120709D01*
X492560Y119833D01*
X492898Y119018D01*
X493436Y118317D01*
X494136Y117780D01*
X494951Y117442D01*
X495827Y117327D01*
X496702Y117442D01*
X497518Y117780D01*
X498218Y118317D01*
X498755Y119018D01*
X499093Y119833D01*
X499208Y120709D01*
X499093Y121584D01*
X498755Y122399D01*
X498218Y123100D01*
X497518Y123637D01*
X496702Y123975D01*
X495827Y124090D01*
D02*
G37*
G36*
X485827Y124090D02*
X484951Y123975D01*
X484136Y123637D01*
X483435Y123100D01*
X482898Y122399D01*
X482560Y121584D01*
X482445Y120709D01*
X482560Y119833D01*
X482898Y119018D01*
X483435Y118317D01*
X484136Y117780D01*
X484951Y117442D01*
X485827Y117327D01*
X486702Y117442D01*
X487518Y117780D01*
X488218Y118317D01*
X488755Y119018D01*
X489093Y119833D01*
X489208Y120709D01*
X489093Y121584D01*
X488755Y122399D01*
X488218Y123100D01*
X487518Y123637D01*
X486702Y123975D01*
X485827Y124090D01*
D02*
G37*
G36*
X146850Y117161D02*
X146310Y117053D01*
X145851Y116747D01*
X145545Y116289D01*
X145437Y115748D01*
X145545Y115207D01*
X145851Y114749D01*
X146310Y114443D01*
X146850Y114335D01*
X147391Y114443D01*
X147850Y114749D01*
X148156Y115207D01*
X148263Y115748D01*
X148156Y116289D01*
X147850Y116747D01*
X147391Y117053D01*
X146850Y117161D01*
D02*
G37*
G36*
X486027Y114064D02*
Y110909D01*
X489182D01*
X489093Y111584D01*
X488755Y112399D01*
X488218Y113100D01*
X487518Y113637D01*
X486702Y113975D01*
X486027Y114064D01*
D02*
G37*
G36*
X485627D02*
X484951Y113975D01*
X484136Y113637D01*
X483436Y113100D01*
X482898Y112399D01*
X482560Y111584D01*
X482471Y110909D01*
X485627D01*
Y114064D01*
D02*
G37*
G36*
X124016Y112043D02*
X123475Y111935D01*
X123017Y111629D01*
X122710Y111171D01*
X122603Y110630D01*
X122710Y110089D01*
X123017Y109631D01*
X123475Y109325D01*
X124016Y109217D01*
X124557Y109325D01*
X125015Y109631D01*
X125321Y110089D01*
X125429Y110630D01*
X125321Y111171D01*
X125015Y111629D01*
X124557Y111935D01*
X124016Y112043D01*
D02*
G37*
G36*
X129528Y112043D02*
X128987Y111935D01*
X128528Y111629D01*
X128222Y111171D01*
X128115Y110630D01*
X128222Y110089D01*
X128528Y109631D01*
X128987Y109325D01*
X129528Y109217D01*
X130068Y109325D01*
X130527Y109631D01*
X130833Y110089D01*
X130940Y110630D01*
X130833Y111171D01*
X130527Y111629D01*
X130068Y111935D01*
X129528Y112043D01*
D02*
G37*
G36*
X489182Y110509D02*
X486027D01*
Y107353D01*
X486702Y107442D01*
X487518Y107780D01*
X488218Y108317D01*
X488755Y109018D01*
X489093Y109833D01*
X489182Y110509D01*
D02*
G37*
G36*
X485627D02*
X482471D01*
X482560Y109833D01*
X482898Y109018D01*
X483436Y108317D01*
X484136Y107780D01*
X484951Y107442D01*
X485627Y107353D01*
Y110509D01*
D02*
G37*
G36*
X495827Y114090D02*
X494951Y113975D01*
X494136Y113637D01*
X493436Y113100D01*
X492898Y112399D01*
X492560Y111584D01*
X492445Y110709D01*
X492560Y109833D01*
X492898Y109018D01*
X493436Y108317D01*
X494136Y107780D01*
X494951Y107442D01*
X495827Y107327D01*
X496702Y107442D01*
X497518Y107780D01*
X498218Y108317D01*
X498755Y109018D01*
X499093Y109833D01*
X499208Y110709D01*
X499093Y111584D01*
X498755Y112399D01*
X498218Y113100D01*
X497518Y113637D01*
X496702Y113975D01*
X495827Y114090D01*
D02*
G37*
G36*
X422047Y107712D02*
X421507Y107605D01*
X421048Y107298D01*
X420742Y106840D01*
X420634Y106299D01*
X420742Y105759D01*
X421048Y105300D01*
X421507Y104994D01*
X422047Y104886D01*
X422588Y104994D01*
X423046Y105300D01*
X423353Y105759D01*
X423460Y106299D01*
X423353Y106840D01*
X423046Y107298D01*
X422588Y107605D01*
X422047Y107712D01*
D02*
G37*
G36*
X457087Y110435D02*
X456016Y110294D01*
X455019Y109880D01*
X454163Y109223D01*
X453505Y108367D01*
X453092Y107369D01*
X452951Y106299D01*
X453092Y105229D01*
X453505Y104232D01*
X454163Y103375D01*
X455019Y102718D01*
X456016Y102305D01*
X457087Y102164D01*
X458157Y102305D01*
X459154Y102718D01*
X460011Y103375D01*
X460668Y104232D01*
X461081Y105229D01*
X461222Y106299D01*
X461081Y107369D01*
X460668Y108367D01*
X460011Y109223D01*
X459154Y109880D01*
X458157Y110294D01*
X457087Y110435D01*
D02*
G37*
G36*
X495827Y104090D02*
X494951Y103975D01*
X494136Y103637D01*
X493436Y103100D01*
X492898Y102400D01*
X492560Y101584D01*
X492445Y100709D01*
X492560Y99833D01*
X492898Y99018D01*
X493436Y98317D01*
X494136Y97780D01*
X494951Y97442D01*
X495827Y97327D01*
X496702Y97442D01*
X497518Y97780D01*
X498218Y98317D01*
X498755Y99018D01*
X499093Y99833D01*
X499208Y100709D01*
X499093Y101584D01*
X498755Y102400D01*
X498218Y103100D01*
X497518Y103637D01*
X496702Y103975D01*
X495827Y104090D01*
D02*
G37*
G36*
X485827D02*
X484951Y103975D01*
X484136Y103637D01*
X483436Y103100D01*
X482898Y102400D01*
X482560Y101584D01*
X482445Y100709D01*
X482560Y99833D01*
X482898Y99018D01*
X483436Y98317D01*
X484136Y97780D01*
X484951Y97442D01*
X485827Y97327D01*
X486702Y97442D01*
X487518Y97780D01*
X488218Y98317D01*
X488755Y99018D01*
X489093Y99833D01*
X489208Y100709D01*
X489093Y101584D01*
X488755Y102400D01*
X488218Y103100D01*
X487518Y103637D01*
X486702Y103975D01*
X485827Y104090D01*
D02*
G37*
G36*
X162598Y97082D02*
X162058Y96975D01*
X161599Y96668D01*
X161293Y96210D01*
X161186Y95669D01*
X161293Y95129D01*
X161599Y94670D01*
X162058Y94364D01*
X162598Y94256D01*
X163139Y94364D01*
X163598Y94670D01*
X163904Y95129D01*
X164011Y95669D01*
X163904Y96210D01*
X163598Y96668D01*
X163139Y96975D01*
X162598Y97082D01*
D02*
G37*
G36*
X130709Y96210D02*
X129899Y96049D01*
X129213Y95590D01*
X128754Y94904D01*
X128593Y94095D01*
X128660Y93758D01*
X124024Y89122D01*
X124016Y89123D01*
X123206Y88962D01*
X122520Y88504D01*
X122061Y87817D01*
X121900Y87008D01*
X122061Y86198D01*
X122520Y85512D01*
X123206Y85053D01*
X124016Y84892D01*
X124825Y85053D01*
X125512Y85512D01*
X125970Y86198D01*
X126131Y87008D01*
X125999Y87673D01*
X130372Y92046D01*
X130709Y91979D01*
X131518Y92140D01*
X132204Y92599D01*
X132663Y93285D01*
X132824Y94095D01*
X132663Y94904D01*
X132204Y95590D01*
X131518Y96049D01*
X130709Y96210D01*
D02*
G37*
G36*
X486027Y94064D02*
Y90909D01*
X489182D01*
X489093Y91584D01*
X488755Y92400D01*
X488218Y93100D01*
X487518Y93637D01*
X486702Y93975D01*
X486027Y94064D01*
D02*
G37*
G36*
X485627D02*
X484951Y93975D01*
X484136Y93637D01*
X483436Y93100D01*
X482898Y92400D01*
X482560Y91584D01*
X482471Y90909D01*
X485627D01*
Y94064D01*
D02*
G37*
G36*
X422047Y92752D02*
X421507Y92644D01*
X421048Y92338D01*
X420742Y91879D01*
X420634Y91339D01*
X420679Y91115D01*
X415019Y85455D01*
X413305D01*
X413037Y85955D01*
X413116Y86073D01*
X413224Y86614D01*
X413116Y87155D01*
X412810Y87613D01*
X412352Y87920D01*
X411811Y88027D01*
X411270Y87920D01*
X410812Y87613D01*
X410506Y87155D01*
X410398Y86614D01*
X410506Y86073D01*
X410585Y85955D01*
X410318Y85455D01*
X371179D01*
X370911Y85955D01*
X370990Y86073D01*
X371098Y86614D01*
X370990Y87155D01*
X370684Y87613D01*
X370226Y87920D01*
X369685Y88027D01*
X369144Y87920D01*
X368686Y87613D01*
X368380Y87155D01*
X368272Y86614D01*
X368380Y86073D01*
X368459Y85955D01*
X368192Y85455D01*
X329052D01*
X328785Y85955D01*
X328865Y86073D01*
X328972Y86614D01*
X328865Y87155D01*
X328558Y87613D01*
X328100Y87920D01*
X327559Y88027D01*
X327018Y87920D01*
X326560Y87613D01*
X326254Y87155D01*
X326146Y86614D01*
X326254Y86073D01*
X326333Y85955D01*
X326066Y85455D01*
X286927D01*
X286659Y85955D01*
X286738Y86073D01*
X286846Y86614D01*
X286738Y87155D01*
X286432Y87613D01*
X285974Y87920D01*
X285433Y88027D01*
X284892Y87920D01*
X284434Y87613D01*
X284128Y87155D01*
X284020Y86614D01*
X284128Y86073D01*
X284207Y85955D01*
X283940Y85455D01*
X244801D01*
X244533Y85955D01*
X244613Y86073D01*
X244720Y86614D01*
X244613Y87155D01*
X244306Y87613D01*
X243848Y87920D01*
X243307Y88027D01*
X242766Y87920D01*
X242308Y87613D01*
X242002Y87155D01*
X241894Y86614D01*
X242002Y86073D01*
X242081Y85955D01*
X241814Y85455D01*
X202675D01*
X202407Y85955D01*
X202486Y86073D01*
X202594Y86614D01*
X202486Y87155D01*
X202180Y87613D01*
X201722Y87920D01*
X201181Y88027D01*
X200640Y87920D01*
X200182Y87613D01*
X199876Y87155D01*
X199768Y86614D01*
X199876Y86073D01*
X199955Y85955D01*
X199688Y85455D01*
X160549D01*
X160281Y85955D01*
X160361Y86073D01*
X160468Y86614D01*
X160361Y87155D01*
X160054Y87613D01*
X159596Y87920D01*
X159055Y88027D01*
X158514Y87920D01*
X158056Y87613D01*
X157750Y87155D01*
X157642Y86614D01*
X157750Y86073D01*
X157829Y85955D01*
X157562Y85455D01*
X131831D01*
X130502Y86784D01*
X130547Y87008D01*
X130439Y87549D01*
X130133Y88007D01*
X129675Y88313D01*
X129134Y88421D01*
X128593Y88313D01*
X128135Y88007D01*
X127828Y87549D01*
X127721Y87008D01*
X127828Y86467D01*
X128135Y86009D01*
X128593Y85703D01*
X129134Y85595D01*
X129358Y85640D01*
X130924Y84074D01*
X130924Y84074D01*
X131186Y83898D01*
X131496Y83836D01*
X131496Y83836D01*
X415354D01*
X415354Y83836D01*
X415664Y83898D01*
X415927Y84074D01*
X421823Y89970D01*
X422047Y89926D01*
X422588Y90033D01*
X423046Y90339D01*
X423353Y90798D01*
X423460Y91339D01*
X423353Y91879D01*
X423046Y92338D01*
X422588Y92644D01*
X422047Y92752D01*
D02*
G37*
G36*
X485627Y90509D02*
X482471D01*
X482560Y89833D01*
X482898Y89018D01*
X483436Y88317D01*
X484136Y87780D01*
X484951Y87442D01*
X485627Y87353D01*
Y90509D01*
D02*
G37*
G36*
X489182D02*
X486027D01*
Y87353D01*
X486702Y87442D01*
X487518Y87780D01*
X488218Y88317D01*
X488755Y89018D01*
X489093Y89833D01*
X489182Y90509D01*
D02*
G37*
G36*
X495827Y94090D02*
X494951Y93975D01*
X494136Y93637D01*
X493436Y93100D01*
X492898Y92400D01*
X492560Y91584D01*
X492445Y90709D01*
X492560Y89833D01*
X492898Y89018D01*
X493436Y88317D01*
X494136Y87780D01*
X494951Y87442D01*
X495827Y87327D01*
X496702Y87442D01*
X497518Y87780D01*
X498218Y88317D01*
X498755Y89018D01*
X499093Y89833D01*
X499208Y90709D01*
X499093Y91584D01*
X498755Y92400D01*
X498218Y93100D01*
X497518Y93637D01*
X496702Y93975D01*
X495827Y94090D01*
D02*
G37*
G36*
X457087Y95474D02*
X456016Y95333D01*
X455019Y94920D01*
X454163Y94263D01*
X453505Y93406D01*
X453092Y92409D01*
X452951Y91339D01*
X453092Y90268D01*
X453505Y89271D01*
X453666Y89062D01*
X446122Y81518D01*
X149069D01*
X148657Y81890D01*
X148549Y82430D01*
X148243Y82889D01*
X147785Y83195D01*
X147244Y83303D01*
X146703Y83195D01*
X146245Y82889D01*
X145939Y82430D01*
X145831Y81890D01*
X145939Y81349D01*
X146245Y80891D01*
X146703Y80584D01*
X147244Y80477D01*
X147468Y80521D01*
X147853Y80137D01*
X147853Y80136D01*
X148116Y79961D01*
X148425Y79899D01*
X148425Y79899D01*
X446457D01*
X446457Y79899D01*
X446766Y79961D01*
X447029Y80136D01*
X454810Y87918D01*
X455019Y87757D01*
X456016Y87344D01*
X457087Y87203D01*
X458157Y87344D01*
X459154Y87757D01*
X460011Y88414D01*
X460668Y89271D01*
X461081Y90268D01*
X461222Y91339D01*
X461081Y92409D01*
X460668Y93406D01*
X460011Y94263D01*
X459154Y94920D01*
X458157Y95333D01*
X457087Y95474D01*
D02*
G37*
G36*
X120472Y82515D02*
X119932Y82408D01*
X119473Y82102D01*
X119167Y81643D01*
X119060Y81102D01*
X119167Y80562D01*
X119473Y80103D01*
X119932Y79797D01*
X120472Y79689D01*
X121013Y79797D01*
X121472Y80103D01*
X121778Y80562D01*
X121885Y81102D01*
X121778Y81643D01*
X121472Y82102D01*
X121013Y82408D01*
X120472Y82515D01*
D02*
G37*
G36*
X495827Y84090D02*
X494951Y83975D01*
X494136Y83637D01*
X493436Y83100D01*
X492898Y82399D01*
X492560Y81584D01*
X492445Y80709D01*
X492560Y79833D01*
X492898Y79018D01*
X493436Y78317D01*
X494136Y77780D01*
X494951Y77442D01*
X495827Y77327D01*
X496702Y77442D01*
X497518Y77780D01*
X498218Y78317D01*
X498755Y79018D01*
X499093Y79833D01*
X499208Y80709D01*
X499093Y81584D01*
X498755Y82399D01*
X498218Y83100D01*
X497518Y83637D01*
X496702Y83975D01*
X495827Y84090D01*
D02*
G37*
G36*
X485827D02*
X484951Y83975D01*
X484136Y83637D01*
X483435Y83100D01*
X482898Y82399D01*
X482560Y81584D01*
X482445Y80709D01*
X482560Y79833D01*
X482898Y79018D01*
X483435Y78317D01*
X484136Y77780D01*
X484951Y77442D01*
X485827Y77327D01*
X486702Y77442D01*
X487518Y77780D01*
X488218Y78317D01*
X488755Y79018D01*
X489093Y79833D01*
X489208Y80709D01*
X489093Y81584D01*
X488755Y82399D01*
X488218Y83100D01*
X487518Y83637D01*
X486702Y83975D01*
X485827Y84090D01*
D02*
G37*
G36*
X486027Y74064D02*
Y70909D01*
X489182D01*
X489093Y71584D01*
X488755Y72399D01*
X488218Y73100D01*
X487518Y73637D01*
X486702Y73975D01*
X486027Y74064D01*
D02*
G37*
G36*
X485627D02*
X484951Y73975D01*
X484136Y73637D01*
X483436Y73100D01*
X482898Y72399D01*
X482560Y71584D01*
X482471Y70909D01*
X485627D01*
Y74064D01*
D02*
G37*
G36*
X489182Y70509D02*
X486027D01*
Y67353D01*
X486702Y67442D01*
X487518Y67780D01*
X488218Y68317D01*
X488755Y69018D01*
X489093Y69833D01*
X489182Y70509D01*
D02*
G37*
G36*
X485627D02*
X482471D01*
X482560Y69833D01*
X482898Y69018D01*
X483436Y68317D01*
X484136Y67780D01*
X484951Y67442D01*
X485627Y67353D01*
Y70509D01*
D02*
G37*
G36*
X495827Y74090D02*
X494951Y73975D01*
X494136Y73637D01*
X493436Y73100D01*
X492898Y72399D01*
X492560Y71584D01*
X492445Y70709D01*
X492560Y69833D01*
X492898Y69018D01*
X493436Y68317D01*
X494136Y67780D01*
X494951Y67442D01*
X495827Y67327D01*
X496702Y67442D01*
X497518Y67780D01*
X498218Y68317D01*
X498755Y69018D01*
X499093Y69833D01*
X499208Y70709D01*
X499093Y71584D01*
X498755Y72399D01*
X498218Y73100D01*
X497518Y73637D01*
X496702Y73975D01*
X495827Y74090D01*
D02*
G37*
G36*
X146850Y65193D02*
X146310Y65085D01*
X145851Y64779D01*
X145545Y64320D01*
X145437Y63779D01*
X145545Y63239D01*
X145851Y62780D01*
X146310Y62474D01*
X146850Y62367D01*
X147391Y62474D01*
X147850Y62780D01*
X148156Y63239D01*
X148263Y63779D01*
X148156Y64320D01*
X147850Y64779D01*
X147391Y65085D01*
X146850Y65193D01*
D02*
G37*
G36*
X495827Y64090D02*
X494951Y63975D01*
X494136Y63637D01*
X493436Y63100D01*
X492898Y62400D01*
X492560Y61584D01*
X492445Y60709D01*
X492560Y59833D01*
X492898Y59018D01*
X493436Y58317D01*
X494136Y57780D01*
X494951Y57442D01*
X495827Y57327D01*
X496702Y57442D01*
X497518Y57780D01*
X498218Y58317D01*
X498755Y59018D01*
X499093Y59833D01*
X499208Y60709D01*
X499093Y61584D01*
X498755Y62400D01*
X498218Y63100D01*
X497518Y63637D01*
X496702Y63975D01*
X495827Y64090D01*
D02*
G37*
G36*
X485827D02*
X484951Y63975D01*
X484136Y63637D01*
X483436Y63100D01*
X482898Y62400D01*
X482560Y61584D01*
X482445Y60709D01*
X482560Y59833D01*
X482898Y59018D01*
X483436Y58317D01*
X484136Y57780D01*
X484951Y57442D01*
X485827Y57327D01*
X486702Y57442D01*
X487518Y57780D01*
X488218Y58317D01*
X488755Y59018D01*
X489093Y59833D01*
X489208Y60709D01*
X489093Y61584D01*
X488755Y62400D01*
X488218Y63100D01*
X487518Y63637D01*
X486702Y63975D01*
X485827Y64090D01*
D02*
G37*
G36*
X129528Y60074D02*
X128987Y59967D01*
X128528Y59661D01*
X128222Y59202D01*
X128115Y58661D01*
X128222Y58121D01*
X128528Y57662D01*
X128987Y57356D01*
X129528Y57249D01*
X130068Y57356D01*
X130527Y57662D01*
X130833Y58121D01*
X130940Y58661D01*
X130833Y59202D01*
X130527Y59661D01*
X130068Y59967D01*
X129528Y60074D01*
D02*
G37*
G36*
X124016D02*
X123475Y59967D01*
X123017Y59661D01*
X122710Y59202D01*
X122603Y58661D01*
X122710Y58121D01*
X123017Y57662D01*
X123475Y57356D01*
X124016Y57249D01*
X124557Y57356D01*
X125015Y57662D01*
X125321Y58121D01*
X125429Y58661D01*
X125321Y59202D01*
X125015Y59661D01*
X124557Y59967D01*
X124016Y60074D01*
D02*
G37*
G36*
X422047Y55744D02*
X421507Y55636D01*
X421048Y55330D01*
X420742Y54871D01*
X420634Y54331D01*
X420742Y53790D01*
X421048Y53332D01*
X421507Y53025D01*
X422047Y52918D01*
X422588Y53025D01*
X423046Y53332D01*
X423353Y53790D01*
X423460Y54331D01*
X423353Y54871D01*
X423046Y55330D01*
X422588Y55636D01*
X422047Y55744D01*
D02*
G37*
G36*
X486027Y54064D02*
Y50909D01*
X489182D01*
X489093Y51584D01*
X488755Y52399D01*
X488218Y53100D01*
X487518Y53637D01*
X486702Y53975D01*
X486027Y54064D01*
D02*
G37*
G36*
X485627D02*
X484951Y53975D01*
X484136Y53637D01*
X483435Y53100D01*
X482898Y52399D01*
X482560Y51584D01*
X482471Y50909D01*
X485627D01*
Y54064D01*
D02*
G37*
G36*
X457087Y58466D02*
X456016Y58325D01*
X455019Y57912D01*
X454163Y57255D01*
X453505Y56398D01*
X453092Y55401D01*
X452951Y54331D01*
X453092Y53260D01*
X453505Y52263D01*
X454163Y51407D01*
X455019Y50749D01*
X456016Y50336D01*
X457087Y50195D01*
X458157Y50336D01*
X459154Y50749D01*
X460011Y51407D01*
X460668Y52263D01*
X461081Y53260D01*
X461222Y54331D01*
X461081Y55401D01*
X460668Y56398D01*
X460011Y57255D01*
X459154Y57912D01*
X458157Y58325D01*
X457087Y58466D01*
D02*
G37*
G36*
X489182Y50509D02*
X486027D01*
Y47353D01*
X486702Y47442D01*
X487518Y47780D01*
X488218Y48317D01*
X488755Y49018D01*
X489093Y49833D01*
X489182Y50509D01*
D02*
G37*
G36*
X485627D02*
X482471D01*
X482560Y49833D01*
X482898Y49018D01*
X483435Y48317D01*
X484136Y47780D01*
X484951Y47442D01*
X485627Y47353D01*
Y50509D01*
D02*
G37*
G36*
X495827Y54090D02*
X494951Y53975D01*
X494136Y53637D01*
X493436Y53100D01*
X492898Y52399D01*
X492560Y51584D01*
X492445Y50709D01*
X492560Y49833D01*
X492898Y49018D01*
X493436Y48317D01*
X494136Y47780D01*
X494951Y47442D01*
X495827Y47327D01*
X496702Y47442D01*
X497518Y47780D01*
X498218Y48317D01*
X498755Y49018D01*
X499093Y49833D01*
X499208Y50709D01*
X499093Y51584D01*
X498755Y52399D01*
X498218Y53100D01*
X497518Y53637D01*
X496702Y53975D01*
X495827Y54090D01*
D02*
G37*
G36*
X162598Y45114D02*
X162058Y45006D01*
X161599Y44700D01*
X161293Y44241D01*
X161186Y43701D01*
X161293Y43160D01*
X161599Y42702D01*
X162058Y42395D01*
X162598Y42288D01*
X163139Y42395D01*
X163598Y42702D01*
X163904Y43160D01*
X164011Y43701D01*
X163904Y44241D01*
X163598Y44700D01*
X163139Y45006D01*
X162598Y45114D01*
D02*
G37*
G36*
X130709Y44241D02*
X129899Y44080D01*
X129213Y43622D01*
X128754Y42935D01*
X128593Y42126D01*
X128660Y41790D01*
X124024Y37153D01*
X124016Y37155D01*
X123206Y36994D01*
X122520Y36535D01*
X122061Y35849D01*
X121900Y35039D01*
X122061Y34230D01*
X122520Y33544D01*
X123206Y33085D01*
X124016Y32924D01*
X124825Y33085D01*
X125512Y33544D01*
X125970Y34230D01*
X126131Y35039D01*
X125999Y35704D01*
X130372Y40077D01*
X130709Y40010D01*
X131518Y40172D01*
X132204Y40630D01*
X132663Y41316D01*
X132824Y42126D01*
X132663Y42935D01*
X132204Y43622D01*
X131518Y44080D01*
X130709Y44241D01*
D02*
G37*
G36*
X422047Y40783D02*
X421507Y40676D01*
X421048Y40369D01*
X420742Y39911D01*
X420634Y39370D01*
X420679Y39146D01*
X415019Y33486D01*
X413305D01*
X413037Y33986D01*
X413116Y34105D01*
X413224Y34646D01*
X413116Y35186D01*
X412810Y35645D01*
X412352Y35951D01*
X411811Y36059D01*
X411270Y35951D01*
X410812Y35645D01*
X410506Y35186D01*
X410398Y34646D01*
X410506Y34105D01*
X410585Y33986D01*
X410318Y33486D01*
X371179D01*
X370911Y33986D01*
X370990Y34105D01*
X371098Y34646D01*
X370990Y35186D01*
X370684Y35645D01*
X370226Y35951D01*
X369685Y36059D01*
X369144Y35951D01*
X368686Y35645D01*
X368380Y35186D01*
X368272Y34646D01*
X368380Y34105D01*
X368459Y33986D01*
X368192Y33486D01*
X329052D01*
X328785Y33986D01*
X328865Y34105D01*
X328972Y34646D01*
X328865Y35186D01*
X328558Y35645D01*
X328100Y35951D01*
X327559Y36059D01*
X327018Y35951D01*
X326560Y35645D01*
X326254Y35186D01*
X326146Y34646D01*
X326254Y34105D01*
X326333Y33986D01*
X326066Y33486D01*
X286927D01*
X286659Y33986D01*
X286738Y34105D01*
X286846Y34646D01*
X286738Y35186D01*
X286432Y35645D01*
X285974Y35951D01*
X285433Y36059D01*
X284892Y35951D01*
X284434Y35645D01*
X284128Y35186D01*
X284020Y34646D01*
X284128Y34105D01*
X284207Y33986D01*
X283940Y33486D01*
X244801D01*
X244533Y33986D01*
X244613Y34105D01*
X244720Y34646D01*
X244613Y35186D01*
X244306Y35645D01*
X243848Y35951D01*
X243307Y36059D01*
X242766Y35951D01*
X242308Y35645D01*
X242002Y35186D01*
X241894Y34646D01*
X242002Y34105D01*
X242081Y33986D01*
X241814Y33486D01*
X202675D01*
X202407Y33986D01*
X202486Y34105D01*
X202594Y34646D01*
X202486Y35186D01*
X202180Y35645D01*
X201722Y35951D01*
X201181Y36059D01*
X200640Y35951D01*
X200182Y35645D01*
X199876Y35186D01*
X199768Y34646D01*
X199876Y34105D01*
X199955Y33986D01*
X199688Y33486D01*
X160549D01*
X160281Y33986D01*
X160361Y34105D01*
X160468Y34646D01*
X160361Y35186D01*
X160054Y35645D01*
X159596Y35951D01*
X159055Y36059D01*
X158514Y35951D01*
X158056Y35645D01*
X157750Y35186D01*
X157642Y34646D01*
X157750Y34105D01*
X157829Y33986D01*
X157562Y33486D01*
X131831D01*
X130502Y34815D01*
X130547Y35039D01*
X130439Y35580D01*
X130133Y36039D01*
X129675Y36345D01*
X129134Y36452D01*
X128593Y36345D01*
X128135Y36039D01*
X127828Y35580D01*
X127721Y35039D01*
X127828Y34499D01*
X128135Y34040D01*
X128593Y33734D01*
X129134Y33626D01*
X129358Y33671D01*
X130924Y32105D01*
X130924Y32105D01*
X131186Y31929D01*
X131496Y31868D01*
X131496Y31868D01*
X415354D01*
X415354Y31868D01*
X415664Y31929D01*
X415927Y32105D01*
X421823Y38002D01*
X422047Y37957D01*
X422588Y38065D01*
X423046Y38371D01*
X423353Y38829D01*
X423460Y39370D01*
X423353Y39911D01*
X423046Y40369D01*
X422588Y40676D01*
X422047Y40783D01*
D02*
G37*
G36*
X499180Y44061D02*
X492474D01*
Y37356D01*
X499180D01*
Y44061D01*
D02*
G37*
G36*
X485827Y44090D02*
X484951Y43975D01*
X484136Y43637D01*
X483436Y43100D01*
X482898Y42399D01*
X482560Y41584D01*
X482445Y40709D01*
X482560Y39833D01*
X482898Y39018D01*
X483436Y38317D01*
X484136Y37780D01*
X484951Y37442D01*
X485827Y37327D01*
X486702Y37442D01*
X487518Y37780D01*
X488218Y38317D01*
X488755Y39018D01*
X489093Y39833D01*
X489208Y40709D01*
X489093Y41584D01*
X488755Y42399D01*
X488218Y43100D01*
X487518Y43637D01*
X486702Y43975D01*
X485827Y44090D01*
D02*
G37*
G36*
X457087Y43505D02*
X456016Y43365D01*
X455019Y42951D01*
X454163Y42294D01*
X453505Y41438D01*
X453092Y40440D01*
X452951Y39370D01*
X453092Y38300D01*
X453505Y37302D01*
X453666Y37093D01*
X446122Y29549D01*
X149069D01*
X148657Y29921D01*
X148549Y30462D01*
X148243Y30920D01*
X147785Y31227D01*
X147244Y31334D01*
X146703Y31227D01*
X146245Y30920D01*
X145939Y30462D01*
X145831Y29921D01*
X145939Y29381D01*
X146245Y28922D01*
X146703Y28616D01*
X147244Y28508D01*
X147468Y28553D01*
X147853Y28168D01*
X147853Y28168D01*
X148116Y27992D01*
X148425Y27931D01*
X148425Y27931D01*
X446457D01*
X446457Y27931D01*
X446766Y27992D01*
X447029Y28168D01*
X454810Y35949D01*
X455019Y35789D01*
X456016Y35376D01*
X457087Y35235D01*
X458157Y35376D01*
X459154Y35789D01*
X460011Y36446D01*
X460668Y37302D01*
X461081Y38300D01*
X461222Y39370D01*
X461081Y40440D01*
X460668Y41438D01*
X460011Y42294D01*
X459154Y42951D01*
X458157Y43365D01*
X457087Y43505D01*
D02*
G37*
G36*
X120472Y30940D02*
X119932Y30833D01*
X119473Y30527D01*
X119167Y30068D01*
X119060Y29528D01*
X119167Y28987D01*
X119473Y28528D01*
X119932Y28222D01*
X120472Y28115D01*
X121013Y28222D01*
X121472Y28528D01*
X121778Y28987D01*
X121885Y29528D01*
X121778Y30068D01*
X121472Y30527D01*
X121013Y30833D01*
X120472Y30940D01*
D02*
G37*
%LPD*%
D10*
X89376Y174809D02*
X95669Y181102D01*
X89370Y154226D02*
X89376Y154233D01*
Y174809D01*
X83071Y150787D02*
X87008D01*
X83071Y153150D02*
X86614D01*
X88189Y154724D01*
Y181102D01*
X92520Y185433D01*
X85821Y155905D02*
X87002Y157087D01*
X83071Y155905D02*
X85821D01*
X87002Y157087D02*
Y187395D01*
X89370Y189764D01*
X85814Y190145D02*
X87402Y191732D01*
X85814Y159830D02*
Y190145D01*
X84646Y158661D02*
X85814Y159830D01*
X83071Y158661D02*
X84646D01*
X89370Y153150D02*
Y154226D01*
X87008Y150787D02*
X89370Y153150D01*
X76363Y166521D02*
X84252Y174409D01*
Y191099D02*
X86853Y193701D01*
X89370D01*
X73894Y165279D02*
X74001Y165386D01*
X86736Y195270D02*
X87135Y195669D01*
X86453Y195270D02*
X86736D01*
X71327Y165467D02*
Y166545D01*
X81102Y176321D02*
Y191887D01*
X88035Y198819D02*
X92520D01*
X87135Y195669D02*
X87402D01*
X82677Y191494D02*
X86453Y195270D01*
X88976Y201969D02*
X97638D01*
X79528Y177165D02*
Y192520D01*
X68571Y165467D02*
Y166209D01*
X76363Y165386D02*
Y166521D01*
X74001Y166521D02*
X82677Y175197D01*
X74001Y165386D02*
Y166521D01*
X82677Y175197D02*
Y191494D01*
X71327Y166545D02*
X81102Y176321D01*
X71138Y165279D02*
X71327Y165467D01*
X81102Y191887D02*
X88035Y198819D01*
X76256Y165279D02*
X76363Y165386D01*
X84252Y174409D02*
Y191099D01*
X68571Y166209D02*
X79528Y177165D01*
X68382Y165279D02*
X68571Y165467D01*
X79528Y192520D02*
X88976Y201969D01*
X79528Y88583D02*
X88976Y98032D01*
X68382Y61342D02*
X68571Y61530D01*
Y62271D02*
X79528Y73228D01*
X84252Y70472D02*
Y87162D01*
X76256Y61342D02*
X76363Y61449D01*
X81102Y87950D02*
X88035Y94882D01*
X71138Y61342D02*
X71327Y61530D01*
Y62608D02*
X81102Y72384D01*
X82677Y71260D02*
Y87557D01*
X74001Y61449D02*
Y62584D01*
X82677Y71260D01*
X76363Y61449D02*
Y62584D01*
X68571Y61530D02*
Y62271D01*
X79528Y73228D02*
Y88583D01*
X88976Y98032D02*
X97638D01*
X82677Y87557D02*
X86453Y91333D01*
X87135Y91732D02*
X87402D01*
X88035Y94882D02*
X92520D01*
X81102Y72384D02*
Y87950D01*
X71327Y61530D02*
Y62608D01*
X86453Y91333D02*
X86736D01*
X87135Y91732D01*
X73894Y61342D02*
X74001Y61449D01*
X86853Y89764D02*
X89370D01*
X84252Y87162D02*
X86853Y89764D01*
X76363Y62584D02*
X84252Y70472D01*
X87008Y46850D02*
X89370Y49213D01*
Y50289D01*
X83071Y54724D02*
X84646D01*
X85814Y55893D01*
Y86208D01*
X87402Y87795D01*
X87002Y83458D02*
X89370Y85827D01*
X87002Y53150D02*
Y83458D01*
X83071Y51968D02*
X85821D01*
X87002Y53150D01*
X88189Y77165D02*
X92520Y81496D01*
X88189Y50787D02*
Y77165D01*
X86614Y49213D02*
X88189Y50787D01*
X83071Y49213D02*
X86614D01*
X83071Y46850D02*
X87008D01*
X89376Y50296D02*
Y70872D01*
X89370Y50289D02*
X89376Y50296D01*
Y70872D02*
X95669Y77165D01*
X415354Y240551D02*
X422835Y248031D01*
X422441Y195669D02*
Y195669D01*
X415354Y188583D02*
X422441Y195669D01*
X446457Y28740D02*
X457087Y39370D01*
X148425Y28740D02*
X446457D01*
Y80709D02*
X457087Y91339D01*
X148425Y80709D02*
X446457D01*
X446457Y236614D02*
X457087Y247244D01*
X148425Y236614D02*
X446457D01*
X446457Y184646D02*
X457087Y195276D01*
X148425Y184646D02*
X446457D01*
X446457Y132677D02*
X457087Y143307D01*
X148425Y132677D02*
X446457D01*
X131496Y240551D02*
X415354D01*
X129134Y242913D02*
X131496Y240551D01*
X155118Y262992D02*
X159055Y266929D01*
X123622Y262992D02*
X155118D01*
X120207Y266407D02*
X123622Y262992D01*
X106299Y277559D02*
X111024D01*
X120207Y268375D01*
Y266407D02*
Y268375D01*
X196063Y261811D02*
X201181Y266929D01*
X155610Y261805D02*
X155616Y261811D01*
X196063D01*
X119020Y265915D02*
X123130Y261805D01*
X155610D01*
X109843Y274410D02*
X112414D01*
X119020Y267803D01*
Y265915D02*
Y267803D01*
X117833Y265423D02*
Y267311D01*
X237008Y260630D02*
X243307Y266929D01*
X196561Y260630D02*
X237008D01*
X196548Y260617D02*
X196561Y260630D01*
X122638Y260617D02*
X196548D01*
X111811Y272441D02*
X111999Y272253D01*
X112891D01*
X117833Y267311D01*
Y265423D02*
X122638Y260617D01*
X116645Y264931D02*
Y266819D01*
X277934Y259430D02*
X285433Y266929D01*
X122147Y259430D02*
X277934D01*
X116645Y264931D02*
X122147Y259430D01*
X109843Y270472D02*
X112992D01*
X116645Y266819D01*
X115458Y264440D02*
Y264857D01*
X318898Y258268D02*
X327559Y266929D01*
X278451Y258268D02*
X318898D01*
X278426Y258243D02*
X278451Y258268D01*
X121655Y258243D02*
X278426D01*
X111811Y268504D02*
X111811D01*
X115458Y264857D01*
Y264440D02*
X121655Y258243D01*
X359842Y257087D02*
X369685Y266929D01*
X319396Y257087D02*
X359842D01*
X319364Y257055D02*
X319396Y257087D01*
X109843Y266535D02*
X111683D01*
X121163Y257055D01*
X319364D01*
X400787Y255906D02*
X411811Y266929D01*
X360341Y255906D02*
X400787D01*
X360303Y255868D02*
X360341Y255906D01*
X120671Y255868D02*
X360303D01*
X106299Y263386D02*
X113153D01*
X120671Y255868D01*
X147244Y237795D02*
X148425Y236614D01*
X131496Y188583D02*
X415354D01*
X129134Y190945D02*
X131496Y188583D01*
X155118Y211024D02*
X159055Y214961D01*
X123622Y211024D02*
X155118D01*
X120207Y214438D02*
X123622Y211024D01*
X106299Y225591D02*
X111024D01*
X120207Y216407D01*
Y214438D02*
Y216407D01*
X196063Y209842D02*
X201181Y214961D01*
X155610Y209836D02*
X155616Y209842D01*
X196063D01*
X119020Y213947D02*
X123130Y209836D01*
X155610D01*
X109843Y222441D02*
X112414D01*
X119020Y215835D01*
Y213947D02*
Y215835D01*
X117833Y213455D02*
Y215343D01*
X237008Y208661D02*
X243307Y214961D01*
X196561Y208661D02*
X237008D01*
X196548Y208649D02*
X196561Y208661D01*
X122638Y208649D02*
X196548D01*
X111811Y220472D02*
X111999Y220284D01*
X112891D01*
X117833Y215343D01*
Y213455D02*
X122638Y208649D01*
X116645Y212963D02*
Y214851D01*
X277934Y207461D02*
X285433Y214961D01*
X122147Y207461D02*
X277934D01*
X116645Y212963D02*
X122147Y207461D01*
X109843Y218504D02*
X112992D01*
X116645Y214851D01*
X115458Y212471D02*
Y212889D01*
X318898Y206299D02*
X327559Y214961D01*
X278451Y206299D02*
X318898D01*
X278426Y206274D02*
X278451Y206299D01*
X121655Y206274D02*
X278426D01*
X111811Y216535D02*
X111811D01*
X115458Y212889D01*
Y212471D02*
X121655Y206274D01*
X359842Y205118D02*
X369685Y214961D01*
X319396Y205118D02*
X359842D01*
X319364Y205087D02*
X319396Y205118D01*
X109843Y214567D02*
X111683D01*
X121163Y205087D01*
X319364D01*
X400787Y203937D02*
X411811Y214961D01*
X360341Y203937D02*
X400787D01*
X360303Y203899D02*
X360341Y203937D01*
X120671Y203899D02*
X360303D01*
X106299Y211417D02*
X113153D01*
X120671Y203899D01*
X147244Y185827D02*
X148425Y184646D01*
X415354Y136614D02*
X422047Y143307D01*
X131496Y136614D02*
X415354D01*
X129134Y138976D02*
X131496Y136614D01*
X155118Y159055D02*
X159055Y162992D01*
X123622Y159055D02*
X155118D01*
X120207Y162470D02*
X123622Y159055D01*
X106299Y173622D02*
X111024D01*
X120207Y164438D01*
Y162470D02*
Y164438D01*
X196063Y157874D02*
X201181Y162992D01*
X155610Y157868D02*
X155616Y157874D01*
X196063D01*
X119020Y161978D02*
X123130Y157868D01*
X155610D01*
X109843Y170473D02*
X112414D01*
X119020Y163866D01*
Y161978D02*
Y163866D01*
X117833Y161486D02*
Y163374D01*
X237008Y156693D02*
X243307Y162992D01*
X196561Y156693D02*
X237008D01*
X196548Y156680D02*
X196561Y156693D01*
X122638Y156680D02*
X196548D01*
X111811Y168504D02*
X111999Y168316D01*
X112891D01*
X117833Y163374D01*
Y161486D02*
X122638Y156680D01*
X116645Y160994D02*
Y162882D01*
X277934Y155493D02*
X285433Y162992D01*
X122147Y155493D02*
X277934D01*
X116645Y160994D02*
X122147Y155493D01*
X109843Y166535D02*
X112992D01*
X116645Y162882D01*
X115458Y160503D02*
Y160920D01*
X318898Y154331D02*
X327559Y162992D01*
X278451Y154331D02*
X318898D01*
X278426Y154306D02*
X278451Y154331D01*
X121655Y154306D02*
X278426D01*
X111811Y164567D02*
X111811D01*
X115458Y160920D01*
Y160503D02*
X121655Y154306D01*
X359842Y153150D02*
X369685Y162992D01*
X319396Y153150D02*
X359842D01*
X319364Y153118D02*
X319396Y153150D01*
X109843Y162598D02*
X111683D01*
X121163Y153118D01*
X319364D01*
X400787Y151969D02*
X411811Y162992D01*
X360341Y151969D02*
X400787D01*
X360303Y151931D02*
X360341Y151969D01*
X120671Y151931D02*
X360303D01*
X106299Y159449D02*
X113153D01*
X120671Y151931D01*
X147244Y133858D02*
X148425Y132677D01*
X415354Y84646D02*
X422047Y91339D01*
X131496Y84646D02*
X415354D01*
X129134Y87008D02*
X131496Y84646D01*
X155118Y107087D02*
X159055Y111024D01*
X123622Y107087D02*
X155118D01*
X120207Y110501D02*
X123622Y107087D01*
X106299Y121653D02*
X111024D01*
X120207Y112470D01*
Y110501D02*
Y112470D01*
X196063Y105905D02*
X201181Y111024D01*
X155610Y105899D02*
X155616Y105905D01*
X196063D01*
X119020Y110010D02*
X123130Y105899D01*
X155610D01*
X109843Y118504D02*
X112414D01*
X119020Y111898D01*
Y110010D02*
Y111898D01*
X117833Y109518D02*
Y111406D01*
X237008Y104724D02*
X243307Y111024D01*
X196561Y104724D02*
X237008D01*
X196548Y104712D02*
X196561Y104724D01*
X122638Y104712D02*
X196548D01*
X111811Y116535D02*
X111999Y116347D01*
X112891D01*
X117833Y111406D01*
Y109518D02*
X122638Y104712D01*
X116645Y109026D02*
Y110914D01*
X277934Y103524D02*
X285433Y111024D01*
X122147Y103524D02*
X277934D01*
X116645Y109026D02*
X122147Y103524D01*
X109843Y114567D02*
X112992D01*
X116645Y110914D01*
X115458Y108534D02*
Y108952D01*
X318898Y102362D02*
X327559Y111024D01*
X278451Y102362D02*
X318898D01*
X278426Y102337D02*
X278451Y102362D01*
X121655Y102337D02*
X278426D01*
X111811Y112598D02*
X111811D01*
X115458Y108952D01*
Y108534D02*
X121655Y102337D01*
X359842Y101181D02*
X369685Y111024D01*
X319396Y101181D02*
X359842D01*
X319364Y101150D02*
X319396Y101181D01*
X109843Y110630D02*
X111683D01*
X121163Y101150D01*
X319364D01*
X400787Y100000D02*
X411811Y111024D01*
X360341Y100000D02*
X400787D01*
X360303Y99962D02*
X360341Y100000D01*
X120671Y99962D02*
X360303D01*
X106299Y107480D02*
X113153D01*
X120671Y99962D01*
X147244Y81890D02*
X148425Y80709D01*
X415354Y32677D02*
X422047Y39370D01*
X131496Y32677D02*
X415354D01*
X129134Y35039D02*
X131496Y32677D01*
X155118Y55118D02*
X159055Y59055D01*
X123622Y55118D02*
X155118D01*
X120207Y58533D02*
X123622Y55118D01*
X106299Y69685D02*
X111024D01*
X120207Y60501D01*
Y58533D02*
Y60501D01*
X196063Y53937D02*
X201181Y59055D01*
X155610Y53931D02*
X155616Y53937D01*
X196063D01*
X119020Y58041D02*
X123130Y53931D01*
X155610D01*
X109843Y66535D02*
X112414D01*
X119020Y59929D01*
Y58041D02*
Y59929D01*
X117833Y57549D02*
Y59437D01*
X237008Y52756D02*
X243307Y59055D01*
X196561Y52756D02*
X237008D01*
X196548Y52743D02*
X196561Y52756D01*
X122638Y52743D02*
X196548D01*
X111811Y64567D02*
X111999Y64379D01*
X112891D01*
X117833Y59437D01*
Y57549D02*
X122638Y52743D01*
X116645Y57057D02*
Y58945D01*
X277934Y51556D02*
X285433Y59055D01*
X122147Y51556D02*
X277934D01*
X116645Y57057D02*
X122147Y51556D01*
X109843Y62598D02*
X112992D01*
X116645Y58945D01*
X115458Y56565D02*
Y56983D01*
X318898Y50394D02*
X327559Y59055D01*
X278451Y50394D02*
X318898D01*
X278426Y50368D02*
X278451Y50394D01*
X121655Y50368D02*
X278426D01*
X111811Y60630D02*
X111811D01*
X115458Y56983D01*
Y56565D02*
X121655Y50368D01*
X359842Y49213D02*
X369685Y59055D01*
X319396Y49213D02*
X359842D01*
X319364Y49181D02*
X319396Y49213D01*
X109843Y58661D02*
X111683D01*
X121163Y49181D01*
X319364D01*
X400787Y48031D02*
X411811Y59055D01*
X360341Y48031D02*
X400787D01*
X360303Y47994D02*
X360341Y48031D01*
X120671Y47994D02*
X360303D01*
X106299Y55512D02*
X113153D01*
X120671Y47994D01*
X147244Y29921D02*
X148425Y28740D01*
D60*
X22244Y192717D02*
X22441Y192913D01*
X11417Y163386D02*
Y192717D01*
X22244D01*
X11417D02*
Y200394D01*
X3937Y161024D02*
X9055D01*
X11417Y163386D01*
X9291Y202520D02*
X11417Y200394D01*
X3937Y202520D02*
X9291D01*
D61*
X124016Y243307D02*
X130709Y250000D01*
X124016Y242913D02*
Y243307D01*
X124016Y191339D02*
X130709Y198031D01*
X124016Y190945D02*
Y191339D01*
X124016Y139370D02*
X130709Y146063D01*
X124016Y138976D02*
Y139370D01*
Y87402D02*
X130709Y94095D01*
X124016Y87008D02*
Y87402D01*
Y35433D02*
X130709Y42126D01*
X124016Y35039D02*
Y35433D01*
D63*
X24016Y193307D02*
D03*
D65*
X485827Y180866D02*
D03*
Y200866D02*
D03*
Y220866D02*
D03*
Y240866D02*
D03*
Y260866D02*
D03*
X485827Y50709D02*
D03*
X485827Y70709D02*
D03*
Y90709D02*
D03*
Y110709D02*
D03*
X485827Y130709D02*
D03*
X3937Y161024D02*
D03*
Y202520D02*
D03*
D66*
X457087Y39370D02*
D03*
Y91339D02*
D03*
Y143307D02*
D03*
Y195276D02*
D03*
Y247244D02*
D03*
D67*
X42717Y120669D02*
D03*
X49409Y252165D02*
D03*
X49606Y202756D02*
D03*
Y41929D02*
D03*
Y150787D02*
D03*
X62917Y184491D02*
D03*
X26181Y151378D02*
D03*
X24016Y103347D02*
D03*
Y106299D02*
D03*
X43110Y158268D02*
D03*
Y155315D02*
D03*
X8465Y124606D02*
D03*
X63189Y132480D02*
D03*
Y236614D02*
D03*
Y28346D02*
D03*
X62992Y80315D02*
D03*
X65748Y64567D02*
D03*
Y272441D02*
D03*
Y220472D02*
D03*
X66142Y116142D02*
D03*
X65748Y168504D02*
D03*
X95669Y181102D02*
D03*
X83071Y150787D02*
D03*
X92520Y185433D02*
D03*
X83071Y153150D02*
D03*
Y155905D02*
D03*
Y158661D02*
D03*
X89370Y189764D02*
D03*
X87402Y191732D02*
D03*
X89370Y193701D02*
D03*
X87402Y195669D02*
D03*
X92520Y198819D02*
D03*
X97638Y201969D02*
D03*
X68382Y165279D02*
D03*
X71138D02*
D03*
X73894D02*
D03*
X76256D02*
D03*
Y61342D02*
D03*
X73894D02*
D03*
X71138D02*
D03*
X68382D02*
D03*
X97638Y98032D02*
D03*
X92520Y94882D02*
D03*
X87402Y91732D02*
D03*
X89370Y89764D02*
D03*
X87402Y87795D02*
D03*
X89370Y85827D02*
D03*
X83071Y54724D02*
D03*
Y51968D02*
D03*
Y49213D02*
D03*
X92520Y81496D02*
D03*
X83071Y46850D02*
D03*
X95669Y77165D02*
D03*
X457087Y254724D02*
D03*
X457480Y238976D02*
D03*
X457087Y218110D02*
D03*
Y46850D02*
D03*
X456693Y150787D02*
D03*
X457087Y115354D02*
D03*
X498819Y148425D02*
D03*
Y160236D02*
D03*
X485039Y148425D02*
D03*
X479134Y159843D02*
D03*
X452362Y280315D02*
D03*
X446063D02*
D03*
X436614D02*
D03*
X417717D02*
D03*
X427165D02*
D03*
X379921D02*
D03*
X370472D02*
D03*
X389370D02*
D03*
X398819D02*
D03*
X408268D02*
D03*
X313779D02*
D03*
X304331D02*
D03*
X285433D02*
D03*
X294882D02*
D03*
X342126D02*
D03*
X332677D02*
D03*
X323228D02*
D03*
X351575D02*
D03*
X361024D02*
D03*
X228740D02*
D03*
X219291D02*
D03*
X190945D02*
D03*
X200394D02*
D03*
X209842D02*
D03*
X247638D02*
D03*
X238189D02*
D03*
X257087D02*
D03*
X266535D02*
D03*
X275984D02*
D03*
X143701D02*
D03*
X134252D02*
D03*
X124803D02*
D03*
X162598D02*
D03*
X153150D02*
D03*
X172047D02*
D03*
X181496D02*
D03*
X452362Y21260D02*
D03*
X446063D02*
D03*
X436614D02*
D03*
X417717D02*
D03*
X427165D02*
D03*
X379921D02*
D03*
X370472D02*
D03*
X389370D02*
D03*
X398819D02*
D03*
X408268D02*
D03*
X313779D02*
D03*
X304331D02*
D03*
X285433D02*
D03*
X294882D02*
D03*
X342126D02*
D03*
X332677D02*
D03*
X323228D02*
D03*
X351575D02*
D03*
X361024D02*
D03*
X228740D02*
D03*
X219291D02*
D03*
X190945D02*
D03*
X200394D02*
D03*
X209842D02*
D03*
X247638D02*
D03*
X238189D02*
D03*
X257087D02*
D03*
X266535D02*
D03*
X275984D02*
D03*
X143701D02*
D03*
X134252D02*
D03*
X124803D02*
D03*
X162598D02*
D03*
X153150D02*
D03*
X172047D02*
D03*
X181496D02*
D03*
X452362Y72835D02*
D03*
X446063D02*
D03*
X436614D02*
D03*
X417717D02*
D03*
X427165D02*
D03*
X379921D02*
D03*
X370472D02*
D03*
X389370D02*
D03*
X398819D02*
D03*
X408268D02*
D03*
X313779D02*
D03*
X304331D02*
D03*
X285433D02*
D03*
X294882D02*
D03*
X342126D02*
D03*
X332677D02*
D03*
X323228D02*
D03*
X351575D02*
D03*
X361024D02*
D03*
X228740D02*
D03*
X219291D02*
D03*
X190945D02*
D03*
X200394D02*
D03*
X209842D02*
D03*
X247638D02*
D03*
X238189D02*
D03*
X257087D02*
D03*
X266535D02*
D03*
X275984D02*
D03*
X143701D02*
D03*
X134252D02*
D03*
X124803D02*
D03*
X162598D02*
D03*
X153150D02*
D03*
X172047D02*
D03*
X181496D02*
D03*
X452362Y124803D02*
D03*
X446063D02*
D03*
X436614D02*
D03*
X417717D02*
D03*
X427165D02*
D03*
X379921D02*
D03*
X370472D02*
D03*
X389370D02*
D03*
X398819D02*
D03*
X408268D02*
D03*
X313779D02*
D03*
X304331D02*
D03*
X285433D02*
D03*
X294882D02*
D03*
X342126D02*
D03*
X332677D02*
D03*
X323228D02*
D03*
X351575D02*
D03*
X361024D02*
D03*
X228740D02*
D03*
X219291D02*
D03*
X190945D02*
D03*
X200394D02*
D03*
X209842D02*
D03*
X247638D02*
D03*
X238189D02*
D03*
X257087D02*
D03*
X266535D02*
D03*
X275984D02*
D03*
X143701D02*
D03*
X134252D02*
D03*
X124803D02*
D03*
X162598D02*
D03*
X153150D02*
D03*
X172047D02*
D03*
X181496D02*
D03*
X436614Y176772D02*
D03*
X417717D02*
D03*
X427165D02*
D03*
X379921D02*
D03*
X370472D02*
D03*
X389370D02*
D03*
X398819D02*
D03*
X408268D02*
D03*
X313779D02*
D03*
X304331D02*
D03*
X285433D02*
D03*
X294882D02*
D03*
X342126D02*
D03*
X332677D02*
D03*
X323228D02*
D03*
X351575D02*
D03*
X361024D02*
D03*
X228740D02*
D03*
X219291D02*
D03*
X190945D02*
D03*
X200394D02*
D03*
X209842D02*
D03*
X247638D02*
D03*
X238189D02*
D03*
X257087D02*
D03*
X266535D02*
D03*
X275984D02*
D03*
X143701D02*
D03*
X134252D02*
D03*
X124803D02*
D03*
X162598D02*
D03*
X153150D02*
D03*
X172047D02*
D03*
X181496D02*
D03*
Y228740D02*
D03*
X172047D02*
D03*
X153150D02*
D03*
X162598D02*
D03*
X124803D02*
D03*
X134252D02*
D03*
X143701D02*
D03*
X275984D02*
D03*
X266535D02*
D03*
X257087D02*
D03*
X238189D02*
D03*
X247638D02*
D03*
X209842D02*
D03*
X200394D02*
D03*
X190945D02*
D03*
X219291D02*
D03*
X228740D02*
D03*
X361024D02*
D03*
X351575D02*
D03*
X323228D02*
D03*
X332677D02*
D03*
X342126D02*
D03*
X294882D02*
D03*
X285433D02*
D03*
X304331D02*
D03*
X313779D02*
D03*
X408268D02*
D03*
X398819D02*
D03*
X389370D02*
D03*
X370472D02*
D03*
X379921D02*
D03*
X427165D02*
D03*
X417717D02*
D03*
X436614D02*
D03*
X446063D02*
D03*
X452362D02*
D03*
X422047Y39370D02*
D03*
Y91339D02*
D03*
X422835Y248031D02*
D03*
X422047Y143307D02*
D03*
X422441Y195669D02*
D03*
X421654Y266535D02*
D03*
Y242913D02*
D03*
X389764Y266535D02*
D03*
Y242913D02*
D03*
X365748Y266535D02*
D03*
X356693D02*
D03*
Y242913D02*
D03*
X365748D02*
D03*
X348031Y266535D02*
D03*
Y242913D02*
D03*
X253150Y266535D02*
D03*
Y242913D02*
D03*
X197244Y266535D02*
D03*
X221654D02*
D03*
X197244Y242913D02*
D03*
X221654D02*
D03*
X188189Y266535D02*
D03*
Y242913D02*
D03*
X440945Y266535D02*
D03*
Y242913D02*
D03*
X432283Y266535D02*
D03*
Y242913D02*
D03*
X407874Y266535D02*
D03*
Y242913D02*
D03*
X398819Y266535D02*
D03*
Y242913D02*
D03*
X379528Y266535D02*
D03*
Y242913D02*
D03*
X337402Y266535D02*
D03*
Y242913D02*
D03*
X323622Y266535D02*
D03*
Y242913D02*
D03*
X314567Y266535D02*
D03*
Y242913D02*
D03*
X305906Y266535D02*
D03*
Y242913D02*
D03*
X295276Y266535D02*
D03*
Y242913D02*
D03*
X281496Y266535D02*
D03*
Y242913D02*
D03*
X272441Y266535D02*
D03*
Y242913D02*
D03*
X263779Y266535D02*
D03*
Y242913D02*
D03*
X239370Y266535D02*
D03*
Y242913D02*
D03*
X230315Y266535D02*
D03*
Y242913D02*
D03*
X211024Y266535D02*
D03*
Y242913D02*
D03*
X179528Y266535D02*
D03*
Y242913D02*
D03*
X168898Y266535D02*
D03*
Y242913D02*
D03*
X155118Y266535D02*
D03*
Y242913D02*
D03*
X146063Y266535D02*
D03*
Y242913D02*
D03*
X137402Y266535D02*
D03*
Y242913D02*
D03*
X129134D02*
D03*
X159055Y266929D02*
D03*
X106299Y277559D02*
D03*
X201181Y266929D02*
D03*
X109843Y274410D02*
D03*
X243307Y266929D02*
D03*
X111811Y272441D02*
D03*
X285433Y266929D02*
D03*
X109843Y270472D02*
D03*
X327559Y266929D02*
D03*
X111811Y268504D02*
D03*
X369685Y266929D02*
D03*
X109843Y266535D02*
D03*
X411811Y266929D02*
D03*
X106299Y263386D02*
D03*
X147244Y237795D02*
D03*
X421654Y214567D02*
D03*
Y190945D02*
D03*
X389764Y214567D02*
D03*
Y190945D02*
D03*
X365748Y214567D02*
D03*
X356693D02*
D03*
Y190945D02*
D03*
X365748D02*
D03*
X348031Y214567D02*
D03*
Y190945D02*
D03*
X253150Y214567D02*
D03*
Y190945D02*
D03*
X197244Y214567D02*
D03*
X221654D02*
D03*
X197244Y190945D02*
D03*
X221654D02*
D03*
X188189Y214567D02*
D03*
Y190945D02*
D03*
X440945Y214567D02*
D03*
Y190945D02*
D03*
X432283Y214567D02*
D03*
Y190945D02*
D03*
X407874Y214567D02*
D03*
Y190945D02*
D03*
X398819Y214567D02*
D03*
Y190945D02*
D03*
X379528Y214567D02*
D03*
Y190945D02*
D03*
X337402Y214567D02*
D03*
Y190945D02*
D03*
X323622Y214567D02*
D03*
Y190945D02*
D03*
X314567Y214567D02*
D03*
Y190945D02*
D03*
X305906Y214567D02*
D03*
Y190945D02*
D03*
X295276Y214567D02*
D03*
Y190945D02*
D03*
X281496Y214567D02*
D03*
Y190945D02*
D03*
X272441Y214567D02*
D03*
Y190945D02*
D03*
X263779Y214567D02*
D03*
Y190945D02*
D03*
X239370Y214567D02*
D03*
Y190945D02*
D03*
X230315Y214567D02*
D03*
Y190945D02*
D03*
X211024Y214567D02*
D03*
Y190945D02*
D03*
X179528Y214567D02*
D03*
Y190945D02*
D03*
X168898Y214567D02*
D03*
Y190945D02*
D03*
X155118Y214567D02*
D03*
Y190945D02*
D03*
X146063Y214567D02*
D03*
Y190945D02*
D03*
X137402Y214567D02*
D03*
Y190945D02*
D03*
X129134D02*
D03*
X159055Y214961D02*
D03*
X106299Y225591D02*
D03*
X201181Y214961D02*
D03*
X109843Y222441D02*
D03*
X243307Y214961D02*
D03*
X111811Y220472D02*
D03*
X285433Y214961D02*
D03*
X109843Y218504D02*
D03*
X327559Y214961D02*
D03*
X111811Y216535D02*
D03*
X369685Y214961D02*
D03*
X109843Y214567D02*
D03*
X411811Y214961D02*
D03*
X106299Y211417D02*
D03*
X147244Y185827D02*
D03*
X421654Y162598D02*
D03*
Y138976D02*
D03*
X389764Y162598D02*
D03*
Y138976D02*
D03*
X365748Y162598D02*
D03*
X356693D02*
D03*
Y138976D02*
D03*
X365748D02*
D03*
X348031Y162598D02*
D03*
Y138976D02*
D03*
X253150Y162598D02*
D03*
Y138976D02*
D03*
X197244Y162598D02*
D03*
X221654D02*
D03*
X197244Y138976D02*
D03*
X221654D02*
D03*
X188189Y162598D02*
D03*
Y138976D02*
D03*
X440945Y162598D02*
D03*
Y138976D02*
D03*
X432283Y162598D02*
D03*
Y138976D02*
D03*
X407874Y162598D02*
D03*
Y138976D02*
D03*
X398819Y162598D02*
D03*
Y138976D02*
D03*
X379528Y162598D02*
D03*
Y138976D02*
D03*
X337402Y162598D02*
D03*
Y138976D02*
D03*
X323622Y162598D02*
D03*
Y138976D02*
D03*
X314567Y162598D02*
D03*
Y138976D02*
D03*
X305906Y162598D02*
D03*
Y138976D02*
D03*
X295276Y162598D02*
D03*
Y138976D02*
D03*
X281496Y162598D02*
D03*
Y138976D02*
D03*
X272441Y162598D02*
D03*
Y138976D02*
D03*
X263779Y162598D02*
D03*
Y138976D02*
D03*
X239370Y162598D02*
D03*
Y138976D02*
D03*
X230315Y162598D02*
D03*
Y138976D02*
D03*
X211024Y162598D02*
D03*
Y138976D02*
D03*
X179528Y162598D02*
D03*
Y138976D02*
D03*
X168898Y162598D02*
D03*
Y138976D02*
D03*
X155118Y162598D02*
D03*
Y138976D02*
D03*
X146063Y162598D02*
D03*
Y138976D02*
D03*
X137402Y162598D02*
D03*
Y138976D02*
D03*
X129134D02*
D03*
X159055Y162992D02*
D03*
X106299Y173622D02*
D03*
X201181Y162992D02*
D03*
X109843Y170473D02*
D03*
X243307Y162992D02*
D03*
X111811Y168504D02*
D03*
X285433Y162992D02*
D03*
X109843Y166535D02*
D03*
X327559Y162992D02*
D03*
X111811Y164567D02*
D03*
X369685Y162992D02*
D03*
X109843Y162598D02*
D03*
X411811Y162992D02*
D03*
X106299Y159449D02*
D03*
X147244Y133858D02*
D03*
X421654Y110630D02*
D03*
Y87008D02*
D03*
X389764Y110630D02*
D03*
Y87008D02*
D03*
X365748Y110630D02*
D03*
X356693D02*
D03*
Y87008D02*
D03*
X365748D02*
D03*
X348031Y110630D02*
D03*
Y87008D02*
D03*
X253150Y110630D02*
D03*
Y87008D02*
D03*
X197244Y110630D02*
D03*
X221654D02*
D03*
X197244Y87008D02*
D03*
X221654D02*
D03*
X188189Y110630D02*
D03*
Y87008D02*
D03*
X440945Y110630D02*
D03*
Y87008D02*
D03*
X432283Y110630D02*
D03*
Y87008D02*
D03*
X407874Y110630D02*
D03*
Y87008D02*
D03*
X398819Y110630D02*
D03*
Y87008D02*
D03*
X379528Y110630D02*
D03*
Y87008D02*
D03*
X337402Y110630D02*
D03*
Y87008D02*
D03*
X323622Y110630D02*
D03*
Y87008D02*
D03*
X314567Y110630D02*
D03*
Y87008D02*
D03*
X305906Y110630D02*
D03*
Y87008D02*
D03*
X295276Y110630D02*
D03*
Y87008D02*
D03*
X281496Y110630D02*
D03*
Y87008D02*
D03*
X272441Y110630D02*
D03*
Y87008D02*
D03*
X263779Y110630D02*
D03*
Y87008D02*
D03*
X239370Y110630D02*
D03*
Y87008D02*
D03*
X230315Y110630D02*
D03*
Y87008D02*
D03*
X211024Y110630D02*
D03*
Y87008D02*
D03*
X179528Y110630D02*
D03*
Y87008D02*
D03*
X168898Y110630D02*
D03*
Y87008D02*
D03*
X155118Y110630D02*
D03*
Y87008D02*
D03*
X146063Y110630D02*
D03*
Y87008D02*
D03*
X137402Y110630D02*
D03*
Y87008D02*
D03*
X129134D02*
D03*
X159055Y111024D02*
D03*
X106299Y121653D02*
D03*
X201181Y111024D02*
D03*
X109843Y118504D02*
D03*
X243307Y111024D02*
D03*
X111811Y116535D02*
D03*
X285433Y111024D02*
D03*
X109843Y114567D02*
D03*
X327559Y111024D02*
D03*
X111811Y112598D02*
D03*
X369685Y111024D02*
D03*
X109843Y110630D02*
D03*
X411811Y111024D02*
D03*
X106299Y107480D02*
D03*
X147244Y81890D02*
D03*
X137402Y35039D02*
D03*
X146063D02*
D03*
X168898D02*
D03*
X179528D02*
D03*
X197244D02*
D03*
X211024D02*
D03*
X230315D02*
D03*
X239370D02*
D03*
X263779D02*
D03*
X272441D02*
D03*
X281496D02*
D03*
X155118D02*
D03*
X188189D02*
D03*
X221654D02*
D03*
X253150D02*
D03*
X295276D02*
D03*
X305906D02*
D03*
X314567D02*
D03*
X323622D02*
D03*
X337402D02*
D03*
X348031D02*
D03*
X356693D02*
D03*
X365748D02*
D03*
X379528D02*
D03*
X389764D02*
D03*
X398819D02*
D03*
X407874D02*
D03*
X421654D02*
D03*
X432283D02*
D03*
X440945D02*
D03*
Y58661D02*
D03*
X432283D02*
D03*
X421654D02*
D03*
X407874D02*
D03*
X398819D02*
D03*
X389764D02*
D03*
X379528D02*
D03*
X365748D02*
D03*
X356693D02*
D03*
X348031D02*
D03*
X337402D02*
D03*
X323622D02*
D03*
X314567D02*
D03*
X305906D02*
D03*
X295276D02*
D03*
X253150D02*
D03*
X221654D02*
D03*
X188189D02*
D03*
X155118D02*
D03*
X281496D02*
D03*
X272441D02*
D03*
X263779D02*
D03*
X239370D02*
D03*
X230315D02*
D03*
X211024D02*
D03*
X197244D02*
D03*
X179528D02*
D03*
X168898D02*
D03*
X146063D02*
D03*
X137402D02*
D03*
X129134Y35039D02*
D03*
X159055Y59055D02*
D03*
X106299Y69685D02*
D03*
X201181Y59055D02*
D03*
X109843Y66535D02*
D03*
X243307Y59055D02*
D03*
X111811Y64567D02*
D03*
X285433Y59055D02*
D03*
X109843Y62598D02*
D03*
X327559Y59055D02*
D03*
X111811Y60630D02*
D03*
X369685Y59055D02*
D03*
X109843Y58661D02*
D03*
X411811Y59055D02*
D03*
X106299Y55512D02*
D03*
X147244Y29921D02*
D03*
D70*
X130709Y250000D02*
D03*
X124016Y242913D02*
D03*
X130709Y198031D02*
D03*
X124016Y190945D02*
D03*
X130709Y146063D02*
D03*
X124016Y138976D02*
D03*
X130709Y94095D02*
D03*
X124016Y87008D02*
D03*
X130709Y42126D02*
D03*
X124016Y35039D02*
D03*
M02*
