G04*
G04 #@! TF.GenerationSoftware,Altium Limited,Altium Designer,20.0.9 (164)*
G04*
G04 Layer_Color=8421504*
%FSLAX25Y25*%
%MOIN*%
G70*
G01*
G75*
%ADD15R,0.02756X0.03347*%
G04:AMPARAMS|DCode=16|XSize=20.47mil|YSize=22.05mil|CornerRadius=5.12mil|HoleSize=0mil|Usage=FLASHONLY|Rotation=0.000|XOffset=0mil|YOffset=0mil|HoleType=Round|Shape=RoundedRectangle|*
%AMROUNDEDRECTD16*
21,1,0.02047,0.01181,0,0,0.0*
21,1,0.01024,0.02205,0,0,0.0*
1,1,0.01024,0.00512,-0.00591*
1,1,0.01024,-0.00512,-0.00591*
1,1,0.01024,-0.00512,0.00591*
1,1,0.01024,0.00512,0.00591*
%
%ADD16ROUNDEDRECTD16*%
%ADD17R,0.02165X0.03150*%
%ADD18R,0.02835X0.03543*%
%ADD19R,0.06693X0.02756*%
%ADD20O,0.01181X0.03937*%
%ADD21O,0.03937X0.01181*%
%ADD22R,0.15472X0.15472*%
%ADD23O,0.00984X0.03347*%
%ADD24O,0.03347X0.00984*%
%ADD25R,0.09055X0.09055*%
G04:AMPARAMS|DCode=26|XSize=20.47mil|YSize=22.05mil|CornerRadius=5.12mil|HoleSize=0mil|Usage=FLASHONLY|Rotation=270.000|XOffset=0mil|YOffset=0mil|HoleType=Round|Shape=RoundedRectangle|*
%AMROUNDEDRECTD26*
21,1,0.02047,0.01181,0,0,270.0*
21,1,0.01024,0.02205,0,0,270.0*
1,1,0.01024,-0.00591,-0.00512*
1,1,0.01024,-0.00591,0.00512*
1,1,0.01024,0.00591,0.00512*
1,1,0.01024,0.00591,-0.00512*
%
%ADD26ROUNDEDRECTD26*%
%ADD27R,0.03347X0.02756*%
%ADD28R,0.09843X0.09843*%
%ADD29O,0.00787X0.02953*%
%ADD30O,0.02953X0.00787*%
%ADD31R,0.02992X0.09449*%
%ADD32R,0.02500X0.02500*%
D15*
X227953Y39764D02*
D03*
X223228D02*
D03*
X213779D02*
D03*
X218504D02*
D03*
X194882D02*
D03*
X190157D02*
D03*
X180709D02*
D03*
X185433D02*
D03*
X161811D02*
D03*
X157087D02*
D03*
X147638D02*
D03*
X152362D02*
D03*
X128740D02*
D03*
X124016D02*
D03*
X119291D02*
D03*
X114567D02*
D03*
X301575Y165748D02*
D03*
X296850D02*
D03*
X354724Y54724D02*
D03*
X359449D02*
D03*
X354724Y47244D02*
D03*
X359449Y47244D02*
D03*
X329528Y54724D02*
D03*
X334252D02*
D03*
X296850D02*
D03*
X301575D02*
D03*
X263780D02*
D03*
X268504D02*
D03*
X230709D02*
D03*
X235433D02*
D03*
X197638D02*
D03*
X202362D02*
D03*
X164567D02*
D03*
X169291D02*
D03*
X131496D02*
D03*
X136221D02*
D03*
X329528Y47244D02*
D03*
X334252D02*
D03*
X296457D02*
D03*
X301181D02*
D03*
X263780D02*
D03*
X268504D02*
D03*
X230709D02*
D03*
X235433D02*
D03*
X197638D02*
D03*
X202362D02*
D03*
X164567D02*
D03*
X169291D02*
D03*
X131496D02*
D03*
X136221D02*
D03*
X355512Y173228D02*
D03*
X360236Y173228D02*
D03*
X355512Y165748D02*
D03*
X360236D02*
D03*
X213779Y180709D02*
D03*
X218504D02*
D03*
X227953D02*
D03*
X223228D02*
D03*
X180709D02*
D03*
X185433D02*
D03*
X194882D02*
D03*
X190157D02*
D03*
X147638D02*
D03*
X152362D02*
D03*
X161811D02*
D03*
X157087D02*
D03*
X114567D02*
D03*
X119291D02*
D03*
X128740D02*
D03*
X124016D02*
D03*
X329921Y173228D02*
D03*
X334646D02*
D03*
X296850D02*
D03*
X301575D02*
D03*
X263780D02*
D03*
X268504D02*
D03*
X230709D02*
D03*
X235433D02*
D03*
X197638D02*
D03*
X202362D02*
D03*
X164567D02*
D03*
X169291D02*
D03*
X131496D02*
D03*
X136221D02*
D03*
X329921Y165748D02*
D03*
X334646D02*
D03*
X263779D02*
D03*
X268504D02*
D03*
X230709Y165748D02*
D03*
X235433D02*
D03*
X197638Y165748D02*
D03*
X202362D02*
D03*
X164567D02*
D03*
X169291D02*
D03*
X131496D02*
D03*
X136221D02*
D03*
X38583Y82677D02*
D03*
X43307D02*
D03*
D16*
X73386Y81496D02*
D03*
X69921D02*
D03*
X26299Y100787D02*
D03*
X22835D02*
D03*
X26850Y77953D02*
D03*
X30315D02*
D03*
X75039Y126378D02*
D03*
X78504D02*
D03*
X75610Y93307D02*
D03*
X72146D02*
D03*
X75610Y96457D02*
D03*
X72146D02*
D03*
X73427Y86832D02*
D03*
X69963D02*
D03*
X64508Y118898D02*
D03*
X67972D02*
D03*
X64508Y115748D02*
D03*
X67972D02*
D03*
X52992Y129528D02*
D03*
X56457D02*
D03*
X52992Y126378D02*
D03*
X56457D02*
D03*
X42677Y86832D02*
D03*
X39213D02*
D03*
D17*
X30315Y96850D02*
D03*
X26575Y96850D02*
D03*
X22835Y96850D02*
D03*
X30315Y87008D02*
D03*
X22835Y87008D02*
D03*
D18*
X25591Y82284D02*
D03*
X30315D02*
D03*
D19*
X327953Y95276D02*
D03*
Y82677D02*
D03*
Y74016D02*
D03*
Y65354D02*
D03*
X303543D02*
D03*
Y74016D02*
D03*
Y82677D02*
D03*
Y95276D02*
D03*
X294882Y95276D02*
D03*
Y82677D02*
D03*
Y74016D02*
D03*
Y65354D02*
D03*
X270472D02*
D03*
Y74016D02*
D03*
Y82677D02*
D03*
Y95276D02*
D03*
X261811Y95276D02*
D03*
Y82677D02*
D03*
X261811Y74016D02*
D03*
Y65354D02*
D03*
X237402D02*
D03*
Y74016D02*
D03*
Y82677D02*
D03*
Y95276D02*
D03*
X228740Y95276D02*
D03*
Y82677D02*
D03*
Y74016D02*
D03*
Y65354D02*
D03*
X204331D02*
D03*
Y74016D02*
D03*
Y82677D02*
D03*
Y95276D02*
D03*
X327953Y125197D02*
D03*
Y137795D02*
D03*
Y146457D02*
D03*
Y155118D02*
D03*
X303543D02*
D03*
Y146457D02*
D03*
X303543Y137795D02*
D03*
Y125197D02*
D03*
X270472D02*
D03*
Y137795D02*
D03*
X270472Y146457D02*
D03*
Y155118D02*
D03*
X294882D02*
D03*
Y146457D02*
D03*
Y137795D02*
D03*
Y125197D02*
D03*
X237402Y125197D02*
D03*
Y137795D02*
D03*
X237402Y146457D02*
D03*
X237402Y155118D02*
D03*
X261811Y155118D02*
D03*
Y146457D02*
D03*
Y137795D02*
D03*
Y125197D02*
D03*
X336614Y95276D02*
D03*
Y82677D02*
D03*
Y74016D02*
D03*
Y65354D02*
D03*
X361024Y65354D02*
D03*
X361024Y74016D02*
D03*
X361024Y82677D02*
D03*
Y95276D02*
D03*
X171260Y95276D02*
D03*
Y82677D02*
D03*
Y74016D02*
D03*
Y65354D02*
D03*
X195669D02*
D03*
Y74016D02*
D03*
Y82677D02*
D03*
Y95276D02*
D03*
X138189Y95276D02*
D03*
Y82677D02*
D03*
Y74016D02*
D03*
Y65354D02*
D03*
X162598D02*
D03*
Y74016D02*
D03*
Y82677D02*
D03*
Y95276D02*
D03*
X105118Y95276D02*
D03*
Y82677D02*
D03*
Y74016D02*
D03*
Y65354D02*
D03*
X129528D02*
D03*
Y74016D02*
D03*
Y82677D02*
D03*
Y95276D02*
D03*
X361024Y125197D02*
D03*
Y137795D02*
D03*
Y146457D02*
D03*
Y155118D02*
D03*
X336614D02*
D03*
Y146457D02*
D03*
X336614Y137795D02*
D03*
Y125197D02*
D03*
X228740Y125197D02*
D03*
Y137795D02*
D03*
Y146457D02*
D03*
Y155118D02*
D03*
X204331D02*
D03*
Y146457D02*
D03*
Y137795D02*
D03*
X204331Y125197D02*
D03*
X195669D02*
D03*
Y137795D02*
D03*
Y146457D02*
D03*
Y155118D02*
D03*
X171260Y155118D02*
D03*
X171260Y146457D02*
D03*
X171260Y137795D02*
D03*
Y125197D02*
D03*
X162598Y125197D02*
D03*
Y137795D02*
D03*
Y146457D02*
D03*
Y155118D02*
D03*
X138189D02*
D03*
Y146457D02*
D03*
Y137795D02*
D03*
Y125197D02*
D03*
X129527Y125197D02*
D03*
Y137795D02*
D03*
Y146457D02*
D03*
Y155118D02*
D03*
X105118D02*
D03*
Y146457D02*
D03*
Y137795D02*
D03*
Y125197D02*
D03*
D20*
X90748Y122146D02*
D03*
X88189D02*
D03*
X85630D02*
D03*
X83071D02*
D03*
X80512D02*
D03*
X77953D02*
D03*
X75394D02*
D03*
Y100689D02*
D03*
X77953D02*
D03*
X80512D02*
D03*
X83071D02*
D03*
X85630D02*
D03*
X88189D02*
D03*
X90748D02*
D03*
D21*
X72342Y119095D02*
D03*
Y116535D02*
D03*
Y113976D02*
D03*
Y111417D02*
D03*
Y108858D02*
D03*
Y106299D02*
D03*
Y103740D02*
D03*
X93799D02*
D03*
Y106299D02*
D03*
Y108858D02*
D03*
Y111417D02*
D03*
Y113976D02*
D03*
Y116535D02*
D03*
Y119095D02*
D03*
D22*
X83071Y111417D02*
D03*
D23*
X91929Y91240D02*
D03*
X89961D02*
D03*
X87992D02*
D03*
X86024D02*
D03*
X84055D02*
D03*
Y76870D02*
D03*
X86024D02*
D03*
X87992D02*
D03*
X89961D02*
D03*
X91929D02*
D03*
X83858Y135728D02*
D03*
X85827D02*
D03*
X87795D02*
D03*
X89764D02*
D03*
X91732D02*
D03*
X91732Y150098D02*
D03*
X89764D02*
D03*
X87795D02*
D03*
X85827D02*
D03*
X83858D02*
D03*
D24*
X80807Y87992D02*
D03*
Y86024D02*
D03*
Y84055D02*
D03*
Y82087D02*
D03*
Y80118D02*
D03*
X95177D02*
D03*
X95177Y82087D02*
D03*
Y84055D02*
D03*
Y86024D02*
D03*
Y87992D02*
D03*
X94980Y138976D02*
D03*
Y140945D02*
D03*
Y142913D02*
D03*
Y144882D02*
D03*
Y146850D02*
D03*
X80610Y146850D02*
D03*
X80610Y144882D02*
D03*
Y142913D02*
D03*
Y140945D02*
D03*
Y138976D02*
D03*
D25*
X87992Y84055D02*
D03*
X87795Y142913D02*
D03*
D26*
X76968Y81142D02*
D03*
Y84606D02*
D03*
X98819Y145433D02*
D03*
X98819Y141969D02*
D03*
X56299Y98976D02*
D03*
Y95512D02*
D03*
X52756Y98976D02*
D03*
Y95512D02*
D03*
X46850Y98976D02*
D03*
Y95512D02*
D03*
D27*
X120079Y112598D02*
D03*
Y107874D02*
D03*
X114567Y112598D02*
D03*
Y107874D02*
D03*
D28*
X57382Y83268D02*
D03*
D29*
X62697Y75295D02*
D03*
X60925D02*
D03*
X59153D02*
D03*
X57382Y75295D02*
D03*
X55610Y75295D02*
D03*
X53839D02*
D03*
X52067D02*
D03*
Y91240D02*
D03*
X53839D02*
D03*
X55610D02*
D03*
X57382Y91240D02*
D03*
X59153Y91240D02*
D03*
X60925D02*
D03*
X62697D02*
D03*
D30*
X49409Y77953D02*
D03*
Y79724D02*
D03*
Y81496D02*
D03*
X49409Y83268D02*
D03*
X49409Y85039D02*
D03*
Y86811D02*
D03*
Y88583D02*
D03*
X65354D02*
D03*
Y86811D02*
D03*
Y85039D02*
D03*
X65354Y83268D02*
D03*
X65354Y81496D02*
D03*
Y79724D02*
D03*
Y77953D02*
D03*
D31*
X63543Y203543D02*
D03*
Y188543D02*
D03*
X58543Y203543D02*
D03*
Y188543D02*
D03*
X53543Y203543D02*
D03*
Y188543D02*
D03*
X48543Y203543D02*
D03*
Y188543D02*
D03*
X43543Y203543D02*
D03*
Y188543D02*
D03*
X38543Y203543D02*
D03*
Y188543D02*
D03*
X63543Y33898D02*
D03*
Y18898D02*
D03*
X58543Y33898D02*
D03*
X58543Y18898D02*
D03*
X53543Y33898D02*
D03*
X53543Y18898D02*
D03*
X48543Y33898D02*
D03*
X48543Y18898D02*
D03*
X43543Y33898D02*
D03*
X43543Y18898D02*
D03*
X38543Y33898D02*
D03*
Y18898D02*
D03*
D32*
X38945Y42913D02*
D03*
X42945D02*
D03*
M02*
