G04*
G04 #@! TF.GenerationSoftware,Altium Limited,Altium Designer,20.0.9 (164)*
G04*
G04 Layer_Color=16711935*
%FSLAX25Y25*%
%MOIN*%
G70*
G01*
G75*
%ADD51C,0.06496*%
%ADD52R,0.06496X0.06496*%
%ADD53R,0.06496X0.06496*%
%ADD54C,0.05591*%
%ADD55C,0.02362*%
%ADD56C,0.02953*%
%ADD57C,0.24213*%
%ADD58C,0.03740*%
%ADD59C,0.02559*%
%ADD60C,0.03398*%
D51*
X255512Y11969D02*
D03*
X255512Y1969D02*
D03*
X245512Y11969D02*
D03*
X245512Y1969D02*
D03*
X235512Y11969D02*
D03*
Y1969D02*
D03*
X225512Y11969D02*
D03*
X225512Y1969D02*
D03*
X215512Y11969D02*
D03*
Y1969D02*
D03*
X205512Y11969D02*
D03*
X205512Y1969D02*
D03*
X195512Y11969D02*
D03*
Y1969D02*
D03*
X185512Y11969D02*
D03*
Y1969D02*
D03*
X175512Y11969D02*
D03*
Y1969D02*
D03*
X165512Y11969D02*
D03*
Y1969D02*
D03*
X155512Y11969D02*
D03*
X155512Y1969D02*
D03*
X145512Y11969D02*
D03*
Y1969D02*
D03*
X135512Y11969D02*
D03*
X135512Y1969D02*
D03*
X125512Y11969D02*
D03*
Y1969D02*
D03*
X115512Y11969D02*
D03*
X115512Y1969D02*
D03*
X105512Y11969D02*
D03*
X375827Y90551D02*
D03*
X385827D02*
D03*
X375827Y80551D02*
D03*
X385827Y80551D02*
D03*
X375827Y70551D02*
D03*
X385827Y70551D02*
D03*
X375827Y60551D02*
D03*
X385827Y60551D02*
D03*
X375827Y50551D02*
D03*
X385827D02*
D03*
X375827Y40551D02*
D03*
X385827Y40551D02*
D03*
X375827Y30551D02*
D03*
X385827Y30551D02*
D03*
X375827Y20551D02*
D03*
X385827D02*
D03*
X375827Y10551D02*
D03*
X385827D02*
D03*
X375827Y551D02*
D03*
X105118Y218504D02*
D03*
X115118Y208504D02*
D03*
Y218504D02*
D03*
X125118Y208504D02*
D03*
X125118Y218504D02*
D03*
X135118Y208504D02*
D03*
X135118Y218504D02*
D03*
X145118Y208504D02*
D03*
X145118Y218504D02*
D03*
X155118Y208504D02*
D03*
Y218504D02*
D03*
X165118Y208504D02*
D03*
X165118Y218504D02*
D03*
X175118Y208504D02*
D03*
X175118Y218504D02*
D03*
X185118Y208504D02*
D03*
X185118Y218504D02*
D03*
X195118Y208504D02*
D03*
X195118Y218504D02*
D03*
X205118Y208504D02*
D03*
Y218504D02*
D03*
X215118Y208504D02*
D03*
Y218504D02*
D03*
X225118Y208504D02*
D03*
X225118Y218504D02*
D03*
X235118Y208504D02*
D03*
X235118Y218504D02*
D03*
X245118Y208504D02*
D03*
Y218504D02*
D03*
X255118Y208504D02*
D03*
X255118Y218504D02*
D03*
X385827Y219921D02*
D03*
X375827Y209921D02*
D03*
X385827Y209921D02*
D03*
X375827Y199921D02*
D03*
X385827D02*
D03*
X375827Y189921D02*
D03*
X385827D02*
D03*
X375827Y179921D02*
D03*
X385827Y179921D02*
D03*
X375827Y169921D02*
D03*
X385827D02*
D03*
X375827Y159921D02*
D03*
X385827D02*
D03*
X375827Y149921D02*
D03*
X385827D02*
D03*
X375827Y139921D02*
D03*
X385827D02*
D03*
X375827Y129921D02*
D03*
X385827Y129921D02*
D03*
X5906Y175669D02*
D03*
Y165669D02*
D03*
Y155669D02*
D03*
Y134331D02*
D03*
Y124331D02*
D03*
Y114331D02*
D03*
D52*
X105512Y1969D02*
D03*
X105118Y208504D02*
D03*
D53*
X385827Y551D02*
D03*
X375827Y219921D02*
D03*
X5906Y145669D02*
D03*
Y104331D02*
D03*
D54*
X31102Y122047D02*
D03*
Y114173D02*
D03*
Y141339D02*
D03*
Y149213D02*
D03*
D55*
X133465Y112598D02*
D03*
X167323Y112992D02*
D03*
X200394Y112598D02*
D03*
X249606D02*
D03*
X299606Y112992D02*
D03*
X348819D02*
D03*
Y107874D02*
D03*
X299606D02*
D03*
X249606D02*
D03*
X200394D02*
D03*
X167323D02*
D03*
X133465D02*
D03*
X103543Y27559D02*
D03*
X101969Y51575D02*
D03*
X111024Y79528D02*
D03*
Y90945D02*
D03*
X117323Y94882D02*
D03*
Y125591D02*
D03*
X110236Y142913D02*
D03*
Y129528D02*
D03*
X38583Y46457D02*
D03*
X38583Y196850D02*
D03*
X98819Y138976D02*
D03*
X352362Y173228D02*
D03*
X351181Y47244D02*
D03*
X79921Y149606D02*
D03*
X75590Y129134D02*
D03*
X94882Y77559D02*
D03*
X97859Y82062D02*
D03*
X55512Y68504D02*
D03*
X52756Y70866D02*
D03*
X35433Y18898D02*
D03*
X66929D02*
D03*
X50000Y129528D02*
D03*
X63779D02*
D03*
X59055Y126378D02*
D03*
X64173Y112598D02*
D03*
X67323Y188583D02*
D03*
X35039D02*
D03*
X38976Y145276D02*
D03*
X105512Y79528D02*
D03*
X98819Y148031D02*
D03*
X114567Y136614D02*
D03*
X120079D02*
D03*
X76968Y78150D02*
D03*
X342913Y168504D02*
D03*
X110236Y125197D02*
D03*
X143307D02*
D03*
X171260Y122047D02*
D03*
X204331Y122047D02*
D03*
X237402Y122047D02*
D03*
X270472Y122047D02*
D03*
X303543D02*
D03*
X336614Y122047D02*
D03*
X77559Y144882D02*
D03*
X95276Y150394D02*
D03*
X91732Y153150D02*
D03*
X89764Y154724D02*
D03*
X87795Y153150D02*
D03*
X85827Y154724D02*
D03*
X83858Y153150D02*
D03*
X124803Y95276D02*
D03*
X157874D02*
D03*
X195669Y98425D02*
D03*
X228740D02*
D03*
X261811D02*
D03*
X294882D02*
D03*
X327953D02*
D03*
X361024D02*
D03*
X91929Y73819D02*
D03*
X89961Y72244D02*
D03*
X87992Y73819D02*
D03*
X86024Y72244D02*
D03*
X84055Y73819D02*
D03*
X80512Y76575D02*
D03*
X63386Y71653D02*
D03*
X56337Y101538D02*
D03*
X43601Y46378D02*
D03*
X46654Y83268D02*
D03*
X342913Y51968D02*
D03*
X19685Y105905D02*
D03*
X20079Y176378D02*
D03*
Y134646D02*
D03*
Y145669D02*
D03*
X53543Y196850D02*
D03*
X49606Y99129D02*
D03*
X64272Y121811D02*
D03*
X68996Y121653D02*
D03*
X43543Y197008D02*
D03*
X48425Y196850D02*
D03*
X58661D02*
D03*
X48543Y40096D02*
D03*
X53543Y40080D02*
D03*
X58543Y40039D02*
D03*
X36220Y86832D02*
D03*
X35433Y82677D02*
D03*
X69921Y78583D02*
D03*
X73386Y78583D02*
D03*
X73427Y84447D02*
D03*
X63574Y196728D02*
D03*
X63543Y40000D02*
D03*
X72441Y126378D02*
D03*
X76968Y87205D02*
D03*
X52756Y101575D02*
D03*
X49606Y91339D02*
D03*
X68934Y108766D02*
D03*
X22441Y82284D02*
D03*
Y77953D02*
D03*
X29134Y100787D02*
D03*
X33465Y79528D02*
D03*
Y76772D02*
D03*
X78439Y96483D02*
D03*
X78445Y93307D02*
D03*
D56*
X111024Y155118D02*
D03*
X110630Y138189D02*
D03*
X228740Y158661D02*
D03*
X204724D02*
D03*
X228740Y140945D02*
D03*
X204331Y140945D02*
D03*
X195669Y140945D02*
D03*
X195669Y158661D02*
D03*
X171653Y140945D02*
D03*
Y158268D02*
D03*
X162598Y140945D02*
D03*
X162598Y158661D02*
D03*
X138189Y158268D02*
D03*
Y140945D02*
D03*
X129527D02*
D03*
Y158661D02*
D03*
X237402D02*
D03*
X261811D02*
D03*
X270472Y158661D02*
D03*
X294882D02*
D03*
X303543D02*
D03*
X327953D02*
D03*
X336614Y158661D02*
D03*
X361024Y158661D02*
D03*
X105118Y61811D02*
D03*
X361024Y61811D02*
D03*
X336614Y61811D02*
D03*
X327953Y61811D02*
D03*
X303543D02*
D03*
X294882D02*
D03*
X270472D02*
D03*
X261811Y61811D02*
D03*
X237402D02*
D03*
X180709Y44488D02*
D03*
X213780D02*
D03*
X147638D02*
D03*
X120079Y57874D02*
D03*
Y51968D02*
D03*
X318504Y57874D02*
D03*
Y49606D02*
D03*
X318504Y170866D02*
D03*
Y162598D02*
D03*
X129528Y61811D02*
D03*
Y79528D02*
D03*
X138189D02*
D03*
Y62205D02*
D03*
X162598Y61811D02*
D03*
X162599Y79528D02*
D03*
X171654Y62205D02*
D03*
Y79528D02*
D03*
X195669Y61811D02*
D03*
X195669Y79528D02*
D03*
X204331Y79528D02*
D03*
X228740Y79528D02*
D03*
X204724Y61811D02*
D03*
X228740D02*
D03*
X285433Y49606D02*
D03*
Y57874D02*
D03*
X252362Y57874D02*
D03*
X252362Y51968D02*
D03*
X153150Y57874D02*
D03*
X147638Y51968D02*
D03*
X153150D02*
D03*
X186221Y57874D02*
D03*
X180709Y51968D02*
D03*
X186221D02*
D03*
X219291Y57874D02*
D03*
X213780Y51969D02*
D03*
X219291D02*
D03*
X120079Y168504D02*
D03*
X153150D02*
D03*
X186221D02*
D03*
X252362D02*
D03*
X219291D02*
D03*
X120079Y162598D02*
D03*
X147638Y168504D02*
D03*
Y175984D02*
D03*
X180709Y168504D02*
D03*
Y175984D02*
D03*
X213779D02*
D03*
Y168504D02*
D03*
X285433Y162598D02*
D03*
Y170866D02*
D03*
X252362Y162598D02*
D03*
X153150D02*
D03*
X186221D02*
D03*
X219291D02*
D03*
D57*
X12598Y208661D02*
D03*
X307874D02*
D03*
X12598Y11811D02*
D03*
X307874D02*
D03*
D58*
X361024Y129134D02*
D03*
X327953Y129134D02*
D03*
X294882D02*
D03*
X261811D02*
D03*
X228740D02*
D03*
X195669D02*
D03*
X162598D02*
D03*
X129527D02*
D03*
X105118Y91339D02*
D03*
X138189D02*
D03*
X171260D02*
D03*
X204331Y91339D02*
D03*
X237402Y91339D02*
D03*
X270472Y91339D02*
D03*
X303543D02*
D03*
X336614D02*
D03*
D59*
X87402Y115748D02*
D03*
X87402Y111417D02*
D03*
X87402Y107087D02*
D03*
X83071Y115748D02*
D03*
Y111417D02*
D03*
Y107087D02*
D03*
X78740Y115748D02*
D03*
X78740Y111417D02*
D03*
X78740Y107087D02*
D03*
X90158Y86221D02*
D03*
X90158Y81890D02*
D03*
X85827Y86221D02*
D03*
Y81890D02*
D03*
X85630Y140748D02*
D03*
X85630Y145079D02*
D03*
X89961Y140748D02*
D03*
X89961Y145079D02*
D03*
D60*
X55020Y85630D02*
D03*
X59744D02*
D03*
X55020Y80905D02*
D03*
X59744D02*
D03*
M02*
