G04*
G04 #@! TF.GenerationSoftware,Altium Limited,Altium Designer,20.0.9 (164)*
G04*
G04 Layer_Physical_Order=2*
G04 Layer_Color=36540*
%FSLAX25Y25*%
%MOIN*%
G70*
G01*
G75*
%ADD62C,0.01181*%
%ADD65C,0.05906*%
%ADD67R,0.05906X0.05906*%
%ADD69C,0.01772*%
%ADD70C,0.02362*%
G36*
X93268Y167717D02*
X93395Y167410D01*
X93701Y167284D01*
X101929D01*
Y111024D01*
X102056Y110717D01*
X102362Y110591D01*
Y109882D01*
X102056Y109755D01*
X101929Y109449D01*
Y56732D01*
X93701D01*
X93395Y56605D01*
X93268Y56299D01*
Y-9040D01*
X803D01*
Y6811D01*
X1303Y6911D01*
X1595Y6205D01*
X2608Y4552D01*
X3866Y3079D01*
X5340Y1820D01*
X6992Y808D01*
X8782Y66D01*
X10667Y-386D01*
X12598Y-538D01*
X14530Y-386D01*
X16414Y66D01*
X18205Y808D01*
X19857Y1820D01*
X21331Y3079D01*
X22589Y4552D01*
X23602Y6205D01*
X24343Y7995D01*
X24795Y9879D01*
X24948Y11811D01*
X24795Y13743D01*
X24343Y15627D01*
X23602Y17417D01*
X22589Y19070D01*
X21331Y20543D01*
X19857Y21802D01*
X18205Y22814D01*
X16414Y23556D01*
X14530Y24008D01*
X12598Y24160D01*
X10667Y24008D01*
X8782Y23556D01*
X6992Y22814D01*
X5340Y21802D01*
X3866Y20543D01*
X2608Y19070D01*
X1595Y17417D01*
X1303Y16711D01*
X803Y16811D01*
Y203662D01*
X1303Y203761D01*
X1595Y203055D01*
X2608Y201403D01*
X3866Y199929D01*
X5340Y198671D01*
X6992Y197658D01*
X8782Y196917D01*
X10667Y196464D01*
X12598Y196312D01*
X14530Y196464D01*
X16414Y196917D01*
X18205Y197658D01*
X19857Y198671D01*
X21331Y199929D01*
X22589Y201403D01*
X23602Y203055D01*
X24343Y204845D01*
X24795Y206730D01*
X24948Y208661D01*
X24795Y210593D01*
X24343Y212477D01*
X23602Y214268D01*
X22589Y215920D01*
X21331Y217394D01*
X19857Y218652D01*
X18205Y219665D01*
X16414Y220406D01*
X14530Y220859D01*
X12598Y221010D01*
X10667Y220859D01*
X8782Y220406D01*
X6992Y219665D01*
X5340Y218652D01*
X3866Y217394D01*
X2608Y215920D01*
X1595Y214268D01*
X1303Y213562D01*
X803Y213661D01*
Y229512D01*
X93268D01*
Y167717D01*
D02*
G37*
G36*
X392898Y111024D02*
X102362D01*
Y167717D01*
X93701D01*
Y229512D01*
X392898D01*
Y111024D01*
D02*
G37*
G36*
Y-9040D02*
X93701D01*
Y56299D01*
X102362D01*
Y109449D01*
X392898D01*
Y-9040D01*
D02*
G37*
%LPC*%
G36*
X43543Y198421D02*
X43003Y198313D01*
X42544Y198007D01*
X42238Y197549D01*
X42130Y197008D01*
X42238Y196467D01*
X42544Y196009D01*
X43003Y195703D01*
X43543Y195595D01*
X44084Y195703D01*
X44542Y196009D01*
X44849Y196467D01*
X44956Y197008D01*
X44849Y197549D01*
X44542Y198007D01*
X44084Y198313D01*
X43543Y198421D01*
D02*
G37*
G36*
X58661Y198263D02*
X58121Y198156D01*
X57662Y197850D01*
X57356Y197391D01*
X57248Y196850D01*
X57356Y196310D01*
X57662Y195851D01*
X58121Y195545D01*
X58661Y195437D01*
X59202Y195545D01*
X59661Y195851D01*
X59967Y196310D01*
X60074Y196850D01*
X59967Y197391D01*
X59661Y197850D01*
X59202Y198156D01*
X58661Y198263D01*
D02*
G37*
G36*
X53543D02*
X53003Y198156D01*
X52544Y197850D01*
X52238Y197391D01*
X52130Y196850D01*
X52238Y196310D01*
X52544Y195851D01*
X53003Y195545D01*
X53543Y195437D01*
X54084Y195545D01*
X54542Y195851D01*
X54849Y196310D01*
X54956Y196850D01*
X54849Y197391D01*
X54542Y197850D01*
X54084Y198156D01*
X53543Y198263D01*
D02*
G37*
G36*
X48425D02*
X47885Y198156D01*
X47426Y197850D01*
X47120Y197391D01*
X47012Y196850D01*
X47120Y196310D01*
X47426Y195851D01*
X47885Y195545D01*
X48425Y195437D01*
X48966Y195545D01*
X49424Y195851D01*
X49731Y196310D01*
X49838Y196850D01*
X49731Y197391D01*
X49424Y197850D01*
X48966Y198156D01*
X48425Y198263D01*
D02*
G37*
G36*
X38583D02*
X38042Y198156D01*
X37584Y197850D01*
X37277Y197391D01*
X37170Y196850D01*
X37277Y196310D01*
X37584Y195851D01*
X38042Y195545D01*
X38583Y195437D01*
X39123Y195545D01*
X39582Y195851D01*
X39888Y196310D01*
X39996Y196850D01*
X39888Y197391D01*
X39582Y197850D01*
X39123Y198156D01*
X38583Y198263D01*
D02*
G37*
G36*
X63574Y198141D02*
X63034Y198034D01*
X62575Y197728D01*
X62269Y197269D01*
X62161Y196728D01*
X62269Y196188D01*
X62575Y195729D01*
X63034Y195423D01*
X63574Y195315D01*
X64115Y195423D01*
X64573Y195729D01*
X64880Y196188D01*
X64987Y196728D01*
X64880Y197269D01*
X64573Y197728D01*
X64115Y198034D01*
X63574Y198141D01*
D02*
G37*
G36*
X67323Y189996D02*
X66782Y189888D01*
X66324Y189582D01*
X66017Y189123D01*
X65910Y188583D01*
X66017Y188042D01*
X66324Y187583D01*
X66782Y187277D01*
X67323Y187170D01*
X67864Y187277D01*
X68322Y187583D01*
X68628Y188042D01*
X68736Y188583D01*
X68628Y189123D01*
X68322Y189582D01*
X67864Y189888D01*
X67323Y189996D01*
D02*
G37*
G36*
X35039D02*
X34499Y189888D01*
X34040Y189582D01*
X33734Y189123D01*
X33626Y188583D01*
X33734Y188042D01*
X34040Y187583D01*
X34499Y187277D01*
X35039Y187170D01*
X35580Y187277D01*
X36039Y187583D01*
X36345Y188042D01*
X36452Y188583D01*
X36345Y189123D01*
X36039Y189582D01*
X35580Y189888D01*
X35039Y189996D01*
D02*
G37*
G36*
X20079Y177791D02*
X19538Y177683D01*
X19080Y177377D01*
X18773Y176919D01*
X18666Y176378D01*
X18773Y175837D01*
X19080Y175379D01*
X19538Y175073D01*
X20079Y174965D01*
X20619Y175073D01*
X21078Y175379D01*
X21384Y175837D01*
X21492Y176378D01*
X21384Y176919D01*
X21078Y177377D01*
X20619Y177683D01*
X20079Y177791D01*
D02*
G37*
G36*
X5906Y179051D02*
X5030Y178936D01*
X4215Y178598D01*
X3514Y178060D01*
X2977Y177360D01*
X2639Y176545D01*
X2524Y175669D01*
X2639Y174794D01*
X2977Y173978D01*
X3514Y173278D01*
X4215Y172741D01*
X5030Y172403D01*
X5906Y172288D01*
X6781Y172403D01*
X7596Y172741D01*
X8297Y173278D01*
X8834Y173978D01*
X9172Y174794D01*
X9287Y175669D01*
X9172Y176545D01*
X8834Y177360D01*
X8297Y178060D01*
X7596Y178598D01*
X6781Y178936D01*
X5906Y179051D01*
D02*
G37*
G36*
Y169051D02*
X5030Y168936D01*
X4215Y168598D01*
X3514Y168061D01*
X2977Y167360D01*
X2639Y166544D01*
X2524Y165669D01*
X2639Y164794D01*
X2977Y163979D01*
X3514Y163278D01*
X4215Y162741D01*
X5030Y162403D01*
X5906Y162288D01*
X6781Y162403D01*
X7596Y162741D01*
X8297Y163278D01*
X8834Y163979D01*
X9172Y164794D01*
X9287Y165669D01*
X9172Y166544D01*
X8834Y167360D01*
X8297Y168061D01*
X7596Y168598D01*
X6781Y168936D01*
X5906Y169051D01*
D02*
G37*
G36*
X89764Y156137D02*
X89223Y156030D01*
X88765Y155724D01*
X88458Y155265D01*
X88351Y154724D01*
X87876Y154546D01*
X87795Y154563D01*
X87714Y154546D01*
X87240Y154724D01*
X87132Y155265D01*
X86826Y155724D01*
X86367Y156030D01*
X85827Y156137D01*
X85286Y156030D01*
X84828Y155724D01*
X84521Y155265D01*
X84414Y154724D01*
X83939Y154546D01*
X83858Y154563D01*
X83318Y154455D01*
X82859Y154149D01*
X82553Y153690D01*
X82445Y153150D01*
X82553Y152609D01*
X82859Y152150D01*
X83318Y151844D01*
X83858Y151737D01*
X84399Y151844D01*
X84857Y152150D01*
X85164Y152609D01*
X85271Y153150D01*
X85746Y153328D01*
X85827Y153311D01*
X85908Y153328D01*
X86382Y153150D01*
X86490Y152609D01*
X86796Y152150D01*
X87255Y151844D01*
X87795Y151737D01*
X88336Y151844D01*
X88794Y152150D01*
X89101Y152609D01*
X89208Y153150D01*
X89683Y153328D01*
X89764Y153311D01*
X89845Y153328D01*
X90319Y153150D01*
X90427Y152609D01*
X90733Y152150D01*
X91192Y151844D01*
X91732Y151737D01*
X92273Y151844D01*
X92731Y152150D01*
X93038Y152609D01*
X93145Y153150D01*
X93038Y153690D01*
X92731Y154149D01*
X92273Y154455D01*
X91732Y154563D01*
X91651Y154546D01*
X91177Y154724D01*
X91069Y155265D01*
X90763Y155724D01*
X90304Y156030D01*
X89764Y156137D01*
D02*
G37*
G36*
X5906Y159051D02*
X5030Y158936D01*
X4215Y158598D01*
X3514Y158061D01*
X2977Y157360D01*
X2639Y156544D01*
X2524Y155669D01*
X2639Y154794D01*
X2977Y153979D01*
X3514Y153278D01*
X4215Y152741D01*
X5030Y152403D01*
X5906Y152288D01*
X6781Y152403D01*
X7596Y152741D01*
X8297Y153278D01*
X8834Y153979D01*
X9172Y154794D01*
X9287Y155669D01*
X9172Y156544D01*
X8834Y157360D01*
X8297Y158061D01*
X7596Y158598D01*
X6781Y158936D01*
X5906Y159051D01*
D02*
G37*
G36*
X95276Y151807D02*
X94735Y151699D01*
X94276Y151393D01*
X93970Y150934D01*
X93863Y150394D01*
X93970Y149853D01*
X94276Y149395D01*
X94735Y149088D01*
X95276Y148981D01*
X95816Y149088D01*
X96275Y149395D01*
X96581Y149853D01*
X96689Y150394D01*
X96581Y150934D01*
X96275Y151393D01*
X95816Y151699D01*
X95276Y151807D01*
D02*
G37*
G36*
X79921Y151019D02*
X79381Y150912D01*
X78922Y150605D01*
X78616Y150147D01*
X78508Y149606D01*
X78616Y149066D01*
X78922Y148607D01*
X79381Y148301D01*
X79921Y148193D01*
X80462Y148301D01*
X80920Y148607D01*
X81227Y149066D01*
X81334Y149606D01*
X81227Y150147D01*
X80920Y150605D01*
X80462Y150912D01*
X79921Y151019D01*
D02*
G37*
G36*
X98819Y149444D02*
X98278Y149337D01*
X97820Y149031D01*
X97514Y148572D01*
X97406Y148031D01*
X97514Y147491D01*
X97820Y147032D01*
X98278Y146726D01*
X98819Y146618D01*
X99360Y146726D01*
X99818Y147032D01*
X100124Y147491D01*
X100232Y148031D01*
X100124Y148572D01*
X99818Y149031D01*
X99360Y149337D01*
X98819Y149444D01*
D02*
G37*
G36*
X31102Y152138D02*
X30345Y152038D01*
X29640Y151746D01*
X29034Y151281D01*
X28569Y150675D01*
X28277Y149970D01*
X28177Y149213D01*
X28277Y148456D01*
X28569Y147750D01*
X29034Y147144D01*
X29640Y146679D01*
X30345Y146387D01*
X31102Y146288D01*
X31859Y146387D01*
X32565Y146679D01*
X33171Y147144D01*
X33636Y147750D01*
X33928Y148456D01*
X34027Y149213D01*
X33928Y149970D01*
X33636Y150675D01*
X33171Y151281D01*
X32565Y151746D01*
X31859Y152038D01*
X31102Y152138D01*
D02*
G37*
G36*
X20079Y147082D02*
X19538Y146975D01*
X19080Y146668D01*
X18773Y146210D01*
X18666Y145669D01*
X18773Y145129D01*
X19080Y144670D01*
X19538Y144364D01*
X20079Y144256D01*
X20619Y144364D01*
X21078Y144670D01*
X21384Y145129D01*
X21492Y145669D01*
X21384Y146210D01*
X21078Y146668D01*
X20619Y146975D01*
X20079Y147082D01*
D02*
G37*
G36*
X38976Y146689D02*
X38436Y146581D01*
X37977Y146275D01*
X37671Y145816D01*
X37563Y145276D01*
X37671Y144735D01*
X37977Y144276D01*
X38436Y143970D01*
X38976Y143863D01*
X39517Y143970D01*
X39976Y144276D01*
X40282Y144735D01*
X40389Y145276D01*
X40282Y145816D01*
X39976Y146275D01*
X39517Y146581D01*
X38976Y146689D01*
D02*
G37*
G36*
X89961Y146592D02*
X89381Y146477D01*
X88891Y146149D01*
X88563Y145658D01*
X88447Y145079D01*
X88563Y144500D01*
X88891Y144009D01*
X89381Y143681D01*
X89961Y143565D01*
X90540Y143681D01*
X91031Y144009D01*
X91359Y144500D01*
X91474Y145079D01*
X91359Y145658D01*
X91031Y146149D01*
X90540Y146477D01*
X89961Y146592D01*
D02*
G37*
G36*
X85630Y146592D02*
X85051Y146477D01*
X84560Y146149D01*
X84232Y145658D01*
X84117Y145079D01*
X84232Y144500D01*
X84560Y144009D01*
X85051Y143681D01*
X85630Y143565D01*
X86209Y143681D01*
X86700Y144009D01*
X87028Y144500D01*
X87143Y145079D01*
X87028Y145658D01*
X86700Y146149D01*
X86209Y146477D01*
X85630Y146592D01*
D02*
G37*
G36*
X77559Y146295D02*
X77018Y146187D01*
X76560Y145881D01*
X76254Y145423D01*
X76146Y144882D01*
X76254Y144341D01*
X76560Y143883D01*
X77018Y143577D01*
X77559Y143469D01*
X78100Y143577D01*
X78558Y143883D01*
X78865Y144341D01*
X78972Y144882D01*
X78865Y145423D01*
X78558Y145881D01*
X78100Y146187D01*
X77559Y146295D01*
D02*
G37*
G36*
X9258Y149022D02*
X2553D01*
Y142317D01*
X9258D01*
Y149022D01*
D02*
G37*
G36*
X89961Y142261D02*
X89381Y142146D01*
X88891Y141818D01*
X88563Y141327D01*
X88447Y140748D01*
X88563Y140169D01*
X88891Y139678D01*
X89381Y139350D01*
X89961Y139235D01*
X90540Y139350D01*
X91031Y139678D01*
X91359Y140169D01*
X91474Y140748D01*
X91359Y141327D01*
X91031Y141818D01*
X90540Y142146D01*
X89961Y142261D01*
D02*
G37*
G36*
X85630D02*
X85051Y142146D01*
X84560Y141818D01*
X84232Y141327D01*
X84117Y140748D01*
X84232Y140169D01*
X84560Y139678D01*
X85051Y139350D01*
X85630Y139235D01*
X86209Y139350D01*
X86700Y139678D01*
X87028Y140169D01*
X87143Y140748D01*
X87028Y141327D01*
X86700Y141818D01*
X86209Y142146D01*
X85630Y142261D01*
D02*
G37*
G36*
X31102Y144264D02*
X30345Y144164D01*
X29640Y143872D01*
X29034Y143407D01*
X28569Y142801D01*
X28277Y142096D01*
X28177Y141339D01*
X28277Y140582D01*
X28569Y139876D01*
X29034Y139270D01*
X29640Y138805D01*
X30345Y138513D01*
X31102Y138414D01*
X31859Y138513D01*
X32565Y138805D01*
X33171Y139270D01*
X33636Y139876D01*
X33928Y140582D01*
X34027Y141339D01*
X33928Y142096D01*
X33636Y142801D01*
X33171Y143407D01*
X32565Y143872D01*
X31859Y144164D01*
X31102Y144264D01*
D02*
G37*
G36*
X98819Y140389D02*
X98278Y140282D01*
X97820Y139976D01*
X97514Y139517D01*
X97406Y138976D01*
X97514Y138436D01*
X97820Y137977D01*
X98278Y137671D01*
X98819Y137563D01*
X99360Y137671D01*
X99818Y137977D01*
X100124Y138436D01*
X100232Y138976D01*
X100124Y139517D01*
X99818Y139976D01*
X99360Y140282D01*
X98819Y140389D01*
D02*
G37*
G36*
X20079Y136059D02*
X19538Y135951D01*
X19080Y135645D01*
X18773Y135186D01*
X18666Y134646D01*
X18773Y134105D01*
X19080Y133647D01*
X19538Y133340D01*
X20079Y133233D01*
X20619Y133340D01*
X21078Y133647D01*
X21384Y134105D01*
X21492Y134646D01*
X21384Y135186D01*
X21078Y135645D01*
X20619Y135951D01*
X20079Y136059D01*
D02*
G37*
G36*
X5906Y137712D02*
X5030Y137597D01*
X4215Y137259D01*
X3514Y136722D01*
X2977Y136022D01*
X2639Y135206D01*
X2524Y134331D01*
X2639Y133456D01*
X2977Y132640D01*
X3514Y131939D01*
X4215Y131402D01*
X5030Y131064D01*
X5906Y130949D01*
X6781Y131064D01*
X7596Y131402D01*
X8297Y131939D01*
X8834Y132640D01*
X9172Y133456D01*
X9287Y134331D01*
X9172Y135206D01*
X8834Y136022D01*
X8297Y136722D01*
X7596Y137259D01*
X6781Y137597D01*
X5906Y137712D01*
D02*
G37*
G36*
X63779Y130940D02*
X63239Y130833D01*
X62780Y130527D01*
X62474Y130068D01*
X62367Y129528D01*
X62474Y128987D01*
X62780Y128528D01*
X63239Y128222D01*
X63779Y128115D01*
X64320Y128222D01*
X64779Y128528D01*
X65085Y128987D01*
X65193Y129528D01*
X65085Y130068D01*
X64779Y130527D01*
X64320Y130833D01*
X63779Y130940D01*
D02*
G37*
G36*
X72441Y127791D02*
X71900Y127683D01*
X71442Y127377D01*
X71135Y126919D01*
X71028Y126378D01*
X71135Y125837D01*
X71442Y125379D01*
X71900Y125073D01*
X72441Y124965D01*
X72982Y125073D01*
X73440Y125379D01*
X73746Y125837D01*
X73854Y126378D01*
X73746Y126919D01*
X73440Y127377D01*
X72982Y127683D01*
X72441Y127791D01*
D02*
G37*
G36*
X59055D02*
X58514Y127683D01*
X58056Y127377D01*
X57750Y126919D01*
X57642Y126378D01*
X57750Y125837D01*
X58056Y125379D01*
X58514Y125073D01*
X59055Y124965D01*
X59596Y125073D01*
X60054Y125379D01*
X60360Y125837D01*
X60468Y126378D01*
X60360Y126919D01*
X60054Y127377D01*
X59596Y127683D01*
X59055Y127791D01*
D02*
G37*
G36*
X5906Y127712D02*
X5030Y127597D01*
X4215Y127259D01*
X3514Y126722D01*
X2977Y126022D01*
X2639Y125206D01*
X2524Y124331D01*
X2639Y123456D01*
X2977Y122640D01*
X3514Y121940D01*
X4215Y121402D01*
X5030Y121064D01*
X5906Y120949D01*
X6781Y121064D01*
X7596Y121402D01*
X8297Y121940D01*
X8834Y122640D01*
X9172Y123456D01*
X9287Y124331D01*
X9172Y125206D01*
X8834Y126022D01*
X8297Y126722D01*
X7596Y127259D01*
X6781Y127597D01*
X5906Y127712D01*
D02*
G37*
G36*
X68996Y123066D02*
X68455Y122959D01*
X67997Y122653D01*
X67691Y122194D01*
X67583Y121653D01*
X67691Y121113D01*
X67997Y120654D01*
X68455Y120348D01*
X68996Y120241D01*
X69537Y120348D01*
X69995Y120654D01*
X70302Y121113D01*
X70409Y121653D01*
X70302Y122194D01*
X69995Y122653D01*
X69537Y122959D01*
X68996Y123066D01*
D02*
G37*
G36*
X31102Y124972D02*
X30345Y124873D01*
X29640Y124580D01*
X29034Y124116D01*
X28569Y123510D01*
X28277Y122804D01*
X28177Y122047D01*
X28277Y121290D01*
X28569Y120585D01*
X29034Y119979D01*
X29640Y119514D01*
X30345Y119222D01*
X31102Y119122D01*
X31859Y119222D01*
X32565Y119514D01*
X33171Y119979D01*
X33636Y120585D01*
X33928Y121290D01*
X34027Y122047D01*
X33928Y122804D01*
X33636Y123510D01*
X33171Y124116D01*
X32565Y124580D01*
X31859Y124873D01*
X31102Y124972D01*
D02*
G37*
G36*
X87402Y117261D02*
X86822Y117146D01*
X86331Y116818D01*
X86003Y116327D01*
X85888Y115748D01*
X86003Y115169D01*
X86331Y114678D01*
X86822Y114350D01*
X87402Y114235D01*
X87981Y114350D01*
X88472Y114678D01*
X88800Y115169D01*
X88915Y115748D01*
X88800Y116327D01*
X88472Y116818D01*
X87981Y117146D01*
X87402Y117261D01*
D02*
G37*
G36*
X78740D02*
X78161Y117146D01*
X77670Y116818D01*
X77342Y116327D01*
X77227Y115748D01*
X77342Y115169D01*
X77670Y114678D01*
X78161Y114350D01*
X78740Y114235D01*
X79319Y114350D01*
X79810Y114678D01*
X80138Y115169D01*
X80253Y115748D01*
X80138Y116327D01*
X79810Y116818D01*
X79319Y117146D01*
X78740Y117261D01*
D02*
G37*
G36*
X83071Y117261D02*
X82492Y117146D01*
X82001Y116818D01*
X81673Y116327D01*
X81558Y115748D01*
X81673Y115169D01*
X82001Y114678D01*
X82492Y114350D01*
X83071Y114235D01*
X83650Y114350D01*
X84141Y114678D01*
X84469Y115169D01*
X84584Y115748D01*
X84469Y116327D01*
X84141Y116818D01*
X83650Y117146D01*
X83071Y117261D01*
D02*
G37*
G36*
X31102Y117098D02*
X30345Y116999D01*
X29640Y116706D01*
X29034Y116242D01*
X28569Y115636D01*
X28277Y114930D01*
X28177Y114173D01*
X28277Y113416D01*
X28569Y112711D01*
X29034Y112105D01*
X29640Y111640D01*
X30345Y111348D01*
X31102Y111248D01*
X31859Y111348D01*
X32565Y111640D01*
X33171Y112105D01*
X33636Y112711D01*
X33928Y113416D01*
X34027Y114173D01*
X33928Y114930D01*
X33636Y115636D01*
X33171Y116242D01*
X32565Y116706D01*
X31859Y116999D01*
X31102Y117098D01*
D02*
G37*
G36*
X64173Y114011D02*
X63633Y113904D01*
X63174Y113598D01*
X62868Y113139D01*
X62760Y112598D01*
X62868Y112058D01*
X63174Y111599D01*
X63633Y111293D01*
X64173Y111186D01*
X64714Y111293D01*
X65172Y111599D01*
X65479Y112058D01*
X65586Y112598D01*
X65479Y113139D01*
X65172Y113598D01*
X64714Y113904D01*
X64173Y114011D01*
D02*
G37*
G36*
X5906Y117712D02*
X5030Y117597D01*
X4215Y117259D01*
X3514Y116722D01*
X2977Y116022D01*
X2639Y115206D01*
X2524Y114331D01*
X2639Y113455D01*
X2977Y112640D01*
X3514Y111940D01*
X4215Y111402D01*
X5030Y111064D01*
X5906Y110949D01*
X6781Y111064D01*
X7596Y111402D01*
X8297Y111940D01*
X8834Y112640D01*
X9172Y113455D01*
X9287Y114331D01*
X9172Y115206D01*
X8834Y116022D01*
X8297Y116722D01*
X7596Y117259D01*
X6781Y117597D01*
X5906Y117712D01*
D02*
G37*
G36*
X87402Y112931D02*
X86822Y112815D01*
X86331Y112487D01*
X86003Y111996D01*
X85888Y111417D01*
X86003Y110838D01*
X86331Y110347D01*
X86822Y110019D01*
X87402Y109904D01*
X87981Y110019D01*
X88472Y110347D01*
X88800Y110838D01*
X88915Y111417D01*
X88800Y111996D01*
X88472Y112487D01*
X87981Y112815D01*
X87402Y112931D01*
D02*
G37*
G36*
X83071D02*
X82492Y112815D01*
X82001Y112487D01*
X81673Y111996D01*
X81558Y111417D01*
X81673Y110838D01*
X82001Y110347D01*
X82492Y110019D01*
X83071Y109904D01*
X83650Y110019D01*
X84141Y110347D01*
X84469Y110838D01*
X84584Y111417D01*
X84469Y111996D01*
X84141Y112487D01*
X83650Y112815D01*
X83071Y112931D01*
D02*
G37*
G36*
X78740D02*
X78161Y112815D01*
X77670Y112487D01*
X77342Y111996D01*
X77227Y111417D01*
X77342Y110838D01*
X77670Y110347D01*
X78161Y110019D01*
X78740Y109904D01*
X79319Y110019D01*
X79810Y110347D01*
X80138Y110838D01*
X80253Y111417D01*
X80138Y111996D01*
X79810Y112487D01*
X79319Y112815D01*
X78740Y112931D01*
D02*
G37*
G36*
X68934Y110179D02*
X68393Y110071D01*
X67935Y109765D01*
X67629Y109306D01*
X67521Y108766D01*
X67629Y108225D01*
X67935Y107766D01*
X68393Y107460D01*
X68934Y107353D01*
X69475Y107460D01*
X69933Y107766D01*
X70240Y108225D01*
X70347Y108766D01*
X70240Y109306D01*
X69933Y109765D01*
X69475Y110071D01*
X68934Y110179D01*
D02*
G37*
G36*
X83071Y108600D02*
X82492Y108485D01*
X82001Y108157D01*
X81673Y107666D01*
X81558Y107087D01*
X81673Y106508D01*
X82001Y106017D01*
X82492Y105689D01*
X83071Y105573D01*
X83650Y105689D01*
X84141Y106017D01*
X84469Y106508D01*
X84584Y107087D01*
X84469Y107666D01*
X84141Y108157D01*
X83650Y108485D01*
X83071Y108600D01*
D02*
G37*
G36*
X87402Y108600D02*
X86822Y108485D01*
X86331Y108157D01*
X86003Y107666D01*
X85888Y107087D01*
X86003Y106508D01*
X86331Y106017D01*
X86822Y105689D01*
X87402Y105573D01*
X87981Y105689D01*
X88472Y106017D01*
X88800Y106508D01*
X88915Y107087D01*
X88800Y107666D01*
X88472Y108157D01*
X87981Y108485D01*
X87402Y108600D01*
D02*
G37*
G36*
X78740D02*
X78161Y108485D01*
X77670Y108157D01*
X77342Y107666D01*
X77227Y107087D01*
X77342Y106508D01*
X77670Y106017D01*
X78161Y105689D01*
X78740Y105573D01*
X79319Y105689D01*
X79810Y106017D01*
X80138Y106508D01*
X80253Y107087D01*
X80138Y107666D01*
X79810Y108157D01*
X79319Y108485D01*
X78740Y108600D01*
D02*
G37*
G36*
X19685Y107318D02*
X19144Y107211D01*
X18686Y106905D01*
X18380Y106446D01*
X18272Y105905D01*
X18380Y105365D01*
X18686Y104906D01*
X19144Y104600D01*
X19685Y104493D01*
X20226Y104600D01*
X20684Y104906D01*
X20990Y105365D01*
X21098Y105905D01*
X20990Y106446D01*
X20684Y106905D01*
X20226Y107211D01*
X19685Y107318D01*
D02*
G37*
G36*
X9258Y107684D02*
X2553D01*
Y100978D01*
X9258D01*
Y107684D01*
D02*
G37*
G36*
X52756Y102988D02*
X52215Y102880D01*
X51757Y102574D01*
X51451Y102115D01*
X51343Y101575D01*
X51451Y101034D01*
X51757Y100576D01*
X52215Y100269D01*
X52756Y100162D01*
X53297Y100269D01*
X53755Y100576D01*
X54061Y101034D01*
X54169Y101575D01*
X54061Y102115D01*
X53755Y102574D01*
X53297Y102880D01*
X52756Y102988D01*
D02*
G37*
G36*
X56337Y102951D02*
X55796Y102844D01*
X55338Y102537D01*
X55031Y102079D01*
X54924Y101538D01*
X55031Y100997D01*
X55338Y100539D01*
X55796Y100233D01*
X56337Y100125D01*
X56877Y100233D01*
X57336Y100539D01*
X57642Y100997D01*
X57749Y101538D01*
X57642Y102079D01*
X57336Y102537D01*
X56877Y102844D01*
X56337Y102951D01*
D02*
G37*
G36*
X29134Y102200D02*
X28593Y102093D01*
X28135Y101786D01*
X27828Y101328D01*
X27721Y100787D01*
X27828Y100247D01*
X28135Y99788D01*
X28593Y99482D01*
X29134Y99374D01*
X29675Y99482D01*
X30133Y99788D01*
X30439Y100247D01*
X30547Y100787D01*
X30439Y101328D01*
X30133Y101786D01*
X29675Y102093D01*
X29134Y102200D01*
D02*
G37*
G36*
X49606Y100542D02*
X49066Y100435D01*
X48607Y100128D01*
X48301Y99670D01*
X48193Y99129D01*
X48301Y98588D01*
X48607Y98130D01*
X49066Y97824D01*
X49606Y97716D01*
X50147Y97824D01*
X50605Y98130D01*
X50912Y98588D01*
X51019Y99129D01*
X50912Y99670D01*
X50605Y100128D01*
X50147Y100435D01*
X49606Y100542D01*
D02*
G37*
G36*
X78439Y97896D02*
X77898Y97789D01*
X77440Y97482D01*
X77134Y97024D01*
X77026Y96483D01*
X77134Y95942D01*
X77440Y95484D01*
X77898Y95178D01*
X78439Y95070D01*
X78980Y95178D01*
X79438Y95484D01*
X79744Y95942D01*
X79852Y96483D01*
X79744Y97024D01*
X79438Y97482D01*
X78980Y97789D01*
X78439Y97896D01*
D02*
G37*
G36*
X49606Y92752D02*
X49066Y92644D01*
X48607Y92338D01*
X48301Y91879D01*
X48193Y91339D01*
X48301Y90798D01*
X48607Y90339D01*
X49066Y90033D01*
X49606Y89926D01*
X50147Y90033D01*
X50605Y90339D01*
X50912Y90798D01*
X51019Y91339D01*
X50912Y91879D01*
X50605Y92338D01*
X50147Y92644D01*
X49606Y92752D01*
D02*
G37*
G36*
X76968Y88618D02*
X76428Y88510D01*
X75969Y88204D01*
X75663Y87745D01*
X75555Y87205D01*
X75663Y86664D01*
X75969Y86206D01*
X76428Y85899D01*
X76968Y85792D01*
X77509Y85899D01*
X77968Y86206D01*
X78274Y86664D01*
X78382Y87205D01*
X78274Y87745D01*
X77968Y88204D01*
X77509Y88510D01*
X76968Y88618D01*
D02*
G37*
G36*
X36220Y88245D02*
X35680Y88138D01*
X35221Y87832D01*
X34915Y87373D01*
X34808Y86832D01*
X34915Y86292D01*
X35221Y85833D01*
X35680Y85527D01*
X36220Y85419D01*
X36761Y85527D01*
X37220Y85833D01*
X37526Y86292D01*
X37633Y86832D01*
X37526Y87373D01*
X37220Y87832D01*
X36761Y88138D01*
X36220Y88245D01*
D02*
G37*
G36*
X90158Y87734D02*
X89578Y87619D01*
X89087Y87291D01*
X88759Y86800D01*
X88644Y86221D01*
X88759Y85641D01*
X89087Y85150D01*
X89578Y84822D01*
X90158Y84707D01*
X90737Y84822D01*
X91228Y85150D01*
X91556Y85641D01*
X91671Y86221D01*
X91556Y86800D01*
X91228Y87291D01*
X90737Y87619D01*
X90158Y87734D01*
D02*
G37*
G36*
X85827D02*
X85248Y87619D01*
X84757Y87291D01*
X84429Y86800D01*
X84313Y86221D01*
X84429Y85641D01*
X84757Y85150D01*
X85248Y84822D01*
X85827Y84707D01*
X86406Y84822D01*
X86897Y85150D01*
X87225Y85641D01*
X87340Y86221D01*
X87225Y86800D01*
X86897Y87291D01*
X86406Y87619D01*
X85827Y87734D01*
D02*
G37*
G36*
X59744Y87464D02*
X59042Y87325D01*
X58447Y86927D01*
X58049Y86332D01*
X57910Y85630D01*
X58049Y84928D01*
X58447Y84333D01*
X59042Y83935D01*
X59744Y83795D01*
X60446Y83935D01*
X61041Y84333D01*
X61439Y84928D01*
X61579Y85630D01*
X61439Y86332D01*
X61041Y86927D01*
X60446Y87325D01*
X59744Y87464D01*
D02*
G37*
G36*
X55020D02*
X54318Y87325D01*
X53723Y86927D01*
X53325Y86332D01*
X53185Y85630D01*
X53325Y84928D01*
X53723Y84333D01*
X54318Y83935D01*
X55020Y83795D01*
X55722Y83935D01*
X56317Y84333D01*
X56714Y84928D01*
X56854Y85630D01*
X56714Y86332D01*
X56317Y86927D01*
X55722Y87325D01*
X55020Y87464D01*
D02*
G37*
G36*
X73427Y85860D02*
X72886Y85752D01*
X72428Y85446D01*
X72122Y84988D01*
X72014Y84447D01*
X72122Y83906D01*
X72428Y83448D01*
X72886Y83142D01*
X73427Y83034D01*
X73968Y83142D01*
X74426Y83448D01*
X74732Y83906D01*
X74840Y84447D01*
X74732Y84988D01*
X74426Y85446D01*
X73968Y85752D01*
X73427Y85860D01*
D02*
G37*
G36*
X46654Y84681D02*
X46113Y84573D01*
X45654Y84267D01*
X45348Y83808D01*
X45241Y83268D01*
X45348Y82727D01*
X45654Y82269D01*
X46113Y81962D01*
X46654Y81855D01*
X47194Y81962D01*
X47653Y82269D01*
X47959Y82727D01*
X48066Y83268D01*
X47959Y83808D01*
X47653Y84267D01*
X47194Y84573D01*
X46654Y84681D01*
D02*
G37*
G36*
X22441Y83696D02*
X21900Y83589D01*
X21442Y83283D01*
X21136Y82824D01*
X21028Y82284D01*
X21136Y81743D01*
X21442Y81284D01*
X21900Y80978D01*
X22441Y80870D01*
X22982Y80978D01*
X23440Y81284D01*
X23746Y81743D01*
X23854Y82284D01*
X23746Y82824D01*
X23440Y83283D01*
X22982Y83589D01*
X22441Y83696D01*
D02*
G37*
G36*
X97859Y83475D02*
X97319Y83367D01*
X96860Y83061D01*
X96554Y82603D01*
X96446Y82062D01*
X96554Y81521D01*
X96860Y81063D01*
X97319Y80757D01*
X97859Y80649D01*
X98400Y80757D01*
X98858Y81063D01*
X99165Y81521D01*
X99272Y82062D01*
X99165Y82603D01*
X98858Y83061D01*
X98400Y83367D01*
X97859Y83475D01*
D02*
G37*
G36*
X90158Y83403D02*
X89578Y83288D01*
X89087Y82960D01*
X88759Y82469D01*
X88644Y81890D01*
X88759Y81311D01*
X89087Y80820D01*
X89578Y80492D01*
X90158Y80376D01*
X90737Y80492D01*
X91228Y80820D01*
X91556Y81311D01*
X91671Y81890D01*
X91556Y82469D01*
X91228Y82960D01*
X90737Y83288D01*
X90158Y83403D01*
D02*
G37*
G36*
X85827Y83403D02*
X85248Y83288D01*
X84757Y82960D01*
X84429Y82469D01*
X84313Y81890D01*
X84429Y81311D01*
X84757Y80820D01*
X85248Y80492D01*
X85827Y80376D01*
X86406Y80492D01*
X86897Y80820D01*
X87225Y81311D01*
X87340Y81890D01*
X87225Y82469D01*
X86897Y82960D01*
X86406Y83288D01*
X85827Y83403D01*
D02*
G37*
G36*
X59744Y82740D02*
X59042Y82600D01*
X58447Y82203D01*
X58049Y81608D01*
X57910Y80905D01*
X58049Y80203D01*
X58447Y79608D01*
X59042Y79211D01*
X59744Y79071D01*
X60446Y79211D01*
X61041Y79608D01*
X61439Y80203D01*
X61579Y80905D01*
X61439Y81608D01*
X61041Y82203D01*
X60446Y82600D01*
X59744Y82740D01*
D02*
G37*
G36*
X55020D02*
X54318Y82600D01*
X53723Y82203D01*
X53325Y81608D01*
X53185Y80905D01*
X53325Y80203D01*
X53723Y79608D01*
X54318Y79211D01*
X55020Y79071D01*
X55722Y79211D01*
X56317Y79608D01*
X56714Y80203D01*
X56854Y80905D01*
X56714Y81608D01*
X56317Y82203D01*
X55722Y82600D01*
X55020Y82740D01*
D02*
G37*
G36*
X73386Y79996D02*
X72845Y79888D01*
X72387Y79582D01*
X72080Y79123D01*
X71973Y78583D01*
X72080Y78042D01*
X72387Y77584D01*
X72845Y77277D01*
X73386Y77170D01*
X73927Y77277D01*
X74385Y77584D01*
X74691Y78042D01*
X74799Y78583D01*
X74691Y79123D01*
X74385Y79582D01*
X73927Y79888D01*
X73386Y79996D01*
D02*
G37*
G36*
X76968Y79563D02*
X76428Y79455D01*
X75969Y79149D01*
X75663Y78690D01*
X75555Y78150D01*
X75663Y77609D01*
X75969Y77150D01*
X76428Y76844D01*
X76968Y76737D01*
X77509Y76844D01*
X77968Y77150D01*
X78274Y77609D01*
X78382Y78150D01*
X78274Y78690D01*
X77968Y79149D01*
X77509Y79455D01*
X76968Y79563D01*
D02*
G37*
G36*
X22441Y79366D02*
X21900Y79258D01*
X21442Y78952D01*
X21136Y78493D01*
X21028Y77953D01*
X21136Y77412D01*
X21442Y76954D01*
X21900Y76647D01*
X22441Y76540D01*
X22982Y76647D01*
X23440Y76954D01*
X23746Y77412D01*
X23854Y77953D01*
X23746Y78493D01*
X23440Y78952D01*
X22982Y79258D01*
X22441Y79366D01*
D02*
G37*
G36*
X94882Y78972D02*
X94341Y78865D01*
X93883Y78558D01*
X93577Y78100D01*
X93469Y77559D01*
X93577Y77018D01*
X93883Y76560D01*
X94341Y76254D01*
X94882Y76146D01*
X95423Y76254D01*
X95881Y76560D01*
X96187Y77018D01*
X96295Y77559D01*
X96187Y78100D01*
X95881Y78558D01*
X95423Y78865D01*
X94882Y78972D01*
D02*
G37*
G36*
X80512Y77988D02*
X79971Y77880D01*
X79513Y77574D01*
X79206Y77115D01*
X79099Y76575D01*
X79206Y76034D01*
X79513Y75576D01*
X79971Y75269D01*
X80512Y75162D01*
X81053Y75269D01*
X81511Y75576D01*
X81817Y76034D01*
X81925Y76575D01*
X81817Y77115D01*
X81511Y77574D01*
X81053Y77880D01*
X80512Y77988D01*
D02*
G37*
G36*
X91929Y75232D02*
X91388Y75124D01*
X90930Y74818D01*
X90624Y74360D01*
X90516Y73819D01*
X90042Y73641D01*
X89961Y73657D01*
X89880Y73641D01*
X89405Y73819D01*
X89297Y74360D01*
X88991Y74818D01*
X88533Y75124D01*
X87992Y75232D01*
X87451Y75124D01*
X86993Y74818D01*
X86687Y74360D01*
X86579Y73819D01*
X86105Y73641D01*
X86024Y73657D01*
X85943Y73641D01*
X85468Y73819D01*
X85360Y74360D01*
X85054Y74818D01*
X84596Y75124D01*
X84055Y75232D01*
X83514Y75124D01*
X83056Y74818D01*
X82750Y74360D01*
X82642Y73819D01*
X82750Y73278D01*
X83056Y72820D01*
X83514Y72514D01*
X84055Y72406D01*
X84136Y72422D01*
X84611Y72244D01*
X84718Y71703D01*
X85024Y71245D01*
X85483Y70939D01*
X86024Y70831D01*
X86564Y70939D01*
X87023Y71245D01*
X87329Y71703D01*
X87437Y72244D01*
X87911Y72422D01*
X87992Y72406D01*
X88073Y72422D01*
X88548Y72244D01*
X88655Y71703D01*
X88961Y71245D01*
X89420Y70939D01*
X89961Y70831D01*
X90501Y70939D01*
X90960Y71245D01*
X91266Y71703D01*
X91374Y72244D01*
X91848Y72422D01*
X91929Y72406D01*
X92470Y72514D01*
X92928Y72820D01*
X93235Y73278D01*
X93342Y73819D01*
X93235Y74360D01*
X92928Y74818D01*
X92470Y75124D01*
X91929Y75232D01*
D02*
G37*
G36*
X63386Y73067D02*
X62845Y72959D01*
X62387Y72653D01*
X62080Y72194D01*
X61973Y71653D01*
X62080Y71113D01*
X62387Y70654D01*
X62845Y70348D01*
X63386Y70241D01*
X63927Y70348D01*
X64385Y70654D01*
X64691Y71113D01*
X64799Y71653D01*
X64691Y72194D01*
X64385Y72653D01*
X63927Y72959D01*
X63386Y73067D01*
D02*
G37*
G36*
X52756Y72279D02*
X52215Y72172D01*
X51757Y71865D01*
X51451Y71407D01*
X51343Y70866D01*
X51451Y70325D01*
X51757Y69867D01*
X52215Y69561D01*
X52756Y69453D01*
X53297Y69561D01*
X53755Y69867D01*
X54061Y70325D01*
X54169Y70866D01*
X54061Y71407D01*
X53755Y71865D01*
X53297Y72172D01*
X52756Y72279D01*
D02*
G37*
G36*
X55512Y69917D02*
X54971Y69809D01*
X54513Y69503D01*
X54206Y69045D01*
X54099Y68504D01*
X54206Y67963D01*
X54513Y67505D01*
X54971Y67198D01*
X55512Y67091D01*
X56053Y67198D01*
X56511Y67505D01*
X56817Y67963D01*
X56925Y68504D01*
X56817Y69045D01*
X56511Y69503D01*
X56053Y69809D01*
X55512Y69917D01*
D02*
G37*
G36*
X38583Y47870D02*
X38042Y47762D01*
X37584Y47456D01*
X37277Y46997D01*
X37170Y46457D01*
X37277Y45916D01*
X37584Y45458D01*
X38042Y45151D01*
X38583Y45044D01*
X39123Y45151D01*
X39582Y45458D01*
X39888Y45916D01*
X39996Y46457D01*
X39888Y46997D01*
X39582Y47456D01*
X39123Y47762D01*
X38583Y47870D01*
D02*
G37*
G36*
X43601Y47791D02*
X43060Y47684D01*
X42602Y47377D01*
X42296Y46919D01*
X42188Y46378D01*
X42296Y45837D01*
X42602Y45379D01*
X43060Y45073D01*
X43601Y44965D01*
X44142Y45073D01*
X44600Y45379D01*
X44907Y45837D01*
X45014Y46378D01*
X44907Y46919D01*
X44600Y47377D01*
X44142Y47684D01*
X43601Y47791D01*
D02*
G37*
G36*
X48543Y41509D02*
X48003Y41401D01*
X47544Y41095D01*
X47238Y40637D01*
X47130Y40096D01*
X47238Y39555D01*
X47544Y39097D01*
X48003Y38791D01*
X48543Y38683D01*
X49084Y38791D01*
X49542Y39097D01*
X49849Y39555D01*
X49956Y40096D01*
X49849Y40637D01*
X49542Y41095D01*
X49084Y41401D01*
X48543Y41509D01*
D02*
G37*
G36*
X53543Y41493D02*
X53003Y41385D01*
X52544Y41079D01*
X52238Y40620D01*
X52130Y40080D01*
X52238Y39539D01*
X52544Y39081D01*
X53003Y38774D01*
X53543Y38667D01*
X54084Y38774D01*
X54542Y39081D01*
X54849Y39539D01*
X54956Y40080D01*
X54849Y40620D01*
X54542Y41079D01*
X54084Y41385D01*
X53543Y41493D01*
D02*
G37*
G36*
X58543Y41452D02*
X58003Y41345D01*
X57544Y41039D01*
X57238Y40580D01*
X57130Y40039D01*
X57238Y39499D01*
X57544Y39040D01*
X58003Y38734D01*
X58543Y38626D01*
X59084Y38734D01*
X59542Y39040D01*
X59849Y39499D01*
X59956Y40039D01*
X59849Y40580D01*
X59542Y41039D01*
X59084Y41345D01*
X58543Y41452D01*
D02*
G37*
G36*
X63543Y41413D02*
X63003Y41305D01*
X62544Y40999D01*
X62238Y40541D01*
X62130Y40000D01*
X62238Y39459D01*
X62544Y39001D01*
X63003Y38695D01*
X63543Y38587D01*
X64084Y38695D01*
X64542Y39001D01*
X64849Y39459D01*
X64956Y40000D01*
X64849Y40541D01*
X64542Y40999D01*
X64084Y41305D01*
X63543Y41413D01*
D02*
G37*
G36*
X66929Y20311D02*
X66388Y20203D01*
X65930Y19897D01*
X65624Y19438D01*
X65516Y18898D01*
X65624Y18357D01*
X65930Y17898D01*
X66388Y17592D01*
X66929Y17485D01*
X67470Y17592D01*
X67928Y17898D01*
X68235Y18357D01*
X68342Y18898D01*
X68235Y19438D01*
X67928Y19897D01*
X67470Y20203D01*
X66929Y20311D01*
D02*
G37*
G36*
X35433D02*
X34892Y20203D01*
X34434Y19897D01*
X34128Y19438D01*
X34020Y18898D01*
X34128Y18357D01*
X34434Y17898D01*
X34892Y17592D01*
X35433Y17485D01*
X35974Y17592D01*
X36432Y17898D01*
X36738Y18357D01*
X36846Y18898D01*
X36738Y19438D01*
X36432Y19897D01*
X35974Y20203D01*
X35433Y20311D01*
D02*
G37*
G36*
X386027Y223277D02*
Y220121D01*
X389182D01*
X389093Y220796D01*
X388755Y221612D01*
X388218Y222312D01*
X387518Y222850D01*
X386702Y223188D01*
X386027Y223277D01*
D02*
G37*
G36*
X385627D02*
X384951Y223188D01*
X384136Y222850D01*
X383436Y222312D01*
X382898Y221612D01*
X382560Y220796D01*
X382471Y220121D01*
X385627D01*
Y223277D01*
D02*
G37*
G36*
X255318Y221859D02*
Y218704D01*
X258473D01*
X258384Y219379D01*
X258047Y220195D01*
X257509Y220895D01*
X256809Y221433D01*
X255993Y221770D01*
X255318Y221859D01*
D02*
G37*
G36*
X254918D02*
X254243Y221770D01*
X253427Y221433D01*
X252727Y220895D01*
X252189Y220195D01*
X251852Y219379D01*
X251763Y218704D01*
X254918D01*
Y221859D01*
D02*
G37*
G36*
X235318D02*
Y218704D01*
X238474D01*
X238385Y219379D01*
X238047Y220195D01*
X237509Y220895D01*
X236809Y221433D01*
X235993Y221770D01*
X235318Y221859D01*
D02*
G37*
G36*
X234918D02*
X234243Y221770D01*
X233427Y221433D01*
X232727Y220895D01*
X232189Y220195D01*
X231852Y219379D01*
X231763Y218704D01*
X234918D01*
Y221859D01*
D02*
G37*
G36*
X195318D02*
Y218704D01*
X198474D01*
X198385Y219379D01*
X198047Y220195D01*
X197509Y220895D01*
X196809Y221433D01*
X195993Y221770D01*
X195318Y221859D01*
D02*
G37*
G36*
X194918D02*
X194243Y221770D01*
X193427Y221433D01*
X192727Y220895D01*
X192190Y220195D01*
X191852Y219379D01*
X191763Y218704D01*
X194918D01*
Y221859D01*
D02*
G37*
G36*
X175318D02*
Y218704D01*
X178473D01*
X178385Y219379D01*
X178047Y220195D01*
X177509Y220895D01*
X176809Y221433D01*
X175993Y221770D01*
X175318Y221859D01*
D02*
G37*
G36*
X174918D02*
X174243Y221770D01*
X173427Y221433D01*
X172727Y220895D01*
X172189Y220195D01*
X171852Y219379D01*
X171763Y218704D01*
X174918D01*
Y221859D01*
D02*
G37*
G36*
X155318D02*
Y218704D01*
X158474D01*
X158385Y219379D01*
X158047Y220195D01*
X157509Y220895D01*
X156809Y221433D01*
X155993Y221770D01*
X155318Y221859D01*
D02*
G37*
G36*
X154918D02*
X154243Y221770D01*
X153427Y221433D01*
X152727Y220895D01*
X152190Y220195D01*
X151852Y219379D01*
X151763Y218704D01*
X154918D01*
Y221859D01*
D02*
G37*
G36*
X135318D02*
Y218704D01*
X138473D01*
X138385Y219379D01*
X138047Y220195D01*
X137509Y220895D01*
X136809Y221433D01*
X135993Y221770D01*
X135318Y221859D01*
D02*
G37*
G36*
X134918D02*
X134243Y221770D01*
X133427Y221433D01*
X132727Y220895D01*
X132190Y220195D01*
X131852Y219379D01*
X131763Y218704D01*
X134918D01*
Y221859D01*
D02*
G37*
G36*
X115318D02*
Y218704D01*
X118473D01*
X118385Y219379D01*
X118047Y220195D01*
X117509Y220895D01*
X116809Y221433D01*
X115993Y221770D01*
X115318Y221859D01*
D02*
G37*
G36*
X114918D02*
X114243Y221770D01*
X113427Y221433D01*
X112727Y220895D01*
X112189Y220195D01*
X111852Y219379D01*
X111763Y218704D01*
X114918D01*
Y221859D01*
D02*
G37*
G36*
X215318Y221859D02*
Y218704D01*
X218474D01*
X218385Y219379D01*
X218047Y220195D01*
X217509Y220895D01*
X216809Y221432D01*
X215993Y221770D01*
X215318Y221859D01*
D02*
G37*
G36*
X214918D02*
X214243Y221770D01*
X213427Y221432D01*
X212727Y220895D01*
X212190Y220195D01*
X211852Y219379D01*
X211763Y218704D01*
X214918D01*
Y221859D01*
D02*
G37*
G36*
X379180Y223274D02*
X372474D01*
Y216568D01*
X379180D01*
Y223274D01*
D02*
G37*
G36*
X389182Y219721D02*
X386027D01*
Y216566D01*
X386702Y216655D01*
X387518Y216993D01*
X388218Y217530D01*
X388755Y218230D01*
X389093Y219046D01*
X389182Y219721D01*
D02*
G37*
G36*
X385627D02*
X382471D01*
X382560Y219046D01*
X382898Y218230D01*
X383436Y217530D01*
X384136Y216993D01*
X384951Y216655D01*
X385627Y216566D01*
Y219721D01*
D02*
G37*
G36*
X258473Y218304D02*
X255318D01*
Y215149D01*
X255993Y215237D01*
X256809Y215575D01*
X257509Y216113D01*
X258047Y216813D01*
X258384Y217629D01*
X258473Y218304D01*
D02*
G37*
G36*
X254918D02*
X251763D01*
X251852Y217629D01*
X252189Y216813D01*
X252727Y216113D01*
X253427Y215575D01*
X254243Y215237D01*
X254918Y215149D01*
Y218304D01*
D02*
G37*
G36*
X238474D02*
X235318D01*
Y215149D01*
X235993Y215237D01*
X236809Y215575D01*
X237509Y216113D01*
X238047Y216813D01*
X238385Y217629D01*
X238474Y218304D01*
D02*
G37*
G36*
X234918D02*
X231763D01*
X231852Y217629D01*
X232189Y216813D01*
X232727Y216113D01*
X233427Y215575D01*
X234243Y215237D01*
X234918Y215149D01*
Y218304D01*
D02*
G37*
G36*
X198474D02*
X195318D01*
Y215149D01*
X195993Y215237D01*
X196809Y215575D01*
X197509Y216113D01*
X198047Y216813D01*
X198385Y217629D01*
X198474Y218304D01*
D02*
G37*
G36*
X194918D02*
X191763D01*
X191852Y217629D01*
X192190Y216813D01*
X192727Y216113D01*
X193427Y215575D01*
X194243Y215237D01*
X194918Y215149D01*
Y218304D01*
D02*
G37*
G36*
X178473D02*
X175318D01*
Y215149D01*
X175993Y215237D01*
X176809Y215575D01*
X177509Y216113D01*
X178047Y216813D01*
X178385Y217629D01*
X178473Y218304D01*
D02*
G37*
G36*
X174918D02*
X171763D01*
X171852Y217629D01*
X172189Y216813D01*
X172727Y216113D01*
X173427Y215575D01*
X174243Y215237D01*
X174918Y215149D01*
Y218304D01*
D02*
G37*
G36*
X158474D02*
X155318D01*
Y215149D01*
X155993Y215237D01*
X156809Y215575D01*
X157509Y216113D01*
X158047Y216813D01*
X158385Y217629D01*
X158474Y218304D01*
D02*
G37*
G36*
X154918D02*
X151763D01*
X151852Y217629D01*
X152190Y216813D01*
X152727Y216113D01*
X153427Y215575D01*
X154243Y215237D01*
X154918Y215149D01*
Y218304D01*
D02*
G37*
G36*
X138473D02*
X135318D01*
Y215149D01*
X135993Y215237D01*
X136809Y215575D01*
X137509Y216113D01*
X138047Y216813D01*
X138385Y217629D01*
X138473Y218304D01*
D02*
G37*
G36*
X134918D02*
X131763D01*
X131852Y217629D01*
X132190Y216813D01*
X132727Y216113D01*
X133427Y215575D01*
X134243Y215237D01*
X134918Y215149D01*
Y218304D01*
D02*
G37*
G36*
X118473D02*
X115318D01*
Y215149D01*
X115993Y215237D01*
X116809Y215575D01*
X117509Y216113D01*
X118047Y216813D01*
X118385Y217629D01*
X118473Y218304D01*
D02*
G37*
G36*
X114918D02*
X111763D01*
X111852Y217629D01*
X112189Y216813D01*
X112727Y216113D01*
X113427Y215575D01*
X114243Y215237D01*
X114918Y215149D01*
Y218304D01*
D02*
G37*
G36*
X218474Y218304D02*
X215318D01*
Y215149D01*
X215993Y215237D01*
X216809Y215575D01*
X217509Y216113D01*
X218047Y216813D01*
X218385Y217629D01*
X218474Y218304D01*
D02*
G37*
G36*
X214918D02*
X211763D01*
X211852Y217629D01*
X212190Y216813D01*
X212727Y216113D01*
X213427Y215575D01*
X214243Y215237D01*
X214918Y215149D01*
Y218304D01*
D02*
G37*
G36*
X245118Y221886D02*
X244243Y221770D01*
X243427Y221433D01*
X242727Y220895D01*
X242190Y220195D01*
X241852Y219379D01*
X241736Y218504D01*
X241852Y217629D01*
X242190Y216813D01*
X242727Y216113D01*
X243427Y215575D01*
X244243Y215237D01*
X245118Y215122D01*
X245993Y215237D01*
X246809Y215575D01*
X247509Y216113D01*
X248047Y216813D01*
X248385Y217629D01*
X248500Y218504D01*
X248385Y219379D01*
X248047Y220195D01*
X247509Y220895D01*
X246809Y221433D01*
X245993Y221770D01*
X245118Y221886D01*
D02*
G37*
G36*
X225118D02*
X224243Y221770D01*
X223427Y221433D01*
X222727Y220895D01*
X222189Y220195D01*
X221852Y219379D01*
X221736Y218504D01*
X221852Y217629D01*
X222189Y216813D01*
X222727Y216113D01*
X223427Y215575D01*
X224243Y215237D01*
X225118Y215122D01*
X225993Y215237D01*
X226809Y215575D01*
X227509Y216113D01*
X228047Y216813D01*
X228385Y217629D01*
X228500Y218504D01*
X228385Y219379D01*
X228047Y220195D01*
X227509Y220895D01*
X226809Y221433D01*
X225993Y221770D01*
X225118Y221886D01*
D02*
G37*
G36*
X205118D02*
X204243Y221770D01*
X203427Y221433D01*
X202727Y220895D01*
X202189Y220195D01*
X201852Y219379D01*
X201736Y218504D01*
X201852Y217629D01*
X202189Y216813D01*
X202727Y216113D01*
X203427Y215575D01*
X204243Y215237D01*
X205118Y215122D01*
X205993Y215237D01*
X206809Y215575D01*
X207509Y216113D01*
X208047Y216813D01*
X208385Y217629D01*
X208500Y218504D01*
X208385Y219379D01*
X208047Y220195D01*
X207509Y220895D01*
X206809Y221433D01*
X205993Y221770D01*
X205118Y221886D01*
D02*
G37*
G36*
X185118D02*
X184243Y221770D01*
X183427Y221433D01*
X182727Y220895D01*
X182190Y220195D01*
X181852Y219379D01*
X181736Y218504D01*
X181852Y217629D01*
X182190Y216813D01*
X182727Y216113D01*
X183427Y215575D01*
X184243Y215237D01*
X185118Y215122D01*
X185993Y215237D01*
X186809Y215575D01*
X187509Y216113D01*
X188047Y216813D01*
X188384Y217629D01*
X188500Y218504D01*
X188384Y219379D01*
X188047Y220195D01*
X187509Y220895D01*
X186809Y221433D01*
X185993Y221770D01*
X185118Y221886D01*
D02*
G37*
G36*
X165118D02*
X164243Y221770D01*
X163427Y221433D01*
X162727Y220895D01*
X162189Y220195D01*
X161852Y219379D01*
X161736Y218504D01*
X161852Y217629D01*
X162189Y216813D01*
X162727Y216113D01*
X163427Y215575D01*
X164243Y215237D01*
X165118Y215122D01*
X165993Y215237D01*
X166809Y215575D01*
X167509Y216113D01*
X168047Y216813D01*
X168385Y217629D01*
X168500Y218504D01*
X168385Y219379D01*
X168047Y220195D01*
X167509Y220895D01*
X166809Y221433D01*
X165993Y221770D01*
X165118Y221886D01*
D02*
G37*
G36*
X145118D02*
X144243Y221770D01*
X143427Y221433D01*
X142727Y220895D01*
X142190Y220195D01*
X141852Y219379D01*
X141736Y218504D01*
X141852Y217629D01*
X142190Y216813D01*
X142727Y216113D01*
X143427Y215575D01*
X144243Y215237D01*
X145118Y215122D01*
X145993Y215237D01*
X146809Y215575D01*
X147509Y216113D01*
X148047Y216813D01*
X148385Y217629D01*
X148500Y218504D01*
X148385Y219379D01*
X148047Y220195D01*
X147509Y220895D01*
X146809Y221433D01*
X145993Y221770D01*
X145118Y221886D01*
D02*
G37*
G36*
X125118D02*
X124243Y221770D01*
X123427Y221433D01*
X122727Y220895D01*
X122189Y220195D01*
X121852Y219379D01*
X121736Y218504D01*
X121852Y217629D01*
X122189Y216813D01*
X122727Y216113D01*
X123427Y215575D01*
X124243Y215237D01*
X125118Y215122D01*
X125993Y215237D01*
X126809Y215575D01*
X127509Y216113D01*
X128047Y216813D01*
X128385Y217629D01*
X128500Y218504D01*
X128385Y219379D01*
X128047Y220195D01*
X127509Y220895D01*
X126809Y221433D01*
X125993Y221770D01*
X125118Y221886D01*
D02*
G37*
G36*
X105118D02*
X104243Y221770D01*
X103427Y221433D01*
X102727Y220895D01*
X102190Y220195D01*
X101852Y219379D01*
X101736Y218504D01*
X101852Y217629D01*
X102190Y216813D01*
X102727Y216113D01*
X103427Y215575D01*
X104243Y215237D01*
X105118Y215122D01*
X105993Y215237D01*
X106809Y215575D01*
X107509Y216113D01*
X108047Y216813D01*
X108385Y217629D01*
X108500Y218504D01*
X108385Y219379D01*
X108047Y220195D01*
X107509Y220895D01*
X106809Y221433D01*
X105993Y221770D01*
X105118Y221886D01*
D02*
G37*
G36*
X386027Y213277D02*
Y210121D01*
X389182D01*
X389093Y210796D01*
X388755Y211612D01*
X388218Y212312D01*
X387518Y212850D01*
X386702Y213188D01*
X386027Y213277D01*
D02*
G37*
G36*
X385627D02*
X384951Y213188D01*
X384136Y212850D01*
X383436Y212312D01*
X382898Y211612D01*
X382560Y210796D01*
X382471Y210121D01*
X385627D01*
Y213277D01*
D02*
G37*
G36*
Y209721D02*
X382471D01*
X382560Y209046D01*
X382898Y208230D01*
X383436Y207530D01*
X384136Y206993D01*
X384951Y206655D01*
X385627Y206566D01*
Y209721D01*
D02*
G37*
G36*
X389182D02*
X386027D01*
Y206566D01*
X386702Y206655D01*
X387518Y206993D01*
X388218Y207530D01*
X388755Y208230D01*
X389093Y209046D01*
X389182Y209721D01*
D02*
G37*
G36*
X375827Y213303D02*
X374952Y213188D01*
X374136Y212850D01*
X373436Y212313D01*
X372898Y211612D01*
X372560Y210796D01*
X372445Y209921D01*
X372560Y209046D01*
X372898Y208230D01*
X373436Y207530D01*
X374136Y206993D01*
X374952Y206655D01*
X375827Y206540D01*
X376702Y206655D01*
X377518Y206993D01*
X378218Y207530D01*
X378755Y208230D01*
X379093Y209046D01*
X379208Y209921D01*
X379093Y210796D01*
X378755Y211612D01*
X378218Y212313D01*
X377518Y212850D01*
X376702Y213188D01*
X375827Y213303D01*
D02*
G37*
G36*
X108471Y211857D02*
X101765D01*
Y205151D01*
X108471D01*
Y211857D01*
D02*
G37*
G36*
X255118Y211886D02*
X254243Y211770D01*
X253427Y211433D01*
X252727Y210895D01*
X252189Y210195D01*
X251852Y209379D01*
X251736Y208504D01*
X251852Y207629D01*
X252189Y206813D01*
X252727Y206113D01*
X253427Y205575D01*
X254243Y205238D01*
X255118Y205122D01*
X255993Y205238D01*
X256809Y205575D01*
X257509Y206113D01*
X258047Y206813D01*
X258385Y207629D01*
X258500Y208504D01*
X258385Y209379D01*
X258047Y210195D01*
X257509Y210895D01*
X256809Y211433D01*
X255993Y211770D01*
X255118Y211886D01*
D02*
G37*
G36*
X245118D02*
X244243Y211770D01*
X243427Y211433D01*
X242727Y210895D01*
X242190Y210195D01*
X241852Y209379D01*
X241736Y208504D01*
X241852Y207629D01*
X242190Y206813D01*
X242727Y206113D01*
X243427Y205575D01*
X244243Y205238D01*
X245118Y205122D01*
X245993Y205238D01*
X246809Y205575D01*
X247509Y206113D01*
X248047Y206813D01*
X248385Y207629D01*
X248500Y208504D01*
X248385Y209379D01*
X248047Y210195D01*
X247509Y210895D01*
X246809Y211433D01*
X245993Y211770D01*
X245118Y211886D01*
D02*
G37*
G36*
X235118D02*
X234243Y211770D01*
X233427Y211433D01*
X232727Y210895D01*
X232189Y210195D01*
X231852Y209379D01*
X231736Y208504D01*
X231852Y207629D01*
X232189Y206813D01*
X232727Y206113D01*
X233427Y205575D01*
X234243Y205238D01*
X235118Y205122D01*
X235993Y205238D01*
X236809Y205575D01*
X237509Y206113D01*
X238047Y206813D01*
X238385Y207629D01*
X238500Y208504D01*
X238385Y209379D01*
X238047Y210195D01*
X237509Y210895D01*
X236809Y211433D01*
X235993Y211770D01*
X235118Y211886D01*
D02*
G37*
G36*
X225118D02*
X224243Y211770D01*
X223427Y211433D01*
X222727Y210895D01*
X222189Y210195D01*
X221852Y209379D01*
X221736Y208504D01*
X221852Y207629D01*
X222189Y206813D01*
X222727Y206113D01*
X223427Y205575D01*
X224243Y205238D01*
X225118Y205122D01*
X225993Y205238D01*
X226809Y205575D01*
X227509Y206113D01*
X228047Y206813D01*
X228385Y207629D01*
X228500Y208504D01*
X228385Y209379D01*
X228047Y210195D01*
X227509Y210895D01*
X226809Y211433D01*
X225993Y211770D01*
X225118Y211886D01*
D02*
G37*
G36*
X215118D02*
X214243Y211770D01*
X213427Y211433D01*
X212727Y210895D01*
X212190Y210195D01*
X211852Y209379D01*
X211736Y208504D01*
X211852Y207629D01*
X212190Y206813D01*
X212727Y206113D01*
X213427Y205575D01*
X214243Y205238D01*
X215118Y205122D01*
X215993Y205238D01*
X216809Y205575D01*
X217509Y206113D01*
X218047Y206813D01*
X218385Y207629D01*
X218500Y208504D01*
X218385Y209379D01*
X218047Y210195D01*
X217509Y210895D01*
X216809Y211433D01*
X215993Y211770D01*
X215118Y211886D01*
D02*
G37*
G36*
X205118D02*
X204243Y211770D01*
X203427Y211433D01*
X202727Y210895D01*
X202189Y210195D01*
X201852Y209379D01*
X201736Y208504D01*
X201852Y207629D01*
X202189Y206813D01*
X202727Y206113D01*
X203427Y205575D01*
X204243Y205238D01*
X205118Y205122D01*
X205993Y205238D01*
X206809Y205575D01*
X207509Y206113D01*
X208047Y206813D01*
X208385Y207629D01*
X208500Y208504D01*
X208385Y209379D01*
X208047Y210195D01*
X207509Y210895D01*
X206809Y211433D01*
X205993Y211770D01*
X205118Y211886D01*
D02*
G37*
G36*
X195118D02*
X194243Y211770D01*
X193427Y211433D01*
X192727Y210895D01*
X192190Y210195D01*
X191852Y209379D01*
X191736Y208504D01*
X191852Y207629D01*
X192190Y206813D01*
X192727Y206113D01*
X193427Y205575D01*
X194243Y205238D01*
X195118Y205122D01*
X195993Y205238D01*
X196809Y205575D01*
X197509Y206113D01*
X198047Y206813D01*
X198385Y207629D01*
X198500Y208504D01*
X198385Y209379D01*
X198047Y210195D01*
X197509Y210895D01*
X196809Y211433D01*
X195993Y211770D01*
X195118Y211886D01*
D02*
G37*
G36*
X185118D02*
X184243Y211770D01*
X183427Y211433D01*
X182727Y210895D01*
X182190Y210195D01*
X181852Y209379D01*
X181736Y208504D01*
X181852Y207629D01*
X182190Y206813D01*
X182727Y206113D01*
X183427Y205575D01*
X184243Y205238D01*
X185118Y205122D01*
X185993Y205238D01*
X186809Y205575D01*
X187509Y206113D01*
X188047Y206813D01*
X188385Y207629D01*
X188500Y208504D01*
X188385Y209379D01*
X188047Y210195D01*
X187509Y210895D01*
X186809Y211433D01*
X185993Y211770D01*
X185118Y211886D01*
D02*
G37*
G36*
X175118D02*
X174243Y211770D01*
X173427Y211433D01*
X172727Y210895D01*
X172189Y210195D01*
X171852Y209379D01*
X171736Y208504D01*
X171852Y207629D01*
X172189Y206813D01*
X172727Y206113D01*
X173427Y205575D01*
X174243Y205238D01*
X175118Y205122D01*
X175993Y205238D01*
X176809Y205575D01*
X177509Y206113D01*
X178047Y206813D01*
X178384Y207629D01*
X178500Y208504D01*
X178384Y209379D01*
X178047Y210195D01*
X177509Y210895D01*
X176809Y211433D01*
X175993Y211770D01*
X175118Y211886D01*
D02*
G37*
G36*
X165118D02*
X164243Y211770D01*
X163427Y211433D01*
X162727Y210895D01*
X162189Y210195D01*
X161852Y209379D01*
X161736Y208504D01*
X161852Y207629D01*
X162189Y206813D01*
X162727Y206113D01*
X163427Y205575D01*
X164243Y205238D01*
X165118Y205122D01*
X165993Y205238D01*
X166809Y205575D01*
X167509Y206113D01*
X168047Y206813D01*
X168385Y207629D01*
X168500Y208504D01*
X168385Y209379D01*
X168047Y210195D01*
X167509Y210895D01*
X166809Y211433D01*
X165993Y211770D01*
X165118Y211886D01*
D02*
G37*
G36*
X155118D02*
X154243Y211770D01*
X153427Y211433D01*
X152727Y210895D01*
X152190Y210195D01*
X151852Y209379D01*
X151736Y208504D01*
X151852Y207629D01*
X152190Y206813D01*
X152727Y206113D01*
X153427Y205575D01*
X154243Y205238D01*
X155118Y205122D01*
X155993Y205238D01*
X156809Y205575D01*
X157509Y206113D01*
X158047Y206813D01*
X158385Y207629D01*
X158500Y208504D01*
X158385Y209379D01*
X158047Y210195D01*
X157509Y210895D01*
X156809Y211433D01*
X155993Y211770D01*
X155118Y211886D01*
D02*
G37*
G36*
X145118D02*
X144243Y211770D01*
X143427Y211433D01*
X142727Y210895D01*
X142190Y210195D01*
X141852Y209379D01*
X141736Y208504D01*
X141852Y207629D01*
X142190Y206813D01*
X142727Y206113D01*
X143427Y205575D01*
X144243Y205238D01*
X145118Y205122D01*
X145993Y205238D01*
X146809Y205575D01*
X147509Y206113D01*
X148047Y206813D01*
X148384Y207629D01*
X148500Y208504D01*
X148384Y209379D01*
X148047Y210195D01*
X147509Y210895D01*
X146809Y211433D01*
X145993Y211770D01*
X145118Y211886D01*
D02*
G37*
G36*
X135118D02*
X134243Y211770D01*
X133427Y211433D01*
X132727Y210895D01*
X132190Y210195D01*
X131852Y209379D01*
X131736Y208504D01*
X131852Y207629D01*
X132190Y206813D01*
X132727Y206113D01*
X133427Y205575D01*
X134243Y205238D01*
X135118Y205122D01*
X135993Y205238D01*
X136809Y205575D01*
X137509Y206113D01*
X138047Y206813D01*
X138385Y207629D01*
X138500Y208504D01*
X138385Y209379D01*
X138047Y210195D01*
X137509Y210895D01*
X136809Y211433D01*
X135993Y211770D01*
X135118Y211886D01*
D02*
G37*
G36*
X125118D02*
X124243Y211770D01*
X123427Y211433D01*
X122727Y210895D01*
X122189Y210195D01*
X121852Y209379D01*
X121736Y208504D01*
X121852Y207629D01*
X122189Y206813D01*
X122727Y206113D01*
X123427Y205575D01*
X124243Y205238D01*
X125118Y205122D01*
X125993Y205238D01*
X126809Y205575D01*
X127509Y206113D01*
X128047Y206813D01*
X128385Y207629D01*
X128500Y208504D01*
X128385Y209379D01*
X128047Y210195D01*
X127509Y210895D01*
X126809Y211433D01*
X125993Y211770D01*
X125118Y211886D01*
D02*
G37*
G36*
X115118D02*
X114243Y211770D01*
X113427Y211433D01*
X112727Y210895D01*
X112189Y210195D01*
X111852Y209379D01*
X111736Y208504D01*
X111852Y207629D01*
X112189Y206813D01*
X112727Y206113D01*
X113427Y205575D01*
X114243Y205238D01*
X115118Y205122D01*
X115993Y205238D01*
X116809Y205575D01*
X117509Y206113D01*
X118047Y206813D01*
X118385Y207629D01*
X118500Y208504D01*
X118385Y209379D01*
X118047Y210195D01*
X117509Y210895D01*
X116809Y211433D01*
X115993Y211770D01*
X115118Y211886D01*
D02*
G37*
G36*
X386027Y203277D02*
Y200121D01*
X389182D01*
X389093Y200797D01*
X388755Y201612D01*
X388218Y202312D01*
X387518Y202850D01*
X386702Y203188D01*
X386027Y203277D01*
D02*
G37*
G36*
X385627D02*
X384951Y203188D01*
X384136Y202850D01*
X383436Y202312D01*
X382898Y201612D01*
X382560Y200797D01*
X382471Y200121D01*
X385627D01*
Y203277D01*
D02*
G37*
G36*
X389182Y199721D02*
X386027D01*
Y196566D01*
X386702Y196655D01*
X387518Y196993D01*
X388218Y197530D01*
X388755Y198230D01*
X389093Y199046D01*
X389182Y199721D01*
D02*
G37*
G36*
X385627D02*
X382471D01*
X382560Y199046D01*
X382898Y198230D01*
X383436Y197530D01*
X384136Y196993D01*
X384951Y196655D01*
X385627Y196566D01*
Y199721D01*
D02*
G37*
G36*
X375827Y203303D02*
X374952Y203188D01*
X374136Y202850D01*
X373436Y202312D01*
X372898Y201612D01*
X372560Y200797D01*
X372445Y199921D01*
X372560Y199046D01*
X372898Y198230D01*
X373436Y197530D01*
X374136Y196993D01*
X374952Y196655D01*
X375827Y196540D01*
X376702Y196655D01*
X377518Y196993D01*
X378218Y197530D01*
X378755Y198230D01*
X379093Y199046D01*
X379208Y199921D01*
X379093Y200797D01*
X378755Y201612D01*
X378218Y202312D01*
X377518Y202850D01*
X376702Y203188D01*
X375827Y203303D01*
D02*
G37*
G36*
X307874Y221010D02*
X305942Y220859D01*
X304058Y220406D01*
X302268Y219665D01*
X300615Y218652D01*
X299142Y217394D01*
X297883Y215920D01*
X296871Y214268D01*
X296129Y212477D01*
X295677Y210593D01*
X295525Y208661D01*
X295677Y206730D01*
X296129Y204845D01*
X296871Y203055D01*
X297883Y201403D01*
X299142Y199929D01*
X300615Y198671D01*
X302268Y197658D01*
X304058Y196917D01*
X305942Y196464D01*
X307874Y196312D01*
X309806Y196464D01*
X311690Y196917D01*
X313480Y197658D01*
X315133Y198671D01*
X316606Y199929D01*
X317865Y201403D01*
X318877Y203055D01*
X319619Y204845D01*
X320071Y206730D01*
X320223Y208661D01*
X320071Y210593D01*
X319619Y212477D01*
X318877Y214268D01*
X317865Y215920D01*
X316606Y217394D01*
X315133Y218652D01*
X313480Y219665D01*
X311690Y220406D01*
X309806Y220859D01*
X307874Y221010D01*
D02*
G37*
G36*
X386027Y193277D02*
Y190121D01*
X389182D01*
X389093Y190796D01*
X388755Y191612D01*
X388218Y192312D01*
X387518Y192850D01*
X386702Y193188D01*
X386027Y193277D01*
D02*
G37*
G36*
X385627D02*
X384951Y193188D01*
X384136Y192850D01*
X383436Y192312D01*
X382898Y191612D01*
X382560Y190796D01*
X382471Y190121D01*
X385627D01*
Y193277D01*
D02*
G37*
G36*
X389182Y189721D02*
X386027D01*
Y186566D01*
X386702Y186655D01*
X387518Y186993D01*
X388218Y187530D01*
X388755Y188230D01*
X389093Y189046D01*
X389182Y189721D01*
D02*
G37*
G36*
X385627D02*
X382471D01*
X382560Y189046D01*
X382898Y188230D01*
X383436Y187530D01*
X384136Y186993D01*
X384951Y186655D01*
X385627Y186566D01*
Y189721D01*
D02*
G37*
G36*
X375827Y193303D02*
X374952Y193188D01*
X374136Y192850D01*
X373436Y192312D01*
X372898Y191612D01*
X372560Y190796D01*
X372445Y189921D01*
X372560Y189046D01*
X372898Y188230D01*
X373436Y187530D01*
X374136Y186993D01*
X374952Y186655D01*
X375827Y186540D01*
X376702Y186655D01*
X377518Y186993D01*
X378218Y187530D01*
X378755Y188230D01*
X379093Y189046D01*
X379208Y189921D01*
X379093Y190796D01*
X378755Y191612D01*
X378218Y192312D01*
X377518Y192850D01*
X376702Y193188D01*
X375827Y193303D01*
D02*
G37*
G36*
X386027Y183277D02*
Y180121D01*
X389182D01*
X389093Y180797D01*
X388755Y181612D01*
X388218Y182313D01*
X387518Y182850D01*
X386702Y183188D01*
X386027Y183277D01*
D02*
G37*
G36*
X385627D02*
X384951Y183188D01*
X384136Y182850D01*
X383436Y182313D01*
X382898Y181612D01*
X382560Y180797D01*
X382471Y180121D01*
X385627D01*
Y183277D01*
D02*
G37*
G36*
Y179721D02*
X382471D01*
X382560Y179046D01*
X382898Y178230D01*
X383436Y177530D01*
X384136Y176993D01*
X384951Y176655D01*
X385627Y176566D01*
Y179721D01*
D02*
G37*
G36*
X389182D02*
X386027D01*
Y176566D01*
X386702Y176655D01*
X387518Y176993D01*
X388218Y177530D01*
X388755Y178230D01*
X389093Y179046D01*
X389182Y179721D01*
D02*
G37*
G36*
X375827Y183303D02*
X374952Y183188D01*
X374136Y182850D01*
X373436Y182313D01*
X372898Y181612D01*
X372560Y180797D01*
X372445Y179921D01*
X372560Y179046D01*
X372898Y178230D01*
X373436Y177530D01*
X374136Y176993D01*
X374952Y176655D01*
X375827Y176540D01*
X376702Y176655D01*
X377518Y176993D01*
X378218Y177530D01*
X378755Y178230D01*
X379093Y179046D01*
X379208Y179921D01*
X379093Y180797D01*
X378755Y181612D01*
X378218Y182313D01*
X377518Y182850D01*
X376702Y183188D01*
X375827Y183303D01*
D02*
G37*
G36*
X386027Y173277D02*
Y170121D01*
X389182D01*
X389093Y170797D01*
X388755Y171612D01*
X388218Y172312D01*
X387518Y172850D01*
X386702Y173188D01*
X386027Y173277D01*
D02*
G37*
G36*
X385627Y173277D02*
X384951Y173188D01*
X384136Y172850D01*
X383436Y172312D01*
X382898Y171612D01*
X382560Y170797D01*
X382471Y170121D01*
X385627D01*
Y173277D01*
D02*
G37*
G36*
X352362Y174641D02*
X351821Y174534D01*
X351363Y174227D01*
X351057Y173769D01*
X350953Y173248D01*
X347219Y169514D01*
X343896D01*
X343454Y169809D01*
X342913Y169917D01*
X342373Y169809D01*
X341914Y169503D01*
X341608Y169045D01*
X341500Y168504D01*
X341608Y167963D01*
X341914Y167505D01*
X342373Y167199D01*
X342913Y167091D01*
X343454Y167199D01*
X343896Y167494D01*
X347638D01*
X348024Y167571D01*
X348352Y167790D01*
X352381Y171819D01*
X352903Y171923D01*
X353361Y172229D01*
X353668Y172688D01*
X353775Y173228D01*
X353668Y173769D01*
X353361Y174227D01*
X352903Y174534D01*
X352362Y174641D01*
D02*
G37*
G36*
X213779Y177698D02*
X213124Y177568D01*
X212567Y177196D01*
X212196Y176640D01*
X212066Y175984D01*
X212196Y175328D01*
X212567Y174772D01*
X212770Y174637D01*
Y169851D01*
X212567Y169716D01*
X212196Y169160D01*
X212066Y168504D01*
X212196Y167848D01*
X212567Y167292D01*
X213124Y166920D01*
X213779Y166790D01*
X214436Y166920D01*
X214991Y167292D01*
X215363Y167848D01*
X215494Y168504D01*
X215363Y169160D01*
X214991Y169716D01*
X214790Y169851D01*
Y174637D01*
X214991Y174772D01*
X215363Y175328D01*
X215494Y175984D01*
X215363Y176640D01*
X214991Y177196D01*
X214436Y177568D01*
X213779Y177698D01*
D02*
G37*
G36*
X180709D02*
X180053Y177568D01*
X179497Y177196D01*
X179125Y176640D01*
X178995Y175984D01*
X179125Y175328D01*
X179497Y174772D01*
X179699Y174637D01*
Y169851D01*
X179497Y169716D01*
X179125Y169160D01*
X178995Y168504D01*
X179125Y167848D01*
X179497Y167292D01*
X180053Y166920D01*
X180709Y166790D01*
X181365Y166920D01*
X181921Y167292D01*
X182292Y167848D01*
X182423Y168504D01*
X182292Y169160D01*
X181921Y169716D01*
X181719Y169851D01*
Y174637D01*
X181921Y174772D01*
X182292Y175328D01*
X182423Y175984D01*
X182292Y176640D01*
X181921Y177196D01*
X181365Y177568D01*
X180709Y177698D01*
D02*
G37*
G36*
X147638D02*
X146982Y177568D01*
X146426Y177196D01*
X146054Y176640D01*
X145924Y175984D01*
X146054Y175328D01*
X146426Y174772D01*
X146628Y174637D01*
Y169851D01*
X146426Y169716D01*
X146054Y169160D01*
X145924Y168504D01*
X146054Y167848D01*
X146426Y167292D01*
X146982Y166920D01*
X147638Y166790D01*
X148294Y166920D01*
X148850Y167292D01*
X149221Y167848D01*
X149352Y168504D01*
X149221Y169160D01*
X148850Y169716D01*
X148648Y169851D01*
Y174637D01*
X148850Y174772D01*
X149221Y175328D01*
X149352Y175984D01*
X149221Y176640D01*
X148850Y177196D01*
X148294Y177568D01*
X147638Y177698D01*
D02*
G37*
G36*
X385627Y169721D02*
X382471D01*
X382560Y169046D01*
X382898Y168230D01*
X383436Y167530D01*
X384136Y166993D01*
X384951Y166655D01*
X385627Y166566D01*
Y169721D01*
D02*
G37*
G36*
X389182D02*
X386027D01*
Y166566D01*
X386702Y166655D01*
X387518Y166993D01*
X388218Y167530D01*
X388755Y168230D01*
X389093Y169046D01*
X389182Y169721D01*
D02*
G37*
G36*
X375827Y173303D02*
X374952Y173188D01*
X374136Y172850D01*
X373436Y172312D01*
X372898Y171612D01*
X372560Y170797D01*
X372445Y169921D01*
X372560Y169046D01*
X372898Y168230D01*
X373436Y167530D01*
X374136Y166993D01*
X374952Y166655D01*
X375827Y166540D01*
X376702Y166655D01*
X377518Y166993D01*
X378218Y167530D01*
X378755Y168230D01*
X379093Y169046D01*
X379208Y169921D01*
X379093Y170797D01*
X378755Y171612D01*
X378218Y172312D01*
X377518Y172850D01*
X376702Y173188D01*
X375827Y173303D01*
D02*
G37*
G36*
X318504Y172580D02*
X317848Y172450D01*
X317292Y172078D01*
X316920Y171522D01*
X316790Y170866D01*
X316920Y170210D01*
X317292Y169654D01*
X317494Y169519D01*
Y163945D01*
X317292Y163810D01*
X316920Y163254D01*
X316790Y162598D01*
X316920Y161943D01*
X317292Y161386D01*
X317848Y161015D01*
X318504Y160884D01*
X319160Y161015D01*
X319716Y161386D01*
X320088Y161943D01*
X320218Y162598D01*
X320088Y163254D01*
X319716Y163810D01*
X319514Y163945D01*
Y169519D01*
X319716Y169654D01*
X320088Y170210D01*
X320218Y170866D01*
X320088Y171522D01*
X319716Y172078D01*
X319160Y172450D01*
X318504Y172580D01*
D02*
G37*
G36*
X120079Y170218D02*
X119423Y170088D01*
X118867Y169716D01*
X118495Y169160D01*
X118365Y168504D01*
X118495Y167848D01*
X118867Y167292D01*
X119069Y167157D01*
Y163945D01*
X118867Y163810D01*
X118495Y163254D01*
X118365Y162598D01*
X118495Y161943D01*
X118867Y161386D01*
X119423Y161015D01*
X120079Y160884D01*
X120735Y161015D01*
X121291Y161386D01*
X121662Y161943D01*
X121793Y162598D01*
X121662Y163254D01*
X121291Y163810D01*
X121089Y163945D01*
Y167157D01*
X121291Y167292D01*
X121662Y167848D01*
X121793Y168504D01*
X121662Y169160D01*
X121291Y169716D01*
X120735Y170088D01*
X120079Y170218D01*
D02*
G37*
G36*
X252362D02*
X251706Y170088D01*
X251150Y169716D01*
X250779Y169160D01*
X250648Y168504D01*
X250779Y167848D01*
X251150Y167292D01*
X251352Y167157D01*
Y163945D01*
X251150Y163810D01*
X250779Y163254D01*
X250648Y162598D01*
X250779Y161943D01*
X251150Y161386D01*
X251706Y161015D01*
X252362Y160884D01*
X253018Y161015D01*
X253574Y161386D01*
X253946Y161943D01*
X254076Y162598D01*
X253946Y163254D01*
X253574Y163810D01*
X253372Y163945D01*
Y167157D01*
X253574Y167292D01*
X253946Y167848D01*
X254076Y168504D01*
X253946Y169160D01*
X253574Y169716D01*
X253018Y170088D01*
X252362Y170218D01*
D02*
G37*
G36*
X219291D02*
X218635Y170088D01*
X218079Y169716D01*
X217708Y169160D01*
X217577Y168504D01*
X217708Y167848D01*
X218079Y167292D01*
X218281Y167157D01*
Y163945D01*
X218079Y163810D01*
X217708Y163254D01*
X217577Y162598D01*
X217708Y161943D01*
X218079Y161386D01*
X218635Y161015D01*
X219291Y160884D01*
X219947Y161015D01*
X220503Y161386D01*
X220875Y161943D01*
X221005Y162598D01*
X220875Y163254D01*
X220503Y163810D01*
X220301Y163945D01*
Y167157D01*
X220503Y167292D01*
X220875Y167848D01*
X221005Y168504D01*
X220875Y169160D01*
X220503Y169716D01*
X219947Y170088D01*
X219291Y170218D01*
D02*
G37*
G36*
X186221D02*
X185565Y170088D01*
X185009Y169716D01*
X184637Y169160D01*
X184506Y168504D01*
X184637Y167848D01*
X185009Y167292D01*
X185211Y167157D01*
Y163945D01*
X185009Y163810D01*
X184637Y163254D01*
X184506Y162598D01*
X184637Y161943D01*
X185009Y161386D01*
X185564Y161015D01*
X186221Y160884D01*
X186876Y161015D01*
X187433Y161386D01*
X187804Y161943D01*
X187935Y162598D01*
X187804Y163254D01*
X187433Y163810D01*
X187230Y163945D01*
Y167157D01*
X187433Y167292D01*
X187804Y167848D01*
X187935Y168504D01*
X187804Y169160D01*
X187433Y169716D01*
X186876Y170088D01*
X186221Y170218D01*
D02*
G37*
G36*
X153150D02*
X152494Y170088D01*
X151938Y169716D01*
X151566Y169160D01*
X151436Y168504D01*
X151566Y167848D01*
X151938Y167292D01*
X152140Y167157D01*
Y163945D01*
X151938Y163810D01*
X151566Y163254D01*
X151436Y162598D01*
X151566Y161943D01*
X151938Y161386D01*
X152494Y161015D01*
X153150Y160884D01*
X153805Y161015D01*
X154362Y161386D01*
X154733Y161943D01*
X154864Y162598D01*
X154733Y163254D01*
X154362Y163810D01*
X154160Y163945D01*
Y167157D01*
X154362Y167292D01*
X154733Y167848D01*
X154864Y168504D01*
X154733Y169160D01*
X154362Y169716D01*
X153805Y170088D01*
X153150Y170218D01*
D02*
G37*
G36*
X285433Y172580D02*
X284777Y172450D01*
X284221Y172078D01*
X283850Y171522D01*
X283719Y170866D01*
X283850Y170210D01*
X284221Y169654D01*
X284423Y169519D01*
Y163945D01*
X284221Y163810D01*
X283850Y163254D01*
X283719Y162598D01*
X283850Y161943D01*
X284221Y161386D01*
X284777Y161015D01*
X285433Y160884D01*
X286089Y161015D01*
X286645Y161386D01*
X287017Y161943D01*
X287147Y162598D01*
X287017Y163254D01*
X286645Y163810D01*
X286443Y163945D01*
Y169519D01*
X286645Y169654D01*
X287017Y170210D01*
X287147Y170866D01*
X287017Y171522D01*
X286645Y172078D01*
X286089Y172450D01*
X285433Y172580D01*
D02*
G37*
G36*
X386027Y163277D02*
Y160121D01*
X389182D01*
X389093Y160796D01*
X388755Y161612D01*
X388218Y162312D01*
X387518Y162850D01*
X386702Y163188D01*
X386027Y163277D01*
D02*
G37*
G36*
X385627D02*
X384951Y163188D01*
X384136Y162850D01*
X383436Y162312D01*
X382898Y161612D01*
X382560Y160796D01*
X382471Y160121D01*
X385627D01*
Y163277D01*
D02*
G37*
G36*
X361024Y160375D02*
X360368Y160245D01*
X359812Y159873D01*
X359440Y159317D01*
X359310Y158661D01*
X359440Y158005D01*
X359812Y157449D01*
X360368Y157078D01*
X361024Y156947D01*
X361680Y157078D01*
X362236Y157449D01*
X362607Y158005D01*
X362738Y158661D01*
X362607Y159317D01*
X362236Y159873D01*
X361680Y160245D01*
X361024Y160375D01*
D02*
G37*
G36*
X336614Y160375D02*
X335958Y160245D01*
X335402Y159873D01*
X335031Y159317D01*
X334900Y158661D01*
X335031Y158005D01*
X335402Y157449D01*
X335958Y157078D01*
X336614Y156947D01*
X337270Y157078D01*
X337826Y157449D01*
X338198Y158005D01*
X338328Y158661D01*
X338198Y159317D01*
X337826Y159873D01*
X337270Y160245D01*
X336614Y160375D01*
D02*
G37*
G36*
X261811D02*
X261155Y160245D01*
X260599Y159873D01*
X260227Y159317D01*
X260097Y158661D01*
X260227Y158005D01*
X260599Y157449D01*
X261155Y157078D01*
X261811Y156947D01*
X262467Y157078D01*
X263023Y157449D01*
X263395Y158005D01*
X263525Y158661D01*
X263395Y159317D01*
X263023Y159873D01*
X262467Y160245D01*
X261811Y160375D01*
D02*
G37*
G36*
X237402D02*
X236746Y160245D01*
X236190Y159873D01*
X235818Y159317D01*
X235687Y158661D01*
X235818Y158005D01*
X236190Y157449D01*
X236746Y157078D01*
X237402Y156947D01*
X238057Y157078D01*
X238614Y157449D01*
X238985Y158005D01*
X239116Y158661D01*
X238985Y159317D01*
X238614Y159873D01*
X238057Y160245D01*
X237402Y160375D01*
D02*
G37*
G36*
X228740D02*
X228084Y160245D01*
X227528Y159873D01*
X227157Y159317D01*
X227026Y158661D01*
X227157Y158005D01*
X227528Y157449D01*
X228084Y157078D01*
X228740Y156947D01*
X229396Y157078D01*
X229952Y157449D01*
X230324Y158005D01*
X230454Y158661D01*
X230324Y159317D01*
X229952Y159873D01*
X229396Y160245D01*
X228740Y160375D01*
D02*
G37*
G36*
X204724D02*
X204068Y160245D01*
X203512Y159873D01*
X203141Y159317D01*
X203010Y158661D01*
X203141Y158005D01*
X203512Y157449D01*
X204068Y157078D01*
X204724Y156947D01*
X205380Y157078D01*
X205936Y157449D01*
X206308Y158005D01*
X206438Y158661D01*
X206308Y159317D01*
X205936Y159873D01*
X205380Y160245D01*
X204724Y160375D01*
D02*
G37*
G36*
X195669D02*
X195013Y160245D01*
X194457Y159873D01*
X194086Y159317D01*
X193955Y158661D01*
X194086Y158005D01*
X194457Y157449D01*
X195013Y157078D01*
X195669Y156947D01*
X196325Y157078D01*
X196881Y157449D01*
X197253Y158005D01*
X197383Y158661D01*
X197253Y159317D01*
X196881Y159873D01*
X196325Y160245D01*
X195669Y160375D01*
D02*
G37*
G36*
X162598D02*
X161943Y160245D01*
X161386Y159873D01*
X161015Y159317D01*
X160884Y158661D01*
X161015Y158005D01*
X161386Y157449D01*
X161943Y157078D01*
X162598Y156947D01*
X163254Y157078D01*
X163810Y157449D01*
X164182Y158005D01*
X164312Y158661D01*
X164182Y159317D01*
X163810Y159873D01*
X163254Y160245D01*
X162598Y160375D01*
D02*
G37*
G36*
X129527D02*
X128872Y160245D01*
X128316Y159873D01*
X127944Y159317D01*
X127813Y158661D01*
X127944Y158005D01*
X128316Y157449D01*
X128872Y157078D01*
X129527Y156947D01*
X130183Y157078D01*
X130740Y157449D01*
X131111Y158005D01*
X131242Y158661D01*
X131111Y159317D01*
X130740Y159873D01*
X130183Y160245D01*
X129527Y160375D01*
D02*
G37*
G36*
X327953Y160375D02*
X327297Y160245D01*
X326741Y159873D01*
X326369Y159317D01*
X326239Y158661D01*
X326369Y158005D01*
X326741Y157449D01*
X327297Y157078D01*
X327953Y156947D01*
X328609Y157078D01*
X329165Y157449D01*
X329536Y158005D01*
X329667Y158661D01*
X329536Y159317D01*
X329165Y159873D01*
X328609Y160245D01*
X327953Y160375D01*
D02*
G37*
G36*
X303543D02*
X302887Y160245D01*
X302331Y159873D01*
X301960Y159317D01*
X301829Y158661D01*
X301960Y158005D01*
X302331Y157449D01*
X302887Y157078D01*
X303543Y156947D01*
X304199Y157078D01*
X304755Y157449D01*
X305127Y158005D01*
X305257Y158661D01*
X305127Y159317D01*
X304755Y159873D01*
X304199Y160245D01*
X303543Y160375D01*
D02*
G37*
G36*
X294882D02*
X294226Y160245D01*
X293670Y159873D01*
X293298Y159317D01*
X293168Y158661D01*
X293298Y158005D01*
X293670Y157449D01*
X294226Y157078D01*
X294882Y156947D01*
X295538Y157078D01*
X296094Y157449D01*
X296465Y158005D01*
X296596Y158661D01*
X296465Y159317D01*
X296094Y159873D01*
X295538Y160245D01*
X294882Y160375D01*
D02*
G37*
G36*
X270472D02*
X269816Y160245D01*
X269260Y159873D01*
X268889Y159317D01*
X268758Y158661D01*
X268889Y158005D01*
X269260Y157449D01*
X269816Y157078D01*
X270472Y156947D01*
X271128Y157078D01*
X271684Y157449D01*
X272056Y158005D01*
X272186Y158661D01*
X272056Y159317D01*
X271684Y159873D01*
X271128Y160245D01*
X270472Y160375D01*
D02*
G37*
G36*
X389182Y159721D02*
X386027D01*
Y156566D01*
X386702Y156655D01*
X387518Y156993D01*
X388218Y157530D01*
X388755Y158230D01*
X389093Y159046D01*
X389182Y159721D01*
D02*
G37*
G36*
X385627D02*
X382471D01*
X382560Y159046D01*
X382898Y158230D01*
X383436Y157530D01*
X384136Y156993D01*
X384951Y156655D01*
X385627Y156566D01*
Y159721D01*
D02*
G37*
G36*
X138189Y159982D02*
X137533Y159851D01*
X136977Y159480D01*
X136605Y158924D01*
X136475Y158268D01*
X136605Y157612D01*
X136977Y157056D01*
X137533Y156684D01*
X138189Y156554D01*
X138845Y156684D01*
X139401Y157056D01*
X139772Y157612D01*
X139903Y158268D01*
X139772Y158924D01*
X139401Y159480D01*
X138845Y159851D01*
X138189Y159982D01*
D02*
G37*
G36*
X171653Y159982D02*
X170998Y159851D01*
X170441Y159480D01*
X170070Y158924D01*
X169939Y158268D01*
X170070Y157612D01*
X170441Y157056D01*
X170998Y156684D01*
X171653Y156554D01*
X172310Y156684D01*
X172865Y157056D01*
X173237Y157612D01*
X173368Y158268D01*
X173237Y158924D01*
X172865Y159480D01*
X172310Y159851D01*
X171653Y159982D01*
D02*
G37*
G36*
X375827Y163303D02*
X374952Y163188D01*
X374136Y162850D01*
X373436Y162312D01*
X372898Y161612D01*
X372560Y160796D01*
X372445Y159921D01*
X372560Y159046D01*
X372898Y158230D01*
X373436Y157530D01*
X374136Y156993D01*
X374952Y156655D01*
X375827Y156540D01*
X376702Y156655D01*
X377518Y156993D01*
X378218Y157530D01*
X378755Y158230D01*
X379093Y159046D01*
X379208Y159921D01*
X379093Y160796D01*
X378755Y161612D01*
X378218Y162312D01*
X377518Y162850D01*
X376702Y163188D01*
X375827Y163303D01*
D02*
G37*
G36*
X111024Y156832D02*
X110368Y156702D01*
X109812Y156330D01*
X109440Y155774D01*
X109310Y155118D01*
X109440Y154462D01*
X109812Y153906D01*
X110368Y153534D01*
X111024Y153404D01*
X111679Y153534D01*
X112236Y153906D01*
X112607Y154462D01*
X112738Y155118D01*
X112607Y155774D01*
X112236Y156330D01*
X111679Y156702D01*
X111024Y156832D01*
D02*
G37*
G36*
X386027Y153277D02*
Y150121D01*
X389182D01*
X389093Y150796D01*
X388755Y151612D01*
X388218Y152313D01*
X387518Y152850D01*
X386702Y153188D01*
X386027Y153277D01*
D02*
G37*
G36*
X385627D02*
X384951Y153188D01*
X384136Y152850D01*
X383436Y152313D01*
X382898Y151612D01*
X382560Y150796D01*
X382471Y150121D01*
X385627D01*
Y153277D01*
D02*
G37*
G36*
X389182Y149721D02*
X386027D01*
Y146566D01*
X386702Y146655D01*
X387518Y146993D01*
X388218Y147530D01*
X388755Y148230D01*
X389093Y149046D01*
X389182Y149721D01*
D02*
G37*
G36*
X385627D02*
X382471D01*
X382560Y149046D01*
X382898Y148230D01*
X383436Y147530D01*
X384136Y146993D01*
X384951Y146655D01*
X385627Y146566D01*
Y149721D01*
D02*
G37*
G36*
X375827Y153303D02*
X374952Y153188D01*
X374136Y152850D01*
X373436Y152313D01*
X372898Y151612D01*
X372560Y150796D01*
X372445Y149921D01*
X372560Y149046D01*
X372898Y148230D01*
X373436Y147530D01*
X374136Y146993D01*
X374952Y146655D01*
X375827Y146540D01*
X376702Y146655D01*
X377518Y146993D01*
X378218Y147530D01*
X378755Y148230D01*
X379093Y149046D01*
X379208Y149921D01*
X379093Y150796D01*
X378755Y151612D01*
X378218Y152313D01*
X377518Y152850D01*
X376702Y153188D01*
X375827Y153303D01*
D02*
G37*
G36*
X386027Y143277D02*
Y140121D01*
X389182D01*
X389093Y140796D01*
X388755Y141612D01*
X388218Y142313D01*
X387518Y142850D01*
X386702Y143188D01*
X386027Y143277D01*
D02*
G37*
G36*
X385627D02*
X384951Y143188D01*
X384136Y142850D01*
X383436Y142313D01*
X382898Y141612D01*
X382560Y140796D01*
X382471Y140121D01*
X385627D01*
Y143277D01*
D02*
G37*
G36*
X228740Y142659D02*
X228084Y142528D01*
X227528Y142157D01*
X227157Y141601D01*
X227026Y140945D01*
X227157Y140289D01*
X227528Y139733D01*
X228084Y139361D01*
X228740Y139231D01*
X229396Y139361D01*
X229952Y139733D01*
X230324Y140289D01*
X230454Y140945D01*
X230324Y141601D01*
X229952Y142157D01*
X229396Y142528D01*
X228740Y142659D01*
D02*
G37*
G36*
X195669D02*
X195013Y142528D01*
X194457Y142157D01*
X194086Y141601D01*
X193955Y140945D01*
X194086Y140289D01*
X194457Y139733D01*
X195013Y139361D01*
X195669Y139231D01*
X196325Y139361D01*
X196881Y139733D01*
X197253Y140289D01*
X197383Y140945D01*
X197253Y141601D01*
X196881Y142157D01*
X196325Y142528D01*
X195669Y142659D01*
D02*
G37*
G36*
X171653D02*
X170998Y142528D01*
X170441Y142157D01*
X170070Y141601D01*
X169939Y140945D01*
X170070Y140289D01*
X170441Y139733D01*
X170998Y139361D01*
X171653Y139231D01*
X172310Y139361D01*
X172865Y139733D01*
X173237Y140289D01*
X173368Y140945D01*
X173237Y141601D01*
X172865Y142157D01*
X172310Y142528D01*
X171653Y142659D01*
D02*
G37*
G36*
X162598D02*
X161943Y142528D01*
X161386Y142157D01*
X161015Y141601D01*
X160884Y140945D01*
X161015Y140289D01*
X161386Y139733D01*
X161943Y139361D01*
X162598Y139231D01*
X163254Y139361D01*
X163810Y139733D01*
X164182Y140289D01*
X164313Y140945D01*
X164182Y141601D01*
X163810Y142157D01*
X163254Y142528D01*
X162598Y142659D01*
D02*
G37*
G36*
X138189D02*
X137533Y142528D01*
X136977Y142157D01*
X136605Y141601D01*
X136475Y140945D01*
X136605Y140289D01*
X136977Y139733D01*
X137533Y139361D01*
X138189Y139231D01*
X138845Y139361D01*
X139401Y139733D01*
X139772Y140289D01*
X139903Y140945D01*
X139772Y141601D01*
X139401Y142157D01*
X138845Y142528D01*
X138189Y142659D01*
D02*
G37*
G36*
X129527D02*
X128872Y142528D01*
X128316Y142157D01*
X127944Y141601D01*
X127813Y140945D01*
X127944Y140289D01*
X128316Y139733D01*
X128872Y139361D01*
X129527Y139231D01*
X130183Y139361D01*
X130740Y139733D01*
X131111Y140289D01*
X131242Y140945D01*
X131111Y141601D01*
X130740Y142157D01*
X130183Y142528D01*
X129527Y142659D01*
D02*
G37*
G36*
X204331Y142659D02*
X203675Y142528D01*
X203119Y142157D01*
X202747Y141601D01*
X202617Y140945D01*
X202747Y140289D01*
X203119Y139733D01*
X203675Y139361D01*
X204331Y139231D01*
X204987Y139361D01*
X205543Y139733D01*
X205914Y140289D01*
X206045Y140945D01*
X205914Y141601D01*
X205543Y142157D01*
X204987Y142528D01*
X204331Y142659D01*
D02*
G37*
G36*
X120079Y138027D02*
X119538Y137920D01*
X119096Y137624D01*
X115550D01*
X115108Y137920D01*
X114567Y138027D01*
X114026Y137920D01*
X113568Y137613D01*
X113261Y137155D01*
X113154Y136614D01*
X113261Y136074D01*
X113568Y135615D01*
X114026Y135309D01*
X114567Y135201D01*
X115108Y135309D01*
X115550Y135604D01*
X119096D01*
X119538Y135309D01*
X120079Y135201D01*
X120619Y135309D01*
X121078Y135615D01*
X121384Y136074D01*
X121492Y136614D01*
X121384Y137155D01*
X121078Y137613D01*
X120619Y137920D01*
X120079Y138027D01*
D02*
G37*
G36*
X389182Y139721D02*
X386027D01*
Y136566D01*
X386702Y136655D01*
X387518Y136993D01*
X388218Y137530D01*
X388755Y138230D01*
X389093Y139046D01*
X389182Y139721D01*
D02*
G37*
G36*
X385627D02*
X382471D01*
X382560Y139046D01*
X382898Y138230D01*
X383436Y137530D01*
X384136Y136993D01*
X384951Y136655D01*
X385627Y136566D01*
Y139721D01*
D02*
G37*
G36*
X375827Y143303D02*
X374952Y143188D01*
X374136Y142850D01*
X373436Y142313D01*
X372898Y141612D01*
X372560Y140796D01*
X372445Y139921D01*
X372560Y139046D01*
X372898Y138230D01*
X373436Y137530D01*
X374136Y136993D01*
X374952Y136655D01*
X375827Y136540D01*
X376702Y136655D01*
X377518Y136993D01*
X378218Y137530D01*
X378755Y138230D01*
X379093Y139046D01*
X379208Y139921D01*
X379093Y140796D01*
X378755Y141612D01*
X378218Y142313D01*
X377518Y142850D01*
X376702Y143188D01*
X375827Y143303D01*
D02*
G37*
G36*
X110630Y139903D02*
X109974Y139772D01*
X109418Y139401D01*
X109046Y138845D01*
X108916Y138189D01*
X109046Y137533D01*
X109418Y136977D01*
X109974Y136605D01*
X110630Y136475D01*
X111286Y136605D01*
X111842Y136977D01*
X112214Y137533D01*
X112344Y138189D01*
X112214Y138845D01*
X111842Y139401D01*
X111286Y139772D01*
X110630Y139903D01*
D02*
G37*
G36*
X386027Y133277D02*
Y130121D01*
X389182D01*
X389093Y130797D01*
X388755Y131612D01*
X388218Y132313D01*
X387518Y132850D01*
X386702Y133188D01*
X386027Y133277D01*
D02*
G37*
G36*
X385627D02*
X384951Y133188D01*
X384136Y132850D01*
X383436Y132313D01*
X382898Y131612D01*
X382560Y130797D01*
X382471Y130121D01*
X385627D01*
Y133277D01*
D02*
G37*
G36*
X327953Y131249D02*
X327143Y131088D01*
X326457Y130630D01*
X325998Y129943D01*
X325837Y129134D01*
X325998Y128324D01*
X326457Y127638D01*
X327143Y127180D01*
X327953Y127018D01*
X328762Y127180D01*
X329449Y127638D01*
X329907Y128324D01*
X330068Y129134D01*
X329907Y129943D01*
X329449Y130630D01*
X328762Y131088D01*
X327953Y131249D01*
D02*
G37*
G36*
X294882D02*
X294072Y131088D01*
X293386Y130630D01*
X292928Y129943D01*
X292766Y129134D01*
X292928Y128324D01*
X293386Y127638D01*
X294072Y127180D01*
X294882Y127018D01*
X295691Y127180D01*
X296378Y127638D01*
X296836Y128324D01*
X296997Y129134D01*
X296836Y129943D01*
X296378Y130630D01*
X295691Y131088D01*
X294882Y131249D01*
D02*
G37*
G36*
X261811D02*
X261001Y131088D01*
X260315Y130630D01*
X259857Y129943D01*
X259696Y129134D01*
X259857Y128324D01*
X260315Y127638D01*
X261001Y127180D01*
X261811Y127018D01*
X262621Y127180D01*
X263307Y127638D01*
X263765Y128324D01*
X263927Y129134D01*
X263765Y129943D01*
X263307Y130630D01*
X262621Y131088D01*
X261811Y131249D01*
D02*
G37*
G36*
X228740D02*
X227931Y131088D01*
X227244Y130630D01*
X226786Y129943D01*
X226625Y129134D01*
X226786Y128324D01*
X227244Y127638D01*
X227931Y127180D01*
X228740Y127018D01*
X229550Y127180D01*
X230236Y127638D01*
X230695Y128324D01*
X230856Y129134D01*
X230695Y129943D01*
X230236Y130630D01*
X229550Y131088D01*
X228740Y131249D01*
D02*
G37*
G36*
X195669D02*
X194860Y131088D01*
X194173Y130630D01*
X193715Y129943D01*
X193554Y129134D01*
X193715Y128324D01*
X194173Y127638D01*
X194860Y127180D01*
X195669Y127018D01*
X196479Y127180D01*
X197165Y127638D01*
X197624Y128324D01*
X197785Y129134D01*
X197624Y129943D01*
X197165Y130630D01*
X196479Y131088D01*
X195669Y131249D01*
D02*
G37*
G36*
X162598D02*
X161789Y131088D01*
X161103Y130630D01*
X160644Y129943D01*
X160483Y129134D01*
X160644Y128324D01*
X161103Y127638D01*
X161789Y127180D01*
X162598Y127018D01*
X163408Y127180D01*
X164094Y127638D01*
X164553Y128324D01*
X164714Y129134D01*
X164553Y129943D01*
X164094Y130630D01*
X163408Y131088D01*
X162598Y131249D01*
D02*
G37*
G36*
X129527D02*
X128718Y131088D01*
X128032Y130630D01*
X127573Y129943D01*
X127412Y129134D01*
X127573Y128324D01*
X128032Y127638D01*
X128718Y127180D01*
X129527Y127018D01*
X130337Y127180D01*
X131023Y127638D01*
X131482Y128324D01*
X131643Y129134D01*
X131482Y129943D01*
X131023Y130630D01*
X130337Y131088D01*
X129527Y131249D01*
D02*
G37*
G36*
X361024Y131249D02*
X360214Y131088D01*
X359528Y130630D01*
X359069Y129943D01*
X358908Y129134D01*
X359069Y128324D01*
X359528Y127638D01*
X360214Y127180D01*
X361024Y127018D01*
X361833Y127180D01*
X362520Y127638D01*
X362978Y128324D01*
X363139Y129134D01*
X362978Y129943D01*
X362520Y130630D01*
X361833Y131088D01*
X361024Y131249D01*
D02*
G37*
G36*
X389182Y129721D02*
X386027D01*
Y126566D01*
X386702Y126655D01*
X387518Y126993D01*
X388218Y127530D01*
X388755Y128230D01*
X389093Y129046D01*
X389182Y129721D01*
D02*
G37*
G36*
X385627D02*
X382471D01*
X382560Y129046D01*
X382898Y128230D01*
X383436Y127530D01*
X384136Y126993D01*
X384951Y126655D01*
X385627Y126566D01*
Y129721D01*
D02*
G37*
G36*
X375827Y133303D02*
X374952Y133188D01*
X374136Y132850D01*
X373436Y132313D01*
X372898Y131612D01*
X372560Y130797D01*
X372445Y129921D01*
X372560Y129046D01*
X372898Y128230D01*
X373436Y127530D01*
X374136Y126993D01*
X374952Y126655D01*
X375827Y126540D01*
X376702Y126655D01*
X377518Y126993D01*
X378218Y127530D01*
X378755Y128230D01*
X379093Y129046D01*
X379208Y129921D01*
X379093Y130797D01*
X378755Y131612D01*
X378218Y132313D01*
X377518Y132850D01*
X376702Y133188D01*
X375827Y133303D01*
D02*
G37*
G36*
X143307Y126610D02*
X142766Y126502D01*
X142308Y126196D01*
X142002Y125738D01*
X141894Y125197D01*
X142002Y124656D01*
X142308Y124198D01*
X142766Y123891D01*
X143307Y123784D01*
X143848Y123891D01*
X144306Y124198D01*
X144613Y124656D01*
X144720Y125197D01*
X144613Y125738D01*
X144306Y126196D01*
X143848Y126502D01*
X143307Y126610D01*
D02*
G37*
G36*
X110236D02*
X109695Y126502D01*
X109237Y126196D01*
X108931Y125738D01*
X108823Y125197D01*
X108931Y124656D01*
X109237Y124198D01*
X109695Y123891D01*
X110236Y123784D01*
X110777Y123891D01*
X111235Y124198D01*
X111542Y124656D01*
X111649Y125197D01*
X111542Y125738D01*
X111235Y126196D01*
X110777Y126502D01*
X110236Y126610D01*
D02*
G37*
G36*
X237402Y123460D02*
X236861Y123353D01*
X236402Y123046D01*
X236096Y122588D01*
X235989Y122047D01*
X236096Y121507D01*
X236402Y121048D01*
X236861Y120742D01*
X237402Y120634D01*
X237942Y120742D01*
X238401Y121048D01*
X238707Y121507D01*
X238814Y122047D01*
X238707Y122588D01*
X238401Y123046D01*
X237942Y123353D01*
X237402Y123460D01*
D02*
G37*
G36*
X171260D02*
X170719Y123353D01*
X170261Y123046D01*
X169954Y122588D01*
X169847Y122047D01*
X169954Y121507D01*
X170261Y121048D01*
X170719Y120742D01*
X171260Y120634D01*
X171800Y120742D01*
X172259Y121048D01*
X172565Y121507D01*
X172673Y122047D01*
X172565Y122588D01*
X172259Y123046D01*
X171800Y123353D01*
X171260Y123460D01*
D02*
G37*
G36*
X303543Y123460D02*
X303003Y123353D01*
X302544Y123046D01*
X302238Y122588D01*
X302130Y122047D01*
X302238Y121507D01*
X302544Y121048D01*
X303003Y120742D01*
X303543Y120634D01*
X304084Y120742D01*
X304542Y121048D01*
X304849Y121507D01*
X304956Y122047D01*
X304849Y122588D01*
X304542Y123046D01*
X304084Y123353D01*
X303543Y123460D01*
D02*
G37*
G36*
X270472D02*
X269932Y123353D01*
X269473Y123046D01*
X269167Y122588D01*
X269059Y122047D01*
X269167Y121507D01*
X269473Y121048D01*
X269932Y120742D01*
X270472Y120634D01*
X271013Y120742D01*
X271472Y121048D01*
X271778Y121507D01*
X271885Y122047D01*
X271778Y122588D01*
X271472Y123046D01*
X271013Y123353D01*
X270472Y123460D01*
D02*
G37*
G36*
X204331D02*
X203790Y123353D01*
X203332Y123046D01*
X203025Y122588D01*
X202918Y122047D01*
X203025Y121507D01*
X203332Y121048D01*
X203790Y120742D01*
X204331Y120634D01*
X204871Y120742D01*
X205330Y121048D01*
X205636Y121507D01*
X205744Y122047D01*
X205636Y122588D01*
X205330Y123046D01*
X204871Y123353D01*
X204331Y123460D01*
D02*
G37*
G36*
X336614Y123460D02*
X336073Y123353D01*
X335615Y123046D01*
X335309Y122588D01*
X335201Y122047D01*
X335309Y121507D01*
X335615Y121048D01*
X336073Y120742D01*
X336614Y120634D01*
X337155Y120742D01*
X337613Y121048D01*
X337920Y121507D01*
X338027Y122047D01*
X337920Y122588D01*
X337613Y123046D01*
X337155Y123353D01*
X336614Y123460D01*
D02*
G37*
G36*
X361024Y99838D02*
X360483Y99731D01*
X360024Y99424D01*
X359718Y98966D01*
X359611Y98425D01*
X359718Y97885D01*
X360024Y97426D01*
X360483Y97120D01*
X361024Y97012D01*
X361564Y97120D01*
X362023Y97426D01*
X362329Y97885D01*
X362437Y98425D01*
X362329Y98966D01*
X362023Y99424D01*
X361564Y99731D01*
X361024Y99838D01*
D02*
G37*
G36*
X327953D02*
X327412Y99731D01*
X326954Y99424D01*
X326647Y98966D01*
X326540Y98425D01*
X326647Y97885D01*
X326954Y97426D01*
X327412Y97120D01*
X327953Y97012D01*
X328493Y97120D01*
X328952Y97426D01*
X329258Y97885D01*
X329366Y98425D01*
X329258Y98966D01*
X328952Y99424D01*
X328493Y99731D01*
X327953Y99838D01*
D02*
G37*
G36*
X294882D02*
X294341Y99731D01*
X293883Y99424D01*
X293577Y98966D01*
X293469Y98425D01*
X293577Y97885D01*
X293883Y97426D01*
X294341Y97120D01*
X294882Y97012D01*
X295423Y97120D01*
X295881Y97426D01*
X296187Y97885D01*
X296295Y98425D01*
X296187Y98966D01*
X295881Y99424D01*
X295423Y99731D01*
X294882Y99838D01*
D02*
G37*
G36*
X261811D02*
X261270Y99731D01*
X260812Y99424D01*
X260506Y98966D01*
X260398Y98425D01*
X260506Y97885D01*
X260812Y97426D01*
X261270Y97120D01*
X261811Y97012D01*
X262352Y97120D01*
X262810Y97426D01*
X263116Y97885D01*
X263224Y98425D01*
X263116Y98966D01*
X262810Y99424D01*
X262352Y99731D01*
X261811Y99838D01*
D02*
G37*
G36*
X228740D02*
X228199Y99731D01*
X227741Y99424D01*
X227435Y98966D01*
X227327Y98425D01*
X227435Y97885D01*
X227741Y97426D01*
X228199Y97120D01*
X228740Y97012D01*
X229281Y97120D01*
X229739Y97426D01*
X230046Y97885D01*
X230153Y98425D01*
X230046Y98966D01*
X229739Y99424D01*
X229281Y99731D01*
X228740Y99838D01*
D02*
G37*
G36*
X195669D02*
X195129Y99731D01*
X194670Y99424D01*
X194364Y98966D01*
X194256Y98425D01*
X194364Y97885D01*
X194670Y97426D01*
X195129Y97120D01*
X195669Y97012D01*
X196210Y97120D01*
X196668Y97426D01*
X196975Y97885D01*
X197082Y98425D01*
X196975Y98966D01*
X196668Y99424D01*
X196210Y99731D01*
X195669Y99838D01*
D02*
G37*
G36*
X157874Y96689D02*
X157333Y96581D01*
X156875Y96275D01*
X156569Y95816D01*
X156461Y95276D01*
X156569Y94735D01*
X156875Y94276D01*
X157333Y93970D01*
X157874Y93863D01*
X158415Y93970D01*
X158873Y94276D01*
X159179Y94735D01*
X159287Y95276D01*
X159179Y95816D01*
X158873Y96275D01*
X158415Y96581D01*
X157874Y96689D01*
D02*
G37*
G36*
X124803D02*
X124262Y96581D01*
X123804Y96275D01*
X123498Y95816D01*
X123390Y95276D01*
X123498Y94735D01*
X123804Y94276D01*
X124262Y93970D01*
X124803Y93863D01*
X125344Y93970D01*
X125802Y94276D01*
X126109Y94735D01*
X126216Y95276D01*
X126109Y95816D01*
X125802Y96275D01*
X125344Y96581D01*
X124803Y96689D01*
D02*
G37*
G36*
X386027Y93906D02*
Y90751D01*
X389182D01*
X389093Y91426D01*
X388755Y92242D01*
X388218Y92942D01*
X387518Y93480D01*
X386702Y93818D01*
X386027Y93906D01*
D02*
G37*
G36*
X385627D02*
X384951Y93818D01*
X384136Y93480D01*
X383436Y92942D01*
X382898Y92242D01*
X382560Y91426D01*
X382471Y90751D01*
X385627D01*
Y93906D01*
D02*
G37*
G36*
X336614Y93454D02*
X335805Y93293D01*
X335118Y92834D01*
X334660Y92148D01*
X334499Y91339D01*
X334660Y90529D01*
X335118Y89843D01*
X335805Y89384D01*
X336614Y89223D01*
X337424Y89384D01*
X338110Y89843D01*
X338569Y90529D01*
X338730Y91339D01*
X338569Y92148D01*
X338110Y92834D01*
X337424Y93293D01*
X336614Y93454D01*
D02*
G37*
G36*
X303543D02*
X302734Y93293D01*
X302047Y92834D01*
X301589Y92148D01*
X301428Y91339D01*
X301589Y90529D01*
X302047Y89843D01*
X302734Y89384D01*
X303543Y89223D01*
X304353Y89384D01*
X305039Y89843D01*
X305498Y90529D01*
X305659Y91339D01*
X305498Y92148D01*
X305039Y92834D01*
X304353Y93293D01*
X303543Y93454D01*
D02*
G37*
G36*
X270472D02*
X269663Y93293D01*
X268977Y92834D01*
X268518Y92148D01*
X268357Y91339D01*
X268518Y90529D01*
X268977Y89843D01*
X269663Y89384D01*
X270472Y89223D01*
X271282Y89384D01*
X271968Y89843D01*
X272427Y90529D01*
X272588Y91339D01*
X272427Y92148D01*
X271968Y92834D01*
X271282Y93293D01*
X270472Y93454D01*
D02*
G37*
G36*
X204331D02*
X203521Y93293D01*
X202835Y92834D01*
X202376Y92148D01*
X202215Y91339D01*
X202376Y90529D01*
X202835Y89843D01*
X203521Y89384D01*
X204331Y89223D01*
X205140Y89384D01*
X205827Y89843D01*
X206285Y90529D01*
X206446Y91339D01*
X206285Y92148D01*
X205827Y92834D01*
X205140Y93293D01*
X204331Y93454D01*
D02*
G37*
G36*
X171260Y93454D02*
X170450Y93293D01*
X169764Y92834D01*
X169305Y92148D01*
X169144Y91339D01*
X169305Y90529D01*
X169764Y89843D01*
X170450Y89384D01*
X171260Y89223D01*
X172069Y89384D01*
X172756Y89843D01*
X173214Y90529D01*
X173375Y91339D01*
X173214Y92148D01*
X172756Y92834D01*
X172069Y93293D01*
X171260Y93454D01*
D02*
G37*
G36*
X138189D02*
X137379Y93293D01*
X136693Y92834D01*
X136235Y92148D01*
X136074Y91339D01*
X136235Y90529D01*
X136693Y89843D01*
X137379Y89384D01*
X138189Y89223D01*
X138998Y89384D01*
X139685Y89843D01*
X140143Y90529D01*
X140304Y91339D01*
X140143Y92148D01*
X139685Y92834D01*
X138998Y93293D01*
X138189Y93454D01*
D02*
G37*
G36*
X105118D02*
X104309Y93293D01*
X103622Y92834D01*
X103164Y92148D01*
X103003Y91339D01*
X103164Y90529D01*
X103622Y89843D01*
X104309Y89384D01*
X105118Y89223D01*
X105928Y89384D01*
X106614Y89843D01*
X107072Y90529D01*
X107234Y91339D01*
X107072Y92148D01*
X106614Y92834D01*
X105928Y93293D01*
X105118Y93454D01*
D02*
G37*
G36*
X237402Y93454D02*
X236592Y93293D01*
X235906Y92834D01*
X235447Y92148D01*
X235286Y91339D01*
X235447Y90529D01*
X235906Y89843D01*
X236592Y89384D01*
X237402Y89223D01*
X238211Y89384D01*
X238897Y89843D01*
X239356Y90529D01*
X239517Y91339D01*
X239356Y92148D01*
X238897Y92834D01*
X238211Y93293D01*
X237402Y93454D01*
D02*
G37*
G36*
X385627Y90351D02*
X382471D01*
X382560Y89676D01*
X382898Y88860D01*
X383436Y88160D01*
X384136Y87623D01*
X384951Y87285D01*
X385627Y87196D01*
Y90351D01*
D02*
G37*
G36*
X389182D02*
X386027D01*
Y87196D01*
X386702Y87285D01*
X387518Y87623D01*
X388218Y88160D01*
X388755Y88860D01*
X389093Y89676D01*
X389182Y90351D01*
D02*
G37*
G36*
X375827Y93933D02*
X374952Y93818D01*
X374136Y93480D01*
X373436Y92942D01*
X372898Y92242D01*
X372560Y91426D01*
X372445Y90551D01*
X372560Y89676D01*
X372898Y88860D01*
X373436Y88160D01*
X374136Y87623D01*
X374952Y87285D01*
X375827Y87169D01*
X376702Y87285D01*
X377518Y87623D01*
X378218Y88160D01*
X378755Y88860D01*
X379093Y89676D01*
X379208Y90551D01*
X379093Y91426D01*
X378755Y92242D01*
X378218Y92942D01*
X377518Y93480D01*
X376702Y93818D01*
X375827Y93933D01*
D02*
G37*
G36*
X386027Y83907D02*
Y80751D01*
X389182D01*
X389093Y81426D01*
X388755Y82242D01*
X388218Y82942D01*
X387518Y83480D01*
X386702Y83818D01*
X386027Y83907D01*
D02*
G37*
G36*
X385627D02*
X384951Y83818D01*
X384136Y83480D01*
X383436Y82942D01*
X382898Y82242D01*
X382560Y81426D01*
X382471Y80751D01*
X385627D01*
Y83907D01*
D02*
G37*
G36*
X105512Y80941D02*
X104971Y80833D01*
X104513Y80527D01*
X104206Y80068D01*
X104099Y79528D01*
X104206Y78987D01*
X104513Y78528D01*
X104971Y78222D01*
X105512Y78115D01*
X106052Y78222D01*
X106511Y78528D01*
X106817Y78987D01*
X106925Y79528D01*
X106817Y80068D01*
X106511Y80527D01*
X106052Y80833D01*
X105512Y80941D01*
D02*
G37*
G36*
X204331Y81242D02*
X203675Y81111D01*
X203119Y80740D01*
X202747Y80184D01*
X202617Y79528D01*
X202747Y78872D01*
X203119Y78316D01*
X203675Y77944D01*
X204331Y77814D01*
X204987Y77944D01*
X205543Y78316D01*
X205914Y78872D01*
X206045Y79528D01*
X205914Y80184D01*
X205543Y80740D01*
X204987Y81111D01*
X204331Y81242D01*
D02*
G37*
G36*
X228740Y81242D02*
X228084Y81111D01*
X227528Y80740D01*
X227157Y80184D01*
X227026Y79528D01*
X227157Y78872D01*
X227528Y78316D01*
X228084Y77944D01*
X228740Y77814D01*
X229396Y77944D01*
X229952Y78316D01*
X230324Y78872D01*
X230454Y79528D01*
X230324Y80184D01*
X229952Y80740D01*
X229396Y81111D01*
X228740Y81242D01*
D02*
G37*
G36*
X195669D02*
X195013Y81111D01*
X194457Y80740D01*
X194086Y80184D01*
X193955Y79528D01*
X194086Y78872D01*
X194457Y78316D01*
X195013Y77944D01*
X195669Y77814D01*
X196325Y77944D01*
X196881Y78316D01*
X197253Y78872D01*
X197383Y79528D01*
X197253Y80184D01*
X196881Y80740D01*
X196325Y81111D01*
X195669Y81242D01*
D02*
G37*
G36*
X171654D02*
X170998Y81111D01*
X170442Y80740D01*
X170070Y80184D01*
X169939Y79528D01*
X170070Y78872D01*
X170442Y78316D01*
X170998Y77944D01*
X171654Y77814D01*
X172310Y77944D01*
X172866Y78316D01*
X173237Y78872D01*
X173368Y79528D01*
X173237Y80184D01*
X172866Y80740D01*
X172310Y81111D01*
X171654Y81242D01*
D02*
G37*
G36*
X162599D02*
X161943Y81111D01*
X161386Y80740D01*
X161015Y80184D01*
X160884Y79528D01*
X161015Y78872D01*
X161386Y78316D01*
X161943Y77944D01*
X162599Y77814D01*
X163254Y77944D01*
X163810Y78316D01*
X164182Y78872D01*
X164313Y79528D01*
X164182Y80184D01*
X163810Y80740D01*
X163254Y81111D01*
X162599Y81242D01*
D02*
G37*
G36*
X138189D02*
X137533Y81111D01*
X136977Y80740D01*
X136605Y80184D01*
X136475Y79528D01*
X136605Y78872D01*
X136977Y78316D01*
X137533Y77944D01*
X138189Y77814D01*
X138845Y77944D01*
X139401Y78316D01*
X139773Y78872D01*
X139903Y79528D01*
X139773Y80184D01*
X139401Y80740D01*
X138845Y81111D01*
X138189Y81242D01*
D02*
G37*
G36*
X129528D02*
X128872Y81111D01*
X128316Y80740D01*
X127944Y80184D01*
X127813Y79528D01*
X127944Y78872D01*
X128316Y78316D01*
X128872Y77944D01*
X129528Y77814D01*
X130183Y77944D01*
X130740Y78316D01*
X131111Y78872D01*
X131242Y79528D01*
X131111Y80184D01*
X130740Y80740D01*
X130183Y81111D01*
X129528Y81242D01*
D02*
G37*
G36*
X385627Y80351D02*
X382471D01*
X382560Y79676D01*
X382898Y78860D01*
X383436Y78160D01*
X384136Y77623D01*
X384951Y77285D01*
X385627Y77196D01*
Y80351D01*
D02*
G37*
G36*
X389182D02*
X386027D01*
Y77196D01*
X386702Y77285D01*
X387518Y77623D01*
X388218Y78160D01*
X388755Y78860D01*
X389093Y79676D01*
X389182Y80351D01*
D02*
G37*
G36*
X375827Y83933D02*
X374952Y83818D01*
X374136Y83480D01*
X373436Y82942D01*
X372898Y82242D01*
X372560Y81426D01*
X372445Y80551D01*
X372560Y79676D01*
X372898Y78860D01*
X373436Y78160D01*
X374136Y77622D01*
X374952Y77285D01*
X375827Y77170D01*
X376702Y77285D01*
X377518Y77622D01*
X378218Y78160D01*
X378755Y78860D01*
X379093Y79676D01*
X379208Y80551D01*
X379093Y81426D01*
X378755Y82242D01*
X378218Y82942D01*
X377518Y83480D01*
X376702Y83818D01*
X375827Y83933D01*
D02*
G37*
G36*
X386027Y73906D02*
Y70751D01*
X389182D01*
X389093Y71426D01*
X388755Y72242D01*
X388218Y72942D01*
X387518Y73480D01*
X386702Y73818D01*
X386027Y73906D01*
D02*
G37*
G36*
X385627D02*
X384951Y73818D01*
X384136Y73480D01*
X383436Y72942D01*
X382898Y72242D01*
X382560Y71426D01*
X382471Y70751D01*
X385627D01*
Y73906D01*
D02*
G37*
G36*
X389182Y70351D02*
X386027D01*
Y67196D01*
X386702Y67285D01*
X387518Y67623D01*
X388218Y68160D01*
X388755Y68860D01*
X389093Y69676D01*
X389182Y70351D01*
D02*
G37*
G36*
X385627D02*
X382471D01*
X382560Y69676D01*
X382898Y68860D01*
X383436Y68160D01*
X384136Y67623D01*
X384951Y67285D01*
X385627Y67196D01*
Y70351D01*
D02*
G37*
G36*
X375827Y73933D02*
X374952Y73818D01*
X374136Y73480D01*
X373436Y72942D01*
X372898Y72242D01*
X372560Y71426D01*
X372445Y70551D01*
X372560Y69676D01*
X372898Y68860D01*
X373436Y68160D01*
X374136Y67623D01*
X374952Y67285D01*
X375827Y67169D01*
X376702Y67285D01*
X377518Y67623D01*
X378218Y68160D01*
X378755Y68860D01*
X379093Y69676D01*
X379208Y70551D01*
X379093Y71426D01*
X378755Y72242D01*
X378218Y72942D01*
X377518Y73480D01*
X376702Y73818D01*
X375827Y73933D01*
D02*
G37*
G36*
X386027Y63907D02*
Y60751D01*
X389182D01*
X389093Y61426D01*
X388755Y62242D01*
X388218Y62942D01*
X387518Y63480D01*
X386702Y63818D01*
X386027Y63907D01*
D02*
G37*
G36*
X385627D02*
X384951Y63818D01*
X384136Y63480D01*
X383436Y62942D01*
X382898Y62242D01*
X382560Y61426D01*
X382471Y60751D01*
X385627D01*
Y63907D01*
D02*
G37*
G36*
X171654Y63919D02*
X170998Y63788D01*
X170442Y63417D01*
X170070Y62861D01*
X169939Y62205D01*
X170070Y61549D01*
X170442Y60993D01*
X170998Y60621D01*
X171654Y60491D01*
X172310Y60621D01*
X172866Y60993D01*
X173237Y61549D01*
X173368Y62205D01*
X173237Y62861D01*
X172866Y63417D01*
X172310Y63788D01*
X171654Y63919D01*
D02*
G37*
G36*
X138189D02*
X137533Y63788D01*
X136977Y63417D01*
X136605Y62861D01*
X136475Y62205D01*
X136605Y61549D01*
X136977Y60993D01*
X137533Y60621D01*
X138189Y60491D01*
X138845Y60621D01*
X139401Y60993D01*
X139773Y61549D01*
X139903Y62205D01*
X139773Y62861D01*
X139401Y63417D01*
X138845Y63788D01*
X138189Y63919D01*
D02*
G37*
G36*
X327953Y63525D02*
X327297Y63395D01*
X326741Y63023D01*
X326369Y62467D01*
X326239Y61811D01*
X326369Y61155D01*
X326741Y60599D01*
X327297Y60228D01*
X327953Y60097D01*
X328609Y60228D01*
X329165Y60599D01*
X329536Y61155D01*
X329667Y61811D01*
X329536Y62467D01*
X329165Y63023D01*
X328609Y63395D01*
X327953Y63525D01*
D02*
G37*
G36*
X303543D02*
X302887Y63395D01*
X302331Y63023D01*
X301960Y62467D01*
X301829Y61811D01*
X301960Y61155D01*
X302331Y60599D01*
X302887Y60228D01*
X303543Y60097D01*
X304199Y60228D01*
X304755Y60599D01*
X305127Y61155D01*
X305257Y61811D01*
X305127Y62467D01*
X304755Y63023D01*
X304199Y63395D01*
X303543Y63525D01*
D02*
G37*
G36*
X294882D02*
X294226Y63395D01*
X293670Y63023D01*
X293298Y62467D01*
X293168Y61811D01*
X293298Y61155D01*
X293670Y60599D01*
X294226Y60228D01*
X294882Y60097D01*
X295538Y60228D01*
X296094Y60599D01*
X296465Y61155D01*
X296596Y61811D01*
X296465Y62467D01*
X296094Y63023D01*
X295538Y63395D01*
X294882Y63525D01*
D02*
G37*
G36*
X270472D02*
X269816Y63395D01*
X269260Y63023D01*
X268889Y62467D01*
X268758Y61811D01*
X268889Y61155D01*
X269260Y60599D01*
X269816Y60228D01*
X270472Y60097D01*
X271128Y60228D01*
X271685Y60599D01*
X272056Y61155D01*
X272186Y61811D01*
X272056Y62467D01*
X271685Y63023D01*
X271128Y63395D01*
X270472Y63525D01*
D02*
G37*
G36*
X336614Y63525D02*
X335958Y63395D01*
X335402Y63023D01*
X335031Y62467D01*
X334900Y61811D01*
X335031Y61155D01*
X335402Y60599D01*
X335958Y60228D01*
X336614Y60097D01*
X337270Y60228D01*
X337826Y60599D01*
X338198Y61155D01*
X338328Y61811D01*
X338198Y62467D01*
X337826Y63023D01*
X337270Y63395D01*
X336614Y63525D01*
D02*
G37*
G36*
X261811D02*
X261155Y63395D01*
X260599Y63023D01*
X260227Y62467D01*
X260097Y61811D01*
X260227Y61155D01*
X260599Y60599D01*
X261155Y60228D01*
X261811Y60097D01*
X262467Y60228D01*
X263023Y60599D01*
X263395Y61155D01*
X263525Y61811D01*
X263395Y62467D01*
X263023Y63023D01*
X262467Y63395D01*
X261811Y63525D01*
D02*
G37*
G36*
X237402D02*
X236746Y63395D01*
X236190Y63023D01*
X235818Y62467D01*
X235688Y61811D01*
X235818Y61155D01*
X236190Y60599D01*
X236746Y60228D01*
X237402Y60097D01*
X238057Y60228D01*
X238614Y60599D01*
X238985Y61155D01*
X239116Y61811D01*
X238985Y62467D01*
X238614Y63023D01*
X238057Y63395D01*
X237402Y63525D01*
D02*
G37*
G36*
X228740D02*
X228084Y63395D01*
X227528Y63023D01*
X227157Y62467D01*
X227026Y61811D01*
X227157Y61155D01*
X227528Y60599D01*
X228084Y60228D01*
X228740Y60097D01*
X229396Y60228D01*
X229952Y60599D01*
X230324Y61155D01*
X230454Y61811D01*
X230324Y62467D01*
X229952Y63023D01*
X229396Y63395D01*
X228740Y63525D01*
D02*
G37*
G36*
X204724D02*
X204068Y63395D01*
X203512Y63023D01*
X203141Y62467D01*
X203010Y61811D01*
X203141Y61155D01*
X203512Y60599D01*
X204068Y60228D01*
X204724Y60097D01*
X205380Y60228D01*
X205936Y60599D01*
X206308Y61155D01*
X206438Y61811D01*
X206308Y62467D01*
X205936Y63023D01*
X205380Y63395D01*
X204724Y63525D01*
D02*
G37*
G36*
X195669D02*
X195013Y63395D01*
X194457Y63023D01*
X194086Y62467D01*
X193955Y61811D01*
X194086Y61155D01*
X194457Y60599D01*
X195013Y60228D01*
X195669Y60097D01*
X196325Y60228D01*
X196881Y60599D01*
X197253Y61155D01*
X197383Y61811D01*
X197253Y62467D01*
X196881Y63023D01*
X196325Y63395D01*
X195669Y63525D01*
D02*
G37*
G36*
X162598D02*
X161943Y63395D01*
X161386Y63023D01*
X161015Y62467D01*
X160884Y61811D01*
X161015Y61155D01*
X161386Y60599D01*
X161943Y60228D01*
X162598Y60097D01*
X163254Y60228D01*
X163810Y60599D01*
X164182Y61155D01*
X164313Y61811D01*
X164182Y62467D01*
X163810Y63023D01*
X163254Y63395D01*
X162598Y63525D01*
D02*
G37*
G36*
X129528D02*
X128872Y63395D01*
X128316Y63023D01*
X127944Y62467D01*
X127813Y61811D01*
X127944Y61155D01*
X128316Y60599D01*
X128872Y60228D01*
X129528Y60097D01*
X130183Y60228D01*
X130740Y60599D01*
X131111Y61155D01*
X131242Y61811D01*
X131111Y62467D01*
X130740Y63023D01*
X130183Y63395D01*
X129528Y63525D01*
D02*
G37*
G36*
X105118D02*
X104462Y63395D01*
X103906Y63023D01*
X103535Y62467D01*
X103404Y61811D01*
X103535Y61155D01*
X103906Y60599D01*
X104462Y60228D01*
X105118Y60097D01*
X105774Y60228D01*
X106330Y60599D01*
X106702Y61155D01*
X106832Y61811D01*
X106702Y62467D01*
X106330Y63023D01*
X105774Y63395D01*
X105118Y63525D01*
D02*
G37*
G36*
X361024Y63525D02*
X360368Y63395D01*
X359812Y63023D01*
X359440Y62467D01*
X359310Y61811D01*
X359440Y61155D01*
X359812Y60599D01*
X360368Y60228D01*
X361024Y60097D01*
X361680Y60228D01*
X362236Y60599D01*
X362607Y61155D01*
X362738Y61811D01*
X362607Y62467D01*
X362236Y63023D01*
X361680Y63395D01*
X361024Y63525D01*
D02*
G37*
G36*
X385627Y60351D02*
X382471D01*
X382560Y59676D01*
X382898Y58860D01*
X383436Y58160D01*
X384136Y57623D01*
X384951Y57285D01*
X385627Y57196D01*
Y60351D01*
D02*
G37*
G36*
X389182D02*
X386027D01*
Y57196D01*
X386702Y57285D01*
X387518Y57623D01*
X388218Y58160D01*
X388755Y58860D01*
X389093Y59676D01*
X389182Y60351D01*
D02*
G37*
G36*
X375827Y63933D02*
X374952Y63818D01*
X374136Y63480D01*
X373436Y62942D01*
X372898Y62242D01*
X372560Y61426D01*
X372445Y60551D01*
X372560Y59676D01*
X372898Y58860D01*
X373436Y58160D01*
X374136Y57623D01*
X374952Y57285D01*
X375827Y57170D01*
X376702Y57285D01*
X377518Y57623D01*
X378218Y58160D01*
X378755Y58860D01*
X379093Y59676D01*
X379208Y60551D01*
X379093Y61426D01*
X378755Y62242D01*
X378218Y62942D01*
X377518Y63480D01*
X376702Y63818D01*
X375827Y63933D01*
D02*
G37*
G36*
X386027Y53907D02*
Y50751D01*
X389182D01*
X389093Y51426D01*
X388755Y52242D01*
X388218Y52942D01*
X387518Y53480D01*
X386702Y53818D01*
X386027Y53907D01*
D02*
G37*
G36*
X385627D02*
X384951Y53818D01*
X384136Y53480D01*
X383436Y52942D01*
X382898Y52242D01*
X382560Y51426D01*
X382471Y50751D01*
X385627D01*
Y53907D01*
D02*
G37*
G36*
X219291Y59588D02*
X218635Y59458D01*
X218079Y59086D01*
X217708Y58530D01*
X217577Y57874D01*
X217708Y57218D01*
X218079Y56662D01*
X218281Y56527D01*
Y53316D01*
X218079Y53181D01*
X217708Y52624D01*
X217577Y51969D01*
X217708Y51313D01*
X218079Y50757D01*
X218635Y50385D01*
X219291Y50254D01*
X219947Y50385D01*
X220503Y50757D01*
X220875Y51313D01*
X221005Y51969D01*
X220875Y52624D01*
X220503Y53181D01*
X220301Y53316D01*
Y56527D01*
X220503Y56662D01*
X220875Y57218D01*
X221005Y57874D01*
X220875Y58530D01*
X220503Y59086D01*
X219947Y59458D01*
X219291Y59588D01*
D02*
G37*
G36*
X252362Y59588D02*
X251706Y59458D01*
X251150Y59086D01*
X250779Y58530D01*
X250648Y57874D01*
X250779Y57218D01*
X251150Y56662D01*
X251352Y56527D01*
Y53316D01*
X251150Y53180D01*
X250779Y52624D01*
X250648Y51968D01*
X250779Y51313D01*
X251150Y50757D01*
X251706Y50385D01*
X252362Y50254D01*
X253018Y50385D01*
X253574Y50757D01*
X253946Y51313D01*
X254076Y51968D01*
X253946Y52624D01*
X253574Y53180D01*
X253372Y53316D01*
Y56527D01*
X253574Y56662D01*
X253946Y57218D01*
X254076Y57874D01*
X253946Y58530D01*
X253574Y59086D01*
X253018Y59458D01*
X252362Y59588D01*
D02*
G37*
G36*
X186221D02*
X185565Y59458D01*
X185009Y59086D01*
X184637Y58530D01*
X184506Y57874D01*
X184637Y57218D01*
X185009Y56662D01*
X185211Y56527D01*
Y53316D01*
X185009Y53180D01*
X184637Y52624D01*
X184506Y51968D01*
X184637Y51313D01*
X185009Y50757D01*
X185565Y50385D01*
X186221Y50254D01*
X186876Y50385D01*
X187433Y50757D01*
X187804Y51313D01*
X187935Y51968D01*
X187804Y52624D01*
X187433Y53180D01*
X187231Y53316D01*
Y56527D01*
X187433Y56662D01*
X187804Y57218D01*
X187935Y57874D01*
X187804Y58530D01*
X187433Y59086D01*
X186876Y59458D01*
X186221Y59588D01*
D02*
G37*
G36*
X153150D02*
X152494Y59458D01*
X151938Y59086D01*
X151566Y58530D01*
X151436Y57874D01*
X151566Y57218D01*
X151938Y56662D01*
X152140Y56527D01*
Y53316D01*
X151938Y53180D01*
X151566Y52624D01*
X151436Y51968D01*
X151566Y51313D01*
X151938Y50757D01*
X152494Y50385D01*
X153150Y50254D01*
X153806Y50385D01*
X154362Y50757D01*
X154733Y51313D01*
X154864Y51968D01*
X154733Y52624D01*
X154362Y53180D01*
X154160Y53316D01*
Y56527D01*
X154362Y56662D01*
X154733Y57218D01*
X154864Y57874D01*
X154733Y58530D01*
X154362Y59086D01*
X153806Y59458D01*
X153150Y59588D01*
D02*
G37*
G36*
X120079Y59588D02*
X119423Y59458D01*
X118867Y59086D01*
X118495Y58530D01*
X118365Y57874D01*
X118495Y57218D01*
X118867Y56662D01*
X119069Y56527D01*
Y53316D01*
X118867Y53180D01*
X118495Y52624D01*
X118365Y51968D01*
X118495Y51313D01*
X118867Y50757D01*
X119423Y50385D01*
X120079Y50254D01*
X120735Y50385D01*
X121291Y50757D01*
X121662Y51313D01*
X121793Y51968D01*
X121662Y52624D01*
X121291Y53180D01*
X121089Y53316D01*
Y56527D01*
X121291Y56662D01*
X121662Y57218D01*
X121793Y57874D01*
X121662Y58530D01*
X121291Y59086D01*
X120735Y59458D01*
X120079Y59588D01*
D02*
G37*
G36*
X285433Y59588D02*
X284777Y59458D01*
X284221Y59086D01*
X283850Y58530D01*
X283719Y57874D01*
X283850Y57218D01*
X284221Y56662D01*
X284423Y56527D01*
Y50953D01*
X284221Y50818D01*
X283850Y50262D01*
X283719Y49606D01*
X283850Y48950D01*
X284221Y48394D01*
X284777Y48023D01*
X285433Y47892D01*
X286089Y48023D01*
X286645Y48394D01*
X287017Y48950D01*
X287147Y49606D01*
X287017Y50262D01*
X286645Y50818D01*
X286443Y50953D01*
Y56527D01*
X286645Y56662D01*
X287017Y57218D01*
X287147Y57874D01*
X287017Y58530D01*
X286645Y59086D01*
X286089Y59458D01*
X285433Y59588D01*
D02*
G37*
G36*
X318504Y59588D02*
X317848Y59458D01*
X317292Y59086D01*
X316920Y58530D01*
X316790Y57874D01*
X316920Y57218D01*
X317292Y56662D01*
X317494Y56527D01*
Y50953D01*
X317292Y50818D01*
X316920Y50262D01*
X316790Y49606D01*
X316920Y48950D01*
X317292Y48394D01*
X317848Y48023D01*
X318504Y47892D01*
X319160Y48023D01*
X319716Y48394D01*
X320088Y48950D01*
X320218Y49606D01*
X320088Y50262D01*
X319716Y50818D01*
X319514Y50953D01*
Y56527D01*
X319716Y56662D01*
X320088Y57218D01*
X320218Y57874D01*
X320088Y58530D01*
X319716Y59086D01*
X319160Y59458D01*
X318504Y59588D01*
D02*
G37*
G36*
X385627Y50351D02*
X382471D01*
X382560Y49676D01*
X382898Y48860D01*
X383436Y48160D01*
X384136Y47623D01*
X384951Y47285D01*
X385627Y47196D01*
Y50351D01*
D02*
G37*
G36*
X389182D02*
X386027D01*
Y47196D01*
X386702Y47285D01*
X387518Y47623D01*
X388218Y48160D01*
X388755Y48860D01*
X389093Y49676D01*
X389182Y50351D01*
D02*
G37*
G36*
X375827Y53933D02*
X374952Y53818D01*
X374136Y53480D01*
X373436Y52942D01*
X372898Y52242D01*
X372560Y51426D01*
X372445Y50551D01*
X372560Y49676D01*
X372898Y48860D01*
X373436Y48160D01*
X374136Y47623D01*
X374952Y47285D01*
X375827Y47170D01*
X376702Y47285D01*
X377518Y47623D01*
X378218Y48160D01*
X378755Y48860D01*
X379093Y49676D01*
X379208Y50551D01*
X379093Y51426D01*
X378755Y52242D01*
X378218Y52942D01*
X377518Y53480D01*
X376702Y53818D01*
X375827Y53933D01*
D02*
G37*
G36*
X342913Y53382D02*
X342373Y53274D01*
X341914Y52968D01*
X341608Y52509D01*
X341500Y51968D01*
X341608Y51428D01*
X341914Y50969D01*
X342373Y50663D01*
X342913Y50555D01*
X343454Y50663D01*
X343896Y50959D01*
X346038D01*
X349772Y47225D01*
X349876Y46703D01*
X350182Y46245D01*
X350640Y45939D01*
X351181Y45831D01*
X351722Y45939D01*
X352180Y46245D01*
X352486Y46703D01*
X352594Y47244D01*
X352486Y47785D01*
X352180Y48243D01*
X351722Y48550D01*
X351200Y48653D01*
X347171Y52683D01*
X346843Y52902D01*
X346457Y52978D01*
X343896D01*
X343454Y53274D01*
X342913Y53382D01*
D02*
G37*
G36*
X213780Y53683D02*
X213124Y53552D01*
X212567Y53181D01*
X212196Y52624D01*
X212066Y51969D01*
X212196Y51313D01*
X212567Y50757D01*
X212770Y50622D01*
Y45835D01*
X212567Y45700D01*
X212196Y45144D01*
X212066Y44488D01*
X212196Y43832D01*
X212567Y43276D01*
X213124Y42905D01*
X213780Y42774D01*
X214436Y42905D01*
X214992Y43276D01*
X215363Y43832D01*
X215494Y44488D01*
X215363Y45144D01*
X214992Y45700D01*
X214790Y45835D01*
Y50622D01*
X214992Y50757D01*
X215363Y51313D01*
X215494Y51969D01*
X215363Y52624D01*
X214992Y53181D01*
X214436Y53552D01*
X213780Y53683D01*
D02*
G37*
G36*
X180709Y53683D02*
X180053Y53552D01*
X179497Y53180D01*
X179125Y52624D01*
X178995Y51968D01*
X179125Y51313D01*
X179497Y50757D01*
X179699Y50621D01*
Y45835D01*
X179497Y45700D01*
X179125Y45144D01*
X178995Y44488D01*
X179125Y43832D01*
X179497Y43276D01*
X180053Y42905D01*
X180709Y42774D01*
X181365Y42905D01*
X181921Y43276D01*
X182292Y43832D01*
X182423Y44488D01*
X182292Y45144D01*
X181921Y45700D01*
X181719Y45835D01*
Y50621D01*
X181921Y50757D01*
X182292Y51313D01*
X182423Y51968D01*
X182292Y52624D01*
X181921Y53180D01*
X181365Y53552D01*
X180709Y53683D01*
D02*
G37*
G36*
X147638D02*
X146982Y53552D01*
X146426Y53180D01*
X146054Y52624D01*
X145924Y51968D01*
X146054Y51313D01*
X146426Y50757D01*
X146628Y50621D01*
Y45835D01*
X146426Y45700D01*
X146054Y45144D01*
X145924Y44488D01*
X146054Y43832D01*
X146426Y43276D01*
X146982Y42905D01*
X147638Y42774D01*
X148294Y42905D01*
X148850Y43276D01*
X149221Y43832D01*
X149352Y44488D01*
X149221Y45144D01*
X148850Y45700D01*
X148648Y45835D01*
Y50621D01*
X148850Y50757D01*
X149221Y51313D01*
X149352Y51968D01*
X149221Y52624D01*
X148850Y53180D01*
X148294Y53552D01*
X147638Y53683D01*
D02*
G37*
G36*
X386027Y43907D02*
Y40751D01*
X389182D01*
X389093Y41426D01*
X388755Y42242D01*
X388218Y42942D01*
X387518Y43480D01*
X386702Y43818D01*
X386027Y43907D01*
D02*
G37*
G36*
X385627D02*
X384951Y43818D01*
X384136Y43480D01*
X383436Y42942D01*
X382898Y42242D01*
X382560Y41426D01*
X382471Y40751D01*
X385627D01*
Y43907D01*
D02*
G37*
G36*
X389182Y40351D02*
X386027D01*
Y37196D01*
X386702Y37285D01*
X387518Y37623D01*
X388218Y38160D01*
X388755Y38860D01*
X389093Y39676D01*
X389182Y40351D01*
D02*
G37*
G36*
X385627D02*
X382471D01*
X382560Y39676D01*
X382898Y38860D01*
X383436Y38160D01*
X384136Y37623D01*
X384951Y37285D01*
X385627Y37196D01*
Y40351D01*
D02*
G37*
G36*
X375827Y43933D02*
X374952Y43818D01*
X374136Y43480D01*
X373436Y42942D01*
X372898Y42242D01*
X372560Y41426D01*
X372445Y40551D01*
X372560Y39676D01*
X372898Y38860D01*
X373436Y38160D01*
X374136Y37623D01*
X374952Y37285D01*
X375827Y37170D01*
X376702Y37285D01*
X377518Y37623D01*
X378218Y38160D01*
X378755Y38860D01*
X379093Y39676D01*
X379208Y40551D01*
X379093Y41426D01*
X378755Y42242D01*
X378218Y42942D01*
X377518Y43480D01*
X376702Y43818D01*
X375827Y43933D01*
D02*
G37*
G36*
X386027Y33906D02*
Y30751D01*
X389182D01*
X389093Y31426D01*
X388755Y32242D01*
X388218Y32942D01*
X387518Y33480D01*
X386702Y33818D01*
X386027Y33906D01*
D02*
G37*
G36*
X385627D02*
X384951Y33818D01*
X384136Y33480D01*
X383436Y32942D01*
X382898Y32242D01*
X382560Y31426D01*
X382471Y30751D01*
X385627D01*
Y33906D01*
D02*
G37*
G36*
Y30351D02*
X382471D01*
X382560Y29676D01*
X382898Y28860D01*
X383436Y28160D01*
X384136Y27623D01*
X384951Y27285D01*
X385627Y27196D01*
Y30351D01*
D02*
G37*
G36*
X389182D02*
X386027D01*
Y27196D01*
X386702Y27285D01*
X387518Y27623D01*
X388218Y28160D01*
X388755Y28860D01*
X389093Y29676D01*
X389182Y30351D01*
D02*
G37*
G36*
X375827Y33933D02*
X374952Y33818D01*
X374136Y33480D01*
X373436Y32942D01*
X372898Y32242D01*
X372560Y31426D01*
X372445Y30551D01*
X372560Y29676D01*
X372898Y28860D01*
X373436Y28160D01*
X374136Y27623D01*
X374952Y27285D01*
X375827Y27169D01*
X376702Y27285D01*
X377518Y27623D01*
X378218Y28160D01*
X378755Y28860D01*
X379093Y29676D01*
X379208Y30551D01*
X379093Y31426D01*
X378755Y32242D01*
X378218Y32942D01*
X377518Y33480D01*
X376702Y33818D01*
X375827Y33933D01*
D02*
G37*
G36*
X386027Y23907D02*
Y20751D01*
X389182D01*
X389093Y21426D01*
X388755Y22242D01*
X388218Y22942D01*
X387518Y23480D01*
X386702Y23818D01*
X386027Y23907D01*
D02*
G37*
G36*
X385627D02*
X384951Y23818D01*
X384136Y23480D01*
X383436Y22942D01*
X382898Y22242D01*
X382560Y21426D01*
X382471Y20751D01*
X385627D01*
Y23907D01*
D02*
G37*
G36*
X389182Y20351D02*
X386027D01*
Y17196D01*
X386702Y17285D01*
X387518Y17623D01*
X388218Y18160D01*
X388755Y18860D01*
X389093Y19676D01*
X389182Y20351D01*
D02*
G37*
G36*
X385627D02*
X382471D01*
X382560Y19676D01*
X382898Y18860D01*
X383436Y18160D01*
X384136Y17623D01*
X384951Y17285D01*
X385627Y17196D01*
Y20351D01*
D02*
G37*
G36*
X375827Y23933D02*
X374952Y23818D01*
X374136Y23480D01*
X373436Y22942D01*
X372898Y22242D01*
X372560Y21426D01*
X372445Y20551D01*
X372560Y19676D01*
X372898Y18860D01*
X373436Y18160D01*
X374136Y17623D01*
X374952Y17285D01*
X375827Y17169D01*
X376702Y17285D01*
X377518Y17623D01*
X378218Y18160D01*
X378755Y18860D01*
X379093Y19676D01*
X379208Y20551D01*
X379093Y21426D01*
X378755Y22242D01*
X378218Y22942D01*
X377518Y23480D01*
X376702Y23818D01*
X375827Y23933D01*
D02*
G37*
G36*
X386027Y13906D02*
Y10751D01*
X389182D01*
X389093Y11426D01*
X388755Y12242D01*
X388218Y12942D01*
X387518Y13480D01*
X386702Y13818D01*
X386027Y13906D01*
D02*
G37*
G36*
X385627D02*
X384951Y13818D01*
X384136Y13480D01*
X383436Y12942D01*
X382898Y12242D01*
X382560Y11426D01*
X382471Y10751D01*
X385627D01*
Y13906D01*
D02*
G37*
G36*
X255512Y15350D02*
X254637Y15235D01*
X253821Y14897D01*
X253121Y14360D01*
X252583Y13659D01*
X252245Y12844D01*
X252130Y11969D01*
X252245Y11093D01*
X252583Y10278D01*
X253121Y9577D01*
X253821Y9040D01*
X254637Y8702D01*
X255512Y8587D01*
X256387Y8702D01*
X257203Y9040D01*
X257903Y9577D01*
X258440Y10278D01*
X258778Y11093D01*
X258893Y11969D01*
X258778Y12844D01*
X258440Y13659D01*
X257903Y14360D01*
X257203Y14897D01*
X256387Y15235D01*
X255512Y15350D01*
D02*
G37*
G36*
X245512D02*
X244637Y15235D01*
X243821Y14897D01*
X243121Y14360D01*
X242583Y13659D01*
X242245Y12844D01*
X242130Y11969D01*
X242245Y11093D01*
X242583Y10278D01*
X243121Y9577D01*
X243821Y9040D01*
X244637Y8702D01*
X245512Y8587D01*
X246387Y8702D01*
X247203Y9040D01*
X247903Y9577D01*
X248440Y10278D01*
X248778Y11093D01*
X248893Y11969D01*
X248778Y12844D01*
X248440Y13659D01*
X247903Y14360D01*
X247203Y14897D01*
X246387Y15235D01*
X245512Y15350D01*
D02*
G37*
G36*
X235512D02*
X234637Y15235D01*
X233821Y14897D01*
X233121Y14360D01*
X232583Y13659D01*
X232245Y12844D01*
X232130Y11969D01*
X232245Y11093D01*
X232583Y10278D01*
X233121Y9577D01*
X233821Y9040D01*
X234637Y8702D01*
X235512Y8587D01*
X236387Y8702D01*
X237203Y9040D01*
X237903Y9577D01*
X238440Y10278D01*
X238778Y11093D01*
X238894Y11969D01*
X238778Y12844D01*
X238440Y13659D01*
X237903Y14360D01*
X237203Y14897D01*
X236387Y15235D01*
X235512Y15350D01*
D02*
G37*
G36*
X225512D02*
X224637Y15235D01*
X223821Y14897D01*
X223121Y14360D01*
X222583Y13659D01*
X222245Y12844D01*
X222130Y11969D01*
X222245Y11093D01*
X222583Y10278D01*
X223121Y9577D01*
X223821Y9040D01*
X224637Y8702D01*
X225512Y8587D01*
X226387Y8702D01*
X227203Y9040D01*
X227903Y9577D01*
X228440Y10278D01*
X228778Y11093D01*
X228893Y11969D01*
X228778Y12844D01*
X228440Y13659D01*
X227903Y14360D01*
X227203Y14897D01*
X226387Y15235D01*
X225512Y15350D01*
D02*
G37*
G36*
X215512D02*
X214637Y15235D01*
X213821Y14897D01*
X213121Y14360D01*
X212583Y13659D01*
X212245Y12844D01*
X212130Y11969D01*
X212245Y11093D01*
X212583Y10278D01*
X213121Y9577D01*
X213821Y9040D01*
X214637Y8702D01*
X215512Y8587D01*
X216387Y8702D01*
X217203Y9040D01*
X217903Y9577D01*
X218440Y10278D01*
X218778Y11093D01*
X218894Y11969D01*
X218778Y12844D01*
X218440Y13659D01*
X217903Y14360D01*
X217203Y14897D01*
X216387Y15235D01*
X215512Y15350D01*
D02*
G37*
G36*
X205512D02*
X204637Y15235D01*
X203821Y14897D01*
X203121Y14360D01*
X202583Y13659D01*
X202245Y12844D01*
X202130Y11969D01*
X202245Y11093D01*
X202583Y10278D01*
X203121Y9577D01*
X203821Y9040D01*
X204637Y8702D01*
X205512Y8587D01*
X206387Y8702D01*
X207203Y9040D01*
X207903Y9577D01*
X208440Y10278D01*
X208778Y11093D01*
X208893Y11969D01*
X208778Y12844D01*
X208440Y13659D01*
X207903Y14360D01*
X207203Y14897D01*
X206387Y15235D01*
X205512Y15350D01*
D02*
G37*
G36*
X195512D02*
X194637Y15235D01*
X193821Y14897D01*
X193121Y14360D01*
X192583Y13659D01*
X192245Y12844D01*
X192130Y11969D01*
X192245Y11093D01*
X192583Y10278D01*
X193121Y9577D01*
X193821Y9040D01*
X194637Y8702D01*
X195512Y8587D01*
X196387Y8702D01*
X197203Y9040D01*
X197903Y9577D01*
X198440Y10278D01*
X198778Y11093D01*
X198893Y11969D01*
X198778Y12844D01*
X198440Y13659D01*
X197903Y14360D01*
X197203Y14897D01*
X196387Y15235D01*
X195512Y15350D01*
D02*
G37*
G36*
X185512D02*
X184637Y15235D01*
X183821Y14897D01*
X183121Y14360D01*
X182583Y13659D01*
X182245Y12844D01*
X182130Y11969D01*
X182245Y11093D01*
X182583Y10278D01*
X183121Y9577D01*
X183821Y9040D01*
X184637Y8702D01*
X185512Y8587D01*
X186387Y8702D01*
X187203Y9040D01*
X187903Y9577D01*
X188440Y10278D01*
X188778Y11093D01*
X188893Y11969D01*
X188778Y12844D01*
X188440Y13659D01*
X187903Y14360D01*
X187203Y14897D01*
X186387Y15235D01*
X185512Y15350D01*
D02*
G37*
G36*
X175512D02*
X174637Y15235D01*
X173821Y14897D01*
X173121Y14360D01*
X172583Y13659D01*
X172245Y12844D01*
X172130Y11969D01*
X172245Y11093D01*
X172583Y10278D01*
X173121Y9577D01*
X173821Y9040D01*
X174637Y8702D01*
X175512Y8587D01*
X176387Y8702D01*
X177203Y9040D01*
X177903Y9577D01*
X178440Y10278D01*
X178778Y11093D01*
X178893Y11969D01*
X178778Y12844D01*
X178440Y13659D01*
X177903Y14360D01*
X177203Y14897D01*
X176387Y15235D01*
X175512Y15350D01*
D02*
G37*
G36*
X165512D02*
X164637Y15235D01*
X163821Y14897D01*
X163121Y14360D01*
X162583Y13659D01*
X162245Y12844D01*
X162130Y11969D01*
X162245Y11093D01*
X162583Y10278D01*
X163121Y9577D01*
X163821Y9040D01*
X164637Y8702D01*
X165512Y8587D01*
X166387Y8702D01*
X167203Y9040D01*
X167903Y9577D01*
X168440Y10278D01*
X168778Y11093D01*
X168894Y11969D01*
X168778Y12844D01*
X168440Y13659D01*
X167903Y14360D01*
X167203Y14897D01*
X166387Y15235D01*
X165512Y15350D01*
D02*
G37*
G36*
X155512D02*
X154637Y15235D01*
X153821Y14897D01*
X153121Y14360D01*
X152583Y13659D01*
X152245Y12844D01*
X152130Y11969D01*
X152245Y11093D01*
X152583Y10278D01*
X153121Y9577D01*
X153821Y9040D01*
X154637Y8702D01*
X155512Y8587D01*
X156387Y8702D01*
X157203Y9040D01*
X157903Y9577D01*
X158440Y10278D01*
X158778Y11093D01*
X158894Y11969D01*
X158778Y12844D01*
X158440Y13659D01*
X157903Y14360D01*
X157203Y14897D01*
X156387Y15235D01*
X155512Y15350D01*
D02*
G37*
G36*
X145512D02*
X144637Y15235D01*
X143821Y14897D01*
X143121Y14360D01*
X142583Y13659D01*
X142245Y12844D01*
X142130Y11969D01*
X142245Y11093D01*
X142583Y10278D01*
X143121Y9577D01*
X143821Y9040D01*
X144637Y8702D01*
X145512Y8587D01*
X146387Y8702D01*
X147203Y9040D01*
X147903Y9577D01*
X148440Y10278D01*
X148778Y11093D01*
X148893Y11969D01*
X148778Y12844D01*
X148440Y13659D01*
X147903Y14360D01*
X147203Y14897D01*
X146387Y15235D01*
X145512Y15350D01*
D02*
G37*
G36*
X135512D02*
X134637Y15235D01*
X133821Y14897D01*
X133121Y14360D01*
X132583Y13659D01*
X132245Y12844D01*
X132130Y11969D01*
X132245Y11093D01*
X132583Y10278D01*
X133121Y9577D01*
X133821Y9040D01*
X134637Y8702D01*
X135512Y8587D01*
X136387Y8702D01*
X137203Y9040D01*
X137903Y9577D01*
X138440Y10278D01*
X138778Y11093D01*
X138893Y11969D01*
X138778Y12844D01*
X138440Y13659D01*
X137903Y14360D01*
X137203Y14897D01*
X136387Y15235D01*
X135512Y15350D01*
D02*
G37*
G36*
X125512D02*
X124637Y15235D01*
X123821Y14897D01*
X123121Y14360D01*
X122583Y13659D01*
X122245Y12844D01*
X122130Y11969D01*
X122245Y11093D01*
X122583Y10278D01*
X123121Y9577D01*
X123821Y9040D01*
X124637Y8702D01*
X125512Y8587D01*
X126387Y8702D01*
X127203Y9040D01*
X127903Y9577D01*
X128440Y10278D01*
X128778Y11093D01*
X128893Y11969D01*
X128778Y12844D01*
X128440Y13659D01*
X127903Y14360D01*
X127203Y14897D01*
X126387Y15235D01*
X125512Y15350D01*
D02*
G37*
G36*
X115512D02*
X114637Y15235D01*
X113821Y14897D01*
X113121Y14360D01*
X112583Y13659D01*
X112245Y12844D01*
X112130Y11969D01*
X112245Y11093D01*
X112583Y10278D01*
X113121Y9577D01*
X113821Y9040D01*
X114637Y8702D01*
X115512Y8587D01*
X116387Y8702D01*
X117203Y9040D01*
X117903Y9577D01*
X118440Y10278D01*
X118778Y11093D01*
X118894Y11969D01*
X118778Y12844D01*
X118440Y13659D01*
X117903Y14360D01*
X117203Y14897D01*
X116387Y15235D01*
X115512Y15350D01*
D02*
G37*
G36*
X105512D02*
X104637Y15235D01*
X103821Y14897D01*
X103121Y14360D01*
X102583Y13659D01*
X102245Y12844D01*
X102130Y11969D01*
X102245Y11093D01*
X102583Y10278D01*
X103121Y9577D01*
X103821Y9040D01*
X104637Y8702D01*
X105512Y8587D01*
X106387Y8702D01*
X107203Y9040D01*
X107903Y9577D01*
X108440Y10278D01*
X108778Y11093D01*
X108894Y11969D01*
X108778Y12844D01*
X108440Y13659D01*
X107903Y14360D01*
X107203Y14897D01*
X106387Y15235D01*
X105512Y15350D01*
D02*
G37*
G36*
X385627Y10351D02*
X382471D01*
X382560Y9676D01*
X382898Y8860D01*
X383436Y8160D01*
X384136Y7623D01*
X384951Y7285D01*
X385627Y7196D01*
Y10351D01*
D02*
G37*
G36*
X389182D02*
X386027D01*
Y7196D01*
X386702Y7285D01*
X387518Y7623D01*
X388218Y8160D01*
X388755Y8860D01*
X389093Y9676D01*
X389182Y10351D01*
D02*
G37*
G36*
X375827Y13933D02*
X374952Y13818D01*
X374136Y13480D01*
X373436Y12942D01*
X372898Y12242D01*
X372560Y11426D01*
X372445Y10551D01*
X372560Y9676D01*
X372898Y8860D01*
X373436Y8160D01*
X374136Y7623D01*
X374952Y7285D01*
X375827Y7169D01*
X376702Y7285D01*
X377518Y7623D01*
X378218Y8160D01*
X378755Y8860D01*
X379093Y9676D01*
X379208Y10551D01*
X379093Y11426D01*
X378755Y12242D01*
X378218Y12942D01*
X377518Y13480D01*
X376702Y13818D01*
X375827Y13933D01*
D02*
G37*
G36*
X255712Y5324D02*
Y2169D01*
X258867D01*
X258778Y2844D01*
X258440Y3659D01*
X257903Y4360D01*
X257203Y4897D01*
X256387Y5235D01*
X255712Y5324D01*
D02*
G37*
G36*
X255312D02*
X254637Y5235D01*
X253821Y4897D01*
X253121Y4360D01*
X252583Y3659D01*
X252245Y2844D01*
X252156Y2169D01*
X255312D01*
Y5324D01*
D02*
G37*
G36*
X235712D02*
Y2169D01*
X238867D01*
X238778Y2844D01*
X238440Y3659D01*
X237903Y4360D01*
X237203Y4897D01*
X236387Y5235D01*
X235712Y5324D01*
D02*
G37*
G36*
X235312D02*
X234637Y5235D01*
X233821Y4897D01*
X233121Y4360D01*
X232583Y3659D01*
X232245Y2844D01*
X232156Y2169D01*
X235312D01*
Y5324D01*
D02*
G37*
G36*
X215712D02*
Y2169D01*
X218867D01*
X218778Y2844D01*
X218440Y3659D01*
X217903Y4360D01*
X217203Y4897D01*
X216387Y5235D01*
X215712Y5324D01*
D02*
G37*
G36*
X215312D02*
X214637Y5235D01*
X213821Y4897D01*
X213121Y4360D01*
X212583Y3659D01*
X212245Y2844D01*
X212157Y2169D01*
X215312D01*
Y5324D01*
D02*
G37*
G36*
X195712D02*
Y2169D01*
X198867D01*
X198778Y2844D01*
X198440Y3659D01*
X197903Y4360D01*
X197203Y4897D01*
X196387Y5235D01*
X195712Y5324D01*
D02*
G37*
G36*
X195312D02*
X194637Y5235D01*
X193821Y4897D01*
X193121Y4360D01*
X192583Y3659D01*
X192245Y2844D01*
X192157Y2169D01*
X195312D01*
Y5324D01*
D02*
G37*
G36*
X175712D02*
Y2169D01*
X178867D01*
X178778Y2844D01*
X178440Y3659D01*
X177903Y4360D01*
X177203Y4897D01*
X176387Y5235D01*
X175712Y5324D01*
D02*
G37*
G36*
X175312D02*
X174637Y5235D01*
X173821Y4897D01*
X173121Y4360D01*
X172583Y3659D01*
X172245Y2844D01*
X172157Y2169D01*
X175312D01*
Y5324D01*
D02*
G37*
G36*
X155712D02*
Y2169D01*
X158867D01*
X158778Y2844D01*
X158440Y3659D01*
X157903Y4360D01*
X157203Y4897D01*
X156387Y5235D01*
X155712Y5324D01*
D02*
G37*
G36*
X155312D02*
X154637Y5235D01*
X153821Y4897D01*
X153121Y4360D01*
X152583Y3659D01*
X152245Y2844D01*
X152156Y2169D01*
X155312D01*
Y5324D01*
D02*
G37*
G36*
X135712D02*
Y2169D01*
X138867D01*
X138778Y2844D01*
X138440Y3659D01*
X137903Y4360D01*
X137203Y4897D01*
X136387Y5235D01*
X135712Y5324D01*
D02*
G37*
G36*
X135312D02*
X134637Y5235D01*
X133821Y4897D01*
X133121Y4360D01*
X132583Y3659D01*
X132245Y2844D01*
X132157Y2169D01*
X135312D01*
Y5324D01*
D02*
G37*
G36*
X115712D02*
Y2169D01*
X118867D01*
X118778Y2844D01*
X118440Y3659D01*
X117903Y4360D01*
X117203Y4897D01*
X116387Y5235D01*
X115712Y5324D01*
D02*
G37*
G36*
X115312D02*
X114637Y5235D01*
X113821Y4897D01*
X113121Y4360D01*
X112583Y3659D01*
X112245Y2844D01*
X112156Y2169D01*
X115312D01*
Y5324D01*
D02*
G37*
G36*
X389179Y3904D02*
X386027D01*
Y751D01*
X389179D01*
Y3904D01*
D02*
G37*
G36*
X385627D02*
X382474D01*
Y751D01*
X385627D01*
Y3904D01*
D02*
G37*
G36*
X307874Y24160D02*
X305942Y24008D01*
X304058Y23556D01*
X302268Y22814D01*
X300615Y21802D01*
X299142Y20543D01*
X297883Y19070D01*
X296871Y17417D01*
X296129Y15627D01*
X295677Y13743D01*
X295525Y11811D01*
X295677Y9879D01*
X296129Y7995D01*
X296871Y6205D01*
X297883Y4552D01*
X299142Y3079D01*
X300615Y1820D01*
X302268Y808D01*
X304058Y66D01*
X305942Y-386D01*
X307874Y-538D01*
X309806Y-386D01*
X311690Y66D01*
X313480Y808D01*
X315133Y1820D01*
X316606Y3079D01*
X317865Y4552D01*
X318877Y6205D01*
X319619Y7995D01*
X320071Y9879D01*
X320223Y11811D01*
X320071Y13743D01*
X319619Y15627D01*
X318877Y17417D01*
X317865Y19070D01*
X316606Y20543D01*
X315133Y21802D01*
X313480Y22814D01*
X311690Y23556D01*
X309806Y24008D01*
X307874Y24160D01*
D02*
G37*
G36*
X108865Y5321D02*
X102159D01*
Y-1384D01*
X108865D01*
Y5321D01*
D02*
G37*
G36*
X258867Y1768D02*
X255712D01*
Y-1387D01*
X256387Y-1298D01*
X257203Y-960D01*
X257903Y-423D01*
X258440Y278D01*
X258778Y1093D01*
X258867Y1768D01*
D02*
G37*
G36*
X255312D02*
X252156D01*
X252245Y1093D01*
X252583Y278D01*
X253121Y-423D01*
X253821Y-960D01*
X254637Y-1298D01*
X255312Y-1387D01*
Y1768D01*
D02*
G37*
G36*
X238867D02*
X235712D01*
Y-1387D01*
X236387Y-1298D01*
X237203Y-960D01*
X237903Y-423D01*
X238440Y278D01*
X238778Y1093D01*
X238867Y1768D01*
D02*
G37*
G36*
X235312D02*
X232156D01*
X232245Y1093D01*
X232583Y278D01*
X233121Y-423D01*
X233821Y-960D01*
X234637Y-1298D01*
X235312Y-1387D01*
Y1768D01*
D02*
G37*
G36*
X218867D02*
X215712D01*
Y-1387D01*
X216387Y-1298D01*
X217203Y-960D01*
X217903Y-423D01*
X218440Y278D01*
X218778Y1093D01*
X218867Y1768D01*
D02*
G37*
G36*
X215312D02*
X212157D01*
X212245Y1093D01*
X212583Y278D01*
X213121Y-423D01*
X213821Y-960D01*
X214637Y-1298D01*
X215312Y-1387D01*
Y1768D01*
D02*
G37*
G36*
X198867D02*
X195712D01*
Y-1387D01*
X196387Y-1298D01*
X197203Y-960D01*
X197903Y-423D01*
X198440Y278D01*
X198778Y1093D01*
X198867Y1768D01*
D02*
G37*
G36*
X195312D02*
X192157D01*
X192245Y1093D01*
X192583Y278D01*
X193121Y-423D01*
X193821Y-960D01*
X194637Y-1298D01*
X195312Y-1387D01*
Y1768D01*
D02*
G37*
G36*
X178867D02*
X175712D01*
Y-1387D01*
X176387Y-1298D01*
X177203Y-960D01*
X177903Y-423D01*
X178440Y278D01*
X178778Y1093D01*
X178867Y1768D01*
D02*
G37*
G36*
X175312D02*
X172157D01*
X172245Y1093D01*
X172583Y278D01*
X173121Y-423D01*
X173821Y-960D01*
X174637Y-1298D01*
X175312Y-1387D01*
Y1768D01*
D02*
G37*
G36*
X158867D02*
X155712D01*
Y-1387D01*
X156387Y-1298D01*
X157203Y-960D01*
X157903Y-423D01*
X158440Y278D01*
X158778Y1093D01*
X158867Y1768D01*
D02*
G37*
G36*
X155312D02*
X152156D01*
X152245Y1093D01*
X152583Y278D01*
X153121Y-423D01*
X153821Y-960D01*
X154637Y-1298D01*
X155312Y-1387D01*
Y1768D01*
D02*
G37*
G36*
X138867D02*
X135712D01*
Y-1387D01*
X136387Y-1298D01*
X137203Y-960D01*
X137903Y-423D01*
X138440Y278D01*
X138778Y1093D01*
X138867Y1768D01*
D02*
G37*
G36*
X135312D02*
X132157D01*
X132245Y1093D01*
X132583Y278D01*
X133121Y-423D01*
X133821Y-960D01*
X134637Y-1298D01*
X135312Y-1387D01*
Y1768D01*
D02*
G37*
G36*
X118867D02*
X115712D01*
Y-1387D01*
X116387Y-1298D01*
X117203Y-960D01*
X117903Y-423D01*
X118440Y278D01*
X118778Y1093D01*
X118867Y1768D01*
D02*
G37*
G36*
X115312D02*
X112156D01*
X112245Y1093D01*
X112583Y278D01*
X113121Y-423D01*
X113821Y-960D01*
X114637Y-1298D01*
X115312Y-1387D01*
Y1768D01*
D02*
G37*
G36*
X245512Y5350D02*
X244637Y5235D01*
X243821Y4897D01*
X243121Y4360D01*
X242583Y3659D01*
X242245Y2844D01*
X242130Y1969D01*
X242245Y1093D01*
X242583Y278D01*
X243121Y-423D01*
X243821Y-960D01*
X244637Y-1298D01*
X245512Y-1413D01*
X246387Y-1298D01*
X247203Y-960D01*
X247903Y-423D01*
X248440Y278D01*
X248778Y1093D01*
X248893Y1969D01*
X248778Y2844D01*
X248440Y3659D01*
X247903Y4360D01*
X247203Y4897D01*
X246387Y5235D01*
X245512Y5350D01*
D02*
G37*
G36*
X225512D02*
X224637Y5235D01*
X223821Y4897D01*
X223121Y4360D01*
X222583Y3659D01*
X222245Y2844D01*
X222130Y1969D01*
X222245Y1093D01*
X222583Y278D01*
X223121Y-423D01*
X223821Y-960D01*
X224637Y-1298D01*
X225512Y-1413D01*
X226387Y-1298D01*
X227203Y-960D01*
X227903Y-423D01*
X228440Y278D01*
X228778Y1093D01*
X228893Y1969D01*
X228778Y2844D01*
X228440Y3659D01*
X227903Y4360D01*
X227203Y4897D01*
X226387Y5235D01*
X225512Y5350D01*
D02*
G37*
G36*
X205512D02*
X204637Y5235D01*
X203821Y4897D01*
X203121Y4360D01*
X202583Y3659D01*
X202245Y2844D01*
X202130Y1969D01*
X202245Y1093D01*
X202583Y278D01*
X203121Y-423D01*
X203821Y-960D01*
X204637Y-1298D01*
X205512Y-1413D01*
X206387Y-1298D01*
X207203Y-960D01*
X207903Y-423D01*
X208440Y278D01*
X208778Y1093D01*
X208893Y1969D01*
X208778Y2844D01*
X208440Y3659D01*
X207903Y4360D01*
X207203Y4897D01*
X206387Y5235D01*
X205512Y5350D01*
D02*
G37*
G36*
X185512D02*
X184637Y5235D01*
X183821Y4897D01*
X183121Y4360D01*
X182583Y3659D01*
X182245Y2844D01*
X182130Y1969D01*
X182245Y1093D01*
X182583Y278D01*
X183121Y-423D01*
X183821Y-960D01*
X184637Y-1298D01*
X185512Y-1413D01*
X186387Y-1298D01*
X187203Y-960D01*
X187903Y-423D01*
X188440Y278D01*
X188778Y1093D01*
X188893Y1969D01*
X188778Y2844D01*
X188440Y3659D01*
X187903Y4360D01*
X187203Y4897D01*
X186387Y5235D01*
X185512Y5350D01*
D02*
G37*
G36*
X165512D02*
X164637Y5235D01*
X163821Y4897D01*
X163121Y4360D01*
X162583Y3659D01*
X162245Y2844D01*
X162130Y1969D01*
X162245Y1093D01*
X162583Y278D01*
X163121Y-423D01*
X163821Y-960D01*
X164637Y-1298D01*
X165512Y-1413D01*
X166387Y-1298D01*
X167203Y-960D01*
X167903Y-423D01*
X168440Y278D01*
X168778Y1093D01*
X168894Y1969D01*
X168778Y2844D01*
X168440Y3659D01*
X167903Y4360D01*
X167203Y4897D01*
X166387Y5235D01*
X165512Y5350D01*
D02*
G37*
G36*
X145512D02*
X144637Y5235D01*
X143821Y4897D01*
X143121Y4360D01*
X142583Y3659D01*
X142245Y2844D01*
X142130Y1969D01*
X142245Y1093D01*
X142583Y278D01*
X143121Y-423D01*
X143821Y-960D01*
X144637Y-1298D01*
X145512Y-1413D01*
X146387Y-1298D01*
X147203Y-960D01*
X147903Y-423D01*
X148440Y278D01*
X148778Y1093D01*
X148893Y1969D01*
X148778Y2844D01*
X148440Y3659D01*
X147903Y4360D01*
X147203Y4897D01*
X146387Y5235D01*
X145512Y5350D01*
D02*
G37*
G36*
X125512D02*
X124637Y5235D01*
X123821Y4897D01*
X123121Y4360D01*
X122583Y3659D01*
X122245Y2844D01*
X122130Y1969D01*
X122245Y1093D01*
X122583Y278D01*
X123121Y-423D01*
X123821Y-960D01*
X124637Y-1298D01*
X125512Y-1413D01*
X126387Y-1298D01*
X127203Y-960D01*
X127903Y-423D01*
X128440Y278D01*
X128778Y1093D01*
X128893Y1969D01*
X128778Y2844D01*
X128440Y3659D01*
X127903Y4360D01*
X127203Y4897D01*
X126387Y5235D01*
X125512Y5350D01*
D02*
G37*
G36*
X389179Y351D02*
X386027D01*
Y-2802D01*
X389179D01*
Y351D01*
D02*
G37*
G36*
X385627D02*
X382474D01*
Y-2802D01*
X385627D01*
Y351D01*
D02*
G37*
G36*
X375827Y3933D02*
X374952Y3818D01*
X374136Y3480D01*
X373436Y2942D01*
X372898Y2242D01*
X372560Y1426D01*
X372445Y551D01*
X372560Y-324D01*
X372898Y-1140D01*
X373436Y-1840D01*
X374136Y-2377D01*
X374952Y-2715D01*
X375827Y-2830D01*
X376702Y-2715D01*
X377518Y-2377D01*
X378218Y-1840D01*
X378755Y-1140D01*
X379093Y-324D01*
X379208Y551D01*
X379093Y1426D01*
X378755Y2242D01*
X378218Y2942D01*
X377518Y3480D01*
X376702Y3818D01*
X375827Y3933D01*
D02*
G37*
%LPD*%
D62*
X342913Y168504D02*
X347638D01*
X346457Y51968D02*
X351181Y47244D01*
X342913Y51968D02*
X346457D01*
X114567Y136614D02*
X120079D01*
X347638Y168504D02*
X352362Y173228D01*
X120079Y51968D02*
Y57874D01*
X318504Y49606D02*
Y57874D01*
X318504Y162598D02*
Y170866D01*
X285433Y49606D02*
Y57874D01*
X252362Y51969D02*
Y57874D01*
Y51969D02*
X252362Y51968D01*
X147638Y44488D02*
Y51968D01*
X153150Y51969D02*
X153150Y51968D01*
X153150Y51969D02*
Y57874D01*
X153150D02*
X153150D01*
X180709Y44488D02*
Y51968D01*
X186221Y51969D02*
X186221Y51968D01*
X186221Y51969D02*
Y57874D01*
X186221D02*
X186221D01*
X213780Y44488D02*
Y51969D01*
X219291Y51969D02*
X219291Y51969D01*
X219291Y51969D02*
Y57874D01*
X219291D02*
X219291D01*
X120079Y162598D02*
Y168504D01*
X153150Y162598D02*
Y168504D01*
X186221Y162598D02*
X186221Y162598D01*
Y168504D01*
X186221Y168504D01*
X252362Y168504D02*
X252362Y168504D01*
X252362Y162598D02*
Y168504D01*
X219291Y162598D02*
Y168504D01*
X285433Y162598D02*
Y170866D01*
X213779Y168504D02*
Y175984D01*
X180709Y168504D02*
Y175984D01*
X147638Y168504D02*
Y175984D01*
D65*
X255512Y1969D02*
D03*
X235512D02*
D03*
X215512D02*
D03*
X195512D02*
D03*
X175512D02*
D03*
X155512D02*
D03*
X135512D02*
D03*
X115512D02*
D03*
X385827Y90551D02*
D03*
Y80551D02*
D03*
Y70551D02*
D03*
Y60551D02*
D03*
Y50551D02*
D03*
X385827Y40551D02*
D03*
X385827Y30551D02*
D03*
Y20551D02*
D03*
Y10551D02*
D03*
X115118Y218504D02*
D03*
X135118D02*
D03*
X155118D02*
D03*
X175118D02*
D03*
X195118D02*
D03*
X215118Y218504D02*
D03*
X235118Y218504D02*
D03*
X255118D02*
D03*
X385827Y219921D02*
D03*
X385827Y209921D02*
D03*
X385827Y199921D02*
D03*
X385827Y189921D02*
D03*
X385827Y179921D02*
D03*
X385827Y169921D02*
D03*
X385827Y159921D02*
D03*
Y149921D02*
D03*
X385827Y139921D02*
D03*
X385827Y129921D02*
D03*
D67*
Y551D02*
D03*
D69*
X133465Y112598D02*
D03*
X167323Y112992D02*
D03*
X200394Y112598D02*
D03*
X249606D02*
D03*
X299606Y112992D02*
D03*
X348819D02*
D03*
Y107874D02*
D03*
X299606D02*
D03*
X249606D02*
D03*
X200394D02*
D03*
X167323D02*
D03*
X133465D02*
D03*
X103543Y27559D02*
D03*
X101969Y51575D02*
D03*
X111024Y79528D02*
D03*
Y90945D02*
D03*
X117323Y94882D02*
D03*
Y125591D02*
D03*
X110236Y142913D02*
D03*
Y129528D02*
D03*
X352362Y173228D02*
D03*
X351181Y47244D02*
D03*
X75590Y129134D02*
D03*
X50000Y129528D02*
D03*
X114567Y136614D02*
D03*
X120079D02*
D03*
X342913Y168504D02*
D03*
X342913Y51968D02*
D03*
X64272Y121811D02*
D03*
X35433Y82677D02*
D03*
X69921Y78583D02*
D03*
X33465Y79528D02*
D03*
Y76772D02*
D03*
X78445Y93307D02*
D03*
D70*
X180709Y44488D02*
D03*
X213780D02*
D03*
X147638D02*
D03*
X120079Y57874D02*
D03*
Y51968D02*
D03*
X318504Y57874D02*
D03*
Y49606D02*
D03*
X318504Y170866D02*
D03*
Y162598D02*
D03*
X285433Y49606D02*
D03*
Y57874D02*
D03*
X252362Y57874D02*
D03*
X252362Y51968D02*
D03*
X153150Y57874D02*
D03*
X147638Y51968D02*
D03*
X153150D02*
D03*
X186221Y57874D02*
D03*
X180709Y51968D02*
D03*
X186221D02*
D03*
X219291Y57874D02*
D03*
X213780Y51969D02*
D03*
X219291D02*
D03*
X120079Y168504D02*
D03*
X153150D02*
D03*
X186221D02*
D03*
X252362D02*
D03*
X219291D02*
D03*
X120079Y162598D02*
D03*
X147638Y168504D02*
D03*
Y175984D02*
D03*
X180709Y168504D02*
D03*
Y175984D02*
D03*
X213779D02*
D03*
Y168504D02*
D03*
X285433Y162598D02*
D03*
Y170866D02*
D03*
X252362Y162598D02*
D03*
X153150D02*
D03*
X186221D02*
D03*
X219291D02*
D03*
M02*
