M48
;Layer_Color=9474304
;FILE_FORMAT=2:5
INCH,LZ
;TYPE=PLATED
T1F00S00C0.00787
T2F00S00C0.01181
T3F00S00C0.01299
T4F00S00C0.03543
T5F00S00C0.03937
T6F00S00C0.05512
T7F00S00C0.11614
%
T01
X0170466Y0126224
X0168773Y0128643
X0168734Y0131595
Y0134548
Y0137501
Y0140454
Y0143406
Y0146359
Y0149312
Y0152264
Y0155217
X017336Y0154548
Y0151595
Y0148642
Y0145689
Y0142737
Y0139784
Y0136831
Y0133878
X0173395Y0130926
X0175079Y01285
X0177167Y0126412
X0179255Y0124325
X0181343Y0122237
X0183431Y0120149
X0185519Y0118061
X0187606Y0115973
X0189694Y0113885
X0191837Y0111853
X0194762Y0111451
X0197715
X0200667
X020362
X0206573
X0209526
X0212478
X0215431
X0218384
X0221337
X0224289
X0227242
X0230195
X0231665Y0115715
X0234618
X0237571
X0240524
X0243477
X0246429
X0249302Y0115032
X025139Y0112944
X0247766Y0110537
X0244959Y0111451
X0242006
X0239053
X0240016Y0120833
X0242968
X0245921
X0248874
X0251827
X0254779
X0257732
X0260685
X0263636Y0120744
X026597Y0118935
X0268058Y0116847
X0270146Y0114759
X0272234Y0112671
X0267018Y0111857
X026493Y0113944
X0262842Y0116032
X0259938Y0116569
X0256986
X0254033
X0237063Y0120833
X023411
X0231157
X0228205
X0225252
X0222299
X0219346
X0216394
X0213441
X0210488
X0207535
X0204583
X020163
X0198677
X0195724
X0193467Y0122737
X0191379Y0124825
X0189292Y0126913
X0187204Y0129001
X0185116Y0131088
X0183028Y0133176
X0182053Y0135964
Y0138917
Y0141869
Y0144822
Y0147775
Y0150727
Y015368
X0177624Y0154304
Y0151351
Y0148398
Y0145445
Y0142492
Y013954
Y0136587
Y0133634
X0178718Y0130892
X0180806Y0128804
X0182894Y0126716
X0184982Y0124628
X018707Y012254
X0189158Y0120452
X0191246Y0118364
X0193334Y0116276
X0196232Y0115715
X0199185
X0202138
X0205091
X0208043
X0210996
X0213949
X0216902
X0219854
X0222807
X022576
X0228713
X0227468Y0106431
X0224515
X0221562
X021861
X0215657
X0212704
X0209751
X0206799
X0203846
X0200893
X019794
X0194988
X0192035
X0189257Y0107432
X0187169Y010952
X0185081Y0111608
X0182993Y0113696
X0180905Y0115784
X0178818Y0117872
X017673Y011996
X0174642Y0122048
X0172554Y0124136
X0269106Y0109769
X0259842Y0200787
X0243701
X0243004Y022313
X0240158Y0223228
X0249213Y0225984
X0252756Y0227953
X0271654Y0238976
X027441Y0240756
X0290709Y0283701
X0291339Y0298819
X0290551Y0303543
X022498Y0304642
X0222892Y0302554
X0221817Y0299803
Y0296851
X021536Y0298409
Y0301362
Y0304315
X021931Y0305002
X0211096Y0304717
Y0301764
Y0298812
X0208431Y0299264
Y0296311
X0204167Y0297268
Y0300221
X0202557Y0302696
X0201096Y0305262
X0206665Y0304618
X0208382Y0302216
X0194783Y0303445
X0194862Y0298445
X0204167Y0285457
X0208431Y02845
Y0281547
X0211096Y0281095
Y0284048
X021536Y0283645
Y0286598
X0221817Y028504
Y0282087
Y0276182
Y0273229
X0221551Y0270288
X0219554Y0268113
X0217466Y0266025
X0215378Y0263937
X021329Y0261849
X0211202Y0259762
X0209114Y0257674
X0207026Y0255586
X0200935Y0256975
X0195666Y0257736
X0193578Y0255648
X019149Y025356
X0189402Y0251472
X0187314Y0249384
X0185226Y0247297
X0183138Y0245209
X018105Y0243121
X0178963Y0241033
X0176875Y0238945
X0174787Y0236857
X017336Y0234272
Y0231319
Y0228366
Y0225414
Y0222461
Y0219508
Y0216555
Y0213603
Y021065
Y0207697
Y0204744
Y0201792
Y0198839
Y0195886
Y0192933
Y0189981
Y0187028
Y0184075
Y0181122
Y017817
Y0175217
Y0172264
Y0169311
Y0166359
Y0163406
Y0160453
Y01575
X0177624Y0157256
Y0160209
Y0163162
Y0166114
Y0169067
Y017202
Y0174973
Y0177926
Y0180878
Y0183831
Y0186784
Y0189736
Y0192689
Y0195642
Y0198595
Y0201548
Y02045
Y0207453
Y0210406
Y0213358
Y0216311
Y0219264
Y0222217
Y0225169
Y0228122
Y0231075
X0177968Y0234008
X0180056Y0236096
X0182144Y0238183
X0184232Y0240271
X0186319Y0242359
X0188407Y0244447
X0190495Y0246535
X0192583Y0248623
X0194671Y0250711
X0196759Y0252799
X0200762Y0249322
X0196587Y0245146
X0194499Y0243058
X0192411Y024097
X0190323Y0238882
X0188235Y0236794
X0186147Y0234707
X0184059Y0232619
X0182053Y0230452
Y0227499
Y0224546
Y0221593
Y0218641
Y0215688
Y0212735
Y0209783
Y020683
Y0203877
Y0200924
Y0197971
Y0195019
Y0192066
Y0189113
Y0186161
Y0183208
Y0180255
Y0177302
Y0174349
Y0171397
Y0168444
Y0165491
Y0162539
Y0159586
Y0156633
X0168734Y015817
Y0161123
Y0164076
Y0167028
Y0169981
Y0172934
Y0175886
Y0178839
Y0181792
Y0184745
Y0187698
Y019065
Y0193603
Y0196556
Y0199509
Y0202461
Y0205414
Y0208367
Y0211319
Y0214272
Y0217225
Y0220178
Y022313
Y0226083
Y0229036
Y0231989
Y0234942
X0168957Y0237886
X0170928Y0240085
X0173016Y0242173
X0175103Y0244261
X0177191Y0246349
X0179279Y0248436
X0181367Y0250524
X0183455Y0252612
X0185543Y02547
X0187631Y0256788
X0189719Y0258876
X0191807Y0260964
X0193895Y0263052
X0195983Y026514
X0201929Y0264
X0207199Y0263238
X0209286Y0265326
X0211374Y0267414
X0213462Y0269502
X0215271Y0271836
X021536Y0274787
X0211096Y027519
X0208431Y0275642
X0210281Y0272352
X0208193Y0270264
X0202246Y0271403
T02
X024124Y0190847
X0244783
X0247215Y0200295
X0257579Y0207283
X0261122
X0256406Y0212953
X0246865Y0228435
X0242235
X0232874Y0227165
Y0231201
X0221752Y0229331
X021811Y0237008
X0217913Y024311
X0224803Y0241043
X0231523Y0244871
X0231521Y024833
X0231398Y0252756
X023691Y0250394
X0242126
X0249902Y0251969
X0253642
X0257382
X0271588Y0250263
X0274606Y0250354
X0260925Y0239567
Y0236811
X0250787Y0237992
X0249902Y0242126
X0220866Y0250394
X0215453Y0254545
X0206496Y0244193
X0206398Y0241043
X0210728Y023563
X0210925Y0231496
X0226619Y021351
X0227384Y0206063
X0201543Y0279102
X0201543Y0283102
X0194744Y0288445
X0194744Y0293445
X0173209Y0307067
Y0274823
X0282638Y0275236
X0290913Y0279102
X0291322Y0288603
X0291201Y0293445
X0275984Y0303543
T03
X0242421Y0209547
Y0214272
X0247146
X0247146Y0209547
T04
X0203622Y031063
X0213622
X0223622
X0235827
X0245827
X0255827
X0265827
Y0299213
X0255827
X0245827
X0235827
T05
X0233858Y0276772
X0248524Y027687
T06
X0235433Y0107087
X0255118
X0274803
Y0126772
X0255118
X0235433
T07
X0209842Y0192913
X0282677
M30
