M48
;Layer_Color=9474304
;FILE_FORMAT=2:5
INCH,LZ
;TYPE=PLATED
T1F00S00C0.01181
T2F00S00C0.01575
T3F00S00C0.02756
T4F00S00C0.03543
T5F00S00C0.05000
T6F00S00C0.10827
%
T01
X0340945Y0291732
X0345669Y0297638
Y0305512
X0355118Y0309449
Y0301575
Y0293701
X0402362Y0291732
X041811Y0290551
X041811Y0277953
X0435827
Y0290551
Y0302362
X0277165Y0305512
Y0297638
Y0313386
Y032126
Y0329134
X0264173Y032126
X0262205Y0341339
X0256299Y0350787
X0277165Y0352756
Y036063
X0277262Y0371604
X0273719
X0270176
X026742Y0373179
Y0376722
Y0380265
Y0383808
Y0387352
Y0390895
Y0394438
Y0397982
Y0401525
Y0405068
Y0408612
Y0412155
Y0416092
X0269782Y0418848
X0272144Y042121
X0275687
X0279231
X0282774
X0286317
X0289861
X0293404
X0296947
X0304034Y0418848
X0303937Y0416142
X0301575
X0301672Y0412942
X0304034
X0307087Y0416535
X0310236
Y0419685
X0307087
X0311811Y0409166
X0309152Y04031
X0311024Y0400787
X0306396Y0401131
Y0397588
Y0394045
Y0390501
Y0386958
X0310333
Y0383415
Y0379872
X0308268Y0377165
X0304724
X0301181
X0297638
X0294094
X0290551
X0287008
X0283465
X0279921
X0276378
X0272835
X0272538Y0380265
Y0383808
Y0387352
Y0390895
Y0394438
Y0397982
Y0401525
Y0405068
Y0408612
Y0412155
X0275687Y0415305
X0279231
X0282774
X0286317
X0289861
X0293404
X0293307Y0411811
X0289861Y0411761
X0286317
X0282774
X0279231
X0276868Y0408612
Y0405068
Y0401525
Y0397982
Y0394438
Y0390895
Y0387352
Y0383808
X0279624Y0383021
X0283168
X0286711
X0290254
X0293797
X0297341
X0300884
X0304427
X0310333Y0390501
X0264173Y0405905
X0260236Y0411024
X0261811Y0425591
X0314961Y0409166
X0317717
X0323228Y0400787
X0335039
X0345669Y0401575
Y0398031
Y0394488
Y0390945
Y0387402
Y0383858
Y0380315
Y0376772
Y0373228
X0348425Y0371654
X0351969
X0355512
X0354331Y0376772
X0357874
X0361417
X0364961
X0368504
X0372047
X0375591
X0379134
X0382677
X0386221
X0388583Y0379921
Y0383465
Y0387008
Y0390551
X0384646
Y0394094
Y0397638
Y0401181
X0387402Y040315
X0390551Y0400394
X0390158Y0409449
X0393307
X0396063
X0407087
X0416535Y0405118
X0417717Y0391732
X040748
X0396063
X0384646Y0387008
X0382677Y0383071
X0379134
X0375591
X0372047
X0368504
X0364961
X0361417
X0357874
X0355118Y0383858
Y0387402
Y0390945
Y0394488
Y0398031
Y0401575
Y0405118
Y0408661
X0350787
Y0412205
X0345669
Y0408661
Y0405118
X0350787
Y0401575
Y0398031
Y0394488
Y0390945
Y0387402
Y0383858
Y0380315
Y0376772
X0345669Y036063
Y0352756
Y0344882
Y0337008
Y0329134
Y032126
Y0313386
X0355118Y0317323
Y0325197
Y0333071
Y0340945
Y0348819
Y0356693
X033937Y0391732
X0329134
X0317717
X0345669Y0416142
X0348031Y0418898
X0350394Y042126
X0353937
X035748
X0361024
X0364567
X036811
X0371654
X0375197
X0382283Y0418898
X0382283Y0416142
X0379921
X0379921Y0412992
X0382283
X0385433Y0416535
X0388583
Y0419685
X0385433
X0371654Y0415354
X036811
X0364567
Y0411811
X036811
X0371654
X0361024
X035748
Y0415354
X0353937
X0361024
T02
X0351195Y0270252
X0351181Y0274803
X0274803Y027441
Y0269685
T03
X031315Y022874
Y023374
X0367953
Y022874
X0372953
Y023374
X0377953
Y022874
X0382953
Y023374
X0387953
Y022874
X0392953
Y023374
X030815
X030315
X029815
X029315
X028815
Y022874
X029315
X029815
X030315
X030815
T04
X0316063Y0252362
X0365276Y0251969
X0375276
X0385276
X0395276
X0306063Y0252362
X0296063
X0286063
X0247126Y0255551
Y0265551
Y0275551
Y0285551
Y0295551
Y0305551
X0237126
Y0295551
Y0285551
Y0275551
Y0265551
Y0255551
Y0245551
X0247126
Y0315551
Y0325551
Y0335551
Y0345551
Y0355551
Y0365551
Y0375551
Y0385551
Y0395551
Y0405551
Y0415551
Y0425551
Y0435551
X0237126
Y0425551
Y0415551
Y0405551
Y0395551
Y0385551
Y0375551
Y0365551
Y0355551
Y0345551
Y0335551
Y0325551
Y0315551
T05
X0433465Y0409055
Y0429055
T06
X0435039Y0226378
X0242126
Y0454724
X0435039
M30
