G04*
G04 #@! TF.GenerationSoftware,Altium Limited,Altium Designer,20.0.9 (164)*
G04*
G04 Layer_Physical_Order=1*
G04 Layer_Color=255*
%FSLAX25Y25*%
%MOIN*%
G70*
G01*
G75*
%ADD11C,0.00787*%
G04:AMPARAMS|DCode=13|XSize=23.62mil|YSize=11.81mil|CornerRadius=0mil|HoleSize=0mil|Usage=FLASHONLY|Rotation=135.000|XOffset=0mil|YOffset=0mil|HoleType=Round|Shape=Rectangle|*
%AMROTATEDRECTD13*
4,1,4,0.01253,-0.00418,0.00418,-0.01253,-0.01253,0.00418,-0.00418,0.01253,0.01253,-0.00418,0.0*
%
%ADD13ROTATEDRECTD13*%

G04:AMPARAMS|DCode=14|XSize=23.62mil|YSize=11.81mil|CornerRadius=0mil|HoleSize=0mil|Usage=FLASHONLY|Rotation=45.000|XOffset=0mil|YOffset=0mil|HoleType=Round|Shape=Rectangle|*
%AMROTATEDRECTD14*
4,1,4,-0.00418,-0.01253,-0.01253,-0.00418,0.00418,0.01253,0.01253,0.00418,-0.00418,-0.01253,0.0*
%
%ADD14ROTATEDRECTD14*%

G04:AMPARAMS|DCode=15|XSize=25.2mil|YSize=23.62mil|CornerRadius=5.91mil|HoleSize=0mil|Usage=FLASHONLY|Rotation=0.000|XOffset=0mil|YOffset=0mil|HoleType=Round|Shape=RoundedRectangle|*
%AMROUNDEDRECTD15*
21,1,0.02520,0.01181,0,0,0.0*
21,1,0.01339,0.02362,0,0,0.0*
1,1,0.01181,0.00669,-0.00591*
1,1,0.01181,-0.00669,-0.00591*
1,1,0.01181,-0.00669,0.00591*
1,1,0.01181,0.00669,0.00591*
%
%ADD15ROUNDEDRECTD15*%
%ADD16R,0.03000X0.01500*%
G04:AMPARAMS|DCode=17|XSize=20.47mil|YSize=22.05mil|CornerRadius=5.12mil|HoleSize=0mil|Usage=FLASHONLY|Rotation=270.000|XOffset=0mil|YOffset=0mil|HoleType=Round|Shape=RoundedRectangle|*
%AMROUNDEDRECTD17*
21,1,0.02047,0.01181,0,0,270.0*
21,1,0.01024,0.02205,0,0,270.0*
1,1,0.01024,-0.00591,-0.00512*
1,1,0.01024,-0.00591,0.00512*
1,1,0.01024,0.00591,0.00512*
1,1,0.01024,0.00591,-0.00512*
%
%ADD17ROUNDEDRECTD17*%
%ADD18R,0.03150X0.02165*%
%ADD19R,0.03543X0.02835*%
G04:AMPARAMS|DCode=20|XSize=25.2mil|YSize=23.62mil|CornerRadius=5.91mil|HoleSize=0mil|Usage=FLASHONLY|Rotation=270.000|XOffset=0mil|YOffset=0mil|HoleType=Round|Shape=RoundedRectangle|*
%AMROUNDEDRECTD20*
21,1,0.02520,0.01181,0,0,270.0*
21,1,0.01339,0.02362,0,0,270.0*
1,1,0.01181,-0.00591,-0.00669*
1,1,0.01181,-0.00591,0.00669*
1,1,0.01181,0.00591,0.00669*
1,1,0.01181,0.00591,-0.00669*
%
%ADD20ROUNDEDRECTD20*%
%ADD21R,0.06693X0.03937*%
%ADD22R,0.01181X0.02756*%
G04:AMPARAMS|DCode=23|XSize=20.47mil|YSize=22.05mil|CornerRadius=5.12mil|HoleSize=0mil|Usage=FLASHONLY|Rotation=180.000|XOffset=0mil|YOffset=0mil|HoleType=Round|Shape=RoundedRectangle|*
%AMROUNDEDRECTD23*
21,1,0.02047,0.01181,0,0,180.0*
21,1,0.01024,0.02205,0,0,180.0*
1,1,0.01024,-0.00512,0.00591*
1,1,0.01024,0.00512,0.00591*
1,1,0.01024,0.00512,-0.00591*
1,1,0.01024,-0.00512,-0.00591*
%
%ADD23ROUNDEDRECTD23*%
%ADD24C,0.03937*%
%ADD25R,0.09449X0.06693*%
%ADD26R,0.01181X0.03347*%
%ADD49C,0.01181*%
%ADD50C,0.01575*%
%ADD51C,0.05906*%
%ADD52R,0.05906X0.05906*%
%ADD53R,0.05906X0.05906*%
%ADD54C,0.17421*%
%ADD55C,0.08268*%
%ADD56C,0.06890*%
%ADD57C,0.01772*%
%ADD58C,0.02362*%
%ADD59C,0.02756*%
G36*
X147799Y245886D02*
X148563Y245570D01*
X149250Y245111D01*
X149835Y244526D01*
X150294Y243839D01*
X150611Y243075D01*
X150772Y242264D01*
Y241850D01*
Y5000D01*
Y4587D01*
X150611Y3776D01*
X150294Y3012D01*
X149835Y2324D01*
X149250Y1740D01*
X148563Y1280D01*
X147799Y964D01*
X146988Y803D01*
X4587D01*
X3776Y964D01*
X3012Y1280D01*
X2324Y1740D01*
X1740Y2324D01*
X1280Y3012D01*
X964Y3776D01*
X803Y4587D01*
Y5000D01*
Y241850D01*
Y242264D01*
X964Y243075D01*
X1280Y243839D01*
X1740Y244526D01*
X2324Y245111D01*
X3012Y245570D01*
X3776Y245886D01*
X4587Y246048D01*
X146988D01*
X147799Y245886D01*
D02*
G37*
%LPC*%
G36*
X81890Y241964D02*
X81015Y241849D01*
X80199Y241511D01*
X79498Y240974D01*
X78961Y240273D01*
X78762Y239793D01*
X75017D01*
X74818Y240273D01*
X74281Y240974D01*
X73581Y241511D01*
X72765Y241849D01*
X71890Y241964D01*
X71014Y241849D01*
X70199Y241511D01*
X69498Y240974D01*
X68961Y240273D01*
X68623Y239458D01*
X68508Y238583D01*
X68623Y237707D01*
X68961Y236892D01*
X69498Y236192D01*
X70199Y235654D01*
X71014Y235316D01*
X71890Y235201D01*
X72765Y235316D01*
X73581Y235654D01*
X74281Y236192D01*
X74818Y236892D01*
X75017Y237372D01*
X78762D01*
X78961Y236892D01*
X79498Y236192D01*
X80199Y235654D01*
X80679Y235455D01*
Y231474D01*
X80199Y231275D01*
X79498Y230738D01*
X78961Y230037D01*
X78762Y229557D01*
X75017D01*
X74818Y230037D01*
X74281Y230738D01*
X73581Y231275D01*
X72765Y231613D01*
X71890Y231728D01*
X71014Y231613D01*
X70199Y231275D01*
X69498Y230738D01*
X68961Y230037D01*
X68623Y229222D01*
X68508Y228346D01*
X68623Y227471D01*
X68961Y226656D01*
X69498Y225955D01*
X70199Y225418D01*
X71014Y225080D01*
X71890Y224965D01*
X72765Y225080D01*
X73581Y225418D01*
X74281Y225955D01*
X74818Y226656D01*
X75017Y227136D01*
X78762D01*
X78961Y226656D01*
X79498Y225955D01*
X80199Y225418D01*
X81015Y225080D01*
X81890Y224965D01*
X82765Y225080D01*
X83245Y225279D01*
X84616Y223908D01*
Y201981D01*
X84061Y201424D01*
X79718D01*
Y200451D01*
X78670D01*
X78670Y200451D01*
X78207Y200359D01*
X77814Y200097D01*
X77814Y200097D01*
X77428Y199711D01*
X75191D01*
Y199105D01*
X74921Y199051D01*
X74528Y198789D01*
X74528Y198789D01*
X73160Y197421D01*
X72897Y197028D01*
X72805Y196565D01*
X72805Y196565D01*
Y192359D01*
X72805Y192359D01*
X72897Y191896D01*
X73160Y191503D01*
X74476Y190187D01*
X74476Y190187D01*
X74804Y189968D01*
X74842Y189686D01*
X74372Y189041D01*
X70950D01*
X69298Y190694D01*
Y192231D01*
X65348D01*
Y189265D01*
X67869D01*
X69817Y187317D01*
X70145Y187098D01*
X70531Y187022D01*
X79748D01*
X79854Y186862D01*
X80156Y186661D01*
X80512Y186590D01*
X81693D01*
X82049Y186661D01*
X82168Y186740D01*
X82231Y186741D01*
X82896Y186056D01*
X82893Y186031D01*
X82668Y185695D01*
X82538Y185039D01*
X82668Y184383D01*
X83040Y183827D01*
X83596Y183456D01*
X84252Y183325D01*
X84908Y183456D01*
X85464Y183827D01*
X85835Y184383D01*
X85966Y185039D01*
X85835Y185695D01*
X85611Y186031D01*
X85579Y186272D01*
X86096Y186866D01*
X86354Y186867D01*
X86746Y186605D01*
X87402Y186475D01*
X88058Y186605D01*
X88614Y186977D01*
X88985Y187533D01*
X89116Y188189D01*
X88985Y188845D01*
X88614Y189401D01*
X88058Y189772D01*
X87402Y189903D01*
X86746Y189772D01*
X86234Y189430D01*
X86056Y189375D01*
X85727Y189532D01*
X85558Y190124D01*
X85515Y190349D01*
X85701Y190628D01*
X85772Y190984D01*
Y191296D01*
X84252D01*
Y191696D01*
X85772D01*
Y192008D01*
X85701Y192364D01*
X85500Y192665D01*
X85757Y193440D01*
X86417D01*
X86773Y193511D01*
X87075Y193713D01*
X87276Y194014D01*
X87347Y194370D01*
Y194682D01*
X85827D01*
Y195082D01*
X87347D01*
Y195394D01*
X87276Y195749D01*
X87075Y196051D01*
X86865Y196191D01*
X86815Y196614D01*
X86865Y197037D01*
X87075Y197177D01*
X87276Y197479D01*
X87347Y197835D01*
Y198858D01*
X87276Y199214D01*
X87075Y199516D01*
X87037Y199540D01*
Y220458D01*
X87765Y220759D01*
X98789Y209735D01*
Y170013D01*
X98754Y169980D01*
X98002Y169664D01*
X97785Y169809D01*
X97244Y169917D01*
X96703Y169809D01*
X96245Y169503D01*
X95939Y169045D01*
X95831Y168504D01*
X95939Y167963D01*
X96245Y167505D01*
X96373Y167419D01*
X96540Y166502D01*
X96247Y166141D01*
X95469Y166161D01*
X95399Y166265D01*
X95072Y166484D01*
X94685Y166561D01*
X93504D01*
X93117Y166484D01*
X92790Y166265D01*
X92571Y165938D01*
X92562Y165892D01*
X89685D01*
X89298Y165815D01*
X88971Y165596D01*
X88608Y165234D01*
X87821Y165560D01*
Y166903D01*
X88386D01*
X88772Y166980D01*
X89100Y167199D01*
X89319Y167527D01*
X89396Y167913D01*
Y169095D01*
X89319Y169481D01*
X89100Y169809D01*
X88772Y170028D01*
X88727Y170037D01*
Y171157D01*
X90193Y172623D01*
X91122Y172238D01*
X92126Y172106D01*
X93130Y172238D01*
X94065Y172626D01*
X94868Y173242D01*
X95485Y174045D01*
X95872Y174980D01*
X96004Y175984D01*
X95872Y176988D01*
X95485Y177923D01*
X94868Y178726D01*
X94065Y179343D01*
X93130Y179730D01*
X92126Y179862D01*
X91122Y179730D01*
X90187Y179343D01*
X89384Y178726D01*
X88767Y177923D01*
X88380Y176988D01*
X88248Y175984D01*
X88380Y174980D01*
X88765Y174051D01*
X87002Y172289D01*
X86783Y171961D01*
X86707Y171575D01*
Y170037D01*
X86661Y170028D01*
X86333Y169809D01*
X86330Y169804D01*
X85526Y169724D01*
X84947Y170235D01*
Y171968D01*
X84870Y172355D01*
X84651Y172683D01*
X83282Y174051D01*
X83667Y174980D01*
X83799Y175984D01*
X83667Y176988D01*
X83280Y177923D01*
X82664Y178726D01*
X81860Y179343D01*
X80925Y179730D01*
X79921Y179862D01*
X78917Y179730D01*
X77982Y179343D01*
X77179Y178726D01*
X76563Y177923D01*
X76175Y176988D01*
X76043Y175984D01*
X76175Y174980D01*
X76563Y174045D01*
X77179Y173242D01*
X77982Y172626D01*
X78917Y172238D01*
X79921Y172106D01*
X80925Y172238D01*
X81854Y172623D01*
X82927Y171550D01*
Y170037D01*
X82881Y170028D01*
X82554Y169809D01*
X82335Y169481D01*
X82258Y169095D01*
Y167913D01*
X82335Y167527D01*
X82554Y167199D01*
X82881Y166980D01*
X83268Y166903D01*
X83833D01*
Y164967D01*
X83074D01*
Y163189D01*
X82874D01*
Y162989D01*
X81884D01*
Y161411D01*
X82080D01*
Y159255D01*
X89573D01*
Y161411D01*
X89770D01*
Y163091D01*
X89789Y163189D01*
Y163558D01*
X90103Y163872D01*
X92562D01*
X92571Y163826D01*
X92790Y163498D01*
X92893Y163430D01*
X92925Y163326D01*
Y162658D01*
X92893Y162555D01*
X92790Y162486D01*
X92571Y162158D01*
X92494Y161772D01*
Y161302D01*
X94095D01*
X95695D01*
Y161772D01*
X95618Y162158D01*
X95399Y162486D01*
X95514Y163253D01*
X95908Y163671D01*
X97165D01*
X97165Y163671D01*
X97629Y163763D01*
X98021Y164026D01*
X100856Y166860D01*
X101119Y167253D01*
X101211Y167717D01*
X101211Y167717D01*
Y168466D01*
Y210236D01*
X101119Y210700D01*
X100856Y211092D01*
X100856Y211092D01*
X86683Y225266D01*
X84957Y226991D01*
X85156Y227471D01*
X85271Y228346D01*
X85156Y229222D01*
X84818Y230037D01*
X84281Y230738D01*
X83581Y231275D01*
X83100Y231474D01*
Y235455D01*
X83581Y235654D01*
X84281Y236192D01*
X84818Y236892D01*
X85156Y237707D01*
X85271Y238583D01*
X85156Y239458D01*
X84818Y240273D01*
X84281Y240974D01*
X83581Y241511D01*
X82765Y241849D01*
X81890Y241964D01*
D02*
G37*
G36*
X92090Y241938D02*
Y238783D01*
X95245D01*
X95156Y239458D01*
X94818Y240273D01*
X94281Y240974D01*
X93581Y241511D01*
X92765Y241849D01*
X92090Y241938D01*
D02*
G37*
G36*
X91690D02*
X91014Y241849D01*
X90199Y241511D01*
X89499Y240974D01*
X88961Y240273D01*
X88623Y239458D01*
X88534Y238783D01*
X91690D01*
Y241938D01*
D02*
G37*
G36*
X65242Y241935D02*
X62090D01*
Y238783D01*
X65242D01*
Y241935D01*
D02*
G37*
G36*
X61690D02*
X58537D01*
Y238783D01*
X61690D01*
Y241935D01*
D02*
G37*
G36*
X65242Y238383D02*
X62090D01*
Y235230D01*
X65242D01*
Y238383D01*
D02*
G37*
G36*
X61690D02*
X58537D01*
Y235230D01*
X61690D01*
Y238383D01*
D02*
G37*
G36*
X95245D02*
X92090D01*
Y235227D01*
X92765Y235316D01*
X93581Y235654D01*
X94281Y236192D01*
X94818Y236892D01*
X95156Y237707D01*
X95245Y238383D01*
D02*
G37*
G36*
X91690D02*
X88534D01*
X88623Y237707D01*
X88961Y236892D01*
X89499Y236192D01*
X90199Y235654D01*
X91014Y235316D01*
X91690Y235227D01*
Y238383D01*
D02*
G37*
G36*
X25591Y230731D02*
X25591Y230731D01*
X19685D01*
X19685Y230731D01*
X19375Y230669D01*
X19113Y230493D01*
X19113Y230493D01*
X17547Y228927D01*
X17323Y228972D01*
X16782Y228865D01*
X16324Y228558D01*
X16017Y228100D01*
X15910Y227559D01*
X16017Y227018D01*
X16324Y226560D01*
X16782Y226254D01*
X17323Y226146D01*
X17864Y226254D01*
X18322Y226560D01*
X18460Y226767D01*
X18509Y226784D01*
X19286D01*
X19335Y226767D01*
X19473Y226560D01*
X19932Y226254D01*
X20472Y226146D01*
X21013Y226254D01*
X21472Y226560D01*
X21598Y226750D01*
X24074D01*
X29518Y221306D01*
X29518Y221306D01*
X29781Y221130D01*
X30091Y221069D01*
X32638D01*
Y220878D01*
X32765Y220572D01*
X33071Y220445D01*
X36896Y220445D01*
X37071Y220445D01*
X37071Y220445D01*
X37377Y220572D01*
X37504Y220878D01*
X37504Y220878D01*
X37504Y221053D01*
Y222837D01*
X37618Y222940D01*
X38201Y223253D01*
X41399Y220055D01*
Y194939D01*
X41399Y194938D01*
X41460Y194629D01*
X41636Y194366D01*
X61396Y174607D01*
Y143307D01*
X61396Y143307D01*
X61457Y142997D01*
X61633Y142735D01*
X77584Y126783D01*
X77537Y125717D01*
X77025Y125205D01*
X75961Y125156D01*
X71944Y129173D01*
X72125Y130085D01*
X71941Y131009D01*
X71418Y131793D01*
X70635Y132316D01*
X69710Y132500D01*
X68786Y132316D01*
X68003Y131793D01*
X67479Y131009D01*
X67295Y130085D01*
X67479Y129161D01*
X68003Y128377D01*
X68786Y127854D01*
X69710Y127670D01*
X70635Y127854D01*
X70838Y127990D01*
X74367Y124461D01*
X74010Y123704D01*
X70845D01*
X70331Y124472D01*
X69548Y124995D01*
X68624Y125179D01*
X67699Y124995D01*
X66916Y124472D01*
X66393Y123688D01*
X66209Y122764D01*
X66393Y121840D01*
X66916Y121057D01*
X67699Y120533D01*
X68624Y120349D01*
X69548Y120533D01*
X70331Y121057D01*
X70855Y121840D01*
X70903Y122085D01*
X72791D01*
X73118Y121298D01*
X72412Y120592D01*
X74499Y118504D01*
X72412Y116416D01*
X72412D01*
X71818Y115947D01*
X71653Y115980D01*
X71113Y115872D01*
X70654Y115566D01*
X70348Y115108D01*
X70241Y114567D01*
X70286Y114339D01*
X70286Y114339D01*
X69692Y113732D01*
X69667Y113721D01*
X69646Y113725D01*
X69334D01*
Y112205D01*
X69134D01*
D01*
X69334D01*
Y110685D01*
X69646D01*
X70001Y110755D01*
X70303Y110957D01*
X70443Y111167D01*
X70866Y111216D01*
X71289Y111167D01*
X71429Y110957D01*
X71731Y110755D01*
X72087Y110685D01*
X73110D01*
X73466Y110755D01*
X73768Y110957D01*
X73969Y111258D01*
X73996Y111396D01*
X75169D01*
X75169Y111396D01*
X75479Y111457D01*
X75741Y111633D01*
X75961Y111852D01*
X75967Y111856D01*
X77025Y111803D01*
X77146Y111681D01*
X78264Y112799D01*
X79382Y113917D01*
X77431Y115868D01*
X74796Y118504D01*
X78204Y121913D01*
X78454Y121909D01*
X79128Y121723D01*
X79316Y121442D01*
X79774Y121135D01*
X80315Y121028D01*
X80856Y121135D01*
X81314Y121442D01*
X82072D01*
X82530Y121135D01*
X83071Y121028D01*
X83612Y121135D01*
X84070Y121442D01*
X84376Y121900D01*
X84484Y122441D01*
X84376Y122982D01*
X84070Y123440D01*
Y124198D01*
X84376Y124656D01*
X84484Y125197D01*
X84376Y125738D01*
X84070Y126196D01*
X83789Y126384D01*
X83603Y127058D01*
X83599Y127307D01*
X84252Y127960D01*
X85496Y126716D01*
X88280Y123933D01*
X91064Y121149D01*
X93708Y118504D01*
X90109Y114905D01*
X89195Y114854D01*
X89075Y114950D01*
X88968Y115491D01*
X88661Y115949D01*
X88203Y116255D01*
X87662Y116363D01*
X87122Y116255D01*
X86663Y115949D01*
X86357Y115491D01*
X86249Y114950D01*
X86357Y114409D01*
X86663Y113951D01*
X87122Y113645D01*
X87634Y113543D01*
X87718Y113418D01*
X87910Y113010D01*
X87851Y112647D01*
X84252Y109048D01*
X83599Y109700D01*
X83603Y109950D01*
X83789Y110624D01*
X84070Y110812D01*
X84376Y111270D01*
X84484Y111811D01*
X84376Y112352D01*
X84070Y112810D01*
Y113568D01*
X84376Y114026D01*
X84484Y114567D01*
X84376Y115108D01*
X84070Y115566D01*
X83612Y115872D01*
X83071Y115980D01*
X82530Y115872D01*
X82072Y115566D01*
X81765Y115108D01*
X81658Y114567D01*
X81705Y114331D01*
X80336Y112963D01*
X79665Y113634D01*
X78547Y112516D01*
X77429Y111398D01*
X79811Y109017D01*
X79509Y108290D01*
X75929D01*
X75802Y108479D01*
X75344Y108786D01*
X74803Y108893D01*
X74262Y108786D01*
X73804Y108479D01*
X73498Y108021D01*
X73390Y107480D01*
X73464Y107108D01*
X73159Y106547D01*
X72964Y106321D01*
X67205D01*
X62802Y110724D01*
Y114758D01*
X62998D01*
Y118304D01*
X57874D01*
X52750D01*
Y114758D01*
X52947D01*
Y113644D01*
X50280D01*
X50268Y113702D01*
X50067Y114004D01*
X49857Y114144D01*
X49808Y114567D01*
X49857Y114990D01*
X50067Y115130D01*
X50268Y115432D01*
X50339Y115787D01*
Y116099D01*
X48819D01*
X47299D01*
Y115787D01*
X47369Y115432D01*
X47571Y115130D01*
X47781Y114990D01*
X47830Y114567D01*
X47781Y114144D01*
X47571Y114004D01*
X47369Y113702D01*
X47299Y113347D01*
Y112323D01*
X47369Y111967D01*
X47571Y111665D01*
X47873Y111464D01*
X48228Y111393D01*
X49409D01*
X49765Y111464D01*
X50067Y111665D01*
X50268Y111967D01*
X50280Y112025D01*
X52947D01*
Y110722D01*
X52946Y110722D01*
X52671Y110049D01*
X52632Y109990D01*
X52524Y109449D01*
X52632Y108908D01*
X52938Y108450D01*
X53396Y108143D01*
X53937Y108036D01*
X54309Y108110D01*
X54870Y107805D01*
X55096Y107610D01*
Y106693D01*
X55096Y106693D01*
X55158Y106383D01*
X55333Y106121D01*
X58089Y103365D01*
X58089Y103365D01*
X58352Y103189D01*
X58661Y103128D01*
X58662Y103128D01*
X85827D01*
X85827Y103128D01*
X86137Y103189D01*
X86399Y103365D01*
X89223Y106188D01*
X89398Y106451D01*
X89460Y106761D01*
Y108259D01*
X89398Y108569D01*
X89223Y108832D01*
X88865Y109189D01*
X90516Y110839D01*
X93428Y113751D01*
X97273Y109906D01*
X97273Y109906D01*
X97536Y109731D01*
X97614Y109715D01*
Y109646D01*
X97684Y109290D01*
X97886Y108988D01*
X98188Y108787D01*
X98543Y108716D01*
X98543Y108716D01*
X98551Y108687D01*
X98434Y108402D01*
X97953Y107845D01*
X97842Y107823D01*
X97514Y107604D01*
X97295Y107276D01*
X97218Y106890D01*
Y106499D01*
X98898D01*
Y106299D01*
X99098D01*
Y104699D01*
X99567D01*
X99953Y104776D01*
X100281Y104994D01*
X100350Y105098D01*
X100453Y105130D01*
X101121D01*
X101225Y105098D01*
X101294Y104994D01*
X101621Y104776D01*
X102008Y104699D01*
X103347D01*
X103733Y104776D01*
X103915Y104897D01*
X104443Y104729D01*
X104703Y104549D01*
Y16516D01*
X99003Y10817D01*
X98704Y11047D01*
X97601Y11504D01*
X96417Y11660D01*
X95234Y11504D01*
X94131Y11047D01*
X93184Y10320D01*
X92457Y9373D01*
X92000Y8270D01*
X91844Y7087D01*
X92000Y5903D01*
X92457Y4800D01*
X93184Y3853D01*
X94131Y3126D01*
X95234Y2669D01*
X96417Y2514D01*
X97601Y2669D01*
X98704Y3126D01*
X99651Y3853D01*
X100378Y4800D01*
X100835Y5903D01*
X100990Y7087D01*
X100835Y8270D01*
X100378Y9373D01*
X100148Y9673D01*
X106084Y15609D01*
X106084Y15609D01*
X106260Y15871D01*
X106321Y16181D01*
X106321Y16181D01*
Y105838D01*
X106321Y105838D01*
X106260Y106148D01*
X106084Y106410D01*
X106084Y106410D01*
X105623Y106871D01*
X105360Y107047D01*
X105051Y107108D01*
X104311Y107119D01*
X104279Y107276D01*
X104061Y107604D01*
X103733Y107823D01*
X103408Y107887D01*
Y108800D01*
X103689Y108988D01*
X103890Y109290D01*
X103961Y109646D01*
Y110827D01*
X103890Y111182D01*
X103689Y111484D01*
X103387Y111686D01*
X103032Y111756D01*
X102008D01*
X101652Y111686D01*
X101350Y111484D01*
X101210Y111275D01*
X100787Y111225D01*
X100364Y111275D01*
X100224Y111484D01*
X99923Y111686D01*
X99567Y111756D01*
X98543D01*
X98188Y111686D01*
X97945Y111523D01*
X94572Y114896D01*
X96092Y116416D01*
X94004Y118504D01*
X96092Y120592D01*
X95943Y120741D01*
X98604Y123401D01*
X98779Y123664D01*
X98841Y123974D01*
X98841Y123974D01*
Y141339D01*
X98779Y141648D01*
X98604Y141911D01*
X89007Y151508D01*
X89394Y152234D01*
X89471Y152218D01*
X90472D01*
X90472Y152218D01*
X92562D01*
X92571Y152173D01*
X92790Y151845D01*
X93117Y151626D01*
X93504Y151549D01*
X94685D01*
X95072Y151626D01*
X95399Y151845D01*
X95618Y152173D01*
X95619Y152179D01*
X96620D01*
X96639Y152150D01*
X97097Y151844D01*
X97638Y151737D01*
X98178Y151844D01*
X98637Y152150D01*
X98943Y152609D01*
X99051Y153150D01*
X98943Y153690D01*
X98637Y154149D01*
X98178Y154455D01*
X97638Y154563D01*
X97097Y154455D01*
X96714Y154199D01*
X95635D01*
X95618Y154284D01*
X95399Y154612D01*
X95296Y154681D01*
X95264Y154784D01*
Y155452D01*
X95296Y155556D01*
X95399Y155624D01*
X95618Y155952D01*
X95695Y156339D01*
Y156808D01*
X94095D01*
X92494D01*
Y156339D01*
X92571Y155952D01*
X92790Y155624D01*
X92794Y155621D01*
X92874Y154818D01*
X92364Y154238D01*
X90473D01*
X90472Y154238D01*
X89890D01*
X89789Y154339D01*
Y154921D01*
X89770Y155019D01*
Y156699D01*
X89573D01*
Y158855D01*
X82080D01*
Y157405D01*
X81884Y156699D01*
X81102Y156137D01*
X80562Y156030D01*
X80103Y155724D01*
X79797Y155265D01*
X79689Y154724D01*
X79797Y154184D01*
X79833Y154130D01*
X79839Y154059D01*
X79465Y153277D01*
X79431Y153273D01*
X79214Y153418D01*
X78858Y153489D01*
X77835D01*
X77479Y153418D01*
X77177Y153216D01*
X77037Y153007D01*
X76614Y152957D01*
X76191Y153007D01*
X76051Y153216D01*
X75749Y153418D01*
X75394Y153489D01*
X75082D01*
Y151969D01*
X74882D01*
Y151769D01*
X73440D01*
Y151378D01*
X73511Y151022D01*
X73577Y150923D01*
X73713Y150720D01*
Y150067D01*
X73577Y149864D01*
X73511Y149765D01*
X73440Y149409D01*
Y149019D01*
X74882D01*
Y148819D01*
X75082D01*
Y147299D01*
X75394D01*
X75749Y147370D01*
X76051Y147571D01*
X76191Y147781D01*
X76614Y147830D01*
X77037Y147781D01*
X77177Y147571D01*
X77479Y147370D01*
X77835Y147299D01*
X78858D01*
X79214Y147370D01*
X79516Y147571D01*
X79717Y147873D01*
X79744Y148010D01*
X82807D01*
X83113Y147655D01*
X83253Y147442D01*
X83313Y147255D01*
X83233Y146850D01*
X83340Y146310D01*
X83647Y145851D01*
X84105Y145545D01*
X84646Y145437D01*
X84870Y145482D01*
X91710Y138641D01*
Y127107D01*
X90644Y126040D01*
X89912Y126772D01*
X89976Y127741D01*
X90282Y128199D01*
X90389Y128740D01*
X90282Y129281D01*
X89976Y129739D01*
X89517Y130046D01*
X88976Y130153D01*
X88752Y130109D01*
X70949Y147912D01*
Y179885D01*
X70949Y179885D01*
X70888Y180195D01*
X70712Y180457D01*
X61045Y190124D01*
Y200449D01*
X61235Y200576D01*
X61542Y201034D01*
X61649Y201575D01*
X61542Y202116D01*
X61235Y202574D01*
X60777Y202880D01*
X60236Y202988D01*
X59696Y202880D01*
X59237Y202574D01*
X58931Y202116D01*
X58823Y201575D01*
X58931Y201034D01*
X59237Y200576D01*
X59427Y200449D01*
Y190469D01*
X58640Y190143D01*
X55927Y192855D01*
Y202024D01*
X56117Y202151D01*
X56423Y202609D01*
X56531Y203150D01*
X56423Y203690D01*
X56117Y204149D01*
X55659Y204455D01*
X55118Y204563D01*
X54577Y204455D01*
X54119Y204149D01*
X53813Y203690D01*
X53705Y203150D01*
X53813Y202609D01*
X54119Y202151D01*
X54309Y202024D01*
Y192520D01*
X54309Y192520D01*
X54370Y192210D01*
X54546Y191947D01*
X67226Y179267D01*
Y177927D01*
X66846Y177712D01*
X66439Y177638D01*
X47972Y196105D01*
Y219854D01*
X48554Y220436D01*
X48778Y220392D01*
X49319Y220499D01*
X49777Y220806D01*
X50083Y221264D01*
X50191Y221805D01*
X50083Y222345D01*
X49777Y222804D01*
X49319Y223110D01*
X48778Y223218D01*
X48237Y223110D01*
X47779Y222804D01*
X47473Y222345D01*
X47365Y221805D01*
X47410Y221581D01*
X46590Y220761D01*
X46454Y220558D01*
X46235Y220496D01*
X46034Y220475D01*
X45614Y220507D01*
X45411Y220809D01*
X44953Y221116D01*
X44412Y221223D01*
X43872Y221116D01*
X43651Y220969D01*
X43640Y220964D01*
X42997Y220963D01*
X42653Y221090D01*
X37504Y226239D01*
X37504Y228378D01*
X37504Y228378D01*
X37377Y228684D01*
X37071Y228811D01*
X37071Y228811D01*
X36896Y228811D01*
X33071Y228811D01*
X32765Y228684D01*
X32638Y228378D01*
Y228187D01*
X28469D01*
X26163Y230493D01*
X25900Y230669D01*
X25591Y230731D01*
D02*
G37*
G36*
X92090Y231702D02*
Y228547D01*
X95245D01*
X95156Y229222D01*
X94818Y230037D01*
X94281Y230738D01*
X93581Y231275D01*
X92765Y231613D01*
X92090Y231702D01*
D02*
G37*
G36*
X91690D02*
X91014Y231613D01*
X90199Y231275D01*
X89499Y230738D01*
X88961Y230037D01*
X88623Y229222D01*
X88534Y228547D01*
X91690D01*
Y231702D01*
D02*
G37*
G36*
X65242Y231699D02*
X62090D01*
Y228547D01*
X65242D01*
Y231699D01*
D02*
G37*
G36*
X61690D02*
X58537D01*
Y228547D01*
X61690D01*
Y231699D01*
D02*
G37*
G36*
X133465Y228972D02*
X132924Y228865D01*
X132465Y228558D01*
X132159Y228100D01*
X132052Y227559D01*
X132096Y227335D01*
X126987Y222226D01*
X126811Y221963D01*
X126750Y221654D01*
X126750Y221654D01*
Y194827D01*
X126560Y194700D01*
X126254Y194241D01*
X126146Y193701D01*
X126254Y193160D01*
X126560Y192702D01*
X127018Y192395D01*
X127559Y192288D01*
X128100Y192395D01*
X128558Y192702D01*
X128865Y193160D01*
X128972Y193701D01*
X128865Y194241D01*
X128558Y194700D01*
X128368Y194827D01*
Y221318D01*
X133241Y226191D01*
X133465Y226146D01*
X134005Y226254D01*
X134464Y226560D01*
X134770Y227018D01*
X134878Y227559D01*
X134770Y228100D01*
X134464Y228558D01*
X134005Y228865D01*
X133465Y228972D01*
D02*
G37*
G36*
X65242Y228147D02*
X62090D01*
Y224994D01*
X65242D01*
Y228147D01*
D02*
G37*
G36*
X61690D02*
X58537D01*
Y224994D01*
X61690D01*
Y228147D01*
D02*
G37*
G36*
X95245D02*
X92090D01*
Y224991D01*
X92765Y225080D01*
X93581Y225418D01*
X94281Y225955D01*
X94818Y226656D01*
X95156Y227471D01*
X95245Y228147D01*
D02*
G37*
G36*
X91690D02*
X88534D01*
X88623Y227471D01*
X88961Y226656D01*
X89499Y225955D01*
X90199Y225418D01*
X91014Y225080D01*
X91690Y224991D01*
Y228147D01*
D02*
G37*
G36*
X69298Y199711D02*
X65348D01*
Y196746D01*
X69298D01*
Y199711D01*
D02*
G37*
G36*
X20472Y208500D02*
X19932Y208392D01*
X19473Y208086D01*
X19167Y207627D01*
X19060Y207087D01*
X19167Y206546D01*
X19473Y206087D01*
X19672Y205955D01*
Y197244D01*
Y195254D01*
X19490Y195133D01*
X19184Y194675D01*
X19077Y194134D01*
X19184Y193593D01*
X19490Y193135D01*
X19949Y192828D01*
X20490Y192721D01*
X21030Y192828D01*
X21489Y193135D01*
X21795Y193593D01*
X21903Y194134D01*
X21795Y194675D01*
X21489Y195133D01*
X21290Y195265D01*
Y196435D01*
X22379D01*
X22406Y196298D01*
X22607Y195996D01*
X22909Y195795D01*
X23265Y195724D01*
X24288D01*
X24644Y195795D01*
X24946Y195996D01*
X25086Y196206D01*
X25509Y196255D01*
X25932Y196206D01*
X26072Y195996D01*
X26374Y195795D01*
X26729Y195724D01*
X27753D01*
X28109Y195795D01*
X28410Y195996D01*
X28788Y196071D01*
X28987Y195939D01*
X29528Y195831D01*
X30068Y195939D01*
X30527Y196245D01*
X30833Y196703D01*
X30940Y197244D01*
X30833Y197785D01*
X30527Y198243D01*
X30068Y198549D01*
X29528Y198657D01*
X28987Y198549D01*
X28788Y198417D01*
X28410Y198492D01*
X28109Y198694D01*
X27753Y198764D01*
X26729D01*
X26374Y198694D01*
X26072Y198492D01*
X25932Y198282D01*
X25509Y198233D01*
X25086Y198282D01*
X24946Y198492D01*
X24644Y198694D01*
X24288Y198764D01*
X23265D01*
X22909Y198694D01*
X22607Y198492D01*
X22406Y198190D01*
X22379Y198053D01*
X21290D01*
Y205966D01*
X21472Y206087D01*
X21778Y206546D01*
X21885Y207087D01*
X21778Y207627D01*
X21472Y208086D01*
X21013Y208392D01*
X20472Y208500D01*
D02*
G37*
G36*
X17323Y218736D02*
X16782Y218628D01*
X16324Y218322D01*
X16017Y217863D01*
X15910Y217323D01*
X16017Y216782D01*
X16324Y216324D01*
X16782Y216017D01*
X17323Y215910D01*
X17547Y215954D01*
X19179Y214322D01*
X19179Y214322D01*
X19442Y214146D01*
X19461Y214143D01*
X19652Y213323D01*
X19473Y213204D01*
X19167Y212745D01*
X19060Y212205D01*
X19167Y211664D01*
X19473Y211206D01*
X19932Y210899D01*
X20472Y210792D01*
X21013Y210899D01*
X21472Y211206D01*
X21598Y211396D01*
X28741D01*
X29899Y210237D01*
Y203937D01*
X29899Y203937D01*
X29961Y203627D01*
X30136Y203365D01*
X32093Y201408D01*
X32093Y201408D01*
X32356Y201233D01*
X32606Y201183D01*
X32606Y200980D01*
X32606Y200980D01*
X32733Y200674D01*
X33039Y200547D01*
X33039Y200547D01*
X33214Y200547D01*
X35215Y200547D01*
X35805Y199958D01*
Y189370D01*
X35805Y189370D01*
X35866Y189060D01*
X36042Y188798D01*
X55096Y169744D01*
Y165225D01*
X54870Y165030D01*
X54309Y164725D01*
X53937Y164799D01*
X53396Y164691D01*
X52938Y164385D01*
X52632Y163926D01*
X52524Y163386D01*
X52632Y162845D01*
X52938Y162387D01*
X53128Y162260D01*
Y126286D01*
X52947D01*
Y124983D01*
X50280Y124983D01*
X50268Y125041D01*
X50067Y125342D01*
X49765Y125544D01*
X49409Y125615D01*
X48228D01*
X47873Y125544D01*
X47571Y125342D01*
X47369Y125041D01*
X47299Y124685D01*
Y123661D01*
X47369Y123306D01*
X47571Y123004D01*
X47781Y122864D01*
X47830Y122441D01*
X47781Y122018D01*
X47571Y121878D01*
X47369Y121576D01*
X47299Y121221D01*
Y120909D01*
X48819D01*
X50339D01*
Y121221D01*
X50268Y121576D01*
X50067Y121878D01*
X49857Y122018D01*
X49808Y122441D01*
X49857Y122864D01*
X50067Y123004D01*
X50268Y123306D01*
X50280Y123364D01*
X52947Y123364D01*
Y122250D01*
X52750D01*
Y118704D01*
X57874D01*
X62998D01*
Y122250D01*
X62802D01*
Y124013D01*
X61811D01*
Y124213D01*
X61611D01*
Y126286D01*
X58864D01*
Y126286D01*
X58683D01*
Y170866D01*
X58683Y170866D01*
X58622Y171176D01*
X58446Y171438D01*
X39392Y190493D01*
Y212598D01*
X39330Y212908D01*
X39155Y213171D01*
X39155Y213171D01*
X37816Y214509D01*
X37554Y214685D01*
X37244Y214746D01*
X37244Y214746D01*
X36500D01*
X36489Y214805D01*
X36287Y215106D01*
X35986Y215308D01*
X35630Y215378D01*
X34600D01*
X34512Y215466D01*
X34249Y215642D01*
X33940Y215703D01*
X33940Y215703D01*
X20087D01*
X18691Y217099D01*
X18736Y217323D01*
X18628Y217863D01*
X18322Y218322D01*
X17864Y218628D01*
X17323Y218736D01*
D02*
G37*
G36*
X82674Y164967D02*
X81884D01*
Y163389D01*
X82674D01*
Y164967D01*
D02*
G37*
G36*
X95695Y160902D02*
X94095D01*
X92494D01*
Y160433D01*
X92571Y160047D01*
X92790Y159719D01*
X93117Y159500D01*
X93336Y159457D01*
Y158654D01*
X93117Y158610D01*
X92790Y158391D01*
X92571Y158064D01*
X92494Y157677D01*
Y157208D01*
X94095D01*
X95695D01*
Y157677D01*
X95618Y158064D01*
X95399Y158391D01*
X95072Y158610D01*
X94853Y158654D01*
Y159457D01*
X95072Y159500D01*
X95399Y159719D01*
X95618Y160047D01*
X95695Y160433D01*
Y160902D01*
D02*
G37*
G36*
X74682Y153489D02*
X74370D01*
X74014Y153418D01*
X73713Y153216D01*
X73511Y152915D01*
X73440Y152559D01*
Y152169D01*
X74682D01*
Y153489D01*
D02*
G37*
G36*
Y148619D02*
X73440D01*
Y148228D01*
X73511Y147873D01*
X73713Y147571D01*
X74014Y147370D01*
X74370Y147299D01*
X74682D01*
Y148619D01*
D02*
G37*
G36*
X127762Y132487D02*
X121057D01*
Y125781D01*
X127762D01*
Y132487D01*
D02*
G37*
G36*
X62802Y126286D02*
X62011D01*
Y124413D01*
X62802D01*
Y126286D01*
D02*
G37*
G36*
X50339Y120509D02*
X49019D01*
Y119267D01*
X49409D01*
X49765Y119338D01*
X50067Y119539D01*
X50268Y119841D01*
X50339Y120197D01*
Y120509D01*
D02*
G37*
G36*
X48619D02*
X47299D01*
Y120197D01*
X47369Y119841D01*
X47571Y119539D01*
X47873Y119338D01*
X48228Y119267D01*
X48619D01*
Y120509D01*
D02*
G37*
G36*
X49409Y117741D02*
X49019D01*
Y116499D01*
X50339D01*
Y116811D01*
X50268Y117167D01*
X50067Y117468D01*
X49765Y117670D01*
X49409Y117741D01*
D02*
G37*
G36*
X48619D02*
X48228D01*
X47873Y117670D01*
X47571Y117468D01*
X47369Y117167D01*
X47299Y116811D01*
Y116499D01*
X48619D01*
Y117741D01*
D02*
G37*
G36*
X124409Y122515D02*
X123534Y122400D01*
X122719Y122063D01*
X122018Y121525D01*
X121481Y120825D01*
X121143Y120009D01*
X121028Y119134D01*
X121143Y118259D01*
X121481Y117443D01*
X122018Y116743D01*
X122719Y116205D01*
X123534Y115867D01*
X124409Y115752D01*
X125285Y115867D01*
X126100Y116205D01*
X126801Y116743D01*
X127338Y117443D01*
X127676Y118259D01*
X127791Y119134D01*
X127676Y120009D01*
X127338Y120825D01*
X126801Y121525D01*
X126100Y122063D01*
X125285Y122400D01*
X124409Y122515D01*
D02*
G37*
G36*
X68934Y113725D02*
X68622D01*
X68266Y113654D01*
X67965Y113453D01*
X67763Y113151D01*
X67692Y112795D01*
Y112405D01*
X68934D01*
Y113725D01*
D02*
G37*
G36*
Y112005D02*
X67692D01*
Y111614D01*
X67763Y111258D01*
X67965Y110957D01*
X68266Y110755D01*
X68622Y110685D01*
X68934D01*
Y112005D01*
D02*
G37*
G36*
X124409Y112515D02*
X123534Y112400D01*
X122719Y112063D01*
X122018Y111525D01*
X121481Y110825D01*
X121143Y110009D01*
X121028Y109134D01*
X121143Y108259D01*
X121481Y107443D01*
X122018Y106743D01*
X122719Y106205D01*
X123534Y105867D01*
X124409Y105752D01*
X125285Y105867D01*
X126100Y106205D01*
X126801Y106743D01*
X127338Y107443D01*
X127676Y108259D01*
X127791Y109134D01*
X127676Y110009D01*
X127338Y110825D01*
X126801Y111525D01*
X126100Y112063D01*
X125285Y112400D01*
X124409Y112515D01*
D02*
G37*
G36*
X98698Y106099D02*
X97218D01*
Y105709D01*
X97295Y105322D01*
X97514Y104994D01*
X97842Y104776D01*
X98228Y104699D01*
X98698D01*
Y106099D01*
D02*
G37*
G36*
X123976Y102068D02*
X122190Y101892D01*
X120473Y101371D01*
X118890Y100525D01*
X117503Y99387D01*
X116365Y98000D01*
X115518Y96417D01*
X114998Y94699D01*
X114822Y92913D01*
X114998Y91127D01*
X115518Y89410D01*
X116365Y87827D01*
X117503Y86440D01*
X118890Y85302D01*
X120473Y84456D01*
X122190Y83935D01*
X123976Y83759D01*
X125762Y83935D01*
X127480Y84456D01*
X129062Y85302D01*
X130450Y86440D01*
X131588Y87827D01*
X132434Y89410D01*
X132955Y91127D01*
X133131Y92913D01*
X132955Y94699D01*
X132434Y96417D01*
X131588Y98000D01*
X130450Y99387D01*
X129062Y100525D01*
X127480Y101371D01*
X125762Y101892D01*
X123976Y102068D01*
D02*
G37*
G36*
X51142D02*
X49356Y101892D01*
X47638Y101371D01*
X46056Y100525D01*
X44668Y99387D01*
X43530Y98000D01*
X42684Y96417D01*
X42163Y94699D01*
X41987Y92913D01*
X42163Y91127D01*
X42684Y89410D01*
X43530Y87827D01*
X44668Y86440D01*
X46056Y85302D01*
X47638Y84456D01*
X49356Y83935D01*
X51142Y83759D01*
X52928Y83935D01*
X54645Y84456D01*
X56228Y85302D01*
X57615Y86440D01*
X58754Y87827D01*
X59600Y89410D01*
X60120Y91127D01*
X60296Y92913D01*
X60120Y94699D01*
X59600Y96417D01*
X58754Y98000D01*
X57615Y99387D01*
X56228Y100525D01*
X54645Y101371D01*
X52928Y101892D01*
X51142Y102068D01*
D02*
G37*
G36*
X116102Y31345D02*
X114919Y31189D01*
X113816Y30732D01*
X112869Y30005D01*
X112142Y29058D01*
X111685Y27955D01*
X111529Y26772D01*
X111685Y25588D01*
X112142Y24485D01*
X112869Y23538D01*
X113816Y22811D01*
X114919Y22354D01*
X116102Y22199D01*
X117286Y22354D01*
X118389Y22811D01*
X119336Y23538D01*
X120063Y24485D01*
X120519Y25588D01*
X120675Y26772D01*
X120519Y27955D01*
X120063Y29058D01*
X119336Y30005D01*
X118389Y30732D01*
X117286Y31189D01*
X116102Y31345D01*
D02*
G37*
G36*
X96417D02*
X95234Y31189D01*
X94131Y30732D01*
X93184Y30005D01*
X92457Y29058D01*
X92000Y27955D01*
X91844Y26772D01*
X92000Y25588D01*
X92457Y24485D01*
X93184Y23538D01*
X94131Y22811D01*
X95234Y22354D01*
X96417Y22199D01*
X97601Y22354D01*
X98704Y22811D01*
X99651Y23538D01*
X100378Y24485D01*
X100835Y25588D01*
X100990Y26772D01*
X100835Y27955D01*
X100378Y29058D01*
X99651Y30005D01*
X98704Y30732D01*
X97601Y31189D01*
X96417Y31345D01*
D02*
G37*
G36*
X76732D02*
X75549Y31189D01*
X74446Y30732D01*
X73499Y30005D01*
X72772Y29058D01*
X72315Y27955D01*
X72159Y26772D01*
X72315Y25588D01*
X72772Y24485D01*
X73499Y23538D01*
X74446Y22811D01*
X75549Y22354D01*
X76732Y22199D01*
X77916Y22354D01*
X79019Y22811D01*
X79966Y23538D01*
X80693Y24485D01*
X81149Y25588D01*
X81305Y26772D01*
X81149Y27955D01*
X80693Y29058D01*
X79966Y30005D01*
X79019Y30732D01*
X77916Y31189D01*
X76732Y31345D01*
D02*
G37*
G36*
X76932Y11633D02*
Y7287D01*
X81279D01*
X81149Y8270D01*
X80693Y9373D01*
X79966Y10320D01*
X79019Y11047D01*
X77916Y11504D01*
X76932Y11633D01*
D02*
G37*
G36*
X76532D02*
X75549Y11504D01*
X74446Y11047D01*
X73499Y10320D01*
X72772Y9373D01*
X72315Y8270D01*
X72186Y7287D01*
X76532D01*
Y11633D01*
D02*
G37*
G36*
Y6887D02*
X72186D01*
X72315Y5903D01*
X72772Y4800D01*
X73499Y3853D01*
X74446Y3126D01*
X75549Y2670D01*
X76532Y2540D01*
Y6887D01*
D02*
G37*
G36*
X81279D02*
X76932D01*
Y2540D01*
X77916Y2670D01*
X79019Y3126D01*
X79966Y3853D01*
X80693Y4800D01*
X81149Y5903D01*
X81279Y6887D01*
D02*
G37*
G36*
X116102Y11660D02*
X114919Y11504D01*
X113816Y11047D01*
X112869Y10320D01*
X112142Y9373D01*
X111685Y8270D01*
X111529Y7087D01*
X111685Y5903D01*
X112142Y4800D01*
X112869Y3853D01*
X113816Y3126D01*
X114919Y2670D01*
X116102Y2514D01*
X117286Y2670D01*
X118389Y3126D01*
X119336Y3853D01*
X120063Y4800D01*
X120519Y5903D01*
X120675Y7087D01*
X120519Y8270D01*
X120063Y9373D01*
X119336Y10320D01*
X118389Y11047D01*
X117286Y11504D01*
X116102Y11660D01*
D02*
G37*
%LPD*%
G36*
X37071Y223878D02*
X35071Y225878D01*
X33071Y223878D01*
Y228378D01*
X37071Y228378D01*
Y223878D01*
D02*
G37*
G36*
Y222878D02*
Y220878D01*
X33071Y220878D01*
Y222878D01*
X35071Y224878D01*
X37071Y222878D01*
D02*
G37*
G36*
X37039Y208480D02*
X37039Y203980D01*
X35039Y205980D01*
X33039Y203980D01*
Y208480D01*
X37039Y208480D01*
D02*
G37*
G36*
Y202980D02*
X37039Y200980D01*
X33039Y200980D01*
X33039Y202980D01*
X35039Y204980D01*
X37039Y202980D01*
D02*
G37*
D11*
X59842Y108981D02*
Y112795D01*
Y108981D02*
X61380Y107443D01*
X58335D02*
X61380D01*
X57874Y112795D02*
X57874Y112795D01*
Y107905D02*
Y112795D01*
Y107905D02*
X58335Y107443D01*
X60236Y189789D02*
X70140Y179885D01*
X60236Y189789D02*
Y201575D01*
X55118Y192520D02*
Y203150D01*
Y192520D02*
X68035Y179603D01*
X46457Y118504D02*
X48819D01*
X87662Y114950D02*
X87806D01*
X90098Y112658D02*
Y112658D01*
X96417Y7087D02*
X105512Y16181D01*
X47163Y195770D02*
X65967Y176966D01*
X47163Y220189D02*
X48778Y221805D01*
X47163Y195770D02*
Y220189D01*
X44412Y195594D02*
X64080Y175926D01*
X44412Y195594D02*
Y219810D01*
X53937Y124213D02*
Y163386D01*
X55905Y124213D02*
Y170079D01*
X36614Y189370D02*
X55905Y170079D01*
X127559Y193701D02*
Y221654D01*
X133465Y227559D01*
X84646Y146850D02*
X92520Y138976D01*
X84646Y146850D02*
Y146850D01*
X86811Y152559D02*
Y154921D01*
X98032Y123974D02*
Y141339D01*
X95276Y123988D02*
Y140157D01*
X92520Y126772D02*
Y138976D01*
X92882Y121594D02*
X95276Y123988D01*
X84842Y150591D02*
X95276Y140157D01*
X86811Y152559D02*
X98032Y141339D01*
X94274Y120174D02*
Y120216D01*
X98032Y123974D01*
X92882Y121566D02*
Y121594D01*
X90098Y124350D02*
X92520Y126772D01*
X105512Y16181D02*
Y105838D01*
X92882Y115442D02*
X92882D01*
X98434Y110085D02*
X99055Y109464D01*
X92882Y115442D02*
X97845Y110478D01*
X99055Y109449D02*
Y109464D01*
X97845Y110478D02*
X98434D01*
X102677Y106299D02*
X105051D01*
X102598Y105984D02*
Y109764D01*
X102520Y109843D02*
X102598Y109764D01*
X98819Y103937D02*
Y106378D01*
X98819Y106378D01*
X98898Y106299D01*
X20481Y197244D02*
Y207078D01*
Y194142D02*
Y197244D01*
X23777D01*
X20472Y207087D02*
X20481Y207078D01*
Y194142D02*
X20490Y194134D01*
X70140Y147577D02*
Y179885D01*
Y147577D02*
X88976Y128740D01*
X84646Y129862D02*
Y129921D01*
X68035Y146532D02*
Y179603D01*
Y146532D02*
X84646Y129921D01*
X65967Y145057D02*
Y176966D01*
Y145057D02*
X80709Y130315D01*
X64080Y144244D02*
Y175926D01*
Y144244D02*
X81190Y127134D01*
X79791Y125721D02*
X83071Y122441D01*
X36177Y226421D02*
X42208Y220390D01*
X62205Y143307D02*
Y174942D01*
X35821Y227378D02*
X36177Y227022D01*
X28134Y227378D02*
X35821D01*
X62205Y143307D02*
X79791Y125721D01*
X42208Y194938D02*
X62205Y174942D01*
X42208Y194938D02*
Y220390D01*
X87806Y114950D02*
X90098Y112658D01*
X69710Y130085D02*
X69887D01*
X77014Y122958D01*
X32665Y201980D02*
X35039D01*
X30709Y203937D02*
X32665Y201980D01*
X20472Y212205D02*
X29076D01*
X30709Y203937D02*
Y210572D01*
X29076Y212205D02*
X30709Y210572D01*
X36614Y189370D02*
Y200406D01*
X35858Y201161D02*
Y201624D01*
Y201161D02*
X36614Y200406D01*
X35502Y201980D02*
X35858Y201624D01*
X38583Y190157D02*
Y212598D01*
X57874Y124213D02*
Y170866D01*
X38583Y190157D02*
X57874Y170866D01*
X37244Y213937D02*
X38583Y212598D01*
X17323Y217323D02*
X17323D01*
X19752Y214894D01*
X33940D01*
X34897Y213937D02*
X37244D01*
X33940Y214894D02*
X34897Y213937D01*
X20472Y227559D02*
X24409D01*
X30091Y221878D01*
X35071D01*
X105051Y106299D02*
X105512Y105838D01*
X85922Y128526D02*
Y128585D01*
X84646Y129862D02*
X85922Y128585D01*
X87314Y127134D02*
X87342D01*
X88948Y128740D01*
X88976D01*
X82540Y128526D02*
X82582D01*
X80751Y130315D02*
X82540Y128526D01*
X80709Y130315D02*
X80751D01*
X81190Y127106D02*
Y127134D01*
Y127106D02*
X83071Y125225D01*
Y125197D02*
Y125225D01*
X79798Y125728D02*
Y125742D01*
Y125728D02*
X83071Y122455D01*
Y122441D02*
Y122455D01*
X78406Y124350D02*
X80315Y122441D01*
Y122441D02*
Y122441D01*
X77014Y122958D02*
X77014D01*
X69657Y122895D02*
X74294D01*
X75622Y121566D01*
X78406Y112658D02*
X80315Y114567D01*
X79798Y111266D02*
Y111280D01*
X83071Y114553D01*
Y114567D01*
X81190Y109874D02*
Y109902D01*
X83071Y111783D01*
Y111811D01*
X82303Y108482D02*
X82582D01*
X81302Y107480D02*
X82303Y108482D01*
X74803Y107480D02*
X81302D01*
X82952Y105512D02*
X85922Y108482D01*
X87314Y109596D02*
Y109874D01*
Y109596D02*
X88650Y108259D01*
Y106761D02*
Y108259D01*
X55905Y106693D02*
Y112795D01*
Y106693D02*
X58661Y103937D01*
X85827D01*
X88650Y106761D01*
X61878Y110503D02*
Y112728D01*
X66869Y105512D02*
X82952D01*
X61878Y110503D02*
X66869Y105512D01*
X61811Y112795D02*
X61878Y112728D01*
X53937Y109449D02*
Y112795D01*
X72041Y112762D02*
X72598Y112205D01*
X72041Y112762D02*
Y113913D01*
X71653Y114301D02*
X72041Y113913D01*
X71653Y114301D02*
Y114567D01*
X69016Y112323D02*
X69134Y112205D01*
X69016Y112323D02*
Y114449D01*
X68898Y114567D02*
X69016Y114449D01*
X72598Y112205D02*
X75169D01*
X77014Y114050D01*
X81102Y154724D02*
X82677D01*
X82874Y154921D01*
X61811Y124213D02*
X61811Y127165D01*
X61811Y121457D02*
Y124213D01*
X58858Y118504D02*
X61811Y121457D01*
X57874Y118504D02*
X58858D01*
X57874Y118504D02*
X57874Y118504D01*
X51181Y118504D02*
X57874D01*
X48819D02*
Y120709D01*
Y116299D02*
Y118504D01*
X51181D01*
X48819Y124173D02*
X53898Y124173D01*
X53937Y124213D01*
X48819Y112835D02*
X53898D01*
X53937Y112795D01*
X36177Y226421D02*
Y227022D01*
X19685Y229921D02*
X25591D01*
X28134Y227378D01*
X17323Y227559D02*
X19685Y229921D01*
X35039Y207480D02*
X35039Y207480D01*
Y210472D01*
X72441Y151969D02*
X74882D01*
X72441Y148819D02*
X74882D01*
X84842Y150591D02*
Y154921D01*
X78347Y148819D02*
X83071D01*
X84842Y150591D01*
X78347Y151969D02*
X81890D01*
X82677Y152756D02*
Y154724D01*
X81890Y151969D02*
X82677Y152756D01*
D13*
X74230Y120174D02*
D03*
X75622Y121566D02*
D03*
X77014Y122958D02*
D03*
X78406Y124350D02*
D03*
X79798Y125742D02*
D03*
X81190Y127134D02*
D03*
X82582Y128526D02*
D03*
X94274Y116834D02*
D03*
X92882Y115442D02*
D03*
X91490Y114050D02*
D03*
X90098Y112658D02*
D03*
X88706Y111266D02*
D03*
X87314Y109874D02*
D03*
X85922Y108482D02*
D03*
D14*
Y128526D02*
D03*
X87314Y127134D02*
D03*
X88706Y125742D02*
D03*
X90098Y124350D02*
D03*
X91490Y122958D02*
D03*
X92882Y121566D02*
D03*
X94274Y120174D02*
D03*
X82582Y108482D02*
D03*
X81190Y109874D02*
D03*
X79798Y111266D02*
D03*
X78406Y112658D02*
D03*
X77014Y114050D02*
D03*
X75622Y115442D02*
D03*
X74230Y116834D02*
D03*
D15*
X87717Y168504D02*
D03*
X83937D02*
D03*
X98898Y106299D02*
D03*
X102677D02*
D03*
D16*
X35071Y227378D02*
D03*
Y221878D02*
D03*
X35039Y207480D02*
D03*
Y201980D02*
D03*
D17*
X35039Y210472D02*
D03*
Y213937D02*
D03*
X84252Y188031D02*
D03*
Y191496D02*
D03*
X81102Y188031D02*
D03*
Y191496D02*
D03*
X85827Y198346D02*
D03*
Y194882D02*
D03*
X48819Y112835D02*
D03*
Y116299D02*
D03*
Y124173D02*
D03*
Y120709D02*
D03*
D18*
X67323Y198228D02*
D03*
Y190748D02*
D03*
X77165Y198228D02*
D03*
X77165Y194488D02*
D03*
X77165Y190748D02*
D03*
D19*
X81890Y199606D02*
D03*
X81890Y194882D02*
D03*
D20*
X94095Y161102D02*
D03*
Y164882D02*
D03*
Y153228D02*
D03*
Y157008D02*
D03*
D21*
X85827Y159055D02*
D03*
D22*
X88779Y154921D02*
D03*
X86811D02*
D03*
X84842D02*
D03*
X82874D02*
D03*
Y163189D02*
D03*
X84842D02*
D03*
X86811D02*
D03*
X88779D02*
D03*
D23*
X99055Y110236D02*
D03*
X102520D02*
D03*
X78347Y151969D02*
D03*
X74882D02*
D03*
X78347Y148819D02*
D03*
X74882D02*
D03*
X72598Y112205D02*
D03*
X69134D02*
D03*
X27241Y197244D02*
D03*
X23777D02*
D03*
D24*
X69710Y130085D02*
D03*
X68624Y122764D02*
D03*
D25*
X57874Y118504D02*
D03*
D26*
X53937Y124213D02*
D03*
X55905D02*
D03*
X57874D02*
D03*
X59842Y124213D02*
D03*
X61811D02*
D03*
Y112795D02*
D03*
X59842D02*
D03*
X57874Y112795D02*
D03*
X55905Y112795D02*
D03*
X53937D02*
D03*
D49*
X81102Y194685D02*
X81693D01*
X81102Y188031D02*
X84252D01*
X97282Y168466D02*
X99250D01*
X100000Y167717D01*
X27241Y197244D02*
X29528D01*
X29528Y197244D01*
X94095Y153228D02*
X94134Y153189D01*
X97598D01*
X97638Y153150D01*
X70531Y188031D02*
X81102D01*
X84252Y185039D02*
Y188031D01*
Y185039D02*
X84252Y185039D01*
X84252Y188031D02*
X84331Y188110D01*
X87323D01*
X87402Y188189D01*
X84385Y191629D02*
X87469D01*
X84252Y191496D02*
X84385Y191629D01*
X89685Y164882D02*
X94095D01*
X88779Y163976D02*
X89685Y164882D01*
X88779Y163189D02*
Y163976D01*
X80020Y163091D02*
X82874D01*
Y163189D01*
Y160630D02*
Y163091D01*
X79921Y162992D02*
X80020Y163091D01*
X82874Y160630D02*
X84449Y159055D01*
X85827D01*
X83937Y168504D02*
X84016D01*
X84606Y167913D01*
Y167835D02*
Y167913D01*
Y167835D02*
X84842Y167598D01*
Y163189D02*
Y167598D01*
X86811Y163189D02*
Y167677D01*
X87638Y168504D01*
X87717D01*
X90472Y153228D02*
X90472Y153228D01*
X94095Y157008D02*
X94134Y157047D01*
X97598D01*
X97638Y157087D01*
X94095Y161102D02*
X94134Y161063D01*
X97598D01*
X97638Y161024D01*
X92126Y159055D02*
X92126D01*
X85827D02*
X92126D01*
X92126D02*
X94095Y157087D01*
Y157008D02*
Y157087D01*
X92126Y159055D02*
X94095Y161024D01*
Y161102D01*
X88779Y153920D02*
Y154921D01*
X89471Y153228D02*
X90472D01*
X88779Y153920D02*
X89471Y153228D01*
X90472Y153228D02*
X94095D01*
X83937Y168504D02*
Y171968D01*
X79921Y175984D02*
X83937Y171968D01*
X87717Y171575D02*
X92126Y175984D01*
X87717Y168504D02*
Y171575D01*
X67323Y190748D02*
X67815D01*
X70531Y188031D01*
X81693Y194685D02*
X85630D01*
X85827Y194882D02*
X88583D01*
X77362Y194685D02*
X81102D01*
X81693D02*
X81890Y194882D01*
X81102Y194095D02*
X81693Y194685D01*
X81102Y191496D02*
Y194095D01*
Y191496D02*
X84252D01*
X77165Y194488D02*
X77362Y194685D01*
X85630D02*
X85827Y194882D01*
D50*
X100000Y168466D02*
Y210236D01*
X85827Y198976D02*
Y224409D01*
X85827D02*
X100000Y210236D01*
X82677Y227559D02*
X85827Y224409D01*
X81890Y228346D02*
X82677Y227559D01*
X85827Y198346D02*
Y198976D01*
X82677Y227559D02*
X85827Y224409D01*
X82677Y227559D02*
Y227559D01*
X100000Y167717D02*
Y168466D01*
X97244Y168504D02*
X97282Y168466D01*
X94095Y164882D02*
X97165D01*
X100000Y167717D01*
X76870Y197933D02*
X77165Y198228D01*
X74016Y192359D02*
Y196565D01*
X75384Y197933D02*
X76870D01*
X74016Y196565D02*
X75384Y197933D01*
X75332Y191043D02*
X76870D01*
X74016Y192359D02*
X75332Y191043D01*
X76870D02*
X77165Y190748D01*
X71890Y228346D02*
X81890D01*
X81890Y228346D01*
X71890Y238583D02*
X81890D01*
Y228346D02*
Y238583D01*
X82520Y198976D02*
X85118D01*
X81890Y199606D02*
X82520Y198976D01*
X85748Y198346D02*
X85827D01*
X85118Y198976D02*
X85748Y198346D01*
X81524Y199241D02*
X81890Y199606D01*
X78670Y199241D02*
X81524D01*
X77658Y198228D02*
X78670Y199241D01*
X77165Y198228D02*
X77658D01*
D51*
X124409Y109134D02*
D03*
Y119134D02*
D03*
X71890Y228346D02*
D03*
X81890Y228346D02*
D03*
X91890D02*
D03*
X71890Y238583D02*
D03*
X81890D02*
D03*
X91890D02*
D03*
D52*
X124409Y129134D02*
D03*
D53*
X61890Y228346D02*
D03*
Y238583D02*
D03*
D54*
X51142Y92913D02*
D03*
X123976D02*
D03*
D55*
X76732Y26772D02*
D03*
X96417D02*
D03*
X116102D02*
D03*
X76732Y7087D02*
D03*
X96417Y7087D02*
D03*
X116102Y7087D02*
D03*
D56*
X79921Y175984D02*
D03*
X92126D02*
D03*
D57*
X61380Y107443D02*
D03*
X51575Y181102D02*
D03*
X64173Y202362D02*
D03*
X107874D02*
D03*
X60236Y201575D02*
D03*
X55118Y203150D02*
D03*
X46457Y118504D02*
D03*
X87662Y114950D02*
D03*
X48778Y221805D02*
D03*
X44412Y219810D02*
D03*
X97244Y168504D02*
D03*
X53937Y163386D02*
D03*
X127559Y193701D02*
D03*
X84646Y146850D02*
D03*
X98819Y103937D02*
D03*
X29528Y197244D02*
D03*
X20490Y194134D02*
D03*
X133465Y227559D02*
D03*
Y212598D02*
D03*
X136614Y217323D02*
D03*
X84646Y129921D02*
D03*
X88976Y128740D02*
D03*
X80709Y130315D02*
D03*
X83071Y125197D02*
D03*
Y122441D02*
D03*
X80315D02*
D03*
Y114567D02*
D03*
X83071D02*
D03*
Y111811D02*
D03*
X97638Y153150D02*
D03*
X74803Y107480D02*
D03*
X53937Y109449D02*
D03*
X71653Y114567D02*
D03*
X68898D02*
D03*
X81102Y154724D02*
D03*
X120866Y174803D02*
D03*
X61811Y127165D02*
D03*
X51181Y118504D02*
D03*
X20472Y207087D02*
D03*
Y212205D02*
D03*
Y227559D02*
D03*
X17323D02*
D03*
Y212205D02*
D03*
X20472Y217323D02*
D03*
X72441Y151969D02*
D03*
Y148819D02*
D03*
X17323Y217323D02*
D03*
D58*
X84252Y185039D02*
D03*
X87469Y191629D02*
D03*
X87402Y188189D02*
D03*
X79921Y162992D02*
D03*
X85827Y159055D02*
D03*
X97638Y157087D02*
D03*
Y161024D02*
D03*
X88583Y194882D02*
D03*
D59*
X69710Y130085D02*
D03*
X68624Y122764D02*
D03*
M02*
