G04*
G04 #@! TF.GenerationSoftware,Altium Limited,Altium Designer,20.0.9 (164)*
G04*
G04 Layer_Physical_Order=2*
G04 Layer_Color=36540*
%FSLAX25Y25*%
%MOIN*%
G70*
G01*
G75*
%ADD51C,0.05906*%
%ADD53R,0.05906X0.05906*%
%ADD55C,0.08268*%
%ADD57C,0.01772*%
%ADD58C,0.02362*%
G36*
X147799Y245886D02*
X148563Y245570D01*
X149250Y245111D01*
X149835Y244526D01*
X150294Y243839D01*
X150611Y243075D01*
X150772Y242264D01*
Y241850D01*
Y5000D01*
Y4587D01*
X150611Y3776D01*
X150294Y3012D01*
X149835Y2324D01*
X149250Y1740D01*
X148563Y1280D01*
X147799Y964D01*
X146988Y803D01*
X4587D01*
X3776Y964D01*
X3012Y1280D01*
X2324Y1740D01*
X1740Y2324D01*
X1280Y3012D01*
X964Y3776D01*
X803Y4587D01*
Y5000D01*
Y241850D01*
Y242264D01*
X964Y243075D01*
X1280Y243839D01*
X1740Y244526D01*
X2324Y245111D01*
X3012Y245570D01*
X3776Y245886D01*
X4587Y246048D01*
X146988D01*
X147799Y245886D01*
D02*
G37*
%LPC*%
G36*
X92090Y241938D02*
Y238783D01*
X95245D01*
X95156Y239458D01*
X94818Y240273D01*
X94281Y240974D01*
X93581Y241511D01*
X92765Y241849D01*
X92090Y241938D01*
D02*
G37*
G36*
X91690D02*
X91014Y241849D01*
X90199Y241511D01*
X89499Y240974D01*
X88961Y240273D01*
X88623Y239458D01*
X88534Y238783D01*
X91690D01*
Y241938D01*
D02*
G37*
G36*
X65242Y241935D02*
X62090D01*
Y238783D01*
X65242D01*
Y241935D01*
D02*
G37*
G36*
X61690D02*
X58537D01*
Y238783D01*
X61690D01*
Y241935D01*
D02*
G37*
G36*
X65242Y238383D02*
X62090D01*
Y235230D01*
X65242D01*
Y238383D01*
D02*
G37*
G36*
X61690D02*
X58537D01*
Y235230D01*
X61690D01*
Y238383D01*
D02*
G37*
G36*
X95245D02*
X92090D01*
Y235227D01*
X92765Y235316D01*
X93581Y235654D01*
X94281Y236192D01*
X94818Y236892D01*
X95156Y237707D01*
X95245Y238383D01*
D02*
G37*
G36*
X91690D02*
X88534D01*
X88623Y237707D01*
X88961Y236892D01*
X89499Y236192D01*
X90199Y235654D01*
X91014Y235316D01*
X91690Y235227D01*
Y238383D01*
D02*
G37*
G36*
X81890Y241964D02*
X81015Y241849D01*
X80199Y241511D01*
X79498Y240974D01*
X78961Y240273D01*
X78623Y239458D01*
X78508Y238583D01*
X78623Y237707D01*
X78961Y236892D01*
X79498Y236192D01*
X80199Y235654D01*
X81015Y235316D01*
X81890Y235201D01*
X82765Y235316D01*
X83581Y235654D01*
X84281Y236192D01*
X84818Y236892D01*
X85156Y237707D01*
X85271Y238583D01*
X85156Y239458D01*
X84818Y240273D01*
X84281Y240974D01*
X83581Y241511D01*
X82765Y241849D01*
X81890Y241964D01*
D02*
G37*
G36*
X71890D02*
X71014Y241849D01*
X70199Y241511D01*
X69498Y240974D01*
X68961Y240273D01*
X68623Y239458D01*
X68508Y238583D01*
X68623Y237707D01*
X68961Y236892D01*
X69498Y236192D01*
X70199Y235654D01*
X71014Y235316D01*
X71890Y235201D01*
X72765Y235316D01*
X73581Y235654D01*
X74281Y236192D01*
X74818Y236892D01*
X75156Y237707D01*
X75271Y238583D01*
X75156Y239458D01*
X74818Y240273D01*
X74281Y240974D01*
X73581Y241511D01*
X72765Y241849D01*
X71890Y241964D01*
D02*
G37*
G36*
X92090Y231702D02*
Y228547D01*
X95245D01*
X95156Y229222D01*
X94818Y230037D01*
X94281Y230738D01*
X93581Y231275D01*
X92765Y231613D01*
X92090Y231702D01*
D02*
G37*
G36*
X91690D02*
X91014Y231613D01*
X90199Y231275D01*
X89499Y230738D01*
X88961Y230037D01*
X88623Y229222D01*
X88534Y228547D01*
X91690D01*
Y231702D01*
D02*
G37*
G36*
X65242Y231699D02*
X62090D01*
Y228547D01*
X65242D01*
Y231699D01*
D02*
G37*
G36*
X61690D02*
X58537D01*
Y228547D01*
X61690D01*
Y231699D01*
D02*
G37*
G36*
X20472Y228972D02*
X19932Y228865D01*
X19473Y228558D01*
X19167Y228100D01*
X19152Y228027D01*
X18643D01*
X18628Y228100D01*
X18322Y228558D01*
X17864Y228865D01*
X17323Y228972D01*
X16782Y228865D01*
X16324Y228558D01*
X16017Y228100D01*
X15910Y227559D01*
X16017Y227018D01*
X16324Y226560D01*
X16782Y226254D01*
X17323Y226146D01*
X17864Y226254D01*
X18322Y226560D01*
X18628Y227018D01*
X18643Y227091D01*
X19152D01*
X19167Y227018D01*
X19473Y226560D01*
X19932Y226254D01*
X20472Y226146D01*
X21013Y226254D01*
X21472Y226560D01*
X21778Y227018D01*
X21885Y227559D01*
X21778Y228100D01*
X21472Y228558D01*
X21013Y228865D01*
X20472Y228972D01*
D02*
G37*
G36*
X133465D02*
X132924Y228865D01*
X132465Y228558D01*
X132159Y228100D01*
X132052Y227559D01*
X132159Y227018D01*
X132465Y226560D01*
X132924Y226254D01*
X133465Y226146D01*
X134005Y226254D01*
X134464Y226560D01*
X134770Y227018D01*
X134878Y227559D01*
X134770Y228100D01*
X134464Y228558D01*
X134005Y228865D01*
X133465Y228972D01*
D02*
G37*
G36*
X65242Y228147D02*
X62090D01*
Y224994D01*
X65242D01*
Y228147D01*
D02*
G37*
G36*
X61690D02*
X58537D01*
Y224994D01*
X61690D01*
Y228147D01*
D02*
G37*
G36*
X95245D02*
X92090D01*
Y224991D01*
X92765Y225080D01*
X93581Y225418D01*
X94281Y225955D01*
X94818Y226656D01*
X95156Y227471D01*
X95245Y228147D01*
D02*
G37*
G36*
X91690D02*
X88534D01*
X88623Y227471D01*
X88961Y226656D01*
X89499Y225955D01*
X90199Y225418D01*
X91014Y225080D01*
X91690Y224991D01*
Y228147D01*
D02*
G37*
G36*
X71890Y231728D02*
X71014Y231613D01*
X70199Y231275D01*
X69498Y230738D01*
X68961Y230037D01*
X68623Y229222D01*
X68508Y228346D01*
X68623Y227471D01*
X68961Y226656D01*
X69498Y225955D01*
X70199Y225418D01*
X71014Y225080D01*
X71890Y224965D01*
X72765Y225080D01*
X73581Y225418D01*
X74281Y225955D01*
X74818Y226656D01*
X75156Y227471D01*
X75271Y228346D01*
X75156Y229222D01*
X74818Y230037D01*
X74281Y230738D01*
X73581Y231275D01*
X72765Y231613D01*
X71890Y231728D01*
D02*
G37*
G36*
X81890Y231728D02*
X81015Y231613D01*
X80199Y231275D01*
X79498Y230738D01*
X78961Y230037D01*
X78623Y229222D01*
X78508Y228346D01*
X78623Y227471D01*
X78961Y226656D01*
X79498Y225955D01*
X80199Y225418D01*
X81015Y225080D01*
X81890Y224965D01*
X82765Y225080D01*
X83581Y225418D01*
X84281Y225955D01*
X84818Y226656D01*
X85156Y227471D01*
X85271Y228346D01*
X85156Y229222D01*
X84818Y230037D01*
X84281Y230738D01*
X83581Y231275D01*
X82765Y231613D01*
X81890Y231728D01*
D02*
G37*
G36*
X48778Y223218D02*
X48237Y223110D01*
X47779Y222804D01*
X47473Y222345D01*
X47365Y221805D01*
X47473Y221264D01*
X47779Y220806D01*
X48237Y220499D01*
X48778Y220392D01*
X49319Y220499D01*
X49777Y220806D01*
X50083Y221264D01*
X50191Y221805D01*
X50083Y222345D01*
X49777Y222804D01*
X49319Y223110D01*
X48778Y223218D01*
D02*
G37*
G36*
X44412Y221223D02*
X43872Y221116D01*
X43413Y220809D01*
X43107Y220351D01*
X42999Y219810D01*
X43107Y219270D01*
X43413Y218811D01*
X43872Y218505D01*
X44412Y218397D01*
X44953Y218505D01*
X45411Y218811D01*
X45718Y219270D01*
X45825Y219810D01*
X45718Y220351D01*
X45411Y220809D01*
X44953Y221116D01*
X44412Y221223D01*
D02*
G37*
G36*
X17323Y218736D02*
X16782Y218628D01*
X16324Y218322D01*
X16017Y217863D01*
X15910Y217323D01*
X16017Y216782D01*
X16324Y216324D01*
X16782Y216017D01*
X17323Y215910D01*
X17864Y216017D01*
X18322Y216324D01*
X18628Y216782D01*
X18736Y217323D01*
X18628Y217863D01*
X18322Y218322D01*
X17864Y218628D01*
X17323Y218736D01*
D02*
G37*
G36*
X20472Y213618D02*
X19932Y213510D01*
X19473Y213204D01*
X19167Y212745D01*
X19060Y212205D01*
X19167Y211664D01*
X19473Y211206D01*
X19932Y210899D01*
X20472Y210792D01*
X21013Y210899D01*
X21472Y211206D01*
X21778Y211664D01*
X21885Y212205D01*
X21778Y212745D01*
X21472Y213204D01*
X21013Y213510D01*
X20472Y213618D01*
D02*
G37*
G36*
Y208500D02*
X19932Y208392D01*
X19473Y208086D01*
X19167Y207627D01*
X19060Y207087D01*
X19167Y206546D01*
X19473Y206087D01*
X19932Y205781D01*
X20472Y205674D01*
X21013Y205781D01*
X21472Y206087D01*
X21778Y206546D01*
X21885Y207087D01*
X21778Y207627D01*
X21472Y208086D01*
X21013Y208392D01*
X20472Y208500D01*
D02*
G37*
G36*
X55118Y204563D02*
X54577Y204455D01*
X54119Y204149D01*
X53813Y203690D01*
X53705Y203150D01*
X53813Y202609D01*
X54119Y202151D01*
X54577Y201844D01*
X55118Y201737D01*
X55659Y201844D01*
X56117Y202151D01*
X56423Y202609D01*
X56531Y203150D01*
X56423Y203690D01*
X56117Y204149D01*
X55659Y204455D01*
X55118Y204563D01*
D02*
G37*
G36*
X60236Y202988D02*
X59696Y202880D01*
X59237Y202574D01*
X58931Y202116D01*
X58823Y201575D01*
X58931Y201034D01*
X59237Y200576D01*
X59696Y200269D01*
X60236Y200162D01*
X60777Y200269D01*
X61235Y200576D01*
X61542Y201034D01*
X61649Y201575D01*
X61542Y202116D01*
X61235Y202574D01*
X60777Y202880D01*
X60236Y202988D01*
D02*
G37*
G36*
X29528Y198657D02*
X28987Y198549D01*
X28528Y198243D01*
X28222Y197785D01*
X28115Y197244D01*
X28222Y196703D01*
X28528Y196245D01*
X28987Y195939D01*
X29528Y195831D01*
X30068Y195939D01*
X30527Y196245D01*
X30833Y196703D01*
X30940Y197244D01*
X30833Y197785D01*
X30527Y198243D01*
X30068Y198549D01*
X29528Y198657D01*
D02*
G37*
G36*
X20490Y195547D02*
X19949Y195439D01*
X19490Y195133D01*
X19184Y194675D01*
X19077Y194134D01*
X19184Y193593D01*
X19490Y193135D01*
X19949Y192828D01*
X20490Y192721D01*
X21030Y192828D01*
X21489Y193135D01*
X21795Y193593D01*
X21903Y194134D01*
X21795Y194675D01*
X21489Y195133D01*
X21030Y195439D01*
X20490Y195547D01*
D02*
G37*
G36*
X127559Y195114D02*
X127018Y195006D01*
X126560Y194700D01*
X126254Y194241D01*
X126146Y193701D01*
X126254Y193160D01*
X126560Y192702D01*
X127018Y192395D01*
X127559Y192288D01*
X128100Y192395D01*
X128558Y192702D01*
X128865Y193160D01*
X128972Y193701D01*
X128865Y194241D01*
X128558Y194700D01*
X128100Y195006D01*
X127559Y195114D01*
D02*
G37*
G36*
X87402Y189903D02*
X86746Y189772D01*
X86190Y189401D01*
X85818Y188845D01*
X85688Y188189D01*
X85818Y187533D01*
X86190Y186977D01*
X86746Y186605D01*
X87402Y186475D01*
X88058Y186605D01*
X88614Y186977D01*
X88985Y187533D01*
X89116Y188189D01*
X88985Y188845D01*
X88614Y189401D01*
X88058Y189772D01*
X87402Y189903D01*
D02*
G37*
G36*
X84252Y186753D02*
X83596Y186623D01*
X83040Y186251D01*
X82668Y185695D01*
X82538Y185039D01*
X82668Y184383D01*
X83040Y183827D01*
X83596Y183456D01*
X84252Y183325D01*
X84908Y183456D01*
X85464Y183827D01*
X85835Y184383D01*
X85966Y185039D01*
X85835Y185695D01*
X85464Y186251D01*
X84908Y186623D01*
X84252Y186753D01*
D02*
G37*
G36*
X92126Y179862D02*
X91122Y179730D01*
X90187Y179343D01*
X89384Y178726D01*
X88767Y177923D01*
X88380Y176988D01*
X88248Y175984D01*
X88380Y174980D01*
X88767Y174045D01*
X89384Y173242D01*
X90187Y172626D01*
X91122Y172238D01*
X92126Y172106D01*
X93130Y172238D01*
X94065Y172626D01*
X94868Y173242D01*
X95485Y174045D01*
X95872Y174980D01*
X96004Y175984D01*
X95872Y176988D01*
X95485Y177923D01*
X94868Y178726D01*
X94065Y179343D01*
X93130Y179730D01*
X92126Y179862D01*
D02*
G37*
G36*
X79921D02*
X78917Y179730D01*
X77982Y179343D01*
X77179Y178726D01*
X76563Y177923D01*
X76175Y176988D01*
X76043Y175984D01*
X76175Y174980D01*
X76563Y174045D01*
X77179Y173242D01*
X77982Y172626D01*
X78917Y172238D01*
X79921Y172106D01*
X80925Y172238D01*
X81860Y172626D01*
X82664Y173242D01*
X83280Y174045D01*
X83667Y174980D01*
X83799Y175984D01*
X83667Y176988D01*
X83280Y177923D01*
X82664Y178726D01*
X81860Y179343D01*
X80925Y179730D01*
X79921Y179862D01*
D02*
G37*
G36*
X97244Y169917D02*
X96703Y169809D01*
X96245Y169503D01*
X95939Y169045D01*
X95831Y168504D01*
X95939Y167963D01*
X96245Y167505D01*
X96703Y167199D01*
X97244Y167091D01*
X97785Y167199D01*
X98243Y167505D01*
X98549Y167963D01*
X98657Y168504D01*
X98549Y169045D01*
X98243Y169503D01*
X97785Y169809D01*
X97244Y169917D01*
D02*
G37*
G36*
X53937Y164799D02*
X53396Y164691D01*
X52938Y164385D01*
X52632Y163926D01*
X52524Y163386D01*
X52632Y162845D01*
X52938Y162387D01*
X53396Y162080D01*
X53937Y161973D01*
X54478Y162080D01*
X54936Y162387D01*
X55242Y162845D01*
X55350Y163386D01*
X55242Y163926D01*
X54936Y164385D01*
X54478Y164691D01*
X53937Y164799D01*
D02*
G37*
G36*
X81102Y156137D02*
X80562Y156030D01*
X80103Y155724D01*
X79797Y155265D01*
X79689Y154724D01*
X79797Y154184D01*
X80103Y153725D01*
X80562Y153419D01*
X81102Y153311D01*
X81643Y153419D01*
X82102Y153725D01*
X82408Y154184D01*
X82515Y154724D01*
X82408Y155265D01*
X82102Y155724D01*
X81643Y156030D01*
X81102Y156137D01*
D02*
G37*
G36*
X97638Y154563D02*
X97097Y154455D01*
X96639Y154149D01*
X96332Y153690D01*
X96225Y153150D01*
X96332Y152609D01*
X96639Y152150D01*
X97097Y151844D01*
X97638Y151737D01*
X98178Y151844D01*
X98637Y152150D01*
X98943Y152609D01*
X99051Y153150D01*
X98943Y153690D01*
X98637Y154149D01*
X98178Y154455D01*
X97638Y154563D01*
D02*
G37*
G36*
X84646Y148263D02*
X84105Y148156D01*
X83647Y147850D01*
X83340Y147391D01*
X83233Y146850D01*
X83340Y146310D01*
X83647Y145851D01*
X84105Y145545D01*
X84646Y145437D01*
X85186Y145545D01*
X85645Y145851D01*
X85951Y146310D01*
X86059Y146850D01*
X85951Y147391D01*
X85645Y147850D01*
X85186Y148156D01*
X84646Y148263D01*
D02*
G37*
G36*
X80709Y131728D02*
X80168Y131620D01*
X79710Y131314D01*
X79403Y130856D01*
X79296Y130315D01*
X79403Y129774D01*
X79710Y129316D01*
X80168Y129009D01*
X80709Y128902D01*
X81249Y129009D01*
X81708Y129316D01*
X82014Y129774D01*
X82122Y130315D01*
X82014Y130856D01*
X81708Y131314D01*
X81249Y131620D01*
X80709Y131728D01*
D02*
G37*
G36*
X84646Y131334D02*
X84105Y131227D01*
X83647Y130920D01*
X83340Y130462D01*
X83233Y129921D01*
X83340Y129381D01*
X83647Y128922D01*
X84105Y128616D01*
X84646Y128508D01*
X85186Y128616D01*
X85645Y128922D01*
X85951Y129381D01*
X86059Y129921D01*
X85951Y130462D01*
X85645Y130920D01*
X85186Y131227D01*
X84646Y131334D01*
D02*
G37*
G36*
X69710Y132092D02*
X68942Y131939D01*
X68291Y131504D01*
X67856Y130853D01*
X67703Y130085D01*
X67856Y129317D01*
X68291Y128666D01*
X68942Y128231D01*
X69710Y128078D01*
X70478Y128231D01*
X71130Y128666D01*
X71565Y129317D01*
X71717Y130085D01*
X71565Y130853D01*
X71130Y131504D01*
X70478Y131939D01*
X69710Y132092D01*
D02*
G37*
G36*
X88976Y130153D02*
X88436Y130046D01*
X87977Y129739D01*
X87671Y129281D01*
X87563Y128740D01*
X87671Y128199D01*
X87977Y127741D01*
X88436Y127435D01*
X88976Y127327D01*
X89517Y127435D01*
X89976Y127741D01*
X90282Y128199D01*
X90389Y128740D01*
X90282Y129281D01*
X89976Y129739D01*
X89517Y130046D01*
X88976Y130153D01*
D02*
G37*
G36*
X127762Y132487D02*
X121057D01*
Y125781D01*
X127762D01*
Y132487D01*
D02*
G37*
G36*
X83071Y126610D02*
X82530Y126502D01*
X82072Y126196D01*
X81765Y125738D01*
X81658Y125197D01*
X81765Y124656D01*
X82072Y124198D01*
X82189Y124120D01*
Y123518D01*
X82072Y123440D01*
X81994Y123323D01*
X81392D01*
X81314Y123440D01*
X80856Y123746D01*
X80315Y123854D01*
X79774Y123746D01*
X79316Y123440D01*
X79010Y122982D01*
X78902Y122441D01*
X79010Y121900D01*
X79316Y121442D01*
X79774Y121135D01*
X80315Y121028D01*
X80856Y121135D01*
X81314Y121442D01*
X81392Y121559D01*
X81994D01*
X82072Y121442D01*
X82530Y121135D01*
X83071Y121028D01*
X83612Y121135D01*
X84070Y121442D01*
X84376Y121900D01*
X84484Y122441D01*
X84376Y122982D01*
X84070Y123440D01*
X83953Y123518D01*
Y124120D01*
X84070Y124198D01*
X84376Y124656D01*
X84484Y125197D01*
X84376Y125738D01*
X84070Y126196D01*
X83612Y126502D01*
X83071Y126610D01*
D02*
G37*
G36*
X68624Y124771D02*
X67856Y124619D01*
X67204Y124183D01*
X66769Y123532D01*
X66617Y122764D01*
X66769Y121996D01*
X67204Y121345D01*
X67856Y120910D01*
X68624Y120757D01*
X69392Y120910D01*
X70043Y121345D01*
X70478Y121996D01*
X70631Y122764D01*
X70478Y123532D01*
X70043Y124183D01*
X69392Y124619D01*
X68624Y124771D01*
D02*
G37*
G36*
X124409Y122515D02*
X123534Y122400D01*
X122719Y122063D01*
X122018Y121525D01*
X121481Y120825D01*
X121143Y120009D01*
X121028Y119134D01*
X121143Y118259D01*
X121481Y117443D01*
X122018Y116743D01*
X122719Y116205D01*
X123534Y115867D01*
X124409Y115752D01*
X125285Y115867D01*
X126100Y116205D01*
X126801Y116743D01*
X127338Y117443D01*
X127676Y118259D01*
X127791Y119134D01*
X127676Y120009D01*
X127338Y120825D01*
X126801Y121525D01*
X126100Y122063D01*
X125285Y122400D01*
X124409Y122515D01*
D02*
G37*
G36*
X87662Y116363D02*
X87122Y116255D01*
X86663Y115949D01*
X86357Y115491D01*
X86249Y114950D01*
X86357Y114409D01*
X86663Y113951D01*
X87122Y113645D01*
X87662Y113537D01*
X88203Y113645D01*
X88661Y113951D01*
X88968Y114409D01*
X89075Y114950D01*
X88968Y115491D01*
X88661Y115949D01*
X88203Y116255D01*
X87662Y116363D01*
D02*
G37*
G36*
X71653Y115980D02*
X71113Y115872D01*
X70654Y115566D01*
X70348Y115108D01*
X70241Y114567D01*
X70348Y114026D01*
X70654Y113568D01*
X71113Y113261D01*
X71653Y113154D01*
X72194Y113261D01*
X72653Y113568D01*
X72959Y114026D01*
X73067Y114567D01*
X72959Y115108D01*
X72653Y115566D01*
X72194Y115872D01*
X71653Y115980D01*
D02*
G37*
G36*
X83071D02*
X82530Y115872D01*
X82072Y115566D01*
X81765Y115108D01*
X81658Y114567D01*
X81765Y114026D01*
X82072Y113568D01*
X82189Y113490D01*
Y112888D01*
X82072Y112810D01*
X81765Y112352D01*
X81658Y111811D01*
X81765Y111270D01*
X82072Y110812D01*
X82530Y110506D01*
X83071Y110398D01*
X83612Y110506D01*
X84070Y110812D01*
X84376Y111270D01*
X84484Y111811D01*
X84376Y112352D01*
X84070Y112810D01*
X83953Y112888D01*
Y113490D01*
X84070Y113568D01*
X84376Y114026D01*
X84484Y114567D01*
X84376Y115108D01*
X84070Y115566D01*
X83612Y115872D01*
X83071Y115980D01*
D02*
G37*
G36*
X53937Y110862D02*
X53396Y110754D01*
X52938Y110448D01*
X52632Y109990D01*
X52524Y109449D01*
X52632Y108908D01*
X52938Y108450D01*
X53396Y108143D01*
X53937Y108036D01*
X54478Y108143D01*
X54936Y108450D01*
X55242Y108908D01*
X55350Y109449D01*
X55242Y109990D01*
X54936Y110448D01*
X54478Y110754D01*
X53937Y110862D01*
D02*
G37*
G36*
X74803Y108893D02*
X74262Y108786D01*
X73804Y108479D01*
X73498Y108021D01*
X73390Y107480D01*
X73498Y106940D01*
X73804Y106481D01*
X74262Y106175D01*
X74803Y106067D01*
X75344Y106175D01*
X75802Y106481D01*
X76109Y106940D01*
X76216Y107480D01*
X76109Y108021D01*
X75802Y108479D01*
X75344Y108786D01*
X74803Y108893D01*
D02*
G37*
G36*
X61380Y108856D02*
X60840Y108749D01*
X60381Y108442D01*
X60075Y107984D01*
X59967Y107443D01*
X60075Y106903D01*
X60381Y106444D01*
X60840Y106138D01*
X61380Y106030D01*
X61921Y106138D01*
X62379Y106444D01*
X62686Y106903D01*
X62793Y107443D01*
X62686Y107984D01*
X62379Y108442D01*
X61921Y108749D01*
X61380Y108856D01*
D02*
G37*
G36*
X124409Y112515D02*
X123534Y112400D01*
X122719Y112063D01*
X122018Y111525D01*
X121481Y110825D01*
X121143Y110009D01*
X121028Y109134D01*
X121143Y108259D01*
X121481Y107443D01*
X122018Y106743D01*
X122719Y106205D01*
X123534Y105867D01*
X124409Y105752D01*
X125285Y105867D01*
X126100Y106205D01*
X126801Y106743D01*
X127338Y107443D01*
X127676Y108259D01*
X127791Y109134D01*
X127676Y110009D01*
X127338Y110825D01*
X126801Y111525D01*
X126100Y112063D01*
X125285Y112400D01*
X124409Y112515D01*
D02*
G37*
G36*
X123976Y102068D02*
X122190Y101892D01*
X120473Y101371D01*
X118890Y100525D01*
X117503Y99387D01*
X116365Y98000D01*
X115518Y96417D01*
X114998Y94699D01*
X114822Y92913D01*
X114998Y91127D01*
X115518Y89410D01*
X116365Y87827D01*
X117503Y86440D01*
X118890Y85302D01*
X120473Y84456D01*
X122190Y83935D01*
X123976Y83759D01*
X125762Y83935D01*
X127480Y84456D01*
X129062Y85302D01*
X130450Y86440D01*
X131588Y87827D01*
X132434Y89410D01*
X132955Y91127D01*
X133131Y92913D01*
X132955Y94699D01*
X132434Y96417D01*
X131588Y98000D01*
X130450Y99387D01*
X129062Y100525D01*
X127480Y101371D01*
X125762Y101892D01*
X123976Y102068D01*
D02*
G37*
G36*
X51142D02*
X49356Y101892D01*
X47638Y101371D01*
X46056Y100525D01*
X44668Y99387D01*
X43530Y98000D01*
X42684Y96417D01*
X42163Y94699D01*
X41987Y92913D01*
X42163Y91127D01*
X42684Y89410D01*
X43530Y87827D01*
X44668Y86440D01*
X46056Y85302D01*
X47638Y84456D01*
X49356Y83935D01*
X51142Y83759D01*
X52928Y83935D01*
X54645Y84456D01*
X56228Y85302D01*
X57615Y86440D01*
X58754Y87827D01*
X59600Y89410D01*
X60120Y91127D01*
X60296Y92913D01*
X60120Y94699D01*
X59600Y96417D01*
X58754Y98000D01*
X57615Y99387D01*
X56228Y100525D01*
X54645Y101371D01*
X52928Y101892D01*
X51142Y102068D01*
D02*
G37*
G36*
X116102Y31345D02*
X114919Y31189D01*
X113816Y30732D01*
X112869Y30005D01*
X112142Y29058D01*
X111685Y27955D01*
X111529Y26772D01*
X111685Y25588D01*
X112142Y24485D01*
X112869Y23538D01*
X113816Y22811D01*
X114919Y22354D01*
X116102Y22199D01*
X117286Y22354D01*
X118389Y22811D01*
X119336Y23538D01*
X120063Y24485D01*
X120519Y25588D01*
X120675Y26772D01*
X120519Y27955D01*
X120063Y29058D01*
X119336Y30005D01*
X118389Y30732D01*
X117286Y31189D01*
X116102Y31345D01*
D02*
G37*
G36*
X96417D02*
X95234Y31189D01*
X94131Y30732D01*
X93184Y30005D01*
X92457Y29058D01*
X92000Y27955D01*
X91844Y26772D01*
X92000Y25588D01*
X92457Y24485D01*
X93184Y23538D01*
X94131Y22811D01*
X95234Y22354D01*
X96417Y22199D01*
X97601Y22354D01*
X98704Y22811D01*
X99651Y23538D01*
X100378Y24485D01*
X100835Y25588D01*
X100990Y26772D01*
X100835Y27955D01*
X100378Y29058D01*
X99651Y30005D01*
X98704Y30732D01*
X97601Y31189D01*
X96417Y31345D01*
D02*
G37*
G36*
X76732D02*
X75549Y31189D01*
X74446Y30732D01*
X73499Y30005D01*
X72772Y29058D01*
X72315Y27955D01*
X72159Y26772D01*
X72315Y25588D01*
X72772Y24485D01*
X73499Y23538D01*
X74446Y22811D01*
X75549Y22354D01*
X76732Y22199D01*
X77916Y22354D01*
X79019Y22811D01*
X79966Y23538D01*
X80693Y24485D01*
X81149Y25588D01*
X81305Y26772D01*
X81149Y27955D01*
X80693Y29058D01*
X79966Y30005D01*
X79019Y30732D01*
X77916Y31189D01*
X76732Y31345D01*
D02*
G37*
G36*
X76932Y11633D02*
Y7287D01*
X81279D01*
X81149Y8270D01*
X80693Y9373D01*
X79966Y10320D01*
X79019Y11047D01*
X77916Y11504D01*
X76932Y11633D01*
D02*
G37*
G36*
X76532D02*
X75549Y11504D01*
X74446Y11047D01*
X73499Y10320D01*
X72772Y9373D01*
X72315Y8270D01*
X72186Y7287D01*
X76532D01*
Y11633D01*
D02*
G37*
G36*
Y6887D02*
X72186D01*
X72315Y5903D01*
X72772Y4800D01*
X73499Y3853D01*
X74446Y3126D01*
X75549Y2670D01*
X76532Y2540D01*
Y6887D01*
D02*
G37*
G36*
X81279D02*
X76932D01*
Y2540D01*
X77916Y2670D01*
X79019Y3126D01*
X79966Y3853D01*
X80693Y4800D01*
X81149Y5903D01*
X81279Y6887D01*
D02*
G37*
G36*
X116102Y11660D02*
X114919Y11504D01*
X113816Y11047D01*
X112869Y10320D01*
X112142Y9373D01*
X111685Y8270D01*
X111529Y7087D01*
X111685Y5903D01*
X112142Y4800D01*
X112869Y3853D01*
X113816Y3126D01*
X114919Y2670D01*
X116102Y2514D01*
X117286Y2670D01*
X118389Y3126D01*
X119336Y3853D01*
X120063Y4800D01*
X120519Y5903D01*
X120675Y7087D01*
X120519Y8270D01*
X120063Y9373D01*
X119336Y10320D01*
X118389Y11047D01*
X117286Y11504D01*
X116102Y11660D01*
D02*
G37*
G36*
X96417Y11660D02*
X95234Y11504D01*
X94131Y11047D01*
X93184Y10320D01*
X92457Y9373D01*
X92000Y8270D01*
X91844Y7087D01*
X92000Y5903D01*
X92457Y4800D01*
X93184Y3853D01*
X94131Y3126D01*
X95234Y2669D01*
X96417Y2514D01*
X97601Y2669D01*
X98704Y3126D01*
X99651Y3853D01*
X100378Y4800D01*
X100835Y5903D01*
X100990Y7087D01*
X100835Y8270D01*
X100378Y9373D01*
X99651Y10320D01*
X98704Y11047D01*
X97601Y11504D01*
X96417Y11660D01*
D02*
G37*
%LPD*%
D51*
X91890Y228346D02*
D03*
Y238583D02*
D03*
D53*
X61890Y228346D02*
D03*
Y238583D02*
D03*
D55*
X76732Y7087D02*
D03*
D57*
X51575Y181102D02*
D03*
X64173Y202362D02*
D03*
X107874D02*
D03*
X46457Y118504D02*
D03*
X98819Y103937D02*
D03*
X133465Y212598D02*
D03*
X136614Y217323D02*
D03*
X80315Y114567D02*
D03*
X68898D02*
D03*
X120866Y174803D02*
D03*
X61811Y127165D02*
D03*
X51181Y118504D02*
D03*
X17323Y212205D02*
D03*
X20472Y217323D02*
D03*
X72441Y151969D02*
D03*
Y148819D02*
D03*
D58*
X87469Y191629D02*
D03*
X79921Y162992D02*
D03*
X85827Y159055D02*
D03*
X97638Y157087D02*
D03*
Y161024D02*
D03*
X88583Y194882D02*
D03*
M02*
