G04*
G04 #@! TF.GenerationSoftware,Altium Limited,Altium Designer,20.0.9 (164)*
G04*
G04 Layer_Color=8421504*
%FSLAX25Y25*%
%MOIN*%
G70*
G01*
G75*
G04:AMPARAMS|DCode=13|XSize=23.62mil|YSize=11.81mil|CornerRadius=0mil|HoleSize=0mil|Usage=FLASHONLY|Rotation=135.000|XOffset=0mil|YOffset=0mil|HoleType=Round|Shape=Rectangle|*
%AMROTATEDRECTD13*
4,1,4,0.01253,-0.00418,0.00418,-0.01253,-0.01253,0.00418,-0.00418,0.01253,0.01253,-0.00418,0.0*
%
%ADD13ROTATEDRECTD13*%

G04:AMPARAMS|DCode=14|XSize=23.62mil|YSize=11.81mil|CornerRadius=0mil|HoleSize=0mil|Usage=FLASHONLY|Rotation=45.000|XOffset=0mil|YOffset=0mil|HoleType=Round|Shape=Rectangle|*
%AMROTATEDRECTD14*
4,1,4,-0.00418,-0.01253,-0.01253,-0.00418,0.00418,0.01253,0.01253,0.00418,-0.00418,-0.01253,0.0*
%
%ADD14ROTATEDRECTD14*%

G04:AMPARAMS|DCode=15|XSize=25.2mil|YSize=23.62mil|CornerRadius=5.91mil|HoleSize=0mil|Usage=FLASHONLY|Rotation=0.000|XOffset=0mil|YOffset=0mil|HoleType=Round|Shape=RoundedRectangle|*
%AMROUNDEDRECTD15*
21,1,0.02520,0.01181,0,0,0.0*
21,1,0.01339,0.02362,0,0,0.0*
1,1,0.01181,0.00669,-0.00591*
1,1,0.01181,-0.00669,-0.00591*
1,1,0.01181,-0.00669,0.00591*
1,1,0.01181,0.00669,0.00591*
%
%ADD15ROUNDEDRECTD15*%
%ADD16R,0.03000X0.01500*%
G04:AMPARAMS|DCode=17|XSize=20.47mil|YSize=22.05mil|CornerRadius=5.12mil|HoleSize=0mil|Usage=FLASHONLY|Rotation=270.000|XOffset=0mil|YOffset=0mil|HoleType=Round|Shape=RoundedRectangle|*
%AMROUNDEDRECTD17*
21,1,0.02047,0.01181,0,0,270.0*
21,1,0.01024,0.02205,0,0,270.0*
1,1,0.01024,-0.00591,-0.00512*
1,1,0.01024,-0.00591,0.00512*
1,1,0.01024,0.00591,0.00512*
1,1,0.01024,0.00591,-0.00512*
%
%ADD17ROUNDEDRECTD17*%
%ADD18R,0.03150X0.02165*%
%ADD19R,0.03543X0.02835*%
G04:AMPARAMS|DCode=20|XSize=25.2mil|YSize=23.62mil|CornerRadius=5.91mil|HoleSize=0mil|Usage=FLASHONLY|Rotation=270.000|XOffset=0mil|YOffset=0mil|HoleType=Round|Shape=RoundedRectangle|*
%AMROUNDEDRECTD20*
21,1,0.02520,0.01181,0,0,270.0*
21,1,0.01339,0.02362,0,0,270.0*
1,1,0.01181,-0.00591,-0.00669*
1,1,0.01181,-0.00591,0.00669*
1,1,0.01181,0.00591,0.00669*
1,1,0.01181,0.00591,-0.00669*
%
%ADD20ROUNDEDRECTD20*%
%ADD21R,0.06693X0.03937*%
%ADD22R,0.01181X0.02756*%
G04:AMPARAMS|DCode=23|XSize=20.47mil|YSize=22.05mil|CornerRadius=5.12mil|HoleSize=0mil|Usage=FLASHONLY|Rotation=180.000|XOffset=0mil|YOffset=0mil|HoleType=Round|Shape=RoundedRectangle|*
%AMROUNDEDRECTD23*
21,1,0.02047,0.01181,0,0,180.0*
21,1,0.01024,0.02205,0,0,180.0*
1,1,0.01024,-0.00512,0.00591*
1,1,0.01024,0.00512,0.00591*
1,1,0.01024,0.00512,-0.00591*
1,1,0.01024,-0.00512,-0.00591*
%
%ADD23ROUNDEDRECTD23*%
%ADD24C,0.03937*%
%ADD25R,0.09449X0.06693*%
%ADD26R,0.01181X0.03347*%
G36*
X37039Y208480D02*
X37039Y203980D01*
X35039Y205980D01*
X33039Y203980D01*
Y208480D01*
X37039Y208480D01*
D02*
G37*
G36*
Y202980D02*
X37039Y200980D01*
X33039Y200980D01*
X33039Y202980D01*
X35039Y204980D01*
X37039Y202980D01*
D02*
G37*
G36*
X37071Y223878D02*
X35071Y225878D01*
X33071Y223878D01*
Y228378D01*
X37071Y228378D01*
Y223878D01*
D02*
G37*
G36*
Y222878D02*
Y220878D01*
X33071Y220878D01*
Y222878D01*
X35071Y224878D01*
X37071Y222878D01*
D02*
G37*
D13*
X74230Y120174D02*
D03*
X75622Y121566D02*
D03*
X77014Y122958D02*
D03*
X78406Y124350D02*
D03*
X79798Y125742D02*
D03*
X81190Y127134D02*
D03*
X82582Y128526D02*
D03*
X94274Y116834D02*
D03*
X92882Y115442D02*
D03*
X91490Y114050D02*
D03*
X90098Y112658D02*
D03*
X88706Y111266D02*
D03*
X87314Y109874D02*
D03*
X85922Y108482D02*
D03*
D14*
Y128526D02*
D03*
X87314Y127134D02*
D03*
X88706Y125742D02*
D03*
X90098Y124350D02*
D03*
X91490Y122958D02*
D03*
X92882Y121566D02*
D03*
X94274Y120174D02*
D03*
X82582Y108482D02*
D03*
X81190Y109874D02*
D03*
X79798Y111266D02*
D03*
X78406Y112658D02*
D03*
X77014Y114050D02*
D03*
X75622Y115442D02*
D03*
X74230Y116834D02*
D03*
D15*
X87717Y168504D02*
D03*
X83937D02*
D03*
X98898Y106299D02*
D03*
X102677D02*
D03*
D16*
X35071Y227378D02*
D03*
Y221878D02*
D03*
X35039Y207480D02*
D03*
Y201980D02*
D03*
D17*
X35039Y210472D02*
D03*
Y213937D02*
D03*
X84252Y188031D02*
D03*
Y191496D02*
D03*
X81102Y188031D02*
D03*
Y191496D02*
D03*
X85827Y198346D02*
D03*
Y194882D02*
D03*
X48819Y112835D02*
D03*
Y116299D02*
D03*
Y124173D02*
D03*
Y120709D02*
D03*
D18*
X67323Y198228D02*
D03*
Y190748D02*
D03*
X77165Y198228D02*
D03*
X77165Y194488D02*
D03*
X77165Y190748D02*
D03*
D19*
X81890Y199606D02*
D03*
X81890Y194882D02*
D03*
D20*
X94095Y161102D02*
D03*
Y164882D02*
D03*
Y153228D02*
D03*
Y157008D02*
D03*
D21*
X85827Y159055D02*
D03*
D22*
X88779Y154921D02*
D03*
X86811D02*
D03*
X84842D02*
D03*
X82874D02*
D03*
Y163189D02*
D03*
X84842D02*
D03*
X86811D02*
D03*
X88779D02*
D03*
D23*
X99055Y110236D02*
D03*
X102520D02*
D03*
X78347Y151969D02*
D03*
X74882D02*
D03*
X78347Y148819D02*
D03*
X74882D02*
D03*
X72598Y112205D02*
D03*
X69134D02*
D03*
X27241Y197244D02*
D03*
X23777D02*
D03*
D24*
X69710Y130085D02*
D03*
X68624Y122764D02*
D03*
D25*
X57874Y118504D02*
D03*
D26*
X53937Y124213D02*
D03*
X55905D02*
D03*
X57874D02*
D03*
X59842Y124213D02*
D03*
X61811D02*
D03*
Y112795D02*
D03*
X59842D02*
D03*
X57874Y112795D02*
D03*
X55905Y112795D02*
D03*
X53937D02*
D03*
M02*
