G04*
G04 #@! TF.GenerationSoftware,Altium Limited,Altium Designer,20.0.9 (164)*
G04*
G04 Layer_Color=8388736*
%FSLAX25Y25*%
%MOIN*%
G70*
G01*
G75*
%ADD16R,0.03000X0.01500*%
G04:AMPARAMS|DCode=27|XSize=29.53mil|YSize=17.72mil|CornerRadius=0mil|HoleSize=0mil|Usage=FLASHONLY|Rotation=135.000|XOffset=0mil|YOffset=0mil|HoleType=Round|Shape=Rectangle|*
%AMROTATEDRECTD27*
4,1,4,0.01670,-0.00418,0.00418,-0.01670,-0.01670,0.00418,-0.00418,0.01670,0.01670,-0.00418,0.0*
%
%ADD27ROTATEDRECTD27*%

G04:AMPARAMS|DCode=28|XSize=29.53mil|YSize=17.72mil|CornerRadius=0mil|HoleSize=0mil|Usage=FLASHONLY|Rotation=45.000|XOffset=0mil|YOffset=0mil|HoleType=Round|Shape=Rectangle|*
%AMROTATEDRECTD28*
4,1,4,-0.00418,-0.01670,-0.01670,-0.00418,0.00418,0.01670,0.01670,0.00418,-0.00418,-0.01670,0.0*
%
%ADD28ROTATEDRECTD28*%

G04:AMPARAMS|DCode=29|XSize=31.1mil|YSize=29.53mil|CornerRadius=8.86mil|HoleSize=0mil|Usage=FLASHONLY|Rotation=0.000|XOffset=0mil|YOffset=0mil|HoleType=Round|Shape=RoundedRectangle|*
%AMROUNDEDRECTD29*
21,1,0.03110,0.01181,0,0,0.0*
21,1,0.01339,0.02953,0,0,0.0*
1,1,0.01772,0.00669,-0.00591*
1,1,0.01772,-0.00669,-0.00591*
1,1,0.01772,-0.00669,0.00591*
1,1,0.01772,0.00669,0.00591*
%
%ADD29ROUNDEDRECTD29*%
G04:AMPARAMS|DCode=30|XSize=26.38mil|YSize=27.95mil|CornerRadius=8.07mil|HoleSize=0mil|Usage=FLASHONLY|Rotation=270.000|XOffset=0mil|YOffset=0mil|HoleType=Round|Shape=RoundedRectangle|*
%AMROUNDEDRECTD30*
21,1,0.02638,0.01181,0,0,270.0*
21,1,0.01024,0.02795,0,0,270.0*
1,1,0.01614,-0.00591,-0.00512*
1,1,0.01614,-0.00591,0.00512*
1,1,0.01614,0.00591,0.00512*
1,1,0.01614,0.00591,-0.00512*
%
%ADD30ROUNDEDRECTD30*%
%ADD31R,0.03740X0.02756*%
%ADD32R,0.04134X0.03425*%
G04:AMPARAMS|DCode=33|XSize=31.1mil|YSize=29.53mil|CornerRadius=8.86mil|HoleSize=0mil|Usage=FLASHONLY|Rotation=270.000|XOffset=0mil|YOffset=0mil|HoleType=Round|Shape=RoundedRectangle|*
%AMROUNDEDRECTD33*
21,1,0.03110,0.01181,0,0,270.0*
21,1,0.01339,0.02953,0,0,270.0*
1,1,0.01772,-0.00591,-0.00669*
1,1,0.01772,-0.00591,0.00669*
1,1,0.01772,0.00591,0.00669*
1,1,0.01772,0.00591,-0.00669*
%
%ADD33ROUNDEDRECTD33*%
%ADD34R,0.07284X0.04528*%
%ADD35R,0.01772X0.03347*%
G04:AMPARAMS|DCode=36|XSize=26.38mil|YSize=27.95mil|CornerRadius=8.07mil|HoleSize=0mil|Usage=FLASHONLY|Rotation=180.000|XOffset=0mil|YOffset=0mil|HoleType=Round|Shape=RoundedRectangle|*
%AMROUNDEDRECTD36*
21,1,0.02638,0.01181,0,0,180.0*
21,1,0.01024,0.02795,0,0,180.0*
1,1,0.01614,-0.00512,0.00591*
1,1,0.01614,0.00512,0.00591*
1,1,0.01614,0.00512,-0.00591*
1,1,0.01614,-0.00512,-0.00591*
%
%ADD36ROUNDEDRECTD36*%
%ADD37C,0.04528*%
%ADD38R,0.10039X0.07284*%
%ADD39R,0.01772X0.03937*%
%ADD40C,0.06496*%
%ADD41R,0.06496X0.06496*%
%ADD42R,0.06496X0.06496*%
%ADD43C,0.18012*%
%ADD44C,0.08858*%
%ADD45C,0.07480*%
%ADD46C,0.02362*%
%ADD47C,0.02953*%
%ADD48C,0.03347*%
G36*
X37039Y208776D02*
X37086Y208773D01*
X37131Y208762D01*
X37174Y208744D01*
X37214Y208720D01*
X37249Y208690D01*
X37279Y208654D01*
X37303Y208615D01*
X37321Y208572D01*
X37332Y208527D01*
X37336Y208480D01*
X37336Y203980D01*
X37332Y203934D01*
X37321Y203889D01*
X37308Y203858D01*
X37303Y203846D01*
X37279Y203806D01*
X37249Y203771D01*
X37214Y203741D01*
X37174Y203716D01*
X37161Y203711D01*
X37131Y203699D01*
X37086Y203688D01*
X37039Y203684D01*
X36993Y203688D01*
X36948Y203699D01*
X36917Y203711D01*
X36905Y203716D01*
X36865Y203741D01*
X36830Y203771D01*
X35039Y205561D01*
X33249Y203771D01*
X33213Y203741D01*
X33174Y203716D01*
X33161Y203711D01*
X33131Y203699D01*
X33086Y203688D01*
X33039Y203684D01*
X32993Y203688D01*
X32948Y203699D01*
X32917Y203711D01*
X32905Y203716D01*
X32865Y203741D01*
X32830Y203771D01*
X32800Y203806D01*
X32776Y203846D01*
X32770Y203858D01*
X32758Y203889D01*
X32747Y203934D01*
X32743Y203980D01*
Y208480D01*
X32747Y208527D01*
X32758Y208572D01*
X32776Y208615D01*
X32800Y208654D01*
X32830Y208690D01*
X32865Y208720D01*
X32905Y208744D01*
X32948Y208762D01*
X32993Y208773D01*
X33039Y208776D01*
X37039Y208776D01*
D02*
G37*
G36*
X35086Y205273D02*
X35131Y205262D01*
X35174Y205244D01*
X35214Y205220D01*
X35249Y205190D01*
X37249Y203190D01*
X37279Y203154D01*
X37303Y203115D01*
X37308Y203102D01*
X37321Y203072D01*
X37332Y203027D01*
X37336Y202980D01*
X37336Y200980D01*
X37332Y200934D01*
X37321Y200889D01*
X37303Y200846D01*
X37279Y200806D01*
X37249Y200771D01*
X37214Y200741D01*
X37174Y200716D01*
X37131Y200699D01*
X37086Y200688D01*
X37039Y200684D01*
X33039Y200684D01*
X32993Y200688D01*
X32948Y200699D01*
X32905Y200716D01*
X32865Y200741D01*
X32830Y200771D01*
X32800Y200806D01*
X32776Y200846D01*
X32758Y200889D01*
X32747Y200934D01*
X32743Y200980D01*
X32743Y202980D01*
X32747Y203027D01*
X32758Y203072D01*
X32770Y203102D01*
X32776Y203115D01*
X32800Y203154D01*
X32830Y203190D01*
X34830Y205190D01*
X34865Y205220D01*
X34905Y205244D01*
X34948Y205262D01*
X34993Y205273D01*
X35039Y205276D01*
X35086Y205273D01*
D02*
G37*
G36*
X37117Y228671D02*
X37162Y228660D01*
X37205Y228642D01*
X37245Y228618D01*
X37280Y228587D01*
X37310Y228552D01*
X37335Y228512D01*
X37353Y228469D01*
X37363Y228424D01*
X37367Y228378D01*
Y223878D01*
X37363Y223832D01*
X37353Y223786D01*
X37340Y223756D01*
X37335Y223744D01*
X37310Y223704D01*
X37280Y223669D01*
X37245Y223638D01*
X37205Y223614D01*
X37162Y223596D01*
X37117Y223585D01*
X37071Y223582D01*
X37025Y223585D01*
X36979Y223596D01*
X36954Y223607D01*
X36936Y223614D01*
X36897Y223638D01*
X36861Y223669D01*
X36861Y223669D01*
X35071Y225459D01*
X33280Y223669D01*
X33245Y223638D01*
X33205Y223614D01*
X33193Y223609D01*
X33162Y223596D01*
X33117Y223585D01*
X33071Y223582D01*
X33024Y223585D01*
X32979Y223596D01*
X32949Y223609D01*
X32936Y223614D01*
X32897Y223638D01*
X32861Y223669D01*
X32831Y223704D01*
X32807Y223744D01*
X32802Y223756D01*
X32789Y223786D01*
X32778Y223832D01*
X32775Y223878D01*
Y228378D01*
X32778Y228424D01*
X32789Y228469D01*
X32807Y228512D01*
X32831Y228552D01*
X32861Y228587D01*
X32897Y228618D01*
X32936Y228642D01*
X32979Y228660D01*
X33024Y228671D01*
X33071Y228674D01*
X37071Y228674D01*
X37117Y228671D01*
D02*
G37*
G36*
X35117Y225170D02*
X35154Y225162D01*
X35162Y225160D01*
X35205Y225142D01*
X35245Y225118D01*
X35280Y225087D01*
X35280Y225087D01*
X37280Y223087D01*
X37310Y223052D01*
X37335Y223012D01*
X37340Y223000D01*
X37353Y222970D01*
X37363Y222924D01*
X37367Y222878D01*
Y220878D01*
X37363Y220832D01*
X37353Y220786D01*
X37335Y220743D01*
X37310Y220704D01*
X37280Y220669D01*
X37245Y220638D01*
X37205Y220614D01*
X37162Y220596D01*
X37117Y220585D01*
X37071Y220582D01*
X33071Y220582D01*
X33024Y220585D01*
X32979Y220596D01*
X32936Y220614D01*
X32897Y220638D01*
X32861Y220669D01*
X32831Y220704D01*
X32807Y220743D01*
X32789Y220786D01*
X32778Y220832D01*
X32775Y220878D01*
Y222878D01*
X32778Y222924D01*
X32789Y222970D01*
X32798Y222991D01*
X32807Y223012D01*
X32831Y223052D01*
X32861Y223087D01*
X34861Y225087D01*
X34897Y225118D01*
X34936Y225142D01*
X34979Y225160D01*
X35024Y225170D01*
X35071Y225174D01*
X35117Y225170D01*
D02*
G37*
D16*
X35071Y227378D02*
D03*
Y221878D02*
D03*
X35039Y207480D02*
D03*
Y201980D02*
D03*
D27*
X74230Y120174D02*
D03*
X75622Y121566D02*
D03*
X77014Y122958D02*
D03*
X78406Y124350D02*
D03*
X79798Y125742D02*
D03*
X81190Y127134D02*
D03*
X82582Y128526D02*
D03*
X94274Y116834D02*
D03*
X92882Y115442D02*
D03*
X91490Y114050D02*
D03*
X90098Y112658D02*
D03*
X88706Y111266D02*
D03*
X87314Y109874D02*
D03*
X85922Y108482D02*
D03*
D28*
Y128526D02*
D03*
X87314Y127134D02*
D03*
X88706Y125742D02*
D03*
X90098Y124350D02*
D03*
X91490Y122958D02*
D03*
X92882Y121566D02*
D03*
X94274Y120174D02*
D03*
X82582Y108482D02*
D03*
X81190Y109874D02*
D03*
X79798Y111266D02*
D03*
X78406Y112658D02*
D03*
X77014Y114050D02*
D03*
X75622Y115442D02*
D03*
X74230Y116834D02*
D03*
D29*
X87717Y168504D02*
D03*
X83937D02*
D03*
X98898Y106299D02*
D03*
X102677D02*
D03*
D30*
X35039Y210472D02*
D03*
Y213937D02*
D03*
X84252Y188031D02*
D03*
Y191496D02*
D03*
X81102Y188031D02*
D03*
Y191496D02*
D03*
X85827Y198346D02*
D03*
Y194882D02*
D03*
X48819Y112835D02*
D03*
Y116299D02*
D03*
Y124173D02*
D03*
Y120709D02*
D03*
D31*
X67323Y198228D02*
D03*
Y190748D02*
D03*
X77165Y198228D02*
D03*
X77165Y194488D02*
D03*
X77165Y190748D02*
D03*
D32*
X81890Y199606D02*
D03*
X81890Y194882D02*
D03*
D33*
X94095Y161102D02*
D03*
Y164882D02*
D03*
Y153228D02*
D03*
Y157008D02*
D03*
D34*
X85827Y159055D02*
D03*
D35*
X88779Y154921D02*
D03*
X86811D02*
D03*
X84842D02*
D03*
X82874D02*
D03*
Y163189D02*
D03*
X84842D02*
D03*
X86811D02*
D03*
X88779D02*
D03*
D36*
X99055Y110236D02*
D03*
X102520D02*
D03*
X78347Y151969D02*
D03*
X74882D02*
D03*
X78347Y148819D02*
D03*
X74882D02*
D03*
X72598Y112205D02*
D03*
X69134D02*
D03*
X27241Y197244D02*
D03*
X23777D02*
D03*
D37*
X69710Y130085D02*
D03*
X68624Y122764D02*
D03*
D38*
X57874Y118504D02*
D03*
D39*
X53937Y124213D02*
D03*
X55905D02*
D03*
X57874D02*
D03*
X59842Y124213D02*
D03*
X61811D02*
D03*
Y112795D02*
D03*
X59842D02*
D03*
X57874Y112795D02*
D03*
X55905Y112795D02*
D03*
X53937D02*
D03*
D40*
X124409Y109134D02*
D03*
Y119134D02*
D03*
X71890Y228346D02*
D03*
X81890Y228346D02*
D03*
X91890D02*
D03*
X71890Y238583D02*
D03*
X81890D02*
D03*
X91890D02*
D03*
D41*
X124409Y129134D02*
D03*
D42*
X61890Y228346D02*
D03*
Y238583D02*
D03*
D43*
X51142Y92913D02*
D03*
X123976D02*
D03*
D44*
X76732Y26772D02*
D03*
X96417D02*
D03*
X116102D02*
D03*
X76732Y7087D02*
D03*
X96417Y7087D02*
D03*
X116102Y7087D02*
D03*
D45*
X79921Y175984D02*
D03*
X92126D02*
D03*
D46*
X61380Y107443D02*
D03*
X51575Y181102D02*
D03*
X64173Y202362D02*
D03*
X107874D02*
D03*
X60236Y201575D02*
D03*
X55118Y203150D02*
D03*
X46457Y118504D02*
D03*
X87662Y114950D02*
D03*
X48778Y221805D02*
D03*
X44412Y219810D02*
D03*
X97244Y168504D02*
D03*
X53937Y163386D02*
D03*
X127559Y193701D02*
D03*
X84646Y146850D02*
D03*
X98819Y103937D02*
D03*
X29528Y197244D02*
D03*
X20490Y194134D02*
D03*
X133465Y227559D02*
D03*
Y212598D02*
D03*
X136614Y217323D02*
D03*
X84646Y129921D02*
D03*
X88976Y128740D02*
D03*
X80709Y130315D02*
D03*
X83071Y125197D02*
D03*
Y122441D02*
D03*
X80315D02*
D03*
Y114567D02*
D03*
X83071D02*
D03*
Y111811D02*
D03*
X97638Y153150D02*
D03*
X74803Y107480D02*
D03*
X53937Y109449D02*
D03*
X71653Y114567D02*
D03*
X68898D02*
D03*
X81102Y154724D02*
D03*
X120866Y174803D02*
D03*
X61811Y127165D02*
D03*
X51181Y118504D02*
D03*
X20472Y207087D02*
D03*
Y212205D02*
D03*
Y227559D02*
D03*
X17323D02*
D03*
Y212205D02*
D03*
X20472Y217323D02*
D03*
X72441Y151969D02*
D03*
Y148819D02*
D03*
X17323Y217323D02*
D03*
D47*
X84252Y185039D02*
D03*
X87469Y191629D02*
D03*
X87402Y188189D02*
D03*
X79921Y162992D02*
D03*
X85827Y159055D02*
D03*
X97638Y157087D02*
D03*
Y161024D02*
D03*
X88583Y194882D02*
D03*
D48*
X69710Y130085D02*
D03*
X68624Y122764D02*
D03*
M02*
