G04*
G04 #@! TF.GenerationSoftware,Altium Limited,Altium Designer,20.0.9 (164)*
G04*
G04 Layer_Physical_Order=3*
G04 Layer_Color=16440176*
%FSLAX25Y25*%
%MOIN*%
G70*
G01*
G75*
%ADD20C,0.01181*%
%ADD25C,0.00787*%
%ADD26C,0.10000*%
%ADD27C,0.04331*%
%ADD28R,0.04331X0.04331*%
%ADD29C,0.05906*%
%ADD31R,0.05906X0.05906*%
%ADD32C,0.01968*%
%ADD33C,0.03937*%
G36*
X430098Y466429D02*
X429254Y466079D01*
X427549Y465034D01*
X426028Y463736D01*
X424729Y462215D01*
X423684Y460510D01*
X422919Y458663D01*
X422452Y456718D01*
X422295Y454724D01*
X422452Y452731D01*
X422919Y450786D01*
X423684Y448939D01*
X424729Y447234D01*
X426028Y445713D01*
X427549Y444414D01*
X429254Y443369D01*
X431101Y442604D01*
X433046Y442137D01*
X435039Y441980D01*
X437033Y442137D01*
X438977Y442604D01*
X440825Y443369D01*
X442530Y444414D01*
X444051Y445713D01*
X445350Y447234D01*
X446394Y448939D01*
X446744Y449783D01*
X447244Y449684D01*
Y231419D01*
X446744Y231319D01*
X446394Y232164D01*
X445350Y233869D01*
X444051Y235389D01*
X442530Y236688D01*
X440825Y237733D01*
X438977Y238498D01*
X437033Y238965D01*
X435039Y239122D01*
X433046Y238965D01*
X431101Y238498D01*
X429254Y237733D01*
X427549Y236688D01*
X426028Y235389D01*
X424729Y233869D01*
X423684Y232164D01*
X422919Y230316D01*
X422452Y228372D01*
X422295Y226378D01*
X422452Y224384D01*
X422919Y222440D01*
X423684Y220592D01*
X424729Y218887D01*
X426028Y217367D01*
X427549Y216068D01*
X429254Y215023D01*
X430098Y214673D01*
X429998Y214173D01*
X247167D01*
X247067Y214673D01*
X247912Y215023D01*
X249617Y216068D01*
X251137Y217367D01*
X252436Y218887D01*
X253481Y220592D01*
X254246Y222440D01*
X254713Y224384D01*
X254870Y226378D01*
X254713Y228372D01*
X254246Y230316D01*
X253481Y232164D01*
X252436Y233869D01*
X251137Y235389D01*
X249617Y236688D01*
X247912Y237733D01*
X246064Y238498D01*
X244120Y238965D01*
X242126Y239122D01*
X240132Y238965D01*
X238188Y238498D01*
X236340Y237733D01*
X234635Y236688D01*
X233115Y235389D01*
X231816Y233869D01*
X230771Y232164D01*
X230421Y231319D01*
X229921Y231419D01*
Y449684D01*
X230421Y449783D01*
X230771Y448939D01*
X231816Y447234D01*
X233115Y445713D01*
X234635Y444414D01*
X236340Y443369D01*
X238188Y442604D01*
X240132Y442137D01*
X242126Y441980D01*
X244120Y442137D01*
X246064Y442604D01*
X247912Y443369D01*
X249617Y444414D01*
X251137Y445713D01*
X252436Y447234D01*
X253481Y448939D01*
X254246Y450786D01*
X254713Y452731D01*
X254870Y454724D01*
X254713Y456718D01*
X254246Y458663D01*
X253481Y460510D01*
X252436Y462215D01*
X251137Y463736D01*
X249617Y465034D01*
X247912Y466079D01*
X247067Y466429D01*
X247167Y466929D01*
X429998D01*
X430098Y466429D01*
D02*
G37*
%LPC*%
G36*
X247326Y438906D02*
Y435751D01*
X250481D01*
X250392Y436426D01*
X250055Y437242D01*
X249517Y437942D01*
X248817Y438480D01*
X248001Y438818D01*
X247326Y438906D01*
D02*
G37*
G36*
X246926D02*
X246251Y438818D01*
X245435Y438480D01*
X244735Y437942D01*
X244197Y437242D01*
X243860Y436426D01*
X243771Y435751D01*
X246926D01*
Y438906D01*
D02*
G37*
G36*
X250481Y435351D02*
X247326D01*
Y432196D01*
X248001Y432285D01*
X248817Y432623D01*
X249517Y433160D01*
X250055Y433860D01*
X250392Y434676D01*
X250481Y435351D01*
D02*
G37*
G36*
X246926D02*
X243771D01*
X243860Y434676D01*
X244197Y433860D01*
X244735Y433160D01*
X245435Y432623D01*
X246251Y432285D01*
X246926Y432196D01*
Y435351D01*
D02*
G37*
G36*
X237126Y438933D02*
X236251Y438818D01*
X235435Y438480D01*
X234735Y437942D01*
X234197Y437242D01*
X233859Y436426D01*
X233744Y435551D01*
X233859Y434676D01*
X234197Y433860D01*
X234735Y433160D01*
X235435Y432623D01*
X236251Y432285D01*
X237126Y432169D01*
X238001Y432285D01*
X238817Y432623D01*
X239517Y433160D01*
X240055Y433860D01*
X240392Y434676D01*
X240508Y435551D01*
X240392Y436426D01*
X240055Y437242D01*
X239517Y437942D01*
X238817Y438480D01*
X238001Y438818D01*
X237126Y438933D01*
D02*
G37*
G36*
X261811Y427196D02*
X261197Y427074D01*
X260676Y426726D01*
X260328Y426205D01*
X260205Y425591D01*
X260328Y424976D01*
X260676Y424455D01*
X261197Y424107D01*
X261811Y423985D01*
X262425Y424107D01*
X262946Y424455D01*
X263295Y424976D01*
X263417Y425591D01*
X263295Y426205D01*
X262946Y426726D01*
X262425Y427074D01*
X261811Y427196D01*
D02*
G37*
G36*
X433465Y434502D02*
X432055Y434316D01*
X430741Y433772D01*
X429613Y432906D01*
X428748Y431778D01*
X428204Y430465D01*
X428018Y429055D01*
X428204Y427645D01*
X428748Y426332D01*
X429613Y425204D01*
X430741Y424338D01*
X432055Y423794D01*
X433465Y423608D01*
X434874Y423794D01*
X436188Y424338D01*
X437316Y425204D01*
X438181Y426332D01*
X438726Y427645D01*
X438911Y429055D01*
X438726Y430465D01*
X438181Y431778D01*
X437316Y432906D01*
X436188Y433772D01*
X434874Y434316D01*
X433465Y434502D01*
D02*
G37*
G36*
X247126Y428933D02*
X246251Y428818D01*
X245435Y428480D01*
X244735Y427942D01*
X244197Y427242D01*
X243860Y426426D01*
X243744Y425551D01*
X243860Y424676D01*
X244197Y423860D01*
X244735Y423160D01*
X245435Y422623D01*
X246251Y422285D01*
X247126Y422169D01*
X248001Y422285D01*
X248817Y422623D01*
X249517Y423160D01*
X250055Y423860D01*
X250392Y424676D01*
X250508Y425551D01*
X250392Y426426D01*
X250055Y427242D01*
X249517Y427942D01*
X248817Y428480D01*
X248001Y428818D01*
X247126Y428933D01*
D02*
G37*
G36*
X237126D02*
X236251Y428818D01*
X235435Y428480D01*
X234735Y427942D01*
X234197Y427242D01*
X233859Y426426D01*
X233744Y425551D01*
X233859Y424676D01*
X234197Y423860D01*
X234735Y423160D01*
X235435Y422623D01*
X236251Y422285D01*
X237126Y422169D01*
X238001Y422285D01*
X238817Y422623D01*
X239517Y423160D01*
X240055Y423860D01*
X240392Y424676D01*
X240508Y425551D01*
X240392Y426426D01*
X240055Y427242D01*
X239517Y427942D01*
X238817Y428480D01*
X238001Y428818D01*
X237126Y428933D01*
D02*
G37*
G36*
X310236Y421291D02*
X309622Y421169D01*
X309101Y420820D01*
X308962Y420613D01*
X308361D01*
X308222Y420820D01*
X307701Y421169D01*
X307087Y421291D01*
X306472Y421169D01*
X305951Y420820D01*
X305603Y420299D01*
X305481Y419685D01*
X305603Y419071D01*
X305951Y418550D01*
X306159Y418411D01*
Y417810D01*
X305951Y417671D01*
X305603Y417150D01*
X305481Y416535D01*
X305603Y415921D01*
X305951Y415400D01*
X306472Y415052D01*
X307087Y414930D01*
X307701Y415052D01*
X308222Y415400D01*
X308361Y415608D01*
X308962D01*
X309101Y415400D01*
X309622Y415052D01*
X310236Y414930D01*
X310851Y415052D01*
X311372Y415400D01*
X311720Y415921D01*
X311842Y416535D01*
X311720Y417150D01*
X311372Y417671D01*
X311164Y417810D01*
Y418411D01*
X311372Y418550D01*
X311720Y419071D01*
X311842Y419685D01*
X311720Y420299D01*
X311372Y420820D01*
X310851Y421169D01*
X310236Y421291D01*
D02*
G37*
G36*
X388583Y421291D02*
X387968Y421169D01*
X387447Y420820D01*
X387309Y420613D01*
X386707D01*
X386568Y420820D01*
X386048Y421169D01*
X385433Y421291D01*
X384819Y421169D01*
X384298Y420820D01*
X383950Y420299D01*
X383827Y419685D01*
X383950Y419071D01*
X384298Y418550D01*
X384505Y418411D01*
Y417810D01*
X384298Y417671D01*
X383950Y417150D01*
X383827Y416535D01*
X383950Y415921D01*
X384298Y415400D01*
X384819Y415052D01*
X385433Y414930D01*
X386048Y415052D01*
X386568Y415400D01*
X386707Y415608D01*
X387309D01*
X387447Y415400D01*
X387968Y415052D01*
X388583Y414930D01*
X389197Y415052D01*
X389718Y415400D01*
X390066Y415921D01*
X390188Y416535D01*
X390066Y417150D01*
X389718Y417671D01*
X389510Y417810D01*
Y418411D01*
X389718Y418550D01*
X390066Y419071D01*
X390188Y419685D01*
X390066Y420299D01*
X389718Y420820D01*
X389197Y421169D01*
X388583Y421291D01*
D02*
G37*
G36*
X247126Y418933D02*
X246251Y418818D01*
X245435Y418480D01*
X244735Y417942D01*
X244197Y417242D01*
X243860Y416426D01*
X243744Y415551D01*
X243860Y414676D01*
X244197Y413860D01*
X244735Y413160D01*
X245435Y412623D01*
X246251Y412285D01*
X247126Y412170D01*
X248001Y412285D01*
X248817Y412623D01*
X249517Y413160D01*
X250055Y413860D01*
X250392Y414676D01*
X250508Y415551D01*
X250392Y416426D01*
X250055Y417242D01*
X249517Y417942D01*
X248817Y418480D01*
X248001Y418818D01*
X247126Y418933D01*
D02*
G37*
G36*
X237126D02*
X236251Y418818D01*
X235435Y418480D01*
X234735Y417942D01*
X234197Y417242D01*
X233859Y416426D01*
X233744Y415551D01*
X233859Y414676D01*
X234197Y413860D01*
X234735Y413160D01*
X235435Y412623D01*
X236251Y412285D01*
X237126Y412170D01*
X238001Y412285D01*
X238817Y412623D01*
X239517Y413160D01*
X240055Y413860D01*
X240392Y414676D01*
X240508Y415551D01*
X240392Y416426D01*
X240055Y417242D01*
X239517Y417942D01*
X238817Y418480D01*
X238001Y418818D01*
X237126Y418933D01*
D02*
G37*
G36*
X260236Y412629D02*
X259622Y412507D01*
X259101Y412159D01*
X258753Y411638D01*
X258631Y411024D01*
X258753Y410409D01*
X259101Y409888D01*
X259622Y409540D01*
X260236Y409418D01*
X260851Y409540D01*
X261372Y409888D01*
X261720Y410409D01*
X261842Y411024D01*
X261720Y411638D01*
X261372Y412159D01*
X260851Y412507D01*
X260236Y412629D01*
D02*
G37*
G36*
X433665Y414475D02*
Y409255D01*
X438885D01*
X438726Y410465D01*
X438181Y411778D01*
X437316Y412907D01*
X436188Y413772D01*
X434874Y414316D01*
X433665Y414475D01*
D02*
G37*
G36*
X433265D02*
X432055Y414316D01*
X430741Y413772D01*
X429613Y412907D01*
X428748Y411778D01*
X428204Y410465D01*
X428044Y409255D01*
X433265D01*
Y414475D01*
D02*
G37*
G36*
X237326Y408907D02*
Y405751D01*
X240481D01*
X240392Y406426D01*
X240055Y407242D01*
X239517Y407942D01*
X238817Y408480D01*
X238001Y408818D01*
X237326Y408907D01*
D02*
G37*
G36*
X236926D02*
X236251Y408818D01*
X235435Y408480D01*
X234735Y407942D01*
X234197Y407242D01*
X233859Y406426D01*
X233771Y405751D01*
X236926D01*
Y408907D01*
D02*
G37*
G36*
X264173Y407511D02*
X263559Y407389D01*
X263038Y407041D01*
X262690Y406520D01*
X262568Y405905D01*
X262690Y405291D01*
X263038Y404770D01*
X263559Y404422D01*
X264173Y404300D01*
X264788Y404422D01*
X265309Y404770D01*
X265657Y405291D01*
X265779Y405905D01*
X265657Y406520D01*
X265309Y407041D01*
X264788Y407389D01*
X264173Y407511D01*
D02*
G37*
G36*
X433265Y408855D02*
X428044D01*
X428204Y407645D01*
X428748Y406332D01*
X429613Y405204D01*
X430741Y404338D01*
X432055Y403794D01*
X433265Y403635D01*
Y408855D01*
D02*
G37*
G36*
X438885D02*
X433665D01*
Y403635D01*
X434874Y403794D01*
X436188Y404338D01*
X437316Y405204D01*
X438181Y406332D01*
X438726Y407645D01*
X438885Y408855D01*
D02*
G37*
G36*
X240481Y405351D02*
X237326D01*
Y402196D01*
X238001Y402285D01*
X238817Y402623D01*
X239517Y403160D01*
X240055Y403860D01*
X240392Y404676D01*
X240481Y405351D01*
D02*
G37*
G36*
X236926D02*
X233771D01*
X233859Y404676D01*
X234197Y403860D01*
X234735Y403160D01*
X235435Y402623D01*
X236251Y402285D01*
X236926Y402196D01*
Y405351D01*
D02*
G37*
G36*
X247126Y408933D02*
X246251Y408818D01*
X245435Y408480D01*
X244735Y407942D01*
X244197Y407242D01*
X243860Y406426D01*
X243744Y405551D01*
X243860Y404676D01*
X244197Y403860D01*
X244735Y403160D01*
X245435Y402623D01*
X246251Y402285D01*
X247126Y402170D01*
X248001Y402285D01*
X248817Y402623D01*
X249517Y403160D01*
X250055Y403860D01*
X250392Y404676D01*
X250508Y405551D01*
X250392Y406426D01*
X250055Y407242D01*
X249517Y407942D01*
X248817Y408480D01*
X248001Y408818D01*
X247126Y408933D01*
D02*
G37*
G36*
Y398933D02*
X246251Y398818D01*
X245435Y398480D01*
X244735Y397942D01*
X244197Y397242D01*
X243860Y396426D01*
X243744Y395551D01*
X243860Y394676D01*
X244197Y393860D01*
X244735Y393160D01*
X245435Y392623D01*
X246251Y392285D01*
X247126Y392169D01*
X248001Y392285D01*
X248817Y392623D01*
X249517Y393160D01*
X250055Y393860D01*
X250392Y394676D01*
X250508Y395551D01*
X250392Y396426D01*
X250055Y397242D01*
X249517Y397942D01*
X248817Y398480D01*
X248001Y398818D01*
X247126Y398933D01*
D02*
G37*
G36*
X237126D02*
X236251Y398818D01*
X235435Y398480D01*
X234735Y397942D01*
X234197Y397242D01*
X233859Y396426D01*
X233744Y395551D01*
X233859Y394676D01*
X234197Y393860D01*
X234735Y393160D01*
X235435Y392623D01*
X236251Y392285D01*
X237126Y392169D01*
X238001Y392285D01*
X238817Y392623D01*
X239517Y393160D01*
X240055Y393860D01*
X240392Y394676D01*
X240508Y395551D01*
X240392Y396426D01*
X240055Y397242D01*
X239517Y397942D01*
X238817Y398480D01*
X238001Y398818D01*
X237126Y398933D01*
D02*
G37*
G36*
X237326Y388907D02*
Y385751D01*
X240481D01*
X240392Y386426D01*
X240055Y387242D01*
X239517Y387942D01*
X238817Y388480D01*
X238001Y388818D01*
X237326Y388907D01*
D02*
G37*
G36*
X236926D02*
X236251Y388818D01*
X235435Y388480D01*
X234735Y387942D01*
X234197Y387242D01*
X233859Y386426D01*
X233771Y385751D01*
X236926D01*
Y388907D01*
D02*
G37*
G36*
X240481Y385351D02*
X237326D01*
Y382196D01*
X238001Y382285D01*
X238817Y382623D01*
X239517Y383160D01*
X240055Y383860D01*
X240392Y384676D01*
X240481Y385351D01*
D02*
G37*
G36*
X236926D02*
X233771D01*
X233859Y384676D01*
X234197Y383860D01*
X234735Y383160D01*
X235435Y382623D01*
X236251Y382285D01*
X236926Y382196D01*
Y385351D01*
D02*
G37*
G36*
X247126Y388933D02*
X246251Y388818D01*
X245435Y388480D01*
X244735Y387942D01*
X244197Y387242D01*
X243860Y386426D01*
X243744Y385551D01*
X243860Y384676D01*
X244197Y383860D01*
X244735Y383160D01*
X245435Y382623D01*
X246251Y382285D01*
X247126Y382170D01*
X248001Y382285D01*
X248817Y382623D01*
X249517Y383160D01*
X250055Y383860D01*
X250392Y384676D01*
X250508Y385551D01*
X250392Y386426D01*
X250055Y387242D01*
X249517Y387942D01*
X248817Y388480D01*
X248001Y388818D01*
X247126Y388933D01*
D02*
G37*
G36*
Y378933D02*
X246251Y378818D01*
X245435Y378480D01*
X244735Y377942D01*
X244197Y377242D01*
X243860Y376426D01*
X243744Y375551D01*
X243860Y374676D01*
X244197Y373860D01*
X244735Y373160D01*
X245435Y372623D01*
X246251Y372285D01*
X247126Y372169D01*
X248001Y372285D01*
X248817Y372623D01*
X249517Y373160D01*
X250055Y373860D01*
X250392Y374676D01*
X250508Y375551D01*
X250392Y376426D01*
X250055Y377242D01*
X249517Y377942D01*
X248817Y378480D01*
X248001Y378818D01*
X247126Y378933D01*
D02*
G37*
G36*
X237126D02*
X236251Y378818D01*
X235435Y378480D01*
X234735Y377942D01*
X234197Y377242D01*
X233859Y376426D01*
X233744Y375551D01*
X233859Y374676D01*
X234197Y373860D01*
X234735Y373160D01*
X235435Y372623D01*
X236251Y372285D01*
X237126Y372169D01*
X238001Y372285D01*
X238817Y372623D01*
X239517Y373160D01*
X240055Y373860D01*
X240392Y374676D01*
X240508Y375551D01*
X240392Y376426D01*
X240055Y377242D01*
X239517Y377942D01*
X238817Y378480D01*
X238001Y378818D01*
X237126Y378933D01*
D02*
G37*
G36*
X247326Y368906D02*
Y365751D01*
X250481D01*
X250392Y366426D01*
X250055Y367242D01*
X249517Y367942D01*
X248817Y368480D01*
X248001Y368818D01*
X247326Y368906D01*
D02*
G37*
G36*
X246926D02*
X246251Y368818D01*
X245435Y368480D01*
X244735Y367942D01*
X244197Y367242D01*
X243860Y366426D01*
X243771Y365751D01*
X246926D01*
Y368906D01*
D02*
G37*
G36*
X250481Y365351D02*
X247326D01*
Y362196D01*
X248001Y362285D01*
X248817Y362623D01*
X249517Y363160D01*
X250055Y363860D01*
X250392Y364676D01*
X250481Y365351D01*
D02*
G37*
G36*
X246926D02*
X243771D01*
X243860Y364676D01*
X244197Y363860D01*
X244735Y363160D01*
X245435Y362623D01*
X246251Y362285D01*
X246926Y362196D01*
Y365351D01*
D02*
G37*
G36*
X237126Y368933D02*
X236251Y368818D01*
X235435Y368480D01*
X234735Y367942D01*
X234197Y367242D01*
X233859Y366426D01*
X233744Y365551D01*
X233859Y364676D01*
X234197Y363860D01*
X234735Y363160D01*
X235435Y362623D01*
X236251Y362285D01*
X237126Y362170D01*
X238001Y362285D01*
X238817Y362623D01*
X239517Y363160D01*
X240055Y363860D01*
X240392Y364676D01*
X240508Y365551D01*
X240392Y366426D01*
X240055Y367242D01*
X239517Y367942D01*
X238817Y368480D01*
X238001Y368818D01*
X237126Y368933D01*
D02*
G37*
G36*
X247126Y358933D02*
X246251Y358818D01*
X245435Y358480D01*
X244735Y357942D01*
X244197Y357242D01*
X243860Y356426D01*
X243744Y355551D01*
X243860Y354676D01*
X244197Y353860D01*
X244735Y353160D01*
X245435Y352623D01*
X246251Y352285D01*
X247126Y352169D01*
X248001Y352285D01*
X248817Y352623D01*
X249517Y353160D01*
X250055Y353860D01*
X250392Y354676D01*
X250508Y355551D01*
X250392Y356426D01*
X250055Y357242D01*
X249517Y357942D01*
X248817Y358480D01*
X248001Y358818D01*
X247126Y358933D01*
D02*
G37*
G36*
X237126D02*
X236251Y358818D01*
X235435Y358480D01*
X234735Y357942D01*
X234197Y357242D01*
X233859Y356426D01*
X233744Y355551D01*
X233859Y354676D01*
X234197Y353860D01*
X234735Y353160D01*
X235435Y352623D01*
X236251Y352285D01*
X237126Y352169D01*
X238001Y352285D01*
X238817Y352623D01*
X239517Y353160D01*
X240055Y353860D01*
X240392Y354676D01*
X240508Y355551D01*
X240392Y356426D01*
X240055Y357242D01*
X239517Y357942D01*
X238817Y358480D01*
X238001Y358818D01*
X237126Y358933D01*
D02*
G37*
G36*
X256299Y352393D02*
X255685Y352271D01*
X255164Y351923D01*
X254816Y351402D01*
X254694Y350787D01*
X254816Y350173D01*
X255164Y349652D01*
X255685Y349304D01*
X256299Y349182D01*
X256914Y349304D01*
X257435Y349652D01*
X257783Y350173D01*
X257905Y350787D01*
X257783Y351402D01*
X257435Y351923D01*
X256914Y352271D01*
X256299Y352393D01*
D02*
G37*
G36*
X247126Y348933D02*
X246251Y348818D01*
X245435Y348480D01*
X244735Y347942D01*
X244197Y347242D01*
X243860Y346426D01*
X243744Y345551D01*
X243860Y344676D01*
X244197Y343860D01*
X244735Y343160D01*
X245435Y342623D01*
X246251Y342285D01*
X247126Y342169D01*
X248001Y342285D01*
X248817Y342623D01*
X249517Y343160D01*
X250055Y343860D01*
X250392Y344676D01*
X250508Y345551D01*
X250392Y346426D01*
X250055Y347242D01*
X249517Y347942D01*
X248817Y348480D01*
X248001Y348818D01*
X247126Y348933D01*
D02*
G37*
G36*
X237126D02*
X236251Y348818D01*
X235435Y348480D01*
X234735Y347942D01*
X234197Y347242D01*
X233859Y346426D01*
X233744Y345551D01*
X233859Y344676D01*
X234197Y343860D01*
X234735Y343160D01*
X235435Y342623D01*
X236251Y342285D01*
X237126Y342169D01*
X238001Y342285D01*
X238817Y342623D01*
X239517Y343160D01*
X240055Y343860D01*
X240392Y344676D01*
X240508Y345551D01*
X240392Y346426D01*
X240055Y347242D01*
X239517Y347942D01*
X238817Y348480D01*
X238001Y348818D01*
X237126Y348933D01*
D02*
G37*
G36*
X262205Y342944D02*
X261590Y342822D01*
X261069Y342474D01*
X260721Y341953D01*
X260599Y341339D01*
X260721Y340724D01*
X261069Y340203D01*
X261590Y339855D01*
X262205Y339733D01*
X262819Y339855D01*
X263340Y340203D01*
X263688Y340724D01*
X263810Y341339D01*
X263688Y341953D01*
X263340Y342474D01*
X262819Y342822D01*
X262205Y342944D01*
D02*
G37*
G36*
X237326Y338907D02*
Y335751D01*
X240481D01*
X240392Y336426D01*
X240055Y337242D01*
X239517Y337942D01*
X238817Y338480D01*
X238001Y338818D01*
X237326Y338907D01*
D02*
G37*
G36*
X236926D02*
X236251Y338818D01*
X235435Y338480D01*
X234735Y337942D01*
X234197Y337242D01*
X233859Y336426D01*
X233771Y335751D01*
X236926D01*
Y338907D01*
D02*
G37*
G36*
X240481Y335351D02*
X237326D01*
Y332196D01*
X238001Y332285D01*
X238817Y332623D01*
X239517Y333160D01*
X240055Y333860D01*
X240392Y334676D01*
X240481Y335351D01*
D02*
G37*
G36*
X236926D02*
X233771D01*
X233859Y334676D01*
X234197Y333860D01*
X234735Y333160D01*
X235435Y332623D01*
X236251Y332285D01*
X236926Y332196D01*
Y335351D01*
D02*
G37*
G36*
X247126Y338933D02*
X246251Y338818D01*
X245435Y338480D01*
X244735Y337942D01*
X244197Y337242D01*
X243860Y336426D01*
X243744Y335551D01*
X243860Y334676D01*
X244197Y333860D01*
X244735Y333160D01*
X245435Y332623D01*
X246251Y332285D01*
X247126Y332170D01*
X248001Y332285D01*
X248817Y332623D01*
X249517Y333160D01*
X250055Y333860D01*
X250392Y334676D01*
X250508Y335551D01*
X250392Y336426D01*
X250055Y337242D01*
X249517Y337942D01*
X248817Y338480D01*
X248001Y338818D01*
X247126Y338933D01*
D02*
G37*
G36*
Y328933D02*
X246251Y328818D01*
X245435Y328480D01*
X244735Y327942D01*
X244197Y327242D01*
X243860Y326426D01*
X243744Y325551D01*
X243860Y324676D01*
X244197Y323860D01*
X244735Y323160D01*
X245435Y322623D01*
X246251Y322285D01*
X247126Y322169D01*
X248001Y322285D01*
X248817Y322623D01*
X249517Y323160D01*
X250055Y323860D01*
X250392Y324676D01*
X250508Y325551D01*
X250392Y326426D01*
X250055Y327242D01*
X249517Y327942D01*
X248817Y328480D01*
X248001Y328818D01*
X247126Y328933D01*
D02*
G37*
G36*
X237126D02*
X236251Y328818D01*
X235435Y328480D01*
X234735Y327942D01*
X234197Y327242D01*
X233859Y326426D01*
X233744Y325551D01*
X233859Y324676D01*
X234197Y323860D01*
X234735Y323160D01*
X235435Y322623D01*
X236251Y322285D01*
X237126Y322169D01*
X238001Y322285D01*
X238817Y322623D01*
X239517Y323160D01*
X240055Y323860D01*
X240392Y324676D01*
X240508Y325551D01*
X240392Y326426D01*
X240055Y327242D01*
X239517Y327942D01*
X238817Y328480D01*
X238001Y328818D01*
X237126Y328933D01*
D02*
G37*
G36*
X264173Y322866D02*
X263559Y322743D01*
X263038Y322395D01*
X262690Y321874D01*
X262568Y321260D01*
X262690Y320645D01*
X263038Y320125D01*
X263559Y319776D01*
X264173Y319654D01*
X264788Y319776D01*
X265309Y320125D01*
X265657Y320645D01*
X265779Y321260D01*
X265657Y321874D01*
X265309Y322395D01*
X264788Y322743D01*
X264173Y322866D01*
D02*
G37*
G36*
X247126Y318933D02*
X246251Y318818D01*
X245435Y318480D01*
X244735Y317942D01*
X244197Y317242D01*
X243860Y316426D01*
X243744Y315551D01*
X243860Y314676D01*
X244197Y313860D01*
X244735Y313160D01*
X245435Y312623D01*
X246251Y312285D01*
X247126Y312170D01*
X248001Y312285D01*
X248817Y312623D01*
X249517Y313160D01*
X250055Y313860D01*
X250392Y314676D01*
X250508Y315551D01*
X250392Y316426D01*
X250055Y317242D01*
X249517Y317942D01*
X248817Y318480D01*
X248001Y318818D01*
X247126Y318933D01*
D02*
G37*
G36*
X237126D02*
X236251Y318818D01*
X235435Y318480D01*
X234735Y317942D01*
X234197Y317242D01*
X233859Y316426D01*
X233744Y315551D01*
X233859Y314676D01*
X234197Y313860D01*
X234735Y313160D01*
X235435Y312623D01*
X236251Y312285D01*
X237126Y312170D01*
X238001Y312285D01*
X238817Y312623D01*
X239517Y313160D01*
X240055Y313860D01*
X240392Y314676D01*
X240508Y315551D01*
X240392Y316426D01*
X240055Y317242D01*
X239517Y317942D01*
X238817Y318480D01*
X238001Y318818D01*
X237126Y318933D01*
D02*
G37*
G36*
X237326Y308907D02*
Y305751D01*
X240481D01*
X240392Y306426D01*
X240055Y307242D01*
X239517Y307942D01*
X238817Y308480D01*
X238001Y308818D01*
X237326Y308907D01*
D02*
G37*
G36*
X236926D02*
X236251Y308818D01*
X235435Y308480D01*
X234735Y307942D01*
X234197Y307242D01*
X233859Y306426D01*
X233771Y305751D01*
X236926D01*
Y308907D01*
D02*
G37*
G36*
X240481Y305351D02*
X237326D01*
Y302196D01*
X238001Y302285D01*
X238817Y302623D01*
X239517Y303160D01*
X240055Y303860D01*
X240392Y304676D01*
X240481Y305351D01*
D02*
G37*
G36*
X236926D02*
X233771D01*
X233859Y304676D01*
X234197Y303860D01*
X234735Y303160D01*
X235435Y302623D01*
X236251Y302285D01*
X236926Y302196D01*
Y305351D01*
D02*
G37*
G36*
X247126Y308933D02*
X246251Y308818D01*
X245435Y308480D01*
X244735Y307942D01*
X244197Y307242D01*
X243860Y306426D01*
X243744Y305551D01*
X243860Y304676D01*
X244197Y303860D01*
X244735Y303160D01*
X245435Y302623D01*
X246251Y302285D01*
X247126Y302169D01*
X248001Y302285D01*
X248817Y302623D01*
X249517Y303160D01*
X250055Y303860D01*
X250392Y304676D01*
X250508Y305551D01*
X250392Y306426D01*
X250055Y307242D01*
X249517Y307942D01*
X248817Y308480D01*
X248001Y308818D01*
X247126Y308933D01*
D02*
G37*
G36*
Y298933D02*
X246251Y298818D01*
X245435Y298480D01*
X244735Y297942D01*
X244197Y297242D01*
X243860Y296426D01*
X243744Y295551D01*
X243860Y294676D01*
X244197Y293860D01*
X244735Y293160D01*
X245435Y292623D01*
X246251Y292285D01*
X247126Y292169D01*
X248001Y292285D01*
X248817Y292623D01*
X249517Y293160D01*
X250055Y293860D01*
X250392Y294676D01*
X250508Y295551D01*
X250392Y296426D01*
X250055Y297242D01*
X249517Y297942D01*
X248817Y298480D01*
X248001Y298818D01*
X247126Y298933D01*
D02*
G37*
G36*
X237126D02*
X236251Y298818D01*
X235435Y298480D01*
X234735Y297942D01*
X234197Y297242D01*
X233859Y296426D01*
X233744Y295551D01*
X233859Y294676D01*
X234197Y293860D01*
X234735Y293160D01*
X235435Y292623D01*
X236251Y292285D01*
X237126Y292169D01*
X238001Y292285D01*
X238817Y292623D01*
X239517Y293160D01*
X240055Y293860D01*
X240392Y294676D01*
X240508Y295551D01*
X240392Y296426D01*
X240055Y297242D01*
X239517Y297942D01*
X238817Y298480D01*
X238001Y298818D01*
X237126Y298933D01*
D02*
G37*
G36*
X405118Y292157D02*
X404504Y292035D01*
X403983Y291687D01*
X403635Y291166D01*
X403512Y290551D01*
X403635Y289937D01*
X403983Y289416D01*
X404504Y289068D01*
X405118Y288946D01*
X405733Y289068D01*
X406253Y289416D01*
X406337Y289541D01*
X416891D01*
X416975Y289416D01*
X417496Y289068D01*
X418110Y288946D01*
X418725Y289068D01*
X419246Y289416D01*
X419594Y289937D01*
X419716Y290551D01*
X419594Y291166D01*
X419246Y291687D01*
X418725Y292035D01*
X418110Y292157D01*
X417496Y292035D01*
X416975Y291687D01*
X416891Y291561D01*
X406337D01*
X406253Y291687D01*
X405733Y292035D01*
X405118Y292157D01*
D02*
G37*
G36*
X247326Y288907D02*
Y285751D01*
X250481D01*
X250392Y286426D01*
X250055Y287242D01*
X249517Y287942D01*
X248817Y288480D01*
X248001Y288818D01*
X247326Y288907D01*
D02*
G37*
G36*
X246926D02*
X246251Y288818D01*
X245435Y288480D01*
X244735Y287942D01*
X244197Y287242D01*
X243860Y286426D01*
X243771Y285751D01*
X246926D01*
Y288907D01*
D02*
G37*
G36*
X250481Y285351D02*
X247326D01*
Y282196D01*
X248001Y282285D01*
X248817Y282623D01*
X249517Y283160D01*
X250055Y283860D01*
X250392Y284676D01*
X250481Y285351D01*
D02*
G37*
G36*
X246926D02*
X243771D01*
X243860Y284676D01*
X244197Y283860D01*
X244735Y283160D01*
X245435Y282623D01*
X246251Y282285D01*
X246926Y282196D01*
Y285351D01*
D02*
G37*
G36*
X237126Y288933D02*
X236251Y288818D01*
X235435Y288480D01*
X234735Y287942D01*
X234197Y287242D01*
X233859Y286426D01*
X233744Y285551D01*
X233859Y284676D01*
X234197Y283860D01*
X234735Y283160D01*
X235435Y282623D01*
X236251Y282285D01*
X237126Y282170D01*
X238001Y282285D01*
X238817Y282623D01*
X239517Y283160D01*
X240055Y283860D01*
X240392Y284676D01*
X240508Y285551D01*
X240392Y286426D01*
X240055Y287242D01*
X239517Y287942D01*
X238817Y288480D01*
X238001Y288818D01*
X237126Y288933D01*
D02*
G37*
G36*
X341732Y292157D02*
X341118Y292035D01*
X340597Y291687D01*
X340249Y291166D01*
X340127Y290551D01*
X340249Y289937D01*
X340597Y289416D01*
X341118Y289068D01*
X341732Y288946D01*
X342347Y289068D01*
X342868Y289416D01*
X342951Y289541D01*
X394857D01*
X407160Y277239D01*
X407487Y277020D01*
X407874Y276943D01*
X416891D01*
X416975Y276817D01*
X417496Y276469D01*
X418110Y276347D01*
X418725Y276469D01*
X419246Y276817D01*
X419594Y277338D01*
X419716Y277953D01*
X419594Y278567D01*
X419246Y279088D01*
X418725Y279436D01*
X418110Y279558D01*
X417496Y279436D01*
X416975Y279088D01*
X416891Y278963D01*
X408292D01*
X395990Y291265D01*
X395662Y291484D01*
X395276Y291561D01*
X342951D01*
X342868Y291687D01*
X342347Y292035D01*
X341732Y292157D01*
D02*
G37*
G36*
X247126Y278933D02*
X246251Y278818D01*
X245435Y278480D01*
X244735Y277942D01*
X244197Y277242D01*
X243860Y276426D01*
X243744Y275551D01*
X243860Y274676D01*
X244197Y273860D01*
X244735Y273160D01*
X245435Y272623D01*
X246251Y272285D01*
X247126Y272169D01*
X248001Y272285D01*
X248817Y272623D01*
X249517Y273160D01*
X250055Y273860D01*
X250392Y274676D01*
X250508Y275551D01*
X250392Y276426D01*
X250055Y277242D01*
X249517Y277942D01*
X248817Y278480D01*
X248001Y278818D01*
X247126Y278933D01*
D02*
G37*
G36*
X237126D02*
X236251Y278818D01*
X235435Y278480D01*
X234735Y277942D01*
X234197Y277242D01*
X233859Y276426D01*
X233744Y275551D01*
X233859Y274676D01*
X234197Y273860D01*
X234735Y273160D01*
X235435Y272623D01*
X236251Y272285D01*
X237126Y272169D01*
X238001Y272285D01*
X238817Y272623D01*
X239517Y273160D01*
X240055Y273860D01*
X240392Y274676D01*
X240508Y275551D01*
X240392Y276426D01*
X240055Y277242D01*
X239517Y277942D01*
X238817Y278480D01*
X238001Y278818D01*
X237126Y278933D01*
D02*
G37*
G36*
X237326Y268906D02*
Y265751D01*
X240481D01*
X240392Y266426D01*
X240055Y267242D01*
X239517Y267942D01*
X238817Y268480D01*
X238001Y268818D01*
X237326Y268906D01*
D02*
G37*
G36*
X236926D02*
X236251Y268818D01*
X235435Y268480D01*
X234735Y267942D01*
X234197Y267242D01*
X233859Y266426D01*
X233771Y265751D01*
X236926D01*
Y268906D01*
D02*
G37*
G36*
X240481Y265351D02*
X237326D01*
Y262196D01*
X238001Y262285D01*
X238817Y262623D01*
X239517Y263160D01*
X240055Y263860D01*
X240392Y264676D01*
X240481Y265351D01*
D02*
G37*
G36*
X236926D02*
X233771D01*
X233859Y264676D01*
X234197Y263860D01*
X234735Y263160D01*
X235435Y262623D01*
X236251Y262285D01*
X236926Y262196D01*
Y265351D01*
D02*
G37*
G36*
X247126Y268933D02*
X246251Y268818D01*
X245435Y268480D01*
X244735Y267942D01*
X244197Y267242D01*
X243860Y266426D01*
X243744Y265551D01*
X243860Y264676D01*
X244197Y263860D01*
X244735Y263160D01*
X245435Y262623D01*
X246251Y262285D01*
X247126Y262170D01*
X248001Y262285D01*
X248817Y262623D01*
X249517Y263160D01*
X250055Y263860D01*
X250392Y264676D01*
X250508Y265551D01*
X250392Y266426D01*
X250055Y267242D01*
X249517Y267942D01*
X248817Y268480D01*
X248001Y268818D01*
X247126Y268933D01*
D02*
G37*
G36*
X286263Y255717D02*
Y252562D01*
X289418D01*
X289329Y253237D01*
X288992Y254053D01*
X288454Y254753D01*
X287754Y255291D01*
X286938Y255629D01*
X286263Y255717D01*
D02*
G37*
G36*
X319416Y255715D02*
X316263D01*
Y252562D01*
X319416D01*
Y255715D01*
D02*
G37*
G36*
X315863D02*
X312710D01*
Y252562D01*
X315863D01*
Y255715D01*
D02*
G37*
G36*
X285863Y255717D02*
X285188Y255629D01*
X284372Y255291D01*
X283672Y254753D01*
X283134Y254053D01*
X282797Y253237D01*
X282708Y252562D01*
X285863D01*
Y255717D01*
D02*
G37*
G36*
X316063Y252362D02*
D01*
D01*
D01*
D02*
G37*
G36*
X247126Y258933D02*
X246251Y258818D01*
X245435Y258480D01*
X244735Y257942D01*
X244197Y257242D01*
X243860Y256426D01*
X243744Y255551D01*
X243860Y254676D01*
X244197Y253860D01*
X244735Y253160D01*
X245435Y252623D01*
X246251Y252285D01*
X247126Y252169D01*
X248001Y252285D01*
X248817Y252623D01*
X249517Y253160D01*
X250055Y253860D01*
X250392Y254676D01*
X250508Y255551D01*
X250392Y256426D01*
X250055Y257242D01*
X249517Y257942D01*
X248817Y258480D01*
X248001Y258818D01*
X247126Y258933D01*
D02*
G37*
G36*
X237126D02*
X236251Y258818D01*
X235435Y258480D01*
X234735Y257942D01*
X234197Y257242D01*
X233859Y256426D01*
X233744Y255551D01*
X233859Y254676D01*
X234197Y253860D01*
X234735Y253160D01*
X235435Y252623D01*
X236251Y252285D01*
X237126Y252169D01*
X238001Y252285D01*
X238817Y252623D01*
X239517Y253160D01*
X240055Y253860D01*
X240392Y254676D01*
X240508Y255551D01*
X240392Y256426D01*
X240055Y257242D01*
X239517Y257942D01*
X238817Y258480D01*
X238001Y258818D01*
X237126Y258933D01*
D02*
G37*
G36*
X395476Y255324D02*
Y252168D01*
X398631D01*
X398542Y252844D01*
X398204Y253659D01*
X397667Y254360D01*
X396966Y254897D01*
X396151Y255235D01*
X395476Y255324D01*
D02*
G37*
G36*
X395076D02*
X394400Y255235D01*
X393585Y254897D01*
X392884Y254360D01*
X392347Y253659D01*
X392009Y252844D01*
X391920Y252168D01*
X395076D01*
Y255324D01*
D02*
G37*
G36*
X368628Y255321D02*
X365476D01*
Y252168D01*
X368628D01*
Y255321D01*
D02*
G37*
G36*
X365076D02*
X361923D01*
Y252168D01*
X365076D01*
Y255321D01*
D02*
G37*
G36*
X319416Y252162D02*
X316263D01*
Y249009D01*
X319416D01*
Y252162D01*
D02*
G37*
G36*
X315863D02*
X312710D01*
Y249009D01*
X315863D01*
Y252162D01*
D02*
G37*
G36*
X289418D02*
X286263D01*
Y249007D01*
X286938Y249096D01*
X287754Y249434D01*
X288454Y249971D01*
X288992Y250671D01*
X289329Y251487D01*
X289418Y252162D01*
D02*
G37*
G36*
X285863D02*
X282708D01*
X282797Y251487D01*
X283134Y250671D01*
X283672Y249971D01*
X284372Y249434D01*
X285188Y249096D01*
X285863Y249007D01*
Y252162D01*
D02*
G37*
G36*
X306063Y255744D02*
X305188Y255629D01*
X304372Y255291D01*
X303672Y254753D01*
X303134Y254053D01*
X302797Y253237D01*
X302681Y252362D01*
X302797Y251487D01*
X303134Y250671D01*
X303672Y249971D01*
X304372Y249434D01*
X305188Y249096D01*
X306063Y248980D01*
X306938Y249096D01*
X307754Y249434D01*
X308454Y249971D01*
X308992Y250671D01*
X309329Y251487D01*
X309445Y252362D01*
X309329Y253237D01*
X308992Y254053D01*
X308454Y254753D01*
X307754Y255291D01*
X306938Y255629D01*
X306063Y255744D01*
D02*
G37*
G36*
X296063D02*
X295188Y255629D01*
X294372Y255291D01*
X293672Y254753D01*
X293134Y254053D01*
X292796Y253237D01*
X292681Y252362D01*
X292796Y251487D01*
X293134Y250671D01*
X293672Y249971D01*
X294372Y249434D01*
X295188Y249096D01*
X296063Y248980D01*
X296938Y249096D01*
X297754Y249434D01*
X298454Y249971D01*
X298992Y250671D01*
X299329Y251487D01*
X299445Y252362D01*
X299329Y253237D01*
X298992Y254053D01*
X298454Y254753D01*
X297754Y255291D01*
X296938Y255629D01*
X296063Y255744D01*
D02*
G37*
G36*
X368628Y251768D02*
X365476D01*
Y248616D01*
X368628D01*
Y251768D01*
D02*
G37*
G36*
X365076D02*
X361923D01*
Y248616D01*
X365076D01*
Y251768D01*
D02*
G37*
G36*
X398631D02*
X395476D01*
Y248613D01*
X396151Y248702D01*
X396966Y249040D01*
X397667Y249577D01*
X398204Y250278D01*
X398542Y251093D01*
X398631Y251768D01*
D02*
G37*
G36*
X395076D02*
X391920D01*
X392009Y251093D01*
X392347Y250278D01*
X392884Y249577D01*
X393585Y249040D01*
X394400Y248702D01*
X395076Y248613D01*
Y251768D01*
D02*
G37*
G36*
X385276Y255350D02*
X384400Y255235D01*
X383585Y254897D01*
X382884Y254360D01*
X382347Y253659D01*
X382009Y252844D01*
X381894Y251969D01*
X382009Y251093D01*
X382347Y250278D01*
X382884Y249577D01*
X383585Y249040D01*
X384400Y248702D01*
X385276Y248587D01*
X386151Y248702D01*
X386966Y249040D01*
X387667Y249577D01*
X388204Y250278D01*
X388542Y251093D01*
X388657Y251969D01*
X388542Y252844D01*
X388204Y253659D01*
X387667Y254360D01*
X386966Y254897D01*
X386151Y255235D01*
X385276Y255350D01*
D02*
G37*
G36*
X375276D02*
X374400Y255235D01*
X373585Y254897D01*
X372884Y254360D01*
X372347Y253659D01*
X372009Y252844D01*
X371894Y251969D01*
X372009Y251093D01*
X372347Y250278D01*
X372884Y249577D01*
X373585Y249040D01*
X374400Y248702D01*
X375276Y248587D01*
X376151Y248702D01*
X376966Y249040D01*
X377667Y249577D01*
X378204Y250278D01*
X378542Y251093D01*
X378657Y251969D01*
X378542Y252844D01*
X378204Y253659D01*
X377667Y254360D01*
X376966Y254897D01*
X376151Y255235D01*
X375276Y255350D01*
D02*
G37*
G36*
X250479Y248904D02*
X243773D01*
Y242198D01*
X250479D01*
Y248904D01*
D02*
G37*
G36*
X237126Y248933D02*
X236251Y248818D01*
X235435Y248480D01*
X234735Y247942D01*
X234197Y247242D01*
X233859Y246426D01*
X233744Y245551D01*
X233859Y244676D01*
X234197Y243860D01*
X234735Y243160D01*
X235435Y242623D01*
X236251Y242285D01*
X237126Y242169D01*
X238001Y242285D01*
X238817Y242623D01*
X239517Y243160D01*
X240055Y243860D01*
X240392Y244676D01*
X240508Y245551D01*
X240392Y246426D01*
X240055Y247242D01*
X239517Y247942D01*
X238817Y248480D01*
X238001Y248818D01*
X237126Y248933D01*
D02*
G37*
G36*
X313150Y236328D02*
X312480Y236240D01*
X311856Y235981D01*
X311320Y235570D01*
X310924Y235053D01*
X310798Y235034D01*
X310502D01*
X310376Y235053D01*
X309979Y235570D01*
X309443Y235981D01*
X308819Y236240D01*
X308150Y236328D01*
X307480Y236240D01*
X306856Y235981D01*
X306320Y235570D01*
X305924Y235053D01*
X305798Y235034D01*
X305502D01*
X305376Y235053D01*
X304979Y235570D01*
X304443Y235981D01*
X303819Y236240D01*
X303150Y236328D01*
X302480Y236240D01*
X301856Y235981D01*
X301320Y235570D01*
X300924Y235053D01*
X300798Y235034D01*
X300502D01*
X300376Y235053D01*
X299979Y235570D01*
X299443Y235981D01*
X298819Y236240D01*
X298150Y236328D01*
X297480Y236240D01*
X296856Y235981D01*
X296320Y235570D01*
X295924Y235053D01*
X295798Y235034D01*
X295502D01*
X295376Y235053D01*
X294979Y235570D01*
X294443Y235981D01*
X293819Y236240D01*
X293150Y236328D01*
X292480Y236240D01*
X291856Y235981D01*
X291320Y235570D01*
X290924Y235053D01*
X290798Y235034D01*
X290502D01*
X290376Y235053D01*
X289979Y235570D01*
X289443Y235981D01*
X288819Y236240D01*
X288150Y236328D01*
X287480Y236240D01*
X286856Y235981D01*
X286320Y235570D01*
X285909Y235034D01*
X285650Y234410D01*
X285562Y233740D01*
X285650Y233070D01*
X285909Y232446D01*
X286320Y231910D01*
X286457Y231805D01*
X286287Y231306D01*
X285584D01*
Y228940D01*
X288150D01*
Y228740D01*
X288350D01*
Y226175D01*
X290715D01*
Y226878D01*
X291215Y227047D01*
X291320Y226910D01*
X291856Y226499D01*
X292480Y226241D01*
X292950Y226179D01*
Y228740D01*
X293350D01*
Y226179D01*
X293819Y226241D01*
X294443Y226499D01*
X294979Y226910D01*
X295376Y227427D01*
X295502Y227446D01*
X295798D01*
X295924Y227427D01*
X296320Y226910D01*
X296856Y226499D01*
X297480Y226241D01*
X297950Y226179D01*
Y228740D01*
X298350D01*
Y226179D01*
X298819Y226241D01*
X299443Y226499D01*
X299979Y226910D01*
X300376Y227427D01*
X300502Y227446D01*
X300798D01*
X300924Y227427D01*
X301320Y226910D01*
X301856Y226499D01*
X302480Y226241D01*
X302950Y226179D01*
Y228740D01*
X303350D01*
Y226179D01*
X303819Y226241D01*
X304443Y226499D01*
X304979Y226910D01*
X305376Y227427D01*
X305502Y227446D01*
X305798D01*
X305924Y227427D01*
X306320Y226910D01*
X306856Y226499D01*
X307480Y226241D01*
X307950Y226179D01*
Y228740D01*
X308350D01*
Y226179D01*
X308819Y226241D01*
X309443Y226499D01*
X309979Y226910D01*
X310376Y227427D01*
X310502Y227446D01*
X310798D01*
X310924Y227427D01*
X311320Y226910D01*
X311856Y226499D01*
X312480Y226241D01*
X312950Y226179D01*
Y228740D01*
X313150D01*
Y228940D01*
X315711D01*
X315649Y229410D01*
X315390Y230034D01*
X314979Y230570D01*
X314463Y230966D01*
X314443Y231092D01*
Y231388D01*
X314463Y231514D01*
X314979Y231910D01*
X315390Y232446D01*
X315649Y233070D01*
X315737Y233740D01*
X315649Y234410D01*
X315390Y235034D01*
X314979Y235570D01*
X314443Y235981D01*
X313819Y236240D01*
X313150Y236328D01*
D02*
G37*
G36*
X392953D02*
X392283Y236240D01*
X391659Y235981D01*
X391123Y235570D01*
X390727Y235053D01*
X390601Y235034D01*
X390305D01*
X390179Y235053D01*
X389782Y235570D01*
X389247Y235981D01*
X388622Y236240D01*
X387953Y236328D01*
X387283Y236240D01*
X386659Y235981D01*
X386123Y235570D01*
X385727Y235053D01*
X385601Y235034D01*
X385305D01*
X385179Y235053D01*
X384782Y235570D01*
X384246Y235981D01*
X383622Y236240D01*
X382953Y236328D01*
X382283Y236240D01*
X381659Y235981D01*
X381123Y235570D01*
X380727Y235053D01*
X380601Y235034D01*
X380305D01*
X380179Y235053D01*
X379782Y235570D01*
X379246Y235981D01*
X378622Y236240D01*
X377953Y236328D01*
X377283Y236240D01*
X376659Y235981D01*
X376123Y235570D01*
X375727Y235053D01*
X375601Y235034D01*
X375305D01*
X375179Y235053D01*
X374782Y235570D01*
X374247Y235981D01*
X373622Y236240D01*
X372953Y236328D01*
X372283Y236240D01*
X371659Y235981D01*
X371123Y235570D01*
X370727Y235053D01*
X370601Y235034D01*
X370305D01*
X370179Y235053D01*
X369782Y235570D01*
X369247Y235981D01*
X368622Y236240D01*
X367953Y236328D01*
X367283Y236240D01*
X366659Y235981D01*
X366123Y235570D01*
X365712Y235034D01*
X365453Y234410D01*
X365365Y233740D01*
X365453Y233070D01*
X365712Y232446D01*
X366123Y231910D01*
X366260Y231805D01*
X366090Y231306D01*
X365387D01*
Y228940D01*
X367953D01*
Y228740D01*
X368153D01*
Y226175D01*
X370518D01*
Y226878D01*
X371018Y227047D01*
X371123Y226910D01*
X371659Y226499D01*
X372283Y226241D01*
X372753Y226179D01*
Y228740D01*
X373153D01*
Y226179D01*
X373622Y226241D01*
X374247Y226499D01*
X374782Y226910D01*
X375179Y227427D01*
X375305Y227446D01*
X375601D01*
X375727Y227427D01*
X376123Y226910D01*
X376659Y226499D01*
X377283Y226241D01*
X377753Y226179D01*
Y228740D01*
X378153D01*
Y226179D01*
X378622Y226241D01*
X379246Y226499D01*
X379782Y226910D01*
X380179Y227427D01*
X380305Y227446D01*
X380601D01*
X380727Y227427D01*
X381123Y226910D01*
X381659Y226499D01*
X382283Y226241D01*
X382753Y226179D01*
Y228740D01*
X383153D01*
Y226179D01*
X383622Y226241D01*
X384246Y226499D01*
X384782Y226910D01*
X385179Y227427D01*
X385305Y227446D01*
X385601D01*
X385727Y227427D01*
X386123Y226910D01*
X386659Y226499D01*
X387283Y226241D01*
X387753Y226179D01*
Y228740D01*
X388153D01*
Y226179D01*
X388622Y226241D01*
X389247Y226499D01*
X389782Y226910D01*
X390179Y227427D01*
X390305Y227446D01*
X390601D01*
X390727Y227427D01*
X391123Y226910D01*
X391659Y226499D01*
X392283Y226241D01*
X392753Y226179D01*
Y228740D01*
X392953D01*
Y228940D01*
X395514D01*
X395452Y229410D01*
X395194Y230034D01*
X394782Y230570D01*
X394266Y230966D01*
X394247Y231092D01*
Y231388D01*
X394266Y231514D01*
X394782Y231910D01*
X395194Y232446D01*
X395452Y233070D01*
X395540Y233740D01*
X395452Y234410D01*
X395194Y235034D01*
X394782Y235570D01*
X394247Y235981D01*
X393622Y236240D01*
X392953Y236328D01*
D02*
G37*
G36*
X395514Y228540D02*
X393153D01*
Y226179D01*
X393622Y226241D01*
X394247Y226499D01*
X394782Y226910D01*
X395194Y227446D01*
X395452Y228070D01*
X395514Y228540D01*
D02*
G37*
G36*
X315711Y228540D02*
X313350D01*
Y226179D01*
X313819Y226241D01*
X314443Y226499D01*
X314979Y226910D01*
X315390Y227446D01*
X315649Y228070D01*
X315711Y228540D01*
D02*
G37*
G36*
X367753Y228540D02*
X365387D01*
Y226175D01*
X367753D01*
Y228540D01*
D02*
G37*
G36*
X287950Y228540D02*
X285584D01*
Y226175D01*
X287950D01*
Y228540D01*
D02*
G37*
%LPD*%
D20*
X341732Y290551D02*
X395276D01*
X407874Y277953D02*
X418110D01*
X395276Y290551D02*
X407874Y277953D01*
X418110Y290551D02*
X418110Y290551D01*
X405118Y290551D02*
X418110D01*
D25*
X438747Y212598D02*
G03*
X448819Y222670I0J10072D01*
G01*
X228346Y222671D02*
G03*
X238419Y212598I10072J0D01*
G01*
X238419Y468504D02*
G03*
X228346Y458432I0J-10072D01*
G01*
X448819Y458507D02*
G03*
X438822Y468504I-9997J0D01*
G01*
X238419Y212598D02*
X438747D01*
X448819Y222670D02*
X448819Y458507D01*
X228346Y222671D02*
X228346Y458432D01*
X238419Y468504D02*
X438822Y468504D01*
D26*
X433465Y409055D02*
D03*
D27*
X392953Y228740D02*
D03*
X387953D02*
D03*
X382953D02*
D03*
X377953D02*
D03*
X372953D02*
D03*
X313150D02*
D03*
X308150D02*
D03*
X303150D02*
D03*
X298150D02*
D03*
X293150D02*
D03*
D28*
X367953D02*
D03*
X288150D02*
D03*
D29*
X247126Y435551D02*
D03*
X237126Y405551D02*
D03*
Y385551D02*
D03*
X247126Y365551D02*
D03*
X237126Y335551D02*
D03*
Y305551D02*
D03*
X247126Y285551D02*
D03*
X237126Y265551D02*
D03*
X395276Y251969D02*
D03*
X286063Y252362D02*
D03*
D31*
X365276Y251969D02*
D03*
X316063Y252362D02*
D03*
D32*
X301575Y416142D02*
D03*
X303937D02*
D03*
X379921D02*
D03*
X418110Y277953D02*
D03*
X405118Y290551D02*
D03*
X277165Y360630D02*
D03*
Y352756D02*
D03*
Y321260D02*
D03*
Y329134D02*
D03*
Y305512D02*
D03*
Y313386D02*
D03*
Y297638D02*
D03*
X345669Y297638D02*
D03*
X355118Y293701D02*
D03*
X345669Y313386D02*
D03*
X355118Y309449D02*
D03*
Y301575D02*
D03*
X345669Y305512D02*
D03*
Y329134D02*
D03*
X355118Y325197D02*
D03*
Y317323D02*
D03*
X345669Y321260D02*
D03*
Y344882D02*
D03*
X355118Y340945D02*
D03*
Y333071D02*
D03*
X345669Y337008D02*
D03*
Y352756D02*
D03*
X355118Y348819D02*
D03*
Y356693D02*
D03*
X345669Y360630D02*
D03*
X416535Y405118D02*
D03*
X407087Y409449D02*
D03*
X417717Y391732D02*
D03*
X407480D02*
D03*
X396063D02*
D03*
X390551Y400394D02*
D03*
X339370Y391732D02*
D03*
X329134D02*
D03*
X317717D02*
D03*
X335039Y400787D02*
D03*
X323228D02*
D03*
X311024D02*
D03*
X341732Y290551D02*
D03*
X418110Y290551D02*
D03*
X435827Y302362D02*
D03*
Y277953D02*
D03*
Y290551D02*
D03*
X304034Y418848D02*
D03*
Y412942D02*
D03*
X301672D02*
D03*
X293307Y411811D02*
D03*
X293404Y415305D02*
D03*
X289861D02*
D03*
X286317D02*
D03*
X282774D02*
D03*
X279231D02*
D03*
X275687D02*
D03*
X272538Y412155D02*
D03*
Y408612D02*
D03*
Y405068D02*
D03*
Y401525D02*
D03*
Y397982D02*
D03*
Y394438D02*
D03*
Y390895D02*
D03*
Y387352D02*
D03*
Y383808D02*
D03*
Y380265D02*
D03*
X272835Y377165D02*
D03*
X276378D02*
D03*
X279921D02*
D03*
X283465D02*
D03*
X287008D02*
D03*
X290551D02*
D03*
X294094D02*
D03*
X297638D02*
D03*
X301181D02*
D03*
X304724D02*
D03*
X308268D02*
D03*
X310333Y379872D02*
D03*
Y383415D02*
D03*
Y386958D02*
D03*
Y390501D02*
D03*
X289861Y411761D02*
D03*
X286317D02*
D03*
X282774D02*
D03*
X279231D02*
D03*
X276868Y408612D02*
D03*
Y405068D02*
D03*
Y401525D02*
D03*
Y397982D02*
D03*
Y394438D02*
D03*
Y390895D02*
D03*
Y387352D02*
D03*
Y383808D02*
D03*
X279624Y383021D02*
D03*
X283168D02*
D03*
X286711D02*
D03*
X290254D02*
D03*
X293797D02*
D03*
X297341D02*
D03*
X300884D02*
D03*
X304427D02*
D03*
X306396Y386958D02*
D03*
Y390501D02*
D03*
Y394045D02*
D03*
Y397588D02*
D03*
Y401131D02*
D03*
X286317Y421210D02*
D03*
X282774D02*
D03*
X279231D02*
D03*
X275687D02*
D03*
X272144D02*
D03*
X267420Y412155D02*
D03*
Y408612D02*
D03*
Y405068D02*
D03*
Y401525D02*
D03*
Y397982D02*
D03*
Y394438D02*
D03*
Y390895D02*
D03*
Y387352D02*
D03*
Y383808D02*
D03*
Y380265D02*
D03*
Y376722D02*
D03*
Y373179D02*
D03*
X270176Y371604D02*
D03*
X273719D02*
D03*
X277262D02*
D03*
X267420Y416092D02*
D03*
X269782Y418848D02*
D03*
X289861Y421210D02*
D03*
X293404D02*
D03*
X296947D02*
D03*
X309152Y403100D02*
D03*
X311811Y409166D02*
D03*
X314961D02*
D03*
X317717D02*
D03*
X390158Y409449D02*
D03*
X387402Y403150D02*
D03*
X393307Y409449D02*
D03*
X396063D02*
D03*
X375197Y421260D02*
D03*
X371654D02*
D03*
X368110D02*
D03*
X348031Y418898D02*
D03*
X345669Y416142D02*
D03*
X355512Y371654D02*
D03*
X351969D02*
D03*
X348425D02*
D03*
X345669Y373228D02*
D03*
Y376772D02*
D03*
Y380315D02*
D03*
Y383858D02*
D03*
Y387402D02*
D03*
Y390945D02*
D03*
Y394488D02*
D03*
Y398031D02*
D03*
Y401575D02*
D03*
Y405118D02*
D03*
Y408661D02*
D03*
Y412205D02*
D03*
X350394Y421260D02*
D03*
X353937D02*
D03*
X357480D02*
D03*
X361024D02*
D03*
X364567D02*
D03*
X384646Y401181D02*
D03*
Y397638D02*
D03*
Y394094D02*
D03*
Y390551D02*
D03*
Y387008D02*
D03*
X382677Y383071D02*
D03*
X379134D02*
D03*
X375591D02*
D03*
X372047D02*
D03*
X368504D02*
D03*
X364961D02*
D03*
X361417D02*
D03*
X357874D02*
D03*
X355118Y383858D02*
D03*
Y387402D02*
D03*
Y390945D02*
D03*
Y394488D02*
D03*
Y398031D02*
D03*
Y401575D02*
D03*
Y405118D02*
D03*
Y408661D02*
D03*
X357480Y411811D02*
D03*
X361024D02*
D03*
X364567D02*
D03*
X368110D02*
D03*
X388583Y390551D02*
D03*
Y387008D02*
D03*
Y383465D02*
D03*
Y379921D02*
D03*
X386221Y376772D02*
D03*
X382677D02*
D03*
X379134D02*
D03*
X375591D02*
D03*
X372047D02*
D03*
X368504D02*
D03*
X364961D02*
D03*
X361417D02*
D03*
X357874D02*
D03*
X354331D02*
D03*
X350787D02*
D03*
Y380315D02*
D03*
Y383858D02*
D03*
Y387402D02*
D03*
Y390945D02*
D03*
Y394488D02*
D03*
Y398031D02*
D03*
Y401575D02*
D03*
Y405118D02*
D03*
Y408661D02*
D03*
Y412205D02*
D03*
X353937Y415354D02*
D03*
X357480D02*
D03*
X361024D02*
D03*
X364567D02*
D03*
X368110D02*
D03*
X371654D02*
D03*
Y411811D02*
D03*
X379921Y412992D02*
D03*
X382283D02*
D03*
X382283Y416142D02*
D03*
X382283Y418898D02*
D03*
D33*
X351195Y270252D02*
D03*
X351181Y274803D02*
D03*
X274803Y274410D02*
D03*
Y269685D02*
D03*
M02*
