G04*
G04 #@! TF.GenerationSoftware,Altium Limited,Altium Designer,20.0.9 (164)*
G04*
G04 Layer_Color=255*
%FSLAX25Y25*%
%MOIN*%
G70*
G01*
G75*
%ADD11C,0.00787*%
%ADD49C,0.10000*%
%ADD50C,0.04331*%
%ADD51R,0.04331X0.04331*%
%ADD52C,0.05906*%
%ADD53R,0.05906X0.05906*%
%ADD54R,0.05906X0.05906*%
D11*
X438747Y212598D02*
G03*
X448819Y222670I0J10072D01*
G01*
X228346Y222671D02*
G03*
X238419Y212598I10072J0D01*
G01*
X238419Y468504D02*
G03*
X228346Y458432I0J-10072D01*
G01*
X448819Y458507D02*
G03*
X438822Y468504I-9997J0D01*
G01*
X238419Y212598D02*
X438747D01*
X448819Y222670D02*
X448819Y458507D01*
X228346Y222671D02*
X228346Y458432D01*
X238419Y468504D02*
X438822Y468504D01*
D49*
X433465Y429055D02*
D03*
Y409055D02*
D03*
D50*
X392953Y233740D02*
D03*
Y228740D02*
D03*
X387953Y233740D02*
D03*
Y228740D02*
D03*
X382953Y233740D02*
D03*
Y228740D02*
D03*
X377953Y233740D02*
D03*
Y228740D02*
D03*
X372953Y233740D02*
D03*
Y228740D02*
D03*
X367953Y233740D02*
D03*
X313150D02*
D03*
Y228740D02*
D03*
X308150Y233740D02*
D03*
Y228740D02*
D03*
X303150Y233740D02*
D03*
Y228740D02*
D03*
X298150Y233740D02*
D03*
Y228740D02*
D03*
X293150Y233740D02*
D03*
Y228740D02*
D03*
X288150Y233740D02*
D03*
D51*
X367953Y228740D02*
D03*
X288150D02*
D03*
D52*
X237126Y435551D02*
D03*
X247126D02*
D03*
X237126Y425551D02*
D03*
X247126D02*
D03*
X237126Y415551D02*
D03*
X247126D02*
D03*
X237126Y405551D02*
D03*
X247126D02*
D03*
X237126Y395551D02*
D03*
X247126D02*
D03*
X237126Y385551D02*
D03*
X247126D02*
D03*
X237126Y375551D02*
D03*
X247126D02*
D03*
X237126Y365551D02*
D03*
X247126D02*
D03*
X237126Y355551D02*
D03*
X247126D02*
D03*
X237126Y345551D02*
D03*
X247126D02*
D03*
X237126Y335551D02*
D03*
X247126D02*
D03*
X237126Y325551D02*
D03*
X247126D02*
D03*
X237126Y315551D02*
D03*
X247126D02*
D03*
X237126Y305551D02*
D03*
X247126D02*
D03*
X237126Y295551D02*
D03*
X247126D02*
D03*
X237126Y285551D02*
D03*
X247126D02*
D03*
X237126Y275551D02*
D03*
X247126D02*
D03*
X237126Y265551D02*
D03*
X247126D02*
D03*
X237126Y255551D02*
D03*
X247126D02*
D03*
X237126Y245551D02*
D03*
X395276Y251969D02*
D03*
X385276D02*
D03*
X375276D02*
D03*
X286063Y252362D02*
D03*
X296063D02*
D03*
X306063D02*
D03*
D53*
X247126Y245551D02*
D03*
D54*
X365276Y251969D02*
D03*
X316063Y252362D02*
D03*
M02*
