G04*
G04 #@! TF.GenerationSoftware,Altium Limited,Altium Designer,20.0.9 (164)*
G04*
G04 Layer_Color=255*
%FSLAX25Y25*%
%MOIN*%
G70*
G01*
G75*
%ADD11C,0.00787*%
G04:AMPARAMS|DCode=15|XSize=25.2mil|YSize=23.62mil|CornerRadius=5.91mil|HoleSize=0mil|Usage=FLASHONLY|Rotation=90.000|XOffset=0mil|YOffset=0mil|HoleType=Round|Shape=RoundedRectangle|*
%AMROUNDEDRECTD15*
21,1,0.02520,0.01181,0,0,90.0*
21,1,0.01339,0.02362,0,0,90.0*
1,1,0.01181,0.00591,0.00669*
1,1,0.01181,0.00591,-0.00669*
1,1,0.01181,-0.00591,-0.00669*
1,1,0.01181,-0.00591,0.00669*
%
%ADD15ROUNDEDRECTD15*%
%ADD16R,0.03937X0.02362*%
G04:AMPARAMS|DCode=17|XSize=20.47mil|YSize=22.05mil|CornerRadius=5.12mil|HoleSize=0mil|Usage=FLASHONLY|Rotation=180.000|XOffset=0mil|YOffset=0mil|HoleType=Round|Shape=RoundedRectangle|*
%AMROUNDEDRECTD17*
21,1,0.02047,0.01181,0,0,180.0*
21,1,0.01024,0.02205,0,0,180.0*
1,1,0.01024,-0.00512,0.00591*
1,1,0.01024,0.00512,0.00591*
1,1,0.01024,0.00512,-0.00591*
1,1,0.01024,-0.00512,-0.00591*
%
%ADD17ROUNDEDRECTD17*%
%ADD18R,0.02756X0.03347*%
%ADD19R,0.09843X0.07480*%
%ADD20R,0.13780X0.07874*%
%ADD21R,0.06693X0.04331*%
%ADD22R,0.04331X0.06693*%
%ADD23R,0.10433X0.04724*%
%ADD24R,0.04724X0.10433*%
%ADD49C,0.10000*%
%ADD50C,0.04331*%
%ADD51R,0.04331X0.04331*%
%ADD52C,0.05906*%
%ADD53R,0.05906X0.05906*%
%ADD54R,0.05906X0.05906*%
D11*
X438747Y212598D02*
G03*
X448819Y222670I0J10072D01*
G01*
X228346Y222671D02*
G03*
X238419Y212598I10072J0D01*
G01*
X238419Y468504D02*
G03*
X228346Y458432I0J-10072D01*
G01*
X448819Y458507D02*
G03*
X438822Y468504I-9997J0D01*
G01*
X238419Y212598D02*
X438747D01*
X448819Y222670D02*
X448819Y458507D01*
X228346Y222671D02*
X228346Y458432D01*
X238419Y468504D02*
X438822Y468504D01*
D15*
X411811Y430236D02*
D03*
Y426457D02*
D03*
D16*
X297835Y406102D02*
D03*
Y409842D02*
D03*
Y413583D02*
D03*
X307677D02*
D03*
Y409842D02*
D03*
Y406102D02*
D03*
X376181Y406102D02*
D03*
Y409842D02*
D03*
Y413583D02*
D03*
X386024D02*
D03*
Y409842D02*
D03*
Y406102D02*
D03*
D17*
X421102Y302362D02*
D03*
X424567D02*
D03*
X421102Y277953D02*
D03*
X424567Y277953D02*
D03*
X421102Y290551D02*
D03*
X424567Y290551D02*
D03*
X290394Y418504D02*
D03*
X293858D02*
D03*
X297874D02*
D03*
X301339D02*
D03*
X376220Y418504D02*
D03*
X379685D02*
D03*
X368740D02*
D03*
X372205D02*
D03*
D18*
X428346Y302362D02*
D03*
X433071D02*
D03*
X428346Y290551D02*
D03*
X433071D02*
D03*
X428346Y277953D02*
D03*
X433071Y277953D02*
D03*
D19*
X369291Y388583D02*
D03*
Y371260D02*
D03*
X290945Y371260D02*
D03*
Y388583D02*
D03*
D20*
X369291Y362421D02*
D03*
Y397421D02*
D03*
X290945Y397421D02*
D03*
Y362421D02*
D03*
D21*
X407087Y405512D02*
D03*
Y415748D02*
D03*
X328740Y405512D02*
D03*
Y415748D02*
D03*
X339370Y395669D02*
D03*
Y385433D02*
D03*
X417717Y395669D02*
D03*
Y385433D02*
D03*
D22*
X281102Y406299D02*
D03*
X291339D02*
D03*
X359449Y406299D02*
D03*
X369685D02*
D03*
D23*
X317717Y415748D02*
D03*
Y405512D02*
D03*
X317717Y385433D02*
D03*
Y395669D02*
D03*
X329134Y385433D02*
D03*
Y395669D02*
D03*
X396063Y385433D02*
D03*
Y395669D02*
D03*
X407480Y385433D02*
D03*
Y395669D02*
D03*
X396063Y415748D02*
D03*
Y405512D02*
D03*
D24*
X290945Y272047D02*
D03*
X280709D02*
D03*
X366929Y272441D02*
D03*
X356693D02*
D03*
D49*
X433465Y429055D02*
D03*
Y409055D02*
D03*
D50*
X392953Y233740D02*
D03*
Y228740D02*
D03*
X387953Y233740D02*
D03*
Y228740D02*
D03*
X382953Y233740D02*
D03*
Y228740D02*
D03*
X377953Y233740D02*
D03*
Y228740D02*
D03*
X372953Y233740D02*
D03*
Y228740D02*
D03*
X367953Y233740D02*
D03*
X313150D02*
D03*
Y228740D02*
D03*
X308150Y233740D02*
D03*
Y228740D02*
D03*
X303150Y233740D02*
D03*
Y228740D02*
D03*
X298150Y233740D02*
D03*
Y228740D02*
D03*
X293150Y233740D02*
D03*
Y228740D02*
D03*
X288150Y233740D02*
D03*
D51*
X367953Y228740D02*
D03*
X288150D02*
D03*
D52*
X237126Y435551D02*
D03*
X247126D02*
D03*
X237126Y425551D02*
D03*
X247126D02*
D03*
X237126Y415551D02*
D03*
X247126D02*
D03*
X237126Y405551D02*
D03*
X247126D02*
D03*
X237126Y395551D02*
D03*
X247126D02*
D03*
X237126Y385551D02*
D03*
X247126D02*
D03*
X237126Y375551D02*
D03*
X247126D02*
D03*
X237126Y365551D02*
D03*
X247126D02*
D03*
X237126Y355551D02*
D03*
X247126D02*
D03*
X237126Y345551D02*
D03*
X247126D02*
D03*
X237126Y335551D02*
D03*
X247126D02*
D03*
X237126Y325551D02*
D03*
X247126D02*
D03*
X237126Y315551D02*
D03*
X247126D02*
D03*
X237126Y305551D02*
D03*
X247126D02*
D03*
X237126Y295551D02*
D03*
X247126D02*
D03*
X237126Y285551D02*
D03*
X247126D02*
D03*
X237126Y275551D02*
D03*
X247126D02*
D03*
X237126Y265551D02*
D03*
X247126D02*
D03*
X237126Y255551D02*
D03*
X247126D02*
D03*
X237126Y245551D02*
D03*
X395276Y251969D02*
D03*
X385276D02*
D03*
X375276D02*
D03*
X286063Y252362D02*
D03*
X296063D02*
D03*
X306063D02*
D03*
D53*
X247126Y245551D02*
D03*
D54*
X365276Y251969D02*
D03*
X316063Y252362D02*
D03*
M02*
