G04*
G04 #@! TF.GenerationSoftware,Altium Limited,Altium Designer,20.0.9 (164)*
G04*
G04 Layer_Color=65535*
%FSLAX25Y25*%
%MOIN*%
G70*
G01*
G75*
%ADD10C,0.00984*%
%ADD11C,0.00787*%
%ADD12C,0.01000*%
%ADD13C,0.00394*%
%ADD14C,0.00800*%
G36*
X430413Y276772D02*
X431004Y277953D01*
X430413Y279134D01*
Y276772D01*
D02*
G37*
G36*
Y289370D02*
X431004Y290551D01*
X430413Y291732D01*
Y289370D01*
D02*
G37*
G36*
Y301181D02*
X431004Y302362D01*
X430413Y303543D01*
Y301181D01*
D02*
G37*
D10*
X308169Y402559D02*
G03*
X308169Y402559I-492J0D01*
G01*
X386516Y402559D02*
G03*
X386516Y402559I-492J0D01*
G01*
D11*
X415965Y438255D02*
X446465D01*
X415965Y399855D02*
X446465D01*
X415965D02*
Y438255D01*
X446465Y399855D02*
Y438255D01*
X362953Y223740D02*
Y238740D01*
Y223740D02*
X397953D01*
Y238740D01*
X362953D02*
X397953D01*
X283150Y223740D02*
Y238740D01*
Y223740D02*
X318150D01*
Y238740D01*
X283150D02*
X318150D01*
X300984Y403740D02*
Y415945D01*
X304528Y403740D02*
Y415945D01*
X300984D02*
X304528D01*
X300984Y403740D02*
X304528D01*
X379331Y403740D02*
Y415945D01*
X382874Y403740D02*
Y415945D01*
X379331D02*
X382874D01*
X379331Y403740D02*
X382874D01*
X375291Y369291D02*
X379791D01*
X358791D02*
X363291D01*
X358791Y390551D02*
X363291D01*
X375291D02*
X379791D01*
X379791Y369291D01*
X358791D02*
Y390551D01*
X376791Y399606D02*
X379791D01*
X388976Y390421D01*
Y360421D02*
Y390421D01*
X388791Y360236D02*
X388976Y360421D01*
X377291Y360236D02*
X388791D01*
X358612Y399606D02*
X361791D01*
X349606Y390601D02*
X358612Y399606D01*
X349606Y365921D02*
Y390601D01*
Y365921D02*
X355291Y360236D01*
X361791D01*
X276945Y360236D02*
X283445D01*
X271260Y365921D02*
X276945Y360236D01*
X271260Y365921D02*
Y390601D01*
X280265Y399606D01*
X283445D01*
X298945Y360236D02*
X310445D01*
X310630Y360421D01*
Y390421D01*
X301445Y399606D02*
X310630Y390421D01*
X298445Y399606D02*
X301445D01*
X280445Y369291D02*
Y390551D01*
X301445Y369291D02*
Y390551D01*
X296945D02*
X301445D01*
X280445D02*
X284945D01*
X280445Y369291D02*
X284945D01*
X296945D02*
X301445D01*
X404134Y409252D02*
X404134Y412008D01*
X410039Y409252D02*
Y412008D01*
X325787Y409252D02*
Y412008D01*
X331693Y409252D02*
Y412008D01*
X252126Y240551D02*
Y440551D01*
X232126Y240551D02*
Y440551D01*
Y240551D02*
X252126D01*
X232126Y440551D02*
X252126D01*
X284842Y409252D02*
X287598D01*
X284842Y403346D02*
X287598D01*
X322539Y409449D02*
Y411811D01*
X312894Y409449D02*
Y411811D01*
X284646Y267224D02*
X287008D01*
X284646Y276870D02*
X287008D01*
X342323Y389173D02*
Y391929D01*
X336417Y389173D02*
Y391929D01*
X312894Y389370D02*
Y391732D01*
X322539Y389370D02*
Y391732D01*
X324311Y389370D02*
Y391732D01*
X333957Y389370D02*
Y391732D01*
X360276Y246969D02*
Y256968D01*
X400276Y256968D01*
X360276Y246969D02*
X400276Y246969D01*
Y256968D01*
X321063Y247362D02*
Y257362D01*
X281063Y247362D02*
X321063Y247362D01*
X281063Y257362D02*
X321063Y257362D01*
X281063Y247362D02*
Y257362D01*
X391240Y389370D02*
Y391732D01*
X400886Y389370D02*
Y391732D01*
X360630Y267618D02*
X362992D01*
X360630Y277264D02*
X362992D01*
X420669Y389173D02*
Y391929D01*
X414764Y389173D02*
Y391929D01*
X402658Y389370D02*
Y391732D01*
X412303Y389370D02*
Y391732D01*
X400886Y409449D02*
Y411811D01*
X391240D02*
X391240Y409449D01*
X363189Y409252D02*
X365945Y409252D01*
X363189Y403346D02*
X365945D01*
X438747Y212598D02*
G03*
X448819Y222670I0J10072D01*
G01*
X228346Y222671D02*
G03*
X238419Y212598I10072J0D01*
G01*
X238419Y468504D02*
G03*
X228346Y458432I0J-10072D01*
G01*
X448819Y458507D02*
G03*
X438822Y468504I-9997J0D01*
G01*
X238419Y212598D02*
X438747D01*
X448819Y222670D02*
X448819Y458507D01*
X228346Y222671D02*
X228346Y458432D01*
X238419Y468504D02*
X438822Y468504D01*
D12*
X442702Y283283D02*
Y286432D01*
X441127Y284858D02*
X444276D01*
X440340Y291155D02*
Y288006D01*
X442702D01*
X441914Y289581D01*
Y290368D01*
X442702Y291155D01*
X444276D01*
X445063Y290368D01*
Y288793D01*
X444276Y288006D01*
X440340Y292729D02*
X443489D01*
X445063Y294303D01*
X443489Y295878D01*
X440340D01*
X429121Y257693D02*
X424399D01*
Y260054D01*
X425186Y260841D01*
X426760D01*
X427547Y260054D01*
Y257693D01*
Y259267D02*
X429121Y260841D01*
Y262416D02*
X424399D01*
Y264777D01*
X425186Y265564D01*
X426760D01*
X427547Y264777D01*
Y262416D01*
X424399Y267139D02*
Y268713D01*
Y267926D01*
X429121D01*
Y267139D01*
Y268713D01*
X437189Y257693D02*
X432466D01*
Y260054D01*
X433253Y260841D01*
X434828D01*
X435615Y260054D01*
Y257693D01*
X432466Y262416D02*
X437189D01*
X435615Y263990D01*
X437189Y265564D01*
X432466D01*
X437189Y267139D02*
X432466D01*
Y269500D01*
X433253Y270287D01*
X434828D01*
X435615Y269500D01*
Y267139D01*
Y268713D02*
X437189Y270287D01*
X431072Y387158D02*
X430072Y386159D01*
Y384159D01*
X431072Y383160D01*
X435070D01*
X436070Y384159D01*
Y386159D01*
X435070Y387158D01*
X436070Y389158D02*
X430072D01*
X436070Y393157D01*
X430072D01*
X436070Y395156D02*
Y397155D01*
Y396156D01*
X430072D01*
X431072Y395156D01*
X401773Y422835D02*
Y418899D01*
X404724D01*
Y420867D01*
Y418899D01*
X407676D01*
Y424802D02*
Y426770D01*
Y425786D01*
X401773D01*
X402757Y424802D01*
X430891Y307693D02*
Y310841D01*
X429316Y309267D02*
X432465D01*
X433252Y312416D02*
Y313990D01*
Y313203D01*
X428529D01*
X429316Y312416D01*
X433252Y319500D02*
Y316352D01*
X430103Y319500D01*
X429316D01*
X428529Y318713D01*
Y317139D01*
X429316Y316352D01*
X428529Y321074D02*
X431678D01*
X433252Y322649D01*
X431678Y324223D01*
X428529D01*
D13*
X436709Y301294D02*
Y303262D01*
Y302606D01*
X435397Y301294D01*
X436381Y302278D01*
X435397Y303262D01*
X436709Y289483D02*
Y291451D01*
Y290795D01*
X435397Y289483D01*
X436381Y290467D01*
X435397Y291451D01*
X436709Y276885D02*
Y278853D01*
Y278197D01*
X435397Y276885D01*
X436381Y277869D01*
X435397Y278853D01*
D14*
X258661Y244488D02*
Y246154D01*
Y245321D01*
X253663D01*
X254496Y244488D01*
M02*
