M48
;Layer_Color=9474304
;FILE_FORMAT=2:5
INCH,LZ
;TYPE=PLATED
T1F00S00C0.00787
T2F00S00C0.01181
T3F00S00C0.01299
T4F00S00C0.01575
T5F00S00C0.02800
T6F00S00C0.03543
T7F00S00C0.03940
T8F00S00C0.05000
T9F00S00C0.11811
%
T01
X0471654Y028189
X0475591
X0479528
X0483465
X0487402
X0491339
X0495276
X0499213
X050315
X0507087
X0511024
X0514961
X0518898
X0522835
X0526772
X0530709
X0534646
X0538583
X054252
X0546457
X0550394
X0554331
X0558268
X0562205
X0566142
X0570079
X0574016
X0577953
X058189
X0585827
X0589764
X0593701
X0597638
X0601575
X0605512
X0609449
X0467717
X0463779
X0459842
X0455905
X0451968
X0448032
X0444095
X0401575Y03
X0370866
X0365354Y0312992
Y0315354
X0356299
X0355118Y0319291
X0361811Y0337795
X0373622Y0328327
X037874
X0381103Y0330394
X0386221Y0330315
X0391151Y0330249
X0396457Y0330315
X0398721Y0321654
X0393721Y0321654
X038872
X038372
X0379382Y0356061
X0379528Y0359842
X0391732
X0391339Y0366929
X0395669Y037126
X0396457Y037441
X0401575Y0370866
X0405905Y0373622
X040593Y0376146
X0405905Y037874
X0415748Y037874
X0415748Y0383071
X0420079Y0383071
Y037874
Y037441
X0415748Y037441
X0424409
X0424409Y037874
X0424409Y0383071
X0417717Y0396457
X0411811Y0393701
X0405118Y0389764
X0401777Y0389754
X0397244Y0385827
X0387008Y0394488
X038189Y0401181
X037851Y0397801
X037559Y0389764
X0362992Y0382677
X0361024Y0378346
X0403543Y0363779
Y036063
X0396457Y0355906
X0426673Y0340256
X042687Y0331693
X0422539
Y0327362
X042687
X0432185Y0322342
X0430315Y0318504
X0424409Y0315748
X0435433Y0325591
Y0329528
X0437402Y0327559
Y0331496
X0435433Y0333465
X0432185Y0336713
X0450394Y0320079
X0451968Y0377165
X0448032
X0444095
X0455905
X0459842
X0463779
X0467717
X0450394Y0414961
X0437402Y0422441
Y0426378
X0435433Y0424409
Y0428346
X0432185Y0431595
X0426673Y0435138
X042687Y0426575
X0422539
Y0422244
X042687
X0435433Y0420472
X0432185Y0417224
X0430315Y0413386
X0424016Y041063
X0396457Y0430709
X0391151Y0430643
X0386221Y0430709
X0381103Y0430788
X0376032Y0430691
X0370866Y0444488
X0373721Y0452795
X037872
X038372
X038872
X0393721
X0398721
X0401575Y0444488
X0473228Y0433858
X0481102Y0424803
X0486221
X0490945
X049252Y0414961
X0491339Y0377165
X0487402
X0483465
X0479528
X0475591
X0471654
X0495276
X0499213
X050315
X0507087
X0511024
X0514961
X0518898
X0522835
X0526772
X0530709
X0534646
X0538583
X054252
X0546457
X0550394
X0554331
X0558268
X0562205
X0566142
X0570079
X0574016
X0577953
X058189
X0585827Y0377953
X0589764
X0593701
X0597638
X0601575Y0377165
X0605512
X0609449
X0613386
X0617323
X0599606Y0338976
X0577165Y0329921
X0572047
X0566929
X055748Y0338976
X0533465Y0329921
X0528346
X0523228
X0515354Y0338976
X0491732Y0329921
X0486614
X0481496
X0473228Y0338976
X0492913Y0320079
X0535039Y0320079
X0576772
Y0414961
X0575591Y0424803
X0570866
X0565748
X055748Y0433858
X0532677Y0424803
X0527953
X0522835
X0515354Y0433858
X0534646Y0414961
X0599606Y0433858
X0601575Y0472047
X0605512
X0609449
X0613386
X0617323
X0597638Y0472835
X0593701
X0589764
X0585827
X058189Y0472047
X0577953
X0574016
X0570079
X0566142
X0562205
X0558268
X0554331
X0550394
X0546457
X054252
X0538583
X0534646
X0530709
X0526772
X0522835
X0518898
X0514961
X0511024
X0507087
X050315
X0499213
X0495276
X0491339
X0487402
X0483465
X0479528
X0475591
X0471654
X0467717
X0463779
X0459842
X0455905
X0451968
X0448032
X0444095
T02
X0493307Y0295669
X0535433Y0295669
X0577165
X0450787Y0295669
Y0390551
X0492913Y0390551
X0535039
X0577165
X0557874Y0363386
X0515748Y0363386
X0473622Y0363386
X0473622Y0458268
X0515748Y0458268
X0557874Y0458268
X06Y0458268
Y0363386
T03
X0379035Y0376378
Y0381102
X038376
Y0376378
T04
X0436614Y0446457
T05
X0368898Y0345276
Y035315
Y0413386
Y042126
T06
X0343701Y0362598
Y0372598
Y0382598
Y0392598
Y0403937
Y0413937
Y0423937
Y0433937
T07
X0613779Y0351181
Y0446457
T08
X0643701Y030441
Y032441
Y0344094
Y0364094
X0644095Y039063
Y041063
Y0430315
Y0450315
T09
X0645669Y0279528
X0350394
X0645669Y0476378
X0350394
M30
