M48
;Layer_Color=9474304
;FILE_FORMAT=2:5
INCH,LZ
;TYPE=PLATED
T1F00S00C0.00787
T2F00S00C0.01299
T3F00S00C0.01575
T4F00S00C0.02800
T5F00S00C0.03543
T6F00S00C0.03940
T7F00S00C0.11811
%
T01
X0498819Y0148425
Y0160236
X0479134Y0159843
X0485039Y0148425
X0456693Y0150787
X0440945Y0138976
X0432283
X0421654
X0422047Y0143307
X0411811Y0138583
X0407874Y0138976
X0398819
X0389764
X0379528
X0369685Y0138583
X0365748Y0138976
X0356693
X0348031
X0351575Y0124803
X0342126
X0361024
X0370472
X0379921
X038937
X0398819
X0408268
X0417717
X0427165
X0436614
X0446063
X0452362
X0457087Y0115354
X0440945Y011063
X0432283
X0421654
X0422047Y0106299
X0422047Y0091339
X0421654Y0087008
X0411811Y0086614
X0407874Y0087008
X0398819
X0389764
X0379528
X0369685Y0086614
X0365748Y0087008
X0356693
X0348031
X0351575Y0072835
X0342126
X0361024
X0370472
X0379921
X038937
X0398819
X0408268
X0417717
X0427165
X0436614
X0446063
X0452362
X0440945Y0087008
X0432283
Y0058661
X0440945
X0421654
X0422047Y0054331
X0411811Y0059055
X0407874Y0058661
X0398819
X0389764
X0379528
X0369685Y0059055
X0365748Y0058661
X0356693
X0348031
Y0035039
X0356693
X0365748
X0369685Y0034646
X0379528Y0035039
X0389764
X0398819
X0407874
X0411811Y0034646
X0421654Y0035039
X0422047Y003937
X0432283Y0035039
X0440945
X0436614Y002126
X0446063
X0452362
X0427165
X0417717
X0408268
X0398819
X038937
X0379921
X0370472
X0361024
X0351575
X0342126
X0348031Y011063
X0356693
X0365748
X0369685Y0111024
X0379528Y011063
X0389764
X0398819
X0407874
X0411811Y0111024
X0422047Y0158268
X0457087Y004685
X0337402Y0058661
X0327559Y0059055
X0323622Y0058661
X0314567
X0305906
X0295276
X0285433Y0059055
X0281496Y0058661
X0272441
X0263779
X025315
X0243307Y0059055
X023937Y0058661
X0230315
X0221654
X0211024
X0201181Y0059055
X0197244Y0058661
X0188189
X0190945Y0072835
X0181496
X0200394
X0209842
X0219291
X022874
X0238189
X0247638
X0257087
X0266535
X0275984
X0285433
X0294882
X0304331
X0313779
X0323228
X0332677
X0327559Y0086614
X0323622Y0087008
X0314567
X0305906
X0295276
X0285433Y0086614
X0281496Y0087008
X0272441
X0263779
X025315
X0243307Y0086614
X023937Y0087008
X0230315
X0221654
X0211024
X0201181Y0086614
X0197244Y0087008
X0188189
Y011063
X0197244
X0201181Y0111024
X0211024Y011063
X0221654
X0230315
X023937
X0243307Y0111024
X025315Y011063
X0263779
X0272441
X0281496
X0285433Y0111024
X0295276Y011063
X0305906
X0314567
X0323622
X0327559Y0111024
X0337402Y011063
X0332677Y0124803
X0323228
X0313779
X0304331
X0294882
X0285433
X0275984
X0266535
X0257087
X0247638
X0238189
X022874
X0219291
X0209842
X0200394
X0190945
X0181496
X0188189Y0138976
X0197244
X0201181Y0138583
X0211024Y0138976
X0221654
X0230315
X023937
X0243307Y0138583
X025315Y0138976
X0263779
X0272441
X0281496
X0285433Y0138583
X0295276Y0138976
X0305906
X0314567
X0323622
X0327559Y0138583
X0337402Y0138976
Y0087008
Y0035039
X0327559Y0034646
X0323622Y0035039
X0314567
X0305906
X0295276
X0285433Y0034646
X0281496Y0035039
X0272441
X0263779
X025315
X0243307Y0034646
X023937Y0035039
X0230315
X0221654
X0211024
X0201181Y0034646
X0197244Y0035039
X0188189
X0190945Y002126
X0181496
X0200394
X0209842
X0219291
X022874
X0238189
X0247638
X0257087
X0266535
X0275984
X0285433
X0294882
X0304331
X0313779
X0323228
X0332677
X0172047
X0162598
X015315
X0143701
X0134252
X0124803
X0120472Y0029528
X0111748Y0033812
X010978Y0035781
Y0031844
X0111846Y0037848
X0109878Y0039816
X0106728Y0042966
X0106693Y0045669
X0105118Y0051575
X0106299Y0055512
X0109843Y0058661
Y0062598
Y0066535
X0111811Y0064567
Y006063
X0101772Y0060335
Y0064665
X0097441
Y0060335
X0099045Y0048683
X0097441Y0037992
Y0033661
X0101772Y0033661
X0101772Y0037992
X0105512Y0024803
X0099091Y0022142
X0083071Y004685
Y0049213
Y0051968
Y0054724
X0076256Y0061342
X0073894
X0071138
X0068382
X0065748Y0064567
X0059449Y0061811
X0051968Y0054331
X0054134Y0051968
X0049606Y0046654
Y0041929
X0043701Y004685
X0064173Y004685
Y004252
X0068504
Y004685
Y0051181
X0064173Y0051181
X0072835
X0072835Y004685
X0072835Y004252
X0063189Y0031496
Y0028346
X0062992Y0080315
Y0083465
X0064173Y0094488
Y0098819
Y010315
X0068504Y010315
Y0098819
X0072835
X0072835Y0094488
X0068504
X0072835Y010315
X0054134Y0103937
X0051968Y0106299
X0049409Y0098819
X0045472Y0088779
X0038386
X0032874
X0028346
X0030709Y0068898
X0025984
X0035827
X0040748
X003937Y010315
X0034252Y0106496
X0033858Y0113779
X0042717Y0120669
X0047047Y0123425
Y012874
X0049606Y0145669
Y0150787
X0054134Y0155905
X0051968Y0158268
X004311
Y0155315
X0026181Y0151378
X0029724Y0140945
X0063189Y013563
Y013248
X0064173Y0146457
X0068504Y0146457
Y0150787
Y0155118
X0064173Y0155118
X0064173Y0150787
X0072835Y0150787
X0072835Y0146457
Y0155118
X0083071Y0155905
Y0158661
Y015315
Y0150787
X0098634Y0152116
X0104724Y0154724
X0106299Y0159449
X0106728Y0149659
Y0146903
X0109878Y0143753
X0111846Y0141785
X0111748Y0137749
X010978Y0139718
Y0135781
X0101807Y0137552
Y0141883
X0097476Y0141883
Y0137552
X009892Y0126301
X0105118Y012874
X0106299Y0121653
X0109843Y0118504
Y0114567
X0111811Y0116535
Y0112598
X0109843Y011063
X0106299Y010748
X0105118Y0103543
X0106728Y009769
Y0094934
X0109878Y0091785
X0111846Y0089816
X0111748Y0085781
X010978Y0087749
Y0083812
X0101807Y0085584
Y0089915
X0097476
Y0085584
X008937Y0085827
Y0089764
X0087402Y0087795
Y0091732
X009252Y0094882
X0097638Y0098032
X0098819Y0100787
X0097441Y0112312
Y0116643
X0101772
Y0112312
X0124016Y011063
X0129528Y011063
X0137402Y011063
X0146063
X014685Y0115748
X0143701Y0124803
X015315
X0162598
X0172047
X0168898Y011063
X0159055Y0111024
X0155118Y011063
X0162598Y0095669
X0159055Y0086614
X0155118Y0087008
X0146063
X0147244Y008189
X0143701Y0072835
X015315
X0162598
X0172047
X0168898Y0087008
X0179528
Y011063
Y0138976
X0168898
X0159055Y0138583
X0155118Y0138976
X0146063
X0147244Y0133858
X0137402Y0138976
X0129134
X0120472Y0133465
X0124803Y0124803
X0134252
X0137402Y0087008
X0129134
X0120472Y0081102
X0124803Y0072835
X0134252
X0137402Y0058661
X0129528
X0124016
X0146063
X014685Y0063779
X0155118Y0058661
X0159055Y0059055
X0168898Y0058661
X0179528
Y0035039
X0168898
X0159055Y0034646
X0155118Y0035039
X0146063
X0147244Y0029921
X0137402Y0035039
X0129134
X0162598Y0043701
X0106299Y0069685
X0105118Y0076772
X0099055Y0074173
X0095669Y0077165
X009252Y0081496
X0066142Y0116142
X0060184Y0113828
X0162598Y0147638
X0022047Y0143307
X0021138Y0133206
X0012992Y0134449
X0010591Y012874
X0008465Y0124606
X0024016Y0106299
Y0103347
X0023425Y0088779
X0018898
X0014173
X0016929Y0075984
X0021063
X0012992Y004685
X0019882Y0154134
X0018307Y0158268
X0022047Y0179331
X0023228Y0226378
X0012205
Y0239764
X0015748Y0247441
X0020669Y0247835
X0025787
X0030709
X0035827Y0248031
X0040748
X0049409Y0249606
Y0252165
Y0254724
X0054134Y0259842
X0051968Y0262205
X0059423Y026963
X0065748Y0272441
X0064173Y0259055
X0064173Y0254724
X0068504
Y0250394
X0064173Y0250394
X0072835
X0072835Y0254724
X0072835Y0259055
X0068504Y0259055
X0063189Y0239764
Y0236614
X0065748Y0220472
X0059449Y0217717
X0046654Y0215945
X0038189
X003878Y0226378
X004685
X0044291Y0239764
X0030315Y0226378
X0051968Y0210236
X0054134Y0207874
X0049606Y0202756
Y0197441
X0064173Y0198425
Y0202756
Y0207087
X0068504Y0207087
Y0202756
Y0198425
X0072835
Y0202756
Y0207087
X0087402Y0195669
Y0191732
X008937Y0193701
Y0189764
X009252Y0185433
X0095669Y0181102
X0099016Y017815
X0105118Y0180709
X0106299Y0173622
X0109843Y0170473
Y0166535
X0111811Y0168504
Y0164567
X0109843Y0162598
X0101772Y0164245
Y0168576
X0097441
Y0164245
X0076256Y0165279
X0073894
X0071138
X0068382
X0065748Y0168504
X0059842Y0165748
X0062917Y0184491
Y018764
X0097476Y0189521
Y0193851
X0101807
Y0189521
X010978Y0187749
Y0191686
X0111748Y0189718
X0111846Y0193753
X0109878Y0195722
X0106728Y0198871
Y0201627
X0105512Y020748
X0106299Y0211417
X0109843Y0214567
Y0218504
Y0222441
X0111811Y0220472
Y0216535
X0101772Y021622
Y0220551
X0097441
Y021622
X0099213Y0204724
X0097638Y0201969
X009252Y0198819
X0096457Y0232677
X0105512
X0106299Y0225591
X010978Y0239718
Y0243655
X0111748Y0241686
X0111846Y0245722
X0109878Y024769
X0106728Y025084
Y0253596
X0105512Y0259449
X0106299Y0263386
X0109843Y0266535
Y0270472
Y027441
X0111811Y0272441
Y0268504
X0101772Y0268147
Y0272478
X0097441
Y0268147
X0099213Y0256693
X0097476Y024582
X0101807
Y0241489
X0097476
X0120472Y0237008
X0124803Y022874
X0134252
X0143701
X015315
X0162598
X0172047
X0168898Y0214567
X0159055Y0214961
X0155118Y0214567
X0146063
X014685Y0219685
X0137402Y0214567
X0129528Y0214567
X0124016Y0214567
X0129134Y0190945
X0137402
X0146063
X0147244Y0185827
X0143701Y0176772
X015315
X0162598
X0172047
X0168898Y0190945
X0159055Y0190551
X0155118Y0190945
X0162598Y0199606
X0179528Y0190945
Y0214567
X0179528Y0242913
X0168898
X0159055Y024252
X0155118Y0242913
X0146063
X0147244Y0237795
X0137402Y0242913
X0129134
X0129528Y0266535
X0124016
X0137402
X0146063
X014685Y0271654
X0143701Y0280315
X015315
X0162598
X0172047
X0168898Y0266535
X0159055Y0266929
X0155118Y0266535
X0162598Y0251575
X0179528Y0266535
X0134252Y0280315
X0124803
X0106299Y0277559
X0120472Y0185039
X0124803Y0176772
X0134252
X0137402Y0162598
X0129528
X0124016
X0146063
X014685Y0167717
X0155118Y0162598
X0159055Y0162992
X0168898Y0162598
X0179528
X0188189
X0197244
X0201181Y0162992
X0211024Y0162598
X0221654
X0230315
X023937
X0243307Y0162992
X025315Y0162598
X0263779
X0272441
X0281496
X0285433Y0162992
X0295276Y0162598
X0305906
X0314567
X0323622
X0327559Y0162992
X0337402Y0162598
X0332677Y0176772
X0323228
X0313779
X0304331
X0294882
X0285433
X0275984
X0266535
X0257087
X0247638
X0238189
X022874
X0219291
X0209842
X0200394
X0190945
X0181496
X0188189Y0190945
X0197244
X0201181Y0190551
X0211024Y0190945
X0221654
X0230315
X023937
X0243307Y0190551
X025315Y0190945
X0263779
X0272441
X0281496
X0285433Y0190551
X0295276Y0190945
X0305906
X0314567
X0323622
X0327559Y0190551
X0337402Y0190945
Y0214567
X0327559Y0214961
X0323622Y0214567
X0314567
X0305906
X0295276
X0285433Y0214961
X0281496Y0214567
X0272441
X0263779
X025315
X0243307Y0214961
X023937Y0214567
X0230315
X0221654
X0211024
X0201181Y0214961
X0197244Y0214567
X0188189
X0190945Y022874
X0181496
X0200394
X0209842
X0219291
X022874
X0238189
X0247638
X0257087
X0266535
X0275984
X0285433
X0294882
X0304331
X0313779
X0323228
X0332677
X0327559Y024252
X0323622Y0242913
X0314567
X0305906
X0295276
X0285433Y024252
X0281496Y0242913
X0272441
X0263779
X025315
X0243307Y024252
X023937Y0242913
X0230315
X0221654
X0211024
X0201181Y024252
X0197244Y0242913
X0188189
Y0266535
X0197244
X0201181Y0266929
X0211024Y0266535
X0221654
X0230315
X023937
X0243307Y0266929
X025315Y0266535
X0263779
X0272441
X0281496
X0285433Y0266929
X0295276Y0266535
X0305906
X0314567
X0323622
X0327559Y0266929
X0337402Y0266535
X0332677Y0280315
X0323228
X0313779
X0304331
X0294882
X0285433
X0275984
X0266535
X0257087
X0247638
X0238189
X022874
X0219291
X0209842
X0200394
X0190945
X0181496
X0337402Y0242913
X0348031
X0356693
X0365748
X0369685Y024252
X0379528Y0242913
X0389764
X0398819
X0407874
X0411811Y024252
X0421654Y0242913
X0422835Y0248031
X0422638Y0261614
X0421654Y0266535
X0411811Y0266929
X0407874Y0266535
X0398819
X0389764
X0379528
X0369685Y0266929
X0365748Y0266535
X0356693
X0348031
X0351575Y0280315
X0342126
X0361024
X0370472
X0379921
X038937
X0398819
X0408268
X0417717
X0427165
X0436614
X0446063
X0452362
X0440945Y0266535
X0432283
Y0242913
X0440945
X0436614Y022874
X0446063
X0452362
X045748Y0238976
X0457087Y0254724
Y021811
X0440945Y0214567
X0432283
X0421654
X0422441Y0209842
X0422441Y0195669
X0421654Y0190945
X0411811Y0190551
X0407874Y0190945
X0398819
X0389764
X0379528
X0369685Y0190551
X0365748Y0190945
X0356693
X0348031
X0351575Y0176772
X0342126
X0361024
X0370472
X0379921
X038937
X0398819
X0408268
X0417717
X0427165
X0436614
X0452362
X0440945Y0190945
X0432283
X0432283Y0162598
X0440945
X0421654
X0411811Y0162992
X0407874Y0162598
X0398819
X0389764
X0379528
X0369685Y0162992
X0365748Y0162598
X0356693
X0348031
X0348031Y0214567
X0356693
X0365748
X0369685Y0214961
X0379528Y0214567
X0389764
X0398819
X0407874
X0411811Y0214961
X0408268Y022874
X0417717
X0427165
X0398819
X038937
X0379921
X0370472
X0361024
X0351575
X0342126
T02
X0026378Y0122835
X0031102
Y0127559
X0026378
T03
X0124016Y0035039
X0130709Y0042126
X0124016Y0087008
X0130709Y0094095
X0124016Y0138976
X0130709Y0146063
X0124016Y0190945
X0130709Y0198031
X0124016Y0242913
X0130709Y025
T04
X0024016Y0185433
Y0193307
Y0209252
Y0217126
T05
X0495827Y0040709
Y0050709
Y0060709
Y0070709
X0495827Y0080709
X0495827Y0090709
Y0100709
X0495827Y0110709
X0495827Y0120709
Y0130709
X0485827Y0130709
Y0120709
X0485827Y0110709
Y0100709
Y0090709
X0485827Y0080709
X0485827Y0070709
Y0060709
X0485827Y0050709
X0485827Y0040709
X0003937Y0151024
Y0161024
Y0171024
Y0181024
Y019252
Y020252
Y021252
Y022252
X0485827Y0220866
Y0210866
Y0200866
Y0190866
Y0180866
Y0170866
Y0230866
Y0240866
Y0250866
Y0260866
X0495827
Y0250866
Y0240866
Y0230866
Y0220866
Y0210866
Y0200866
Y0190866
Y0180866
Y0170866
T06
X0457087Y003937
Y0054331
Y0091339
Y0106299
Y0143307
Y0158268
Y0195276
Y0210236
Y0247244
Y0262205
T07
X0468898Y0024803
X0012205
Y0276772
X0468898
M30
