G04*
G04 #@! TF.GenerationSoftware,Altium Limited,Altium Designer,20.0.9 (164)*
G04*
G04 Layer_Physical_Order=2*
G04 Layer_Color=36540*
%FSLAX25Y25*%
%MOIN*%
G70*
G01*
G75*
%ADD53C,0.05906*%
%ADD54R,0.05906X0.05906*%
%ADD55C,0.08268*%
%ADD57C,0.01772*%
%ADD58C,0.01968*%
%ADD59C,0.02598*%
G36*
X305496Y100803D02*
X159071D01*
X159071Y315733D01*
X305496D01*
Y100803D01*
D02*
G37*
%LPC*%
G36*
X269022Y313589D02*
X265869D01*
Y310436D01*
X269022D01*
Y313589D01*
D02*
G37*
G36*
X235869Y313592D02*
Y310436D01*
X239025D01*
X238936Y311111D01*
X238598Y311927D01*
X238060Y312627D01*
X237360Y313165D01*
X236544Y313503D01*
X235869Y313592D01*
D02*
G37*
G36*
X265469Y313589D02*
X262317D01*
Y310436D01*
X265469D01*
Y313589D01*
D02*
G37*
G36*
X235469Y313592D02*
X234794Y313503D01*
X233979Y313165D01*
X233278Y312627D01*
X232741Y311927D01*
X232403Y311111D01*
X232314Y310436D01*
X235469D01*
Y313592D01*
D02*
G37*
G36*
X269022Y310036D02*
X265869D01*
Y306884D01*
X269022D01*
Y310036D01*
D02*
G37*
G36*
X265469D02*
X262317D01*
Y306884D01*
X265469D01*
Y310036D01*
D02*
G37*
G36*
X221463Y313589D02*
X214757D01*
Y306884D01*
X221463D01*
Y313589D01*
D02*
G37*
G36*
X235469Y310036D02*
X232314D01*
X232403Y309361D01*
X232741Y308545D01*
X233278Y307845D01*
X233979Y307308D01*
X234794Y306970D01*
X235469Y306881D01*
Y310036D01*
D02*
G37*
G36*
X239025D02*
X235869D01*
Y306881D01*
X236544Y306970D01*
X237360Y307308D01*
X238060Y307845D01*
X238598Y308545D01*
X238936Y309361D01*
X239025Y310036D01*
D02*
G37*
G36*
X255669Y313618D02*
X254794Y313503D01*
X253978Y313165D01*
X253278Y312627D01*
X252741Y311927D01*
X252403Y311111D01*
X252288Y310236D01*
X252403Y309361D01*
X252741Y308545D01*
X253278Y307845D01*
X253978Y307308D01*
X254794Y306970D01*
X255669Y306855D01*
X256544Y306970D01*
X257360Y307308D01*
X258061Y307845D01*
X258598Y308545D01*
X258936Y309361D01*
X259051Y310236D01*
X258936Y311111D01*
X258598Y311927D01*
X258061Y312627D01*
X257360Y313165D01*
X256544Y313503D01*
X255669Y313618D01*
D02*
G37*
G36*
X245669D02*
X244794Y313503D01*
X243979Y313165D01*
X243278Y312627D01*
X242741Y311927D01*
X242403Y311111D01*
X242288Y310236D01*
X242403Y309361D01*
X242741Y308545D01*
X243278Y307845D01*
X243979Y307308D01*
X244794Y306970D01*
X245669Y306855D01*
X246545Y306970D01*
X247360Y307308D01*
X248060Y307845D01*
X248598Y308545D01*
X248936Y309361D01*
X249051Y310236D01*
X248936Y311111D01*
X248598Y311927D01*
X248060Y312627D01*
X247360Y313165D01*
X246545Y313503D01*
X245669Y313618D01*
D02*
G37*
G36*
X208110D02*
X207235Y313503D01*
X206419Y313165D01*
X205719Y312627D01*
X205182Y311927D01*
X204844Y311111D01*
X204729Y310236D01*
X204844Y309361D01*
X205182Y308545D01*
X205719Y307845D01*
X206419Y307308D01*
X207235Y306970D01*
X208110Y306855D01*
X208985Y306970D01*
X209801Y307308D01*
X210502Y307845D01*
X211039Y308545D01*
X211377Y309361D01*
X211492Y310236D01*
X211377Y311111D01*
X211039Y311927D01*
X210502Y312627D01*
X209801Y313165D01*
X208985Y313503D01*
X208110Y313618D01*
D02*
G37*
G36*
X198110D02*
X197235Y313503D01*
X196419Y313165D01*
X195719Y312627D01*
X195182Y311927D01*
X194844Y311111D01*
X194729Y310236D01*
X194844Y309361D01*
X195182Y308545D01*
X195719Y307845D01*
X196419Y307308D01*
X197235Y306970D01*
X198110Y306855D01*
X198986Y306970D01*
X199801Y307308D01*
X200501Y307845D01*
X201039Y308545D01*
X201377Y309361D01*
X201492Y310236D01*
X201377Y311111D01*
X201039Y311927D01*
X200501Y312627D01*
X199801Y313165D01*
X198986Y313503D01*
X198110Y313618D01*
D02*
G37*
G36*
X269101Y302565D02*
X265948D01*
Y299413D01*
X269101D01*
Y302565D01*
D02*
G37*
G36*
X235948Y302568D02*
Y299413D01*
X239103D01*
X239015Y300088D01*
X238677Y300903D01*
X238139Y301604D01*
X237439Y302141D01*
X236623Y302479D01*
X235948Y302568D01*
D02*
G37*
G36*
X265548Y302565D02*
X262395D01*
Y299413D01*
X265548D01*
Y302565D01*
D02*
G37*
G36*
X235548Y302568D02*
X234873Y302479D01*
X234057Y302141D01*
X233357Y301604D01*
X232819Y300903D01*
X232482Y300088D01*
X232393Y299413D01*
X235548D01*
Y302568D01*
D02*
G37*
G36*
X269101Y299013D02*
X265948D01*
Y295860D01*
X269101D01*
Y299013D01*
D02*
G37*
G36*
X265548D02*
X262395D01*
Y295860D01*
X265548D01*
Y299013D01*
D02*
G37*
G36*
X239103D02*
X235948D01*
Y295857D01*
X236623Y295946D01*
X237439Y296284D01*
X238139Y296821D01*
X238677Y297522D01*
X239015Y298337D01*
X239103Y299013D01*
D02*
G37*
G36*
X235548D02*
X232393D01*
X232482Y298337D01*
X232819Y297522D01*
X233357Y296821D01*
X234057Y296284D01*
X234873Y295946D01*
X235548Y295857D01*
Y299013D01*
D02*
G37*
G36*
X255748Y302594D02*
X254873Y302479D01*
X254057Y302141D01*
X253357Y301604D01*
X252819Y300903D01*
X252482Y300088D01*
X252366Y299213D01*
X252482Y298337D01*
X252819Y297522D01*
X253357Y296821D01*
X254057Y296284D01*
X254873Y295946D01*
X255748Y295831D01*
X256623Y295946D01*
X257439Y296284D01*
X258139Y296821D01*
X258677Y297522D01*
X259015Y298337D01*
X259130Y299213D01*
X259015Y300088D01*
X258677Y300903D01*
X258139Y301604D01*
X257439Y302141D01*
X256623Y302479D01*
X255748Y302594D01*
D02*
G37*
G36*
X245748D02*
X244873Y302479D01*
X244057Y302141D01*
X243357Y301604D01*
X242819Y300903D01*
X242482Y300088D01*
X242366Y299213D01*
X242482Y298337D01*
X242819Y297522D01*
X243357Y296821D01*
X244057Y296284D01*
X244873Y295946D01*
X245748Y295831D01*
X246623Y295946D01*
X247439Y296284D01*
X248139Y296821D01*
X248677Y297522D01*
X249014Y298337D01*
X249130Y299213D01*
X249014Y300088D01*
X248677Y300903D01*
X248139Y301604D01*
X247439Y302141D01*
X246623Y302479D01*
X245748Y302594D01*
D02*
G37*
G36*
X248524Y280748D02*
X247520Y280616D01*
X246585Y280229D01*
X245781Y279612D01*
X245165Y278809D01*
X244778Y277874D01*
X244646Y276870D01*
X244778Y275866D01*
X245165Y274931D01*
X245781Y274128D01*
X246585Y273512D01*
X247520Y273124D01*
X248524Y272992D01*
X249527Y273124D01*
X250463Y273512D01*
X251266Y274128D01*
X251882Y274931D01*
X252270Y275866D01*
X252402Y276870D01*
X252270Y277874D01*
X251882Y278809D01*
X251266Y279612D01*
X250463Y280229D01*
X249527Y280616D01*
X248524Y280748D01*
D02*
G37*
G36*
X233858Y280650D02*
X232855Y280518D01*
X231919Y280130D01*
X231116Y279514D01*
X230500Y278711D01*
X230112Y277775D01*
X229980Y276772D01*
X230112Y275768D01*
X230500Y274833D01*
X231116Y274029D01*
X231919Y273413D01*
X232855Y273026D01*
X233858Y272894D01*
X234862Y273026D01*
X235797Y273413D01*
X236600Y274029D01*
X237217Y274833D01*
X237604Y275768D01*
X237736Y276772D01*
X237604Y277775D01*
X237217Y278711D01*
X236600Y279514D01*
X235797Y280130D01*
X234862Y280518D01*
X233858Y280650D01*
D02*
G37*
G36*
X292126Y260862D02*
X291585Y260754D01*
X291127Y260448D01*
X290821Y259990D01*
X290713Y259449D01*
X290821Y258908D01*
X291127Y258450D01*
X291585Y258143D01*
X292126Y258036D01*
X292667Y258143D01*
X293125Y258450D01*
X293431Y258908D01*
X293539Y259449D01*
X293431Y259990D01*
X293125Y260448D01*
X292667Y260754D01*
X292126Y260862D01*
D02*
G37*
G36*
X292274Y255626D02*
X291734Y255518D01*
X291275Y255212D01*
X290969Y254753D01*
X290861Y254213D01*
X290969Y253672D01*
X291275Y253214D01*
X291734Y252907D01*
X292274Y252800D01*
X292815Y252907D01*
X293273Y253214D01*
X293580Y253672D01*
X293687Y254213D01*
X293580Y254753D01*
X293273Y255212D01*
X292815Y255518D01*
X292274Y255626D01*
D02*
G37*
G36*
X252389Y253170D02*
X251774Y253047D01*
X251253Y252699D01*
X250905Y252179D01*
X250783Y251564D01*
X250905Y250950D01*
X251253Y250429D01*
X251774Y250081D01*
X252389Y249958D01*
X253003Y250081D01*
X253524Y250429D01*
X253872Y250950D01*
X253994Y251564D01*
X253872Y252179D01*
X253524Y252699D01*
X253003Y253047D01*
X252389Y253170D01*
D02*
G37*
G36*
X238779Y251409D02*
X238165Y251287D01*
X237644Y250939D01*
X237296Y250418D01*
X237174Y249803D01*
X237296Y249189D01*
X237644Y248668D01*
X238165Y248320D01*
X238779Y248198D01*
X239394Y248320D01*
X239915Y248668D01*
X240263Y249189D01*
X240385Y249803D01*
X240263Y250418D01*
X239915Y250939D01*
X239394Y251287D01*
X238779Y251409D01*
D02*
G37*
G36*
X292913Y250626D02*
X292373Y250518D01*
X291914Y250212D01*
X291608Y249753D01*
X291500Y249213D01*
X291608Y248672D01*
X291914Y248214D01*
X292373Y247907D01*
X292913Y247800D01*
X293454Y247907D01*
X293913Y248214D01*
X294219Y248672D01*
X294326Y249213D01*
X294219Y249753D01*
X293913Y250212D01*
X293454Y250518D01*
X292913Y250626D01*
D02*
G37*
G36*
X243701D02*
X243160Y250518D01*
X242702Y250212D01*
X242395Y249753D01*
X242288Y249213D01*
X242395Y248672D01*
X242702Y248214D01*
X243160Y247907D01*
X243701Y247800D01*
X244241Y247907D01*
X244700Y248214D01*
X245006Y248672D01*
X245114Y249213D01*
X245006Y249753D01*
X244700Y250212D01*
X244241Y250518D01*
X243701Y250626D01*
D02*
G37*
G36*
X292913Y245901D02*
X292373Y245794D01*
X291914Y245487D01*
X291608Y245029D01*
X291500Y244488D01*
X291608Y243948D01*
X291914Y243489D01*
X292373Y243183D01*
X292913Y243075D01*
X293454Y243183D01*
X293913Y243489D01*
X294219Y243948D01*
X294326Y244488D01*
X294219Y245029D01*
X293913Y245487D01*
X293454Y245794D01*
X292913Y245901D01*
D02*
G37*
G36*
X238976Y245306D02*
X238362Y245184D01*
X237841Y244836D01*
X237493Y244315D01*
X237371Y243701D01*
X237493Y243086D01*
X237841Y242565D01*
X238362Y242217D01*
X238976Y242095D01*
X239591Y242217D01*
X240112Y242565D01*
X240460Y243086D01*
X240582Y243701D01*
X240460Y244315D01*
X240112Y244836D01*
X239591Y245184D01*
X238976Y245306D01*
D02*
G37*
G36*
X231594Y243929D02*
X230980Y243806D01*
X230459Y243458D01*
X230111Y242937D01*
X229989Y242323D01*
X230111Y241708D01*
X230459Y241188D01*
X230980Y240839D01*
X231594Y240717D01*
X232209Y240839D01*
X232730Y241188D01*
X233078Y241708D01*
X233200Y242323D01*
X233078Y242937D01*
X232730Y243458D01*
X232209Y243806D01*
X231594Y243929D01*
D02*
G37*
G36*
X247638Y242358D02*
X247097Y242250D01*
X246639Y241944D01*
X246332Y241486D01*
X246225Y240945D01*
X246332Y240404D01*
X246639Y239946D01*
X247097Y239639D01*
X247638Y239532D01*
X248179Y239639D01*
X248637Y239946D01*
X248943Y240404D01*
X249051Y240945D01*
X248943Y241486D01*
X248637Y241944D01*
X248179Y242250D01*
X247638Y242358D01*
D02*
G37*
G36*
X292913Y240783D02*
X292373Y240675D01*
X291914Y240369D01*
X291608Y239911D01*
X291500Y239370D01*
X291608Y238829D01*
X291914Y238371D01*
X292373Y238065D01*
X292913Y237957D01*
X293454Y238065D01*
X293913Y238371D01*
X294219Y238829D01*
X294326Y239370D01*
X294219Y239911D01*
X293913Y240369D01*
X293454Y240675D01*
X292913Y240783D01*
D02*
G37*
G36*
X247638Y232515D02*
X247097Y232408D01*
X246639Y232101D01*
X246332Y231643D01*
X246225Y231102D01*
X246332Y230562D01*
X246639Y230103D01*
X247097Y229797D01*
X247638Y229689D01*
X248179Y229797D01*
X248637Y230103D01*
X248943Y230562D01*
X249051Y231102D01*
X248943Y231643D01*
X248637Y232101D01*
X248179Y232408D01*
X247638Y232515D01*
D02*
G37*
G36*
X268406Y194716D02*
X267791Y194594D01*
X267270Y194246D01*
X266922Y193725D01*
X266800Y193110D01*
X266922Y192496D01*
X267270Y191975D01*
Y191490D01*
X266922Y190969D01*
X266800Y190354D01*
X266922Y189740D01*
X267270Y189219D01*
X267791Y188871D01*
X268406Y188749D01*
X269020Y188871D01*
X269541Y189219D01*
X269889Y189740D01*
X270011Y190354D01*
X269889Y190969D01*
X269541Y191490D01*
Y191975D01*
X269889Y192496D01*
X270011Y193110D01*
X269889Y193725D01*
X269541Y194246D01*
X269020Y194594D01*
X268406Y194716D01*
D02*
G37*
G36*
X282677Y202068D02*
X280891Y201892D01*
X279174Y201371D01*
X277591Y200525D01*
X276204Y199387D01*
X275065Y198000D01*
X274219Y196417D01*
X273698Y194699D01*
X273522Y192913D01*
X273698Y191127D01*
X274219Y189410D01*
X275065Y187827D01*
X276204Y186440D01*
X277591Y185301D01*
X279174Y184456D01*
X280891Y183935D01*
X282677Y183759D01*
X284463Y183935D01*
X286180Y184456D01*
X287763Y185301D01*
X289151Y186440D01*
X290289Y187827D01*
X291135Y189410D01*
X291656Y191127D01*
X291832Y192913D01*
X291656Y194699D01*
X291135Y196417D01*
X290289Y198000D01*
X289151Y199387D01*
X287763Y200525D01*
X286180Y201371D01*
X284463Y201892D01*
X282677Y202068D01*
D02*
G37*
G36*
X209842D02*
X208056Y201892D01*
X206339Y201371D01*
X204756Y200525D01*
X203369Y199387D01*
X202231Y198000D01*
X201385Y196417D01*
X200864Y194699D01*
X200688Y192913D01*
X200864Y191127D01*
X201385Y189410D01*
X202231Y187827D01*
X203369Y186440D01*
X204756Y185301D01*
X206339Y184456D01*
X208056Y183935D01*
X209842Y183759D01*
X211629Y183935D01*
X213346Y184456D01*
X214929Y185301D01*
X216316Y186440D01*
X217454Y187827D01*
X218300Y189410D01*
X218821Y191127D01*
X218997Y192913D01*
X218821Y194699D01*
X218300Y196417D01*
X217454Y198000D01*
X216316Y199387D01*
X214929Y200525D01*
X213346Y201371D01*
X211629Y201892D01*
X209842Y202068D01*
D02*
G37*
G36*
X188189Y182515D02*
X187648Y182408D01*
X187190Y182102D01*
X186884Y181643D01*
X186776Y181102D01*
X186884Y180562D01*
X187190Y180103D01*
X187648Y179797D01*
X188189Y179689D01*
X188730Y179797D01*
X189188Y180103D01*
X189494Y180562D01*
X189602Y181102D01*
X189494Y181643D01*
X189188Y182102D01*
X188730Y182408D01*
X188189Y182515D01*
D02*
G37*
G36*
X264370Y183102D02*
X263756Y182980D01*
X263235Y182631D01*
X262887Y182111D01*
X262764Y181496D01*
X262887Y180882D01*
X263235Y180361D01*
X263302Y180316D01*
X263252Y179402D01*
X263077Y179285D01*
X262729Y178764D01*
X262607Y178150D01*
X262729Y177535D01*
X263077Y177014D01*
X263598Y176666D01*
X264213Y176544D01*
X264827Y176666D01*
X265348Y177014D01*
X265696Y177535D01*
X265818Y178150D01*
X265696Y178764D01*
X265348Y179285D01*
X265281Y179330D01*
X265330Y180244D01*
X265506Y180361D01*
X265854Y180882D01*
X265976Y181496D01*
X265854Y182111D01*
X265506Y182631D01*
X264984Y182980D01*
X264370Y183102D01*
D02*
G37*
G36*
X188189Y177397D02*
X187648Y177290D01*
X187190Y176983D01*
X186884Y176525D01*
X186776Y175984D01*
X186884Y175443D01*
X187190Y174985D01*
X187648Y174679D01*
X188189Y174571D01*
X188730Y174679D01*
X189188Y174985D01*
X189494Y175443D01*
X189602Y175984D01*
X189494Y176525D01*
X189188Y176983D01*
X188730Y177290D01*
X188189Y177397D01*
D02*
G37*
G36*
X270472Y176610D02*
X269932Y176502D01*
X269473Y176196D01*
X269167Y175738D01*
X269059Y175197D01*
X269167Y174656D01*
X269473Y174198D01*
X269932Y173891D01*
X270472Y173784D01*
X271013Y173891D01*
X271472Y174198D01*
X271778Y174656D01*
X271885Y175197D01*
X271778Y175738D01*
X271472Y176196D01*
X271013Y176502D01*
X270472Y176610D01*
D02*
G37*
G36*
X251083Y175031D02*
X250468Y174909D01*
X249947Y174561D01*
X249599Y174040D01*
X249477Y173425D01*
X249599Y172811D01*
X249947Y172290D01*
X250468Y171942D01*
X251083Y171819D01*
X251697Y171942D01*
X252218Y172290D01*
X252566Y172811D01*
X252688Y173425D01*
X252566Y174040D01*
X252218Y174561D01*
X251697Y174909D01*
X251083Y175031D01*
D02*
G37*
G36*
X188189Y172279D02*
X187648Y172172D01*
X187190Y171865D01*
X186884Y171407D01*
X186776Y170866D01*
X186884Y170325D01*
X187190Y169867D01*
X187648Y169561D01*
X188189Y169453D01*
X188730Y169561D01*
X189188Y169867D01*
X189494Y170325D01*
X189602Y170866D01*
X189494Y171407D01*
X189188Y171865D01*
X188730Y172172D01*
X188189Y172279D01*
D02*
G37*
G36*
Y167555D02*
X187648Y167447D01*
X187190Y167141D01*
X186884Y166682D01*
X186776Y166142D01*
X186884Y165601D01*
X187190Y165143D01*
X187648Y164836D01*
X188189Y164729D01*
X188730Y164836D01*
X189188Y165143D01*
X189494Y165601D01*
X189602Y166142D01*
X189494Y166682D01*
X189188Y167141D01*
X188730Y167447D01*
X188189Y167555D01*
D02*
G37*
G36*
X235039Y166374D02*
X234499Y166266D01*
X234040Y165960D01*
X233734Y165501D01*
X233626Y164961D01*
X233680Y164693D01*
X233224Y164104D01*
X233074Y164011D01*
X233071Y164011D01*
X232530Y163904D01*
X232072Y163598D01*
X231766Y163139D01*
X231658Y162598D01*
X231766Y162058D01*
X232072Y161599D01*
X232530Y161293D01*
X233071Y161186D01*
X233612Y161293D01*
X234070Y161599D01*
X234376Y162058D01*
X234484Y162598D01*
X234431Y162866D01*
X234887Y163455D01*
X235037Y163548D01*
X235039Y163548D01*
X235580Y163655D01*
X236038Y163962D01*
X236345Y164420D01*
X236452Y164961D01*
X236345Y165501D01*
X236038Y165960D01*
X235580Y166266D01*
X235039Y166374D01*
D02*
G37*
G36*
X227953Y162437D02*
X227412Y162329D01*
X226954Y162023D01*
X226647Y161564D01*
X226540Y161024D01*
X226647Y160483D01*
X226954Y160024D01*
X227412Y159718D01*
X227953Y159611D01*
X228493Y159718D01*
X228952Y160024D01*
X229258Y160483D01*
X229366Y161024D01*
X229258Y161564D01*
X228952Y162023D01*
X228493Y162329D01*
X227953Y162437D01*
D02*
G37*
G36*
X209842D02*
X209302Y162329D01*
X208843Y162023D01*
X208537Y161564D01*
X208430Y161024D01*
X208537Y160483D01*
X208843Y160024D01*
X209302Y159718D01*
X209842Y159611D01*
X210383Y159718D01*
X210842Y160024D01*
X211148Y160483D01*
X211256Y161024D01*
X211148Y161564D01*
X210842Y162023D01*
X210383Y162329D01*
X209842Y162437D01*
D02*
G37*
G36*
X188189D02*
X187648Y162329D01*
X187190Y162023D01*
X186884Y161564D01*
X186776Y161024D01*
X186884Y160483D01*
X187190Y160024D01*
X187648Y159718D01*
X188189Y159611D01*
X188730Y159718D01*
X189188Y160024D01*
X189494Y160483D01*
X189602Y161024D01*
X189494Y161564D01*
X189188Y162023D01*
X188730Y162329D01*
X188189Y162437D01*
D02*
G37*
G36*
X259055Y164405D02*
X258514Y164297D01*
X258056Y163991D01*
X257750Y163533D01*
X257642Y162992D01*
X257679Y162806D01*
X257546Y162296D01*
X257123Y161972D01*
X256940Y161935D01*
X256481Y161629D01*
X256175Y161171D01*
X256067Y160630D01*
X256175Y160089D01*
X256481Y159631D01*
X256940Y159325D01*
X257480Y159217D01*
X258021Y159325D01*
X258479Y159631D01*
X258786Y160089D01*
X258893Y160630D01*
X258856Y160816D01*
X258989Y161326D01*
X259412Y161650D01*
X259596Y161687D01*
X260054Y161993D01*
X260361Y162451D01*
X260468Y162992D01*
X260361Y163533D01*
X260054Y163991D01*
X259596Y164297D01*
X259055Y164405D01*
D02*
G37*
G36*
X229134Y158500D02*
X228593Y158392D01*
X228135Y158086D01*
X227829Y157627D01*
X227721Y157087D01*
X227829Y156546D01*
X228135Y156088D01*
X228593Y155781D01*
X229134Y155674D01*
X229675Y155781D01*
X230133Y156088D01*
X230439Y156546D01*
X230547Y157087D01*
X230439Y157627D01*
X230133Y158086D01*
X229675Y158392D01*
X229134Y158500D01*
D02*
G37*
G36*
X234646Y158106D02*
X234105Y157998D01*
X233646Y157692D01*
X233340Y157234D01*
X233233Y156693D01*
X233340Y156152D01*
X233646Y155694D01*
X234105Y155387D01*
X234646Y155280D01*
X235186Y155387D01*
X235645Y155694D01*
X235951Y156152D01*
X236059Y156693D01*
X235951Y157234D01*
X235645Y157692D01*
X235186Y157998D01*
X234646Y158106D01*
D02*
G37*
G36*
X188189Y157318D02*
X187648Y157211D01*
X187190Y156905D01*
X186884Y156446D01*
X186776Y155905D01*
X186884Y155365D01*
X187190Y154906D01*
X187648Y154600D01*
X188189Y154492D01*
X188730Y154600D01*
X189188Y154906D01*
X189494Y155365D01*
X189602Y155905D01*
X189494Y156446D01*
X189188Y156905D01*
X188730Y157211D01*
X188189Y157318D01*
D02*
G37*
G36*
X240945Y149444D02*
X240404Y149337D01*
X239946Y149031D01*
X239639Y148572D01*
X239532Y148031D01*
X239639Y147491D01*
X239946Y147032D01*
X240404Y146726D01*
X240945Y146618D01*
X241486Y146726D01*
X241944Y147032D01*
X242250Y147491D01*
X242358Y148031D01*
X242250Y148572D01*
X241944Y149031D01*
X241486Y149337D01*
X240945Y149444D01*
D02*
G37*
G36*
X252303Y144836D02*
X251688Y144714D01*
X251167Y144366D01*
X250819Y143845D01*
X250697Y143231D01*
X250819Y142616D01*
X251167Y142095D01*
X251688Y141747D01*
X252303Y141625D01*
X252917Y141747D01*
X253438Y142095D01*
X253786Y142616D01*
X253908Y143231D01*
X253786Y143845D01*
X253438Y144366D01*
X252917Y144714D01*
X252303Y144836D01*
D02*
G37*
G36*
X267323Y144720D02*
X266782Y144613D01*
X266324Y144306D01*
X266017Y143848D01*
X265910Y143307D01*
X266017Y142766D01*
X266324Y142308D01*
X266782Y142002D01*
X267198Y141919D01*
X267487Y141502D01*
X267633Y141153D01*
X267592Y141092D01*
X267485Y140551D01*
X267592Y140010D01*
X267899Y139552D01*
X267954Y139515D01*
X268241Y138903D01*
X268116Y138531D01*
X267986Y138336D01*
X267878Y137795D01*
X267986Y137255D01*
X268292Y136796D01*
X268751Y136490D01*
X269291Y136382D01*
X269832Y136490D01*
X270290Y136796D01*
X270597Y137255D01*
X270704Y137795D01*
X270597Y138336D01*
X270290Y138794D01*
X270235Y138831D01*
X269948Y139444D01*
X270072Y139815D01*
X270203Y140010D01*
X270311Y140551D01*
X270203Y141092D01*
X269897Y141550D01*
X269438Y141857D01*
X269023Y141939D01*
X268734Y142356D01*
X268587Y142705D01*
X268628Y142766D01*
X268736Y143307D01*
X268628Y143848D01*
X268322Y144306D01*
X267863Y144613D01*
X267323Y144720D01*
D02*
G37*
G36*
X275003Y131318D02*
Y126972D01*
X279350D01*
X279220Y127955D01*
X278764Y129058D01*
X278037Y130005D01*
X277090Y130732D01*
X275987Y131189D01*
X275003Y131318D01*
D02*
G37*
G36*
X274603D02*
X273620Y131189D01*
X272517Y130732D01*
X271570Y130005D01*
X270843Y129058D01*
X270386Y127955D01*
X270256Y126972D01*
X274603D01*
Y131318D01*
D02*
G37*
G36*
X279350Y126572D02*
X275003D01*
Y122225D01*
X275987Y122354D01*
X277090Y122811D01*
X278037Y123538D01*
X278764Y124485D01*
X279220Y125588D01*
X279350Y126572D01*
D02*
G37*
G36*
X274603D02*
X270256D01*
X270386Y125588D01*
X270843Y124485D01*
X271570Y123538D01*
X272517Y122811D01*
X273620Y122354D01*
X274603Y122225D01*
Y126572D01*
D02*
G37*
G36*
X255118Y131345D02*
X253935Y131189D01*
X252832Y130732D01*
X251885Y130005D01*
X251158Y129058D01*
X250701Y127955D01*
X250545Y126772D01*
X250701Y125588D01*
X251158Y124485D01*
X251885Y123538D01*
X252832Y122811D01*
X253935Y122354D01*
X255118Y122199D01*
X256302Y122354D01*
X257405Y122811D01*
X258352Y123538D01*
X259078Y124485D01*
X259535Y125588D01*
X259691Y126772D01*
X259535Y127955D01*
X259078Y129058D01*
X258352Y130005D01*
X257405Y130732D01*
X256302Y131189D01*
X255118Y131345D01*
D02*
G37*
G36*
X235433D02*
X234249Y131189D01*
X233147Y130732D01*
X232200Y130005D01*
X231473Y129058D01*
X231016Y127955D01*
X230860Y126772D01*
X231016Y125588D01*
X231473Y124485D01*
X232200Y123538D01*
X233147Y122811D01*
X234249Y122354D01*
X235433Y122199D01*
X236617Y122354D01*
X237720Y122811D01*
X238667Y123538D01*
X239393Y124485D01*
X239850Y125588D01*
X240006Y126772D01*
X239850Y127955D01*
X239393Y129058D01*
X238667Y130005D01*
X237720Y130732D01*
X236617Y131189D01*
X235433Y131345D01*
D02*
G37*
G36*
X274803Y111660D02*
X273620Y111504D01*
X272517Y111047D01*
X271570Y110320D01*
X270843Y109373D01*
X270386Y108270D01*
X270230Y107087D01*
X270386Y105903D01*
X270843Y104800D01*
X271570Y103853D01*
X272517Y103126D01*
X273620Y102670D01*
X274803Y102514D01*
X275987Y102670D01*
X277090Y103126D01*
X278037Y103853D01*
X278764Y104800D01*
X279220Y105903D01*
X279376Y107087D01*
X279220Y108270D01*
X278764Y109373D01*
X278037Y110320D01*
X277090Y111047D01*
X275987Y111504D01*
X274803Y111660D01*
D02*
G37*
G36*
X255118D02*
X253935Y111504D01*
X252832Y111047D01*
X251885Y110320D01*
X251158Y109373D01*
X250701Y108270D01*
X250545Y107087D01*
X250701Y105903D01*
X251158Y104800D01*
X251885Y103853D01*
X252832Y103126D01*
X253935Y102670D01*
X255118Y102514D01*
X256302Y102670D01*
X257405Y103126D01*
X258352Y103853D01*
X259078Y104800D01*
X259535Y105903D01*
X259691Y107087D01*
X259535Y108270D01*
X259078Y109373D01*
X258352Y110320D01*
X257405Y111047D01*
X256302Y111504D01*
X255118Y111660D01*
D02*
G37*
G36*
X235433D02*
X234249Y111504D01*
X233147Y111047D01*
X232200Y110320D01*
X231473Y109373D01*
X231016Y108270D01*
X230860Y107087D01*
X231016Y105903D01*
X231473Y104800D01*
X232200Y103853D01*
X233147Y103126D01*
X234249Y102670D01*
X235433Y102514D01*
X236617Y102670D01*
X237720Y103126D01*
X238667Y103853D01*
X239393Y104800D01*
X239850Y105903D01*
X240006Y107087D01*
X239850Y108270D01*
X239393Y109373D01*
X238667Y110320D01*
X237720Y111047D01*
X236617Y111504D01*
X235433Y111660D01*
D02*
G37*
%LPD*%
D53*
X235669Y310236D02*
D03*
X235748Y299213D02*
D03*
D54*
X265669Y310236D02*
D03*
X265748Y299213D02*
D03*
D55*
X274803Y126772D02*
D03*
D57*
X166535Y152756D02*
D03*
Y184646D02*
D03*
X284252Y231102D02*
D03*
Y262598D02*
D03*
D58*
X267913Y153150D02*
D03*
X251083Y176969D02*
D03*
X244856Y142465D02*
D03*
X245413Y172253D02*
D03*
X257382Y195669D02*
D03*
X258268Y191535D02*
D03*
X253740Y233858D02*
D03*
Y237894D02*
D03*
X227264Y247736D02*
D03*
X227362Y250886D02*
D03*
X242618Y236024D02*
D03*
X231791Y238189D02*
D03*
X252387Y255023D02*
D03*
X252264Y259449D02*
D03*
X241732Y257087D02*
D03*
X264862Y205512D02*
D03*
X261122D02*
D03*
X257382D02*
D03*
X236319Y261238D02*
D03*
D59*
X248819Y162992D02*
D03*
X248819Y158268D02*
D03*
X244094Y162992D02*
D03*
Y158268D02*
D03*
M02*
