G04*
G04 #@! TF.GenerationSoftware,Altium Limited,Altium Designer,20.0.9 (164)*
G04*
G04 Layer_Color=8388736*
%FSLAX25Y25*%
%MOIN*%
G70*
G01*
G75*
%ADD28R,0.11024X0.05315*%
%ADD29R,0.03091X0.03091*%
G04:AMPARAMS|DCode=30|XSize=26.38mil|YSize=27.95mil|CornerRadius=8.07mil|HoleSize=0mil|Usage=FLASHONLY|Rotation=270.000|XOffset=0mil|YOffset=0mil|HoleType=Round|Shape=RoundedRectangle|*
%AMROUNDEDRECTD30*
21,1,0.02638,0.01181,0,0,270.0*
21,1,0.01024,0.02795,0,0,270.0*
1,1,0.01614,-0.00591,-0.00512*
1,1,0.01614,-0.00591,0.00512*
1,1,0.01614,0.00591,0.00512*
1,1,0.01614,0.00591,-0.00512*
%
%ADD30ROUNDEDRECTD30*%
%ADD31C,0.04528*%
G04:AMPARAMS|DCode=32|XSize=31.1mil|YSize=29.53mil|CornerRadius=8.86mil|HoleSize=0mil|Usage=FLASHONLY|Rotation=90.000|XOffset=0mil|YOffset=0mil|HoleType=Round|Shape=RoundedRectangle|*
%AMROUNDEDRECTD32*
21,1,0.03110,0.01181,0,0,90.0*
21,1,0.01339,0.02953,0,0,90.0*
1,1,0.01772,0.00591,0.00669*
1,1,0.01772,0.00591,-0.00669*
1,1,0.01772,-0.00591,-0.00669*
1,1,0.01772,-0.00591,0.00669*
%
%ADD32ROUNDEDRECTD32*%
G04:AMPARAMS|DCode=33|XSize=26.38mil|YSize=27.95mil|CornerRadius=8.07mil|HoleSize=0mil|Usage=FLASHONLY|Rotation=0.000|XOffset=0mil|YOffset=0mil|HoleType=Round|Shape=RoundedRectangle|*
%AMROUNDEDRECTD33*
21,1,0.02638,0.01181,0,0,0.0*
21,1,0.01024,0.02795,0,0,0.0*
1,1,0.01614,0.00512,-0.00591*
1,1,0.01614,-0.00512,-0.00591*
1,1,0.01614,-0.00512,0.00591*
1,1,0.01614,0.00512,0.00591*
%
%ADD33ROUNDEDRECTD33*%
%ADD34R,0.03425X0.04134*%
%ADD35R,0.01260X0.02953*%
%ADD36R,0.07284X0.04528*%
%ADD37R,0.01772X0.03347*%
%ADD38R,0.02756X0.03740*%
%ADD39O,0.03543X0.01378*%
%ADD40O,0.01378X0.03543*%
%ADD41R,0.10433X0.10433*%
%ADD42R,0.03347X0.03937*%
%ADD43C,0.07480*%
%ADD44C,0.06496*%
%ADD45R,0.06496X0.06496*%
%ADD46C,0.08858*%
%ADD47C,0.18012*%
%ADD48C,0.02559*%
%ADD49C,0.02362*%
G36*
X297709Y206142D02*
X297720D01*
X297732Y206140D01*
X297743Y206139D01*
X297755Y206136D01*
X297766Y206135D01*
X297777Y206131D01*
X297789Y206128D01*
X297799Y206124D01*
X297811Y206120D01*
X298729Y205739D01*
X298740Y205734D01*
X298750Y205730D01*
X298760Y205724D01*
X298771Y205718D01*
X298780Y205712D01*
X298790Y205705D01*
X298799Y205698D01*
X298808Y205691D01*
X298816Y205683D01*
X298825Y205675D01*
X299529Y204972D01*
X299536Y204963D01*
X299545Y204955D01*
X299551Y204946D01*
X299559Y204937D01*
X299565Y204927D01*
X299572Y204917D01*
X299577Y204907D01*
X299583Y204897D01*
X299588Y204886D01*
X299593Y204876D01*
X299974Y203957D01*
X299977Y203946D01*
X299981Y203935D01*
X299984Y203924D01*
X299988Y203913D01*
X299990Y203901D01*
X299992Y203890D01*
X299993Y203878D01*
X299995Y203867D01*
Y203855D01*
X299996Y203844D01*
Y203346D01*
Y202849D01*
X299995Y202837D01*
Y202826D01*
X299993Y202815D01*
X299992Y202803D01*
X299990Y202792D01*
X299988Y202780D01*
X299984Y202769D01*
X299981Y202758D01*
X299977Y202747D01*
X299974Y202736D01*
X299593Y201817D01*
X299588Y201807D01*
X299583Y201796D01*
X299577Y201786D01*
X299572Y201776D01*
X299565Y201766D01*
X299559Y201756D01*
X299551Y201747D01*
X299545Y201738D01*
X299536Y201730D01*
X299529Y201721D01*
X298825Y201018D01*
X298816Y201010D01*
X298808Y201002D01*
X298799Y200995D01*
X298790Y200987D01*
X298780Y200981D01*
X298771Y200974D01*
X298760Y200969D01*
X298750Y200963D01*
X298740Y200959D01*
X298729Y200953D01*
X297811Y200573D01*
X297799Y200569D01*
X297789Y200565D01*
X297777Y200562D01*
X297766Y200558D01*
X297755Y200557D01*
X297743Y200554D01*
X297732Y200553D01*
X297720Y200551D01*
X297709D01*
X297697Y200550D01*
X297200D01*
X297153Y200554D01*
X297108Y200565D01*
X297065Y200583D01*
X297026Y200607D01*
X296990Y200637D01*
X296960Y200672D01*
X296949Y200691D01*
X296937Y200672D01*
X296907Y200637D01*
X296872Y200607D01*
X296832Y200583D01*
X296789Y200565D01*
X296744Y200554D01*
X296698Y200550D01*
X296200D01*
X296189Y200551D01*
X296177D01*
X296166Y200553D01*
X296154Y200554D01*
X296143Y200557D01*
X296131Y200558D01*
X296120Y200562D01*
X296109Y200565D01*
X296098Y200569D01*
X296087Y200573D01*
X295168Y200953D01*
X295158Y200959D01*
X295147Y200963D01*
X295137Y200969D01*
X295127Y200974D01*
X295117Y200981D01*
X295108Y200987D01*
X295099Y200995D01*
X295089Y201002D01*
X295081Y201010D01*
X295072Y201018D01*
X294369Y201721D01*
X294361Y201730D01*
X294353Y201738D01*
X294346Y201747D01*
X294339Y201756D01*
X294333Y201766D01*
X294326Y201776D01*
X294321Y201786D01*
X294315Y201796D01*
X294310Y201807D01*
X294305Y201817D01*
X293924Y202736D01*
X293921Y202747D01*
X293916Y202758D01*
X293913Y202769D01*
X293910Y202780D01*
X293908Y202792D01*
X293905Y202803D01*
X293904Y202814D01*
X293902Y202826D01*
Y202838D01*
X293902Y202849D01*
Y203346D01*
Y203844D01*
X293902Y203855D01*
Y203867D01*
X293904Y203878D01*
X293905Y203890D01*
X293908Y203901D01*
X293910Y203913D01*
X293913Y203924D01*
X293916Y203935D01*
X293921Y203946D01*
X293924Y203957D01*
X294305Y204876D01*
X294310Y204886D01*
X294315Y204897D01*
X294321Y204907D01*
X294326Y204917D01*
X294333Y204927D01*
X294339Y204937D01*
X294346Y204946D01*
X294353Y204955D01*
X294361Y204963D01*
X294369Y204972D01*
X295072Y205675D01*
X295081Y205683D01*
X295089Y205691D01*
X295099Y205698D01*
X295108Y205705D01*
X295117Y205712D01*
X295127Y205718D01*
X295137Y205724D01*
X295147Y205730D01*
X295158Y205734D01*
X295168Y205739D01*
X296087Y206120D01*
X296098Y206124D01*
X296109Y206128D01*
X296120Y206131D01*
X296131Y206135D01*
X296143Y206136D01*
X296154Y206139D01*
X296166Y206140D01*
X296177Y206142D01*
X296189D01*
X296200Y206143D01*
X296698D01*
X296744Y206139D01*
X296789Y206128D01*
X296832Y206110D01*
X296872Y206086D01*
X296907Y206056D01*
X296937Y206021D01*
X296949Y206002D01*
X296960Y206021D01*
X296990Y206056D01*
X297026Y206086D01*
X297065Y206110D01*
X297108Y206128D01*
X297153Y206139D01*
X297200Y206143D01*
X297697D01*
X297709Y206142D01*
D02*
G37*
D28*
X228740Y260531D02*
D03*
Y270768D02*
D03*
D29*
X294949Y203346D02*
D03*
X298949D02*
D03*
D30*
X271588Y244003D02*
D03*
Y247468D02*
D03*
X274606Y243996D02*
D03*
Y247461D02*
D03*
X253051Y197008D02*
D03*
Y193543D02*
D03*
X241240D02*
D03*
Y197008D02*
D03*
X250000D02*
D03*
Y193543D02*
D03*
D31*
X260236Y215748D02*
D03*
D32*
X217421Y270787D02*
D03*
Y267008D02*
D03*
X202953Y246043D02*
D03*
Y249823D02*
D03*
X217421Y262717D02*
D03*
Y258937D02*
D03*
X244783Y193484D02*
D03*
Y197264D02*
D03*
D33*
X219252Y245472D02*
D03*
X215787D02*
D03*
X198071Y258465D02*
D03*
X201535D02*
D03*
X219252Y241535D02*
D03*
X215787D02*
D03*
X253780Y261417D02*
D03*
X257244D02*
D03*
X253583Y238091D02*
D03*
X257047D02*
D03*
X198071Y255217D02*
D03*
X201535D02*
D03*
X257618Y209744D02*
D03*
X261083Y209744D02*
D03*
X228784Y213649D02*
D03*
X232248D02*
D03*
D34*
X252756Y242224D02*
D03*
X257480D02*
D03*
D35*
X212106Y249508D02*
D03*
X210728Y249508D02*
D03*
X209350Y249508D02*
D03*
X212106Y246358D02*
D03*
X210728Y246358D02*
D03*
X209350D02*
D03*
D36*
X209842Y264665D02*
D03*
D37*
X212795Y260531D02*
D03*
X210827D02*
D03*
X208858D02*
D03*
X206890D02*
D03*
Y268799D02*
D03*
X208858D02*
D03*
X210827D02*
D03*
X212795D02*
D03*
D38*
X257480Y256988D02*
D03*
X253740Y256988D02*
D03*
X250000Y256988D02*
D03*
X257480Y247146D02*
D03*
X250000Y247146D02*
D03*
D39*
X252756Y206594D02*
D03*
Y208366D02*
D03*
Y210138D02*
D03*
X252756Y211910D02*
D03*
X252756Y213681D02*
D03*
Y215453D02*
D03*
Y217224D02*
D03*
X236811D02*
D03*
Y215453D02*
D03*
Y213681D02*
D03*
X236811Y211910D02*
D03*
X236811Y210138D02*
D03*
Y208366D02*
D03*
Y206594D02*
D03*
D40*
X250098Y219882D02*
D03*
X248327D02*
D03*
X246555D02*
D03*
X244783Y219882D02*
D03*
X243012Y219882D02*
D03*
X241240D02*
D03*
X239469D02*
D03*
Y203937D02*
D03*
X241240D02*
D03*
X243012D02*
D03*
X244783Y203937D02*
D03*
X246555Y203937D02*
D03*
X248327D02*
D03*
X250098D02*
D03*
D41*
X244783Y211910D02*
D03*
D42*
X232252Y209265D02*
D03*
X227527D02*
D03*
D43*
X248524Y276870D02*
D03*
X188189Y276969D02*
D03*
D44*
X220728Y300197D02*
D03*
X210728D02*
D03*
X262126D02*
D03*
X252126D02*
D03*
X242126D02*
D03*
X262126Y288779D02*
D03*
X252126D02*
D03*
X242126D02*
D03*
D45*
X200728Y300197D02*
D03*
X272126D02*
D03*
Y288779D02*
D03*
D46*
X274803Y107087D02*
D03*
X255118D02*
D03*
X235433D02*
D03*
X274803Y126772D02*
D03*
X255118D02*
D03*
X235433D02*
D03*
D47*
X282677Y192913D02*
D03*
X209842D02*
D03*
D48*
X274424Y277151D02*
D03*
X274311Y256988D02*
D03*
X287572Y230118D02*
D03*
Y222638D02*
D03*
Y212647D02*
D03*
Y217717D02*
D03*
X290592Y217702D02*
D03*
X302400Y222569D02*
D03*
X302264Y237697D02*
D03*
X267913Y221358D02*
D03*
X242815Y223130D02*
D03*
X242235Y228435D02*
D03*
X246865D02*
D03*
X239370Y224213D02*
D03*
X236713Y222342D02*
D03*
X256988Y197835D02*
D03*
X232283Y217126D02*
D03*
X288090Y234842D02*
D03*
X274667Y239446D02*
D03*
X271719Y241532D02*
D03*
X290256Y272244D02*
D03*
X303051Y277264D02*
D03*
X292008Y203299D02*
D03*
X301673Y203445D02*
D03*
X290256Y267224D02*
D03*
Y227659D02*
D03*
X303051Y262303D02*
D03*
X213779Y255315D02*
D03*
X244227Y200275D02*
D03*
X247215Y200295D02*
D03*
X241240Y190847D02*
D03*
X244783D02*
D03*
X261122Y207283D02*
D03*
X226619Y213510D02*
D03*
X256406Y212953D02*
D03*
X257579Y207283D02*
D03*
X227384Y206063D02*
D03*
X220499Y259143D02*
D03*
X249902Y242126D02*
D03*
X250787Y237992D02*
D03*
X260925Y236811D02*
D03*
Y239567D02*
D03*
X271588Y250263D02*
D03*
X274606Y250354D02*
D03*
X231102Y264665D02*
D03*
X225886D02*
D03*
X199705Y249902D02*
D03*
X221850Y241437D02*
D03*
Y245472D02*
D03*
X195374Y255315D02*
D03*
X195472Y258465D02*
D03*
X210728Y243602D02*
D03*
X206890Y257382D02*
D03*
X207087Y251279D02*
D03*
X199902Y245768D02*
D03*
X220498Y262601D02*
D03*
X220374Y267028D02*
D03*
X209842Y264665D02*
D03*
X257382Y251969D02*
D03*
X253642D02*
D03*
X249902D02*
D03*
X204429Y268817D02*
D03*
D49*
X197343Y295472D02*
D03*
X204331Y291437D02*
D03*
X206693Y293012D02*
D03*
X208653Y294972D02*
D03*
X217010Y292994D02*
D03*
X215050Y291035D02*
D03*
X213090Y289075D02*
D03*
X211154Y286713D02*
D03*
X208382D02*
D03*
X205610D02*
D03*
X202689D02*
D03*
X199917D02*
D03*
X197146D02*
D03*
X201311Y291437D02*
D03*
X198539D02*
D03*
X195768D02*
D03*
X247638Y110630D02*
D03*
X226870Y106201D02*
D03*
X244980Y111516D02*
D03*
X242028D02*
D03*
X192973Y291424D02*
D03*
X190201D02*
D03*
X187429D02*
D03*
X184658D02*
D03*
X181886D02*
D03*
X179144Y291018D02*
D03*
X177594Y288721D02*
D03*
X177572Y285949D02*
D03*
Y283177D02*
D03*
Y280406D02*
D03*
Y277634D02*
D03*
Y274863D02*
D03*
Y272091D02*
D03*
Y269319D02*
D03*
Y266548D02*
D03*
Y263776D02*
D03*
Y261004D02*
D03*
Y258233D02*
D03*
Y255461D02*
D03*
Y252689D02*
D03*
Y249918D02*
D03*
Y247146D02*
D03*
Y244374D02*
D03*
Y241603D02*
D03*
Y238831D02*
D03*
Y236059D02*
D03*
Y233288D02*
D03*
Y230516D02*
D03*
Y227745D02*
D03*
Y224973D02*
D03*
Y222201D02*
D03*
Y219430D02*
D03*
Y216658D02*
D03*
Y213886D02*
D03*
Y211115D02*
D03*
Y208343D02*
D03*
Y205571D02*
D03*
Y202800D02*
D03*
Y200028D02*
D03*
Y197256D02*
D03*
Y194485D02*
D03*
Y191713D02*
D03*
Y188941D02*
D03*
Y186170D02*
D03*
Y183398D02*
D03*
Y180626D02*
D03*
Y177855D02*
D03*
Y175083D02*
D03*
Y172311D02*
D03*
Y169540D02*
D03*
Y166768D02*
D03*
Y163997D02*
D03*
Y161225D02*
D03*
Y158453D02*
D03*
Y155682D02*
D03*
Y152910D02*
D03*
Y150138D02*
D03*
Y147367D02*
D03*
Y144595D02*
D03*
Y141823D02*
D03*
Y139052D02*
D03*
Y136280D02*
D03*
Y133508D02*
D03*
X178829Y131038D02*
D03*
X180789Y129078D02*
D03*
X182749Y127118D02*
D03*
X184709Y125159D02*
D03*
X186669Y123199D02*
D03*
X188628Y121239D02*
D03*
X190588Y119279D02*
D03*
X192548Y117319D02*
D03*
X195145Y116352D02*
D03*
X197917D02*
D03*
X200689D02*
D03*
X203460D02*
D03*
X206232D02*
D03*
X209004D02*
D03*
X211775D02*
D03*
X214547D02*
D03*
X217319D02*
D03*
X220090D02*
D03*
X222862D02*
D03*
X225634D02*
D03*
X228405D02*
D03*
X231177D02*
D03*
X233948D02*
D03*
X236720D02*
D03*
X239492D02*
D03*
X242264D02*
D03*
X245035D02*
D03*
X247807D02*
D03*
X250578D02*
D03*
X253350D02*
D03*
X256122D02*
D03*
X258893D02*
D03*
X261665D02*
D03*
X263881Y114687D02*
D03*
X265841Y112727D02*
D03*
X269211Y116001D02*
D03*
X267251Y117961D02*
D03*
X265291Y119920D02*
D03*
X262760Y121050D02*
D03*
X259988D02*
D03*
X257217D02*
D03*
X254445D02*
D03*
X251673D02*
D03*
X248902D02*
D03*
X246130D02*
D03*
X243358D02*
D03*
X240587D02*
D03*
X237815D02*
D03*
X235044D02*
D03*
X232272D02*
D03*
X229500D02*
D03*
X226729D02*
D03*
X223957D02*
D03*
X221185D02*
D03*
X218414D02*
D03*
X215642D02*
D03*
X212870D02*
D03*
X210099D02*
D03*
X207327D02*
D03*
X204555D02*
D03*
X201784D02*
D03*
X199012D02*
D03*
X196240D02*
D03*
X193930Y122581D02*
D03*
X191970Y124541D02*
D03*
X190010Y126500D02*
D03*
X188050Y128460D02*
D03*
X186091Y130420D02*
D03*
X184131Y132380D02*
D03*
X182270Y134434D02*
D03*
Y137206D02*
D03*
Y139978D02*
D03*
Y142749D02*
D03*
Y145521D02*
D03*
Y148293D02*
D03*
Y151064D02*
D03*
Y153836D02*
D03*
Y156607D02*
D03*
Y159379D02*
D03*
Y162151D02*
D03*
Y164922D02*
D03*
Y167694D02*
D03*
Y170466D02*
D03*
Y173237D02*
D03*
Y176009D02*
D03*
Y178781D02*
D03*
Y181552D02*
D03*
Y184324D02*
D03*
Y187096D02*
D03*
Y189867D02*
D03*
Y192639D02*
D03*
Y195411D02*
D03*
Y198182D02*
D03*
Y200954D02*
D03*
Y203726D02*
D03*
Y206497D02*
D03*
Y209269D02*
D03*
Y212040D02*
D03*
Y214812D02*
D03*
Y217584D02*
D03*
Y220356D02*
D03*
Y223127D02*
D03*
Y225899D02*
D03*
Y228670D02*
D03*
Y231442D02*
D03*
Y234214D02*
D03*
Y236985D02*
D03*
Y239757D02*
D03*
Y242529D02*
D03*
Y245300D02*
D03*
Y248072D02*
D03*
Y250844D02*
D03*
Y253615D02*
D03*
Y256387D02*
D03*
Y259159D02*
D03*
Y261930D02*
D03*
Y264702D02*
D03*
Y267474D02*
D03*
Y270245D02*
D03*
Y273017D02*
D03*
Y275788D02*
D03*
Y278560D02*
D03*
Y281332D02*
D03*
Y284103D02*
D03*
X183167Y286726D02*
D03*
X185939D02*
D03*
X188711D02*
D03*
X191482D02*
D03*
X194254D02*
D03*
X193576Y300085D02*
D03*
X190805D02*
D03*
X188033D02*
D03*
X185261D02*
D03*
X182490D02*
D03*
X179718D02*
D03*
X176946D02*
D03*
X174178Y299941D02*
D03*
X172032Y298188D02*
D03*
X170072Y296228D02*
D03*
X168558Y293906D02*
D03*
X168517Y291135D02*
D03*
Y288363D02*
D03*
Y285592D02*
D03*
Y282820D02*
D03*
Y280048D02*
D03*
Y277277D02*
D03*
Y274505D02*
D03*
Y271733D02*
D03*
Y268962D02*
D03*
Y266190D02*
D03*
Y263419D02*
D03*
Y260647D02*
D03*
Y257875D02*
D03*
Y255104D02*
D03*
Y252332D02*
D03*
Y249560D02*
D03*
Y246789D02*
D03*
Y244017D02*
D03*
Y241245D02*
D03*
Y238474D02*
D03*
Y235702D02*
D03*
Y232930D02*
D03*
Y230159D02*
D03*
Y227387D02*
D03*
Y224615D02*
D03*
Y221844D02*
D03*
Y219072D02*
D03*
Y216301D02*
D03*
Y213529D02*
D03*
Y210757D02*
D03*
Y207985D02*
D03*
Y205214D02*
D03*
Y202442D02*
D03*
Y199671D02*
D03*
Y196899D02*
D03*
Y194127D02*
D03*
Y191356D02*
D03*
Y188584D02*
D03*
Y185812D02*
D03*
Y183041D02*
D03*
Y180269D02*
D03*
Y177497D02*
D03*
Y174726D02*
D03*
Y171954D02*
D03*
Y169182D02*
D03*
Y166411D02*
D03*
Y163639D02*
D03*
Y160868D02*
D03*
Y158096D02*
D03*
Y155324D02*
D03*
Y152552D02*
D03*
Y149781D02*
D03*
Y147009D02*
D03*
Y144238D02*
D03*
Y141466D02*
D03*
Y138694D02*
D03*
Y135923D02*
D03*
Y133151D02*
D03*
Y130379D02*
D03*
X168900Y127634D02*
D03*
X170783Y125600D02*
D03*
X172743Y123640D02*
D03*
X174703Y121680D02*
D03*
X176662Y119721D02*
D03*
X178622Y117761D02*
D03*
X180582Y115801D02*
D03*
X182542Y113841D02*
D03*
X184502Y111881D02*
D03*
X186462Y109921D02*
D03*
X188421Y107961D02*
D03*
X190649Y106312D02*
D03*
X193419Y106214D02*
D03*
X196191D02*
D03*
X198962D02*
D03*
X201734D02*
D03*
X204505D02*
D03*
X207277D02*
D03*
X210049D02*
D03*
X212820D02*
D03*
X215592D02*
D03*
X218364D02*
D03*
X221135D02*
D03*
X223907D02*
D03*
X227313Y110912D02*
D03*
X224541D02*
D03*
X221769D02*
D03*
X218998D02*
D03*
X216226D02*
D03*
X213455D02*
D03*
X210683D02*
D03*
X207911D02*
D03*
X205139D02*
D03*
X202368D02*
D03*
X199596D02*
D03*
X196825D02*
D03*
X194053D02*
D03*
X191380Y111646D02*
D03*
X189420Y113606D02*
D03*
X187461Y115566D02*
D03*
X185501Y117526D02*
D03*
X183541Y119486D02*
D03*
X181581Y121446D02*
D03*
X179621Y123405D02*
D03*
X177661Y125365D02*
D03*
X175701Y127325D02*
D03*
X173742Y129285D02*
D03*
X173215Y132006D02*
D03*
Y134778D02*
D03*
Y137549D02*
D03*
Y140321D02*
D03*
Y143093D02*
D03*
Y145864D02*
D03*
Y148636D02*
D03*
Y151408D02*
D03*
Y154179D02*
D03*
Y156951D02*
D03*
Y159723D02*
D03*
Y162494D02*
D03*
Y165266D02*
D03*
Y168038D02*
D03*
Y170809D02*
D03*
Y173581D02*
D03*
Y176353D02*
D03*
Y179124D02*
D03*
Y181896D02*
D03*
Y184668D02*
D03*
Y187439D02*
D03*
Y190211D02*
D03*
Y192982D02*
D03*
Y195754D02*
D03*
Y198526D02*
D03*
Y201297D02*
D03*
Y204069D02*
D03*
Y206841D02*
D03*
Y209612D02*
D03*
Y212384D02*
D03*
Y215156D02*
D03*
Y217927D02*
D03*
Y220699D02*
D03*
Y223471D02*
D03*
Y226242D02*
D03*
Y229014D02*
D03*
Y231785D02*
D03*
Y234557D02*
D03*
Y237329D02*
D03*
Y240101D02*
D03*
Y242872D02*
D03*
Y245644D02*
D03*
Y248415D02*
D03*
Y251187D02*
D03*
Y253959D02*
D03*
Y256730D02*
D03*
Y259502D02*
D03*
Y262274D02*
D03*
Y265045D02*
D03*
Y267817D02*
D03*
Y270589D02*
D03*
Y273360D02*
D03*
Y276132D02*
D03*
Y278904D02*
D03*
Y281675D02*
D03*
Y284447D02*
D03*
Y287218D02*
D03*
Y289990D02*
D03*
X173249Y292762D02*
D03*
X175209Y294722D02*
D03*
X177899Y295387D02*
D03*
X180671D02*
D03*
X183442D02*
D03*
X186214D02*
D03*
X188986D02*
D03*
X191757D02*
D03*
X194529D02*
D03*
M02*
