G04*
G04 #@! TF.GenerationSoftware,Altium Limited,Altium Designer,20.0.9 (164)*
G04*
G04 Layer_Color=8388736*
%FSLAX25Y25*%
%MOIN*%
G70*
G01*
G75*
%ADD28R,0.03091X0.03091*%
G04:AMPARAMS|DCode=29|XSize=26.38mil|YSize=27.95mil|CornerRadius=8.07mil|HoleSize=0mil|Usage=FLASHONLY|Rotation=0.000|XOffset=0mil|YOffset=0mil|HoleType=Round|Shape=RoundedRectangle|*
%AMROUNDEDRECTD29*
21,1,0.02638,0.01181,0,0,0.0*
21,1,0.01024,0.02795,0,0,0.0*
1,1,0.01614,0.00512,-0.00591*
1,1,0.01614,-0.00512,-0.00591*
1,1,0.01614,-0.00512,0.00591*
1,1,0.01614,0.00512,0.00591*
%
%ADD29ROUNDEDRECTD29*%
%ADD30C,0.04528*%
G04:AMPARAMS|DCode=31|XSize=31.1mil|YSize=29.53mil|CornerRadius=8.86mil|HoleSize=0mil|Usage=FLASHONLY|Rotation=90.000|XOffset=0mil|YOffset=0mil|HoleType=Round|Shape=RoundedRectangle|*
%AMROUNDEDRECTD31*
21,1,0.03110,0.01181,0,0,90.0*
21,1,0.01339,0.02953,0,0,90.0*
1,1,0.01772,0.00591,0.00669*
1,1,0.01772,0.00591,-0.00669*
1,1,0.01772,-0.00591,-0.00669*
1,1,0.01772,-0.00591,0.00669*
%
%ADD31ROUNDEDRECTD31*%
%ADD32R,0.03425X0.04134*%
%ADD33R,0.01260X0.02953*%
%ADD34R,0.07284X0.04528*%
%ADD35R,0.01772X0.03347*%
%ADD36R,0.02756X0.03740*%
G04:AMPARAMS|DCode=37|XSize=26.38mil|YSize=27.95mil|CornerRadius=8.07mil|HoleSize=0mil|Usage=FLASHONLY|Rotation=270.000|XOffset=0mil|YOffset=0mil|HoleType=Round|Shape=RoundedRectangle|*
%AMROUNDEDRECTD37*
21,1,0.02638,0.01181,0,0,270.0*
21,1,0.01024,0.02795,0,0,270.0*
1,1,0.01614,-0.00591,-0.00512*
1,1,0.01614,-0.00591,0.00512*
1,1,0.01614,0.00591,0.00512*
1,1,0.01614,0.00591,-0.00512*
%
%ADD37ROUNDEDRECTD37*%
G04:AMPARAMS|DCode=38|XSize=31.1mil|YSize=29.53mil|CornerRadius=8.86mil|HoleSize=0mil|Usage=FLASHONLY|Rotation=0.000|XOffset=0mil|YOffset=0mil|HoleType=Round|Shape=RoundedRectangle|*
%AMROUNDEDRECTD38*
21,1,0.03110,0.01181,0,0,0.0*
21,1,0.01339,0.02953,0,0,0.0*
1,1,0.01772,0.00669,-0.00591*
1,1,0.01772,-0.00669,-0.00591*
1,1,0.01772,-0.00669,0.00591*
1,1,0.01772,0.00669,0.00591*
%
%ADD38ROUNDEDRECTD38*%
%ADD39O,0.01378X0.03543*%
%ADD40O,0.03543X0.01378*%
%ADD41R,0.10433X0.10433*%
%ADD42R,0.03937X0.03347*%
%ADD43C,0.07480*%
%ADD44C,0.06496*%
%ADD45R,0.06496X0.06496*%
%ADD46C,0.08858*%
%ADD47C,0.18012*%
%ADD48C,0.02362*%
%ADD49C,0.02559*%
G36*
X193422Y161708D02*
X193434D01*
X193445Y161706D01*
X193457Y161705D01*
X193468Y161702D01*
X193480Y161700D01*
X193491Y161697D01*
X193502Y161694D01*
X193513Y161690D01*
X193524Y161686D01*
X194443Y161305D01*
X194453Y161300D01*
X194464Y161296D01*
X194474Y161290D01*
X194484Y161284D01*
X194494Y161277D01*
X194504Y161272D01*
X194512Y161264D01*
X194522Y161257D01*
X194530Y161249D01*
X194539Y161241D01*
X195242Y160538D01*
X195250Y160529D01*
X195258Y160521D01*
X195265Y160512D01*
X195272Y160503D01*
X195279Y160493D01*
X195285Y160483D01*
X195291Y160473D01*
X195297Y160463D01*
X195301Y160452D01*
X195306Y160442D01*
X195687Y159523D01*
X195691Y159512D01*
X195695Y159501D01*
X195698Y159490D01*
X195701Y159479D01*
X195703Y159467D01*
X195706Y159456D01*
X195707Y159444D01*
X195709Y159433D01*
Y159421D01*
X195710Y159410D01*
Y158912D01*
X195706Y158866D01*
X195695Y158821D01*
X195677Y158778D01*
X195653Y158738D01*
X195623Y158703D01*
X195588Y158673D01*
X195569Y158661D01*
X195588Y158650D01*
X195623Y158620D01*
X195653Y158584D01*
X195677Y158545D01*
X195695Y158502D01*
X195706Y158457D01*
X195710Y158410D01*
Y157913D01*
X195709Y157902D01*
Y157890D01*
X195707Y157878D01*
X195706Y157867D01*
X195703Y157855D01*
X195701Y157844D01*
X195698Y157833D01*
X195695Y157822D01*
X195691Y157811D01*
X195687Y157800D01*
X195306Y156881D01*
X195301Y156871D01*
X195297Y156860D01*
X195291Y156850D01*
X195285Y156840D01*
X195279Y156830D01*
X195272Y156820D01*
X195265Y156811D01*
X195258Y156802D01*
X195250Y156794D01*
X195242Y156785D01*
X194539Y156082D01*
X194530Y156074D01*
X194522Y156066D01*
X194512Y156059D01*
X194504Y156051D01*
X194494Y156045D01*
X194484Y156038D01*
X194474Y156033D01*
X194464Y156027D01*
X194453Y156023D01*
X194443Y156017D01*
X193524Y155637D01*
X193513Y155633D01*
X193502Y155629D01*
X193491Y155626D01*
X193480Y155622D01*
X193468Y155621D01*
X193457Y155618D01*
X193445Y155617D01*
X193434Y155615D01*
X193422D01*
X193411Y155614D01*
X192416D01*
X192404Y155615D01*
X192393D01*
X192381Y155617D01*
X192370Y155618D01*
X192358Y155621D01*
X192347Y155622D01*
X192336Y155626D01*
X192325Y155629D01*
X192314Y155633D01*
X192303Y155637D01*
X191384Y156017D01*
X191374Y156023D01*
X191363Y156027D01*
X191353Y156033D01*
X191342Y156038D01*
X191333Y156045D01*
X191323Y156051D01*
X191314Y156059D01*
X191305Y156066D01*
X191297Y156074D01*
X191288Y156082D01*
X190585Y156785D01*
X190577Y156794D01*
X190569Y156802D01*
X190562Y156811D01*
X190554Y156820D01*
X190548Y156830D01*
X190542Y156840D01*
X190536Y156850D01*
X190530Y156860D01*
X190526Y156871D01*
X190520Y156881D01*
X190140Y157800D01*
X190136Y157811D01*
X190132Y157822D01*
X190129Y157833D01*
X190125Y157844D01*
X190124Y157855D01*
X190121Y157867D01*
X190120Y157878D01*
X190118Y157890D01*
Y157902D01*
X190117Y157913D01*
Y158410D01*
X190121Y158457D01*
X190132Y158502D01*
X190149Y158545D01*
X190174Y158584D01*
X190204Y158620D01*
X190239Y158650D01*
X190258Y158661D01*
X190239Y158673D01*
X190204Y158703D01*
X190174Y158738D01*
X190149Y158778D01*
X190132Y158821D01*
X190121Y158866D01*
X190117Y158912D01*
Y159410D01*
X190118Y159421D01*
Y159433D01*
X190120Y159444D01*
X190121Y159456D01*
X190124Y159467D01*
X190125Y159479D01*
X190129Y159490D01*
X190132Y159501D01*
X190136Y159512D01*
X190140Y159523D01*
X190520Y160442D01*
X190526Y160452D01*
X190530Y160463D01*
X190536Y160473D01*
X190542Y160483D01*
X190548Y160493D01*
X190554Y160503D01*
X190562Y160512D01*
X190569Y160521D01*
X190577Y160529D01*
X190585Y160538D01*
X191288Y161241D01*
X191297Y161249D01*
X191305Y161257D01*
X191314Y161264D01*
X191323Y161272D01*
X191333Y161277D01*
X191342Y161284D01*
X191353Y161290D01*
X191363Y161296D01*
X191374Y161300D01*
X191384Y161305D01*
X192303Y161686D01*
X192314Y161690D01*
X192325Y161694D01*
X192336Y161697D01*
X192347Y161700D01*
X192358Y161702D01*
X192370Y161705D01*
X192381Y161706D01*
X192393Y161708D01*
X192404D01*
X192416Y161709D01*
X193411D01*
X193422Y161708D01*
D02*
G37*
D28*
X192913Y160661D02*
D03*
Y156661D02*
D03*
D29*
X270630Y181496D02*
D03*
X267165D02*
D03*
X251142Y237894D02*
D03*
X247677D02*
D03*
X229961Y250886D02*
D03*
X233425D02*
D03*
X251142Y233957D02*
D03*
X247677D02*
D03*
X261260Y214961D02*
D03*
X264724D02*
D03*
X261063Y191634D02*
D03*
X264528D02*
D03*
X270571Y178150D02*
D03*
X267106D02*
D03*
X229961Y247638D02*
D03*
X233425D02*
D03*
X261358Y168898D02*
D03*
X264823D02*
D03*
X261358Y165847D02*
D03*
X264823D02*
D03*
D30*
X242618Y176083D02*
D03*
D31*
X249311Y263209D02*
D03*
Y259429D02*
D03*
X234842Y238465D02*
D03*
Y242244D02*
D03*
X249311Y255138D02*
D03*
Y251358D02*
D03*
D32*
X260236Y195768D02*
D03*
X264961D02*
D03*
D33*
X243996Y241929D02*
D03*
X242618Y241929D02*
D03*
X241240Y241929D02*
D03*
X243996Y238779D02*
D03*
X242618Y238780D02*
D03*
X241240D02*
D03*
D34*
X241732Y257087D02*
D03*
D35*
X244685Y252953D02*
D03*
X242717D02*
D03*
X240748D02*
D03*
X238779D02*
D03*
Y261221D02*
D03*
X240748D02*
D03*
X242717D02*
D03*
X244685D02*
D03*
D36*
X264961Y210531D02*
D03*
X261221Y210531D02*
D03*
X257480Y210531D02*
D03*
X264961Y200689D02*
D03*
X257480Y200689D02*
D03*
D37*
X248622Y173465D02*
D03*
X248622Y176929D02*
D03*
X261417Y145905D02*
D03*
Y149370D02*
D03*
X244717Y144630D02*
D03*
Y148095D02*
D03*
D38*
X265276Y153150D02*
D03*
X261496D02*
D03*
D39*
X251772Y168602D02*
D03*
X250000D02*
D03*
X248228Y168602D02*
D03*
X246457Y168602D02*
D03*
X244685Y168602D02*
D03*
X242913Y168602D02*
D03*
X241142Y168602D02*
D03*
Y152657D02*
D03*
X242913Y152657D02*
D03*
X244685D02*
D03*
X246457Y152657D02*
D03*
X248228D02*
D03*
X250000Y152657D02*
D03*
X251772D02*
D03*
D40*
X238484Y165945D02*
D03*
Y164173D02*
D03*
Y162402D02*
D03*
X238484Y160630D02*
D03*
X238484Y158858D02*
D03*
Y157087D02*
D03*
Y155315D02*
D03*
X254429Y155315D02*
D03*
Y157087D02*
D03*
X254429Y158858D02*
D03*
Y160630D02*
D03*
X254429Y162402D02*
D03*
Y164173D02*
D03*
X254429Y165945D02*
D03*
D41*
X246457Y160630D02*
D03*
D42*
X249101Y148098D02*
D03*
Y143374D02*
D03*
D43*
X248524Y276870D02*
D03*
X233858Y276772D02*
D03*
D44*
X198110Y310236D02*
D03*
X208110D02*
D03*
X255669D02*
D03*
X245669D02*
D03*
X235669D02*
D03*
X255748Y299213D02*
D03*
X245748D02*
D03*
X235748D02*
D03*
D45*
X218110Y310236D02*
D03*
X265669D02*
D03*
X265748Y299213D02*
D03*
D46*
X274803Y107087D02*
D03*
X255118D02*
D03*
X235433D02*
D03*
X274803Y126772D02*
D03*
X255118D02*
D03*
X235433D02*
D03*
D47*
X282677Y192913D02*
D03*
X209842D02*
D03*
D48*
X166535Y152756D02*
D03*
Y184646D02*
D03*
X229134Y157087D02*
D03*
X234646Y156693D02*
D03*
X267323Y143307D02*
D03*
X240945Y148031D02*
D03*
X268898Y140551D02*
D03*
X269291Y137795D02*
D03*
X292913Y239370D02*
D03*
Y244488D02*
D03*
Y249213D02*
D03*
X270472Y175197D02*
D03*
X259055Y162992D02*
D03*
X247638Y231102D02*
D03*
Y240945D02*
D03*
X233071Y162598D02*
D03*
X235039Y164961D02*
D03*
X243701Y249213D02*
D03*
X284252Y231102D02*
D03*
Y262598D02*
D03*
X292126Y259449D02*
D03*
X292274Y254213D02*
D03*
X257480Y160630D02*
D03*
X227953Y161024D02*
D03*
X209842D02*
D03*
X188189Y181102D02*
D03*
Y175984D02*
D03*
Y170866D02*
D03*
Y166142D02*
D03*
Y155905D02*
D03*
Y161024D02*
D03*
D49*
X267913Y153150D02*
D03*
X251083Y176969D02*
D03*
X244856Y142465D02*
D03*
X245413Y172253D02*
D03*
X251083Y173425D02*
D03*
X252303Y143231D02*
D03*
X252389Y251564D02*
D03*
X257382Y195669D02*
D03*
X258268Y191535D02*
D03*
X268406Y190354D02*
D03*
Y193110D02*
D03*
X264370Y181496D02*
D03*
X264213Y178150D02*
D03*
X231594Y242323D02*
D03*
X253740Y233858D02*
D03*
Y237894D02*
D03*
X227264Y247736D02*
D03*
X227362Y250886D02*
D03*
X242618Y236024D02*
D03*
X238779Y249803D02*
D03*
X238976Y243701D02*
D03*
X231791Y238189D02*
D03*
X252387Y255023D02*
D03*
X252264Y259449D02*
D03*
X241732Y257087D02*
D03*
X264862Y205512D02*
D03*
X261122D02*
D03*
X257382D02*
D03*
X236319Y261238D02*
D03*
M02*
