G04*
G04 #@! TF.GenerationSoftware,Altium Limited,Altium Designer,20.0.9 (164)*
G04*
G04 Layer_Color=32896*
%FSLAX25Y25*%
%MOIN*%
G70*
G01*
G75*
%ADD10C,0.00394*%
%ADD12C,0.00787*%
%ADD63C,0.01000*%
D10*
X188189Y92126D02*
Y282480D01*
Y92126D02*
X302362Y92126D01*
Y282480D01*
X188189Y282480D02*
X302362Y282480D01*
D12*
X274803Y88976D02*
G03*
X274803Y89370I0J197D01*
G01*
D02*
G03*
X274803Y88976I0J-197D01*
G01*
D02*
G03*
X274803Y89370I0J197D01*
G01*
X243524Y281870D02*
X253524D01*
X243524Y271870D02*
Y281870D01*
Y271870D02*
X253524D01*
Y281870D01*
X228858Y281772D02*
X238858D01*
X228858Y271772D02*
Y281772D01*
Y271772D02*
X238858D01*
Y281772D01*
X223110Y305236D02*
Y315236D01*
X193110D02*
X223110D01*
X193110Y305236D02*
Y315236D01*
Y305236D02*
X223110D01*
X230669Y305236D02*
Y315236D01*
Y305236D02*
X270669D01*
X230669Y315236D02*
X270669D01*
Y305236D02*
Y315236D01*
X230748Y294213D02*
Y304213D01*
Y294213D02*
X270748D01*
X230748Y304213D02*
X270748D01*
Y294213D02*
Y304213D01*
X275590Y244094D02*
Y249213D01*
Y244094D02*
X277559D01*
X275590Y249213D02*
X277559D01*
Y260630D01*
Y232480D02*
Y244094D01*
Y249213D01*
X161319Y166043D02*
Y171161D01*
Y154429D02*
Y166043D01*
Y171161D02*
Y182579D01*
X159350Y171161D02*
X161319D01*
X159350Y166043D02*
X161319D01*
X159350D02*
Y171161D01*
D63*
X166354Y186796D02*
Y190732D01*
X168322D01*
X168978Y190076D01*
Y187452D01*
X168322Y186796D01*
X166354D01*
X172258D02*
X170946D01*
X170290Y187452D01*
Y190076D01*
X170946Y190732D01*
X172258D01*
X172914Y190076D01*
Y187452D01*
X172258Y186796D01*
X174226D02*
Y190076D01*
X174882Y190732D01*
X176194D01*
X176850Y190076D01*
Y186796D01*
X178162D02*
X180785D01*
X179473D01*
Y190732D01*
X286039Y264749D02*
Y268685D01*
X288007D01*
X288663Y268029D01*
Y265405D01*
X288007Y264749D01*
X286039D01*
X289975D02*
X291287D01*
X290631D01*
Y268685D01*
X289975D01*
X291287D01*
X293255D02*
Y264749D01*
X295879Y268685D01*
Y264749D01*
M02*
