M48
;Layer_Color=9474304
;FILE_FORMAT=2:5
INCH,LZ
;TYPE=PLATED
T1F00S00C0.00787
T2F00S00C0.01181
T3F00S00C0.01299
T4F00S00C0.01968
T5F00S00C0.03543
T6F00S00C0.04724
T7F00S00C0.15748
%
T01
X0253051Y0351378
X0246949Y03625
X0245276Y0367028
X0240846Y0379626
X0239961Y0384055
X0238681Y0396555
X0238583Y0401083
X0240059Y0414075
X0266339Y0412992
Y0402953
X0266301Y0394821
X0266339Y0384941
X0296161Y0381693
X0295571Y0376378
X0295457Y0373074
X0295965Y0370079
Y0366929
X0301354Y0363609
Y0360433
Y0357382
X0304429Y0373524
X0304528Y0376378
X03095Y0375005
X03115Y0376402
X0311516Y0370472
X0311319Y0367717
X0312402Y0346752
X0311811Y0315059
X0299016Y0318209
X0294587Y0319587
X0281693Y0324213
X0291437Y0408858
X02915Y0413902
Y0418902
Y0423902
Y0428902
Y0433902
X0310531Y0436614
X0309744Y0422736
X0307Y0418902
X0306988Y041437
X0307185Y0410728
X0309646Y0409842
X0309156Y0406462
X0307442Y040461
X0305724Y0402734
X0304Y0400902
X0307382Y0394587
X0255906Y0450098
X0264665Y0459842
X0268307Y0462795
X0324606Y0440945
X0319193Y0429528
X0320079Y0425886
X0329823Y0426181
X0329826Y0423972
X0330709Y0414665
X0327551Y0412098
X0320472Y0415846
X0314272Y04125
X0313878Y0389272
X0313287Y0383366
X0316929Y037687
X0320866Y0368602
X0325197
Y0364272
X0320866
X0333563Y0357579
X0343711Y0356132
X0343779Y0359227
X0343799Y0362205
X0343898Y0365256
Y0368209
X0353445Y0371555
X0356545
X0359646
X0348228Y0383465
X0340846Y0388386
X0338287Y0386713
X0333661Y0390354
X0330315Y0384842
X0328113Y0386319
X03425Y0400902
X0341Y0402902
X03395Y0404902
X0338Y0406902
X0351672Y0408697
X0354035Y0410138
X035426Y0413934
X0352102Y0418799
X0351613Y0423778
X0354232Y0422244
X0351644Y0433803
X036063Y0437402
X0399114Y0434842
X0393237Y0447268
X0390059Y045
X0381496Y0459842
X0378051Y0463091
X0379724Y0412598
X0379823Y0402658
X0379724Y039498
Y0384941
X0405807Y0383465
X0405217Y0379724
X0400787Y0366831
X0399311Y0362303
X0392618Y0351279
X0390059Y0347539
X0381004Y0337894
X0378642Y0334252
X0362992Y0326575
X0346654Y0318012
X0334055Y0315354
X0329626Y0314961
X0316339Y0314862
X0318504Y0343307
X0321555Y0341634
X0324606Y0339665
X0327854Y0337992
X0315453Y034498
X0343575Y0353088
X0406962Y0396689
X0367126Y0470571
X0362992Y0473228
X0351181Y0477953
X031191Y048248
X0299114Y0479724
X0294882Y0478346
X0282874Y0472835
X0278937Y0470571
T02
X0270472Y0357776
X0285236Y0357283
X0303839Y0351378
X030187Y0336417
X0261417Y0369882
X025748Y0388583
X0257382Y0410433
X0266339Y0433268
X0277953Y044685
X0295472Y0457087
X0350098Y0457776
X0370472Y0440354
X0381594Y0423917
X0379429Y0365158
X0367913Y0350295
X0342323Y0336713
X0322933Y0333661
T03
X0323031Y0395577
Y0402258
X0326372Y0398917
X0319691
T04
X03375Y0391634
T05
X0309429Y0458957
X0319429
X0329429
X0339429
T06
X0293032Y0353917
X0273031Y0378917
Y0388917
Y0398917
Y0408917
Y0418917
X0293032Y0443917
X0353031
X0373031Y0418917
Y0408917
Y0398917
Y0388917
Y0378917
X0353031Y0353917
T07
X0247539Y0323524
X0398524Y0323721
X0398425Y0474213
X0247441Y0474508
M30
