M48
;Layer_Color=9474304
;FILE_FORMAT=2:5
INCH,LZ
;TYPE=PLATED
T1F00S00C0.00787
T2F00S00C0.01181
T3F00S00C0.01299
T4F00S00C0.01968
T5F00S00C0.03543
T6F00S00C0.04724
T7F00S00C0.11811
%
T01
X-0048425Y-0056102
X-0038091Y-0063189
X-003563Y-0064764
X-0024508Y-0069685
X-0021457Y-0070768
X-001063Y-0052854
X-0011681Y-0031169
X-0011484Y-0028413
X-00115Y-0022484
X-00135Y-0023881
X-0018307Y-0023228
X-0018406Y-0020079
X-0018669Y-0015323
X-0019783Y-0005807
X-0015618Y-0004299
X-0019Y0002016
X-0017276Y0003848
X-0015558Y0005725
X-0013844Y0007576
X-0013354Y0010957
X-0015815Y0011842
X-0016012Y0015484
X-0016Y0020016
X-0016634Y0025591
X-00315Y0025016
Y0030016
Y0035016
Y0020016
Y0015016
X-0031563Y0009972
X-0056594Y0009941
X-0056595Y000128
X-0056632Y-0001242
X-0056595Y-0009744
X-0039075Y-0011909
X-0036417Y-0018012
X-0027362Y-0020079
X-0027461Y-0023228
X-0026992Y-0026369
Y-0029519
X-0022736Y-0031988
Y-0034547
X-0022835Y-0037205
X-006811Y-0027953
X-0072047Y-0016831
X-0072539Y-0013583
X-0073917Y-0001476
X-0073819Y0001575
X-0072539Y001378
X-0072146Y0016634
X-0068307Y0028445
X-0052165Y002628
X-0050492Y0029232
X-0048917Y003248
X-0048228Y0056004
X-0038484Y006309
X-0035531Y0064764
X-0024311Y0069685
X-0009055Y0035236
X-0007677Y0026772
X-0001135Y0028937
X-0003839Y0021063
X-0008728Y0013614
X0001378Y0012992
X0004551Y0013213
X0007185Y0015059
X0010433Y0022441
X0014469Y0024114
X0013336Y0032385
X0015679Y0032413
X0028644Y0034918
X0031299Y0033936
X0031232Y0023358
X0028613Y0024892
X0029102Y0019913
X003126Y0015048
X0031035Y0011252
X0028672Y0009811
X0015Y0008016
X00165Y0006016
X0018Y0004016
X00195Y0002016
X0017846Y-00105
X0015287Y-0012173
X0010661Y-0008531
X0007315Y-0014043
X0005113Y-0012567
X-0009122Y-0009614
X-0009713Y-001552
X-0006071Y-0022016
X-0002134Y-0030283
Y-0034614
X0002197
Y-0030283
X0020898Y-0030677
Y-003363
X0020799Y-0036681
X0020779Y-0039659
X0020711Y-0042754
X0020575Y-0045798
X0010563Y-0041307
X0004724Y-0052658
X0001445Y-0054381
X-0001542Y-0056235
X-0004429Y-0056299
X-0007579Y-0054528
X-0009252Y-0073327
X-0006102Y-0073622
X0006201
X0024508Y-0069784
X0038583Y-0066043
X0038484Y-006309
X0048524Y-005561
X0050591Y-005374
X0058957Y-0044587
X0060827Y-0041929
X0067028Y-0031496
X0068012Y-0028445
X0071949Y-0016831
X0056528Y-000991
Y-000115
Y0001508
Y0010268
X0056595Y0019291
X00625Y0013681
X0072047Y0016634
X006811Y002874
X0066831Y0031398
X0060827Y0042028
X0058858Y0044685
X0050775Y0053724
X0048327Y0056004
X0038287Y0062894
X0049606Y0032874
X0025228Y-0015421
X0Y0
X0006102Y0073622
X-0006299Y0073524
X-0009252Y0073327
X-0021555Y0070472
T02
X0033299Y-0009713
T03
X0000032Y-0003309
Y0003372
X0003372Y0000032
X-0003309
T04
X00145Y-0007252
T05
X-0016177Y0042779
X-0016177Y0052819
X-0006177
X0003823
X0013823
X0013823Y0042779
X0003823
X-0006177
T06
X-0029969Y-0044969
X-0049968Y-0019969
Y-0009968
Y0000032
Y0010031
Y0020031
X-0029969Y0045031
X0030031
X0050032Y0020031
Y0010031
Y0000032
Y-0009968
Y-0019969
X0030031Y-0044969
T07
X-0062992Y-0062992
Y0062992
X0062992
Y-0062992
M30
