G04*
G04 #@! TF.GenerationSoftware,Altium Limited,Altium Designer,21.7.2 (23)*
G04*
G04 Layer_Physical_Order=1*
G04 Layer_Color=255*
%FSLAX25Y25*%
%MOIN*%
G70*
G04*
G04 #@! TF.SameCoordinates,2BEB94BA-C242-4871-AFB5-1AACED26611A*
G04*
G04*
G04 #@! TF.FilePolarity,Positive*
G04*
G01*
G75*
%ADD12C,0.00787*%
%ADD13R,0.10433X0.04724*%
G04:AMPARAMS|DCode=14|XSize=20.47mil|YSize=22.05mil|CornerRadius=5.12mil|HoleSize=0mil|Usage=FLASHONLY|Rotation=270.000|XOffset=0mil|YOffset=0mil|HoleType=Round|Shape=RoundedRectangle|*
%AMROUNDEDRECTD14*
21,1,0.02047,0.01181,0,0,270.0*
21,1,0.01024,0.02205,0,0,270.0*
1,1,0.01024,-0.00591,-0.00512*
1,1,0.01024,-0.00591,0.00512*
1,1,0.01024,0.00591,0.00512*
1,1,0.01024,0.00591,-0.00512*
%
%ADD14ROUNDEDRECTD14*%
%ADD15C,0.03937*%
G04:AMPARAMS|DCode=16|XSize=25.2mil|YSize=23.62mil|CornerRadius=5.91mil|HoleSize=0mil|Usage=FLASHONLY|Rotation=90.000|XOffset=0mil|YOffset=0mil|HoleType=Round|Shape=RoundedRectangle|*
%AMROUNDEDRECTD16*
21,1,0.02520,0.01181,0,0,90.0*
21,1,0.01339,0.02362,0,0,90.0*
1,1,0.01181,0.00591,0.00669*
1,1,0.01181,0.00591,-0.00669*
1,1,0.01181,-0.00591,-0.00669*
1,1,0.01181,-0.00591,0.00669*
%
%ADD16ROUNDEDRECTD16*%
G04:AMPARAMS|DCode=17|XSize=20.47mil|YSize=22.05mil|CornerRadius=5.12mil|HoleSize=0mil|Usage=FLASHONLY|Rotation=0.000|XOffset=0mil|YOffset=0mil|HoleType=Round|Shape=RoundedRectangle|*
%AMROUNDEDRECTD17*
21,1,0.02047,0.01181,0,0,0.0*
21,1,0.01024,0.02205,0,0,0.0*
1,1,0.01024,0.00512,-0.00591*
1,1,0.01024,-0.00512,-0.00591*
1,1,0.01024,-0.00512,0.00591*
1,1,0.01024,0.00512,0.00591*
%
%ADD17ROUNDEDRECTD17*%
%ADD18R,0.02835X0.03543*%
%ADD19R,0.00669X0.02362*%
%ADD20R,0.06693X0.03937*%
%ADD21R,0.01181X0.02756*%
%ADD22R,0.02165X0.03150*%
%ADD23O,0.02953X0.00787*%
%ADD24O,0.00787X0.02953*%
%ADD25R,0.09843X0.09843*%
%ADD26R,0.02756X0.03347*%
%ADD48C,0.01181*%
%ADD49C,0.01575*%
%ADD50C,0.06890*%
%ADD51C,0.05906*%
%ADD52R,0.05906X0.05906*%
%ADD53C,0.08268*%
%ADD54C,0.17421*%
%ADD55C,0.01772*%
%ADD56C,0.01968*%
%ADD57C,0.02598*%
G36*
X304724Y101476D02*
X167717D01*
Y304134D01*
X192705D01*
X193370Y303445D01*
X193478Y302904D01*
X193784Y302446D01*
X194243Y302139D01*
X194783Y302032D01*
X195324Y302139D01*
X195783Y302446D01*
X196089Y302904D01*
X196196Y303445D01*
X196862Y304134D01*
X244718D01*
Y302382D01*
X244136Y302141D01*
X243436Y301604D01*
X242898Y300903D01*
X242560Y300088D01*
X242445Y299213D01*
X242560Y298337D01*
X242898Y297522D01*
X243436Y296821D01*
X244136Y296284D01*
X244952Y295946D01*
X245827Y295831D01*
X246702Y295946D01*
X247518Y296284D01*
X248218Y296821D01*
X248755Y297522D01*
X249037Y298203D01*
X252616D01*
X252898Y297522D01*
X253436Y296821D01*
X254136Y296284D01*
X254718Y296043D01*
Y267303D01*
X254795Y266917D01*
X255014Y266589D01*
X255978Y265625D01*
X255968Y265022D01*
X255317Y264503D01*
X255230Y264520D01*
X252645D01*
X252259Y264443D01*
X251931Y264224D01*
X249286Y261579D01*
X249067Y261251D01*
X248990Y260865D01*
Y258963D01*
X248517D01*
Y257998D01*
X245380D01*
Y259258D01*
X234147D01*
Y257506D01*
X229981D01*
X229969Y257572D01*
X229750Y257899D01*
X229422Y258118D01*
X229035Y258195D01*
X227854D01*
X227468Y258118D01*
X227140Y257899D01*
X226921Y257572D01*
X226912Y257526D01*
X225020D01*
X224799Y257482D01*
X224383Y258021D01*
X224335Y258131D01*
X231536Y265333D01*
X237795D01*
X237795Y265333D01*
X238105Y265394D01*
X238368Y265569D01*
X246429Y273631D01*
X246585Y273512D01*
X247520Y273124D01*
X248524Y272992D01*
X249527Y273124D01*
X250463Y273512D01*
X251266Y274128D01*
X251882Y274931D01*
X252270Y275866D01*
X252402Y276870D01*
X252270Y277874D01*
X251882Y278809D01*
X251266Y279612D01*
X250463Y280229D01*
X249527Y280616D01*
X248524Y280748D01*
X247520Y280616D01*
X246585Y280229D01*
X245781Y279612D01*
X245165Y278809D01*
X244778Y277874D01*
X244646Y276870D01*
X244778Y275866D01*
X245165Y274931D01*
X245285Y274775D01*
X237460Y266951D01*
X231807D01*
X231481Y267738D01*
X234431Y270688D01*
X234431Y270688D01*
X234606Y270950D01*
X234667Y271260D01*
X234667Y271260D01*
Y273000D01*
X234862Y273026D01*
X235797Y273413D01*
X236600Y274029D01*
X237217Y274833D01*
X237604Y275768D01*
X237736Y276772D01*
X237604Y277775D01*
X237217Y278711D01*
X236600Y279514D01*
X235797Y280130D01*
X234862Y280518D01*
X233858Y280650D01*
X232855Y280518D01*
X231919Y280130D01*
X231116Y279514D01*
X230500Y278711D01*
X230112Y277775D01*
X229980Y276772D01*
X230112Y275768D01*
X230500Y274833D01*
X231116Y274029D01*
X231919Y273413D01*
X232855Y273026D01*
X233049Y273000D01*
Y271595D01*
X219277Y257823D01*
X219102Y257561D01*
X219040Y257251D01*
X219040Y257251D01*
Y256306D01*
X218113D01*
Y254528D01*
X217913D01*
Y254328D01*
X216923D01*
Y252750D01*
X217120D01*
Y250594D01*
X224613D01*
Y252750D01*
X224810D01*
Y254430D01*
X224829Y254528D01*
Y254897D01*
X225438Y255506D01*
X226912D01*
X226921Y255460D01*
X227140Y255132D01*
X227243Y255064D01*
X227275Y254960D01*
Y254292D01*
X227243Y254188D01*
X227140Y254120D01*
X226921Y253792D01*
X226844Y253405D01*
Y252936D01*
X228445D01*
X230045D01*
Y253405D01*
X229969Y253792D01*
X229750Y254120D01*
X229682Y254923D01*
X230184Y255486D01*
X234147D01*
Y253734D01*
X245380D01*
Y255978D01*
X248517D01*
Y255013D01*
X251483D01*
Y258963D01*
X251010D01*
Y260447D01*
X251647Y261084D01*
X252365Y260688D01*
X252409Y260471D01*
X252610Y260169D01*
X252912Y259968D01*
X253268Y259897D01*
X253579D01*
Y261417D01*
X253979D01*
Y259897D01*
X254291D01*
X254647Y259968D01*
X254949Y260169D01*
X255089Y260379D01*
X255512Y260429D01*
X255935Y260379D01*
X256075Y260169D01*
X256352Y259984D01*
Y258963D01*
X255998D01*
Y255013D01*
X258963D01*
Y258963D01*
X258372D01*
Y260142D01*
X258413Y260169D01*
X258615Y260471D01*
X258686Y260827D01*
Y262008D01*
X258615Y262364D01*
X258413Y262665D01*
X258293Y262745D01*
Y265748D01*
X258217Y266135D01*
X257998Y266462D01*
X256738Y267722D01*
Y295961D01*
X257518Y296284D01*
X258218Y296821D01*
X258755Y297522D01*
X259093Y298337D01*
X259208Y299213D01*
X259093Y300088D01*
X258755Y300903D01*
X258218Y301604D01*
X257518Y302141D01*
X256702Y302479D01*
X255827Y302594D01*
X254952Y302479D01*
X254136Y302141D01*
X253436Y301604D01*
X252898Y300903D01*
X252616Y300223D01*
X249037D01*
X248755Y300903D01*
X248218Y301604D01*
X247518Y302141D01*
X246738Y302464D01*
Y304134D01*
X288453D01*
X289138Y303543D01*
X289246Y303003D01*
X289552Y302544D01*
X290010Y302238D01*
X290551Y302130D01*
X291092Y302238D01*
X291550Y302544D01*
X291857Y303003D01*
X291964Y303543D01*
X292650Y304134D01*
X304724D01*
Y101476D01*
D02*
G37*
%LPC*%
G36*
X269180Y302565D02*
X266027D01*
Y299413D01*
X269180D01*
Y302565D01*
D02*
G37*
G36*
X236027Y302568D02*
Y299413D01*
X239182D01*
X239093Y300088D01*
X238755Y300903D01*
X238218Y301604D01*
X237518Y302141D01*
X236702Y302479D01*
X236027Y302568D01*
D02*
G37*
G36*
X265627Y302565D02*
X262474D01*
Y299413D01*
X265627D01*
Y302565D01*
D02*
G37*
G36*
X235627Y302568D02*
X234951Y302479D01*
X234136Y302141D01*
X233436Y301604D01*
X232898Y300903D01*
X232560Y300088D01*
X232471Y299413D01*
X235627D01*
Y302568D01*
D02*
G37*
G36*
X291339Y300232D02*
X290798Y300124D01*
X290339Y299818D01*
X290033Y299360D01*
X289926Y298819D01*
X290033Y298278D01*
X290339Y297820D01*
X290798Y297514D01*
X291339Y297406D01*
X291879Y297514D01*
X292338Y297820D01*
X292644Y298278D01*
X292752Y298819D01*
X292644Y299360D01*
X292338Y299818D01*
X291879Y300124D01*
X291339Y300232D01*
D02*
G37*
G36*
X194862Y299858D02*
X194322Y299750D01*
X193863Y299444D01*
X193557Y298986D01*
X193449Y298445D01*
X193557Y297904D01*
X193863Y297446D01*
X194322Y297140D01*
X194862Y297032D01*
X195403Y297140D01*
X195861Y297446D01*
X196168Y297904D01*
X196275Y298445D01*
X196168Y298986D01*
X195861Y299444D01*
X195403Y299750D01*
X194862Y299858D01*
D02*
G37*
G36*
X269180Y299013D02*
X266027D01*
Y295860D01*
X269180D01*
Y299013D01*
D02*
G37*
G36*
X265627D02*
X262474D01*
Y295860D01*
X265627D01*
Y299013D01*
D02*
G37*
G36*
X235627D02*
X232471D01*
X232560Y298337D01*
X232898Y297522D01*
X233436Y296821D01*
X234136Y296284D01*
X234951Y295946D01*
X235627Y295857D01*
Y299013D01*
D02*
G37*
G36*
X239182D02*
X236027D01*
Y295857D01*
X236702Y295946D01*
X237518Y296284D01*
X238218Y296821D01*
X238755Y297522D01*
X239093Y298337D01*
X239182Y299013D01*
D02*
G37*
G36*
X291201Y295051D02*
X290586Y294928D01*
X290065Y294580D01*
X289717Y294059D01*
X289595Y293445D01*
X289672Y293060D01*
X279349Y282738D01*
X279174Y282475D01*
X279112Y282165D01*
X279112Y282165D01*
Y268386D01*
X263995Y253269D01*
X263819Y253007D01*
X263758Y252697D01*
X263758Y252697D01*
Y238004D01*
X263206Y237453D01*
X262987Y237445D01*
X262271Y237631D01*
X262061Y237946D01*
Y238432D01*
X262409Y238952D01*
X262531Y239567D01*
X262409Y240181D01*
X262061Y240702D01*
X261540Y241050D01*
X260925Y241173D01*
X260311Y241050D01*
X260085Y240899D01*
X259298Y241275D01*
Y244396D01*
X258993D01*
X258963Y245171D01*
X258963D01*
Y249120D01*
X255998D01*
Y245171D01*
X255998D01*
X255967Y244396D01*
X255663D01*
Y240053D01*
X255663Y240053D01*
X255696Y239897D01*
X255544Y239570D01*
X255375Y239517D01*
X254640Y239786D01*
X254573Y240053D01*
X254573Y240318D01*
Y242024D01*
X252756D01*
X250939D01*
Y240053D01*
X252065D01*
X252280Y239611D01*
X252365Y239265D01*
X252212Y239037D01*
X252141Y238681D01*
Y238291D01*
X253583D01*
Y238091D01*
X253783D01*
Y236570D01*
X254095D01*
X254450Y236641D01*
X254752Y236843D01*
X254892Y237052D01*
X255315Y237102D01*
X255738Y237052D01*
X255878Y236843D01*
X256180Y236641D01*
X256535Y236570D01*
X257559D01*
X257915Y236641D01*
X258216Y236843D01*
X259091Y236909D01*
X259127Y236897D01*
X259346Y236678D01*
X259442Y236197D01*
X259790Y235676D01*
X260105Y235465D01*
X260291Y234749D01*
X260284Y234530D01*
X254606Y228852D01*
X253787Y228904D01*
X253755Y228952D01*
X253297Y229258D01*
X252756Y229366D01*
X252215Y229258D01*
X251757Y228952D01*
X251450Y228493D01*
X251343Y227953D01*
X251417Y227581D01*
X251112Y227019D01*
X251050Y226947D01*
X250213Y226982D01*
X250212Y226983D01*
X249753Y227290D01*
X249213Y227397D01*
X248982Y227351D01*
X248734Y227535D01*
X248384Y227959D01*
X248378Y227973D01*
X248470Y228435D01*
X248348Y229049D01*
X248000Y229570D01*
X247479Y229918D01*
X246865Y230040D01*
X246380Y229944D01*
X245907Y230183D01*
X245593Y230426D01*
Y230444D01*
X245593Y230444D01*
X245531Y230754D01*
X245356Y231016D01*
X245356Y231016D01*
X244895Y231478D01*
X244632Y231653D01*
X244322Y231715D01*
X244322Y231715D01*
X237598D01*
X237598Y231715D01*
X237289Y231653D01*
X237026Y231478D01*
X235518Y229969D01*
X232330D01*
X231717Y230610D01*
Y231001D01*
X230276D01*
Y231201D01*
X230076D01*
Y232721D01*
X229764D01*
X229408Y232650D01*
X229106Y232449D01*
X228966Y232239D01*
X228543Y232189D01*
X228120Y232239D01*
X227980Y232449D01*
X227679Y232650D01*
X227323Y232721D01*
X226419D01*
X226250Y232834D01*
X225940Y232896D01*
X225940Y232896D01*
X223865D01*
Y234907D01*
X223878Y234927D01*
X223939Y235236D01*
Y238852D01*
X224356Y239292D01*
X224650Y239465D01*
X224658Y239466D01*
X224803Y239438D01*
X225418Y239560D01*
X225939Y239908D01*
X226287Y240429D01*
X226409Y241043D01*
X226287Y241658D01*
X225939Y242179D01*
X225418Y242527D01*
X224803Y242649D01*
X224418Y242572D01*
X223296Y243694D01*
X223623Y244482D01*
X223938D01*
X224016Y244466D01*
X224016Y244466D01*
X225137D01*
X225688Y243916D01*
X225688Y243916D01*
X225950Y243741D01*
X226260Y243679D01*
X226921Y243610D01*
X227140Y243282D01*
X227468Y243063D01*
X227854Y242986D01*
X229035D01*
X229422Y243063D01*
X229750Y243282D01*
X229752Y243285D01*
X229832Y243342D01*
X230618Y243514D01*
X230748Y243494D01*
X230908Y243388D01*
X231523Y243265D01*
X232137Y243388D01*
X232658Y243736D01*
X233006Y244257D01*
X233128Y244871D01*
X233006Y245486D01*
X232658Y246006D01*
X232137Y246355D01*
X231523Y246477D01*
X230908Y246355D01*
X230621Y246162D01*
X230364Y246129D01*
X230113Y246357D01*
X229750Y247061D01*
X229969Y247389D01*
X230045Y247776D01*
Y248245D01*
X228445D01*
X226844D01*
Y247776D01*
X226921Y247389D01*
X227140Y247061D01*
X227243Y246993D01*
X227275Y246889D01*
Y246221D01*
X227243Y246118D01*
X227140Y246049D01*
X227067Y245939D01*
X226334Y245754D01*
X226127Y245765D01*
X226045Y245848D01*
X225782Y246023D01*
X225472Y246085D01*
X224810Y246481D01*
Y248038D01*
X224613D01*
Y250194D01*
X217120D01*
Y248038D01*
X216923D01*
Y245626D01*
X216299Y245002D01*
X213957D01*
X213930Y245139D01*
X213728Y245441D01*
X213427Y245642D01*
X213071Y245713D01*
X212047D01*
X211691Y245642D01*
X211390Y245441D01*
X211250Y245231D01*
X210827Y245182D01*
X210404Y245231D01*
X210264Y245441D01*
X209962Y245642D01*
X209606Y245713D01*
X209295D01*
Y244193D01*
X209095D01*
Y243993D01*
X207653D01*
Y243602D01*
X207724Y243247D01*
X207848Y243061D01*
X207925Y242925D01*
Y242213D01*
X207848Y242077D01*
X207724Y241891D01*
X207653Y241535D01*
Y241145D01*
X209095D01*
Y240945D01*
X209295D01*
Y239425D01*
X209606D01*
X209962Y239495D01*
X210264Y239697D01*
X210404Y239907D01*
X210827Y239956D01*
X211250Y239907D01*
X211390Y239697D01*
X211691Y239495D01*
X212047Y239425D01*
X213071D01*
X213427Y239495D01*
X213728Y239697D01*
X213930Y239999D01*
X213957Y240136D01*
X214692D01*
X214975Y239348D01*
X213404Y237777D01*
X213229Y237514D01*
X213167Y237205D01*
X212999Y237154D01*
X212672Y236935D01*
X212288Y236854D01*
X211772Y236837D01*
X211739Y236848D01*
X211343Y237113D01*
X210728Y237236D01*
X210114Y237113D01*
X209593Y236765D01*
X209245Y236244D01*
X209123Y235630D01*
X209245Y235016D01*
X209593Y234494D01*
X210114Y234146D01*
X210728Y234024D01*
X211343Y234146D01*
X211675Y234369D01*
X211818Y234392D01*
X212395Y234310D01*
X212632Y234227D01*
X212672Y234168D01*
X212775Y234099D01*
X212807Y233995D01*
Y233327D01*
X212775Y233224D01*
X212672Y233155D01*
X212453Y232827D01*
X212376Y232441D01*
Y231972D01*
X213976D01*
X215577D01*
Y232441D01*
X215500Y232827D01*
X215281Y233155D01*
X215178Y233224D01*
X215146Y233327D01*
Y233995D01*
X215178Y234099D01*
X215281Y234168D01*
X215500Y234495D01*
X215577Y234882D01*
Y236221D01*
X215500Y236607D01*
X215281Y236935D01*
X215272Y237027D01*
X215912Y237617D01*
X216516Y237486D01*
X216579Y237380D01*
X216505Y237008D01*
X216627Y236393D01*
X216975Y235873D01*
X217496Y235524D01*
X218110Y235402D01*
X218725Y235524D01*
X218777Y235560D01*
X219334Y235331D01*
X219582Y235150D01*
X219626Y234927D01*
X219639Y234907D01*
Y232416D01*
X219626Y232396D01*
X219565Y232087D01*
Y231694D01*
X219211Y231340D01*
X219036Y231077D01*
X218974Y230768D01*
X218974Y230768D01*
Y228515D01*
X218974Y228515D01*
X219036Y228206D01*
X219211Y227943D01*
X220463Y226692D01*
X220463Y226692D01*
X220725Y226516D01*
X221035Y226454D01*
X225413D01*
X225440Y226318D01*
X225642Y226016D01*
X225943Y225814D01*
X226299Y225744D01*
X227108D01*
X228227Y224625D01*
X228489Y224449D01*
X228799Y224388D01*
X238318D01*
X238513Y224162D01*
X238819Y223600D01*
X238744Y223228D01*
X238852Y222688D01*
X238993Y222477D01*
X239017Y222366D01*
X238896Y221537D01*
X238721Y221274D01*
X238659Y220965D01*
Y220691D01*
X211949D01*
X205237Y227403D01*
Y280218D01*
X205176Y280527D01*
X205000Y280790D01*
X203073Y282718D01*
X203149Y283102D01*
X203027Y283717D01*
X202679Y284238D01*
X202158Y284586D01*
X201543Y284708D01*
X200929Y284586D01*
X200408Y284238D01*
X199868Y284329D01*
X199610Y284461D01*
X199567Y284680D01*
X199391Y284942D01*
X196273Y288060D01*
X196350Y288445D01*
X196228Y289059D01*
X195879Y289580D01*
X195359Y289928D01*
X194744Y290051D01*
X194130Y289928D01*
X193609Y289580D01*
X193261Y289059D01*
X193138Y288445D01*
X193261Y287830D01*
X193609Y287310D01*
X194130Y286962D01*
X194744Y286839D01*
X195129Y286916D01*
X198010Y284035D01*
Y227061D01*
X198010Y227061D01*
X198071Y226751D01*
X198247Y226489D01*
X208083Y216652D01*
X208083Y216652D01*
X208346Y216477D01*
X208655Y216415D01*
X208656Y216415D01*
X232550D01*
X232859Y215703D01*
X232433Y215170D01*
X231736D01*
X231381Y215099D01*
X231079Y214897D01*
X230939Y214688D01*
X230516Y214638D01*
X230093Y214688D01*
X229953Y214897D01*
X229651Y215099D01*
X229296Y215170D01*
X228984D01*
Y213649D01*
Y212129D01*
X229296D01*
X229651Y212200D01*
X229953Y212402D01*
X230093Y212611D01*
X230516Y212661D01*
X230939Y212611D01*
X231079Y212402D01*
X231381Y212200D01*
X231439Y212188D01*
Y211338D01*
X230474D01*
Y207191D01*
X234030D01*
Y211338D01*
X233058D01*
Y212188D01*
X233116Y212200D01*
X233418Y212402D01*
X233619Y212703D01*
X233690Y213059D01*
Y213687D01*
X234413Y214179D01*
X234844Y214066D01*
X234954Y213856D01*
X234919Y213681D01*
X234919Y213681D01*
X234981Y213371D01*
X235102Y212795D01*
X234981Y212219D01*
X234959Y212109D01*
X236811D01*
Y211709D01*
X234959D01*
X234981Y211600D01*
X235016Y211547D01*
X235069Y211460D01*
X235120Y211024D01*
X235069Y210587D01*
X235016Y210500D01*
X234981Y210448D01*
X234919Y210138D01*
X234981Y209828D01*
X235016Y209775D01*
X235156Y209545D01*
Y208959D01*
X235016Y208729D01*
X234981Y208676D01*
X234919Y208366D01*
X234981Y208056D01*
X235016Y208004D01*
X235156Y207773D01*
Y207187D01*
X235016Y206957D01*
X234981Y206904D01*
X234919Y206594D01*
X234981Y206285D01*
X235156Y206022D01*
X235419Y205847D01*
X235728Y205785D01*
X237894D01*
X238107Y205828D01*
X238435Y205561D01*
X238702Y205233D01*
X238659Y205020D01*
Y202854D01*
X238721Y202545D01*
X238896Y202282D01*
X239159Y202107D01*
X239469Y202045D01*
X239644Y202080D01*
X240153Y201813D01*
X240431Y201596D01*
Y198406D01*
X240294Y198379D01*
X239992Y198177D01*
X239791Y197875D01*
X239720Y197520D01*
Y196496D01*
X239791Y196140D01*
X239992Y195839D01*
X240202Y195699D01*
X240251Y195276D01*
X240202Y194853D01*
X239992Y194712D01*
X239791Y194411D01*
X239720Y194055D01*
Y193032D01*
X239791Y192676D01*
X239992Y192374D01*
X239814Y191546D01*
X239757Y191461D01*
X239634Y190847D01*
X239757Y190232D01*
X239792Y190179D01*
X239371Y189392D01*
X219009D01*
X218461Y189940D01*
X218821Y191127D01*
X218997Y192913D01*
X218821Y194699D01*
X218300Y196417D01*
X217454Y198000D01*
X216316Y199387D01*
X214929Y200525D01*
X213346Y201371D01*
X211629Y201892D01*
X209842Y202068D01*
X208056Y201892D01*
X206339Y201371D01*
X204756Y200525D01*
X203369Y199387D01*
X202231Y198000D01*
X201385Y196417D01*
X200864Y194699D01*
X200688Y192913D01*
X200864Y191127D01*
X201385Y189410D01*
X202231Y187827D01*
X203369Y186440D01*
X204756Y185301D01*
X206339Y184456D01*
X208056Y183935D01*
X209842Y183759D01*
X211629Y183935D01*
X213346Y184456D01*
X214929Y185301D01*
X216316Y186440D01*
X217327Y187672D01*
X217691Y187831D01*
X218355Y187842D01*
X218365Y187835D01*
X218674Y187773D01*
X248524D01*
X248524Y187773D01*
X248833Y187835D01*
X249096Y188010D01*
X250572Y189487D01*
X250572Y189487D01*
X250748Y189749D01*
X250809Y190059D01*
X250809Y190059D01*
Y191768D01*
X251502Y192374D01*
X251803D01*
X252105Y192173D01*
X252242Y192145D01*
Y190157D01*
X252242Y190157D01*
X252304Y189848D01*
X252479Y189585D01*
X254054Y188011D01*
X254054Y188010D01*
X254316Y187835D01*
X254626Y187773D01*
X273845D01*
X273845Y187773D01*
X274155Y187835D01*
X274165Y187842D01*
X274829Y187831D01*
X275193Y187672D01*
X276204Y186440D01*
X277591Y185301D01*
X279174Y184456D01*
X280891Y183935D01*
X282677Y183759D01*
X284463Y183935D01*
X286180Y184456D01*
X287763Y185301D01*
X289151Y186440D01*
X290289Y187827D01*
X291135Y189410D01*
X291656Y191127D01*
X291832Y192913D01*
X291656Y194699D01*
X291135Y196417D01*
X290289Y198000D01*
X289151Y199387D01*
X287763Y200525D01*
X286180Y201371D01*
X284463Y201892D01*
X282677Y202068D01*
X280891Y201892D01*
X279174Y201371D01*
X277591Y200525D01*
X276204Y199387D01*
X275065Y198000D01*
X274219Y196417D01*
X273698Y194699D01*
X273522Y192913D01*
X273698Y191127D01*
X274059Y189940D01*
X273510Y189392D01*
X254961D01*
X253860Y190493D01*
Y192145D01*
X253997Y192173D01*
X254299Y192374D01*
X254501Y192676D01*
X254571Y193032D01*
Y194055D01*
X254501Y194411D01*
X254299Y194712D01*
X254089Y194853D01*
X254040Y195276D01*
X254089Y195699D01*
X254299Y195839D01*
X254501Y196140D01*
X254571Y196496D01*
Y197520D01*
X254501Y197875D01*
X254299Y198177D01*
X253997Y198379D01*
X253860Y198406D01*
Y199901D01*
X253860Y199902D01*
X253799Y200211D01*
X253623Y200474D01*
X250908Y203189D01*
Y205020D01*
X250865Y205233D01*
X251132Y205561D01*
X251460Y205828D01*
X251673Y205785D01*
X253839D01*
X254148Y205847D01*
X254411Y206022D01*
X254586Y206285D01*
X254648Y206594D01*
X254586Y206904D01*
X254551Y206957D01*
X254411Y207187D01*
Y207773D01*
X254551Y208004D01*
X254586Y208056D01*
X254648Y208366D01*
X254613Y208541D01*
X254880Y209051D01*
X255097Y209329D01*
X256177D01*
Y209154D01*
X256247Y208798D01*
X256449Y208496D01*
X256095Y207898D01*
X255973Y207283D01*
X256095Y206669D01*
X256443Y206148D01*
X256964Y205800D01*
X257579Y205678D01*
X258193Y205800D01*
X258714Y206148D01*
X259062Y206669D01*
X259184Y207283D01*
X259062Y207898D01*
X259049Y207927D01*
X259154Y208216D01*
X259630Y208392D01*
X259956Y208468D01*
X260215Y208295D01*
X260571Y208224D01*
X260883D01*
Y209744D01*
Y211264D01*
X260571D01*
X260215Y211193D01*
X259913Y210992D01*
X259773Y210782D01*
X259350Y210733D01*
X258927Y210782D01*
X258787Y210992D01*
X258486Y211193D01*
X258130Y211264D01*
X257106D01*
X256750Y211193D01*
X256449Y210992D01*
X256419Y210947D01*
X255097D01*
X254880Y211225D01*
X254626Y211709D01*
X252756D01*
Y212109D01*
X254608D01*
X254586Y212219D01*
X254551Y212272D01*
X254493Y212366D01*
X254458Y212684D01*
X254603Y213301D01*
X256241Y214939D01*
X257982D01*
X258005Y214824D01*
X258529Y214040D01*
X259312Y213517D01*
X260236Y213333D01*
X261160Y213517D01*
X261944Y214040D01*
X262467Y214824D01*
X262651Y215748D01*
X262467Y216672D01*
X261944Y217456D01*
X261160Y217979D01*
X260236Y218163D01*
X259312Y217979D01*
X258529Y217456D01*
X258005Y216672D01*
X257982Y216557D01*
X257116D01*
X256815Y217285D01*
X272226Y232696D01*
X272226Y232696D01*
X272401Y232958D01*
X272463Y233268D01*
X272463Y233268D01*
Y237563D01*
X272813Y237850D01*
X273600Y237477D01*
Y215689D01*
X260067Y202156D01*
X259842Y202200D01*
X259302Y202093D01*
X258843Y201786D01*
X258537Y201328D01*
X258430Y200787D01*
X258537Y200247D01*
X258843Y199788D01*
X259302Y199482D01*
X259842Y199374D01*
X260383Y199482D01*
X260842Y199788D01*
X261148Y200247D01*
X261256Y200787D01*
X261211Y201011D01*
X274982Y214782D01*
X275157Y215045D01*
X275219Y215354D01*
X275219Y215354D01*
Y239630D01*
X275409Y239757D01*
X275715Y240215D01*
X275822Y240756D01*
X275715Y241297D01*
X275409Y241755D01*
X275317Y241816D01*
Y242579D01*
X275553Y242625D01*
X275854Y242827D01*
X276056Y243128D01*
X276127Y243484D01*
Y244508D01*
X276056Y244864D01*
X275854Y245165D01*
X275644Y245305D01*
X275595Y245728D01*
X275644Y246151D01*
X275854Y246291D01*
X276056Y246593D01*
X276127Y246949D01*
Y247972D01*
X276056Y248328D01*
X275854Y248630D01*
X275928Y249498D01*
X276090Y249740D01*
X276212Y250354D01*
X276090Y250969D01*
X275742Y251490D01*
X275221Y251838D01*
X274606Y251960D01*
X273992Y251838D01*
X273471Y251490D01*
X272723Y251398D01*
X272202Y251746D01*
X271588Y251869D01*
X271286Y251809D01*
X270899Y252534D01*
X285178Y266814D01*
X285354Y267077D01*
X285416Y267387D01*
X285416Y267387D01*
Y277263D01*
X290485Y282332D01*
X290709Y282288D01*
X291249Y282395D01*
X291708Y282702D01*
X292014Y283160D01*
X292122Y283701D01*
X292014Y284242D01*
X291708Y284700D01*
X291249Y285006D01*
X290709Y285114D01*
X290168Y285006D01*
X289709Y284700D01*
X289403Y284242D01*
X289296Y283701D01*
X289340Y283477D01*
X284034Y278171D01*
X283859Y277908D01*
X283797Y277598D01*
X283797Y277598D01*
Y267722D01*
X266751Y250675D01*
X266575Y250413D01*
X266514Y250103D01*
X266514Y250103D01*
Y238853D01*
X266164Y238588D01*
X265376Y238979D01*
Y252362D01*
X280493Y267479D01*
X280493Y267479D01*
X280669Y267741D01*
X280731Y268051D01*
Y281830D01*
X290816Y291916D01*
X291201Y291839D01*
X291815Y291962D01*
X292336Y292309D01*
X292684Y292830D01*
X292806Y293445D01*
X292684Y294059D01*
X292336Y294580D01*
X291815Y294928D01*
X291201Y295051D01*
D02*
G37*
G36*
X194744D02*
X194130Y294928D01*
X193609Y294580D01*
X193261Y294059D01*
X193138Y293445D01*
X193261Y292830D01*
X193609Y292309D01*
X194130Y291962D01*
X194744Y291839D01*
X195359Y291962D01*
X195879Y292309D01*
X196228Y292830D01*
X196350Y293445D01*
X196228Y294059D01*
X195879Y294580D01*
X195359Y294928D01*
X194744Y295051D01*
D02*
G37*
G36*
X291322Y290209D02*
X290708Y290087D01*
X290187Y289738D01*
X289839Y289217D01*
X289717Y288603D01*
X289839Y287989D01*
X290187Y287468D01*
X290708Y287120D01*
X291322Y286997D01*
X291937Y287120D01*
X292458Y287468D01*
X292806Y287989D01*
X292928Y288603D01*
X292806Y289217D01*
X292458Y289738D01*
X291937Y290087D01*
X291322Y290209D01*
D02*
G37*
G36*
X290913Y280708D02*
X290299Y280586D01*
X289778Y280238D01*
X289430Y279717D01*
X289308Y279102D01*
X289430Y278488D01*
X289778Y277967D01*
X290299Y277619D01*
X290913Y277497D01*
X291528Y277619D01*
X292049Y277967D01*
X292397Y278488D01*
X292519Y279102D01*
X292397Y279717D01*
X292049Y280238D01*
X291528Y280586D01*
X290913Y280708D01*
D02*
G37*
G36*
X217713Y256306D02*
X216923D01*
Y254728D01*
X217713D01*
Y256306D01*
D02*
G37*
G36*
X230045Y252536D02*
X228645D01*
Y251057D01*
X229035D01*
X229422Y251134D01*
X229750Y251353D01*
X229969Y251680D01*
X230045Y252067D01*
Y252536D01*
D02*
G37*
G36*
X228245D02*
X226844D01*
Y252067D01*
X226921Y251680D01*
X227140Y251353D01*
X227468Y251134D01*
X227854Y251057D01*
X228245D01*
Y252536D01*
D02*
G37*
G36*
X229035Y250124D02*
X228645D01*
Y248645D01*
X230045D01*
Y249114D01*
X229969Y249501D01*
X229750Y249828D01*
X229422Y250047D01*
X229035Y250124D01*
D02*
G37*
G36*
X228245D02*
X227854D01*
X227468Y250047D01*
X227140Y249828D01*
X226921Y249501D01*
X226844Y249114D01*
Y248645D01*
X228245D01*
Y250124D01*
D02*
G37*
G36*
X245380Y249022D02*
X239964D01*
Y246460D01*
X245380D01*
Y249022D01*
D02*
G37*
G36*
X239564D02*
X234147D01*
Y246460D01*
X239564D01*
Y249022D01*
D02*
G37*
G36*
X208894Y245713D02*
X208583D01*
X208227Y245642D01*
X207925Y245441D01*
X207724Y245139D01*
X207653Y244783D01*
Y244393D01*
X208894D01*
Y245713D01*
D02*
G37*
G36*
X245380Y246060D02*
X239964D01*
Y243498D01*
X245380D01*
Y246060D01*
D02*
G37*
G36*
X239564D02*
X234147D01*
Y243498D01*
X239564D01*
Y246060D01*
D02*
G37*
G36*
X252956Y244396D02*
Y242424D01*
X254573D01*
Y244396D01*
X252956D01*
D02*
G37*
G36*
X251483Y249120D02*
X248517D01*
Y245171D01*
X250695D01*
X250908Y245171D01*
X250939Y244396D01*
X250939Y244384D01*
Y243904D01*
X250939Y243882D01*
Y242424D01*
X252556D01*
Y244396D01*
X251726D01*
X251513Y244396D01*
X251483Y245171D01*
X251483Y245183D01*
Y245662D01*
X251483Y245685D01*
Y249120D01*
D02*
G37*
G36*
X208894Y240745D02*
X207653D01*
Y240354D01*
X207724Y239999D01*
X207925Y239697D01*
X208227Y239495D01*
X208583Y239425D01*
X208894D01*
Y240745D01*
D02*
G37*
G36*
X253383Y237891D02*
X252141D01*
Y237500D01*
X252212Y237144D01*
X252414Y236843D01*
X252715Y236641D01*
X253071Y236570D01*
X253383D01*
Y237891D01*
D02*
G37*
G36*
X230787Y232721D02*
X230476D01*
Y231401D01*
X231717D01*
Y231791D01*
X231646Y232147D01*
X231445Y232449D01*
X231143Y232650D01*
X230787Y232721D01*
D02*
G37*
G36*
X215577Y231572D02*
X214176D01*
Y230092D01*
X214567D01*
X214953Y230169D01*
X215281Y230388D01*
X215500Y230716D01*
X215577Y231102D01*
Y231572D01*
D02*
G37*
G36*
X213776D02*
X212376D01*
Y231102D01*
X212453Y230716D01*
X212672Y230388D01*
X212999Y230169D01*
X213386Y230092D01*
X213776D01*
Y231572D01*
D02*
G37*
G36*
X228584Y215170D02*
X228272D01*
X227916Y215099D01*
X227615Y214897D01*
X227413Y214596D01*
X227342Y214240D01*
Y213849D01*
X228584D01*
Y215170D01*
D02*
G37*
G36*
Y213449D02*
X227342D01*
Y213059D01*
X227413Y212703D01*
X227615Y212402D01*
X227916Y212200D01*
X228272Y212129D01*
X228584D01*
Y213449D01*
D02*
G37*
G36*
X261595Y211264D02*
X261283D01*
Y209944D01*
X262524D01*
Y210335D01*
X262453Y210690D01*
X262252Y210992D01*
X261950Y211193D01*
X261595Y211264D01*
D02*
G37*
G36*
X262524Y209544D02*
X261283D01*
Y208224D01*
X261595D01*
X261950Y208295D01*
X262252Y208496D01*
X262453Y208798D01*
X262524Y209154D01*
Y209544D01*
D02*
G37*
G36*
X229305Y211338D02*
X225749D01*
Y207191D01*
X225749Y207191D01*
X225846Y206404D01*
X225779Y206063D01*
X225901Y205449D01*
X226249Y204928D01*
X226770Y204580D01*
X227384Y204458D01*
X227999Y204580D01*
X228520Y204928D01*
X228868Y205449D01*
X228990Y206063D01*
X228922Y206404D01*
X229305Y207191D01*
X229305D01*
Y211338D01*
D02*
G37*
G36*
X275003Y131318D02*
Y126972D01*
X279350D01*
X279220Y127955D01*
X278764Y129058D01*
X278037Y130005D01*
X277090Y130732D01*
X275987Y131189D01*
X275003Y131318D01*
D02*
G37*
G36*
X274603D02*
X273620Y131189D01*
X272517Y130732D01*
X271570Y130005D01*
X270843Y129058D01*
X270386Y127955D01*
X270256Y126972D01*
X274603D01*
Y131318D01*
D02*
G37*
G36*
X279350Y126572D02*
X275003D01*
Y122225D01*
X275987Y122354D01*
X277090Y122811D01*
X278037Y123538D01*
X278764Y124485D01*
X279220Y125588D01*
X279350Y126572D01*
D02*
G37*
G36*
X274603D02*
X270256D01*
X270386Y125588D01*
X270843Y124485D01*
X271570Y123538D01*
X272517Y122811D01*
X273620Y122354D01*
X274603Y122225D01*
Y126572D01*
D02*
G37*
G36*
X255118Y131345D02*
X253935Y131189D01*
X252832Y130732D01*
X251885Y130005D01*
X251158Y129058D01*
X250701Y127955D01*
X250545Y126772D01*
X250701Y125588D01*
X251158Y124485D01*
X251885Y123538D01*
X252832Y122811D01*
X253935Y122354D01*
X255118Y122199D01*
X256302Y122354D01*
X257405Y122811D01*
X258352Y123538D01*
X259078Y124485D01*
X259535Y125588D01*
X259691Y126772D01*
X259535Y127955D01*
X259078Y129058D01*
X258352Y130005D01*
X257405Y130732D01*
X256302Y131189D01*
X255118Y131345D01*
D02*
G37*
G36*
X235433D02*
X234249Y131189D01*
X233147Y130732D01*
X232200Y130005D01*
X231473Y129058D01*
X231016Y127955D01*
X230860Y126772D01*
X231016Y125588D01*
X231473Y124485D01*
X232200Y123538D01*
X233147Y122811D01*
X234249Y122354D01*
X235433Y122199D01*
X236617Y122354D01*
X237720Y122811D01*
X238667Y123538D01*
X239393Y124485D01*
X239850Y125588D01*
X240006Y126772D01*
X239850Y127955D01*
X239393Y129058D01*
X238667Y130005D01*
X237720Y130732D01*
X236617Y131189D01*
X235433Y131345D01*
D02*
G37*
G36*
X274803Y111660D02*
X273620Y111504D01*
X272517Y111047D01*
X271570Y110320D01*
X270843Y109373D01*
X270386Y108270D01*
X270230Y107087D01*
X270386Y105903D01*
X270843Y104800D01*
X271570Y103853D01*
X272517Y103126D01*
X273620Y102670D01*
X274803Y102514D01*
X275987Y102670D01*
X277090Y103126D01*
X278037Y103853D01*
X278764Y104800D01*
X279220Y105903D01*
X279376Y107087D01*
X279220Y108270D01*
X278764Y109373D01*
X278037Y110320D01*
X277090Y111047D01*
X275987Y111504D01*
X274803Y111660D01*
D02*
G37*
G36*
X255118D02*
X253935Y111504D01*
X252832Y111047D01*
X251885Y110320D01*
X251158Y109373D01*
X250701Y108270D01*
X250545Y107087D01*
X250701Y105903D01*
X251158Y104800D01*
X251885Y103853D01*
X252832Y103126D01*
X253935Y102670D01*
X255118Y102514D01*
X256302Y102670D01*
X257405Y103126D01*
X258352Y103853D01*
X259078Y104800D01*
X259535Y105903D01*
X259691Y107087D01*
X259535Y108270D01*
X259078Y109373D01*
X258352Y110320D01*
X257405Y111047D01*
X256302Y111504D01*
X255118Y111660D01*
D02*
G37*
G36*
X235433D02*
X234249Y111504D01*
X233147Y111047D01*
X232200Y110320D01*
X231473Y109373D01*
X231016Y108270D01*
X230860Y107087D01*
X231016Y105903D01*
X231473Y104800D01*
X232200Y103853D01*
X233147Y103126D01*
X234249Y102670D01*
X235433Y102514D01*
X236617Y102670D01*
X237720Y103126D01*
X238667Y103853D01*
X239393Y104800D01*
X239850Y105903D01*
X240006Y107087D01*
X239850Y108270D01*
X239393Y109373D01*
X238667Y110320D01*
X237720Y111047D01*
X236617Y111504D01*
X235433Y111660D01*
D02*
G37*
%LPD*%
G36*
X203619Y277957D02*
Y227068D01*
X203619Y227068D01*
X203680Y226758D01*
X203856Y226496D01*
X211042Y219310D01*
X211304Y219134D01*
X211614Y219073D01*
X211614Y219073D01*
X238082D01*
X238226Y218770D01*
X238079Y218443D01*
X237705Y218034D01*
X208991D01*
X199628Y227396D01*
Y277717D01*
X200408Y277967D01*
X200929Y277619D01*
X201543Y277497D01*
X202158Y277619D01*
X202679Y277967D01*
X202831Y278195D01*
X203619Y277957D01*
D02*
G37*
G36*
X240579Y230094D02*
X240925Y229309D01*
X240751Y229049D01*
X240629Y228435D01*
X240705Y228050D01*
X238662Y226006D01*
X232326D01*
X232304Y226016D01*
X231717Y226673D01*
Y227064D01*
X230276D01*
Y227464D01*
X231717D01*
Y227854D01*
X232421Y228351D01*
X235853D01*
X235853Y228351D01*
X236162Y228412D01*
X236425Y228588D01*
X237934Y230096D01*
X240576D01*
X240579Y230094D01*
D02*
G37*
G36*
X248285Y198968D02*
X248858Y198681D01*
X248893Y198648D01*
X248890Y198269D01*
X248752Y198177D01*
X248551Y197875D01*
X248480Y197520D01*
Y196496D01*
X248551Y196140D01*
X248752Y195839D01*
X248962Y195699D01*
X249011Y195276D01*
X248962Y194853D01*
X248752Y194712D01*
X248551Y194411D01*
X248480Y194055D01*
Y193032D01*
X248551Y192676D01*
X248752Y192374D01*
X249054Y192173D01*
X249191Y192145D01*
Y190394D01*
X248188Y189392D01*
X243109D01*
X242688Y190179D01*
X242724Y190232D01*
X242846Y190847D01*
X242724Y191461D01*
X242667Y191546D01*
X242654Y191602D01*
X242778Y191732D01*
X243479Y192101D01*
X243806Y191882D01*
X244193Y191805D01*
X244584D01*
Y193484D01*
X244783D01*
Y193684D01*
X246384D01*
Y194153D01*
X246307Y194540D01*
X246088Y194868D01*
X245985Y194937D01*
X245953Y195040D01*
Y195708D01*
X245985Y195811D01*
X246088Y195880D01*
X246307Y196208D01*
X246384Y196595D01*
Y197933D01*
X246350Y198104D01*
X246782Y198623D01*
X246965Y198739D01*
X247215Y198690D01*
X247829Y198812D01*
X248092Y198987D01*
X248285Y198968D01*
D02*
G37*
%LPC*%
G36*
X246384Y193284D02*
X244984D01*
Y191805D01*
X245374D01*
X245760Y191882D01*
X246088Y192101D01*
X246307Y192429D01*
X246384Y192815D01*
Y193284D01*
D02*
G37*
%LPD*%
D12*
X252756Y227953D02*
X254851D01*
X264567Y237669D01*
Y252697D01*
X279921Y268051D02*
Y282165D01*
X264567Y252697D02*
X279921Y268051D01*
Y282165D02*
X291201Y293445D01*
X249213Y225984D02*
X255118D01*
X267323Y238189D01*
Y250103D01*
X284606Y267387D01*
Y277598D01*
X290709Y283701D01*
X219849Y254560D02*
Y257251D01*
X233858Y271260D02*
Y276772D01*
X219849Y257251D02*
X233858Y271260D01*
X274410Y215354D02*
Y240756D01*
X259842Y200787D02*
X274410Y215354D01*
X274508Y243898D02*
X274606Y243996D01*
X274508Y240854D02*
Y243898D01*
X274410Y240756D02*
X274508Y240854D01*
X271654Y233268D02*
Y238976D01*
X271621Y239009D02*
X271654Y238976D01*
X271621Y239009D02*
Y243970D01*
X253839Y215453D02*
X271654Y233268D01*
X271588Y244003D02*
X271621Y243970D01*
X243701Y200787D02*
X244783Y201870D01*
Y203937D01*
X252756Y215453D02*
X253839D01*
X240158Y222047D02*
Y223228D01*
Y222047D02*
X241240Y220965D01*
Y219882D02*
Y220965D01*
X243004Y223130D02*
Y223138D01*
Y223130D02*
X243012Y223122D01*
Y219882D02*
Y223122D01*
X198819Y227061D02*
X208655Y217224D01*
X194744Y288445D02*
X198819Y284370D01*
Y227061D02*
Y284370D01*
X204428Y227068D02*
Y280218D01*
X211614Y219882D02*
X239469D01*
X204428Y227068D02*
X211614Y219882D01*
X208655Y217224D02*
X236811D01*
X201543Y283102D02*
X204428Y280218D01*
X231201Y266142D02*
X237795D01*
X248524Y276870D01*
X221850Y256791D02*
X231201Y266142D01*
X221035Y227264D02*
X226811D01*
X238997Y225197D02*
X242235Y228435D01*
X226811Y227185D02*
X228799Y225197D01*
X238997D01*
X226811Y227185D02*
Y227249D01*
X237598Y230906D02*
X244322D01*
X235853Y229160D02*
X237598Y230906D01*
X228773Y229160D02*
X235853D01*
X246555Y219882D02*
Y227795D01*
X226811Y231122D02*
X228773Y229160D01*
X226811Y227249D02*
X227505Y226555D01*
X227520D01*
X246555Y227795D02*
X246865Y228105D01*
Y228424D01*
X226811Y227249D02*
Y227264D01*
X244322Y230906D02*
X244783Y230444D01*
X226811Y231122D02*
Y231216D01*
X223130Y232087D02*
X225940D01*
X226811Y231216D01*
X244783Y219882D02*
Y230444D01*
X219783Y228515D02*
X221035Y227264D01*
X219783Y230768D02*
X220374Y231358D01*
X219783Y228515D02*
Y230768D01*
X220374Y231358D02*
Y232087D01*
X252756Y213681D02*
X253839D01*
X255906Y215748D02*
X260236D01*
X253839Y213681D02*
X255906Y215748D01*
X221850Y243996D02*
Y246260D01*
Y243996D02*
X224803Y241043D01*
X253051Y190157D02*
Y193543D01*
Y190157D02*
X254626Y188583D01*
X273845D01*
X218674D02*
X248524D01*
X250000Y190059D02*
Y193543D01*
X248524Y188583D02*
X250000Y190059D01*
X246555Y201223D02*
X247215Y200563D01*
X246555Y201223D02*
Y203937D01*
X248327Y202658D02*
X250000Y200984D01*
X248327Y202658D02*
Y203937D01*
X250000Y197008D02*
Y200984D01*
X250098Y202854D02*
Y203937D01*
Y202854D02*
X253051Y199902D01*
Y197008D02*
Y199902D01*
X257598Y209724D02*
X257618Y209744D01*
X257598Y207303D02*
Y209724D01*
X257579Y207283D02*
X257598Y207303D01*
X252756Y210138D02*
X257224D01*
X257618Y209744D01*
X278176Y192913D02*
X282677D01*
X273845Y188583D02*
X278176Y192913D01*
X209842D02*
X214344D01*
X218674Y188583D01*
X241240Y190847D02*
Y193543D01*
X244783Y190847D02*
Y193484D01*
X241240Y197008D02*
X241368Y197136D01*
X244655D01*
X244783Y197264D01*
X241240Y197008D02*
Y203937D01*
X261102Y207303D02*
Y209724D01*
Y207303D02*
X261122Y207283D01*
X261083Y209744D02*
X261102Y209724D01*
X232248Y213728D02*
X233973Y215453D01*
X227384Y209121D02*
X227527Y209265D01*
X228714Y213580D02*
X228784Y213649D01*
X226619Y213510D02*
X226688Y213580D01*
X228714D01*
X233973Y215453D02*
X236811D01*
X255362Y211910D02*
X256406Y212953D01*
X227384Y206063D02*
Y209121D01*
X232248Y209268D02*
Y213649D01*
Y213728D01*
Y209268D02*
X232252Y209265D01*
X236811Y211910D02*
X244783D01*
X255362D01*
X228445Y244665D02*
X231317D01*
X231523Y244871D01*
X259654Y238405D02*
X260816Y239567D01*
X259339Y238091D02*
X259654Y238405D01*
X260819Y239567D02*
X260925D01*
X260816D02*
X260819D01*
X257047Y238169D02*
Y241791D01*
Y238091D02*
Y238169D01*
X257264Y242008D02*
X257480Y242224D01*
X257047Y241791D02*
X257264Y242008D01*
X232087Y276476D02*
X232382Y276772D01*
X253642Y251969D02*
X257382D01*
X249902D02*
X253642D01*
X253691Y256939D02*
X253740Y256988D01*
X253691Y252018D02*
Y256939D01*
X253642Y251969D02*
X253691Y252018D01*
X252658Y242126D02*
X252756Y242224D01*
X249902Y242126D02*
X252658D01*
X250787Y237992D02*
X250837Y238041D01*
X253533D01*
X253583Y238091D01*
X271588Y247468D02*
Y250263D01*
X274606Y247461D02*
Y250354D01*
X239764Y246260D02*
X240158D01*
X242126Y248228D01*
Y250394D01*
X238878Y246260D02*
X239764D01*
X236910Y248228D02*
X238878Y246260D01*
X236910Y248228D02*
Y250394D01*
X213976Y235551D02*
Y237205D01*
Y234693D02*
Y235551D01*
X213937Y235591D02*
X213976Y235551D01*
X210768Y235591D02*
X213937D01*
X210728Y235630D02*
X210768Y235591D01*
X230276Y227264D02*
X230325Y227215D01*
X232825D01*
X232874Y227165D01*
X230276Y231201D02*
X232874D01*
X206398Y241043D02*
X206447Y240994D01*
X209045D01*
X209095Y240945D01*
X206496Y244193D02*
X209095D01*
X221752Y229331D02*
Y232087D01*
X223130Y235236D02*
Y239047D01*
X219882Y242295D02*
X223130Y239047D01*
X212559Y240945D02*
X218532D01*
X219882Y242295D01*
Y246260D01*
X217913Y245472D02*
Y246260D01*
Y243110D02*
Y245472D01*
X216634Y244193D02*
X217913Y245472D01*
X212559Y244193D02*
X216634D01*
X217594Y243110D02*
X217913D01*
X220374Y235236D02*
Y235965D01*
X219557Y236782D02*
X220374Y235965D01*
X218336Y236782D02*
X219557D01*
X218110Y237008D02*
X218336Y236782D01*
X213976Y237205D02*
X215748Y238976D01*
X221752Y235236D02*
Y238358D01*
X221133Y238976D02*
X221752Y238358D01*
X215748Y238976D02*
X221133D01*
X213839Y231634D02*
X213976Y231772D01*
X211063Y231634D02*
X213839D01*
X210925Y231496D02*
X211063Y231634D01*
X228560Y248330D02*
X231521D01*
X228445Y248445D02*
X228560Y248330D01*
X228158Y252264D02*
X228445D01*
X231388Y252746D02*
X231398Y252756D01*
X228455Y252746D02*
X231388D01*
X228445Y252736D02*
X228455Y252746D01*
X219849Y254560D02*
X219882Y254528D01*
X221850D02*
Y256791D01*
X228445Y252264D02*
Y252736D01*
Y248524D02*
Y252264D01*
X227779Y251598D02*
Y251885D01*
X226575Y250394D02*
X227779Y251598D01*
Y251885D02*
X228158Y252264D01*
X228445Y248445D02*
Y248524D01*
X220866Y250394D02*
X226575D01*
X228445Y248524D01*
X228268Y244488D02*
X228445Y244665D01*
X223819Y245472D02*
Y246260D01*
Y245472D02*
X224016Y245276D01*
X225472D01*
X226260Y244488D02*
X228268D01*
X225472Y245276D02*
X226260Y244488D01*
X253760Y261398D02*
X253780Y261417D01*
X253760Y257008D02*
Y261398D01*
X253740Y256988D02*
X253760Y257008D01*
X257480Y242224D02*
Y247146D01*
X217896Y254545D02*
X217913Y254528D01*
X215453Y254545D02*
X217896D01*
D13*
X239764Y246260D02*
D03*
Y256496D02*
D03*
D14*
X271588Y244003D02*
D03*
Y247468D02*
D03*
X274606Y243996D02*
D03*
Y247461D02*
D03*
X253051Y197008D02*
D03*
Y193543D02*
D03*
X241240D02*
D03*
Y197008D02*
D03*
X250000D02*
D03*
Y193543D02*
D03*
D15*
X260236Y215748D02*
D03*
D16*
X228445Y256516D02*
D03*
Y252736D02*
D03*
X213976Y231772D02*
D03*
Y235551D02*
D03*
X228445Y248445D02*
D03*
Y244665D02*
D03*
X244783Y193484D02*
D03*
Y197264D02*
D03*
D17*
X230276Y231201D02*
D03*
X226811D02*
D03*
X209095Y244193D02*
D03*
X212559D02*
D03*
X230276Y227264D02*
D03*
X226811D02*
D03*
X253780Y261417D02*
D03*
X257244D02*
D03*
X253583Y238091D02*
D03*
X257047D02*
D03*
X209095Y240945D02*
D03*
X212559D02*
D03*
X257618Y209744D02*
D03*
X261083Y209744D02*
D03*
X228784Y213649D02*
D03*
X232248D02*
D03*
D18*
X252756Y242224D02*
D03*
X257480D02*
D03*
D19*
X223130Y235236D02*
D03*
X221752Y235236D02*
D03*
X220374Y235236D02*
D03*
X223130Y232087D02*
D03*
X221752Y232087D02*
D03*
X220374D02*
D03*
D20*
X220866Y250394D02*
D03*
D21*
X223819Y246260D02*
D03*
X221850D02*
D03*
X219882D02*
D03*
X217913D02*
D03*
Y254528D02*
D03*
X219882D02*
D03*
X221850D02*
D03*
X223819D02*
D03*
D22*
X257480Y256988D02*
D03*
X253740Y256988D02*
D03*
X250000Y256988D02*
D03*
X257480Y247146D02*
D03*
X250000Y247146D02*
D03*
D23*
X252756Y206594D02*
D03*
Y208366D02*
D03*
Y210138D02*
D03*
X252756Y211910D02*
D03*
X252756Y213681D02*
D03*
Y215453D02*
D03*
Y217224D02*
D03*
X236811D02*
D03*
Y215453D02*
D03*
Y213681D02*
D03*
X236811Y211910D02*
D03*
X236811Y210138D02*
D03*
Y208366D02*
D03*
Y206594D02*
D03*
D24*
X250098Y219882D02*
D03*
X248327D02*
D03*
X246555D02*
D03*
X244783Y219882D02*
D03*
X243012Y219882D02*
D03*
X241240D02*
D03*
X239469D02*
D03*
Y203937D02*
D03*
X241240D02*
D03*
X243012D02*
D03*
X244783Y203937D02*
D03*
X246555Y203937D02*
D03*
X248327D02*
D03*
X250098D02*
D03*
D25*
X244783Y211910D02*
D03*
D26*
X232252Y209265D02*
D03*
X227527D02*
D03*
D48*
X245827Y310630D02*
X255827D01*
X245827Y299213D02*
X255827D01*
X255728Y267303D02*
Y299213D01*
X245728Y300295D02*
Y310531D01*
X228445Y256496D02*
X239764D01*
X240256Y256988D02*
X250000D01*
X239764Y256496D02*
X240256Y256988D01*
X257283Y261535D02*
Y265748D01*
Y261457D02*
Y261535D01*
X257244Y261496D02*
X257283Y261535D01*
X257244Y261417D02*
X257283Y261457D01*
X255728Y267303D02*
X257283Y265748D01*
X225020Y256516D02*
X228445D01*
X223819Y254528D02*
Y255315D01*
X225020Y256516D01*
X255230Y263510D02*
X257244Y261496D01*
X252645Y263510D02*
X255230D01*
X250000Y260865D02*
X252645Y263510D01*
X250000Y256988D02*
Y260865D01*
X257362Y257106D02*
X257480Y256988D01*
X257362Y257106D02*
Y261299D01*
X257244Y261417D02*
X257362Y261299D01*
D49*
X259646Y238091D02*
X260925Y236811D01*
X257264Y238386D02*
Y242008D01*
Y238386D02*
X257283Y238405D01*
X257047Y238169D02*
X257264Y238386D01*
X259654Y238405D02*
X259657D01*
X257283D02*
X259654D01*
X259657D02*
X260819Y239567D01*
X257480Y247146D02*
X257480Y247146D01*
X257480Y242224D02*
Y247146D01*
D50*
X248524Y276870D02*
D03*
X233858Y276772D02*
D03*
D51*
X203622Y310630D02*
D03*
X213622D02*
D03*
X255827D02*
D03*
X245827D02*
D03*
X235827D02*
D03*
X255827Y299213D02*
D03*
X245827D02*
D03*
X235827D02*
D03*
D52*
X223622Y310630D02*
D03*
X265827D02*
D03*
Y299213D02*
D03*
D53*
X274803Y107087D02*
D03*
X255118D02*
D03*
X235433D02*
D03*
X274803Y126772D02*
D03*
X255118D02*
D03*
X235433D02*
D03*
D54*
X282677Y192913D02*
D03*
X209842D02*
D03*
D55*
X219310Y305002D02*
D03*
X254033Y116569D02*
D03*
X256986D02*
D03*
X259938D02*
D03*
X262842Y116032D02*
D03*
X264930Y113944D02*
D03*
X267018Y111857D02*
D03*
X269106Y109769D02*
D03*
X272234Y112671D02*
D03*
X270146Y114759D02*
D03*
X268058Y116847D02*
D03*
X265970Y118935D02*
D03*
X263636Y120744D02*
D03*
X260685Y120833D02*
D03*
X257732D02*
D03*
X254779D02*
D03*
X251827D02*
D03*
X248874D02*
D03*
X245921D02*
D03*
X242968D02*
D03*
X240016D02*
D03*
X237063D02*
D03*
X234110D02*
D03*
X231157D02*
D03*
X228205D02*
D03*
X225252D02*
D03*
X222299D02*
D03*
X219346D02*
D03*
X216394D02*
D03*
X213441D02*
D03*
X210488D02*
D03*
X207535D02*
D03*
X204583D02*
D03*
X201630D02*
D03*
X198677D02*
D03*
X195724D02*
D03*
X193467Y122737D02*
D03*
X191379Y124825D02*
D03*
X189292Y126913D02*
D03*
X187204Y129001D02*
D03*
X185116Y131088D02*
D03*
X183028Y133176D02*
D03*
X182053Y135964D02*
D03*
Y138917D02*
D03*
Y141869D02*
D03*
Y144822D02*
D03*
Y147775D02*
D03*
Y150727D02*
D03*
Y153680D02*
D03*
Y156633D02*
D03*
Y159586D02*
D03*
Y162539D02*
D03*
Y165491D02*
D03*
Y168444D02*
D03*
Y171397D02*
D03*
Y174349D02*
D03*
Y177302D02*
D03*
Y180255D02*
D03*
Y183208D02*
D03*
Y186161D02*
D03*
Y189113D02*
D03*
Y192066D02*
D03*
Y195019D02*
D03*
Y197971D02*
D03*
Y200924D02*
D03*
Y203877D02*
D03*
Y206830D02*
D03*
Y209783D02*
D03*
Y212735D02*
D03*
Y215688D02*
D03*
Y218641D02*
D03*
Y221593D02*
D03*
Y224546D02*
D03*
Y227499D02*
D03*
Y230452D02*
D03*
X184059Y232619D02*
D03*
X186147Y234707D02*
D03*
X188235Y236794D02*
D03*
X190323Y238882D02*
D03*
X192411Y240970D02*
D03*
X194499Y243058D02*
D03*
X196587Y245146D02*
D03*
X200762Y249322D02*
D03*
X207026Y255586D02*
D03*
X209114Y257674D02*
D03*
X211202Y259762D02*
D03*
X213290Y261849D02*
D03*
X215378Y263937D02*
D03*
X217466Y266025D02*
D03*
X219554Y268113D02*
D03*
X221551Y270288D02*
D03*
X221817Y273229D02*
D03*
Y276182D02*
D03*
Y282087D02*
D03*
Y285040D02*
D03*
Y296851D02*
D03*
Y299803D02*
D03*
X222892Y302554D02*
D03*
X224980Y304642D02*
D03*
X201096Y305262D02*
D03*
X202557Y302696D02*
D03*
X204167Y300221D02*
D03*
Y297268D02*
D03*
Y285457D02*
D03*
X202246Y271403D02*
D03*
X195983Y265140D02*
D03*
X193895Y263052D02*
D03*
X191807Y260964D02*
D03*
X189719Y258876D02*
D03*
X187631Y256788D02*
D03*
X185543Y254700D02*
D03*
X183455Y252612D02*
D03*
X181367Y250524D02*
D03*
X179279Y248436D02*
D03*
X177191Y246349D02*
D03*
X175103Y244261D02*
D03*
X173016Y242173D02*
D03*
X170928Y240085D02*
D03*
X168957Y237886D02*
D03*
X168734Y234942D02*
D03*
Y231989D02*
D03*
Y229036D02*
D03*
Y226083D02*
D03*
Y223130D02*
D03*
Y220178D02*
D03*
Y217225D02*
D03*
Y214272D02*
D03*
Y211319D02*
D03*
Y208367D02*
D03*
Y205414D02*
D03*
Y202461D02*
D03*
Y199509D02*
D03*
Y196556D02*
D03*
Y193603D02*
D03*
Y190650D02*
D03*
Y187698D02*
D03*
Y184745D02*
D03*
Y181792D02*
D03*
Y178839D02*
D03*
Y175886D02*
D03*
Y172934D02*
D03*
Y169981D02*
D03*
Y167028D02*
D03*
Y164076D02*
D03*
Y161123D02*
D03*
Y158170D02*
D03*
Y155217D02*
D03*
Y152264D02*
D03*
Y149312D02*
D03*
Y146359D02*
D03*
Y143406D02*
D03*
Y140454D02*
D03*
Y137501D02*
D03*
Y134548D02*
D03*
Y131595D02*
D03*
X168773Y128643D02*
D03*
X170466Y126224D02*
D03*
X172554Y124136D02*
D03*
X174642Y122048D02*
D03*
X176730Y119960D02*
D03*
X178818Y117872D02*
D03*
X180905Y115784D02*
D03*
X182993Y113696D02*
D03*
X185081Y111608D02*
D03*
X187169Y109520D02*
D03*
X189257Y107432D02*
D03*
X192035Y106431D02*
D03*
X194988D02*
D03*
X197940D02*
D03*
X200893D02*
D03*
X203846D02*
D03*
X206799D02*
D03*
X209751D02*
D03*
X212704D02*
D03*
X215657D02*
D03*
X218610D02*
D03*
X221562D02*
D03*
X224515D02*
D03*
X227468D02*
D03*
X208431Y275642D02*
D03*
Y281547D02*
D03*
Y284500D02*
D03*
Y296311D02*
D03*
Y299264D02*
D03*
X208382Y302216D02*
D03*
X206665Y304618D02*
D03*
X211096Y304717D02*
D03*
Y301764D02*
D03*
Y298812D02*
D03*
Y284048D02*
D03*
Y281095D02*
D03*
Y275190D02*
D03*
X210281Y272352D02*
D03*
X208193Y270264D02*
D03*
X201929Y264000D02*
D03*
X195666Y257736D02*
D03*
X193578Y255648D02*
D03*
X191490Y253560D02*
D03*
X189402Y251472D02*
D03*
X187314Y249384D02*
D03*
X185226Y247297D02*
D03*
X183138Y245209D02*
D03*
X181050Y243121D02*
D03*
X178963Y241033D02*
D03*
X176875Y238945D02*
D03*
X174787Y236857D02*
D03*
X173360Y234272D02*
D03*
Y231319D02*
D03*
Y228366D02*
D03*
Y225414D02*
D03*
Y222461D02*
D03*
Y219508D02*
D03*
Y216555D02*
D03*
Y213603D02*
D03*
Y210650D02*
D03*
Y207697D02*
D03*
Y204744D02*
D03*
Y201792D02*
D03*
Y198839D02*
D03*
Y195886D02*
D03*
Y192933D02*
D03*
Y189981D02*
D03*
Y187028D02*
D03*
Y184075D02*
D03*
Y181122D02*
D03*
Y178170D02*
D03*
Y175217D02*
D03*
Y172264D02*
D03*
Y169311D02*
D03*
Y166359D02*
D03*
Y163406D02*
D03*
Y160453D02*
D03*
Y157500D02*
D03*
Y154548D02*
D03*
Y151595D02*
D03*
Y148642D02*
D03*
Y145689D02*
D03*
Y142737D02*
D03*
Y139784D02*
D03*
Y136831D02*
D03*
Y133878D02*
D03*
X173395Y130926D02*
D03*
X175079Y128500D02*
D03*
X177167Y126412D02*
D03*
X179255Y124325D02*
D03*
X181343Y122237D02*
D03*
X183431Y120149D02*
D03*
X185519Y118061D02*
D03*
X187606Y115973D02*
D03*
X189694Y113885D02*
D03*
X191837Y111853D02*
D03*
X194762Y111451D02*
D03*
X197715D02*
D03*
X200667D02*
D03*
X203620D02*
D03*
X206573D02*
D03*
X209526D02*
D03*
X212478D02*
D03*
X215431D02*
D03*
X218384D02*
D03*
X221337D02*
D03*
X224289D02*
D03*
X227242D02*
D03*
X230195D02*
D03*
X239053D02*
D03*
X242006D02*
D03*
X244959D02*
D03*
X247766Y110537D02*
D03*
X251390Y112944D02*
D03*
X249302Y115032D02*
D03*
X246429Y115715D02*
D03*
X243477D02*
D03*
X240524D02*
D03*
X237571D02*
D03*
X234618D02*
D03*
X231665D02*
D03*
X228713D02*
D03*
X225760D02*
D03*
X222807D02*
D03*
X219854D02*
D03*
X216902D02*
D03*
X213949D02*
D03*
X210996D02*
D03*
X208043D02*
D03*
X205091D02*
D03*
X202138D02*
D03*
X199185D02*
D03*
X196232D02*
D03*
X193334Y116276D02*
D03*
X191246Y118364D02*
D03*
X189158Y120452D02*
D03*
X187070Y122540D02*
D03*
X184982Y124628D02*
D03*
X182894Y126716D02*
D03*
X180806Y128804D02*
D03*
X178718Y130892D02*
D03*
X177624Y133634D02*
D03*
Y136587D02*
D03*
Y139540D02*
D03*
Y142492D02*
D03*
Y145445D02*
D03*
Y148398D02*
D03*
Y151351D02*
D03*
Y154304D02*
D03*
Y157256D02*
D03*
Y160209D02*
D03*
Y163162D02*
D03*
Y166114D02*
D03*
Y169067D02*
D03*
Y172020D02*
D03*
Y174973D02*
D03*
Y177926D02*
D03*
Y180878D02*
D03*
Y183831D02*
D03*
Y186784D02*
D03*
Y189736D02*
D03*
Y192689D02*
D03*
Y195642D02*
D03*
Y198595D02*
D03*
Y201548D02*
D03*
Y204500D02*
D03*
Y207453D02*
D03*
Y210406D02*
D03*
Y213358D02*
D03*
Y216311D02*
D03*
Y219264D02*
D03*
Y222217D02*
D03*
Y225169D02*
D03*
Y228122D02*
D03*
Y231075D02*
D03*
X177968Y234008D02*
D03*
X180056Y236096D02*
D03*
X182144Y238183D02*
D03*
X184232Y240271D02*
D03*
X186319Y242359D02*
D03*
X188407Y244447D02*
D03*
X190495Y246535D02*
D03*
X192583Y248623D02*
D03*
X194671Y250711D02*
D03*
X196759Y252799D02*
D03*
X200935Y256975D02*
D03*
X207199Y263238D02*
D03*
X209286Y265326D02*
D03*
X211374Y267414D02*
D03*
X213462Y269502D02*
D03*
X215271Y271836D02*
D03*
X215360Y274787D02*
D03*
Y283645D02*
D03*
Y286598D02*
D03*
Y298409D02*
D03*
Y301362D02*
D03*
Y304315D02*
D03*
X290551Y303543D02*
D03*
X194783Y303445D02*
D03*
X291339Y298819D02*
D03*
X194862Y298445D02*
D03*
X252756Y227953D02*
D03*
X249213Y225984D02*
D03*
X290709Y283701D02*
D03*
X274410Y240756D02*
D03*
X271654Y238976D02*
D03*
X243701Y200787D02*
D03*
X259842D02*
D03*
X240158Y223228D02*
D03*
X243004Y223130D02*
D03*
D56*
X290913Y279102D02*
D03*
X201543D02*
D03*
X291322Y288603D02*
D03*
X194744Y288445D02*
D03*
X291201Y293445D02*
D03*
X194744D02*
D03*
X275984Y303543D02*
D03*
X201543Y283102D02*
D03*
X173209Y274823D02*
D03*
Y307067D02*
D03*
X282638Y275236D02*
D03*
X242235Y228435D02*
D03*
X246865D02*
D03*
X224803Y241043D02*
D03*
X247215Y200295D02*
D03*
X241240Y190847D02*
D03*
X244783D02*
D03*
X261122Y207283D02*
D03*
X226619Y213510D02*
D03*
X256406Y212953D02*
D03*
X257579Y207283D02*
D03*
X227384Y206063D02*
D03*
X231523Y244871D02*
D03*
X249902Y242126D02*
D03*
X250787Y237992D02*
D03*
X260925Y236811D02*
D03*
Y239567D02*
D03*
X271588Y250263D02*
D03*
X274606Y250354D02*
D03*
X242126Y250394D02*
D03*
X236910D02*
D03*
X210728Y235630D02*
D03*
X232874Y227165D02*
D03*
Y231201D02*
D03*
X206398Y241043D02*
D03*
X206496Y244193D02*
D03*
X221752Y229331D02*
D03*
X217913Y243110D02*
D03*
X218110Y237008D02*
D03*
X210925Y231496D02*
D03*
X231521Y248330D02*
D03*
X231398Y252756D02*
D03*
X220866Y250394D02*
D03*
X257382Y251969D02*
D03*
X253642D02*
D03*
X249902D02*
D03*
X215453Y254545D02*
D03*
D57*
X247146Y209547D02*
D03*
X242421Y209547D02*
D03*
X247146Y214272D02*
D03*
X242421D02*
D03*
M02*
