G04*
G04 #@! TF.GenerationSoftware,Altium Limited,Altium Designer,21.7.2 (23)*
G04*
G04 Layer_Color=8388736*
%FSLAX25Y25*%
%MOIN*%
G70*
G04*
G04 #@! TF.SameCoordinates,2BEB94BA-C242-4871-AFB5-1AACED26611A*
G04*
G04*
G04 #@! TF.FilePolarity,Negative*
G04*
G01*
G75*
%ADD27R,0.11024X0.05315*%
G04:AMPARAMS|DCode=28|XSize=26.38mil|YSize=27.95mil|CornerRadius=8.07mil|HoleSize=0mil|Usage=FLASHONLY|Rotation=270.000|XOffset=0mil|YOffset=0mil|HoleType=Round|Shape=RoundedRectangle|*
%AMROUNDEDRECTD28*
21,1,0.02638,0.01181,0,0,270.0*
21,1,0.01024,0.02795,0,0,270.0*
1,1,0.01614,-0.00591,-0.00512*
1,1,0.01614,-0.00591,0.00512*
1,1,0.01614,0.00591,0.00512*
1,1,0.01614,0.00591,-0.00512*
%
%ADD28ROUNDEDRECTD28*%
%ADD29C,0.04528*%
G04:AMPARAMS|DCode=30|XSize=31.1mil|YSize=29.53mil|CornerRadius=8.86mil|HoleSize=0mil|Usage=FLASHONLY|Rotation=90.000|XOffset=0mil|YOffset=0mil|HoleType=Round|Shape=RoundedRectangle|*
%AMROUNDEDRECTD30*
21,1,0.03110,0.01181,0,0,90.0*
21,1,0.01339,0.02953,0,0,90.0*
1,1,0.01772,0.00591,0.00669*
1,1,0.01772,0.00591,-0.00669*
1,1,0.01772,-0.00591,-0.00669*
1,1,0.01772,-0.00591,0.00669*
%
%ADD30ROUNDEDRECTD30*%
G04:AMPARAMS|DCode=31|XSize=26.38mil|YSize=27.95mil|CornerRadius=8.07mil|HoleSize=0mil|Usage=FLASHONLY|Rotation=0.000|XOffset=0mil|YOffset=0mil|HoleType=Round|Shape=RoundedRectangle|*
%AMROUNDEDRECTD31*
21,1,0.02638,0.01181,0,0,0.0*
21,1,0.01024,0.02795,0,0,0.0*
1,1,0.01614,0.00512,-0.00591*
1,1,0.01614,-0.00512,-0.00591*
1,1,0.01614,-0.00512,0.00591*
1,1,0.01614,0.00512,0.00591*
%
%ADD31ROUNDEDRECTD31*%
%ADD32R,0.03425X0.04134*%
%ADD33R,0.01260X0.02953*%
%ADD34R,0.07284X0.04528*%
%ADD35R,0.01772X0.03347*%
%ADD36R,0.02756X0.03740*%
%ADD37O,0.03543X0.01378*%
%ADD38O,0.01378X0.03543*%
%ADD39R,0.10433X0.10433*%
%ADD40R,0.03347X0.03937*%
%ADD41C,0.07480*%
%ADD42C,0.06496*%
%ADD43R,0.06496X0.06496*%
%ADD44C,0.08858*%
%ADD45C,0.18012*%
%ADD46C,0.02362*%
%ADD47C,0.02559*%
D27*
X239764Y246260D02*
D03*
Y256496D02*
D03*
D28*
X271588Y244003D02*
D03*
Y247468D02*
D03*
X274606Y243996D02*
D03*
Y247461D02*
D03*
X253051Y197008D02*
D03*
Y193543D02*
D03*
X241240D02*
D03*
Y197008D02*
D03*
X250000D02*
D03*
Y193543D02*
D03*
D29*
X260236Y215748D02*
D03*
D30*
X228445Y256516D02*
D03*
Y252736D02*
D03*
X213976Y231772D02*
D03*
Y235551D02*
D03*
X228445Y248445D02*
D03*
Y244665D02*
D03*
X244783Y193484D02*
D03*
Y197264D02*
D03*
D31*
X230276Y231201D02*
D03*
X226811D02*
D03*
X209095Y244193D02*
D03*
X212559D02*
D03*
X230276Y227264D02*
D03*
X226811D02*
D03*
X253780Y261417D02*
D03*
X257244D02*
D03*
X253583Y238091D02*
D03*
X257047D02*
D03*
X209095Y240945D02*
D03*
X212559D02*
D03*
X257618Y209744D02*
D03*
X261083Y209744D02*
D03*
X228784Y213649D02*
D03*
X232248D02*
D03*
D32*
X252756Y242224D02*
D03*
X257480D02*
D03*
D33*
X223130Y235236D02*
D03*
X221752Y235236D02*
D03*
X220374Y235236D02*
D03*
X223130Y232087D02*
D03*
X221752Y232087D02*
D03*
X220374D02*
D03*
D34*
X220866Y250394D02*
D03*
D35*
X223819Y246260D02*
D03*
X221850D02*
D03*
X219882D02*
D03*
X217913D02*
D03*
Y254528D02*
D03*
X219882D02*
D03*
X221850D02*
D03*
X223819D02*
D03*
D36*
X257480Y256988D02*
D03*
X253740Y256988D02*
D03*
X250000Y256988D02*
D03*
X257480Y247146D02*
D03*
X250000Y247146D02*
D03*
D37*
X252756Y206594D02*
D03*
Y208366D02*
D03*
Y210138D02*
D03*
X252756Y211910D02*
D03*
X252756Y213681D02*
D03*
Y215453D02*
D03*
Y217224D02*
D03*
X236811D02*
D03*
Y215453D02*
D03*
Y213681D02*
D03*
X236811Y211910D02*
D03*
X236811Y210138D02*
D03*
Y208366D02*
D03*
Y206594D02*
D03*
D38*
X250098Y219882D02*
D03*
X248327D02*
D03*
X246555D02*
D03*
X244783Y219882D02*
D03*
X243012Y219882D02*
D03*
X241240D02*
D03*
X239469D02*
D03*
Y203937D02*
D03*
X241240D02*
D03*
X243012D02*
D03*
X244783Y203937D02*
D03*
X246555Y203937D02*
D03*
X248327D02*
D03*
X250098D02*
D03*
D39*
X244783Y211910D02*
D03*
D40*
X232252Y209265D02*
D03*
X227527D02*
D03*
D41*
X248524Y276870D02*
D03*
X233858Y276772D02*
D03*
D42*
X203622Y310630D02*
D03*
X213622D02*
D03*
X255827D02*
D03*
X245827D02*
D03*
X235827D02*
D03*
X255827Y299213D02*
D03*
X245827D02*
D03*
X235827D02*
D03*
D43*
X223622Y310630D02*
D03*
X265827D02*
D03*
Y299213D02*
D03*
D44*
X274803Y107087D02*
D03*
X255118D02*
D03*
X235433D02*
D03*
X274803Y126772D02*
D03*
X255118D02*
D03*
X235433D02*
D03*
D45*
X282677Y192913D02*
D03*
X209842D02*
D03*
D46*
X219310Y305002D02*
D03*
X254033Y116569D02*
D03*
X256986D02*
D03*
X259938D02*
D03*
X262842Y116032D02*
D03*
X264930Y113944D02*
D03*
X267018Y111857D02*
D03*
X269106Y109769D02*
D03*
X272234Y112671D02*
D03*
X270146Y114759D02*
D03*
X268058Y116847D02*
D03*
X265970Y118935D02*
D03*
X263636Y120744D02*
D03*
X260685Y120833D02*
D03*
X257732D02*
D03*
X254779D02*
D03*
X251827D02*
D03*
X248874D02*
D03*
X245921D02*
D03*
X242968D02*
D03*
X240016D02*
D03*
X237063D02*
D03*
X234110D02*
D03*
X231157D02*
D03*
X228205D02*
D03*
X225252D02*
D03*
X222299D02*
D03*
X219346D02*
D03*
X216394D02*
D03*
X213441D02*
D03*
X210488D02*
D03*
X207535D02*
D03*
X204583D02*
D03*
X201630D02*
D03*
X198677D02*
D03*
X195724D02*
D03*
X193467Y122737D02*
D03*
X191379Y124825D02*
D03*
X189292Y126913D02*
D03*
X187204Y129001D02*
D03*
X185116Y131088D02*
D03*
X183028Y133176D02*
D03*
X182053Y135964D02*
D03*
Y138917D02*
D03*
Y141869D02*
D03*
Y144822D02*
D03*
Y147775D02*
D03*
Y150727D02*
D03*
Y153680D02*
D03*
Y156633D02*
D03*
Y159586D02*
D03*
Y162539D02*
D03*
Y165491D02*
D03*
Y168444D02*
D03*
Y171397D02*
D03*
Y174349D02*
D03*
Y177302D02*
D03*
Y180255D02*
D03*
Y183208D02*
D03*
Y186161D02*
D03*
Y189113D02*
D03*
Y192066D02*
D03*
Y195019D02*
D03*
Y197971D02*
D03*
Y200924D02*
D03*
Y203877D02*
D03*
Y206830D02*
D03*
Y209783D02*
D03*
Y212735D02*
D03*
Y215688D02*
D03*
Y218641D02*
D03*
Y221593D02*
D03*
Y224546D02*
D03*
Y227499D02*
D03*
Y230452D02*
D03*
X184059Y232619D02*
D03*
X186147Y234707D02*
D03*
X188235Y236794D02*
D03*
X190323Y238882D02*
D03*
X192411Y240970D02*
D03*
X194499Y243058D02*
D03*
X196587Y245146D02*
D03*
X200762Y249322D02*
D03*
X207026Y255586D02*
D03*
X209114Y257674D02*
D03*
X211202Y259762D02*
D03*
X213290Y261849D02*
D03*
X215378Y263937D02*
D03*
X217466Y266025D02*
D03*
X219554Y268113D02*
D03*
X221551Y270288D02*
D03*
X221817Y273229D02*
D03*
Y276182D02*
D03*
Y282087D02*
D03*
Y285040D02*
D03*
Y296851D02*
D03*
Y299803D02*
D03*
X222892Y302554D02*
D03*
X224980Y304642D02*
D03*
X201096Y305262D02*
D03*
X202557Y302696D02*
D03*
X204167Y300221D02*
D03*
Y297268D02*
D03*
Y285457D02*
D03*
X202246Y271403D02*
D03*
X195983Y265140D02*
D03*
X193895Y263052D02*
D03*
X191807Y260964D02*
D03*
X189719Y258876D02*
D03*
X187631Y256788D02*
D03*
X185543Y254700D02*
D03*
X183455Y252612D02*
D03*
X181367Y250524D02*
D03*
X179279Y248436D02*
D03*
X177191Y246349D02*
D03*
X175103Y244261D02*
D03*
X173016Y242173D02*
D03*
X170928Y240085D02*
D03*
X168957Y237886D02*
D03*
X168734Y234942D02*
D03*
Y231989D02*
D03*
Y229036D02*
D03*
Y226083D02*
D03*
Y223130D02*
D03*
Y220178D02*
D03*
Y217225D02*
D03*
Y214272D02*
D03*
Y211319D02*
D03*
Y208367D02*
D03*
Y205414D02*
D03*
Y202461D02*
D03*
Y199509D02*
D03*
Y196556D02*
D03*
Y193603D02*
D03*
Y190650D02*
D03*
Y187698D02*
D03*
Y184745D02*
D03*
Y181792D02*
D03*
Y178839D02*
D03*
Y175886D02*
D03*
Y172934D02*
D03*
Y169981D02*
D03*
Y167028D02*
D03*
Y164076D02*
D03*
Y161123D02*
D03*
Y158170D02*
D03*
Y155217D02*
D03*
Y152264D02*
D03*
Y149312D02*
D03*
Y146359D02*
D03*
Y143406D02*
D03*
Y140454D02*
D03*
Y137501D02*
D03*
Y134548D02*
D03*
Y131595D02*
D03*
X168773Y128643D02*
D03*
X170466Y126224D02*
D03*
X172554Y124136D02*
D03*
X174642Y122048D02*
D03*
X176730Y119960D02*
D03*
X178818Y117872D02*
D03*
X180905Y115784D02*
D03*
X182993Y113696D02*
D03*
X185081Y111608D02*
D03*
X187169Y109520D02*
D03*
X189257Y107432D02*
D03*
X192035Y106431D02*
D03*
X194988D02*
D03*
X197940D02*
D03*
X200893D02*
D03*
X203846D02*
D03*
X206799D02*
D03*
X209751D02*
D03*
X212704D02*
D03*
X215657D02*
D03*
X218610D02*
D03*
X221562D02*
D03*
X224515D02*
D03*
X227468D02*
D03*
X208431Y275642D02*
D03*
Y281547D02*
D03*
Y284500D02*
D03*
Y296311D02*
D03*
Y299264D02*
D03*
X208382Y302216D02*
D03*
X206665Y304618D02*
D03*
X211096Y304717D02*
D03*
Y301764D02*
D03*
Y298812D02*
D03*
Y284048D02*
D03*
Y281095D02*
D03*
Y275190D02*
D03*
X210281Y272352D02*
D03*
X208193Y270264D02*
D03*
X201929Y264000D02*
D03*
X195666Y257736D02*
D03*
X193578Y255648D02*
D03*
X191490Y253560D02*
D03*
X189402Y251472D02*
D03*
X187314Y249384D02*
D03*
X185226Y247297D02*
D03*
X183138Y245209D02*
D03*
X181050Y243121D02*
D03*
X178963Y241033D02*
D03*
X176875Y238945D02*
D03*
X174787Y236857D02*
D03*
X173360Y234272D02*
D03*
Y231319D02*
D03*
Y228366D02*
D03*
Y225414D02*
D03*
Y222461D02*
D03*
Y219508D02*
D03*
Y216555D02*
D03*
Y213603D02*
D03*
Y210650D02*
D03*
Y207697D02*
D03*
Y204744D02*
D03*
Y201792D02*
D03*
Y198839D02*
D03*
Y195886D02*
D03*
Y192933D02*
D03*
Y189981D02*
D03*
Y187028D02*
D03*
Y184075D02*
D03*
Y181122D02*
D03*
Y178170D02*
D03*
Y175217D02*
D03*
Y172264D02*
D03*
Y169311D02*
D03*
Y166359D02*
D03*
Y163406D02*
D03*
Y160453D02*
D03*
Y157500D02*
D03*
Y154548D02*
D03*
Y151595D02*
D03*
Y148642D02*
D03*
Y145689D02*
D03*
Y142737D02*
D03*
Y139784D02*
D03*
Y136831D02*
D03*
Y133878D02*
D03*
X173395Y130926D02*
D03*
X175079Y128500D02*
D03*
X177167Y126412D02*
D03*
X179255Y124325D02*
D03*
X181343Y122237D02*
D03*
X183431Y120149D02*
D03*
X185519Y118061D02*
D03*
X187606Y115973D02*
D03*
X189694Y113885D02*
D03*
X191837Y111853D02*
D03*
X194762Y111451D02*
D03*
X197715D02*
D03*
X200667D02*
D03*
X203620D02*
D03*
X206573D02*
D03*
X209526D02*
D03*
X212478D02*
D03*
X215431D02*
D03*
X218384D02*
D03*
X221337D02*
D03*
X224289D02*
D03*
X227242D02*
D03*
X230195D02*
D03*
X239053D02*
D03*
X242006D02*
D03*
X244959D02*
D03*
X247766Y110537D02*
D03*
X251390Y112944D02*
D03*
X249302Y115032D02*
D03*
X246429Y115715D02*
D03*
X243477D02*
D03*
X240524D02*
D03*
X237571D02*
D03*
X234618D02*
D03*
X231665D02*
D03*
X228713D02*
D03*
X225760D02*
D03*
X222807D02*
D03*
X219854D02*
D03*
X216902D02*
D03*
X213949D02*
D03*
X210996D02*
D03*
X208043D02*
D03*
X205091D02*
D03*
X202138D02*
D03*
X199185D02*
D03*
X196232D02*
D03*
X193334Y116276D02*
D03*
X191246Y118364D02*
D03*
X189158Y120452D02*
D03*
X187070Y122540D02*
D03*
X184982Y124628D02*
D03*
X182894Y126716D02*
D03*
X180806Y128804D02*
D03*
X178718Y130892D02*
D03*
X177624Y133634D02*
D03*
Y136587D02*
D03*
Y139540D02*
D03*
Y142492D02*
D03*
Y145445D02*
D03*
Y148398D02*
D03*
Y151351D02*
D03*
Y154304D02*
D03*
Y157256D02*
D03*
Y160209D02*
D03*
Y163162D02*
D03*
Y166114D02*
D03*
Y169067D02*
D03*
Y172020D02*
D03*
Y174973D02*
D03*
Y177926D02*
D03*
Y180878D02*
D03*
Y183831D02*
D03*
Y186784D02*
D03*
Y189736D02*
D03*
Y192689D02*
D03*
Y195642D02*
D03*
Y198595D02*
D03*
Y201548D02*
D03*
Y204500D02*
D03*
Y207453D02*
D03*
Y210406D02*
D03*
Y213358D02*
D03*
Y216311D02*
D03*
Y219264D02*
D03*
Y222217D02*
D03*
Y225169D02*
D03*
Y228122D02*
D03*
Y231075D02*
D03*
X177968Y234008D02*
D03*
X180056Y236096D02*
D03*
X182144Y238183D02*
D03*
X184232Y240271D02*
D03*
X186319Y242359D02*
D03*
X188407Y244447D02*
D03*
X190495Y246535D02*
D03*
X192583Y248623D02*
D03*
X194671Y250711D02*
D03*
X196759Y252799D02*
D03*
X200935Y256975D02*
D03*
X207199Y263238D02*
D03*
X209286Y265326D02*
D03*
X211374Y267414D02*
D03*
X213462Y269502D02*
D03*
X215271Y271836D02*
D03*
X215360Y274787D02*
D03*
Y283645D02*
D03*
Y286598D02*
D03*
Y298409D02*
D03*
Y301362D02*
D03*
Y304315D02*
D03*
X290551Y303543D02*
D03*
X194783Y303445D02*
D03*
X291339Y298819D02*
D03*
X194862Y298445D02*
D03*
X252756Y227953D02*
D03*
X249213Y225984D02*
D03*
X290709Y283701D02*
D03*
X274410Y240756D02*
D03*
X271654Y238976D02*
D03*
X243701Y200787D02*
D03*
X259842D02*
D03*
X240158Y223228D02*
D03*
X243004Y223130D02*
D03*
D47*
X290913Y279102D02*
D03*
X201543D02*
D03*
X291322Y288603D02*
D03*
X194744Y288445D02*
D03*
X291201Y293445D02*
D03*
X194744D02*
D03*
X275984Y303543D02*
D03*
X201543Y283102D02*
D03*
X173209Y274823D02*
D03*
Y307067D02*
D03*
X282638Y275236D02*
D03*
X242235Y228435D02*
D03*
X246865D02*
D03*
X224803Y241043D02*
D03*
X247215Y200295D02*
D03*
X241240Y190847D02*
D03*
X244783D02*
D03*
X261122Y207283D02*
D03*
X226619Y213510D02*
D03*
X256406Y212953D02*
D03*
X257579Y207283D02*
D03*
X227384Y206063D02*
D03*
X231523Y244871D02*
D03*
X249902Y242126D02*
D03*
X250787Y237992D02*
D03*
X260925Y236811D02*
D03*
Y239567D02*
D03*
X271588Y250263D02*
D03*
X274606Y250354D02*
D03*
X242126Y250394D02*
D03*
X236910D02*
D03*
X210728Y235630D02*
D03*
X232874Y227165D02*
D03*
Y231201D02*
D03*
X206398Y241043D02*
D03*
X206496Y244193D02*
D03*
X221752Y229331D02*
D03*
X217913Y243110D02*
D03*
X218110Y237008D02*
D03*
X210925Y231496D02*
D03*
X231521Y248330D02*
D03*
X231398Y252756D02*
D03*
X220866Y250394D02*
D03*
X257382Y251969D02*
D03*
X253642D02*
D03*
X249902D02*
D03*
X215453Y254545D02*
D03*
M02*
