G04*
G04 #@! TF.GenerationSoftware,Altium Limited,Altium Designer,20.0.9 (164)*
G04*
G04 Layer_Physical_Order=2*
G04 Layer_Color=36540*
%FSLAX25Y25*%
%MOIN*%
G70*
G01*
G75*
%ADD12C,0.00787*%
%ADD53C,0.05906*%
%ADD54R,0.05906X0.05906*%
%ADD55C,0.08268*%
%ADD57C,0.01968*%
%ADD58C,0.01772*%
%ADD59C,0.02598*%
G36*
X304724Y278494D02*
X304224Y278343D01*
X304187Y278399D01*
X303666Y278747D01*
X303051Y278869D01*
X302437Y278747D01*
X301916Y278399D01*
X301568Y277878D01*
X301446Y277264D01*
X301568Y276649D01*
X301916Y276128D01*
X302437Y275780D01*
X303051Y275658D01*
X303666Y275780D01*
X304187Y276128D01*
X304224Y276185D01*
X304724Y276033D01*
Y263533D01*
X304224Y263382D01*
X304187Y263439D01*
X303666Y263787D01*
X303051Y263909D01*
X302437Y263787D01*
X301916Y263439D01*
X301568Y262918D01*
X301446Y262303D01*
X301568Y261689D01*
X301916Y261168D01*
X302437Y260820D01*
X303051Y260698D01*
X303666Y260820D01*
X304187Y261168D01*
X304224Y261224D01*
X304724Y261073D01*
Y101476D01*
X167717D01*
Y304134D01*
X304724D01*
Y278494D01*
D02*
G37*
%LPC*%
G36*
X242326Y303552D02*
Y300397D01*
X245481D01*
X245392Y301072D01*
X245055Y301888D01*
X244517Y302588D01*
X243817Y303126D01*
X243001Y303463D01*
X242326Y303552D01*
D02*
G37*
G36*
X275479Y303550D02*
X272326D01*
Y300397D01*
X275479D01*
Y303550D01*
D02*
G37*
G36*
X271926D02*
X268773D01*
Y300397D01*
X271926D01*
Y303550D01*
D02*
G37*
G36*
X241926Y303552D02*
X241251Y303463D01*
X240435Y303126D01*
X239735Y302588D01*
X239197Y301888D01*
X238860Y301072D01*
X238771Y300397D01*
X241926D01*
Y303552D01*
D02*
G37*
G36*
X275479Y299997D02*
X272326D01*
Y296844D01*
X275479D01*
Y299997D01*
D02*
G37*
G36*
X271926D02*
X268773D01*
Y296844D01*
X271926D01*
Y299997D01*
D02*
G37*
G36*
X204081Y303550D02*
X197376D01*
Y296844D01*
X204081D01*
Y303550D01*
D02*
G37*
G36*
X245481Y299997D02*
X242326D01*
Y296842D01*
X243001Y296930D01*
X243817Y297268D01*
X244517Y297806D01*
X245055Y298506D01*
X245392Y299322D01*
X245481Y299997D01*
D02*
G37*
G36*
X241926D02*
X238771D01*
X238860Y299322D01*
X239197Y298506D01*
X239735Y297806D01*
X240435Y297268D01*
X241251Y296930D01*
X241926Y296842D01*
Y299997D01*
D02*
G37*
G36*
X262126Y303578D02*
X261251Y303463D01*
X260435Y303126D01*
X259735Y302588D01*
X259197Y301888D01*
X258859Y301072D01*
X258744Y300197D01*
X258859Y299322D01*
X259197Y298506D01*
X259735Y297806D01*
X260435Y297268D01*
X261251Y296930D01*
X262126Y296815D01*
X263001Y296930D01*
X263817Y297268D01*
X264517Y297806D01*
X265055Y298506D01*
X265392Y299322D01*
X265508Y300197D01*
X265392Y301072D01*
X265055Y301888D01*
X264517Y302588D01*
X263817Y303126D01*
X263001Y303463D01*
X262126Y303578D01*
D02*
G37*
G36*
X252126D02*
X251251Y303463D01*
X250435Y303126D01*
X249735Y302588D01*
X249197Y301888D01*
X248860Y301072D01*
X248744Y300197D01*
X248860Y299322D01*
X249197Y298506D01*
X249735Y297806D01*
X250435Y297268D01*
X251251Y296930D01*
X252126Y296815D01*
X253001Y296930D01*
X253817Y297268D01*
X254517Y297806D01*
X255055Y298506D01*
X255392Y299322D01*
X255508Y300197D01*
X255392Y301072D01*
X255055Y301888D01*
X254517Y302588D01*
X253817Y303126D01*
X253001Y303463D01*
X252126Y303578D01*
D02*
G37*
G36*
X220728D02*
X219853Y303463D01*
X219038Y303126D01*
X218337Y302588D01*
X217800Y301888D01*
X217462Y301072D01*
X217347Y300197D01*
X217462Y299322D01*
X217800Y298506D01*
X218337Y297806D01*
X219038Y297268D01*
X219853Y296930D01*
X220728Y296815D01*
X221604Y296930D01*
X222419Y297268D01*
X223119Y297806D01*
X223657Y298506D01*
X223995Y299322D01*
X224110Y300197D01*
X223995Y301072D01*
X223657Y301888D01*
X223119Y302588D01*
X222419Y303126D01*
X221604Y303463D01*
X220728Y303578D01*
D02*
G37*
G36*
X210728D02*
X209853Y303463D01*
X209037Y303126D01*
X208337Y302588D01*
X207800Y301888D01*
X207462Y301072D01*
X207347Y300197D01*
X207462Y299322D01*
X207800Y298506D01*
X208337Y297806D01*
X209037Y297268D01*
X209853Y296930D01*
X210728Y296815D01*
X211604Y296930D01*
X212419Y297268D01*
X213120Y297806D01*
X213657Y298506D01*
X213995Y299322D01*
X214110Y300197D01*
X213995Y301072D01*
X213657Y301888D01*
X213120Y302588D01*
X212419Y303126D01*
X211604Y303463D01*
X210728Y303578D01*
D02*
G37*
G36*
X242326Y292135D02*
Y288980D01*
X245481D01*
X245392Y289655D01*
X245055Y290470D01*
X244517Y291171D01*
X243817Y291708D01*
X243001Y292046D01*
X242326Y292135D01*
D02*
G37*
G36*
X275479Y292132D02*
X272326D01*
Y288980D01*
X275479D01*
Y292132D01*
D02*
G37*
G36*
X271926D02*
X268773D01*
Y288980D01*
X271926D01*
Y292132D01*
D02*
G37*
G36*
X241926Y292135D02*
X241251Y292046D01*
X240435Y291708D01*
X239735Y291171D01*
X239197Y290470D01*
X238860Y289655D01*
X238771Y288980D01*
X241926D01*
Y292135D01*
D02*
G37*
G36*
X275479Y288580D02*
X272326D01*
Y285427D01*
X275479D01*
Y288580D01*
D02*
G37*
G36*
X271926D02*
X268773D01*
Y285427D01*
X271926D01*
Y288580D01*
D02*
G37*
G36*
X245481D02*
X242326D01*
Y285424D01*
X243001Y285513D01*
X243817Y285851D01*
X244517Y286388D01*
X245055Y287089D01*
X245392Y287904D01*
X245481Y288580D01*
D02*
G37*
G36*
X241926D02*
X238771D01*
X238860Y287904D01*
X239197Y287089D01*
X239735Y286388D01*
X240435Y285851D01*
X241251Y285513D01*
X241926Y285424D01*
Y288580D01*
D02*
G37*
G36*
X262126Y292161D02*
X261251Y292046D01*
X260435Y291708D01*
X259735Y291171D01*
X259197Y290470D01*
X258859Y289655D01*
X258744Y288779D01*
X258859Y287904D01*
X259197Y287089D01*
X259735Y286388D01*
X260435Y285851D01*
X261251Y285513D01*
X262126Y285398D01*
X263001Y285513D01*
X263817Y285851D01*
X264517Y286388D01*
X265055Y287089D01*
X265392Y287904D01*
X265508Y288779D01*
X265392Y289655D01*
X265055Y290470D01*
X264517Y291171D01*
X263817Y291708D01*
X263001Y292046D01*
X262126Y292161D01*
D02*
G37*
G36*
X252126D02*
X251251Y292046D01*
X250435Y291708D01*
X249735Y291171D01*
X249197Y290470D01*
X248860Y289655D01*
X248744Y288779D01*
X248860Y287904D01*
X249197Y287089D01*
X249735Y286388D01*
X250435Y285851D01*
X251251Y285513D01*
X252126Y285398D01*
X253001Y285513D01*
X253817Y285851D01*
X254517Y286388D01*
X255055Y287089D01*
X255392Y287904D01*
X255508Y288779D01*
X255392Y289655D01*
X255055Y290470D01*
X254517Y291171D01*
X253817Y291708D01*
X253001Y292046D01*
X252126Y292161D01*
D02*
G37*
G36*
X188189Y280847D02*
X187185Y280714D01*
X186250Y280327D01*
X185447Y279711D01*
X184830Y278907D01*
X184443Y277972D01*
X184311Y276969D01*
X184443Y275965D01*
X184830Y275029D01*
X185447Y274226D01*
X186250Y273610D01*
X187185Y273223D01*
X188189Y273090D01*
X189193Y273223D01*
X190128Y273610D01*
X190931Y274226D01*
X191548Y275029D01*
X191935Y275965D01*
X192067Y276969D01*
X191935Y277972D01*
X191548Y278907D01*
X190931Y279711D01*
X190128Y280327D01*
X189193Y280714D01*
X188189Y280847D01*
D02*
G37*
G36*
X248524Y280748D02*
X247520Y280616D01*
X246585Y280229D01*
X245781Y279612D01*
X245165Y278809D01*
X244778Y277874D01*
X244646Y276870D01*
X244778Y275866D01*
X245165Y274931D01*
X245781Y274128D01*
X246585Y273512D01*
X247520Y273124D01*
X248524Y272992D01*
X249527Y273124D01*
X250463Y273512D01*
X251266Y274128D01*
X251882Y274931D01*
X252270Y275866D01*
X252402Y276870D01*
X252270Y277874D01*
X251882Y278809D01*
X251266Y279612D01*
X250463Y280229D01*
X249527Y280616D01*
X248524Y280748D01*
D02*
G37*
G36*
X290256Y273850D02*
X289641Y273727D01*
X289121Y273379D01*
X288773Y272859D01*
X288650Y272244D01*
X288773Y271630D01*
X289121Y271109D01*
X289641Y270761D01*
X290256Y270638D01*
X290870Y270761D01*
X291391Y271109D01*
X291739Y271630D01*
X291862Y272244D01*
X291739Y272859D01*
X291391Y273379D01*
X290870Y273727D01*
X290256Y273850D01*
D02*
G37*
G36*
Y268830D02*
X289641Y268708D01*
X289121Y268360D01*
X288773Y267839D01*
X288650Y267224D01*
X288773Y266610D01*
X289121Y266089D01*
X289641Y265741D01*
X290256Y265619D01*
X290870Y265741D01*
X291391Y266089D01*
X291739Y266610D01*
X291862Y267224D01*
X291739Y267839D01*
X291391Y268360D01*
X290870Y268708D01*
X290256Y268830D01*
D02*
G37*
G36*
X220499Y260748D02*
X219884Y260626D01*
X219364Y260278D01*
X219016Y259757D01*
X218893Y259143D01*
X219016Y258528D01*
X219364Y258007D01*
X219884Y257659D01*
X220499Y257537D01*
X221113Y257659D01*
X221634Y258007D01*
X221982Y258528D01*
X222105Y259143D01*
X221982Y259757D01*
X221634Y260278D01*
X221113Y260626D01*
X220499Y260748D01*
D02*
G37*
G36*
X206890Y258987D02*
X206275Y258865D01*
X205754Y258517D01*
X205406Y257996D01*
X205284Y257382D01*
X205406Y256767D01*
X205754Y256246D01*
X206275Y255898D01*
X206890Y255776D01*
X207504Y255898D01*
X208025Y256246D01*
X208373Y256767D01*
X208495Y257382D01*
X208373Y257996D01*
X208025Y258517D01*
X207504Y258865D01*
X206890Y258987D01*
D02*
G37*
G36*
X213779Y256921D02*
X213165Y256798D01*
X212644Y256450D01*
X212296Y255929D01*
X212174Y255315D01*
X212296Y254700D01*
X212644Y254180D01*
X213165Y253832D01*
X213779Y253709D01*
X214394Y253832D01*
X214915Y254180D01*
X215263Y254700D01*
X215385Y255315D01*
X215263Y255929D01*
X214915Y256450D01*
X214394Y256798D01*
X213779Y256921D01*
D02*
G37*
G36*
X274606Y251960D02*
X273992Y251838D01*
X273471Y251490D01*
X273367Y251335D01*
X272766D01*
X272723Y251398D01*
X272202Y251746D01*
X271588Y251869D01*
X270973Y251746D01*
X270452Y251398D01*
X270104Y250877D01*
X269982Y250263D01*
X270104Y249648D01*
X270452Y249128D01*
X270973Y248780D01*
X271588Y248657D01*
X272202Y248780D01*
X272723Y249128D01*
X272827Y249283D01*
X273428D01*
X273471Y249219D01*
X273992Y248871D01*
X274606Y248749D01*
X275221Y248871D01*
X275742Y249219D01*
X276090Y249740D01*
X276212Y250354D01*
X276090Y250969D01*
X275742Y251490D01*
X275221Y251838D01*
X274606Y251960D01*
D02*
G37*
G36*
X207087Y252885D02*
X206472Y252763D01*
X205951Y252415D01*
X205603Y251894D01*
X205481Y251279D01*
X205603Y250665D01*
X205951Y250144D01*
X206472Y249796D01*
X207087Y249674D01*
X207701Y249796D01*
X208222Y250144D01*
X208570Y250665D01*
X208692Y251279D01*
X208570Y251894D01*
X208222Y252415D01*
X207701Y252763D01*
X207087Y252885D01*
D02*
G37*
G36*
X199705Y251507D02*
X199090Y251385D01*
X198569Y251037D01*
X198221Y250516D01*
X198099Y249902D01*
X198221Y249287D01*
X198569Y248766D01*
X199090Y248418D01*
X199705Y248296D01*
X200319Y248418D01*
X200840Y248766D01*
X201188Y249287D01*
X201310Y249902D01*
X201188Y250516D01*
X200840Y251037D01*
X200319Y251385D01*
X199705Y251507D01*
D02*
G37*
G36*
X271719Y243138D02*
X271105Y243016D01*
X270584Y242668D01*
X270235Y242147D01*
X270113Y241532D01*
X270235Y240918D01*
X270584Y240397D01*
X271105Y240049D01*
X271719Y239927D01*
X272333Y240049D01*
X272770Y240340D01*
X273177Y240065D01*
X273184Y240058D01*
X273062Y239446D01*
X273184Y238831D01*
X273532Y238310D01*
X274053Y237962D01*
X274667Y237840D01*
X275282Y237962D01*
X275803Y238310D01*
X276151Y238831D01*
X276273Y239446D01*
X276151Y240060D01*
X275803Y240581D01*
X275282Y240929D01*
X274667Y241051D01*
X274053Y240929D01*
X273616Y240637D01*
X273209Y240913D01*
X273203Y240920D01*
X273325Y241532D01*
X273202Y242147D01*
X272854Y242668D01*
X272333Y243016D01*
X271719Y243138D01*
D02*
G37*
G36*
X302264Y239302D02*
X301649Y239180D01*
X301128Y238832D01*
X300780Y238311D01*
X300658Y237697D01*
X300780Y237082D01*
X301128Y236561D01*
X301649Y236213D01*
X302264Y236091D01*
X302878Y236213D01*
X303399Y236561D01*
X303747Y237082D01*
X303869Y237697D01*
X303747Y238311D01*
X303399Y238832D01*
X302878Y239180D01*
X302264Y239302D01*
D02*
G37*
G36*
X260925Y241173D02*
X260311Y241050D01*
X259790Y240702D01*
X259442Y240181D01*
X259319Y239567D01*
X259442Y238952D01*
X259790Y238432D01*
Y237946D01*
X259442Y237425D01*
X259319Y236811D01*
X259442Y236197D01*
X259790Y235676D01*
X260311Y235328D01*
X260925Y235205D01*
X261540Y235328D01*
X262061Y235676D01*
X262409Y236197D01*
X262531Y236811D01*
X262409Y237425D01*
X262061Y237946D01*
Y238432D01*
X262409Y238952D01*
X262531Y239567D01*
X262409Y240181D01*
X262061Y240702D01*
X261540Y241050D01*
X260925Y241173D01*
D02*
G37*
G36*
X288090Y236448D02*
X287476Y236326D01*
X286955Y235978D01*
X286607Y235457D01*
X286485Y234842D01*
X286607Y234228D01*
X286955Y233707D01*
X287476Y233359D01*
X288090Y233237D01*
X288705Y233359D01*
X289226Y233707D01*
X289574Y234228D01*
X289696Y234842D01*
X289574Y235457D01*
X289226Y235978D01*
X288705Y236326D01*
X288090Y236448D01*
D02*
G37*
G36*
X246865Y230040D02*
X246250Y229918D01*
X245729Y229570D01*
X245381Y229049D01*
X245259Y228435D01*
X245381Y227820D01*
X245729Y227299D01*
X246250Y226951D01*
X246865Y226829D01*
X247479Y226951D01*
X248000Y227299D01*
X248348Y227820D01*
X248470Y228435D01*
X248348Y229049D01*
X248000Y229570D01*
X247479Y229918D01*
X246865Y230040D01*
D02*
G37*
G36*
X242235D02*
X241620Y229918D01*
X241099Y229570D01*
X240751Y229049D01*
X240629Y228435D01*
X240751Y227820D01*
X241099Y227299D01*
X241620Y226951D01*
X242235Y226829D01*
X242849Y226951D01*
X243370Y227299D01*
X243718Y227820D01*
X243840Y228435D01*
X243718Y229049D01*
X243370Y229570D01*
X242849Y229918D01*
X242235Y230040D01*
D02*
G37*
G36*
X290256Y229264D02*
X289641Y229142D01*
X289121Y228794D01*
X288773Y228273D01*
X288650Y227659D01*
X288773Y227044D01*
X289121Y226523D01*
X289641Y226175D01*
X290256Y226053D01*
X290870Y226175D01*
X291391Y226523D01*
X291739Y227044D01*
X291862Y227659D01*
X291739Y228273D01*
X291391Y228794D01*
X290870Y229142D01*
X290256Y229264D01*
D02*
G37*
G36*
X239370Y225818D02*
X238756Y225696D01*
X238235Y225348D01*
X237887Y224827D01*
X237764Y224213D01*
X237782Y224123D01*
X237332Y223822D01*
X237327Y223826D01*
X236713Y223948D01*
X236098Y223826D01*
X235577Y223478D01*
X235229Y222957D01*
X235107Y222342D01*
X235229Y221728D01*
X235577Y221207D01*
X236098Y220859D01*
X236713Y220737D01*
X237327Y220859D01*
X237848Y221207D01*
X238196Y221728D01*
X238318Y222342D01*
X238300Y222432D01*
X238751Y222733D01*
X238756Y222729D01*
X239370Y222607D01*
X239984Y222729D01*
X240506Y223077D01*
X240767Y223468D01*
X241238Y223273D01*
X241209Y223130D01*
X241332Y222516D01*
X241680Y221994D01*
X242200Y221646D01*
X242815Y221524D01*
X243429Y221646D01*
X243950Y221994D01*
X244298Y222516D01*
X244421Y223130D01*
X244298Y223744D01*
X243950Y224265D01*
X243429Y224613D01*
X242815Y224736D01*
X242200Y224613D01*
X241680Y224265D01*
X241418Y223874D01*
X240947Y224069D01*
X240976Y224213D01*
X240854Y224827D01*
X240506Y225348D01*
X239984Y225696D01*
X239370Y225818D01*
D02*
G37*
G36*
X302400Y224174D02*
X301785Y224052D01*
X301264Y223704D01*
X300916Y223183D01*
X300794Y222569D01*
X300916Y221954D01*
X301264Y221433D01*
X301785Y221085D01*
X302400Y220963D01*
X303014Y221085D01*
X303535Y221433D01*
X303883Y221954D01*
X304005Y222569D01*
X303883Y223183D01*
X303535Y223704D01*
X303014Y224052D01*
X302400Y224174D01*
D02*
G37*
G36*
X267913Y222964D02*
X267299Y222842D01*
X266778Y222494D01*
X266430Y221973D01*
X266308Y221358D01*
X266430Y220744D01*
X266778Y220223D01*
X267299Y219875D01*
X267913Y219753D01*
X268528Y219875D01*
X269049Y220223D01*
X269397Y220744D01*
X269519Y221358D01*
X269397Y221973D01*
X269049Y222494D01*
X268528Y222842D01*
X267913Y222964D01*
D02*
G37*
G36*
X290592Y219308D02*
X289977Y219185D01*
X289456Y218837D01*
X289108Y218316D01*
X288986Y217702D01*
X289108Y217088D01*
X289456Y216567D01*
X289977Y216219D01*
X290592Y216096D01*
X291206Y216219D01*
X291727Y216567D01*
X292075Y217088D01*
X292197Y217702D01*
X292075Y218316D01*
X291727Y218837D01*
X291206Y219185D01*
X290592Y219308D01*
D02*
G37*
G36*
X232283Y218732D02*
X231669Y218609D01*
X231148Y218261D01*
X230800Y217740D01*
X230678Y217126D01*
X230800Y216512D01*
X231148Y215991D01*
X231669Y215642D01*
X232283Y215520D01*
X232898Y215642D01*
X233419Y215991D01*
X233767Y216512D01*
X233889Y217126D01*
X233767Y217740D01*
X233419Y218261D01*
X232898Y218609D01*
X232283Y218732D01*
D02*
G37*
G36*
X257579Y208889D02*
X256964Y208767D01*
X256443Y208419D01*
X256095Y207898D01*
X255973Y207283D01*
X256095Y206669D01*
X256443Y206148D01*
X256964Y205800D01*
X257579Y205678D01*
X258193Y205800D01*
X258714Y206148D01*
X259062Y206669D01*
X259184Y207283D01*
X259062Y207898D01*
X258714Y208419D01*
X258193Y208767D01*
X257579Y208889D01*
D02*
G37*
G36*
X227384Y207669D02*
X226770Y207547D01*
X226249Y207199D01*
X225901Y206678D01*
X225779Y206063D01*
X225901Y205449D01*
X226249Y204928D01*
X226770Y204580D01*
X227384Y204458D01*
X227999Y204580D01*
X228520Y204928D01*
X228868Y205449D01*
X228990Y206063D01*
X228868Y206678D01*
X228520Y207199D01*
X227999Y207547D01*
X227384Y207669D01*
D02*
G37*
G36*
X301673Y205050D02*
X301059Y204928D01*
X300538Y204580D01*
X300190Y204059D01*
X300068Y203445D01*
X300190Y202830D01*
X300538Y202309D01*
X301059Y201961D01*
X301673Y201839D01*
X302288Y201961D01*
X302809Y202309D01*
X303157Y202830D01*
X303279Y203445D01*
X303157Y204059D01*
X302809Y204580D01*
X302288Y204928D01*
X301673Y205050D01*
D02*
G37*
G36*
X292008Y204905D02*
X291393Y204782D01*
X290873Y204434D01*
X290525Y203913D01*
X290402Y203299D01*
X290525Y202684D01*
X290873Y202164D01*
X291393Y201816D01*
X292008Y201693D01*
X292622Y201816D01*
X293143Y202164D01*
X293491Y202684D01*
X293614Y203299D01*
X293491Y203913D01*
X293143Y204434D01*
X292622Y204782D01*
X292008Y204905D01*
D02*
G37*
G36*
X247215Y201901D02*
X246601Y201779D01*
X246080Y201431D01*
X246015Y201334D01*
X245414D01*
X245362Y201411D01*
X244841Y201759D01*
X244227Y201881D01*
X243612Y201759D01*
X243091Y201411D01*
X242743Y200890D01*
X242621Y200275D01*
X242743Y199661D01*
X243091Y199140D01*
X243612Y198792D01*
X244227Y198670D01*
X244841Y198792D01*
X245362Y199140D01*
X245427Y199237D01*
X246028D01*
X246080Y199160D01*
X246601Y198812D01*
X247215Y198690D01*
X247829Y198812D01*
X248350Y199160D01*
X248698Y199681D01*
X248821Y200295D01*
X248698Y200910D01*
X248350Y201431D01*
X247829Y201779D01*
X247215Y201901D01*
D02*
G37*
G36*
X256988Y199440D02*
X256374Y199318D01*
X255853Y198970D01*
X255505Y198449D01*
X255382Y197835D01*
X255505Y197220D01*
X255853Y196699D01*
X256374Y196351D01*
X256988Y196229D01*
X257603Y196351D01*
X258124Y196699D01*
X258472Y197220D01*
X258594Y197835D01*
X258472Y198449D01*
X258124Y198970D01*
X257603Y199318D01*
X256988Y199440D01*
D02*
G37*
G36*
X282677Y202068D02*
X280891Y201892D01*
X279174Y201371D01*
X277591Y200525D01*
X276204Y199387D01*
X275065Y198000D01*
X274219Y196417D01*
X273698Y194699D01*
X273522Y192913D01*
X273698Y191127D01*
X274219Y189410D01*
X275065Y187827D01*
X276204Y186440D01*
X277591Y185301D01*
X279174Y184456D01*
X280891Y183935D01*
X282677Y183759D01*
X284463Y183935D01*
X286180Y184456D01*
X287763Y185301D01*
X289151Y186440D01*
X290289Y187827D01*
X291135Y189410D01*
X291656Y191127D01*
X291832Y192913D01*
X291656Y194699D01*
X291135Y196417D01*
X290289Y198000D01*
X289151Y199387D01*
X287763Y200525D01*
X286180Y201371D01*
X284463Y201892D01*
X282677Y202068D01*
D02*
G37*
G36*
X209842D02*
X208056Y201892D01*
X206339Y201371D01*
X204756Y200525D01*
X203369Y199387D01*
X202231Y198000D01*
X201385Y196417D01*
X200864Y194699D01*
X200688Y192913D01*
X200864Y191127D01*
X201385Y189410D01*
X202231Y187827D01*
X203369Y186440D01*
X204756Y185301D01*
X206339Y184456D01*
X208056Y183935D01*
X209842Y183759D01*
X211629Y183935D01*
X213346Y184456D01*
X214929Y185301D01*
X216316Y186440D01*
X217454Y187827D01*
X218300Y189410D01*
X218821Y191127D01*
X218997Y192913D01*
X218821Y194699D01*
X218300Y196417D01*
X217454Y198000D01*
X216316Y199387D01*
X214929Y200525D01*
X213346Y201371D01*
X211629Y201892D01*
X209842Y202068D01*
D02*
G37*
G36*
X275003Y131318D02*
Y126972D01*
X279350D01*
X279220Y127955D01*
X278764Y129058D01*
X278037Y130005D01*
X277090Y130732D01*
X275987Y131189D01*
X275003Y131318D01*
D02*
G37*
G36*
X274603D02*
X273620Y131189D01*
X272517Y130732D01*
X271570Y130005D01*
X270843Y129058D01*
X270386Y127955D01*
X270256Y126972D01*
X274603D01*
Y131318D01*
D02*
G37*
G36*
X279350Y126572D02*
X275003D01*
Y122225D01*
X275987Y122354D01*
X277090Y122811D01*
X278037Y123538D01*
X278764Y124485D01*
X279220Y125588D01*
X279350Y126572D01*
D02*
G37*
G36*
X274603D02*
X270256D01*
X270386Y125588D01*
X270843Y124485D01*
X271570Y123538D01*
X272517Y122811D01*
X273620Y122354D01*
X274603Y122225D01*
Y126572D01*
D02*
G37*
G36*
X241240Y192452D02*
X240626Y192330D01*
X240105Y191982D01*
X239757Y191461D01*
X239634Y190847D01*
X239757Y190232D01*
X240105Y189711D01*
X240431Y189493D01*
Y140650D01*
X240431Y140650D01*
X240493Y140340D01*
X240668Y140077D01*
X251388Y129358D01*
X251158Y129058D01*
X250701Y127955D01*
X250545Y126772D01*
X250701Y125588D01*
X251158Y124485D01*
X251885Y123538D01*
X252832Y122811D01*
X253935Y122354D01*
X255118Y122199D01*
X256302Y122354D01*
X257405Y122811D01*
X258352Y123538D01*
X259078Y124485D01*
X259535Y125588D01*
X259691Y126772D01*
X259535Y127955D01*
X259078Y129058D01*
X258352Y130005D01*
X257405Y130732D01*
X256302Y131189D01*
X255118Y131345D01*
X253935Y131189D01*
X252832Y130732D01*
X252532Y130502D01*
X242049Y140985D01*
Y189493D01*
X242375Y189711D01*
X242724Y190232D01*
X242846Y190847D01*
X242724Y191461D01*
X242375Y191982D01*
X241855Y192330D01*
X241240Y192452D01*
D02*
G37*
G36*
X235433Y131345D02*
X234249Y131189D01*
X233147Y130732D01*
X232200Y130005D01*
X231473Y129058D01*
X231016Y127955D01*
X230860Y126772D01*
X231016Y125588D01*
X231473Y124485D01*
X232200Y123538D01*
X233147Y122811D01*
X234249Y122354D01*
X235433Y122199D01*
X236617Y122354D01*
X237720Y122811D01*
X238667Y123538D01*
X239393Y124485D01*
X239850Y125588D01*
X240006Y126772D01*
X239850Y127955D01*
X239393Y129058D01*
X238667Y130005D01*
X237720Y130732D01*
X236617Y131189D01*
X235433Y131345D01*
D02*
G37*
G36*
X274803Y111660D02*
X273620Y111504D01*
X272517Y111047D01*
X271570Y110320D01*
X270843Y109373D01*
X270386Y108270D01*
X270230Y107087D01*
X270386Y105903D01*
X270843Y104800D01*
X271570Y103853D01*
X272517Y103126D01*
X273620Y102670D01*
X274803Y102514D01*
X275987Y102670D01*
X277090Y103126D01*
X278037Y103853D01*
X278764Y104800D01*
X279220Y105903D01*
X279376Y107087D01*
X279220Y108270D01*
X278764Y109373D01*
X278037Y110320D01*
X277090Y111047D01*
X275987Y111504D01*
X274803Y111660D01*
D02*
G37*
G36*
X255118D02*
X253935Y111504D01*
X252832Y111047D01*
X251885Y110320D01*
X251158Y109373D01*
X250701Y108270D01*
X250545Y107087D01*
X250701Y105903D01*
X251158Y104800D01*
X251885Y103853D01*
X252832Y103126D01*
X253935Y102670D01*
X255118Y102514D01*
X256302Y102670D01*
X257405Y103126D01*
X258352Y103853D01*
X259078Y104800D01*
X259535Y105903D01*
X259691Y107087D01*
X259535Y108270D01*
X259078Y109373D01*
X258352Y110320D01*
X257405Y111047D01*
X256302Y111504D01*
X255118Y111660D01*
D02*
G37*
G36*
X235433D02*
X234249Y111504D01*
X233147Y111047D01*
X232200Y110320D01*
X231473Y109373D01*
X231016Y108270D01*
X230860Y107087D01*
X231016Y105903D01*
X231473Y104800D01*
X232200Y103853D01*
X233147Y103126D01*
X234249Y102670D01*
X235433Y102514D01*
X236617Y102670D01*
X237720Y103126D01*
X238667Y103853D01*
X239393Y104800D01*
X239850Y105903D01*
X240006Y107087D01*
X239850Y108270D01*
X239393Y109373D01*
X238667Y110320D01*
X237720Y111047D01*
X236617Y111504D01*
X235433Y111660D01*
D02*
G37*
%LPD*%
D12*
X241240Y140650D02*
X255118Y126772D01*
X241240Y140650D02*
Y190847D01*
D53*
X242126Y300197D02*
D03*
Y288779D02*
D03*
D54*
X272126Y300197D02*
D03*
Y288779D02*
D03*
D55*
X274803Y126772D02*
D03*
X255118D02*
D03*
D57*
X287572Y230118D02*
D03*
Y222638D02*
D03*
Y212647D02*
D03*
Y217717D02*
D03*
X241240Y190847D02*
D03*
X244783D02*
D03*
X261122Y207283D02*
D03*
X226619Y213510D02*
D03*
X256406Y212953D02*
D03*
X249902Y242126D02*
D03*
X250787Y237992D02*
D03*
X231102Y264665D02*
D03*
X225886D02*
D03*
X221850Y241437D02*
D03*
Y245472D02*
D03*
X195374Y255315D02*
D03*
X195472Y258465D02*
D03*
X210728Y243602D02*
D03*
X199902Y245768D02*
D03*
X220498Y262601D02*
D03*
X220374Y267028D02*
D03*
X209842Y264665D02*
D03*
X257382Y251969D02*
D03*
X253642D02*
D03*
X249902D02*
D03*
X204429Y268817D02*
D03*
D58*
X197343Y295472D02*
D03*
X204331Y291437D02*
D03*
X206693Y293012D02*
D03*
X208653Y294972D02*
D03*
X217010Y292994D02*
D03*
X215050Y291035D02*
D03*
X213090Y289075D02*
D03*
X211154Y286713D02*
D03*
X208382D02*
D03*
X205610D02*
D03*
X202689D02*
D03*
X199917D02*
D03*
X197146D02*
D03*
X201311Y291437D02*
D03*
X198539D02*
D03*
X195768D02*
D03*
X247638Y110630D02*
D03*
X226870Y106201D02*
D03*
X244980Y111516D02*
D03*
X242028D02*
D03*
X192973Y291424D02*
D03*
X190201D02*
D03*
X187429D02*
D03*
X184658D02*
D03*
X181886D02*
D03*
X179144Y291018D02*
D03*
X177594Y288721D02*
D03*
X177572Y285949D02*
D03*
Y283177D02*
D03*
Y280406D02*
D03*
Y277634D02*
D03*
Y274863D02*
D03*
Y272091D02*
D03*
Y269319D02*
D03*
Y266548D02*
D03*
Y263776D02*
D03*
Y261004D02*
D03*
Y258233D02*
D03*
Y255461D02*
D03*
Y252689D02*
D03*
Y249918D02*
D03*
Y247146D02*
D03*
Y244374D02*
D03*
Y241603D02*
D03*
Y238831D02*
D03*
Y236059D02*
D03*
Y233288D02*
D03*
Y230516D02*
D03*
Y227745D02*
D03*
Y224973D02*
D03*
Y222201D02*
D03*
Y219430D02*
D03*
Y216658D02*
D03*
Y213886D02*
D03*
Y211115D02*
D03*
Y208343D02*
D03*
Y205571D02*
D03*
Y202800D02*
D03*
Y200028D02*
D03*
Y197256D02*
D03*
Y194485D02*
D03*
Y191713D02*
D03*
Y188941D02*
D03*
Y186170D02*
D03*
Y183398D02*
D03*
Y180626D02*
D03*
Y177855D02*
D03*
Y175083D02*
D03*
Y172311D02*
D03*
Y169540D02*
D03*
Y166768D02*
D03*
Y163997D02*
D03*
Y161225D02*
D03*
Y158453D02*
D03*
Y155682D02*
D03*
Y152910D02*
D03*
Y150138D02*
D03*
Y147367D02*
D03*
Y144595D02*
D03*
Y141823D02*
D03*
Y139052D02*
D03*
Y136280D02*
D03*
Y133508D02*
D03*
X178829Y131038D02*
D03*
X180789Y129078D02*
D03*
X182749Y127118D02*
D03*
X184709Y125159D02*
D03*
X186669Y123199D02*
D03*
X188628Y121239D02*
D03*
X190588Y119279D02*
D03*
X192548Y117319D02*
D03*
X195145Y116352D02*
D03*
X197917D02*
D03*
X200689D02*
D03*
X203460D02*
D03*
X206232D02*
D03*
X209004D02*
D03*
X211775D02*
D03*
X214547D02*
D03*
X217319D02*
D03*
X220090D02*
D03*
X222862D02*
D03*
X225634D02*
D03*
X228405D02*
D03*
X231177D02*
D03*
X233948D02*
D03*
X236720D02*
D03*
X239492D02*
D03*
X242264D02*
D03*
X245035D02*
D03*
X247807D02*
D03*
X250578D02*
D03*
X253350D02*
D03*
X256122D02*
D03*
X258893D02*
D03*
X261665D02*
D03*
X263881Y114687D02*
D03*
X265841Y112727D02*
D03*
X269211Y116001D02*
D03*
X267251Y117961D02*
D03*
X265291Y119920D02*
D03*
X262760Y121050D02*
D03*
X259988D02*
D03*
X257217D02*
D03*
X254445D02*
D03*
X251673D02*
D03*
X248902D02*
D03*
X246130D02*
D03*
X243358D02*
D03*
X240587D02*
D03*
X237815D02*
D03*
X235044D02*
D03*
X232272D02*
D03*
X229500D02*
D03*
X226729D02*
D03*
X223957D02*
D03*
X221185D02*
D03*
X218414D02*
D03*
X215642D02*
D03*
X212870D02*
D03*
X210099D02*
D03*
X207327D02*
D03*
X204555D02*
D03*
X201784D02*
D03*
X199012D02*
D03*
X196240D02*
D03*
X193930Y122581D02*
D03*
X191970Y124541D02*
D03*
X190010Y126500D02*
D03*
X188050Y128460D02*
D03*
X186091Y130420D02*
D03*
X184131Y132380D02*
D03*
X182270Y134434D02*
D03*
Y137206D02*
D03*
Y139978D02*
D03*
Y142749D02*
D03*
Y145521D02*
D03*
Y148293D02*
D03*
Y151064D02*
D03*
Y153836D02*
D03*
Y156607D02*
D03*
Y159379D02*
D03*
Y162151D02*
D03*
Y164922D02*
D03*
Y167694D02*
D03*
Y170466D02*
D03*
Y173237D02*
D03*
Y176009D02*
D03*
Y178781D02*
D03*
Y181552D02*
D03*
Y184324D02*
D03*
Y187096D02*
D03*
Y189867D02*
D03*
Y192639D02*
D03*
Y195411D02*
D03*
Y198182D02*
D03*
Y200954D02*
D03*
Y203726D02*
D03*
Y206497D02*
D03*
Y209269D02*
D03*
Y212040D02*
D03*
Y214812D02*
D03*
Y217584D02*
D03*
Y220356D02*
D03*
Y223127D02*
D03*
Y225899D02*
D03*
Y228670D02*
D03*
Y231442D02*
D03*
Y234214D02*
D03*
Y236985D02*
D03*
Y239757D02*
D03*
Y242529D02*
D03*
Y245300D02*
D03*
Y248072D02*
D03*
Y250844D02*
D03*
Y253615D02*
D03*
Y256387D02*
D03*
Y259159D02*
D03*
Y261930D02*
D03*
Y264702D02*
D03*
Y267474D02*
D03*
Y270245D02*
D03*
Y273017D02*
D03*
Y275788D02*
D03*
Y278560D02*
D03*
Y281332D02*
D03*
Y284103D02*
D03*
X183167Y286726D02*
D03*
X185939D02*
D03*
X188711D02*
D03*
X191482D02*
D03*
X194254D02*
D03*
X193576Y300085D02*
D03*
X190805D02*
D03*
X188033D02*
D03*
X185261D02*
D03*
X182490D02*
D03*
X179718D02*
D03*
X176946D02*
D03*
X174178Y299941D02*
D03*
X172032Y298188D02*
D03*
X170072Y296228D02*
D03*
X168558Y293906D02*
D03*
X168517Y291135D02*
D03*
Y288363D02*
D03*
Y285592D02*
D03*
Y282820D02*
D03*
Y280048D02*
D03*
Y277277D02*
D03*
Y274505D02*
D03*
Y271733D02*
D03*
Y268962D02*
D03*
Y266190D02*
D03*
Y263419D02*
D03*
Y260647D02*
D03*
Y257875D02*
D03*
Y255104D02*
D03*
Y252332D02*
D03*
Y249560D02*
D03*
Y246789D02*
D03*
Y244017D02*
D03*
Y241245D02*
D03*
Y238474D02*
D03*
Y235702D02*
D03*
Y232930D02*
D03*
Y230159D02*
D03*
Y227387D02*
D03*
Y224615D02*
D03*
Y221844D02*
D03*
Y219072D02*
D03*
Y216301D02*
D03*
Y213529D02*
D03*
Y210757D02*
D03*
Y207985D02*
D03*
Y205214D02*
D03*
Y202442D02*
D03*
Y199671D02*
D03*
Y196899D02*
D03*
Y194127D02*
D03*
Y191356D02*
D03*
Y188584D02*
D03*
Y185812D02*
D03*
Y183041D02*
D03*
Y180269D02*
D03*
Y177497D02*
D03*
Y174726D02*
D03*
Y171954D02*
D03*
Y169182D02*
D03*
Y166411D02*
D03*
Y163639D02*
D03*
Y160868D02*
D03*
Y158096D02*
D03*
Y155324D02*
D03*
Y152552D02*
D03*
Y149781D02*
D03*
Y147009D02*
D03*
Y144238D02*
D03*
Y141466D02*
D03*
Y138694D02*
D03*
Y135923D02*
D03*
Y133151D02*
D03*
Y130379D02*
D03*
X168900Y127634D02*
D03*
X170783Y125600D02*
D03*
X172743Y123640D02*
D03*
X174703Y121680D02*
D03*
X176662Y119721D02*
D03*
X178622Y117761D02*
D03*
X180582Y115801D02*
D03*
X182542Y113841D02*
D03*
X184502Y111881D02*
D03*
X186462Y109921D02*
D03*
X188421Y107961D02*
D03*
X190649Y106312D02*
D03*
X193419Y106214D02*
D03*
X196191D02*
D03*
X198962D02*
D03*
X201734D02*
D03*
X204505D02*
D03*
X207277D02*
D03*
X210049D02*
D03*
X212820D02*
D03*
X215592D02*
D03*
X218364D02*
D03*
X221135D02*
D03*
X223907D02*
D03*
X227313Y110912D02*
D03*
X224541D02*
D03*
X221769D02*
D03*
X218998D02*
D03*
X216226D02*
D03*
X213455D02*
D03*
X210683D02*
D03*
X207911D02*
D03*
X205139D02*
D03*
X202368D02*
D03*
X199596D02*
D03*
X196825D02*
D03*
X194053D02*
D03*
X191380Y111646D02*
D03*
X189420Y113606D02*
D03*
X187461Y115566D02*
D03*
X185501Y117526D02*
D03*
X183541Y119486D02*
D03*
X181581Y121446D02*
D03*
X179621Y123405D02*
D03*
X177661Y125365D02*
D03*
X175701Y127325D02*
D03*
X173742Y129285D02*
D03*
X173215Y132006D02*
D03*
Y134778D02*
D03*
Y137549D02*
D03*
Y140321D02*
D03*
Y143093D02*
D03*
Y145864D02*
D03*
Y148636D02*
D03*
Y151408D02*
D03*
Y154179D02*
D03*
Y156951D02*
D03*
Y159723D02*
D03*
Y162494D02*
D03*
Y165266D02*
D03*
Y168038D02*
D03*
Y170809D02*
D03*
Y173581D02*
D03*
Y176353D02*
D03*
Y179124D02*
D03*
Y181896D02*
D03*
Y184668D02*
D03*
Y187439D02*
D03*
Y190211D02*
D03*
Y192982D02*
D03*
Y195754D02*
D03*
Y198526D02*
D03*
Y201297D02*
D03*
Y204069D02*
D03*
Y206841D02*
D03*
Y209612D02*
D03*
Y212384D02*
D03*
Y215156D02*
D03*
Y217927D02*
D03*
Y220699D02*
D03*
Y223471D02*
D03*
Y226242D02*
D03*
Y229014D02*
D03*
Y231785D02*
D03*
Y234557D02*
D03*
Y237329D02*
D03*
Y240101D02*
D03*
Y242872D02*
D03*
Y245644D02*
D03*
Y248415D02*
D03*
Y251187D02*
D03*
Y253959D02*
D03*
Y256730D02*
D03*
Y259502D02*
D03*
Y262274D02*
D03*
Y265045D02*
D03*
Y267817D02*
D03*
Y270589D02*
D03*
Y273360D02*
D03*
Y276132D02*
D03*
Y278904D02*
D03*
Y281675D02*
D03*
Y284447D02*
D03*
Y287218D02*
D03*
Y289990D02*
D03*
X173249Y292762D02*
D03*
X175209Y294722D02*
D03*
X177899Y295387D02*
D03*
X180671D02*
D03*
X183442D02*
D03*
X186214D02*
D03*
X188986D02*
D03*
X191757D02*
D03*
X194529D02*
D03*
D59*
X247146Y209547D02*
D03*
X242421Y209547D02*
D03*
X247146Y214272D02*
D03*
X242421D02*
D03*
M02*
