G04*
G04 #@! TF.GenerationSoftware,Altium Limited,Altium Designer,20.0.9 (164)*
G04*
G04 Layer_Physical_Order=3*
G04 Layer_Color=16440176*
%FSLAX25Y25*%
%MOIN*%
G70*
G01*
G75*
%ADD12C,0.00787*%
%ADD55C,0.08268*%
%ADD57C,0.01968*%
G36*
X301973Y263476D02*
X301916Y263439D01*
X301568Y262918D01*
X301446Y262303D01*
X301568Y261689D01*
X301916Y261168D01*
X302437Y260820D01*
X303051Y260698D01*
X303666Y260820D01*
X304187Y261168D01*
X304224Y261224D01*
X304724Y261073D01*
Y101476D01*
X168012D01*
Y126005D01*
X168512Y126298D01*
X168900Y126221D01*
X168987Y126239D01*
X169412Y125813D01*
X169370Y125600D01*
X169477Y125059D01*
X169784Y124601D01*
X170242Y124295D01*
X170783Y124187D01*
X170935Y124217D01*
X171360Y123792D01*
X171330Y123640D01*
X171437Y123100D01*
X171744Y122641D01*
X172202Y122335D01*
X172743Y122227D01*
X172895Y122257D01*
X173320Y121832D01*
X173290Y121680D01*
X173397Y121140D01*
X173703Y120681D01*
X174162Y120375D01*
X174703Y120267D01*
X174854Y120298D01*
X175279Y119872D01*
X175249Y119721D01*
X175357Y119180D01*
X175663Y118721D01*
X176122Y118415D01*
X176662Y118308D01*
X176814Y118338D01*
X177239Y117913D01*
X177209Y117761D01*
X177317Y117220D01*
X177623Y116762D01*
X178081Y116455D01*
X178622Y116348D01*
X178774Y116378D01*
X179199Y115953D01*
X179169Y115801D01*
X179277Y115260D01*
X179583Y114802D01*
X180041Y114495D01*
X180582Y114388D01*
X180734Y114418D01*
X181159Y113993D01*
X181129Y113841D01*
X181237Y113300D01*
X181543Y112842D01*
X182001Y112536D01*
X182542Y112428D01*
X182694Y112458D01*
X183119Y112033D01*
X183089Y111881D01*
X183196Y111340D01*
X183503Y110882D01*
X183961Y110576D01*
X184502Y110468D01*
X184654Y110498D01*
X185079Y110073D01*
X185049Y109921D01*
X185156Y109381D01*
X185462Y108922D01*
X185921Y108616D01*
X186462Y108508D01*
X186613Y108538D01*
X187039Y108113D01*
X187009Y107961D01*
X187116Y107421D01*
X187422Y106962D01*
X187881Y106656D01*
X188421Y106549D01*
X188788Y106621D01*
X189172Y106356D01*
X189249Y106246D01*
X189344Y105771D01*
X189650Y105313D01*
X190108Y105007D01*
X190649Y104899D01*
X191190Y105007D01*
X191648Y105313D01*
X191700Y105391D01*
X192302D01*
X192420Y105215D01*
X192878Y104909D01*
X193419Y104801D01*
X193960Y104909D01*
X194418Y105215D01*
X194504Y105344D01*
X195105D01*
X195191Y105215D01*
X195650Y104909D01*
X196191Y104801D01*
X196731Y104909D01*
X197190Y105215D01*
X197276Y105344D01*
X197877D01*
X197963Y105215D01*
X198421Y104909D01*
X198962Y104801D01*
X199503Y104909D01*
X199961Y105215D01*
X200047Y105344D01*
X200649D01*
X200735Y105215D01*
X201193Y104909D01*
X201734Y104801D01*
X202274Y104909D01*
X202733Y105215D01*
X202819Y105344D01*
X203420D01*
X203506Y105215D01*
X203965Y104909D01*
X204505Y104801D01*
X205046Y104909D01*
X205505Y105215D01*
X205591Y105344D01*
X206192D01*
X206278Y105215D01*
X206736Y104909D01*
X207277Y104801D01*
X207818Y104909D01*
X208276Y105215D01*
X208362Y105344D01*
X208964D01*
X209050Y105215D01*
X209508Y104909D01*
X210049Y104801D01*
X210590Y104909D01*
X211048Y105215D01*
X211134Y105344D01*
X211735D01*
X211821Y105215D01*
X212280Y104909D01*
X212820Y104801D01*
X213361Y104909D01*
X213820Y105215D01*
X213906Y105344D01*
X214507D01*
X214593Y105215D01*
X215051Y104909D01*
X215592Y104801D01*
X216133Y104909D01*
X216591Y105215D01*
X216677Y105344D01*
X217279D01*
X217365Y105215D01*
X217823Y104909D01*
X218364Y104801D01*
X218904Y104909D01*
X219363Y105215D01*
X219449Y105344D01*
X220050D01*
X220136Y105215D01*
X220595Y104909D01*
X221135Y104801D01*
X221676Y104909D01*
X222134Y105215D01*
X222220Y105344D01*
X222822D01*
X222908Y105215D01*
X223366Y104909D01*
X223907Y104801D01*
X224448Y104909D01*
X224906Y105215D01*
X225106Y105515D01*
X225164Y105533D01*
X225628Y105526D01*
X225662Y105515D01*
X225871Y105202D01*
X226329Y104895D01*
X226870Y104788D01*
X227411Y104895D01*
X227869Y105202D01*
X228175Y105660D01*
X228283Y106201D01*
X228175Y106741D01*
X227869Y107200D01*
X227411Y107506D01*
X226870Y107614D01*
X226329Y107506D01*
X225871Y107200D01*
X225671Y106900D01*
X225613Y106882D01*
X225149Y106888D01*
X225115Y106900D01*
X224906Y107213D01*
X224448Y107519D01*
X223907Y107627D01*
X223366Y107519D01*
X222908Y107213D01*
X222822Y107084D01*
X222220D01*
X222134Y107213D01*
X221676Y107519D01*
X221135Y107627D01*
X220595Y107519D01*
X220136Y107213D01*
X220050Y107084D01*
X219449D01*
X219363Y107213D01*
X218904Y107519D01*
X218364Y107627D01*
X217823Y107519D01*
X217365Y107213D01*
X217279Y107084D01*
X216677D01*
X216591Y107213D01*
X216133Y107519D01*
X215592Y107627D01*
X215051Y107519D01*
X214593Y107213D01*
X214507Y107084D01*
X213906D01*
X213820Y107213D01*
X213361Y107519D01*
X212820Y107627D01*
X212280Y107519D01*
X211821Y107213D01*
X211735Y107084D01*
X211134D01*
X211048Y107213D01*
X210590Y107519D01*
X210049Y107627D01*
X209508Y107519D01*
X209050Y107213D01*
X208964Y107084D01*
X208362D01*
X208276Y107213D01*
X207818Y107519D01*
X207277Y107627D01*
X206736Y107519D01*
X206278Y107213D01*
X206192Y107084D01*
X205591D01*
X205505Y107213D01*
X205046Y107519D01*
X204505Y107627D01*
X203965Y107519D01*
X203506Y107213D01*
X203420Y107084D01*
X202819D01*
X202733Y107213D01*
X202274Y107519D01*
X201734Y107627D01*
X201193Y107519D01*
X200735Y107213D01*
X200649Y107084D01*
X200047D01*
X199961Y107213D01*
X199503Y107519D01*
X198962Y107627D01*
X198421Y107519D01*
X197963Y107213D01*
X197877Y107084D01*
X197276D01*
X197190Y107213D01*
X196731Y107519D01*
X196191Y107627D01*
X195650Y107519D01*
X195191Y107213D01*
X195105Y107084D01*
X194504D01*
X194418Y107213D01*
X193960Y107519D01*
X193419Y107627D01*
X192878Y107519D01*
X192420Y107213D01*
X192367Y107135D01*
X191766D01*
X191648Y107311D01*
X191190Y107617D01*
X190649Y107725D01*
X190283Y107652D01*
X189898Y107917D01*
X189821Y108027D01*
X189727Y108502D01*
X189421Y108961D01*
X188962Y109267D01*
X188421Y109374D01*
X188270Y109344D01*
X187844Y109769D01*
X187874Y109921D01*
X187767Y110462D01*
X187461Y110920D01*
X187002Y111227D01*
X186462Y111334D01*
X186310Y111304D01*
X185884Y111729D01*
X185915Y111881D01*
X185807Y112422D01*
X185501Y112880D01*
X185042Y113187D01*
X184502Y113294D01*
X184350Y113264D01*
X183925Y113689D01*
X183955Y113841D01*
X183847Y114382D01*
X183541Y114840D01*
X183083Y115146D01*
X182542Y115254D01*
X182390Y115224D01*
X181965Y115649D01*
X181995Y115801D01*
X181887Y116342D01*
X181581Y116800D01*
X181123Y117106D01*
X180582Y117214D01*
X180430Y117184D01*
X180005Y117609D01*
X180035Y117761D01*
X179928Y118301D01*
X179621Y118760D01*
X179163Y119066D01*
X178622Y119174D01*
X178470Y119143D01*
X178045Y119569D01*
X178075Y119721D01*
X177968Y120261D01*
X177661Y120720D01*
X177203Y121026D01*
X176662Y121133D01*
X176510Y121103D01*
X176085Y121528D01*
X176115Y121680D01*
X176008Y122221D01*
X175702Y122679D01*
X175243Y122986D01*
X174703Y123093D01*
X174551Y123063D01*
X174125Y123488D01*
X174156Y123640D01*
X174048Y124181D01*
X173742Y124639D01*
X173283Y124946D01*
X172743Y125053D01*
X172591Y125023D01*
X172166Y125448D01*
X172196Y125600D01*
X172088Y126141D01*
X171782Y126599D01*
X171324Y126906D01*
X170783Y127013D01*
X170696Y126996D01*
X170271Y127421D01*
X170313Y127634D01*
X170205Y128175D01*
X169899Y128633D01*
X169599Y128834D01*
X169525Y129325D01*
X169546Y129425D01*
X169823Y129839D01*
X169930Y130379D01*
X169823Y130920D01*
X169516Y131378D01*
X169388Y131465D01*
Y132066D01*
X169516Y132152D01*
X169823Y132610D01*
X169930Y133151D01*
X169823Y133692D01*
X169516Y134150D01*
X169388Y134236D01*
Y134837D01*
X169516Y134924D01*
X169823Y135382D01*
X169930Y135923D01*
X169823Y136463D01*
X169516Y136922D01*
X169388Y137008D01*
Y137609D01*
X169516Y137695D01*
X169823Y138154D01*
X169930Y138694D01*
X169823Y139235D01*
X169516Y139693D01*
X169388Y139779D01*
Y140381D01*
X169516Y140467D01*
X169823Y140925D01*
X169930Y141466D01*
X169823Y142007D01*
X169516Y142465D01*
X169388Y142551D01*
Y143152D01*
X169516Y143238D01*
X169823Y143697D01*
X169930Y144238D01*
X169823Y144778D01*
X169516Y145237D01*
X169388Y145323D01*
Y145924D01*
X169516Y146010D01*
X169823Y146468D01*
X169930Y147009D01*
X169823Y147550D01*
X169516Y148008D01*
X169388Y148094D01*
Y148696D01*
X169516Y148782D01*
X169823Y149240D01*
X169930Y149781D01*
X169823Y150322D01*
X169516Y150780D01*
X169388Y150866D01*
Y151467D01*
X169516Y151553D01*
X169823Y152012D01*
X169930Y152552D01*
X169823Y153093D01*
X169516Y153552D01*
X169388Y153638D01*
Y154239D01*
X169516Y154325D01*
X169823Y154783D01*
X169930Y155324D01*
X169823Y155865D01*
X169516Y156323D01*
X169388Y156409D01*
Y157011D01*
X169516Y157097D01*
X169823Y157555D01*
X169930Y158096D01*
X169823Y158637D01*
X169516Y159095D01*
X169388Y159181D01*
Y159782D01*
X169516Y159868D01*
X169823Y160327D01*
X169930Y160868D01*
X169823Y161408D01*
X169516Y161867D01*
X169388Y161953D01*
Y162554D01*
X169516Y162640D01*
X169823Y163098D01*
X169930Y163639D01*
X169823Y164180D01*
X169516Y164638D01*
X169388Y164724D01*
Y165326D01*
X169516Y165412D01*
X169823Y165870D01*
X169930Y166411D01*
X169823Y166952D01*
X169516Y167410D01*
X169388Y167496D01*
Y168097D01*
X169516Y168183D01*
X169823Y168642D01*
X169930Y169182D01*
X169823Y169723D01*
X169516Y170182D01*
X169388Y170268D01*
Y170869D01*
X169516Y170955D01*
X169823Y171413D01*
X169930Y171954D01*
X169823Y172495D01*
X169516Y172953D01*
X169388Y173039D01*
Y173641D01*
X169516Y173727D01*
X169823Y174185D01*
X169930Y174726D01*
X169823Y175267D01*
X169516Y175725D01*
X169388Y175811D01*
Y176412D01*
X169516Y176498D01*
X169823Y176957D01*
X169930Y177497D01*
X169823Y178038D01*
X169516Y178497D01*
X169388Y178583D01*
Y179184D01*
X169516Y179270D01*
X169823Y179728D01*
X169930Y180269D01*
X169823Y180810D01*
X169516Y181268D01*
X169388Y181354D01*
Y181956D01*
X169516Y182042D01*
X169823Y182500D01*
X169930Y183041D01*
X169823Y183581D01*
X169516Y184040D01*
X169388Y184126D01*
Y184727D01*
X169516Y184813D01*
X169823Y185272D01*
X169930Y185812D01*
X169823Y186353D01*
X169516Y186811D01*
X169388Y186898D01*
Y187499D01*
X169516Y187585D01*
X169823Y188043D01*
X169930Y188584D01*
X169823Y189125D01*
X169516Y189583D01*
X169388Y189669D01*
Y190270D01*
X169516Y190357D01*
X169823Y190815D01*
X169930Y191356D01*
X169823Y191896D01*
X169516Y192355D01*
X169388Y192441D01*
Y193042D01*
X169516Y193128D01*
X169823Y193587D01*
X169930Y194127D01*
X169823Y194668D01*
X169516Y195126D01*
X169388Y195212D01*
Y195814D01*
X169516Y195900D01*
X169823Y196358D01*
X169930Y196899D01*
X169823Y197440D01*
X169516Y197898D01*
X169388Y197984D01*
Y198585D01*
X169516Y198671D01*
X169823Y199130D01*
X169930Y199671D01*
X169823Y200211D01*
X169516Y200670D01*
X169388Y200756D01*
Y201357D01*
X169516Y201443D01*
X169823Y201902D01*
X169930Y202442D01*
X169823Y202983D01*
X169516Y203441D01*
X169388Y203527D01*
Y204129D01*
X169516Y204215D01*
X169823Y204673D01*
X169930Y205214D01*
X169823Y205755D01*
X169516Y206213D01*
X169388Y206299D01*
Y206900D01*
X169516Y206986D01*
X169823Y207445D01*
X169930Y207985D01*
X169823Y208526D01*
X169516Y208985D01*
X169388Y209071D01*
Y209672D01*
X169516Y209758D01*
X169823Y210216D01*
X169930Y210757D01*
X169823Y211298D01*
X169516Y211756D01*
X169388Y211842D01*
Y212444D01*
X169516Y212530D01*
X169823Y212988D01*
X169930Y213529D01*
X169823Y214070D01*
X169516Y214528D01*
X169388Y214614D01*
Y215215D01*
X169516Y215301D01*
X169823Y215760D01*
X169930Y216301D01*
X169823Y216841D01*
X169516Y217300D01*
X169388Y217386D01*
Y217987D01*
X169516Y218073D01*
X169823Y218531D01*
X169930Y219072D01*
X169823Y219613D01*
X169516Y220071D01*
X169388Y220157D01*
Y220759D01*
X169516Y220845D01*
X169823Y221303D01*
X169930Y221844D01*
X169823Y222385D01*
X169516Y222843D01*
X169388Y222929D01*
Y223530D01*
X169516Y223616D01*
X169823Y224075D01*
X169930Y224615D01*
X169823Y225156D01*
X169516Y225615D01*
X169388Y225701D01*
Y226302D01*
X169516Y226388D01*
X169823Y226846D01*
X169930Y227387D01*
X169823Y227928D01*
X169516Y228386D01*
X169388Y228472D01*
Y229074D01*
X169516Y229160D01*
X169823Y229618D01*
X169930Y230159D01*
X169823Y230699D01*
X169516Y231158D01*
X169388Y231244D01*
Y231845D01*
X169516Y231931D01*
X169823Y232390D01*
X169930Y232930D01*
X169823Y233471D01*
X169516Y233929D01*
X169388Y234015D01*
Y234617D01*
X169516Y234703D01*
X169823Y235161D01*
X169930Y235702D01*
X169823Y236243D01*
X169516Y236701D01*
X169388Y236787D01*
Y237388D01*
X169516Y237475D01*
X169823Y237933D01*
X169930Y238474D01*
X169823Y239014D01*
X169516Y239473D01*
X169388Y239559D01*
Y240160D01*
X169516Y240246D01*
X169823Y240705D01*
X169930Y241245D01*
X169823Y241786D01*
X169516Y242245D01*
X169388Y242331D01*
Y242932D01*
X169516Y243018D01*
X169823Y243476D01*
X169930Y244017D01*
X169823Y244558D01*
X169516Y245016D01*
X169388Y245102D01*
Y245704D01*
X169516Y245790D01*
X169823Y246248D01*
X169930Y246789D01*
X169823Y247329D01*
X169516Y247788D01*
X169388Y247874D01*
Y248475D01*
X169516Y248561D01*
X169823Y249020D01*
X169930Y249560D01*
X169823Y250101D01*
X169516Y250559D01*
X169388Y250645D01*
Y251247D01*
X169516Y251333D01*
X169823Y251791D01*
X169930Y252332D01*
X169823Y252873D01*
X169516Y253331D01*
X169388Y253417D01*
Y254018D01*
X169516Y254104D01*
X169823Y254563D01*
X169930Y255104D01*
X169823Y255644D01*
X169516Y256103D01*
X169388Y256189D01*
Y256790D01*
X169516Y256876D01*
X169823Y257334D01*
X169930Y257875D01*
X169823Y258416D01*
X169516Y258874D01*
X169388Y258960D01*
Y259562D01*
X169516Y259648D01*
X169823Y260106D01*
X169930Y260647D01*
X169823Y261188D01*
X169516Y261646D01*
X169388Y261732D01*
Y262333D01*
X169516Y262419D01*
X169823Y262878D01*
X169930Y263419D01*
X169919Y263476D01*
X170329Y263976D01*
X172320D01*
X172345Y263960D01*
Y263359D01*
X172216Y263273D01*
X171910Y262814D01*
X171802Y262274D01*
X171910Y261733D01*
X172216Y261275D01*
X172345Y261189D01*
Y260587D01*
X172216Y260501D01*
X171910Y260043D01*
X171802Y259502D01*
X171910Y258961D01*
X172216Y258503D01*
X172345Y258417D01*
Y257816D01*
X172216Y257730D01*
X171910Y257271D01*
X171802Y256730D01*
X171910Y256190D01*
X172216Y255731D01*
X172345Y255645D01*
Y255044D01*
X172216Y254958D01*
X171910Y254499D01*
X171802Y253959D01*
X171910Y253418D01*
X172216Y252960D01*
X172345Y252873D01*
Y252272D01*
X172216Y252186D01*
X171910Y251728D01*
X171802Y251187D01*
X171910Y250646D01*
X172216Y250188D01*
X172345Y250102D01*
Y249501D01*
X172216Y249414D01*
X171910Y248956D01*
X171802Y248415D01*
X171910Y247875D01*
X172216Y247416D01*
X172345Y247330D01*
Y246729D01*
X172216Y246643D01*
X171910Y246184D01*
X171802Y245644D01*
X171910Y245103D01*
X172216Y244645D01*
X172345Y244559D01*
Y243957D01*
X172216Y243871D01*
X171910Y243413D01*
X171802Y242872D01*
X171910Y242331D01*
X172216Y241873D01*
X172345Y241787D01*
Y241186D01*
X172216Y241100D01*
X171910Y240641D01*
X171802Y240101D01*
X171910Y239560D01*
X172216Y239101D01*
X172345Y239015D01*
Y238414D01*
X172216Y238328D01*
X171910Y237870D01*
X171802Y237329D01*
X171910Y236788D01*
X172216Y236330D01*
X172345Y236244D01*
Y235642D01*
X172216Y235556D01*
X171910Y235098D01*
X171802Y234557D01*
X171910Y234016D01*
X172216Y233558D01*
X172345Y233472D01*
Y232871D01*
X172216Y232785D01*
X171910Y232326D01*
X171802Y231785D01*
X171910Y231245D01*
X172216Y230786D01*
X172345Y230700D01*
Y230099D01*
X172216Y230013D01*
X171910Y229555D01*
X171802Y229014D01*
X171910Y228473D01*
X172216Y228015D01*
X172345Y227929D01*
Y227327D01*
X172216Y227241D01*
X171910Y226783D01*
X171802Y226242D01*
X171910Y225701D01*
X172216Y225243D01*
X172345Y225157D01*
Y224556D01*
X172216Y224470D01*
X171910Y224011D01*
X171802Y223471D01*
X171910Y222930D01*
X172216Y222471D01*
X172345Y222385D01*
Y221784D01*
X172216Y221698D01*
X171910Y221240D01*
X171802Y220699D01*
X171910Y220158D01*
X172216Y219700D01*
X172345Y219614D01*
Y219012D01*
X172216Y218926D01*
X171910Y218468D01*
X171802Y217927D01*
X171910Y217387D01*
X172216Y216928D01*
X172345Y216842D01*
Y216241D01*
X172216Y216155D01*
X171910Y215696D01*
X171802Y215156D01*
X171910Y214615D01*
X172216Y214157D01*
X172345Y214070D01*
Y213469D01*
X172216Y213383D01*
X171910Y212925D01*
X171802Y212384D01*
X171910Y211843D01*
X172216Y211385D01*
X172345Y211299D01*
Y210697D01*
X172216Y210611D01*
X171910Y210153D01*
X171802Y209612D01*
X171910Y209072D01*
X172216Y208613D01*
X172345Y208527D01*
Y207926D01*
X172216Y207840D01*
X171910Y207381D01*
X171802Y206841D01*
X171910Y206300D01*
X172216Y205841D01*
X172345Y205755D01*
Y205154D01*
X172216Y205068D01*
X171910Y204610D01*
X171802Y204069D01*
X171910Y203528D01*
X172216Y203070D01*
X172345Y202984D01*
Y202382D01*
X172216Y202296D01*
X171910Y201838D01*
X171802Y201297D01*
X171910Y200757D01*
X172216Y200298D01*
X172345Y200212D01*
Y199611D01*
X172216Y199525D01*
X171910Y199066D01*
X171802Y198526D01*
X171910Y197985D01*
X172216Y197527D01*
X172345Y197441D01*
Y196839D01*
X172216Y196753D01*
X171910Y196295D01*
X171802Y195754D01*
X171910Y195213D01*
X172216Y194755D01*
X172345Y194669D01*
Y194068D01*
X172216Y193982D01*
X171910Y193523D01*
X171802Y192982D01*
X171910Y192442D01*
X172216Y191983D01*
X172345Y191897D01*
Y191296D01*
X172216Y191210D01*
X171910Y190752D01*
X171802Y190211D01*
X171910Y189670D01*
X172216Y189212D01*
X172345Y189126D01*
Y188524D01*
X172216Y188438D01*
X171910Y187980D01*
X171802Y187439D01*
X171910Y186898D01*
X172216Y186440D01*
X172345Y186354D01*
Y185753D01*
X172216Y185667D01*
X171910Y185208D01*
X171802Y184668D01*
X171910Y184127D01*
X172216Y183668D01*
X172345Y183582D01*
Y182981D01*
X172216Y182895D01*
X171910Y182437D01*
X171802Y181896D01*
X171910Y181355D01*
X172216Y180897D01*
X172345Y180811D01*
Y180209D01*
X172216Y180123D01*
X171910Y179665D01*
X171802Y179124D01*
X171910Y178583D01*
X172216Y178125D01*
X172345Y178039D01*
Y177438D01*
X172216Y177352D01*
X171910Y176893D01*
X171802Y176353D01*
X171910Y175812D01*
X172216Y175353D01*
X172345Y175267D01*
Y174666D01*
X172216Y174580D01*
X171910Y174122D01*
X171802Y173581D01*
X171910Y173040D01*
X172216Y172582D01*
X172345Y172496D01*
Y171894D01*
X172216Y171808D01*
X171910Y171350D01*
X171802Y170809D01*
X171910Y170268D01*
X172216Y169810D01*
X172345Y169724D01*
Y169123D01*
X172216Y169037D01*
X171910Y168578D01*
X171802Y168038D01*
X171910Y167497D01*
X172216Y167038D01*
X172345Y166952D01*
Y166351D01*
X172216Y166265D01*
X171910Y165807D01*
X171802Y165266D01*
X171910Y164725D01*
X172216Y164267D01*
X172345Y164181D01*
Y163579D01*
X172216Y163493D01*
X171910Y163035D01*
X171802Y162494D01*
X171910Y161953D01*
X172216Y161495D01*
X172345Y161409D01*
Y160808D01*
X172216Y160722D01*
X171910Y160263D01*
X171802Y159723D01*
X171910Y159182D01*
X172216Y158723D01*
X172345Y158637D01*
Y158036D01*
X172216Y157950D01*
X171910Y157492D01*
X171802Y156951D01*
X171910Y156410D01*
X172216Y155952D01*
X172345Y155866D01*
Y155264D01*
X172216Y155178D01*
X171910Y154720D01*
X171802Y154179D01*
X171910Y153639D01*
X172216Y153180D01*
X172345Y153094D01*
Y152493D01*
X172216Y152407D01*
X171910Y151948D01*
X171802Y151408D01*
X171910Y150867D01*
X172216Y150408D01*
X172345Y150322D01*
Y149721D01*
X172216Y149635D01*
X171910Y149177D01*
X171802Y148636D01*
X171910Y148095D01*
X172216Y147637D01*
X172345Y147551D01*
Y146950D01*
X172216Y146863D01*
X171910Y146405D01*
X171802Y145864D01*
X171910Y145324D01*
X172216Y144865D01*
X172345Y144779D01*
Y144178D01*
X172216Y144092D01*
X171910Y143633D01*
X171802Y143093D01*
X171910Y142552D01*
X172216Y142094D01*
X172345Y142008D01*
Y141406D01*
X172216Y141320D01*
X171910Y140862D01*
X171802Y140321D01*
X171910Y139780D01*
X172216Y139322D01*
X172345Y139236D01*
Y138635D01*
X172216Y138549D01*
X171910Y138090D01*
X171802Y137549D01*
X171910Y137009D01*
X172216Y136550D01*
X172345Y136464D01*
Y135863D01*
X172216Y135777D01*
X171910Y135319D01*
X171802Y134778D01*
X171910Y134237D01*
X172216Y133779D01*
X172345Y133693D01*
Y133091D01*
X172216Y133005D01*
X171910Y132547D01*
X171802Y132006D01*
X171910Y131465D01*
X172216Y131007D01*
X172570Y130770D01*
X172677Y130470D01*
X172680Y130190D01*
X172436Y129826D01*
X172329Y129285D01*
X172436Y128744D01*
X172742Y128286D01*
X173201Y127980D01*
X173742Y127872D01*
X173893Y127902D01*
X174319Y127477D01*
X174288Y127325D01*
X174396Y126784D01*
X174702Y126326D01*
X175161Y126020D01*
X175701Y125912D01*
X175853Y125942D01*
X176279Y125517D01*
X176248Y125365D01*
X176356Y124825D01*
X176662Y124366D01*
X177121Y124060D01*
X177661Y123952D01*
X177813Y123983D01*
X178238Y123557D01*
X178208Y123405D01*
X178316Y122865D01*
X178622Y122406D01*
X179080Y122100D01*
X179621Y121992D01*
X179773Y122023D01*
X180198Y121597D01*
X180168Y121446D01*
X180276Y120905D01*
X180582Y120446D01*
X181040Y120140D01*
X181581Y120033D01*
X181733Y120063D01*
X182158Y119638D01*
X182128Y119486D01*
X182236Y118945D01*
X182542Y118487D01*
X183000Y118180D01*
X183541Y118073D01*
X183693Y118103D01*
X184118Y117678D01*
X184088Y117526D01*
X184195Y116985D01*
X184502Y116527D01*
X184960Y116220D01*
X185501Y116113D01*
X185653Y116143D01*
X186078Y115718D01*
X186048Y115566D01*
X186155Y115025D01*
X186461Y114567D01*
X186920Y114261D01*
X187461Y114153D01*
X187612Y114183D01*
X188038Y113758D01*
X188007Y113606D01*
X188115Y113065D01*
X188421Y112607D01*
X188880Y112301D01*
X189420Y112193D01*
X189572Y112223D01*
X189998Y111798D01*
X189967Y111646D01*
X190075Y111106D01*
X190381Y110647D01*
X190840Y110341D01*
X191380Y110233D01*
X191921Y110341D01*
X192206Y110531D01*
X192725Y110378D01*
X192763Y110348D01*
X193054Y109913D01*
X193512Y109607D01*
X194053Y109499D01*
X194594Y109607D01*
X195052Y109913D01*
X195138Y110041D01*
X195739D01*
X195826Y109913D01*
X196284Y109607D01*
X196825Y109499D01*
X197365Y109607D01*
X197824Y109913D01*
X197910Y110041D01*
X198511D01*
X198597Y109913D01*
X199056Y109607D01*
X199596Y109499D01*
X200137Y109607D01*
X200595Y109913D01*
X200681Y110041D01*
X201283D01*
X201369Y109913D01*
X201827Y109607D01*
X202368Y109499D01*
X202909Y109607D01*
X203367Y109913D01*
X203453Y110041D01*
X204054D01*
X204140Y109913D01*
X204599Y109607D01*
X205139Y109499D01*
X205680Y109607D01*
X206139Y109913D01*
X206225Y110041D01*
X206826D01*
X206912Y109913D01*
X207370Y109607D01*
X207911Y109499D01*
X208452Y109607D01*
X208910Y109913D01*
X208996Y110041D01*
X209598D01*
X209684Y109913D01*
X210142Y109607D01*
X210683Y109499D01*
X211224Y109607D01*
X211682Y109913D01*
X211768Y110041D01*
X212369D01*
X212455Y109913D01*
X212914Y109607D01*
X213455Y109499D01*
X213995Y109607D01*
X214454Y109913D01*
X214540Y110041D01*
X215141D01*
X215227Y109913D01*
X215685Y109607D01*
X216226Y109499D01*
X216767Y109607D01*
X217225Y109913D01*
X217311Y110041D01*
X217913D01*
X217999Y109913D01*
X218457Y109607D01*
X218998Y109499D01*
X219538Y109607D01*
X219997Y109913D01*
X220083Y110041D01*
X220684D01*
X220770Y109913D01*
X221229Y109607D01*
X221769Y109499D01*
X222310Y109607D01*
X222768Y109913D01*
X222855Y110041D01*
X223456D01*
X223542Y109913D01*
X224000Y109607D01*
X224541Y109499D01*
X225082Y109607D01*
X225540Y109913D01*
X225626Y110041D01*
X226228D01*
X226314Y109913D01*
X226772Y109607D01*
X227313Y109499D01*
X227853Y109607D01*
X228312Y109913D01*
X228618Y110371D01*
X228726Y110912D01*
X228618Y111453D01*
X228312Y111911D01*
X227853Y112217D01*
X227313Y112325D01*
X226772Y112217D01*
X226314Y111911D01*
X226228Y111782D01*
X225626D01*
X225540Y111911D01*
X225082Y112217D01*
X224541Y112325D01*
X224000Y112217D01*
X223542Y111911D01*
X223456Y111782D01*
X222855D01*
X222768Y111911D01*
X222310Y112217D01*
X221769Y112325D01*
X221229Y112217D01*
X220770Y111911D01*
X220684Y111782D01*
X220083D01*
X219997Y111911D01*
X219538Y112217D01*
X218998Y112325D01*
X218457Y112217D01*
X217999Y111911D01*
X217913Y111782D01*
X217311D01*
X217225Y111911D01*
X216767Y112217D01*
X216226Y112325D01*
X215685Y112217D01*
X215227Y111911D01*
X215141Y111782D01*
X214540D01*
X214454Y111911D01*
X213995Y112217D01*
X213455Y112325D01*
X212914Y112217D01*
X212455Y111911D01*
X212369Y111782D01*
X211768D01*
X211682Y111911D01*
X211224Y112217D01*
X210683Y112325D01*
X210142Y112217D01*
X209684Y111911D01*
X209598Y111782D01*
X208996D01*
X208910Y111911D01*
X208452Y112217D01*
X207911Y112325D01*
X207370Y112217D01*
X206912Y111911D01*
X206826Y111782D01*
X206225D01*
X206139Y111911D01*
X205680Y112217D01*
X205139Y112325D01*
X204599Y112217D01*
X204140Y111911D01*
X204054Y111782D01*
X203453D01*
X203367Y111911D01*
X202909Y112217D01*
X202368Y112325D01*
X201827Y112217D01*
X201369Y111911D01*
X201283Y111782D01*
X200681D01*
X200595Y111911D01*
X200137Y112217D01*
X199596Y112325D01*
X199056Y112217D01*
X198597Y111911D01*
X198511Y111782D01*
X197910D01*
X197824Y111911D01*
X197365Y112217D01*
X196825Y112325D01*
X196284Y112217D01*
X195826Y111911D01*
X195739Y111782D01*
X195138D01*
X195052Y111911D01*
X194594Y112217D01*
X194053Y112325D01*
X193512Y112217D01*
X193227Y112027D01*
X192709Y112180D01*
X192670Y112210D01*
X192379Y112645D01*
X191921Y112952D01*
X191380Y113059D01*
X191228Y113029D01*
X190803Y113454D01*
X190833Y113606D01*
X190726Y114147D01*
X190420Y114605D01*
X189961Y114911D01*
X189420Y115019D01*
X189269Y114989D01*
X188843Y115414D01*
X188874Y115566D01*
X188766Y116107D01*
X188460Y116565D01*
X188001Y116871D01*
X187461Y116979D01*
X187309Y116949D01*
X186883Y117374D01*
X186914Y117526D01*
X186806Y118067D01*
X186500Y118525D01*
X186041Y118831D01*
X185501Y118939D01*
X185349Y118909D01*
X184924Y119334D01*
X184954Y119486D01*
X184846Y120026D01*
X184540Y120485D01*
X184082Y120791D01*
X183541Y120899D01*
X183389Y120868D01*
X182964Y121294D01*
X182994Y121446D01*
X182887Y121986D01*
X182580Y122445D01*
X182122Y122751D01*
X181581Y122859D01*
X181429Y122828D01*
X181004Y123254D01*
X181034Y123405D01*
X180927Y123946D01*
X180620Y124405D01*
X180162Y124711D01*
X179621Y124818D01*
X179469Y124788D01*
X179044Y125213D01*
X179074Y125365D01*
X178967Y125906D01*
X178661Y126364D01*
X178202Y126671D01*
X177661Y126778D01*
X177509Y126748D01*
X177084Y127173D01*
X177114Y127325D01*
X177007Y127866D01*
X176701Y128324D01*
X176242Y128630D01*
X175701Y128738D01*
X175550Y128708D01*
X175124Y129133D01*
X175155Y129285D01*
X175047Y129826D01*
X174741Y130284D01*
X174387Y130521D01*
X174280Y130821D01*
X174277Y131101D01*
X174521Y131465D01*
X174628Y132006D01*
X174521Y132547D01*
X174214Y133005D01*
X174085Y133091D01*
Y133693D01*
X174214Y133779D01*
X174521Y134237D01*
X174628Y134778D01*
X174521Y135319D01*
X174214Y135777D01*
X174085Y135863D01*
Y136464D01*
X174214Y136550D01*
X174521Y137009D01*
X174628Y137549D01*
X174521Y138090D01*
X174214Y138549D01*
X174085Y138635D01*
Y139236D01*
X174214Y139322D01*
X174521Y139780D01*
X174628Y140321D01*
X174521Y140862D01*
X174214Y141320D01*
X174085Y141406D01*
Y142008D01*
X174214Y142094D01*
X174521Y142552D01*
X174628Y143093D01*
X174521Y143633D01*
X174214Y144092D01*
X174085Y144178D01*
Y144779D01*
X174214Y144865D01*
X174521Y145324D01*
X174628Y145864D01*
X174521Y146405D01*
X174214Y146863D01*
X174085Y146950D01*
Y147551D01*
X174214Y147637D01*
X174521Y148095D01*
X174628Y148636D01*
X174521Y149177D01*
X174214Y149635D01*
X174085Y149721D01*
Y150322D01*
X174214Y150408D01*
X174521Y150867D01*
X174628Y151408D01*
X174521Y151948D01*
X174214Y152407D01*
X174085Y152493D01*
Y153094D01*
X174214Y153180D01*
X174521Y153639D01*
X174628Y154179D01*
X174521Y154720D01*
X174214Y155178D01*
X174085Y155264D01*
Y155866D01*
X174214Y155952D01*
X174521Y156410D01*
X174628Y156951D01*
X174521Y157492D01*
X174214Y157950D01*
X174085Y158036D01*
Y158637D01*
X174214Y158723D01*
X174521Y159182D01*
X174628Y159723D01*
X174521Y160263D01*
X174214Y160722D01*
X174085Y160808D01*
Y161409D01*
X174214Y161495D01*
X174521Y161953D01*
X174628Y162494D01*
X174521Y163035D01*
X174214Y163493D01*
X174085Y163579D01*
Y164181D01*
X174214Y164267D01*
X174521Y164725D01*
X174628Y165266D01*
X174521Y165807D01*
X174214Y166265D01*
X174085Y166351D01*
Y166952D01*
X174214Y167038D01*
X174521Y167497D01*
X174628Y168038D01*
X174521Y168578D01*
X174214Y169037D01*
X174085Y169123D01*
Y169724D01*
X174214Y169810D01*
X174521Y170268D01*
X174628Y170809D01*
X174521Y171350D01*
X174214Y171808D01*
X174085Y171894D01*
Y172496D01*
X174214Y172582D01*
X174521Y173040D01*
X174628Y173581D01*
X174521Y174122D01*
X174214Y174580D01*
X174085Y174666D01*
Y175267D01*
X174214Y175353D01*
X174521Y175812D01*
X174628Y176353D01*
X174521Y176893D01*
X174214Y177352D01*
X174085Y177438D01*
Y178039D01*
X174214Y178125D01*
X174521Y178583D01*
X174628Y179124D01*
X174521Y179665D01*
X174214Y180123D01*
X174085Y180209D01*
Y180811D01*
X174214Y180897D01*
X174521Y181355D01*
X174628Y181896D01*
X174521Y182437D01*
X174214Y182895D01*
X174085Y182981D01*
Y183582D01*
X174214Y183668D01*
X174521Y184127D01*
X174628Y184668D01*
X174521Y185208D01*
X174214Y185667D01*
X174085Y185753D01*
Y186354D01*
X174214Y186440D01*
X174521Y186898D01*
X174628Y187439D01*
X174521Y187980D01*
X174214Y188438D01*
X174085Y188524D01*
Y189126D01*
X174214Y189212D01*
X174521Y189670D01*
X174628Y190211D01*
X174521Y190752D01*
X174214Y191210D01*
X174085Y191296D01*
Y191897D01*
X174214Y191983D01*
X174521Y192442D01*
X174628Y192982D01*
X174521Y193523D01*
X174214Y193982D01*
X174085Y194068D01*
Y194669D01*
X174214Y194755D01*
X174521Y195213D01*
X174628Y195754D01*
X174521Y196295D01*
X174214Y196753D01*
X174085Y196839D01*
Y197441D01*
X174214Y197527D01*
X174521Y197985D01*
X174628Y198526D01*
X174521Y199066D01*
X174214Y199525D01*
X174085Y199611D01*
Y200212D01*
X174214Y200298D01*
X174521Y200757D01*
X174628Y201297D01*
X174521Y201838D01*
X174214Y202296D01*
X174085Y202382D01*
Y202984D01*
X174214Y203070D01*
X174521Y203528D01*
X174628Y204069D01*
X174521Y204610D01*
X174214Y205068D01*
X174085Y205154D01*
Y205755D01*
X174214Y205841D01*
X174521Y206300D01*
X174628Y206841D01*
X174521Y207381D01*
X174214Y207840D01*
X174085Y207926D01*
Y208527D01*
X174214Y208613D01*
X174521Y209072D01*
X174628Y209612D01*
X174521Y210153D01*
X174214Y210611D01*
X174085Y210697D01*
Y211299D01*
X174214Y211385D01*
X174521Y211843D01*
X174628Y212384D01*
X174521Y212925D01*
X174214Y213383D01*
X174085Y213469D01*
Y214070D01*
X174214Y214157D01*
X174521Y214615D01*
X174628Y215156D01*
X174521Y215696D01*
X174214Y216155D01*
X174085Y216241D01*
Y216842D01*
X174214Y216928D01*
X174521Y217387D01*
X174628Y217927D01*
X174521Y218468D01*
X174214Y218926D01*
X174085Y219012D01*
Y219614D01*
X174214Y219700D01*
X174521Y220158D01*
X174628Y220699D01*
X174521Y221240D01*
X174214Y221698D01*
X174085Y221784D01*
Y222385D01*
X174214Y222471D01*
X174521Y222930D01*
X174628Y223471D01*
X174521Y224011D01*
X174214Y224470D01*
X174085Y224556D01*
Y225157D01*
X174214Y225243D01*
X174521Y225701D01*
X174628Y226242D01*
X174521Y226783D01*
X174214Y227241D01*
X174085Y227327D01*
Y227929D01*
X174214Y228015D01*
X174521Y228473D01*
X174628Y229014D01*
X174521Y229555D01*
X174214Y230013D01*
X174085Y230099D01*
Y230700D01*
X174214Y230786D01*
X174521Y231245D01*
X174628Y231785D01*
X174521Y232326D01*
X174214Y232785D01*
X174085Y232871D01*
Y233472D01*
X174214Y233558D01*
X174521Y234016D01*
X174628Y234557D01*
X174521Y235098D01*
X174214Y235556D01*
X174085Y235642D01*
Y236244D01*
X174214Y236330D01*
X174521Y236788D01*
X174628Y237329D01*
X174521Y237870D01*
X174214Y238328D01*
X174085Y238414D01*
Y239015D01*
X174214Y239101D01*
X174521Y239560D01*
X174628Y240101D01*
X174521Y240641D01*
X174214Y241100D01*
X174085Y241186D01*
Y241787D01*
X174214Y241873D01*
X174521Y242331D01*
X174628Y242872D01*
X174521Y243413D01*
X174214Y243871D01*
X174085Y243957D01*
Y244559D01*
X174214Y244645D01*
X174521Y245103D01*
X174628Y245644D01*
X174521Y246184D01*
X174214Y246643D01*
X174085Y246729D01*
Y247330D01*
X174214Y247416D01*
X174521Y247875D01*
X174628Y248415D01*
X174521Y248956D01*
X174214Y249414D01*
X174085Y249501D01*
Y250102D01*
X174214Y250188D01*
X174521Y250646D01*
X174628Y251187D01*
X174521Y251728D01*
X174214Y252186D01*
X174085Y252272D01*
Y252873D01*
X174214Y252960D01*
X174521Y253418D01*
X174628Y253959D01*
X174521Y254499D01*
X174214Y254958D01*
X174085Y255044D01*
Y255645D01*
X174214Y255731D01*
X174521Y256190D01*
X174628Y256730D01*
X174521Y257271D01*
X174214Y257730D01*
X174085Y257816D01*
Y258417D01*
X174214Y258503D01*
X174521Y258961D01*
X174628Y259502D01*
X174521Y260043D01*
X174214Y260501D01*
X174085Y260587D01*
Y261189D01*
X174214Y261275D01*
X174521Y261733D01*
X174628Y262274D01*
X174521Y262814D01*
X174214Y263273D01*
X174371Y263770D01*
X174579Y263976D01*
X175995D01*
X176159Y263776D01*
X176267Y263235D01*
X176573Y262777D01*
X176702Y262691D01*
Y262089D01*
X176573Y262003D01*
X176267Y261545D01*
X176159Y261004D01*
X176267Y260464D01*
X176573Y260005D01*
X176702Y259919D01*
Y259318D01*
X176573Y259232D01*
X176267Y258773D01*
X176159Y258233D01*
X176267Y257692D01*
X176573Y257234D01*
X176702Y257148D01*
Y256546D01*
X176573Y256460D01*
X176267Y256002D01*
X176159Y255461D01*
X176267Y254920D01*
X176573Y254462D01*
X176702Y254376D01*
Y253774D01*
X176573Y253689D01*
X176267Y253230D01*
X176159Y252689D01*
X176267Y252149D01*
X176573Y251690D01*
X176702Y251604D01*
Y251003D01*
X176573Y250917D01*
X176267Y250458D01*
X176159Y249918D01*
X176267Y249377D01*
X176573Y248919D01*
X176702Y248833D01*
Y248231D01*
X176573Y248145D01*
X176267Y247687D01*
X176159Y247146D01*
X176267Y246605D01*
X176573Y246147D01*
X176702Y246061D01*
Y245460D01*
X176573Y245374D01*
X176267Y244915D01*
X176159Y244374D01*
X176267Y243834D01*
X176573Y243375D01*
X176702Y243289D01*
Y242688D01*
X176573Y242602D01*
X176267Y242144D01*
X176159Y241603D01*
X176267Y241062D01*
X176573Y240604D01*
X176702Y240518D01*
Y239916D01*
X176573Y239830D01*
X176267Y239372D01*
X176159Y238831D01*
X176267Y238290D01*
X176573Y237832D01*
X176702Y237746D01*
Y237145D01*
X176573Y237059D01*
X176267Y236600D01*
X176159Y236059D01*
X176267Y235519D01*
X176573Y235060D01*
X176702Y234974D01*
Y234373D01*
X176573Y234287D01*
X176267Y233828D01*
X176159Y233288D01*
X176267Y232747D01*
X176573Y232289D01*
X176702Y232203D01*
Y231601D01*
X176573Y231515D01*
X176267Y231057D01*
X176159Y230516D01*
X176267Y229976D01*
X176573Y229517D01*
X176702Y229431D01*
Y228830D01*
X176573Y228744D01*
X176267Y228285D01*
X176159Y227745D01*
X176267Y227204D01*
X176573Y226745D01*
X176702Y226659D01*
Y226058D01*
X176573Y225972D01*
X176267Y225514D01*
X176159Y224973D01*
X176267Y224432D01*
X176573Y223974D01*
X176702Y223888D01*
Y223286D01*
X176573Y223200D01*
X176267Y222742D01*
X176159Y222201D01*
X176267Y221660D01*
X176573Y221202D01*
X176702Y221116D01*
Y220515D01*
X176573Y220429D01*
X176267Y219970D01*
X176159Y219430D01*
X176267Y218889D01*
X176573Y218430D01*
X176702Y218344D01*
Y217743D01*
X176573Y217657D01*
X176267Y217199D01*
X176159Y216658D01*
X176267Y216117D01*
X176573Y215659D01*
X176702Y215573D01*
Y214971D01*
X176573Y214885D01*
X176267Y214427D01*
X176159Y213886D01*
X176267Y213346D01*
X176573Y212887D01*
X176702Y212801D01*
Y212200D01*
X176573Y212114D01*
X176267Y211655D01*
X176159Y211115D01*
X176267Y210574D01*
X176573Y210116D01*
X176702Y210030D01*
Y209428D01*
X176573Y209342D01*
X176267Y208884D01*
X176159Y208343D01*
X176267Y207802D01*
X176573Y207344D01*
X176702Y207258D01*
Y206657D01*
X176573Y206570D01*
X176267Y206112D01*
X176159Y205571D01*
X176267Y205031D01*
X176573Y204572D01*
X176702Y204486D01*
Y203885D01*
X176573Y203799D01*
X176267Y203340D01*
X176159Y202800D01*
X176267Y202259D01*
X176573Y201800D01*
X176702Y201714D01*
Y201113D01*
X176573Y201027D01*
X176267Y200569D01*
X176159Y200028D01*
X176267Y199487D01*
X176573Y199029D01*
X176702Y198943D01*
Y198342D01*
X176573Y198256D01*
X176267Y197797D01*
X176159Y197256D01*
X176267Y196716D01*
X176573Y196257D01*
X176702Y196171D01*
Y195570D01*
X176573Y195484D01*
X176267Y195025D01*
X176159Y194485D01*
X176267Y193944D01*
X176573Y193486D01*
X176702Y193400D01*
Y192798D01*
X176573Y192712D01*
X176267Y192254D01*
X176159Y191713D01*
X176267Y191172D01*
X176573Y190714D01*
X176702Y190628D01*
Y190027D01*
X176573Y189941D01*
X176267Y189482D01*
X176159Y188941D01*
X176267Y188401D01*
X176573Y187942D01*
X176702Y187856D01*
Y187255D01*
X176573Y187169D01*
X176267Y186711D01*
X176159Y186170D01*
X176267Y185629D01*
X176573Y185171D01*
X176702Y185085D01*
Y184483D01*
X176573Y184397D01*
X176267Y183939D01*
X176159Y183398D01*
X176267Y182857D01*
X176573Y182399D01*
X176702Y182313D01*
Y181712D01*
X176573Y181626D01*
X176267Y181167D01*
X176159Y180626D01*
X176267Y180086D01*
X176573Y179627D01*
X176702Y179541D01*
Y178940D01*
X176573Y178854D01*
X176267Y178395D01*
X176159Y177855D01*
X176267Y177314D01*
X176573Y176856D01*
X176702Y176770D01*
Y176168D01*
X176573Y176082D01*
X176267Y175624D01*
X176159Y175083D01*
X176267Y174542D01*
X176573Y174084D01*
X176702Y173998D01*
Y173397D01*
X176573Y173311D01*
X176267Y172852D01*
X176159Y172311D01*
X176267Y171771D01*
X176573Y171312D01*
X176702Y171226D01*
Y170625D01*
X176573Y170539D01*
X176267Y170081D01*
X176159Y169540D01*
X176267Y168999D01*
X176573Y168541D01*
X176702Y168455D01*
Y167853D01*
X176573Y167767D01*
X176267Y167309D01*
X176159Y166768D01*
X176267Y166227D01*
X176573Y165769D01*
X176702Y165683D01*
Y165082D01*
X176573Y164996D01*
X176267Y164537D01*
X176159Y163997D01*
X176267Y163456D01*
X176573Y162997D01*
X176702Y162911D01*
Y162310D01*
X176573Y162224D01*
X176267Y161766D01*
X176159Y161225D01*
X176267Y160684D01*
X176573Y160226D01*
X176702Y160140D01*
Y159538D01*
X176573Y159452D01*
X176267Y158994D01*
X176159Y158453D01*
X176267Y157913D01*
X176573Y157454D01*
X176702Y157368D01*
Y156767D01*
X176573Y156681D01*
X176267Y156222D01*
X176159Y155682D01*
X176267Y155141D01*
X176573Y154683D01*
X176702Y154596D01*
Y153995D01*
X176573Y153909D01*
X176267Y153451D01*
X176159Y152910D01*
X176267Y152369D01*
X176573Y151911D01*
X176702Y151825D01*
Y151224D01*
X176573Y151137D01*
X176267Y150679D01*
X176159Y150138D01*
X176267Y149598D01*
X176573Y149139D01*
X176702Y149053D01*
Y148452D01*
X176573Y148366D01*
X176267Y147907D01*
X176159Y147367D01*
X176267Y146826D01*
X176573Y146368D01*
X176702Y146282D01*
Y145680D01*
X176573Y145594D01*
X176267Y145136D01*
X176159Y144595D01*
X176267Y144054D01*
X176573Y143596D01*
X176702Y143510D01*
Y142909D01*
X176573Y142823D01*
X176267Y142364D01*
X176159Y141823D01*
X176267Y141283D01*
X176573Y140824D01*
X176702Y140738D01*
Y140137D01*
X176573Y140051D01*
X176267Y139592D01*
X176159Y139052D01*
X176267Y138511D01*
X176573Y138053D01*
X176702Y137967D01*
Y137365D01*
X176573Y137279D01*
X176267Y136821D01*
X176159Y136280D01*
X176267Y135739D01*
X176573Y135281D01*
X176702Y135195D01*
Y134594D01*
X176573Y134508D01*
X176267Y134049D01*
X176159Y133508D01*
X176267Y132968D01*
X176573Y132509D01*
X177032Y132203D01*
X177303Y132149D01*
X177551Y131620D01*
X177524Y131579D01*
X177416Y131038D01*
X177524Y130497D01*
X177830Y130039D01*
X178288Y129733D01*
X178829Y129625D01*
X178981Y129655D01*
X179406Y129230D01*
X179376Y129078D01*
X179483Y128537D01*
X179790Y128079D01*
X180248Y127773D01*
X180789Y127665D01*
X180941Y127695D01*
X181366Y127270D01*
X181336Y127118D01*
X181443Y126578D01*
X181750Y126119D01*
X182208Y125813D01*
X182749Y125705D01*
X182901Y125736D01*
X183326Y125310D01*
X183296Y125159D01*
X183403Y124618D01*
X183710Y124159D01*
X184168Y123853D01*
X184709Y123746D01*
X184861Y123776D01*
X185286Y123351D01*
X185256Y123199D01*
X185363Y122658D01*
X185669Y122199D01*
X186128Y121893D01*
X186669Y121786D01*
X186820Y121816D01*
X187246Y121391D01*
X187215Y121239D01*
X187323Y120698D01*
X187629Y120240D01*
X188088Y119933D01*
X188628Y119826D01*
X188780Y119856D01*
X189205Y119431D01*
X189175Y119279D01*
X189283Y118738D01*
X189589Y118280D01*
X190047Y117973D01*
X190588Y117866D01*
X190740Y117896D01*
X191165Y117471D01*
X191135Y117319D01*
X191243Y116778D01*
X191549Y116320D01*
X192007Y116014D01*
X192548Y115906D01*
X193089Y116014D01*
X193266Y116132D01*
X193822Y115902D01*
X193840Y115811D01*
X194146Y115353D01*
X194605Y115047D01*
X195145Y114939D01*
X195686Y115047D01*
X196145Y115353D01*
X196231Y115481D01*
X196832D01*
X196918Y115353D01*
X197376Y115047D01*
X197917Y114939D01*
X198458Y115047D01*
X198916Y115353D01*
X199002Y115481D01*
X199604D01*
X199690Y115353D01*
X200148Y115047D01*
X200689Y114939D01*
X201229Y115047D01*
X201688Y115353D01*
X201774Y115481D01*
X202375D01*
X202461Y115353D01*
X202920Y115047D01*
X203460Y114939D01*
X204001Y115047D01*
X204460Y115353D01*
X204545Y115481D01*
X205147D01*
X205233Y115353D01*
X205691Y115047D01*
X206232Y114939D01*
X206773Y115047D01*
X207231Y115353D01*
X207317Y115481D01*
X207919D01*
X208005Y115353D01*
X208463Y115047D01*
X209004Y114939D01*
X209544Y115047D01*
X210003Y115353D01*
X210089Y115481D01*
X210690D01*
X210776Y115353D01*
X211235Y115047D01*
X211775Y114939D01*
X212316Y115047D01*
X212774Y115353D01*
X212860Y115481D01*
X213462D01*
X213548Y115353D01*
X214006Y115047D01*
X214547Y114939D01*
X215088Y115047D01*
X215546Y115353D01*
X215632Y115481D01*
X216233D01*
X216319Y115353D01*
X216778Y115047D01*
X217319Y114939D01*
X217859Y115047D01*
X218318Y115353D01*
X218404Y115481D01*
X219005D01*
X219091Y115353D01*
X219550Y115047D01*
X220090Y114939D01*
X220631Y115047D01*
X221089Y115353D01*
X221175Y115481D01*
X221777D01*
X221863Y115353D01*
X222321Y115047D01*
X222862Y114939D01*
X223403Y115047D01*
X223861Y115353D01*
X223947Y115481D01*
X224548D01*
X224635Y115353D01*
X225093Y115047D01*
X225634Y114939D01*
X226174Y115047D01*
X226633Y115353D01*
X226719Y115481D01*
X227320D01*
X227406Y115353D01*
X227865Y115047D01*
X228405Y114939D01*
X228946Y115047D01*
X229404Y115353D01*
X229490Y115481D01*
X230092D01*
X230178Y115353D01*
X230636Y115047D01*
X231177Y114939D01*
X231718Y115047D01*
X232176Y115353D01*
X232262Y115481D01*
X232863D01*
X232949Y115353D01*
X233408Y115047D01*
X233948Y114939D01*
X234489Y115047D01*
X234948Y115353D01*
X235034Y115481D01*
X235635D01*
X235721Y115353D01*
X236179Y115047D01*
X236720Y114939D01*
X237261Y115047D01*
X237719Y115353D01*
X237805Y115481D01*
X238407D01*
X238493Y115353D01*
X238951Y115047D01*
X239492Y114939D01*
X240033Y115047D01*
X240491Y115353D01*
X240577Y115481D01*
X241178D01*
X241264Y115353D01*
X241723Y115047D01*
X242264Y114939D01*
X242804Y115047D01*
X243263Y115353D01*
X243349Y115481D01*
X243950D01*
X244036Y115353D01*
X244494Y115047D01*
X245035Y114939D01*
X245576Y115047D01*
X246034Y115353D01*
X246120Y115481D01*
X246722D01*
X246808Y115353D01*
X247266Y115047D01*
X247807Y114939D01*
X248347Y115047D01*
X248806Y115353D01*
X248892Y115481D01*
X249493D01*
X249579Y115353D01*
X250038Y115047D01*
X250578Y114939D01*
X251119Y115047D01*
X251578Y115353D01*
X251664Y115481D01*
X252265D01*
X252351Y115353D01*
X252809Y115047D01*
X253350Y114939D01*
X253891Y115047D01*
X254349Y115353D01*
X254435Y115481D01*
X255037D01*
X255123Y115353D01*
X255581Y115047D01*
X256122Y114939D01*
X256662Y115047D01*
X257121Y115353D01*
X257207Y115481D01*
X257808D01*
X257894Y115353D01*
X258353Y115047D01*
X258893Y114939D01*
X259434Y115047D01*
X259893Y115353D01*
X259979Y115481D01*
X260580D01*
X260666Y115353D01*
X261124Y115047D01*
X261665Y114939D01*
X262022Y115010D01*
X262418Y114723D01*
X262479Y114630D01*
X262576Y114146D01*
X262882Y113688D01*
X263340Y113382D01*
X263881Y113274D01*
X264033Y113304D01*
X264458Y112879D01*
X264428Y112727D01*
X264535Y112186D01*
X264842Y111728D01*
X265300Y111422D01*
X265841Y111314D01*
X266382Y111422D01*
X266840Y111728D01*
X267146Y112186D01*
X267254Y112727D01*
X267146Y113268D01*
X266840Y113726D01*
X266382Y114032D01*
X265841Y114140D01*
X265689Y114110D01*
X265264Y114535D01*
X265294Y114687D01*
X265186Y115228D01*
X264880Y115686D01*
X264422Y115992D01*
X263881Y116100D01*
X263524Y116029D01*
X263128Y116316D01*
X263067Y116409D01*
X262970Y116893D01*
X262664Y117351D01*
X262206Y117657D01*
X261665Y117765D01*
X261124Y117657D01*
X260666Y117351D01*
X260580Y117222D01*
X259979D01*
X259893Y117351D01*
X259434Y117657D01*
X258893Y117765D01*
X258353Y117657D01*
X257894Y117351D01*
X257808Y117222D01*
X257207D01*
X257121Y117351D01*
X256662Y117657D01*
X256122Y117765D01*
X255581Y117657D01*
X255123Y117351D01*
X255037Y117222D01*
X254435D01*
X254349Y117351D01*
X253891Y117657D01*
X253350Y117765D01*
X252809Y117657D01*
X252351Y117351D01*
X252265Y117222D01*
X251664D01*
X251578Y117351D01*
X251119Y117657D01*
X250578Y117765D01*
X250038Y117657D01*
X249579Y117351D01*
X249493Y117222D01*
X248892D01*
X248806Y117351D01*
X248347Y117657D01*
X247807Y117765D01*
X247266Y117657D01*
X246808Y117351D01*
X246722Y117222D01*
X246120D01*
X246034Y117351D01*
X245576Y117657D01*
X245035Y117765D01*
X244494Y117657D01*
X244036Y117351D01*
X243950Y117222D01*
X243349D01*
X243263Y117351D01*
X242804Y117657D01*
X242264Y117765D01*
X241723Y117657D01*
X241264Y117351D01*
X241178Y117222D01*
X240577D01*
X240491Y117351D01*
X240033Y117657D01*
X239492Y117765D01*
X238951Y117657D01*
X238493Y117351D01*
X238407Y117222D01*
X237805D01*
X237719Y117351D01*
X237261Y117657D01*
X236720Y117765D01*
X236179Y117657D01*
X235721Y117351D01*
X235635Y117222D01*
X235034D01*
X234948Y117351D01*
X234489Y117657D01*
X233948Y117765D01*
X233408Y117657D01*
X232949Y117351D01*
X232863Y117222D01*
X232262D01*
X232176Y117351D01*
X231718Y117657D01*
X231177Y117765D01*
X230636Y117657D01*
X230178Y117351D01*
X230092Y117222D01*
X229490D01*
X229404Y117351D01*
X228946Y117657D01*
X228405Y117765D01*
X227865Y117657D01*
X227406Y117351D01*
X227320Y117222D01*
X226719D01*
X226633Y117351D01*
X226174Y117657D01*
X225634Y117765D01*
X225093Y117657D01*
X224635Y117351D01*
X224548Y117222D01*
X223947D01*
X223861Y117351D01*
X223403Y117657D01*
X222862Y117765D01*
X222321Y117657D01*
X221863Y117351D01*
X221777Y117222D01*
X221175D01*
X221089Y117351D01*
X220631Y117657D01*
X220090Y117765D01*
X219550Y117657D01*
X219091Y117351D01*
X219005Y117222D01*
X218404D01*
X218318Y117351D01*
X217859Y117657D01*
X217319Y117765D01*
X216778Y117657D01*
X216319Y117351D01*
X216233Y117222D01*
X215632D01*
X215546Y117351D01*
X215088Y117657D01*
X214547Y117765D01*
X214006Y117657D01*
X213548Y117351D01*
X213462Y117222D01*
X212860D01*
X212774Y117351D01*
X212316Y117657D01*
X211775Y117765D01*
X211235Y117657D01*
X210776Y117351D01*
X210690Y117222D01*
X210089D01*
X210003Y117351D01*
X209544Y117657D01*
X209004Y117765D01*
X208463Y117657D01*
X208005Y117351D01*
X207919Y117222D01*
X207317D01*
X207231Y117351D01*
X206773Y117657D01*
X206232Y117765D01*
X205691Y117657D01*
X205233Y117351D01*
X205147Y117222D01*
X204545D01*
X204460Y117351D01*
X204001Y117657D01*
X203460Y117765D01*
X202920Y117657D01*
X202461Y117351D01*
X202375Y117222D01*
X201774D01*
X201688Y117351D01*
X201229Y117657D01*
X200689Y117765D01*
X200148Y117657D01*
X199690Y117351D01*
X199604Y117222D01*
X199002D01*
X198916Y117351D01*
X198458Y117657D01*
X197917Y117765D01*
X197376Y117657D01*
X196918Y117351D01*
X196832Y117222D01*
X196231D01*
X196145Y117351D01*
X195686Y117657D01*
X195145Y117765D01*
X194605Y117657D01*
X194427Y117539D01*
X193871Y117769D01*
X193853Y117860D01*
X193547Y118318D01*
X193089Y118624D01*
X192548Y118732D01*
X192396Y118702D01*
X191971Y119127D01*
X192001Y119279D01*
X191894Y119820D01*
X191587Y120278D01*
X191129Y120584D01*
X190588Y120692D01*
X190436Y120662D01*
X190011Y121087D01*
X190041Y121239D01*
X189934Y121780D01*
X189627Y122238D01*
X189169Y122544D01*
X188628Y122652D01*
X188476Y122622D01*
X188051Y123047D01*
X188081Y123199D01*
X187974Y123739D01*
X187668Y124198D01*
X187209Y124504D01*
X186669Y124612D01*
X186517Y124581D01*
X186091Y125007D01*
X186122Y125159D01*
X186014Y125699D01*
X185708Y126158D01*
X185249Y126464D01*
X184709Y126572D01*
X184557Y126541D01*
X184132Y126967D01*
X184162Y127118D01*
X184054Y127659D01*
X183748Y128118D01*
X183290Y128424D01*
X182749Y128531D01*
X182597Y128501D01*
X182172Y128926D01*
X182202Y129078D01*
X182094Y129619D01*
X181788Y130077D01*
X181330Y130384D01*
X180789Y130491D01*
X180637Y130461D01*
X180212Y130886D01*
X180242Y131038D01*
X180134Y131579D01*
X179828Y132037D01*
X179370Y132343D01*
X179098Y132397D01*
X178850Y132926D01*
X178878Y132968D01*
X178985Y133508D01*
X178878Y134049D01*
X178571Y134508D01*
X178443Y134594D01*
Y135195D01*
X178571Y135281D01*
X178878Y135739D01*
X178985Y136280D01*
X178878Y136821D01*
X178571Y137279D01*
X178443Y137365D01*
Y137967D01*
X178571Y138053D01*
X178878Y138511D01*
X178985Y139052D01*
X178878Y139592D01*
X178571Y140051D01*
X178443Y140137D01*
Y140738D01*
X178571Y140824D01*
X178878Y141283D01*
X178985Y141823D01*
X178878Y142364D01*
X178571Y142823D01*
X178443Y142909D01*
Y143510D01*
X178571Y143596D01*
X178878Y144054D01*
X178985Y144595D01*
X178878Y145136D01*
X178571Y145594D01*
X178443Y145680D01*
Y146282D01*
X178571Y146368D01*
X178878Y146826D01*
X178985Y147367D01*
X178878Y147907D01*
X178571Y148366D01*
X178443Y148452D01*
Y149053D01*
X178571Y149139D01*
X178878Y149598D01*
X178985Y150138D01*
X178878Y150679D01*
X178571Y151137D01*
X178443Y151224D01*
Y151825D01*
X178571Y151911D01*
X178878Y152369D01*
X178985Y152910D01*
X178878Y153451D01*
X178571Y153909D01*
X178443Y153995D01*
Y154596D01*
X178571Y154683D01*
X178878Y155141D01*
X178985Y155682D01*
X178878Y156222D01*
X178571Y156681D01*
X178443Y156767D01*
Y157368D01*
X178571Y157454D01*
X178878Y157913D01*
X178985Y158453D01*
X178878Y158994D01*
X178571Y159452D01*
X178443Y159538D01*
Y160140D01*
X178571Y160226D01*
X178878Y160684D01*
X178985Y161225D01*
X178878Y161766D01*
X178571Y162224D01*
X178443Y162310D01*
Y162911D01*
X178571Y162997D01*
X178878Y163456D01*
X178985Y163997D01*
X178878Y164537D01*
X178571Y164996D01*
X178443Y165082D01*
Y165683D01*
X178571Y165769D01*
X178878Y166227D01*
X178985Y166768D01*
X178878Y167309D01*
X178571Y167767D01*
X178443Y167853D01*
Y168455D01*
X178571Y168541D01*
X178878Y168999D01*
X178985Y169540D01*
X178878Y170081D01*
X178571Y170539D01*
X178443Y170625D01*
Y171226D01*
X178571Y171312D01*
X178878Y171771D01*
X178985Y172311D01*
X178878Y172852D01*
X178571Y173311D01*
X178443Y173397D01*
Y173998D01*
X178571Y174084D01*
X178878Y174542D01*
X178985Y175083D01*
X178878Y175624D01*
X178571Y176082D01*
X178443Y176168D01*
Y176770D01*
X178571Y176856D01*
X178878Y177314D01*
X178985Y177855D01*
X178878Y178395D01*
X178571Y178854D01*
X178443Y178940D01*
Y179541D01*
X178571Y179627D01*
X178878Y180086D01*
X178985Y180626D01*
X178878Y181167D01*
X178571Y181626D01*
X178443Y181712D01*
Y182313D01*
X178571Y182399D01*
X178878Y182857D01*
X178985Y183398D01*
X178878Y183939D01*
X178571Y184397D01*
X178443Y184483D01*
Y185085D01*
X178571Y185171D01*
X178878Y185629D01*
X178985Y186170D01*
X178878Y186711D01*
X178571Y187169D01*
X178443Y187255D01*
Y187856D01*
X178571Y187942D01*
X178878Y188401D01*
X178985Y188941D01*
X178878Y189482D01*
X178571Y189941D01*
X178443Y190027D01*
Y190628D01*
X178571Y190714D01*
X178878Y191172D01*
X178985Y191713D01*
X178878Y192254D01*
X178571Y192712D01*
X178443Y192798D01*
Y193400D01*
X178571Y193486D01*
X178878Y193944D01*
X178985Y194485D01*
X178878Y195025D01*
X178571Y195484D01*
X178443Y195570D01*
Y196171D01*
X178571Y196257D01*
X178878Y196716D01*
X178985Y197256D01*
X178878Y197797D01*
X178571Y198256D01*
X178443Y198342D01*
Y198943D01*
X178571Y199029D01*
X178878Y199487D01*
X178985Y200028D01*
X178878Y200569D01*
X178571Y201027D01*
X178443Y201113D01*
Y201714D01*
X178571Y201800D01*
X178878Y202259D01*
X178985Y202800D01*
X178878Y203340D01*
X178571Y203799D01*
X178443Y203885D01*
Y204486D01*
X178571Y204572D01*
X178878Y205031D01*
X178985Y205571D01*
X178878Y206112D01*
X178571Y206570D01*
X178443Y206657D01*
Y207258D01*
X178571Y207344D01*
X178878Y207802D01*
X178985Y208343D01*
X178878Y208884D01*
X178571Y209342D01*
X178443Y209428D01*
Y210030D01*
X178571Y210116D01*
X178878Y210574D01*
X178985Y211115D01*
X178878Y211655D01*
X178571Y212114D01*
X178443Y212200D01*
Y212801D01*
X178571Y212887D01*
X178878Y213346D01*
X178985Y213886D01*
X178878Y214427D01*
X178571Y214885D01*
X178443Y214971D01*
Y215573D01*
X178571Y215659D01*
X178878Y216117D01*
X178985Y216658D01*
X178878Y217199D01*
X178571Y217657D01*
X178443Y217743D01*
Y218344D01*
X178571Y218430D01*
X178878Y218889D01*
X178985Y219430D01*
X178878Y219970D01*
X178571Y220429D01*
X178443Y220515D01*
Y221116D01*
X178571Y221202D01*
X178878Y221660D01*
X178985Y222201D01*
X178878Y222742D01*
X178571Y223200D01*
X178443Y223286D01*
Y223888D01*
X178571Y223974D01*
X178878Y224432D01*
X178985Y224973D01*
X178878Y225514D01*
X178571Y225972D01*
X178443Y226058D01*
Y226659D01*
X178571Y226745D01*
X178878Y227204D01*
X178985Y227745D01*
X178878Y228285D01*
X178571Y228744D01*
X178443Y228830D01*
Y229431D01*
X178571Y229517D01*
X178878Y229976D01*
X178985Y230516D01*
X178878Y231057D01*
X178571Y231515D01*
X178443Y231601D01*
Y232203D01*
X178571Y232289D01*
X178878Y232747D01*
X178985Y233288D01*
X178878Y233828D01*
X178571Y234287D01*
X178443Y234373D01*
Y234974D01*
X178571Y235060D01*
X178878Y235519D01*
X178985Y236059D01*
X178878Y236600D01*
X178571Y237059D01*
X178443Y237145D01*
Y237746D01*
X178571Y237832D01*
X178878Y238290D01*
X178985Y238831D01*
X178878Y239372D01*
X178571Y239830D01*
X178443Y239916D01*
Y240518D01*
X178571Y240604D01*
X178878Y241062D01*
X178985Y241603D01*
X178878Y242144D01*
X178571Y242602D01*
X178443Y242688D01*
Y243289D01*
X178571Y243375D01*
X178878Y243834D01*
X178985Y244374D01*
X178878Y244915D01*
X178571Y245374D01*
X178443Y245460D01*
Y246061D01*
X178571Y246147D01*
X178878Y246605D01*
X178985Y247146D01*
X178878Y247687D01*
X178571Y248145D01*
X178443Y248231D01*
Y248833D01*
X178571Y248919D01*
X178878Y249377D01*
X178985Y249918D01*
X178878Y250458D01*
X178571Y250917D01*
X178443Y251003D01*
Y251604D01*
X178571Y251690D01*
X178878Y252149D01*
X178985Y252689D01*
X178878Y253230D01*
X178571Y253689D01*
X178443Y253774D01*
Y254376D01*
X178571Y254462D01*
X178878Y254920D01*
X178985Y255461D01*
X178878Y256002D01*
X178571Y256460D01*
X178443Y256546D01*
Y257148D01*
X178571Y257234D01*
X178878Y257692D01*
X178985Y258233D01*
X178878Y258773D01*
X178571Y259232D01*
X178443Y259318D01*
Y259919D01*
X178571Y260005D01*
X178878Y260464D01*
X178985Y261004D01*
X178878Y261545D01*
X178571Y262003D01*
X178443Y262089D01*
Y262691D01*
X178571Y262777D01*
X178878Y263235D01*
X178985Y263776D01*
X179150Y263976D01*
X181088D01*
X181271Y263703D01*
X181400Y263617D01*
Y263015D01*
X181271Y262929D01*
X180965Y262471D01*
X180857Y261930D01*
X180965Y261389D01*
X181271Y260931D01*
X181400Y260845D01*
Y260244D01*
X181271Y260158D01*
X180965Y259699D01*
X180857Y259159D01*
X180965Y258618D01*
X181271Y258159D01*
X181400Y258073D01*
Y257472D01*
X181271Y257386D01*
X180965Y256928D01*
X180857Y256387D01*
X180965Y255846D01*
X181271Y255388D01*
X181400Y255302D01*
Y254700D01*
X181271Y254614D01*
X180965Y254156D01*
X180857Y253615D01*
X180965Y253075D01*
X181271Y252616D01*
X181400Y252530D01*
Y251929D01*
X181271Y251843D01*
X180965Y251384D01*
X180857Y250844D01*
X180965Y250303D01*
X181271Y249845D01*
X181400Y249759D01*
Y249157D01*
X181271Y249071D01*
X180965Y248613D01*
X180857Y248072D01*
X180965Y247531D01*
X181271Y247073D01*
X181400Y246987D01*
Y246386D01*
X181271Y246300D01*
X180965Y245841D01*
X180857Y245300D01*
X180965Y244760D01*
X181271Y244301D01*
X181400Y244215D01*
Y243614D01*
X181271Y243528D01*
X180965Y243069D01*
X180857Y242529D01*
X180965Y241988D01*
X181271Y241530D01*
X181400Y241444D01*
Y240842D01*
X181271Y240756D01*
X180965Y240298D01*
X180857Y239757D01*
X180965Y239216D01*
X181271Y238758D01*
X181400Y238672D01*
Y238071D01*
X181271Y237984D01*
X180965Y237526D01*
X180857Y236985D01*
X180965Y236445D01*
X181271Y235986D01*
X181400Y235900D01*
Y235299D01*
X181271Y235213D01*
X180965Y234754D01*
X180857Y234214D01*
X180965Y233673D01*
X181271Y233215D01*
X181400Y233129D01*
Y232527D01*
X181271Y232441D01*
X180965Y231983D01*
X180857Y231442D01*
X180965Y230901D01*
X181271Y230443D01*
X181400Y230357D01*
Y229756D01*
X181271Y229670D01*
X180965Y229211D01*
X180857Y228670D01*
X180965Y228130D01*
X181271Y227671D01*
X181400Y227585D01*
Y226984D01*
X181271Y226898D01*
X180965Y226439D01*
X180857Y225899D01*
X180965Y225358D01*
X181271Y224900D01*
X181400Y224814D01*
Y224212D01*
X181271Y224126D01*
X180965Y223668D01*
X180857Y223127D01*
X180965Y222586D01*
X181271Y222128D01*
X181400Y222042D01*
Y221441D01*
X181271Y221355D01*
X180965Y220896D01*
X180857Y220356D01*
X180965Y219815D01*
X181271Y219356D01*
X181400Y219270D01*
Y218669D01*
X181271Y218583D01*
X180965Y218125D01*
X180857Y217584D01*
X180965Y217043D01*
X181271Y216585D01*
X181400Y216499D01*
Y215897D01*
X181271Y215811D01*
X180965Y215353D01*
X180857Y214812D01*
X180965Y214271D01*
X181271Y213813D01*
X181400Y213727D01*
Y213126D01*
X181271Y213040D01*
X180965Y212581D01*
X180857Y212040D01*
X180965Y211500D01*
X181271Y211041D01*
X181400Y210955D01*
Y210354D01*
X181271Y210268D01*
X180965Y209810D01*
X180857Y209269D01*
X180965Y208728D01*
X181271Y208270D01*
X181400Y208184D01*
Y207582D01*
X181271Y207496D01*
X180965Y207038D01*
X180857Y206497D01*
X180965Y205957D01*
X181271Y205498D01*
X181400Y205412D01*
Y204811D01*
X181271Y204725D01*
X180965Y204266D01*
X180857Y203726D01*
X180965Y203185D01*
X181271Y202727D01*
X181400Y202641D01*
Y202039D01*
X181271Y201953D01*
X180965Y201495D01*
X180857Y200954D01*
X180965Y200413D01*
X181271Y199955D01*
X181400Y199869D01*
Y199267D01*
X181271Y199181D01*
X180965Y198723D01*
X180857Y198182D01*
X180965Y197642D01*
X181271Y197183D01*
X181400Y197097D01*
Y196496D01*
X181271Y196410D01*
X180965Y195951D01*
X180857Y195411D01*
X180965Y194870D01*
X181271Y194412D01*
X181400Y194325D01*
Y193724D01*
X181271Y193638D01*
X180965Y193180D01*
X180857Y192639D01*
X180965Y192098D01*
X181271Y191640D01*
X181400Y191554D01*
Y190953D01*
X181271Y190866D01*
X180965Y190408D01*
X180857Y189867D01*
X180965Y189327D01*
X181271Y188868D01*
X181400Y188782D01*
Y188181D01*
X181271Y188095D01*
X180965Y187636D01*
X180857Y187096D01*
X180965Y186555D01*
X181271Y186097D01*
X181400Y186011D01*
Y185409D01*
X181271Y185323D01*
X180965Y184865D01*
X180857Y184324D01*
X180965Y183783D01*
X181271Y183325D01*
X181400Y183239D01*
Y182638D01*
X181271Y182552D01*
X180965Y182093D01*
X180857Y181552D01*
X180965Y181012D01*
X181271Y180553D01*
X181400Y180467D01*
Y179866D01*
X181271Y179780D01*
X180965Y179322D01*
X180857Y178781D01*
X180965Y178240D01*
X181271Y177782D01*
X181400Y177696D01*
Y177094D01*
X181271Y177008D01*
X180965Y176550D01*
X180857Y176009D01*
X180965Y175468D01*
X181271Y175010D01*
X181400Y174924D01*
Y174323D01*
X181271Y174237D01*
X180965Y173778D01*
X180857Y173237D01*
X180965Y172697D01*
X181271Y172238D01*
X181400Y172152D01*
Y171551D01*
X181271Y171465D01*
X180965Y171007D01*
X180857Y170466D01*
X180965Y169925D01*
X181271Y169467D01*
X181400Y169381D01*
Y168779D01*
X181271Y168693D01*
X180965Y168235D01*
X180857Y167694D01*
X180965Y167153D01*
X181271Y166695D01*
X181400Y166609D01*
Y166008D01*
X181271Y165922D01*
X180965Y165463D01*
X180857Y164922D01*
X180965Y164382D01*
X181271Y163923D01*
X181400Y163837D01*
Y163236D01*
X181271Y163150D01*
X180965Y162692D01*
X180857Y162151D01*
X180965Y161610D01*
X181271Y161152D01*
X181400Y161066D01*
Y160464D01*
X181271Y160378D01*
X180965Y159920D01*
X180857Y159379D01*
X180965Y158838D01*
X181271Y158380D01*
X181400Y158294D01*
Y157693D01*
X181271Y157607D01*
X180965Y157148D01*
X180857Y156607D01*
X180965Y156067D01*
X181271Y155608D01*
X181400Y155522D01*
Y154921D01*
X181271Y154835D01*
X180965Y154377D01*
X180857Y153836D01*
X180965Y153295D01*
X181271Y152837D01*
X181400Y152751D01*
Y152149D01*
X181271Y152063D01*
X180965Y151605D01*
X180857Y151064D01*
X180965Y150523D01*
X181271Y150065D01*
X181400Y149979D01*
Y149378D01*
X181271Y149292D01*
X180965Y148833D01*
X180857Y148293D01*
X180965Y147752D01*
X181271Y147293D01*
X181400Y147207D01*
Y146606D01*
X181271Y146520D01*
X180965Y146062D01*
X180857Y145521D01*
X180965Y144980D01*
X181271Y144522D01*
X181400Y144436D01*
Y143834D01*
X181271Y143748D01*
X180965Y143290D01*
X180857Y142749D01*
X180965Y142209D01*
X181271Y141750D01*
X181400Y141664D01*
Y141063D01*
X181271Y140977D01*
X180965Y140518D01*
X180857Y139978D01*
X180965Y139437D01*
X181271Y138979D01*
X181400Y138892D01*
Y138291D01*
X181271Y138205D01*
X180965Y137747D01*
X180857Y137206D01*
X180965Y136665D01*
X181271Y136207D01*
X181400Y136121D01*
Y135520D01*
X181271Y135433D01*
X180965Y134975D01*
X180857Y134434D01*
X180965Y133894D01*
X181271Y133435D01*
X181729Y133129D01*
X182270Y133021D01*
X182347Y133037D01*
X182764Y132610D01*
X182718Y132380D01*
X182825Y131839D01*
X183132Y131381D01*
X183590Y131075D01*
X184131Y130967D01*
X184283Y130997D01*
X184708Y130572D01*
X184678Y130420D01*
X184785Y129879D01*
X185091Y129421D01*
X185550Y129115D01*
X186091Y129007D01*
X186242Y129037D01*
X186668Y128612D01*
X186637Y128460D01*
X186745Y127920D01*
X187051Y127461D01*
X187510Y127155D01*
X188050Y127047D01*
X188202Y127078D01*
X188628Y126652D01*
X188597Y126500D01*
X188705Y125960D01*
X189011Y125501D01*
X189470Y125195D01*
X190010Y125087D01*
X190162Y125118D01*
X190587Y124692D01*
X190557Y124541D01*
X190665Y124000D01*
X190971Y123541D01*
X191429Y123235D01*
X191970Y123128D01*
X192122Y123158D01*
X192547Y122733D01*
X192517Y122581D01*
X192625Y122040D01*
X192931Y121582D01*
X193389Y121275D01*
X193930Y121168D01*
X194358Y121253D01*
X194620Y121140D01*
X194852Y120929D01*
X194935Y120509D01*
X195241Y120051D01*
X195700Y119744D01*
X196240Y119637D01*
X196781Y119744D01*
X197239Y120051D01*
X197326Y120179D01*
X197927D01*
X198013Y120051D01*
X198471Y119744D01*
X199012Y119637D01*
X199553Y119744D01*
X200011Y120051D01*
X200097Y120179D01*
X200699D01*
X200785Y120051D01*
X201243Y119744D01*
X201784Y119637D01*
X202324Y119744D01*
X202783Y120051D01*
X202869Y120179D01*
X203470D01*
X203556Y120051D01*
X204015Y119744D01*
X204555Y119637D01*
X205096Y119744D01*
X205555Y120051D01*
X205641Y120179D01*
X206242D01*
X206328Y120051D01*
X206786Y119744D01*
X207327Y119637D01*
X207868Y119744D01*
X208326Y120051D01*
X208412Y120179D01*
X209014D01*
X209100Y120051D01*
X209558Y119744D01*
X210099Y119637D01*
X210639Y119744D01*
X211098Y120051D01*
X211184Y120179D01*
X211785D01*
X211871Y120051D01*
X212330Y119744D01*
X212870Y119637D01*
X213411Y119744D01*
X213869Y120051D01*
X213955Y120179D01*
X214557D01*
X214643Y120051D01*
X215101Y119744D01*
X215642Y119637D01*
X216183Y119744D01*
X216641Y120051D01*
X216727Y120179D01*
X217329D01*
X217414Y120051D01*
X217873Y119744D01*
X218414Y119637D01*
X218954Y119744D01*
X219413Y120051D01*
X219499Y120179D01*
X220100D01*
X220186Y120051D01*
X220644Y119744D01*
X221185Y119637D01*
X221726Y119744D01*
X222184Y120051D01*
X222270Y120179D01*
X222872D01*
X222958Y120051D01*
X223416Y119744D01*
X223957Y119637D01*
X224498Y119744D01*
X224956Y120051D01*
X225042Y120179D01*
X225643D01*
X225729Y120051D01*
X226188Y119744D01*
X226729Y119637D01*
X227269Y119744D01*
X227728Y120051D01*
X227814Y120179D01*
X228415D01*
X228501Y120051D01*
X228959Y119744D01*
X229500Y119637D01*
X230041Y119744D01*
X230499Y120051D01*
X230585Y120179D01*
X231187D01*
X231273Y120051D01*
X231731Y119744D01*
X232272Y119637D01*
X232813Y119744D01*
X233271Y120051D01*
X233357Y120179D01*
X233958D01*
X234044Y120051D01*
X234503Y119744D01*
X235044Y119637D01*
X235584Y119744D01*
X236043Y120051D01*
X236129Y120179D01*
X236730D01*
X236816Y120051D01*
X237274Y119744D01*
X237815Y119637D01*
X238356Y119744D01*
X238814Y120051D01*
X238900Y120179D01*
X239502D01*
X239588Y120051D01*
X240046Y119744D01*
X240587Y119637D01*
X241127Y119744D01*
X241586Y120051D01*
X241672Y120179D01*
X242273D01*
X242359Y120051D01*
X242818Y119744D01*
X243358Y119637D01*
X243899Y119744D01*
X244358Y120051D01*
X244444Y120179D01*
X245045D01*
X245131Y120051D01*
X245589Y119744D01*
X246130Y119637D01*
X246671Y119744D01*
X247129Y120051D01*
X247215Y120179D01*
X247817D01*
X247903Y120051D01*
X248361Y119744D01*
X248902Y119637D01*
X249443Y119744D01*
X249901Y120051D01*
X249987Y120179D01*
X250588D01*
X250674Y120051D01*
X251133Y119744D01*
X251673Y119637D01*
X252214Y119744D01*
X252673Y120051D01*
X252759Y120179D01*
X253360D01*
X253446Y120051D01*
X253904Y119744D01*
X254445Y119637D01*
X254986Y119744D01*
X255444Y120051D01*
X255530Y120179D01*
X256132D01*
X256218Y120051D01*
X256676Y119744D01*
X257217Y119637D01*
X257757Y119744D01*
X258216Y120051D01*
X258302Y120179D01*
X258903D01*
X258989Y120051D01*
X259448Y119744D01*
X259988Y119637D01*
X260529Y119744D01*
X260987Y120051D01*
X261073Y120179D01*
X261675D01*
X261761Y120051D01*
X262219Y119744D01*
X262760Y119637D01*
X263301Y119744D01*
X263391Y119805D01*
X263947Y119575D01*
X263986Y119380D01*
X264292Y118921D01*
X264751Y118615D01*
X265291Y118508D01*
X265443Y118538D01*
X265868Y118112D01*
X265838Y117961D01*
X265946Y117420D01*
X266252Y116962D01*
X266710Y116655D01*
X267251Y116548D01*
X267403Y116578D01*
X267828Y116153D01*
X267798Y116001D01*
X267905Y115460D01*
X268212Y115002D01*
X268670Y114695D01*
X269211Y114588D01*
X269752Y114695D01*
X270210Y115002D01*
X270516Y115460D01*
X270624Y116001D01*
X270516Y116542D01*
X270210Y117000D01*
X269752Y117306D01*
X269211Y117414D01*
X269059Y117384D01*
X268634Y117809D01*
X268664Y117961D01*
X268556Y118501D01*
X268250Y118960D01*
X267792Y119266D01*
X267251Y119374D01*
X267099Y119343D01*
X266674Y119769D01*
X266704Y119920D01*
X266597Y120461D01*
X266290Y120920D01*
X265832Y121226D01*
X265291Y121333D01*
X264751Y121226D01*
X264660Y121165D01*
X264104Y121395D01*
X264065Y121590D01*
X263759Y122049D01*
X263301Y122355D01*
X262760Y122463D01*
X262219Y122355D01*
X261761Y122049D01*
X261675Y121920D01*
X261073D01*
X260987Y122049D01*
X260529Y122355D01*
X259988Y122463D01*
X259448Y122355D01*
X258989Y122049D01*
X258903Y121920D01*
X258302D01*
X258216Y122049D01*
X257757Y122355D01*
X257628Y122381D01*
X257594Y122445D01*
X257533Y122910D01*
X258352Y123538D01*
X259078Y124485D01*
X259535Y125588D01*
X259691Y126772D01*
X259535Y127955D01*
X259078Y129058D01*
X258352Y130005D01*
X257405Y130732D01*
X256302Y131189D01*
X255118Y131345D01*
X253935Y131189D01*
X252832Y130732D01*
X251885Y130005D01*
X251158Y129058D01*
X250701Y127955D01*
X250545Y126772D01*
X250701Y125588D01*
X251158Y124485D01*
X251885Y123538D01*
X252832Y122811D01*
X253019Y122734D01*
X253159Y122152D01*
X252673Y122049D01*
X252214Y122355D01*
X251673Y122463D01*
X251133Y122355D01*
X250674Y122049D01*
X250588Y121920D01*
X249987D01*
X249901Y122049D01*
X249443Y122355D01*
X248902Y122463D01*
X248361Y122355D01*
X247903Y122049D01*
X247817Y121920D01*
X247215D01*
X247129Y122049D01*
X246671Y122355D01*
X246130Y122463D01*
X245589Y122355D01*
X245131Y122049D01*
X245045Y121920D01*
X244444D01*
X244358Y122049D01*
X243899Y122355D01*
X243358Y122463D01*
X242818Y122355D01*
X242359Y122049D01*
X242273Y121920D01*
X241672D01*
X241586Y122049D01*
X241127Y122355D01*
X240587Y122463D01*
X240046Y122355D01*
X239588Y122049D01*
X239502Y121920D01*
X238900D01*
X238814Y122049D01*
X238356Y122355D01*
X238031Y122420D01*
X237901Y122951D01*
X238667Y123538D01*
X239393Y124485D01*
X239850Y125588D01*
X239980Y126572D01*
X235433D01*
Y126772D01*
D01*
Y126572D01*
X230886D01*
X231016Y125588D01*
X231473Y124485D01*
X232200Y123538D01*
X233147Y122811D01*
X233492Y122668D01*
X233596Y122165D01*
X233271Y122049D01*
X232813Y122355D01*
X232272Y122463D01*
X231731Y122355D01*
X231273Y122049D01*
X231187Y121920D01*
X230585D01*
X230499Y122049D01*
X230041Y122355D01*
X229500Y122463D01*
X228959Y122355D01*
X228501Y122049D01*
X228415Y121920D01*
X227814D01*
X227728Y122049D01*
X227269Y122355D01*
X226729Y122463D01*
X226188Y122355D01*
X225729Y122049D01*
X225643Y121920D01*
X225042D01*
X224956Y122049D01*
X224498Y122355D01*
X223957Y122463D01*
X223416Y122355D01*
X222958Y122049D01*
X222872Y121920D01*
X222270D01*
X222184Y122049D01*
X221726Y122355D01*
X221185Y122463D01*
X220644Y122355D01*
X220186Y122049D01*
X220100Y121920D01*
X219499D01*
X219413Y122049D01*
X218954Y122355D01*
X218414Y122463D01*
X217873Y122355D01*
X217414Y122049D01*
X217329Y121920D01*
X216727D01*
X216641Y122049D01*
X216183Y122355D01*
X215642Y122463D01*
X215101Y122355D01*
X214643Y122049D01*
X214557Y121920D01*
X213955D01*
X213869Y122049D01*
X213411Y122355D01*
X212870Y122463D01*
X212330Y122355D01*
X211871Y122049D01*
X211785Y121920D01*
X211184D01*
X211098Y122049D01*
X210639Y122355D01*
X210099Y122463D01*
X209558Y122355D01*
X209100Y122049D01*
X209014Y121920D01*
X208412D01*
X208326Y122049D01*
X207868Y122355D01*
X207327Y122463D01*
X206786Y122355D01*
X206328Y122049D01*
X206242Y121920D01*
X205641D01*
X205555Y122049D01*
X205096Y122355D01*
X204555Y122463D01*
X204015Y122355D01*
X203556Y122049D01*
X203470Y121920D01*
X202869D01*
X202783Y122049D01*
X202324Y122355D01*
X201784Y122463D01*
X201243Y122355D01*
X200785Y122049D01*
X200699Y121920D01*
X200097D01*
X200011Y122049D01*
X199553Y122355D01*
X199012Y122463D01*
X198471Y122355D01*
X198013Y122049D01*
X197927Y121920D01*
X197326D01*
X197239Y122049D01*
X196781Y122355D01*
X196240Y122463D01*
X195812Y122378D01*
X195551Y122491D01*
X195319Y122702D01*
X195235Y123122D01*
X194929Y123580D01*
X194471Y123886D01*
X193930Y123994D01*
X193778Y123963D01*
X193353Y124389D01*
X193383Y124541D01*
X193276Y125081D01*
X192969Y125540D01*
X192511Y125846D01*
X191970Y125954D01*
X191818Y125923D01*
X191393Y126349D01*
X191423Y126500D01*
X191316Y127041D01*
X191009Y127500D01*
X190551Y127806D01*
X190010Y127913D01*
X189858Y127883D01*
X189433Y128308D01*
X189463Y128460D01*
X189356Y129001D01*
X189050Y129460D01*
X188591Y129766D01*
X188050Y129873D01*
X187899Y129843D01*
X187473Y130268D01*
X187504Y130420D01*
X187396Y130961D01*
X187090Y131419D01*
X186631Y131726D01*
X186091Y131833D01*
X185939Y131803D01*
X185513Y132228D01*
X185544Y132380D01*
X185436Y132921D01*
X185130Y133379D01*
X184671Y133686D01*
X184131Y133793D01*
X184054Y133778D01*
X183637Y134205D01*
X183683Y134434D01*
X183576Y134975D01*
X183269Y135433D01*
X183141Y135520D01*
Y136121D01*
X183269Y136207D01*
X183576Y136665D01*
X183683Y137206D01*
X183576Y137747D01*
X183269Y138205D01*
X183141Y138291D01*
Y138892D01*
X183269Y138979D01*
X183576Y139437D01*
X183683Y139978D01*
X183576Y140518D01*
X183269Y140977D01*
X183141Y141063D01*
Y141664D01*
X183269Y141750D01*
X183576Y142209D01*
X183683Y142749D01*
X183576Y143290D01*
X183269Y143748D01*
X183141Y143834D01*
Y144436D01*
X183269Y144522D01*
X183576Y144980D01*
X183683Y145521D01*
X183576Y146062D01*
X183269Y146520D01*
X183141Y146606D01*
Y147207D01*
X183269Y147293D01*
X183576Y147752D01*
X183683Y148293D01*
X183576Y148833D01*
X183269Y149292D01*
X183141Y149378D01*
Y149979D01*
X183269Y150065D01*
X183576Y150523D01*
X183683Y151064D01*
X183576Y151605D01*
X183269Y152063D01*
X183141Y152149D01*
Y152751D01*
X183269Y152837D01*
X183576Y153295D01*
X183683Y153836D01*
X183576Y154377D01*
X183269Y154835D01*
X183141Y154921D01*
Y155522D01*
X183269Y155608D01*
X183576Y156067D01*
X183683Y156607D01*
X183576Y157148D01*
X183269Y157607D01*
X183141Y157693D01*
Y158294D01*
X183269Y158380D01*
X183576Y158838D01*
X183683Y159379D01*
X183576Y159920D01*
X183269Y160378D01*
X183141Y160464D01*
Y161066D01*
X183269Y161152D01*
X183576Y161610D01*
X183683Y162151D01*
X183576Y162692D01*
X183269Y163150D01*
X183141Y163236D01*
Y163837D01*
X183269Y163923D01*
X183576Y164382D01*
X183683Y164922D01*
X183576Y165463D01*
X183269Y165922D01*
X183141Y166008D01*
Y166609D01*
X183269Y166695D01*
X183576Y167153D01*
X183683Y167694D01*
X183576Y168235D01*
X183269Y168693D01*
X183141Y168779D01*
Y169381D01*
X183269Y169467D01*
X183576Y169925D01*
X183683Y170466D01*
X183576Y171007D01*
X183269Y171465D01*
X183141Y171551D01*
Y172152D01*
X183269Y172238D01*
X183576Y172697D01*
X183683Y173237D01*
X183576Y173778D01*
X183269Y174237D01*
X183141Y174323D01*
Y174924D01*
X183269Y175010D01*
X183576Y175468D01*
X183683Y176009D01*
X183576Y176550D01*
X183269Y177008D01*
X183141Y177094D01*
Y177696D01*
X183269Y177782D01*
X183576Y178240D01*
X183683Y178781D01*
X183576Y179322D01*
X183269Y179780D01*
X183141Y179866D01*
Y180467D01*
X183269Y180553D01*
X183576Y181012D01*
X183683Y181552D01*
X183576Y182093D01*
X183269Y182552D01*
X183141Y182638D01*
Y183239D01*
X183269Y183325D01*
X183576Y183783D01*
X183683Y184324D01*
X183576Y184865D01*
X183269Y185323D01*
X183141Y185409D01*
Y186011D01*
X183269Y186097D01*
X183576Y186555D01*
X183683Y187096D01*
X183576Y187636D01*
X183269Y188095D01*
X183141Y188181D01*
Y188782D01*
X183269Y188868D01*
X183576Y189327D01*
X183683Y189867D01*
X183576Y190408D01*
X183269Y190866D01*
X183141Y190953D01*
Y191554D01*
X183269Y191640D01*
X183576Y192098D01*
X183683Y192639D01*
X183576Y193180D01*
X183269Y193638D01*
X183141Y193724D01*
Y194325D01*
X183269Y194412D01*
X183576Y194870D01*
X183683Y195411D01*
X183576Y195951D01*
X183269Y196410D01*
X183141Y196496D01*
Y197097D01*
X183269Y197183D01*
X183576Y197642D01*
X183683Y198182D01*
X183576Y198723D01*
X183269Y199181D01*
X183141Y199267D01*
Y199869D01*
X183269Y199955D01*
X183576Y200413D01*
X183683Y200954D01*
X183576Y201495D01*
X183269Y201953D01*
X183141Y202039D01*
Y202641D01*
X183269Y202727D01*
X183576Y203185D01*
X183683Y203726D01*
X183576Y204266D01*
X183269Y204725D01*
X183141Y204811D01*
Y205412D01*
X183269Y205498D01*
X183576Y205957D01*
X183683Y206497D01*
X183576Y207038D01*
X183269Y207496D01*
X183141Y207582D01*
Y208184D01*
X183269Y208270D01*
X183576Y208728D01*
X183683Y209269D01*
X183576Y209810D01*
X183269Y210268D01*
X183141Y210354D01*
Y210955D01*
X183269Y211041D01*
X183576Y211500D01*
X183683Y212040D01*
X183576Y212581D01*
X183269Y213040D01*
X183141Y213126D01*
Y213727D01*
X183269Y213813D01*
X183576Y214271D01*
X183683Y214812D01*
X183576Y215353D01*
X183269Y215811D01*
X183141Y215897D01*
Y216499D01*
X183269Y216585D01*
X183576Y217043D01*
X183683Y217584D01*
X183576Y218125D01*
X183269Y218583D01*
X183141Y218669D01*
Y219270D01*
X183269Y219356D01*
X183576Y219815D01*
X183683Y220356D01*
X183576Y220896D01*
X183269Y221355D01*
X183141Y221441D01*
Y222042D01*
X183269Y222128D01*
X183576Y222586D01*
X183683Y223127D01*
X183576Y223668D01*
X183269Y224126D01*
X183141Y224212D01*
Y224814D01*
X183269Y224900D01*
X183576Y225358D01*
X183683Y225899D01*
X183576Y226439D01*
X183269Y226898D01*
X183141Y226984D01*
Y227585D01*
X183269Y227671D01*
X183576Y228130D01*
X183683Y228670D01*
X183576Y229211D01*
X183269Y229670D01*
X183141Y229756D01*
Y230357D01*
X183269Y230443D01*
X183576Y230901D01*
X183683Y231442D01*
X183576Y231983D01*
X183269Y232441D01*
X183141Y232527D01*
Y233129D01*
X183269Y233215D01*
X183576Y233673D01*
X183683Y234214D01*
X183576Y234754D01*
X183269Y235213D01*
X183141Y235299D01*
Y235900D01*
X183269Y235986D01*
X183576Y236445D01*
X183683Y236985D01*
X183576Y237526D01*
X183269Y237984D01*
X183141Y238071D01*
Y238672D01*
X183269Y238758D01*
X183576Y239216D01*
X183683Y239757D01*
X183576Y240298D01*
X183269Y240756D01*
X183141Y240842D01*
Y241444D01*
X183269Y241530D01*
X183576Y241988D01*
X183683Y242529D01*
X183576Y243069D01*
X183269Y243528D01*
X183141Y243614D01*
Y244215D01*
X183269Y244301D01*
X183576Y244760D01*
X183683Y245300D01*
X183576Y245841D01*
X183269Y246300D01*
X183141Y246386D01*
Y246987D01*
X183269Y247073D01*
X183576Y247531D01*
X183683Y248072D01*
X183576Y248613D01*
X183269Y249071D01*
X183141Y249157D01*
Y249759D01*
X183269Y249845D01*
X183576Y250303D01*
X183683Y250844D01*
X183576Y251384D01*
X183269Y251843D01*
X183141Y251929D01*
Y252530D01*
X183269Y252616D01*
X183576Y253075D01*
X183683Y253615D01*
X183576Y254156D01*
X183269Y254614D01*
X183141Y254700D01*
Y255302D01*
X183269Y255388D01*
X183576Y255846D01*
X183683Y256387D01*
X183576Y256928D01*
X183269Y257386D01*
X183141Y257472D01*
Y258073D01*
X183269Y258159D01*
X183576Y258618D01*
X183683Y259159D01*
X183576Y259699D01*
X183269Y260158D01*
X183141Y260244D01*
Y260845D01*
X183269Y260931D01*
X183576Y261389D01*
X183683Y261930D01*
X183576Y262471D01*
X183269Y262929D01*
X183141Y263015D01*
Y263605D01*
X183167Y263634D01*
X183269Y263703D01*
X183378Y263865D01*
X183479Y263976D01*
X208409D01*
X208707Y263530D01*
X209228Y263182D01*
X209842Y263060D01*
X210457Y263182D01*
X210978Y263530D01*
X211276Y263976D01*
X218921D01*
X219188Y263476D01*
X219014Y263216D01*
X218892Y262601D01*
X219014Y261987D01*
X219362Y261466D01*
X219883Y261118D01*
X220498Y260996D01*
X221112Y261118D01*
X221633Y261466D01*
X221981Y261987D01*
X222103Y262601D01*
X221981Y263216D01*
X221807Y263476D01*
X222074Y263976D01*
X224452D01*
X224750Y263530D01*
X225271Y263182D01*
X225886Y263060D01*
X226500Y263182D01*
X227021Y263530D01*
X227320Y263976D01*
X229669D01*
X229967Y263530D01*
X230488Y263182D01*
X231102Y263060D01*
X231717Y263182D01*
X232238Y263530D01*
X232536Y263976D01*
X287281D01*
Y236196D01*
X286955Y235978D01*
X286607Y235457D01*
X286485Y234842D01*
X286607Y234228D01*
X286955Y233707D01*
X287476Y233359D01*
X288090Y233237D01*
X288705Y233359D01*
X288947Y233521D01*
X289447Y233253D01*
Y231047D01*
X288947Y230896D01*
X288708Y231254D01*
X288187Y231602D01*
X287572Y231724D01*
X286958Y231602D01*
X286437Y231254D01*
X286089Y230733D01*
X285967Y230118D01*
X286089Y229504D01*
X286437Y228983D01*
X286459Y228968D01*
X286308Y228468D01*
X284548D01*
X284239Y228406D01*
X283976Y228231D01*
X277913Y222167D01*
X269267D01*
X269049Y222494D01*
X268528Y222842D01*
X267913Y222964D01*
X267299Y222842D01*
X266778Y222494D01*
X266430Y221973D01*
X266308Y221358D01*
X266430Y220744D01*
X266778Y220223D01*
X267299Y219875D01*
X267913Y219753D01*
X268528Y219875D01*
X269049Y220223D01*
X269267Y220549D01*
X278248D01*
X278248Y220549D01*
X278558Y220611D01*
X278820Y220786D01*
X284883Y226849D01*
X288903D01*
X289121Y226523D01*
X289641Y226175D01*
X290256Y226053D01*
X290870Y226175D01*
X291391Y226523D01*
X291739Y227044D01*
X291862Y227659D01*
X291739Y228273D01*
X291391Y228794D01*
X291065Y229012D01*
Y263976D01*
X298896D01*
Y240945D01*
X298896Y240945D01*
X298957Y240635D01*
X299132Y240373D01*
X300946Y238559D01*
X300780Y238311D01*
X300658Y237697D01*
X300780Y237082D01*
X301128Y236561D01*
X301649Y236213D01*
X302264Y236091D01*
X302878Y236213D01*
X303399Y236561D01*
X303747Y237082D01*
X303869Y237697D01*
X303747Y238311D01*
X303399Y238832D01*
X302878Y239180D01*
X302548Y239246D01*
X300514Y241280D01*
Y263976D01*
X301821D01*
X301973Y263476D01*
D02*
G37*
%LPC*%
G36*
X206890Y258987D02*
X206275Y258865D01*
X205754Y258517D01*
X205406Y257996D01*
X205284Y257382D01*
X205406Y256767D01*
X205754Y256246D01*
X206275Y255898D01*
X206890Y255776D01*
X207504Y255898D01*
X208025Y256246D01*
X208373Y256767D01*
X208495Y257382D01*
X208373Y257996D01*
X208025Y258517D01*
X207504Y258865D01*
X206890Y258987D01*
D02*
G37*
G36*
X213779Y256921D02*
X213165Y256798D01*
X212644Y256450D01*
X212296Y255929D01*
X212174Y255315D01*
X212296Y254700D01*
X212644Y254180D01*
X213165Y253832D01*
X213779Y253709D01*
X214394Y253832D01*
X214915Y254180D01*
X215263Y254700D01*
X215385Y255315D01*
X215263Y255929D01*
X214915Y256450D01*
X214394Y256798D01*
X213779Y256921D01*
D02*
G37*
G36*
X195472Y260070D02*
X194858Y259948D01*
X194337Y259600D01*
X193989Y259079D01*
X193867Y258465D01*
X193989Y257850D01*
X194337Y257329D01*
X194503Y257218D01*
X194495Y256622D01*
X194239Y256450D01*
X193891Y255929D01*
X193768Y255315D01*
X193891Y254700D01*
X194239Y254180D01*
X194760Y253832D01*
X195374Y253709D01*
X195989Y253832D01*
X196509Y254180D01*
X196857Y254700D01*
X196980Y255315D01*
X196857Y255929D01*
X196509Y256450D01*
X196344Y256561D01*
X196351Y257158D01*
X196608Y257329D01*
X196956Y257850D01*
X197078Y258465D01*
X196956Y259079D01*
X196608Y259600D01*
X196087Y259948D01*
X195472Y260070D01*
D02*
G37*
G36*
X257382Y253574D02*
X256767Y253452D01*
X256246Y253104D01*
X255898Y252583D01*
X255776Y251969D01*
X255898Y251354D01*
X256246Y250833D01*
X256767Y250485D01*
X257382Y250363D01*
X257996Y250485D01*
X258517Y250833D01*
X258865Y251354D01*
X258987Y251969D01*
X258865Y252583D01*
X258517Y253104D01*
X257996Y253452D01*
X257382Y253574D01*
D02*
G37*
G36*
X253642D02*
X253027Y253452D01*
X252506Y253104D01*
X252158Y252583D01*
X252036Y251969D01*
X252158Y251354D01*
X252506Y250833D01*
X253027Y250485D01*
X253642Y250363D01*
X254256Y250485D01*
X254777Y250833D01*
X255125Y251354D01*
X255247Y251969D01*
X255125Y252583D01*
X254777Y253104D01*
X254256Y253452D01*
X253642Y253574D01*
D02*
G37*
G36*
X249902D02*
X249287Y253452D01*
X248766Y253104D01*
X248418Y252583D01*
X248296Y251969D01*
X248418Y251354D01*
X248766Y250833D01*
X249287Y250485D01*
X249902Y250363D01*
X250516Y250485D01*
X251037Y250833D01*
X251385Y251354D01*
X251507Y251969D01*
X251385Y252583D01*
X251037Y253104D01*
X250516Y253452D01*
X249902Y253574D01*
D02*
G37*
G36*
X207087Y252885D02*
X206472Y252763D01*
X205951Y252415D01*
X205603Y251894D01*
X205481Y251279D01*
X205603Y250665D01*
X205951Y250144D01*
X206472Y249796D01*
X207087Y249674D01*
X207701Y249796D01*
X208222Y250144D01*
X208570Y250665D01*
X208692Y251279D01*
X208570Y251894D01*
X208222Y252415D01*
X207701Y252763D01*
X207087Y252885D01*
D02*
G37*
G36*
X199902Y247373D02*
X199287Y247251D01*
X198766Y246903D01*
X198418Y246382D01*
X198296Y245768D01*
X198418Y245153D01*
X198766Y244632D01*
X199287Y244284D01*
X199902Y244162D01*
X200516Y244284D01*
X201037Y244632D01*
X201385Y245153D01*
X201507Y245768D01*
X201385Y246382D01*
X201037Y246903D01*
X200516Y247251D01*
X199902Y247373D01*
D02*
G37*
G36*
X221850Y247078D02*
X221236Y246956D01*
X220715Y246608D01*
X220367Y246087D01*
X220245Y245472D01*
X220367Y244858D01*
X220715Y244337D01*
X221236Y243989D01*
X221850Y243867D01*
X222465Y243989D01*
X222986Y244337D01*
X223334Y244858D01*
X223456Y245472D01*
X223334Y246087D01*
X222986Y246608D01*
X222465Y246956D01*
X221850Y247078D01*
D02*
G37*
G36*
X210728Y245208D02*
X210114Y245086D01*
X209593Y244738D01*
X209245Y244217D01*
X209123Y243602D01*
X209245Y242988D01*
X209593Y242467D01*
X210114Y242119D01*
X210728Y241997D01*
X211343Y242119D01*
X211864Y242467D01*
X212212Y242988D01*
X212334Y243602D01*
X212212Y244217D01*
X211864Y244738D01*
X211343Y245086D01*
X210728Y245208D01*
D02*
G37*
G36*
X249902Y243732D02*
X249287Y243609D01*
X248766Y243261D01*
X248418Y242741D01*
X248296Y242126D01*
X248418Y241512D01*
X248766Y240991D01*
X249287Y240643D01*
X249902Y240520D01*
X250516Y240643D01*
X251037Y240991D01*
X251385Y241512D01*
X251507Y242126D01*
X251385Y242741D01*
X251037Y243261D01*
X250516Y243609D01*
X249902Y243732D01*
D02*
G37*
G36*
X221850Y243043D02*
X221236Y242920D01*
X220715Y242572D01*
X220367Y242052D01*
X220245Y241437D01*
X220367Y240823D01*
X220715Y240302D01*
X221236Y239954D01*
X221850Y239831D01*
X222465Y239954D01*
X222986Y240302D01*
X223334Y240823D01*
X223456Y241437D01*
X223334Y242052D01*
X222986Y242572D01*
X222465Y242920D01*
X221850Y243043D01*
D02*
G37*
G36*
X271719Y243138D02*
X271105Y243016D01*
X270584Y242668D01*
X270235Y242147D01*
X270113Y241532D01*
X270235Y240918D01*
X270584Y240397D01*
X271105Y240049D01*
X271719Y239927D01*
X272333Y240049D01*
X272770Y240340D01*
X273177Y240065D01*
X273184Y240058D01*
X273062Y239446D01*
X273184Y238831D01*
X273532Y238310D01*
X274053Y237962D01*
X274667Y237840D01*
X275282Y237962D01*
X275803Y238310D01*
X276151Y238831D01*
X276273Y239446D01*
X276151Y240060D01*
X275803Y240581D01*
X275282Y240929D01*
X274667Y241051D01*
X274053Y240929D01*
X273616Y240637D01*
X273209Y240913D01*
X273203Y240920D01*
X273325Y241532D01*
X273202Y242147D01*
X272854Y242668D01*
X272333Y243016D01*
X271719Y243138D01*
D02*
G37*
G36*
X250787Y239598D02*
X250173Y239476D01*
X249652Y239127D01*
X249304Y238607D01*
X249182Y237992D01*
X249304Y237378D01*
X249652Y236857D01*
X250173Y236509D01*
X250787Y236386D01*
X251402Y236509D01*
X251923Y236857D01*
X252271Y237378D01*
X252393Y237992D01*
X252271Y238607D01*
X251923Y239127D01*
X251402Y239476D01*
X250787Y239598D01*
D02*
G37*
G36*
X246865Y230040D02*
X246250Y229918D01*
X245729Y229570D01*
X245381Y229049D01*
X245259Y228435D01*
X245381Y227820D01*
X245729Y227299D01*
X246250Y226951D01*
X246865Y226829D01*
X247479Y226951D01*
X248000Y227299D01*
X248348Y227820D01*
X248470Y228435D01*
X248348Y229049D01*
X248000Y229570D01*
X247479Y229918D01*
X246865Y230040D01*
D02*
G37*
G36*
X242235D02*
X241620Y229918D01*
X241099Y229570D01*
X240751Y229049D01*
X240629Y228435D01*
X240751Y227820D01*
X241099Y227299D01*
X241620Y226951D01*
X242235Y226829D01*
X242849Y226951D01*
X243370Y227299D01*
X243718Y227820D01*
X243840Y228435D01*
X243718Y229049D01*
X243370Y229570D01*
X242849Y229918D01*
X242235Y230040D01*
D02*
G37*
G36*
X239370Y225818D02*
X238756Y225696D01*
X238235Y225348D01*
X237887Y224827D01*
X237764Y224213D01*
X237782Y224123D01*
X237332Y223822D01*
X237327Y223826D01*
X236713Y223948D01*
X236098Y223826D01*
X235577Y223478D01*
X235229Y222957D01*
X235107Y222342D01*
X235229Y221728D01*
X235577Y221207D01*
X236098Y220859D01*
X236713Y220737D01*
X237327Y220859D01*
X237848Y221207D01*
X238196Y221728D01*
X238318Y222342D01*
X238300Y222432D01*
X238751Y222733D01*
X238756Y222729D01*
X239370Y222607D01*
X239984Y222729D01*
X240506Y223077D01*
X240767Y223468D01*
X241238Y223273D01*
X241209Y223130D01*
X241332Y222516D01*
X241680Y221994D01*
X242200Y221646D01*
X242815Y221524D01*
X243429Y221646D01*
X243950Y221994D01*
X244298Y222516D01*
X244421Y223130D01*
X244298Y223744D01*
X243950Y224265D01*
X243429Y224613D01*
X242815Y224736D01*
X242200Y224613D01*
X241680Y224265D01*
X241418Y223874D01*
X240947Y224069D01*
X240976Y224213D01*
X240854Y224827D01*
X240506Y225348D01*
X239984Y225696D01*
X239370Y225818D01*
D02*
G37*
G36*
X287572Y224243D02*
X286958Y224121D01*
X286437Y223773D01*
X286089Y223252D01*
X285967Y222638D01*
X286089Y222023D01*
X286437Y221502D01*
X286958Y221154D01*
X287572Y221032D01*
X288187Y221154D01*
X288708Y221502D01*
X289056Y222023D01*
X289178Y222638D01*
X289056Y223252D01*
X288708Y223773D01*
X288187Y224121D01*
X287572Y224243D01*
D02*
G37*
G36*
X302400Y224174D02*
X301785Y224052D01*
X301264Y223704D01*
X300916Y223183D01*
X300794Y222569D01*
X300916Y221954D01*
X301264Y221433D01*
X301785Y221085D01*
X302400Y220963D01*
X303014Y221085D01*
X303535Y221433D01*
X303883Y221954D01*
X304005Y222569D01*
X303883Y223183D01*
X303535Y223704D01*
X303014Y224052D01*
X302400Y224174D01*
D02*
G37*
G36*
X232283Y218732D02*
X231669Y218609D01*
X231148Y218261D01*
X230800Y217740D01*
X230678Y217126D01*
X230800Y216512D01*
X231148Y215991D01*
X231669Y215642D01*
X232283Y215520D01*
X232898Y215642D01*
X233419Y215991D01*
X233767Y216512D01*
X233889Y217126D01*
X233767Y217740D01*
X233419Y218261D01*
X232898Y218609D01*
X232283Y218732D01*
D02*
G37*
G36*
X247146Y216106D02*
X246444Y215967D01*
X245848Y215569D01*
X245451Y214974D01*
X245311Y214272D01*
X245451Y213570D01*
X245848Y212975D01*
X246444Y212577D01*
X247146Y212437D01*
X247848Y212577D01*
X248443Y212975D01*
X248840Y213570D01*
X248980Y214272D01*
X248840Y214974D01*
X248443Y215569D01*
X247848Y215967D01*
X247146Y216106D01*
D02*
G37*
G36*
X242421D02*
X241719Y215967D01*
X241124Y215569D01*
X240726Y214974D01*
X240587Y214272D01*
X240726Y213570D01*
X241124Y212975D01*
X241719Y212577D01*
X242421Y212437D01*
X243123Y212577D01*
X243718Y212975D01*
X244116Y213570D01*
X244256Y214272D01*
X244116Y214974D01*
X243718Y215569D01*
X243123Y215967D01*
X242421Y216106D01*
D02*
G37*
G36*
X226619Y215116D02*
X226004Y214994D01*
X225483Y214646D01*
X225135Y214125D01*
X225013Y213510D01*
X225135Y212896D01*
X225483Y212375D01*
X226004Y212027D01*
X226619Y211905D01*
X227233Y212027D01*
X227754Y212375D01*
X228102Y212896D01*
X228224Y213510D01*
X228102Y214125D01*
X227754Y214646D01*
X227233Y214994D01*
X226619Y215116D01*
D02*
G37*
G36*
X256406Y214559D02*
X255792Y214437D01*
X255271Y214089D01*
X254923Y213568D01*
X254801Y212953D01*
X254923Y212339D01*
X255271Y211818D01*
X255792Y211470D01*
X256406Y211348D01*
X257021Y211470D01*
X257542Y211818D01*
X257890Y212339D01*
X258012Y212953D01*
X257890Y213568D01*
X257542Y214089D01*
X257021Y214437D01*
X256406Y214559D01*
D02*
G37*
G36*
X287572Y214253D02*
X286958Y214131D01*
X286437Y213783D01*
X286089Y213262D01*
X285967Y212647D01*
X286089Y212033D01*
X286437Y211512D01*
X286958Y211164D01*
X287572Y211042D01*
X288187Y211164D01*
X288708Y211512D01*
X289056Y212033D01*
X289178Y212647D01*
X289056Y213262D01*
X288708Y213783D01*
X288187Y214131D01*
X287572Y214253D01*
D02*
G37*
G36*
X242421Y211382D02*
X241719Y211242D01*
X241124Y210844D01*
X240726Y210249D01*
X240587Y209547D01*
X240726Y208845D01*
X241124Y208250D01*
X241719Y207852D01*
X242421Y207713D01*
X243123Y207852D01*
X243718Y208250D01*
X244116Y208845D01*
X244256Y209547D01*
X244116Y210249D01*
X243718Y210844D01*
X243123Y211242D01*
X242421Y211382D01*
D02*
G37*
G36*
X247146Y211382D02*
X246444Y211242D01*
X245848Y210844D01*
X245451Y210249D01*
X245311Y209547D01*
X245451Y208845D01*
X245848Y208250D01*
X246444Y207852D01*
X247146Y207713D01*
X247848Y207852D01*
X248443Y208250D01*
X248840Y208845D01*
X248980Y209547D01*
X248840Y210249D01*
X248443Y210844D01*
X247848Y211242D01*
X247146Y211382D01*
D02*
G37*
G36*
X261122Y208889D02*
X260508Y208767D01*
X259987Y208419D01*
X259639Y207898D01*
X259516Y207283D01*
X259639Y206669D01*
X259987Y206148D01*
X260508Y205800D01*
X261122Y205678D01*
X261736Y205800D01*
X262257Y206148D01*
X262606Y206669D01*
X262728Y207283D01*
X262606Y207898D01*
X262257Y208419D01*
X261736Y208767D01*
X261122Y208889D01*
D02*
G37*
G36*
X301673Y205050D02*
X301059Y204928D01*
X300538Y204580D01*
X300190Y204059D01*
X300068Y203445D01*
X300190Y202830D01*
X300538Y202309D01*
X301059Y201961D01*
X301673Y201839D01*
X302288Y201961D01*
X302809Y202309D01*
X303157Y202830D01*
X303279Y203445D01*
X303157Y204059D01*
X302809Y204580D01*
X302288Y204928D01*
X301673Y205050D01*
D02*
G37*
G36*
X287572Y219322D02*
X286958Y219200D01*
X286437Y218852D01*
X286089Y218331D01*
X285967Y217717D01*
X286089Y217102D01*
X286437Y216581D01*
X286958Y216233D01*
X287572Y216111D01*
X288187Y216233D01*
X288708Y216581D01*
X288776Y216684D01*
X289378D01*
X289456Y216567D01*
X289782Y216349D01*
Y204715D01*
X289782Y204715D01*
X289844Y204406D01*
X290019Y204143D01*
X290479Y203684D01*
X290402Y203299D01*
X290525Y202684D01*
X290873Y202164D01*
X291393Y201816D01*
X292008Y201693D01*
X292622Y201816D01*
X293143Y202164D01*
X293491Y202684D01*
X293614Y203299D01*
X293491Y203913D01*
X293143Y204434D01*
X292622Y204782D01*
X292008Y204905D01*
X291825Y204868D01*
X291401Y205235D01*
Y216349D01*
X291727Y216567D01*
X292075Y217088D01*
X292197Y217702D01*
X292075Y218316D01*
X291727Y218837D01*
X291206Y219185D01*
X290592Y219308D01*
X289977Y219185D01*
X289456Y218837D01*
X289387Y218735D01*
X288786D01*
X288708Y218852D01*
X288187Y219200D01*
X287572Y219322D01*
D02*
G37*
G36*
X247215Y201901D02*
X246601Y201779D01*
X246080Y201431D01*
X246015Y201334D01*
X245414D01*
X245362Y201411D01*
X244841Y201759D01*
X244227Y201881D01*
X243612Y201759D01*
X243091Y201411D01*
X242743Y200890D01*
X242621Y200275D01*
X242743Y199661D01*
X243091Y199140D01*
X243612Y198792D01*
X244227Y198670D01*
X244841Y198792D01*
X245362Y199140D01*
X245427Y199237D01*
X246028D01*
X246080Y199160D01*
X246601Y198812D01*
X247215Y198690D01*
X247829Y198812D01*
X248350Y199160D01*
X248698Y199681D01*
X248821Y200295D01*
X248698Y200910D01*
X248350Y201431D01*
X247829Y201779D01*
X247215Y201901D01*
D02*
G37*
G36*
X256988Y199440D02*
X256374Y199318D01*
X255853Y198970D01*
X255505Y198449D01*
X255382Y197835D01*
X255505Y197220D01*
X255853Y196699D01*
X256374Y196351D01*
X256988Y196229D01*
X257603Y196351D01*
X258124Y196699D01*
X258472Y197220D01*
X258594Y197835D01*
X258472Y198449D01*
X258124Y198970D01*
X257603Y199318D01*
X256988Y199440D01*
D02*
G37*
G36*
X244783Y192452D02*
X244169Y192330D01*
X243648Y191982D01*
X243300Y191461D01*
X243267Y191293D01*
X242757D01*
X242724Y191461D01*
X242375Y191982D01*
X241855Y192330D01*
X241240Y192452D01*
X240626Y192330D01*
X240105Y191982D01*
X239757Y191461D01*
X239634Y190847D01*
X239757Y190232D01*
X240105Y189711D01*
X240626Y189363D01*
X241240Y189241D01*
X241855Y189363D01*
X242375Y189711D01*
X242724Y190232D01*
X242757Y190400D01*
X243267D01*
X243300Y190232D01*
X243648Y189711D01*
X244169Y189363D01*
X244783Y189241D01*
X245398Y189363D01*
X245919Y189711D01*
X246267Y190232D01*
X246389Y190847D01*
X246267Y191461D01*
X245919Y191982D01*
X245398Y192330D01*
X244783Y192452D01*
D02*
G37*
G36*
X282677Y202068D02*
X280891Y201892D01*
X279174Y201371D01*
X277591Y200525D01*
X276204Y199387D01*
X275065Y198000D01*
X274219Y196417D01*
X273698Y194699D01*
X273522Y192913D01*
X273698Y191127D01*
X274219Y189410D01*
X275065Y187827D01*
X276204Y186440D01*
X277591Y185301D01*
X279174Y184456D01*
X280891Y183935D01*
X282677Y183759D01*
X284463Y183935D01*
X286180Y184456D01*
X287763Y185301D01*
X289151Y186440D01*
X290289Y187827D01*
X291135Y189410D01*
X291656Y191127D01*
X291832Y192913D01*
X291656Y194699D01*
X291135Y196417D01*
X290289Y198000D01*
X289151Y199387D01*
X287763Y200525D01*
X286180Y201371D01*
X284463Y201892D01*
X282677Y202068D01*
D02*
G37*
G36*
X209842D02*
X208056Y201892D01*
X206339Y201371D01*
X204756Y200525D01*
X203369Y199387D01*
X202231Y198000D01*
X201385Y196417D01*
X200864Y194699D01*
X200688Y192913D01*
X200864Y191127D01*
X201385Y189410D01*
X202231Y187827D01*
X203369Y186440D01*
X204756Y185301D01*
X206339Y184456D01*
X208056Y183935D01*
X209842Y183759D01*
X211629Y183935D01*
X213346Y184456D01*
X214929Y185301D01*
X216316Y186440D01*
X217454Y187827D01*
X218300Y189410D01*
X218821Y191127D01*
X218997Y192913D01*
X218821Y194699D01*
X218300Y196417D01*
X217454Y198000D01*
X216316Y199387D01*
X214929Y200525D01*
X213346Y201371D01*
X211629Y201892D01*
X209842Y202068D01*
D02*
G37*
G36*
X235633Y131318D02*
Y126972D01*
X239980D01*
X239850Y127955D01*
X239393Y129058D01*
X238667Y130005D01*
X237720Y130732D01*
X236617Y131189D01*
X235633Y131318D01*
D02*
G37*
G36*
X235233D02*
X234249Y131189D01*
X233147Y130732D01*
X232200Y130005D01*
X231473Y129058D01*
X231016Y127955D01*
X230886Y126972D01*
X235233D01*
Y131318D01*
D02*
G37*
G36*
X274803Y131345D02*
X273620Y131189D01*
X272517Y130732D01*
X271570Y130005D01*
X270843Y129058D01*
X270386Y127955D01*
X270230Y126772D01*
X270386Y125588D01*
X270843Y124485D01*
X271570Y123538D01*
X272517Y122811D01*
X273620Y122354D01*
X274803Y122199D01*
X275987Y122354D01*
X277090Y122811D01*
X278037Y123538D01*
X278764Y124485D01*
X279220Y125588D01*
X279376Y126772D01*
X279220Y127955D01*
X278764Y129058D01*
X278037Y130005D01*
X277090Y130732D01*
X275987Y131189D01*
X274803Y131345D01*
D02*
G37*
G36*
X244980Y112929D02*
X244440Y112821D01*
X243981Y112515D01*
X243782Y112216D01*
X243751Y112205D01*
X243257D01*
X243226Y112216D01*
X243027Y112515D01*
X242568Y112821D01*
X242028Y112929D01*
X241487Y112821D01*
X241028Y112515D01*
X240722Y112057D01*
X240615Y111516D01*
X240722Y110975D01*
X241028Y110517D01*
X241487Y110210D01*
X242028Y110103D01*
X242568Y110210D01*
X243027Y110517D01*
X243226Y110815D01*
X243257Y110826D01*
X243751D01*
X243782Y110815D01*
X243981Y110517D01*
X244440Y110210D01*
X244980Y110103D01*
X245521Y110210D01*
X245766Y110374D01*
X246313Y110185D01*
X246314Y110184D01*
X246332Y110089D01*
X246639Y109631D01*
X247097Y109325D01*
X247638Y109217D01*
X248179Y109325D01*
X248637Y109631D01*
X248943Y110089D01*
X249051Y110630D01*
X248943Y111171D01*
X248637Y111629D01*
X248179Y111935D01*
X247638Y112043D01*
X247097Y111935D01*
X246852Y111772D01*
X246305Y111960D01*
X246305Y111961D01*
X246286Y112057D01*
X245979Y112515D01*
X245521Y112821D01*
X244980Y112929D01*
D02*
G37*
G36*
X274803Y111660D02*
X273620Y111504D01*
X272517Y111047D01*
X271570Y110320D01*
X270843Y109373D01*
X270386Y108270D01*
X270230Y107087D01*
X270386Y105903D01*
X270843Y104800D01*
X271570Y103853D01*
X272517Y103126D01*
X273620Y102670D01*
X274803Y102514D01*
X275987Y102670D01*
X277090Y103126D01*
X278037Y103853D01*
X278764Y104800D01*
X279220Y105903D01*
X279376Y107087D01*
X279220Y108270D01*
X278764Y109373D01*
X278037Y110320D01*
X277090Y111047D01*
X275987Y111504D01*
X274803Y111660D01*
D02*
G37*
G36*
X255118D02*
X253935Y111504D01*
X252832Y111047D01*
X251885Y110320D01*
X251158Y109373D01*
X250701Y108270D01*
X250545Y107087D01*
X250701Y105903D01*
X251158Y104800D01*
X251885Y103853D01*
X252832Y103126D01*
X253935Y102670D01*
X255118Y102514D01*
X256302Y102670D01*
X257405Y103126D01*
X258352Y103853D01*
X259078Y104800D01*
X259535Y105903D01*
X259691Y107087D01*
X259535Y108270D01*
X259078Y109373D01*
X258352Y110320D01*
X257405Y111047D01*
X256302Y111504D01*
X255118Y111660D01*
D02*
G37*
G36*
X235433D02*
X234249Y111504D01*
X233147Y111047D01*
X232200Y110320D01*
X231473Y109373D01*
X231016Y108270D01*
X230860Y107087D01*
X231016Y105903D01*
X231473Y104800D01*
X232200Y103853D01*
X233147Y103126D01*
X234249Y102670D01*
X235433Y102514D01*
X236617Y102670D01*
X237720Y103126D01*
X238667Y103853D01*
X239393Y104800D01*
X239850Y105903D01*
X240006Y107087D01*
X239850Y108270D01*
X239393Y109373D01*
X238667Y110320D01*
X237720Y111047D01*
X236617Y111504D01*
X235433Y111660D01*
D02*
G37*
%LPD*%
D12*
X290592Y204715D02*
Y217702D01*
Y204715D02*
X292008Y203299D01*
X302264Y237697D02*
Y238386D01*
X299705Y240945D02*
X302264Y238386D01*
X284548Y227659D02*
X290256D01*
X278248Y221358D02*
X284548Y227659D01*
X267913Y221358D02*
X278248D01*
X288090Y270079D02*
X290256Y272244D01*
X288090Y234842D02*
Y270079D01*
X299705Y273917D02*
X303051Y277264D01*
X299705Y240945D02*
Y273917D01*
X290256Y227659D02*
Y267224D01*
D55*
X235433Y126772D02*
D03*
D57*
X290592Y217702D02*
D03*
X302264Y237697D02*
D03*
X267913Y221358D02*
D03*
X288090Y234842D02*
D03*
X290256Y272244D02*
D03*
X303051Y277264D02*
D03*
X292008Y203299D02*
D03*
X290256Y267224D02*
D03*
Y227659D02*
D03*
X257579Y207283D02*
D03*
X227384Y206063D02*
D03*
X220499Y259143D02*
D03*
X260925Y236811D02*
D03*
Y239567D02*
D03*
X271588Y250263D02*
D03*
X274606Y250354D02*
D03*
X199705Y249902D02*
D03*
M02*
