G04*
G04 #@! TF.GenerationSoftware,Altium Limited,Altium Designer,21.7.2 (23)*
G04*
G04 Layer_Color=8421504*
%FSLAX25Y25*%
%MOIN*%
G70*
G04*
G04 #@! TF.SameCoordinates,2BEB94BA-C242-4871-AFB5-1AACED26611A*
G04*
G04*
G04 #@! TF.FilePolarity,Positive*
G04*
G01*
G75*
%ADD13R,0.10433X0.04724*%
G04:AMPARAMS|DCode=14|XSize=20.47mil|YSize=22.05mil|CornerRadius=5.12mil|HoleSize=0mil|Usage=FLASHONLY|Rotation=270.000|XOffset=0mil|YOffset=0mil|HoleType=Round|Shape=RoundedRectangle|*
%AMROUNDEDRECTD14*
21,1,0.02047,0.01181,0,0,270.0*
21,1,0.01024,0.02205,0,0,270.0*
1,1,0.01024,-0.00591,-0.00512*
1,1,0.01024,-0.00591,0.00512*
1,1,0.01024,0.00591,0.00512*
1,1,0.01024,0.00591,-0.00512*
%
%ADD14ROUNDEDRECTD14*%
%ADD15C,0.03937*%
G04:AMPARAMS|DCode=16|XSize=25.2mil|YSize=23.62mil|CornerRadius=5.91mil|HoleSize=0mil|Usage=FLASHONLY|Rotation=90.000|XOffset=0mil|YOffset=0mil|HoleType=Round|Shape=RoundedRectangle|*
%AMROUNDEDRECTD16*
21,1,0.02520,0.01181,0,0,90.0*
21,1,0.01339,0.02362,0,0,90.0*
1,1,0.01181,0.00591,0.00669*
1,1,0.01181,0.00591,-0.00669*
1,1,0.01181,-0.00591,-0.00669*
1,1,0.01181,-0.00591,0.00669*
%
%ADD16ROUNDEDRECTD16*%
G04:AMPARAMS|DCode=17|XSize=20.47mil|YSize=22.05mil|CornerRadius=5.12mil|HoleSize=0mil|Usage=FLASHONLY|Rotation=0.000|XOffset=0mil|YOffset=0mil|HoleType=Round|Shape=RoundedRectangle|*
%AMROUNDEDRECTD17*
21,1,0.02047,0.01181,0,0,0.0*
21,1,0.01024,0.02205,0,0,0.0*
1,1,0.01024,0.00512,-0.00591*
1,1,0.01024,-0.00512,-0.00591*
1,1,0.01024,-0.00512,0.00591*
1,1,0.01024,0.00512,0.00591*
%
%ADD17ROUNDEDRECTD17*%
%ADD18R,0.02835X0.03543*%
%ADD19R,0.00669X0.02362*%
%ADD20R,0.06693X0.03937*%
%ADD21R,0.01181X0.02756*%
%ADD22R,0.02165X0.03150*%
%ADD23O,0.02953X0.00787*%
%ADD24O,0.00787X0.02953*%
%ADD25R,0.09843X0.09843*%
%ADD26R,0.02756X0.03347*%
D13*
X239764Y246260D02*
D03*
Y256496D02*
D03*
D14*
X271588Y244003D02*
D03*
Y247468D02*
D03*
X274606Y243996D02*
D03*
Y247461D02*
D03*
X253051Y197008D02*
D03*
Y193543D02*
D03*
X241240D02*
D03*
Y197008D02*
D03*
X250000D02*
D03*
Y193543D02*
D03*
D15*
X260236Y215748D02*
D03*
D16*
X228445Y256516D02*
D03*
Y252736D02*
D03*
X213976Y231772D02*
D03*
Y235551D02*
D03*
X228445Y248445D02*
D03*
Y244665D02*
D03*
X244783Y193484D02*
D03*
Y197264D02*
D03*
D17*
X230276Y231201D02*
D03*
X226811D02*
D03*
X209095Y244193D02*
D03*
X212559D02*
D03*
X230276Y227264D02*
D03*
X226811D02*
D03*
X253780Y261417D02*
D03*
X257244D02*
D03*
X253583Y238091D02*
D03*
X257047D02*
D03*
X209095Y240945D02*
D03*
X212559D02*
D03*
X257618Y209744D02*
D03*
X261083Y209744D02*
D03*
X228784Y213649D02*
D03*
X232248D02*
D03*
D18*
X252756Y242224D02*
D03*
X257480D02*
D03*
D19*
X223130Y235236D02*
D03*
X221752Y235236D02*
D03*
X220374Y235236D02*
D03*
X223130Y232087D02*
D03*
X221752Y232087D02*
D03*
X220374D02*
D03*
D20*
X220866Y250394D02*
D03*
D21*
X223819Y246260D02*
D03*
X221850D02*
D03*
X219882D02*
D03*
X217913D02*
D03*
Y254528D02*
D03*
X219882D02*
D03*
X221850D02*
D03*
X223819D02*
D03*
D22*
X257480Y256988D02*
D03*
X253740Y256988D02*
D03*
X250000Y256988D02*
D03*
X257480Y247146D02*
D03*
X250000Y247146D02*
D03*
D23*
X252756Y206594D02*
D03*
Y208366D02*
D03*
Y210138D02*
D03*
X252756Y211910D02*
D03*
X252756Y213681D02*
D03*
Y215453D02*
D03*
Y217224D02*
D03*
X236811D02*
D03*
Y215453D02*
D03*
Y213681D02*
D03*
X236811Y211910D02*
D03*
X236811Y210138D02*
D03*
Y208366D02*
D03*
Y206594D02*
D03*
D24*
X250098Y219882D02*
D03*
X248327D02*
D03*
X246555D02*
D03*
X244783Y219882D02*
D03*
X243012Y219882D02*
D03*
X241240D02*
D03*
X239469D02*
D03*
Y203937D02*
D03*
X241240D02*
D03*
X243012D02*
D03*
X244783Y203937D02*
D03*
X246555Y203937D02*
D03*
X248327D02*
D03*
X250098D02*
D03*
D25*
X244783Y211910D02*
D03*
D26*
X232252Y209265D02*
D03*
X227527D02*
D03*
M02*
