G04*
G04 #@! TF.GenerationSoftware,Altium Limited,Altium Designer,21.7.2 (23)*
G04*
G04 Layer_Color=32896*
%FSLAX25Y25*%
%MOIN*%
G70*
G04*
G04 #@! TF.SameCoordinates,2BEB94BA-C242-4871-AFB5-1AACED26611A*
G04*
G04*
G04 #@! TF.FilePolarity,Positive*
G04*
G01*
G75*
%ADD10C,0.00394*%
%ADD12C,0.00787*%
%ADD63C,0.01000*%
D10*
X188189Y92126D02*
Y282480D01*
Y92126D02*
X302362Y92126D01*
Y282480D01*
X188189Y282480D02*
X302362Y282480D01*
D12*
X274803Y88976D02*
G03*
X274803Y89370I0J197D01*
G01*
D02*
G03*
X274803Y88976I0J-197D01*
G01*
D02*
G03*
X274803Y89370I0J197D01*
G01*
X243524Y281870D02*
X253524D01*
X243524Y271870D02*
Y281870D01*
Y271870D02*
X253524D01*
Y281870D01*
X228858Y281772D02*
X238858D01*
X228858Y271772D02*
Y281772D01*
Y271772D02*
X238858D01*
Y281772D01*
X228622Y305630D02*
Y315630D01*
X198622D02*
X228622D01*
X198622Y305630D02*
Y315630D01*
Y305630D02*
X228622D01*
X230827Y305630D02*
Y315630D01*
Y305630D02*
X270827D01*
X230827Y315630D02*
X270827D01*
Y305630D02*
Y315630D01*
X230827Y294213D02*
Y304213D01*
Y294213D02*
X270827D01*
X230827Y304213D02*
X270827D01*
Y294213D02*
Y304213D01*
X274016Y288583D02*
Y293701D01*
Y288583D02*
X275984D01*
X274016Y293701D02*
X275984D01*
Y305118D01*
Y276969D02*
Y288583D01*
Y293701D01*
X168012Y288484D02*
Y293602D01*
Y276870D02*
Y288484D01*
Y293602D02*
Y305020D01*
X166043Y293602D02*
X168012D01*
X166043Y288484D02*
X168012D01*
X166043D02*
Y293602D01*
D63*
X174622Y310419D02*
Y314354D01*
X176590D01*
X177246Y313698D01*
Y311074D01*
X176590Y310419D01*
X174622D01*
X180526D02*
X179214D01*
X178558Y311074D01*
Y313698D01*
X179214Y314354D01*
X180526D01*
X181182Y313698D01*
Y311074D01*
X180526Y310419D01*
X182493D02*
Y313698D01*
X183150Y314354D01*
X184461D01*
X185117Y313698D01*
Y310419D01*
X186429D02*
X189053D01*
X187741D01*
Y314354D01*
X284465Y309238D02*
Y313173D01*
X286432D01*
X287088Y312517D01*
Y309893D01*
X286432Y309238D01*
X284465D01*
X288400D02*
X289712D01*
X289056D01*
Y313173D01*
X288400D01*
X289712D01*
X291680D02*
Y309238D01*
X294304Y313173D01*
Y309238D01*
X309501Y284598D02*
X310501Y285598D01*
X312500D01*
X313500Y284598D01*
Y280600D01*
X312500Y279600D01*
X310501D01*
X309501Y280600D01*
M02*
