G04*
G04 #@! TF.GenerationSoftware,Altium Limited,Altium Designer,21.7.2 (23)*
G04*
G04 Layer_Physical_Order=2*
G04 Layer_Color=36540*
%FSLAX25Y25*%
%MOIN*%
G70*
G04*
G04 #@! TF.SameCoordinates,2BEB94BA-C242-4871-AFB5-1AACED26611A*
G04*
G04*
G04 #@! TF.FilePolarity,Positive*
G04*
G01*
G75*
%ADD12C,0.00787*%
%ADD51C,0.05906*%
%ADD52R,0.05906X0.05906*%
%ADD53C,0.08268*%
%ADD55C,0.01772*%
%ADD56C,0.01968*%
%ADD57C,0.02598*%
G36*
X304724Y101476D02*
X167717D01*
Y304134D01*
X193022D01*
X193408Y303634D01*
X193370Y303445D01*
X193478Y302904D01*
X193784Y302446D01*
X194243Y302139D01*
X194783Y302032D01*
X195007Y302077D01*
X203168Y293916D01*
X203168Y293916D01*
X203298Y293829D01*
X203147Y293329D01*
X201123D01*
X196231Y298221D01*
X196275Y298445D01*
X196168Y298986D01*
X195861Y299444D01*
X195403Y299750D01*
X194862Y299858D01*
X194322Y299750D01*
X193863Y299444D01*
X193557Y298986D01*
X193449Y298445D01*
X193557Y297904D01*
X193863Y297446D01*
X194322Y297140D01*
X194862Y297032D01*
X195086Y297077D01*
X199908Y292254D01*
X199701Y291754D01*
X197579D01*
X196273Y293060D01*
X196350Y293445D01*
X196228Y294059D01*
X195879Y294580D01*
X195359Y294928D01*
X194744Y295051D01*
X194130Y294928D01*
X193609Y294580D01*
X193261Y294059D01*
X193138Y293445D01*
X193261Y292830D01*
X193609Y292309D01*
X194130Y291962D01*
X194744Y291839D01*
X195129Y291916D01*
X196672Y290373D01*
X196672Y290373D01*
X196934Y290197D01*
X197244Y290136D01*
X288701D01*
X288701Y290136D01*
X289011Y290197D01*
X289273Y290373D01*
X290816Y291916D01*
X291201Y291839D01*
X291815Y291962D01*
X292336Y292309D01*
X292684Y292830D01*
X292806Y293445D01*
X292684Y294059D01*
X292336Y294580D01*
X291815Y294928D01*
X291201Y295051D01*
X290586Y294928D01*
X290175Y294653D01*
X289931Y294721D01*
X289817Y294784D01*
X289691Y294886D01*
Y296027D01*
X291115Y297450D01*
X291339Y297406D01*
X291879Y297514D01*
X292338Y297820D01*
X292644Y298278D01*
X292752Y298819D01*
X292644Y299360D01*
X292338Y299818D01*
X291879Y300124D01*
X291339Y300232D01*
X290798Y300124D01*
X290339Y299818D01*
X290033Y299360D01*
X289926Y298819D01*
X289970Y298595D01*
X288310Y296935D01*
X288135Y296672D01*
X288073Y296362D01*
X288073Y296362D01*
Y295123D01*
X286279Y293329D01*
X282090D01*
X281938Y293829D01*
X282068Y293916D01*
X290327Y302175D01*
X290551Y302130D01*
X291092Y302238D01*
X291550Y302544D01*
X291857Y303003D01*
X291964Y303543D01*
X291946Y303634D01*
X292356Y304134D01*
X304724D01*
Y101476D01*
D02*
G37*
G36*
X289156Y303634D02*
X289138Y303543D01*
X289183Y303319D01*
X281161Y295297D01*
X204075D01*
X196152Y303221D01*
X196196Y303445D01*
X196159Y303634D01*
X196545Y304134D01*
X288746D01*
X289156Y303634D01*
D02*
G37*
%LPC*%
G36*
X291322Y290209D02*
X290708Y290087D01*
X290187Y289738D01*
X289969Y289412D01*
X195992D01*
X195879Y289580D01*
X195359Y289928D01*
X194744Y290051D01*
X194130Y289928D01*
X193609Y289580D01*
X193261Y289059D01*
X193138Y288445D01*
X193261Y287830D01*
X193609Y287310D01*
X194130Y286962D01*
X194744Y286839D01*
X195359Y286962D01*
X195879Y287310D01*
X196203Y287794D01*
X289969D01*
X290187Y287468D01*
X290708Y287120D01*
X291322Y286997D01*
X291937Y287120D01*
X292458Y287468D01*
X292806Y287989D01*
X292928Y288603D01*
X292806Y289217D01*
X292458Y289738D01*
X291937Y290087D01*
X291322Y290209D01*
D02*
G37*
G36*
X290709Y285114D02*
X290168Y285006D01*
X289709Y284700D01*
X289403Y284242D01*
X289296Y283701D01*
X289403Y283160D01*
X289709Y282702D01*
X290168Y282395D01*
X290709Y282288D01*
X291249Y282395D01*
X291708Y282702D01*
X292014Y283160D01*
X292122Y283701D01*
X292014Y284242D01*
X291708Y284700D01*
X291249Y285006D01*
X290709Y285114D01*
D02*
G37*
G36*
X201543Y284708D02*
X200929Y284586D01*
X200408Y284238D01*
X200060Y283717D01*
X199938Y283102D01*
X200060Y282488D01*
X200408Y281967D01*
X200929Y281619D01*
X201543Y281497D01*
X202158Y281619D01*
X202679Y281967D01*
X203027Y282488D01*
X203149Y283102D01*
X203027Y283717D01*
X202679Y284238D01*
X202158Y284586D01*
X201543Y284708D01*
D02*
G37*
G36*
X288907Y281918D02*
X288907Y281918D01*
X225597D01*
X225287Y281856D01*
X225025Y281681D01*
X225025Y281681D01*
X223255Y279912D01*
X202897D01*
X202679Y280238D01*
X202158Y280586D01*
X201543Y280708D01*
X200929Y280586D01*
X200408Y280238D01*
X200060Y279717D01*
X199938Y279102D01*
X200060Y278488D01*
X200408Y277967D01*
X200929Y277619D01*
X201543Y277497D01*
X202158Y277619D01*
X202679Y277967D01*
X202897Y278293D01*
X223590D01*
X223591Y278293D01*
X223900Y278355D01*
X224163Y278530D01*
X225932Y280299D01*
X231318D01*
X231488Y279799D01*
X231116Y279514D01*
X230500Y278711D01*
X230112Y277775D01*
X229980Y276772D01*
X230112Y275768D01*
X230500Y274833D01*
X231116Y274029D01*
X231919Y273413D01*
X232855Y273026D01*
X233858Y272894D01*
X234862Y273026D01*
X235797Y273413D01*
X236600Y274029D01*
X237217Y274833D01*
X237604Y275768D01*
X237736Y276772D01*
X237604Y277775D01*
X237217Y278711D01*
X236600Y279514D01*
X236228Y279799D01*
X236398Y280299D01*
X245856D01*
X246025Y279799D01*
X245781Y279612D01*
X245165Y278809D01*
X244778Y277874D01*
X244646Y276870D01*
X244778Y275866D01*
X245165Y274931D01*
X245781Y274128D01*
X246585Y273512D01*
X247520Y273124D01*
X248524Y272992D01*
X249527Y273124D01*
X250463Y273512D01*
X251266Y274128D01*
X251882Y274931D01*
X252270Y275866D01*
X252402Y276870D01*
X252270Y277874D01*
X251882Y278809D01*
X251266Y279612D01*
X251022Y279799D01*
X251192Y280299D01*
X288572D01*
X289384Y279487D01*
X289308Y279102D01*
X289430Y278488D01*
X289778Y277967D01*
X290299Y277619D01*
X290913Y277497D01*
X291528Y277619D01*
X292049Y277967D01*
X292397Y278488D01*
X292519Y279102D01*
X292397Y279717D01*
X292049Y280238D01*
X291528Y280586D01*
X290913Y280708D01*
X290529Y280631D01*
X289479Y281681D01*
X289217Y281856D01*
X289165Y281867D01*
X288907Y281918D01*
D02*
G37*
G36*
X274606Y251960D02*
X273992Y251838D01*
X273471Y251490D01*
X273367Y251335D01*
X272766D01*
X272723Y251398D01*
X272202Y251746D01*
X271588Y251869D01*
X270973Y251746D01*
X270452Y251398D01*
X270104Y250877D01*
X269982Y250263D01*
X270104Y249648D01*
X270452Y249128D01*
X270973Y248780D01*
X271588Y248657D01*
X272202Y248780D01*
X272723Y249128D01*
X272827Y249283D01*
X273428D01*
X273471Y249219D01*
X273992Y248871D01*
X274606Y248749D01*
X275221Y248871D01*
X275742Y249219D01*
X276090Y249740D01*
X276212Y250354D01*
X276090Y250969D01*
X275742Y251490D01*
X275221Y251838D01*
X274606Y251960D01*
D02*
G37*
G36*
X231523Y246477D02*
X230908Y246355D01*
X230387Y246006D01*
X230039Y245486D01*
X229917Y244871D01*
X230039Y244257D01*
X230387Y243736D01*
X230908Y243388D01*
X231523Y243265D01*
X232137Y243388D01*
X232658Y243736D01*
X233006Y244257D01*
X233128Y244871D01*
X233006Y245486D01*
X232658Y246006D01*
X232137Y246355D01*
X231523Y246477D01*
D02*
G37*
G36*
X217913Y244716D02*
X217299Y244594D01*
X216778Y244246D01*
X216430Y243725D01*
X216308Y243110D01*
X216430Y242496D01*
X216778Y241975D01*
X217299Y241627D01*
X217913Y241505D01*
X218528Y241627D01*
X219049Y241975D01*
X219397Y242496D01*
X219519Y243110D01*
X219397Y243725D01*
X219049Y244246D01*
X218528Y244594D01*
X217913Y244716D01*
D02*
G37*
G36*
X224803Y242649D02*
X224189Y242527D01*
X223668Y242179D01*
X223320Y241658D01*
X223198Y241043D01*
X223320Y240429D01*
X223668Y239908D01*
X224189Y239560D01*
X224803Y239438D01*
X225418Y239560D01*
X225939Y239908D01*
X226287Y240429D01*
X226409Y241043D01*
X226287Y241658D01*
X225939Y242179D01*
X225418Y242527D01*
X224803Y242649D01*
D02*
G37*
G36*
X274410Y242169D02*
X273869Y242061D01*
X273410Y241755D01*
X273104Y241297D01*
X272996Y240756D01*
X273104Y240215D01*
X273410Y239757D01*
X273869Y239451D01*
X274410Y239343D01*
X274950Y239451D01*
X275409Y239757D01*
X275715Y240215D01*
X275822Y240756D01*
X275715Y241297D01*
X275409Y241755D01*
X274950Y242061D01*
X274410Y242169D01*
D02*
G37*
G36*
X271654Y240389D02*
X271113Y240282D01*
X270654Y239976D01*
X270348Y239517D01*
X270241Y238976D01*
X270348Y238436D01*
X270654Y237977D01*
X271113Y237671D01*
X271654Y237563D01*
X272194Y237671D01*
X272653Y237977D01*
X272959Y238436D01*
X273066Y238976D01*
X272959Y239517D01*
X272653Y239976D01*
X272194Y240282D01*
X271654Y240389D01*
D02*
G37*
G36*
X218110Y238614D02*
X217496Y238491D01*
X216975Y238143D01*
X216627Y237622D01*
X216505Y237008D01*
X216627Y236393D01*
X216975Y235873D01*
X217496Y235524D01*
X218110Y235402D01*
X218725Y235524D01*
X219246Y235873D01*
X219594Y236393D01*
X219716Y237008D01*
X219594Y237622D01*
X219246Y238143D01*
X218725Y238491D01*
X218110Y238614D01*
D02*
G37*
G36*
X260925Y241173D02*
X260311Y241050D01*
X259790Y240702D01*
X259442Y240181D01*
X259319Y239567D01*
X259442Y238952D01*
X259790Y238432D01*
Y237946D01*
X259442Y237425D01*
X259319Y236811D01*
X259442Y236197D01*
X259790Y235676D01*
X260311Y235328D01*
X260925Y235205D01*
X261540Y235328D01*
X262061Y235676D01*
X262409Y236197D01*
X262531Y236811D01*
X262409Y237425D01*
X262061Y237946D01*
Y238432D01*
X262409Y238952D01*
X262531Y239567D01*
X262409Y240181D01*
X262061Y240702D01*
X261540Y241050D01*
X260925Y241173D01*
D02*
G37*
G36*
X210728Y237236D02*
X210114Y237113D01*
X209593Y236765D01*
X209245Y236244D01*
X209123Y235630D01*
X209245Y235016D01*
X209593Y234494D01*
X210114Y234146D01*
X210728Y234024D01*
X211343Y234146D01*
X211864Y234494D01*
X212212Y235016D01*
X212334Y235630D01*
X212212Y236244D01*
X211864Y236765D01*
X211343Y237113D01*
X210728Y237236D01*
D02*
G37*
G36*
X242235Y230040D02*
X241620Y229918D01*
X241099Y229570D01*
X240751Y229049D01*
X240629Y228435D01*
X240751Y227820D01*
X241099Y227299D01*
X241620Y226951D01*
X242235Y226829D01*
X242849Y226951D01*
X243370Y227299D01*
X243718Y227820D01*
X243840Y228435D01*
X243718Y229049D01*
X243370Y229570D01*
X242849Y229918D01*
X242235Y230040D01*
D02*
G37*
G36*
X252756Y229366D02*
X252215Y229258D01*
X251757Y228952D01*
X251450Y228493D01*
X251343Y227953D01*
X251450Y227412D01*
X251757Y226954D01*
X252215Y226647D01*
X252756Y226540D01*
X253297Y226647D01*
X253755Y226954D01*
X254061Y227412D01*
X254169Y227953D01*
X254061Y228493D01*
X253755Y228952D01*
X253297Y229258D01*
X252756Y229366D01*
D02*
G37*
G36*
X246865Y230040D02*
X246250Y229918D01*
X245729Y229570D01*
X245381Y229049D01*
X245259Y228435D01*
X245381Y227820D01*
X245729Y227299D01*
X246250Y226951D01*
X246865Y226829D01*
X247479Y226951D01*
X247681Y227086D01*
X248041Y226725D01*
X247907Y226525D01*
X247800Y225984D01*
X247907Y225444D01*
X248214Y224985D01*
X248672Y224679D01*
X249213Y224571D01*
X249753Y224679D01*
X250212Y224985D01*
X250518Y225444D01*
X250626Y225984D01*
X250518Y226525D01*
X250212Y226983D01*
X249753Y227290D01*
X249213Y227397D01*
X248672Y227290D01*
X248533Y227197D01*
X248172Y227557D01*
X248348Y227820D01*
X248470Y228435D01*
X248348Y229049D01*
X248000Y229570D01*
X247479Y229918D01*
X246865Y230040D01*
D02*
G37*
G36*
X240158Y224641D02*
X239617Y224534D01*
X239158Y224227D01*
X238852Y223769D01*
X238744Y223228D01*
X238852Y222688D01*
X239158Y222229D01*
X239617Y221923D01*
X240158Y221815D01*
X240698Y221923D01*
X241157Y222229D01*
X241266Y222394D01*
X241848Y222365D01*
X242005Y222131D01*
X242463Y221825D01*
X243004Y221717D01*
X243545Y221825D01*
X244003Y222131D01*
X244309Y222589D01*
X244417Y223130D01*
X244309Y223671D01*
X244003Y224129D01*
X243545Y224435D01*
X243004Y224543D01*
X242463Y224435D01*
X242005Y224129D01*
X241895Y223965D01*
X241313Y223993D01*
X241157Y224227D01*
X240698Y224534D01*
X240158Y224641D01*
D02*
G37*
G36*
X257579Y208889D02*
X256964Y208767D01*
X256443Y208419D01*
X256095Y207898D01*
X255973Y207283D01*
X256095Y206669D01*
X256443Y206148D01*
X256964Y205800D01*
X257579Y205678D01*
X258193Y205800D01*
X258714Y206148D01*
X259062Y206669D01*
X259184Y207283D01*
X259062Y207898D01*
X258714Y208419D01*
X258193Y208767D01*
X257579Y208889D01*
D02*
G37*
G36*
X227384Y207669D02*
X226770Y207547D01*
X226249Y207199D01*
X225901Y206678D01*
X225779Y206063D01*
X225901Y205449D01*
X226249Y204928D01*
X226770Y204580D01*
X227384Y204458D01*
X227999Y204580D01*
X228520Y204928D01*
X228868Y205449D01*
X228990Y206063D01*
X228868Y206678D01*
X228520Y207199D01*
X227999Y207547D01*
X227384Y207669D01*
D02*
G37*
G36*
X259842Y202200D02*
X259302Y202093D01*
X258843Y201786D01*
X258537Y201328D01*
X258430Y200787D01*
X258537Y200247D01*
X258843Y199788D01*
X259302Y199482D01*
X259842Y199374D01*
X260383Y199482D01*
X260842Y199788D01*
X261148Y200247D01*
X261256Y200787D01*
X261148Y201328D01*
X260842Y201786D01*
X260383Y202093D01*
X259842Y202200D01*
D02*
G37*
G36*
X243701D02*
X243160Y202093D01*
X242702Y201786D01*
X242395Y201328D01*
X242288Y200787D01*
X242395Y200247D01*
X242702Y199788D01*
X243160Y199482D01*
X243701Y199374D01*
X244241Y199482D01*
X244700Y199788D01*
X245006Y200247D01*
X245114Y200787D01*
X245006Y201328D01*
X244700Y201786D01*
X244241Y202093D01*
X243701Y202200D01*
D02*
G37*
G36*
X247215Y201901D02*
X246601Y201779D01*
X246080Y201431D01*
X245731Y200910D01*
X245609Y200295D01*
X245731Y199681D01*
X246080Y199160D01*
X246601Y198812D01*
X247215Y198690D01*
X247829Y198812D01*
X248350Y199160D01*
X248698Y199681D01*
X248821Y200295D01*
X248698Y200910D01*
X248350Y201431D01*
X247829Y201779D01*
X247215Y201901D01*
D02*
G37*
G36*
X282677Y202068D02*
X280891Y201892D01*
X279174Y201371D01*
X277591Y200525D01*
X276204Y199387D01*
X275065Y198000D01*
X274219Y196417D01*
X273698Y194699D01*
X273522Y192913D01*
X273698Y191127D01*
X274219Y189410D01*
X275065Y187827D01*
X276204Y186440D01*
X277591Y185301D01*
X279174Y184456D01*
X280891Y183935D01*
X282677Y183759D01*
X284463Y183935D01*
X286180Y184456D01*
X287763Y185301D01*
X289151Y186440D01*
X290289Y187827D01*
X291135Y189410D01*
X291656Y191127D01*
X291832Y192913D01*
X291656Y194699D01*
X291135Y196417D01*
X290289Y198000D01*
X289151Y199387D01*
X287763Y200525D01*
X286180Y201371D01*
X284463Y201892D01*
X282677Y202068D01*
D02*
G37*
G36*
X209842D02*
X208056Y201892D01*
X206339Y201371D01*
X204756Y200525D01*
X203369Y199387D01*
X202231Y198000D01*
X201385Y196417D01*
X200864Y194699D01*
X200688Y192913D01*
X200864Y191127D01*
X201385Y189410D01*
X202231Y187827D01*
X203369Y186440D01*
X204756Y185301D01*
X206339Y184456D01*
X208056Y183935D01*
X209842Y183759D01*
X211629Y183935D01*
X213346Y184456D01*
X214929Y185301D01*
X216316Y186440D01*
X217454Y187827D01*
X218300Y189410D01*
X218821Y191127D01*
X218997Y192913D01*
X218821Y194699D01*
X218300Y196417D01*
X217454Y198000D01*
X216316Y199387D01*
X214929Y200525D01*
X213346Y201371D01*
X211629Y201892D01*
X209842Y202068D01*
D02*
G37*
G36*
X275003Y131318D02*
Y126972D01*
X279350D01*
X279220Y127955D01*
X278764Y129058D01*
X278037Y130005D01*
X277090Y130732D01*
X275987Y131189D01*
X275003Y131318D01*
D02*
G37*
G36*
X274603D02*
X273620Y131189D01*
X272517Y130732D01*
X271570Y130005D01*
X270843Y129058D01*
X270386Y127955D01*
X270256Y126972D01*
X274603D01*
Y131318D01*
D02*
G37*
G36*
X279350Y126572D02*
X275003D01*
Y122225D01*
X275987Y122354D01*
X277090Y122811D01*
X278037Y123538D01*
X278764Y124485D01*
X279220Y125588D01*
X279350Y126572D01*
D02*
G37*
G36*
X274603D02*
X270256D01*
X270386Y125588D01*
X270843Y124485D01*
X271570Y123538D01*
X272517Y122811D01*
X273620Y122354D01*
X274603Y122225D01*
Y126572D01*
D02*
G37*
G36*
X241240Y192452D02*
X240626Y192330D01*
X240105Y191982D01*
X239757Y191461D01*
X239634Y190847D01*
X239757Y190232D01*
X240105Y189711D01*
X240431Y189493D01*
Y140650D01*
X240431Y140650D01*
X240493Y140340D01*
X240668Y140077D01*
X251388Y129358D01*
X251158Y129058D01*
X250701Y127955D01*
X250545Y126772D01*
X250701Y125588D01*
X251158Y124485D01*
X251885Y123538D01*
X252832Y122811D01*
X253935Y122354D01*
X255118Y122199D01*
X256302Y122354D01*
X257405Y122811D01*
X258352Y123538D01*
X259078Y124485D01*
X259535Y125588D01*
X259691Y126772D01*
X259535Y127955D01*
X259078Y129058D01*
X258352Y130005D01*
X257405Y130732D01*
X256302Y131189D01*
X255118Y131345D01*
X253935Y131189D01*
X252832Y130732D01*
X252532Y130502D01*
X242049Y140985D01*
Y189493D01*
X242375Y189711D01*
X242724Y190232D01*
X242846Y190847D01*
X242724Y191461D01*
X242375Y191982D01*
X241855Y192330D01*
X241240Y192452D01*
D02*
G37*
G36*
X235433Y131345D02*
X234249Y131189D01*
X233147Y130732D01*
X232200Y130005D01*
X231473Y129058D01*
X231016Y127955D01*
X230860Y126772D01*
X231016Y125588D01*
X231473Y124485D01*
X232200Y123538D01*
X233147Y122811D01*
X234249Y122354D01*
X235433Y122199D01*
X236617Y122354D01*
X237720Y122811D01*
X238667Y123538D01*
X239393Y124485D01*
X239850Y125588D01*
X240006Y126772D01*
X239850Y127955D01*
X239393Y129058D01*
X238667Y130005D01*
X237720Y130732D01*
X236617Y131189D01*
X235433Y131345D01*
D02*
G37*
G36*
X274803Y111660D02*
X273620Y111504D01*
X272517Y111047D01*
X271570Y110320D01*
X270843Y109373D01*
X270386Y108270D01*
X270230Y107087D01*
X270386Y105903D01*
X270843Y104800D01*
X271570Y103853D01*
X272517Y103126D01*
X273620Y102670D01*
X274803Y102514D01*
X275987Y102670D01*
X277090Y103126D01*
X278037Y103853D01*
X278764Y104800D01*
X279220Y105903D01*
X279376Y107087D01*
X279220Y108270D01*
X278764Y109373D01*
X278037Y110320D01*
X277090Y111047D01*
X275987Y111504D01*
X274803Y111660D01*
D02*
G37*
G36*
X255118D02*
X253935Y111504D01*
X252832Y111047D01*
X251885Y110320D01*
X251158Y109373D01*
X250701Y108270D01*
X250545Y107087D01*
X250701Y105903D01*
X251158Y104800D01*
X251885Y103853D01*
X252832Y103126D01*
X253935Y102670D01*
X255118Y102514D01*
X256302Y102670D01*
X257405Y103126D01*
X258352Y103853D01*
X259078Y104800D01*
X259535Y105903D01*
X259691Y107087D01*
X259535Y108270D01*
X259078Y109373D01*
X258352Y110320D01*
X257405Y111047D01*
X256302Y111504D01*
X255118Y111660D01*
D02*
G37*
G36*
X235433D02*
X234249Y111504D01*
X233147Y111047D01*
X232200Y110320D01*
X231473Y109373D01*
X231016Y108270D01*
X230860Y107087D01*
X231016Y105903D01*
X231473Y104800D01*
X232200Y103853D01*
X233147Y103126D01*
X234249Y102670D01*
X235433Y102514D01*
X236617Y102670D01*
X237720Y103126D01*
X238667Y103853D01*
X239393Y104800D01*
X239850Y105903D01*
X240006Y107087D01*
X239850Y108270D01*
X239393Y109373D01*
X238667Y110320D01*
X237720Y111047D01*
X236617Y111504D01*
X235433Y111660D01*
D02*
G37*
G36*
X269180Y302565D02*
X266027D01*
Y299413D01*
X269180D01*
Y302565D01*
D02*
G37*
G36*
X236027Y302568D02*
Y299413D01*
X239182D01*
X239093Y300088D01*
X238755Y300903D01*
X238218Y301604D01*
X237518Y302141D01*
X236702Y302479D01*
X236027Y302568D01*
D02*
G37*
G36*
X265627Y302565D02*
X262474D01*
Y299413D01*
X265627D01*
Y302565D01*
D02*
G37*
G36*
X235627Y302568D02*
X234951Y302479D01*
X234136Y302141D01*
X233436Y301604D01*
X232898Y300903D01*
X232560Y300088D01*
X232471Y299413D01*
X235627D01*
Y302568D01*
D02*
G37*
G36*
X269180Y299013D02*
X266027D01*
Y295860D01*
X269180D01*
Y299013D01*
D02*
G37*
G36*
X265627D02*
X262474D01*
Y295860D01*
X265627D01*
Y299013D01*
D02*
G37*
G36*
X235627D02*
X232471D01*
X232560Y298337D01*
X232898Y297522D01*
X233436Y296821D01*
X234136Y296284D01*
X234951Y295946D01*
X235627Y295857D01*
Y299013D01*
D02*
G37*
G36*
X239182D02*
X236027D01*
Y295857D01*
X236702Y295946D01*
X237518Y296284D01*
X238218Y296821D01*
X238755Y297522D01*
X239093Y298337D01*
X239182Y299013D01*
D02*
G37*
G36*
X255827Y302594D02*
X254952Y302479D01*
X254136Y302141D01*
X253436Y301604D01*
X252898Y300903D01*
X252560Y300088D01*
X252445Y299213D01*
X252560Y298337D01*
X252898Y297522D01*
X253436Y296821D01*
X254136Y296284D01*
X254952Y295946D01*
X255827Y295831D01*
X256702Y295946D01*
X257518Y296284D01*
X258218Y296821D01*
X258755Y297522D01*
X259093Y298337D01*
X259208Y299213D01*
X259093Y300088D01*
X258755Y300903D01*
X258218Y301604D01*
X257518Y302141D01*
X256702Y302479D01*
X255827Y302594D01*
D02*
G37*
G36*
X245827D02*
X244952Y302479D01*
X244136Y302141D01*
X243436Y301604D01*
X242898Y300903D01*
X242560Y300088D01*
X242445Y299213D01*
X242560Y298337D01*
X242898Y297522D01*
X243436Y296821D01*
X244136Y296284D01*
X244952Y295946D01*
X245827Y295831D01*
X246702Y295946D01*
X247518Y296284D01*
X248218Y296821D01*
X248755Y297522D01*
X249093Y298337D01*
X249208Y299213D01*
X249093Y300088D01*
X248755Y300903D01*
X248218Y301604D01*
X247518Y302141D01*
X246702Y302479D01*
X245827Y302594D01*
D02*
G37*
%LPD*%
D12*
X225597Y281109D02*
X288907D01*
X201543Y279102D02*
X223591D01*
X225597Y281109D01*
X194783Y303445D02*
X203740Y294488D01*
X281496D01*
X290551Y303543D01*
X288882Y294788D02*
Y296362D01*
X286614Y292520D02*
X288882Y294788D01*
X200787Y292520D02*
X286614D01*
X194862Y298445D02*
X200787Y292520D01*
X288882Y296362D02*
X291339Y298819D01*
X197244Y290945D02*
X288701D01*
X291201Y293445D01*
X194744D02*
X197244Y290945D01*
X194902Y288603D02*
X291322D01*
X194744Y288445D02*
X194902Y288603D01*
X288907Y281109D02*
X290913Y279102D01*
X241240Y140650D02*
X255118Y126772D01*
X241240Y140650D02*
Y190847D01*
D51*
X235827Y299213D02*
D03*
D52*
X265827D02*
D03*
D53*
X274803Y126772D02*
D03*
X255118D02*
D03*
D55*
X219310Y305002D02*
D03*
X254033Y116569D02*
D03*
X256986D02*
D03*
X259938D02*
D03*
X262842Y116032D02*
D03*
X264930Y113944D02*
D03*
X267018Y111857D02*
D03*
X269106Y109769D02*
D03*
X272234Y112671D02*
D03*
X270146Y114759D02*
D03*
X268058Y116847D02*
D03*
X265970Y118935D02*
D03*
X263636Y120744D02*
D03*
X260685Y120833D02*
D03*
X257732D02*
D03*
X254779D02*
D03*
X251827D02*
D03*
X248874D02*
D03*
X245921D02*
D03*
X242968D02*
D03*
X240016D02*
D03*
X237063D02*
D03*
X234110D02*
D03*
X231157D02*
D03*
X228205D02*
D03*
X225252D02*
D03*
X222299D02*
D03*
X219346D02*
D03*
X216394D02*
D03*
X213441D02*
D03*
X210488D02*
D03*
X207535D02*
D03*
X204583D02*
D03*
X201630D02*
D03*
X198677D02*
D03*
X195724D02*
D03*
X193467Y122737D02*
D03*
X191379Y124825D02*
D03*
X189292Y126913D02*
D03*
X187204Y129001D02*
D03*
X185116Y131088D02*
D03*
X183028Y133176D02*
D03*
X182053Y135964D02*
D03*
Y138917D02*
D03*
Y141869D02*
D03*
Y144822D02*
D03*
Y147775D02*
D03*
Y150727D02*
D03*
Y153680D02*
D03*
Y156633D02*
D03*
Y159586D02*
D03*
Y162539D02*
D03*
Y165491D02*
D03*
Y168444D02*
D03*
Y171397D02*
D03*
Y174349D02*
D03*
Y177302D02*
D03*
Y180255D02*
D03*
Y183208D02*
D03*
Y186161D02*
D03*
Y189113D02*
D03*
Y192066D02*
D03*
Y195019D02*
D03*
Y197971D02*
D03*
Y200924D02*
D03*
Y203877D02*
D03*
Y206830D02*
D03*
Y209783D02*
D03*
Y212735D02*
D03*
Y215688D02*
D03*
Y218641D02*
D03*
Y221593D02*
D03*
Y224546D02*
D03*
Y227499D02*
D03*
Y230452D02*
D03*
X184059Y232619D02*
D03*
X186147Y234707D02*
D03*
X188235Y236794D02*
D03*
X190323Y238882D02*
D03*
X192411Y240970D02*
D03*
X194499Y243058D02*
D03*
X196587Y245146D02*
D03*
X200762Y249322D02*
D03*
X207026Y255586D02*
D03*
X209114Y257674D02*
D03*
X211202Y259762D02*
D03*
X213290Y261849D02*
D03*
X215378Y263937D02*
D03*
X217466Y266025D02*
D03*
X219554Y268113D02*
D03*
X221551Y270288D02*
D03*
X221817Y273229D02*
D03*
Y276182D02*
D03*
Y282087D02*
D03*
Y285040D02*
D03*
Y296851D02*
D03*
Y299803D02*
D03*
X222892Y302554D02*
D03*
X224980Y304642D02*
D03*
X202557Y302696D02*
D03*
X204167Y300221D02*
D03*
Y297268D02*
D03*
Y285457D02*
D03*
X202246Y271403D02*
D03*
X195983Y265140D02*
D03*
X193895Y263052D02*
D03*
X191807Y260964D02*
D03*
X189719Y258876D02*
D03*
X187631Y256788D02*
D03*
X185543Y254700D02*
D03*
X183455Y252612D02*
D03*
X181367Y250524D02*
D03*
X179279Y248436D02*
D03*
X177191Y246349D02*
D03*
X175103Y244261D02*
D03*
X173016Y242173D02*
D03*
X170928Y240085D02*
D03*
X168957Y237886D02*
D03*
X168734Y234942D02*
D03*
Y231989D02*
D03*
Y229036D02*
D03*
Y226083D02*
D03*
Y223130D02*
D03*
Y220178D02*
D03*
Y217225D02*
D03*
Y214272D02*
D03*
Y211319D02*
D03*
Y208367D02*
D03*
Y205414D02*
D03*
Y202461D02*
D03*
Y199509D02*
D03*
Y196556D02*
D03*
Y193603D02*
D03*
Y190650D02*
D03*
Y187698D02*
D03*
Y184745D02*
D03*
Y181792D02*
D03*
Y178839D02*
D03*
Y175886D02*
D03*
Y172934D02*
D03*
Y169981D02*
D03*
Y167028D02*
D03*
Y164076D02*
D03*
Y161123D02*
D03*
Y158170D02*
D03*
Y155217D02*
D03*
Y152264D02*
D03*
Y149312D02*
D03*
Y146359D02*
D03*
Y143406D02*
D03*
Y140454D02*
D03*
Y137501D02*
D03*
Y134548D02*
D03*
Y131595D02*
D03*
X168773Y128643D02*
D03*
X170466Y126224D02*
D03*
X172554Y124136D02*
D03*
X174642Y122048D02*
D03*
X176730Y119960D02*
D03*
X178818Y117872D02*
D03*
X180905Y115784D02*
D03*
X182993Y113696D02*
D03*
X185081Y111608D02*
D03*
X187169Y109520D02*
D03*
X189257Y107432D02*
D03*
X192035Y106431D02*
D03*
X194988D02*
D03*
X197940D02*
D03*
X200893D02*
D03*
X203846D02*
D03*
X206799D02*
D03*
X209751D02*
D03*
X212704D02*
D03*
X215657D02*
D03*
X218610D02*
D03*
X221562D02*
D03*
X224515D02*
D03*
X227468D02*
D03*
X208431Y275642D02*
D03*
Y281547D02*
D03*
Y284500D02*
D03*
Y296311D02*
D03*
Y299264D02*
D03*
X208382Y302216D02*
D03*
X206665Y304618D02*
D03*
X211096Y304717D02*
D03*
Y301764D02*
D03*
Y298812D02*
D03*
Y284048D02*
D03*
Y281095D02*
D03*
Y275190D02*
D03*
X210281Y272352D02*
D03*
X208193Y270264D02*
D03*
X201929Y264000D02*
D03*
X195666Y257736D02*
D03*
X193578Y255648D02*
D03*
X191490Y253560D02*
D03*
X189402Y251472D02*
D03*
X187314Y249384D02*
D03*
X185226Y247297D02*
D03*
X183138Y245209D02*
D03*
X181050Y243121D02*
D03*
X178963Y241033D02*
D03*
X176875Y238945D02*
D03*
X174787Y236857D02*
D03*
X173360Y234272D02*
D03*
Y231319D02*
D03*
Y228366D02*
D03*
Y225414D02*
D03*
Y222461D02*
D03*
Y219508D02*
D03*
Y216555D02*
D03*
Y213603D02*
D03*
Y210650D02*
D03*
Y207697D02*
D03*
Y204744D02*
D03*
Y201792D02*
D03*
Y198839D02*
D03*
Y195886D02*
D03*
Y192933D02*
D03*
Y189981D02*
D03*
Y187028D02*
D03*
Y184075D02*
D03*
Y181122D02*
D03*
Y178170D02*
D03*
Y175217D02*
D03*
Y172264D02*
D03*
Y169311D02*
D03*
Y166359D02*
D03*
Y163406D02*
D03*
Y160453D02*
D03*
Y157500D02*
D03*
Y154548D02*
D03*
Y151595D02*
D03*
Y148642D02*
D03*
Y145689D02*
D03*
Y142737D02*
D03*
Y139784D02*
D03*
Y136831D02*
D03*
Y133878D02*
D03*
X173395Y130926D02*
D03*
X175079Y128500D02*
D03*
X177167Y126412D02*
D03*
X179255Y124325D02*
D03*
X181343Y122237D02*
D03*
X183431Y120149D02*
D03*
X185519Y118061D02*
D03*
X187606Y115973D02*
D03*
X189694Y113885D02*
D03*
X191837Y111853D02*
D03*
X194762Y111451D02*
D03*
X197715D02*
D03*
X200667D02*
D03*
X203620D02*
D03*
X206573D02*
D03*
X209526D02*
D03*
X212478D02*
D03*
X215431D02*
D03*
X218384D02*
D03*
X221337D02*
D03*
X224289D02*
D03*
X227242D02*
D03*
X230195D02*
D03*
X239053D02*
D03*
X242006D02*
D03*
X244959D02*
D03*
X247766Y110537D02*
D03*
X251390Y112944D02*
D03*
X249302Y115032D02*
D03*
X246429Y115715D02*
D03*
X243477D02*
D03*
X240524D02*
D03*
X237571D02*
D03*
X234618D02*
D03*
X231665D02*
D03*
X228713D02*
D03*
X225760D02*
D03*
X222807D02*
D03*
X219854D02*
D03*
X216902D02*
D03*
X213949D02*
D03*
X210996D02*
D03*
X208043D02*
D03*
X205091D02*
D03*
X202138D02*
D03*
X199185D02*
D03*
X196232D02*
D03*
X193334Y116276D02*
D03*
X191246Y118364D02*
D03*
X189158Y120452D02*
D03*
X187070Y122540D02*
D03*
X184982Y124628D02*
D03*
X182894Y126716D02*
D03*
X180806Y128804D02*
D03*
X178718Y130892D02*
D03*
X177624Y133634D02*
D03*
Y136587D02*
D03*
Y139540D02*
D03*
Y142492D02*
D03*
Y145445D02*
D03*
Y148398D02*
D03*
Y151351D02*
D03*
Y154304D02*
D03*
Y157256D02*
D03*
Y160209D02*
D03*
Y163162D02*
D03*
Y166114D02*
D03*
Y169067D02*
D03*
Y172020D02*
D03*
Y174973D02*
D03*
Y177926D02*
D03*
Y180878D02*
D03*
Y183831D02*
D03*
Y186784D02*
D03*
Y189736D02*
D03*
Y192689D02*
D03*
Y195642D02*
D03*
Y198595D02*
D03*
Y201548D02*
D03*
Y204500D02*
D03*
Y207453D02*
D03*
Y210406D02*
D03*
Y213358D02*
D03*
Y216311D02*
D03*
Y219264D02*
D03*
Y222217D02*
D03*
Y225169D02*
D03*
Y228122D02*
D03*
Y231075D02*
D03*
X177968Y234008D02*
D03*
X180056Y236096D02*
D03*
X182144Y238183D02*
D03*
X184232Y240271D02*
D03*
X186319Y242359D02*
D03*
X188407Y244447D02*
D03*
X190495Y246535D02*
D03*
X192583Y248623D02*
D03*
X194671Y250711D02*
D03*
X196759Y252799D02*
D03*
X200935Y256975D02*
D03*
X207199Y263238D02*
D03*
X209286Y265326D02*
D03*
X211374Y267414D02*
D03*
X213462Y269502D02*
D03*
X215271Y271836D02*
D03*
X215360Y274787D02*
D03*
Y283645D02*
D03*
Y286598D02*
D03*
Y298409D02*
D03*
Y301362D02*
D03*
Y304315D02*
D03*
X290551Y303543D02*
D03*
X194783Y303445D02*
D03*
X291339Y298819D02*
D03*
X194862Y298445D02*
D03*
D56*
X290913Y279102D02*
D03*
X201543D02*
D03*
X291322Y288603D02*
D03*
X194744Y288445D02*
D03*
X291201Y293445D02*
D03*
X194744D02*
D03*
X275984Y303543D02*
D03*
X173209Y274823D02*
D03*
X282638Y275236D02*
D03*
X241240Y190847D02*
D03*
X244783D02*
D03*
X261122Y207283D02*
D03*
X226619Y213510D02*
D03*
X256406Y212953D02*
D03*
X249902Y242126D02*
D03*
X250787Y237992D02*
D03*
X242126Y250394D02*
D03*
X236910D02*
D03*
X232874Y227165D02*
D03*
Y231201D02*
D03*
X206398Y241043D02*
D03*
X206496Y244193D02*
D03*
X221752Y229331D02*
D03*
X210925Y231496D02*
D03*
X231521Y248330D02*
D03*
X231398Y252756D02*
D03*
X220866Y250394D02*
D03*
X257382Y251969D02*
D03*
X253642D02*
D03*
X249902D02*
D03*
X215453Y254545D02*
D03*
D57*
X247146Y209547D02*
D03*
X242421Y209547D02*
D03*
X247146Y214272D02*
D03*
X242421D02*
D03*
M02*
