M48
;Layer_Color=9474304
;FILE_FORMAT=2:5
INCH,LZ
;TYPE=PLATED
T1F00S00C0.00787
T2F00S00C0.00984
T3F00S00C0.01181
T4F00S00C0.01299
T5F00S00C0.02800
T6F00S00C0.03543
T7F00S00C0.11811
%
T01
X0335433Y0073228
X0341732
X0348031
X0354331
X036063
X0366929
X0373228
X0379528
X0385827
X0392126
X0398425
X0404724
X0411024
X0417323
X0430762Y0068823
X0435827Y0070866
Y0064567
Y0058268
Y0051968
Y0045669
Y003937
Y0033071
X0462992Y0033465
X0471654
Y0057087
X0462992
Y0071653
X0471654
Y0095276
X0462992
Y0109843
X0471654
Y0133465
X0462992
X0435827Y0130709
Y0124409
Y011811
Y0111811
Y0105512
X0430709Y0105512
X0425189
X0435827Y0086614
Y0080315
X0403966Y0058209
X0329134Y0073228
X0322835
X0316535
X0310236
X0303937
X0297638
X0291339
X0285039
X027874
X0272441
X0266142
X0259842
X0253543
X0247244
X0240945
X0234646
X0228346
X0222047
X0215748
X0209449
X020315
X019685
X0190551
X0184252
X0177953
X0188189Y0041732
Y0035827
X0228346
Y0041732
X026811
Y0035827
X0148425
X0153937Y0044488
X0152756Y0073228
X0159055
X0165354
X0171653
X0146457
X0140157
X0110433Y0072244
Y0076575
X0106102
Y0072244
X0105118Y0063386
X0113779
X0113779Y0093307
X0105118
X0106102Y0102165
Y0106496
X0110433
Y0102165
X0087008Y0093701
X0082677Y0093701
Y008937
X0078347
X0078347Y0085039
X0082677Y0085039
X0087008Y0085039
X0087008Y008937
X0078347Y0093701
X0066929Y0091339
X0068379Y0086721
X0067716Y01
X0063386
X0065748Y0105905
X0065354Y0112992
Y0123228
X0059055Y0119291
X0047638Y0132283
X0077953Y0131496
X0081102
X0080085Y0106841
X007441Y0108268
X0074016Y0104331
X0078347Y007441
Y007126
X0058661Y007874
X0053543
X0048819
X0043701
X0038583
X003622Y0062992
X0041339
X0046063Y0057087
X0051181
X0056299
X0061024
X0064567Y0035433
X0033071
X0031496Y011063
Y0112992
X0022047Y0111811
X0020866Y0116142
X0132677Y0120472
Y0127165
Y0133465
Y0139764
Y0146063
Y0152362
Y0158661
Y0164961
Y017126
X0140157Y0174409
X0146457
X0152756
X0159055
X0165354
X0171653
X0171653Y0205118
X0165354
X0159055
X0152756
X0146457
X0110433Y020689
X0106102
Y0202559
X0110433
X0113779Y0193701
X0105118
X0106102Y0176969
X0110433
Y0172638
X0106102
X0105118Y0163779
X0113779
X0077953Y0171653
Y0174803
X0078347Y0185433
X0078347Y0189764
X0082677
Y0185433
X0087008Y0185433
X0087008Y0189764
X0087008Y0194095
X0082677Y0194095
X0078347Y0194095
X006811Y0197244
X0064961Y0194882
X006811Y0189764
Y0184646
X0058661Y0177165
X0053937
X0048819
X0043701
X0038583
X0046457Y0143307
Y0140157
X0055905Y0144488
X0058661Y0152756
X006811
X0081102Y0143307
X0077953Y0137402
X0027165Y0134252
X0033071Y0229134
X003622Y0237402
X0041221Y0237402
X004622
X0051221
X0056221
X0061221Y0237402
X0064527Y0229095
X0074016Y0204724
X0080172Y0207272
X0148425Y0135433
X0161024Y0135827
X0188189Y0135433
Y0141732
X0190551Y0174409
X019685
X020315
X0209449
X0215748
X0222047
X0228346
X0234646
X0240945
X0247244
X0253543
X0259842
X0266142
X0272441
X027874
X0285039
X0291339
X0297638
X0303937
X0310236
X0316535
X0322835
X0329134
X0329134Y0205118
X0322835
X0316535
X0310236
X0303937
X0297638
X0291339
X0285039
X027874
X0272441
X0266142
X0259842
X0253543
X0247244
X0240945
X0234646
X0228346
X0222047
X0215748
X0209449
X020315
X019685
X0190551
X0184252
X0177953
X0177953Y0174409
X0184252
X0228346Y0141732
Y0135433
X026811
Y0141732
X0286614Y0237795
Y0244094
X0326772
Y0237795
X0366929
Y0244094
Y0205118
X0373228
X0379528
X0385827
X0392126
X0398425
X0404724
X0411024
X0417323
X0427953Y0211024
X0423622Y0215748
X0435827Y0215748
Y0222047
Y0228346
Y0209449
Y020315
Y019685
X0427953Y0197638
Y0181496
X0435827Y0181102
Y0174803
Y0168504
Y0162205
Y0155905
Y0149606
Y0143307
Y0137008
X0424409Y0159843
X0427953Y0166142
X0417323Y0174409
X0411024
X0404724
X0398425
X0392126
X0385827
X0379528
X0373228
X0366929
X036063
X0354331
X0348031
X0341732
X0335433
X0335433Y0205118
X0341732
X0348031
X0354331
X036063
X0401968Y0234646
X0406693Y0244094
X0462992Y0247638
X0471654
Y0224016
X0462992
Y0209842
X0471654
Y0186221
X0462992
Y0171653
X0471654
Y0148031
X0462992
X0435827Y0187402
T02
X0115354Y0067323
X0118361Y0070233
X0118504Y0074409
X0120835Y0076594
X0118718Y0078711
X0115354Y0081496
Y0084252
X0120943Y0072261
Y0102182
X0120835Y0106515
X0118718Y0108633
X0118504Y0104331
X0115354Y0111417
Y0114173
Y0167717
X0118361Y0170626
X0118504Y0174803
X0120835Y0176987
X0118718Y0179105
X0115354Y018189
Y0184646
Y0197638
X0118361Y0200548
X0118504Y0204724
X0120835Y0206909
X0118718Y0209026
X0115354Y0211811
Y0214567
X0120943Y0202576
Y0172654
T03
X0344488Y0055512
X0356299Y0055512
X0365748Y0047638
Y0040945
X0380709Y0055512
X039252
X0401968Y0047638
Y0040945
X0416929Y0055512
X0416892Y0079783
X0392521Y0079356
X0380639Y0079773
X0356301Y0079356
X0344506Y0079924
X0440158Y007126
X0449213Y005748
X0440158Y0033071
X0449213Y0095669
X0440158Y0109449
X0449213Y0133858
X032008Y0079356
X0308223Y0079753
X0308268Y0055512
X0320079
X0329528Y0047638
Y0040945
X0293307
Y0047638
X0283858Y0055512
X0272047
X0272047Y0066536
X0272011Y0079714
X028386Y0079356
X0247639Y0079356
X0235785Y0079774
X0235827Y0066535
X0235827Y0055512
X0247638
X0247638Y0066536
X0257087Y0047638
Y0040945
X0220866
Y0047638
X0211417Y0055512
X0211417Y0066535
X0199606
X0199606Y0055512
X0184646Y0047638
Y0040945
X0175197Y0055512
X0175197Y0066536
X0175198Y0079356
X0199657Y0079668
X0211419Y0079356
X0163445Y0079854
X0163386Y0066535
X0163386Y0055512
X0138976Y0055512
X0138976Y0066536
X0138978Y0079356
X0138976Y0155905
X0138976Y0166929
X0138978Y017975
X0138976Y0199606
Y0223622
X0153937Y0231496
Y0238583
X0163386Y0223622
X0163384Y0199778
X0163386Y0179921
X0163386Y0166929
X0163386Y0155905
X0153937Y0144095
X0175197Y0155905
X0175197Y0166929
X0175198Y017975
X0175197Y0199606
Y0223622
X0190157Y0231496
Y0238583
X0199606Y0223622
X0211417
X0226378Y0231496
Y0238583
X0235827Y0223622
X0247638Y0223622
X0262598Y0231496
Y0238583
X0272047Y0223622
X0283858Y0223622
Y0212598
X0283858Y0199606
X0272046Y0199778
X0272047Y0179921
X028386Y017975
X0283858Y0155905
X0272047
X0272047Y0166929
X0247638
X0247638Y0155905
X0235827Y0155905
X0235827Y0166929
X0235827Y0179921
X0247639Y017975
X0247638Y0199606
X0235825Y0199778
X0211417Y0199606
X0199605Y0199778
X0199606Y0179921
X0211419Y017975
X0211417Y0166929
X0211417Y0155905
X0199606
X0199606Y0166929
X0184646Y0148031
Y0140945
X0220866
Y0148031
X0257087
Y0140945
X0293307
Y0148031
X0308268Y0155905
X0320079
X0329528Y0148031
Y0140945
X032008Y017975
X0308268Y0179921
X0308266Y0199778
X0320079Y0199606
X0320079Y0212598
Y0223622
X0308268Y0223622
X0308268Y0212598
X0298819Y0231496
Y0238583
X0335039Y0238583
Y0231496
X0344488Y0223622
X0344488Y0212598
X0356299Y0212598
X0356299Y0223622
X037126Y0231496
Y0238583
X0380709Y0223622
X0380709Y0212598
X039252
X039252Y0223622
X039252Y0199606
X0380707Y0199778
X0380709Y0179921
X0392521Y017975
X0416929Y0179921
X0416928Y0199778
X0416929Y0212598
X0416929Y0223622
X0440158Y0223622
X0449213Y0210236
X0440158Y0185827
X0449213Y0172047
X0440158Y0147638
X0416929Y0149606
X0412992Y015748
X0401968Y0148031
Y0140945
X039252Y0149606
X0380709Y0155905
X0365748Y0148031
Y0140945
X0356299Y0155905
X0344488Y0155905
X0344488Y0179921
X0356301Y017975
X0356299Y0199606
X0344487Y0199778
X0449213Y0248031
T04
X0062992Y0134252
X0067716
Y0138976
X0062992
T05
X0031102Y015
Y0157874
Y0193701
Y0201575
T06
X0493937Y0024803
Y0034803
X0503937
Y0024803
Y0044803
Y0054803
X0493937Y0054803
Y0044803
Y0064803
Y0074803
Y0084803
X0503937Y0084803
Y0074803
Y0064803
Y0094803
Y0104803
Y0114803
Y0124803
X0493937
Y0114803
Y0104803
Y0094803
X0417323Y0107717
X0407323
X0397323
X0387323
X0377323
Y0117717
X0367323
X0357323Y0117717
Y0107717
X0367323
X0347323
X0337323
Y0117717
X0347323
X0387323
X0397323
X0407323
X0417323
X0417165Y0017874
X0417165Y0007874
X0407165
X0397165
Y0017874
X0407165
X0387165Y0017874
Y0007874
X0377165
X0367165
X0357165
X0347165
X0347165Y0017874
X0337165
X0337165Y0007874
X0357165Y0017874
X0367165
X0377165
X0327165
Y0007874
X0287795
X0277795
X0267795Y0007874
X0257795Y0007874
X0247795
X0237795Y0007874
X0227795Y0007874
X0217795Y0007874
X0207795Y0007874
X0197795
X0187795
X0177795Y0007874
X0177795Y0017874
X0187795Y0017874
X0197795
X0207795
X0217795Y0017874
X0227795Y0017874
X0237795Y0017874
X0247795Y0017874
X0257795
X0267795Y0017874
X0277795Y0017874
X0287795
X0287795Y0107717
X0277795
Y0117717
X0287795
X0267795
Y0107717
X0257795
X0257795Y0117717
X0247795Y0117717
X0237795
Y0107717
X0247795Y0107717
X0227795
Y0117717
X0217795
Y0107717
X0207795
Y0117717
X0197795
X0187795
X0187795Y0107717
X0177795Y0107717
Y0117717
X0197795Y0107717
X0327323
Y0117717
X0167795Y0117717
X0167795Y0107717
X0157795
Y0117717
X0147795
X0147795Y0107717
X0137795
Y0117717
X0137795Y0017874
X0137795Y0007874
X0147795
X0157795
Y0017874
X0167795
X0167795Y0007874
X0147795Y0017874
X0008268Y0140079
Y0150079
Y0160079
Y0170079
Y0181496
Y0191496
Y0201496
Y0211496
X0137559Y0261653
X0137559Y0271654
X0147559
X0157559
X0167559
X0167559Y0261653
X0157559
X0147559
X0177559
X0187559
X0197559
X0207559
X0217559
X0227559
Y0271654
X0217559
X0207559
X0197559
X0187559
X0177559
X0267087
Y0261653
X0277087Y0261653
Y0271654
X0287087
Y0261653
X0297087Y0261653
X0307087
X0307087Y0271654
X0297087
X0317087
Y0261653
X0327087
Y0271654
X0337087
Y0261653
X0347087
X0347087Y0271654
X0357087
Y0261653
X0367087Y0261653
Y0271654
X0377087
Y0261653
X0387087Y0261653
Y0271654
X0397087
X0407087
Y0261653
X0417087
Y0271654
X0397087Y0261653
X0493937Y0254803
Y0244803
Y0234803
Y0224803
Y0214803
Y0204803
Y0194803
Y0184803
Y0174803
Y0164803
X0503937
Y0154803
Y0144803
Y0134803
X0493937Y0134803
Y0144803
Y0154803
X0503937Y0174803
Y0184803
Y0194803
Y0204803
Y0214803
Y0224803
Y0234803
Y0244803
Y0254803
T07
X0473425Y0011811
X0020669
Y0267717
X0473425
M30
